# Generated by Visualization Toolkit
v 0.009913000278174877 -0.39047500491142273 0.11309599876403809
v 0.009689999744296074 -0.3899810016155243 0.1129629984498024
v 0.008684000000357628 -0.39050599932670593 0.11285100132226944
v 0.008755999617278576 -0.3909730017185211 0.11307299882173538
v 0.010333999991416931 -0.39054200053215027 0.11285299807786942
v 0.010137000121176243 -0.39096400141716003 0.11324000358581543
v 0.008771000429987907 -0.38950398564338684 0.1126990020275116
v 0.009244999848306179 -0.3889929950237274 0.11270400136709213
v 0.009469999931752682 -0.3890010118484497 0.11268900334835052
v 0.010226000100374222 -0.38960498571395874 0.11241599917411804
v 0.010073999874293804 -0.3891089856624603 0.11230000108480453
v 0.008270000107586384 -0.38958001136779785 0.11233799904584885
v 0.007716999854892492 -0.39071598649024963 0.11189699918031693
v 0.010363999754190445 -0.39163899421691895 0.1134679988026619
v 0.01015700027346611 -0.3923740088939667 0.1138719990849495
v 0.008768999949097633 -0.3923960030078888 0.11365199834108353
v 0.008252999745309353 -0.3920089900493622 0.11305300146341324
v 0.008456000126898289 -0.391961008310318 0.1132730022072792
v 0.007784999907016754 -0.3916749954223633 0.11224199831485748
v 0.010510999709367752 -0.39063799381256104 0.11247800290584564
v 0.010750999674201012 -0.39134201407432556 0.11282099783420563
v 0.010778999887406826 -0.39167100191116333 0.11316599696874619
v 0.008781000040471554 -0.38852301239967346 0.11245100200176239
v 0.00853000022470951 -0.38904300332069397 0.11242999881505966
v 0.009463000111281872 -0.3886449933052063 0.11250899732112885
v 0.010373000055551529 -0.3892419934272766 0.11178000271320343
v 0.009765000082552433 -0.3881169855594635 0.11206900328397751
v 0.010072000324726105 -0.38841500878334045 0.11185300350189209
v 0.00775500014424324 -0.3896839916706085 0.11186199635267258
v 0.008036999963223934 -0.3886229991912842 0.11196599900722504
v 0.007323000114411116 -0.39036399126052856 0.11116699874401093
v 0.007422999944537878 -0.3908570110797882 0.11128800362348557
v 0.007544999942183495 -0.3912929892539978 0.1116499975323677
v 0.007207000162452459 -0.38936400413513184 0.11098100244998932
v 0.010584999807178974 -0.39194801449775696 0.1135220006108284
v 0.009682999923825264 -0.39336100220680237 0.11404400318861008
v 0.00991399958729744 -0.39384201169013977 0.11423200368881226
v 0.009457999840378761 -0.39287498593330383 0.11388800293207169
v 0.010591999627649784 -0.39241400361061096 0.11374100297689438
v 0.010149000212550163 -0.3938319981098175 0.11429800093173981
v 0.00955200009047985 -0.39287298917770386 0.1139030009508133
v 0.008964999578893185 -0.3943819999694824 0.11406700313091278
v 0.00944599974900484 -0.39385899901390076 0.11411699652671814
v 0.008677000179886818 -0.3956510126590729 0.11398699879646301
v 0.009677999652922153 -0.39374199509620667 0.11412300169467926
v 0.008500000461935997 -0.39357200264930725 0.11370500177145004
v 0.008527999743819237 -0.39241600036621094 0.11354199796915054
v 0.008148999884724617 -0.39298000931739807 0.11332900077104568
v 0.0076939999125897884 -0.3931640088558197 0.11252900213003159
v 0.007841999642550945 -0.39308398962020874 0.11287599802017212
v 0.007565000094473362 -0.3933059871196747 0.11193399876356125
v 0.007482999935746193 -0.39238399267196655 0.11143500357866287
v 0.010474000126123428 -0.3901689946651459 0.11201900243759155
v 0.010885999538004398 -0.39164999127388 0.11262799799442291
v 0.010689999908208847 -0.39108601212501526 0.1122409999370575
v 0.010990999639034271 -0.3931019902229309 0.11352699995040894
v 0.010967999696731567 -0.39220499992370605 0.11302799731492996
v 0.01080700010061264 -0.3934049904346466 0.1139720007777214
v 0.008542999625205994 -0.3880560100078583 0.11220700293779373
v 0.008514000102877617 -0.3875660002231598 0.11207599937915802
v 0.00964799989014864 -0.38713499903678894 0.11181800067424774
v 0.008542000316083431 -0.3880850076675415 0.11221300065517426
v 0.01055500004440546 -0.3903459906578064 0.11153800040483475
v 0.010466000065207481 -0.38936400413513184 0.11128299683332443
v 0.010266000404953957 -0.38874000310897827 0.11169099807739258
v 0.010339000262320042 -0.38783401250839233 0.11114399880170822
v 0.009677999652922153 -0.3861530125141144 0.1115799993276596
v 0.010022999718785286 -0.38672301173210144 0.11140099912881851
v 0.010257000103592873 -0.38731300830841064 0.11114200204610825
v 0.007561999838799238 -0.38922199606895447 0.11160500347614288
v 0.008070000447332859 -0.38738301396369934 0.11182200163602829
v 0.008539999835193157 -0.3880560100078583 0.11220499873161316
v 0.007519000209867954 -0.3888019919395447 0.11149699985980988
v 0.007815999910235405 -0.38764700293540955 0.11168400198221207
v 0.0071749999187886715 -0.3910810053348541 0.11034200340509415
v 0.007249000016599894 -0.391635000705719 0.11022400110960007
v 0.007089000195264816 -0.3888869881629944 0.11079499870538712
v 0.007337000221014023 -0.38878101110458374 0.11125499755144119
v 0.007269000168889761 -0.38829100131988525 0.1111299991607666
v 0.0072200000286102295 -0.38883501291275024 0.11102399975061417
v 0.009669999592006207 -0.3943510055541992 0.11425899714231491
v 0.010598000138998032 -0.39424699544906616 0.11440499871969223
v 0.010373000055551529 -0.39480501413345337 0.11460000276565552
v 0.008917000144720078 -0.3959130048751831 0.11418399959802628
v 0.00917499978095293 -0.3953779935836792 0.114267997443676
v 0.0085249999538064 -0.39598900079727173 0.11383800208568573
v 0.008218999952077866 -0.39448899030685425 0.11355700343847275
v 0.007873999886214733 -0.39406201243400574 0.11313799768686295
v 0.007672999985516071 -0.39368200302124023 0.11254099756479263
v 0.0076419999822974205 -0.3944909870624542 0.11068999767303467
v 0.0076350001618266106 -0.39379799365997314 0.11205899715423584
v 0.010778999887406826 -0.3919470012187958 0.11139699816703796
v 0.010608999989926815 -0.39087700843811035 0.11150000244379044
v 0.011037999764084816 -0.3926349878311157 0.11287599802017212
v 0.011088999919593334 -0.39398500323295593 0.11375399678945541
v 0.011176000349223614 -0.39419299364089966 0.11354099959135056
v 0.011234999634325504 -0.3938769996166229 0.1120619997382164
v 0.010648000054061413 -0.3948209881782532 0.11455400288105011
v 0.01080199982970953 -0.3953379988670349 0.1145860031247139
v 0.011009999550879002 -0.39469701051712036 0.11421599984169006
v 0.008321000263094902 -0.38708099722862244 0.11191800236701965
v 0.008568000048398972 -0.38656601309776306 0.11191300302743912
v 0.00902900006622076 -0.3860819935798645 0.11180999875068665
v 0.010502000339329243 -0.38962700963020325 0.11020299792289734
v 0.010466000065207481 -0.3891119956970215 0.11017800122499466
v 0.010394000448286533 -0.3885290026664734 0.11080700159072876
v 0.010394999757409096 -0.3876430094242096 0.10978899896144867
v 0.009476999752223492 -0.3856180012226105 0.11161799728870392
v 0.009910999797284603 -0.3851799964904785 0.11131100356578827
v 0.010100999847054482 -0.38573500514030457 0.1111920028924942
v 0.010212000459432602 -0.38679200410842896 0.11113599687814713
v 0.01027000043541193 -0.38632500171661377 0.11091800034046173
v 0.010355000384151936 -0.3870930075645447 0.10990399867296219
v 0.007859000004827976 -0.38583800196647644 0.11142999678850174
v 0.008332000114023685 -0.3864020109176636 0.1117829978466034
v 0.00760400015860796 -0.38588398694992065 0.11121399700641632
v 0.006955000106245279 -0.38899698853492737 0.11032400280237198
v 0.0068870000541210175 -0.3897179961204529 0.10949099808931351
v 0.007040000054985285 -0.39076200127601624 0.10949499905109406
v 0.007224000059068203 -0.3923549950122833 0.10938499867916107
v 0.007143999915570021 -0.39131399989128113 0.10937300324440002
v 0.007199000101536512 -0.3918049931526184 0.1094990000128746
v 0.00699299992993474 -0.3878929913043976 0.11059000343084335
v 0.007366999983787537 -0.3857339918613434 0.110944002866745
v 0.010370000265538692 -0.3949509859085083 0.11462400108575821
v 0.009889000095427036 -0.3958120048046112 0.11468899995088577
v 0.009592999704182148 -0.3967680037021637 0.11443500220775604
v 0.009863000363111496 -0.396342009305954 0.11465000361204147
v 0.008894000202417374 -0.39636701345443726 0.11415400356054306
v 0.008170999586582184 -0.39527401328086853 0.1134290024638176
v 0.007885999977588654 -0.39513400197029114 0.11290799826383591
v 0.008828000165522099 -0.396930992603302 0.11379600316286087
v 0.008860000409185886 -0.3967739939689636 0.11400900036096573
v 0.00724400021135807 -0.39290300011634827 0.10927200317382812
v 0.007691999897360802 -0.39513099193573 0.11085700243711472
v 0.00773600023239851 -0.39451101422309875 0.11146199703216553
v 0.007718000095337629 -0.3944079875946045 0.11169499903917313
v 0.00774300005286932 -0.39483898878097534 0.11206799745559692
v 0.010816999711096287 -0.3920010030269623 0.11117599904537201
v 0.01155299972742796 -0.39505499601364136 0.11320900171995163
v 0.01152500044554472 -0.3946560025215149 0.11284500360488892
v 0.011491999961435795 -0.395099014043808 0.11348800361156464
v 0.011435000225901604 -0.3942500054836273 0.11196800321340561
v 0.011278999969363213 -0.3943310081958771 0.11019500344991684
v 0.010892000049352646 -0.3927280008792877 0.11032699793577194
v 0.011006999760866165 -0.3951469957828522 0.11433900147676468
v 0.010842000134289265 -0.3958660066127777 0.11455400288105011
v 0.01057399995625019 -0.39581799507141113 0.11473499983549118
v 0.008338999934494495 -0.3860839903354645 0.11173299700021744
v 0.008605999872088432 -0.38457199931144714 0.11155799776315689
v 0.010509000159800053 -0.3892329931259155 0.10968700051307678
v 0.010444999672472477 -0.3887999951839447 0.10931800305843353
v 0.01030499953776598 -0.3886370062828064 0.10825400054454803
v 0.010149000212550163 -0.3881610035896301 0.10762599855661392
v 0.01029799971729517 -0.38506200909614563 0.10754600167274475
v 0.010371999815106392 -0.3860749900341034 0.10981199890375137
v 0.00952799990773201 -0.38359999656677246 0.11135599762201309
v 0.008851000107824802 -0.3840610086917877 0.11153800040483475
v 0.01032199990004301 -0.38495999574661255 0.11088600009679794
v 0.010160000063478947 -0.38370099663734436 0.1109979972243309
v 0.010400000028312206 -0.38588300347328186 0.11060699820518494
v 0.010425999760627747 -0.3853369951248169 0.11071500182151794
v 0.007898000068962574 -0.3841269910335541 0.11117800325155258
v 0.008194000460207462 -0.38559699058532715 0.11158200353384018
v 0.007658000104129314 -0.3836649954319 0.11091700196266174
v 0.006850999779999256 -0.38916900753974915 0.10960499942302704
v 0.0066999997943639755 -0.3881849944591522 0.10935799777507782
v 0.006829999852925539 -0.3893449902534485 0.1088780015707016
v 0.006765000056475401 -0.38879498839378357 0.10899599641561508
v 0.0071829999797046185 -0.3914940059185028 0.10863800346851349
v 0.007290999870747328 -0.39210599660873413 0.1082720011472702
v 0.0069160000421106815 -0.385888010263443 0.11026400327682495
v 0.006713000126183033 -0.3865410089492798 0.10970000177621841
v 0.0071299998089671135 -0.38480401039123535 0.1104620024561882
v 0.007416000124067068 -0.38320600986480713 0.11063700169324875
v 0.010352999903261662 -0.39580199122428894 0.11477400362491608
v 0.010094000026583672 -0.39633598923683167 0.11469099670648575
v 0.009115000255405903 -0.39674198627471924 0.11422800272703171
v 0.00955899991095066 -0.39705801010131836 0.11425899714231491
v 0.010005000047385693 -0.3971019983291626 0.11421500146389008
v 0.010294999927282333 -0.3965829908847809 0.11455699801445007
v 0.007792999967932701 -0.3950999975204468 0.11213299632072449
v 0.008073999546468258 -0.39578598737716675 0.11280199885368347
v 0.007841000333428383 -0.3953329920768738 0.11218900233507156
v 0.009049000218510628 -0.39719098806381226 0.1138399988412857
v 0.00879599992185831 -0.3969799876213074 0.11355400085449219
v 0.00724400021135807 -0.3950920104980469 0.10882800072431564
v 0.007280000019818544 -0.3936290144920349 0.1084270030260086
v 0.0073819998651742935 -0.39265701174736023 0.10815100371837616
v 0.007763999979943037 -0.39489901065826416 0.11182200163602829
v 0.007790999952703714 -0.39612600207328796 0.11059600114822388
v 0.00788700021803379 -0.3957729935646057 0.11126600205898285
v 0.007763999979943037 -0.39489901065826416 0.11182200163602829
v 0.007763999979943037 -0.39489901065826416 0.11182200163602829
v 0.010692999698221684 -0.39070698618888855 0.11006300151348114
v 0.011620000004768372 -0.3952830135822296 0.11274299770593643
v 0.011478000320494175 -0.3955869972705841 0.11362099647521973
v 0.011598000302910805 -0.3949100077152252 0.11212699860334396
v 0.011586000211536884 -0.39496999979019165 0.11188499629497528
v 0.011467999778687954 -0.3947240114212036 0.11053700000047684
v 0.010889999568462372 -0.3935120105743408 0.1092429980635643
v 0.01140500046312809 -0.394879013299942 0.11006800085306168
v 0.011216999962925911 -0.3944459855556488 0.10971499979496002
v 0.010719000361859798 -0.3919210135936737 0.1093520000576973
v 0.011354000307619572 -0.39600101113319397 0.11374899744987488
v 0.011127999983727932 -0.3963800072669983 0.11388000100851059
v 0.010742999613285065 -0.3963310122489929 0.11443299800157547
v 0.010552000254392624 -0.3961710035800934 0.11467300355434418
v 0.008369999937713146 -0.3845840096473694 0.1114870011806488
v 0.008144999854266644 -0.3840939998626709 0.11133400350809097
v 0.010638999752700329 -0.39044898748397827 0.10974100232124329
v 0.010600999929010868 -0.39033201336860657 0.10945499688386917
v 0.010576000437140465 -0.3905540108680725 0.1092580035328865
v 0.010245000012218952 -0.3885970115661621 0.10799100250005722
v 0.010156000033020973 -0.3896859884262085 0.10778000205755234
v 0.010188000276684761 -0.39017701148986816 0.10790800303220749
v 0.009953999891877174 -0.38912999629974365 0.10739400237798691
v 0.009676000103354454 -0.38837000727653503 0.10672499984502792
v 0.00995699968189001 -0.3872950077056885 0.10689599812030792
v 0.010511999949812889 -0.3846589922904968 0.10922499746084213
v 0.010072999633848667 -0.38469600677490234 0.10689099878072739
v 0.010375999845564365 -0.38451799750328064 0.10764800012111664
v 0.010445999912917614 -0.3857170045375824 0.11029800027608871
v 0.010568000376224518 -0.3850319981575012 0.10983800143003464
v 0.009085999801754951 -0.3836109936237335 0.11145199835300446
v 0.009974000044167042 -0.38314300775527954 0.11113899946212769
v 0.009347000159323215 -0.382548987865448 0.11138100177049637
v 0.008642000146210194 -0.38319599628448486 0.111394003033638
v 0.010560999624431133 -0.3838050067424774 0.1106019988656044
v 0.010714000090956688 -0.3840549886226654 0.11007300019264221
v 0.010544000193476677 -0.3832710087299347 0.11065900325775146
v 0.010232999920845032 -0.38212400674819946 0.11107099801301956
v 0.007907000370323658 -0.38363000750541687 0.1110839992761612
v 0.007907000370323658 -0.38363000750541687 0.1110839992761612
v 0.007674000225961208 -0.3831560015678406 0.11087100207805634
v 0.006599000189453363 -0.3867740035057068 0.10872899740934372
v 0.00673400005325675 -0.38844600319862366 0.10864599794149399
v 0.006887999828904867 -0.3893440067768097 0.10835199803113937
v 0.006686999928206205 -0.3874860107898712 0.10794500261545181
v 0.007230000104755163 -0.3907720148563385 0.10791800171136856
v 0.007393999956548214 -0.39045101404190063 0.10729199647903442
v 0.007592000067234039 -0.39177700877189636 0.10750500112771988
v 0.006579999811947346 -0.3851320147514343 0.10906299948692322
v 0.006823999807238579 -0.38405799865722656 0.1097790002822876
v 0.007060000207275152 -0.3827880024909973 0.1101830005645752
v 0.007366999983787537 -0.38219600915908813 0.11050400137901306
v 0.009750000201165676 -0.3972820043563843 0.11403600126504898
v 0.01019699964672327 -0.39718401432037354 0.11395400017499924
v 0.010645999573171139 -0.39692801237106323 0.11382900178432465
v 0.008766000159084797 -0.3969520032405853 0.11329100281000137
v 0.008237999863922596 -0.3962689936161041 0.11265300214290619
v 0.008231000043451786 -0.3963020145893097 0.1124039962887764
v 0.009239999577403069 -0.3973740041255951 0.11360599845647812
v 0.007631000131368637 -0.39645901322364807 0.10966899991035461
v 0.007695999927818775 -0.3964579999446869 0.10992000252008438
v 0.007261000107973814 -0.3956409990787506 0.10871600359678268
v 0.007211000192910433 -0.3947199881076813 0.10821299999952316
v 0.00724499998614192 -0.3941749930381775 0.10831999778747559
v 0.007565999869257212 -0.3930499851703644 0.10771600157022476
v 0.008454999886453152 -0.3968519866466522 0.11071000248193741
v 0.007883000187575817 -0.39710599184036255 0.10981299728155136
v 0.008201999589800835 -0.3967359960079193 0.11045099794864655
v 0.00813599955290556 -0.39725300669670105 0.11008100211620331
v 0.011516000144183636 -0.39581000804901123 0.11315900087356567
v 0.011452999897301197 -0.39597898721694946 0.11269400268793106
v 0.011359999887645245 -0.3959740102291107 0.11192599684000015
v 0.011385000310838223 -0.3961290121078491 0.11352100223302841
v 0.011478999629616737 -0.39531800150871277 0.11043699830770493
v 0.01142599992454052 -0.39568600058555603 0.11106199771165848
v 0.011029999703168869 -0.3943699896335602 0.10868100076913834
v 0.010747999884188175 -0.3938629925251007 0.10806000232696533
v 0.011343000456690788 -0.3948490023612976 0.10954900085926056
v 0.010579000227153301 -0.39336198568344116 0.10768599808216095
v 0.011345000006258488 -0.3960359990596771 0.10961099714040756
v 0.01064900029450655 -0.3914879858493805 0.10898400098085403
v 0.010613000020384789 -0.3920919895172119 0.10863400250673294
v 0.011095000430941582 -0.39653700590133667 0.11366699635982513
v 0.008163999766111374 -0.38320600986480713 0.11119700223207474
v 0.010332999750971794 -0.39110299944877625 0.10840000212192535
v 0.010080999694764614 -0.3907780051231384 0.1075659990310669
v 0.009828000329434872 -0.389847993850708 0.10708600282669067
v 0.009549999609589577 -0.38946300745010376 0.10649800300598145
v 0.009579000063240528 -0.3865340054035187 0.10570000112056732
v 0.009115000255405903 -0.3880769908428192 0.10573899745941162
v 0.009366000071167946 -0.38729599118232727 0.10567399859428406
v 0.009980999864637852 -0.3855699896812439 0.10642600059509277
v 0.010021000169217587 -0.38527101278305054 0.10665799677371979
v 0.010463999584317207 -0.38408198952674866 0.10803700238466263
v 0.010607000440359116 -0.3841170072555542 0.10932499915361404
v 0.010521999560296535 -0.3837429881095886 0.10871600359678268
v 0.010075000114738941 -0.3837299942970276 0.10658200085163116
v 0.009151999838650227 -0.38200700283050537 0.11145500093698502
v 0.008902999572455883 -0.3824180066585541 0.1114099994301796
v 0.0083619998767972 -0.3825570046901703 0.11125600337982178
v 0.008472000248730183 -0.381509006023407 0.11129400134086609
v 0.011098000220954418 -0.38238099217414856 0.11009000241756439
v 0.011118000373244286 -0.38249900937080383 0.10960099846124649
v 0.010621000081300735 -0.3839699923992157 0.10928399860858917
v 0.010847000405192375 -0.38352200388908386 0.10965300351381302
v 0.011044999584555626 -0.38210999965667725 0.11028199642896652
v 0.010840999893844128 -0.3822700083255768 0.1105239987373352
v 0.010072000324726105 -0.38103801012039185 0.11124199628829956
v 0.009422999806702137 -0.38089099526405334 0.11145000159740448
v 0.010467000305652618 -0.38163599371910095 0.1109590008854866
v 0.01066299993544817 -0.3818550109863281 0.11077900230884552
v 0.007907000370323658 -0.38363000750541687 0.1110839992761612
v 0.00813200045377016 -0.383092999458313 0.11117000132799149
v 0.007799000013619661 -0.38313600420951843 0.11096400022506714
v 0.006548999808728695 -0.3859730064868927 0.10773900151252747
v 0.0069690002128481865 -0.3886699974536896 0.10738100111484528
v 0.007081000134348869 -0.3896520137786865 0.10763400048017502
v 0.006682000122964382 -0.38707199692726135 0.1075029969215393
v 0.007178000174462795 -0.3888069987297058 0.10683400183916092
v 0.007431999780237675 -0.3898470103740692 0.10686500370502472
v 0.007980999536812305 -0.39142298698425293 0.10685600340366364
v 0.008170999586582184 -0.3900519907474518 0.10609500110149384
v 0.008128000423312187 -0.392441987991333 0.10696300119161606
v 0.006262999959290028 -0.3828510046005249 0.10770700126886368
v 0.006903999950736761 -0.3823409974575043 0.1098639965057373
v 0.00662099989131093 -0.38300201296806335 0.10925900191068649
v 0.007925000041723251 -0.3831160068511963 0.11105900257825851
v 0.007015000097453594 -0.38126200437545776 0.1100350022315979
v 0.007466000039130449 -0.3816710114479065 0.1105320006608963
v 0.009940999560058117 -0.397350013256073 0.11377199739217758
v 0.010134000331163406 -0.3972879946231842 0.11347199976444244
v 0.010358000174164772 -0.39714500308036804 0.11340499669313431
v 0.010520000010728836 -0.3970760107040405 0.11284799873828888
v 0.011032000184059143 -0.396683007478714 0.11319600045681
v 0.008956000208854675 -0.39716601371765137 0.11306700110435486
v 0.008481999859213829 -0.39668598771095276 0.11273600161075592
v 0.008611000142991543 -0.3968549966812134 0.11198800057172775
v 0.00940100010484457 -0.3973659873008728 0.11306499689817429
v 0.007757000159472227 -0.39701399207115173 0.10954400151968002
v 0.007586999796330929 -0.3966340124607086 0.10894399881362915
v 0.007538999896496534 -0.39654800295829773 0.10866700112819672
v 0.0073079997673630714 -0.39572998881340027 0.10835599899291992
v 0.007282999809831381 -0.39527198672294617 0.1080939993262291
v 0.007340000011026859 -0.3942979872226715 0.10782299935817719
v 0.007586000021547079 -0.3938809931278229 0.10741999745368958
v 0.008592000231146812 -0.39730700850486755 0.11055699735879898
v 0.009053999558091164 -0.3972629904747009 0.11204399913549423
v 0.008005999960005283 -0.3975139856338501 0.10964900255203247
v 0.008325000293552876 -0.39767199754714966 0.1099110022187233
v 0.010968999937176704 -0.3967519998550415 0.11270400136709213
v 0.011242999695241451 -0.3961060047149658 0.11145800352096558
v 0.011118000373244286 -0.3964320123195648 0.11010000109672546
v 0.011039000004529953 -0.396467000246048 0.11132200062274933
v 0.011064000427722931 -0.3949100077152252 0.10778599977493286
v 0.011367999948561192 -0.3951190114021301 0.10910099744796753
v 0.011396000161767006 -0.3950609862804413 0.10934100300073624
v 0.010850000195205212 -0.39441201090812683 0.10767699778079987
v 0.01065600011497736 -0.3936769962310791 0.10724300146102905
v 0.010324000380933285 -0.3922950029373169 0.1077750027179718
v 0.011322000063955784 -0.39609500765800476 0.10937099903821945
v 0.011127999983727932 -0.39651399850845337 0.10976800322532654
v 0.010453999973833561 -0.39157798886299133 0.10859899967908859
v 0.010373000055551529 -0.3916510045528412 0.10828500241041183
v 0.010096999816596508 -0.39147499203681946 0.10749299824237823
v 0.009766999632120132 -0.39051100611686707 0.10649500042200089
v 0.009850000031292439 -0.39048200845718384 0.10699599981307983
v 0.009545999579131603 -0.390051007270813 0.10621999949216843
v 0.00911800004541874 -0.389070987701416 0.1059269979596138
v 0.00991399958729744 -0.38539600372314453 0.10612799972295761
v 0.00964799989014864 -0.38553300499916077 0.10554099828004837
v 0.009099000133574009 -0.38617900013923645 0.10497500002384186
v 0.008864999748766422 -0.38763201236724854 0.1053989976644516
v 0.008621999993920326 -0.38883501291275024 0.10566499829292297
v 0.01049800030887127 -0.38370299339294434 0.10818900167942047
v 0.010851999744772911 -0.3809469938278198 0.10739800333976746
v 0.010745000094175339 -0.3831470012664795 0.10904499888420105
v 0.010738999582827091 -0.38222798705101013 0.10853800177574158
v 0.010584999807178974 -0.38159701228141785 0.10683099925518036
v 0.010156000033020973 -0.3827899992465973 0.10616999864578247
v 0.009889000095427036 -0.383558988571167 0.10511499643325806
v 0.008971000090241432 -0.3814930021762848 0.1114099994301796
v 0.00798800028860569 -0.381164014339447 0.11092499643564224
v 0.008535999804735184 -0.3799470067024231 0.11129900068044662
v 0.008977999910712242 -0.38067999482154846 0.11144900321960449
v 0.009310999885201454 -0.3785409927368164 0.11160500347614288
v 0.011239999905228615 -0.3817700147628784 0.10990700125694275
v 0.010862000286579132 -0.3816390037536621 0.1086219996213913
v 0.010900000110268593 -0.3830629885196686 0.10940899699926376
v 0.011309999972581863 -0.38147398829460144 0.10955899953842163
v 0.011175000108778477 -0.38201600313186646 0.10945799946784973
v 0.010900000110268593 -0.38120099902153015 0.1106489971280098
v 0.009890999644994736 -0.3804669976234436 0.11142800003290176
v 0.010472999885678291 -0.3814989924430847 0.11096599698066711
v 0.010285000316798687 -0.38101598620414734 0.11111699789762497
v 0.010185999795794487 -0.3789040148258209 0.11146099865436554
v 0.010157999582588673 -0.37943699955940247 0.1114099994301796
v 0.010672000236809254 -0.3816789984703064 0.11079899966716766
v 0.010699000209569931 -0.3811489939689636 0.1108430027961731
v 0.010699000209569931 -0.3811489939689636 0.1108430027961731
v 0.006606000009924173 -0.38609200716018677 0.10724599659442902
v 0.006322000175714493 -0.3835180103778839 0.10710299760103226
v 0.007019999902695417 -0.38902801275253296 0.1074720025062561
v 0.007156000006943941 -0.3887979984283447 0.1068739965558052
v 0.006701999809592962 -0.3862150013446808 0.10674899816513062
v 0.006655000150203705 -0.38654598593711853 0.10736300051212311
v 0.0067460001446306705 -0.3857879936695099 0.1063690036535263
v 0.006953000091016293 -0.38562801480293274 0.10578099638223648
v 0.007563999854028225 -0.3894209861755371 0.10648400336503983
v 0.00776199996471405 -0.3894810080528259 0.10626199841499329
v 0.008186999708414078 -0.39135900139808655 0.10666199773550034
v 0.008593999780714512 -0.39011600613594055 0.10586699843406677
v 0.007965000346302986 -0.38856399059295654 0.10576699674129486
v 0.008600999601185322 -0.391508013010025 0.10639200359582901
v 0.009030000306665897 -0.39160001277923584 0.10622300207614899
v 0.006175000220537186 -0.38175100088119507 0.10793899744749069
v 0.006175000220537186 -0.3820500075817108 0.10750100016593933
v 0.006575999781489372 -0.38252198696136475 0.10908900201320648
v 0.006140000186860561 -0.38210299611091614 0.10648199915885925
v 0.006417000200599432 -0.3820739984512329 0.10877399891614914
v 0.006796000059694052 -0.3818570077419281 0.10970500111579895
v 0.0064690001308918 -0.38024601340293884 0.10930900275707245
v 0.006184000056236982 -0.380156010389328 0.10880199819803238
v 0.0063680000603199005 -0.38123399019241333 0.10881099849939346
v 0.006769999861717224 -0.3797610104084015 0.10976199805736542
v 0.00978699978441 -0.39730000495910645 0.1124809980392456
v 0.010115999728441238 -0.39722099900245667 0.11319600045681
v 0.010327000170946121 -0.3971419930458069 0.1131490021944046
v 0.0106819998472929 -0.39691799879074097 0.11226599663496017
v 0.008894000202417374 -0.39717400074005127 0.11255799978971481
v 0.007818999700248241 -0.39730799198150635 0.10935699939727783
v 0.007977999746799469 -0.3975529968738556 0.10888499766588211
v 0.007724999915808439 -0.3967669904232025 0.10840500146150589
v 0.00749000022187829 -0.3958140015602112 0.10802000015974045
v 0.007703000213950872 -0.39621099829673767 0.10803700238466263
v 0.007426000200212002 -0.3948499858379364 0.10770200192928314
v 0.00774900009855628 -0.39443498849868774 0.10729099810123444
v 0.008539999835193157 -0.3940640091896057 0.1067499965429306
v 0.008554000407457352 -0.3935590088367462 0.10668999701738358
v 0.008750000037252903 -0.3930799961090088 0.1065400019288063
v 0.008771000429987907 -0.39781999588012695 0.10989599674940109
v 0.00940799992531538 -0.3979620039463043 0.10959599912166595
v 0.009662999771535397 -0.3978649973869324 0.10979799926280975
v 0.010014000348746777 -0.397504985332489 0.11069300025701523
v 0.008293000049889088 -0.39778000116348267 0.1096860021352768
v 0.00800899975001812 -0.3976120054721832 0.10915599763393402
v 0.010462000034749508 -0.3972260057926178 0.11056199669837952
v 0.010858000256121159 -0.39710599184036255 0.10944300144910812
v 0.010854999534785748 -0.39669400453567505 0.11114700138568878
v 0.010619999840855598 -0.39696499705314636 0.11176799982786179
v 0.01065099984407425 -0.39693400263786316 0.112015001475811
v 0.011265000328421593 -0.3954089879989624 0.10789600014686584
v 0.010804999619722366 -0.3953549861907959 0.10716000199317932
v 0.011381999589502811 -0.3957839906215668 0.10850200057029724
v 0.010587000288069248 -0.39463600516319275 0.10699299722909927
v 0.010670999996364117 -0.39403200149536133 0.10707800090312958
v 0.010409999638795853 -0.39304301142692566 0.10684199631214142
v 0.010335000231862068 -0.39243200421333313 0.10720500349998474
v 0.010978000238537788 -0.3969919979572296 0.10913799703121185
v 0.011092999950051308 -0.3968980014324188 0.10818500071763992
v 0.00989999994635582 -0.3910050094127655 0.10661300271749496
v 0.010005000047385693 -0.3914960026741028 0.10674700140953064
v 0.009511999785900116 -0.3905940055847168 0.1061210036277771
v 0.009286000393331051 -0.3901059925556183 0.10596500337123871
v 0.008926000446081161 -0.3896090090274811 0.10583700239658356
v 0.009349999949336052 -0.38517698645591736 0.10483299940824509
v 0.009484999813139439 -0.38420599699020386 0.10456199944019318
v 0.008635000325739384 -0.3870309889316559 0.1051739975810051
v 0.009084000252187252 -0.3852219879627228 0.10462799668312073
v 0.008410000242292881 -0.3861820101737976 0.10490000247955322
v 0.00840499997138977 -0.3881169855594635 0.10550399869680405
v 0.010700000450015068 -0.38062599301338196 0.10655300319194794
v 0.010967000387609005 -0.3808329999446869 0.10787200182676315
v 0.010793999768793583 -0.381742000579834 0.10839899629354477
v 0.011483999900519848 -0.37927600741386414 0.10790400207042694
v 0.01108499988913536 -0.3791219890117645 0.10635700076818466
v 0.010342000052332878 -0.38133400678634644 0.10575199872255325
v 0.00989800039678812 -0.38308799266815186 0.10491400212049484
v 0.010204999707639217 -0.3814449906349182 0.10528100281953812
v 0.00991200003772974 -0.3820970058441162 0.10471600294113159
v 0.009603000245988369 -0.3836910128593445 0.10454999655485153
v 0.008101999759674072 -0.3785240054130554 0.11097300052642822
v 0.007829000242054462 -0.37850499153137207 0.11074300110340118
v 0.008315999992191792 -0.3794519901275635 0.11117800325155258
v 0.0075969998724758625 -0.37854400277137756 0.11055900156497955
v 0.008496000431478024 -0.3789080083370209 0.11128800362348557
v 0.008853999897837639 -0.37834298610687256 0.11150600016117096
v 0.009802999906241894 -0.3778049945831299 0.11166799813508987
v 0.009097999893128872 -0.3783319890499115 0.11157499998807907
v 0.011404000222682953 -0.3803830146789551 0.10976999998092651
v 0.011044000275433064 -0.3811489939689636 0.10872600227594376
v 0.010699000209569931 -0.3811489939689636 0.1108430027961731
v 0.010924999602138996 -0.38078901171684265 0.11071799695491791
v 0.010355999693274498 -0.3797770142555237 0.11129099875688553
v 0.010494000278413296 -0.3811019957065582 0.11101000010967255
v 0.010509000159800053 -0.3808389902114868 0.11104200035333633
v 0.011266999877989292 -0.3785409927368164 0.11091099679470062
v 0.011095999740064144 -0.37795600295066833 0.1111690029501915
v 0.010458000004291534 -0.37786298990249634 0.11148399859666824
v 0.006630000192672014 -0.3858169913291931 0.10690999776124954
v 0.006238999776542187 -0.3825330138206482 0.10632699728012085
v 0.006912999786436558 -0.38357698917388916 0.10476800054311752
v 0.006717999931424856 -0.38313400745391846 0.10487499833106995
v 0.006544000003486872 -0.38293200731277466 0.10524500161409378
v 0.007348000071942806 -0.3865090012550354 0.10559699684381485
v 0.007170000113546848 -0.3859870135784149 0.10559199750423431
v 0.007100999820977449 -0.3833720088005066 0.10437300056219101
v 0.007327999919652939 -0.3846200108528137 0.1048009991645813
v 0.007342999801039696 -0.38555699586868286 0.10523000359535217
v 0.007712000049650669 -0.38802599906921387 0.1058180034160614
v 0.008817000314593315 -0.3901279866695404 0.10583899915218353
v 0.00797600019723177 -0.386137992143631 0.10503999888896942
v 0.00926200021058321 -0.3911139965057373 0.10610300302505493
v 0.008988999761641026 -0.3931179940700531 0.10639700293540955
v 0.009496999904513359 -0.3911469876766205 0.1061829999089241
v 0.009471000172197819 -0.3926270008087158 0.10632699728012085
v 0.005894000176340342 -0.3808189928531647 0.10746199637651443
v 0.005886000115424395 -0.380154013633728 0.10806000232696533
v 0.005994000006467104 -0.38127899169921875 0.10575900226831436
v 0.005741999950259924 -0.3803510069847107 0.10709399729967117
v 0.006250999867916107 -0.3794650137424469 0.10912500321865082
v 0.006628999952226877 -0.37874001264572144 0.10965900123119354
v 0.006796000059694052 -0.3792319893836975 0.10979700088500977
v 0.005038000177592039 -0.3770039975643158 0.10808999836444855
v 0.0050860000774264336 -0.3781599998474121 0.10761900246143341
v 0.00585799990221858 -0.377826988697052 0.10906899720430374
v 0.008169000037014484 -0.3976620137691498 0.10863199830055237
v 0.008452000096440315 -0.39794600009918213 0.10919199883937836
v 0.007910000160336494 -0.39636701345443726 0.10792999714612961
v 0.00812899973243475 -0.39686599373817444 0.10803700238466263
v 0.00788899976760149 -0.39496099948883057 0.10728699713945389
v 0.009190999902784824 -0.39378800988197327 0.10641799867153168
v 0.009399999864399433 -0.3941679894924164 0.10639800131320953
v 0.009014000184834003 -0.3951050043106079 0.10679599642753601
v 0.009568000212311745 -0.39811500906944275 0.10909900069236755
v 0.009058999828994274 -0.398173987865448 0.10865999758243561
v 0.010231000371277332 -0.39744600653648376 0.11013200134038925
v 0.009983999654650688 -0.39806199073791504 0.10877399891614914
v 0.010335000231862068 -0.39757099747657776 0.10963399708271027
v 0.010432999581098557 -0.3977369964122772 0.10863000154495239
v 0.010894999839365482 -0.3961150050163269 0.10709600150585175
v 0.011358999647200108 -0.3958429992198944 0.10826099663972855
v 0.01119100023061037 -0.39601099491119385 0.1075500026345253
v 0.010293000377714634 -0.3956570029258728 0.10678400099277496
v 0.010514000430703163 -0.3959839940071106 0.10684899985790253
v 0.010072999633848667 -0.3951599895954132 0.10666900128126144
v 0.010333999991416931 -0.3943670094013214 0.10669200122356415
v 0.010456999763846397 -0.3935930132865906 0.10672599822282791
v 0.01013300009071827 -0.3931240141391754 0.10647899657487869
v 0.009903999976813793 -0.39155301451683044 0.10650099813938141
v 0.010356999933719635 -0.3936139941215515 0.10662800073623657
v 0.010711999610066414 -0.3974530100822449 0.1080000028014183
v 0.0110470000654459 -0.39691299200057983 0.10781200230121613
v 0.011247999966144562 -0.3964430093765259 0.10791900008916855
v 0.01078999973833561 -0.3973050117492676 0.10769099742174149
v 0.009039999917149544 -0.38243499398231506 0.10323599725961685
v 0.008113999851047993 -0.3861500024795532 0.10500100255012512
v 0.008627999573946 -0.38523900508880615 0.10451100021600723
v 0.008813999593257904 -0.38339298963546753 0.10355699807405472
v 0.00839999970048666 -0.38461199402809143 0.10428900271654129
v 0.008190000429749489 -0.38568300008773804 0.10478899627923965
v 0.010804000310599804 -0.3797149956226349 0.10603400319814682
v 0.011486999690532684 -0.37842899560928345 0.1071000024676323
v 0.01167600043118 -0.37899500131607056 0.10884100198745728
v 0.011781999841332436 -0.3781470060348511 0.10756199806928635
v 0.011952999979257584 -0.37820398807525635 0.10807400196790695
v 0.010990999639034271 -0.3788059949874878 0.10550499707460403
v 0.010823000222444534 -0.3793709874153137 0.1056789979338646
v 0.010642999783158302 -0.37855100631713867 0.103923000395298
v 0.010653000324964523 -0.37945398688316345 0.10494499653577805
v 0.010784000158309937 -0.3793430030345917 0.10541699826717377
v 0.010114000178873539 -0.38064101338386536 0.1042959988117218
v 0.009688000194728374 -0.3813430070877075 0.10350199788808823
v 0.009940000250935555 -0.3803800046443939 0.10321000218391418
v 0.010002000257372856 -0.3807530105113983 0.1038220003247261
v 0.009260999970138073 -0.3819290101528168 0.10319600254297256
v 0.007867000065743923 -0.3779599964618683 0.11084900051355362
v 0.008364999666810036 -0.3783990144729614 0.11123400181531906
v 0.007627999875694513 -0.3780069947242737 0.1106330007314682
v 0.007400000002235174 -0.37805500626564026 0.11041499674320221
v 0.007627999875694513 -0.3780069947242737 0.1106330007314682
v 0.00839800015091896 -0.3778580129146576 0.11131999641656876
v 0.00911100022494793 -0.3778110146522522 0.11157800257205963
v 0.010033000260591507 -0.37731999158859253 0.11153999716043472
v 0.009581999853253365 -0.3773060142993927 0.11155500262975693
v 0.01093399990350008 -0.38065800070762634 0.1107420027256012
v 0.011512000113725662 -0.37917500734329224 0.11046700179576874
v 0.011381999589502811 -0.3797140121459961 0.110384002327919
v 0.011540999636054039 -0.37970998883247375 0.10982999950647354
v 0.010997000150382519 -0.3794969916343689 0.11087699979543686
v 0.011518999934196472 -0.3778659999370575 0.11088799685239792
v 0.011335000395774841 -0.37745600938796997 0.11110600084066391
v 0.010254000313580036 -0.3773350119590759 0.11150000244379044
v 0.006380000151693821 -0.38281500339508057 0.10571900010108948
v 0.006897000130265951 -0.38312700390815735 0.10448099672794342
v 0.006959000136703253 -0.3822450041770935 0.10382600128650665
v 0.007961000315845013 -0.38471999764442444 0.10444699972867966
v 0.007710000034421682 -0.3831329941749573 0.10371500253677368
v 0.00749099999666214 -0.3828139901161194 0.1036750003695488
v 0.007757000159472227 -0.3851560056209564 0.10477600246667862
v 0.00797600019723177 -0.3856549859046936 0.10488399863243103
v 0.009658999741077423 -0.3931509852409363 0.10632400214672089
v 0.005365999881178141 -0.3791399896144867 0.10733100026845932
v 0.005737000145018101 -0.38032498955726624 0.10519099980592728
v 0.005905000027269125 -0.3806920051574707 0.10483299940824509
v 0.005491999909281731 -0.379738986492157 0.10670000314712524
v 0.0054060001857578754 -0.3795650005340576 0.10614500194787979
v 0.005084000062197447 -0.37874001264572144 0.10673999786376953
v 0.007437000051140785 -0.3775100111961365 0.11052100360393524
v 0.004726000130176544 -0.37722501158714294 0.10715100169181824
v 0.005266000051051378 -0.37689700722694397 0.10855100303888321
v 0.005237999837845564 -0.3764069974422455 0.10842200368642807
v 0.004906000103801489 -0.3765679895877838 0.1077290028333664
v 0.004803000018000603 -0.37777501344680786 0.10703200101852417
v 0.006659999955445528 -0.3766559958457947 0.1096780002117157
v 0.005911999847739935 -0.37676700949668884 0.10915199667215347
v 0.006901999935507774 -0.3772119879722595 0.10998900234699249
v 0.005402000155299902 -0.3768579959869385 0.10872499644756317
v 0.008612999692559242 -0.39804700016975403 0.10868000239133835
v 0.008798000402748585 -0.3978630006313324 0.10827799886465073
v 0.008566999807953835 -0.39738601446151733 0.10808300226926804
v 0.008534999564290047 -0.39605599641799927 0.10737299919128418
v 0.008963000029325485 -0.3955729901790619 0.10700500011444092
v 0.009615999646484852 -0.39467400312423706 0.10648000240325928
v 0.009728999808430672 -0.3981289863586426 0.10856399685144424
v 0.009014000184834003 -0.3978880047798157 0.10819999873638153
v 0.009251000359654427 -0.39808499813079834 0.10835299640893936
v 0.010146000422537327 -0.39787599444389343 0.10818500071763992
v 0.010339999571442604 -0.39770498871803284 0.10785499960184097
v 0.010743999853730202 -0.3966340124607086 0.10708999633789062
v 0.011005000211298466 -0.3965759873390198 0.10735099762678146
v 0.010276000015437603 -0.3961690068244934 0.10681799799203873
v 0.009859999641776085 -0.393996000289917 0.10639099776744843
v 0.011017000302672386 -0.39678600430488586 0.10752200335264206
v 0.010759999975562096 -0.3970380127429962 0.10736300051212311
v 0.010534999892115593 -0.39736300706863403 0.10747899860143661
v 0.008988999761641026 -0.38108399510383606 0.10236100107431412
v 0.008431999944150448 -0.38292399048805237 0.10330899804830551
v 0.00797600019723177 -0.3856549859046936 0.10488399863243103
v 0.008177000097930431 -0.3844990134239197 0.10428600013256073
v 0.00797600019723177 -0.3856549859046936 0.10488399863243103
v 0.007966999895870686 -0.3851900100708008 0.10465399920940399
v 0.011726000346243382 -0.3778820037841797 0.10723699629306793
v 0.011334000155329704 -0.3777279853820801 0.10568899661302567
v 0.011405999772250652 -0.37780800461769104 0.10621999949216843
v 0.011125000193715096 -0.37789401412010193 0.10498200356960297
v 0.011467999778687954 -0.3777819871902466 0.10672400146722794
v 0.011823000386357307 -0.37648001313209534 0.10658600181341171
v 0.012186000123620033 -0.3776080012321472 0.10840299725532532
v 0.012005000375211239 -0.3780289888381958 0.10879799723625183
v 0.011982000432908535 -0.37777701020240784 0.10769599676132202
v 0.012174000032246113 -0.3772369921207428 0.10778500139713287
v 0.010951000265777111 -0.3784329891204834 0.10488999634981155
v 0.010138999670743942 -0.3797839879989624 0.10354200005531311
v 0.010534999892115593 -0.3783380091190338 0.10310100018978119
v 0.010552000254392624 -0.37820398807525635 0.10306300222873688
v 0.010964999906718731 -0.3778429925441742 0.10446900129318237
v 0.010622999630868435 -0.37785300612449646 0.10295899957418442
v 0.009398999623954296 -0.38144800066947937 0.10304799675941467
v 0.009770000353455544 -0.38070300221443176 0.10305900126695633
v 0.009712999686598778 -0.3795750141143799 0.10221300274133682
v 0.010061999782919884 -0.3798139989376068 0.10330100357532501
v 0.007627999875694513 -0.3780069947242737 0.1106330007314682
v 0.007664999924600124 -0.37745800614356995 0.11075299978256226
v 0.007922999560832977 -0.3774070143699646 0.11099100112915039
v 0.008414000272750854 -0.37734800577163696 0.11127900332212448
v 0.010670999996364117 -0.37598198652267456 0.11074300110340118
v 0.010023999959230423 -0.3768549859523773 0.11131300032138824
v 0.009344000369310379 -0.3768419921398163 0.11130300164222717
v 0.01166400033980608 -0.3793019950389862 0.10996299982070923
v 0.01183599978685379 -0.37815698981285095 0.11040899902582169
v 0.011734999716281891 -0.37755998969078064 0.11070899665355682
v 0.011350000277161598 -0.37646400928497314 0.11090099811553955
v 0.011137000285089016 -0.3769170045852661 0.11115799844264984
v 0.011137999594211578 -0.37643399834632874 0.11100500077009201
v 0.007269999943673611 -0.38227200508117676 0.10353600233793259
v 0.006723999977111816 -0.3813149929046631 0.10334499925374985
v 0.0077599999494850636 -0.3851560056209564 0.10477499663829803
v 0.007907000370323658 -0.38248899579048157 0.10325700044631958
v 0.0058479998260736465 -0.38012298941612244 0.10416699945926666
v 0.005543000064790249 -0.37978100776672363 0.105274997651577
v 0.005659000016748905 -0.3797000050544739 0.1043350026011467
v 0.005210000090301037 -0.37875598669052124 0.10517299920320511
v 0.004999000113457441 -0.3781990110874176 0.10530699789524078
v 0.004964000079780817 -0.3781859874725342 0.10556700080633163
v 0.005282000172883272 -0.378728985786438 0.1046380028128624
v 0.004825000185519457 -0.3779749870300293 0.10621500015258789
v 0.00725199980661273 -0.3765229880809784 0.11027699708938599
v 0.004705999977886677 -0.3772909939289093 0.10687500238418579
v 0.004699999932199717 -0.37734100222587585 0.10666800290346146
v 0.00481799989938736 -0.37619200348854065 0.10711999982595444
v 0.004778999835252762 -0.3762499988079071 0.10688100010156631
v 0.004689000081270933 -0.3768410086631775 0.10658500343561172
v 0.005191999953240156 -0.37597501277923584 0.10805100202560425
v 0.005700999870896339 -0.3763119876384735 0.10885699838399887
v 0.005652999971061945 -0.37585699558258057 0.108583003282547
v 0.006399000063538551 -0.37643998861312866 0.10932300239801407
v 0.007164999842643738 -0.37601199746131897 0.10988999903202057
v 0.006910999771207571 -0.37600499391555786 0.10966099798679352
v 0.008980000391602516 -0.3963389992713928 0.10739400237798691
v 0.00875100027769804 -0.3960239887237549 0.10727299749851227
v 0.009891999885439873 -0.3978540003299713 0.10795100033283234
v 0.00964100006967783 -0.39744800329208374 0.10761299729347229
v 0.010081999935209751 -0.39754799008369446 0.1075500026345253
v 0.01030999980866909 -0.39750099182128906 0.10754399746656418
v 0.010273000225424767 -0.39665699005126953 0.10694999992847443
v 0.010515999980270863 -0.39711299538612366 0.1072390004992485
v 0.009840000420808792 -0.3970929980278015 0.10726200044155121
v 0.010282999835908413 -0.39708900451660156 0.1071769967675209
v 0.007949000224471092 -0.3810650110244751 0.1023470014333725
v 0.009324000217020512 -0.3805850148200989 0.10230500251054764
v 0.00851299986243248 -0.38063499331474304 0.10202600061893463
v 0.007203999906778336 -0.3809959888458252 0.10256300121545792
v 0.011408999562263489 -0.3772439956665039 0.10554800182580948
v 0.011467999778687954 -0.37755700945854187 0.10640399903059006
v 0.012048999778926373 -0.3765619993209839 0.10735800117254257
v 0.01170200016349554 -0.37639498710632324 0.10631900280714035
v 0.011768000200390816 -0.3759079873561859 0.10669700056314468
v 0.01216800045222044 -0.3773129880428314 0.10962100327014923
v 0.012312999926507473 -0.3770669996738434 0.10849999636411667
v 0.012032999657094479 -0.3778640031814575 0.10952799767255783
v 0.012241000309586525 -0.376693993806839 0.10788899660110474
v 0.010466000065207481 -0.3783929944038391 0.10286500304937363
v 0.010522999800741673 -0.37790799140930176 0.1027270033955574
v 0.010522999800741673 -0.37790799140930176 0.1027270033955574
v 0.011032000184059143 -0.37703099846839905 0.10424099862575531
v 0.010522999800741673 -0.37790799140930176 0.1027270033955574
v 0.010528000071644783 -0.37741899490356445 0.10259400308132172
v 0.010629000142216682 -0.37736600637435913 0.10282599925994873
v 0.009580999612808228 -0.3796209990978241 0.10201200097799301
v 0.00993799977004528 -0.37903299927711487 0.10232699662446976
v 0.009433000348508358 -0.37921199202537537 0.10165999829769135
v 0.007942000404000282 -0.37640801072120667 0.11081399768590927
v 0.008179999887943268 -0.37687399983406067 0.11106500029563904
v 0.009103000164031982 -0.37654098868370056 0.11108899861574173
v 0.01105900015681982 -0.375450998544693 0.11003199964761734
v 0.010418999940156937 -0.3756519854068756 0.11042500287294388
v 0.011114999651908875 -0.375993013381958 0.11067499965429306
v 0.00930199958384037 -0.3756580054759979 0.11056599766016006
v 0.011834999546408653 -0.3785549998283386 0.10999900102615356
v 0.01207599975168705 -0.3771910071372986 0.11011800169944763
v 0.011772999539971352 -0.3770569860935211 0.11063800007104874
v 0.011950000189244747 -0.37662601470947266 0.11029499769210815
v 0.011752000078558922 -0.3765060007572174 0.11049100011587143
v 0.011532999575138092 -0.375993013381958 0.11037900298833847
v 0.011311000213027 -0.3757590055465698 0.11034400016069412
v 0.0067900000140070915 -0.38091400265693665 0.10286299884319305
v 0.006020000204443932 -0.3801650106906891 0.10373300313949585
v 0.005919000133872032 -0.37969300150871277 0.10352399945259094
v 0.005518999882042408 -0.37906700372695923 0.10392200201749802
v 0.0054419999942183495 -0.37888801097869873 0.10414200276136398
v 0.005123000126332045 -0.37847599387168884 0.10510800033807755
v 0.005096999928355217 -0.37773600220680237 0.10465099662542343
v 0.004860000219196081 -0.3775860071182251 0.10567700117826462
v 0.005338000133633614 -0.3780229985713959 0.10392100363969803
v 0.005166999995708466 -0.3778949975967407 0.10442599654197693
v 0.007685000076889992 -0.37597599625587463 0.11042500287294388
v 0.004807999823242426 -0.3774290084838867 0.10589999705553055
v 0.004707000218331814 -0.37691301107406616 0.10629100352525711
v 0.0049959998577833176 -0.3758310079574585 0.10648100078105927
v 0.005038999952375889 -0.3757520020008087 0.1072319969534874
v 0.004774000030010939 -0.3763670027256012 0.10639499872922897
v 0.005386000033468008 -0.375793993473053 0.10823699831962585
v 0.005295999813824892 -0.3753960132598877 0.10736300051212311
v 0.005896999966353178 -0.37583398818969727 0.10870300233364105
v 0.005805999971926212 -0.37523001432418823 0.10777299851179123
v 0.005582000128924847 -0.37533700466156006 0.10782899707555771
v 0.006883000023663044 -0.37562501430511475 0.10930199921131134
v 0.007627999875694513 -0.37560001015663147 0.10982900112867355
v 0.007675999775528908 -0.3758389949798584 0.11029800027608871
v 0.0073020001873373985 -0.3751569986343384 0.10886300355195999
v 0.007085000164806843 -0.3752720057964325 0.10897800326347351
v 0.006060000043362379 -0.3753640055656433 0.10803700238466263
v 0.006597999949008226 -0.3755350112915039 0.10879400372505188
v 0.0073979999870061874 -0.38058000802993774 0.10215199738740921
v 0.009197000414133072 -0.37967801094055176 0.1017410010099411
v 0.009456000290811062 -0.38010600209236145 0.1021450012922287
v 0.009189000353217125 -0.37921300530433655 0.10151199996471405
v 0.008280999958515167 -0.3801569938659668 0.10182200372219086
v 0.00672899978235364 -0.38045600056648254 0.10259299725294113
v 0.0068720001727342606 -0.3800339996814728 0.10220099985599518
v 0.011322000063955784 -0.37663599848747253 0.1051350012421608
v 0.011464999988675117 -0.37615200877189636 0.1057640016078949
v 0.01211399957537651 -0.37615498900413513 0.10775800049304962
v 0.011831999756395817 -0.37573400139808655 0.10716100037097931
v 0.011516000144183636 -0.37561801075935364 0.10638999938964844
v 0.011547000147402287 -0.375544011592865 0.106625996530056
v 0.011579000391066074 -0.37549200654029846 0.1068670004606247
v 0.012205000035464764 -0.37676799297332764 0.10972800105810165
v 0.012218999676406384 -0.37633800506591797 0.10935100167989731
v 0.01217699982225895 -0.3760339915752411 0.10823599994182587
v 0.012237000279128551 -0.37628498673439026 0.10881499946117401
v 0.010106000117957592 -0.37855198979377747 0.1021760031580925
v 0.010344999842345715 -0.37801599502563477 0.10226000100374222
v 0.010440999642014503 -0.37747400999069214 0.10236000269651413
v 0.010526999831199646 -0.37741899490356445 0.10259199887514114
v 0.01094099972397089 -0.37683600187301636 0.10394000262022018
v 0.010975000448524952 -0.37654000520706177 0.10411500185728073
v 0.010975000448524952 -0.37654000520706177 0.10411500185728073
v 0.0110470000654459 -0.3764849901199341 0.1043500006198883
v 0.010526999831199646 -0.3774150013923645 0.10259299725294113
v 0.010507999919354916 -0.3768709897994995 0.10270699858665466
v 0.009441999718546867 -0.3796499967575073 0.10187900066375732
v 0.009477999992668629 -0.378697007894516 0.10151500254869461
v 0.00980599969625473 -0.3781670033931732 0.10159000009298325
v 0.009937000460922718 -0.3781389892101288 0.10171300172805786
v 0.008170999586582184 -0.37592801451683044 0.1106719970703125
v 0.008863000199198723 -0.37592101097106934 0.11076799780130386
v 0.011474999599158764 -0.3754670023918152 0.10972599685192108
v 0.009943000040948391 -0.3754059970378876 0.1101590022444725
v 0.010805999860167503 -0.375328004360199 0.1097709983587265
v 0.009058999828994274 -0.37550100684165955 0.11037199944257736
v 0.01191799994558096 -0.37591999769210815 0.10979299992322922
v 0.006577000021934509 -0.3794400095939636 0.10248000174760818
v 0.005985999945551157 -0.3791219890117645 0.10310100018978119
v 0.005797000136226416 -0.37919101119041443 0.10343500226736069
v 0.0056039998307824135 -0.37880799174308777 0.103582002222538
v 0.005452999845147133 -0.37745800614356995 0.10375399887561798
v 0.005051000043749809 -0.3772830069065094 0.1047929972410202
v 0.005609000101685524 -0.37807801365852356 0.10338400304317474
v 0.005644999910145998 -0.3774090111255646 0.1034569963812828
v 0.008155000396072865 -0.37564900517463684 0.110446996986866
v 0.0050050001591444016 -0.3768239915370941 0.1054529994726181
v 0.004846000112593174 -0.3766759932041168 0.1059499979019165
v 0.004879999905824661 -0.3763050138950348 0.10610499978065491
v 0.005169999785721302 -0.37559300661087036 0.10639499872922897
v 0.00523399980738759 -0.3753879964351654 0.10684999823570251
v 0.0055519999004900455 -0.37523600459098816 0.10754700005054474
v 0.005535000003874302 -0.37519198656082153 0.10701899975538254
v 0.00622399989515543 -0.375108003616333 0.10742899775505066
v 0.006130000110715628 -0.3750019967556 0.1066339984536171
v 0.007871000096201897 -0.37540701031684875 0.10989700257778168
v 0.007895000278949738 -0.37553098797798157 0.11013399809598923
v 0.007017999887466431 -0.3749609887599945 0.1083270013332367
v 0.007625999860465527 -0.37498199939727783 0.10773900151252747
v 0.006651000119745731 -0.3753820061683655 0.10848700255155563
v 0.007172000128775835 -0.38008999824523926 0.10200200229883194
v 0.00761000020429492 -0.3799940049648285 0.10183999687433243
v 0.008495000191032887 -0.3792229890823364 0.10140299797058105
v 0.008960999548435211 -0.3787280023097992 0.10134100168943405
v 0.009200000204145908 -0.3782300055027008 0.10127300024032593
v 0.007823999971151352 -0.3796760141849518 0.10162600129842758
v 0.007172999903559685 -0.3796069920063019 0.10184600204229355
v 0.011006999760866165 -0.37635600566864014 0.1043199971318245
v 0.01081900019198656 -0.3759840130805969 0.10424300283193588
v 0.01106599997729063 -0.3757610023021698 0.1051890030503273
v 0.011388000100851059 -0.37610700726509094 0.10550200194120407
v 0.010945999994874 -0.37550801038742065 0.10539499670267105
v 0.011230000294744968 -0.37572699785232544 0.10593800246715546
v 0.011734999716281891 -0.3753879964351654 0.10811600089073181
v 0.012019000016152859 -0.3756389915943146 0.10866700112819672
v 0.011610999703407288 -0.3754200041294098 0.10710299760103226
v 0.01129399985074997 -0.3754419982433319 0.1063700020313263
v 0.011355999857187271 -0.37542200088500977 0.10661599785089493
v 0.011357000097632408 -0.37536299228668213 0.10685999691486359
v 0.012054000049829483 -0.37584298849105835 0.10923700034618378
v 0.010325999930500984 -0.3775259852409363 0.10213000327348709
v 0.009955000132322311 -0.3775880038738251 0.10167399793863297
v 0.010022999718785286 -0.37677499651908875 0.10196399688720703
v 0.010975000448524952 -0.37654000520706177 0.10411500185728073
v 0.01092000026255846 -0.37659600377082825 0.10387799888849258
v 0.010373000055551529 -0.3764309883117676 0.10286399722099304
v 0.010433999821543694 -0.37620699405670166 0.1032869964838028
v 0.010723000392317772 -0.37615200877189636 0.10378199815750122
v 0.009456999599933624 -0.3776969909667969 0.10134399682283401
v 0.008533000014722347 -0.37549200654029846 0.11035700142383575
v 0.011858999729156494 -0.37552401423454285 0.10917399823665619
v 0.011636000126600266 -0.37539100646972656 0.10916599631309509
v 0.00965800043195486 -0.37534400820732117 0.10965800285339355
v 0.00924300029873848 -0.3753400146961212 0.10996799916028976
v 0.010975000448524952 -0.3752860128879547 0.10928499698638916
v 0.011382999829947948 -0.375234991312027 0.10889600217342377
v 0.010521000251173973 -0.3753089904785156 0.10928300023078918
v 0.010743999853730202 -0.37529000639915466 0.10925000160932541
v 0.0070039997808635235 -0.3785359859466553 0.10195700079202652
v 0.00698000006377697 -0.3790610134601593 0.10193599760532379
v 0.006182000041007996 -0.37855398654937744 0.10266400128602982
v 0.005994000006467104 -0.3780049979686737 0.10279799997806549
v 0.005659999791532755 -0.3770020008087158 0.10386399924755096
v 0.005518999882042408 -0.37693899869918823 0.10412299633026123
v 0.005198999773710966 -0.37659600377082825 0.10510800033807755
v 0.00535999983549118 -0.376693993806839 0.10459499806165695
v 0.005894000176340342 -0.3770880103111267 0.10353100299835205
v 0.006062000058591366 -0.3772830069065094 0.10311199724674225
v 0.006221000105142593 -0.37760600447654724 0.10266099870204926
v 0.008348999544978142 -0.3753359913825989 0.11007799953222275
v 0.0052640000358223915 -0.37623700499534607 0.10552100092172623
v 0.0051380000077188015 -0.3757759928703308 0.10618899762630463
v 0.005683000199496746 -0.3751400113105774 0.10672599822282791
v 0.005520000122487545 -0.3753089904785156 0.10653399676084518
v 0.0057379999198019505 -0.37543898820877075 0.10602299869060516
v 0.006448000203818083 -0.37484800815582275 0.10733000189065933
v 0.006732999812811613 -0.3748509883880615 0.1078139990568161
v 0.00658900011330843 -0.3747960031032562 0.10660599917173386
v 0.006291000172495842 -0.37511900067329407 0.10612700134515762
v 0.006641999818384647 -0.37464800477027893 0.10699299722909927
v 0.005843000020831823 -0.3752189874649048 0.10621000081300735
v 0.008094999939203262 -0.37529200315475464 0.10983899980783463
v 0.007910000160336494 -0.37517300248146057 0.10827399790287018
v 0.006988000124692917 -0.37482699751853943 0.10803499817848206
v 0.008035000413656235 -0.37519800662994385 0.10722800344228745
v 0.007563999854028225 -0.37488600611686707 0.10720200091600418
v 0.007149999961256981 -0.37470000982284546 0.10746199637651443
v 0.007825000211596489 -0.37919101119041443 0.10147300362586975
v 0.008737999945878983 -0.37853899598121643 0.10130500048398972
v 0.008059999905526638 -0.3786979913711548 0.10138300061225891
v 0.008999000303447247 -0.3776949942111969 0.10131099820137024
v 0.007395000196993351 -0.37914299964904785 0.10163500159978867
v 0.010374000295996666 -0.37554898858070374 0.10444000363349915
v 0.010437999852001667 -0.3753739893436432 0.10490299761295319
v 0.010470000095665455 -0.37524399161338806 0.10511799901723862
v 0.010645000264048576 -0.3751330077648163 0.10559000074863434
v 0.010565999895334244 -0.37498000264167786 0.10581699758768082
v 0.010817999951541424 -0.3752340078353882 0.10611400008201599
v 0.01142099965363741 -0.3751470148563385 0.10731200128793716
v 0.011229000054299831 -0.3750540018081665 0.10756999999284744
v 0.011320999823510647 -0.375218003988266 0.1083810031414032
v 0.011357000097632408 -0.37536299228668213 0.10685999691486359
v 0.01145199965685606 -0.3753089904785156 0.1070920005440712
v 0.011326000094413757 -0.3753949999809265 0.10661300271749496
v 0.011357000097632408 -0.37536299228668213 0.10685999691486359
v 0.011357000097632408 -0.37536299228668213 0.10685999691486359
v 0.009988999925553799 -0.3770810067653656 0.10179200023412704
v 0.009740999899804592 -0.37711700797080994 0.10162000358104706
v 0.009769000113010406 -0.37682101130485535 0.10174799710512161
v 0.009577999822795391 -0.37655699253082275 0.10196000337600708
v 0.009991999715566635 -0.37603700160980225 0.10332299768924713
v 0.00939599983394146 -0.37638598680496216 0.10245499759912491
v 0.009255999699234962 -0.3772749900817871 0.10141599923372269
v 0.00902399979531765 -0.3755219876766205 0.10823000222444534
v 0.009819000028073788 -0.3754180073738098 0.10914000123739243
v 0.008225000463426113 -0.3752860128879547 0.10903400182723999
v 0.008315999992191792 -0.37534698843955994 0.10878899693489075
v 0.008798999711871147 -0.3754900097846985 0.10823799669742584
v 0.010967000387609005 -0.37526100873947144 0.10921400040388107
v 0.010743999853730202 -0.37529000639915466 0.10925000160932541
v 0.010905999690294266 -0.3751850128173828 0.10868299752473831
v 0.010502999648451805 -0.3753100037574768 0.10913799703121185
v 0.010743999853730202 -0.37529000639915466 0.10925000160932541
v 0.007445999886840582 -0.3780840039253235 0.10171300172805786
v 0.006634999997913837 -0.3776859939098358 0.10237199813127518
v 0.006407999899238348 -0.37788599729537964 0.1024319976568222
v 0.006200999952852726 -0.37784698605537415 0.10257700085639954
v 0.0064130001701414585 -0.37686100602149963 0.10399100184440613
v 0.005998999811708927 -0.3766689896583557 0.1042499989271164
v 0.006508999969810247 -0.3772299885749817 0.10304199904203415
v 0.006517000030726194 -0.3772059977054596 0.10310400277376175
v 0.0066999997943639755 -0.3773150146007538 0.1027820035815239
v 0.006910999771207571 -0.3772990107536316 0.10275200009346008
v 0.007338999770581722 -0.377265989780426 0.10243000090122223
v 0.006008000113070011 -0.37549999356269836 0.10579600185155869
v 0.006899999920278788 -0.37464699149131775 0.10724999755620956
v 0.006736000068485737 -0.375247985124588 0.10610699653625488
v 0.006864999886602163 -0.37464800477027893 0.10696499794721603
v 0.008325000293552876 -0.3752729892730713 0.10798999667167664
v 0.007977000437676907 -0.37519198656082153 0.10697399824857712
v 0.008169000037014484 -0.37529700994491577 0.10672000050544739
v 0.009348000399768353 -0.37518900632858276 0.10706199705600739
v 0.007468999829143286 -0.3751690089702606 0.10651300102472305
v 0.007879000157117844 -0.3779999911785126 0.10152500122785568
v 0.008348999544978142 -0.37762799859046936 0.10153000056743622
v 0.008585000410676003 -0.3773750066757202 0.10152699798345566
v 0.010215999558568 -0.37529000639915466 0.10490799695253372
v 0.010215999558568 -0.37529000639915466 0.10490799695253372
v 0.010312000289559364 -0.37487900257110596 0.1055620014667511
v 0.010247999802231789 -0.3751170039176941 0.10511700063943863
v 0.010594000108540058 -0.3749539852142334 0.10632500052452087
v 0.010181999765336514 -0.37483400106430054 0.10634399950504303
v 0.010119999758899212 -0.3747909963130951 0.10582099854946136
v 0.011133999563753605 -0.37526699900627136 0.10686200112104416
v 0.010975000448524952 -0.3750140070915222 0.10733100026845932
v 0.011389000341296196 -0.37524399161338806 0.10708300024271011
v 0.010781999677419662 -0.3750700056552887 0.10762999951839447
v 0.010619999840855598 -0.37522000074386597 0.10820899903774261
v 0.009290000423789024 -0.3769429922103882 0.10158199816942215
v 0.009099000133574009 -0.3767380118370056 0.10180900245904922
v 0.009498000144958496 -0.37603700160980225 0.10390300303697586
v 0.009960000403225422 -0.37539198994636536 0.1047080010175705
v 0.009033000096678734 -0.37644898891448975 0.10303500294685364
v 0.009662999771535397 -0.3753890097141266 0.10785499960184097
v 0.009506000205874443 -0.37552300095558167 0.10817000269889832
v 0.009948000311851501 -0.375465989112854 0.10835900157690048
v 0.010712999850511551 -0.37523698806762695 0.10898000001907349
v 0.007499000057578087 -0.37754398584365845 0.10196699947118759
v 0.006732000038027763 -0.37723198533058167 0.1030149981379509
v 0.006949000060558319 -0.3771820068359375 0.10323400050401688
v 0.006699000019580126 -0.37678998708724976 0.10445500165224075
v 0.0062859999015927315 -0.3764970004558563 0.10468599945306778
v 0.00622999994084239 -0.3761869966983795 0.10512799769639969
v 0.006732000038027763 -0.37723198533058167 0.1030149981379509
v 0.006732000038027763 -0.37723198533058167 0.1030149981379509
v 0.006955000106245279 -0.3772290050983429 0.10298600047826767
v 0.007818999700248241 -0.37703201174736023 0.10256599634885788
v 0.008202999830245972 -0.37705498933792114 0.10200700163841248
v 0.00686000008136034 -0.37603598833084106 0.10552699863910675
v 0.007147999946027994 -0.3756619989871979 0.10590799897909164
v 0.006990999914705753 -0.3751400113105774 0.10630500316619873
v 0.008341999724507332 -0.3754250109195709 0.10632099956274033
v 0.009031999856233597 -0.3751220107078552 0.10630600154399872
v 0.009928000159561634 -0.3748059868812561 0.10610900074243546
v 0.009572000242769718 -0.37512698769569397 0.10701800137758255
v 0.00865199975669384 -0.3768559992313385 0.1018960028886795
v 0.009987999685108662 -0.37528499960899353 0.1049019992351532
v 0.010215999558568 -0.37529000639915466 0.10490799695253372
v 0.009864999912679195 -0.3748619854450226 0.10561300069093704
v 0.009991999715566635 -0.3752630054950714 0.10492800176143646
v 0.010528000071644783 -0.3750390112400055 0.10739400237798691
v 0.009827000088989735 -0.3752259910106659 0.10728000104427338
v 0.010141000151634216 -0.37536099553108215 0.10804799944162369
v 0.008522000163793564 -0.37672001123428345 0.10265400260686874
v 0.009064000099897385 -0.3757820129394531 0.1049249991774559
v 0.008902999572455883 -0.37647899985313416 0.10383699834346771
v 0.008743000216782093 -0.37634700536727905 0.10434000194072723
v 0.009576999582350254 -0.3752009868621826 0.10522200167179108
v 0.008491000160574913 -0.3767710030078888 0.10293100029230118
v 0.00698099983856082 -0.37719500064849854 0.1031859964132309
v 0.006909999996423721 -0.3770039975643158 0.10396800190210342
v 0.007943999953567982 -0.3769629895687103 0.10356900095939636
v 0.006953999865800142 -0.37670499086380005 0.10465899854898453
v 0.0083600003272295 -0.37681201100349426 0.10321799665689468
v 0.007081999909132719 -0.37611299753189087 0.10551600158214569
v 0.007818000391125679 -0.3757469952106476 0.10584799945354462
v 0.00877700001001358 -0.37526699900627136 0.10611800104379654
v 0.008488000370562077 -0.37564098834991455 0.10573600232601166
v 0.00940600037574768 -0.375095009803772 0.10563699901103973
v 0.007968000136315823 -0.37617000937461853 0.10536500066518784
v 0.008905000053346157 -0.37554100155830383 0.10539799928665161
v 0.0077840001322329044 -0.3768790066242218 0.10408499836921692
v 0.00810300000011921 -0.3764840066432953 0.10471600294113159
v 0.007368999999016523 -0.37684398889541626 0.10438600182533264
v 0.007536999881267548 -0.3761189877986908 0.10553000122308731
v 0.007687999866902828 -0.37643998861312866 0.10501500219106674
f 1 2 3
f 3 4 1
f 2 1 5
f 6 1 4
f 1 6 5
f 2 7 3
f 2 8 7
f 9 8 2
f 2 5 10
f 2 10 11
f 11 9 2
f 3 12 13
f 3 7 12
f 13 4 3
f 14 6 4
f 4 15 14
f 15 4 16
f 17 18 4
f 18 16 4
f 19 17 4
f 13 19 4
f 10 5 20
f 6 20 5
f 6 21 20
f 22 21 6
f 6 14 22
f 8 23 7
f 12 7 24
f 24 7 23
f 9 25 8
f 23 8 25
f 25 9 11
f 20 26 10
f 10 26 11
f 11 27 25
f 11 28 27
f 11 26 28
f 12 29 13
f 30 12 24
f 12 30 29
f 31 32 13
f 33 19 13
f 32 33 13
f 34 13 29
f 31 13 34
f 15 35 14
f 14 35 22
f 36 37 15
f 15 16 38
f 39 15 40
f 37 40 15
f 38 41 15
f 41 36 15
f 15 39 35
f 16 42 43
f 16 44 42
f 16 43 45
f 38 16 45
f 46 44 16
f 46 16 47
f 18 47 16
f 18 17 48
f 19 48 17
f 48 47 18
f 19 49 50
f 19 51 49
f 52 51 19
f 19 50 48
f 52 19 33
f 26 20 53
f 21 54 20
f 55 53 20
f 20 54 55
f 22 54 21
f 22 35 39
f 22 56 57
f 58 56 22
f 39 58 22
f 22 57 54
f 24 23 59
f 60 59 23
f 23 25 27
f 27 61 23
f 60 23 61
f 30 24 62
f 59 62 24
f 26 53 63
f 63 64 26
f 26 65 28
f 65 26 64
f 61 27 28
f 28 65 66
f 28 67 61
f 68 67 28
f 28 66 69
f 69 68 28
f 34 29 70
f 70 29 30
f 60 71 30
f 72 60 30
f 30 62 72
f 30 73 70
f 74 73 30
f 30 71 74
f 75 32 31
f 75 31 34
f 75 33 32
f 76 52 33
f 75 76 33
f 34 77 75
f 78 79 34
f 80 77 34
f 34 79 80
f 34 70 78
f 81 37 36
f 36 45 81
f 45 36 41
f 40 37 81
f 45 41 38
f 40 82 39
f 39 82 58
f 83 40 81
f 40 83 82
f 42 81 43
f 42 84 85
f 44 84 42
f 42 85 81
f 43 81 45
f 84 44 86
f 86 44 87
f 46 87 44
f 46 48 88
f 88 87 46
f 48 46 47
f 50 88 48
f 50 49 89
f 89 49 51
f 89 88 50
f 51 52 90
f 51 91 89
f 90 91 51
f 52 76 90
f 53 55 63
f 92 93 54
f 54 57 94
f 93 55 54
f 92 54 94
f 55 93 63
f 56 94 57
f 56 95 96
f 94 56 97
f 96 97 56
f 58 95 56
f 98 99 58
f 58 82 98
f 58 99 100
f 58 100 95
f 72 62 59
f 72 59 60
f 60 101 71
f 102 101 60
f 102 60 61
f 61 103 102
f 103 61 67
f 104 63 93
f 64 63 104
f 64 104 105
f 64 105 106
f 65 64 66
f 66 64 106
f 107 69 66
f 66 106 107
f 108 67 109
f 103 67 108
f 110 67 68
f 109 67 110
f 69 111 68
f 110 68 112
f 68 111 112
f 107 113 69
f 113 111 69
f 70 73 78
f 114 71 115
f 116 74 71
f 71 114 116
f 71 101 115
f 79 78 73
f 79 73 74
f 79 74 116
f 117 75 77
f 118 119 75
f 119 76 75
f 118 75 117
f 76 120 90
f 76 119 121
f 76 122 120
f 121 122 76
f 123 117 77
f 123 77 80
f 80 79 123
f 116 124 79
f 123 79 124
f 125 83 81
f 81 85 126
f 81 126 125
f 83 98 82
f 98 83 125
f 85 84 126
f 127 128 84
f 128 126 84
f 129 84 86
f 127 84 129
f 130 131 86
f 132 133 86
f 86 133 129
f 131 132 86
f 87 130 86
f 88 130 87
f 88 131 130
f 131 88 89
f 131 89 91
f 90 120 134
f 135 136 90
f 91 90 136
f 135 90 134
f 137 138 91
f 136 137 91
f 91 138 131
f 93 92 139
f 94 97 92
f 97 139 92
f 139 104 93
f 100 96 95
f 96 140 141
f 96 100 142
f 96 143 97
f 142 140 96
f 141 143 96
f 97 144 145
f 97 143 144
f 139 97 145
f 99 98 125
f 146 99 147
f 147 99 148
f 125 148 99
f 99 146 100
f 142 100 146
f 101 102 149
f 149 115 101
f 149 102 103
f 149 103 150
f 150 103 108
f 139 151 104
f 105 104 151
f 107 105 152
f 105 151 152
f 106 105 107
f 107 153 154
f 107 155 156
f 155 107 154
f 107 152 153
f 113 107 156
f 157 108 109
f 158 150 108
f 158 108 157
f 109 110 159
f 109 159 160
f 160 157 109
f 110 161 162
f 110 162 159
f 110 112 161
f 156 111 113
f 112 111 156
f 156 161 112
f 116 114 163
f 115 164 114
f 163 114 164
f 115 149 164
f 124 116 165
f 163 165 116
f 117 166 118
f 166 117 167
f 167 117 123
f 119 118 168
f 168 118 169
f 169 118 166
f 170 121 119
f 168 170 119
f 171 134 120
f 171 120 170
f 170 120 122
f 122 121 170
f 172 173 123
f 167 123 173
f 124 172 123
f 174 172 124
f 165 175 124
f 174 124 175
f 126 176 125
f 125 176 148
f 126 128 177
f 126 177 176
f 127 177 128
f 178 179 127
f 127 180 181
f 181 177 127
f 127 179 180
f 129 178 127
f 129 133 178
f 138 182 131
f 183 132 131
f 182 184 131
f 184 183 131
f 133 132 185
f 132 186 185
f 186 132 183
f 185 178 133
f 134 187 135
f 187 134 188
f 189 188 134
f 134 171 189
f 190 136 135
f 187 191 135
f 191 192 135
f 190 135 192
f 193 136 190
f 137 136 193
f 194 138 137
f 193 194 137
f 194 182 138
f 151 139 195
f 195 139 145
f 140 196 141
f 197 196 140
f 142 197 140
f 141 198 143
f 141 196 198
f 146 197 142
f 143 198 199
f 143 200 144
f 143 199 200
f 145 144 201
f 200 202 144
f 144 202 203
f 144 203 201
f 204 145 201
f 145 204 195
f 147 205 146
f 146 205 197
f 206 205 147
f 147 207 206
f 208 207 147
f 147 148 208
f 208 148 176
f 164 149 209
f 150 209 149
f 210 209 150
f 150 158 210
f 195 211 151
f 211 212 151
f 212 152 151
f 152 213 153
f 152 212 213
f 153 214 154
f 215 214 153
f 216 153 213
f 153 216 215
f 217 154 214
f 154 218 219
f 155 154 219
f 154 217 218
f 156 155 220
f 219 221 155
f 220 155 222
f 222 155 221
f 156 223 161
f 220 224 156
f 224 223 156
f 157 225 158
f 157 160 226
f 227 225 157
f 227 157 226
f 210 158 228
f 228 158 225
f 159 229 160
f 159 162 230
f 229 159 230
f 229 231 160
f 232 160 231
f 226 160 232
f 162 161 230
f 230 161 223
f 165 163 233
f 164 210 163
f 210 234 163
f 233 163 234
f 210 164 209
f 165 235 175
f 165 233 235
f 167 169 166
f 236 237 167
f 237 169 167
f 236 167 173
f 170 168 238
f 238 168 239
f 239 168 237
f 169 237 168
f 238 240 170
f 171 170 240
f 240 241 171
f 242 189 171
f 242 171 241
f 243 173 172
f 172 244 243
f 172 174 244
f 173 243 236
f 175 245 174
f 244 174 245
f 246 245 175
f 246 175 235
f 177 208 176
f 177 181 208
f 178 185 179
f 247 179 185
f 179 247 180
f 181 180 248
f 247 248 180
f 248 249 181
f 249 207 181
f 181 207 208
f 190 184 182
f 190 182 194
f 183 250 186
f 183 251 250
f 183 184 252
f 252 251 183
f 252 184 192
f 192 184 190
f 186 253 185
f 185 253 247
f 253 186 250
f 187 254 255
f 254 187 256
f 255 191 187
f 257 256 187
f 258 257 187
f 188 258 187
f 189 259 188
f 259 258 188
f 259 189 242
f 194 193 190
f 191 260 192
f 191 255 261
f 262 260 191
f 262 191 263
f 191 261 263
f 252 192 260
f 211 195 204
f 264 265 196
f 265 266 196
f 198 196 266
f 196 197 264
f 267 197 205
f 197 267 264
f 266 199 198
f 199 268 200
f 199 266 269
f 269 268 199
f 200 268 202
f 270 271 201
f 203 272 201
f 201 271 273
f 270 201 272
f 273 204 201
f 202 272 203
f 272 202 274
f 202 268 274
f 204 213 211
f 204 275 213
f 276 204 273
f 276 275 204
f 206 267 205
f 249 277 206
f 206 207 249
f 206 277 267
f 278 234 210
f 228 278 210
f 211 213 212
f 279 213 275
f 280 216 213
f 280 213 279
f 214 215 217
f 281 217 215
f 215 216 281
f 216 280 281
f 282 218 217
f 217 281 282
f 219 218 283
f 282 284 218
f 285 283 218
f 218 284 285
f 219 286 287
f 219 283 286
f 287 221 219
f 230 224 220
f 222 288 220
f 230 220 289
f 290 220 288
f 289 220 290
f 222 221 291
f 291 221 287
f 288 222 291
f 223 224 230
f 228 225 227
f 292 226 232
f 226 292 227
f 227 293 228
f 292 293 227
f 294 278 228
f 295 294 228
f 295 228 293
f 296 229 230
f 231 229 296
f 230 297 296
f 230 289 298
f 299 230 298
f 230 299 297
f 300 301 231
f 231 296 300
f 231 301 232
f 232 302 303
f 302 232 304
f 305 304 232
f 232 301 305
f 292 232 303
f 235 233 306
f 234 306 233
f 278 307 234
f 307 306 234
f 235 306 308
f 235 308 246
f 239 237 236
f 236 309 239
f 243 309 236
f 238 310 311
f 311 240 238
f 310 238 312
f 238 239 312
f 312 239 309
f 241 240 313
f 313 240 311
f 313 314 241
f 315 242 241
f 241 314 316
f 315 241 316
f 317 259 242
f 315 317 242
f 243 318 309
f 318 243 244
f 245 319 244
f 320 244 319
f 318 244 320
f 246 319 245
f 246 308 321
f 322 319 246
f 323 246 294
f 321 294 246
f 322 246 323
f 324 247 253
f 247 324 248
f 248 325 249
f 248 324 325
f 325 326 249
f 327 249 326
f 249 327 328
f 277 249 328
f 250 329 253
f 330 329 250
f 250 251 330
f 252 330 251
f 331 252 260
f 331 330 252
f 253 332 324
f 332 253 329
f 254 261 255
f 333 261 254
f 333 254 334
f 256 334 254
f 335 334 256
f 256 336 335
f 337 336 256
f 257 337 256
f 338 337 257
f 338 257 258
f 338 258 259
f 339 338 259
f 339 259 317
f 260 340 341
f 340 260 262
f 331 260 341
f 261 333 342
f 261 342 263
f 263 340 262
f 263 342 343
f 263 343 340
f 264 267 265
f 265 328 344
f 328 265 267
f 265 344 266
f 266 344 345
f 345 269 266
f 267 277 328
f 346 274 268
f 268 269 346
f 269 345 347
f 347 346 269
f 271 270 348
f 349 348 270
f 350 349 270
f 270 272 350
f 348 351 271
f 352 273 271
f 352 271 351
f 274 350 272
f 273 352 353
f 273 353 276
f 354 274 355
f 350 274 354
f 346 355 274
f 275 356 279
f 276 356 275
f 276 353 357
f 356 276 357
f 307 278 294
f 279 356 357
f 279 357 358
f 279 358 280
f 280 358 281
f 281 359 282
f 281 360 359
f 281 358 360
f 359 361 282
f 362 282 361
f 362 284 282
f 283 363 286
f 283 364 363
f 364 283 365
f 283 285 365
f 366 284 367
f 284 362 367
f 365 284 366
f 285 284 365
f 287 286 363
f 291 287 363
f 288 368 290
f 368 288 291
f 290 298 289
f 369 290 368
f 290 370 299
f 290 299 298
f 371 290 369
f 371 370 290
f 368 291 372
f 373 291 374
f 374 291 363
f 372 291 373
f 295 293 292
f 375 295 292
f 375 292 303
f 321 307 294
f 294 295 323
f 376 323 295
f 376 295 377
f 295 375 378
f 377 295 379
f 379 295 378
f 296 297 380
f 300 296 380
f 381 297 382
f 297 299 382
f 383 297 384
f 384 297 381
f 380 297 383
f 370 382 299
f 305 301 300
f 385 300 380
f 385 305 300
f 302 386 303
f 304 387 302
f 388 302 387
f 386 302 388
f 303 378 375
f 378 303 389
f 390 389 303
f 303 386 390
f 305 391 304
f 391 392 304
f 304 392 393
f 304 393 387
f 385 391 305
f 307 321 306
f 308 306 321
f 309 394 312
f 309 318 395
f 394 309 395
f 310 396 311
f 397 396 310
f 397 310 312
f 311 397 313
f 397 311 396
f 397 312 398
f 394 399 312
f 398 312 399
f 313 400 401
f 313 401 314
f 400 313 397
f 402 314 401
f 403 316 314
f 314 402 403
f 315 404 317
f 316 404 315
f 316 405 404
f 316 403 406
f 406 405 316
f 317 407 408
f 317 404 407
f 408 339 317
f 409 410 318
f 318 320 411
f 412 318 410
f 412 395 318
f 318 411 413
f 413 409 318
f 411 319 414
f 319 411 320
f 414 319 322
f 415 416 322
f 322 323 376
f 416 417 322
f 322 376 418
f 414 322 417
f 418 415 322
f 324 332 419
f 324 419 420
f 420 325 324
f 325 420 326
f 421 326 420
f 326 421 327
f 419 327 421
f 419 422 327
f 344 328 327
f 327 422 344
f 423 332 329
f 423 329 330
f 423 330 331
f 331 341 423
f 419 332 423
f 333 424 342
f 334 424 333
f 334 335 425
f 424 334 425
f 426 425 335
f 427 428 335
f 336 427 335
f 428 426 335
f 427 336 337
f 337 429 427
f 338 429 337
f 429 338 339
f 429 339 430
f 431 430 339
f 432 431 339
f 433 432 339
f 339 408 433
f 340 434 341
f 343 434 340
f 341 435 436
f 419 341 437
f 423 341 419
f 341 436 437
f 341 434 435
f 342 438 343
f 438 342 439
f 342 424 439
f 434 343 438
f 347 344 422
f 347 345 344
f 440 441 346
f 441 355 346
f 442 440 346
f 347 442 346
f 443 442 347
f 444 443 347
f 422 444 347
f 445 446 348
f 348 446 351
f 349 445 348
f 354 447 349
f 349 447 445
f 354 349 350
f 351 446 448
f 351 448 449
f 351 449 352
f 352 449 450
f 352 451 353
f 451 352 450
f 357 353 358
f 358 353 451
f 354 355 452
f 452 453 354
f 354 453 447
f 441 452 355
f 454 360 358
f 451 455 358
f 358 455 454
f 454 456 359
f 454 359 360
f 359 456 361
f 361 456 457
f 361 457 362
f 458 367 362
f 362 457 458
f 363 364 374
f 364 459 460
f 460 374 364
f 364 365 459
f 365 366 461
f 365 462 459
f 365 461 463
f 365 463 462
f 366 367 464
f 366 464 461
f 458 405 367
f 367 405 406
f 406 464 367
f 372 369 368
f 372 465 369
f 369 466 467
f 369 467 371
f 468 369 469
f 466 369 468
f 369 465 469
f 382 370 371
f 371 381 382
f 371 467 381
f 470 372 373
f 465 372 470
f 374 471 373
f 472 373 473
f 470 373 472
f 471 473 373
f 460 474 374
f 471 374 474
f 376 475 476
f 477 475 376
f 376 377 477
f 476 478 376
f 418 376 478
f 479 477 377
f 479 377 480
f 377 379 480
f 389 379 378
f 389 481 379
f 480 379 482
f 482 379 481
f 380 483 385
f 483 380 383
f 381 484 384
f 381 467 466
f 484 381 466
f 383 384 484
f 484 483 383
f 391 385 392
f 385 485 392
f 486 485 385
f 486 385 483
f 388 487 386
f 390 386 487
f 488 387 393
f 387 488 388
f 489 388 488
f 487 388 489
f 490 389 390
f 490 491 389
f 491 492 389
f 481 389 492
f 390 487 490
f 392 485 393
f 393 485 488
f 493 399 394
f 494 394 395
f 493 394 494
f 395 412 494
f 398 400 397
f 493 398 399
f 400 398 493
f 495 401 400
f 400 496 495
f 497 496 400
f 400 493 497
f 401 498 402
f 401 499 498
f 500 401 495
f 500 501 401
f 502 499 401
f 501 502 401
f 498 503 402
f 503 406 402
f 406 403 402
f 405 407 404
f 407 405 504
f 458 504 405
f 505 406 503
f 464 406 505
f 506 408 407
f 407 504 506
f 408 507 433
f 408 508 509
f 509 507 408
f 408 506 508
f 410 409 510
f 409 413 417
f 409 417 416
f 511 510 409
f 511 409 416
f 410 512 412
f 512 410 513
f 510 513 410
f 414 413 411
f 494 412 512
f 414 417 413
f 415 514 416
f 515 514 415
f 516 515 415
f 415 418 516
f 416 517 518
f 511 416 518
f 519 416 514
f 519 517 416
f 478 516 418
f 421 420 419
f 444 422 419
f 443 419 437
f 443 444 419
f 425 439 424
f 425 520 521
f 521 439 425
f 520 425 426
f 522 523 426
f 428 522 426
f 426 523 520
f 428 427 524
f 427 429 524
f 524 522 428
f 430 524 429
f 524 430 431
f 525 526 431
f 526 527 431
f 431 527 524
f 507 431 432
f 525 431 507
f 507 432 433
f 435 434 521
f 438 521 434
f 436 435 528
f 521 529 435
f 529 528 435
f 436 530 437
f 528 531 436
f 436 531 532
f 532 530 436
f 443 437 440
f 437 530 440
f 439 521 438
f 441 440 530
f 440 442 443
f 533 441 532
f 452 441 533
f 530 532 441
f 534 446 445
f 445 535 536
f 445 536 534
f 447 535 445
f 537 448 446
f 446 534 538
f 446 538 537
f 453 535 447
f 539 540 448
f 448 537 539
f 541 448 540
f 449 448 541
f 449 541 450
f 508 450 542
f 543 450 508
f 451 450 543
f 450 541 544
f 450 544 542
f 543 455 451
f 452 545 453
f 452 533 545
f 546 547 453
f 548 546 453
f 545 548 453
f 453 547 535
f 508 454 543
f 454 508 456
f 543 454 455
f 456 508 506
f 457 456 506
f 506 504 457
f 458 457 504
f 460 459 462
f 549 474 460
f 462 549 460
f 505 461 464
f 461 505 550
f 463 461 550
f 462 463 551
f 549 462 552
f 553 552 462
f 462 551 553
f 550 554 463
f 551 463 554
f 470 555 465
f 469 465 555
f 468 484 466
f 468 469 556
f 468 557 484
f 556 558 468
f 468 558 559
f 557 468 559
f 560 556 469
f 469 555 561
f 469 561 560
f 470 562 563
f 564 555 470
f 470 563 564
f 562 470 565
f 565 470 472
f 473 471 474
f 472 473 565
f 474 566 473
f 567 473 566
f 568 565 473
f 473 567 568
f 569 566 474
f 474 549 569
f 570 476 475
f 475 477 479
f 570 475 571
f 475 479 571
f 572 478 476
f 476 570 572
f 478 515 516
f 515 478 573
f 574 478 572
f 573 478 574
f 480 571 479
f 480 575 571
f 482 576 480
f 480 576 575
f 481 576 482
f 577 481 492
f 481 577 578
f 481 578 576
f 483 579 486
f 580 581 483
f 579 483 581
f 580 483 582
f 483 484 557
f 557 582 483
f 579 485 486
f 489 488 485
f 489 485 579
f 583 490 487
f 487 489 583
f 579 583 489
f 583 581 490
f 490 581 584
f 491 490 585
f 585 490 584
f 492 491 585
f 492 586 577
f 492 585 586
f 587 497 493
f 494 587 493
f 587 494 512
f 495 588 500
f 588 495 496
f 589 496 497
f 589 588 496
f 512 589 497
f 497 587 512
f 498 505 503
f 505 498 499
f 505 499 502
f 500 590 501
f 591 590 500
f 500 588 589
f 500 592 591
f 592 500 589
f 502 501 590
f 593 502 590
f 502 593 594
f 594 505 502
f 505 594 550
f 595 525 507
f 595 507 509
f 509 508 542
f 542 595 509
f 511 513 510
f 513 511 596
f 518 596 511
f 597 598 512
f 599 600 512
f 512 513 599
f 512 598 589
f 597 512 600
f 596 601 513
f 599 513 601
f 519 514 515
f 515 602 519
f 573 602 515
f 518 517 603
f 604 517 519
f 605 606 517
f 517 604 605
f 603 517 606
f 518 607 596
f 603 607 518
f 608 609 519
f 519 602 610
f 609 611 519
f 519 611 604
f 608 519 610
f 520 612 521
f 613 612 520
f 614 613 520
f 523 614 520
f 521 612 529
f 615 523 522
f 522 524 615
f 614 523 615
f 524 616 615
f 524 527 616
f 595 526 525
f 526 617 527
f 595 617 526
f 616 527 617
f 528 618 531
f 528 529 618
f 613 619 529
f 619 620 529
f 613 529 612
f 529 620 618
f 621 533 531
f 532 531 533
f 531 618 621
f 621 622 533
f 533 622 545
f 623 534 624
f 536 624 534
f 538 534 623
f 535 547 536
f 536 547 624
f 616 537 625
f 625 537 538
f 539 537 616
f 625 538 623
f 540 539 626
f 616 617 539
f 539 617 626
f 540 544 541
f 544 540 626
f 626 595 542
f 542 544 626
f 545 622 548
f 547 546 627
f 548 627 546
f 627 624 547
f 628 627 548
f 628 548 629
f 629 548 622
f 569 549 630
f 549 552 631
f 630 549 631
f 550 594 632
f 632 554 550
f 551 554 553
f 553 633 552
f 633 631 552
f 633 553 554
f 632 634 554
f 634 635 554
f 633 554 635
f 564 561 555
f 558 556 636
f 637 638 556
f 556 639 637
f 638 640 556
f 639 556 560
f 641 556 640
f 636 556 641
f 559 642 557
f 643 557 642
f 582 557 643
f 558 644 559
f 644 558 636
f 642 559 645
f 559 644 645
f 560 646 639
f 560 561 564
f 560 564 646
f 646 563 562
f 565 647 562
f 647 648 562
f 562 648 649
f 646 562 650
f 650 562 651
f 649 651 562
f 563 646 564
f 647 565 568
f 569 652 566
f 566 652 653
f 566 653 567
f 567 653 654
f 654 655 567
f 647 568 567
f 567 655 647
f 630 652 569
f 570 656 572
f 657 656 570
f 571 658 570
f 658 657 570
f 658 571 575
f 572 656 574
f 656 602 573
f 574 656 573
f 659 575 576
f 575 659 658
f 576 578 659
f 660 577 586
f 578 577 661
f 660 661 577
f 659 578 662
f 662 578 661
f 581 583 579
f 584 581 580
f 582 663 580
f 663 664 580
f 584 580 664
f 663 582 643
f 585 584 665
f 665 584 664
f 666 667 585
f 666 585 665
f 586 585 667
f 586 668 660
f 667 668 586
f 589 669 592
f 598 670 589
f 669 589 670
f 590 671 593
f 635 590 633
f 590 635 671
f 591 633 590
f 591 672 631
f 672 591 592
f 631 633 591
f 672 592 669
f 594 593 671
f 594 634 632
f 594 671 634
f 626 617 595
f 607 601 596
f 673 598 597
f 600 674 597
f 597 675 673
f 675 597 674
f 598 673 670
f 600 599 601
f 676 600 677
f 678 677 600
f 676 679 600
f 674 600 679
f 600 601 680
f 600 680 678
f 607 680 601
f 602 656 657
f 681 610 602
f 602 657 681
f 603 682 683
f 684 685 603
f 603 686 682
f 603 606 684
f 683 607 603
f 685 686 603
f 604 611 605
f 606 605 687
f 688 605 611
f 689 687 605
f 605 688 689
f 684 606 687
f 680 607 683
f 609 608 690
f 610 681 608
f 691 692 608
f 608 681 691
f 690 608 692
f 609 688 611
f 688 609 690
f 693 619 613
f 613 694 693
f 694 613 614
f 614 615 694
f 616 694 615
f 625 694 616
f 618 620 621
f 695 620 619
f 696 695 619
f 696 619 693
f 695 621 620
f 622 621 695
f 622 697 698
f 695 697 622
f 622 698 629
f 623 699 625
f 628 623 624
f 623 628 700
f 699 623 700
f 624 627 628
f 625 701 693
f 625 699 701
f 693 694 625
f 629 700 628
f 629 698 702
f 702 700 629
f 630 631 703
f 630 704 652
f 703 705 630
f 704 630 705
f 631 706 703
f 706 631 672
f 635 634 671
f 641 644 636
f 638 637 707
f 707 637 639
f 708 640 638
f 708 638 707
f 646 650 639
f 707 639 650
f 640 708 641
f 645 644 641
f 645 641 709
f 710 641 708
f 711 641 710
f 709 641 711
f 643 642 712
f 712 642 713
f 713 642 645
f 643 714 663
f 712 714 643
f 713 645 715
f 709 715 645
f 647 655 716
f 716 648 647
f 716 717 648
f 648 717 718
f 648 718 649
f 651 649 718
f 650 651 707
f 707 651 719
f 718 720 651
f 720 721 651
f 651 721 722
f 651 722 719
f 704 653 652
f 653 704 723
f 653 723 654
f 655 654 724
f 725 724 654
f 654 723 725
f 724 716 655
f 726 681 657
f 657 658 726
f 658 659 727
f 727 726 658
f 659 662 728
f 727 659 728
f 729 730 660
f 660 668 731
f 660 662 661
f 662 660 730
f 660 731 729
f 732 662 730
f 728 662 732
f 733 663 714
f 663 733 664
f 712 734 664
f 664 733 712
f 665 664 734
f 665 734 735
f 735 666 665
f 667 666 668
f 666 736 737
f 738 739 666
f 666 737 738
f 666 735 736
f 731 668 666
f 666 739 731
f 672 669 706
f 706 669 670
f 670 740 706
f 741 740 670
f 670 673 741
f 742 741 673
f 743 673 675
f 742 673 743
f 674 679 744
f 675 674 744
f 744 743 675
f 677 745 676
f 679 676 745
f 745 677 746
f 677 678 747
f 677 747 746
f 747 678 680
f 748 744 679
f 749 748 679
f 749 679 745
f 683 747 680
f 750 691 681
f 681 726 750
f 682 686 683
f 751 747 683
f 751 683 752
f 752 683 686
f 753 685 684
f 754 684 687
f 684 754 753
f 685 755 686
f 755 685 753
f 752 686 755
f 756 687 689
f 687 757 754
f 687 756 757
f 758 689 688
f 758 688 690
f 759 760 689
f 760 756 689
f 689 758 759
f 758 690 692
f 761 692 691
f 762 691 763
f 764 765 691
f 761 691 765
f 691 750 763
f 764 691 762
f 692 766 758
f 767 692 761
f 767 766 692
f 701 696 693
f 696 697 695
f 701 697 696
f 702 698 697
f 697 701 702
f 701 699 702
f 700 702 699
f 706 768 703
f 768 705 703
f 769 704 705
f 770 704 769
f 704 770 723
f 705 771 769
f 772 705 768
f 771 705 772
f 773 774 706
f 706 740 773
f 768 706 774
f 708 707 710
f 719 775 707
f 707 775 776
f 776 710 707
f 777 715 709
f 778 709 711
f 777 709 778
f 710 776 711
f 779 711 776
f 711 779 780
f 781 711 780
f 778 711 781
f 734 712 782
f 782 712 713
f 712 733 714
f 713 783 782
f 713 715 783
f 784 715 777
f 783 715 785
f 785 715 784
f 716 724 786
f 787 717 716
f 786 787 716
f 788 717 787
f 717 788 789
f 717 789 720
f 717 720 718
f 790 719 722
f 719 790 791
f 791 792 719
f 792 793 719
f 775 719 793
f 721 720 789
f 789 794 721
f 721 794 722
f 790 722 795
f 722 794 795
f 723 770 796
f 796 725 723
f 725 797 724
f 798 799 724
f 724 797 798
f 786 724 799
f 725 796 769
f 769 771 725
f 725 771 797
f 750 726 800
f 800 726 727
f 727 728 801
f 801 800 727
f 801 728 732
f 729 731 739
f 729 739 802
f 729 803 730
f 803 729 804
f 802 804 729
f 730 803 732
f 805 732 803
f 801 732 805
f 736 735 734
f 736 734 782
f 737 736 806
f 806 736 782
f 806 738 737
f 739 738 802
f 802 738 806
f 741 773 740
f 773 741 742
f 807 774 742
f 742 808 807
f 743 809 742
f 808 742 809
f 742 774 773
f 810 809 743
f 748 743 744
f 810 743 748
f 746 749 745
f 811 749 746
f 746 812 811
f 812 746 747
f 812 747 751
f 748 813 810
f 811 814 748
f 814 813 748
f 811 748 749
f 750 800 815
f 815 763 750
f 751 752 812
f 812 752 816
f 752 817 816
f 818 817 752
f 818 752 755
f 753 818 755
f 753 819 818
f 820 819 753
f 753 754 820
f 820 754 757
f 757 756 760
f 821 822 757
f 822 820 757
f 760 821 757
f 759 758 766
f 821 760 759
f 766 823 759
f 824 821 759
f 759 823 824
f 761 765 767
f 763 825 762
f 764 762 825
f 815 826 763
f 826 825 763
f 765 764 827
f 827 764 828
f 825 828 764
f 765 829 767
f 765 827 829
f 767 829 766
f 829 823 766
f 774 830 768
f 831 768 830
f 768 831 772
f 796 770 769
f 772 832 771
f 771 833 834
f 833 771 832
f 797 771 834
f 772 835 832
f 835 772 831
f 836 830 774
f 836 774 807
f 775 793 837
f 775 837 838
f 839 840 775
f 775 840 776
f 839 775 838
f 776 840 841
f 776 841 842
f 779 776 842
f 784 777 778
f 843 844 778
f 778 844 784
f 778 845 843
f 781 845 778
f 779 842 846
f 846 847 779
f 780 779 847
f 781 780 848
f 848 780 847
f 781 848 845
f 782 783 806
f 806 783 849
f 849 783 785
f 785 784 844
f 785 844 849
f 786 799 787
f 787 850 788
f 787 799 851
f 851 850 787
f 852 795 788
f 788 850 852
f 788 794 789
f 795 794 788
f 853 790 854
f 791 790 853
f 795 854 790
f 792 791 853
f 792 837 793
f 853 837 792
f 852 855 795
f 856 857 795
f 857 854 795
f 795 855 856
f 798 797 834
f 851 799 798
f 858 851 798
f 834 858 798
f 815 800 801
f 859 815 801
f 859 801 805
f 806 860 802
f 804 802 861
f 802 860 861
f 803 862 863
f 859 803 863
f 804 862 803
f 805 803 859
f 864 804 865
f 861 865 804
f 804 866 862
f 804 864 867
f 804 867 866
f 806 849 860
f 868 869 807
f 869 836 807
f 868 807 870
f 807 808 870
f 808 809 810
f 870 808 871
f 808 810 813
f 808 813 871
f 872 814 811
f 811 873 872
f 873 811 812
f 816 874 812
f 875 873 812
f 812 874 875
f 871 813 814
f 876 814 872
f 877 878 814
f 814 878 871
f 876 877 814
f 826 815 879
f 815 859 879
f 880 874 816
f 880 816 817
f 880 817 818
f 818 819 881
f 880 818 881
f 819 882 883
f 884 881 819
f 883 884 819
f 819 820 882
f 882 820 822
f 822 821 824
f 824 882 822
f 823 885 824
f 886 885 823
f 823 829 886
f 887 888 824
f 824 885 889
f 888 890 824
f 824 890 882
f 887 824 889
f 891 825 826
f 825 891 892
f 892 828 825
f 826 879 891
f 829 827 893
f 828 893 827
f 894 895 828
f 828 896 893
f 828 892 894
f 828 895 896
f 893 886 829
f 830 836 831
f 836 835 831
f 832 835 897
f 898 833 832
f 898 832 899
f 832 897 899
f 834 833 898
f 900 834 898
f 834 900 858
f 836 901 835
f 901 897 835
f 901 836 869
f 853 838 837
f 841 839 838
f 838 902 903
f 838 853 857
f 903 841 838
f 838 857 856
f 838 856 902
f 841 840 839
f 903 904 841
f 904 905 841
f 842 841 905
f 842 906 907
f 905 906 842
f 846 842 907
f 861 844 843
f 908 909 843
f 910 861 843
f 843 845 908
f 910 843 909
f 861 860 844
f 860 849 844
f 845 848 911
f 845 911 912
f 908 845 912
f 913 846 907
f 847 846 913
f 848 847 914
f 847 913 914
f 915 848 914
f 911 848 915
f 916 850 851
f 850 916 852
f 851 917 916
f 917 851 858
f 916 918 852
f 852 918 919
f 852 919 855
f 854 857 853
f 856 855 919
f 856 920 902
f 921 920 856
f 856 919 921
f 922 858 900
f 917 858 922
f 863 879 859
f 910 865 861
f 923 863 862
f 866 924 862
f 862 924 923
f 879 863 925
f 926 925 863
f 927 926 863
f 863 923 927
f 865 928 864
f 867 864 929
f 864 928 929
f 865 930 928
f 865 910 930
f 924 866 931
f 866 867 931
f 932 867 929
f 931 867 932
f 901 869 868
f 933 868 934
f 935 934 868
f 868 933 901
f 868 870 935
f 870 871 936
f 870 936 935
f 878 936 871
f 937 876 872
f 872 938 937
f 872 873 938
f 938 873 875
f 874 880 938
f 938 875 874
f 877 876 937
f 878 877 939
f 940 877 937
f 940 939 877
f 878 941 942
f 942 943 878
f 878 943 934
f 934 935 878
f 939 941 878
f 935 936 878
f 925 891 879
f 880 881 938
f 881 884 944
f 944 938 881
f 882 890 883
f 883 890 884
f 884 890 944
f 889 885 886
f 945 886 893
f 889 886 945
f 946 888 887
f 947 946 887
f 887 889 947
f 888 944 890
f 946 944 888
f 945 947 889
f 892 891 925
f 925 926 892
f 894 892 948
f 948 892 926
f 896 945 893
f 894 949 895
f 950 949 894
f 951 950 894
f 894 948 951
f 947 895 952
f 895 947 945
f 945 896 895
f 895 949 952
f 897 901 933
f 933 953 897
f 899 897 953
f 954 900 898
f 954 898 899
f 953 954 899
f 922 900 955
f 900 954 955
f 956 903 902
f 902 920 956
f 903 956 904
f 904 956 957
f 958 905 904
f 957 959 904
f 904 959 958
f 906 905 958
f 960 907 906
f 961 960 906
f 906 962 961
f 906 958 962
f 963 907 960
f 907 963 913
f 909 908 964
f 912 965 908
f 964 908 965
f 910 909 966
f 909 964 966
f 967 930 910
f 966 967 910
f 911 965 912
f 911 915 965
f 914 913 963
f 915 914 963
f 915 963 965
f 917 918 916
f 918 917 968
f 922 968 917
f 919 918 968
f 919 968 969
f 921 919 969
f 970 971 920
f 920 971 956
f 970 920 972
f 920 921 972
f 921 969 972
f 968 922 955
f 923 973 951
f 927 923 951
f 923 974 973
f 924 974 923
f 975 974 924
f 975 924 931
f 926 927 948
f 951 948 927
f 930 976 928
f 929 928 976
f 932 929 976
f 976 930 967
f 931 976 975
f 932 976 931
f 934 977 933
f 953 933 977
f 943 977 934
f 937 978 940
f 979 978 937
f 937 980 979
f 980 937 938
f 980 938 981
f 982 981 938
f 944 982 938
f 983 941 939
f 978 939 940
f 983 939 978
f 941 983 942
f 942 983 984
f 942 985 943
f 984 985 942
f 986 943 985
f 987 943 986
f 977 943 987
f 988 982 944
f 946 989 944
f 989 988 944
f 990 989 946
f 990 946 947
f 947 952 990
f 949 950 952
f 952 950 991
f 951 991 950
f 992 991 951
f 993 951 994
f 973 994 951
f 993 992 951
f 991 989 952
f 952 989 990
f 977 954 953
f 954 977 987
f 987 995 954
f 995 955 954
f 969 968 955
f 969 955 995
f 956 971 996
f 956 996 997
f 957 956 997
f 957 997 959
f 998 958 959
f 962 958 998
f 959 999 998
f 997 999 959
f 960 1000 964
f 964 963 960
f 961 1000 960
f 961 993 994
f 994 1000 961
f 961 962 993
f 993 962 998
f 965 963 964
f 1000 966 964
f 966 1001 1002
f 1001 966 1000
f 1002 967 966
f 967 1002 975
f 976 967 975
f 969 995 1003
f 969 1003 972
f 971 970 1004
f 970 1005 1006
f 972 1005 970
f 1006 1004 970
f 1004 1007 971
f 996 971 1007
f 972 1003 1008
f 1005 972 1008
f 973 1001 994
f 1002 1001 973
f 1002 973 974
f 974 975 1002
f 1009 984 978
f 978 979 1009
f 983 978 984
f 979 1010 1011
f 1011 1009 979
f 979 980 1010
f 1010 980 1012
f 1012 980 981
f 981 982 1012
f 1012 982 988
f 984 1009 985
f 1011 985 1009
f 1011 1013 985
f 985 1013 986
f 986 995 987
f 1008 1003 986
f 1013 1008 986
f 986 1003 995
f 1014 988 1015
f 988 1014 1012
f 1015 988 989
f 1015 989 991
f 992 1016 991
f 1015 991 1017
f 1016 1017 991
f 992 998 1018
f 1018 1016 992
f 993 998 992
f 994 1001 1000
f 1007 999 996
f 996 999 997
f 998 1007 1018
f 1007 998 999
f 1004 1006 1019
f 1020 1004 1019
f 1007 1004 1020
f 1013 1011 1005
f 1006 1005 1011
f 1008 1013 1005
f 1011 1021 1006
f 1006 1021 1022
f 1006 1022 1019
f 1018 1007 1020
f 1010 1021 1011
f 1012 1023 1010
f 1010 1023 1021
f 1012 1014 1024
f 1024 1023 1012
f 1014 1015 1024
f 1015 1019 1024
f 1017 1019 1015
f 1016 1020 1017
f 1018 1020 1016
f 1019 1017 1020
f 1019 1025 1024
f 1022 1025 1019
f 1022 1021 1023
f 1025 1022 1023
f 1025 1023 1024
