# Generated by Visualization Toolkit
v -0.009356999769806862 -0.010036000050604343 0.00785600021481514
v -0.010112999938428402 -0.010627999901771545 0.012292999774217606
v -0.005750999785959721 -0.012392999604344368 0.009177000261843204
v -0.009587000124156475 -0.008685999549925327 0.0048870001919567585
v -0.0010420000180602074 -0.013202999718487263 0.007969999685883522
v 0.004925999790430069 -0.01332900021225214 0.007780000101774931
v -0.005390999838709831 -0.011931000277400017 0.004383999854326248
v -0.0006880000000819564 -0.012640999630093575 0.0036230001132935286
v 0.006213000044226646 -0.00991899985820055 0.0016060000052675605
v -0.009775999933481216 -0.007220999803394079 0.002899999963119626
v -0.006988999899476767 -0.010852999985218048 0.0026740001048892736
v -0.009685000404715538 -0.006639000028371811 0.0009250000002793968
v -0.006101000122725964 -0.011526999995112419 0.0003549999964889139
v 0.0031679999083280563 -0.012140000239014626 -0.000014000000192027073
v -0.010966000147163868 -0.007763999979943037 -0.002188999904319644
v -0.007739999797195196 -0.011973000131547451 -0.002722000004723668
v -0.003865000093355775 -0.014444000087678432 -0.003771000076085329
v 0.00022699999681208283 -0.01539199985563755 -0.004437999799847603
v 0.0037360000424087048 -0.017105000093579292 -0.007017000112682581
v -0.013732999563217163 -0.009488999843597412 -0.0056489999406039715
v -0.011323000304400921 -0.012143000029027462 -0.005843000020831823
v -0.0066639999859035015 -0.01566999964416027 -0.00723800016567111
v -0.004120999947190285 -0.016919000074267387 -0.007896999828517437
v 0.0021279999054968357 -0.017355000600218773 -0.010677999816834927
v -0.010228999890387058 0.011257000267505646 0.008116000331938267
v -0.016565000638365746 0.009457999840378761 0.008913000114262104
v -0.022600000724196434 0.0001500000071246177 0.00877899955958128
v -0.019672000780701637 -0.005675000138580799 0.008803999982774258
v -0.014883999712765217 -0.011750999838113785 0.01115499995648861
v -0.011490000411868095 -0.014189999550580978 0.014937000349164009
v -0.015356999821960926 0.008150000125169754 0.010269000194966793
v -0.016029000282287598 0.00330700003542006 0.011049999855458736
v -0.014179999940097332 -0.0024949999060481787 0.010495999827980995
v -0.011122999712824821 -0.006936999969184399 0.00826600007712841
v -0.011660000309348106 0.005528000183403492 0.006180999800562859
v -0.012462999671697617 -0.00014400000509340316 0.005497000180184841
v -0.011780999600887299 -0.004515999928116798 0.005016000010073185
v -0.010900000110268593 -0.007065999787300825 0.004912999924272299
v -0.0071000000461936 0.011211000382900238 0.004532000049948692
v -0.009296000003814697 0.0076419999822974205 0.0028840000741183758
v -0.011010999791324139 0.00431900005787611 0.0024389999452978373
v -0.01203600037842989 0.0007489999989047647 0.00266700005158782
v -0.012136000208556652 -0.002560999942943454 0.0029780000913888216
v -0.005171000026166439 0.010976999998092651 0.00010299999848939478
v -0.008128000423312187 0.0074800001457333565 0.00006600000051548705
v -0.010493000037968159 0.004523000214248896 0.0001539999939268455
v -0.011811000294983387 0.0006309999735094607 0.00020799999765586108
v -0.011982999742031097 -0.00228599994443357 0.00020199999562464654
v -0.006963999941945076 0.010672000236809254 -0.006821000017225742
v -0.008967000059783459 0.00776199996471405 -0.004900999832898378
v -0.011210000142455101 0.004317999817430973 -0.004404000006616116
v -0.01269800029695034 0.00033000000985339284 -0.003140999935567379
v -0.013221999630331993 -0.004129999782890081 -0.004468000028282404
v -0.011416999623179436 0.010027999989688396 -0.011276000179350376
v -0.013547999784350395 0.004898999817669392 -0.009863000363111496
v -0.014871000312268734 0.00042100000428035855 -0.008549000136554241
v -0.01475400011986494 -0.002770999912172556 -0.00801599957048893
v -0.015062999911606312 -0.0062859999015927315 -0.007029999978840351
v -0.015003999695181847 0.005051000043749809 -0.014065999537706375
v -0.01559399999678135 0.0010179999517276883 -0.013027999550104141
v -0.01572299934923649 -0.0031739999540150166 -0.011095000430941582
v -0.01700199954211712 -0.005547999870032072 -0.010122000239789486
v -0.017284000292420387 -0.008047999814152718 -0.00829899962991476
v -0.01654299907386303 -0.010502000339329243 -0.00800000037997961
v -0.021637000143527985 0.0016400000313296914 -0.012486999854445457
v -0.02480199933052063 -0.006831000093370676 -0.008612999692559242
v -0.01726900041103363 0.0090549997985363 -0.010982999578118324
v -0.025203999131917953 -0.000674000009894371 -0.01092899963259697
v -0.016279000788927078 0.011982999742031097 -0.006461000069975853
v -0.026910999789834023 0.0029440000653266907 -0.009452000260353088
v -0.028320999816060066 0.006335999816656113 -0.003633999964222312
v -0.016318999230861664 0.012145999819040298 -0.0014090000186115503
v -0.026861000806093216 0.006068999879062176 -0.000547999981790781
v -0.017285000532865524 0.011343000456690788 0.0032550001051276922
v -0.025526000186800957 0.0043020001612603664 0.003452999982982874
v -0.01317800022661686 0.010487999767065048 0.00974200014024973
v -0.02726300060749054 -0.023614000529050827 0.007712999824434519
v -0.026833999902009964 -0.017931999638676643 0.0032099999953061342
v -0.027201000601053238 -0.016894999891519547 0.0077149998396635056
v -0.026110000908374786 -0.01065600011497736 -0.003415999934077263
v -0.027814000844955444 -0.009127999655902386 -0.000838999985717237
v -0.02765199914574623 -0.007253000047057867 0.00392200006172061
v -0.025039000436663628 -0.008616999723017216 0.00939099956303835
v -0.015259999781847 -0.04730900004506111 0.022130999714136124
v -0.015519999898970127 -0.03912600129842758 0.02077299915254116
v -0.013654000125825405 -0.03400300070643425 0.02016500011086464
v -0.011509999632835388 -0.026965999975800514 0.018995000049471855
v -0.01107999961823225 -0.019733000546693802 0.01822900027036667
v -0.011261999607086182 -0.01695300079882145 0.01707500033080578
v -0.024555999785661697 -0.04785199835896492 0.01853499934077263
v -0.02560799941420555 -0.042736999690532684 0.016367999836802483
v -0.026040000841021538 -0.03887899965047836 0.014619000256061554
v -0.027055000886321068 -0.03226599842309952 0.011806000024080276
v -0.00927599985152483 -0.04971500113606453 0.007927999831736088
v -0.01938300020992756 -0.05063699930906296 0.01001800037920475
v -0.008957999758422375 -0.015085999853909016 -0.012608000077307224
v -0.00834100041538477 -0.022539999336004257 -0.01090100035071373
v -0.007114999927580357 -0.026690000668168068 -0.004722000099718571
v -0.008485999889671803 -0.03512899950146675 0.0004900000058114529
v -0.009267999790608883 -0.04235300049185753 0.0036720000207424164
v -0.018624000251293182 -0.018964000046253204 -0.0010870000114664435
v -0.019742999225854874 -0.029312999919056892 0.0024049999192357063
v -0.019500000402331352 -0.03578000143170357 0.004815000109374523
v -0.020181000232696533 -0.04250200092792511 0.007588000036776066
v -0.007814999669790268 -0.049835000187158585 0.014589999802410603
v -0.006136999931186438 -0.0405689999461174 0.009859000332653522
v -0.004792000167071819 -0.032287001609802246 0.008138000033795834
v -0.0034580000210553408 -0.025769999250769615 0.00952600035816431
v -0.0004839999892283231 -0.02174299955368042 0.01165900006890297
v -0.003871999913826585 -0.023346999660134315 0.012984000146389008
v -0.007166000083088875 -0.022235000506043434 0.014585999771952629
v -0.009093999862670898 -0.0361890010535717 0.01450399961322546
v 0.002050000010058284 -0.017994999885559082 0.00999400019645691
v -0.005836000200361013 -0.01798900030553341 0.010815000161528587
v -0.003148999996483326 -0.023945000022649765 0.0018980000168085098
v -0.006957000121474266 -0.038474999368190765 0.0053610000759363174
v -0.0022060000337660313 -0.022298000752925873 -0.007160000037401915
v -0.0005699999746866524 -0.020323999226093292 -0.0021349999587982893
v 0.0011709999525919557 -0.019370000809431076 0.0009790000040084124
v -0.011115999892354012 -0.07182099670171738 0.012424999848008156
v -0.020547999069094658 -0.07126100361347198 0.017356999218463898
v -0.022393999621272087 -0.07218299806118011 0.024932000786066055
v -0.014015000313520432 -0.07073300331830978 0.025699999183416367
v -0.007666000165045261 -0.06912499666213989 0.0255769994109869
v -0.009599000215530396 -0.07074400037527084 0.018446000292897224
v 0.009410000406205654 -0.24367600679397583 0.043255001306533813
v 0.012916999869048595 -0.24160200357437134 0.0466650016605854
v 0.008287999778985977 -0.24027299880981445 0.04075299948453903
v 0.012822000309824944 -0.23601900041103363 0.044891998171806335
v 0.012263000011444092 -0.2409839928150177 0.05121999979019165
v 0.014062999747693539 -0.23346400260925293 0.05031299963593483
v 0.009751000441610813 -0.24150800704956055 0.05418400093913078
v 0.01017799973487854 -0.23555700480937958 0.055045001208782196
v 0.006771999876946211 -0.2425210028886795 0.05326500162482262
v 0.004298999905586243 -0.24330900609493256 0.05050700157880783
v 0.004889000207185745 -0.23758600652217865 0.05611100047826767
v 0.00031800000579096377 -0.24417899549007416 0.04940799996256828
v 0.001133000012487173 -0.23927700519561768 0.052473001182079315
v -0.0008030000026337802 -0.2455510050058365 0.04969700053334236
v -0.0024689999409019947 -0.24757899343967438 0.048385001718997955
v -0.006014999933540821 -0.24188999831676483 0.04867599904537201
v -0.004182999953627586 -0.24611499905586243 0.0460439994931221
v -0.001943000010214746 -0.24198299646377563 0.044509001076221466
v -0.0013920000055804849 -0.24493800103664398 0.045708999037742615
v 0.0006719999946653843 -0.24164800345897675 0.04194999858736992
v -0.00011899999663000926 -0.2438659965991974 0.044798001646995544
v 0.003664999967440963 -0.2435470074415207 0.04299699887633324
v 0.00853700004518032 -0.24065400660037994 0.040980998426675797
v 0.00919399969279766 -0.2437870055437088 0.043480999767780304
v 0.0024999999441206455 -0.24407300353050232 0.046852998435497284
v 0.0031240000389516354 -0.2254820019006729 0.03998899832367897
v 0.005034000147134066 -0.23286600410938263 0.04070800170302391
v 0.007102999836206436 -0.2230760008096695 0.04348300024867058
v 0.010181000456213951 -0.23047900199890137 0.04473600164055824
v 0.006682000122964382 -0.22125600278377533 0.046858999878168106
v 0.010114000178873539 -0.22992299497127533 0.04933499917387962
v 0.0010489999549463391 -0.22210000455379486 0.04826800152659416
v 0.004540999885648489 -0.22954000532627106 0.05233899876475334
v -0.000155999994603917 -0.23257699608802795 0.05001800134778023
v -0.0035840000491589308 -0.224031001329422 0.04597700014710426
v -0.004004000220447779 -0.23344799876213074 0.04829299822449684
v -0.0036669999826699495 -0.2249850034713745 0.04236700013279915
v -0.004509999882429838 -0.2348410040140152 0.04379500076174736
v -0.0008370000286959112 -0.2259490042924881 0.03897500038146973
v -0.0011060000397264957 -0.234265998005867 0.04038099944591522
v 0.002966000000014901 -0.22578799724578857 0.04030599817633629
v 0.0045380000956356525 -0.23279300332069397 0.0410659983754158
v 0.000011000000085914508 -0.1878110021352768 0.0314520001411438
v 0.002274000085890293 -0.21374699473381042 0.03719799965620041
v 0.0031419999431818724 -0.18756699562072754 0.034797001630067825
v 0.005377000197768211 -0.2124129980802536 0.03972399979829788
v 0.0035800000187009573 -0.1871650069952011 0.04038099944591522
v 0.0053090001456439495 -0.21186499297618866 0.04365300014615059
v -0.0040259999223053455 -0.188058003783226 0.04009599983692169
v -0.0006419999990612268 -0.21191799640655518 0.04585700109601021
v -0.0047079999931156635 -0.21291400492191315 0.04323999956250191
v -0.008311999961733818 -0.18918299674987793 0.036361999809741974
v -0.00394000019878149 -0.21392999589443207 0.03842100128531456
v -0.006101000122725964 -0.18818800151348114 0.03263299912214279
v -0.0016370000084862113 -0.2143159955739975 0.03582699969410896
v -0.000029999999242136255 -0.18722400069236755 0.030549999326467514
v 0.0022169998846948147 -0.21354900300502777 0.03733000159263611
v -0.007424000184983015 -0.13940300047397614 0.02224699966609478
v -0.003628999926149845 -0.16205500066280365 0.026291999965906143
v -0.0008249999955296516 -0.1629129946231842 0.031307000666856766
v -0.0030300000216811895 -0.13913600146770477 0.02876400016248226
v 0.001183000043965876 -0.16250300407409668 0.03755899891257286
v -0.0005290000117383897 -0.1381170004606247 0.03317299857735634
v -0.006564000155776739 -0.16400699317455292 0.037147000432014465
v -0.008696000091731548 -0.1393440067768097 0.03307199850678444
v -0.012078999541699886 -0.1648010015487671 0.03412799909710884
v -0.013992000371217728 -0.1400119960308075 0.030944999307394028
v -0.009909000247716904 -0.163224995136261 0.029048999771475792
v -0.013352000154554844 -0.13903500139713287 0.025877000764012337
v -0.0034439999144524336 -0.1621450036764145 0.026203999295830727
v -0.007482000160962343 -0.13920700550079346 0.022154999896883965
v -0.01079300045967102 -0.09970399737358093 0.016769999638199806
v -0.008779999800026417 -0.11907599866390228 0.019881999120116234
v -0.005038000177592039 -0.11846199631690979 0.02559100091457367
v -0.0066019999794662 -0.09905499964952469 0.0229250006377697
v -0.0019020000472664833 -0.1174829974770546 0.0314750000834465
v -0.003527000080794096 -0.09718099981546402 0.02857399918138981
v -0.008728999644517899 -0.11861799657344818 0.0318170003592968
v -0.011009999550879002 -0.09785299748182297 0.029224000871181488
v -0.016496999189257622 -0.11912699788808823 0.03103500045835972
v -0.01907999999821186 -0.09846100211143494 0.0300539992749691
v -0.016150999814271927 -0.11917400360107422 0.02571200020611286
v -0.018081000074744225 -0.0996910035610199 0.023002000525593758
v -0.008848000317811966 -0.11937200278043747 0.020601000636816025
v -0.010327000170946121 -0.09996899962425232 0.01721999980509281
v -0.011079000309109688 -0.0717260017991066 0.011842000298202038
f 2 3 1
f 5 4 1
f 3 5 1
f 5 6 4
f 6 7 4
f 6 8 7
f 6 9 8
f 11 10 4
f 7 11 4
f 8 11 7
f 11 12 10
f 11 13 12
f 11 11 13
f 8 11 11
f 8 14 11
f 9 14 8
f 16 15 12
f 13 16 12
f 17 16 13
f 11 17 13
f 18 17 11
f 14 18 11
f 19 18 14
f 9 19 14
f 21 20 15
f 16 21 15
f 22 21 16
f 17 22 16
f 23 22 17
f 18 23 17
f 24 23 18
f 19 24 18
f 26 31 25
f 32 31 26
f 27 32 26
f 33 32 27
f 28 33 27
f 34 33 28
f 29 34 28
f 1 34 29
f 30 1 29
f 31 35 25
f 36 35 31
f 32 36 31
f 37 36 32
f 33 37 32
f 38 37 33
f 34 38 33
f 4 38 34
f 1 4 34
f 40 39 25
f 35 40 25
f 41 40 35
f 36 41 35
f 42 41 36
f 37 42 36
f 43 42 37
f 38 43 37
f 10 43 38
f 4 10 38
f 45 44 39
f 40 45 39
f 46 45 40
f 41 46 40
f 47 46 41
f 42 47 41
f 48 47 42
f 43 48 42
f 12 48 43
f 10 12 43
f 50 49 44
f 45 50 44
f 51 50 45
f 46 51 45
f 52 51 46
f 47 52 46
f 53 52 47
f 48 53 47
f 15 53 48
f 12 15 48
f 55 54 49
f 50 55 49
f 56 55 50
f 51 56 50
f 57 56 51
f 52 57 51
f 58 57 52
f 53 58 52
f 20 58 53
f 15 20 53
f 60 59 54
f 55 60 54
f 61 60 55
f 56 61 55
f 62 61 56
f 57 62 56
f 63 62 57
f 58 63 57
f 64 63 58
f 20 64 58
f 60 65 59
f 61 65 60
f 66 65 61
f 62 66 61
f 63 66 62
f 64 66 63
f 67 65 66
f 68 67 66
f 69 67 68
f 70 69 68
f 71 69 70
f 72 69 71
f 73 72 71
f 74 72 73
f 75 74 73
f 26 74 75
f 27 26 75
f 67 59 65
f 67 54 59
f 69 54 67
f 69 49 54
f 69 44 49
f 72 44 69
f 72 39 44
f 74 39 72
f 74 25 39
f 26 25 74
f 26 76 25
f 79 78 77
f 78 81 80
f 79 81 78
f 79 82 81
f 79 83 82
f 80 68 66
f 81 68 80
f 81 70 68
f 81 71 70
f 82 71 81
f 82 73 71
f 82 75 73
f 83 75 82
f 83 27 75
f 85 90 84
f 85 91 90
f 86 91 85
f 86 92 91
f 87 92 86
f 87 93 92
f 87 77 93
f 88 77 87
f 88 79 77
f 89 79 88
f 89 83 79
f 30 83 89
f 30 27 83
f 29 27 30
f 29 28 27
f 101 64 96
f 97 101 96
f 102 101 97
f 98 102 97
f 103 102 98
f 99 103 98
f 104 103 99
f 100 104 99
f 95 104 100
f 94 95 100
f 101 66 64
f 101 80 66
f 101 78 80
f 102 78 101
f 102 77 78
f 103 77 102
f 103 93 77
f 104 93 103
f 104 92 93
f 104 91 92
f 95 91 104
f 95 90 91
f 84 112 105
f 106 112 105
f 107 112 106
f 108 112 107
f 109 112 108
f 110 112 109
f 111 112 110
f 88 112 111
f 87 112 88
f 86 112 87
f 85 112 86
f 84 112 85
f 105 112 84
f 5 114 6
f 3 114 5
f 2 114 3
f 30 114 2
f 89 114 30
f 88 114 89
f 111 114 88
f 110 114 111
f 109 114 110
f 113 114 109
f 6 114 113
f 105 116 94
f 100 116 94
f 99 116 100
f 98 116 99
f 115 116 98
f 109 116 115
f 108 116 109
f 107 116 108
f 106 116 107
f 105 116 106
f 94 116 105
f 97 117 98
f 24 117 97
f 96 24 97
f 118 115 98
f 117 118 98
f 19 118 117
f 24 19 117
f 118 119 115
f 9 119 118
f 19 9 118
f 113 109 115
f 119 113 115
f 6 113 119
f 9 6 119
f 95 94 120
f 121 95 120
f 90 95 121
f 122 90 121
f 123 90 122
f 84 90 123
f 124 84 123
f 105 84 124
f 125 105 124
f 94 105 125
f 120 94 125
f 128 127 126
f 129 127 128
f 129 130 127
f 131 130 129
f 131 132 130
f 133 132 131
f 133 134 132
f 133 135 134
f 136 135 133
f 136 137 135
f 138 137 136
f 138 139 137
f 138 140 139
f 141 140 138
f 141 142 140
f 143 142 141
f 143 144 142
f 145 144 143
f 145 146 144
f 145 147 146
f 148 147 145
f 148 149 147
f 127 150 126
f 130 150 127
f 132 150 130
f 134 150 132
f 135 150 134
f 137 150 135
f 139 150 137
f 140 150 139
f 142 150 140
f 144 150 142
f 146 150 144
f 147 150 146
f 149 150 147
f 153 152 151
f 153 154 152
f 155 154 153
f 155 156 154
f 157 156 155
f 157 158 156
f 157 159 158
f 160 159 157
f 160 161 159
f 162 161 160
f 162 163 161
f 164 163 162
f 164 165 163
f 166 165 164
f 166 167 165
f 154 128 152
f 154 129 128
f 156 129 154
f 156 131 129
f 158 131 156
f 158 133 131
f 158 136 133
f 159 136 158
f 159 138 136
f 161 138 159
f 161 141 138
f 163 141 161
f 163 143 141
f 165 143 163
f 165 145 143
f 167 145 165
f 167 148 145
f 170 169 168
f 170 171 169
f 172 171 170
f 172 173 171
f 174 173 172
f 174 175 173
f 174 176 175
f 177 176 174
f 177 178 176
f 179 178 177
f 179 180 178
f 181 180 179
f 181 182 180
f 153 151 169
f 171 153 169
f 155 153 171
f 173 155 171
f 157 155 173
f 175 157 173
f 160 157 175
f 176 160 175
f 162 160 176
f 178 162 176
f 164 162 178
f 180 164 178
f 166 164 180
f 182 166 180
f 185 184 183
f 186 185 183
f 187 185 186
f 188 187 186
f 189 187 188
f 190 189 188
f 191 189 190
f 192 191 190
f 193 191 192
f 194 193 192
f 195 193 194
f 196 195 194
f 170 168 184
f 185 170 184
f 172 170 185
f 187 172 185
f 174 172 187
f 189 174 187
f 177 174 189
f 191 177 189
f 179 177 191
f 193 179 191
f 181 179 193
f 195 181 193
f 199 198 197
f 200 199 197
f 201 199 200
f 202 201 200
f 203 201 202
f 204 203 202
f 205 203 204
f 206 205 204
f 207 205 206
f 208 207 206
f 209 207 208
f 210 209 208
f 186 183 198
f 199 186 198
f 188 186 199
f 201 188 199
f 190 188 201
f 203 190 201
f 192 190 203
f 205 192 203
f 194 192 205
f 207 194 205
f 196 194 207
f 209 196 207
f 200 197 120
f 125 200 120
f 202 200 125
f 124 202 125
f 204 202 124
f 123 204 124
f 206 204 123
f 122 206 123
f 208 206 122
f 121 208 122
f 210 208 121
f 211 210 121
f 21 64 20
f 22 64 21
f 96 64 22
f 23 96 22
f 24 96 23
