# Generated by Visualization Toolkit
v 0.033991001546382904 -0.3659740090370178 0.0457100011408329
v 0.034255001693964005 -0.3664650022983551 0.04585200175642967
v 0.033966001123189926 -0.3677250146865845 0.04577299952507019
v 0.03341099992394447 -0.3656260073184967 0.0456169992685318
v 0.0341930016875267 -0.3659060001373291 0.045802999287843704
v 0.0341930016875267 -0.3659060001373291 0.045802999287843704
v 0.033959999680519104 -0.3656969964504242 0.04568500071763992
v 0.03444499894976616 -0.36640599370002747 0.04596100002527237
v 0.03329800069332123 -0.3679969906806946 0.04571099951863289
v 0.03308999910950661 -0.3675079941749573 0.045708999037742615
v 0.033778999000787735 -0.3695180118083954 0.04569200053811073
v 0.034657999873161316 -0.36691999435424805 0.046167001128196716
v 0.034449998289346695 -0.36813798546791077 0.04598600044846535
v 0.03311200067400932 -0.3657580018043518 0.04564699903130531
v 0.034157998859882355 -0.36532899737358093 0.045719001442193985
v 0.03245500102639198 -0.3642989993095398 0.045600999146699905
v 0.03383300080895424 -0.3642770051956177 0.04552699998021126
v 0.03250600025057793 -0.3636940121650696 0.045559000223875046
v 0.0341930016875267 -0.3659060001373291 0.045802999287843704
v 0.03439699858427048 -0.3658370077610016 0.04589499905705452
v 0.035064999014139175 -0.3673970103263855 0.046480998396873474
v 0.034935999661684036 -0.36628100275993347 0.046390000730752945
v 0.03440700098872185 -0.3660440146923065 0.045928001403808594
v 0.03236699849367142 -0.3684130012989044 0.045816000550985336
v 0.0326480008661747 -0.37002599239349365 0.04583600163459778
v 0.03372399881482124 -0.3701150119304657 0.045680999755859375
v 0.03457700088620186 -0.3697870075702667 0.04585599899291992
v 0.034630000591278076 -0.36808499693870544 0.046107999980449677
v 0.03493800014257431 -0.3696810007095337 0.04609899967908859
v 0.03227600082755089 -0.36438098549842834 0.04562800005078316
v 0.03160100057721138 -0.364095002412796 0.045643001794815063
v 0.03136099874973297 -0.3659589886665344 0.04582199826836586
v 0.034970998764038086 -0.365123987197876 0.04644099995493889
v 0.03453600034117699 -0.3634760081768036 0.045910000801086426
v 0.034014999866485596 -0.3636220097541809 0.04551900178194046
v 0.03221999853849411 -0.3638179898262024 0.04557200148701668
v 0.03221999853849411 -0.3638179898262024 0.04557200148701668
v 0.033674001693725586 -0.363180011510849 0.04547400027513504
v 0.03221999853849411 -0.3638179898262024 0.04557200148701668
v 0.03214399889111519 -0.3632659912109375 0.04554000124335289
v 0.03276599943637848 -0.3624520003795624 0.045673999935388565
v 0.034887999296188354 -0.3658910095691681 0.046362001448869705
v 0.03487800061702728 -0.3657189905643463 0.04633599892258644
v 0.03505200147628784 -0.3685390055179596 0.04640199989080429
v 0.03500799834728241 -0.36569899320602417 0.046521998941898346
v 0.0353039987385273 -0.3685699999332428 0.046796999871730804
v 0.03133999928832054 -0.36774298548698425 0.04605599865317345
v 0.03127000108361244 -0.3671869933605194 0.04601699858903885
v 0.03202600032091141 -0.369159996509552 0.04595400020480156
v 0.031202999874949455 -0.36840400099754333 0.04620400071144104
v 0.0330439992249012 -0.3710089921951294 0.04582799971103668
v 0.032322999089956284 -0.3707689940929413 0.04598899930715561
v 0.033938001841306686 -0.370602011680603 0.04569099843502045
v 0.03205699846148491 -0.36973100900650024 0.04600299894809723
v 0.03464600071310997 -0.3714750111103058 0.04580000042915344
v 0.03497200086712837 -0.3707909882068634 0.04596000164747238
v 0.03415900096297264 -0.3710879981517792 0.04570699855685234
v 0.03527100011706352 -0.37072598934173584 0.046282000839710236
v 0.030711999163031578 -0.365090012550354 0.04586600139737129
v 0.03044000081717968 -0.3640260100364685 0.04572499915957451
v 0.03185199946165085 -0.36339500546455383 0.04556100070476532
v 0.0299880001693964 -0.36365899443626404 0.045813001692295074
v 0.031053999438881874 -0.3666979968547821 0.045990001410245895
v 0.03491700068116188 -0.36354199051856995 0.04650399833917618
v 0.03509199991822243 -0.3653779923915863 0.046695999801158905
v 0.03500799834728241 -0.36569899320602417 0.046521998941898346
v 0.03500799834728241 -0.36569899320602417 0.046521998941898346
v 0.03459100052714348 -0.36290600895881653 0.04606400057673454
v 0.03412700071930885 -0.36301299929618835 0.04560000076889992
v 0.03199499845504761 -0.36333200335502625 0.045552998781204224
v 0.03344399854540825 -0.36264899373054504 0.045621998608112335
v 0.03183799982070923 -0.3628300130367279 0.04559300094842911
v 0.033927999436855316 -0.36201199889183044 0.04594999924302101
v 0.033167000859975815 -0.3617730140686035 0.046018000692129135
v 0.03258800134062767 -0.36197900772094727 0.045816000550985336
v 0.03516300022602081 -0.36623498797416687 0.04679799824953079
v 0.035124000161886215 -0.3656899929046631 0.04672500118613243
v 0.03533099964261055 -0.3674210011959076 0.047196999192237854
v 0.0353889986872673 -0.3685170114040375 0.04702699929475784
v 0.03526899963617325 -0.3668360114097595 0.04701299965381622
v 0.03074900060892105 -0.36713600158691406 0.04625900089740753
v 0.030618999153375626 -0.36848899722099304 0.04669500142335892
v 0.030702000483870506 -0.36817899346351624 0.04653500020503998
v 0.030566999688744545 -0.3694069981575012 0.04700800031423569
v 0.0315839983522892 -0.37058401107788086 0.04638399928808212
v 0.032246001064777374 -0.37199199199676514 0.046181000769138336
v 0.03351699933409691 -0.37311500310897827 0.04583900049328804
v 0.03346899896860123 -0.37139299511909485 0.04576700180768967
v 0.032600998878479004 -0.37298399209976196 0.0461370013654232
v 0.03514900058507919 -0.3724760115146637 0.04611700028181076
v 0.03440399840474129 -0.37156999111175537 0.04575600102543831
v 0.035218000411987305 -0.37195900082588196 0.04626600071787834
v 0.0353350006043911 -0.3718859851360321 0.046456001698970795
v 0.035454001277685165 -0.37074100971221924 0.046751998364925385
v 0.0304189994931221 -0.3658359944820404 0.04609600082039833
v 0.030316999182105064 -0.36408600211143494 0.04576300084590912
v 0.029543999582529068 -0.36389100551605225 0.04603999853134155
v 0.029229000210762024 -0.3634890019893646 0.04624899849295616
v 0.03054800070822239 -0.36277300119400024 0.045896001160144806
v 0.03017600066959858 -0.3630099892616272 0.04584899917244911
v 0.035043999552726746 -0.3639799952507019 0.046790000051259995
v 0.035062000155448914 -0.3634589910507202 0.0469760000705719
v 0.034915998578071594 -0.36289599537849426 0.046716999262571335
v 0.03524700179696083 -0.3662770092487335 0.04704900085926056
v 0.03481600061058998 -0.3623580038547516 0.04670400172472
v 0.03446599841117859 -0.36239001154899597 0.046094998717308044
v 0.034157998859882355 -0.3624590039253235 0.04578400030732155
v 0.03178999945521355 -0.3622870147228241 0.04573399946093559
v 0.03384999930858612 -0.361611008644104 0.046289000660181046
v 0.03442399948835373 -0.3618850111961365 0.04637200012803078
v 0.03266900032758713 -0.3617219924926758 0.045965999364852905
v 0.03392200171947479 -0.3612299859523773 0.04680199921131134
v 0.032944999635219574 -0.36146000027656555 0.04627300053834915
v 0.031870000064373016 -0.36195099353790283 0.04590899869799614
v 0.03232700005173683 -0.36173200607299805 0.046018000692129135
v 0.03537600114941597 -0.36799299716949463 0.04726700112223625
v 0.03533099964261055 -0.3674220144748688 0.04719800129532814
v 0.03533000126481056 -0.3674199879169464 0.04719800129532814
v 0.03539299964904785 -0.369717001914978 0.04727799817919731
v 0.035371001809835434 -0.36877599358558655 0.047439999878406525
v 0.0353659987449646 -0.3686169981956482 0.047488000243902206
v 0.03525200113654137 -0.36635899543762207 0.047485001385211945
v 0.035332001745700836 -0.3674820065498352 0.04750699922442436
v 0.029758000746369362 -0.3668450117111206 0.04687799885869026
v 0.030215999111533165 -0.3688710033893585 0.04723300039768219
v 0.02957800030708313 -0.36761200428009033 0.047467999160289764
v 0.03014799952507019 -0.36660298705101013 0.046491000801324844
v 0.0315140001475811 -0.37121400237083435 0.046509999781847
v 0.031177999451756477 -0.3714190125465393 0.046831998974084854
v 0.030446000397205353 -0.3700990080833435 0.04733999818563461
v 0.029808999970555305 -0.36935698986053467 0.0480629988014698
v 0.029843999072909355 -0.3686879873275757 0.04765300080180168
v 0.03276500105857849 -0.3740859925746918 0.04623299837112427
v 0.03201799839735031 -0.3727099895477295 0.04641899839043617
v 0.03369000181555748 -0.3736119866371155 0.045813001692295074
v 0.03432299941778183 -0.3727569878101349 0.045763999223709106
v 0.03378299996256828 -0.37473198771476746 0.04584600031375885
v 0.03554699942469597 -0.3734790086746216 0.046216998249292374
v 0.03478600084781647 -0.37258198857307434 0.045876000076532364
v 0.035436999052762985 -0.3727230131626129 0.04651699960231781
v 0.03537999838590622 -0.37189701199531555 0.046744998544454575
v 0.03540800139307976 -0.37029001116752625 0.04729799926280975
v 0.029815999791026115 -0.36556699872016907 0.04636000096797943
v 0.029319999739527702 -0.36451900005340576 0.046310000121593475
v 0.028850000351667404 -0.36370599269866943 0.046532001346349716
v 0.02942200005054474 -0.36305201053619385 0.04621899873018265
v 0.029903000220656395 -0.36292898654937744 0.04598600044846535
v 0.03039100021123886 -0.362199991941452 0.046289000660181046
v 0.03085000067949295 -0.3619849979877472 0.04639799892902374
v 0.029715999960899353 -0.36270400881767273 0.04623999819159508
v 0.03518500179052353 -0.3658350110054016 0.047605000436306
v 0.03512699902057648 -0.36484700441360474 0.04755600169301033
v 0.03511900082230568 -0.3647080063819885 0.047596000134944916
v 0.034940000623464584 -0.3624129891395569 0.04724999889731407
v 0.03505999967455864 -0.3633970022201538 0.04732400178909302
v 0.034790001809597015 -0.36190399527549744 0.04727200046181679
v 0.034589000046253204 -0.3617520034313202 0.04683300107717514
v 0.03400000184774399 -0.36152198910713196 0.046438999474048615
v 0.034348998218774796 -0.361519992351532 0.04671800136566162
v 0.03246400132775307 -0.3615959882736206 0.04617200046777725
v 0.033702000975608826 -0.36103498935699463 0.04734800010919571
v 0.034285999834537506 -0.3612790107727051 0.04707600176334381
v 0.03133000060915947 -0.36184701323509216 0.04649899899959564
v 0.03243599832057953 -0.3614810109138489 0.04651699960231781
v 0.035023000091314316 -0.3682810068130493 0.047981999814510345
v 0.03512600064277649 -0.3676539957523346 0.04794299975037575
v 0.03523299843072891 -0.3701150119304657 0.047543998807668686
v 0.034970998764038086 -0.3694379925727844 0.04788700118660927
v 0.03437399864196777 -0.3688560128211975 0.04858800023794174
v 0.03517499938607216 -0.3670409917831421 0.04785599932074547
v 0.028819000348448753 -0.3662390112876892 0.04764299839735031
v 0.028937000781297684 -0.3654879927635193 0.04699999839067459
v 0.029854999855160713 -0.36615899205207825 0.046525001525878906
v 0.0291569996625185 -0.3672949969768524 0.04789400100708008
v 0.028951000422239304 -0.3668070137500763 0.04789000004529953
v 0.029423000290989876 -0.3684319853782654 0.04838800057768822
v 0.029603000730276108 -0.36890900135040283 0.048273999243974686
v 0.03108000010251999 -0.3727259933948517 0.047410998493433
v 0.030844999477267265 -0.3722839951515198 0.04759399965405464
v 0.030520999804139137 -0.37128400802612305 0.0476670004427433
v 0.030045000836253166 -0.3704409897327423 0.048222001641988754
v 0.029899999499320984 -0.3699359893798828 0.0482730008661747
v 0.02963699959218502 -0.3696399927139282 0.04914600029587746
v 0.03236600011587143 -0.374675989151001 0.04670500010251999
v 0.03207699954509735 -0.37450000643730164 0.04686100035905838
v 0.031582001596689224 -0.3736029863357544 0.04709000140428543
v 0.03127799928188324 -0.373198002576828 0.0473099984228611
v 0.03468399867415428 -0.3743189871311188 0.04568599909543991
v 0.03413499891757965 -0.375124990940094 0.04566999897360802
v 0.036003001034259796 -0.3744420111179352 0.04624199867248535
v 0.03555399924516678 -0.3740060031414032 0.04598399996757507
v 0.03589100018143654 -0.3739840090274811 0.046608999371528625
v 0.03548499941825867 -0.37287700176239014 0.04683399945497513
v 0.03532699868083 -0.37145400047302246 0.0471780002117157
v 0.03522200137376785 -0.37274399399757385 0.04765399917960167
v 0.03539299964904785 -0.3708510100841522 0.047182001173496246
v 0.035158999264240265 -0.3710789978504181 0.047495998442173004
v 0.029270000755786896 -0.3649449944496155 0.04645799845457077
v 0.029023999348282814 -0.3652789890766144 0.04680899903178215
v 0.028989000245928764 -0.36481401324272156 0.046606000512838364
v 0.028805000707507133 -0.36431801319122314 0.046622999012470245
v 0.028390999883413315 -0.364001989364624 0.047054000198841095
v 0.028355000540614128 -0.3634690046310425 0.0472010001540184
v 0.028857000172138214 -0.36285600066185 0.04681900143623352
v 0.02931099943816662 -0.36263999342918396 0.046594999730587006
v 0.030154999345541 -0.36194801330566406 0.04684099927544594
v 0.029892999678850174 -0.3622579872608185 0.046528998762369156
v 0.031036999076604843 -0.36199599504470825 0.0472010001540184
v 0.029802000150084496 -0.36188700795173645 0.047564998269081116
v 0.034926000982522964 -0.3647199869155884 0.0480940006673336
v 0.034832000732421875 -0.36682501435279846 0.04831099882721901
v 0.03500499948859215 -0.3636539876461029 0.047853000462055206
v 0.034922000020742416 -0.36253300309181213 0.04782800003886223
v 0.03478899970650673 -0.3620249927043915 0.04788900166749954
v 0.034547001123428345 -0.36147499084472656 0.047495000064373016
v 0.03243599832057953 -0.3614639937877655 0.04685100167989731
v 0.03258800134062767 -0.3613710105419159 0.0473329983651638
v 0.032586999237537384 -0.3613489866256714 0.04766799882054329
v 0.033688001334667206 -0.3609659969806671 0.04768700152635574
v 0.0331760011613369 -0.3609769940376282 0.047933001071214676
v 0.03292499855160713 -0.36108800768852234 0.04790399968624115
v 0.03406500071287155 -0.3611299991607666 0.047630999237298965
v 0.034279000014066696 -0.3612230122089386 0.047745998948812485
v 0.03465300053358078 -0.36681199073791504 0.04850099980831146
v 0.03487300127744675 -0.37120699882507324 0.04788200184702873
v 0.034818001091480255 -0.36984801292419434 0.047958001494407654
v 0.03426799923181534 -0.36991599202156067 0.04881199821829796
v 0.034046001732349396 -0.36644700169563293 0.04912199825048447
v 0.03332500159740448 -0.36813199520111084 0.04996199905872345
v 0.02810000069439411 -0.36485499143600464 0.047853998839855194
v 0.028189999982714653 -0.3654470145702362 0.048128001391887665
v 0.02878900058567524 -0.3669840097427368 0.04845099896192551
v 0.029107000678777695 -0.3681510090827942 0.04921500012278557
v 0.03074599988758564 -0.37303099036216736 0.04825500026345253
v 0.03061000071465969 -0.3725070059299469 0.04823499917984009
v 0.030153000727295876 -0.37101200222969055 0.04843499884009361
v 0.02995399944484234 -0.3707509934902191 0.04961799830198288
v 0.029291000217199326 -0.3689279854297638 0.0506570003926754
v 0.029100000858306885 -0.3682520091533661 0.0497170016169548
v 0.032621998339891434 -0.37538599967956543 0.046675000339746475
v 0.032283999025821686 -0.37498900294303894 0.04686500132083893
v 0.032283999025821686 -0.37498900294303894 0.04686500132083893
v 0.032283999025821686 -0.37498900294303894 0.04686500132083893
v 0.03212900087237358 -0.37508898973464966 0.04703700169920921
v 0.03199499845504761 -0.37518200278282166 0.047228001058101654
v 0.031314998865127563 -0.37445101141929626 0.047912001609802246
v 0.036083001643419266 -0.37545299530029297 0.04569200053811073
v 0.03515300154685974 -0.37522900104522705 0.045462001115083694
v 0.0347290001809597 -0.3748539984226227 0.04557599872350693
v 0.03474700078368187 -0.3758400082588196 0.04526500031352043
v 0.03424200043082237 -0.3761799931526184 0.045405998826026917
v 0.033309999853372574 -0.3761749863624573 0.046307001262903214
v 0.036621998995542526 -0.3753649890422821 0.04641199856996536
v 0.03635299950838089 -0.3749240040779114 0.04652300104498863
v 0.03584200143814087 -0.3740920126438141 0.04704599827528
v 0.03549399971961975 -0.3730970025062561 0.04709700122475624
v 0.03483499959111214 -0.37174099683761597 0.04800400137901306
v 0.03479500114917755 -0.37248900532722473 0.048381999135017395
v 0.03560300171375275 -0.37364599108695984 0.04720199853181839
v 0.028157999739050865 -0.36401399970054626 0.04752099886536598
v 0.02788499929010868 -0.3644289970397949 0.04815300181508064
v 0.028692999854683876 -0.3628759980201721 0.04701000079512596
v 0.02795800007879734 -0.3638089895248413 0.04808700084686279
v 0.0282639991492033 -0.3631649911403656 0.047557998448610306
v 0.028648000210523605 -0.3626999855041504 0.04736100137233734
v 0.029086999595165253 -0.36243000626564026 0.04714300110936165
v 0.029146000742912292 -0.36200499534606934 0.04766000062227249
v 0.029299000278115273 -0.36192700266838074 0.047807998955249786
v 0.030897999182343483 -0.3620910048484802 0.04771599918603897
v 0.03170499950647354 -0.3618910014629364 0.047770000994205475
v 0.03216399997472763 -0.36169201135635376 0.04754500091075897
v 0.030389999970793724 -0.3621160089969635 0.04795999825000763
v 0.034791000187397 -0.3655720055103302 0.04836300015449524
v 0.03472600132226944 -0.3652220070362091 0.048427000641822815
v 0.03481699898838997 -0.36382201313972473 0.0483039990067482
v 0.03479300066828728 -0.3630239963531494 0.04822099953889847
v 0.034752000123262405 -0.36269500851631165 0.0482960008084774
v 0.03461199998855591 -0.3621880114078522 0.04835199937224388
v 0.03448500111699104 -0.3616189956665039 0.0481100007891655
v 0.031975001096725464 -0.36159199476242065 0.048413001000881195
v 0.033872999250888824 -0.3610039949417114 0.04782300069928169
v 0.03316200152039528 -0.3609119951725006 0.04827199876308441
v 0.03432700037956238 -0.3613789975643158 0.048062000423669815
v 0.034556999802589417 -0.37086600065231323 0.04839999973773956
v 0.03443500027060509 -0.3702999949455261 0.04848900064826012
v 0.033654000610113144 -0.37148699164390564 0.04962800070643425
v 0.03316900134086609 -0.3694700002670288 0.05005300045013428
v 0.0328730009496212 -0.3668380081653595 0.050686001777648926
v 0.0341930016875267 -0.3648200035095215 0.04912000149488449
v 0.03364500030875206 -0.3651989996433258 0.04987100139260292
v 0.03355100005865097 -0.3658809959888458 0.04989999905228615
v 0.032903000712394714 -0.3690679967403412 0.05030199885368347
v 0.03261600062251091 -0.36803099513053894 0.05074400082230568
v 0.02791699953377247 -0.3650830090045929 0.048618998378515244
v 0.028101999312639236 -0.36557701230049133 0.048604000359773636
v 0.03025900013744831 -0.37161099910736084 0.04878000169992447
v 0.031144000589847565 -0.37513598799705505 0.04886399954557419
v 0.030108999460935593 -0.3712480068206787 0.04954700171947479
v 0.02960900031030178 -0.36945199966430664 0.05108200013637543
v 0.028936000540852547 -0.36780399084091187 0.05149399861693382
v 0.02889000065624714 -0.36792799830436707 0.050560999661684036
v 0.02925099991261959 -0.36830198764801025 0.0515809990465641
v 0.028542999178171158 -0.3667539954185486 0.04969299957156181
v 0.03264100104570389 -0.376583993434906 0.04695200175046921
v 0.03231300041079521 -0.3755829930305481 0.04701999947428703
v 0.03216300159692764 -0.3751629889011383 0.04703899845480919
v 0.032182998955249786 -0.37627801299095154 0.04734500125050545
v 0.031282998621463776 -0.37504300475120544 0.04834900051355362
v 0.03607400134205818 -0.3759939968585968 0.045478999614715576
v 0.036743998527526855 -0.37634798884391785 0.04580700024962425
v 0.03528999909758568 -0.3757149875164032 0.04529599845409393
v 0.034662000834941864 -0.3765319883823395 0.045170001685619354
v 0.034967999905347824 -0.37639498710632324 0.045131999999284744
v 0.03369300067424774 -0.37709999084472656 0.04597900062799454
v 0.03424999862909317 -0.37731999158859253 0.045364998281002045
v 0.03432299941778183 -0.3767009973526001 0.04529900103807449
v 0.03700000047683716 -0.3763140141963959 0.0461839996278286
v 0.03688199818134308 -0.3758600056171417 0.04655899852514267
v 0.03649900108575821 -0.37524399161338806 0.04686199873685837
v 0.03636699914932251 -0.37498199939727783 0.04684299975633621
v 0.0348300002515316 -0.37368300557136536 0.048673998564481735
v 0.03578000143170357 -0.3748280107975006 0.04774000123143196
v 0.03420700132846832 -0.3719100058078766 0.04909000173211098
v 0.03441699966788292 -0.3727650046348572 0.048976000398397446
v 0.027907000854611397 -0.3636940121650696 0.048413001000881195
v 0.02772199921309948 -0.364764004945755 0.049525000154972076
v 0.027752000838518143 -0.3643360137939453 0.049063000828027725
v 0.02812100015580654 -0.36324599385261536 0.04807399958372116
v 0.028262000530958176 -0.3630630075931549 0.04787600040435791
v 0.028366999700665474 -0.3629089891910553 0.04772400110960007
v 0.028776999562978745 -0.362278014421463 0.04793199896812439
v 0.028991999104619026 -0.36205899715423584 0.047846999019384384
v 0.030230000615119934 -0.36215099692344666 0.048149000853300095
v 0.029330000281333923 -0.36208000779151917 0.048110999166965485
v 0.028896000236272812 -0.362309992313385 0.04834600165486336
v 0.03091599978506565 -0.3621000051498413 0.04871400073170662
v 0.031220000237226486 -0.3619630038738251 0.048673998564481735
v 0.030680999159812927 -0.3622190058231354 0.04881500080227852
v 0.03031199984252453 -0.3624100089073181 0.04878599941730499
v 0.03452200070023537 -0.36387398838996887 0.04870900139212608
v 0.034049998968839645 -0.36278200149536133 0.04935000091791153
v 0.03367900103330612 -0.3614780008792877 0.04915599897503853
v 0.0338979996740818 -0.36140701174736023 0.04869600012898445
v 0.03175299987196922 -0.36139100790023804 0.04896000027656555
v 0.033900998532772064 -0.36108800768852234 0.048145998269319534
v 0.03317900002002716 -0.3609539866447449 0.04859999939799309
v 0.03171800076961517 -0.36125099658966064 0.049306999891996384
v 0.031863000243902206 -0.3611310124397278 0.04979100078344345
v 0.03310000151395798 -0.3612479865550995 0.04942600056529045
v 0.03328099846839905 -0.3711259961128235 0.049924999475479126
v 0.03370499983429909 -0.37204301357269287 0.0496320016682148
v 0.03250199928879738 -0.36638200283050537 0.051197998225688934
v 0.032659001648426056 -0.36586999893188477 0.05116400122642517
v 0.03323899954557419 -0.36493998765945435 0.05061899870634079
v 0.03266099840402603 -0.3712649941444397 0.05036899819970131
v 0.03255100175738335 -0.3687230050563812 0.05079200118780136
v 0.032343000173568726 -0.3683539927005768 0.051405999809503555
v 0.027876000851392746 -0.3652620017528534 0.049456000328063965
v 0.028088999912142754 -0.3657200038433075 0.049313001334667206
v 0.028586000204086304 -0.36701700091362 0.05114499852061272
v 0.030539000406861305 -0.3726919889450073 0.04902999848127365
v 0.03040499985218048 -0.3722749948501587 0.04954800009727478
v 0.03139900043606758 -0.3756529986858368 0.048347000032663345
v 0.031216999515891075 -0.37584400177001953 0.04893200099468231
v 0.030587000772356987 -0.37283000349998474 0.04983900114893913
v 0.030974000692367554 -0.3744089901447296 0.049915000796318054
v 0.031134000048041344 -0.3754349946975708 0.04961400106549263
v 0.031098999083042145 -0.37492701411247253 0.049883000552654266
v 0.030184000730514526 -0.3708699941635132 0.050732001662254333
v 0.030419999733567238 -0.37184399366378784 0.05033399909734726
v 0.03057599999010563 -0.37081000208854675 0.051288001239299774
v 0.030066000297665596 -0.3698830008506775 0.05133099853992462
v 0.029474999755620956 -0.3684769868850708 0.051702000200748444
v 0.028759000822901726 -0.3675509989261627 0.051304999738931656
v 0.029412999749183655 -0.3679870069026947 0.05200500041246414
v 0.02876400016248226 -0.36708399653434753 0.051874998956918716
v 0.029472999274730682 -0.36847200989723206 0.05170299857854843
v 0.03252299875020981 -0.3778339922428131 0.04719800129532814
v 0.03172700107097626 -0.3771750032901764 0.04799899831414223
v 0.036708999425172806 -0.37690499424934387 0.04562700167298317
v 0.03597699850797653 -0.376583993434906 0.0453450009226799
v 0.035415999591350555 -0.3767859935760498 0.04515799880027771
v 0.037161000072956085 -0.3773390054702759 0.045882999897003174
v 0.03508700057864189 -0.37691599130630493 0.04510800167918205
v 0.03482000157237053 -0.37732601165771484 0.04516100138425827
v 0.03425399959087372 -0.3779209852218628 0.04549900069832802
v 0.03374499827623367 -0.3788909912109375 0.04641500115394592
v 0.03488700091838837 -0.37877601385116577 0.04539300128817558
v 0.03439699858427048 -0.3772430121898651 0.04528399929404259
v 0.03708599880337715 -0.37636300921440125 0.046633001416921616
v 0.03718800097703934 -0.37681901454925537 0.04623499885201454
v 0.0372840017080307 -0.3773239850997925 0.046077001839876175
v 0.03699199855327606 -0.3763769865036011 0.04688199982047081
v 0.03691200166940689 -0.37652701139450073 0.04709799960255623
v 0.03594300150871277 -0.37599098682403564 0.04814400151371956
v 0.035728998482227325 -0.37550199031829834 0.04813399910926819
v 0.03484699875116348 -0.37428098917007446 0.04881900176405907
v 0.0336339995265007 -0.37326300144195557 0.04983000084757805
v 0.027696000412106514 -0.3641209900379181 0.049417998641729355
v 0.028077000752091408 -0.3630549907684326 0.04875899851322174
v 0.027746999636292458 -0.3648169934749603 0.04984600096940994
v 0.027695000171661377 -0.36410200595855713 0.04975200071930885
v 0.02833300083875656 -0.36277300119400024 0.0480710007250309
v 0.0281009990721941 -0.3631249964237213 0.049084000289440155
v 0.029808999970555305 -0.3624660074710846 0.04869399964809418
v 0.030121000483632088 -0.3624289929866791 0.0486689992249012
v 0.029399000108242035 -0.3627830147743225 0.048920001834630966
v 0.028040999546647072 -0.36348599195480347 0.04956600069999695
v 0.02869199961423874 -0.3631410002708435 0.049222998321056366
v 0.029054999351501465 -0.36284101009368896 0.04895399883389473
v 0.03036300092935562 -0.3625600039958954 0.049435000866651535
v 0.030546000227332115 -0.3623720109462738 0.049313999712467194
v 0.030880000442266464 -0.36194801330566406 0.04939299821853638
v 0.029743999242782593 -0.36282700300216675 0.049180999398231506
v 0.030081000179052353 -0.3627830147743225 0.04946500062942505
v 0.02954299934208393 -0.3633039891719818 0.049848999828100204
v 0.033139001578092575 -0.36267998814582825 0.050627999007701874
v 0.03308400139212608 -0.3638969957828522 0.05084000155329704
v 0.033681001514196396 -0.36207398772239685 0.04961799830198288
v 0.03309100121259689 -0.3620910048484802 0.05045599862933159
v 0.032839998602867126 -0.36151599884033203 0.05011599883437157
v 0.03271999955177307 -0.3611229956150055 0.04949299991130829
v 0.03204699978232384 -0.3611629903316498 0.04992799833416939
v 0.03141000121831894 -0.36136600375175476 0.04968100041151047
v 0.03141599893569946 -0.36163899302482605 0.05040699988603592
v 0.03170299902558327 -0.36151400208473206 0.0503930002450943
v 0.031422000378370285 -0.361393004655838 0.05000999942421913
v 0.03260499984025955 -0.361299991607666 0.04999899864196777
v 0.03300800174474716 -0.37185800075531006 0.05012200027704239
v 0.03206799924373627 -0.3680019974708557 0.051959000527858734
v 0.032037001103162766 -0.3668679893016815 0.05198099836707115
v 0.03303699940443039 -0.3646230101585388 0.050891000777482986
v 0.032694000750780106 -0.36461400985717773 0.051277000457048416
v 0.03236199915409088 -0.3716590106487274 0.05065799877047539
v 0.03248000144958496 -0.37102800607681274 0.05063199996948242
v 0.03221200034022331 -0.3706730008125305 0.05119200050830841
v 0.03225399926304817 -0.36854299902915955 0.051601000130176544
v 0.032016001641750336 -0.3691590130329132 0.05186399817466736
v 0.03199499845504761 -0.37026599049568176 0.05158599838614464
v 0.02797600068151951 -0.3653999865055084 0.0503849983215332
v 0.028522999957203865 -0.3665759861469269 0.051702000200748444
v 0.028181999921798706 -0.36543500423431396 0.05101599916815758
v 0.03141000121831894 -0.37610000371932983 0.04842999950051308
v 0.031223999336361885 -0.3763979971408844 0.0488400012254715
v 0.03112100064754486 -0.3768540024757385 0.0495930016040802
v 0.030983999371528625 -0.37441301345825195 0.04996199905872345
v 0.031161999329924583 -0.3754520118236542 0.04975999891757965
v 0.031272999942302704 -0.37662699818611145 0.05011900141835213
v 0.031098999083042145 -0.37492701411247253 0.049883000552654266
v 0.031098999083042145 -0.37492701411247253 0.049883000552654266
v 0.030765000730752945 -0.3718169927597046 0.05094999819993973
v 0.030584000051021576 -0.3713259994983673 0.05099000036716461
v 0.0311489999294281 -0.3749600052833557 0.05017000064253807
v 0.03125699982047081 -0.374424010515213 0.05060900002717972
v 0.03142099827528 -0.3741939961910248 0.05071200057864189
v 0.031502000987529755 -0.37201499938964844 0.05116799846291542
v 0.030917000025510788 -0.37071698904037476 0.051555000245571136
v 0.030592000111937523 -0.36874398589134216 0.0521790012717247
v 0.030212000012397766 -0.3677479922771454 0.05253300070762634
v 0.029997000470757484 -0.3688639998435974 0.05186700075864792
v 0.029637999832630157 -0.3684360086917877 0.05184600129723549
v 0.029797999188303947 -0.36839601397514343 0.051993001252412796
v 0.029316000640392303 -0.3669849932193756 0.052577000111341476
v 0.029637999832630157 -0.3684360086917877 0.05184600129723549
v 0.029637999832630157 -0.3684360086917877 0.05184600129723549
v 0.028822999447584152 -0.3665800094604492 0.05237499997019768
v 0.03290500119328499 -0.3788039982318878 0.04708699882030487
v 0.0325779989361763 -0.3784570097923279 0.047269001603126526
v 0.03131699934601784 -0.37745800614356995 0.04856399819254875
v 0.03167299926280975 -0.37779000401496887 0.04808099940419197
v 0.036612000316381454 -0.3775019943714142 0.04552699998021126
v 0.03610699996352196 -0.3771040141582489 0.04534099996089935
v 0.03576900064945221 -0.37839698791503906 0.04532400146126747
v 0.03733700141310692 -0.37842199206352234 0.045914001762866974
v 0.03524100035429001 -0.37861698865890503 0.045295000076293945
v 0.03450699895620346 -0.37900200486183167 0.04567199945449829
v 0.034832000732421875 -0.3791849911212921 0.045542001724243164
v 0.034178998321294785 -0.37987199425697327 0.04676700010895729
v 0.033573001623153687 -0.37965700030326843 0.04701099917292595
v 0.03328400105237961 -0.3791399896144867 0.04695099964737892
v 0.035241998732089996 -0.3792159855365753 0.04542100057005882
v 0.037379998713731766 -0.37737300992012024 0.04653400182723999
v 0.037199001759290695 -0.3769170045852661 0.046762000769376755
v 0.037484001368284225 -0.3787649869918823 0.046156998723745346
v 0.03752800077199936 -0.37843000888824463 0.046372998505830765
v 0.036253999918699265 -0.37705498933792114 0.04836999997496605
v 0.0371129997074604 -0.3776789903640747 0.0475349985063076
v 0.03587700054049492 -0.37662801146507263 0.048537999391555786
v 0.034494999796152115 -0.37515100836753845 0.04956499859690666
v 0.03487300127744675 -0.37608200311660767 0.049559999257326126
v 0.03376699984073639 -0.3743729889392853 0.049897998571395874
v 0.032621998339891434 -0.3738200068473816 0.05048000067472458
v 0.033562999218702316 -0.37448498606681824 0.050025999546051025
v 0.0332770012319088 -0.372871994972229 0.050002001225948334
v 0.03278199955821037 -0.3731380105018616 0.0502920001745224
v 0.0277709998190403 -0.3637680113315582 0.049594998359680176
v 0.027994999662041664 -0.36492401361465454 0.050937000662088394
v 0.027729999274015427 -0.36420899629592896 0.05007300153374672
v 0.02778800018131733 -0.3644010126590729 0.05038600042462349
v 0.027798999100923538 -0.36385101079940796 0.049917999655008316
v 0.02886899933218956 -0.3633739948272705 0.049616001546382904
v 0.02844100072979927 -0.36366501450538635 0.05016399919986725
v 0.0306560005992651 -0.36236199736595154 0.04973499849438667
v 0.030285999178886414 -0.3628770112991333 0.0499269999563694
v 0.030913999304175377 -0.3620370030403137 0.05004800111055374
v 0.02880599908530712 -0.3637239933013916 0.05043699964880943
v 0.0294560007750988 -0.3635689914226532 0.05067799985408783
v 0.03236899897456169 -0.3625729978084564 0.051364000886678696
v 0.03236500173807144 -0.3622319996356964 0.05114400014281273
v 0.03189399838447571 -0.3617990016937256 0.05091100186109543
v 0.03183000162243843 -0.36215800046920776 0.05139800161123276
v 0.03080799989402294 -0.36278900504112244 0.05201699957251549
v 0.030640000477433205 -0.3625890016555786 0.05063299834728241
v 0.03112800046801567 -0.3627009987831116 0.051973000168800354
v 0.03309300169348717 -0.3721970021724701 0.050078000873327255
v 0.03260999917984009 -0.3720790147781372 0.05038800090551376
v 0.031950999051332474 -0.36867401003837585 0.051973000168800354
v 0.03182300180196762 -0.3675979971885681 0.052225999534130096
v 0.031773000955581665 -0.3641670048236847 0.05233300104737282
v 0.031214000657200813 -0.36448800563812256 0.05276599898934364
v 0.03142400085926056 -0.3666599988937378 0.052545998245477676
v 0.03222300112247467 -0.3721430003643036 0.05071499943733215
v 0.032040998339653015 -0.3721010088920593 0.050912998616695404
v 0.03182300180196762 -0.3719309866428375 0.0511230006814003
v 0.03156699985265732 -0.37100398540496826 0.05155399814248085
v 0.03156299889087677 -0.369935005903244 0.05190400034189224
v 0.03185899928212166 -0.3701950013637543 0.051725998520851135
v 0.03108000010251999 -0.36957600712776184 0.05196499824523926
v 0.02848700061440468 -0.36606699228286743 0.051973000168800354
v 0.028327999636530876 -0.36491701006889343 0.05163300037384033
v 0.028095999732613564 -0.3648430109024048 0.05114300176501274
v 0.031170999631285667 -0.3770659863948822 0.04890599846839905
v 0.031105000525712967 -0.3770900070667267 0.049173999577760696
v 0.0312809981405735 -0.3777399957180023 0.04993699863553047
v 0.031178999692201614 -0.3754720091819763 0.049908000975847244
v 0.03149399906396866 -0.37720099091529846 0.050592999905347824
v 0.03135700151324272 -0.3760629892349243 0.05037200078368187
v 0.031235000118613243 -0.37549400329589844 0.050133999437093735
v 0.031223999336361885 -0.375357985496521 0.05017000064253807
v 0.031272001564502716 -0.372747004032135 0.05090999975800514
v 0.03123600035905838 -0.3749699890613556 0.050411999225616455
v 0.03210899978876114 -0.37540099024772644 0.05086300149559975
v 0.031968001276254654 -0.3742929995059967 0.050787001848220825
v 0.03186599910259247 -0.3736169934272766 0.05075899884104729
v 0.0313199982047081 -0.3711160123348236 0.051520999521017075
v 0.031808000057935715 -0.3724989891052246 0.05092399939894676
v 0.03133599832653999 -0.3705730140209198 0.05172500014305115
v 0.030782999470829964 -0.36807599663734436 0.05249499902129173
v 0.02980400063097477 -0.3684079945087433 0.05198900029063225
v 0.02949400059878826 -0.36640098690986633 0.05292600020766258
v 0.030254999175667763 -0.36665499210357666 0.052928000688552856
v 0.02868800051510334 -0.3660689890384674 0.0524200014770031
v 0.029340999200940132 -0.36590299010276794 0.052994001656770706
v 0.03226099908351898 -0.37920600175857544 0.04775499925017357
v 0.03280400112271309 -0.3798519968986511 0.04764699935913086
v 0.03298100084066391 -0.37938499450683594 0.04728500172495842
v 0.03315399959683418 -0.37928199768066406 0.04712900146842003
v 0.03315399959683418 -0.37928199768066406 0.04712900146842003
v 0.03206299990415573 -0.378713995218277 0.04775900021195412
v 0.03132599964737892 -0.37805798649787903 0.04870200157165527
v 0.03117300011217594 -0.37760698795318604 0.04901900142431259
v 0.03170400112867355 -0.3789849877357483 0.04836900159716606
v 0.03699199855327606 -0.3785189986228943 0.04565000161528587
v 0.036848001182079315 -0.3791469931602478 0.045609001070261
v 0.03637300059199333 -0.37914299964904785 0.045472998172044754
v 0.035847000777721405 -0.37954598665237427 0.04548000171780586
v 0.035565998405218124 -0.37934601306915283 0.04541900008916855
v 0.03737400099635124 -0.37899699807167053 0.04599300026893616
v 0.03737400099635124 -0.37899699807167053 0.04599300026893616
v 0.037227001041173935 -0.37902799248695374 0.045830000191926956
v 0.03501399978995323 -0.37981799244880676 0.04580799862742424
v 0.03526400029659271 -0.37983301281929016 0.045673999935388565
v 0.033337000757455826 -0.3805069923400879 0.047857001423835754
v 0.03442399948835373 -0.38012298941612244 0.046879999339580536
v 0.034922000020742416 -0.38009798526763916 0.046300001442432404
v 0.03325499966740608 -0.37985700368881226 0.04734800010919571
v 0.03315399959683418 -0.37928199768066406 0.04712900146842003
v 0.03735699877142906 -0.3780820071697235 0.047168001532554626
v 0.0375090017914772 -0.3785429894924164 0.046907998621463776
v 0.03748499974608421 -0.3789930045604706 0.04620400071144104
v 0.03751600161194801 -0.3790830075740814 0.0467349998652935
v 0.03737400099635124 -0.37899699807167053 0.04599300026893616
v 0.03542499989271164 -0.3782249987125397 0.04962199926376343
v 0.03596299886703491 -0.3784169852733612 0.04882099851965904
v 0.03643700107932091 -0.3775489926338196 0.04835300147533417
v 0.036559998989105225 -0.3780600130558014 0.04828200116753578
v 0.03711700066924095 -0.37828001379966736 0.047669000923633575
v 0.035255998373031616 -0.37775900959968567 0.049821000546216965
v 0.03481199964880943 -0.3774780035018921 0.05036500096321106
v 0.034557998180389404 -0.3757370114326477 0.04975099861621857
v 0.03380800038576126 -0.3755649924278259 0.05019500106573105
v 0.033771999180316925 -0.37497299909591675 0.05003200098872185
v 0.034595001488924026 -0.37699100375175476 0.050353001803159714
v 0.033574000000953674 -0.37451401352882385 0.05002500116825104
v 0.03338000178337097 -0.37459099292755127 0.05017400160431862
v 0.03258400037884712 -0.3744310140609741 0.05057699978351593
v 0.03318199887871742 -0.37470099329948425 0.050308000296354294
v 0.032515998929739 -0.3727029860019684 0.050436001271009445
v 0.0335640013217926 -0.3750849962234497 0.050158001482486725
v 0.0335640013217926 -0.3750849962234497 0.050158001482486725
v 0.027890000492334366 -0.3641420006752014 0.05055199936032295
v 0.027837999165058136 -0.363972008228302 0.050237998366355896
v 0.028322000056505203 -0.3638319969177246 0.05067100003361702
v 0.030573999509215355 -0.36265701055526733 0.05022900179028511
v 0.030316000804305077 -0.362949013710022 0.05058399960398674
v 0.02899800054728985 -0.3637680113315582 0.05090399831533432
v 0.028384000062942505 -0.36402300000190735 0.051316000521183014
v 0.029889000579714775 -0.36324700713157654 0.0511309988796711
v 0.031787000596523285 -0.3635619878768921 0.05221499875187874
v 0.031870998442173004 -0.3628939986228943 0.05184600129723549
v 0.030167000368237495 -0.362976998090744 0.051771000027656555
v 0.030727000907063484 -0.363088995218277 0.05251000076532364
v 0.03057599999010563 -0.36290499567985535 0.052122000604867935
v 0.0310830008238554 -0.36313000321388245 0.052452001720666885
v 0.03144099935889244 -0.36834099888801575 0.05233300104737282
v 0.031631000339984894 -0.3676919937133789 0.05237000063061714
v 0.030890999361872673 -0.36406999826431274 0.05286899954080582
v 0.030865000560879707 -0.3663809895515442 0.052848998457193375
v 0.03074900060892105 -0.3647249937057495 0.052974000573158264
v 0.03109000064432621 -0.3679479956626892 0.05251099914312363
v 0.02863200008869171 -0.36489900946617126 0.0522099994122982
v 0.028390999883413315 -0.3646340072154999 0.05177700147032738
v 0.028745999559760094 -0.3652450144290924 0.05251599848270416
v 0.02818099968135357 -0.3645249903202057 0.051316000521183014
v 0.0314599983394146 -0.3777570128440857 0.05041300132870674
v 0.031235000118613243 -0.37820199131965637 0.04923899844288826
v 0.0314520001411438 -0.37826600670814514 0.05004899948835373
v 0.03168100118637085 -0.37755799293518066 0.05079500004649162
v 0.03175999969244003 -0.37882500886917114 0.05063699930906296
v 0.03175799921154976 -0.3765600025653839 0.05083300173282623
v 0.031690001487731934 -0.3760029971599579 0.050790999084711075
v 0.03274400159716606 -0.376134991645813 0.05079900100827217
v 0.03215499967336655 -0.37582701444625854 0.050902001559734344
v 0.03276599943637848 -0.37492701411247253 0.05055899918079376
v 0.03300600126385689 -0.3761419951915741 0.05067799985408783
v 0.030254999175667763 -0.36609598994255066 0.0530100017786026
v 0.02906000055372715 -0.3654240071773529 0.052873000502586365
v 0.02950200065970421 -0.365449994802475 0.05305200070142746
v 0.03233800083398819 -0.3800100088119507 0.04820900037884712
v 0.03188500180840492 -0.3794809877872467 0.04834999889135361
v 0.03304300084710121 -0.37949299812316895 0.04729900136590004
v 0.03295699879527092 -0.38037899136543274 0.04792400076985359
v 0.03137100115418434 -0.37864699959754944 0.04887299984693527
v 0.03722799941897392 -0.3790990114212036 0.04584300145506859
v 0.037025000900030136 -0.37960100173950195 0.04584300145506859
v 0.036841001361608505 -0.37956899404525757 0.04570699855685234
v 0.03637100011110306 -0.37974199652671814 0.04560299962759018
v 0.036072999238967896 -0.3799079954624176 0.04563799872994423
v 0.03575500100851059 -0.3800030052661896 0.04568200185894966
v 0.03548299893736839 -0.38024500012397766 0.04604199901223183
v 0.03424699977040291 -0.3806709945201874 0.04787199944257736
v 0.033296000212430954 -0.3809489905834198 0.048335000872612
v 0.033190999180078506 -0.38059499859809875 0.0480399988591671
v 0.03319200128316879 -0.38059699535369873 0.0480399988591671
v 0.03439300134778023 -0.38058599829673767 0.04768799990415573
v 0.035048000514507294 -0.38047999143600464 0.04726099967956543
v 0.03498699888586998 -0.38029399514198303 0.04661500081419945
v 0.037310998886823654 -0.3787049949169159 0.04735400155186653
v 0.037432000041007996 -0.37862300872802734 0.04714899882674217
v 0.037386998534202576 -0.3791950047016144 0.04703399911522865
v 0.03748200088739395 -0.3793480098247528 0.04662099853157997
v 0.03746499866247177 -0.37930500507354736 0.046293001621961594
v 0.03723200038075447 -0.37966999411582947 0.04697300121188164
v 0.03734299913048744 -0.379489004611969 0.04613399878144264
v 0.034905001521110535 -0.3791379928588867 0.050220001488924026
v 0.03502099961042404 -0.37840700149536133 0.05022500082850456
v 0.03505999967455864 -0.37980398535728455 0.04946599900722504
v 0.03570700064301491 -0.37906599044799805 0.04891199991106987
v 0.03588800132274628 -0.37900200486183167 0.04869300127029419
v 0.03679199889302254 -0.37867701053619385 0.04793500155210495
v 0.03713800013065338 -0.3793190121650696 0.04734199866652489
v 0.034825000911951065 -0.3780759871006012 0.05050700157880783
v 0.0341389998793602 -0.3778879940509796 0.051006998866796494
v 0.03454599902033806 -0.3773210048675537 0.050533000379800797
v 0.03420199826359749 -0.37672001123428345 0.050457000732421875
v 0.0335640013217926 -0.3750849962234497 0.050158001482486725
v 0.03350700065493584 -0.3754889965057373 0.050308000296354294
v 0.03374699875712395 -0.3768340051174164 0.050659000873565674
v 0.0333780013024807 -0.3751929998397827 0.05030300095677376
v 0.02823599986732006 -0.364113986492157 0.05116700008511543
v 0.02973799966275692 -0.3632979989051819 0.0516510009765625
v 0.02857300080358982 -0.3640579879283905 0.05178400129079819
v 0.028728000819683075 -0.36399000883102417 0.051931001245975494
v 0.029167000204324722 -0.3637009859085083 0.052046999335289
v 0.03153099864721298 -0.3634980022907257 0.05235999822616577
v 0.030143000185489655 -0.36309701204299927 0.05216100066900253
v 0.030605999752879143 -0.3632639944553375 0.052685000002384186
v 0.03096899949014187 -0.36333099007606506 0.05262399837374687
v 0.030223999172449112 -0.3631480038166046 0.052418000996112823
v 0.030889000743627548 -0.36364999413490295 0.05278300121426582
v 0.030513999983668327 -0.36354300379753113 0.05284800007939339
v 0.030491000041365623 -0.36406800150871277 0.05298500135540962
v 0.03033600002527237 -0.3654929995536804 0.05304799973964691
v 0.030177000910043716 -0.36441200971603394 0.053077999502420425
v 0.029061000794172287 -0.36452001333236694 0.052678998559713364
v 0.031700000166893005 -0.3788680136203766 0.050377000123262405
v 0.0313740000128746 -0.3787429928779602 0.04937100037932396
v 0.03165699914097786 -0.37929099798202515 0.04984100162982941
v 0.03192799910902977 -0.37841999530792236 0.05103600025177002
v 0.032010000199079514 -0.37765899300575256 0.05111800134181976
v 0.03201799839735031 -0.3798539936542511 0.0505639985203743
v 0.031911998987197876 -0.3789840042591095 0.05083699896931648
v 0.032499998807907104 -0.3768579959869385 0.05102299898862839
v 0.03332199901342392 -0.3770520091056824 0.0508509986102581
v 0.029709000140428543 -0.3651910126209259 0.05310000106692314
v 0.029217999428510666 -0.36478498578071594 0.05289499834179878
v 0.031954001635313034 -0.3798530101776123 0.048611000180244446
v 0.03264300152659416 -0.3804740011692047 0.048298999667167664
v 0.03256399929523468 -0.38078099489212036 0.048792000859975815
v 0.031543001532554626 -0.37916299700737 0.048930998891592026
v 0.033048998564481735 -0.3806909918785095 0.04822300001978874
v 0.03694700077176094 -0.3799299895763397 0.046000998467206955
v 0.03725200146436691 -0.37977200746536255 0.04629699885845184
v 0.036664001643657684 -0.3801490068435669 0.04603099822998047
v 0.03581799939274788 -0.3802089989185333 0.04599199816584587
v 0.03621299937367439 -0.3803730010986328 0.046254001557826996
v 0.0357000008225441 -0.38037800788879395 0.04650000110268593
v 0.03412799909710884 -0.38083699345588684 0.04837999865412712
v 0.03292499855160713 -0.38078200817108154 0.04842299968004227
v 0.03314699977636337 -0.38102400302886963 0.04851999878883362
v 0.033048998564481735 -0.3806909918785095 0.04822300001978874
v 0.033048998564481735 -0.3806909918785095 0.04822300001978874
v 0.033674001693725586 -0.38105300068855286 0.04860299825668335
v 0.035875000059604645 -0.38036400079727173 0.04697300121188164
v 0.035225000232458115 -0.38047298789024353 0.04773300141096115
v 0.03430100157856941 -0.3808000087738037 0.049187999218702316
v 0.036786999553442 -0.3799169957637787 0.047192998230457306
v 0.036997999995946884 -0.3800790011882782 0.0466499999165535
v 0.036896001547575 -0.3796840012073517 0.04735700041055679
v 0.034814998507499695 -0.37970298528671265 0.04996100068092346
v 0.034612998366355896 -0.37939199805259705 0.05056000128388405
v 0.0344420000910759 -0.37889400124549866 0.050916001200675964
v 0.035436999052762985 -0.37978601455688477 0.04878700152039528
v 0.03516700118780136 -0.3802199959754944 0.048757001757621765
v 0.03440999984741211 -0.38054901361465454 0.04968700185418129
v 0.03451500087976456 -0.38030099868774414 0.049851998686790466
v 0.036065999418497086 -0.37977200746536255 0.04797999933362007
v 0.035583000630140305 -0.3798699975013733 0.048548001796007156
v 0.036386001855134964 -0.3792479932308197 0.04808000102639198
v 0.03652000054717064 -0.37955600023269653 0.047756001353263855
v 0.03412599861621857 -0.37849199771881104 0.05112500116229057
v 0.0338670015335083 -0.3779489994049072 0.05109800025820732
v 0.03005800023674965 -0.363178014755249 0.052274998277425766
v 0.02964700013399124 -0.3635469973087311 0.05248299986124039
v 0.029990000650286674 -0.36352500319480896 0.05276300013065338
v 0.030181000009179115 -0.3638080060482025 0.05294499918818474
v 0.029888000339269638 -0.3643749952316284 0.05305900052189827
v 0.029916999861598015 -0.3639189898967743 0.05293000116944313
v 0.02922699972987175 -0.36449000239372253 0.05282200127840042
v 0.03207800164818764 -0.3802129924297333 0.050234999507665634
v 0.031752001494169235 -0.37969499826431274 0.04915900155901909
v 0.03171699866652489 -0.37957999110221863 0.049497999250888824
v 0.0321119986474514 -0.37879300117492676 0.05124400183558464
v 0.032283999025821686 -0.37874600291252136 0.05137600004673004
v 0.03223700076341629 -0.3781760036945343 0.05130799859762192
v 0.03251900151371956 -0.3797900080680847 0.05133200064301491
v 0.03240099921822548 -0.3803339898586273 0.050905998796224594
v 0.03329699859023094 -0.3776789903640747 0.051061000674963
v 0.03247300162911415 -0.37789100408554077 0.05131800100207329
v 0.029424000531435013 -0.36456701159477234 0.052953001111745834
v 0.03211100026965141 -0.38037800788879395 0.049219999462366104
v 0.03289800137281418 -0.3807609975337982 0.04840800166130066
v 0.03261300176382065 -0.3809399902820587 0.04910799860954285
v 0.03699899837374687 -0.3800959885120392 0.0463160015642643
v 0.03670400008559227 -0.38027501106262207 0.04634999856352806
v 0.03638799861073494 -0.3803580105304718 0.046727001667022705
v 0.03302399814128876 -0.3811759948730469 0.04902900010347366
v 0.03340600058436394 -0.3812769949436188 0.049630001187324524
v 0.03634599968791008 -0.3801949918270111 0.0470770001411438
v 0.03570299968123436 -0.3803429901599884 0.04750100150704384
v 0.035218000411987305 -0.38032299280166626 0.04810599982738495
v 0.033858999609947205 -0.38102400302886963 0.050074998289346695
v 0.03438900038599968 -0.37999099493026733 0.05051200091838837
v 0.034272000193595886 -0.3793869912624359 0.05094600096344948
v 0.0337969996035099 -0.37923699617385864 0.051274001598358154
v 0.034233998507261276 -0.380513995885849 0.05021499842405319
v 0.0342009998857975 -0.38037800788879395 0.05056200176477432
v 0.033094000071287155 -0.3789930045604706 0.05144999921321869
v 0.0335329994559288 -0.3785899877548218 0.051277000457048416
v 0.03362800180912018 -0.37813600897789 0.05117399990558624
v 0.029682999476790428 -0.36400699615478516 0.05287700146436691
v 0.032290998846292496 -0.38073599338531494 0.04976699873805046
v 0.03243299946188927 -0.38077598810195923 0.05028900131583214
v 0.03252200037240982 -0.3805359899997711 0.050811998546123505
v 0.032280001789331436 -0.38067498803138733 0.04942899942398071
v 0.032586000859737396 -0.37921300530433655 0.05147099867463112
v 0.03279799968004227 -0.37842899560928345 0.05139999836683273
v 0.0325389988720417 -0.3803099989891052 0.051082998514175415
v 0.03300999850034714 -0.3801569938659668 0.05132700130343437
v 0.03271599858999252 -0.37972599267959595 0.05143199861049652
v 0.03264499828219414 -0.38103899359703064 0.049430001527071
v 0.03306400030851364 -0.38128700852394104 0.049681998789310455
v 0.03322799876332283 -0.38123399019241333 0.0501599982380867
v 0.03356099873781204 -0.3811909854412079 0.05011099949479103
v 0.033778999000787735 -0.3807080090045929 0.05077299848198891
v 0.03347700089216232 -0.3808610141277313 0.05081100016832352
v 0.0340920016169548 -0.37997400760650635 0.050937000662088394
v 0.03409700095653534 -0.3796420097351074 0.05105200037360191
v 0.03337100148200989 -0.38000598549842834 0.05133799836039543
v 0.033806998282670975 -0.38033100962638855 0.05099799856543541
v 0.03265500068664551 -0.3810409903526306 0.05009400099515915
v 0.03297799825668335 -0.3809329867362976 0.05071699991822243
v 0.032871000468730927 -0.38053399324417114 0.05109100043773651
v 0.033289000391960144 -0.3805679976940155 0.051086001098155975
v 0.03318300098180771 -0.3810569941997528 0.05051099881529808
v 0.03364900127053261 -0.38023000955581665 0.051155999302864075
f 1 2 3
f 3 4 1
f 2 1 5
f 1 6 5
f 7 6 1
f 4 7 1
f 2 8 3
f 2 5 8
f 3 9 10
f 10 4 3
f 3 11 9
f 3 8 12
f 11 3 13
f 13 3 12
f 10 14 4
f 15 7 4
f 16 4 14
f 4 17 15
f 16 18 4
f 17 4 18
f 8 5 19
f 5 6 19
f 19 6 20
f 6 15 20
f 15 6 7
f 12 8 21
f 8 22 21
f 8 19 23
f 22 8 23
f 10 9 24
f 25 9 11
f 24 9 25
f 10 24 14
f 11 26 25
f 26 11 27
f 13 27 11
f 12 28 13
f 21 28 12
f 13 29 27
f 13 28 29
f 30 16 14
f 31 14 32
f 14 31 30
f 14 24 32
f 20 15 33
f 34 33 15
f 15 17 35
f 15 35 34
f 16 36 37
f 30 36 16
f 37 18 16
f 38 17 18
f 17 38 35
f 37 39 18
f 39 40 18
f 18 40 41
f 38 18 41
f 20 23 19
f 22 23 20
f 42 22 20
f 20 43 42
f 33 43 20
f 21 44 28
f 21 22 45
f 46 44 21
f 45 46 21
f 45 22 42
f 24 47 48
f 25 49 24
f 50 47 24
f 48 32 24
f 24 49 50
f 51 52 25
f 26 53 25
f 25 52 54
f 25 53 51
f 25 54 49
f 27 53 26
f 55 27 56
f 29 56 27
f 27 55 57
f 57 53 27
f 29 28 44
f 58 56 29
f 58 29 44
f 36 30 31
f 32 59 31
f 31 59 60
f 61 31 62
f 61 36 31
f 60 62 31
f 48 63 32
f 32 63 59
f 64 65 33
f 66 67 33
f 67 43 33
f 33 65 66
f 34 68 33
f 33 68 64
f 35 69 34
f 69 68 34
f 35 38 69
f 36 39 37
f 36 61 70
f 36 70 39
f 41 71 38
f 69 38 71
f 40 39 70
f 40 70 72
f 40 72 41
f 73 41 74
f 74 41 75
f 75 41 72
f 71 41 73
f 45 42 67
f 67 42 43
f 46 58 44
f 46 45 76
f 45 77 76
f 67 66 45
f 45 65 77
f 66 65 45
f 78 79 46
f 46 79 58
f 80 78 46
f 76 80 46
f 81 48 47
f 50 81 47
f 81 63 48
f 50 49 54
f 82 83 50
f 50 84 82
f 50 85 84
f 54 85 50
f 50 83 81
f 86 52 51
f 87 51 88
f 89 86 51
f 57 51 53
f 51 87 89
f 57 88 51
f 54 52 85
f 52 86 85
f 56 90 55
f 90 91 55
f 55 91 57
f 56 58 92
f 92 90 56
f 88 57 91
f 58 93 92
f 58 79 94
f 94 93 58
f 59 63 95
f 59 95 60
f 96 60 95
f 60 96 62
f 62 72 61
f 72 70 61
f 62 96 97
f 62 97 98
f 72 62 99
f 62 100 99
f 98 100 62
f 95 63 81
f 64 101 65
f 102 101 64
f 103 64 68
f 64 103 102
f 101 104 65
f 77 65 104
f 105 103 68
f 68 106 105
f 68 69 107
f 106 68 107
f 107 69 71
f 71 73 107
f 99 108 72
f 75 72 108
f 74 109 73
f 106 107 73
f 110 73 109
f 110 106 73
f 75 111 74
f 112 74 113
f 74 111 113
f 109 74 112
f 108 114 75
f 114 115 75
f 115 111 75
f 104 80 76
f 104 76 77
f 78 116 79
f 117 116 78
f 78 118 117
f 80 118 78
f 119 94 79
f 79 120 119
f 121 120 79
f 121 79 116
f 80 104 122
f 123 118 80
f 122 123 80
f 95 81 83
f 124 83 82
f 82 125 126
f 82 84 125
f 124 82 126
f 83 124 127
f 95 83 127
f 84 128 129
f 129 130 84
f 85 128 84
f 84 130 131
f 125 84 132
f 84 131 132
f 86 128 85
f 86 89 133
f 134 86 133
f 129 128 86
f 86 134 129
f 91 87 88
f 135 87 136
f 87 135 89
f 91 136 87
f 89 135 137
f 137 133 89
f 138 90 92
f 90 138 91
f 91 138 139
f 91 139 136
f 140 138 92
f 140 92 93
f 141 93 94
f 141 140 93
f 94 142 141
f 119 142 94
f 97 95 143
f 127 143 95
f 96 95 97
f 98 97 144
f 143 144 97
f 98 144 145
f 98 146 147
f 100 98 147
f 146 98 145
f 99 148 149
f 108 99 149
f 99 100 147
f 147 150 99
f 99 150 148
f 101 151 104
f 152 151 101
f 153 101 102
f 101 153 152
f 154 155 102
f 102 155 153
f 102 103 154
f 103 105 154
f 151 122 104
f 105 106 110
f 156 154 105
f 157 156 105
f 157 105 110
f 149 114 108
f 112 158 109
f 109 158 110
f 159 110 158
f 110 159 157
f 111 160 113
f 111 115 160
f 161 112 113
f 161 162 112
f 159 158 112
f 162 159 112
f 113 160 161
f 114 149 163
f 163 115 114
f 164 160 115
f 115 163 164
f 165 121 116
f 123 116 117
f 116 123 166
f 166 165 116
f 117 118 123
f 167 142 119
f 119 168 167
f 168 119 120
f 120 121 165
f 169 120 165
f 120 169 168
f 122 151 170
f 122 170 123
f 170 166 123
f 124 171 172
f 173 127 124
f 126 174 124
f 175 171 124
f 172 173 124
f 124 174 175
f 125 132 126
f 174 126 176
f 126 132 177
f 126 177 176
f 127 173 143
f 178 129 134
f 178 179 129
f 179 180 129
f 129 180 130
f 180 181 130
f 130 181 182
f 130 182 131
f 131 182 183
f 177 131 183
f 132 131 177
f 137 184 133
f 185 134 133
f 133 184 185
f 134 185 186
f 134 187 178
f 134 186 187
f 188 135 136
f 188 137 135
f 139 188 136
f 137 189 184
f 188 189 137
f 138 190 191
f 192 190 138
f 192 138 193
f 139 138 191
f 138 140 193
f 191 188 139
f 193 140 141
f 194 195 141
f 196 194 141
f 193 141 195
f 141 142 196
f 197 196 142
f 142 167 197
f 198 143 199
f 199 143 173
f 143 198 144
f 198 200 144
f 144 201 145
f 144 200 201
f 145 202 203
f 145 201 202
f 145 203 204
f 145 204 146
f 150 147 146
f 205 150 146
f 205 146 204
f 148 206 149
f 150 207 148
f 206 148 207
f 208 149 209
f 149 206 209
f 163 149 208
f 205 207 150
f 210 211 151
f 151 152 210
f 211 170 151
f 152 153 210
f 210 153 212
f 155 212 153
f 155 154 213
f 214 213 154
f 154 156 214
f 213 212 155
f 156 215 214
f 156 157 162
f 162 215 156
f 162 157 159
f 161 160 164
f 164 216 161
f 161 217 218
f 162 161 219
f 161 220 219
f 221 220 161
f 216 217 161
f 161 218 221
f 222 223 162
f 215 162 223
f 222 162 219
f 163 208 164
f 216 164 208
f 165 166 169
f 169 166 224
f 211 224 166
f 211 166 170
f 167 225 197
f 226 225 167
f 167 168 226
f 226 168 169
f 169 227 226
f 169 228 229
f 229 227 169
f 228 169 224
f 172 171 230
f 171 231 230
f 231 171 175
f 173 172 199
f 230 199 172
f 176 232 174
f 175 174 232
f 175 232 231
f 183 233 176
f 176 177 183
f 232 176 233
f 234 178 187
f 234 179 178
f 180 179 235
f 234 235 179
f 236 180 235
f 236 181 180
f 183 182 181
f 181 236 183
f 236 237 183
f 183 237 238
f 183 238 239
f 239 233 183
f 240 184 189
f 185 184 241
f 241 184 242
f 240 242 184
f 241 243 185
f 243 244 185
f 185 244 245
f 186 185 245
f 245 187 186
f 246 234 187
f 246 187 245
f 191 247 188
f 248 249 188
f 188 247 248
f 188 249 189
f 250 251 189
f 189 251 252
f 249 250 189
f 240 189 252
f 191 190 247
f 190 253 247
f 254 253 190
f 192 254 190
f 254 192 255
f 256 255 192
f 193 256 192
f 195 256 193
f 194 257 195
f 197 194 196
f 257 194 197
f 257 258 195
f 258 259 195
f 195 259 256
f 197 225 257
f 199 200 198
f 200 199 230
f 230 201 200
f 202 201 230
f 203 202 260
f 202 261 260
f 230 261 202
f 203 262 204
f 260 263 203
f 262 203 264
f 263 264 203
f 265 205 204
f 204 262 265
f 205 265 266
f 267 205 266
f 207 205 267
f 268 209 206
f 267 268 206
f 206 207 267
f 269 208 209
f 270 208 269
f 208 271 216
f 208 270 271
f 209 272 269
f 268 272 209
f 273 211 210
f 274 210 275
f 210 274 273
f 212 275 210
f 224 211 273
f 276 212 213
f 276 275 212
f 277 213 214
f 277 276 213
f 214 278 277
f 278 214 279
f 215 279 214
f 223 279 215
f 216 271 217
f 217 271 218
f 218 271 280
f 221 218 280
f 219 281 222
f 220 281 219
f 281 220 282
f 282 220 221
f 280 282 221
f 223 222 281
f 281 283 223
f 223 283 279
f 228 224 273
f 284 257 225
f 285 284 225
f 285 225 226
f 227 285 226
f 285 227 286
f 287 286 227
f 287 227 229
f 288 229 228
f 273 289 228
f 290 291 228
f 288 228 291
f 290 228 289
f 292 287 229
f 293 292 229
f 229 288 293
f 230 231 294
f 261 230 294
f 232 295 231
f 294 231 295
f 232 233 295
f 295 233 239
f 296 235 234
f 297 296 234
f 234 246 297
f 236 235 296
f 236 296 298
f 236 298 237
f 237 299 238
f 237 298 299
f 300 301 238
f 238 301 239
f 302 300 238
f 302 238 299
f 239 303 295
f 303 239 301
f 240 304 305
f 305 242 240
f 252 304 240
f 243 241 242
f 242 305 306
f 242 306 243
f 243 306 244
f 244 306 245
f 245 306 307
f 245 307 246
f 308 246 307
f 246 308 297
f 309 247 310
f 253 310 247
f 247 309 248
f 250 249 248
f 311 248 309
f 248 311 250
f 312 251 250
f 311 313 250
f 250 313 312
f 314 252 251
f 251 315 314
f 312 316 251
f 315 251 316
f 252 314 304
f 317 253 318
f 253 317 310
f 319 318 253
f 320 319 253
f 320 253 255
f 255 253 254
f 321 255 259
f 255 322 320
f 256 259 255
f 321 322 255
f 323 258 257
f 257 284 323
f 324 321 258
f 321 259 258
f 323 324 258
f 260 261 263
f 261 325 263
f 326 261 294
f 261 326 327
f 325 261 327
f 265 262 264
f 263 325 328
f 264 263 328
f 264 329 330
f 329 264 328
f 264 330 265
f 331 265 330
f 331 332 265
f 266 265 332
f 332 267 266
f 267 332 268
f 333 268 334
f 333 272 268
f 334 268 335
f 268 332 335
f 336 337 269
f 338 336 269
f 339 269 272
f 269 339 338
f 337 270 269
f 270 337 271
f 280 271 337
f 272 333 339
f 273 274 289
f 275 289 274
f 289 275 340
f 340 275 276
f 340 276 277
f 277 341 340
f 277 278 341
f 341 278 342
f 343 342 278
f 343 278 279
f 279 283 343
f 337 344 280
f 282 280 344
f 281 345 283
f 345 281 346
f 282 346 281
f 282 344 347
f 347 348 282
f 346 282 348
f 349 283 345
f 283 349 343
f 286 284 285
f 286 323 284
f 350 351 286
f 286 351 323
f 350 286 287
f 287 292 350
f 293 288 352
f 353 288 291
f 353 352 288
f 340 341 289
f 289 341 290
f 354 291 290
f 341 354 290
f 291 354 353
f 355 350 292
f 293 356 292
f 356 355 292
f 357 356 293
f 357 293 352
f 294 358 326
f 294 295 359
f 359 358 294
f 359 295 360
f 295 303 360
f 361 296 297
f 361 362 296
f 296 362 298
f 297 363 364
f 365 297 366
f 363 297 308
f 365 361 297
f 297 367 368
f 297 368 366
f 297 364 367
f 369 299 298
f 298 362 370
f 298 370 369
f 369 371 299
f 299 371 372
f 299 372 373
f 299 373 302
f 300 374 301
f 300 302 375
f 376 300 375
f 374 300 376
f 301 374 360
f 303 301 360
f 377 302 373
f 302 377 375
f 305 304 307
f 307 304 378
f 378 304 314
f 307 306 305
f 378 379 307
f 307 379 363
f 307 363 308
f 310 380 309
f 381 309 380
f 309 313 311
f 382 313 309
f 309 381 382
f 317 383 310
f 310 383 380
f 384 385 312
f 312 385 316
f 312 313 384
f 382 384 313
f 314 386 387
f 315 386 314
f 314 387 378
f 388 315 389
f 388 386 315
f 316 389 315
f 385 389 316
f 318 390 317
f 391 392 317
f 317 392 383
f 391 317 390
f 393 390 318
f 319 393 318
f 394 319 395
f 319 320 396
f 396 395 319
f 394 393 319
f 322 396 320
f 396 321 397
f 398 397 321
f 321 396 322
f 398 321 324
f 351 324 323
f 398 324 351
f 325 327 399
f 400 328 325
f 325 399 400
f 401 326 358
f 402 326 401
f 327 326 399
f 326 402 399
f 330 329 328
f 403 330 328
f 403 328 400
f 330 403 331
f 331 403 400
f 400 404 331
f 404 332 331
f 404 335 332
f 334 405 333
f 406 339 333
f 333 405 406
f 407 405 334
f 334 335 407
f 335 408 409
f 409 410 335
f 335 410 407
f 404 408 335
f 344 337 336
f 336 338 344
f 338 411 412
f 338 412 413
f 338 339 411
f 344 338 413
f 339 406 414
f 339 415 411
f 414 416 339
f 339 416 415
f 341 417 418
f 342 419 341
f 419 417 341
f 418 354 341
f 419 342 420
f 342 421 420
f 421 342 349
f 349 342 343
f 413 347 344
f 346 422 345
f 345 422 349
f 422 346 423
f 348 423 346
f 413 424 347
f 347 424 348
f 348 425 426
f 427 425 348
f 424 427 348
f 426 423 348
f 428 421 349
f 428 349 422
f 351 350 398
f 429 398 350
f 355 429 350
f 430 357 352
f 352 431 430
f 431 352 353
f 432 433 353
f 353 354 432
f 353 433 431
f 418 432 354
f 355 434 429
f 435 434 355
f 356 435 355
f 436 435 356
f 356 437 438
f 357 437 356
f 438 439 356
f 439 436 356
f 430 437 357
f 358 440 401
f 360 440 358
f 360 358 359
f 360 374 441
f 360 442 440
f 442 360 441
f 365 362 361
f 370 362 365
f 363 443 364
f 379 443 363
f 444 364 443
f 367 364 445
f 445 364 444
f 366 446 365
f 370 365 446
f 366 368 446
f 368 367 447
f 445 448 367
f 448 447 367
f 368 447 449
f 368 449 450
f 446 368 450
f 369 451 452
f 370 451 369
f 369 452 371
f 446 453 370
f 454 455 370
f 455 451 370
f 370 453 454
f 456 457 371
f 456 371 452
f 371 458 459
f 458 371 457
f 371 459 460
f 460 372 371
f 460 373 372
f 460 461 373
f 461 377 373
f 376 441 374
f 459 375 462
f 459 463 375
f 375 377 464
f 464 465 375
f 465 462 375
f 463 466 375
f 376 375 466
f 441 376 466
f 464 377 461
f 467 468 378
f 378 468 379
f 467 378 387
f 443 379 469
f 470 379 468
f 379 470 469
f 383 471 380
f 380 471 472
f 380 472 381
f 381 472 382
f 384 382 473
f 382 472 473
f 471 383 474
f 383 392 474
f 385 384 475
f 473 475 384
f 389 385 388
f 385 475 388
f 386 476 387
f 386 477 476
f 388 477 386
f 478 479 387
f 478 387 476
f 387 479 480
f 387 480 467
f 475 481 388
f 481 477 388
f 390 482 391
f 390 483 482
f 483 390 393
f 482 392 391
f 484 474 392
f 485 484 392
f 482 485 392
f 393 394 483
f 395 486 394
f 487 483 394
f 486 487 394
f 395 488 486
f 488 395 396
f 396 489 490
f 488 396 490
f 397 489 396
f 397 491 489
f 491 397 398
f 398 492 493
f 398 494 495
f 495 492 398
f 493 491 398
f 429 494 398
f 399 402 496
f 404 400 399
f 399 496 404
f 440 497 401
f 401 498 402
f 499 401 497
f 498 401 499
f 402 498 500
f 496 402 500
f 404 496 408
f 406 405 414
f 405 407 414
f 501 414 407
f 501 407 410
f 501 409 408
f 408 502 501
f 496 500 408
f 408 500 502
f 410 409 501
f 503 412 411
f 411 415 504
f 411 504 503
f 413 412 503
f 413 427 424
f 413 505 427
f 413 503 505
f 501 416 414
f 415 416 504
f 416 506 507
f 416 507 504
f 501 506 416
f 417 508 418
f 508 417 420
f 420 417 419
f 432 418 433
f 508 433 418
f 509 508 420
f 509 420 421
f 421 428 510
f 421 511 509
f 510 511 421
f 423 428 422
f 428 423 426
f 425 510 426
f 512 425 513
f 425 512 514
f 511 510 425
f 514 511 425
f 505 425 427
f 425 505 513
f 426 510 428
f 429 515 494
f 516 515 429
f 434 516 429
f 430 517 437
f 517 430 518
f 518 430 431
f 519 520 431
f 521 518 431
f 433 519 431
f 521 431 520
f 508 519 433
f 516 434 522
f 436 434 435
f 436 522 434
f 523 522 436
f 524 523 436
f 436 525 524
f 439 525 436
f 437 517 438
f 526 527 438
f 438 527 439
f 528 526 438
f 438 517 528
f 439 527 525
f 442 497 440
f 529 441 466
f 442 441 529
f 530 531 442
f 530 442 529
f 531 497 442
f 443 532 444
f 469 532 443
f 444 532 533
f 444 533 445
f 445 533 534
f 445 534 448
f 450 453 446
f 535 447 448
f 535 449 447
f 534 536 448
f 448 537 535
f 448 536 537
f 538 450 449
f 538 449 535
f 539 453 450
f 538 539 450
f 452 451 456
f 451 540 456
f 451 455 540
f 453 539 541
f 453 541 454
f 542 455 454
f 454 541 542
f 542 543 455
f 540 455 544
f 455 543 544
f 545 457 456
f 540 546 456
f 524 456 546
f 456 524 525
f 525 545 456
f 545 547 457
f 458 457 547
f 459 458 548
f 458 547 528
f 548 458 528
f 462 549 459
f 549 460 459
f 550 463 459
f 459 548 551
f 550 459 551
f 461 460 549
f 461 549 465
f 465 464 461
f 465 549 462
f 466 463 550
f 466 552 529
f 553 552 466
f 466 550 553
f 468 467 554
f 555 467 556
f 557 558 467
f 558 556 467
f 467 480 557
f 555 554 467
f 554 559 468
f 468 559 470
f 469 560 561
f 469 561 532
f 470 560 469
f 470 562 560
f 470 559 562
f 474 563 471
f 471 563 564
f 564 472 471
f 565 473 472
f 472 564 565
f 473 565 566
f 473 567 475
f 473 566 567
f 568 569 474
f 569 570 474
f 474 484 568
f 474 570 563
f 567 481 475
f 476 571 478
f 476 477 571
f 477 572 571
f 481 572 477
f 479 478 573
f 573 478 574
f 478 571 575
f 575 574 478
f 573 576 479
f 576 577 479
f 479 577 480
f 557 480 577
f 481 567 572
f 482 487 578
f 578 579 482
f 482 579 485
f 487 482 483
f 580 484 581
f 581 484 485
f 582 484 580
f 568 484 582
f 579 581 485
f 583 584 486
f 584 585 486
f 486 585 487
f 583 486 488
f 586 587 487
f 487 587 578
f 585 586 487
f 588 488 589
f 589 488 490
f 488 588 583
f 489 590 490
f 590 489 591
f 491 592 489
f 489 592 591
f 593 490 590
f 490 593 589
f 594 592 491
f 493 594 491
f 595 493 492
f 492 596 597
f 543 596 492
f 492 544 543
f 492 598 546
f 492 597 595
f 544 492 546
f 495 598 492
f 595 599 493
f 493 599 600
f 493 600 594
f 598 495 494
f 516 494 515
f 494 516 598
f 601 497 531
f 601 499 497
f 602 498 499
f 500 498 602
f 499 601 602
f 500 602 502
f 501 502 506
f 502 603 506
f 602 603 502
f 503 504 604
f 503 604 505
f 605 504 507
f 605 604 504
f 505 604 513
f 506 606 507
f 506 603 607
f 506 607 606
f 605 507 608
f 507 606 608
f 609 519 508
f 508 610 609
f 511 610 508
f 511 508 509
f 610 511 514
f 513 611 512
f 514 512 612
f 512 613 612
f 611 613 512
f 611 513 605
f 604 605 513
f 610 514 614
f 514 612 614
f 546 598 516
f 522 546 516
f 615 528 517
f 517 518 616
f 616 615 517
f 521 616 518
f 617 520 519
f 519 609 617
f 520 618 521
f 619 520 617
f 618 520 619
f 618 616 521
f 522 523 546
f 524 546 523
f 525 547 545
f 526 547 525
f 526 525 527
f 528 547 526
f 528 620 548
f 615 620 528
f 621 622 529
f 529 552 623
f 623 621 529
f 529 622 530
f 624 531 530
f 624 530 622
f 531 624 601
f 532 561 533
f 534 533 561
f 534 625 536
f 561 626 534
f 534 627 625
f 627 534 626
f 538 535 537
f 628 536 629
f 629 536 625
f 536 628 630
f 536 630 631
f 537 536 541
f 631 541 536
f 537 539 538
f 537 541 539
f 546 540 544
f 541 631 542
f 543 542 632
f 631 633 542
f 542 633 632
f 634 596 543
f 632 635 543
f 543 635 634
f 551 548 620
f 550 551 636
f 553 550 636
f 620 618 551
f 636 551 618
f 552 553 637
f 552 637 623
f 637 553 638
f 638 553 636
f 554 639 640
f 554 555 639
f 562 559 554
f 554 640 562
f 556 641 555
f 555 642 639
f 642 555 576
f 641 576 555
f 558 641 556
f 558 557 577
f 577 641 558
f 560 626 561
f 560 643 626
f 562 643 560
f 562 640 643
f 563 570 564
f 564 570 644
f 564 645 646
f 565 564 566
f 566 564 647
f 564 646 647
f 644 645 564
f 572 567 566
f 566 648 649
f 649 572 566
f 647 648 566
f 569 568 582
f 569 582 644
f 569 644 570
f 571 650 575
f 650 571 572
f 649 650 572
f 573 642 576
f 651 652 573
f 653 573 654
f 573 653 642
f 655 651 573
f 573 574 655
f 652 654 573
f 656 655 574
f 656 574 657
f 574 575 657
f 650 657 575
f 577 576 641
f 658 659 578
f 578 659 579
f 578 587 658
f 579 659 660
f 660 581 579
f 580 581 661
f 580 662 582
f 661 662 580
f 663 661 581
f 660 663 581
f 582 664 644
f 582 662 664
f 665 584 583
f 583 666 665
f 583 588 666
f 584 665 667
f 668 584 667
f 669 584 668
f 670 586 584
f 584 669 670
f 584 586 585
f 670 587 586
f 587 671 658
f 671 587 670
f 589 672 588
f 588 672 666
f 673 672 589
f 673 589 674
f 593 674 589
f 590 591 675
f 675 593 590
f 591 676 677
f 635 591 677
f 635 678 591
f 676 591 592
f 591 678 675
f 600 676 592
f 592 594 600
f 675 674 593
f 595 597 599
f 596 634 597
f 599 597 679
f 679 597 635
f 634 635 597
f 679 676 599
f 599 676 600
f 624 680 601
f 602 601 603
f 601 680 603
f 603 680 607
f 605 608 611
f 606 607 681
f 681 608 606
f 624 682 607
f 683 684 607
f 607 680 624
f 607 682 683
f 607 684 681
f 608 681 611
f 617 609 685
f 610 685 609
f 614 685 610
f 681 686 611
f 611 686 613
f 687 688 612
f 614 612 688
f 689 687 612
f 689 612 613
f 686 689 613
f 614 690 685
f 614 688 690
f 620 615 616
f 620 616 618
f 691 617 690
f 617 692 619
f 685 690 617
f 692 617 691
f 693 636 618
f 619 693 618
f 692 694 619
f 693 619 694
f 683 622 621
f 683 621 695
f 621 623 695
f 622 682 624
f 622 683 682
f 695 623 637
f 627 696 625
f 625 696 629
f 643 697 626
f 626 697 627
f 627 698 696
f 697 698 627
f 629 699 628
f 628 699 700
f 628 700 630
f 701 629 696
f 702 629 701
f 629 702 699
f 630 700 703
f 633 631 630
f 630 703 633
f 704 678 632
f 703 632 633
f 635 632 678
f 632 703 704
f 677 679 635
f 705 638 636
f 705 636 693
f 695 637 706
f 706 637 638
f 706 638 705
f 707 640 639
f 639 708 709
f 642 708 639
f 709 707 639
f 710 640 707
f 710 643 640
f 711 642 653
f 642 711 708
f 643 710 697
f 645 644 664
f 646 645 712
f 713 712 645
f 664 713 645
f 646 712 647
f 647 712 714
f 714 648 647
f 715 649 648
f 648 714 716
f 716 715 648
f 715 650 649
f 717 657 650
f 717 650 715
f 652 651 718
f 718 651 655
f 719 652 720
f 721 652 719
f 721 722 652
f 722 654 652
f 718 723 652
f 720 652 723
f 653 654 722
f 711 653 722
f 655 656 718
f 656 716 724
f 656 724 725
f 657 717 656
f 656 717 716
f 726 656 725
f 656 726 718
f 671 659 658
f 659 671 660
f 671 663 660
f 661 663 713
f 662 661 713
f 713 664 662
f 663 727 728
f 729 663 671
f 663 729 727
f 728 713 663
f 665 730 667
f 665 731 730
f 732 731 665
f 665 666 732
f 672 732 666
f 667 733 668
f 667 734 733
f 735 734 667
f 730 736 667
f 667 736 735
f 669 668 737
f 668 733 738
f 738 737 668
f 669 671 670
f 739 671 669
f 669 737 739
f 739 740 671
f 740 729 671
f 672 741 732
f 673 741 672
f 742 741 673
f 675 678 673
f 673 674 675
f 742 673 704
f 704 673 678
f 677 676 679
f 743 681 684
f 681 743 686
f 695 684 683
f 744 684 695
f 684 744 743
f 743 689 686
f 688 687 690
f 690 687 691
f 691 687 745
f 689 745 687
f 744 689 743
f 689 744 745
f 691 746 692
f 745 746 691
f 694 692 746
f 705 693 694
f 694 747 705
f 746 748 694
f 694 748 747
f 695 749 744
f 706 749 695
f 750 701 696
f 696 698 750
f 697 751 752
f 710 751 697
f 697 752 698
f 698 752 750
f 702 753 699
f 699 753 754
f 699 755 700
f 699 754 755
f 700 755 703
f 756 701 757
f 701 750 757
f 701 756 702
f 702 756 753
f 758 704 703
f 755 759 703
f 703 759 758
f 704 758 742
f 760 706 705
f 705 747 760
f 706 760 749
f 707 709 761
f 761 751 707
f 751 710 707
f 709 708 762
f 762 708 711
f 719 763 709
f 762 719 709
f 709 763 761
f 719 711 721
f 762 711 719
f 721 711 722
f 713 764 712
f 764 714 712
f 728 764 713
f 714 764 765
f 765 716 714
f 715 716 717
f 765 766 716
f 766 724 716
f 723 718 726
f 719 720 763
f 767 763 720
f 767 720 723
f 768 723 726
f 723 768 767
f 769 724 766
f 770 725 724
f 770 724 769
f 725 771 726
f 771 725 770
f 734 735 726
f 726 771 734
f 768 726 772
f 735 772 726
f 727 766 728
f 770 769 727
f 727 729 770
f 727 769 766
f 728 766 765
f 728 765 764
f 740 770 729
f 773 736 730
f 731 773 730
f 773 731 774
f 731 732 774
f 774 732 775
f 732 741 775
f 738 733 734
f 771 738 734
f 735 736 776
f 776 772 735
f 777 776 736
f 773 777 736
f 770 740 737
f 737 738 770
f 737 740 739
f 770 738 771
f 741 778 775
f 779 778 741
f 780 779 741
f 742 780 741
f 758 780 742
f 749 760 744
f 744 781 748
f 748 745 744
f 744 760 781
f 748 746 745
f 760 747 781
f 781 747 748
f 782 750 752
f 782 783 750
f 784 757 750
f 750 783 784
f 752 751 785
f 761 785 751
f 752 785 782
f 756 754 753
f 786 754 756
f 787 754 786
f 787 759 754
f 759 755 754
f 757 788 756
f 756 788 789
f 789 790 756
f 756 790 786
f 757 784 788
f 758 759 787
f 779 780 758
f 787 779 758
f 763 785 761
f 767 791 763
f 785 763 791
f 791 767 792
f 768 792 767
f 793 792 768
f 794 793 768
f 772 794 768
f 772 795 796
f 796 794 772
f 777 772 776
f 777 795 772
f 797 777 773
f 773 774 798
f 798 797 773
f 775 798 774
f 799 798 775
f 778 799 775
f 800 795 777
f 797 800 777
f 790 799 778
f 778 786 790
f 786 778 787
f 787 778 779
f 801 783 782
f 791 782 785
f 801 782 791
f 802 783 801
f 802 784 783
f 788 784 802
f 789 788 803
f 788 802 803
f 803 804 789
f 789 804 799
f 790 789 799
f 791 792 801
f 801 792 793
f 796 805 793
f 805 801 793
f 796 793 794
f 806 796 795
f 800 806 795
f 796 804 803
f 804 796 806
f 796 803 802
f 802 805 796
f 806 800 797
f 797 798 806
f 798 799 806
f 799 804 806
f 801 805 802
