# Generated by Visualization Toolkit
v 0.0080960001796484 -0.009368999861180782 0.019109999760985374
v 0.0009549999958835542 -0.011373000219464302 0.019740000367164612
v 0.006182000041007996 -0.008880999870598316 0.025016000494360924
v 0.004693000111728907 -0.010091000236570835 0.014657000079751015
v 0.007914000190794468 -0.00954199954867363 0.026947999373078346
v 0.010064000263810158 -0.010348999872803688 0.01927199959754944
v -0.00022200000239536166 -0.008743000216782093 0.02759600058197975
v -0.0055680000223219395 -0.008949999697506428 0.02649099938571453
v -0.008275999687612057 -0.009839000180363655 0.020980000495910645
v -0.007741000037640333 -0.010354000143706799 0.016290999948978424
v -0.0012229999992996454 -0.010719000361859798 0.013292999938130379
v -0.0021879998967051506 -0.010099000297486782 0.029951000586152077
v 0.006581000052392483 -0.011095000430941582 0.012993000447750092
v 0.010161999613046646 -0.010449999943375587 0.01925799995660782
v 0.007942000404000282 -0.009453999809920788 0.019354000687599182
v 0.008301000110805035 -0.014279000461101532 0.028010999783873558
v 0.0016969999996945262 -0.013975000008940697 0.03010999970138073
v 0.0037879999727010727 -0.01637599989771843 0.019176000729203224
v -0.007705000229179859 -0.009561000391840935 0.028012000024318695
v -0.010816999711096287 -0.010417000390589237 0.02155900001525879
v -0.0020490000024437904 -0.011989000253379345 0.010890999808907509
v -0.008882000111043453 -0.01593099907040596 0.016916999593377113
v -0.001673000049777329 -0.01803000085055828 0.011944999918341637
v -0.007445000112056732 -0.014069999568164349 0.026525000110268593
v 0.007081000134348869 -0.018028000369668007 0.014183999970555305
v 0.004033000208437443 -0.02169100008904934 0.026969000697135925
v -0.0020830000285059214 -0.02108900062739849 0.027509000152349472
v -0.005483999848365784 -0.022412000223994255 0.024531999602913857
v 0.006769000086933374 -0.023207999765872955 0.02208700031042099
v 0.006688000168651342 -0.02260199934244156 0.022165000438690186
v -0.009531999938189983 -0.014587000012397766 0.020548999309539795
v -0.003829000052064657 -0.023350000381469727 0.016457999125123024
v 0.00006299999949987978 -0.02339000068604946 0.015531999990344048
v 0.004848000127822161 -0.02283800020813942 0.017347000539302826
v -0.005979000125080347 -0.022167999297380447 0.01929200068116188
v 0.004532000049948692 -0.030889999121427536 0.028727000579237938
v -0.0012750000460073352 -0.030517999082803726 0.02880699932575226
v -0.004466000013053417 -0.030838999897241592 0.025817999616265297
v -0.004908999893814325 -0.03217799961566925 0.020881999284029007
v 0.007841000333428383 -0.032683998346328735 0.0241519995033741
v 0.007511000148952007 -0.03256100043654442 0.024521000683307648
v -0.003286000108346343 -0.033034998923540115 0.01844399981200695
v -0.0011810000287368894 -0.03320100158452988 0.017291000112891197
v 0.00406700000166893 -0.03269499912858009 0.01839599944651127
v 0.00471699982881546 -0.036694999784231186 0.030316999182105064
v -0.0004980000085197389 -0.036093998700380325 0.030767999589443207
v -0.004767999984323978 -0.03653699904680252 0.02607000060379505
v -0.003746999893337488 -0.038322001695632935 0.020340999588370323
v -0.00017800000205170363 -0.03986600041389465 0.017947999760508537
v 0.009236999787390232 -0.03922099992632866 0.02666199952363968
v 0.009216000325977802 -0.03922799974679947 0.026565000414848328
v 0.004660999868065119 -0.04069099947810173 0.01718199998140335
v 0.00914200022816658 -0.03974800184369087 0.02333799935877323
v 0.0068660001270473 -0.04484599828720093 0.03113899938762188
v 0.000691999972332269 -0.043299999088048935 0.03377800062298775
v -0.005162000190466642 -0.04516800120472908 0.02889999933540821
v -0.00418600020930171 -0.046466998755931854 0.02294199913740158
v -0.0010160000529140234 -0.0476440005004406 0.020096000283956528
v 0.004604999907314777 -0.04930799826979637 0.018709000200033188
v 0.009483999572694302 -0.04593899846076965 0.0280969999730587
v 0.009265000000596046 -0.045545000582933426 0.02801400050520897
v 0.0093560004606843 -0.047974999994039536 0.024677999317646027
v 0.006018000189214945 -0.04979600012302399 0.03360699862241745
v 0.00171999994199723 -0.048792000859975815 0.035475000739097595
v -0.0048340000212192535 -0.04939499869942665 0.03158099949359894
v -0.003903999924659729 -0.05197399854660034 0.024491000920534134
v -0.0014600000577047467 -0.05222500115633011 0.022043000906705856
v 0.004126999992877245 -0.05263400077819824 0.019961999729275703
v 0.00955200009047985 -0.05154699832201004 0.028162000700831413
v 0.005772000178694725 -0.05590999871492386 0.03510500118136406
v 0.0012619999470189214 -0.05467800050973892 0.037411998957395554
v -0.004637999925762415 -0.055661000311374664 0.03227800130844116
v -0.004658999852836132 -0.057659998536109924 0.027912000194191933
v -0.001500000013038516 -0.05817300081253052 0.02450999990105629
v 0.005590999964624643 -0.05911700055003166 0.023274000734090805
v 0.007745999842882156 -0.05703999847173691 0.025645000860095024
v 0.004455000162124634 -0.057583998888731 0.029291000217199326
v 0.005185000132769346 -0.06790699809789658 0.04005200043320656
v 0.00033400001120753586 -0.06672000139951706 0.041717998683452606
v -0.004230000078678131 -0.06746300309896469 0.03853699937462807
v -0.004712000023573637 -0.06931400299072266 0.03343899920582771
v -0.001614999957382679 -0.07191099971532822 0.02886199951171875
v 0.0024429999757558107 -0.07189799845218658 0.02871599979698658
v 0.005923000164330006 -0.07118300348520279 0.03305099904537201
v 0.007505999878048897 -0.07056300342082977 0.03615599870681763
v 0.007519999984651804 -0.0704910010099411 0.03573799878358841
v 0.004819000139832497 -0.0808970034122467 0.04512299969792366
v -0.0005649999948218465 -0.08128499984741211 0.04578100144863129
v -0.0041149999015033245 -0.08215700089931488 0.042086001485586166
v -0.004813000094145536 -0.08192099630832672 0.04119399935007095
v -0.0028069999534636736 -0.08347699791193008 0.034318000078201294
v 0.00203399988822639 -0.08493199944496155 0.031647998839616776
v 0.004085000138729811 -0.08379299938678741 0.036462001502513885
v 0.006574000231921673 -0.0834909975528717 0.04144600033760071
v 0.003913000226020813 -0.09620100259780884 0.05159600079059601
v -0.0011109999613836408 -0.09623699635267258 0.05297200009226799
v -0.005458000116050243 -0.09707500040531158 0.04985500127077103
v -0.005557000171393156 -0.09750399738550186 0.047958001494407654
v -0.00469100009649992 -0.09917400032281876 0.042458999902009964
v 0.002176000038161874 -0.10215099900960922 0.036389999091625214
v 0.0032130000181496143 -0.09891799837350845 0.04260699823498726
v 0.005442999769002199 -0.097352996468544 0.04776399955153465
v 0.005932999774813652 -0.09755700081586838 0.04767400026321411
v 0.0026759998872876167 -0.12331099808216095 0.059873998165130615
v -0.0030640000477433205 -0.12321499735116959 0.05883200094103813
v -0.007174000144004822 -0.12414000183343887 0.05587400123476982
v -0.007495999801903963 -0.12481199949979782 0.05486200004816055
v -0.0024190000258386135 -0.12628400325775146 0.04896700009703636
v 0.0018739999504759908 -0.127019003033638 0.045134998857975006
v 0.0037980000488460064 -0.12532199919223785 0.04932300001382828
v 0.004850999917834997 -0.12432999908924103 0.054255999624729156
v 0.004017999861389399 -0.14749599993228912 0.06525100022554398
v 0.0012009999481961131 -0.147366002202034 0.06594199687242508
v -0.005863000173121691 -0.14847299456596375 0.06352200359106064
v -0.005791999865323305 -0.14957499504089355 0.0590750016272068
v -0.001905999961309135 -0.15071000158786774 0.05381999909877777
v 0.00318100000731647 -0.15015099942684174 0.051267001777887344
v 0.004002999980002642 -0.14868499338626862 0.05508999899029732
v 0.00165200000628829 -0.14856499433517456 0.05957600101828575
v 0.006467999890446663 -0.17410899698734283 0.06871499866247177
v 0.003272000001743436 -0.17410600185394287 0.07052099704742432
v -0.0022330000065267086 -0.17659500241279602 0.06827499717473984
v -0.003973000217229128 -0.17569799721240997 0.062435001134872437
v 0.00013499999477062374 -0.17576000094413757 0.05818599835038185
v 0.003907000180333853 -0.17540700733661652 0.057156000286340714
v 0.005667999852448702 -0.1753939986228943 0.060162000358104706
v 0.00636899983510375 -0.17446699738502502 0.06343299895524979
v 0.007658000104129314 -0.17490500211715698 0.062780000269413
v 0.0073449998162686825 -0.19181300699710846 0.07067099958658218
v 0.002652999944984913 -0.19194099307060242 0.07362300157546997
v -0.0013909999979659915 -0.19231300055980682 0.07143300026655197
v -0.0033400000538676977 -0.19115500152111053 0.06797599792480469
v 0.0011099999537691474 -0.193464994430542 0.060120999813079834
v 0.004982000216841698 -0.19301000237464905 0.057627998292446136
v 0.006901000160723925 -0.1925780028104782 0.060878999531269073
v 0.007176999934017658 -0.19252799451351166 0.06604299694299698
v 0.007814000360667706 -0.19258099794387817 0.06519400328397751
v 0.008759000338613987 -0.2156369984149933 0.07395900040864944
v 0.005371000152081251 -0.21507099270820618 0.07965999841690063
v 0.0009800000116229057 -0.21459099650382996 0.07676800340414047
v -0.0018370000179857016 -0.21542100608348846 0.07363200187683105
v -0.0033889999613165855 -0.21785800158977509 0.06736700236797333
v 0.0006939999875612557 -0.21869200468063354 0.06061499938368797
v 0.006858000066131353 -0.2179120033979416 0.05976400151848793
v 0.008697000332176685 -0.21681800484657288 0.06985200196504593
v 0.009096000343561172 -0.2166839987039566 0.06883600354194641
v 0.011617000214755535 -0.2285429984331131 0.06962999701499939
v 0.010606000199913979 -0.22679199278354645 0.07781799882650375
v 0.010200000368058681 -0.2246679961681366 0.08257400244474411
v 0.0039160000160336494 -0.2247530072927475 0.08186499774456024
v -0.002495999913662672 -0.22740399837493896 0.07582700252532959
v -0.0045010000467300415 -0.22892600297927856 0.0697999969124794
v -0.0013510000426322222 -0.2290019989013672 0.06247600167989731
v 0.0006220000213943422 -0.2283419966697693 0.058733001351356506
v 0.009619000367820263 -0.22718900442123413 0.05869000032544136
v 0.011074000038206577 -0.2279909998178482 0.07042399793863297
v 0.01286999974399805 -0.23142600059509277 0.0698700025677681
v 0.013016999699175358 -0.23152199387550354 0.0773250013589859
v 0.013565000146627426 -0.22971899807453156 0.08466699719429016
v 0.002644000109285116 -0.2317110002040863 0.08579099923372269
v -0.000291000003926456 -0.23244400322437286 0.08113600313663483
v -0.005607000086456537 -0.23346400260925293 0.07393400371074677
v -0.004147000145167112 -0.2337689995765686 0.06780499964952469
v -0.0013830000534653664 -0.23476800322532654 0.05724500119686127
v 0.010866000317037106 -0.2322710007429123 0.05754600092768669
v 0.013113000430166721 -0.23163500428199768 0.06378699839115143
v 0.01256799977272749 -0.23146100342273712 0.07085900008678436
v 0.017103999853134155 -0.2371550053358078 0.07223399728536606
v 0.016574999317526817 -0.23617500066757202 0.07934899628162384
v 0.015204000286757946 -0.2342739999294281 0.08534900099039078
v 0.00609700009226799 -0.23576800525188446 0.08923099935054779
v 0.0014850000152364373 -0.23802199959754944 0.08298800140619278
v -0.0038240000139921904 -0.24013899266719818 0.07585900276899338
v -0.004002999980002642 -0.24018999934196472 0.07067500054836273
v -0.002308000111952424 -0.24031199514865875 0.06130700185894966
v -0.001832999987527728 -0.2400140017271042 0.056779999285936356
v 0.005938999820500612 -0.23777200281620026 0.0581509992480278
v 0.013964000158011913 -0.23793600499629974 0.055024001747369766
v 0.019693000242114067 -0.23764300346374512 0.06034500151872635
v 0.013946999795734882 -0.24169999361038208 0.07198800146579742
v 0.01810000091791153 -0.24174700677394867 0.0664990022778511
v 0.013988000340759754 -0.24168699979782104 0.07218299806118011
v 0.013975000008940697 -0.24233199656009674 0.07745599746704102
v 0.012360000051558018 -0.24490800499916077 0.08248499780893326
v 0.011300000362098217 -0.24706299602985382 0.08480499684810638
v 0.00925000011920929 -0.2504099905490875 0.08588100224733353
v 0.006000000052154064 -0.2482530027627945 0.08396299928426743
v 0.003082999959588051 -0.24468199908733368 0.07921399921178818
v 0.0008619999862276018 -0.24477499723434448 0.07210999727249146
v 0.001230000052601099 -0.24403999745845795 0.06368199735879898
v 0.0006319999811239541 -0.2456659972667694 0.060437001287937164
v 0.000742000003810972 -0.24489299952983856 0.0585159994661808
v 0.005896999966353178 -0.24025200307369232 0.05853600054979324
v 0.015130000188946724 -0.24118000268936157 0.054384998977184296
v 0.017684999853372574 -0.24097700417041779 0.06161599978804588
v 0.010707000270485878 -0.24111199378967285 0.07355800271034241
v 0.013047999702394009 -0.24162399768829346 0.06725600361824036
v 0.007681000046432018 -0.24087700247764587 0.06988099962472916
v 0.012490999884903431 -0.240339994430542 0.0655440017580986
v 0.00901000015437603 -0.24298200011253357 0.07865799963474274
v 0.007931999862194061 -0.24400800466537476 0.0798799991607666
v 0.006610000040382147 -0.24507999420166016 0.0804390013217926
v 0.005014999769628048 -0.24410699307918549 0.0786610022187233
v 0.004017999861389399 -0.24340100586414337 0.07585299760103226
v 0.003900999901816249 -0.24230000376701355 0.07139600068330765
v 0.004573000129312277 -0.2423029989004135 0.06684800237417221
v 0.005872000008821487 -0.24136799573898315 0.06425400078296661
v 0.007406999822705984 -0.24082399904727936 0.06327500194311142
v 0.008605999872088432 -0.2400909960269928 0.062150999903678894
v 0.011238000355660915 -0.2400519996881485 0.06251099705696106
f 1 2 3
f 4 2 1
f 5 6 1
f 3 5 1
f 3 2 7
f 7 2 8
f 8 2 9
f 9 2 10
f 10 2 11
f 11 2 4
f 12 5 3
f 7 12 3
f 4 13 11
f 14 13 4
f 15 14 4
f 5 16 6
f 17 16 5
f 12 17 5
f 16 18 6
f 19 12 7
f 8 19 7
f 20 19 8
f 9 20 8
f 10 20 9
f 11 21 10
f 10 22 20
f 23 22 10
f 21 23 10
f 13 21 11
f 24 17 12
f 19 24 12
f 13 25 21
f 18 25 13
f 14 18 13
f 16 26 18
f 27 26 16
f 17 27 16
f 28 27 17
f 24 28 17
f 26 29 18
f 18 30 25
f 31 24 19
f 20 31 19
f 22 31 20
f 25 23 21
f 22 32 31
f 33 32 22
f 23 33 22
f 34 33 23
f 25 34 23
f 35 28 24
f 31 35 24
f 30 34 25
f 26 36 29
f 37 36 26
f 27 37 26
f 38 37 27
f 28 38 27
f 39 38 28
f 35 39 28
f 36 40 29
f 30 41 34
f 32 35 31
f 32 42 35
f 43 42 32
f 33 43 32
f 44 43 33
f 34 44 33
f 41 44 34
f 42 39 35
f 36 45 40
f 46 45 36
f 37 46 36
f 47 46 37
f 38 47 37
f 48 47 38
f 39 48 38
f 49 48 39
f 42 49 39
f 45 50 40
f 41 51 44
f 52 49 42
f 43 52 42
f 53 52 43
f 44 53 43
f 51 53 44
f 45 54 50
f 55 54 45
f 46 55 45
f 56 55 46
f 47 56 46
f 57 56 47
f 48 57 47
f 58 57 48
f 49 58 48
f 59 58 49
f 52 59 49
f 54 60 50
f 51 61 53
f 62 59 52
f 53 62 52
f 61 62 53
f 54 63 60
f 64 63 54
f 55 64 54
f 65 64 55
f 56 65 55
f 66 65 56
f 57 66 56
f 67 66 57
f 58 67 57
f 68 67 58
f 59 68 58
f 69 68 59
f 62 69 59
f 63 69 60
f 61 69 62
f 63 70 69
f 71 70 63
f 64 71 63
f 72 71 64
f 65 72 64
f 73 72 65
f 66 73 65
f 74 73 66
f 67 74 66
f 75 74 67
f 68 75 67
f 76 75 68
f 69 76 68
f 70 77 69
f 77 76 69
f 70 78 77
f 79 78 70
f 71 79 70
f 80 79 71
f 72 80 71
f 81 80 72
f 73 81 72
f 82 81 73
f 74 82 73
f 83 82 74
f 75 83 74
f 84 83 75
f 76 84 75
f 85 84 76
f 77 85 76
f 78 86 77
f 78 87 86
f 88 87 78
f 79 88 78
f 89 88 79
f 80 89 79
f 90 89 80
f 81 90 80
f 91 90 81
f 82 91 81
f 92 91 82
f 83 92 82
f 93 92 83
f 84 93 83
f 94 93 84
f 85 94 84
f 87 94 86
f 87 95 94
f 96 95 87
f 88 96 87
f 97 96 88
f 89 97 88
f 98 97 89
f 90 98 89
f 99 98 90
f 91 99 90
f 100 99 91
f 92 100 91
f 101 100 92
f 93 101 92
f 102 101 93
f 94 102 93
f 95 103 94
f 95 104 103
f 105 104 95
f 96 105 95
f 106 105 96
f 97 106 96
f 107 106 97
f 98 107 97
f 108 107 98
f 99 108 98
f 109 108 99
f 100 109 99
f 110 109 100
f 101 110 100
f 111 110 101
f 102 111 101
f 104 111 103
f 104 112 111
f 113 112 104
f 105 113 104
f 114 113 105
f 106 114 105
f 115 114 106
f 107 115 106
f 116 115 107
f 108 116 107
f 117 116 108
f 109 117 108
f 118 117 109
f 110 118 109
f 119 118 110
f 111 119 110
f 112 119 111
f 112 120 119
f 121 120 112
f 113 121 112
f 122 121 113
f 114 122 113
f 123 122 114
f 115 123 114
f 124 123 115
f 116 124 115
f 125 124 116
f 117 125 116
f 126 125 117
f 118 126 117
f 127 126 118
f 119 127 118
f 120 128 119
f 120 129 128
f 130 129 120
f 121 130 120
f 131 130 121
f 122 131 121
f 132 131 122
f 123 132 122
f 133 132 123
f 124 133 123
f 134 133 124
f 125 134 124
f 135 134 125
f 126 135 125
f 136 135 126
f 127 136 126
f 129 137 128
f 129 138 137
f 139 138 129
f 130 139 129
f 140 139 130
f 131 140 130
f 141 140 131
f 132 141 131
f 142 141 132
f 133 142 132
f 143 142 133
f 134 143 133
f 144 143 134
f 135 144 134
f 145 144 135
f 136 145 135
f 138 146 137
f 138 147 146
f 138 148 147
f 139 148 138
f 139 149 148
f 140 149 139
f 140 150 149
f 140 151 150
f 141 151 140
f 141 152 151
f 142 152 141
f 142 153 152
f 143 153 142
f 143 154 153
f 144 154 143
f 144 155 154
f 145 155 144
f 145 156 155
f 148 157 147
f 148 158 157
f 149 158 148
f 149 159 158
f 150 159 149
f 150 160 159
f 151 160 150
f 151 161 160
f 151 162 161
f 152 162 151
f 152 163 162
f 153 163 152
f 153 164 163
f 154 164 153
f 154 165 164
f 155 165 154
f 155 166 165
f 156 166 155
f 156 167 166
f 158 168 157
f 158 169 168
f 159 169 158
f 159 170 169
f 159 171 170
f 160 171 159
f 160 172 171
f 161 172 160
f 161 173 172
f 162 173 161
f 162 174 173
f 163 174 162
f 163 175 174
f 164 175 163
f 164 176 175
f 164 177 176
f 165 177 164
f 165 178 177
f 166 178 165
f 166 179 178
f 167 179 166
f 167 168 179
f 169 180 168
f 168 181 179
f 168 182 181
f 169 183 180
f 169 184 183
f 170 184 169
f 170 185 184
f 171 185 170
f 171 186 185
f 172 186 171
f 172 187 186
f 173 187 172
f 173 188 187
f 174 188 173
f 174 189 188
f 174 190 189
f 175 190 174
f 175 191 190
f 176 191 175
f 176 192 191
f 177 192 176
f 177 193 192
f 178 193 177
f 178 194 193
f 178 195 194
f 179 195 178
f 179 181 195
f 196 197 180
f 183 196 180
f 180 198 183
f 181 199 195
f 197 199 181
f 182 197 181
f 195 198 181
f 181 198 182
f 197 196 183
f 184 197 183
f 183 198 184
f 200 197 184
f 185 200 184
f 184 198 185
f 201 200 185
f 186 201 185
f 185 198 186
f 202 201 186
f 187 202 186
f 186 198 187
f 203 202 187
f 188 203 187
f 187 198 188
f 204 203 188
f 189 204 188
f 188 198 189
f 205 204 189
f 190 205 189
f 189 198 190
f 206 205 190
f 191 206 190
f 190 198 191
f 207 206 191
f 192 207 191
f 191 198 192
f 208 207 192
f 193 208 192
f 192 198 193
f 209 208 193
f 194 209 193
f 193 198 194
f 210 209 194
f 195 210 194
f 194 198 195
f 199 210 195
