# Generated by Visualization Toolkit
v -0.003244000021368265 0.022144999355077744 -0.007029000204056501
v -0.009188000112771988 0.02175699919462204 -0.0030539999715983868
v -0.01525100041180849 0.017942000180482864 -0.0036150000523775816
v -0.0182109996676445 0.012891000136733055 -0.007792000193148851
v -0.016574999317526817 0.009246000088751316 -0.01357599999755621
v -0.010928000323474407 0.009649000130593777 -0.017587000504136086
v -0.00408599991351366 0.014405000023543835 -0.017264999449253082
v -0.0024270000867545605 0.01944899931550026 -0.01233499962836504
v -0.002747999969869852 0.022120999172329903 -0.0069690002128481865
v 0.0023529999889433384 0.0233559999614954 -0.0028029999230057
v -0.007155000232160091 0.022662999108433723 0.0038320000749081373
v -0.017597999423742294 0.015852000564336777 0.002461999887600541
v -0.021309999749064445 0.008720999583601952 -0.004652000032365322
v -0.017751000821590424 0.0028689999599009752 -0.014689000323414803
v -0.008702999912202358 0.003965999931097031 -0.020695000886917114
v 0.0012329999590292573 0.010929999873042107 -0.020080000162124634
v 0.004970999900251627 0.0200399998575449 -0.011575999669730663
v 0.0027389999013394117 0.0234179999679327 -0.0026390000712126493
v 0.008170000277459621 0.022453999146819115 0.0012710000155493617
v -0.003992999903857708 0.021530000492930412 0.010592999868094921
v -0.01815599948167801 0.01235399954020977 0.008206999860703945
v -0.022898999974131584 0.0024250000715255737 -0.002319999970495701
v -0.018076999112963676 -0.002901999978348613 -0.01425000000745058
v -0.005921999923884869 -0.000901999999769032 -0.022249000146985054
v 0.006587999872863293 0.004747999832034111 -0.02092600055038929
v 0.012040999718010426 0.01722699962556362 -0.009430999867618084
v 0.008166000247001648 0.022207999601960182 0.002044999971985817
v 0.011548999696969986 0.02134699933230877 0.004581000190228224
v 0.00043399998685345054 0.020121000707149506 0.014290999621152878
v -0.017472999170422554 0.010115000419318676 0.010857000015676022
v -0.022445999085903168 -0.000707999977748841 0.001879999996162951
v -0.017680000513792038 -0.007625999860465527 -0.011885000392794609
v -0.004087999928742647 -0.008183999918401241 -0.021088000386953354
v 0.011398999951779842 0.00041199999395757914 -0.0190459992736578
v 0.01551899965852499 0.015314999967813492 -0.008919999934732914
v 0.012083999812602997 0.02080499939620495 0.005781000014394522
v 0.015022999607026577 0.015432000160217285 0.008561000227928162
v 0.004267999902367592 0.017596999183297157 0.02078299969434738
v -0.009263000451028347 0.012481000274419785 0.017273999750614166
v -0.014553000219166279 0.005098999943584204 0.012265999801456928
v -0.018456000834703445 -0.005989000201225281 0.001841000048443675
v -0.014167999848723412 -0.010595999658107758 -0.0062339999713003635
v -0.0045449999161064625 -0.013628999702632427 -0.015277000144124031
v 0.012713000178337097 -0.003616000059992075 -0.013976000249385834
v 0.020082000643014908 0.010297000408172607 -0.004428999964147806
v 0.015269000083208084 0.015821000561118126 0.009177000261843204
v 0.016555000096559525 0.007919000461697578 0.010460999794304371
v 0.016959000378847122 0.011885000392794609 0.015337999910116196
v 0.007395999971777201 0.012196999974548817 0.025325000286102295
v -0.003283000085502863 0.008705000393092632 0.02637699991464615
v -0.013736999593675137 0.0016479999758303165 0.02250099927186966
v -0.016766000539064407 -0.004062999971210957 0.016964999958872795
v -0.01260599959641695 -0.009844999760389328 0.008658000268042088
v -0.00988100003451109 -0.016234999522566795 -0.002199999988079071
v -0.002202000003308058 -0.020116999745368958 -0.011343000456690788
v 0.013523999601602554 -0.010480999946594238 -0.0083619998767972
v 0.021547000855207443 -0.004656000062823296 -0.00738399988040328
v 0.02514900080859661 0.0006169999833218753 -0.0017509999452158809
v 0.025735000148415565 0.0033629999961704016 0.0036440000403672457
v 0.02401999942958355 0.006002999842166901 0.0071840002201497555
v -0.010937999933958054 0.015935000032186508 -0.012543999589979649
v 0.01218200009316206 -0.023823000490665436 0.005011000204831362
v 0.011029000394046307 -0.041944000869989395 0.002472999971359968
v 0.012751000002026558 -0.042883001267910004 0.00785099994391203
v 0.013496000319719315 -0.02543500065803528 0.011855999939143658
v 0.008526000194251537 -0.04197600111365318 0.012285999953746796
v 0.010080000385642052 -0.027861999347805977 0.014965999871492386
v -0.0007609999738633633 -0.042723000049591064 0.012072999961674213
v -0.0009549999958835542 -0.029565000906586647 0.014658999629318714
v -0.007796000223606825 -0.04269799962639809 0.00522099994122982
v -0.005024999845772982 -0.028850000351667404 0.011904999613761902
v -0.007637000177055597 -0.026900000870227814 0.003415999934077263
v -0.00824000034481287 -0.043255001306533813 0.001167000038549304
v -0.007075999863445759 -0.026717999950051308 -0.0036510000936686993
v -0.0004959999932907522 -0.04191900044679642 -0.008139999583363533
v -0.00029200001154094934 -0.025299999862909317 -0.009992999956011772
v 0.008762000128626823 -0.042399998754262924 -0.007335000205785036
v 0.011699000373482704 -0.023893000558018684 -0.006029999814927578
v 0.011455999687314034 -0.04213400185108185 -0.003657999914139509
v 0.013811999931931496 -0.024250999093055725 0.0005329999839887023
v 0.011025999672710896 -0.041940998286008835 0.0024709999561309814
v 0.011295000091195107 -0.07093799859285355 0.0005939999828115106
v 0.012628999538719654 -0.0731469988822937 0.007015000097453594
v 0.003746999893337488 -0.07129999995231628 0.010301000438630581
v -0.006409999914467335 -0.07124900072813034 0.005919000133872032
v -0.007977999746799469 -0.0710889995098114 0.0014400000218302011
v -0.007102999836206436 -0.07095299661159515 -0.003237999975681305
v -0.001930000027641654 -0.0695440024137497 -0.008766000159084797
v 0.005247999913990498 -0.06982800364494324 -0.008194999769330025
v 0.010276000015437603 -0.07044800370931625 -0.004991999827325344
v 0.01129399985074997 -0.07099000364542007 0.0005869999877177179
v 0.009460999630391598 -0.09686899930238724 -0.002658999990671873
v 0.010546999983489513 -0.09929600358009338 0.005652999971061945
v 0.003011000109836459 -0.0961960032582283 0.00913699995726347
v -0.003478999948129058 -0.0962890014052391 0.00940600037574768
v -0.007278000004589558 -0.09505099803209305 0.005450000055134296
v -0.00813900027424097 -0.0941379964351654 -0.0020779999904334545
v -0.0027020000852644444 -0.09429699927568436 -0.011241000145673752
v 0.004935000091791153 -0.09612900018692017 -0.010072999633848667
v 0.009449999779462814 -0.0968099981546402 -0.002643000101670623
v 0.008569000288844109 -0.11948499828577042 -0.004240000154823065
v 0.009790999814867973 -0.11695999652147293 0.004989000037312508
v 0.004834999796003103 -0.1174440011382103 0.008255000226199627
v -0.0032659999560564756 -0.11692500114440918 0.008733999915421009
v -0.006328000221401453 -0.11751200258731842 0.0046430001966655254
v -0.008821000345051289 -0.11729700118303299 -0.0038389998953789473
v -0.006297000218182802 -0.1175210028886795 -0.010623999871313572
v 0.0028750000055879354 -0.11882899701595306 -0.011928999796509743
v -0.005818000063300133 -0.02094000019133091 0.01488799974322319
v -0.008856000378727913 -0.013016999699175358 0.018094999715685844
v -0.008527999743819237 -0.020831000059843063 0.004821000155061483
v -0.009349999949336052 -0.01656699925661087 0.00662099989131093
v -0.007876000367105007 -0.022419000044465065 -0.00368599989451468
v 0.011849000118672848 -0.017700999975204468 -0.006517000030726194
v 0.015308000147342682 -0.015891000628471375 -0.005226000212132931
v 0.0189059991389513 -0.009751999750733376 -0.005890999920666218
v 0.020639000460505486 -0.007164000067859888 -0.0025289999321103096
v 0.021889999508857727 -0.0055320002138614655 0.001108999946154654
v 0.02314699999988079 -0.0031320000998675823 0.004989999812096357
v 0.016394000500440598 -0.01534000039100647 -0.0023189999628812075
v 0.017376000061631203 -0.014081999659538269 0.0017269999952986836
v 0.0163199994713068 -0.0026599999982863665 0.009929999709129333
v 0.017201000824570656 -0.003260999917984009 0.017416000366210938
v 0.013915999792516232 -0.014015999622642994 0.007849999703466892
v 0.0139979999512434 -0.016767999157309532 0.014427999965846539
v 0.006756999995559454 -0.0057299998588860035 0.024423999711871147
v -0.007993999868631363 -0.006661000195890665 0.024288000538945198
v 0.007660999894142151 -0.0185100007802248 0.018617000430822372
v -0.0007379999733529985 -0.019968999549746513 0.018285999074578285
v 0.00007300000288523734 -0.2825169861316681 -0.042840998619794846
v -0.0013070000568404794 -0.28514599800109863 -0.0432949997484684
v -0.0008759999764151871 -0.29048600792884827 -0.04144899919629097
v 0.0026839999482035637 -0.2934829890727997 -0.03620599955320358
v 0.0051299999468028545 -0.29385098814964294 -0.030729999765753746
v 0.011528999544680119 -0.3012999892234802 -0.02818799950182438
v -0.0026599999982863665 -0.2830829918384552 -0.043811000883579254
v -0.004631999880075455 -0.2857320010662079 -0.04188600182533264
v -0.005840000230818987 -0.2853359878063202 -0.036743998527526855
v -0.004656000062823296 -0.28503599762916565 -0.03141099959611893
v -0.0027030000928789377 -0.29026299715042114 -0.02709300071001053
v 0.001643999945372343 -0.3028849959373474 -0.02545499987900257
v -0.000048000001697801054 -0.27547600865364075 -0.040748998522758484
v -0.005836999975144863 -0.27537399530410767 -0.032871998846530914
v -0.004980000201612711 -0.28316301107406616 -0.03049599938094616
v -0.004352000076323748 -0.2862919867038727 -0.025248000398278236
v -0.004472000058740377 -0.2893120050430298 -0.02376599982380867
v -0.004437999799847603 -0.2970989942550659 -0.022931000217795372
v -0.00021899999410379678 -0.27031999826431274 -0.033987000584602356
v -0.005679999943822622 -0.27413201332092285 -0.025349000468850136
v -0.005404999945312738 -0.2911370098590851 -0.020941000431776047
v -0.003258999902755022 -0.28859999775886536 -0.015177999623119831
v -0.0031399999279528856 -0.28873398900032043 -0.009549999609589577
v -0.004918000195175409 -0.2874259948730469 -0.002675000112503767
v -0.008214999921619892 -0.2865560054779053 0.0007459999760612845
v -0.000783999974373728 -0.2766450047492981 -0.0217909999191761
v 0.002830999903380871 -0.2783780097961426 -0.017335999757051468
v 0.004226999823004007 -0.2799629867076874 -0.012833000160753727
v 0.0018710000440478325 -0.279556006193161 -0.004865000024437904
v -0.005255000200122595 -0.2805899977684021 -0.0005469999741762877
v -0.00760400015860796 -0.2812409996986389 -0.0005600000149570405
v 0.009712999686598778 -0.27848300337791443 -0.024464000016450882
v -0.006093000061810017 -0.2702130079269409 -0.019561000168323517
v -0.0013139999937266111 -0.2733609974384308 -0.016954999417066574
v 0.000623999978415668 -0.27419599890708923 -0.011629999615252018
v -0.0011279999744147062 -0.27422401309013367 -0.006328000221401453
v -0.004515000153332949 -0.27494901418685913 -0.003621000098064542
v -0.008725999854505062 -0.2732959985733032 -0.0017300000181421638
v 0.0005430000019259751 -0.2695159912109375 -0.019547000527381897
v -0.006969999987632036 -0.26633399724960327 -0.009127000346779823
v 0.015406000427901745 -0.284527987241745 -0.025335999205708504
v 0.013311999849975109 -0.28332099318504333 -0.02005700021982193
v 0.01206399966031313 -0.284743994474411 -0.012792999856173992
v 0.010339999571442604 -0.2830199897289276 -0.008705000393092632
v 0.008863000199198723 -0.2813819944858551 -0.004189999774098396
v 0.017580000683665276 -0.28938499093055725 -0.026863999664783478
v 0.015714000910520554 -0.28872400522232056 -0.018685000017285347
v 0.013674000278115273 -0.2883929908275604 -0.01253500021994114
v 0.013171999715268612 -0.2858720123767853 -0.009064000099897385
v 0.013612999580800533 -0.2853640019893646 -0.005840000230818987
v 0.017085000872612 -0.29486599564552307 -0.027418000623583794
v 0.015568999573588371 -0.2935749888420105 -0.01938600093126297
v 0.013520999811589718 -0.29211899638175964 -0.012722999788820744
v 0.014468999579548836 -0.2922370135784149 -0.008933000266551971
v 0.014832999557256699 -0.292261004447937 -0.00612299982458353
v 0.011632000096142292 -0.29975399374961853 -0.020104000344872475
v 0.010544000193476677 -0.2971070110797882 -0.013407000340521336
v 0.010646999813616276 -0.29678601026535034 -0.009132999926805496
v 0.009531999938189983 -0.2981100082397461 -0.004600000102072954
v 0.004217999987304211 -0.30118000507354736 -0.018557999283075333
v 0.003965999931097031 -0.29837000370025635 -0.011211000382900238
v 0.0039809998124837875 -0.2985979914665222 -0.007253999821841717
v 0.003665999975055456 -0.2991909980773926 -0.0023819999769330025
v -0.002498999936506152 -0.29684001207351685 -0.018021000549197197
v -0.000775999971665442 -0.29546400904655457 -0.010883999988436699
v -0.000539999979082495 -0.29695698618888855 -0.005080000031739473
v -0.0011490000179037452 -0.298907995223999 0.000018000000636675395
v -0.0036869999021291733 -0.2912299931049347 -0.016840999945998192
v -0.002756000030785799 -0.29128599166870117 -0.009557000361382961
v -0.004298000130802393 -0.2919749915599823 -0.0029140000697225332
v -0.007009999826550484 -0.2930949926376343 0.0007309999782592058
v 0.005384000018239021 -0.2915320098400116 -0.03775399923324585
v 0.007230000104755163 -0.2916930019855499 -0.030574999749660492
v 0.006180000025779009 -0.28073999285697937 -0.03844499960541725
v 0.008076000027358532 -0.2794089913368225 -0.031089000403881073
v 0.009638999588787556 -0.27844300866127014 -0.02445800043642521
v 0.0067610000260174274 -0.28554001450538635 -0.036786999553442
v 0.008794999681413174 -0.28605398535728455 -0.030469000339508057
v 0.006566000171005726 -0.2900879979133606 -0.035287000238895416
v 0.0037299999967217445 -0.2668539881706238 -0.02525700069963932
v 0.006736000068485737 -0.26483699679374695 -0.016813000664114952
v 0.006186000071465969 -0.2623380124568939 -0.012122999876737595
v 0.0036899999249726534 -0.27333998680114746 -0.03413499891757965
v 0.005615000147372484 -0.2717280089855194 -0.02774900011718273
v -0.007666999939829111 -0.26089999079704285 0.01042800024151802
v -0.011129000224173069 -0.2610749900341034 -0.0001990000018849969
v -0.008535999804735184 -0.25985199213027954 -0.015318999998271465
v -0.0014949999749660492 -0.2602959871292114 -0.025350000709295273
v -0.010141000151634216 -0.27936801314353943 0.004474999848753214
v -0.010110000148415565 -0.27340400218963623 0.009053999558091164
v -0.0093560004606843 -0.265051007270813 0.011088999919593334
v -0.00582600012421608 -0.2907029986381531 0.005216000135987997
v -0.005375999957323074 -0.2914679944515228 0.010360999964177608
v -0.005760999862104654 -0.28622299432754517 0.013934999704360962
v -0.005253999959677458 -0.2794019877910614 0.016580000519752502
v -0.004234999883919954 -0.27057600021362305 0.014945000410079956
v -0.000775999971665442 -0.29793500900268555 0.007315999828279018
v -0.0010100000072270632 -0.29438701272010803 0.013980000279843807
v 0.0017170000355690718 -0.2902289927005768 0.018066000193357468
v 0.0006099999882280827 -0.2864069938659668 0.019543999806046486
v -0.00033000000985339284 -0.2818300127983093 0.020771000534296036
v 0.0023169999476522207 -0.2975890040397644 0.01105900015681982
v 0.007459999993443489 -0.29510799050331116 0.014537000097334385
v 0.010172000154852867 -0.2893509864807129 0.016042999923229218
v 0.008882000111043453 -0.28012698888778687 0.015308000147342682
v 0.009263000451028347 -0.2834469974040985 0.016697999089956284
v 0.00506900018081069 -0.2990109920501709 0.0019320000428706408
v 0.009921999648213387 -0.2972489893436432 0.000014000000192027073
v 0.013550999574363232 -0.29224899411201477 -0.0021879998967051506
v 0.01311499997973442 -0.2863059937953949 -0.0012600000482052565
v 0.009440000168979168 -0.2820169925689697 0.0007900000200606883
v 0.003432000055909157 -0.2998740077018738 0.0067889997735619545
v 0.011075999587774277 -0.29927098751068115 0.006353000178933144
v 0.015576999634504318 -0.2953450083732605 0.006527000106871128
v 0.016858000308275223 -0.29109498858451843 0.005932999774813652
v 0.016818000003695488 -0.28668999671936035 0.0063240001909434795
v 0.013094999827444553 -0.2811810076236725 0.0067460001446306705
v 0.008210999891161919 -0.27899500727653503 0.007127999793738127
v 0.0067819999530911446 -0.2996949851512909 0.010843000374734402
v 0.011682000011205673 -0.29693201184272766 0.013930999673902988
v 0.014112000353634357 -0.29109299182891846 0.01613299921154976
v 0.014688000082969666 -0.28573301434516907 0.015138000249862671
v 0.011296000331640244 -0.2812800109386444 0.014077999629080296
v -0.0009790000040084124 -0.29856300354003906 0.004093000199645758
v 0.004631999880075455 -0.2780439853668213 0.011243999935686588
v 0.002939000027254224 -0.2745009958744049 0.008290000259876251
v 0.0030819999519735575 -0.27239298820495605 0.004594999831169844
v 0.006111999973654747 -0.2667750120162964 -0.007410000078380108
v 0.006750999949872494 -0.2716819941997528 -0.006277000065892935
v 0.0040699997916817665 -0.2748570144176483 0.0013010000111535192
v 0.00800000037997961 -0.27859199047088623 -0.004304000176489353
v 0.005369999911636114 -0.27793800830841064 0.00018899999849963933
v 0.007513000164180994 -0.2800869941711426 -0.000029000000722589903
v 0.005973000079393387 -0.27893099188804626 0.009820999577641487
v 0.006291000172495842 -0.27913698554039 0.003777999896556139
v 0.0042119999416172504 -0.27752000093460083 0.005750999785959721
v 0.0064409999176859856 -0.28007999062538147 -0.008673000149428844
v 0.006099000107496977 -0.28015100955963135 -0.017542999237775803
v 0.005123000126332045 -0.27203500270843506 -0.00962700042873621
v 0.004906999878585339 -0.2718470096588135 -0.014437000267207623
v 0.005456000100821257 -0.2667689919471741 -0.012822999618947506
v 0.006000000052154064 -0.2610200047492981 -0.01590299978852272
v 0.005545000080019236 -0.2625289857387543 -0.0077309999614953995
v 0.0022789998911321163 -0.26281699538230896 0.0008110000053420663
v 0.0037169998977333307 -0.24691499769687653 -0.014848999679088593
v 0.005377999972552061 -0.24543100595474243 -0.008828000165522099
v 0.001550000044517219 -0.2457839995622635 -0.0014979999978095293
v -0.00966500025242567 -0.24481600522994995 0.0057310000993311405
v -0.012036999687552452 -0.24282200634479523 -0.0013859999598935246
v -0.011242000386118889 -0.24239900708198547 -0.011966000311076641
v -0.0036150000523775816 -0.247871994972229 -0.021302999928593636
v 0.0002680000034160912 -0.24666500091552734 -0.017914999276399612
v 0.003720999928191304 -0.2469490021467209 -0.014852000400424004
v 0.005379999987781048 -0.1929289996623993 -0.010625000111758709
v 0.0034020000603049994 -0.22663700580596924 -0.013315999880433083
v 0.0051369997672736645 -0.22697000205516815 -0.007942999713122845
v 0.005410999990999699 -0.19479399919509888 -0.0042779999785125256
v -0.00030499999411404133 -0.22581399977207184 -0.0008529999759048223
v 0.0004670000053010881 -0.19389000535011292 0.0002680000034160912
v -0.010525000281631947 -0.22654099762439728 0.003324999939650297
v -0.007298000156879425 -0.19337999820709229 0.0013010000111535192
v -0.013334999792277813 -0.22672200202941895 -0.0035290000960230827
v -0.01344399992376566 -0.19307099282741547 -0.004459999967366457
v -0.012748000212013721 -0.22782699763774872 -0.012980000115931034
v -0.012463999912142754 -0.1929209977388382 -0.012504000216722488
v -0.0052559999749064445 -0.22741900384426117 -0.01890300028026104
v -0.002420000033453107 -0.1928189992904663 -0.017128000035881996
v -0.0011579999700188637 -0.22842499613761902 -0.017325999215245247
v 0.002633000025525689 -0.19335399568080902 -0.014929999597370625
v 0.0034080001059919596 -0.22669300436973572 -0.01331700012087822
v 0.005355000030249357 -0.19300200045108795 -0.010618999600410461
v 0.007424999959766865 -0.15073400735855103 -0.007848000153899193
v 0.007985999807715416 -0.15220500528812408 -0.0005629999795928597
v 0.004290999844670296 -0.15193800628185272 0.003413999918848276
v 0.00028899998869746923 -0.15132999420166016 0.0050559998489916325
v -0.0051369997672736645 -0.14884699881076813 0.0033710000570863485
v -0.01017099991440773 -0.1476069986820221 -0.0037159998901188374
v -0.008081000298261642 -0.14824099838733673 -0.01206700038164854
v 0.0018520000157877803 -0.14877299964427948 -0.014360999688506126
v 0.008472000248730183 -0.11949999630451202 -0.004120999947190285
f 11 10 1
f 2 11 1
f 12 11 2
f 3 12 2
f 13 12 3
f 4 13 3
f 14 13 4
f 5 14 4
f 15 14 5
f 6 15 5
f 16 15 6
f 7 16 6
f 17 16 7
f 8 17 7
f 18 17 8
f 9 18 8
f 20 19 10
f 11 20 10
f 21 20 11
f 12 21 11
f 22 21 12
f 13 22 12
f 23 22 13
f 14 23 13
f 24 23 14
f 15 24 14
f 25 24 15
f 16 25 15
f 26 25 16
f 17 26 16
f 27 26 17
f 18 27 17
f 29 28 19
f 20 29 19
f 30 29 20
f 21 30 20
f 31 30 21
f 22 31 21
f 32 31 22
f 23 32 22
f 33 32 23
f 24 33 23
f 34 33 24
f 25 34 24
f 35 34 25
f 26 35 25
f 36 35 26
f 27 36 26
f 29 37 28
f 29 38 37
f 30 38 29
f 30 39 38
f 31 39 30
f 31 40 39
f 31 41 40
f 32 41 31
f 32 42 41
f 33 42 32
f 33 43 42
f 34 43 33
f 34 44 43
f 35 44 34
f 35 45 44
f 36 45 35
f 36 46 45
f 37 48 47
f 38 48 37
f 38 49 48
f 39 49 38
f 39 50 49
f 39 51 50
f 40 51 39
f 40 52 51
f 41 52 40
f 41 53 52
f 41 54 53
f 42 54 41
f 42 55 54
f 43 55 42
f 43 56 55
f 43 57 56
f 44 57 43
f 44 58 57
f 45 58 44
f 45 59 58
f 45 60 59
f 46 60 45
f 46 47 60
f 8 61 1
f 7 61 8
f 6 61 7
f 5 61 6
f 4 61 5
f 3 61 4
f 2 61 3
f 1 61 2
f 64 63 62
f 65 64 62
f 66 64 65
f 67 66 65
f 68 66 67
f 69 68 67
f 70 68 69
f 71 70 69
f 72 70 71
f 73 70 72
f 74 73 72
f 75 73 74
f 76 75 74
f 77 75 76
f 78 77 76
f 79 77 78
f 80 79 78
f 81 79 80
f 62 81 80
f 83 82 63
f 64 83 63
f 84 83 64
f 66 84 64
f 85 84 66
f 68 85 66
f 86 85 68
f 70 86 68
f 87 86 70
f 73 87 70
f 88 87 73
f 75 88 73
f 89 88 75
f 77 89 75
f 90 89 77
f 79 90 77
f 91 90 79
f 81 91 79
f 93 92 82
f 83 93 82
f 94 93 83
f 84 94 83
f 95 94 84
f 85 95 84
f 86 95 85
f 96 95 86
f 87 96 86
f 97 96 87
f 88 97 87
f 98 97 88
f 89 98 88
f 99 98 89
f 90 99 89
f 100 99 90
f 91 100 90
f 102 101 92
f 93 102 92
f 103 102 93
f 94 103 93
f 104 103 94
f 95 104 94
f 105 104 95
f 96 105 95
f 106 105 96
f 97 106 96
f 107 106 97
f 98 107 97
f 108 107 98
f 99 108 98
f 101 108 99
f 100 101 99
f 111 72 71
f 109 111 71
f 112 111 109
f 110 112 109
f 53 112 110
f 52 53 110
f 113 74 72
f 111 113 72
f 112 113 111
f 54 113 112
f 53 54 112
f 113 76 74
f 55 76 113
f 54 55 113
f 76 114 78
f 55 114 76
f 55 56 114
f 114 115 78
f 114 116 115
f 56 116 114
f 56 57 116
f 117 116 57
f 58 117 57
f 118 117 58
f 59 118 58
f 119 118 59
f 60 119 59
f 120 115 116
f 117 120 116
f 118 120 117
f 121 120 118
f 119 121 118
f 120 78 115
f 80 78 120
f 121 80 120
f 122 119 60
f 47 122 60
f 123 122 47
f 48 123 47
f 124 121 119
f 122 124 119
f 125 124 122
f 123 125 122
f 62 80 121
f 124 62 121
f 65 62 124
f 125 65 124
f 126 123 48
f 49 126 48
f 50 126 49
f 127 126 50
f 51 127 50
f 110 127 51
f 52 110 51
f 128 125 123
f 126 128 123
f 129 128 126
f 127 129 126
f 109 129 127
f 110 109 127
f 67 65 125
f 128 67 125
f 69 67 128
f 129 69 128
f 71 69 129
f 109 71 129
f 137 136 130
f 131 137 130
f 138 137 131
f 132 138 131
f 139 138 132
f 133 139 132
f 140 139 133
f 134 140 133
f 141 140 134
f 135 141 134
f 143 142 136
f 137 143 136
f 144 143 137
f 138 144 137
f 145 144 138
f 139 145 138
f 146 145 139
f 140 146 139
f 147 146 140
f 141 147 140
f 143 148 142
f 149 148 143
f 144 149 143
f 150 149 144
f 145 150 144
f 146 150 145
f 147 150 146
f 150 155 149
f 151 155 150
f 151 156 155
f 152 156 151
f 152 157 156
f 153 157 152
f 153 158 157
f 153 159 158
f 154 159 153
f 154 160 159
f 163 162 149
f 155 163 149
f 164 163 155
f 156 164 155
f 157 164 156
f 165 164 157
f 158 165 157
f 166 165 158
f 159 166 158
f 167 166 159
f 160 167 159
f 163 169 162
f 164 169 163
f 165 169 164
f 166 169 165
f 167 169 166
f 176 175 170
f 171 176 170
f 177 176 171
f 172 177 171
f 178 177 172
f 173 178 172
f 179 178 173
f 174 179 173
f 181 180 175
f 176 181 175
f 182 181 176
f 177 182 176
f 183 182 177
f 178 183 177
f 184 183 178
f 179 184 178
f 185 135 180
f 181 185 180
f 186 185 181
f 182 186 181
f 187 186 182
f 183 187 182
f 188 187 183
f 184 188 183
f 189 141 135
f 185 189 135
f 190 189 185
f 186 190 185
f 191 190 186
f 187 191 186
f 192 191 187
f 188 192 187
f 193 147 141
f 189 193 141
f 194 193 189
f 190 194 189
f 195 194 190
f 191 195 190
f 196 195 191
f 192 196 191
f 197 150 147
f 193 197 147
f 198 197 193
f 194 198 193
f 199 198 194
f 195 199 194
f 200 199 195
f 196 200 195
f 197 151 150
f 152 151 197
f 198 152 197
f 153 152 198
f 199 153 198
f 154 153 199
f 200 154 199
f 201 133 132
f 134 133 201
f 202 134 201
f 135 134 202
f 180 135 202
f 206 131 130
f 203 206 130
f 207 206 203
f 204 207 203
f 170 207 204
f 205 170 204
f 208 132 131
f 206 208 131
f 202 208 206
f 207 202 206
f 175 202 207
f 170 175 207
f 208 201 132
f 202 201 208
f 175 180 202
f 212 142 148
f 209 212 148
f 213 212 209
f 210 213 209
f 168 213 210
f 211 168 210
f 203 130 142
f 212 203 142
f 204 203 212
f 213 204 212
f 161 204 213
f 168 161 213
f 216 169 215
f 216 162 169
f 216 149 162
f 217 149 216
f 217 148 149
f 215 169 218
f 219 215 218
f 220 215 219
f 214 215 220
f 218 154 200
f 221 218 200
f 222 218 221
f 219 218 222
f 223 219 222
f 220 219 223
f 224 220 223
f 214 220 224
f 225 214 224
f 221 200 196
f 226 221 196
f 222 221 226
f 227 222 226
f 228 222 227
f 223 222 228
f 229 223 228
f 224 223 229
f 230 224 229
f 225 224 230
f 231 227 226
f 228 227 231
f 232 228 231
f 233 228 232
f 229 228 233
f 235 229 233
f 230 229 235
f 234 230 235
f 225 230 234
f 236 242 241
f 237 242 236
f 237 243 242
f 238 243 237
f 238 244 243
f 239 244 238
f 239 245 244
f 239 246 245
f 240 246 239
f 240 247 246
f 242 248 241
f 249 248 242
f 243 249 242
f 250 249 243
f 244 250 243
f 251 250 244
f 245 251 244
f 246 251 245
f 252 251 246
f 247 252 246
f 196 253 226
f 236 226 196
f 241 226 236
f 231 226 241
f 248 231 241
f 232 231 248
f 249 232 248
f 233 232 249
f 250 233 249
f 251 233 250
f 235 233 251
f 252 235 251
f 234 235 252
f 254 225 234
f 255 225 254
f 256 225 255
f 259 258 257
f 256 259 257
f 261 260 258
f 259 261 258
f 261 262 260
f 240 174 260
f 262 240 260
f 239 179 174
f 240 239 174
f 238 184 179
f 239 238 179
f 237 188 184
f 238 237 184
f 236 192 188
f 237 236 188
f 236 196 192
f 247 234 252
f 247 263 234
f 247 264 263
f 240 264 247
f 240 262 264
f 265 254 234
f 263 265 234
f 264 265 263
f 261 265 264
f 262 261 264
f 265 255 254
f 259 255 265
f 261 259 265
f 259 256 255
f 266 260 174
f 173 266 174
f 157 266 173
f 172 157 173
f 267 157 172
f 171 267 172
f 205 267 171
f 170 205 171
f 268 258 260
f 266 268 260
f 157 268 266
f 269 268 157
f 267 269 157
f 168 269 267
f 205 168 267
f 270 257 258
f 268 270 258
f 269 270 268
f 210 270 269
f 168 210 269
f 270 211 257
f 270 211 210
f 209 148 217
f 271 209 217
f 210 209 271
f 211 210 271
f 272 257 211
f 256 257 272
f 273 256 272
f 225 256 273
f 214 225 273
f 275 271 274
f 275 211 271
f 276 211 275
f 276 272 211
f 277 272 276
f 277 273 272
f 277 214 273
f 278 214 277
f 278 215 214
f 279 215 278
f 279 216 215
f 280 216 279
f 280 217 216
f 281 217 280
f 281 271 217
f 282 271 281
f 285 284 283
f 286 285 283
f 287 285 286
f 288 287 286
f 289 287 288
f 290 289 288
f 291 289 290
f 292 291 290
f 293 291 292
f 294 293 292
f 295 293 294
f 296 295 294
f 297 295 296
f 298 297 296
f 299 297 298
f 300 299 298
f 275 274 284
f 285 275 284
f 276 275 285
f 287 276 285
f 277 276 287
f 289 277 287
f 278 277 289
f 291 278 289
f 279 278 291
f 293 279 291
f 280 279 293
f 295 280 293
f 281 280 295
f 297 281 295
f 282 281 297
f 299 282 297
f 286 283 301
f 302 286 301
f 288 286 302
f 303 288 302
f 290 288 303
f 304 290 303
f 292 290 304
f 305 292 304
f 294 292 305
f 306 294 305
f 296 294 306
f 307 296 306
f 298 296 307
f 308 298 307
f 300 298 308
f 301 300 308
f 302 301 101
f 102 302 101
f 303 302 102
f 103 303 102
f 304 303 103
f 104 304 103
f 305 304 104
f 105 305 104
f 306 305 105
f 106 306 105
f 307 306 106
f 107 307 106
f 308 307 107
f 108 308 107
f 301 308 108
f 309 301 108
f 160 218 167
f 160 154 218
