# Generated by Visualization Toolkit
v 0.6499999761581421 -0.029999999329447746 0
v 6.661337998858429e-18 -0.029999999329447746 0
v 0.6499999761581421 -0.028531694784760475 -0.009270509704947472
v 6.335308896323716e-18 -0.028531694784760475 -0.009270509704947472
v 0.6499999761581421 -0.02427051030099392 -0.017633557319641113
v 5.3891358711130975e-18 -0.02427051030099392 -0.017633557319641113
v 0.6499999761581421 -0.017633557319641113 -0.02427051030099392
v 3.915436268462605e-18 -0.017633557319641113 -0.02427051030099392
v 0.6499999761581421 -0.009270509704947472 -0.028531694784760475
v 2.05846666488873e-18 -0.009270509704947472 -0.028531694784760475
v 0.6499999761581421 6.15324718261645e-12 -0.029999999329447746
v -1.3662632729365576e-27 6.153102766887075e-12 -0.029999999329447746
v 0.6499999761581421 0.009270509704947472 -0.028531694784760475
v -2.05846666488873e-18 0.009270509704947472 -0.028531694784760475
v 0.6499999761581421 0.017633557319641113 -0.02427051030099392
v -3.915436268462605e-18 0.017633557319641113 -0.02427051030099392
v 0.6499999761581421 0.02427051030099392 -0.017633557319641113
v -5.3891358711130975e-18 0.02427051030099392 -0.017633557319641113
v 0.6499999761581421 0.028531694784760475 -0.009270509704947472
v -6.335308896323716e-18 0.028531694784760475 -0.009270509704947472
v 0.6499999761581421 0.029999999329447746 1.230620553377415e-11
v -6.661337998858429e-18 0.029999999329447746 1.230620553377415e-11
v 0.6499999761581421 0.028531694784760475 0.009270509704947472
v -6.335308896323716e-18 0.028531694784760475 0.009270509704947472
v 0.6499999761581421 0.02427051030099392 0.017633557319641113
v -5.3891358711130975e-18 0.02427051030099392 0.017633557319641113
v 0.6499999761581421 0.017633557319641113 0.02427051030099392
v -3.915436268462605e-18 0.017633557319641113 0.02427051030099392
v 0.6499999761581421 0.009270509704947472 0.028531694784760475
v -2.05846666488873e-18 0.009270509704947472 0.028531694784760475
v 0.6499999761581421 -1.845916475229359e-11 0.029999999329447746
v 4.09878991510617e-27 -1.8459308734342095e-11 0.029999999329447746
v 0.6499999761581421 -0.009270509704947472 0.028531694784760475
v 2.05846666488873e-18 -0.009270509704947472 0.028531694784760475
v 0.6499999761581421 -0.017633557319641113 0.02427051030099392
v 3.915436268462605e-18 -0.017633557319641113 0.02427051030099392
v 0.6499999761581421 -0.02427051030099392 0.017633557319641113
v 5.3891358711130975e-18 -0.02427051030099392 0.017633557319641113
v 0.6499999761581421 -0.028531694784760475 0.009270509704947472
v 6.335308896323716e-18 -0.028531694784760475 0.009270509704947472
v 0.6499999761581421 -0.029999999329447746 0
v 0.6499999761581421 -0.028531694784760475 -0.009270509704947472
v 0.6499999761581421 -0.02427051030099392 -0.017633557319641113
v 0.6499999761581421 -0.017633557319641113 -0.02427051030099392
v 0.6499999761581421 -0.009270509704947472 -0.028531694784760475
v 0.6499999761581421 6.15324718261645e-12 -0.029999999329447746
v 0.6499999761581421 0.009270509704947472 -0.028531694784760475
v 0.6499999761581421 0.017633557319641113 -0.02427051030099392
v 0.6499999761581421 0.02427051030099392 -0.017633557319641113
v 0.6499999761581421 0.028531694784760475 -0.009270509704947472
v 0.6499999761581421 0.029999999329447746 1.230620553377415e-11
v 0.6499999761581421 0.028531694784760475 0.009270509704947472
v 0.6499999761581421 0.02427051030099392 0.017633557319641113
v 0.6499999761581421 0.017633557319641113 0.02427051030099392
v 0.6499999761581421 0.009270509704947472 0.028531694784760475
v 0.6499999761581421 -1.845916475229359e-11 0.029999999329447746
v 0.6499999761581421 -0.009270509704947472 0.028531694784760475
v 0.6499999761581421 -0.017633557319641113 0.02427051030099392
v 0.6499999761581421 -0.02427051030099392 0.017633557319641113
v 0.6499999761581421 -0.028531694784760475 0.009270509704947472
v 6.335308896323716e-18 -0.028531694784760475 0.009270509704947472
v 5.3891358711130975e-18 -0.02427051030099392 0.017633557319641113
v 3.915436268462605e-18 -0.017633557319641113 0.02427051030099392
v 2.05846666488873e-18 -0.009270509704947472 0.028531694784760475
v 4.09878991510617e-27 -1.8459308734342095e-11 0.029999999329447746
v -2.05846666488873e-18 0.009270509704947472 0.028531694784760475
v -3.915436268462605e-18 0.017633557319641113 0.02427051030099392
v -5.3891358711130975e-18 0.02427051030099392 0.017633557319641113
v -6.335308896323716e-18 0.028531694784760475 0.009270509704947472
v -6.661337998858429e-18 0.029999999329447746 1.230620553377415e-11
v -6.335308896323716e-18 0.028531694784760475 -0.009270509704947472
v -5.3891358711130975e-18 0.02427051030099392 -0.017633557319641113
v -3.915436268462605e-18 0.017633557319641113 -0.02427051030099392
v -2.05846666488873e-18 0.009270509704947472 -0.028531694784760475
v -1.3662632729365576e-27 6.153102766887075e-12 -0.029999999329447746
v 2.05846666488873e-18 -0.009270509704947472 -0.028531694784760475
v 3.915436268462605e-18 -0.017633557319641113 -0.02427051030099392
v 5.3891358711130975e-18 -0.02427051030099392 -0.017633557319641113
v 6.335308896323716e-18 -0.028531694784760475 -0.009270509704947472
v 6.661337998858429e-18 -0.029999999329447746 0
v 1 0 0
v 0.6499999761581421 0.10000000149011612 0
v 0.6499999761581421 0.09510564804077148 0.030901700258255005
v 0.6499999761581421 0.08090169727802277 0.05877852439880371
v 0.6499999761581421 0.05877852439880371 0.08090169727802277
v 0.6499999761581421 0.030901700258255005 0.09510564804077148
v 0.6499999761581421 -2.051034342365199e-11 0.10000000149011612
v 0.6499999761581421 -0.030901700258255005 0.09510564804077148
v 0.6499999761581421 -0.05877852439880371 0.08090169727802277
v 0.6499999761581421 -0.08090169727802277 0.05877852439880371
v 0.6499999761581421 -0.09510564804077148 0.030901700258255005
v 0.6499999761581421 -0.10000000149011612 -4.102068684730398e-11
v 0.6499999761581421 -0.09510564804077148 -0.030901700258255005
v 0.6499999761581421 -0.08090169727802277 -0.05877852439880371
v 0.6499999761581421 -0.05877852439880371 -0.08090169727802277
v 0.6499999761581421 -0.030901700258255005 -0.09510564804077148
v 0.6499999761581421 6.153103027095597e-11 -0.10000000149011612
v 0.6499999761581421 0.030901700258255005 -0.09510564804077148
v 0.6499999761581421 0.05877852439880371 -0.08090169727802277
v 0.6499999761581421 0.08090169727802277 -0.05877852439880371
v 0.6499999761581421 0.09510564804077148 -0.030901700258255005
f 1 2 3
f 2 4 3
f 3 4 5
f 4 6 5
f 5 6 7
f 6 8 7
f 7 8 9
f 8 10 9
f 9 10 11
f 10 12 11
f 11 12 13
f 12 14 13
f 13 14 15
f 14 16 15
f 15 16 17
f 16 18 17
f 17 18 19
f 18 20 19
f 19 20 21
f 20 22 21
f 21 22 23
f 22 24 23
f 23 24 25
f 24 26 25
f 25 26 27
f 26 28 27
f 27 28 29
f 28 30 29
f 29 30 31
f 30 32 31
f 31 32 33
f 32 34 33
f 33 34 35
f 34 36 35
f 35 36 37
f 36 38 37
f 37 38 39
f 38 40 39
f 39 40 1
f 40 2 1
f 43 44 42
f 44 45 42
f 45 46 42
f 46 47 42
f 42 47 41
f 41 47 60
f 60 47 59
f 59 47 58
f 58 47 57
f 57 47 56
f 56 47 55
f 55 47 54
f 54 47 53
f 47 48 53
f 48 49 53
f 53 49 52
f 52 49 51
f 51 49 50
f 62 63 61
f 63 64 61
f 61 64 80
f 80 64 79
f 64 65 79
f 65 66 79
f 79 66 78
f 78 66 77
f 77 66 76
f 76 66 75
f 75 66 74
f 74 66 73
f 73 66 72
f 66 67 72
f 67 68 72
f 72 68 71
f 71 68 70
f 70 68 69
f 97 96 98
f 98 96 99
f 99 96 100
f 100 96 101
f 96 95 101
f 95 94 101
f 101 94 82
f 82 94 83
f 94 93 83
f 93 92 83
f 92 91 83
f 83 91 84
f 91 90 84
f 84 90 85
f 90 89 85
f 85 89 86
f 86 89 87
f 88 87 89
f 81 82 83
f 81 83 84
f 81 84 85
f 81 85 86
f 81 86 87
f 81 87 88
f 81 88 89
f 81 89 90
f 81 90 91
f 81 91 92
f 81 92 93
f 81 93 94
f 81 94 95
f 81 95 96
f 81 96 97
f 81 97 98
f 81 98 99
f 81 99 100
f 81 100 101
f 81 101 82
