# Generated by Visualization Toolkit
v 0.07691799849271774 -0.003002000041306019 -0.015495000407099724
v 0.07310699671506882 -0.003002000041306019 -0.010835999622941017
v 0.06532099843025208 -0.003002000041306019 -0.008147000335156918
v 0.0648450031876564 -0.003002000041306019 -0.012039000168442726
v 0.059415001422166824 -0.003002000041306019 -0.010458000004291534
v 0.05330299958586693 -0.003002000041306019 -0.005950000137090683
v 0.05084900185465813 -0.003002000041306019 -0.009936000220477581
v 0.05274700000882149 -0.003002000041306019 -0.019757000729441643
v 0.07419200241565704 -0.0015589999966323376 -0.012277999892830849
v 0.0665540024638176 -0.0006769999745301902 -0.011366000398993492
v 0.06251099705696106 -0.0011980000417679548 -0.013414000160992146
v 0.05719500035047531 0.00008399999933317304 -0.011064999736845493
v 0.05237499997019768 0.0006040000007487833 -0.010579999536275864
v 0.05115199834108353 0.00008399999933317304 -0.012130999937653542
v 0.07542899996042252 -0.001057000015862286 -0.014580000191926956
v 0.06793499737977982 -0.0002789999998640269 -0.015432000160217285
v 0.06049500033259392 -0.000018999999156221747 -0.016587000340223312
v 0.055688001215457916 0.002833999926224351 -0.01570899970829487
v 0.05178000032901764 0.0016659999964758754 -0.017102999612689018
v 0.051927000284194946 0.0017960000550374389 -0.01699800044298172
v 0.07583100348711014 -0.001057000015862286 -0.01686299964785576
v 0.06849800050258636 -0.0002789999998640269 -0.018626999109983444
v 0.06111200153827667 -0.000018999999156221747 -0.020085999742150307
v 0.056894998997449875 0.002833999926224351 -0.022554999217391014
v 0.0527460016310215 0.0016659999964758754 -0.02258099988102913
v 0.05291999876499176 0.0017960000550374389 -0.022628000006079674
v 0.07596699893474579 -0.0016789999790489674 -0.019051000475883484
v 0.07068900018930435 -0.0010389999952167273 -0.021624000743031502
v 0.06373800337314606 -0.001639000023715198 -0.021310999989509583
v 0.059369999915361404 -0.0007570000016130507 -0.02433899976313114
v 0.05514900013804436 -0.00027600000612437725 -0.026316000148653984
v 0.05343199893832207 -0.0005169999785721302 -0.026002999395132065
v 0.0759269967675209 -0.003002000041306019 -0.020238999277353287
v 0.07265599817037582 -0.003002000041306019 -0.023353999480605125
v 0.06595499813556671 -0.003002000041306019 -0.02022000029683113
v 0.060958001762628555 -0.003002000041306019 -0.021100999787449837
v 0.05703600123524666 -0.003002000041306019 -0.02712400071322918
v 0.053348999470472336 -0.003002000041306019 -0.025996999815106392
v 0.07521399855613708 -0.004443999845534563 -0.019492000341415405
v 0.07031399756669998 -0.0057669999077916145 -0.02374500036239624
v 0.06661999970674515 -0.00432500010356307 -0.020698999986052513
v 0.0615059994161129 -0.004604999907314777 -0.02232000045478344
v 0.05749699845910072 -0.00648800004273653 -0.027853000909090042
v 0.053449999541044235 -0.005526999942958355 -0.02610200084745884
v 0.07425999641418457 -0.0053369998931884766 -0.017376000061631203
v 0.06731600314378738 -0.008320000022649765 -0.0204050000756979
v 0.06689999997615814 -0.0058559998869895935 -0.01898599974811077
v 0.06151600182056427 -0.006763000041246414 -0.020486000925302505
v 0.05702900141477585 -0.010134999640285969 -0.023315999656915665
v 0.05293399840593338 -0.007930000312626362 -0.022704999893903732
v 0.07377699762582779 -0.0053369998931884766 -0.014636999927461147
v 0.06621599942445755 -0.008320000022649765 -0.014165000058710575
v 0.06631000339984894 -0.0058559998869895935 -0.01563899964094162
v 0.06073800101876259 -0.006763000041246414 -0.01607299968600273
v 0.055553000420331955 -0.010134999640285969 -0.014946999959647655
v 0.051913999021053314 -0.007930000312626362 -0.0169220007956028
v 0.07333400100469589 -0.00456500006839633 -0.012121999636292458
v 0.06547799706459045 -0.006128000095486641 -0.00950200017541647
v 0.06543000042438507 -0.004765999969094992 -0.013003000058233738
v 0.05989399924874306 -0.005446999799460173 -0.012232000008225441
v 0.054055001586675644 -0.007369999773800373 -0.008333000354468822
v 0.051134999841451645 -0.006128000095486641 -0.01203100010752678
v 0.07132499665021896 -0.003002000041306019 0.013206000439822674
v 0.07006700336933136 -0.003002000041306019 0.01474399957805872
v 0.06749799847602844 -0.003002000041306019 0.015630999580025673
v 0.06734099984169006 -0.003002000041306019 0.014347000047564507
v 0.06554900109767914 -0.003002000041306019 0.014867999590933323
v 0.06353200227022171 -0.003002000041306019 0.016356000676751137
v 0.06272199749946594 -0.003002000041306019 0.015041000209748745
v 0.06334800273180008 -0.003002000041306019 0.011800000444054604
v 0.07042499631643295 -0.0025259999092668295 0.014267999678850174
v 0.0679050013422966 -0.0022350000217556953 0.014569000340998173
v 0.06657099723815918 -0.0024059999268501997 0.013892999850213528
v 0.06481599807739258 -0.0019839999731630087 0.014667999930679798
v 0.06322599947452545 -0.0018119999440386891 0.014826999977231026
v 0.06282199919223785 -0.0019839999731630087 0.014317000284790993
v 0.0708329975605011 -0.002360000042244792 0.013507000170648098
v 0.06836099922657013 -0.002102999947965145 0.013226999901235104
v 0.06590499728918076 -0.0020169999916106462 0.012846999801695347
v 0.06431899964809418 -0.0010770000517368317 0.013135000132024288
v 0.06302899867296219 -0.0014609999489039183 0.012675999663770199
v 0.06307800114154816 -0.0014189999783411622 0.01271000038832426
v 0.07096599787473679 -0.002360000042244792 0.012755000032484531
v 0.06854599714279175 -0.002102999947965145 0.012172999791800976
v 0.06610900163650513 -0.0020169999916106462 0.011691000312566757
v 0.06471700221300125 -0.0010770000517368317 0.010875999927520752
v 0.06334800273180008 -0.0014609999489039183 0.010866999626159668
v 0.06340599805116653 -0.0014189999783411622 0.010851999744772911
v 0.0710109993815422 -0.0025659999810159206 0.012032999657094479
v 0.06926900148391724 -0.0023539999965578318 0.011183000169694424
v 0.06697499752044678 -0.002552000107243657 0.011288000270724297
v 0.06553400307893753 -0.0022619999945163727 0.010288000106811523
v 0.06414099782705307 -0.002102999947965145 0.009634999558329582
v 0.06357499957084656 -0.002182000083848834 0.009739000350236893
v 0.07099799811840057 -0.003002000041306019 0.011641999706625938
v 0.06991799920797348 -0.003002000041306019 0.010613000020384789
v 0.06770700216293335 -0.003002000041306019 0.011646999977529049
v 0.06605800241231918 -0.003002000041306019 0.011355999857187271
v 0.06476400047540665 -0.003002000041306019 0.009368999861180782
v 0.06354700028896332 -0.003002000041306019 0.009739999659359455
v 0.070762999355793 -0.0034779999405145645 0.011886999942362309
v 0.06914599984884262 -0.003914999775588512 0.010483000427484512
v 0.06792700290679932 -0.0034390001092106104 0.011489000171422958
v 0.06623899936676025 -0.0035310001112520695 0.010954000055789948
v 0.06491599977016449 -0.004153000190854073 0.009127000346779823
v 0.0635799989104271 -0.0038350000977516174 0.009705999866127968
v 0.07044800370931625 -0.003773000091314316 0.01258500013500452
v 0.06815599650144577 -0.004757000133395195 0.011586000211536884
v 0.06801900267601013 -0.003944000229239464 0.01205500029027462
v 0.06624200195074081 -0.004242999944835901 0.011559000238776207
v 0.06476200371980667 -0.005355999805033207 0.010625000111758709
v 0.06340999901294708 -0.004627999849617481 0.010827000252902508
v 0.07028800249099731 -0.003773000091314316 0.01348899956792593
v 0.06779299676418304 -0.004757000133395195 0.013646000064909458
v 0.06782399863004684 -0.003944000229239464 0.013159000314772129
v 0.06598500162363052 -0.004242999944835901 0.013016000390052795
v 0.06427499651908875 -0.005355999805033207 0.013388000428676605
v 0.06307400017976761 -0.004627999849617481 0.012734999880194664
v 0.07014200091362 -0.0035180000122636557 0.01432000007480383
v 0.06755000352859497 -0.004033000208437443 0.015184000134468079
v 0.06753399968147278 -0.0035840000491589308 0.014028999954462051
v 0.0657069981098175 -0.0038079998921602964 0.01428299956023693
v 0.06378000229597092 -0.004443000070750713 0.015569999814033508
v 0.06281699985265732 -0.004033000208437443 0.014348999597132206
v 0.05065400153398514 -0.003002000041306019 0.026062000542879105
v 0.04939600080251694 -0.003002000041306019 0.02759999968111515
v 0.04682699963450432 -0.003002000041306019 0.02848700061440468
v 0.04666899889707565 -0.003002000041306019 0.027202000841498375
v 0.04487700015306473 -0.003002000041306019 0.027723999693989754
v 0.0428600013256073 -0.003002000041306019 0.029211999848484993
v 0.04205099865794182 -0.003002000041306019 0.02789600007236004
v 0.04267700016498566 -0.003002000041306019 0.024654999375343323
v 0.04975400120019913 -0.0025259999092668295 0.027123000472784042
v 0.04723300039768219 -0.0022350000217556953 0.027425000444054604
v 0.04589900001883507 -0.0024059999268501997 0.02674899995326996
v 0.044144999235868454 -0.0019839999731630087 0.02752400003373623
v 0.04255399852991104 -0.0018119999440386891 0.02768399938941002
v 0.04215100035071373 -0.0019839999731630087 0.027171999216079712
v 0.050161998718976974 -0.002360000042244792 0.026364000514149666
v 0.04768899828195572 -0.002102999947965145 0.026083000004291534
v 0.04523399844765663 -0.0020169999916106462 0.02570199966430664
v 0.04364699870347977 -0.0010770000517368317 0.025992000475525856
v 0.042357999831438065 -0.0014609999489039183 0.025530999526381493
v 0.042406998574733734 -0.0014189999783411622 0.02556600049138069
v 0.05029499903321266 -0.002360000042244792 0.025611000135540962
v 0.047874998301267624 -0.002102999947965145 0.025028999894857407
v 0.045437999069690704 -0.0020169999916106462 0.024546999484300613
v 0.04404599964618683 -0.0010770000517368317 0.023731999099254608
v 0.04267700016498566 -0.0014609999489039183 0.023723000660538673
v 0.04273400083184242 -0.0014189999783411622 0.023708000779151917
v 0.05034000054001808 -0.0025659999810159206 0.02488899976015091
v 0.048597998917102814 -0.0023539999965578318 0.024039000272750854
v 0.04630399867892265 -0.002552000107243657 0.024142000824213028
v 0.04486300051212311 -0.0022619999945163727 0.023143000900745392
v 0.043469998985528946 -0.002102999947965145 0.022491000592708588
v 0.04290299862623215 -0.002182000083848834 0.022593999281525612
v 0.05032699927687645 -0.003002000041306019 0.02449600026011467
v 0.049247000366449356 -0.003002000041306019 0.023468000814318657
v 0.04703599959611893 -0.003002000041306019 0.02450300008058548
v 0.04538699984550476 -0.003002000041306019 0.024212000891566277
v 0.04409300163388252 -0.003002000041306019 0.022223999723792076
v 0.04287499934434891 -0.003002000041306019 0.022597000002861023
v 0.05009099841117859 -0.0034779999405145645 0.02474300004541874
v 0.04847399890422821 -0.003914999775588512 0.023339999839663506
v 0.04725499823689461 -0.0034390001092106104 0.024344999343156815
v 0.04556800052523613 -0.0035310001112520695 0.023809999227523804
v 0.044245000928640366 -0.004153000190854073 0.021983999758958817
v 0.04290900006890297 -0.0038350000977516174 0.022562000900506973
v 0.049775999039411545 -0.003773000091314316 0.02544100023806095
v 0.047485001385211945 -0.004757000133395195 0.024442000314593315
v 0.04734800010919571 -0.003944000229239464 0.02490999922156334
v 0.04557099938392639 -0.004242999944835901 0.024414999410510063
v 0.04408999904990196 -0.005355999805033207 0.02348100021481514
v 0.04273900017142296 -0.004627999849617481 0.0236820001155138
v 0.04961699992418289 -0.003773000091314316 0.02634499967098236
v 0.04712200164794922 -0.004757000133395195 0.026499999687075615
v 0.04715299978852272 -0.003944000229239464 0.026014000177383423
v 0.0453139990568161 -0.004242999944835901 0.02587199956178665
v 0.04360299929976463 -0.005355999805033207 0.026241999119520187
v 0.0424019992351532 -0.004627999849617481 0.02559100091457367
v 0.04947099834680557 -0.0035180000122636557 0.027174999937415123
v 0.04687799885869026 -0.004033000208437443 0.028039000928401947
v 0.04686199873685837 -0.0035840000491589308 0.02688400074839592
v 0.04503599926829338 -0.0038079998921602964 0.027139000594615936
v 0.043108999729156494 -0.004443000070750713 0.028426000848412514
v 0.04214499890804291 -0.004033000208437443 0.027204999700188637
v 0.03429099917411804 -0.003002000041306019 0.03967700153589249
v 0.03303299844264984 -0.003002000041306019 0.04121499881148338
v 0.03046399913728237 -0.003002000041306019 0.04210200160741806
v 0.030306000262498856 -0.003002000041306019 0.040817998349666595
v 0.028514999896287918 -0.003002000041306019 0.04134000092744827
v 0.02649799920618534 -0.003002000041306019 0.042826998978853226
v 0.02568800002336502 -0.003002000041306019 0.04151099920272827
v 0.02631399966776371 -0.003002000041306019 0.03827099874615669
v 0.03339099884033203 -0.0025259999092668295 0.040738001465797424
v 0.030869999900460243 -0.0022350000217556953 0.041039999574422836
v 0.02953599952161312 -0.0024059999268501997 0.04036400094628334
v 0.027782000601291656 -0.0019839999731630087 0.04113899916410446
v 0.026190999895334244 -0.0018119999440386891 0.04129999876022339
v 0.025787999853491783 -0.0019839999731630087 0.04078799858689308
v 0.03379900008440018 -0.002360000042244792 0.0399789996445179
v 0.03132599964737892 -0.002102999947965145 0.039698000997304916
v 0.028870999813079834 -0.0020169999916106462 0.03931799903512001
v 0.027285000309348106 -0.0010770000517368317 0.03960699960589409
v 0.025994999334216118 -0.0014609999489039183 0.03914799913764
v 0.026043999940156937 -0.0014189999783411622 0.03918199986219406
v 0.033932000398635864 -0.002360000042244792 0.039225999265909195
v 0.031511999666690826 -0.002102999947965145 0.03864400088787079
v 0.029075000435113907 -0.0020169999916106462 0.03816299885511398
v 0.027682999148964882 -0.0010770000517368317 0.03734799847006798
v 0.02631399966776371 -0.0014609999489039183 0.03734000027179718
v 0.026371000334620476 -0.0014189999783411622 0.0373230017721653
v 0.033976998180150986 -0.0025659999810159206 0.03850400075316429
v 0.032235000282526016 -0.0023539999965578318 0.037654999643564224
v 0.029941000044345856 -0.002552000107243657 0.037758998572826385
v 0.02850000001490116 -0.0022619999945163727 0.03675900027155876
v 0.02710700035095215 -0.002102999947965145 0.03610699996352196
v 0.02653999999165535 -0.002182000083848834 0.03621000051498413
v 0.03396400064229965 -0.003002000041306019 0.03811199963092804
v 0.03288400173187256 -0.003002000041306019 0.03708399832248688
v 0.03067299909889698 -0.003002000041306019 0.03811800107359886
v 0.029023999348282814 -0.003002000041306019 0.0378279983997345
v 0.027729999274015427 -0.003002000041306019 0.035840000957250595
v 0.026512999087572098 -0.003002000041306019 0.036212000995874405
v 0.03372799977660179 -0.0034779999405145645 0.03835900127887726
v 0.03211100026965141 -0.003914999775588512 0.036956001073122025
v 0.030892999842762947 -0.0034390001092106104 0.0379600003361702
v 0.029205000028014183 -0.0035310001112520695 0.03742599859833717
v 0.02788200043141842 -0.004153000190854073 0.03559799864888191
v 0.026545999571681023 -0.0038350000977516174 0.03617699816823006
v 0.03341300040483475 -0.003773000091314316 0.03905700147151947
v 0.031122000887989998 -0.004757000133395195 0.038058001548051834
v 0.030984999611973763 -0.003944000229239464 0.03852599859237671
v 0.029208000749349594 -0.004242999944835901 0.03803100064396858
v 0.027727000415325165 -0.005355999805033207 0.03709600120782852
v 0.02637599967420101 -0.004627999849617481 0.03729800134897232
v 0.033254001289606094 -0.003773000091314316 0.03996099904179573
v 0.030758999288082123 -0.004757000133395195 0.040116000920534134
v 0.030789999291300774 -0.003944000229239464 0.03963100165128708
v 0.028951000422239304 -0.004242999944835901 0.039487000554800034
v 0.027241000905632973 -0.005355999805033207 0.03985799849033356
v 0.0260390006005764 -0.004627999849617481 0.03920599818229675
v 0.033107999712228775 -0.0035180000122636557 0.04079100117087364
v 0.030515000224113464 -0.004033000208437443 0.04165500029921532
v 0.03049900010228157 -0.0035840000491589308 0.04050000011920929
v 0.028673000633716583 -0.0038079998921602964 0.04075400158762932
v 0.026745999231934547 -0.004443000070750713 0.042040999978780746
v 0.02578200027346611 -0.004033000208437443 0.04081999883055687
v 0.019593000411987305 -0.003002000041306019 0.05104900151491165
v 0.018334999680519104 -0.003002000041306019 0.05258600041270256
v 0.015766000375151634 -0.003002000041306019 0.05347299948334694
v 0.015608999878168106 -0.003002000041306019 0.052188001573085785
v 0.013817000202834606 -0.003002000041306019 0.052710000425577164
v 0.011800000444054604 -0.003002000041306019 0.0541980005800724
v 0.010990000329911709 -0.003002000041306019 0.052882999181747437
v 0.011615999974310398 -0.003002000041306019 0.04964200034737587
v 0.018693000078201294 -0.0025259999092668295 0.05211000144481659
v 0.016172999516129494 -0.0022350000217556953 0.052411001175642014
v 0.014839000068604946 -0.0024059999268501997 0.05173499882221222
v 0.01308399997651577 -0.0019839999731630087 0.05251000076532364
v 0.011494000442326069 -0.0018119999440386891 0.05266899988055229
v 0.011090000160038471 -0.0019839999731630087 0.05215800181031227
v 0.01910099945962429 -0.002360000042244792 0.05134899914264679
v 0.016628000885248184 -0.002102999947965145 0.051068998873233795
v 0.014173000119626522 -0.0020169999916106462 0.0506879985332489
v 0.01258699968457222 -0.0010770000517368317 0.05097699910402298
v 0.011296999640762806 -0.0014609999489039183 0.0505170002579689
v 0.011346000246703625 -0.0014189999783411622 0.050551000982522964
v 0.019233999773859978 -0.002360000042244792 0.05059700086712837
v 0.01681400090456009 -0.002102999947965145 0.05001499876379967
v 0.01437699981033802 -0.0020169999916106462 0.049532998353242874
v 0.012985000386834145 -0.0010770000517368317 0.04871800169348717
v 0.011615999974310398 -0.0014609999489039183 0.04870999976992607
v 0.011673999950289726 -0.0014189999783411622 0.04869399964809418
v 0.01927899941802025 -0.0025659999810159206 0.04987499862909317
v 0.01753699965775013 -0.0023539999965578318 0.049024999141693115
v 0.015243000350892544 -0.002552000107243657 0.04912799969315529
v 0.01380200032144785 -0.0022619999945163727 0.04812999814748764
v 0.012408999726176262 -0.002102999947965145 0.04747699946165085
v 0.0118429996073246 -0.002182000083848834 0.04758000001311302
v 0.019266000017523766 -0.003002000041306019 0.04948199912905693
v 0.018185999244451523 -0.003002000041306019 0.048454999923706055
v 0.015975000336766243 -0.003002000041306019 0.04948800057172775
v 0.014326999895274639 -0.003002000041306019 0.0491969995200634
v 0.013031999580562115 -0.003002000041306019 0.047210000455379486
v 0.01181500032544136 -0.003002000041306019 0.047582000494003296
v 0.019030999392271042 -0.0034779999405145645 0.04972900077700615
v 0.017413999885320663 -0.003914999775588512 0.048326000571250916
v 0.01619499921798706 -0.0034390001092106104 0.049330998212099075
v 0.014507000334560871 -0.0035310001112520695 0.04879499971866608
v 0.013183999806642532 -0.004153000190854073 0.04696900025010109
v 0.01184799987822771 -0.0038350000977516174 0.047547999769449234
v 0.018716000020503998 -0.003773000091314316 0.05042799934744835
v 0.01642400026321411 -0.004757000133395195 0.049428001046180725
v 0.016287000849843025 -0.003944000229239464 0.04989499971270561
v 0.014510000124573708 -0.004242999944835901 0.04940100014209747
v 0.013030000030994415 -0.005355999805033207 0.0484669990837574
v 0.0116779999807477 -0.004627999849617481 0.0486689992249012
v 0.018556000664830208 -0.003773000091314316 0.05133099853992462
v 0.016061000525951385 -0.004757000133395195 0.05148699879646301
v 0.016092000529170036 -0.003944000229239464 0.050999999046325684
v 0.014252999797463417 -0.004242999944835901 0.05085799843072891
v 0.012543000280857086 -0.005355999805033207 0.05122800171375275
v 0.011340999975800514 -0.004627999849617481 0.05057799816131592
v 0.01840999908745289 -0.0035180000122636557 0.05216100066900253
v 0.015816999599337578 -0.004033000208437443 0.05302499979734421
v 0.01580199971795082 -0.0035840000491589308 0.05187100172042847
v 0.013975000008940697 -0.0038079998921602964 0.0521249994635582
v 0.012047999538481236 -0.004443000070750713 0.053412001579999924
v 0.011083999648690224 -0.004033000208437443 0.05219100043177605
v 0.06140799820423126 -0.003002000041306019 0.010900000110268593
v 0.060635000467300415 -0.003002000041306019 0.014349999837577343
v 0.05903000012040138 -0.003002000041306019 0.015035999938845634
v 0.05580100044608116 -0.003002000041306019 0.013691999949514866
v 0.051656998693943024 -0.003002000041306019 0.012865000404417515
v 0.0476359985768795 -0.003002000041306019 0.012737000361084938
v 0.04487600177526474 -0.003002000041306019 0.013414000160992146
v 0.04354099929332733 -0.003002000041306019 0.011628000065684319
v 0.04428499937057495 -0.003002000041306019 0.007880999706685543
v 0.061080001294612885 -0.0013909999979659915 0.013469000346958637
v 0.05958399921655655 -0.000910000002477318 0.013989999890327454
v 0.05598299950361252 -0.000910000002477318 0.01335499994456768
v 0.052028998732566833 -0.0009340000106021762 0.012618999928236008
v 0.04792200028896332 -0.0006929999799467623 0.012285999953746796
v 0.0456480011343956 -0.0004290000069886446 0.012316999956965446
v 0.04389499872922897 -0.0010310000507161021 0.01102800015360117
v 0.06165499985218048 -0.0006680000224150717 0.0118429996073246
v 0.06032299995422363 0.00011100000119768083 0.011907000094652176
v 0.05644199997186661 0.0007329999934881926 0.011462000198662281
v 0.05268099904060364 0.0007329999934881926 0.010799000039696693
v 0.048500001430511475 0.001044000033289194 0.01018300000578165
v 0.04666399955749512 0.0009660000214353204 0.009828000329434872
v 0.04447000101208687 0.00026599998818710446 0.009170999750494957
v 0.061962999403476715 -0.0006680000224150717 0.010099000297486782
v 0.060731999576091766 0.00011100000119768083 0.009584000334143639
v 0.05693399906158447 0.0007329999934881926 0.008674000389873981
v 0.0531730018556118 0.0007329999934881926 0.008011000230908394
v 0.049031998962163925 0.001044000033289194 0.007160000037401915
v 0.04718700051307678 0.0009660000214353204 0.006864999886602163
v 0.04490000009536743 0.00026599998818710446 0.006730999797582626
v 0.062137000262737274 -0.0016789999790489674 0.008871999569237232
v 0.060864001512527466 -0.001221999991685152 0.007903999648988247
v 0.05766899883747101 -0.0017760000191628933 0.008240999653935432
v 0.05306899920105934 -0.0017760000191628933 0.007430000230669975
v 0.04912799969315529 -0.0012710000155493617 0.005913000088185072
v 0.047162000089883804 -0.0008619999862276018 0.004898999817669392
v 0.04490099847316742 -0.0013670000480487943 0.005324000027030706
v 0.06214199960231781 -0.003002000041306019 0.00860700011253357
v 0.06077200174331665 -0.003002000041306019 0.007493000011891127
v 0.058017000555992126 -0.003002000041306019 0.010011999867856503
v 0.052577000111341476 -0.003002000041306019 0.009052000008523464
v 0.04885699972510338 -0.003002000041306019 0.006748999934643507
v 0.046835001558065414 -0.003002000041306019 0.004648000001907349
v 0.04463500156998634 -0.003002000041306019 0.005423000082373619
v 0.06159700080752373 -0.004395999945700169 0.008659999817609787
v 0.060283999890089035 -0.004997999873012304 0.007447999902069569
v 0.05722200125455856 -0.0039160000160336494 0.008671999908983707
v 0.05256899818778038 -0.003868000116199255 0.007930000312626362
v 0.04882099851965904 -0.0044929999858140945 0.006250999867916107
v 0.04662799835205078 -0.005237999837845564 0.004648999776691198
v 0.04472799971699715 -0.0045889997854828835 0.005371999926865101
v 0.060857001692056656 -0.005570000037550926 0.009816000238060951
v 0.059498999267816544 -0.006814000196754932 0.009096000343561172
v 0.05614599958062172 -0.00572599982842803 0.008923999965190887
v 0.05229499936103821 -0.005570000037550926 0.008306000381708145
v 0.04850099980831146 -0.0062699997797608376 0.007366000209003687
v 0.04608599841594696 -0.007282000035047531 0.006550999823957682
v 0.04456999897956848 -0.006115000229328871 0.00673400005325675
v 0.06051899865269661 -0.005570000037550926 0.011731999926269054
v 0.05899700149893761 -0.006814000196754932 0.011943000368773937
v 0.05578799918293953 -0.00572599982842803 0.010958000086247921
v 0.05195700004696846 -0.005570000037550926 0.010223000310361385
v 0.04806999862194061 -0.0062699997797608376 0.00980599969625473
v 0.04552299901843071 -0.007282000035047531 0.00974700041115284
v 0.04416000097990036 -0.006115000229328871 0.009057000279426575
v 0.060499001294374466 -0.004685999825596809 0.013484000228345394
v 0.05888399854302406 -0.005309999920427799 0.01421900000423193
v 0.05571100115776062 -0.004780999850481749 0.012798000127077103
v 0.05172999948263168 -0.00471000000834465 0.011978000402450562
v 0.047749001532793045 -0.00506999995559454 0.011864000000059605
v 0.04506099969148636 -0.005671000108122826 0.012369999662041664
v 0.04374900087714195 -0.004925999790430069 0.010924000293016434
v 0.040929000824689865 -0.003002000041306019 0.024313999339938164
v 0.04030200093984604 -0.003002000041306019 0.027108000591397285
v 0.03900099918246269 -0.003002000041306019 0.027664000168442726
v 0.036386001855134964 -0.003002000041306019 0.02657400071620941
v 0.03302999958395958 -0.003002000041306019 0.02590399980545044
v 0.02977300062775612 -0.003002000041306019 0.025800999253988266
v 0.027538999915122986 -0.003002000041306019 0.02634900063276291
v 0.02645700052380562 -0.003002000041306019 0.024901999160647392
v 0.027058999985456467 -0.003002000041306019 0.02186799980700016
v 0.0406620018184185 -0.0016969999996945262 0.026395000517368317
v 0.039452001452445984 -0.0013070000568404794 0.026815999299287796
v 0.03653499856591225 -0.0013070000568404794 0.026302000507712364
v 0.03333299979567528 -0.0013269999762997031 0.02570600062608719
v 0.03000500053167343 -0.0011320000048726797 0.025436999276280403
v 0.028162000700831413 -0.0009180000051856041 0.025460999459028244
v 0.026743000373244286 -0.0014049999881535769 0.024416999891400337
v 0.041127998381853104 -0.0011109999613836408 0.02507700026035309
v 0.040049999952316284 -0.00048099999548867345 0.02512899972498417
v 0.03690500184893608 0.00002300000051036477 0.024769000709056854
v 0.03386000171303749 0.00002300000051036477 0.02423200011253357
v 0.030472999438643456 0.00027600000612437725 0.023731999099254608
v 0.028985999524593353 0.00021300000662449747 0.023445000872015953
v 0.027208000421524048 -0.0003539999888744205 0.02291399985551834
v 0.041377000510692596 -0.0011109999613836408 0.023665999993681908
v 0.04038200154900551 -0.00048099999548867345 0.023245999589562416
v 0.037303999066352844 0.00002300000051036477 0.02251099981367588
v 0.034258000552654266 0.00002300000051036477 0.021973999217152596
v 0.030904000625014305 0.00027600000612437725 0.021284999325871468
v 0.029409000650048256 0.00021300000662449747 0.021045999601483345
v 0.027557000517845154 -0.0003539999888744205 0.0209369994699955
v 0.04151900112628937 -0.0019310000352561474 0.02267099916934967
v 0.04048699885606766 -0.0015610000118613243 0.021886000409722328
v 0.03790000081062317 -0.0020089999306946993 0.0221599992364645
v 0.03417300060391426 -0.0020089999306946993 0.02150299958884716
v 0.0309820007532835 -0.001598999951966107 0.02027300000190735
v 0.029388999566435814 -0.0012679999927058816 0.019453000277280807
v 0.02755800075829029 -0.0016769999638199806 0.01979699917137623
v 0.04152299836277962 -0.003002000041306019 0.02245599962770939
v 0.04041299968957901 -0.003002000041306019 0.021553000435233116
v 0.03818200156092644 -0.003002000041306019 0.023593999445438385
v 0.0337739996612072 -0.003002000041306019 0.022816000506281853
v 0.030762000009417534 -0.003002000041306019 0.02095000073313713
v 0.029123999178409576 -0.003002000041306019 0.019248999655246735
v 0.02734299935400486 -0.003002000041306019 0.019876999780535698
v 0.04108100011944771 -0.004131999798119068 0.022499000653624535
v 0.040017999708652496 -0.0046190000139176846 0.02151699922978878
v 0.03753799945116043 -0.003742000088095665 0.022508999332785606
v 0.03376799821853638 -0.003703000023961067 0.021908000111579895
v 0.030733000487089157 -0.004209999926388264 0.02054700069129467
v 0.028957000002264977 -0.004813000094145536 0.01924999989569187
v 0.027417000383138657 -0.004286999814212322 0.01983500085771084
v 0.04048300161957741 -0.00508200004696846 0.023435000330209732
v 0.039381999522447586 -0.00609100004658103 0.022853000089526176
v 0.03666599839925766 -0.00520800007507205 0.02271299995481968
v 0.03354699909687042 -0.00508200004696846 0.02221200056374073
v 0.030473999679088593 -0.0056489999406039715 0.021452000364661217
v 0.028519000858068466 -0.0064690001308918 0.02079099975526333
v 0.027289999648928642 -0.0055229999125003815 0.020937999710440636
v 0.04020899906754494 -0.00508200004696846 0.024986999109387398
v 0.03897500038146973 -0.00609100004658103 0.025157999247312546
v 0.036375001072883606 -0.00520800007507205 0.02436099946498871
v 0.03327399864792824 -0.00508200004696846 0.023763999342918396
v 0.030124999582767487 -0.0056489999406039715 0.023428000509738922
v 0.02806200087070465 -0.0064690001308918 0.023378999903798103
v 0.026957999914884567 -0.0055229999125003815 0.02282099984586239
v 0.040192000567913055 -0.004364999942481518 0.026405999436974525
v 0.0388839989900589 -0.004871999844908714 0.0270019993185997
v 0.03631399944424629 -0.004443000070750713 0.025849999859929085
v 0.03308900073170662 -0.004385000094771385 0.025187000632286072
v 0.029864000156521797 -0.004676999989897013 0.02509400062263012
v 0.027688000351190567 -0.005164000205695629 0.02550400048494339
v 0.026623999699950218 -0.004559999797493219 0.02433199994266033
v 0.024118000641465187 -0.003002000041306019 0.038019999861717224
v 0.023566000163555145 -0.003002000041306019 0.04053699970245361
v 0.02250000089406967 -0.003002000041306019 0.04105599969625473
v 0.020392000675201416 -0.003002000041306019 0.040119998157024384
v 0.017673999071121216 -0.003002000041306019 0.03956900164484978
v 0.015030000358819962 -0.003002000041306019 0.03952600061893463
v 0.013205000199377537 -0.003002000041306019 0.04005200043320656
v 0.012347999960184097 -0.003002000041306019 0.038770999759435654
v 0.012884000316262245 -0.003002000041306019 0.036038998514413834
v 0.02387000061571598 -0.0018279999494552612 0.03989100083708763
v 0.02287900075316429 -0.0014769999543204904 0.04028899967670441
v 0.020517000928521156 -0.0014769999543204904 0.039872001856565475
v 0.01792299933731556 -0.0014949999749660492 0.039386000484228134
v 0.015223000198602676 -0.001319000031799078 0.03919500112533569
v 0.01372500043362379 -0.0011259999591857195 0.03924600034952164
v 0.012587999925017357 -0.0015650000423192978 0.03832999989390373
v 0.024268999695777893 -0.0013010000111535192 0.03870199993252754
v 0.023391999304294586 -0.0007329999934881926 0.03876499831676483
v 0.02084200084209442 -0.0002789999998640269 0.03849099949002266
v 0.018373999744653702 -0.0002789999998640269 0.03805600106716156
v 0.0156289990991354 -0.00005199999941396527 0.03765900060534477
v 0.014425000175833702 -0.00010900000052060932 0.037425000220537186
v 0.01298999972641468 -0.0006200000061653554 0.03697500005364418
v 0.02449299953877926 -0.0013010000111535192 0.03743100166320801
v 0.02369000017642975 -0.0007329999934881926 0.037071000784635544
v 0.021199999377131462 -0.0002789999998640269 0.03645699843764305
v 0.01873200014233589 -0.0002789999998640269 0.03602200001478195
v 0.016016999259591103 -0.00005199999941396527 0.03545600175857544
v 0.014805999584496021 -0.00010900000052060932 0.0352649986743927
v 0.013302999548614025 -0.0006200000061653554 0.03519599884748459
v 0.024622999131679535 -0.0020379999186843634 0.03653800114989281
v 0.023795999586582184 -0.0017049999441951513 0.03584900125861168
v 0.021689999848604202 -0.002107999986037612 0.03613400086760521
v 0.018671000376343727 -0.002107999986037612 0.03560199961066246
v 0.016095999628305435 -0.0017399999778717756 0.03454799950122833
v 0.014813999645411968 -0.0014420000370591879 0.0338359996676445
v 0.013321000151336193 -0.0018100000452250242 0.034171998500823975
v 0.024630000814795494 -0.003002000041306019 0.036343999207019806
v 0.023740999400615692 -0.003002000041306019 0.03555100038647652
v 0.0218959990888834 -0.003002000041306019 0.0374159999191761
v 0.018326999619603157 -0.003002000041306019 0.036786001175642014
v 0.01590700075030327 -0.003002000041306019 0.035158999264240265
v 0.014601999893784523 -0.003002000041306019 0.033656999468803406
v 0.013145999982953072 -0.003002000041306019 0.034247998148202896
v 0.02426999993622303 -0.004017999861389399 0.036389000713825226
v 0.02342200092971325 -0.0044570001773536205 0.03552500158548355
v 0.021390000358223915 -0.003667999990284443 0.036451999098062515
v 0.018334999680519104 -0.0036329999566078186 0.035971999168395996
v 0.015890000388026237 -0.004087999928742647 0.034797001630067825
v 0.014467000029981136 -0.004633000120520592 0.03365999832749367
v 0.013206000439822674 -0.004157999996095896 0.034210000187158585
v 0.02376900054514408 -0.004873999860137701 0.03723800182342529
v 0.02288299985229969 -0.005781999789178371 0.03673199936747551
v 0.02067900076508522 -0.004987999796867371 0.03664899989962578
v 0.018151000142097473 -0.004873999860137701 0.03624799847602844
v 0.015665000304579735 -0.005384999793022871 0.03561199828982353
v 0.014085999689996243 -0.006122000049799681 0.035050999373197556
v 0.013085000216960907 -0.0052709998562932014 0.035200998187065125
v 0.02352200075984001 -0.004873999860137701 0.03863599896430969
v 0.022516999393701553 -0.005781999789178371 0.03880799934267998
v 0.02041799947619438 -0.004987999796867371 0.03813200071454048
v 0.01790500059723854 -0.004873999860137701 0.03764500096440315
v 0.015351000241935253 -0.005384999793022871 0.03739200159907341
v 0.013675999827682972 -0.006122000049799681 0.037379998713731766
v 0.012786000035703182 -0.0052709998562932014 0.03689499944448471
v 0.023486999794840813 -0.004228999838232994 0.03990999981760979
v 0.022414999082684517 -0.004683999810367823 0.040463000535964966
v 0.020344000309705734 -0.004298999905586243 0.039468999952077866
v 0.017734000459313393 -0.004246999975293875 0.0389229990541935
v 0.01511400006711483 -0.004509999882429838 0.03889000043272972
v 0.013338999822735786 -0.004947000183165073 0.039292000234127045
v 0.012493000365793705 -0.004404000006616116 0.03825699910521507
v 0.009906000457704067 -0.003002000041306019 0.04947600141167641
v 0.009374000132083893 -0.003002000041306019 0.051996998488903046
v 0.008488000370562077 -0.003002000041306019 0.05254700034856796
v 0.0067980000749230385 -0.003002000041306019 0.05168500170111656
v 0.004598999861627817 -0.003002000041306019 0.051224999129772186
v 0.0024429999757558107 -0.003002000041306019 0.05126899853348732
v 0.0009369999752379954 -0.003002000041306019 0.05185199901461601
v 0.0002809999859891832 -0.003002000041306019 0.050606001168489456
v 0.0008060000254772604 -0.003002000041306019 0.047871001064777374
v 0.00964299961924553 -0.0019450000254437327 0.051343999803066254
v 0.008821999654173851 -0.0016289999475702643 0.051771000027656555
v 0.006907999981194735 -0.0016289999475702643 0.051433999091386795
v 0.004807999823242426 -0.0016449999529868364 0.05103499814867973
v 0.002612000098451972 -0.0014880000380799174 0.05093400180339813
v 0.0013889999827370048 -0.0013139999937266111 0.051033999770879745
v 0.0004900000058114529 -0.0017079999670386314 0.05015899986028671
v 0.010006999596953392 -0.001471000025048852 0.05014999955892563
v 0.009289000183343887 -0.0009599999757483602 0.050241000950336456
v 0.0072189997881650925 -0.0005510000046342611 0.050050001591444016
v 0.0052189999260008335 -0.0005510000046342611 0.04969700053334236
v 0.0029929999727755785 -0.0003480000013951212 0.04939299821853638
v 0.002019000006839633 -0.0003980000037699938 0.049199000000953674
v 0.0008609999786131084 -0.0008570000063627958 0.04879799857735634
v 0.010231000371277332 -0.001471000025048852 0.04887799918651581
v 0.009588000364601612 -0.0009599999757483602 0.04854600131511688
v 0.007577000185847282 -0.0005510000046342611 0.04801800101995468
v 0.005578000098466873 -0.0005510000046342611 0.047665998339653015
v 0.003381999908015132 -0.0003480000013951212 0.047189999371767044
v 0.002400000113993883 -0.0003980000037699938 0.0470380000770092
v 0.0011749999830499291 -0.0008570000063627958 0.047019001096487045
v 0.010366999544203281 -0.002133999951183796 0.047986000776290894
v 0.009715000167489052 -0.0018339999951422215 0.04732700064778328
v 0.007987000048160553 -0.002196999965235591 0.047680001705884933
v 0.005541000049561262 -0.002196999965235591 0.047249000519514084
v 0.0034759999252855778 -0.001867000013589859 0.04628400132060051
v 0.0024530000519007444 -0.0015979999443516135 0.045618001371622086
v 0.0012229999992996454 -0.001930000027641654 0.046000998467206955
v 0.010378999635577202 -0.003002000041306019 0.04779199883341789
v 0.00967899989336729 -0.003002000041306019 0.04703399911522865
v 0.008112999610602856 -0.003002000041306019 0.048948001116514206
v 0.005222000181674957 -0.003002000041306019 0.04843800142407417
v 0.0033019999973475933 -0.003002000041306019 0.04689899832010269
v 0.00228599994443357 -0.003002000041306019 0.04544699937105179
v 0.0010779999429360032 -0.003002000041306019 0.04608200117945671
v 0.010083000175654888 -0.003916999790817499 0.047850001603364944
v 0.009417999535799026 -0.004310999996960163 0.04701799899339676
v 0.0077320002019405365 -0.003601999953389168 0.048006001859903336
v 0.005255000200122595 -0.0035689999349415302 0.04762699827551842
v 0.0032999999821186066 -0.0039809998124837875 0.046539001166820526
v 0.0021750000305473804 -0.004470000043511391 0.0454539991915226
v 0.0011289999820291996 -0.004044000059366226 0.04604300111532211
v 0.009646999649703503 -0.004687000066041946 0.04870999976992607
v 0.008941000327467918 -0.005503000225871801 0.04823499917984009
v 0.007145000156015158 -0.0047889999113976955 0.04822399839758873
v 0.005096000153571367 -0.004687000066041946 0.0479080006480217
v 0.0030879999976605177 -0.0051460000686347485 0.04735700041055679
v 0.0018189999973401427 -0.005810000002384186 0.04684999957680702
v 0.0009980000322684646 -0.005044000223278999 0.04703199863433838
v 0.00940100010484457 -0.004687000066041946 0.05010800063610077
v 0.008574999868869781 -0.005503000225871801 0.050310999155044556
v 0.006883999798446894 -0.0047889999113976955 0.04970800131559372
v 0.0048500001430511475 -0.004687000066041946 0.04930499941110611
v 0.0027749999426305294 -0.0051460000686347485 0.0491349995136261
v 0.0014090000186115503 -0.005810000002384186 0.04917899891734123
v 0.0006990000256337225 -0.005044000223278999 0.04872699826955795
v 0.009329999797046185 -0.0041069998405873775 0.05137600004673004
v 0.008437000215053558 -0.004517000168561935 0.051961999386548996
v 0.006779999937862158 -0.004168999847024679 0.05104000121355057
v 0.004668999928981066 -0.004122000187635422 0.05058100074529648
v 0.002532999962568283 -0.004358999896794558 0.050634000450372696
v 0.0010710000060498714 -0.0047530001029372215 0.05109100043773651
v 0.0004149999876972288 -0.004263999871909618 0.0500900000333786
v 0.04779699817299843 -0.00482300017029047 -0.021963000297546387
v 0.04434100165963173 -0.004466999787837267 -0.01396500039845705
v 0.037772998213768005 -0.0033130000811070204 -0.014414000324904919
v 0.031890999525785446 -0.0022479998879134655 -0.015856999903917313
v 0.024947000667452812 -0.001003999961540103 -0.01708099991083145
v 0.013195999898016453 0.0009130000253207982 -0.013078000396490097
v 0.008348999544978142 0.0018360000103712082 -0.01575399935245514
v 0.007857000455260277 0.002067999914288521 -0.02049900032579899
v 0.011096999980509281 0.0017480000387877226 -0.02843400090932846
v 0.04575899988412857 -0.0013640000252053142 -0.016464000567793846
v 0.039792001247406006 -0.0001880000054370612 -0.017311999574303627
v 0.03126800060272217 0.0012959999730810523 -0.018897000700235367
v 0.02391500025987625 0.0033909999765455723 -0.01871900074183941
v 0.015292000025510788 0.0059079998172819614 -0.01839599944651127
v 0.009626000188291073 0.0066639999859035015 -0.019886000081896782
v 0.007716000080108643 0.005814999807626009 -0.02247699908912182
v 0.04701999947428703 -0.00044299999717622995 -0.020284999161958694
v 0.04154999926686287 0.00039000000106170774 -0.02131200022995472
v 0.030455000698566437 0.0025229998864233494 -0.02320599928498268
v 0.023173000663518906 0.006459000054746866 -0.02336299978196621
v 0.016818000003695488 0.006500000134110451 -0.024954000487923622
v 0.010610999539494514 0.008050000295042992 -0.02585900016129017
v 0.007670999970287085 0.007919000461697578 -0.026659000664949417
v 0.04763999953866005 -0.00044299999717622995 -0.02380399964749813
v 0.042148999869823456 0.00039000000106170774 -0.024709999561309814
v 0.03107599914073944 0.0025229998864233494 -0.026724999770522118
v 0.02417900040745735 0.006459000054746866 -0.029068000614643097
v 0.017663000151515007 0.006500000134110451 -0.02974800020456314
v 0.011521000415086746 0.008050000295042992 -0.031018000096082687
v 0.008484000340104103 0.007919000461697578 -0.031272999942302704
v 0.04659000039100647 -0.0014440000522881746 -0.02754100039601326
v 0.04114599898457527 -0.0004450000124052167 -0.028541000559926033
v 0.03318699821829796 0.0003760000108741224 -0.028920000419020653
v 0.02311299927532673 0.003266999963670969 -0.032540999352931976
v 0.01793600060045719 0.004482999909669161 -0.033945001661777496
v 0.012544999830424786 0.005810000002384186 -0.035509999841451645
v 0.0093560004606843 0.005247000139206648 -0.03414599969983101
v 0.04499499872326851 -0.004093999974429607 -0.029848000034689903
v 0.039590999484062195 -0.003117999993264675 -0.031105000525712967
v 0.03485799953341484 -0.002355000004172325 -0.02920600026845932
v 0.021423999220132828 0.0000779999973019585 -0.0324850007891655
v 0.017527999356389046 0.000859999970998615 -0.03590700030326843
v 0.012823999859392643 0.0017310000257566571 -0.037647001445293427
v 0.0096859997138381 0.002174000022932887 -0.034352000802755356
v 0.043494999408721924 -0.0068660001270473 -0.02804500050842762
v 0.039009999483823776 -0.006256999913603067 -0.029205000028014183
v 0.035548001527786255 -0.0043390002101659775 -0.027357999235391617
v 0.023948999121785164 -0.002305000089108944 -0.029485000297427177
v 0.017292000353336334 -0.0027360001113265753 -0.03373099863529205
v 0.013434000313282013 -0.0028029999230057 -0.03584500029683113
v 0.009228000417351723 -0.00040499999886378646 -0.033472999930381775
v 0.042034000158309937 -0.007958999834954739 -0.024762000888586044
v 0.03842100128531456 -0.00774999987334013 -0.025585999712347984
v 0.036375001072883606 -0.004970999900251627 -0.024915000423789024
v 0.02680400013923645 -0.0027459999546408653 -0.02638399973511696
v 0.017038000747561455 -0.004507000092417002 -0.029608000069856644
v 0.013779000379145145 -0.005824999883770943 -0.030995000153779984
v 0.008593999780714512 -0.0021180000621825457 -0.030720999464392662
v 0.04142399877309799 -0.007958999834954739 -0.0213019996881485
v 0.03774699941277504 -0.00774999987334013 -0.021764000877738
v 0.03605400025844574 -0.004970999900251627 -0.023094000294804573
v 0.026558000594377518 -0.0027459999546408653 -0.024987999349832535
v 0.01627800054848194 -0.004507000092417002 -0.025297999382019043
v 0.012740000151097775 -0.005824999883770943 -0.02510800026357174
v 0.007962999865412712 -0.0021180000621825457 -0.027140000835061073
v 0.042583998292684555 -0.007317999843508005 -0.017066000029444695
v 0.03743400052189827 -0.006709999870508909 -0.017441999167203903
v 0.033720001578330994 -0.005152000114321709 -0.01961199939250946
v 0.02551399916410446 -0.003512999974191189 -0.021345000714063644
v 0.014272999949753284 -0.004108000081032515 -0.018904000520706177
v 0.01006999984383583 -0.0035490000154823065 -0.01931699924170971
v 0.00761000020429492 -0.00107999995816499 -0.023190999403595924
v 0.03876100108027458 -0.005388000048696995 0.006907000206410885
v 0.03783300146460533 -0.005332000087946653 0.010329999960958958
v 0.03483099862933159 -0.00482300017029047 0.01076900027692318
v 0.028344999998807907 -0.0036379999946802855 0.008849999867379665
v 0.020166000351309776 -0.002171000000089407 0.007311999797821045
v 0.012343999929726124 -0.0007880000048317015 0.006515000015497208
v 0.0071020000614225864 0.0001140000022132881 0.0067529999651014805
v 0.004215000197291374 0.000678999989759177 0.004693000111728907
v 0.005036000162363052 0.0006500000017695129 0.0009599999757483602
v 0.03885500133037567 -0.0036669999826699495 0.009549999609589577
v 0.03613299876451492 -0.00266100000590086 0.009855000302195549
v 0.029040999710559845 -0.0013909999979659915 0.008604999631643295
v 0.02124200016260147 -0.00002099999983329326 0.007189999800175428
v 0.013261999934911728 0.0016659999964758754 0.006175000220537186
v 0.00890399981290102 0.002732000080868602 0.00583800021559
v 0.0051750000566244125 0.0027520000003278255 0.00419999985024333
v 0.03984000161290169 -0.0029750000685453415 0.0079969996586442
v 0.03741399943828583 -0.0016710000345483422 0.007867000065743923
v 0.029927000403404236 0.0003640000068116933 0.006787000223994255
v 0.022520000115036964 0.001690999954007566 0.005481000058352947
v 0.0143630001693964 0.003498000092804432 0.004162999801337719
v 0.010728999972343445 0.004062000196427107 0.0034920000471174717
v 0.00622900016605854 0.00408599991351366 0.002429000101983547
v 0.040146999061107635 -0.0029750000685453415 0.006252000108361244
v 0.03782400116324425 -0.0016710000345483422 0.005543999839574099
v 0.0304189994931221 0.0003640000068116933 0.003998999949544668
v 0.02301199920475483 0.001690999954007566 0.002693000016734004
v 0.014895999804139137 0.003498000092804432 0.0011409999569877982
v 0.011250999756157398 0.004062000196427107 0.0005290000117383897
v 0.006659000180661678 0.00408599991351366 -0.000012000000424450263
v 0.04008999839425087 -0.00406799977645278 0.004984000232070684
v 0.037546999752521515 -0.0030739998910576105 0.0037930000107735395
v 0.031300000846385956 -0.002607000060379505 0.0035920001100748777
v 0.022237999364733696 -0.0009850000496953726 0.0019940000493079424
v 0.014436000026762486 0.001006999984383583 -0.00020399999630171806
v 0.01053099986165762 0.0021879998967051506 -0.001560000004246831
v 0.00611699977889657 0.002382999984547496 -0.0015150000108405948
v 0.039806999266147614 -0.005501000210642815 0.004668000154197216
v 0.03696100041270256 -0.004964999854564667 0.0032939999364316463
v 0.03203500062227249 -0.004174999892711639 0.005429999902844429
v 0.021317999809980392 -0.0022559999488294125 0.0035409999545663595
v 0.013718999922275543 -0.0008449999731965363 0.0005530000198632479
v 0.009448000229895115 -0.00002700000004551839 -0.0019450000254437327
v 0.0053090001456439495 0.000678999989759177 -0.0015109999803826213
v 0.03849099949002266 -0.0068430001847445965 0.004585999995470047
v 0.03562900051474571 -0.00698000006377697 0.0031010000966489315
v 0.030097000300884247 -0.004821999929845333 0.003889000043272972
v 0.02095099911093712 -0.0031320000998675823 0.002355000004172325
v 0.013283999636769295 -0.0024339999072253704 -0.000014999999621068127
v 0.008621999993920326 -0.0024029999040067196 -0.002053000032901764
v 0.005177000071853399 -0.0010860000038519502 -0.001601999974809587
v 0.037025000900030136 -0.007943999953567982 0.005613999906927347
v 0.034033000469207764 -0.008798000402748585 0.004606000147759914
v 0.027706999331712723 -0.0064489999786019325 0.003909999970346689
v 0.02016099914908409 -0.004923999775201082 0.0026400000788271427
v 0.012509999796748161 -0.004335999954491854 0.001019999966956675
v 0.007499000057578087 -0.004567999858409166 -0.0002530000056140125
v 0.004805999808013439 -0.0027830000035464764 -0.00027799999224953353
v 0.03668700158596039 -0.007943999953567982 0.007530000060796738
v 0.03353099897503853 -0.008798000402748585 0.007453000172972679
v 0.027348000556230545 -0.0064489999786019325 0.005942999850958586
v 0.019822999835014343 -0.004923999775201082 0.004556000232696533
v 0.012079999782145023 -0.004335999954491854 0.0034600000362843275
v 0.006934999953955412 -0.004567999858409166 0.0029430000577121973
v 0.004395999945700169 -0.0027830000035464764 0.0020459999796003103
v 0.037105999886989594 -0.007075000088661909 0.009359999559819698
v 0.033975999802351 -0.00725100003182888 0.009827000088989735
v 0.027682999148964882 -0.005501000210642815 0.00785600021481514
v 0.019836999475955963 -0.004011000040918589 0.006353999953716993
v 0.01202400028705597 -0.003037000074982643 0.005565000232309103
v 0.006779000163078308 -0.0028059999458491802 0.005619999952614307
v 0.004133999813348055 -0.0014540000120177865 0.003938999958336353
v 0.021695999428629875 -0.0040870001539587975 0.020399000495672226
v 0.020798999816179276 -0.004036999773234129 0.02382799983024597
v 0.018081000074744225 -0.0035800000187009573 0.024317000061273575
v 0.012257000431418419 -0.0025130000431090593 0.02251400053501129
v 0.004896999802440405 -0.001193000003695488 0.02112000063061714
v -0.0021520000882446766 0.00005199999941396527 0.020459000021219254
v -0.006889999844133854 0.0008650000090710819 0.020786000415682793
v -0.009461999870836735 0.0013719999697059393 0.0187819991260767
v -0.008658000268042088 0.0013470000121742487 0.015046999789774418
v 0.021765999495983124 -0.002363000065088272 0.02303900010883808
v 0.01931300014257431 -0.0014049999881535769 0.02339000068604946
v 0.012928999960422516 -0.0002629999944474548 0.02226400002837181
v 0.005909999832510948 0.0009679999784566462 0.020987000316381454
v -0.0012740000383928418 0.0025140000507235527 0.02011200040578842
v -0.005197000224143267 0.0035019998904317617 0.01985199935734272
v -0.008549000136554241 0.0034539999905973673 0.01828099973499775
v 0.02269599959254265 -0.0016599999507889152 0.021472999826073647
v 0.02052300050854683 -0.0004030000127386302 0.021390000358223915
v 0.013791999779641628 0.0014979999978095293 0.020441999658942223
v 0.00712500000372529 0.0026920000091195107 0.019267000257968903
v -0.0002119999990100041 0.004352000076323748 0.01809299923479557
v -0.0034839999862015247 0.004852000158280134 0.017487000674009323
v -0.007542000152170658 0.004796000197529793 0.016502000391483307
v 0.023003000766038895 -0.0016599999507889152 0.019731000065803528
v 0.0209330003708601 -0.0004030000127386302 0.01906600035727024
v 0.01428299956023693 0.0014979999978095293 0.01765500009059906
v 0.00761700002476573 0.0026920000091195107 0.016479000449180603
v 0.00031999999191612005 0.004352000076323748 0.015073000453412533
v -0.0029609999619424343 0.004852000158280134 0.014523000456392765
v -0.00711200013756752 0.004796000197529793 0.014062000438570976
v 0.022955000400543213 -0.0027540000155568123 0.01846499927341938
v 0.020687000826001167 -0.0018100000452250242 0.017318999394774437
v 0.015037000179290771 -0.0014509999891743064 0.017224999144673347
v 0.006881999783217907 0.000009999999747378752 0.015786999836564064
v -0.00011500000255182385 0.0018570000538602471 0.013729999773204327
v -0.003611000021919608 0.002964999992400408 0.012446999549865723
v -0.007606999948620796 0.003085999982431531 0.01256600022315979
v 0.02267800085246563 -0.004188999999314547 0.0181489996612072
v 0.02013299986720085 -0.0037070000544190407 0.01682800054550171
v 0.015646999701857567 -0.0029949999880045652 0.019040999934077263
v 0.006002000067383051 -0.0012679999927058816 0.017340999096632004
v -0.0008079999824985862 9.999999974752427e-7 0.014492000453174114
v -0.004623000044375658 0.0007379999733529985 0.012075000442564487
v -0.008368000388145447 0.0013719999697059393 0.01257800031453371
v 0.021466000005602837 -0.005549999885261059 0.018084000796079636
v 0.01889600045979023 -0.0057379999198019505 0.016651000827550888
v 0.013906000182032585 -0.00367900007404387 0.017534999176859856
v 0.005675000138580799 -0.00215300009585917 0.016163000836968422
v -0.0012199999764561653 -0.0015920000150799751 0.013927999883890152
v -0.005408999975770712 -0.0016459999606013298 0.011974000371992588
v -0.008515999652445316 -0.00039000000106170774 0.012484000064432621
v 0.0201019998639822 -0.006670000031590462 0.01912900060415268
v 0.01739400066435337 -0.007573999930173159 0.018171999603509903
v 0.011713000014424324 -0.00534099992364645 0.017589999362826347
v 0.004923999775201082 -0.0039519998244941235 0.016452999785542488
v -0.0019710001070052385 -0.0034990001004189253 0.01496800035238266
v -0.0064940000884234905 -0.0038189999759197235 0.013780999928712845
v -0.00890200026333332 -0.002085000043734908 0.013805000111460686
v 0.019763000309467316 -0.006670000031590462 0.021046999841928482
v 0.016891999170184135 -0.007573999930173159 0.02102000080049038
v 0.011354999616742134 -0.00534099992364645 0.019624000415205956
v 0.004585999995470047 -0.0039519998244941235 0.018370000645518303
v -0.0024019998963922262 -0.0034990001004189253 0.01740800030529499
v -0.0070569999516010284 -0.0038189999759197235 0.016976000741124153
v -0.009310999885201454 -0.002085000043734908 0.01612900011241436
v 0.02012700028717518 -0.005789999850094318 0.022866999730467796
v 0.017280999571084976 -0.006016000173985958 0.02338399924337864
v 0.011642999947071075 -0.004383999854326248 0.021528000012040138
v 0.004585000220686197 -0.0030360000673681498 0.020166000351309776
v -0.0024629998952150345 -0.0021979999728500843 0.01951099932193756
v -0.007213999982923269 -0.002056000055745244 0.01965400017797947
v -0.00955899991095066 -0.0007580000092275441 0.01802399940788746
v 0.00735800014808774 -0.0032760000322014093 0.03437099978327751
v 0.006459999829530716 -0.0032250001095235348 0.03779900074005127
v 0.003742000088095665 -0.002767999889329076 0.03828899934887886
v -0.0020830000285059214 -0.0017010000301524997 0.036486998200416565
v -0.009441000409424305 -0.0003809999907389283 0.035092998296022415
v -0.01649099960923195 0.0008640000014565885 0.03443000093102455
v -0.02122800052165985 0.0016769999638199806 0.034758999943733215
v -0.023800000548362732 0.0021840000990778208 0.03275499865412712
v -0.022995999082922935 0.0021589999087154865 0.029019000008702278
v 0.0074269999749958515 -0.0015510000521317124 0.03700999915599823
v 0.004974000155925751 -0.0005929999751970172 0.037362001836299896
v -0.0014090000186115503 0.0005489999894052744 0.03623700141906738
v -0.008427999913692474 0.0017810000572353601 0.034960001707077026
v -0.015611999668180943 0.003326999954879284 0.034085001796483994
v -0.01953599974513054 0.004313999786973 0.033824000507593155
v -0.022887999191880226 0.004265999887138605 0.03225399926304817
v 0.008357999846339226 -0.0008479999960400164 0.035447001457214355
v 0.006184000056236982 0.0004090000002179295 0.03536299988627434
v -0.0005469999741762877 0.0023089998867362738 0.034414999186992645
v -0.0072130002081394196 0.0035039999056607485 0.033240001648664474
v -0.014550000429153442 0.005164999980479479 0.03206599876284599
v -0.017822999507188797 0.005663000047206879 0.03145800158381462
v -0.021880999207496643 0.005607999861240387 0.030472999438643456
v 0.008665000088512897 -0.0008479999960400164 0.0337040014564991
v 0.006593999918550253 0.0004090000002179295 0.03303899988532066
v -0.000056000000768108293 0.0023089998867362738 0.03162600100040436
v -0.00672100018709898 0.0035039999056607485 0.03045099973678589
v -0.014018000103533268 0.005164999980479479 0.029044000431895256
v -0.01730000041425228 0.005663000047206879 0.028496000915765762
v -0.02145100012421608 0.005607999861240387 0.028032999485731125
v 0.008616000413894653 -0.0019420000026002526 0.032437000423669815
v 0.00634900014847517 -0.000999000039882958 0.03129199892282486
v 0.0006990000256337225 -0.0006389999762177467 0.031197000294923782
v -0.007457000203430653 0.0008210000232793391 0.02975899912416935
v -0.014453999698162079 0.0026700000744313 0.027701999992132187
v -0.01795000024139881 0.0037769998889416456 0.026419000700116158
v -0.02194499969482422 0.003897000104188919 0.026538999751210213
v 0.008340000174939632 -0.003378000110387802 0.032120998948812485
v 0.005793999880552292 -0.002893999917432666 0.030799999833106995
v 0.001307999948039651 -0.0021840000990778208 0.033013999462127686
v -0.008336000144481659 -0.0004569999873638153 0.03131299838423729
v -0.01514699961990118 0.000813000020571053 0.02846500091254711
v -0.01896199956536293 0.0015490000369027257 0.026047000661492348
v -0.02270600013434887 0.0021840000990778208 0.02655000053346157
v 0.007127999793738127 -0.004738000221550465 0.03205699846148491
v 0.004556000232696533 -0.004927000030875206 0.030623000115156174
v -0.0004330000083427876 -0.002865999937057495 0.03150799870491028
v -0.008665000088512897 -0.0013409999664872885 0.030135000124573708
v -0.015557999722659588 -0.0007800000021234155 0.02789900079369545
v -0.01974800042808056 -0.0008340000058524311 0.02594600059092045
v -0.022854000329971313 0.00042299999040551484 0.02645600028336048
v 0.005762000102549791 -0.0058570001274347305 0.03310300037264824
v 0.0030539999715983868 -0.006763000041246414 0.032145000994205475
v -0.0026259999722242355 -0.0045289997942745686 0.03156299889087677
v -0.00941499974578619 -0.0031399999279528856 0.03042599931359291
v -0.01631000079214573 -0.0026859999634325504 0.02893899939954281
v -0.0208320003002882 -0.0030070000793784857 0.02775299921631813
v -0.02324100024998188 -0.001272000023163855 0.02777799963951111
v 0.005423999857157469 -0.0058570001274347305 0.03501899912953377
v 0.002552000107243657 -0.006763000041246414 0.034991998225450516
v -0.002983999904245138 -0.0045289997942745686 0.033594999462366104
v -0.009752999991178513 -0.0031399999279528856 0.032343000173568726
v -0.016739999875426292 -0.0026859999634325504 0.031380001455545425
v -0.02139499969780445 -0.0030070000793784857 0.030949000269174576
v -0.02365100011229515 -0.001272000023163855 0.030101999640464783
v 0.005789000075310469 -0.004978000186383724 0.03683900088071823
v 0.0029430000577121973 -0.005204999819397926 0.03735699877142906
v -0.002696000039577484 -0.0035719999577850103 0.03550000116229057
v -0.00975400023162365 -0.0022239999379962683 0.03413800150156021
v -0.01680300012230873 -0.001386999967508018 0.03348299860954285
v -0.021553000435233116 -0.0012440000427886844 0.03362499922513962
v -0.02389799989759922 0.00005400000009103678 0.031996000558137894
v -0.004728000145405531 -0.00279000005684793 0.046202998608350754
v -0.005625000223517418 -0.0027379998937249184 0.04963099956512451
v -0.008344000205397606 -0.002280999906361103 0.0501209981739521
v -0.014169000089168549 -0.001214000047184527 0.048319000750780106
v -0.021528000012040138 0.00010599999950500205 0.04692300036549568
v -0.028578000143170357 0.0013510000426322222 0.046261999756097794
v -0.03331499919295311 0.00216299993917346 0.04659000039100647
v -0.035886000841856 0.0026710000820457935 0.04458500072360039
v -0.035082001239061356 0.0026459998916834593 0.04085100069642067
v -0.004658999852836132 -0.0010639999527484179 0.048840999603271484
v -0.00711200013756752 -0.00010599999950500205 0.049192000180482864
v -0.013496000319719315 0.0010359999723732471 0.04806699976325035
v -0.020514000207185745 0.0022670000325888395 0.04679099842905998
v -0.027698000892996788 0.00381199992261827 0.045917000621557236
v -0.0316229984164238 0.004800000227987766 0.04565500095486641
v -0.03497299924492836 0.0047519998624920845 0.04408400133252144
v -0.003727999981492758 -0.00036100001307204366 0.047276999801397324
v -0.005901999771595001 0.0008960000122897327 0.047192998230457306
v -0.012633999809622765 0.00279600010253489 0.0462459996342659
v -0.01929900050163269 0.0039900001138448715 0.04507099837064743
v -0.0266369991004467 0.005650999955832958 0.043898001313209534
v -0.02990799956023693 0.006149999797344208 0.04329000040888786
v -0.033966001123189926 0.006095000077039003 0.04230500012636185
v -0.0034209999721497297 -0.00036100001307204366 0.04553399980068207
v -0.005491999909281731 0.0008960000122897327 0.04487000033259392
v -0.012141999788582325 0.00279600010253489 0.04345700144767761
v -0.018806999549269676 0.0039900001138448715 0.04228200018405914
v -0.026103999465703964 0.005650999955832958 0.04087600111961365
v -0.029385000467300415 0.006149999797344208 0.04032700136303902
v -0.033535998314619064 0.006095000077039003 0.03986399993300438
v -0.003470000112429261 -0.0014570000348612666 0.04426800087094307
v -0.005737000145018101 -0.0005119999987073243 0.043122999370098114
v -0.011386999860405922 -0.00015199999324977398 0.04302800074219704
v -0.01954299956560135 0.001307999948039651 0.04159000143408775
v -0.02653999999165535 0.0031560000497847795 0.03953300043940544
v -0.030036000534892082 0.004263999871909618 0.03825100138783455
v -0.03403199836611748 0.004383999854326248 0.03836899995803833
v -0.003745999885722995 -0.0028909998945891857 0.043953001499176025
v -0.006293000187724829 -0.00240899994969368 0.04263100028038025
v -0.010777999646961689 -0.0016969999996945262 0.04484499990940094
v -0.020423000678420067 0.000029999999242136255 0.043143998831510544
v -0.02723200060427189 0.0012989999959245324 0.04029500111937523
v -0.031046999618411064 0.0020359999034553766 0.03787799924612045
v -0.03479300066828728 0.0026710000820457935 0.038380999118089676
v -0.004958000034093857 -0.004251000005751848 0.04388799890875816
v -0.007528999820351601 -0.00443999981507659 0.04245400056242943
v -0.012519000098109245 -0.0023799999617040157 0.04334000125527382
v -0.020749999210238457 -0.0008539999835193157 0.041965000331401825
v -0.02764499932527542 -0.00029399999766610563 0.039730001240968704
v -0.03183399885892868 -0.0003480000013951212 0.03777699917554855
v -0.03494099900126457 0.0009089999948628247 0.038286998867988586
v -0.0063240001909434795 -0.005371000152081251 0.04493299871683121
v -0.009031999856233597 -0.006275999825447798 0.04397600144147873
v -0.014712000265717506 -0.004042999818921089 0.043393999338150024
v -0.021500999107956886 -0.002652999944984913 0.04225600138306618
v -0.028395000845193863 -0.0022009999956935644 0.0407710000872612
v -0.03291799873113632 -0.002520000096410513 0.039583999663591385
v -0.03532699868083 -0.0007859999896027148 0.03960900008678436
v -0.006661999970674515 -0.005371000152081251 0.04684999957680702
v -0.009534000419080257 -0.006275999825447798 0.04682299867272377
v -0.015069999732077122 -0.004042999818921089 0.045426998287439346
v -0.021839000284671783 -0.002652999944984913 0.04417400062084198
v -0.028826000168919563 -0.0022009999956935644 0.04321099817752838
v -0.03348100185394287 -0.002520000096410513 0.04278000071644783
v -0.03573700040578842 -0.0007859999896027148 0.04193300008773804
v -0.006297000218182802 -0.004490999970585108 0.04867099970579147
v -0.00914399977773428 -0.004718999844044447 0.0491890013217926
v -0.014782999642193317 -0.003085999982431531 0.04733100160956383
v -0.02184000052511692 -0.0017369999550282955 0.04596899822354317
v -0.028889000415802002 -0.0008999999845400453 0.0453139990568161
v -0.03363899886608124 -0.0007570000016130507 0.04545599967241287
v -0.03598399832844734 0.0005409999866969883 0.043827999383211136
f 9 2 1
f 9 10 2
f 10 3 2
f 10 11 4
f 10 4 3
f 11 12 5
f 11 5 4
f 12 13 6
f 12 6 5
f 13 14 7
f 13 7 6
f 14 8 7
f 15 9 1
f 15 16 9
f 16 10 9
f 16 17 11
f 16 11 10
f 17 18 12
f 17 12 11
f 18 19 13
f 18 13 12
f 20 8 14
f 21 15 1
f 21 22 16
f 21 16 15
f 22 23 17
f 22 17 16
f 23 24 17
f 24 18 17
f 24 25 18
f 25 19 18
f 25 26 19
f 26 20 19
f 26 8 20
f 27 21 1
f 27 28 21
f 28 22 21
f 28 29 22
f 29 23 22
f 29 30 23
f 30 24 23
f 30 31 24
f 31 25 24
f 32 8 26
f 33 27 1
f 33 34 27
f 34 28 27
f 34 35 28
f 35 29 28
f 35 36 29
f 36 30 29
f 36 37 30
f 37 31 30
f 37 38 31
f 38 32 31
f 38 8 32
f 39 33 1
f 39 40 34
f 39 34 33
f 40 41 35
f 40 35 34
f 41 42 35
f 42 36 35
f 42 43 37
f 42 37 36
f 43 44 37
f 44 38 37
f 44 8 38
f 45 39 1
f 45 46 40
f 45 40 39
f 46 47 41
f 46 41 40
f 47 48 41
f 48 42 41
f 48 49 42
f 49 43 42
f 49 50 44
f 49 44 43
f 50 8 44
f 51 45 1
f 51 52 46
f 51 46 45
f 52 53 47
f 52 47 46
f 53 54 47
f 54 48 47
f 54 55 49
f 54 49 48
f 55 56 50
f 55 50 49
f 56 8 50
f 57 51 1
f 57 58 52
f 57 52 51
f 58 59 52
f 59 53 52
f 59 60 54
f 59 54 53
f 60 61 55
f 60 55 54
f 61 62 55
f 62 56 55
f 62 8 56
f 2 57 1
f 2 3 58
f 2 58 57
f 3 4 58
f 4 59 58
f 4 5 60
f 4 60 59
f 5 6 61
f 5 61 60
f 6 7 61
f 7 62 61
f 7 8 62
f 71 64 63
f 71 72 64
f 72 65 64
f 72 73 66
f 72 66 65
f 73 74 67
f 73 67 66
f 74 75 68
f 74 68 67
f 75 76 69
f 75 69 68
f 76 70 69
f 77 71 63
f 77 78 71
f 78 72 71
f 78 79 73
f 78 73 72
f 79 80 74
f 79 74 73
f 80 81 75
f 80 75 74
f 82 70 76
f 83 77 63
f 83 84 78
f 83 78 77
f 84 85 79
f 84 79 78
f 85 86 80
f 85 80 79
f 86 87 80
f 87 81 80
f 87 88 81
f 88 82 81
f 88 70 82
f 89 83 63
f 89 90 83
f 90 84 83
f 90 91 84
f 91 85 84
f 91 92 85
f 92 86 85
f 92 93 86
f 93 87 86
f 94 70 88
f 95 89 63
f 95 96 89
f 96 90 89
f 96 97 90
f 97 91 90
f 97 98 91
f 98 92 91
f 98 99 92
f 99 93 92
f 99 100 93
f 100 94 93
f 100 70 94
f 101 95 63
f 101 102 96
f 101 96 95
f 102 103 97
f 102 97 96
f 103 104 97
f 104 98 97
f 104 105 99
f 104 99 98
f 105 106 99
f 106 100 99
f 106 70 100
f 107 101 63
f 107 108 102
f 107 102 101
f 108 109 103
f 108 103 102
f 109 110 103
f 110 104 103
f 110 111 104
f 111 105 104
f 111 112 106
f 111 106 105
f 112 70 106
f 113 107 63
f 113 114 108
f 113 108 107
f 114 115 109
f 114 109 108
f 115 116 109
f 116 110 109
f 116 117 111
f 116 111 110
f 117 118 111
f 118 112 111
f 118 70 112
f 119 113 63
f 119 120 114
f 119 114 113
f 120 121 114
f 121 115 114
f 121 122 116
f 121 116 115
f 122 123 117
f 122 117 116
f 123 124 117
f 124 118 117
f 124 70 118
f 64 119 63
f 64 65 120
f 64 120 119
f 65 66 120
f 66 121 120
f 66 67 122
f 66 122 121
f 67 68 123
f 67 123 122
f 68 69 123
f 69 124 123
f 69 70 124
f 133 126 125
f 133 134 126
f 134 127 126
f 134 135 128
f 134 128 127
f 135 136 129
f 135 129 128
f 136 137 130
f 136 130 129
f 137 138 131
f 137 131 130
f 138 132 131
f 139 133 125
f 139 140 133
f 140 134 133
f 140 141 135
f 140 135 134
f 141 142 136
f 141 136 135
f 142 143 137
f 142 137 136
f 144 132 138
f 145 139 125
f 145 146 139
f 146 140 139
f 146 147 140
f 147 141 140
f 147 148 141
f 148 142 141
f 148 149 143
f 148 143 142
f 149 150 143
f 150 144 143
f 150 132 144
f 151 145 125
f 151 152 145
f 152 146 145
f 152 153 146
f 153 147 146
f 153 154 147
f 154 148 147
f 154 155 148
f 155 149 148
f 156 132 150
f 157 151 125
f 157 158 151
f 158 152 151
f 158 159 152
f 159 153 152
f 159 160 153
f 160 154 153
f 160 161 154
f 161 155 154
f 161 162 155
f 162 156 155
f 162 132 156
f 163 157 125
f 163 164 158
f 163 158 157
f 164 165 159
f 164 159 158
f 165 166 159
f 166 160 159
f 166 167 161
f 166 161 160
f 167 168 161
f 168 162 161
f 168 132 162
f 169 163 125
f 169 170 164
f 169 164 163
f 170 171 165
f 170 165 164
f 171 172 165
f 172 166 165
f 172 173 166
f 173 167 166
f 173 174 168
f 173 168 167
f 174 132 168
f 175 169 125
f 175 176 169
f 176 170 169
f 176 177 171
f 176 171 170
f 177 178 172
f 177 172 171
f 178 179 172
f 179 173 172
f 179 180 174
f 179 174 173
f 180 132 174
f 181 175 125
f 181 182 176
f 181 176 175
f 182 183 176
f 183 177 176
f 183 184 178
f 183 178 177
f 184 185 179
f 184 179 178
f 185 186 179
f 186 180 179
f 186 132 180
f 126 181 125
f 126 127 182
f 126 182 181
f 127 128 182
f 128 183 182
f 128 129 184
f 128 184 183
f 129 130 185
f 129 185 184
f 130 131 185
f 131 186 185
f 131 132 186
f 195 188 187
f 195 196 188
f 196 189 188
f 196 197 190
f 196 190 189
f 197 198 191
f 197 191 190
f 198 199 192
f 198 192 191
f 199 200 193
f 199 193 192
f 200 194 193
f 201 195 187
f 201 202 195
f 202 196 195
f 202 203 197
f 202 197 196
f 203 204 198
f 203 198 197
f 204 205 199
f 204 199 198
f 206 194 200
f 207 201 187
f 207 208 201
f 208 202 201
f 208 209 202
f 209 203 202
f 209 210 204
f 209 204 203
f 210 211 204
f 211 205 204
f 211 212 206
f 211 206 205
f 212 194 206
f 213 207 187
f 213 214 207
f 214 208 207
f 214 215 208
f 215 209 208
f 215 216 209
f 216 210 209
f 216 217 210
f 217 211 210
f 218 194 212
f 219 213 187
f 219 220 213
f 220 214 213
f 220 221 214
f 221 215 214
f 221 222 215
f 222 216 215
f 222 223 216
f 223 217 216
f 223 224 217
f 224 218 217
f 224 194 218
f 225 219 187
f 225 226 220
f 225 220 219
f 226 227 221
f 226 221 220
f 227 228 221
f 228 222 221
f 228 229 223
f 228 223 222
f 229 230 223
f 230 224 223
f 230 194 224
f 231 225 187
f 231 232 226
f 231 226 225
f 232 233 227
f 232 227 226
f 233 234 227
f 234 228 227
f 234 235 228
f 235 229 228
f 235 236 230
f 235 230 229
f 236 194 230
f 237 231 187
f 237 238 231
f 238 232 231
f 238 239 233
f 238 233 232
f 239 240 233
f 240 234 233
f 240 241 234
f 241 235 234
f 241 242 235
f 242 236 235
f 242 194 236
f 243 237 187
f 243 244 238
f 243 238 237
f 244 245 238
f 245 239 238
f 245 246 240
f 245 240 239
f 246 247 241
f 246 241 240
f 247 248 241
f 248 242 241
f 248 194 242
f 188 243 187
f 188 189 244
f 188 244 243
f 189 190 244
f 190 245 244
f 190 191 246
f 190 246 245
f 191 192 247
f 191 247 246
f 192 193 247
f 193 248 247
f 193 194 248
f 257 250 249
f 257 258 250
f 258 251 250
f 258 259 252
f 258 252 251
f 259 260 253
f 259 253 252
f 260 261 254
f 260 254 253
f 261 262 255
f 261 255 254
f 262 256 255
f 263 257 249
f 263 264 257
f 264 258 257
f 264 265 259
f 264 259 258
f 265 266 260
f 265 260 259
f 266 267 261
f 266 261 260
f 268 256 262
f 269 263 249
f 269 270 263
f 270 264 263
f 270 271 264
f 271 265 264
f 271 272 266
f 271 266 265
f 272 273 266
f 273 267 266
f 273 274 268
f 273 268 267
f 274 256 268
f 275 269 249
f 275 276 269
f 276 270 269
f 276 277 270
f 277 271 270
f 277 278 271
f 278 272 271
f 278 279 272
f 279 273 272
f 280 256 274
f 281 275 249
f 281 282 275
f 282 276 275
f 282 283 276
f 283 277 276
f 283 284 277
f 284 278 277
f 284 285 278
f 285 279 278
f 285 286 279
f 286 280 279
f 286 256 280
f 287 281 249
f 287 288 282
f 287 282 281
f 288 289 283
f 288 283 282
f 289 290 283
f 290 284 283
f 290 291 285
f 290 285 284
f 291 292 285
f 292 286 285
f 292 256 286
f 293 287 249
f 293 294 288
f 293 288 287
f 294 295 289
f 294 289 288
f 295 296 289
f 296 290 289
f 296 297 290
f 297 291 290
f 297 298 292
f 297 292 291
f 298 256 292
f 299 293 249
f 299 300 294
f 299 294 293
f 300 301 294
f 301 295 294
f 301 302 296
f 301 296 295
f 302 303 296
f 303 297 296
f 303 304 298
f 303 298 297
f 304 256 298
f 305 299 249
f 305 306 300
f 305 300 299
f 306 307 300
f 307 301 300
f 307 308 302
f 307 302 301
f 308 309 303
f 308 303 302
f 309 310 303
f 310 304 303
f 310 256 304
f 250 305 249
f 250 251 306
f 250 306 305
f 251 252 306
f 252 307 306
f 252 253 308
f 252 308 307
f 253 254 309
f 253 309 308
f 254 255 309
f 255 310 309
f 255 256 310
f 320 312 311
f 320 321 312
f 321 313 312
f 321 322 313
f 322 314 313
f 322 323 314
f 323 315 314
f 323 324 315
f 324 316 315
f 324 325 316
f 325 317 316
f 325 326 317
f 326 318 317
f 326 319 318
f 327 320 311
f 327 328 320
f 328 321 320
f 328 329 321
f 329 322 321
f 329 330 322
f 330 323 322
f 330 331 323
f 331 324 323
f 331 332 324
f 332 325 324
f 332 333 325
f 333 326 325
f 333 319 326
f 334 327 311
f 334 335 327
f 335 328 327
f 335 336 329
f 335 329 328
f 336 337 329
f 337 330 329
f 337 338 331
f 337 331 330
f 338 339 332
f 338 332 331
f 339 340 333
f 339 333 332
f 340 319 333
f 341 334 311
f 341 342 335
f 341 335 334
f 342 343 335
f 343 336 335
f 343 344 336
f 344 337 336
f 344 345 338
f 344 338 337
f 345 346 339
f 345 339 338
f 346 347 340
f 346 340 339
f 347 319 340
f 348 341 311
f 348 349 342
f 348 342 341
f 349 350 343
f 349 343 342
f 350 351 343
f 351 344 343
f 351 352 344
f 352 345 344
f 352 353 345
f 353 346 345
f 353 354 347
f 353 347 346
f 354 319 347
f 355 348 311
f 355 356 349
f 355 349 348
f 356 357 349
f 357 350 349
f 357 358 351
f 357 351 350
f 358 359 352
f 358 352 351
f 359 360 353
f 359 353 352
f 360 361 353
f 361 354 353
f 361 319 354
f 362 355 311
f 362 363 356
f 362 356 355
f 363 364 357
f 363 357 356
f 364 365 358
f 364 358 357
f 365 366 359
f 365 359 358
f 366 367 360
f 366 360 359
f 367 368 360
f 368 361 360
f 368 319 361
f 369 362 311
f 369 370 362
f 370 363 362
f 370 371 363
f 371 364 363
f 371 372 365
f 371 365 364
f 372 373 365
f 373 366 365
f 373 374 367
f 373 367 366
f 374 375 368
f 374 368 367
f 375 319 368
f 376 369 311
f 376 377 369
f 377 370 369
f 377 378 370
f 378 371 370
f 378 379 371
f 379 372 371
f 379 380 373
f 379 373 372
f 380 381 374
f 380 374 373
f 381 382 374
f 382 375 374
f 382 319 375
f 312 376 311
f 312 313 376
f 313 377 376
f 313 314 377
f 314 378 377
f 314 315 378
f 315 379 378
f 315 316 379
f 316 380 379
f 316 317 381
f 316 381 380
f 317 318 381
f 318 382 381
f 318 319 382
f 392 384 383
f 392 393 384
f 393 385 384
f 393 394 385
f 394 386 385
f 394 395 386
f 395 387 386
f 395 396 387
f 396 388 387
f 396 397 388
f 397 389 388
f 397 398 389
f 398 390 389
f 398 391 390
f 399 392 383
f 399 400 392
f 400 393 392
f 400 401 393
f 401 394 393
f 401 402 394
f 402 395 394
f 402 403 395
f 403 396 395
f 403 404 396
f 404 397 396
f 404 405 397
f 405 398 397
f 405 391 398
f 406 399 383
f 406 407 400
f 406 400 399
f 407 408 400
f 408 401 400
f 408 409 401
f 409 402 401
f 409 410 403
f 409 403 402
f 410 411 404
f 410 404 403
f 411 412 404
f 412 405 404
f 412 391 405
f 413 406 383
f 413 414 407
f 413 407 406
f 414 415 407
f 415 408 407
f 415 416 408
f 416 409 408
f 416 417 410
f 416 410 409
f 417 418 411
f 417 411 410
f 418 419 412
f 418 412 411
f 419 391 412
f 420 413 383
f 420 421 414
f 420 414 413
f 421 422 415
f 421 415 414
f 422 423 415
f 423 416 415
f 423 424 416
f 424 417 416
f 424 425 417
f 425 418 417
f 425 426 419
f 425 419 418
f 426 391 419
f 427 420 383
f 427 428 421
f 427 421 420
f 428 429 421
f 429 422 421
f 429 430 423
f 429 423 422
f 430 431 424
f 430 424 423
f 431 432 425
f 431 425 424
f 432 433 425
f 433 426 425
f 433 391 426
f 434 427 383
f 434 435 428
f 434 428 427
f 435 436 429
f 435 429 428
f 436 437 430
f 436 430 429
f 437 438 431
f 437 431 430
f 438 439 432
f 438 432 431
f 439 440 432
f 440 433 432
f 440 391 433
f 441 434 383
f 441 442 435
f 441 435 434
f 442 443 436
f 442 436 435
f 443 444 436
f 444 437 436
f 444 445 438
f 444 438 437
f 445 446 438
f 446 439 438
f 446 447 440
f 446 440 439
f 447 391 440
f 448 441 383
f 448 449 441
f 449 442 441
f 449 450 442
f 450 443 442
f 450 451 443
f 451 444 443
f 451 452 445
f 451 445 444
f 452 453 446
f 452 446 445
f 453 454 446
f 454 447 446
f 454 391 447
f 384 448 383
f 384 385 448
f 385 449 448
f 385 386 449
f 386 450 449
f 386 387 450
f 387 451 450
f 387 388 451
f 388 452 451
f 388 389 453
f 388 453 452
f 389 390 453
f 390 454 453
f 390 391 454
f 464 456 455
f 464 465 456
f 465 457 456
f 465 466 457
f 466 458 457
f 466 467 458
f 467 459 458
f 467 468 459
f 468 460 459
f 468 469 460
f 469 461 460
f 469 470 461
f 470 462 461
f 470 463 462
f 471 464 455
f 471 472 464
f 472 465 464
f 472 473 465
f 473 466 465
f 473 474 466
f 474 467 466
f 474 475 467
f 475 468 467
f 475 476 468
f 476 469 468
f 476 477 469
f 477 470 469
f 477 463 470
f 478 471 455
f 478 479 472
f 478 472 471
f 479 480 473
f 479 473 472
f 480 481 474
f 480 474 473
f 481 482 475
f 481 475 474
f 482 483 475
f 483 476 475
f 483 484 477
f 483 477 476
f 484 463 477
f 485 478 455
f 485 486 479
f 485 479 478
f 486 487 479
f 487 480 479
f 487 488 480
f 488 481 480
f 488 489 481
f 489 482 481
f 489 490 483
f 489 483 482
f 490 491 484
f 490 484 483
f 491 463 484
f 492 485 455
f 492 493 486
f 492 486 485
f 493 494 487
f 493 487 486
f 494 495 487
f 495 488 487
f 495 496 488
f 496 489 488
f 496 497 489
f 497 490 489
f 497 498 491
f 497 491 490
f 498 463 491
f 499 492 455
f 499 500 493
f 499 493 492
f 500 501 493
f 501 494 493
f 501 502 495
f 501 495 494
f 502 503 496
f 502 496 495
f 503 504 497
f 503 497 496
f 504 505 497
f 505 498 497
f 505 463 498
f 506 499 455
f 506 507 500
f 506 500 499
f 507 508 501
f 507 501 500
f 508 509 502
f 508 502 501
f 509 510 503
f 509 503 502
f 510 511 504
f 510 504 503
f 511 512 504
f 512 505 504
f 512 463 505
f 513 506 455
f 513 514 506
f 514 507 506
f 514 515 507
f 515 508 507
f 515 516 508
f 516 509 508
f 516 517 509
f 517 510 509
f 517 518 511
f 517 511 510
f 518 519 511
f 519 512 511
f 519 463 512
f 520 513 455
f 520 521 514
f 520 514 513
f 521 522 514
f 522 515 514
f 522 523 515
f 523 516 515
f 523 524 517
f 523 517 516
f 524 525 518
f 524 518 517
f 525 526 518
f 526 519 518
f 526 463 519
f 456 520 455
f 456 457 520
f 457 521 520
f 457 458 521
f 458 522 521
f 458 459 522
f 459 523 522
f 459 460 523
f 460 524 523
f 460 461 525
f 460 525 524
f 461 462 525
f 462 526 525
f 462 463 526
f 536 528 527
f 536 537 528
f 537 529 528
f 537 538 529
f 538 530 529
f 538 539 530
f 539 531 530
f 539 540 531
f 540 532 531
f 540 541 532
f 541 533 532
f 541 542 534
f 541 534 533
f 542 535 534
f 543 536 527
f 543 544 536
f 544 537 536
f 544 545 537
f 545 538 537
f 545 546 538
f 546 539 538
f 546 547 539
f 547 540 539
f 547 548 540
f 548 541 540
f 548 549 542
f 548 542 541
f 549 535 542
f 550 543 527
f 550 551 544
f 550 544 543
f 551 552 544
f 552 545 544
f 552 553 545
f 553 546 545
f 553 554 546
f 554 547 546
f 554 555 548
f 554 548 547
f 555 556 548
f 556 549 548
f 556 535 549
f 557 550 527
f 557 558 551
f 557 551 550
f 558 559 551
f 559 552 551
f 559 560 552
f 560 553 552
f 560 561 553
f 561 554 553
f 561 562 555
f 561 555 554
f 562 563 556
f 562 556 555
f 563 535 556
f 564 557 527
f 564 565 558
f 564 558 557
f 565 566 559
f 565 559 558
f 566 567 559
f 567 560 559
f 567 568 560
f 568 561 560
f 568 569 561
f 569 562 561
f 569 570 563
f 569 563 562
f 570 535 563
f 571 564 527
f 571 572 565
f 571 565 564
f 572 573 565
f 573 566 565
f 573 574 567
f 573 567 566
f 574 575 568
f 574 568 567
f 575 576 569
f 575 569 568
f 576 577 569
f 577 570 569
f 577 535 570
f 578 571 527
f 578 579 572
f 578 572 571
f 579 580 573
f 579 573 572
f 580 581 574
f 580 574 573
f 581 582 575
f 581 575 574
f 582 583 576
f 582 576 575
f 583 584 576
f 584 577 576
f 584 535 577
f 585 578 527
f 585 586 578
f 586 579 578
f 586 587 580
f 586 580 579
f 587 588 580
f 588 581 580
f 588 589 581
f 589 582 581
f 589 590 583
f 589 583 582
f 590 591 583
f 591 584 583
f 591 535 584
f 592 585 527
f 592 593 586
f 592 586 585
f 593 594 586
f 594 587 586
f 594 595 587
f 595 588 587
f 595 596 589
f 595 589 588
f 596 597 590
f 596 590 589
f 597 598 590
f 598 591 590
f 598 535 591
f 528 592 527
f 528 529 593
f 528 593 592
f 529 530 593
f 530 594 593
f 530 531 594
f 531 595 594
f 531 532 596
f 531 596 595
f 532 533 597
f 532 597 596
f 533 534 597
f 534 598 597
f 534 535 598
f 608 600 599
f 608 609 600
f 609 601 600
f 609 610 602
f 609 602 601
f 610 611 603
f 610 603 602
f 611 612 603
f 612 604 603
f 612 613 605
f 612 605 604
f 613 614 606
f 613 606 605
f 614 607 606
f 615 608 599
f 615 616 608
f 616 609 608
f 616 617 610
f 616 610 609
f 617 618 611
f 617 611 610
f 618 619 612
f 618 612 611
f 619 620 613
f 619 613 612
f 620 621 614
f 620 614 613
f 621 607 614
f 622 615 599
f 622 623 616
f 622 616 615
f 623 624 616
f 624 617 616
f 624 625 617
f 625 618 617
f 625 626 619
f 625 619 618
f 626 627 619
f 627 620 619
f 627 628 621
f 627 621 620
f 628 607 621
f 629 622 599
f 629 630 623
f 629 623 622
f 630 631 623
f 631 624 623
f 631 632 624
f 632 625 624
f 632 633 626
f 632 626 625
f 633 634 626
f 634 627 626
f 634 635 627
f 635 628 627
f 635 607 628
f 636 629 599
f 636 637 630
f 636 630 629
f 637 638 630
f 638 631 630
f 638 639 631
f 639 632 631
f 639 640 633
f 639 633 632
f 640 641 633
f 641 634 633
f 641 642 634
f 642 635 634
f 642 607 635
f 643 636 599
f 643 644 637
f 643 637 636
f 644 645 637
f 645 638 637
f 645 646 638
f 646 639 638
f 646 647 639
f 647 640 639
f 647 648 640
f 648 641 640
f 648 649 641
f 649 642 641
f 649 607 642
f 650 643 599
f 650 651 644
f 650 644 643
f 651 652 645
f 651 645 644
f 652 653 645
f 653 646 645
f 653 654 646
f 654 647 646
f 654 655 647
f 655 648 647
f 655 656 648
f 656 649 648
f 656 607 649
f 657 650 599
f 657 658 650
f 658 651 650
f 658 659 652
f 658 652 651
f 659 660 652
f 660 653 652
f 660 661 654
f 660 654 653
f 661 662 655
f 661 655 654
f 662 663 655
f 663 656 655
f 663 607 656
f 664 657 599
f 664 665 657
f 665 658 657
f 665 666 658
f 666 659 658
f 666 667 660
f 666 660 659
f 667 668 661
f 667 661 660
f 668 669 662
f 668 662 661
f 669 670 662
f 670 663 662
f 670 607 663
f 600 664 599
f 600 601 664
f 601 665 664
f 601 602 666
f 601 666 665
f 602 603 667
f 602 667 666
f 603 604 668
f 603 668 667
f 604 605 669
f 604 669 668
f 605 606 669
f 606 670 669
f 606 607 670
f 680 672 671
f 680 681 672
f 681 673 672
f 681 682 673
f 682 674 673
f 682 683 674
f 683 675 674
f 683 684 675
f 684 676 675
f 684 685 676
f 685 677 676
f 685 686 677
f 686 678 677
f 686 679 678
f 687 680 671
f 687 688 680
f 688 681 680
f 688 689 681
f 689 682 681
f 689 690 682
f 690 683 682
f 690 691 683
f 691 684 683
f 691 692 684
f 692 685 684
f 692 693 685
f 693 686 685
f 693 679 686
f 694 687 671
f 694 695 688
f 694 688 687
f 695 696 688
f 696 689 688
f 696 697 689
f 697 690 689
f 697 698 690
f 698 691 690
f 698 699 691
f 699 692 691
f 699 700 693
f 699 693 692
f 700 679 693
f 701 694 671
f 701 702 695
f 701 695 694
f 702 703 695
f 703 696 695
f 703 704 696
f 704 697 696
f 704 705 698
f 704 698 697
f 705 706 699
f 705 699 698
f 706 707 700
f 706 700 699
f 707 679 700
f 708 701 671
f 708 709 702
f 708 702 701
f 709 710 702
f 710 703 702
f 710 711 703
f 711 704 703
f 711 712 705
f 711 705 704
f 712 713 706
f 712 706 705
f 713 714 707
f 713 707 706
f 714 679 707
f 715 708 671
f 715 716 709
f 715 709 708
f 716 717 710
f 716 710 709
f 717 718 711
f 717 711 710
f 718 719 712
f 718 712 711
f 719 720 713
f 719 713 712
f 720 721 713
f 721 714 713
f 721 679 714
f 722 715 671
f 722 723 716
f 722 716 715
f 723 724 717
f 723 717 716
f 724 725 718
f 724 718 717
f 725 726 719
f 725 719 718
f 726 727 720
f 726 720 719
f 727 728 720
f 728 721 720
f 728 679 721
f 729 722 671
f 729 730 722
f 730 723 722
f 730 731 724
f 730 724 723
f 731 732 725
f 731 725 724
f 732 733 725
f 733 726 725
f 733 734 727
f 733 727 726
f 734 735 728
f 734 728 727
f 735 679 728
f 736 729 671
f 736 737 729
f 737 730 729
f 737 738 730
f 738 731 730
f 738 739 731
f 739 732 731
f 739 740 732
f 740 733 732
f 740 741 733
f 741 734 733
f 741 742 735
f 741 735 734
f 742 679 735
f 672 736 671
f 672 673 736
f 673 737 736
f 673 674 737
f 674 738 737
f 674 675 738
f 675 739 738
f 675 676 739
f 676 740 739
f 676 677 740
f 677 741 740
f 677 678 742
f 677 742 741
f 678 679 742
f 752 744 743
f 752 753 744
f 753 745 744
f 753 754 745
f 754 746 745
f 754 755 746
f 755 747 746
f 755 756 747
f 756 748 747
f 756 757 748
f 757 749 748
f 757 758 749
f 758 750 749
f 758 751 750
f 759 752 743
f 759 760 752
f 760 753 752
f 760 761 753
f 761 754 753
f 761 762 754
f 762 755 754
f 762 763 755
f 763 756 755
f 763 764 756
f 764 757 756
f 764 765 757
f 765 758 757
f 765 751 758
f 766 759 743
f 766 767 759
f 767 760 759
f 767 768 761
f 767 761 760
f 768 769 762
f 768 762 761
f 769 770 762
f 770 763 762
f 770 771 764
f 770 764 763
f 771 772 764
f 772 765 764
f 772 751 765
f 773 766 743
f 773 774 767
f 773 767 766
f 774 775 767
f 775 768 767
f 775 776 768
f 776 769 768
f 776 777 770
f 776 770 769
f 777 778 771
f 777 771 770
f 778 779 772
f 778 772 771
f 779 751 772
f 780 773 743
f 780 781 774
f 780 774 773
f 781 782 774
f 782 775 774
f 782 783 775
f 783 776 775
f 783 784 777
f 783 777 776
f 784 785 778
f 784 778 777
f 785 786 779
f 785 779 778
f 786 751 779
f 787 780 743
f 787 788 781
f 787 781 780
f 788 789 782
f 788 782 781
f 789 790 783
f 789 783 782
f 790 791 784
f 790 784 783
f 791 792 785
f 791 785 784
f 792 793 785
f 793 786 785
f 793 751 786
f 794 787 743
f 794 795 788
f 794 788 787
f 795 796 789
f 795 789 788
f 796 797 790
f 796 790 789
f 797 798 791
f 797 791 790
f 798 799 792
f 798 792 791
f 799 800 792
f 800 793 792
f 800 751 793
f 801 794 743
f 801 802 795
f 801 795 794
f 802 803 795
f 803 796 795
f 803 804 796
f 804 797 796
f 804 805 798
f 804 798 797
f 805 806 798
f 806 799 798
f 806 807 799
f 807 800 799
f 807 751 800
f 808 801 743
f 808 809 801
f 809 802 801
f 809 810 802
f 810 803 802
f 810 811 803
f 811 804 803
f 811 812 804
f 812 805 804
f 812 813 806
f 812 806 805
f 813 814 806
f 814 807 806
f 814 751 807
f 744 808 743
f 744 745 808
f 745 809 808
f 745 746 809
f 746 810 809
f 746 747 810
f 747 811 810
f 747 748 811
f 748 812 811
f 748 749 812
f 749 813 812
f 749 750 814
f 749 814 813
f 750 751 814
f 824 816 815
f 824 825 816
f 825 817 816
f 825 826 817
f 826 818 817
f 826 827 818
f 827 819 818
f 827 828 819
f 828 820 819
f 828 829 820
f 829 821 820
f 829 830 821
f 830 822 821
f 830 823 822
f 831 824 815
f 831 832 824
f 832 825 824
f 832 833 825
f 833 826 825
f 833 834 826
f 834 827 826
f 834 835 827
f 835 828 827
f 835 836 828
f 836 829 828
f 836 837 829
f 837 830 829
f 837 823 830
f 838 831 815
f 838 839 832
f 838 832 831
f 839 840 833
f 839 833 832
f 840 841 834
f 840 834 833
f 841 842 835
f 841 835 834
f 842 843 836
f 842 836 835
f 843 844 836
f 844 837 836
f 844 823 837
f 845 838 815
f 845 846 839
f 845 839 838
f 846 847 839
f 847 840 839
f 847 848 840
f 848 841 840
f 848 849 842
f 848 842 841
f 849 850 843
f 849 843 842
f 850 851 844
f 850 844 843
f 851 823 844
f 852 845 815
f 852 853 846
f 852 846 845
f 853 854 846
f 854 847 846
f 854 855 847
f 855 848 847
f 855 856 849
f 855 849 848
f 856 857 850
f 856 850 849
f 857 858 851
f 857 851 850
f 858 823 851
f 859 852 815
f 859 860 853
f 859 853 852
f 860 861 854
f 860 854 853
f 861 862 855
f 861 855 854
f 862 863 856
f 862 856 855
f 863 864 857
f 863 857 856
f 864 865 857
f 865 858 857
f 865 823 858
f 866 859 815
f 866 867 860
f 866 860 859
f 867 868 861
f 867 861 860
f 868 869 862
f 868 862 861
f 869 870 863
f 869 863 862
f 870 871 864
f 870 864 863
f 871 872 864
f 872 865 864
f 872 823 865
f 873 866 815
f 873 874 866
f 874 867 866
f 874 875 867
f 875 868 867
f 875 876 869
f 875 869 868
f 876 877 869
f 877 870 869
f 877 878 870
f 878 871 870
f 878 879 872
f 878 872 871
f 879 823 872
f 880 873 815
f 880 881 873
f 881 874 873
f 881 882 874
f 882 875 874
f 882 883 875
f 883 876 875
f 883 884 876
f 884 877 876
f 884 885 878
f 884 878 877
f 885 886 878
f 886 879 878
f 886 823 879
f 816 880 815
f 816 817 880
f 817 881 880
f 817 818 881
f 818 882 881
f 818 819 882
f 819 883 882
f 819 820 883
f 820 884 883
f 820 821 884
f 821 885 884
f 821 822 886
f 821 886 885
f 822 823 886
f 896 888 887
f 896 897 888
f 897 889 888
f 897 898 889
f 898 890 889
f 898 899 890
f 899 891 890
f 899 900 891
f 900 892 891
f 900 901 892
f 901 893 892
f 901 902 893
f 902 894 893
f 902 895 894
f 903 896 887
f 903 904 896
f 904 897 896
f 904 905 897
f 905 898 897
f 905 906 898
f 906 899 898
f 906 907 899
f 907 900 899
f 907 908 900
f 908 901 900
f 908 909 901
f 909 902 901
f 909 895 902
f 910 903 887
f 910 911 903
f 911 904 903
f 911 912 904
f 912 905 904
f 912 913 905
f 913 906 905
f 913 914 906
f 914 907 906
f 914 915 908
f 914 908 907
f 915 916 909
f 915 909 908
f 916 895 909
f 917 910 887
f 917 918 911
f 917 911 910
f 918 919 911
f 919 912 911
f 919 920 912
f 920 913 912
f 920 921 914
f 920 914 913
f 921 922 915
f 921 915 914
f 922 923 916
f 922 916 915
f 923 895 916
f 924 917 887
f 924 925 918
f 924 918 917
f 925 926 918
f 926 919 918
f 926 927 919
f 927 920 919
f 927 928 921
f 927 921 920
f 928 929 922
f 928 922 921
f 929 930 923
f 929 923 922
f 930 895 923
f 931 924 887
f 931 932 925
f 931 925 924
f 932 933 926
f 932 926 925
f 933 934 927
f 933 927 926
f 934 935 928
f 934 928 927
f 935 936 929
f 935 929 928
f 936 937 929
f 937 930 929
f 937 895 930
f 938 931 887
f 938 939 932
f 938 932 931
f 939 940 933
f 939 933 932
f 940 941 934
f 940 934 933
f 941 942 935
f 941 935 934
f 942 943 936
f 942 936 935
f 943 944 936
f 944 937 936
f 944 895 937
f 945 938 887
f 945 946 938
f 946 939 938
f 946 947 939
f 947 940 939
f 947 948 940
f 948 941 940
f 948 949 942
f 948 942 941
f 949 950 943
f 949 943 942
f 950 951 944
f 950 944 943
f 951 895 944
f 952 945 887
f 952 953 945
f 953 946 945
f 953 954 946
f 954 947 946
f 954 955 947
f 955 948 947
f 955 956 948
f 956 949 948
f 956 957 950
f 956 950 949
f 957 958 950
f 958 951 950
f 958 895 951
f 888 952 887
f 888 889 952
f 889 953 952
f 889 890 953
f 890 954 953
f 890 891 954
f 891 955 954
f 891 892 955
f 892 956 955
f 892 893 956
f 893 957 956
f 893 894 958
f 893 958 957
f 894 895 958
