# Generated by Visualization Toolkit
v 0.07500000298023224 -0.05000000074505806 0
v 0.07500000298023224 -0.15000000596046448 0
v 0.07132923603057861 -0.05000000074505806 -0.023176275193691254
v 0.07132923603057861 -0.15000000596046448 -0.023176275193691254
v 0.060676272958517075 -0.05000000074505806 -0.04408389329910278
v 0.060676272958517075 -0.15000000596046448 -0.04408389329910278
v 0.04408389329910278 -0.05000000074505806 -0.060676272958517075
v 0.04408389329910278 -0.15000000596046448 -0.060676272958517075
v 0.023176275193691254 -0.05000000074505806 -0.07132923603057861
v 0.023176275193691254 -0.15000000596046448 -0.07132923603057861
v -1.538275756773899e-11 -0.05000000074505806 -0.07500000298023224
v -1.538275756773899e-11 -0.15000000596046448 -0.07500000298023224
v -0.023176275193691254 -0.05000000074505806 -0.07132923603057861
v -0.023176275193691254 -0.15000000596046448 -0.07132923603057861
v -0.04408389329910278 -0.05000000074505806 -0.060676272958517075
v -0.04408389329910278 -0.15000000596046448 -0.060676272958517075
v -0.060676272958517075 -0.05000000074505806 -0.04408389329910278
v -0.060676272958517075 -0.15000000596046448 -0.04408389329910278
v -0.07132923603057861 -0.05000000074505806 -0.023176275193691254
v -0.07132923603057861 -0.15000000596046448 -0.023176275193691254
v -0.07500000298023224 -0.05000000074505806 3.076551513547798e-11
v -0.07500000298023224 -0.15000000596046448 3.076551513547798e-11
v -0.07132923603057861 -0.05000000074505806 0.023176275193691254
v -0.07132923603057861 -0.15000000596046448 0.023176275193691254
v -0.060676272958517075 -0.05000000074505806 0.04408389329910278
v -0.060676272958517075 -0.15000000596046448 0.04408389329910278
v -0.04408389329910278 -0.05000000074505806 0.060676272958517075
v -0.04408389329910278 -0.15000000596046448 0.060676272958517075
v -0.023176275193691254 -0.05000000074505806 0.07132923603057861
v -0.023176275193691254 -0.15000000596046448 0.07132923603057861
v 4.6148272703216975e-11 -0.05000000074505806 0.07500000298023224
v 4.6148272703216975e-11 -0.15000000596046448 0.07500000298023224
v 0.023176275193691254 -0.05000000074505806 0.07132923603057861
v 0.023176275193691254 -0.15000000596046448 0.07132923603057861
v 0.04408389329910278 -0.05000000074505806 0.060676272958517075
v 0.04408389329910278 -0.15000000596046448 0.060676272958517075
v 0.060676272958517075 -0.05000000074505806 0.04408389329910278
v 0.060676272958517075 -0.15000000596046448 0.04408389329910278
v 0.07132923603057861 -0.05000000074505806 0.023176275193691254
v 0.07132923603057861 -0.15000000596046448 0.023176275193691254
v 0.07500000298023224 -0.05000000074505806 0
v 0.07132923603057861 -0.05000000074505806 -0.023176275193691254
v 0.060676272958517075 -0.05000000074505806 -0.04408389329910278
v 0.04408389329910278 -0.05000000074505806 -0.060676272958517075
v 0.023176275193691254 -0.05000000074505806 -0.07132923603057861
v -1.538275756773899e-11 -0.05000000074505806 -0.07500000298023224
v -0.023176275193691254 -0.05000000074505806 -0.07132923603057861
v -0.04408389329910278 -0.05000000074505806 -0.060676272958517075
v -0.060676272958517075 -0.05000000074505806 -0.04408389329910278
v -0.07132923603057861 -0.05000000074505806 -0.023176275193691254
v -0.07500000298023224 -0.05000000074505806 3.076551513547798e-11
v -0.07132923603057861 -0.05000000074505806 0.023176275193691254
v -0.060676272958517075 -0.05000000074505806 0.04408389329910278
v -0.04408389329910278 -0.05000000074505806 0.060676272958517075
v -0.023176275193691254 -0.05000000074505806 0.07132923603057861
v 4.6148272703216975e-11 -0.05000000074505806 0.07500000298023224
v 0.023176275193691254 -0.05000000074505806 0.07132923603057861
v 0.04408389329910278 -0.05000000074505806 0.060676272958517075
v 0.060676272958517075 -0.05000000074505806 0.04408389329910278
v 0.07132923603057861 -0.05000000074505806 0.023176275193691254
v 0.07132923603057861 -0.15000000596046448 0.023176275193691254
v 0.060676272958517075 -0.15000000596046448 0.04408389329910278
v 0.04408389329910278 -0.15000000596046448 0.060676272958517075
v 0.023176275193691254 -0.15000000596046448 0.07132923603057861
v 4.6148272703216975e-11 -0.15000000596046448 0.07500000298023224
v -0.023176275193691254 -0.15000000596046448 0.07132923603057861
v -0.04408389329910278 -0.15000000596046448 0.060676272958517075
v -0.060676272958517075 -0.15000000596046448 0.04408389329910278
v -0.07132923603057861 -0.15000000596046448 0.023176275193691254
v -0.07500000298023224 -0.15000000596046448 3.076551513547798e-11
v -0.07132923603057861 -0.15000000596046448 -0.023176275193691254
v -0.060676272958517075 -0.15000000596046448 -0.04408389329910278
v -0.04408389329910278 -0.15000000596046448 -0.060676272958517075
v -0.023176275193691254 -0.15000000596046448 -0.07132923603057861
v -1.538275756773899e-11 -0.15000000596046448 -0.07500000298023224
v 0.023176275193691254 -0.15000000596046448 -0.07132923603057861
v 0.04408389329910278 -0.15000000596046448 -0.060676272958517075
v 0.060676272958517075 -0.15000000596046448 -0.04408389329910278
v 0.07132923603057861 -0.15000000596046448 -0.023176275193691254
v 0.07500000298023224 -0.15000000596046448 0
v 0.009999999776482582 7.450580707946131e-10 -0.06499999761581421
v 0.009999999776482582 -0.10000000149011612 -0.06499999761581421
v 0.008090170100331306 7.450580707946131e-10 -0.07087785005569458
v 0.008090170100331306 -0.10000000149011612 -0.07087785005569458
v 0.0030901699792593718 7.450580707946131e-10 -0.07451056689023972
v 0.0030901699792593718 -0.10000000149011612 -0.07451056689023972
v -0.0030901699792593718 7.450580707946131e-10 -0.07451056689023972
v -0.0030901699792593718 -0.10000000149011612 -0.07451056689023972
v -0.008090170100331306 7.450580707946131e-10 -0.07087785005569458
v -0.008090170100331306 -0.10000000149011612 -0.07087785005569458
v -0.009999999776482582 7.450580707946131e-10 -0.06499999761581421
v -0.009999999776482582 -0.10000000149011612 -0.06499999761581421
v -0.008090170100331306 7.450580707946131e-10 -0.059122148901224136
v -0.008090170100331306 -0.10000000149011612 -0.059122148901224136
v -0.0030901699792593718 7.450580707946131e-10 -0.0554894357919693
v -0.0030901699792593718 -0.10000000149011612 -0.0554894357919693
v 0.0030901699792593718 7.450580707946131e-10 -0.0554894357919693
v 0.0030901699792593718 -0.10000000149011612 -0.0554894357919693
v 0.008090170100331306 7.450580707946131e-10 -0.059122148901224136
v 0.008090170100331306 -0.10000000149011612 -0.059122148901224136
v 0.009999999776482582 7.450580707946131e-10 -0.06499999761581421
v 0.008090170100331306 7.450580707946131e-10 -0.07087785005569458
v 0.0030901699792593718 7.450580707946131e-10 -0.07451056689023972
v -0.0030901699792593718 7.450580707946131e-10 -0.07451056689023972
v -0.008090170100331306 7.450580707946131e-10 -0.07087785005569458
v -0.009999999776482582 7.450580707946131e-10 -0.06499999761581421
v -0.008090170100331306 7.450580707946131e-10 -0.059122148901224136
v -0.0030901699792593718 7.450580707946131e-10 -0.0554894357919693
v 0.0030901699792593718 7.450580707946131e-10 -0.0554894357919693
v 0.008090170100331306 7.450580707946131e-10 -0.059122148901224136
v 0.008090170100331306 -0.10000000149011612 -0.059122148901224136
v 0.0030901699792593718 -0.10000000149011612 -0.0554894357919693
v -0.0030901699792593718 -0.10000000149011612 -0.0554894357919693
v -0.008090170100331306 -0.10000000149011612 -0.059122148901224136
v -0.009999999776482582 -0.10000000149011612 -0.06499999761581421
v -0.008090170100331306 -0.10000000149011612 -0.07087785005569458
v -0.0030901699792593718 -0.10000000149011612 -0.07451056689023972
v 0.0030901699792593718 -0.10000000149011612 -0.07451056689023972
v 0.008090170100331306 -0.10000000149011612 -0.07087785005569458
v 0.009999999776482582 -0.10000000149011612 -0.06499999761581421
v 0.009999999776482582 7.450580707946131e-10 0.06499999761581421
v 0.009999999776482582 -0.10000000149011612 0.06499999761581421
v 0.008090170100331306 7.450580707946131e-10 0.059122148901224136
v 0.008090170100331306 -0.10000000149011612 0.059122148901224136
v 0.0030901699792593718 7.450580707946131e-10 0.0554894357919693
v 0.0030901699792593718 -0.10000000149011612 0.0554894357919693
v -0.0030901699792593718 7.450580707946131e-10 0.0554894357919693
v -0.0030901699792593718 -0.10000000149011612 0.0554894357919693
v -0.008090170100331306 7.450580707946131e-10 0.059122148901224136
v -0.008090170100331306 -0.10000000149011612 0.059122148901224136
v -0.009999999776482582 7.450580707946131e-10 0.06499999761581421
v -0.009999999776482582 -0.10000000149011612 0.06499999761581421
v -0.008090170100331306 7.450580707946131e-10 0.07087785005569458
v -0.008090170100331306 -0.10000000149011612 0.07087785005569458
v -0.0030901699792593718 7.450580707946131e-10 0.07451056689023972
v -0.0030901699792593718 -0.10000000149011612 0.07451056689023972
v 0.0030901699792593718 7.450580707946131e-10 0.07451056689023972
v 0.0030901699792593718 -0.10000000149011612 0.07451056689023972
v 0.008090170100331306 7.450580707946131e-10 0.07087785005569458
v 0.008090170100331306 -0.10000000149011612 0.07087785005569458
v 0.009999999776482582 7.450580707946131e-10 0.06499999761581421
v 0.008090170100331306 7.450580707946131e-10 0.059122148901224136
v 0.0030901699792593718 7.450580707946131e-10 0.0554894357919693
v -0.0030901699792593718 7.450580707946131e-10 0.0554894357919693
v -0.008090170100331306 7.450580707946131e-10 0.059122148901224136
v -0.009999999776482582 7.450580707946131e-10 0.06499999761581421
v -0.008090170100331306 7.450580707946131e-10 0.07087785005569458
v -0.0030901699792593718 7.450580707946131e-10 0.07451056689023972
v 0.0030901699792593718 7.450580707946131e-10 0.07451056689023972
v 0.008090170100331306 7.450580707946131e-10 0.07087785005569458
v 0.008090170100331306 -0.10000000149011612 0.07087785005569458
v 0.0030901699792593718 -0.10000000149011612 0.07451056689023972
v -0.0030901699792593718 -0.10000000149011612 0.07451056689023972
v -0.008090170100331306 -0.10000000149011612 0.07087785005569458
v -0.009999999776482582 -0.10000000149011612 0.06499999761581421
v -0.008090170100331306 -0.10000000149011612 0.059122148901224136
v -0.0030901699792593718 -0.10000000149011612 0.0554894357919693
v 0.0030901699792593718 -0.10000000149011612 0.0554894357919693
v 0.008090170100331306 -0.10000000149011612 0.059122148901224136
v 0.009999999776482582 -0.10000000149011612 0.06499999761581421
v 0.009999999776482582 7.450580707946131e-10 0.07500000298023224
v 0.009999999776482582 7.450580707946131e-10 -0.07500000298023224
v 0.008090170100331306 0.005877853371202946 0.07500000298023224
v 0.008090170100331306 0.005877853371202946 -0.07500000298023224
v 0.0030901699792593718 0.009510566480457783 0.07500000298023224
v 0.0030901699792593718 0.009510566480457783 -0.07500000298023224
v -0.0030901699792593718 0.009510566480457783 0.07500000298023224
v -0.0030901699792593718 0.009510566480457783 -0.07500000298023224
v -0.008090170100331306 0.005877853371202946 0.07500000298023224
v -0.008090170100331306 0.005877853371202946 -0.07500000298023224
v -0.009999999776482582 7.450580707946131e-10 0.07500000298023224
v -0.009999999776482582 7.450580707946131e-10 -0.07500000298023224
v -0.008090170100331306 -0.0058778515085577965 0.07500000298023224
v -0.008090170100331306 -0.0058778515085577965 -0.07500000298023224
v -0.0030901699792593718 -0.009510564617812634 0.07500000298023224
v -0.0030901699792593718 -0.009510564617812634 -0.07500000298023224
v 0.0030901699792593718 -0.009510564617812634 0.07500000298023224
v 0.0030901699792593718 -0.009510564617812634 -0.07500000298023224
v 0.008090170100331306 -0.0058778515085577965 0.07500000298023224
v 0.008090170100331306 -0.0058778515085577965 -0.07500000298023224
v 0.009999999776482582 7.450580707946131e-10 0.07500000298023224
v 0.008090170100331306 0.005877853371202946 0.07500000298023224
v 0.0030901699792593718 0.009510566480457783 0.07500000298023224
v -0.0030901699792593718 0.009510566480457783 0.07500000298023224
v -0.008090170100331306 0.005877853371202946 0.07500000298023224
v -0.009999999776482582 7.450580707946131e-10 0.07500000298023224
v -0.008090170100331306 -0.0058778515085577965 0.07500000298023224
v -0.0030901699792593718 -0.009510564617812634 0.07500000298023224
v 0.0030901699792593718 -0.009510564617812634 0.07500000298023224
v 0.008090170100331306 -0.0058778515085577965 0.07500000298023224
v 0.008090170100331306 -0.0058778515085577965 -0.07500000298023224
v 0.0030901699792593718 -0.009510564617812634 -0.07500000298023224
v -0.0030901699792593718 -0.009510564617812634 -0.07500000298023224
v -0.008090170100331306 -0.0058778515085577965 -0.07500000298023224
v -0.009999999776482582 7.450580707946131e-10 -0.07500000298023224
v -0.008090170100331306 0.005877853371202946 -0.07500000298023224
v -0.0030901699792593718 0.009510566480457783 -0.07500000298023224
v 0.0030901699792593718 0.009510566480457783 -0.07500000298023224
v 0.008090170100331306 0.005877853371202946 -0.07500000298023224
v 0.009999999776482582 7.450580707946131e-10 -0.07500000298023224
f 1 2 3
f 2 4 3
f 3 4 5
f 4 6 5
f 5 6 7
f 6 8 7
f 7 8 9
f 8 10 9
f 9 10 11
f 10 12 11
f 11 12 13
f 12 14 13
f 13 14 15
f 14 16 15
f 15 16 17
f 16 18 17
f 17 18 19
f 18 20 19
f 19 20 21
f 20 22 21
f 21 22 23
f 22 24 23
f 23 24 25
f 24 26 25
f 25 26 27
f 26 28 27
f 27 28 29
f 28 30 29
f 29 30 31
f 30 32 31
f 31 32 33
f 32 34 33
f 33 34 35
f 34 36 35
f 35 36 37
f 36 38 37
f 37 38 39
f 38 40 39
f 39 40 1
f 40 2 1
f 41 42 60
f 60 42 59
f 59 42 58
f 58 42 57
f 42 43 57
f 43 44 57
f 44 45 57
f 45 46 57
f 46 47 57
f 57 47 56
f 56 47 55
f 55 47 54
f 47 48 54
f 54 48 53
f 48 49 53
f 53 49 52
f 52 49 51
f 50 51 49
f 65 66 64
f 64 66 63
f 63 66 62
f 62 66 61
f 66 67 61
f 67 68 61
f 68 69 61
f 61 69 80
f 80 69 79
f 69 70 79
f 70 71 79
f 79 71 78
f 71 72 78
f 78 72 77
f 72 73 77
f 77 73 76
f 76 73 75
f 75 73 74
f 81 82 83
f 82 84 83
f 83 84 85
f 84 86 85
f 85 86 87
f 86 88 87
f 87 88 89
f 88 90 89
f 89 90 91
f 90 92 91
f 91 92 93
f 92 94 93
f 93 94 95
f 94 96 95
f 95 96 97
f 96 98 97
f 97 98 99
f 98 100 99
f 99 100 81
f 100 82 81
f 103 104 102
f 104 105 102
f 102 105 101
f 105 106 101
f 101 106 110
f 110 106 109
f 109 106 108
f 107 108 106
f 117 118 116
f 118 119 116
f 116 119 115
f 119 120 115
f 115 120 114
f 114 120 113
f 113 120 112
f 111 112 120
f 121 122 123
f 122 124 123
f 123 124 125
f 124 126 125
f 125 126 127
f 126 128 127
f 127 128 129
f 128 130 129
f 129 130 131
f 130 132 131
f 131 132 133
f 132 134 133
f 133 134 135
f 134 136 135
f 135 136 137
f 136 138 137
f 137 138 139
f 138 140 139
f 139 140 121
f 140 122 121
f 148 149 147
f 149 150 147
f 147 150 146
f 150 141 146
f 146 141 145
f 145 141 144
f 144 141 143
f 142 143 141
f 152 153 151
f 153 154 151
f 151 154 160
f 154 155 160
f 160 155 159
f 159 155 158
f 158 155 157
f 156 157 155
f 161 162 163
f 162 164 163
f 163 164 165
f 164 166 165
f 165 166 167
f 166 168 167
f 167 168 169
f 168 170 169
f 169 170 171
f 170 172 171
f 171 172 173
f 172 174 173
f 173 174 175
f 174 176 175
f 175 176 177
f 176 178 177
f 177 178 179
f 178 180 179
f 179 180 161
f 180 162 161
f 183 184 182
f 184 185 182
f 182 185 181
f 185 186 181
f 181 186 190
f 190 186 189
f 189 186 188
f 187 188 186
f 192 193 191
f 193 194 191
f 191 194 200
f 200 194 199
f 199 194 198
f 198 194 197
f 197 194 196
f 195 196 194
