# Generated by Visualization Toolkit
v 0.02594899944961071 0.0003239999932702631 0.008043999783694744
v 0.028658999130129814 0.0008820000221021473 0.0067980000749230385
v 0.027298999950289726 0.0016759999562054873 0.00976600032299757
v 0.021152999252080917 -0.00177800003439188 0.002768999896943569
v 0.02605699934065342 -0.0008440000237897038 0.003360999980941415
v 0.023994000628590584 0.0024339999072253704 0.011314000003039837
v 0.022175999358296394 -0.0013340000296011567 0.00648100022226572
v 0.027209000661969185 -0.0002280000044265762 0.005109999794512987
v 0.03691500052809715 0.0014329999685287476 0.005615000147372484
v 0.026607999578118324 0.0035409999545663595 0.011460999958217144
v 0.027639999985694885 0.005923000164330006 0.012690999545156956
v 0.020831000059843063 -0.0017229999648407102 0.0048790001310408115
v 0.024348000064492226 -0.0013330000219866633 0.0016299999551847577
v 0.012996000237762928 -0.0019020000472664833 0.004248000215739012
v 0.01765899918973446 -0.002517000073567033 0.0014509999891743064
v 0.02033100090920925 -0.0024240000639110804 0.0007849999819882214
v 0.027666000649333 -0.0008089999901130795 0.00045900000259280205
v 0.02557400055229664 0.005497999954968691 0.012715999968349934
v 0.02081199921667576 0.0015379999531432986 0.01080199982970953
v 0.021067999303340912 0.0009309999877586961 0.01030800025910139
v 0.020896999165415764 0.00033000000985339284 0.009384999983012676
v 0.020752999931573868 -0.00025599999935366213 0.008527999743819237
v 0.02068600058555603 -0.0010010000551119447 0.007608000189065933
v 0.01958799920976162 -0.0013539999490603805 0.007521999999880791
v 0.038933999836444855 0.000037000001611886546 0.0001880000054370612
v 0.03782400116324425 0.0005380000220611691 -0.0038590000476688147
v 0.03778199851512909 0.0006559999892488122 0.0031419999431818724
v 0.043407998979091644 0.0006220000213943422 0.0039029999170452356
v 0.04088300094008446 0.00029399999766610563 0.0021800000686198473
v 0.02520499937236309 0.00827100034803152 0.013326000422239304
v 0.03423700109124184 0.01118599995970726 0.013175000436604023
v 0.028800999745726585 0.012527000159025192 0.013915999792516232
v 0.04757099971175194 0.013895999640226364 0.014595000073313713
v 0.02463500015437603 0.011144000105559826 0.013903000392019749
v 0.026667000725865364 0.011700999923050404 0.01395499985665083
v 0.016163000836968422 -0.001962000038474798 0.005830999929457903
v 0.01846499927341938 -0.0018579999450594187 0.00622900016605854
v 0.02616499923169613 -0.0015429999912157655 -0.0012150000547990203
v 0.011123999953269958 0.0002800000074785203 0.007120999973267317
v 0.010703999549150467 -0.0012580000329762697 0.004689000081270933
v 0.009908000007271767 -0.0019209999591112137 0.0024369999300688505
v 0.014085999689996243 -0.003208999987691641 0.00043700000969693065
v 0.011921999976038933 -0.002644999884068966 0.0013899999903514981
v 0.015536000020802021 -0.004401999991387129 -0.0019079999765381217
v 0.026743000373244286 -0.0019940000493079424 -0.003975000232458115
v 0.028884999454021454 -0.001164000015705824 -0.0029380000196397305
v 0.018696000799536705 -0.004416999872773886 -0.0025939999613910913
v 0.024063000455498695 -0.002848000032827258 -0.00342399999499321
v 0.021518999710679054 -0.0033019999973475933 -0.0024939998984336853
v 0.022592000663280487 0.008454999886453152 0.012457000091671944
v 0.02246900089085102 0.006816999986767769 0.012384999543428421
v 0.021649999544024467 0.005909999832510948 0.012102999724447727
v 0.01897899992763996 0.005044999998062849 0.011583000421524048
v 0.018581999465823174 0.0028750000055879354 0.010997000150382519
v 0.018964000046253204 0.0038640000857412815 0.011323999613523483
v 0.019652999937534332 0.0025110000278800726 0.011111999861896038
v 0.020681999623775482 0.00215999991632998 0.011164999566972256
v 0.019377000629901886 0.0008820000221021473 0.01027899980545044
v 0.0191040001809597 0.0015300000086426735 0.010703000240027905
v 0.019226999953389168 0.00022699999681208283 0.00936300028115511
v 0.019845999777317047 -0.0005959999980404973 0.008465999737381935
v 0.018970999866724014 -0.0009580000187270343 0.008325999602675438
v 0.04729200154542923 -0.0016199999954551458 -0.004519999958574772
v 0.046066999435424805 -0.0015709999715909362 -0.002225999953225255
v 0.03986499831080437 0.0007379999733529985 -0.007052999921143055
v 0.03251799941062927 -0.00024199999461416155 -0.006682999897748232
v 0.028744999319314957 -0.0016830000095069408 -0.00558099988847971
v 0.0471780002117157 -0.0011419999646022916 0.0006960000027902424
v 0.04703899845480919 -0.0003009999927598983 0.003091000020503998
v 0.0487309992313385 0.0004450000124052167 0.004476000089198351
v 0.0544620007276535 0.01372500043362379 0.014348999597132206
v 0.022092999890446663 0.01298999972641468 0.013415999710559845
v 0.03329399973154068 0.013907000422477722 0.013503000140190125
v 0.031067000702023506 0.013198000378906727 0.013666000217199326
v 0.0315839983522892 0.01897599920630455 0.01412499975413084
v 0.03232400119304657 0.016398999840021133 0.013860000297427177
v 0.04894300177693367 0.014329999685287476 0.014632999897003174
v 0.04652300104498863 0.015537000261247158 0.015041000209748745
v 0.038881998509168625 0.01912200078368187 0.01470400020480156
v 0.022801000624895096 0.0165570005774498 0.013722999952733517
v 0.01591400057077408 0.00039900001138448715 0.009266000241041183
v 0.008511999621987343 -0.0006120000034570694 0.0046190000139176846
v 0.011497000232338905 0.002693000016734004 0.008446999825537205
v 0.010838000103831291 0.0013289999915286899 0.007493000011891127
v 0.007999000139534473 0.0004569999873638153 0.005014999769628048
v 0.00735800014808774 -0.0012969999806955457 0.002311999909579754
v 0.007211000192910433 -0.0036279999185353518 -0.0004820000031031668
v 0.009557000361382961 -0.0031769999768584967 0.001053999993018806
v 0.009631999768316746 -0.004397000186145306 -0.00003899999865097925
v 0.011993000283837318 -0.004989999812096357 -0.0018609999679028988
v 0.018857000395655632 -0.007631999906152487 -0.00419999985024333
v 0.010858000256121159 -0.005522000137716532 -0.0025100000202655792
v 0.026187000796198845 -0.0025740000419318676 -0.004881000146269798
v 0.025877999141812325 -0.003323999932035804 -0.00583299994468689
v 0.016172999516129494 0.010428999550640583 0.010950000025331974
v 0.019223999232053757 0.0066269999369978905 0.011800000444054604
v 0.01297799963504076 0.008945000357925892 0.00993799977004528
v 0.01791900023818016 0.0018779999809339643 0.010575000196695328
v 0.01620499975979328 0.0016710000345483422 0.00992599967867136
v 0.04799399897456169 -0.0019020000472664833 -0.0025289999321103096
v 0.050011999905109406 -0.0015829999465495348 -0.0041809999383986
v 0.04676799848675728 -0.001095999963581562 -0.0070489998906850815
v 0.053578998893499374 -0.0020860000513494015 -0.00006900000153109431
v 0.040640998631715775 0.0019829999655485153 -0.009056000038981438
v 0.03905799984931946 0.003418999956920743 -0.01027199998497963
v 0.03363500162959099 0.0006680000224150717 -0.009030000306665897
v 0.027543000876903534 -0.003157000057399273 -0.007288999855518341
v 0.05063999816775322 -0.0011070000473409891 0.002563999965786934
v 0.05216199904680252 -0.00037900000461377203 0.003797000041231513
v 0.05369099974632263 0.0003650000144261867 0.00494399992749095
v 0.05733700096607208 0.01502699963748455 0.01562800072133541
v 0.05136299878358841 0.015072000212967396 0.014770000241696835
v 0.05759099870920181 0.0012309999438002706 0.005417999811470509
v 0.05887199938297272 0.0013899999903514981 0.005388000048696995
v 0.06393799930810928 0.01044199988245964 0.014170000329613686
v 0.06060900166630745 0.002329000039026141 0.005772000178694725
v 0.06467600166797638 0.005772000178694725 0.00865199975669384
v 0.01957399956882 0.013079999946057796 0.012364000082015991
v 0.032152000814676285 0.020733000710606575 0.013669000007212162
v 0.035801000893116 0.021153999492526054 0.013775999657809734
v 0.05087900161743164 0.017602000385522842 0.014631000347435474
v 0.04600600153207779 0.017998000606894493 0.014781000092625618
v 0.03880799934267998 0.02135699987411499 0.013295999728143215
v 0.048110999166965485 0.022964000701904297 0.011667000129818916
v 0.04593199864029884 0.01999099925160408 0.01394100021570921
v 0.02480199933052063 0.021974999457597733 0.01234500017017126
v 0.022940000519156456 0.021229000762104988 0.012107999995350838
v 0.01968199945986271 0.022335000336170197 0.010835000313818455
v 0.014220000244677067 0.015355999581515789 0.010168000124394894
v 0.016688000410795212 0.013237999752163887 0.011060000397264957
v 0.014612000435590744 0.0018889999482780695 0.009291999973356724
v 0.0028029999230057 0.0010049999691545963 0.0012339999666437507
v 0.008720999583601952 0.002283999929204583 0.006839000154286623
v 0.013249999843537807 0.0025599999353289604 0.009095000103116035
v 0.005716000217944384 0.0014049999881535769 0.004162000026553869
v 0.004532999824732542 -0.0026579999830573797 -0.0010420000180602074
v 0.004182000178843737 -0.0029959999956190586 -0.0022720000706613064
v 0.009998999536037445 -0.004920999985188246 -0.0012369999894872308
v 0.006767000071704388 -0.005493999924510717 -0.004459999967366457
v 0.023271000012755394 -0.007321999873965979 -0.0068709999322891235
v 0.023881999775767326 -0.006308000069111586 -0.006393999792635441
v 0.010203000158071518 -0.0065299998968839645 -0.003894000081345439
v 0.012037999927997589 -0.008717999793589115 -0.005640000104904175
v 0.014431999996304512 -0.009758000262081623 -0.005913999862968922
v 0.019890999421477318 -0.008984999731183052 -0.006206999998539686
v 0.017886999994516373 -0.008806000463664532 -0.005371000152081251
v 0.026839999482035637 -0.003976000007241964 -0.007441000081598759
v 0.026134999468922615 -0.004941999912261963 -0.007619999814778566
v 0.016404999420046806 0.008631999604403973 0.011079000309109688
v 0.007934000343084335 0.009823000058531761 0.008057000115513802
v 0.009724999777972698 0.006308000069111586 0.00822100043296814
v 0.049532998353242874 -0.0009840000420808792 -0.006281999871134758
v 0.047311000525951385 0.00046499999007210135 -0.009081999771296978
v 0.059397000819444656 -0.000493000028654933 0.0007179999956861138
v 0.058159999549388885 -0.0005559999844990671 0.0024129999801516533
v 0.057440999895334244 -0.000007999999979801942 0.0040339999832212925
v 0.0541750006377697 -0.0006399999838322401 0.0033360000234097242
v 0.05173199996352196 0.000050999999075429514 -0.007550999987870455
v 0.04767199978232384 0.001984999980777502 -0.010582000017166138
v 0.04157600179314613 0.005187999922782183 -0.012098000384867191
v 0.03373799845576286 0.002643000101670623 -0.011742999777197838
v 0.03567500039935112 0.0067540002055466175 -0.01406100019812584
v 0.03911999985575676 0.005355999805033207 -0.012569000013172626
v 0.03098299913108349 0.0018149999668821692 -0.012672999873757362
v 0.027296999469399452 -0.0034119999036192894 -0.009181000292301178
v 0.05727599933743477 0.016844000667333603 0.015890000388026237
v 0.06192300096154213 0.018435999751091003 0.01594799943268299
v 0.056843001395463943 0.018340999260544777 0.015340999700129032
v 0.05884600058197975 0.0001829999964684248 0.004027999937534332
v 0.05995199829339981 0.0002749999985098839 0.003924999851733446
v 0.06723800301551819 0.0077680000104010105 0.012241999618709087
v 0.06830800324678421 0.012153999879956245 0.015525000169873238
v 0.06119700148701668 0.002314999932423234 0.00240899994969368
v 0.06045300140976906 0.0006500000017695129 0.0038819999899715185
v 0.06090699881315231 0.0023219999857246876 0.00009300000237999484
v 0.06029700115323067 0.0024800000246614218 -0.003684000112116337
v 0.061108000576496124 0.005663999821990728 -0.004188999999314547
v 0.05995900183916092 0.009384999983012676 -0.007195000071078539
v 0.06799700111150742 0.02229500003159046 0.006895000115036964
v 0.06254599988460541 0.012616000138223171 -0.0026469998992979527
v 0.03830299898982048 0.02355100028216839 0.011366000398993492
v 0.03945700079202652 0.025405000895261765 0.009922999888658524
v 0.025763999670743942 0.024904999881982803 0.011481000110507011
v 0.034398000687360764 0.0269009992480278 0.01080899965018034
v 0.03885899856686592 0.02269900031387806 0.012020999565720558
v 0.04809999838471413 0.019531000405550003 0.014120000414550304
v 0.053043000400066376 0.019634999334812164 0.014689000323414803
v 0.05464699864387512 0.019828999415040016 0.014872999861836433
v 0.05075100064277649 0.019526999443769455 0.014414000324904919
v 0.04066700115799904 0.024265000596642494 0.010460999794304371
v 0.06140099838376045 0.026443000882864 0.010100999847054482
v 0.039090998470783234 0.03160100057721138 0.008395000360906124
v 0.047391001135110855 0.028010999783873558 0.0047519998624920845
v 0.05618700012564659 0.02424200065433979 0.006118999794125557
v 0.023307999595999718 0.02410699985921383 0.01130099967122078
v 0.013891000300645828 0.01830100081861019 0.009633000008761883
v 0.01659099943935871 0.021821999922394753 0.009783999994397163
v 0.007333000190556049 0.01308200042694807 0.008445999585092068
v 0.011231999844312668 0.015580999664962292 0.009487000294029713
v 0.0025080000050365925 -0.00008199999865610152 -0.0003699999942909926
v 0.002133999951183796 0.00659599993377924 0.005415000021457672
v -0.0023950000759214163 0.0023070001043379307 -0.004869000054895878
v 0.007236999925225973 0.006696000229567289 0.00725100003182888
v 0.002423000056296587 -0.0011889999732375145 -0.0017869999865069985
v 0.00266100000590086 -0.0034749999176710844 -0.00839299988001585
v 0.006544000003486872 -0.0059380000457167625 -0.006630999967455864
v 0.002443999983370304 -0.0028899998869746923 -0.0063669998198747635
v 0.009399999864399433 -0.0074720000848174095 -0.005537999793887138
v 0.02505500055849552 -0.007031999994069338 -0.008750000037252903
v 0.020163999870419502 -0.010373000055551529 -0.008534000255167484
v 0.018574999645352364 -0.010262000374495983 -0.007205000147223473
v 0.0216630008071661 -0.01052400004118681 -0.010052000172436237
v 0.011495999991893768 -0.009248999878764153 -0.007586000021547079
v 0.018797000870108604 -0.011642999947071075 -0.011726999655365944
v 0.01043500006198883 -0.009297000244259834 -0.009460999630391598
v 0.026757000014185905 -0.004412999842315912 -0.009747999720275402
v 0.0068060001358389854 0.010193999856710434 0.00786800030618906
v 0.05189400166273117 0.0011840000515803695 -0.009744999930262566
v 0.0604109987616539 0.0005189999938011169 0.0024840000551193953
v 0.05999799817800522 0.000028000000384054147 0.0024649999104440212
v 0.057806000113487244 0.002085000043734908 -0.008685000240802765
v 0.06036299839615822 0.0020349998958408833 -0.0021929999347776175
v 0.06021900102496147 0.0014270000392571092 -0.0010590000310912728
v 0.047290999442338943 0.005867000203579664 -0.011857000179588795
v 0.04818899929523468 0.0032709999941289425 -0.010982999578118324
v 0.05245399847626686 0.0028150000143796206 -0.01046799961477518
v 0.04271800071001053 0.013581999577581882 -0.01523900032043457
v 0.04185599833726883 0.009115999564528465 -0.013849999755620956
v 0.039462000131607056 0.007488999981433153 -0.013623000122606754
v 0.04117700085043907 0.0065299998968839645 -0.012966999784111977
v 0.0339060015976429 0.011943000368773937 -0.015445999801158905
v 0.036913998425006866 0.013426999561488628 -0.015412000007927418
v 0.03956900164484978 0.012600000016391277 -0.014996999874711037
v 0.028968000784516335 0.0048940000124275684 -0.016370000317692757
v 0.03064499981701374 0.003854000009596348 -0.015185000374913216
v 0.027659999206662178 -0.002742999931797385 -0.01132499985396862
v 0.029200000688433647 0.002167999977245927 -0.015622000209987164
v 0.057718001306056976 0.02050199918448925 0.0150950001552701
v 0.06497900187969208 0.021827999502420425 0.01372199971228838
v 0.05625300109386444 0.020309999585151672 0.01496300008147955
v 0.0663049966096878 0.027684999629855156 0.006699000019580126
v 0.060805998742580414 0.0018139999592676759 0.0011530000483617187
v 0.06084800139069557 0.0014359999913722277 0.002549000084400177
v 0.059999000281095505 0.00343300006352365 -0.006074000149965286
v 0.06090699881315231 0.004718999844044447 -0.005528999958187342
v 0.06071100011467934 0.005714000202715397 -0.007207000162452459
v 0.05771400034427643 0.008344000205397606 -0.008938999846577644
v 0.05970799922943115 0.013864000327885151 -0.008879000321030617
v 0.06092099845409393 0.014565999619662762 -0.007499999832361937
v 0.06925699859857559 0.02664799988269806 0.003258999902755022
v 0.06979899853467941 0.0194070003926754 -0.0031479999888688326
v 0.06335999816656113 0.015768000856041908 -0.006856999825686216
v 0.06406199932098389 0.017054999247193336 -0.008050999604165554
v 0.061889998614788055 0.014744999818503857 -0.006630999967455864
v 0.03658600151538849 0.02665800042450428 0.010363999754190445
v 0.038081999868154526 0.027668999508023262 0.00957299955189228
v 0.031146999448537827 0.02736400067806244 0.010745000094175339
v 0.025891000404953957 0.0276040006428957 0.009623999707400799
v 0.027199000120162964 0.03282099962234497 0.005656000226736069
v 0.05991699919104576 0.026007000356912613 0.005011000204831362
v 0.034790001809597015 0.035367999225854874 0.005415999796241522
v 0.04642400145530701 0.032203998416662216 -0.005431999918073416
v 0.0489719994366169 0.02839300036430359 -0.009519999846816063
v 0.0562559999525547 0.02571900002658367 0.000018999999156221747
v 0.013687999919056892 0.021042000502347946 0.008996999822556973
v 0.008666999638080597 0.015876999124884605 0.009014000184834003
v 0.0021379999816417694 0.016395000740885735 0.0070580001920461655
v -0.00344299990683794 0.010104999877512455 0.003191000083461404
v -0.003918000031262636 0.005104000214487314 -0.0023240000009536743
v -0.0010369999799877405 -0.0014019999653100967 -0.010231000371277332
v -0.0005159999709576368 -0.000750000006519258 -0.00861900020390749
v 0.0009089999948628247 -0.0017059999518096447 -0.007304000202566385
v -0.005402999930083752 0.005648000165820122 -0.008279000408947468
v -0.005036000162363052 0.005681999959051609 -0.010514000430703163
v -0.005694999825209379 0.005524999927729368 -0.006122000049799681
v -0.00559299997985363 0.0056329998187720776 -0.007094999775290489
v 0.00042600001324899495 -0.002368000103160739 -0.011095000430941582
v 0.0030980000738054514 -0.003973000217229128 -0.009948000311851501
v 0.004466000013053417 -0.005059999879449606 -0.009464999660849571
v -0.00008399999933317304 -0.0018489999929443002 -0.00975400023162365
v 0.02710999920964241 -0.003834000090137124 -0.012124000117182732
v 0.024414999410510063 -0.00836700014770031 -0.011624000035226345
v 0.025193000212311745 -0.008015000261366367 -0.013983000069856644
v 0.0227269995957613 -0.010033000260591507 -0.012257000431418419
v 0.022066999226808548 -0.009433000348508358 -0.017497999593615532
v 0.014223000034689903 -0.009868999943137169 -0.017618000507354736
v 0.016495000571012497 -0.009467000141739845 -0.019842000678181648
v 0.018533999100327492 -0.009056000038981438 -0.02056100033223629
v 0.003367000026628375 -0.004422999918460846 -0.011849000118672848
v 0.0015529999509453773 -0.0017369999550282955 -0.01664300076663494
v 0.0547339990735054 0.002722000004723668 -0.010006999596953392
v 0.05634799972176552 0.003089000005275011 -0.009715000167489052
v 0.059803999960422516 0.004472999833524227 -0.007860999554395676
v 0.05737999826669693 0.004162999801337719 -0.009565000422298908
v 0.04501400142908096 0.009839000180363655 -0.013780999928712845
v 0.04701099917292595 0.008905000053346157 -0.013074999675154686
v 0.049171000719070435 0.007583000231534243 -0.012133999727666378
v 0.04871999844908714 0.00455200020223856 -0.011277000419795513
v 0.049435000866651535 0.005942000076174736 -0.011731999926269054
v 0.041868001222610474 0.01636200025677681 -0.016040999442338943
v 0.04425700008869171 0.014650999568402767 -0.015780000016093254
v 0.033684998750686646 0.02413799986243248 -0.01705300062894821
v 0.04863300174474716 0.014097999781370163 -0.01586800068616867
v 0.04818100109696388 0.01040400005877018 -0.013664999976754189
v 0.02552800066769123 0.022019999101758003 -0.01766899973154068
v 0.0321040004491806 0.010692000389099121 -0.015792999416589737
v 0.027142999693751335 0.005685000214725733 -0.017461000010371208
v 0.028742000460624695 0.007579000201076269 -0.016836000606417656
v 0.027758000418543816 0.0032029999420046806 -0.01683799922466278
v 0.030462000519037247 0.00949500035494566 -0.0162189994007349
v 0.026877999305725098 0.0015330000314861536 -0.017489999532699585
v 0.026861000806093216 -0.0017290000105276704 -0.017612000927329063
v 0.06247200071811676 0.025436999276280403 -0.0010219999821856618
v 0.058329999446868896 0.005696999840438366 -0.008799999952316284
v 0.05339000001549721 0.010924999602138996 -0.01371300034224987
v 0.06289999932050705 0.017364999279379845 -0.010546999983489513
v 0.060610998421907425 0.015242000110447407 -0.010462000034749508
v 0.05994800105690956 0.015283999964594841 -0.011412999592721462
v 0.058472998440265656 0.014879000373184681 -0.012311000376939774
v 0.0651250034570694 0.022847000509500504 -0.00684799998998642
v 0.06728100031614304 0.02115599997341633 -0.006819999776780605
v 0.06454399973154068 0.01892700046300888 -0.009790999814867973
v 0.06505700200796127 0.01878499984741211 -0.008631999604403973
v 0.0040339999832212925 0.02631399966776371 0.0033549999352544546
v 0.028521999716758728 0.03777800127863884 -0.001361000002361834
v 0.01879199966788292 0.03303699940443039 -0.0007399999885819852
v 0.013384000398218632 0.031355999410152435 -0.0016949999844655395
v 0.012051999568939209 0.030223000794649124 0.0001630000042496249
v 0.061149999499320984 0.02526099979877472 -0.00009600000339560211
v 0.03148899972438812 0.03711700066924095 -0.011621000245213509
v 0.04274899885058403 0.03080200031399727 -0.01637599989771843
v 0.04530100151896477 0.03065199963748455 -0.012713000178337097
v 0.046282000839710236 0.03027299977838993 -0.016519999131560326
v 0.05964500084519386 0.03424900025129318 -0.02089099958539009
v 0.053050000220537186 0.028279999271035194 -0.008194999769330025
v -0.005646000150591135 0.020245999097824097 -0.0019310000352561474
v -0.006298999767750502 0.01665399968624115 -0.001395000028423965
v -0.006010000128298998 0.013624999672174454 0.0006960000027902424
v -0.0028589998837560415 0.02696399949491024 -0.0016080000204965472
v -0.005241000093519688 0.007902000099420547 -0.0015910000074654818
v -0.0064489999786019325 0.010513000190258026 -0.001183000043965876
v -0.006310000084340572 0.012033999897539616 -0.00020500000391621143
v -0.00570600014179945 0.007557000033557415 -0.0037960000336170197
v -0.00648199999704957 0.007761000189930201 -0.005737000145018101
v -0.0006099999882280827 -0.0014140000566840172 -0.011278999969363213
v -0.005363999865949154 0.01123099960386753 -0.015482000075280666
v -0.004468999803066254 0.005609000101685524 -0.012765999883413315
v -0.00007300000288523734 -0.0014479999663308263 -0.01243900042027235
v -0.006976999808102846 0.010371999815106392 -0.009277000091969967
v 0.023507999256253242 -0.009495999664068222 -0.014840000309050083
v 0.024669000878930092 -0.00736499996855855 -0.016923999413847923
v 0.02053700014948845 -0.009095000103116035 -0.019958000630140305
v 0.023289000615477562 -0.007619999814778566 -0.020515000447630882
v 0.014368000440299511 -0.009177999570965767 -0.019023999571800232
v 0.012497999705374241 -0.007542000152170658 -0.021887000650167465
v 0.009153000079095364 -0.006769999861717224 -0.019652999937534332
v 0.014669000171124935 -0.008696000091731548 -0.02018599957227707
v 0.014646000228822231 -0.008297000080347061 -0.02144400030374527
v 0.014902000315487385 -0.007325999904423952 -0.02255599945783615
v 0.022314000874757767 -0.007381000090390444 -0.0212980005890131
v 0.001294999965466559 -0.001986999996006489 -0.014476999640464783
v 0.0025919999461621046 -0.0015300000086426735 -0.01840599998831749
v 0.0053530000150203705 -0.0036750000435858965 -0.019128000363707542
v -0.0005719999899156392 0.002532999962568283 -0.019109999760985374
v 0.04161500185728073 0.019164999946951866 -0.016628999263048172
v 0.043905001133680344 0.017761999741196632 -0.0164560005068779
v 0.02701300010085106 0.024140000343322754 -0.016793999820947647
v 0.034591998904943466 0.026552999392151833 -0.01634499989449978
v 0.03687699884176254 0.02582399919629097 -0.016637999564409256
v 0.03126399964094162 0.02501400001347065 -0.016818000003695488
v 0.040456000715494156 0.021516000851988792 -0.016669999808073044
v 0.042711999267339706 0.02029399946331978 -0.01650100015103817
v 0.052848998457193375 0.019001999869942665 -0.015792999416589737
v 0.05417700111865997 0.017364000901579857 -0.015428000129759312
v 0.0463780015707016 0.02245200052857399 -0.016429999843239784
v 0.0480629988014698 0.023895999416708946 -0.016874000430107117
v 0.04410500079393387 0.02122100070118904 -0.016315000131726265
v 0.05302099883556366 0.015010000206530094 -0.014996999874711037
v 0.0211350005120039 0.021692000329494476 -0.017712999135255814
v 0.022401999682188034 0.005812999792397022 -0.020241999998688698
v 0.02444400079548359 0.004865999799221754 -0.019192999228835106
v 0.02621700055897236 0.003932000137865543 -0.018115000799298286
v 0.016612999141216278 0.009438999928534031 -0.021757999435067177
v 0.020549999549984932 0.006196000147610903 -0.021046999841928482
v 0.01929900050163269 0.019300999119877815 -0.01864599995315075
v 0.015122000128030777 0.012095999903976917 -0.021390000358223915
v 0.026247000321745872 0.0002749999985098839 -0.018193000927567482
v 0.024157000705599785 -0.003978000022470951 -0.020362000912427902
v 0.025628000497817993 -0.0009970000246539712 -0.018811000511050224
v 0.02438800036907196 -0.006382000166922808 -0.019721999764442444
v 0.06221500039100647 0.025436999276280403 -0.003066000062972307
v 0.06353399902582169 0.02289400063455105 -0.009397000074386597
v 0.05645899847149849 0.01553799957036972 -0.014632999897003174
v 0.05730399861931801 0.014836999587714672 -0.01385399978607893
v 0.06371500343084335 0.02104100026190281 -0.012442000210285187
v 0.06267300248146057 0.02069300040602684 -0.013172999955713749
v 0.061781998723745346 0.020812999457120895 -0.014744999818503857
v 0.05824999883770943 0.01724099926650524 -0.01460999995470047
v 0.06475500017404556 0.021409999579191208 -0.0112119996920228
v 0.06537999957799911 0.020816000178456306 -0.010009000077843666
v 0.0025599999353289604 0.03067700006067753 -0.0023399998899549246
v 0.004554999992251396 0.030693000182509422 -0.002065999899059534
v 0.010273999534547329 0.029892999678850174 0.0002390000008745119
v 0.008307999931275845 0.029458999633789062 0.0002589999930933118
v 0.0071470001712441444 0.030717000365257263 -0.001782999956049025
v 0.0008340000058524311 0.030554000288248062 -0.002486000070348382
v 0.018597999587655067 0.03348100185394287 -0.0048329997807741165
v 0.024145999923348427 0.03717900067567825 -0.008810999803245068
v 0.013540999963879585 0.031908001750707626 -0.003418999956920743
v 0.013515000231564045 0.03227100148797035 -0.005154000129550695
v 0.01608400046825409 0.03281699866056442 -0.004935000091791153
v 0.02325199916958809 0.033636998385190964 -0.012473000213503838
v 0.038116998970508575 0.030017999932169914 -0.01636200025677681
v 0.03956000134348869 0.029815999791026115 -0.01720299944281578
v 0.043497998267412186 0.030515000224113464 -0.01984499953687191
v 0.041951000690460205 0.029944999143481255 -0.019481999799609184
v 0.043685998767614365 0.031390998512506485 -0.022074999287724495
v 0.05640599876642227 0.03712699934840202 -0.02255300059914589
v 0.047012001276016235 0.03521699830889702 -0.02267500013113022
v 0.061983998864889145 0.02743699960410595 -0.010951000265777111
v 0.061873000115156174 0.029330000281333923 -0.023399999365210533
v -0.006182999815791845 0.01825599931180477 -0.0024019998963922262
v -0.005415000021457672 0.02281299978494644 -0.003074999898672104
v -0.007203000131994486 0.011978999711573124 -0.0051910001784563065
v -0.006612999830394983 0.015204000286757946 -0.001740999985486269
v -0.0067159999161958694 0.013701999559998512 -0.00152299995534122
v -0.00010800000018207356 0.03116999939084053 -0.004317000042647123
v -0.0010890000266954303 0.031658001244068146 -0.006450999993830919
v -0.00241499999538064 0.030628999695181847 -0.0073090000078082085
v -0.003984999842941761 0.027990000322461128 -0.008280999958515167
v -0.005162999965250492 0.025218000635504723 -0.004362999927252531
v -0.003994000144302845 0.006521000061184168 -0.015124999918043613
v -0.001888000057078898 0.016083000227808952 -0.01991100050508976
v -0.0019399999873712659 0.01435799989849329 -0.02021300047636032
v -0.003857000032439828 0.020893000066280365 -0.014600000344216824
v -0.0026110000908374786 0.01014699973165989 -0.019071999937295914
v -0.0023449999280273914 0.008799999952316284 -0.01931999996304512
v -0.0021200000774115324 0.007387999910861254 -0.01940999925136566
v -0.0032679999712854624 0.007253999821841717 -0.017626000568270683
v -0.004891999997198582 0.025918999686837196 -0.0064210002310574055
v 0.009297999553382397 -0.005996000021696091 -0.02081499993801117
v 0.009610000066459179 -0.005185000132769346 -0.021770000457763672
v 0.0117790000513196 -0.005262000020593405 -0.02275400049984455
v 0.00737100001424551 -0.004666000138968229 -0.020486999303102493
v 0.013938999734818935 -0.004858999978750944 -0.02371400035917759
v 0.015560000203549862 -0.00583899999037385 -0.02344599924981594
v 0.01559200044721365 0.005231999792158604 -0.023401999846100807
v 0.022299999371170998 0.0004720000142697245 -0.02138799987733364
v 0.023533999919891357 -0.0016039999900385737 -0.02071099914610386
v 0.003834000090137124 -0.0012890000361949205 -0.020555999130010605
v 0.005640000104904175 -0.0023930000606924295 -0.02129100076854229
v 0.004108999855816364 0.00038499999209307134 -0.02184000052511692
v 0.0012989999959245324 0.0032530000898987055 -0.021309999749064445
v 0.03724699839949608 0.02800700068473816 -0.016506999731063843
v 0.03888300061225891 0.027907999232411385 -0.017395000904798508
v 0.04211699962615967 0.0275689996778965 -0.018695000559091568
v 0.0548969991505146 0.02078399993479252 -0.01592000015079975
v 0.046845000237226486 0.025629999116063118 -0.017813999205827713
v 0.04772999882698059 0.02601199969649315 -0.01840999908745289
v 0.05845800042152405 0.02128699980676174 -0.016932999715209007
v 0.05682099983096123 0.02095099911093712 -0.01634499989449978
v 0.015290999785065651 0.020090999081730843 -0.019008999690413475
v 0.014119000174105167 0.029705999419093132 -0.013896999880671501
v 0.008957999758422375 0.028857000172138214 -0.014124000445008278
v 0.0021329999435693026 0.02297299914062023 -0.020251000300049782
v 0.014125999994575977 0.009934999980032444 -0.0223619993776083
v 0.018875999376177788 0.00633700005710125 -0.02182699926197529
v 0.017308000475168228 0.0069320001639425755 -0.02232000045478344
v 0.012416999787092209 0.015050999820232391 -0.02081199921667576
v 0.012656000442802906 0.016969000920653343 -0.02001900039613247
v 0.012821000069379807 0.012764999642968178 -0.021537000313401222
v 0.013416999951004982 0.018410999327898026 -0.019598999992012978
v 0.009882999584078789 0.010904000140726566 -0.022686000913381577
v 0.024328000843524933 -0.000295000005280599 -0.0198730006814003
v 0.06068500131368637 0.02094300091266632 -0.016493000090122223
v 0.05950300022959709 0.020963000133633614 -0.016675999388098717
v 0.015762999653816223 0.03260299935936928 -0.008477999828755856
v 0.007943999953567982 0.031856998801231384 -0.009453999809920788
v 0.0011699999449774623 0.03199800103902817 -0.006271000020205975
v 0.001259000040590763 0.03245899826288223 -0.008775999769568443
v 0.017589999362826347 0.032614000141620636 -0.010684999637305737
v 0.015932999551296234 0.032774001359939575 -0.006816000211983919
v 0.015924999490380287 0.031307000666856766 -0.012246999889612198
v 0.04119899868965149 0.02865000069141388 -0.01848600059747696
v 0.042628999799489975 0.030108999460935593 -0.02070700004696846
v 0.04461300000548363 0.028596000745892525 -0.021446000784635544
v 0.04576599970459938 0.033897001296281815 -0.024311000481247902
v 0.04976300150156021 0.03520800173282623 -0.024966999888420105
v 0.049316998571157455 0.03657199814915657 -0.02377600036561489
v 0.05102900043129921 0.029868999496102333 -0.024947000667452812
v 0.057569000869989395 0.023036999627947807 -0.021844999864697456
v -0.0005959999980404973 0.03243999928236008 -0.011556999757885933
v -0.0022539999336004257 0.02872299961745739 -0.013016000390052795
v -0.00342700001783669 0.027149999514222145 -0.01092199981212616
v -0.00012199999764561653 0.015946000814437866 -0.02154799923300743
v -0.0017969999462366104 0.017862999811768532 -0.019507000222802162
v -0.0011129999766126275 0.008995000272989273 -0.02088800072669983
v 0.0008089999901130795 0.00979200005531311 -0.02230600081384182
v 0.00031900001340545714 0.011889999732375145 -0.022004999220371246
v 0.000018999999156221747 0.013923999853432178 -0.02179500088095665
v -0.0016299999551847577 0.01968500018119812 -0.01870499923825264
v -0.0015290000010281801 0.021268000826239586 -0.017896000295877457
v -0.0026859999634325504 0.02504800073802471 -0.013612000271677971
v -0.0017859999788925052 0.02406499907374382 -0.015546999871730804
v -0.0021039999555796385 0.02311299927532673 -0.015789000317454338
v -0.00108299998100847 0.022298000752925873 -0.01769700087606907
v -0.002584999892860651 0.02640499919652939 -0.01333799958229065
v 0.007672000210732222 -0.00381199992261827 -0.021591000258922577
v 0.006268000230193138 -0.0007110000005923212 -0.022386999800801277
v 0.013783999718725681 0.0023719999007880688 -0.02370399981737137
v 0.013000999577343464 0.007915000431239605 -0.022758999839425087
v 0.013825000263750553 0.005526000168174505 -0.023256000131368637
v 0.005104000214487314 0.004972999915480614 -0.023574000224471092
v 0.002867999952286482 0.005683000199496746 -0.02297399938106537
v 0.0015040000434964895 0.006008999887853861 -0.022241000086069107
v 0.0008900000248104334 0.00813200045377016 -0.022363999858498573
v 0.045207999646663666 0.02701300010085106 -0.019240999594330788
v 0.045951999723911285 0.027313999831676483 -0.020161999389529228
v 0.04798499867320061 0.02622999995946884 -0.019026000052690506
v 0.05900900065898895 0.021801000460982323 -0.018724000081419945
v 0.013721000403165817 0.030497999861836433 -0.012893999926745892
v 0.011451000347733498 0.0295570008456707 -0.01345799956470728
v 0.00864300038665533 0.029758000746369362 -0.01307899970561266
v 0.011149999685585499 0.03037700057029724 -0.012431000359356403
v 0.005379000212997198 0.029812999069690704 -0.014694999903440475
v 0.0023670000955462456 0.029915999621152878 -0.016228999942541122
v 0.0006799999973736703 0.026057999581098557 -0.01875299960374832
v 0.006244000047445297 0.012331999838352203 -0.023636000230908394
v 0.0019209999591112137 0.015297999605536461 -0.02297700010240078
v 0.000052999999752501026 0.02040800079703331 -0.02006700076162815
v 0.000048000001697801054 0.022092999890446663 -0.019135000184178352
v 0.015573999844491482 0.03238900005817413 -0.009828000329434872
v 0.008317999541759491 0.030832000076770782 -0.011404000222682953
v 0.002715999959036708 0.0312809981405735 -0.013650000095367432
v 0.0029180001001805067 0.03244800120592117 -0.01107999961823225
v 0.0011899999808520079 0.03254000097513199 -0.011256000027060509
v 0.015426999889314175 0.03181599825620651 -0.011339000426232815
v 0.04628799855709076 0.027574000880122185 -0.021655000746250153
v 0.04747699946165085 0.027813000604510307 -0.022053999826312065
v 0.048457998782396317 0.026378000155091286 -0.021846000105142593
v 0.05697400122880936 0.022398000583052635 -0.021215999498963356
v 0.0006430000066757202 0.029975999146699905 -0.01667100004851818
v -0.0015539999585598707 0.029089000076055527 -0.013993999920785427
v 0.0032629999332129955 0.00875299982726574 -0.023736000061035156
v 0.002580000087618828 0.011297999881207943 -0.023504000157117844
v 0.007654000073671341 0.003169999923557043 -0.02341100014746189
v 0.006552999839186668 0.008671999908983707 -0.023679999634623528
v 0.006157999858260155 0.006874000187963247 -0.023670999333262444
v 0.048381999135017395 0.026339000090956688 -0.019690999761223793
v 0.004860999993979931 0.010718000121414661 -0.023825999349355698
f 1 2 3
f 4 5 1
f 3 6 1
f 1 7 4
f 8 1 5
f 1 6 7
f 8 2 1
f 9 2 8
f 9 3 2
f 6 3 10
f 3 9 11
f 10 3 11
f 7 12 4
f 13 5 4
f 14 15 4
f 14 4 12
f 16 4 15
f 4 16 13
f 8 5 17
f 13 17 5
f 6 10 18
f 19 6 18
f 19 20 6
f 21 22 6
f 20 21 6
f 6 22 23
f 6 23 7
f 7 23 24
f 7 24 12
f 25 8 26
f 17 26 8
f 8 25 27
f 8 27 9
f 28 9 29
f 9 27 29
f 9 28 11
f 18 10 11
f 30 18 11
f 31 32 11
f 31 11 33
f 28 33 11
f 34 30 11
f 35 34 11
f 32 35 11
f 14 12 36
f 37 36 12
f 24 37 12
f 38 17 13
f 38 13 16
f 39 14 36
f 40 14 39
f 40 41 14
f 42 15 14
f 14 41 43
f 14 43 42
f 16 15 42
f 42 44 16
f 45 46 16
f 47 16 44
f 48 16 49
f 47 49 16
f 38 16 46
f 16 48 45
f 17 38 26
f 30 50 18
f 51 18 50
f 51 52 18
f 53 18 52
f 54 18 55
f 18 53 55
f 56 57 18
f 54 56 18
f 57 19 18
f 19 58 20
f 57 59 19
f 59 58 19
f 21 20 58
f 22 21 60
f 21 58 60
f 61 22 60
f 23 22 61
f 23 61 24
f 62 36 24
f 36 37 24
f 24 61 62
f 29 27 25
f 26 63 25
f 25 64 29
f 64 25 63
f 65 63 26
f 26 66 65
f 38 46 26
f 67 26 46
f 67 66 26
f 29 68 28
f 69 28 68
f 69 70 28
f 28 71 33
f 28 70 71
f 64 68 29
f 34 72 30
f 72 50 30
f 73 74 31
f 74 32 31
f 33 73 31
f 75 32 76
f 32 74 76
f 32 75 35
f 33 77 78
f 33 71 77
f 73 33 79
f 33 78 79
f 80 72 34
f 75 80 34
f 75 34 35
f 62 81 36
f 81 39 36
f 40 39 82
f 83 84 39
f 83 39 81
f 39 84 85
f 39 85 82
f 41 40 86
f 40 82 86
f 86 87 41
f 88 41 87
f 43 41 88
f 42 88 89
f 90 44 42
f 89 90 42
f 43 88 42
f 91 44 92
f 47 44 91
f 90 92 44
f 45 93 67
f 67 46 45
f 48 93 45
f 94 48 47
f 48 49 47
f 91 94 47
f 48 94 93
f 72 95 50
f 51 50 95
f 96 51 95
f 51 96 52
f 53 52 96
f 96 97 53
f 55 53 97
f 56 54 98
f 54 99 98
f 99 54 55
f 99 55 97
f 57 56 59
f 56 98 59
f 60 58 81
f 59 81 58
f 59 98 81
f 62 60 81
f 62 61 60
f 100 63 101
f 65 102 63
f 63 102 101
f 100 64 63
f 100 103 64
f 68 64 103
f 65 104 102
f 105 104 65
f 65 106 105
f 106 65 66
f 106 66 67
f 107 67 94
f 67 93 94
f 67 107 106
f 108 68 103
f 108 69 68
f 108 109 69
f 109 70 69
f 109 110 70
f 71 70 110
f 71 111 112
f 113 114 71
f 111 71 115
f 113 71 110
f 71 114 116
f 117 115 71
f 112 77 71
f 116 117 71
f 80 118 72
f 118 95 72
f 76 74 73
f 76 73 79
f 75 119 80
f 75 76 79
f 75 79 120
f 75 120 119
f 77 121 78
f 77 112 121
f 121 122 78
f 78 122 79
f 79 123 120
f 79 124 123
f 124 79 125
f 79 122 125
f 126 127 80
f 80 128 129
f 119 126 80
f 80 129 130
f 80 130 118
f 127 128 80
f 98 99 81
f 81 99 131
f 81 131 83
f 82 85 132
f 86 82 132
f 83 133 84
f 131 134 83
f 97 133 83
f 134 97 83
f 133 85 84
f 135 132 85
f 135 85 133
f 132 136 86
f 136 87 86
f 137 87 136
f 138 87 92
f 89 88 87
f 139 92 87
f 139 87 137
f 89 87 138
f 90 89 138
f 92 90 138
f 140 141 91
f 92 142 91
f 142 143 91
f 144 91 143
f 91 145 140
f 145 91 146
f 91 144 146
f 141 94 91
f 92 139 142
f 147 94 148
f 141 148 94
f 107 94 147
f 149 95 97
f 129 97 95
f 129 95 130
f 118 130 95
f 96 95 149
f 149 97 96
f 150 151 97
f 97 129 150
f 97 151 133
f 131 99 97
f 131 97 134
f 103 100 101
f 103 101 152
f 152 101 102
f 104 153 102
f 152 102 153
f 154 155 103
f 155 156 103
f 157 108 103
f 157 103 156
f 103 152 158
f 158 154 103
f 159 153 104
f 160 104 105
f 104 160 159
f 105 161 162
f 163 160 105
f 162 163 105
f 106 161 105
f 164 161 106
f 165 106 107
f 106 165 164
f 107 147 165
f 108 157 109
f 157 110 109
f 156 113 110
f 157 156 110
f 166 112 111
f 167 166 111
f 111 115 167
f 166 168 112
f 121 112 168
f 169 114 113
f 156 169 113
f 169 170 114
f 116 114 170
f 115 171 172
f 115 117 171
f 167 115 172
f 116 173 117
f 174 116 170
f 116 174 173
f 175 176 117
f 117 173 175
f 177 117 176
f 117 177 178
f 179 171 117
f 180 179 117
f 178 180 117
f 119 181 182
f 120 181 119
f 119 183 126
f 184 183 119
f 182 184 119
f 123 185 120
f 120 185 181
f 121 186 122
f 187 121 188
f 121 168 188
f 189 186 121
f 187 189 121
f 125 122 186
f 124 185 123
f 124 190 185
f 191 124 186
f 186 124 125
f 192 124 193
f 124 194 193
f 190 124 192
f 124 191 194
f 183 195 126
f 195 127 126
f 195 128 127
f 196 129 128
f 196 128 197
f 128 195 197
f 198 150 129
f 198 129 199
f 129 196 199
f 136 132 200
f 135 201 132
f 201 202 132
f 202 200 132
f 135 133 201
f 203 201 133
f 203 133 151
f 136 200 204
f 136 204 137
f 205 206 137
f 206 139 137
f 202 207 137
f 204 202 137
f 137 207 205
f 142 139 208
f 206 208 139
f 209 148 140
f 148 141 140
f 210 140 211
f 145 211 140
f 212 209 140
f 212 140 210
f 142 208 143
f 208 213 143
f 143 213 144
f 211 145 144
f 145 146 144
f 211 144 214
f 215 214 144
f 215 144 213
f 147 148 165
f 148 209 216
f 216 165 148
f 150 198 217
f 203 151 150
f 217 201 150
f 203 150 201
f 152 153 158
f 158 153 218
f 159 218 153
f 154 219 220
f 154 220 155
f 158 218 154
f 218 221 154
f 154 221 176
f 154 176 222
f 219 154 223
f 154 222 223
f 220 169 155
f 155 169 156
f 224 159 160
f 225 159 224
f 159 226 218
f 225 226 159
f 160 163 224
f 162 161 164
f 162 227 228
f 229 230 162
f 231 232 162
f 232 233 162
f 227 162 233
f 228 229 162
f 162 234 231
f 162 235 234
f 163 162 230
f 235 162 164
f 163 230 224
f 236 164 165
f 237 235 164
f 237 164 236
f 236 165 216
f 167 168 166
f 167 238 168
f 239 238 167
f 172 239 167
f 188 168 240
f 240 168 238
f 220 170 169
f 174 170 220
f 172 171 179
f 172 241 239
f 179 241 172
f 242 173 243
f 242 175 173
f 173 174 243
f 219 243 174
f 174 220 219
f 222 175 223
f 223 175 242
f 222 176 175
f 221 244 176
f 245 177 176
f 245 176 244
f 246 178 177
f 246 177 245
f 178 247 248
f 249 178 248
f 247 178 246
f 180 178 249
f 250 241 179
f 250 179 251
f 251 179 180
f 180 252 253
f 180 254 252
f 180 249 254
f 253 251 180
f 181 190 182
f 185 190 181
f 182 255 184
f 255 182 256
f 256 182 192
f 190 192 182
f 183 257 258
f 183 184 257
f 183 258 195
f 184 256 192
f 259 184 192
f 257 184 259
f 184 255 256
f 191 186 189
f 187 188 191
f 187 191 189
f 188 240 191
f 194 191 260
f 241 260 191
f 191 240 238
f 191 238 239
f 191 239 241
f 259 192 261
f 261 192 262
f 192 193 262
f 193 263 262
f 263 193 194
f 263 194 264
f 194 260 264
f 195 258 197
f 265 196 197
f 196 265 266
f 196 266 199
f 197 258 265
f 266 198 199
f 198 266 267
f 198 267 217
f 204 200 202
f 201 217 267
f 201 268 269
f 269 202 201
f 268 201 267
f 270 271 202
f 202 272 207
f 202 273 274
f 202 274 270
f 202 269 275
f 276 273 202
f 276 202 275
f 202 271 272
f 207 277 205
f 277 278 205
f 205 279 206
f 279 205 278
f 208 206 215
f 279 215 206
f 272 271 207
f 207 280 277
f 280 207 271
f 208 215 213
f 216 209 281
f 209 282 283
f 283 281 209
f 212 282 209
f 214 212 210
f 211 214 210
f 284 212 285
f 214 285 212
f 284 282 212
f 214 286 287
f 214 287 288
f 214 288 285
f 215 286 214
f 215 289 290
f 286 215 290
f 215 279 289
f 281 236 216
f 221 218 291
f 218 226 291
f 219 242 243
f 242 219 223
f 291 292 221
f 293 221 294
f 221 293 244
f 221 292 294
f 228 295 224
f 295 296 224
f 297 224 296
f 228 224 229
f 224 230 229
f 298 225 224
f 224 297 299
f 298 224 299
f 225 298 226
f 299 297 226
f 226 294 291
f 298 299 226
f 294 226 297
f 300 301 227
f 302 227 232
f 232 227 233
f 227 302 300
f 227 301 303
f 295 228 227
f 304 295 227
f 304 227 303
f 231 305 302
f 231 302 232
f 305 231 306
f 234 306 231
f 307 308 234
f 234 309 307
f 234 310 306
f 235 237 234
f 237 309 234
f 308 310 234
f 236 281 237
f 311 309 237
f 237 312 311
f 312 237 281
f 241 313 260
f 250 313 241
f 245 244 293
f 246 245 293
f 246 314 247
f 293 314 246
f 247 297 315
f 315 248 247
f 247 294 297
f 294 247 314
f 249 248 316
f 248 317 316
f 318 317 248
f 319 318 248
f 248 315 319
f 254 249 316
f 313 250 320
f 250 321 320
f 321 250 251
f 251 253 321
f 252 316 253
f 254 316 252
f 316 322 253
f 322 323 253
f 321 253 323
f 257 259 258
f 324 265 258
f 259 324 258
f 261 325 259
f 326 259 325
f 327 259 326
f 259 327 328
f 259 328 324
f 329 260 313
f 260 329 264
f 261 262 330
f 325 261 330
f 331 262 332
f 263 332 262
f 262 331 330
f 333 332 263
f 263 334 333
f 334 263 335
f 335 263 264
f 329 335 264
f 265 324 267
f 267 266 265
f 336 337 267
f 267 337 338
f 336 267 339
f 338 268 267
f 324 339 267
f 340 268 341
f 268 342 341
f 269 268 340
f 338 342 268
f 340 343 269
f 275 269 344
f 269 343 344
f 345 277 270
f 280 270 277
f 345 270 274
f 280 271 270
f 274 273 346
f 273 276 346
f 347 274 346
f 274 290 348
f 274 347 290
f 348 345 274
f 344 349 275
f 276 275 349
f 276 349 346
f 277 289 278
f 348 289 277
f 348 277 345
f 279 278 289
f 283 312 281
f 283 282 350
f 284 350 282
f 283 351 312
f 283 350 351
f 350 284 285
f 285 288 352
f 353 285 352
f 351 350 285
f 351 285 353
f 354 287 286
f 355 354 286
f 286 290 356
f 355 286 356
f 354 357 287
f 358 287 357
f 287 358 359
f 287 359 288
f 288 360 352
f 359 360 288
f 289 361 290
f 348 361 289
f 362 363 290
f 290 363 356
f 290 347 364
f 364 362 290
f 290 361 348
f 294 292 291
f 294 314 293
f 295 304 296
f 297 296 304
f 303 315 297
f 304 303 297
f 365 366 300
f 365 300 302
f 366 303 300
f 303 301 300
f 305 367 302
f 302 368 369
f 302 367 370
f 365 302 371
f 369 371 302
f 370 368 302
f 366 372 303
f 373 374 303
f 375 376 303
f 373 303 376
f 303 377 375
f 377 303 372
f 378 315 303
f 378 303 374
f 305 310 379
f 305 306 310
f 379 367 305
f 308 307 380
f 307 381 380
f 382 381 307
f 382 307 309
f 383 310 308
f 384 383 308
f 384 308 380
f 382 309 311
f 385 379 310
f 386 385 310
f 383 386 310
f 312 387 311
f 387 382 311
f 312 388 389
f 312 390 388
f 390 312 351
f 389 387 312
f 329 313 391
f 391 313 392
f 392 313 320
f 393 394 315
f 315 378 393
f 315 394 319
f 395 316 396
f 396 316 397
f 322 316 395
f 397 316 317
f 397 317 318
f 397 318 319
f 319 394 398
f 398 397 319
f 392 320 399
f 400 399 320
f 320 321 400
f 321 323 400
f 399 400 322
f 399 322 395
f 322 400 323
f 401 324 402
f 403 324 328
f 403 404 324
f 402 324 405
f 324 404 405
f 406 324 401
f 339 324 406
f 325 407 326
f 407 325 408
f 408 325 330
f 327 326 409
f 326 410 409
f 407 411 326
f 411 410 326
f 409 405 327
f 405 403 327
f 403 328 327
f 335 329 391
f 412 408 330
f 412 330 331
f 413 331 414
f 415 416 331
f 416 414 331
f 331 413 412
f 331 332 333
f 415 331 333
f 415 333 417
f 333 418 419
f 417 333 419
f 334 418 333
f 335 420 334
f 421 334 420
f 334 421 418
f 391 420 335
f 422 336 423
f 337 336 422
f 423 336 339
f 422 424 337
f 424 425 337
f 338 337 425
f 338 426 342
f 338 425 426
f 339 427 428
f 429 339 428
f 406 427 339
f 339 430 431
f 430 339 429
f 431 423 339
f 341 343 340
f 426 424 341
f 426 341 342
f 344 341 424
f 341 344 343
f 344 424 349
f 346 432 347
f 433 434 346
f 435 433 346
f 434 436 346
f 437 346 436
f 438 439 346
f 438 346 437
f 349 440 346
f 435 346 440
f 439 432 346
f 364 347 432
f 349 424 440
f 353 390 351
f 353 352 360
f 390 353 360
f 354 355 357
f 441 355 356
f 358 357 355
f 358 355 359
f 355 442 443
f 355 443 359
f 442 355 441
f 441 356 444
f 363 444 356
f 359 443 445
f 445 446 359
f 359 446 360
f 360 446 447
f 360 447 448
f 449 360 448
f 360 449 388
f 390 360 388
f 450 363 362
f 364 450 362
f 450 451 363
f 363 451 444
f 364 452 450
f 453 452 364
f 364 439 438
f 453 364 438
f 364 432 439
f 371 372 365
f 365 372 366
f 379 412 367
f 367 412 370
f 368 454 369
f 412 454 368
f 370 412 368
f 454 455 369
f 371 369 456
f 456 369 455
f 456 375 371
f 377 371 375
f 377 372 371
f 457 398 373
f 398 374 373
f 457 373 376
f 393 374 398
f 378 374 393
f 376 375 456
f 456 458 376
f 458 459 376
f 376 459 460
f 461 457 376
f 461 376 460
f 379 385 462
f 379 463 412
f 464 463 379
f 465 464 379
f 379 462 465
f 380 447 384
f 380 448 447
f 387 380 381
f 448 380 387
f 387 381 382
f 383 447 466
f 384 467 383
f 468 447 383
f 468 383 467
f 383 466 386
f 447 467 384
f 469 470 385
f 386 471 385
f 470 472 385
f 462 385 472
f 469 385 471
f 466 473 386
f 473 471 386
f 474 448 387
f 474 387 389
f 389 388 474
f 449 474 388
f 392 420 391
f 421 420 392
f 399 421 392
f 398 394 393
f 421 395 396
f 399 395 421
f 397 421 396
f 398 475 397
f 475 421 397
f 457 461 398
f 461 460 398
f 475 398 476
f 398 460 476
f 401 402 427
f 406 401 427
f 405 427 402
f 403 405 404
f 477 478 405
f 477 405 410
f 410 405 409
f 479 405 480
f 479 427 405
f 480 405 478
f 481 407 408
f 411 407 482
f 481 477 407
f 477 482 407
f 481 408 412
f 410 482 477
f 411 482 410
f 412 483 481
f 412 463 483
f 412 413 454
f 413 414 454
f 484 455 414
f 414 416 484
f 414 455 454
f 415 485 416
f 417 485 415
f 416 485 484
f 485 417 486
f 419 487 417
f 417 487 486
f 421 488 418
f 419 418 489
f 488 489 418
f 489 487 419
f 490 421 491
f 475 491 421
f 490 488 421
f 422 423 424
f 423 431 440
f 423 440 424
f 426 425 424
f 479 428 427
f 428 479 492
f 429 428 492
f 430 429 493
f 429 492 493
f 440 430 494
f 493 494 430
f 440 431 430
f 433 495 434
f 435 496 433
f 496 495 433
f 497 436 434
f 497 434 498
f 498 434 499
f 500 499 434
f 500 434 495
f 501 435 502
f 440 503 435
f 503 504 435
f 504 505 435
f 502 435 506
f 435 505 506
f 496 435 501
f 437 436 497
f 497 438 437
f 497 453 438
f 503 440 507
f 440 494 507
f 441 444 508
f 442 441 508
f 508 509 442
f 443 442 509
f 445 443 509
f 508 444 451
f 510 445 509
f 445 510 447
f 445 447 446
f 511 466 447
f 511 447 512
f 468 467 447
f 447 510 512
f 474 449 448
f 450 452 451
f 509 451 452
f 451 509 508
f 513 509 452
f 452 453 514
f 452 514 513
f 453 515 514
f 497 516 453
f 516 515 453
f 456 455 484
f 456 459 458
f 459 456 517
f 486 518 456
f 518 517 456
f 456 484 486
f 459 517 519
f 459 520 460
f 519 520 459
f 520 476 460
f 462 472 465
f 521 483 463
f 463 464 522
f 463 522 521
f 523 524 464
f 524 522 464
f 525 523 464
f 525 464 526
f 526 464 465
f 526 465 527
f 470 465 472
f 465 470 469
f 465 469 473
f 465 528 529
f 528 465 473
f 529 495 465
f 495 530 465
f 531 465 530
f 465 531 527
f 466 511 473
f 469 471 473
f 528 473 510
f 511 510 473
f 475 476 520
f 491 475 520
f 524 477 532
f 478 477 533
f 477 524 533
f 481 532 477
f 533 534 478
f 535 480 478
f 535 478 534
f 479 480 492
f 535 536 480
f 536 492 480
f 537 532 481
f 537 481 483
f 537 483 521
f 486 484 485
f 518 486 538
f 487 539 486
f 539 538 486
f 487 489 488
f 490 487 488
f 490 539 487
f 540 490 491
f 490 540 539
f 540 491 541
f 491 520 541
f 492 536 542
f 493 492 543
f 492 542 543
f 507 494 493
f 493 543 507
f 500 495 529
f 495 496 530
f 501 530 496
f 497 498 516
f 516 498 544
f 544 498 545
f 498 499 545
f 500 545 499
f 545 500 529
f 502 531 501
f 531 530 501
f 531 502 506
f 543 503 507
f 503 543 504
f 504 543 506
f 504 506 505
f 543 531 506
f 513 546 509
f 510 509 546
f 547 528 510
f 547 510 546
f 510 511 512
f 513 514 544
f 513 544 548
f 513 548 546
f 514 515 544
f 516 544 515
f 519 517 549
f 518 549 517
f 549 518 540
f 518 538 540
f 519 549 520
f 541 520 540
f 549 540 520
f 524 521 522
f 521 524 537
f 533 524 523
f 523 525 533
f 524 532 537
f 525 526 534
f 525 534 533
f 542 526 527
f 526 542 534
f 527 531 543
f 527 543 542
f 528 547 550
f 528 550 529
f 550 545 529
f 534 542 535
f 536 535 542
f 539 540 538
f 550 547 544
f 548 544 547
f 550 544 545
f 546 548 547
