# Generated by Visualization Toolkit
v -0.013660999946296215 -0.025862999260425568 -0.004056999925523996
v -0.01182200014591217 -0.023895999416708946 -0.008425000123679638
v -0.013802999630570412 -0.02690800093114376 -0.003992999903857708
v -0.013904999941587448 -0.02604999952018261 -0.0027409999165683985
v -0.01202400028705597 -0.02247699908912182 -0.0034779999405145645
v -0.013423999771475792 -0.022140000015497208 -0.0008800000068731606
v -0.011909999884665012 -0.027009999379515648 -0.009026999585330486
v -0.012682000175118446 -0.027713999152183533 -0.006819000001996756
v -0.01043500006198883 -0.020082000643014908 -0.0074880002066493034
v -0.009267999790608883 -0.02270199917256832 -0.008322999812662601
v -0.011745000258088112 -0.027668999508023262 -0.0024850000627338886
v -0.010397999547421932 -0.028566999360919 -0.006014999933540821
v -0.01169699989259243 -0.02626500092446804 0.0003279999946244061
v -0.012616000138223171 -0.024167999625205994 0.0009110000100918114
v -0.011637000367045403 -0.019666999578475952 0.000295000005280599
v -0.007323000114411116 -0.01496999990195036 -0.006504999939352274
v -0.006878000218421221 -0.014403999783098698 -0.004275000188499689
v -0.00863999966531992 -0.017906999215483665 -0.0016749999485909939
v -0.011125000193715096 -0.021379999816417694 0.0022189998999238014
v -0.009081000462174416 -0.027998000383377075 -0.007584000006318092
v -0.004687999840825796 -0.014503000304102898 -0.0067449999041855335
v -0.0016199999954551458 -0.024553999304771423 -0.0038620000705122948
v -0.002948000095784664 -0.0164170004427433 -0.0069240001030266285
v -0.005247000139206648 -0.02721400000154972 -0.0029279999434947968
v -0.004244000185281038 -0.027458999305963516 -0.004370999988168478
v -0.0034050000831484795 -0.024908000603318214 0.0032430000137537718
v -0.011494000442326069 -0.024013999849557877 0.00317499996162951
v -0.0035570000763982534 -0.022498000413179398 0.005508000031113625
v -0.006393000017851591 -0.015370000153779984 0.0004830000107176602
v -0.006390000227838755 -0.015809999778866768 0.001281999982893467
v -0.003837999887764454 -0.01638299971818924 0.004267000127583742
v -0.007102999836206436 -0.013523000292479992 -0.0048340000212192535
v -0.00483699981123209 -0.012741000391542912 -0.00583800021559
v -0.006147000007331371 -0.012992000207304955 0.0006099999882280827
v -0.010002999566495419 -0.021570999175310135 0.004732999950647354
v -0.002894999925047159 -0.009789000265300274 -0.005437000188976526
v 0.0004769999941345304 -0.013368000276386738 -0.006868000142276287
v -0.0022140000946819782 -0.027799999341368675 -0.0023980000987648964
v 0.0014779999619349837 -0.025645999237895012 -0.0018729999428614974
v 0.003186000045388937 -0.014688000082969666 -0.0059710000641644
v 0.0030670000705868006 -0.016721000894904137 -0.00496299983933568
v 0.0007159999804571271 -0.029113000258803368 0.006302999798208475
v 0.0007019999902695417 -0.0299529992043972 0.004556000232696533
v -0.005615000147372484 -0.019155999645590782 0.006845999974757433
v -0.0027540000155568123 -0.020648999139666557 0.0064650001004338264
v 0.00013800000306218863 -0.027014000341296196 0.007156999781727791
v -0.004951000213623047 -0.014096000231802464 0.0024470000062137842
v -0.003800000064074993 -0.015527999959886074 0.004280999768525362
v -0.004373000003397465 -0.017152000218629837 0.007763000205159187
v -0.003355999942868948 -0.014774000272154808 0.005632000043988228
v -0.007375000044703484 -0.012288999743759632 -0.0031010000966489315
v -0.006893999874591827 -0.011254999786615372 0.0015429999912157655
v -0.00016799999866634607 -0.007025000173598528 -0.002638000063598156
v 0.002452000044286251 -0.008688000030815601 -0.006459000054746866
v 0.0023930000606924295 -0.010394000448286533 -0.007203000131994486
v 0.004048999864608049 -0.009965999983251095 -0.007044999860227108
v 0.005026999861001968 -0.012240000069141388 -0.006566000171005726
v 0.0013770000077784061 -0.028922999277710915 0.00039900001138448715
v 0.00048600000445730984 -0.029865000396966934 0.0012489999644458294
v 0.004406000021845102 -0.019733000546693802 -0.002237000036984682
v 0.004846999887377024 -0.014446999877691269 -0.004352999851107597
v 0.005129000172019005 -0.016008000820875168 -0.0012410000199452043
v 0.0026549999602138996 -0.02919900044798851 0.0035180000122636557
v 0.0026390000712126493 -0.028099000453948975 0.005934999790042639
v -0.0017010000301524997 -0.018797000870108604 0.007321999873965979
v -0.00022499999613501132 -0.021340999752283096 0.0074280002154409885
v 0.002701000077649951 -0.020423000678420067 0.0063240001909434795
v 0.001680999994277954 -0.02141599915921688 0.006889999844133854
v -0.005423999857157469 -0.012075000442564487 0.00445799995213747
v -0.0033360000234097242 -0.013120999559760094 0.006533000152558088
v -0.0026829999405890703 -0.014073999598622322 0.007180999964475632
v -0.0016629999736323953 -0.013426999561488628 0.007557999808341265
v -0.0032500000670552254 -0.0139340003952384 0.006653000134974718
v 0.0012649999698624015 -0.015035999938845634 0.008488000370562077
v 0.00016199999663513154 -0.006194000132381916 0.0006960000027902424
v -0.0012509999796748161 -0.009224999696016312 0.005493000149726868
v 0.004048999864608049 -0.007242999970912933 -0.0036639999598264694
v 0.003329999977722764 -0.005896000191569328 -0.00008600000001024455
v 0.006672999821603298 -0.010579000227153301 -0.0037150001153349876
v 0.006641999818384647 -0.011714999563992023 -0.0033259999472647905
v 0.005578000098466873 -0.01951799914240837 0.00018400000408291817
v 0.004435000009834766 -0.02633100003004074 0.0033100000582635403
v 0.006810000166296959 -0.011927000246942043 0.0035250000655651093
v 0.002094999887049198 -0.019074000418186188 0.0073079997673630714
v 0.005528000183403492 -0.01498399954289198 0.005417999811470509
v -0.0024790000170469284 -0.013306000269949436 0.0070870001800358295
v 0.0009319999953731894 -0.013539999723434448 0.008326999843120575
v 0.004650999791920185 -0.011556999757885933 0.0056859999895095825
v 0.004035999998450279 -0.006438000127673149 0.0029980000108480453
v 0.005030000116676092 -0.006711000110954046 0.0027570000384002924
f 1 2 3
f 4 1 3
f 1 5 2
f 5 1 6
f 4 6 1
f 7 8 2
f 3 2 8
f 9 2 5
f 7 2 10
f 10 2 9
f 11 3 12
f 8 12 3
f 11 13 3
f 13 4 3
f 14 6 4
f 4 13 14
f 15 5 6
f 9 5 16
f 16 5 17
f 18 17 5
f 18 5 15
f 19 15 6
f 19 6 14
f 8 7 12
f 20 12 7
f 20 7 10
f 10 9 16
f 10 16 21
f 22 20 10
f 10 21 23
f 10 23 22
f 11 12 24
f 11 24 13
f 25 24 12
f 12 20 25
f 13 24 26
f 13 27 14
f 13 28 27
f 26 28 13
f 19 14 27
f 29 18 15
f 30 29 15
f 15 19 31
f 30 15 31
f 17 32 16
f 16 32 33
f 16 33 21
f 18 29 17
f 34 17 29
f 32 17 34
f 35 19 27
f 31 19 35
f 20 22 25
f 36 21 33
f 21 36 37
f 37 23 21
f 22 38 25
f 23 39 22
f 39 38 22
f 40 23 37
f 40 41 23
f 23 41 39
f 24 25 38
f 38 26 24
f 42 28 26
f 43 42 26
f 38 43 26
f 28 35 27
f 44 28 45
f 28 44 35
f 45 28 46
f 42 46 28
f 34 29 47
f 47 29 30
f 48 30 31
f 47 30 48
f 35 44 31
f 49 31 44
f 50 31 49
f 31 50 48
f 32 34 51
f 51 33 32
f 51 36 33
f 34 52 51
f 34 47 52
f 36 53 54
f 51 53 36
f 54 55 36
f 37 36 55
f 55 56 37
f 56 57 37
f 37 57 40
f 38 39 58
f 38 58 59
f 59 43 38
f 60 58 39
f 41 60 39
f 40 61 41
f 61 40 57
f 62 60 41
f 62 41 61
f 43 63 42
f 63 64 42
f 46 42 64
f 59 63 43
f 44 65 49
f 45 65 44
f 65 45 66
f 46 66 45
f 67 46 64
f 67 68 46
f 68 66 46
f 69 52 47
f 48 69 47
f 50 70 48
f 70 69 48
f 71 49 72
f 50 49 73
f 49 71 73
f 49 74 72
f 49 65 74
f 50 73 70
f 75 53 51
f 52 75 51
f 76 75 52
f 76 52 69
f 53 77 54
f 53 75 78
f 53 78 77
f 56 54 77
f 55 54 56
f 57 56 79
f 77 79 56
f 61 57 80
f 80 57 79
f 81 58 60
f 82 58 81
f 82 63 58
f 58 63 59
f 60 62 81
f 80 62 61
f 80 83 62
f 81 62 67
f 84 67 62
f 84 62 85
f 83 85 62
f 63 82 64
f 64 82 67
f 74 65 84
f 84 65 66
f 68 84 66
f 82 81 67
f 67 84 68
f 70 76 69
f 73 86 70
f 86 76 70
f 71 72 86
f 71 86 73
f 87 72 74
f 72 87 76
f 86 72 76
f 74 88 87
f 74 85 88
f 84 85 74
f 78 75 89
f 75 76 89
f 89 76 87
f 77 78 90
f 90 79 77
f 89 90 78
f 90 83 79
f 80 79 83
f 88 83 90
f 85 83 88
f 87 88 90
f 90 89 87
