# Generated by Visualization Toolkit
v -0.013802999630570412 -0.02690800093114376 0.003992999903857708
v -0.01182200014591217 -0.023895999416708946 0.008425000123679638
v -0.013660999946296215 -0.025862999260425568 0.004056999925523996
v -0.013904999941587448 -0.02604999952018261 0.0027409999165683985
v -0.012682000175118446 -0.027713999152183533 0.006819000001996756
v -0.010397999547421932 -0.028566999360919 0.006014999933540821
v -0.011745000258088112 -0.027668999508023262 0.0024850000627338886
v -0.01169699989259243 -0.02626500092446804 -0.0003279999946244061
v -0.01202400028705597 -0.02247699908912182 0.0034779999405145645
v -0.011909999884665012 -0.027009999379515648 0.009026999585330486
v -0.01043500006198883 -0.020082000643014908 0.0074880002066493034
v -0.009267999790608883 -0.02270199917256832 0.008322999812662601
v -0.013423999771475792 -0.022140000015497208 0.0008800000068731606
v -0.012616000138223171 -0.024167999625205994 -0.0009110000100918114
v -0.009081000462174416 -0.027998000383377075 0.007584000006318092
v -0.005247000139206648 -0.02721400000154972 0.0029279999434947968
v -0.004244000185281038 -0.027458999305963516 0.004370999988168478
v -0.0034050000831484795 -0.024908000603318214 -0.0032430000137537718
v -0.011494000442326069 -0.024013999849557877 -0.00317499996162951
v -0.0035570000763982534 -0.022498000413179398 -0.005508000031113625
v -0.011637000367045403 -0.019666999578475952 -0.000295000005280599
v -0.007323000114411116 -0.01496999990195036 0.006504999939352274
v -0.006878000218421221 -0.014403999783098698 0.004275000188499689
v -0.00863999966531992 -0.017906999215483665 0.0016749999485909939
v -0.004687999840825796 -0.014503000304102898 0.0067449999041855335
v -0.0016199999954551458 -0.024553999304771423 0.0038620000705122948
v -0.002948000095784664 -0.0164170004427433 0.0069240001030266285
v -0.011125000193715096 -0.021379999816417694 -0.0022189998999238014
v -0.0022140000946819782 -0.027799999341368675 0.0023980000987648964
v 0.0007159999804571271 -0.029113000258803368 -0.006302999798208475
v 0.0007019999902695417 -0.0299529992043972 -0.004556000232696533
v -0.010002999566495419 -0.021570999175310135 -0.004732999950647354
v -0.0027540000155568123 -0.020648999139666557 -0.0064650001004338264
v -0.005615000147372484 -0.019155999645590782 -0.006845999974757433
v 0.00013800000306218863 -0.027014000341296196 -0.007156999781727791
v -0.006393000017851591 -0.015370000153779984 -0.0004830000107176602
v -0.006390000227838755 -0.015809999778866768 -0.001281999982893467
v -0.003837999887764454 -0.01638299971818924 -0.004267000127583742
v -0.007102999836206436 -0.013523000292479992 0.0048340000212192535
v -0.00483699981123209 -0.012741000391542912 0.00583800021559
v -0.006147000007331371 -0.012992000207304955 -0.0006099999882280827
v -0.002894999925047159 -0.009789000265300274 0.005437000188976526
v 0.0004769999941345304 -0.013368000276386738 0.006868000142276287
v 0.0014779999619349837 -0.025645999237895012 0.0018729999428614974
v 0.003186000045388937 -0.014688000082969666 0.0059710000641644
v 0.0030670000705868006 -0.016721000894904137 0.00496299983933568
v 0.0013770000077784061 -0.028922999277710915 -0.00039900001138448715
v 0.00048600000445730984 -0.029865000396966934 -0.0012489999644458294
v 0.0026549999602138996 -0.02919900044798851 -0.0035180000122636557
v 0.0026390000712126493 -0.028099000453948975 -0.005934999790042639
v -0.0017010000301524997 -0.018797000870108604 -0.007321999873965979
v -0.00022499999613501132 -0.021340999752283096 -0.0074280002154409885
v -0.004373000003397465 -0.017152000218629837 -0.007763000205159187
v 0.002701000077649951 -0.020423000678420067 -0.0063240001909434795
v 0.001680999994277954 -0.02141599915921688 -0.006889999844133854
v -0.004951000213623047 -0.014096000231802464 -0.0024470000062137842
v -0.003800000064074993 -0.015527999959886074 -0.004280999768525362
v -0.003355999942868948 -0.014774000272154808 -0.005632000043988228
v -0.007375000044703484 -0.012288999743759632 0.0031010000966489315
v -0.006893999874591827 -0.011254999786615372 -0.0015429999912157655
v 0.002452000044286251 -0.008688000030815601 0.006459000054746866
v -0.00016799999866634607 -0.007025000173598528 0.002638000063598156
v 0.0023930000606924295 -0.010394000448286533 0.007203000131994486
v 0.004048999864608049 -0.009965999983251095 0.007044999860227108
v 0.005026999861001968 -0.012240000069141388 0.006566000171005726
v 0.004406000021845102 -0.019733000546693802 0.002237000036984682
v 0.004846999887377024 -0.014446999877691269 0.004352999851107597
v 0.005129000172019005 -0.016008000820875168 0.0012410000199452043
v 0.005578000098466873 -0.01951799914240837 -0.00018400000408291817
v 0.004435000009834766 -0.02633100003004074 -0.0033100000582635403
v 0.0012649999698624015 -0.015035999938845634 -0.008488000370562077
v 0.002094999887049198 -0.019074000418186188 -0.0073079997673630714
v -0.0016629999736323953 -0.013426999561488628 -0.007557999808341265
v -0.0026829999405890703 -0.014073999598622322 -0.007180999964475632
v -0.0032500000670552254 -0.0139340003952384 -0.006653000134974718
v -0.005423999857157469 -0.012075000442564487 -0.00445799995213747
v -0.0033360000234097242 -0.013120999559760094 -0.006533000152558088
v 0.00016199999663513154 -0.006194000132381916 -0.0006960000027902424
v -0.0012509999796748161 -0.009224999696016312 -0.005493000149726868
v 0.004048999864608049 -0.007242999970912933 0.0036639999598264694
v 0.003329999977722764 -0.005896000191569328 0.00008600000001024455
v 0.006672999821603298 -0.010579000227153301 0.0037150001153349876
v 0.006641999818384647 -0.011714999563992023 0.0033259999472647905
v 0.006810000166296959 -0.011927000246942043 -0.0035250000655651093
v 0.005528000183403492 -0.01498399954289198 -0.005417999811470509
v 0.0009319999953731894 -0.013539999723434448 -0.008326999843120575
v 0.004650999791920185 -0.011556999757885933 -0.0056859999895095825
v -0.0024790000170469284 -0.013306000269949436 -0.0070870001800358295
v 0.004035999998450279 -0.006438000127673149 -0.0029980000108480453
v 0.005030000116676092 -0.006711000110954046 -0.0027570000384002924
f 1 2 3
f 1 3 4
f 5 2 1
f 6 1 7
f 1 6 5
f 1 8 7
f 1 4 8
f 2 9 3
f 2 5 10
f 9 2 11
f 12 2 10
f 11 2 12
f 13 3 9
f 3 13 4
f 4 13 14
f 14 8 4
f 6 10 5
f 10 6 15
f 16 6 7
f 6 16 17
f 17 15 6
f 8 16 7
f 18 16 8
f 14 19 8
f 19 20 8
f 8 20 18
f 13 9 21
f 22 9 11
f 23 9 22
f 9 23 24
f 21 9 24
f 12 10 15
f 22 11 12
f 25 22 12
f 12 15 26
f 27 25 12
f 26 27 12
f 13 21 28
f 14 13 28
f 19 14 28
f 17 26 15
f 29 17 16
f 16 18 29
f 17 29 26
f 18 20 30
f 18 30 31
f 18 31 29
f 19 28 32
f 19 32 20
f 33 20 34
f 32 34 20
f 35 20 33
f 20 35 30
f 21 24 36
f 21 36 37
f 38 28 21
f 38 21 37
f 22 39 23
f 40 39 22
f 25 40 22
f 23 36 24
f 36 23 41
f 41 23 39
f 40 25 42
f 43 42 25
f 25 27 43
f 26 44 27
f 26 29 44
f 43 27 45
f 27 46 45
f 44 46 27
f 32 28 38
f 47 44 29
f 48 47 29
f 29 31 48
f 30 49 31
f 30 50 49
f 50 30 35
f 31 49 48
f 38 34 32
f 34 51 33
f 52 33 51
f 33 52 35
f 34 38 53
f 53 51 34
f 50 35 54
f 35 55 54
f 35 52 55
f 56 36 41
f 37 36 56
f 38 37 57
f 57 37 56
f 53 38 58
f 57 58 38
f 59 41 39
f 39 40 59
f 40 42 59
f 59 60 41
f 60 56 41
f 61 62 42
f 42 62 59
f 42 63 61
f 63 42 43
f 43 64 63
f 43 65 64
f 45 65 43
f 44 47 66
f 44 66 46
f 46 67 45
f 65 45 67
f 46 66 68
f 67 46 68
f 66 47 69
f 69 47 70
f 47 49 70
f 48 49 47
f 50 70 49
f 54 70 50
f 71 51 53
f 72 51 71
f 52 51 72
f 52 72 55
f 73 53 74
f 75 53 58
f 75 74 53
f 73 71 53
f 54 68 69
f 68 54 72
f 54 69 70
f 55 72 54
f 56 60 76
f 56 76 57
f 57 77 58
f 57 76 77
f 77 75 58
f 59 62 78
f 59 78 60
f 60 78 79
f 76 60 79
f 61 80 62
f 80 61 64
f 64 61 63
f 81 78 62
f 80 81 62
f 82 64 65
f 64 82 80
f 83 65 67
f 82 65 83
f 69 68 66
f 67 68 83
f 68 84 83
f 85 68 72
f 68 85 84
f 71 73 86
f 86 87 71
f 87 85 71
f 71 85 72
f 88 73 74
f 79 86 73
f 79 73 88
f 75 88 74
f 77 88 75
f 76 79 77
f 77 79 88
f 89 78 81
f 89 79 78
f 86 79 89
f 90 81 80
f 80 82 90
f 81 90 89
f 82 84 90
f 84 82 83
f 90 84 87
f 87 84 85
f 90 87 86
f 86 89 90
