# Generated by Visualization Toolkit
v -0.01569500006735325 0.05856899917125702 0.0001500000071246177
v -0.004604000132530928 0.05920099839568138 0.0001500000071246177
v -0.003959000110626221 0.05926400050520897 -0.00418000016361475
v -0.016656000167131424 0.0586169995367527 0.0001500000071246177
v -0.003959000110626221 0.05926400050520897 0.004480000119656324
v -0.010468999855220318 0.0444829985499382 -0.002122000092640519
v -0.0048790001310408115 0.058563001453876495 -0.0014850000152364373
v -0.010470000095665455 0.044482000172138214 0.0001500000071246177
v -0.0048790001310408115 0.058563001453876495 0.0017859999788925052
v -0.010468999855220318 0.0444829985499382 0.0024220000486820936
v 0.0015490000369027257 0.06067200005054474 -0.012190000154078007
v -0.004918000195175409 0.05936200171709061 -0.0049600000493228436
v -0.007842999882996082 0.05415400117635727 -0.011812999844551086
v -0.02004300057888031 0.05443299934267998 -0.005270000081509352
v -0.027442000806331635 0.056134000420570374 -0.003751999931409955
v -0.032958000898361206 0.05729399994015694 -0.003527000080794096
v -0.03266799822449684 0.05931499972939491 0.0001500000071246177
v -0.032958000898361206 0.05729399994015694 0.003828000044450164
v -0.027442000806331635 0.056134000420570374 0.004052999895066023
v -0.02004300057888031 0.05443299934267998 0.005570999812334776
v -0.007842999882996082 0.05415400117635727 0.012113000266253948
v 0.0015490000369027257 0.06067200005054474 0.012490999884903431
v -0.004918000195175409 0.05936200171709061 0.005260000005364418
v -0.0040480000898242 0.048562999814748764 -0.009837999939918518
v -0.020834999158978462 0.04940199851989746 -0.006678999867290258
v -0.010746000334620476 0.04705800116062164 -0.012267000041902065
v -0.020840000361204147 0.049396999180316925 0.0001500000071246177
v -0.020834999158978462 0.04940199851989746 0.006978999823331833
v -0.0040480000898242 0.048562999814748764 0.010138999670743942
v -0.010746000334620476 0.04705800116062164 0.012567000463604927
v 0.005127999931573868 0.05543600022792816 -0.012268999591469765
v 0.004110000096261501 0.05628100037574768 -0.0137320002540946
v -0.0008919999818317592 0.057663001120090485 -0.022494999691843987
v -0.02682499960064888 0.05011200159788132 -0.005750999785959721
v -0.033486999571323395 0.048990000039339066 -0.00559299997985363
v -0.03759400174021721 0.04909000173211098 -0.005446000024676323
v -0.04028699919581413 0.05687600001692772 -0.004315999802201986
v -0.03888799995183945 0.06097099930047989 0.0001500000071246177
v -0.04028699919581413 0.05687600001692772 0.004616000223904848
v -0.03759400174021721 0.04909000173211098 0.005745999980717897
v -0.033486999571323395 0.048990000039339066 0.0058929999358952045
v -0.02682499960064888 0.05011200159788132 0.006051999982446432
v -0.0008919999818317592 0.057663001120090485 0.022791000083088875
v 0.004110000096261501 0.05628100037574768 0.014031999744474888
v 0.005127999931573868 0.05543600022792816 0.012570000253617764
v 0.00783700030297041 0.04911300167441368 -0.010931000113487244
v 0.0037539999466389418 0.04440699890255928 -0.00982499960809946
v 0.007329999934881926 0.055105000734329224 -0.02105800062417984
v -0.008206999860703945 0.0475660003721714 -0.02268899977207184
v -0.026829000562429428 0.05010800063610077 0.0001500000071246177
v -0.004563000053167343 0.052988000214099884 -0.02417900040745735
v -0.009313000366091728 0.047499001026153564 -0.017400000244379044
v 0.00783700030297041 0.04911300167441368 0.01123099960386753
v 0.0037539999466389418 0.04440699890255928 0.01012600027024746
v 0.007329999934881926 0.055105000734329224 0.02135399915277958
v -0.008206999860703945 0.0475660003721714 0.022985000163316727
v -0.004563000053167343 0.052988000214099884 0.02447500079870224
v -0.009313000366091728 0.047499001026153564 0.01769999973475933
v 0.010944999754428864 0.058779001235961914 -0.009891999885439873
v 0.011187000200152397 0.06017100065946579 -0.010986999608576298
v 0.008346999995410442 0.05583000183105469 -0.013144999742507935
v 0.009778999723494053 0.05595900118350983 -0.01664699986577034
v 0.006426000036299229 0.05942299962043762 -0.018549999222159386
v 0.0017790000420063734 0.05824600160121918 -0.024668000638484955
v 0.00979200005531311 0.062279000878334045 -0.023900000378489494
v -0.03349100053310394 0.04898599907755852 0.0001500000071246177
v -0.03759799897670746 0.04908600077033043 0.0001500000071246177
v -0.041680000722408295 0.051906000822782516 -0.004209999926388264
v -0.041680000722408295 0.051906000822782516 0.004511000122874975
v 0.0017790000420063734 0.05824600160121918 0.024958999827504158
v 0.00979200005531311 0.062279000878334045 0.024166999384760857
v 0.006426000036299229 0.05942299962043762 0.018844999372959137
v 0.008346999995410442 0.05583000183105469 0.013446000404655933
v 0.009778999723494053 0.05595900118350983 0.016947999596595764
v 0.011187000200152397 0.06017100065946579 0.011288000270724297
v 0.010944999754428864 0.058779001235961914 0.010192999616265297
v 0.004856000188738108 0.043042998760938644 -0.004100999794900417
v 0.023101000115275383 0.03784099966287613 -0.008542999625205994
v 0.020344000309705734 0.039838001132011414 -0.015003000386059284
v 0.01680699922144413 0.04097200185060501 -0.016757000237703323
v 0.014434999786317348 0.046875 -0.01839900016784668
v 0.009538000449538231 0.05315199866890907 -0.018276000395417213
v 0.007575999945402145 0.06059600040316582 -0.025970999151468277
v 0.00738399988040328 0.054770998656749725 -0.024241000413894653
v 0.008964999578893185 0.05809599906206131 -0.02824999950826168
v 0.005921000149101019 0.05019700154662132 -0.030348999425768852
v 0.008847000077366829 0.05176199972629547 -0.029419999569654465
v 0.01257800031453371 0.05239899829030037 -0.019548999145627022
v 0.012833000160753727 0.05133799836039543 -0.02309500053524971
v 0.011745999567210674 0.050370000302791595 -0.026796000078320503
v 0.014072000049054623 0.04931800067424774 -0.022306999191641808
v 0.0036410000175237656 0.057353999465703964 -0.028665000572800636
v 0.004856000188738108 0.043042998760938644 0.004401000216603279
v 0.020344000309705734 0.039838001132011414 0.015302999876439571
v 0.023101000115275383 0.03784099966287613 0.008844000287353992
v 0.01680699922144413 0.04097200185060501 0.017057999968528748
v 0.014434999786317348 0.046875 0.018698999658226967
v 0.009538000449538231 0.05315199866890907 0.0185759998857975
v 0.007575999945402145 0.06059600040316582 0.026239000260829926
v 0.008964999578893185 0.05809599906206131 0.02851800061762333
v 0.00738399988040328 0.054770998656749725 0.024531999602913857
v 0.005921000149101019 0.05019700154662132 0.0306170005351305
v 0.008847000077366829 0.05176199972629547 0.029711000621318817
v 0.012833000160753727 0.05133799836039543 0.0233910009264946
v 0.01257800031453371 0.05239799991250038 0.019511999562382698
v 0.014072000049054623 0.04931800067424774 0.022602999582886696
v 0.011745999567210674 0.050370000302791595 0.02708600088953972
v 0.0036410000175237656 0.057353999465703964 0.02895599976181984
v 0.013883999548852444 0.0622900016605854 -0.01166599988937378
v 0.013233999721705914 0.057374000549316406 -0.005158999934792519
v 0.015088999643921852 0.06105799973011017 -0.014329000376164913
v 0.01221300009638071 0.057301998138427734 -0.0023900000378489494
v 0.004705000203102827 0.0423629991710186 0.0001500000071246177
v 0.014020999893546104 0.060440000146627426 -0.015713000670075417
v 0.014020999893546104 0.060440000146627426 0.016013000160455704
v 0.015088999643921852 0.06105799973011017 0.014630000106990337
v 0.013883999548852444 0.0622900016605854 0.011966000311076641
v 0.013233999721705914 0.057374000549316406 0.00546000013127923
v 0.01221300009638071 0.057301998138427734 0.0026910000015050173
v 0.024375999346375465 0.03759700059890747 -0.00216299993917346
v 0.024383999407291412 0.03774699941277504 0.0001500000071246177
v 0.02587299980223179 0.051545001566410065 -0.007528000045567751
v 0.022871000692248344 0.0534060001373291 -0.011725000105798244
v 0.020836999639868736 0.05528699979186058 -0.01334100030362606
v 0.01664000004529953 0.053369998931884766 -0.017268000170588493
v 0.014295999892055988 0.05062999948859215 -0.022890999913215637
v 0.010197999887168407 0.053516000509262085 -0.024971000850200653
v 0.008391999639570713 0.05087900161743164 -0.029750000685453415
v 0.011745000258088112 0.05167499929666519 -0.025902999565005302
v 0.024375999346375465 0.03759700059890747 0.002463999902829528
v 0.02587299980223179 0.051545001566410065 0.007829000242054462
v 0.022871000692248344 0.0534060001373291 0.012024999596178532
v 0.020836999639868736 0.05528699979186058 0.013640999794006348
v 0.01664000004529953 0.053369998931884766 0.017568999901413918
v 0.014295999892055988 0.05062999948859215 0.02318600006401539
v 0.010197999887168407 0.053516000509262085 0.02526099979877472
v 0.008391999639570713 0.05087900161743164 0.030017999932169914
v 0.011745000258088112 0.05167499929666519 0.026194000616669655
v 0.017000999301671982 0.059532999992370605 -0.013435999862849712
v 0.014684000052511692 0.055709999054670334 0.0001500000071246177
v 0.026737000793218613 0.051242999732494354 0.0001500000071246177
v 0.017000999301671982 0.059532999992370605 0.013736000284552574
f 1 2 3
f 3 4 1
f 5 2 1
f 1 4 5
f 6 7 2
f 8 6 2
f 2 7 3
f 2 9 10
f 2 10 8
f 5 9 2
f 11 3 7
f 11 12 3
f 3 13 4
f 13 14 4
f 13 3 12
f 4 15 17
f 15 16 17
f 14 15 4
f 17 18 19
f 17 19 4
f 4 19 20
f 4 20 21
f 4 21 5
f 9 5 22
f 5 23 22
f 23 5 21
f 24 7 6
f 24 6 26
f 6 25 26
f 25 6 27
f 6 8 27
f 11 7 24
f 27 8 10
f 27 10 28
f 29 9 22
f 10 9 29
f 30 28 10
f 30 10 29
f 31 32 11
f 31 11 24
f 11 33 13
f 11 13 12
f 11 32 33
f 14 13 25
f 14 25 34
f 13 26 25
f 13 33 26
f 15 14 34
f 15 34 35
f 15 35 36
f 16 15 36
f 17 16 38
f 16 37 38
f 36 37 16
f 38 39 18
f 38 18 17
f 40 19 18
f 18 39 40
f 40 41 19
f 41 42 19
f 42 20 19
f 42 28 20
f 28 21 20
f 23 21 22
f 21 43 22
f 28 30 21
f 30 43 21
f 29 22 45
f 22 44 45
f 43 44 22
f 31 24 46
f 46 24 47
f 48 47 24
f 48 24 49
f 24 26 49
f 50 34 27
f 34 25 27
f 26 33 51
f 26 51 52
f 26 52 49
f 27 28 42
f 27 42 50
f 53 29 45
f 54 29 53
f 29 54 55
f 56 30 29
f 56 29 55
f 57 43 30
f 58 57 30
f 56 58 30
f 59 60 31
f 59 31 46
f 60 61 31
f 61 32 31
f 62 63 32
f 62 32 61
f 63 33 32
f 33 64 51
f 33 63 64
f 63 65 64
f 66 35 50
f 35 34 50
f 67 36 66
f 36 35 66
f 67 38 36
f 68 36 38
f 68 37 36
f 37 68 38
f 40 38 67
f 38 69 39
f 38 40 69
f 40 39 69
f 66 41 40
f 66 40 67
f 50 42 41
f 50 41 66
f 57 70 43
f 70 71 72
f 70 72 43
f 44 43 72
f 73 44 74
f 44 72 74
f 45 44 73
f 53 45 76
f 45 75 76
f 45 73 75
f 59 46 47
f 59 47 77
f 78 77 79
f 77 47 79
f 79 47 80
f 80 47 81
f 47 48 81
f 82 48 62
f 48 63 62
f 48 65 63
f 48 83 65
f 48 84 83
f 84 85 83
f 48 49 86
f 48 86 87
f 84 48 89
f 48 88 89
f 48 82 88
f 90 91 48
f 91 81 48
f 48 87 90
f 52 51 49
f 51 92 49
f 92 86 49
f 64 92 51
f 54 53 76
f 93 54 76
f 94 54 93
f 94 93 95
f 96 54 94
f 97 54 96
f 97 55 54
f 74 72 55
f 74 55 98
f 72 71 55
f 71 99 55
f 99 100 101
f 99 101 55
f 102 56 55
f 103 102 55
f 104 105 55
f 104 55 101
f 105 98 55
f 55 106 107
f 55 97 106
f 107 103 55
f 56 57 58
f 56 108 57
f 56 102 108
f 57 108 70
f 109 59 110
f 111 60 109
f 60 59 109
f 110 59 112
f 112 59 77
f 112 77 113
f 111 114 60
f 114 61 60
f 114 62 61
f 82 62 114
f 83 64 65
f 92 64 83
f 71 70 99
f 99 70 108
f 75 73 115
f 75 115 116
f 73 74 115
f 115 74 98
f 117 76 75
f 117 75 116
f 118 76 117
f 119 76 118
f 113 93 119
f 93 76 119
f 78 120 77
f 77 120 113
f 121 113 120
f 78 122 120
f 79 123 122
f 79 122 78
f 80 123 79
f 81 124 123
f 81 123 80
f 81 125 124
f 81 91 126
f 81 126 125
f 88 82 114
f 83 85 92
f 127 85 84
f 127 84 89
f 85 128 92
f 127 128 85
f 92 128 86
f 87 86 128
f 126 89 88
f 126 88 125
f 125 88 114
f 129 127 89
f 129 89 126
f 91 90 126
f 90 129 126
f 95 93 130
f 93 113 130
f 113 121 130
f 95 131 94
f 131 132 94
f 94 132 96
f 130 131 95
f 96 132 97
f 132 133 97
f 133 134 97
f 134 135 97
f 135 106 97
f 115 98 105
f 108 100 99
f 101 100 136
f 108 137 100
f 100 137 136
f 104 101 136
f 102 137 108
f 137 102 103
f 134 105 135
f 105 104 135
f 135 104 138
f 104 136 138
f 115 105 134
f 135 138 107
f 135 107 106
f 124 139 110
f 139 109 110
f 139 111 109
f 124 110 123
f 123 110 122
f 110 140 122
f 140 141 122
f 110 112 140
f 125 114 139
f 114 111 139
f 140 112 113
f 113 119 140
f 142 116 115
f 142 115 134
f 117 116 142
f 118 117 142
f 118 142 133
f 132 118 133
f 131 118 132
f 131 141 140
f 131 140 118
f 140 119 118
f 122 141 120
f 141 121 120
f 130 121 141
f 130 141 131
f 124 125 139
f 128 127 129
f 142 134 133
f 138 136 137
