# Generated by Visualization Toolkit
v -0.00992599967867136 0.07024099677801132 0.00014000000373926014
v -0.0021639999467879534 0.07711900025606155 0.00014000000373926014
v -0.00152299995534122 0.07721800357103348 -0.0038960000965744257
v -0.01088900025933981 0.0702349990606308 0.00014000000373926014
v -0.00152299995534122 0.07721800357103348 0.004176999907940626
v -0.007261000107973814 0.06208699941635132 -0.0019779999274760485
v -0.0024049999192357063 0.07646600157022476 -0.0013849999522790313
v -0.007261999882757664 0.062084998935461044 0.00014000000373926014
v -0.0024049999192357063 0.07646600157022476 0.001664999988861382
v -0.007259999867528677 0.06208699941635132 0.002257999964058399
v 0.0038620000705122948 0.07978799939155579 -0.011363999918103218
v -0.0024850000627338886 0.07726199924945831 -0.004623999819159508
v -0.0051369997672736645 0.07189500331878662 -0.011012000031769276
v -0.012931999750435352 0.06591799855232239 -0.004912999924272299
v -0.018704000860452652 0.06564000248908997 -0.003498000092804432
v -0.024271000176668167 0.06648600101470947 -0.0032889998983591795
v -0.024083999916911125 0.06852100044488907 0.00014000000373926014
v -0.024271000176668167 0.06648600101470947 0.0035689999349415302
v -0.018704000860452652 0.06564000248908997 0.003777999896556139
v -0.012931999750435352 0.06591799855232239 0.005193000193685293
v -0.0051369997672736645 0.07189500331878662 0.011292999610304832
v 0.0038620000705122948 0.07978799939155579 0.01164500042796135
v -0.0024850000627338886 0.07726199924945831 0.004904000088572502
v -0.0010610000463202596 0.06652499735355377 -0.009171999990940094
v -0.01348899956792593 0.06137299910187721 -0.006225999910384417
v -0.007670000195503235 0.0646430030465126 -0.011435000225901604
v -0.01349399983882904 0.06136700138449669 0.00014000000373926014
v -0.01348899956792593 0.06137299910187721 0.006506000179797411
v -0.0010610000463202596 0.06652499735355377 0.009452000260353088
v -0.007670000195503235 0.0646430030465126 0.01171599980443716
v 0.007745999842882156 0.07391099631786346 -0.01143800001591444
v 0.006643999833613634 0.07554800063371658 -0.012800999917089939
v 0.0016210000030696392 0.0757950022816658 -0.021333999931812286
v -0.016062000766396523 0.06164800003170967 -0.005361999850720167
v -0.02262900024652481 0.05962599813938141 -0.00521400012075901
v -0.026676999405026436 0.058313999325037 -0.00507699977606535
v -0.030487999320030212 0.06406400352716446 -0.004023000132292509
v -0.029301999136805534 0.06823399662971497 0.00014000000373926014
v -0.030487999320030212 0.06406400352716446 0.004304000176489353
v -0.026676999405026436 0.058313999325037 0.005357000045478344
v -0.02262900024652481 0.05962599813938141 0.005493999924510717
v -0.016062000766396523 0.06164800003170967 0.0056420001201331615
v 0.0016210000030696392 0.0757950022816658 0.02161400020122528
v 0.006643999833613634 0.07554800063371658 0.013081000186502934
v 0.007745999842882156 0.07391099631786346 0.011718000285327435
v 0.01077600009739399 0.06774800270795822 -0.01018999982625246
v 0.006940999999642372 0.06281699985265732 -0.009159999899566174
v 0.009960999712347984 0.07370500266551971 -0.019971000030636787
v -0.005162000190466642 0.06529399752616882 -0.021517999470233917
v -0.01606599986553192 0.061643000692129135 0.00014000000373926014
v -0.0018029999919235706 0.07091700285673141 -0.022931000217795372
v -0.006262000184506178 0.0651639997959137 -0.016220999881625175
v 0.01077600009739399 0.06774800270795822 0.010470000095665455
v 0.006940999999642372 0.06281699985265732 0.009440000168979168
v 0.009960999712347984 0.07370500266551971 0.020251000300049782
v -0.005162000190466642 0.06529399752616882 0.02179799973964691
v -0.0018029999919235706 0.07091700285673141 0.023211000487208366
v -0.006262000184506178 0.0651639997959137 0.01650100015103817
v 0.01338099967688322 0.07757899910211563 -0.009221999906003475
v 0.01355000026524067 0.07898300141096115 -0.010242000222206116
v 0.01093900017440319 0.07448700070381165 -0.012254999950528145
v 0.012361999601125717 0.07469599694013596 -0.01551899965852499
v 0.008836999535560608 0.07796700298786163 -0.01759199984371662
v 0.004377999808639288 0.07407800108194351 -0.023228000849485397
v 0.011895000003278255 0.07981900125741959 -0.02201700024306774
v -0.02263299934566021 0.05962099879980087 0.00014000000373926014
v -0.026681000366806984 0.058309998363256454 0.00014000000373926014
v -0.030900999903678894 0.06089400127530098 -0.003924999851733446
v -0.030900999903678894 0.06089400127530098 0.0042050001211464405
v 0.004257999826222658 0.07652799785137177 0.024080000817775726
v 0.011895000003278255 0.07981900125741959 0.02226400002837181
v 0.008836999535560608 0.07796700298786163 0.017872000113129616
v 0.01093900017440319 0.07448700070381165 0.01253500021994114
v 0.012361999601125717 0.07469599694013596 0.01579900085926056
v 0.01355000026524067 0.07898300141096115 0.010522999800741673
v 0.01338099967688322 0.07757899910211563 0.00950200017541647
v 0.008112000301480293 0.06151600182056427 -0.003823000006377697
v 0.026592999696731567 0.05735500156879425 -0.007964000105857849
v 0.02373800054192543 0.05919399857521057 -0.01398599985986948
v 0.020148999989032745 0.06012599915266037 -0.015622000209987164
v 0.01747800037264824 0.06588699668645859 -0.017152000218629837
v 0.012265999801456928 0.07187899947166443 -0.017037000507116318
v 0.009770000353455544 0.07801999896764755 -0.023925000801682472
v 0.010150999762117863 0.07095299661159515 -0.022825999185442924
v 0.011285999789834023 0.07560800015926361 -0.02602499909698963
v 0.008658000268042088 0.06757300347089767 -0.027959000319242477
v 0.011823000386357307 0.0668639987707138 -0.026899000629782677
v 0.015339000150561333 0.0712990015745163 -0.01822499930858612
v 0.01564900018274784 0.07025499641895294 -0.02190300077199936
v 0.014786999672651291 0.06565500050783157 -0.02449899911880493
v 0.016989000141620636 0.06830699741840363 -0.02115499973297119
v 0.006300000008195639 0.0729290023446083 -0.026208000257611275
v 0.008112000301480293 0.06151600182056427 0.004102999810129404
v 0.02373800054192543 0.05919399857521057 0.014267000369727612
v 0.026592999696731567 0.05735500156879425 0.008244999684393406
v 0.020148999989032745 0.06012599915266037 0.015901999548077583
v 0.01747800037264824 0.06588699668645859 0.01743200048804283
v 0.012265999801456928 0.07187899947166443 0.017317000776529312
v 0.009770000353455544 0.07801999896764755 0.024172000586986542
v 0.011285999789834023 0.07560800015926361 0.026271000504493713
v 0.010033000260591507 0.07337500154972076 0.02366800047457218
v 0.008658000268042088 0.06757300347089767 0.02820499986410141
v 0.011823000386357307 0.0668639987707138 0.027163999155163765
v 0.01564900018274784 0.07025499641895294 0.022182999178767204
v 0.015339000150561333 0.0712990015745163 0.018504999577999115
v 0.016989000141620636 0.06830699741840363 0.021436000242829323
v 0.014786999672651291 0.06565500050783157 0.02476399950683117
v 0.006300000008195639 0.0729290023446083 0.02647400088608265
v 0.016133999451994896 0.08125200122594833 -0.010874999687075615
v 0.015737999230623245 0.07630500197410583 -0.004809999838471413
v 0.017400000244379044 0.0800900012254715 -0.013357999734580517
v 0.014721999876201153 0.07617499679327011 -0.002228999976068735
v 0.0079969996586442 0.06082899868488312 0.00014000000373926014
v 0.01636599935591221 0.07941199839115143 -0.01464799977838993
v 0.01636599935591221 0.07941199839115143 0.014928000047802925
v 0.017400000244379044 0.0800900012254715 0.013639000244438648
v 0.016133999451994896 0.08125200122594833 0.011156000196933746
v 0.015737999230623245 0.07630500197410583 0.005090000107884407
v 0.014721999876201153 0.07617499679327011 0.002509000012651086
v 0.02787799946963787 0.05718500167131424 -0.0020169999916106462
v 0.027878999710083008 0.05733399838209152 0.00014000000373926014
v 0.028656000271439552 0.07119999825954437 -0.007017999887466431
v 0.02556299977004528 0.07288900017738342 -0.010929999873042107
v 0.02343600057065487 0.07465200126171112 -0.012436999939382076
v 0.01934400014579296 0.07249899953603745 -0.01609800010919571
v 0.017145000398159027 0.06963100284337997 -0.021709000691771507
v 0.013024000450968742 0.06986899673938751 -0.023513000458478928
v 0.011090000160038471 0.06838899850845337 -0.027406999841332436
v 0.014720000326633453 0.066941998898983 -0.02368300035595894
v 0.02787799946963787 0.05718500167131424 0.002297000028192997
v 0.028656000271439552 0.07119999825954437 0.007298000156879425
v 0.02556299977004528 0.07288900017738342 0.011210000142455101
v 0.02343600057065487 0.07465200126171112 0.01271700020879507
v 0.01934400014579296 0.07249899953603745 0.016378000378608704
v 0.017145000398159027 0.06963100284337997 0.021988999098539352
v 0.01308200042694807 0.06867200136184692 0.023096000775694847
v 0.011090000160038471 0.06838899850845337 0.027652999386191368
v 0.014720000326633453 0.066941998898983 0.023948999121785164
v 0.019387999549508095 0.07867500185966492 -0.012524999678134918
v 0.017271999269723892 0.07472600042819977 0.00014000000373926014
v 0.029534000903367996 0.07094799727201462 0.00014000000373926014
v 0.019387999549508095 0.07867500185966492 0.012804999947547913
f 1 2 3
f 3 4 1
f 5 2 1
f 1 4 5
f 6 7 2
f 8 6 2
f 2 7 3
f 2 9 10
f 2 10 8
f 5 9 2
f 11 3 7
f 11 12 3
f 3 13 4
f 13 14 4
f 13 3 12
f 4 15 17
f 15 16 17
f 14 15 4
f 17 18 19
f 17 19 4
f 4 19 20
f 4 20 21
f 4 21 5
f 9 5 22
f 5 23 22
f 23 5 21
f 24 7 6
f 24 6 26
f 6 25 26
f 25 6 27
f 6 8 27
f 11 7 24
f 27 8 10
f 27 10 28
f 29 9 22
f 10 9 29
f 30 28 10
f 30 10 29
f 31 32 11
f 31 11 24
f 11 33 13
f 11 13 12
f 11 32 33
f 14 13 25
f 14 25 34
f 13 26 25
f 13 33 26
f 15 14 34
f 15 34 35
f 15 35 36
f 16 15 36
f 17 16 38
f 16 37 38
f 36 37 16
f 38 39 18
f 38 18 17
f 40 19 18
f 18 39 40
f 40 41 19
f 41 42 19
f 42 20 19
f 42 28 20
f 28 21 20
f 23 21 22
f 21 43 22
f 28 30 21
f 30 43 21
f 29 22 45
f 22 44 45
f 43 44 22
f 31 24 46
f 46 24 47
f 48 47 24
f 48 24 49
f 24 26 49
f 50 34 27
f 34 25 27
f 26 33 51
f 26 51 52
f 26 52 49
f 27 28 42
f 27 42 50
f 53 29 45
f 54 29 53
f 29 54 55
f 56 30 29
f 56 29 55
f 57 43 30
f 58 57 30
f 56 58 30
f 59 60 31
f 59 31 46
f 60 61 31
f 61 32 31
f 62 63 32
f 62 32 61
f 63 33 32
f 33 64 51
f 33 63 64
f 63 65 64
f 66 35 50
f 35 34 50
f 67 36 66
f 36 35 66
f 67 38 36
f 68 36 38
f 68 37 36
f 37 68 38
f 40 38 67
f 38 69 39
f 38 40 69
f 40 39 69
f 66 41 40
f 66 40 67
f 50 42 41
f 50 41 66
f 57 70 43
f 70 71 72
f 70 72 43
f 44 43 72
f 73 44 74
f 44 72 74
f 45 44 73
f 53 45 76
f 45 75 76
f 45 73 75
f 59 46 47
f 59 47 77
f 78 77 79
f 77 47 79
f 79 47 80
f 80 47 81
f 47 48 81
f 82 48 62
f 48 63 62
f 48 65 63
f 48 83 65
f 48 84 85
f 48 85 83
f 48 49 86
f 48 86 87
f 84 48 89
f 48 88 89
f 48 82 88
f 90 91 48
f 91 81 48
f 48 87 90
f 52 51 49
f 51 92 49
f 92 86 49
f 64 92 51
f 54 53 76
f 93 54 76
f 94 54 93
f 94 93 95
f 96 54 94
f 97 54 96
f 97 55 54
f 74 72 55
f 74 55 98
f 72 71 55
f 71 99 55
f 99 100 101
f 99 101 55
f 102 56 55
f 103 102 55
f 104 105 55
f 104 55 101
f 105 98 55
f 55 106 107
f 55 97 106
f 107 103 55
f 56 57 58
f 56 108 57
f 56 102 108
f 57 108 70
f 109 59 110
f 111 60 109
f 60 59 109
f 110 59 112
f 112 59 77
f 112 77 113
f 111 114 60
f 114 61 60
f 114 62 61
f 82 62 114
f 83 64 65
f 92 64 83
f 71 70 99
f 99 70 108
f 75 73 115
f 75 115 116
f 73 74 115
f 115 74 98
f 117 76 75
f 117 75 116
f 118 76 117
f 119 76 118
f 113 93 119
f 93 76 119
f 78 120 77
f 77 120 113
f 121 113 120
f 78 122 120
f 79 123 122
f 79 122 78
f 80 123 79
f 81 124 123
f 81 123 80
f 81 125 124
f 81 91 126
f 81 126 125
f 88 82 114
f 83 85 92
f 127 85 84
f 127 84 89
f 85 128 92
f 127 128 85
f 92 128 86
f 87 86 128
f 90 87 129
f 87 128 129
f 126 89 88
f 126 88 125
f 125 88 114
f 129 127 89
f 129 89 126
f 91 90 129
f 91 129 126
f 95 93 130
f 93 113 130
f 121 130 113
f 95 131 94
f 131 132 94
f 94 132 96
f 130 131 95
f 96 132 97
f 132 133 97
f 133 134 97
f 134 135 97
f 135 106 97
f 115 98 105
f 108 100 99
f 101 100 136
f 108 137 100
f 100 137 136
f 104 101 136
f 102 137 108
f 137 102 103
f 138 137 103
f 138 103 107
f 134 105 135
f 105 104 135
f 135 104 138
f 104 136 138
f 115 105 134
f 135 138 106
f 138 107 106
f 124 139 110
f 139 109 110
f 139 111 109
f 124 110 123
f 123 110 122
f 110 140 122
f 140 141 122
f 110 112 140
f 125 114 139
f 114 111 139
f 140 112 113
f 113 119 140
f 142 116 115
f 142 115 134
f 117 116 142
f 118 117 142
f 118 142 133
f 132 118 133
f 131 118 132
f 131 141 140
f 131 140 118
f 140 119 118
f 122 141 120
f 141 121 120
f 130 121 141
f 130 141 131
f 124 125 139
f 128 127 129
f 142 134 133
f 138 136 137
