# Generated by Visualization Toolkit
v -0.02369699999690056 0.015077999792993069 0.0001320000010309741
v -0.016905000433325768 0.02300800010561943 0.0001320000010309741
v -0.016284000128507614 0.023197999224066734 -0.0036589999217540026
v -0.02464899979531765 0.014934999868273735 0.0001320000010309741
v -0.016284000128507614 0.023197999224066734 0.00392200006172061
v -0.019998999312520027 0.00737700005993247 -0.0018579999450594187
v -0.017059000208973885 0.022326000034809113 -0.0013000000035390258
v -0.019999999552965164 0.007375000044703484 0.0001320000010309741
v -0.017059000208973885 0.022326000034809113 0.0015640000347048044
v -0.019998999312520027 0.00737700005993247 0.0021210000850260258
v -0.011285999789834023 0.02651599980890751 -0.010672000236809254
v -0.01724199950695038 0.023103000596165657 -0.004342000000178814
v -0.019169999286532402 0.017402999103069305 -0.010342000052332878
v -0.026110999286174774 0.010363000445067883 -0.004614000208675861
v -0.03178900107741356 0.009260999970138073 -0.0032850001007318497
v -0.03740999847650528 0.009302999824285507 -0.0030879999976605177
v -0.03748999908566475 0.011346999555826187 0.0001320000010309741
v -0.03740999847650528 0.009302999824285507 0.003350999904796481
v -0.03178900107741356 0.009260999970138073 0.003548000007867813
v -0.026110999286174774 0.010363000445067883 0.004877000115811825
v -0.019169999286532402 0.017402999103069305 0.010604999959468842
v -0.011285999789834023 0.02651599980890751 0.010936000384390354
v -0.01724199950695038 0.023103000596165657 0.004604999907314777
v -0.014437000267207623 0.012663999572396278 -0.008612999692559242
v -0.026071999222040176 0.005776999983936548 -0.005847000051289797
v -0.020735999569296837 0.009851999580860138 -0.010738999582827091
v -0.026076000183820724 0.005770999938249588 0.0001320000010309741
v -0.026071999222040176 0.005776999983936548 0.00610999995842576
v -0.014437000267207623 0.012663999572396278 0.008876999840140343
v -0.020735999569296837 0.009851999580860138 0.01100200042128563
v -0.006678000092506409 0.02124599926173687 -0.010742000304162502
v -0.007980999536812305 0.022710999473929405 -0.012021999806165695
v -0.012985999695956707 0.02223699912428856 -0.020035000517964363
v -0.028655000030994415 0.005681999959051609 -0.005034999921917915
v -0.03489400073885918 0.002736999886110425 -0.004896000027656555
v -0.03873100131750107 0.0008570000063627958 -0.004767999984323978
v -0.04324999824166298 0.006012000143527985 -0.0037789999041706324
v -0.04261799901723862 0.010316000320017338 0.0001320000010309741
v -0.04324999824166298 0.006012000143527985 0.0040420000441372395
v -0.03873100131750107 0.0008570000063627958 0.005030999891459942
v -0.03489400073885918 0.002736999886110425 0.005160000175237656
v -0.028655000030994415 0.005681999959051609 0.005297999829053879
v -0.012985999695956707 0.02223699912428856 0.020298000425100327
v -0.007980999536812305 0.022710999473929405 0.012284999713301659
v -0.006678000092506409 0.02124599926173687 0.011005000211298466
v -0.0028780000284314156 0.015571000054478645 -0.009569000452756882
v -0.006033000070601702 0.01013300009071827 -0.008601999841630459
v -0.00445799995213747 0.021359000355005264 -0.018755000084638596
v -0.018338000401854515 0.010857000015676022 -0.020207999274134636
v -0.028658000752329826 0.005677000153809786 0.0001320000010309741
v -0.015742000192403793 0.01691100001335144 -0.021534999832510948
v -0.01940999925136566 0.010569999925792217 -0.015232999809086323
v -0.0028780000284314156 0.015571000054478645 0.009832999669015408
v -0.006033000070601702 0.01013300009071827 0.008864999748766422
v -0.00445799995213747 0.021359000355005264 0.019019000232219696
v -0.018338000401854515 0.010857000015676022 0.0204709991812706
v -0.015742000192403793 0.01691100001335144 0.02179799973964691
v -0.01940999925136566 0.010569999925792217 0.015495999716222286
v -0.001576000009663403 0.025689000263810158 -0.008659999817609787
v -0.0015899999998509884 0.027104999870061874 -0.009619000367820263
v -0.0035910001024603844 0.022274000570178032 -0.011509000323712826
v -0.0022100000642240047 0.02268500067293644 -0.014573999680578709
v -0.006124999839812517 0.025422999635338783 -0.016520999372005463
v -0.010219999589025974 0.018206000328063965 -0.0202029999345541
v -0.004027999937534332 0.027648000046610832 -0.021230999380350113
v -0.03489699959754944 0.002732000080868602 0.0001320000010309741
v -0.03873400017619133 0.0008529999759048223 0.0001320000010309741
v -0.043248001486063004 0.002810999983921647 -0.00368599989451468
v -0.043248001486063004 0.002810999983921647 0.003949000034481287
v -0.010471000336110592 0.023341000080108643 0.022614000365138054
v -0.004027999937534332 0.027648000046610832 0.021469000726938248
v -0.006124999839812517 0.025422999635338783 0.016783999279141426
v -0.0035910001024603844 0.022274000570178032 0.01177200023084879
v -0.0022100000642240047 0.02268500067293644 0.014836999587714672
v -0.0015899999998509884 0.027104999870061874 0.009882000274956226
v -0.001576000009663403 0.025689000263810158 0.00892299972474575
v -0.004705999977886677 0.00901199970394373 -0.003590000094845891
v 0.014131000265479088 0.007532000076025724 -0.0074800001457333565
v 0.01106599997729063 0.008945999667048454 -0.013135000132024288
v 0.007391999941319227 0.0093560004606843 -0.014670999720692635
v 0.003998999949544668 0.014685000292956829 -0.01610800065100193
v -0.0019389999797567725 0.019879000261425972 -0.01600000075995922
v -0.005894000176340342 0.025564000010490417 -0.02307100035250187
v -0.004095999989658594 0.015948999673128128 -0.019852999597787857
v -0.00407399982213974 0.02338399924337864 -0.025095999240875244
v -0.005613999906927347 0.015043999999761581 -0.02696000039577484
v -0.002119000069797039 0.013326999731361866 -0.024095000699162483
v 0.0011790000135079026 0.01974399946630001 -0.017115000635385513
v 0.0016210000030696392 0.01875299960374832 -0.020569000393152237
v 0.0009749999735504389 0.012551999650895596 -0.021945999935269356
v 0.003200999926775694 0.017014000564813614 -0.019866999238729477
v -0.008383999578654766 0.018533999100327492 -0.02347699925303459
v -0.004705999977886677 0.00901199970394373 0.0038530000019818544
v 0.01106599997729063 0.008945999667048454 0.013398000039160252
v 0.014131000265479088 0.007532000076025724 0.00774300005286932
v 0.007391999941319227 0.0093560004606843 0.014933999627828598
v 0.003998999949544668 0.014685000292956829 0.016371000558137894
v -0.0019389999797567725 0.019879000261425972 0.016263000667095184
v -0.005894000176340342 0.025564000010490417 0.023308999836444855
v -0.00407399982213974 0.02338399924337864 0.025333000347018242
v -0.00434499979019165 0.021042000502347946 0.022227000445127487
v -0.005613999906927347 0.015043999999761581 0.027197999879717827
v -0.002119000069797039 0.013326999731361866 0.02433300018310547
v 0.0016210000030696392 0.01875299960374832 0.020833000540733337
v 0.0011790000135079026 0.01974399946630001 0.017378000542521477
v 0.003200999926775694 0.017014000564813614 0.02012999914586544
v 0.0009749999735504389 0.012551999650895596 0.022182999178767204
v -0.008383999578654766 0.018533999100327492 0.02371400035917759
v 0.0006730000022798777 0.0297240000218153 -0.010212999768555164
v 0.00092299998505041 0.02476399950683117 -0.004517000168561935
v 0.0020779999904334545 0.02875399962067604 -0.012544999830424786
v -0.00006500000017695129 0.02448900043964386 -0.002093000104650855
v -0.004730999935418367 0.008313000202178955 0.0001320000010309741
v 0.0011419999646022916 0.0279339998960495 -0.013756000436842442
v 0.0011419999646022916 0.0279339998960495 0.014019000343978405
v 0.0020779999904334545 0.02875399962067604 0.012807999737560749
v 0.0006730000022798777 0.0297240000218153 0.010475999675691128
v 0.00092299998505041 0.02476399950683117 0.004780000075697899
v -0.00006500000017695129 0.02448900043964386 0.0023560000117868185
v 0.015425999648869038 0.007546999957412481 -0.0018939999863505363
v 0.015406999737024307 0.0076950001530349255 0.0001320000010309741
v 0.014375000260770321 0.021550999954342842 -0.0065910001285374165
v 0.011094000190496445 0.022783000022172928 -0.01026500016450882
v 0.008759000338613987 0.024226000532507896 -0.011679000221192837
v 0.004987999796867371 0.02150700055062771 -0.015118000097572803
v 0.003183000022545457 0.018348999321460724 -0.02038699947297573
v -0.001108999946154654 0.015289000235497952 -0.020450999960303307
v -0.0033140000887215137 0.016195999458432198 -0.026427999138832092
v 0.0007389999809674919 0.013813000172376633 -0.02121499925851822
v 0.015425999648869038 0.007546999957412481 0.0021569998934865
v 0.014375000260770321 0.021550999954342842 0.00685400003567338
v 0.011094000190496445 0.022783000022172928 0.010528000071644783
v 0.008759000338613987 0.024226000532507896 0.011943000368773937
v 0.004987999796867371 0.02150700055062771 0.015381000004708767
v 0.003183000022545457 0.018348999321460724 0.020649999380111694
v -0.001108999946154654 0.015289000235497952 0.020688999444246292
v -0.0033140000887215137 0.016195999458432198 0.026666000485420227
v 0.0007389999809674919 0.013813000172376633 0.021453000605106354
v 0.004228999838232994 0.02763500064611435 -0.011762999929487705
v 0.0026469998992979527 0.023416999727487564 0.0001320000010309741
v 0.015277000144124031 0.02142699994146824 0.0001320000010309741
v 0.004228999838232994 0.02763500064611435 0.012025999836623669
f 1 2 3
f 3 4 1
f 5 2 1
f 1 4 5
f 6 7 2
f 8 6 2
f 2 7 3
f 2 9 10
f 2 10 8
f 5 9 2
f 11 3 7
f 11 12 3
f 3 13 4
f 13 14 4
f 13 3 12
f 4 15 17
f 15 16 17
f 14 15 4
f 17 18 19
f 17 19 4
f 4 19 20
f 4 20 21
f 4 21 5
f 9 5 22
f 5 23 22
f 23 5 21
f 24 7 6
f 24 6 26
f 6 25 26
f 25 6 27
f 6 8 27
f 11 7 24
f 27 8 10
f 27 10 28
f 29 9 22
f 10 9 29
f 30 28 10
f 30 10 29
f 31 32 11
f 31 11 24
f 11 33 13
f 11 13 12
f 11 32 33
f 14 13 25
f 14 25 34
f 13 26 25
f 13 33 26
f 15 14 34
f 15 34 35
f 15 35 36
f 16 15 36
f 17 16 38
f 16 37 38
f 36 37 16
f 38 39 18
f 38 18 17
f 40 19 18
f 18 39 40
f 40 41 19
f 41 42 19
f 42 20 19
f 42 28 20
f 28 21 20
f 23 21 22
f 21 43 22
f 28 30 21
f 30 43 21
f 29 22 45
f 22 44 45
f 43 44 22
f 31 24 46
f 46 24 47
f 48 47 24
f 48 24 49
f 24 26 49
f 50 34 27
f 34 25 27
f 26 33 51
f 26 51 52
f 26 52 49
f 27 28 42
f 27 42 50
f 53 29 45
f 54 29 53
f 29 54 55
f 56 30 29
f 56 29 55
f 57 43 30
f 58 57 30
f 56 58 30
f 59 60 31
f 59 31 46
f 60 61 31
f 61 32 31
f 62 63 32
f 62 32 61
f 63 33 32
f 33 64 51
f 33 63 64
f 63 65 64
f 66 35 50
f 35 34 50
f 67 36 66
f 36 35 66
f 67 38 36
f 68 36 38
f 68 37 36
f 37 68 38
f 40 38 67
f 38 69 39
f 38 40 69
f 40 39 69
f 66 41 40
f 66 40 67
f 50 42 41
f 50 41 66
f 57 70 43
f 70 71 72
f 70 72 43
f 44 43 72
f 73 44 74
f 44 72 74
f 45 44 73
f 53 45 76
f 45 75 76
f 45 73 75
f 59 46 47
f 59 47 77
f 78 77 79
f 77 47 79
f 79 47 80
f 80 47 81
f 47 48 81
f 82 48 62
f 48 63 62
f 48 65 63
f 48 83 65
f 48 84 85
f 48 85 83
f 48 49 86
f 48 86 87
f 84 48 89
f 48 88 89
f 48 82 88
f 90 91 48
f 91 81 48
f 48 87 90
f 52 51 49
f 51 92 49
f 92 86 49
f 64 92 51
f 54 53 76
f 93 54 76
f 94 54 93
f 94 93 95
f 96 54 94
f 97 54 96
f 97 55 54
f 74 72 55
f 74 55 98
f 72 71 55
f 71 99 55
f 99 100 101
f 99 101 55
f 102 56 55
f 103 102 55
f 104 105 55
f 104 55 101
f 105 98 55
f 55 106 107
f 55 97 106
f 107 103 55
f 56 57 58
f 56 108 57
f 56 102 108
f 57 108 70
f 109 59 110
f 111 60 109
f 60 59 109
f 110 59 112
f 112 59 77
f 112 77 113
f 111 114 60
f 114 61 60
f 114 62 61
f 82 62 114
f 83 64 65
f 92 64 83
f 71 70 99
f 99 70 108
f 75 73 115
f 75 115 116
f 73 74 115
f 115 74 98
f 117 76 75
f 117 75 116
f 118 76 117
f 119 76 118
f 113 93 119
f 93 76 119
f 78 120 77
f 77 120 113
f 121 113 120
f 78 122 120
f 79 123 122
f 79 122 78
f 80 123 79
f 81 124 123
f 81 123 80
f 81 125 124
f 81 91 126
f 81 126 125
f 88 82 114
f 83 85 92
f 127 85 84
f 127 84 89
f 85 128 92
f 127 128 85
f 92 128 86
f 87 86 128
f 90 87 129
f 87 128 129
f 126 89 88
f 126 88 125
f 125 88 114
f 129 127 89
f 129 89 126
f 91 90 129
f 91 129 126
f 95 93 130
f 93 113 130
f 121 130 113
f 95 131 94
f 131 132 94
f 94 132 96
f 130 131 95
f 96 132 97
f 132 133 97
f 133 134 97
f 134 135 97
f 135 106 97
f 115 98 105
f 108 100 99
f 101 100 136
f 108 137 100
f 100 137 136
f 104 101 136
f 102 137 108
f 137 102 103
f 138 137 103
f 138 103 107
f 134 105 135
f 105 104 135
f 135 104 138
f 104 136 138
f 115 105 134
f 135 138 106
f 138 107 106
f 124 139 110
f 139 109 110
f 139 111 109
f 124 110 123
f 123 110 122
f 110 140 122
f 140 141 122
f 110 112 140
f 125 114 139
f 114 111 139
f 140 112 113
f 113 119 140
f 142 116 115
f 142 115 134
f 117 116 142
f 118 117 142
f 118 142 133
f 132 118 133
f 131 118 132
f 131 141 140
f 131 140 118
f 140 119 118
f 122 141 120
f 141 121 120
f 130 121 141
f 130 141 131
f 124 125 139
f 128 127 129
f 142 134 133
f 138 136 137
