# Generated by Visualization Toolkit
v -0.029548000544309616 -0.006703000050038099 0
v -0.029242999851703644 -0.006688999943435192 0.0034280000254511833
v -0.042208001017570496 -0.0035310001112520695 0.003607999999076128
v -0.04244999960064888 -0.003541999962180853 0
v -0.029236000031232834 -0.006684000138193369 0
v -0.030119000002741814 0.0027650000993162394 0
v -0.02981399931013584 0.002778999973088503 0.003435000078752637
v -0.042208001017570496 -0.0035310001112520695 -0.003607999999076128
v -0.029242999851703644 -0.006688999943435192 -0.0034280000254511833
v -0.02981399931013584 0.002778999973088503 -0.003435000078752637
v -0.04195699840784073 -0.003515999997034669 0.0051369997672736645
v -0.02879999950528145 -0.006661999970674515 0.004871999844908714
v -0.0401809997856617 -0.0034080001059919596 0.007222999818623066
v -0.029371000826358795 0.0028029999230057 0.0048779998905956745
v -0.04230299964547157 -0.001943000010214746 0.0036090000066906214
v -0.042546000331640244 -0.0019539999775588512 0
v -0.04205299913883209 -0.0019310000352561474 0.0051380000077188015
v -0.04230299964547157 -0.001943000010214746 -0.0036090000066906214
v -0.02980699948966503 0.0027840000111609697 0
v -0.04027700051665306 -0.001825000043027103 0.007224999833852053
v -0.04195699840784073 -0.003515999997034669 -0.0051369997672736645
v -0.04205299913883209 -0.0019310000352561474 -0.0051380000077188015
v -0.0401809997856617 -0.0034080001059919596 -0.007222999818623066
v -0.02879999950528145 -0.006661999970674515 -0.004871999844908714
v -0.029371000826358795 0.0028029999230057 -0.0048779998905956745
v -0.04027700051665306 -0.001825000043027103 -0.007224999833852053
v -0.03777800127863884 -0.003261999925598502 0.009073000401258469
v -0.03532699868083 -0.0031139999628067017 0.011870999820530415
v -0.0332689993083477 -0.005621999967843294 0.014030000194907188
v -0.026163000613451004 -0.005181000102311373 0.008573999628424644
v -0.03036000020802021 -0.0034729999024420977 0.017833000048995018
v -0.0265749990940094 0.0016469999682158232 0.008578999899327755
v -0.03787299990653992 -0.001680999994277954 0.009073999710381031
v -0.03542200103402138 -0.0015350000467151403 0.011872000060975552
v -0.033681001514196396 0.0012019999558106065 0.014034000225365162
v -0.030534999445080757 -0.0005840000230818987 0.017835000529885292
v -0.03777800127863884 -0.003261999925598502 -0.009073000401258469
v -0.03787299990653992 -0.001680999994277954 -0.009073999710381031
v -0.03532699868083 -0.0031139999628067017 -0.011870999820530415
v -0.0332689993083477 -0.005621999967843294 -0.014030000194907188
v -0.03036000020802021 -0.0034729999024420977 -0.017833000048995018
v -0.026163000613451004 -0.005181000102311373 -0.008573999628424644
v -0.0265749990940094 0.0016469999682158232 -0.008578999899327755
v -0.03542200103402138 -0.0015350000467151403 -0.011872000060975552
v -0.033681001514196396 0.0012019999558106065 -0.014034000225365162
v -0.030534999445080757 -0.0005840000230818987 -0.017835000529885292
v -0.024337999522686005 -0.004412999842315912 0.010978000238537788
v -0.028550000861287117 -0.0027030000928789377 0.019215000793337822
v -0.024670999497175217 0.0011030000168830156 0.010982000268995762
v -0.028644999489188194 -0.001129999989643693 0.01921599917113781
v -0.028550000861287117 -0.0027030000928789377 -0.019215000793337822
v -0.024337999522686005 -0.004412999842315912 -0.010978000238537788
v -0.028644999489188194 -0.001129999989643693 -0.01921599917113781
v -0.024670999497175217 0.0011030000168830156 -0.010982000268995762
v -0.02257400006055832 -0.0029899999499320984 0.012749999761581421
v -0.025054000318050385 -0.005123999901115894 0.02306699939072132
v -0.022748000919818878 -0.00009699999645818025 0.012752000242471695
v -0.025465000420808792 0.0016929999692365527 0.023072000592947006
v -0.025054000318050385 -0.005123999901115894 -0.02306699939072132
v -0.02257400006055832 -0.0029899999499320984 -0.012749999761581421
v -0.025465000420808792 0.0016929999692365527 -0.023072000592947006
v -0.022748000919818878 -0.00009699999645818025 -0.012752000242471695
v -0.019202999770641327 -0.002785000018775463 0.01458400022238493
v -0.02273700013756752 -0.004982999991625547 0.024501999840140343
v -0.019377000629901886 0.00010699999984353781 0.014585999771952629
v -0.023148000240325928 0.001832999987527728 0.02450600080192089
v -0.02273700013756752 -0.004982999991625547 -0.024501999840140343
v -0.019202999770641327 -0.002785000018775463 -0.01458400022238493
v -0.023148000240325928 0.001832999987527728 -0.02450600080192089
v -0.019377000629901886 0.00010699999984353781 -0.014585999771952629
v -0.0125749995931983 -0.006852000020444393 0.015696000307798386
v -0.015437000431120396 -0.009492999874055386 0.01850700005888939
v -0.016435999423265457 -0.010122999548912048 0.020622000098228455
v -0.013260999694466591 -0.0017600000137463212 0.015080999583005905
v -0.011109000071883202 -0.006477000191807747 0.01463599968701601
v -0.013356000185012817 -0.0001829999964684248 0.015081999823451042
v -0.016367999836802483 -0.0019580000080168247 0.024032000452280045
v -0.020603999495506287 -0.002219999907538295 0.025572000071406364
v -0.020698999986052513 -0.0006510000093840063 0.0255730003118515
v -0.01644499972462654 0.007218000013381243 0.018518000841140747
v -0.013287000358104706 0.004954000003635883 0.015704000368714333
v -0.017511000856757164 0.0077149998396635056 0.020633000880479813
v -0.011787000112235546 0.004763999953866005 0.014643000438809395
v -0.016462000086903572 -0.00038899999344721437 0.02403300069272518
v -0.016435999423265457 -0.010122999548912048 -0.020622000098228455
v -0.020603999495506287 -0.002219999907538295 -0.025572000071406364
v -0.016367999836802483 -0.0019580000080168247 -0.024032000452280045
v -0.020698999986052513 -0.0006510000093840063 -0.0255730003118515
v -0.015437000431120396 -0.009492999874055386 -0.01850700005888939
v -0.0125749995931983 -0.006852000020444393 -0.015696000307798386
v -0.011109000071883202 -0.006477000191807747 -0.01463599968701601
v -0.013260999694466591 -0.0017600000137463212 -0.015080999583005905
v -0.013356000185012817 -0.0001829999964684248 -0.015081999823451042
v -0.017511000856757164 0.0077149998396635056 -0.020633000880479813
v -0.016462000086903572 -0.00038899999344721437 -0.02403300069272518
v -0.013287000358104706 0.004954000003635883 -0.015704000368714333
v -0.01644499972462654 0.007218000013381243 -0.018518000841140747
v -0.011787000112235546 0.004763999953866005 -0.014643000438809395
v -0.00942699983716011 -0.008716000244021416 0.023364000022411346
v -0.012974999845027924 -0.009603000245988369 0.02340099960565567
v -0.005305000115185976 -0.007114000152796507 0.02202099934220314
v -0.009089999832212925 -0.0015020000282675028 0.01370999962091446
v -0.007954999804496765 -0.005067000165581703 0.013783999718725681
v -0.009185000322759151 0.00007500000356230885 0.013710999861359596
v -0.002621999941766262 -0.006577999796718359 0.02063800022006035
v -0.00848700013011694 0.003751999931409955 0.013790000230073929
v -0.016240999102592468 -0.0019519999623298645 0.02583399973809719
v -0.016334999352693558 -0.00038400001358240843 0.025834999978542328
v -0.014012999832630157 0.00761700002476573 0.023412000387907028
v -0.01038500014692545 0.007172000128775835 0.023375000804662704
v -0.006101999897509813 0.006089000031352043 0.022029999643564224
v -0.0033740000799298286 0.005888999905437231 0.020647000521421432
v -0.012974999845027924 -0.009603000245988369 -0.02340099960565567
v -0.016240999102592468 -0.0019519999623298645 -0.02583399973809719
v -0.016334999352693558 -0.00038400001358240843 -0.025834999978542328
v -0.00942699983716011 -0.008716000244021416 -0.023364000022411346
v -0.005305000115185976 -0.007114000152796507 -0.02202099934220314
v -0.007954999804496765 -0.005067000165581703 -0.013783999718725681
v -0.009089999832212925 -0.0015020000282675028 -0.01370999962091446
v -0.002621999941766262 -0.006577999796718359 -0.02063800022006035
v -0.009185000322759151 0.00007500000356230885 -0.013710999861359596
v -0.00848700013011694 0.003751999931409955 -0.013790000230073929
v -0.014012999832630157 0.00761700002476573 -0.023412000387907028
v -0.01038500014692545 0.007172000128775835 -0.023375000804662704
v -0.006101999897509813 0.006089000031352043 -0.022029999643564224
v -0.0033740000799298286 0.005888999905437231 -0.020647000521421432
v -0.00851800013333559 -0.0014779999619349837 0.026664000004529953
v -0.01003200002014637 -0.0015719999792054296 0.027744999155402184
v -0.006666999775916338 -0.0013630000175908208 0.02607399970293045
v -0.0015910000074654818 -0.0010499999625608325 0.02463899925351143
v -0.004118000157177448 -0.0011950000189244747 0.011056999675929546
v -0.0015310000162571669 -0.005040000192821026 0.011482000350952148
v -0.0042130001820623875 0.00038499999209307134 0.011057999916374683
v 0.0001829999964684248 -0.006874000187963247 0.018706999719142914
v -0.002107999986037612 0.004517999943345785 0.011487999930977821
v -0.0006249999860301614 0.0065310001373291016 0.018716000020503998
v -0.01565299928188324 -0.001917000045068562 0.028078999370336533
v -0.01574699953198433 -0.00035099999513477087 0.02807999961078167
v -0.010126999579370022 -0.000004999999873689376 0.02774599939584732
v -0.00861200038343668 0.00009000000136438757 0.02666500024497509
v -0.006761999800801277 0.00020399999630171806 0.026074999943375587
v -0.0016850000247359276 0.0005189999938011169 0.024639999493956566
v -0.01003200002014637 -0.0015719999792054296 -0.027744999155402184
v -0.00851800013333559 -0.0014779999619349837 -0.026664000004529953
v -0.01565299928188324 -0.001917000045068562 -0.028078999370336533
v -0.01574699953198433 -0.00035099999513477087 -0.02807999961078167
v -0.010126999579370022 -0.000004999999873689376 -0.02774599939584732
v -0.006666999775916338 -0.0013630000175908208 -0.02607399970293045
v -0.0015910000074654818 -0.0010499999625608325 -0.02463899925351143
v -0.0015310000162571669 -0.005040000192821026 -0.011482000350952148
v -0.004118000157177448 -0.0011950000189244747 -0.011056999675929546
v 0.0001829999964684248 -0.006874000187963247 -0.018706999719142914
v -0.0042130001820623875 0.00038499999209307134 -0.011057999916374683
v -0.002107999986037612 0.004517999943345785 -0.011487999930977821
v -0.0006249999860301614 0.0065310001373291016 -0.018716000020503998
v -0.00861200038343668 0.00009000000136438757 -0.02666500024497509
v -0.006761999800801277 0.00020399999630171806 -0.026074999943375587
v -0.0016850000247359276 0.0005189999938011169 -0.024639999493956566
v -0.010147999972105026 -0.0015800000401213765 0.029107000678777695
v -0.015697000548243523 -0.001921999966725707 0.030852999538183212
v -0.010242000222206116 -0.000014000000192027073 0.02910800091922283
v 0.004360000137239695 -0.0047690002247691154 0.023048000410199165
v 0.00009999999747378752 -0.004575000144541264 0.02625099942088127
v -0.0004299999854993075 0.004220999777317047 0.026256000623106956
v -0.002002999885007739 -0.0010639999527484179 0.009495999664068222
v -0.0020979999098926783 0.0005179999861866236 0.009496999904513359
v 0.0003370000049471855 -0.0009200000204145908 0.009469999931752682
v 0.0013470000121742487 -0.005373999942094088 0.010936000384390354
v 0.0025309999473392963 -0.006918999832123518 0.016961999237537384
v 0.004621999803930521 -0.0074430000968277454 0.015476999804377556
v 0.006535999942570925 -0.005131999962031841 0.01955999992787838
v 0.0007089999853633344 0.00520299980416894 0.010943000204861164
v 0.00024199999461416155 0.000661000027321279 0.009471000172197819
v 0.0017000000225380063 0.00686699990183115 0.016970999538898468
v 0.003713000100106001 0.007646999787539244 0.015487000346183777
v 0.003774000098928809 0.0049430001527071 0.023055000230669975
v 0.005890000145882368 0.005578000098466873 0.01956699974834919
v -0.0157919991761446 -0.00035799999022856355 0.03085399977862835
v -0.015697000548243523 -0.001921999966725707 -0.030852999538183212
v -0.010147999972105026 -0.0015800000401213765 -0.029107000678777695
v -0.010242000222206116 -0.000014000000192027073 -0.02910800091922283
v -0.0157919991761446 -0.00035799999022856355 -0.03085399977862835
v 0.00009999999747378752 -0.004575000144541264 -0.02625099942088127
v 0.004360000137239695 -0.0047690002247691154 -0.023048000410199165
v -0.0004299999854993075 0.004220999777317047 -0.026256000623106956
v -0.002002999885007739 -0.0010639999527484179 -0.009495999664068222
v 0.0013470000121742487 -0.005373999942094088 -0.010936000384390354
v 0.0003370000049471855 -0.0009200000204145908 -0.009469999931752682
v 0.0025309999473392963 -0.006918999832123518 -0.016961999237537384
v 0.004621999803930521 -0.0074430000968277454 -0.015476999804377556
v -0.0020979999098926783 0.0005179999861866236 -0.009496999904513359
v 0.006535999942570925 -0.005131999962031841 -0.01955999992787838
v 0.00024199999461416155 0.000661000027321279 -0.009471000172197819
v 0.0007089999853633344 0.00520299980416894 -0.010943000204861164
v 0.0017000000225380063 0.00686699990183115 -0.016970999538898468
v 0.003713000100106001 0.007646999787539244 -0.015487000346183777
v 0.003774000098928809 0.0049430001527071 -0.023055000230669975
v 0.005890000145882368 0.005578000098466873 -0.01956699974834919
v -0.009765000082552433 -0.0015569999814033508 0.030522000044584274
v -0.013536999933421612 -0.0017920000245794654 0.03423300012946129
v -0.009859000332653522 0.000007000000096013537 0.03052300028502941
v -0.013631000183522701 -0.00023099999816622585 0.034233998507261276
v 0.0033829999156296253 -0.004238000139594078 0.027202999219298363
v 0.0028699999675154686 0.0042860000394284725 0.027208000421524048
v 0.0024500000290572643 -0.00394799979403615 0.029637999832630157
v -0.00026199998683296144 -0.004308000206947327 0.02828099951148033
v -0.0007570000016130507 0.003907000180333853 0.028286000713706017
v 0.0019779999274760485 0.003877999959513545 0.02964399941265583
v 0.007218000013381243 -0.006430000066757202 0.009189000353217125
v 0.006409999914467335 0.00697400001809001 0.009197999723255634
v 0.0039059999398887157 -0.0065310001373291016 0.011913999915122986
v 0.005121999885886908 -0.006965999957174063 0.013810999691486359
v 0.007455000188201666 -0.0053369998931884766 0.017728999257087708
v 0.008194000460207462 -0.005059000104665756 0.015358000062406063
v 0.006777000147849321 0.005898000206798315 0.017735999077558517
v 0.003109999932348728 0.006663000211119652 0.01192300021648407
v 0.004265999887138605 0.00723800016567111 0.01382100023329258
v 0.007544000167399645 0.005717999767512083 0.015364999882876873
v -0.013536999933421612 -0.0017920000245794654 -0.03423300012946129
v -0.009765000082552433 -0.0015569999814033508 -0.030522000044584274
v -0.013631000183522701 -0.00023099999816622585 -0.034233998507261276
v -0.009859000332653522 0.000007000000096013537 -0.03052300028502941
v -0.00026199998683296144 -0.004308000206947327 -0.02828099951148033
v 0.0024500000290572643 -0.00394799979403615 -0.029637999832630157
v 0.0033829999156296253 -0.004238000139594078 -0.027202999219298363
v -0.0007570000016130507 0.003907000180333853 -0.028286000713706017
v 0.0028699999675154686 0.0042860000394284725 -0.027208000421524048
v 0.0019779999274760485 0.003877999959513545 -0.02964399941265583
v 0.007218000013381243 -0.006430000066757202 -0.009189000353217125
v 0.0039059999398887157 -0.0065310001373291016 -0.011913999915122986
v 0.005121999885886908 -0.006965999957174063 -0.013810999691486359
v 0.006409999914467335 0.00697400001809001 -0.009197999723255634
v 0.007455000188201666 -0.0053369998931884766 -0.017728999257087708
v 0.008194000460207462 -0.005059000104665756 -0.015358000062406063
v 0.006777000147849321 0.005898000206798315 -0.017735999077558517
v 0.003109999932348728 0.006663000211119652 -0.01192300021648407
v 0.004265999887138605 0.00723800016567111 -0.01382100023329258
v 0.007544000167399645 0.005717999767512083 -0.015364999882876873
v -0.00697400001809001 -0.001386999967508018 0.031596001237630844
v -0.012474999763071537 -0.0017300000181421638 0.03716500103473663
v -0.007069000042974949 0.00017699999443721026 0.03159699961543083
v -0.012569000013172626 -0.00017100000695791095 0.03716599941253662
v -0.0006040000007487833 -0.0009960000170394778 0.03311900049448013
v -0.0012669999850913882 -0.0010339999571442604 0.029752999544143677
v -0.0006980000180192292 0.0005660000024363399 0.03311999887228012
v -0.0013620000099763274 0.0005310000269673765 0.029753999784588814
v 0.00860700011253357 -0.004435999784618616 0.008816000074148178
v 0.01107800006866455 -0.002971000038087368 0.011226999573409557
v 0.00802799966186285 0.005166000220924616 0.008821999654173851
v 0.010657000355422497 0.004007999785244465 0.011231999844312668
v -0.012474999763071537 -0.0017300000181421638 -0.03716500103473663
v -0.00697400001809001 -0.001386999967508018 -0.031596001237630844
v -0.012569000013172626 -0.00017100000695791095 -0.03716599941253662
v -0.007069000042974949 0.00017699999443721026 -0.03159699961543083
v -0.0012669999850913882 -0.0010339999571442604 -0.029752999544143677
v -0.0006040000007487833 -0.0009960000170394778 -0.03311900049448013
v -0.0013620000099763274 0.0005310000269673765 -0.029753999784588814
v -0.0006980000180192292 0.0005660000024363399 -0.03311999887228012
v 0.01107800006866455 -0.002971000038087368 -0.011226999573409557
v 0.00860700011253357 -0.004435999784618616 -0.008816000074148178
v 0.00802799966186285 0.005166000220924616 -0.008821999654173851
v 0.010657000355422497 0.004007999785244465 -0.011231999844312668
v -0.01095299981534481 -0.0016380000161007047 0.03951000049710274
v -0.009228999726474285 -0.0015330000314861536 0.04088199883699417
v -0.006515000015497208 -0.0038850000128149986 0.04095499962568283
v -0.00279000005684793 -0.0032770000398159027 0.039636000990867615
v -0.003845999948680401 -0.0011940000113099813 0.031042000278830528
v -0.0015879999846220016 -0.0030789999291300774 0.035962000489234924
v -0.00394000019878149 0.0003699999942909926 0.031044000759720802
v -0.0110470000654459 -0.00008199999865610152 0.039510998874902725
v -0.009322999976575375 0.000022000000171829015 0.04088300094008446
v -0.006912000011652708 0.0026889999862760305 0.04095900058746338
v -0.003140999935567379 0.0025450000539422035 0.039639998227357864
v -0.0019249999895691872 0.002503999974578619 0.035964999347925186
v 0.00938900001347065 -0.004517999943345785 0.007193000055849552
v 0.014531999826431274 -0.0027540000155568123 0.005929999984800816
v 0.008794000372290611 0.00534699996933341 0.007199000101536512
v 0.01411100011318922 0.004228999838232994 0.005934999790042639
v -0.01095299981534481 -0.0016380000161007047 -0.03951000049710274
v -0.0110470000654459 -0.00008199999865610152 -0.039510998874902725
v -0.009228999726474285 -0.0015330000314861536 -0.04088199883699417
v -0.006515000015497208 -0.0038850000128149986 -0.04095499962568283
v -0.00279000005684793 -0.0032770000398159027 -0.039636000990867615
v -0.0015879999846220016 -0.0030789999291300774 -0.035962000489234924
v -0.003845999948680401 -0.0011940000113099813 -0.031042000278830528
v -0.00394000019878149 0.0003699999942909926 -0.031044000759720802
v -0.009322999976575375 0.000022000000171829015 -0.04088300094008446
v -0.006912000011652708 0.0026889999862760305 -0.04095900058746338
v -0.003140999935567379 0.0025450000539422035 -0.039639998227357864
v -0.0019249999895691872 0.002503999974578619 -0.035964999347925186
v 0.014531999826431274 -0.0027540000155568123 -0.005929999984800816
v 0.00938900001347065 -0.004517999943345785 -0.007193000055849552
v 0.01411100011318922 0.004228999838232994 -0.005934999790042639
v 0.008794000372290611 0.00534699996933341 -0.007199000101536512
v 0.014925000257790089 -0.0014120000414550304 0.0017979999538511038
v 0.00889899954199791 -0.0032319999299943447 0.005582999903708696
v 0.008461999706923962 0.004013999830931425 0.005588000174611807
v 0.014662000350654125 0.002954999916255474 0.001800999976694584
v 0.00889899954199791 -0.0032319999299943447 -0.005582999903708696
v 0.014925000257790089 -0.0014120000414550304 -0.0017979999538511038
v 0.014662000350654125 0.002954999916255474 -0.001800999976694584
v 0.008461999706923962 0.004013999830931425 -0.005588000174611807
v 0.00839800015091896 -0.0026030000299215317 0.0032420000061392784
v 0.008259999565780163 -0.0012939999578520656 0
v 0.014990000054240227 -0.0007489999989047647 0
v 0.014805999584496021 0.002308000111952424 0
v 0.00803999975323677 0.0033340000081807375 0.003246000036597252
v 0.008059999905526638 0.002025000052526593 0
v 0.00839800015091896 -0.0026030000299215317 -0.0032420000061392784
v 0.00803999975323677 0.0033340000081807375 -0.003246000036597252
f 4 5 3
f 1 6 7
f 1 7 2
f 4 8 5
f 9 10 1
f 10 6 1
f 2 11 3
f 12 13 2
f 13 11 2
f 2 7 14
f 2 14 12
f 3 15 4
f 15 16 4
f 11 17 3
f 17 15 3
f 4 16 18
f 4 18 8
f 16 15 19
f 16 19 18
f 15 17 7
f 7 17 20
f 7 20 14
f 8 21 9
f 8 18 22
f 8 22 21
f 9 21 23
f 9 23 24
f 24 25 9
f 25 10 9
f 10 22 18
f 25 26 10
f 26 22 10
f 13 20 17
f 13 17 11
f 27 13 12
f 28 27 12
f 29 28 12
f 30 31 29
f 30 29 12
f 12 14 30
f 14 32 30
f 27 33 20
f 27 20 13
f 14 20 33
f 14 33 34
f 14 34 35
f 14 35 32
f 35 36 32
f 21 22 23
f 22 26 23
f 24 23 37
f 23 26 37
f 26 38 37
f 24 37 39
f 24 39 40
f 24 40 42
f 40 41 42
f 42 43 25
f 42 25 24
f 38 26 25
f 44 38 25
f 45 44 25
f 43 46 45
f 43 45 25
f 28 34 33
f 28 33 27
f 29 35 34
f 29 34 28
f 31 36 35
f 31 35 29
f 30 47 31
f 47 48 31
f 30 32 47
f 32 49 47
f 48 50 36
f 48 36 31
f 36 50 49
f 36 49 32
f 37 38 39
f 38 44 39
f 39 44 40
f 44 45 40
f 40 45 41
f 45 46 41
f 41 51 52
f 41 52 42
f 41 46 51
f 46 53 51
f 52 54 43
f 52 43 42
f 43 54 46
f 54 53 46
f 47 55 48
f 55 56 48
f 47 49 55
f 49 57 55
f 56 58 50
f 56 50 48
f 50 58 57
f 50 57 49
f 51 59 60
f 51 60 52
f 51 53 59
f 53 61 59
f 60 62 54
f 60 54 52
f 54 62 53
f 62 61 53
f 63 64 56
f 63 56 55
f 55 57 63
f 57 65 63
f 64 66 58
f 64 58 56
f 57 58 65
f 58 66 65
f 60 59 68
f 59 67 68
f 59 61 67
f 61 69 67
f 68 70 62
f 68 62 60
f 70 69 61
f 70 61 62
f 71 72 63
f 72 73 63
f 73 64 63
f 74 75 71
f 74 71 63
f 74 63 65
f 74 65 76
f 77 78 64
f 77 64 73
f 78 79 66
f 78 66 64
f 65 80 81
f 65 82 80
f 65 66 82
f 65 81 76
f 81 83 76
f 82 66 84
f 66 79 84
f 68 67 85
f 85 67 87
f 67 86 87
f 67 69 86
f 69 88 86
f 68 89 90
f 68 85 89
f 68 90 92
f 90 91 92
f 93 70 92
f 70 68 92
f 94 69 70
f 95 88 69
f 95 69 94
f 96 97 70
f 97 94 70
f 93 98 96
f 93 96 70
f 71 99 72
f 99 100 72
f 75 101 99
f 75 99 71
f 100 73 72
f 100 77 73
f 102 103 75
f 102 75 74
f 102 74 76
f 102 76 104
f 103 105 101
f 103 101 75
f 76 83 104
f 83 106 104
f 107 78 77
f 100 107 77
f 107 108 79
f 107 79 78
f 84 79 108
f 80 82 109
f 80 109 110
f 80 110 81
f 81 110 83
f 110 111 83
f 82 84 109
f 83 111 106
f 111 112 106
f 84 108 109
f 89 85 113
f 85 87 113
f 87 86 114
f 86 88 114
f 88 115 114
f 87 114 113
f 115 88 95
f 89 113 116
f 89 116 90
f 90 116 91
f 116 117 91
f 92 91 119
f 91 118 119
f 91 117 118
f 117 120 118
f 121 93 119
f 93 92 119
f 121 122 98
f 121 98 93
f 123 94 97
f 123 95 94
f 123 115 95
f 96 124 97
f 124 123 97
f 98 125 124
f 98 124 96
f 122 126 125
f 122 125 98
f 99 127 128
f 99 128 100
f 101 129 127
f 101 127 99
f 128 107 100
f 105 130 101
f 130 129 101
f 131 132 103
f 131 103 102
f 102 104 131
f 104 133 131
f 132 134 105
f 132 105 103
f 104 106 133
f 106 135 133
f 134 130 105
f 106 112 135
f 112 136 135
f 137 107 128
f 137 138 108
f 137 108 107
f 109 108 139
f 139 108 138
f 109 139 110
f 139 140 110
f 110 140 111
f 140 141 111
f 111 141 142
f 111 142 112
f 112 142 136
f 113 114 143
f 113 143 116
f 143 144 116
f 143 114 145
f 114 115 145
f 115 146 145
f 147 115 123
f 146 115 147
f 116 144 117
f 144 148 117
f 117 148 149
f 117 149 120
f 119 118 151
f 118 150 151
f 118 120 150
f 120 152 150
f 151 153 121
f 151 121 119
f 120 149 152
f 153 154 122
f 153 122 121
f 154 155 126
f 154 126 122
f 124 156 147
f 124 147 123
f 125 157 156
f 125 156 124
f 126 158 125
f 158 157 125
f 155 158 126
f 129 141 140
f 129 140 127
f 127 140 139
f 127 139 128
f 159 160 137
f 159 137 128
f 128 139 161
f 128 161 159
f 130 142 141
f 130 141 129
f 162 163 130
f 162 130 134
f 163 164 142
f 163 142 130
f 165 132 131
f 131 133 165
f 133 166 165
f 167 168 132
f 167 132 165
f 169 134 132
f 168 170 169
f 168 169 132
f 133 135 166
f 169 171 134
f 171 162 134
f 166 135 173
f 135 172 173
f 135 136 174
f 135 174 172
f 174 175 172
f 136 142 176
f 142 164 176
f 136 176 177
f 136 177 174
f 160 178 137
f 178 138 137
f 139 138 161
f 138 178 161
f 143 145 180
f 145 179 180
f 143 147 144
f 147 156 144
f 180 181 143
f 181 147 143
f 144 156 148
f 156 157 148
f 145 146 182
f 145 182 179
f 181 182 146
f 181 146 147
f 148 157 149
f 157 158 149
f 152 149 184
f 149 183 184
f 149 158 183
f 158 185 183
f 151 150 186
f 186 150 188
f 150 187 188
f 150 152 189
f 150 189 187
f 189 190 187
f 186 191 153
f 186 153 151
f 152 184 192
f 152 192 189
f 191 154 153
f 193 194 154
f 193 154 191
f 195 155 154
f 194 196 195
f 194 195 154
f 197 185 158
f 197 158 155
f 195 198 155
f 198 197 155
f 199 200 160
f 199 160 159
f 159 161 201
f 159 201 199
f 200 202 160
f 202 178 160
f 161 178 201
f 178 202 201
f 162 203 163
f 162 176 204
f 162 204 203
f 171 177 176
f 171 176 162
f 163 203 206
f 203 205 206
f 206 207 163
f 207 164 163
f 207 208 204
f 207 204 164
f 164 204 176
f 165 166 167
f 166 173 167
f 209 168 167
f 167 173 209
f 173 210 209
f 209 211 168
f 211 212 170
f 211 170 168
f 170 213 171
f 170 171 169
f 212 214 170
f 214 213 170
f 213 215 177
f 213 177 171
f 173 172 210
f 172 216 210
f 172 175 216
f 175 217 216
f 174 177 175
f 177 215 175
f 175 215 218
f 175 218 217
f 180 179 220
f 179 219 220
f 179 182 221
f 179 221 219
f 220 222 180
f 222 181 180
f 222 221 182
f 222 182 181
f 223 224 225
f 223 225 183
f 183 225 184
f 183 185 226
f 183 226 223
f 225 227 184
f 227 197 184
f 184 197 192
f 197 198 192
f 185 227 226
f 227 228 226
f 197 227 185
f 188 193 191
f 188 191 186
f 188 187 229
f 187 230 229
f 187 190 230
f 190 231 230
f 229 232 193
f 229 193 188
f 189 192 190
f 192 233 190
f 190 233 234
f 190 234 231
f 192 198 233
f 198 235 233
f 232 194 193
f 232 236 194
f 236 237 196
f 236 196 194
f 196 235 198
f 196 198 195
f 237 238 196
f 238 235 196
f 239 240 200
f 239 200 199
f 199 201 239
f 201 241 239
f 240 242 200
f 242 202 200
f 201 202 241
f 202 242 241
f 203 204 208
f 203 208 205
f 206 205 244
f 205 243 244
f 205 208 245
f 205 245 243
f 244 246 206
f 246 207 206
f 246 245 208
f 246 208 207
f 209 214 212
f 209 212 211
f 247 248 209
f 248 214 209
f 209 210 247
f 210 249 247
f 216 217 210
f 217 218 210
f 210 218 250
f 210 250 249
f 214 218 215
f 214 215 213
f 248 250 218
f 248 218 214
f 220 219 252
f 219 251 252
f 219 221 253
f 219 253 251
f 252 254 222
f 252 222 220
f 254 253 221
f 254 221 222
f 255 256 224
f 255 224 223
f 223 226 257
f 223 257 255
f 256 258 224
f 258 228 224
f 224 228 225
f 228 227 225
f 226 228 257
f 228 258 257
f 230 231 229
f 231 234 229
f 229 234 259
f 229 259 260
f 260 261 232
f 260 232 229
f 232 238 237
f 232 237 236
f 261 262 232
f 262 238 232
f 233 235 234
f 235 238 234
f 234 238 259
f 238 262 259
f 263 240 239
f 264 263 239
f 265 264 239
f 266 265 239
f 267 268 239
f 268 266 239
f 239 241 267
f 241 269 267
f 263 270 242
f 263 242 240
f 241 242 270
f 241 270 271
f 241 271 272
f 241 272 273
f 241 273 274
f 241 274 269
f 244 243 267
f 243 268 267
f 243 245 274
f 243 274 268
f 267 269 244
f 269 246 244
f 269 274 245
f 269 245 246
f 275 276 248
f 275 248 247
f 247 249 275
f 249 277 275
f 276 278 250
f 276 250 248
f 249 250 277
f 250 278 277
f 252 251 279
f 251 253 279
f 253 280 279
f 252 279 281
f 252 281 282
f 252 282 283
f 252 283 284
f 252 284 285
f 285 286 254
f 285 254 252
f 280 253 254
f 287 280 254
f 288 287 254
f 289 288 254
f 286 290 254
f 290 289 254
f 285 284 256
f 285 256 255
f 255 257 286
f 255 286 285
f 284 290 256
f 290 258 256
f 257 258 286
f 258 290 286
f 260 259 292
f 259 291 292
f 259 262 291
f 262 293 291
f 292 294 261
f 292 261 260
f 294 293 262
f 294 262 261
f 264 271 270
f 264 270 263
f 265 272 271
f 265 271 264
f 266 273 272
f 266 272 265
f 268 274 273
f 268 273 266
f 295 276 296
f 276 275 296
f 275 277 296
f 277 297 296
f 295 298 278
f 295 278 276
f 297 277 278
f 297 278 298
f 279 280 281
f 280 287 281
f 281 287 282
f 287 288 282
f 282 288 283
f 288 289 283
f 283 289 284
f 289 290 284
f 299 292 291
f 299 291 300
f 291 293 300
f 293 301 300
f 299 302 294
f 299 294 292
f 301 293 302
f 293 294 302
f 303 295 296
f 304 305 295
f 304 295 303
f 305 306 298
f 305 298 295
f 296 297 303
f 297 307 303
f 297 298 307
f 307 298 308
f 298 306 308
f 299 300 309
f 309 310 302
f 309 302 299
f 309 300 304
f 300 305 304
f 300 301 305
f 301 306 305
f 310 301 302
f 308 306 301
f 308 301 310
f 303 307 304
f 307 308 304
f 304 308 310
f 304 310 309
