# Generated by Visualization Toolkit
v 0.01233499962836504 -0.001348000019788742 0.00011899999663000926
v 0.011837000027298927 -0.0009710000013001263 0.008088000118732452
v 0.0015379999531432986 0.001883000019006431 0.00009699999645818025
v 0.013814999721944332 0.0014189999783411622 0.009682999923825264
v 0.01336199976503849 -0.0005029999883845448 0.00011999999696854502
v 0.011837000027298927 -0.0009710000013001263 -0.007899000309407711
v 0.013814999721944332 0.0014189999783411622 -0.00949500035494566
v 0.008715000003576279 0.0003809999907389283 0.016380999237298965
v 0.0035459999926388264 0.0021059999708086252 0.02041500061750412
v -0.008310999721288681 0.004217000212520361 0.004900999832898378
v -0.008345999754965305 0.00443999981507659 0.00009699999645818025
v -0.008538000285625458 0.004472999833524227 0.01424300018697977
v -0.004807000048458576 0.004358000122010708 0.020524000748991966
v 0.008715000003576279 0.0003809999907389283 -0.016193000599741936
v 0.0035459999926388264 0.0021059999708086252 -0.02022700011730194
v -0.008310999721288681 0.004217000212520361 -0.004712000023573637
v -0.008538000285625458 0.004472999833524227 -0.01405400037765503
v -0.004807000048458576 0.004358000122010708 -0.020336000248789787
v 0.013938999734818935 0.0027520000003278255 0.00012099999730708078
v 0.013020000420510769 0.0033889999613165855 0.010359999723732471
v 0.009951000101864338 0.0032369999680668116 0.017396999523043633
v 0.013020000420510769 0.0033889999613165855 -0.010172000154852867
v 0.009951000101864338 0.0032369999680668116 -0.017209000885486603
v 0.0038759999442845583 0.005675999913364649 0.021111000329256058
v -0.010494000278413296 0.0074269999749958515 0.0050409999676048756
v -0.010495999827980995 0.007333000190556049 0.00009699999645818025
v -0.010494000278413296 0.0074269999749958515 -0.004852999933063984
v -0.004530999809503555 0.008251000195741653 0.02126000076532364
v -0.010689999908208847 0.005588000174611807 0.015984000638127327
v -0.010888000018894672 0.008623000234365463 0.009495999664068222
v 0.0038759999442845583 0.005675999913364649 -0.020921999588608742
v -0.010689999908208847 0.005588000174611807 -0.01579499989748001
v -0.004530999809503555 0.008251000195741653 -0.021071000024676323
v -0.010888000018894672 0.008623000234365463 -0.00930699985474348
v 0.01642400026321411 0.009176000021398067 0.0001230000052601099
v 0.015079000033438206 0.008817999623715878 0.010002000257372856
v 0.009173000231385231 0.005617000162601471 0.016964999958872795
v 0.015079000033438206 0.008817999623715878 -0.009813999757170677
v 0.009173000231385231 0.005617000162601471 -0.016776999458670616
v 0.004794999957084656 0.008526000194251537 0.019213000312447548
v -0.008601999841630459 0.012210000306367874 0.006436999887228012
v -0.008210999891161919 0.01209999993443489 0.00009899999713525176
v -0.008601999841630459 0.012210000306367874 -0.006248000077903271
v -0.0035729999653995037 0.010692999698221684 0.02012600004673004
v -0.00801599957048893 0.01100900024175644 0.019036000594496727
v -0.00990500021725893 0.01307000033557415 0.009794999845325947
v 0.004794999957084656 0.008526000194251537 -0.01902499981224537
v -0.00801599957048893 0.01100900024175644 -0.01884699985384941
v -0.0035729999653995037 0.010692999698221684 -0.019937999546527863
v -0.00990500021725893 0.01307000033557415 -0.009607000276446342
v 0.017761999741196632 0.011598999612033367 0.00012399999832268804
v 0.017191000282764435 0.011501999571919441 0.01105399988591671
v 0.010685999877750874 0.010715000331401825 0.01761299930512905
v 0.017191000282764435 0.011501999571919441 -0.010866000317037106
v 0.010685999877750874 0.010715000331401825 -0.01742500066757202
v 0.0069240001030266285 0.012102999724447727 0.019300999119877815
v -0.004978000186383724 0.017549000680446625 0.006647999864071608
v -0.006401999853551388 0.01835699938237667 0.010238000191748142
v -0.004391999915242195 0.01742500066757202 0.00010199999815085903
v -0.004978000186383724 0.017549000680446625 -0.006459999829530716
v -0.006401999853551388 0.01835699938237667 -0.010049000382423401
v -0.0007929999846965075 0.015043999999761581 0.020269999280571938
v -0.004234000109136105 0.016953999176621437 0.020663000643253326
v -0.009464999660849571 0.014766000211238861 0.01715799979865551
v -0.009971000254154205 0.013431999832391739 0.021014999598264694
v -0.007151000201702118 0.01697400026023388 0.025110000744462013
v -0.013143000192940235 0.020035000517964363 0.00381799996830523
v 0.0069240001030266285 0.012102999724447727 -0.019113000482320786
v -0.004234000109136105 0.016953999176621437 -0.02047399990260601
v -0.0007929999846965075 0.015043999999761581 -0.020082000643014908
v -0.009971000254154205 0.013431999832391739 -0.020826999098062515
v -0.009464999660849571 0.014766000211238861 -0.01696999929845333
v -0.007151000201702118 0.01697400026023388 -0.024921000003814697
v -0.013143000192940235 0.020035000517964363 -0.003628999926149845
v 0.018688999116420746 0.01450200006365776 0.0001250000059371814
v 0.017988000065088272 0.014569000340998173 0.011254999786615372
v 0.013074999675154686 0.012635000050067902 0.01863900013267994
v 0.017988000065088272 0.014569000340998173 -0.011067000217735767
v 0.013074999675154686 0.012635000050067902 -0.018449999392032623
v 0.00821600016206503 0.013930999673902988 0.021330999210476875
v -0.003684000112116337 0.022369999438524246 0.008449999615550041
v -0.004672999959439039 0.021460000425577164 0.010985000059008598
v -0.0026209999341517687 0.02133299969136715 0.00010299999848939478
v -0.003684000112116337 0.022369999438524246 -0.008262000046670437
v -0.004672999959439039 0.021460000425577164 -0.01079699955880642
v 0.001917000045068562 0.017224999144673347 0.02235499955713749
v -0.0018279999494552612 0.018439000472426414 0.019971000030636787
v -0.006393999792635441 0.02092299982905388 0.020018000155687332
v -0.013547999784350395 0.022293999791145325 0.02318600006401539
v -0.014325999654829502 0.020270999521017075 0.017255999147892
v -0.014581000432372093 0.01551700010895729 0.02479499951004982
v -0.013357999734580517 0.014636999927461147 0.010611999779939651
v -0.009802999906241894 0.01999799907207489 0.023850999772548676
v -0.014348000288009644 0.017186999320983887 0.02169100008904934
v -0.015696000307798386 0.0170460008084774 0.000097999996796716
v -0.0221950002014637 0.011150999926030636 0.00520200002938509
v -0.018905000761151314 0.024157000705599785 0.00009899999713525176
v -0.012206999585032463 0.0234570000320673 0.007801000028848648
v 0.00821600016206503 0.013930999673902988 -0.021143000572919846
v -0.0018279999494552612 0.018439000472426414 -0.01978199928998947
v 0.001917000045068562 0.017224999144673347 -0.022166000679135323
v -0.006393999792635441 0.02092299982905388 -0.019828999415040016
v -0.014325999654829502 0.020270999521017075 -0.01706700026988983
v -0.013547999784350395 0.022293999791145325 -0.02299799956381321
v -0.014581000432372093 0.01551700010895729 -0.024606000632047653
v -0.013357999734580517 0.014636999927461147 -0.010424000211060047
v -0.014348000288009644 0.017186999320983887 -0.02150299958884716
v -0.009802999906241894 0.01999799907207489 -0.02366200089454651
v -0.0221950002014637 0.011150999926030636 -0.0050130002200603485
v -0.012206999585032463 0.0234570000320673 -0.007612999994307756
v 0.006957999896258116 0.018720999360084534 0.00010299999848939478
v 0.014069000259041786 0.015785999596118927 0.018895000219345093
v 0.008744999766349792 0.01777699962258339 0.022357000038027763
v 0.014069000259041786 0.015785999596118927 -0.018706999719142914
v 0.008744999766349792 0.01777699962258339 -0.022168999537825584
v 0.0017010000301524997 0.01991800032556057 0.022492999210953712
v -0.008914999663829803 0.028862999752163887 0.016070999205112457
v -0.005743000190705061 0.022016000002622604 0.014178000390529633
v -0.009445000439882278 0.0271029993891716 0.010142999701201916
v -0.002337000099942088 0.021547000855207443 0.017187999561429024
v -0.005743000190705061 0.022016000002622604 -0.013989999890327454
v -0.008914999663829803 0.028862999752163887 -0.015883000567555428
v -0.009445000439882278 0.0271029993891716 -0.009955000132322311
v -0.002337000099942088 0.021547000855207443 -0.017000000923871994
v -0.010112999938428402 0.024103999137878418 0.021299000829458237
v -0.008551999926567078 0.025767000392079353 0.01846200041472912
v -0.024017000570893288 0.03711500018835068 0.03212599828839302
v -0.017153000459074974 0.0247809998691082 0.02115599997341633
v -0.011916999705135822 0.0259380005300045 0.021338000893592834
v -0.025462999939918518 0.019026000052690506 0.012718000449240208
v -0.02253199927508831 0.0177800003439188 0.015548000112175941
v -0.02200300060212612 0.027459999546408653 0.02538600005209446
v -0.017129000276327133 0.02421100065112114 0.012755000032484531
v -0.014426999725401402 0.013620000332593918 0.012075000442564487
v -0.0267379991710186 0.016598999500274658 0.017116999253630638
v -0.012640000320971012 0.021330999210476875 0.02637000009417534
v -0.014437999576330185 0.020431000739336014 0.024056000635027885
v -0.013375000096857548 0.02515600062906742 0.024393999949097633
v -0.022415999323129654 0.01522899977862835 0.00009699999645818025
v -0.02233700081706047 0.010439000092446804 0.006787000223994255
v -0.03022100031375885 0.021452000364661217 0.000097999996796716
v -0.020855000242590904 0.022475000470876694 0.005044999998062849
v -0.018417000770568848 0.02033100090920925 0.008383000269532204
v -0.016954999417066574 0.02287299931049347 0.010483000427484512
v -0.020855000242590904 0.022475000470876694 -0.004856000188738108
v -0.018417000770568848 0.02033100090920925 -0.008194999769330025
v -0.016954999417066574 0.02287299931049347 -0.010293999686837196
v -0.012896000407636166 0.024097999557852745 0.011429999954998493
v 0.0017010000301524997 0.01991800032556057 -0.022305000573396683
v -0.010112999938428402 0.024103999137878418 -0.021111000329256058
v -0.008551999926567078 0.025767000392079353 -0.01827399991452694
v -0.02253199927508831 0.0177800003439188 -0.015359999611973763
v -0.025462999939918518 0.019026000052690506 -0.012529999949038029
v -0.017153000459074974 0.0247809998691082 -0.02096799947321415
v -0.02200300060212612 0.027459999546408653 -0.02519799955189228
v -0.017129000276327133 0.02421100065112114 -0.012567000463604927
v -0.024017000570893288 0.03711500018835068 -0.031881000846624374
v -0.011916999705135822 0.0259380005300045 -0.021150000393390656
v -0.014426999725401402 0.013620000332593918 -0.011886999942362309
v -0.0267379991710186 0.016598999500274658 -0.01692800037562847
v -0.014437999576330185 0.020431000739336014 -0.023868000134825706
v -0.012640000320971012 0.021330999210476875 -0.02618199959397316
v -0.013375000096857548 0.02515600062906742 -0.024205999448895454
v -0.02233700081706047 0.010439000092446804 -0.006599000189453363
v -0.012896000407636166 0.024097999557852745 -0.011241000145673752
v -0.029071999713778496 0.03679199889302254 0.02694699913263321
v -0.015405000187456608 0.02637599967420101 0.0139979999512434
v -0.029071999713778496 0.03679199889302254 -0.026701999828219414
v -0.015405000187456608 0.02637599967420101 -0.01380900014191866
v -0.02807600051164627 0.035342998802661896 0.035583000630140305
v -0.03002999909222126 0.034446001052856445 0.02767699956893921
v -0.02814199961721897 0.01836800016462803 0.010342000052332878
v -0.029822999611496925 0.01583000086247921 0.009790999814867973
v -0.028960999101400375 0.012751000002026558 0.016874000430107117
v -0.024647999554872513 0.020168999210000038 0.008932000026106834
v -0.023925000801682472 0.009573999792337418 0.013395000249147415
v -0.02302199974656105 0.013217000290751457 0.005417000036686659
v -0.025381000712513924 0.013648999854922295 0.00009600000339560211
v -0.02302199974656105 0.013217000290751457 -0.0052280002273619175
v -0.028255999088287354 0.022265000268816948 0.004275000188499689
v -0.03938400000333786 0.01713700033724308 0.0000779999973019585
v -0.029569000005722046 0.01954299956560135 0.004160999786108732
v -0.028255999088287354 0.022265000268816948 -0.00408599991351366
v -0.029569000005722046 0.01954299956560135 -0.003973000217229128
v -0.024647999554872513 0.020168999210000038 -0.00874400045722723
v -0.029822999611496925 0.01583000086247921 -0.009602000005543232
v -0.02814199961721897 0.01836800016462803 -0.010153000243008137
v -0.028960999101400375 0.012751000002026558 -0.0166849996894598
v -0.02807600051164627 0.035342998802661896 -0.03533799946308136
v -0.03002999909222126 0.034446001052856445 -0.027432000264525414
v -0.023925000801682472 0.009573999792337418 -0.013206999748945236
v -0.031176000833511353 0.017138000577688217 0.004337000194936991
v -0.031215999275445938 0.015521000139415264 0.005067999940365553
v -0.028046000748872757 0.012679999694228172 0.007722000125795603
v -0.03279399871826172 0.012613000348210335 0.0000940000027185306
v -0.028046000748872757 0.012679999694228172 -0.007534000091254711
v -0.031215999275445938 0.015521000139415264 -0.004879999905824661
v -0.04673299938440323 0.013271999545395374 0.00011999999696854502
v -0.031176000833511353 0.017138000577688217 -0.004149000160396099
v -0.04261799901723862 0.010351999662816525 0.0033539999276399612
v -0.03569300100207329 0.012331999838352203 0.004728000145405531
v -0.04574799910187721 0.0060640000738203526 0.0026459998916834593
v -0.04631499946117401 0.006136000156402588 0.00013800000306218863
v -0.04574799910187721 0.0060640000738203526 -0.002363000065088272
v -0.03569300100207329 0.012331999838352203 -0.004538999870419502
v -0.049557000398635864 0.012041999958455563 0.003389999968931079
v -0.05057699978351593 0.011552000418305397 0.00012700000661425292
v -0.04261799901723862 0.010351999662816525 -0.003071000101044774
v -0.049557000398635864 0.012041999958455563 -0.003106999909505248
v -0.04958299919962883 0.00930199958384037 0.003924999851733446
v -0.04876000061631203 0.007581999991089106 0.00011999999696854502
v -0.04958299919962883 0.00930199958384037 -0.0036410000175237656
f 1 2 3
f 4 2 1
f 4 1 5
f 3 6 1
f 1 6 7
f 5 1 7
f 2 8 3
f 8 2 4
f 8 9 3
f 10 11 3
f 3 12 10
f 13 12 3
f 3 9 13
f 3 14 6
f 3 15 14
f 3 11 16
f 16 17 3
f 3 17 18
f 18 15 3
f 19 20 4
f 19 4 5
f 21 4 20
f 8 4 21
f 5 7 19
f 7 6 14
f 7 22 19
f 22 7 23
f 23 7 14
f 9 8 21
f 9 21 24
f 13 9 24
f 11 10 25
f 12 25 10
f 11 25 26
f 27 16 11
f 26 27 11
f 28 29 12
f 28 12 13
f 12 29 30
f 12 30 25
f 13 24 28
f 23 14 15
f 31 23 15
f 31 15 18
f 16 27 17
f 17 32 33
f 18 17 33
f 34 32 17
f 27 34 17
f 33 31 18
f 35 20 19
f 19 22 35
f 35 36 20
f 37 20 36
f 21 20 37
f 24 21 37
f 22 38 35
f 38 22 39
f 39 22 23
f 39 23 31
f 24 37 40
f 28 24 40
f 41 26 25
f 41 25 30
f 26 41 42
f 42 43 26
f 27 26 43
f 34 27 43
f 28 40 44
f 44 29 28
f 44 45 29
f 30 29 46
f 29 45 46
f 41 30 46
f 47 39 31
f 47 31 33
f 32 48 49
f 33 32 49
f 50 32 34
f 50 48 32
f 49 47 33
f 50 34 43
f 51 36 35
f 35 38 51
f 51 52 36
f 53 36 52
f 37 36 53
f 40 37 53
f 38 54 51
f 54 38 55
f 55 38 39
f 55 39 47
f 40 53 56
f 44 40 56
f 42 41 57
f 41 58 57
f 41 46 58
f 42 57 59
f 60 43 42
f 59 60 42
f 60 61 43
f 61 50 43
f 44 56 62
f 62 45 44
f 62 63 45
f 64 45 65
f 66 65 45
f 66 45 63
f 45 64 46
f 58 46 67
f 67 46 64
f 68 55 47
f 68 47 49
f 48 69 70
f 49 48 70
f 71 48 72
f 48 71 73
f 69 48 73
f 50 72 48
f 70 68 49
f 74 50 61
f 72 50 74
f 75 52 51
f 51 54 75
f 75 76 52
f 77 52 76
f 53 52 77
f 56 53 77
f 54 78 75
f 78 54 79
f 79 54 55
f 79 55 68
f 56 77 80
f 62 56 80
f 59 57 81
f 57 58 82
f 57 82 81
f 67 82 58
f 59 81 83
f 84 60 59
f 83 84 59
f 85 61 60
f 84 85 60
f 61 85 74
f 62 80 86
f 86 63 62
f 86 87 63
f 88 66 63
f 88 63 87
f 89 90 64
f 89 64 91
f 64 65 66
f 64 66 91
f 64 90 92
f 64 92 67
f 66 93 94
f 66 94 91
f 88 93 66
f 95 67 96
f 67 95 97
f 67 97 98
f 92 96 67
f 67 98 82
f 99 79 68
f 99 68 70
f 69 100 101
f 70 69 101
f 69 73 102
f 100 69 102
f 101 99 70
f 73 71 72
f 72 103 104
f 105 72 104
f 105 73 72
f 106 103 72
f 74 106 72
f 107 108 73
f 105 107 73
f 73 108 102
f 109 74 95
f 97 95 74
f 110 97 74
f 74 109 106
f 85 110 74
f 76 75 111
f 111 75 78
f 77 76 112
f 112 76 111
f 113 80 77
f 113 77 112
f 114 78 79
f 111 78 114
f 79 99 115
f 114 79 115
f 116 86 80
f 116 80 113
f 117 118 81
f 81 119 117
f 81 98 119
f 98 81 82
f 83 81 111
f 81 120 111
f 118 120 81
f 111 84 83
f 84 121 122
f 122 123 84
f 123 110 84
f 85 84 110
f 111 124 84
f 84 124 121
f 116 87 86
f 120 88 87
f 116 120 87
f 120 118 88
f 88 125 93
f 125 88 126
f 126 88 118
f 127 128 89
f 128 90 89
f 89 91 125
f 129 89 125
f 127 89 129
f 130 131 90
f 128 132 90
f 90 131 92
f 90 133 130
f 90 132 133
f 91 94 125
f 96 92 134
f 135 134 92
f 135 92 131
f 125 136 93
f 136 94 93
f 136 137 94
f 137 138 94
f 94 138 125
f 95 96 139
f 139 109 95
f 139 96 140
f 96 134 140
f 141 142 97
f 97 142 143
f 97 143 144
f 144 98 97
f 97 145 141
f 146 145 97
f 147 146 97
f 97 110 147
f 144 148 98
f 98 148 119
f 99 101 149
f 115 99 149
f 101 100 149
f 100 102 124
f 100 124 149
f 102 121 124
f 108 150 102
f 151 102 150
f 121 102 151
f 103 152 153
f 104 103 154
f 103 155 154
f 106 152 103
f 153 156 103
f 156 155 103
f 104 154 157
f 150 105 104
f 150 104 158
f 158 104 157
f 150 107 105
f 159 106 109
f 106 159 160
f 152 106 160
f 107 161 162
f 108 107 162
f 107 163 161
f 150 163 107
f 108 162 150
f 164 109 139
f 164 159 109
f 110 165 147
f 123 165 110
f 113 112 111
f 116 113 111
f 120 116 111
f 111 114 115
f 111 115 149
f 111 149 124
f 118 117 126
f 127 126 117
f 166 127 117
f 166 117 167
f 117 148 167
f 148 117 119
f 151 122 121
f 122 151 157
f 122 157 168
f 169 122 168
f 169 165 122
f 123 122 165
f 125 138 136
f 125 126 129
f 127 129 126
f 127 170 128
f 170 127 166
f 128 170 171
f 132 128 171
f 135 131 130
f 130 172 173
f 130 173 174
f 130 174 135
f 172 130 175
f 133 175 130
f 132 171 166
f 132 166 167
f 148 133 132
f 148 132 167
f 144 133 148
f 175 133 143
f 143 133 144
f 135 176 134
f 134 176 140
f 135 174 176
f 136 138 137
f 139 140 177
f 139 177 178
f 179 164 139
f 178 179 139
f 140 176 177
f 180 142 141
f 141 181 182
f 141 182 180
f 141 145 183
f 184 181 141
f 183 184 141
f 180 143 142
f 180 175 143
f 145 146 183
f 146 185 183
f 146 156 185
f 147 156 146
f 165 156 147
f 162 163 150
f 158 151 150
f 151 158 157
f 153 152 160
f 186 187 153
f 188 186 153
f 160 188 153
f 185 153 187
f 153 185 156
f 154 189 157
f 190 189 154
f 190 154 155
f 168 190 155
f 169 168 155
f 155 156 165
f 169 155 165
f 168 157 189
f 159 191 160
f 164 191 159
f 191 188 160
f 161 163 162
f 179 191 164
f 170 166 171
f 190 168 189
f 182 172 175
f 192 173 172
f 192 172 182
f 193 194 173
f 193 173 192
f 194 174 173
f 194 176 174
f 182 175 180
f 177 176 194
f 177 194 193
f 177 193 195
f 178 177 195
f 195 179 178
f 196 191 179
f 197 196 179
f 195 197 179
f 181 198 192
f 181 192 182
f 199 198 181
f 184 199 181
f 183 185 184
f 185 187 184
f 184 187 199
f 187 186 199
f 186 196 197
f 199 186 197
f 186 188 196
f 188 191 196
f 198 200 192
f 201 193 192
f 201 192 200
f 202 195 193
f 202 193 201
f 195 202 203
f 203 204 195
f 197 195 204
f 199 197 205
f 205 197 204
f 198 206 200
f 207 206 198
f 208 209 198
f 199 208 198
f 198 209 207
f 208 199 205
f 202 201 200
f 202 200 210
f 206 210 200
f 203 202 210
f 203 210 211
f 212 204 203
f 211 212 203
f 208 205 204
f 212 208 204
f 211 210 206
f 211 206 207
f 207 209 211
f 208 212 209
f 209 212 211
