# Generated by Visualization Toolkit
v -0.026074999943375587 0.024359000846743584 0.0001500000071246177
v -0.01498399954289198 0.024991000071167946 0.0001500000071246177
v -0.01433899998664856 0.025054000318050385 -0.00418000016361475
v -0.027036000043153763 0.024406999349594116 0.0001500000071246177
v -0.01433899998664856 0.025054000318050385 0.004480000119656324
v -0.02084900066256523 0.010273000225424767 -0.002122000092640519
v -0.015258999541401863 0.02435299940407276 -0.0014850000152364373
v -0.02085000090301037 0.01027199998497963 0.0001500000071246177
v -0.015258999541401863 0.02435299940407276 0.0017859999788925052
v -0.02084900066256523 0.010273000225424767 0.0024220000486820936
v -0.008830999955534935 0.026461999863386154 -0.012190000154078007
v -0.015297999605536461 0.025151999667286873 -0.0049600000493228436
v -0.018223000690340996 0.019943999126553535 -0.011812999844551086
v -0.03042300045490265 0.020222999155521393 -0.005270000081509352
v -0.03782200068235397 0.02192400023341179 -0.003751999931409955
v -0.043338000774383545 0.023083999752998352 -0.003527000080794096
v -0.04304800182580948 0.025104999542236328 0.0001500000071246177
v -0.043338000774383545 0.023083999752998352 0.003828000044450164
v -0.03782200068235397 0.02192400023341179 0.004052999895066023
v -0.03042300045490265 0.020222999155521393 0.005570999812334776
v -0.018223000690340996 0.019943999126553535 0.012113000266253948
v -0.008830999955534935 0.026461999863386154 0.012490999884903431
v -0.015297999605536461 0.025151999667286873 0.005260000005364418
v -0.014427999965846539 0.01435299962759018 -0.009837999939918518
v -0.03121500089764595 0.015192000195384026 -0.006678999867290258
v -0.021126000210642815 0.012848000042140484 -0.012267000041902065
v -0.031220000237226486 0.015186999924480915 0.0001500000071246177
v -0.03121500089764595 0.015192000195384026 0.006978999823331833
v -0.014427999965846539 0.01435299962759018 0.010138999670743942
v -0.021126000210642815 0.012848000042140484 0.012567000463604927
v -0.005251999944448471 0.021226000040769577 -0.012268999591469765
v -0.006271000020205975 0.022071000188589096 -0.0137320002540946
v -0.011272000148892403 0.02345299907028675 -0.022494999691843987
v -0.03720499947667122 0.015901999548077583 -0.005750999785959721
v -0.043866999447345734 0.014779999852180481 -0.00559299997985363
v -0.04797400161623955 0.014879999682307243 -0.005446000024676323
v -0.05066699907183647 0.022665999829769135 -0.004315999802201986
v -0.049267999827861786 0.026760999113321304 0.0001500000071246177
v -0.05066699907183647 0.022665999829769135 0.004616000223904848
v -0.04797400161623955 0.014879999682307243 0.005745999980717897
v -0.043866999447345734 0.014779999852180481 0.0058929999358952045
v -0.03720499947667122 0.015901999548077583 0.006051999982446432
v -0.011272000148892403 0.02345299907028675 0.022791000083088875
v -0.006271000020205975 0.022071000188589096 0.014031999744474888
v -0.005251999944448471 0.021226000040769577 0.012570000253617764
v -0.0025430000387132168 0.014902999624609947 -0.010931000113487244
v -0.006626000162214041 0.01019699964672327 -0.00982499960809946
v -0.0030499999411404133 0.02089500054717064 -0.02105800062417984
v -0.01858700066804886 0.013356000185012817 -0.02268899977207184
v -0.03720900043845177 0.015898000448942184 0.0001500000071246177
v -0.014942999929189682 0.0187780000269413 -0.02417900040745735
v -0.019693000242114067 0.013288999907672405 -0.017400000244379044
v -0.0025430000387132168 0.014902999624609947 0.01123099960386753
v -0.006626000162214041 0.01019699964672327 0.01012600027024746
v -0.0030499999411404133 0.02089500054717064 0.02135399915277958
v -0.01858700066804886 0.013356000185012817 0.022985000163316727
v -0.014942999929189682 0.0187780000269413 0.02447500079870224
v -0.019693000242114067 0.013288999907672405 0.01769999973475933
v 0.0005649999948218465 0.02456899918615818 -0.009891999885439873
v 0.0008069999748840928 0.025961000472307205 -0.010986999608576298
v -0.00203300011344254 0.021619999781250954 -0.013144999742507935
v -0.0006009999779053032 0.021748999133706093 -0.01664699986577034
v -0.00395399983972311 0.0252119991928339 -0.018549999222159386
v -0.008600999601185322 0.024035999551415443 -0.024668000638484955
v -0.0005879999953322113 0.02806900069117546 -0.023900000378489494
v -0.04387100040912628 0.014775999821722507 0.0001500000071246177
v -0.0479779988527298 0.01487599965184927 0.0001500000071246177
v -0.052060000598430634 0.017696000635623932 -0.004209999926388264
v -0.052060000598430634 0.017696000635623932 0.004511000122874975
v -0.008600999601185322 0.024035999551415443 0.024958999827504158
v -0.0005879999953322113 0.02806900069117546 0.024166999384760857
v -0.00395399983972311 0.0252119991928339 0.018844999372959137
v -0.00203300011344254 0.021619999781250954 0.013446000404655933
v -0.0006009999779053032 0.021748999133706093 0.016947999596595764
v 0.0008069999748840928 0.025961000472307205 0.011288000270724297
v 0.0005649999948218465 0.02456899918615818 0.010192999616265297
v -0.0055240001529455185 0.008833000436425209 -0.004100999794900417
v 0.012721000239253044 0.003630999941378832 -0.008542999625205994
v 0.009964000433683395 0.005628000013530254 -0.015003000386059284
v 0.006426999811083078 0.006761999800801277 -0.016757000237703323
v 0.00405499991029501 0.012664999812841415 -0.01839900016784668
v -0.0008420000085607171 0.018942000344395638 -0.018276000395417213
v -0.0028039999306201935 0.026386000216007233 -0.025970999151468277
v -0.0029959999956190586 0.02056100033223629 -0.024241000413894653
v -0.0014149999478831887 0.023886000737547874 -0.02824999950826168
v -0.004459000192582607 0.01598699949681759 -0.030348999425768852
v -0.0015330000314861536 0.017551999539136887 -0.029419999569654465
v 0.0021979999728500843 0.018188999965786934 -0.019548999145627022
v 0.002454000059515238 0.017128000035881996 -0.02309500053524971
v 0.001366000040434301 0.016161000356078148 -0.026796000078320503
v 0.00369199994020164 0.015107999555766582 -0.022306999191641808
v -0.006738999858498573 0.02314399927854538 -0.028665000572800636
v -0.0055240001529455185 0.008833000436425209 0.004401000216603279
v 0.009964000433683395 0.005628000013530254 0.015302999876439571
v 0.012721000239253044 0.003630999941378832 0.008844000287353992
v 0.006426999811083078 0.006761999800801277 0.017057999968528748
v 0.00405499991029501 0.012664999812841415 0.018698999658226967
v -0.0008420000085607171 0.018942000344395638 0.0185759998857975
v -0.0028039999306201935 0.026386000216007233 0.026239000260829926
v -0.0014149999478831887 0.023886000737547874 0.02851800061762333
v -0.0029959999956190586 0.02056100033223629 0.024531999602913857
v -0.004459000192582607 0.01598699949681759 0.0306170005351305
v -0.0015330000314861536 0.017551999539136887 0.029711000621318817
v 0.002454000059515238 0.017128000035881996 0.0233910009264946
v 0.0021979999728500843 0.018187999725341797 0.019511999562382698
v 0.00369199994020164 0.015107999555766582 0.022602999582886696
v 0.001366000040434301 0.016161000356078148 0.02708600088953972
v -0.006738999858498573 0.02314399927854538 0.02895599976181984
v 0.0035039999056607485 0.02807999961078167 -0.01166599988937378
v 0.0028540000785142183 0.02316400036215782 -0.005158999934792519
v 0.004708999767899513 0.026847999542951584 -0.014329000376164913
v 0.001832999987527728 0.0230919998139143 -0.0023900000378489494
v -0.005675000138580799 0.00815299991518259 0.0001500000071246177
v 0.0036410000175237656 0.02622999995946884 -0.015713000670075417
v 0.0036410000175237656 0.02622999995946884 0.016013000160455704
v 0.004708999767899513 0.026847999542951584 0.014630000106990337
v 0.0035039999056607485 0.02807999961078167 0.011966000311076641
v 0.0028540000785142183 0.02316400036215782 0.00546000013127923
v 0.001832999987527728 0.0230919998139143 0.0026910000015050173
v 0.013996000401675701 0.003386999946087599 -0.00216299993917346
v 0.014004000462591648 0.003536999924108386 0.0001500000071246177
v 0.01549299992620945 0.01733499951660633 -0.007528000045567751
v 0.012490999884903431 0.019195999950170517 -0.011725000105798244
v 0.010456999763846397 0.021076999604701996 -0.01334100030362606
v 0.006260000169277191 0.01916000060737133 -0.017268000170588493
v 0.0039160000160336494 0.016419999301433563 -0.022890999913215637
v -0.00018200000340584666 0.0193060003221035 -0.024971000850200653
v -0.001988000003620982 0.01666799932718277 -0.029750000685453415
v 0.0013650000328198075 0.017464999109506607 -0.025902999565005302
v 0.013996000401675701 0.003386999946087599 0.002463999902829528
v 0.01549299992620945 0.01733499951660633 0.007829000242054462
v 0.012490999884903431 0.019195999950170517 0.012024999596178532
v 0.010456999763846397 0.021076999604701996 0.013640999794006348
v 0.006260000169277191 0.01916000060737133 0.017568999901413918
v 0.0039160000160336494 0.016419999301433563 0.02318600006401539
v -0.00018200000340584666 0.0193060003221035 0.02526099979877472
v -0.001988000003620982 0.01666799932718277 0.030017999932169914
v 0.0013650000328198075 0.017464999109506607 0.026194000616669655
v 0.00662099989131093 0.02532299980521202 -0.013435999862849712
v 0.004304000176489353 0.0215000007301569 0.0001500000071246177
v 0.016357000917196274 0.01703299954533577 0.0001500000071246177
v 0.00662099989131093 0.02532299980521202 0.013736000284552574
f 1 2 3
f 3 4 1
f 5 2 1
f 1 4 5
f 6 7 2
f 8 6 2
f 2 7 3
f 2 9 10
f 2 10 8
f 5 9 2
f 11 3 7
f 11 12 3
f 3 13 4
f 13 14 4
f 13 3 12
f 4 15 17
f 15 16 17
f 14 15 4
f 17 18 19
f 17 19 4
f 4 19 20
f 4 20 21
f 4 21 5
f 9 5 22
f 5 23 22
f 23 5 21
f 24 7 6
f 24 6 26
f 6 25 26
f 25 6 27
f 6 8 27
f 11 7 24
f 27 8 10
f 27 10 28
f 29 9 22
f 10 9 29
f 30 28 10
f 30 10 29
f 31 32 11
f 31 11 24
f 11 33 13
f 11 13 12
f 11 32 33
f 14 13 25
f 14 25 34
f 13 26 25
f 13 33 26
f 15 14 34
f 15 34 35
f 15 35 36
f 16 15 36
f 17 16 38
f 16 37 38
f 36 37 16
f 38 39 18
f 38 18 17
f 40 19 18
f 18 39 40
f 40 41 19
f 41 42 19
f 42 20 19
f 42 28 20
f 28 21 20
f 23 21 22
f 21 43 22
f 28 30 21
f 30 43 21
f 29 22 45
f 22 44 45
f 43 44 22
f 31 24 46
f 46 24 47
f 48 47 24
f 48 24 49
f 24 26 49
f 50 34 27
f 34 25 27
f 26 33 51
f 26 51 52
f 26 52 49
f 27 28 42
f 27 42 50
f 53 29 45
f 54 29 53
f 29 54 55
f 56 30 29
f 56 29 55
f 57 43 30
f 58 57 30
f 56 58 30
f 59 60 31
f 59 31 46
f 60 61 31
f 61 32 31
f 62 63 32
f 62 32 61
f 63 33 32
f 33 64 51
f 33 63 64
f 63 65 64
f 66 35 50
f 35 34 50
f 67 36 66
f 36 35 66
f 67 38 36
f 68 36 38
f 68 37 36
f 37 68 38
f 40 38 67
f 38 69 39
f 38 40 69
f 40 39 69
f 66 41 40
f 66 40 67
f 50 42 41
f 50 41 66
f 57 70 43
f 70 71 72
f 70 72 43
f 44 43 72
f 73 44 74
f 44 72 74
f 45 44 73
f 53 45 76
f 45 75 76
f 45 73 75
f 59 46 47
f 59 47 77
f 78 77 79
f 77 47 79
f 79 47 80
f 80 47 81
f 47 48 81
f 82 48 62
f 48 63 62
f 48 65 63
f 48 83 65
f 48 84 83
f 84 85 83
f 48 49 86
f 48 86 87
f 84 48 89
f 48 88 89
f 48 82 88
f 90 91 48
f 91 81 48
f 48 87 90
f 52 51 49
f 51 92 49
f 92 86 49
f 64 92 51
f 54 53 76
f 93 54 76
f 94 54 93
f 94 93 95
f 96 54 94
f 97 54 96
f 97 55 54
f 74 72 55
f 74 55 98
f 72 71 55
f 71 99 55
f 99 100 101
f 99 101 55
f 102 56 55
f 103 102 55
f 104 105 55
f 104 55 101
f 105 98 55
f 55 106 107
f 55 97 106
f 107 103 55
f 56 57 58
f 56 108 57
f 56 102 108
f 57 108 70
f 109 59 110
f 111 60 109
f 60 59 109
f 110 59 112
f 112 59 77
f 112 77 113
f 111 114 60
f 114 61 60
f 114 62 61
f 82 62 114
f 83 64 65
f 92 64 83
f 71 70 99
f 99 70 108
f 75 73 115
f 75 115 116
f 73 74 115
f 115 74 98
f 117 76 75
f 117 75 116
f 118 76 117
f 119 76 118
f 113 93 119
f 93 76 119
f 78 120 77
f 77 120 113
f 113 120 121
f 78 122 120
f 79 123 122
f 79 122 78
f 80 123 79
f 81 124 123
f 81 123 80
f 81 125 124
f 81 91 126
f 81 126 125
f 88 82 114
f 83 85 92
f 127 85 84
f 127 84 89
f 85 128 92
f 127 128 85
f 92 128 86
f 87 86 128
f 126 89 88
f 126 88 125
f 125 88 114
f 129 127 89
f 129 89 126
f 91 90 126
f 90 129 126
f 95 93 130
f 93 113 130
f 121 130 113
f 95 131 94
f 131 132 94
f 94 132 96
f 130 131 95
f 96 132 97
f 132 133 97
f 133 134 97
f 134 135 97
f 135 106 97
f 115 98 105
f 108 100 99
f 101 100 136
f 108 137 100
f 100 137 136
f 104 101 136
f 102 137 108
f 137 102 103
f 134 105 135
f 105 104 135
f 135 104 138
f 104 136 138
f 115 105 134
f 135 138 107
f 135 107 106
f 124 139 110
f 139 109 110
f 139 111 109
f 124 110 123
f 123 110 122
f 110 140 122
f 140 141 122
f 110 112 140
f 125 114 139
f 114 111 139
f 140 112 113
f 113 119 140
f 142 116 115
f 142 115 134
f 117 116 142
f 118 117 142
f 118 142 133
f 132 118 133
f 131 118 132
f 131 141 140
f 131 140 118
f 140 119 118
f 122 141 120
f 141 121 120
f 130 121 141
f 130 141 131
f 124 125 139
f 128 127 129
f 142 134 133
f 138 136 137
