# Generated by Visualization Toolkit
v -0.02306699939072132 0.020431000739336014 0.00014000000373926014
v -0.015304000116884708 0.027309000492095947 0.00014000000373926014
v -0.014662999659776688 0.027408000081777573 -0.0038960000965744257
v -0.024028999730944633 0.02042499929666519 0.00014000000373926014
v -0.014662999659776688 0.027408000081777573 0.004176999907940626
v -0.02040099911391735 0.012276999652385712 -0.0019779999274760485
v -0.015545000322163105 0.026655999943614006 -0.0013849999522790313
v -0.020401999354362488 0.012275000102818012 0.00014000000373926014
v -0.015545000322163105 0.026655999943614006 0.001664999988861382
v -0.020400000736117363 0.012276999652385712 0.002257999964058399
v -0.009278000332415104 0.02997799962759018 -0.011363999918103218
v -0.015625 0.027451999485492706 -0.004623999819159508
v -0.01827700063586235 0.022084999829530716 -0.011012000031769276
v -0.026071999222040176 0.01610800065100193 -0.004912999924272299
v -0.03184400126338005 0.01583000086247921 -0.003498000092804432
v -0.03740999847650528 0.016675999388098717 -0.0032889998983591795
v -0.037223998457193375 0.018711000680923462 0.00014000000373926014
v -0.03740999847650528 0.016675999388098717 0.0035689999349415302
v -0.03184400126338005 0.01583000086247921 0.003777999896556139
v -0.026071999222040176 0.01610800065100193 0.005193000193685293
v -0.01827700063586235 0.022084999829530716 0.011292999610304832
v -0.009278000332415104 0.02997799962759018 0.01164500042796135
v -0.015625 0.027451999485492706 0.004904000088572502
v -0.014201000332832336 0.016714999452233315 -0.009171999990940094
v -0.026629000902175903 0.01156300026923418 -0.006225999910384417
v -0.020810000598430634 0.014832999557256699 -0.011435000225901604
v -0.02663400024175644 0.011556999757885933 0.00014000000373926014
v -0.026629000902175903 0.01156300026923418 0.006506000179797411
v -0.014201000332832336 0.016714999452233315 0.009452000260353088
v -0.020810000598430634 0.014832999557256699 0.01171599980443716
v -0.005394000094383955 0.024101000279188156 -0.01143800001591444
v -0.006496000103652477 0.025738000869750977 -0.012800999917089939
v -0.011518999934196472 0.025985000655055046 -0.021333999931812286
v -0.029201999306678772 0.011838000267744064 -0.005361999850720167
v -0.03576900064945221 0.009816000238060951 -0.00521400012075901
v -0.039817001670598984 0.008503999561071396 -0.00507699977606535
v -0.04362799972295761 0.014254000037908554 -0.004023000132292509
v -0.04244200140237808 0.018424000591039658 0.00014000000373926014
v -0.04362799972295761 0.014254000037908554 0.004304000176489353
v -0.039817001670598984 0.008503999561071396 0.005357000045478344
v -0.03576900064945221 0.009816000238060951 0.005493999924510717
v -0.029201999306678772 0.011838000267744064 0.0056420001201331615
v -0.011518999934196472 0.025985000655055046 0.02161400020122528
v -0.006496000103652477 0.025738000869750977 0.013081000186502934
v -0.005394000094383955 0.024101000279188156 0.011718000285327435
v -0.0023640000727027655 0.017937999218702316 -0.01018999982625246
v -0.006198999937623739 0.013007000088691711 -0.009159999899566174
v -0.0031789999920874834 0.02389499917626381 -0.019971000030636787
v -0.01830199919641018 0.015483999624848366 -0.021517999470233917
v -0.02920600026845932 0.011832999996840954 0.00014000000373926014
v -0.014942999929189682 0.02110699936747551 -0.022931000217795372
v -0.019401999190449715 0.01535400003194809 -0.016220999881625175
v -0.0023640000727027655 0.017937999218702316 0.010470000095665455
v -0.006198999937623739 0.013007000088691711 0.009440000168979168
v -0.0031789999920874834 0.02389499917626381 0.020251000300049782
v -0.01830199919641018 0.015483999624848366 0.02179799973964691
v -0.014942999929189682 0.02110699936747551 0.023211000487208366
v -0.019401999190449715 0.01535400003194809 0.01650100015103817
v 0.0002410000015515834 0.027768999338150024 -0.009221999906003475
v 0.00041000000783242285 0.029172999784350395 -0.010242000222206116
v -0.0022009999956935644 0.02467699907720089 -0.012254999950528145
v -0.0007779999868944287 0.024886000901460648 -0.01551899965852499
v -0.004302999936044216 0.028156999498605728 -0.01759199984371662
v -0.008762000128626823 0.024267999455332756 -0.023228000849485397
v -0.0012450000504031777 0.03000899963080883 -0.02201700024306774
v -0.03577300161123276 0.00981099996715784 0.00014000000373926014
v -0.03982099890708923 0.008500000461935997 0.00014000000373926014
v -0.04404100030660629 0.011083999648690224 -0.003924999851733446
v -0.04404100030660629 0.011083999648690224 0.0042050001211464405
v -0.008882000111043453 0.026717999950051308 0.024080000817775726
v -0.0012450000504031777 0.03000899963080883 0.02226400002837181
v -0.004302999936044216 0.028156999498605728 0.017872000113129616
v -0.0022009999956935644 0.02467699907720089 0.01253500021994114
v -0.0007779999868944287 0.024886000901460648 0.01579900085926056
v 0.00041000000783242285 0.029172999784350395 0.010522999800741673
v 0.0002410000015515834 0.027768999338150024 0.00950200017541647
v -0.005028000101447105 0.011706000193953514 -0.003823000006377697
v 0.013453000225126743 0.007544999942183495 -0.007964000105857849
v 0.010598000138998032 0.00938399974256754 -0.01398599985986948
v 0.007009000051766634 0.010316000320017338 -0.015622000209987164
v 0.0043379999697208405 0.01607700064778328 -0.017152000218629837
v -0.0008740000193938613 0.022068999707698822 -0.017037000507116318
v -0.003370000049471855 0.028209999203681946 -0.023925000801682472
v -0.002988999942317605 0.021143000572919846 -0.022825999185442924
v -0.001854000031016767 0.025798000395298004 -0.02602499909698963
v -0.004482000134885311 0.01776299998164177 -0.027959000319242477
v -0.0013170000165700912 0.01705400086939335 -0.026899000629782677
v 0.0021989999804645777 0.02148899994790554 -0.01822499930858612
v 0.002509000012651086 0.020445000380277634 -0.02190300077199936
v 0.0016469999682158232 0.015845000743865967 -0.02449899911880493
v 0.003848999971523881 0.018497999757528305 -0.02115499973297119
v -0.006839999929070473 0.02311900071799755 -0.026208000257611275
v -0.005028000101447105 0.011706000193953514 0.004102999810129404
v 0.010598000138998032 0.00938399974256754 0.014267000369727612
v 0.013453000225126743 0.007544999942183495 0.008244999684393406
v 0.007009000051766634 0.010316000320017338 0.015901999548077583
v 0.0043379999697208405 0.01607700064778328 0.01743200048804283
v -0.0008740000193938613 0.022068999707698822 0.017317000776529312
v -0.003370000049471855 0.028209999203681946 0.024172000586986542
v -0.001854000031016767 0.025798000395298004 0.026271000504493713
v -0.0031079999171197414 0.023564999923110008 0.02366800047457218
v -0.004482000134885311 0.01776299998164177 0.02820499986410141
v -0.0013170000165700912 0.01705400086939335 0.027163999155163765
v 0.002509000012651086 0.020445000380277634 0.022182999178767204
v 0.0021989999804645777 0.02148899994790554 0.018504999577999115
v 0.003848999971523881 0.018497999757528305 0.021436000242829323
v 0.0016469999682158232 0.015845000743865967 0.02476399950683117
v -0.006839999929070473 0.02311900071799755 0.02647400088608265
v 0.002993999980390072 0.03144200146198273 -0.010874999687075615
v 0.002597999991849065 0.02649500034749508 -0.004809999838471413
v 0.004261000081896782 0.03027999959886074 -0.013357999734580517
v 0.0015820000553503633 0.026365000754594803 -0.002228999976068735
v -0.005142999812960625 0.011018999852240086 0.00014000000373926014
v 0.003226999891921878 0.02960200048983097 -0.01464799977838993
v 0.003226999891921878 0.02960200048983097 0.014928000047802925
v 0.004261000081896782 0.03027999959886074 0.013639000244438648
v 0.002993999980390072 0.03144200146198273 0.011156000196933746
v 0.002597999991849065 0.02649500034749508 0.005090000107884407
v 0.0015820000553503633 0.026365000754594803 0.002509000012651086
v 0.014737999998033047 0.007375000044703484 -0.0020169999916106462
v 0.014739000238478184 0.0075240000151097775 0.00014000000373926014
v 0.015515999868512154 0.021390000358223915 -0.007017999887466431
v 0.012423000298440456 0.023079000413417816 -0.010929999873042107
v 0.01029600016772747 0.024841999635100365 -0.012436999939382076
v 0.00620400020852685 0.02268899977207184 -0.01609800010919571
v 0.004004999995231628 0.01982099935412407 -0.021709000691771507
v -0.00011600000289035961 0.020059000700712204 -0.023513000458478928
v -0.002050000010058284 0.01857900060713291 -0.027406999841332436
v 0.0015800000401213765 0.017131999135017395 -0.02368300035595894
v 0.014737999998033047 0.007375000044703484 0.002297000028192997
v 0.015515999868512154 0.021390000358223915 0.007298000156879425
v 0.012423000298440456 0.023079000413417816 0.011210000142455101
v 0.01029600016772747 0.024841999635100365 0.01271700020879507
v 0.00620400020852685 0.02268899977207184 0.016378000378608704
v 0.004004999995231628 0.01982099935412407 0.021988999098539352
v -0.000058000001445179805 0.018861999735236168 0.023096000775694847
v -0.002050000010058284 0.01857900060713291 0.027652999386191368
v 0.0015800000401213765 0.017131999135017395 0.023948999121785164
v 0.006248000077903271 0.02886500023305416 -0.012524999678134918
v 0.004131999798119068 0.02491600066423416 0.00014000000373926014
v 0.01639300025999546 0.02113799937069416 0.00014000000373926014
v 0.006248000077903271 0.02886500023305416 0.012804999947547913
f 1 2 3
f 3 4 1
f 5 2 1
f 1 4 5
f 6 7 2
f 8 6 2
f 2 7 3
f 2 9 10
f 2 10 8
f 5 9 2
f 11 3 7
f 11 12 3
f 3 13 4
f 13 14 4
f 13 3 12
f 4 15 17
f 15 16 17
f 14 15 4
f 17 18 19
f 17 19 4
f 4 19 20
f 4 20 21
f 4 21 5
f 9 5 22
f 5 23 22
f 23 5 21
f 24 7 6
f 24 6 26
f 6 25 26
f 25 6 27
f 6 8 27
f 11 7 24
f 27 8 10
f 27 10 28
f 29 9 22
f 10 9 29
f 30 28 10
f 30 10 29
f 31 32 11
f 31 11 24
f 11 33 13
f 11 13 12
f 11 32 33
f 14 13 25
f 14 25 34
f 13 26 25
f 13 33 26
f 15 14 34
f 15 34 35
f 15 35 36
f 16 15 36
f 17 16 38
f 16 37 38
f 36 37 16
f 38 39 18
f 38 18 17
f 40 19 18
f 18 39 40
f 40 41 19
f 41 42 19
f 42 20 19
f 42 28 20
f 28 21 20
f 23 21 22
f 21 43 22
f 28 30 21
f 30 43 21
f 29 22 45
f 22 44 45
f 43 44 22
f 31 24 46
f 46 24 47
f 48 47 24
f 48 24 49
f 24 26 49
f 50 34 27
f 34 25 27
f 26 33 51
f 26 51 52
f 26 52 49
f 27 28 42
f 27 42 50
f 53 29 45
f 54 29 53
f 29 54 55
f 56 30 29
f 56 29 55
f 57 43 30
f 58 57 30
f 56 58 30
f 59 60 31
f 59 31 46
f 60 61 31
f 61 32 31
f 62 63 32
f 62 32 61
f 63 33 32
f 33 64 51
f 33 63 64
f 63 65 64
f 66 35 50
f 35 34 50
f 67 36 66
f 36 35 66
f 67 38 36
f 68 36 38
f 68 37 36
f 37 68 38
f 40 38 67
f 38 69 39
f 38 40 69
f 40 39 69
f 66 41 40
f 66 40 67
f 50 42 41
f 50 41 66
f 57 70 43
f 70 71 72
f 70 72 43
f 44 43 72
f 73 44 74
f 44 72 74
f 45 44 73
f 53 45 76
f 45 75 76
f 45 73 75
f 59 46 47
f 59 47 77
f 78 77 79
f 77 47 79
f 79 47 80
f 80 47 81
f 47 48 81
f 82 48 62
f 48 63 62
f 48 65 63
f 48 83 65
f 48 84 85
f 48 85 83
f 48 49 86
f 48 86 87
f 84 48 89
f 48 88 89
f 48 82 88
f 90 91 48
f 91 81 48
f 48 87 90
f 52 51 49
f 51 92 49
f 92 86 49
f 64 92 51
f 54 53 76
f 93 54 76
f 94 54 93
f 94 93 95
f 96 54 94
f 97 54 96
f 97 55 54
f 74 72 55
f 74 55 98
f 72 71 55
f 71 99 55
f 99 100 101
f 99 101 55
f 102 56 55
f 103 102 55
f 104 105 55
f 104 55 101
f 105 98 55
f 55 106 107
f 55 97 106
f 107 103 55
f 56 57 58
f 56 108 57
f 56 102 108
f 57 108 70
f 109 59 110
f 111 60 109
f 60 59 109
f 110 59 112
f 112 59 77
f 112 77 113
f 111 114 60
f 114 61 60
f 114 62 61
f 82 62 114
f 83 64 65
f 92 64 83
f 71 70 99
f 99 70 108
f 75 73 115
f 75 115 116
f 73 74 115
f 115 74 98
f 117 76 75
f 117 75 116
f 118 76 117
f 119 76 118
f 113 93 119
f 93 76 119
f 78 120 77
f 77 120 113
f 121 113 120
f 78 122 120
f 79 123 122
f 79 122 78
f 80 123 79
f 81 124 123
f 81 123 80
f 81 125 124
f 81 91 126
f 81 126 125
f 88 82 114
f 83 85 92
f 127 85 84
f 127 84 89
f 85 128 92
f 127 128 85
f 92 128 86
f 87 86 128
f 90 87 129
f 87 128 129
f 126 89 88
f 126 88 125
f 125 88 114
f 129 127 89
f 129 89 126
f 91 90 129
f 91 129 126
f 95 93 130
f 93 113 130
f 121 130 113
f 95 131 94
f 131 132 94
f 94 132 96
f 130 131 95
f 96 132 97
f 132 133 97
f 133 134 97
f 134 135 97
f 135 106 97
f 115 98 105
f 108 100 99
f 101 100 136
f 108 137 100
f 100 137 136
f 104 101 136
f 102 137 108
f 137 102 103
f 138 137 103
f 138 103 107
f 134 105 135
f 105 104 135
f 135 104 138
f 104 136 138
f 115 105 134
f 135 138 106
f 138 107 106
f 124 139 110
f 139 109 110
f 139 111 109
f 124 110 123
f 123 110 122
f 110 140 122
f 140 141 122
f 110 112 140
f 125 114 139
f 114 111 139
f 140 112 113
f 113 119 140
f 142 116 115
f 142 115 134
f 117 116 142
f 118 117 142
f 118 142 133
f 132 118 133
f 131 118 132
f 131 141 140
f 131 140 118
f 140 119 118
f 122 141 120
f 141 121 120
f 130 121 141
f 130 141 131
f 124 125 139
f 128 127 129
f 142 134 133
f 138 136 137
