# Generated by Visualization Toolkit
v -0.019494999200105667 0.041165001690387726 0.0001500000071246177
v -0.00839299988001585 0.04151799902319908 0.0001500000071246177
v -0.007745999842882156 0.041565001010894775 -0.00418000016361475
v -0.020455999299883842 0.04123799875378609 0.0001500000071246177
v -0.007745999842882156 0.041565001010894775 0.004480000119656324
v -0.014592000283300877 0.02695400081574917 -0.002122000092640519
v -0.008682000450789928 0.04088699817657471 -0.0014850000152364373
v -0.014593999832868576 0.026952000334858894 0.0001500000071246177
v -0.008682000450789928 0.04088699817657471 0.0017859999788925052
v -0.014592000283300877 0.02695400081574917 0.0024220000486820936
v -0.0022060000337660313 0.04283300042152405 -0.012190000154078007
v -0.008702999912202358 0.04168599843978882 -0.0049600000493228436
v -0.011745999567210674 0.03655499964952469 -0.011812999844551086
v -0.023938000202178955 0.037140000611543655 -0.005270000081509352
v -0.03129599988460541 0.039028000086545944 -0.003751999931409955
v -0.03678499907255173 0.04032599925994873 -0.003527000080794096
v -0.036448001861572266 0.04233900085091591 0.0001500000071246177
v -0.03678499907255173 0.04032599925994873 0.003828000044450164
v -0.03129599988460541 0.039028000086545944 0.004052999895066023
v -0.023938000202178955 0.037140000611543655 0.005570999812334776
v -0.011745999567210674 0.03655499964952469 0.012113000266253948
v -0.0022060000337660313 0.04283300042152405 0.012490999884903431
v -0.008702999912202358 0.04168599843978882 0.005260000005364418
v -0.008078999817371368 0.030869999900460243 -0.009837999939918518
v -0.02484400011599064 0.032131001353263855 -0.006678999867290258
v -0.014809999614953995 0.029534999281167984 -0.012267000041902065
v -0.024848999455571175 0.03212700039148331 0.0001500000071246177
v -0.02484400011599064 0.032131001353263855 0.006978999823331833
v -0.008078999817371368 0.030869999900460243 0.010138999670743942
v -0.014809999614953995 0.029534999281167984 0.012567000463604927
v 0.0012519999872893095 0.03751000016927719 -0.012268999591469765
v 0.0002530000056140125 0.0383789986371994 -0.0137320002540946
v -0.0047160000540316105 0.03988799825310707 -0.022884000092744827
v -0.030817000195384026 0.03299200162291527 -0.005750999785959721
v -0.03750300034880638 0.03203900158405304 -0.00559299997985363
v -0.04160799831151962 0.032242000102996826 -0.005446000024676323
v -0.044123001396656036 0.04009300097823143 -0.004315999802201986
v -0.04262999817728996 0.044151000678539276 0.0001500000071246177
v -0.044123001396656036 0.04009300097823143 0.004616000223904848
v -0.04160799831151962 0.032242000102996826 0.005745999980717897
v -0.03750300034880638 0.03203900158405304 0.0058929999358952045
v -0.030817000195384026 0.03299200162291527 0.006051999982446432
v -0.0047160000540316105 0.03988799825310707 0.02318499982357025
v 0.0002530000056140125 0.0383789986371994 0.014031999744474888
v 0.0012519999872893095 0.03751000016927719 0.012570000253617764
v 0.0038169999606907368 0.031120000407099724 -0.010931000113487244
v -0.00037399999564513564 0.026520000770688057 -0.00982499960809946
v 0.0034459999296814203 0.037122998386621475 -0.02142300084233284
v -0.012261000461876392 0.029978999868035316 -0.023081999272108078
v -0.030820999294519424 0.03298800066113472 0.0001500000071246177
v -0.008492999710142612 0.035307999700307846 -0.024598000571131706
v -0.013368000276386738 0.02993899956345558 -0.017400000244379044
v 0.0038169999606907368 0.031120000407099724 0.01123099960386753
v -0.00037399999564513564 0.026520000770688057 0.01012600027024746
v 0.0034459999296814203 0.037122998386621475 0.021724000573158264
v -0.012261000461876392 0.029978999868035316 0.02338300086557865
v -0.008492999710142612 0.035307999700307846 0.024898000061511993
v -0.013368000276386738 0.02993899956345558 0.01769999973475933
v 0.007145000156015158 0.04070400074124336 -0.009891999885439873
v 0.007418000139296055 0.042089998722076416 -0.010986999608576298
v 0.004480000119656324 0.03782200068235397 -0.013144999742507935
v 0.005913999862968922 0.03791499882936478 -0.01664699986577034
v 0.0026420000940561295 0.0414620004594326 -0.018869999796152115
v -0.002032000105828047 0.04040300101041794 -0.025529999285936356
v 0.005963999778032303 0.04837999865412712 -0.02682800032198429
v -0.03750700131058693 0.03203500062227249 0.0001500000071246177
v -0.04161199927330017 0.03223799914121628 0.0001500000071246177
v -0.04562800005078316 0.03516000136733055 -0.004209999926388264
v -0.04562800005078316 0.03516000136733055 0.004511000122874975
v -0.002032000105828047 0.04040300101041794 0.025830000638961792
v 0.005963999778032303 0.04837999865412712 0.027129000052809715
v 0.0026420000940561295 0.0414620004594326 0.01917099952697754
v 0.004480000119656324 0.03782200068235397 0.013446000404655933
v 0.005913999862968922 0.03791499882936478 0.016947999596595764
v 0.007418000139296055 0.042089998722076416 0.011288000270724297
v 0.007145000156015158 0.04070400074124336 0.010192999616265297
v 0.0006970000104047358 0.025127999484539032 -0.004100999794900417
v 0.01881900057196617 0.019468000158667564 -0.008542999625205994
v 0.016109000891447067 0.021534999832510948 -0.015003000386059284
v 0.01259899977594614 0.022756999358534813 -0.016757000237703323
v 0.010362000204622746 0.028717000037431717 -0.01839900016784668
v 0.005609000101685524 0.03511499986052513 -0.018276000395417213
v 0.003711000084877014 0.046730998903512955 -0.02915400080382824
v 0.003493000054731965 0.036789000034332275 -0.02508700080215931
v 0.005042999982833862 0.04416099935770035 -0.03171199932694435
v 0.0018220000201836228 0.03623199835419655 -0.03406799957156181
v 0.0048870001919567585 0.033743999898433685 -0.03044700063765049
v 0.00863100029528141 0.034285999834537506 -0.019548999145627022
v 0.008863000199198723 0.033218998461961746 -0.02349499985575676
v 0.007753000129014254 0.032280001789331436 -0.027730999514460564
v 0.010054999962449074 0.031168999150395393 -0.022693000733852386
v -0.00019099999917671084 0.03946499899029732 -0.029665999114513397
v 0.0006970000104047358 0.025127999484539032 0.004401000216603279
v 0.016109000891447067 0.021534999832510948 0.015302999876439571
v 0.01881900057196617 0.019468000158667564 0.008844000287353992
v 0.01259899977594614 0.022756999358534813 0.017057999968528748
v 0.010362000204622746 0.028717000037431717 0.018698999658226967
v 0.005609000101685524 0.03511499986052513 0.0185759998857975
v 0.003711000084877014 0.046730998903512955 0.029454000294208527
v 0.005042999982833862 0.04416099935770035 0.03201200067996979
v 0.003493000054731965 0.036789000034332275 0.025388000532984734
v 0.0018220000201836228 0.03623199835419655 0.03436899930238724
v 0.0048870001919567585 0.033743999898433685 0.030748000368475914
v 0.008863000199198723 0.033218998461961746 0.023795999586582184
v 0.00863100029528141 0.034285999834537506 0.019850000739097595
v 0.010054999962449074 0.031168999150395393 0.02299400046467781
v 0.007753000129014254 0.032280001789331436 0.028031999245285988
v -0.00019099999917671084 0.03946499899029732 0.02996700070798397
v 0.010162999853491783 0.04413999989628792 -0.01166599988937378
v 0.00940100010484457 0.03924199938774109 -0.005158999934792519
v 0.011339999735355377 0.04287799820303917 -0.014329000376164913
v 0.008377999998629093 0.03919599950313568 -0.0023900000378489494
v 0.0005310000269673765 0.024452000856399536 0.0001500000071246177
v 0.01025800034403801 0.04228699952363968 -0.015713000670075417
v 0.01025800034403801 0.04228699952363968 0.016013000160455704
v 0.011339999735355377 0.04287799820303917 0.014630000106990337
v 0.010162999853491783 0.04413999989628792 0.011966000311076641
v 0.00940100010484457 0.03924199938774109 0.00546000013127923
v 0.008377999998629093 0.03919599950313568 0.0026910000015050173
v 0.020089000463485718 0.019192999228835106 -0.00216299993917346
v 0.020100999623537064 0.019341999664902687 0.0001500000071246177
v 0.021904999390244484 0.03309699892997742 -0.007528000045567751
v 0.018945999443531036 0.03503299877047539 -0.011725000105798244
v 0.016954999417066574 0.03696399927139282 -0.01334100030362606
v 0.012714999727904797 0.03515399992465973 -0.017268000170588493
v 0.010308999568223953 0.03247499838471413 -0.023287000134587288
v 0.0062779998406767845 0.03546399995684624 -0.025841999799013138
v 0.004308000206947327 0.03685799986124039 -0.03339599817991257
v 0.007782000117003918 0.033583998680114746 -0.02680799923837185
v 0.020089000463485718 0.019192999228835106 0.002463999902829528
v 0.021904999390244484 0.03309699892997742 0.007829000242054462
v 0.018945999443531036 0.03503299877047539 0.012024999596178532
v 0.016954999417066574 0.03696399927139282 0.013640999794006348
v 0.012714999727904797 0.03515399992465973 0.017568999901413918
v 0.010308999568223953 0.03247499838471413 0.023586999624967575
v 0.0062779998406767845 0.03546399995684624 0.026142999529838562
v 0.004308000206947327 0.03685799986124039 0.033695999532938004
v 0.007782000117003918 0.033583998680114746 0.027108000591397285
v 0.013217000290751457 0.04130500182509422 -0.013435999862849712
v 0.010812999680638313 0.03754200041294098 0.0001500000071246177
v 0.022762000560760498 0.032774001359939575 0.0001500000071246177
v 0.013217000290751457 0.04130500182509422 0.013736000284552574
f 1 2 3
f 3 4 1
f 5 2 1
f 1 4 5
f 6 7 2
f 8 6 2
f 2 7 3
f 2 9 10
f 2 10 8
f 5 9 2
f 11 3 7
f 11 12 3
f 3 13 4
f 13 14 4
f 13 3 12
f 4 15 17
f 15 16 17
f 14 15 4
f 17 18 19
f 17 19 4
f 4 19 20
f 4 20 21
f 4 21 5
f 9 5 22
f 5 23 22
f 23 5 21
f 24 7 6
f 24 6 26
f 6 25 26
f 25 6 27
f 6 8 27
f 11 7 24
f 27 8 10
f 27 10 28
f 29 9 22
f 10 9 29
f 30 28 10
f 30 10 29
f 31 32 11
f 31 11 24
f 11 33 13
f 11 13 12
f 11 32 33
f 14 13 25
f 14 25 34
f 13 26 25
f 13 33 26
f 15 14 34
f 15 34 35
f 15 35 36
f 16 15 36
f 17 16 38
f 16 37 38
f 36 37 16
f 38 39 18
f 38 18 17
f 40 19 18
f 18 39 40
f 40 41 19
f 41 42 19
f 42 20 19
f 42 28 20
f 28 21 20
f 23 21 22
f 21 43 22
f 28 30 21
f 30 43 21
f 29 22 45
f 22 44 45
f 43 44 22
f 31 24 46
f 46 24 47
f 48 47 24
f 48 24 49
f 24 26 49
f 50 34 27
f 34 25 27
f 26 33 51
f 26 51 52
f 26 52 49
f 27 28 42
f 27 42 50
f 53 29 45
f 54 29 53
f 29 54 55
f 56 30 29
f 56 29 55
f 57 43 30
f 58 57 30
f 56 58 30
f 59 60 31
f 59 31 46
f 60 61 31
f 61 32 31
f 62 63 32
f 62 32 61
f 63 33 32
f 33 64 51
f 33 63 64
f 63 65 64
f 66 35 50
f 35 34 50
f 67 36 66
f 36 35 66
f 67 38 36
f 68 36 38
f 68 37 36
f 37 68 38
f 40 38 67
f 38 69 39
f 38 40 69
f 40 39 69
f 66 41 40
f 66 40 67
f 50 42 41
f 50 41 66
f 57 70 43
f 70 71 72
f 70 72 43
f 44 43 72
f 73 44 74
f 44 72 74
f 45 44 73
f 53 45 76
f 45 75 76
f 45 73 75
f 59 46 47
f 59 47 77
f 78 77 79
f 77 47 79
f 79 47 80
f 80 47 81
f 47 48 81
f 82 48 62
f 48 63 62
f 48 65 63
f 48 83 65
f 48 84 83
f 84 85 83
f 48 49 86
f 48 86 87
f 84 48 89
f 48 88 89
f 48 82 88
f 90 91 48
f 91 81 48
f 48 87 90
f 52 51 49
f 51 92 49
f 92 86 49
f 64 92 51
f 54 53 76
f 93 54 76
f 94 54 93
f 94 93 95
f 96 54 94
f 97 54 96
f 97 55 54
f 74 72 55
f 74 55 98
f 72 71 55
f 71 99 55
f 99 100 101
f 99 101 55
f 102 56 55
f 103 102 55
f 104 105 55
f 104 55 101
f 105 98 55
f 55 106 107
f 55 97 106
f 107 103 55
f 56 57 58
f 56 108 57
f 56 102 108
f 57 108 70
f 109 59 110
f 111 60 109
f 60 59 109
f 110 59 112
f 112 59 77
f 112 77 113
f 111 114 60
f 114 61 60
f 114 62 61
f 82 62 114
f 83 64 65
f 92 64 83
f 71 70 99
f 99 70 108
f 75 73 115
f 75 115 116
f 73 74 115
f 115 74 98
f 117 76 75
f 117 75 116
f 118 76 117
f 119 76 118
f 113 93 119
f 93 76 119
f 78 120 77
f 77 120 113
f 121 113 120
f 78 122 120
f 79 123 122
f 79 122 78
f 80 123 79
f 81 124 123
f 81 123 80
f 81 125 124
f 81 91 126
f 81 126 125
f 88 82 114
f 83 85 92
f 127 85 84
f 127 84 89
f 85 128 92
f 127 128 85
f 92 128 86
f 87 86 128
f 90 87 129
f 87 128 129
f 126 89 88
f 126 88 125
f 125 88 114
f 129 127 89
f 129 89 126
f 91 90 126
f 90 129 126
f 95 93 130
f 93 113 130
f 121 130 113
f 95 131 94
f 131 132 94
f 94 132 96
f 130 131 95
f 96 132 97
f 132 133 97
f 133 134 97
f 134 135 97
f 135 106 97
f 115 98 105
f 108 100 99
f 101 100 136
f 108 137 100
f 100 137 136
f 104 101 136
f 102 137 108
f 137 102 103
f 138 137 103
f 138 103 107
f 134 105 135
f 105 104 135
f 135 104 138
f 104 136 138
f 115 105 134
f 135 138 107
f 135 107 106
f 124 139 110
f 139 109 110
f 139 111 109
f 124 110 123
f 123 110 122
f 110 140 122
f 140 141 122
f 110 112 140
f 125 114 139
f 114 111 139
f 140 112 113
f 113 119 140
f 142 116 115
f 142 115 134
f 117 116 142
f 118 117 142
f 118 142 133
f 132 118 133
f 131 118 132
f 131 141 140
f 131 140 118
f 140 119 118
f 122 141 120
f 141 121 120
f 130 121 141
f 130 141 131
f 124 125 139
f 128 127 129
f 142 134 133
f 138 136 137
