# Generated by Visualization Toolkit
v -0.024987999349832535 0.01575000025331974 0.00012799999967683107
v -0.019077999517321587 0.024423999711871147 0.00012799999967683107
v -0.018480999395251274 0.024685999378561974 -0.003561000106856227
v -0.025918999686837196 0.015496999956667423 0.00012799999967683107
v -0.018480999395251274 0.024685999378561974 0.0038169999606907368
v -0.02050199918448925 0.008520999923348427 -0.0018080000299960375
v -0.019159000366926193 0.02372800000011921 -0.0012649999698624015
v -0.020502999424934387 0.008519000373780727 0.00012799999967683107
v -0.019159000366926193 0.02372800000011921 0.0015219999477267265
v -0.02050199918448925 0.008520999923348427 0.0020639998838305473
v -0.013867000117897987 0.02856599912047386 -0.010386000387370586
v -0.019423000514507294 0.024480000138282776 -0.004224999807775021
v -0.020736999809741974 0.018588000908493996 -0.010064000263810158
v -0.026889000087976456 0.0107810003682971 -0.004490000195801258
v -0.032412998378276825 0.00902399979531765 -0.0031969998963177204
v -0.03799999877810478 0.008413000032305717 -0.003005000064149499
v -0.03829500079154968 0.010436000302433968 0.00012799999967683107
v -0.03799999877810478 0.008413000032305717 0.003260999917984009
v -0.032412998378276825 0.00902399979531765 0.003452999982982874
v -0.026889000087976456 0.0107810003682971 0.004745999816805124
v -0.020736999809741974 0.018588000908493996 0.010320000350475311
v -0.013867000117897987 0.02856599912047386 0.010641999542713165
v -0.019423000514507294 0.024480000138282776 0.004482000134885311
v -0.015534999780356884 0.014425000175833702 -0.008382000029087067
v -0.02636599913239479 0.006225000135600567 -0.005690000019967556
v -0.021494999527931213 0.010897000320255756 -0.010451000183820724
v -0.02637000009417534 0.006219000089913607 0.00012799999967683107
v -0.02636599913239479 0.006225000135600567 0.0059460001066327095
v -0.015534999780356884 0.014425000175833702 0.00863800011575222
v -0.021494999527931213 0.010897000320255756 0.010707000270485878
v -0.008732999674975872 0.023861000314354897 -0.010452999733388424
v -0.010181999765336514 0.025165999308228493 -0.011699000373482704
v -0.015104000456631184 0.024112999439239502 -0.01949699968099594
v -0.028922000899910927 0.005830000154674053 -0.004900000058114529
v -0.03480900079011917 0.002176000038161874 -0.004765000194311142
v -0.03842199966311455 -0.00013899999612476677 -0.004639000166207552
v -0.04345500096678734 0.004461999982595444 -0.0036770000588148832
v -0.04328000172972679 0.008813999593257904 0.00012799999967683107
v -0.04345500096678734 0.004461999982595444 0.003932999912649393
v -0.03842199966311455 -0.00013899999612476677 0.004896000027656555
v -0.03480900079011917 0.002176000038161874 0.005020999815315008
v -0.028922000899910927 0.005830000154674053 0.005156000144779682
v -0.015104000456631184 0.024112999439239502 0.019752999767661095
v -0.010181999765336514 0.025165999308228493 0.011955000460147858
v -0.008732999674975872 0.023861000314354897 0.010708999820053577
v -0.004360000137239695 0.018658999353647232 -0.009312000125646591
v -0.006920999847352505 0.012885999865829945 -0.008371000178158283
v -0.006539999973028898 0.024230999872088432 -0.018250999972224236
v -0.01921899989247322 0.01217500027269125 -0.019664999097585678
v -0.02892499975860119 0.005824000108987093 0.00012799999967683107
v -0.01727999933063984 0.018496999517083168 -0.020956000313162804
v -0.020253999158740044 0.011765999719500542 -0.01482400018721819
v -0.004360000137239695 0.018658999353647232 0.009569000452756882
v -0.006920999847352505 0.012885999865829945 0.008627000264823437
v -0.006539999973028898 0.024230999872088432 0.018508000299334526
v -0.01921899989247322 0.01217500027269125 0.01992099918425083
v -0.01727999933063984 0.018496999517083168 0.021212000399827957
v -0.020253999158740044 0.011765999719500542 0.015080000273883343
v -0.004133000038564205 0.02887200005352497 -0.008427999913692474
v -0.004298000130802393 0.030278999358415604 -0.009359999559819698
v -0.0057760002091526985 0.025242000818252563 -0.011199000291526318
v -0.004447000101208687 0.025812000036239624 -0.014182999730110168
v -0.008623999543488026 0.028077999129891396 -0.01607700064778328
v -0.012442000210285187 0.019770000129938126 -0.020771000534296036
v -0.0073009999468922615 0.029854999855160713 -0.02182699926197529
v -0.034811001271009445 0.002171000000089407 0.00012799999967683107
v -0.03842499852180481 -0.00014400000509340316 0.00012799999967683107
v -0.04311399906873703 0.0012789999600499868 -0.003587000072002411
v -0.04311399906873703 0.0012789999600499868 0.0038429999258369207
v -0.012442000210285187 0.019770000129938126 0.021014999598264694
v -0.0073009999468922615 0.029854999855160713 0.022072000429034233
v -0.008623999543488026 0.028077999129891396 0.016333000734448433
v -0.0057760002091526985 0.025242000818252563 0.011455000378191471
v -0.004447000101208687 0.025812000036239624 0.014438999816775322
v -0.004298000130802393 0.030278999358415604 0.009616999886929989
v -0.004133000038564205 0.02887200005352497 0.008684000000357628
v -0.005483999848365784 0.01192499976605177 -0.0034940000623464584
v 0.013384000398218632 0.012643000110983849 -0.007278999779373407
v 0.01018999982625246 0.013693000189960003 -0.012782000005245209
v 0.006496999878436327 0.013673000037670135 -0.014276999980211258
v 0.002563999965786934 0.018578000366687775 -0.015675000846385956
v -0.0038819999899715185 0.023051999509334564 -0.015569999814033508
v -0.008932000026106834 0.02757200039923191 -0.023718999698758125
v -0.006115000229328871 0.01822800002992153 -0.020410999655723572
v -0.006889999844133854 0.025615999475121498 -0.025800000876188278
v -0.007526999805122614 0.0171549990773201 -0.02771800011396408
v -0.003869999898597598 0.015850000083446503 -0.024771999567747116
v -0.000770999991800636 0.023281000554561615 -0.016654999926686287
v -0.00022699999681208283 0.022345999255776405 -0.020016999915242195
v -0.0007140000234358013 0.015433999709784985 -0.022562000900506973
v 0.0015259999781847 0.02080100029706955 -0.01933399960398674
v -0.010653000324964523 0.020306000486016273 -0.024135999381542206
v -0.005483999848365784 0.01192499976605177 0.0037499999161809683
v 0.01018999982625246 0.013693000189960003 0.013038000091910362
v 0.013384000398218632 0.012643000110983849 0.007534999866038561
v 0.006496999878436327 0.013673000037670135 0.014533000066876411
v 0.002563999965786934 0.018578000366687775 0.01593099907040596
v -0.0038819999899715185 0.023051999509334564 0.015825999900698662
v -0.008932000026106834 0.02757200039923191 0.02396400086581707
v -0.006889999844133854 0.025615999475121498 0.026045000180602074
v -0.006115000229328871 0.01822800002992153 0.020656000822782516
v -0.007526999805122614 0.0171549990773201 0.02796199917793274
v -0.003869999898597598 0.015850000083446503 0.025016000494360924
v 0.000050999999075429514 0.016676999628543854 0.019360000267624855
v -0.000770999991800636 0.023281000554561615 0.01691100001335144
v 0.0018019999843090773 0.015159999951720238 0.018706999719142914
v -0.0007140000234358013 0.015433999709784985 0.02280599996447563
v -0.010653000324964523 0.020306000486016273 0.024380000308156013
v -0.002326000016182661 0.033146001398563385 -0.009939000010490417
v -0.0015539999585598707 0.02824299968779087 -0.004395999945700169
v -0.0008280000183731318 0.03234399855136871 -0.0122079998254776
v -0.002506999997422099 0.027854999527335167 -0.00203699991106987
v -0.0054350001737475395 0.011227999813854694 0.00012799999967683107
v -0.0016710000345483422 0.03141999989748001 -0.013387000188231468
v -0.0016710000345483422 0.03141999989748001 0.013643000274896622
v -0.0008280000183731318 0.03234399855136871 0.012463999912142754
v -0.002326000016182661 0.033146001398563385 0.010195000097155571
v -0.0015539999585598707 0.02824299968779087 0.004652000032365322
v -0.002506999997422099 0.027854999527335167 0.0022929999977350235
v 0.014667999930679798 0.012807999737560749 -0.00184299994725734
v 0.01463400013744831 0.012953000143170357 0.00012799999967683107
v 0.012147000059485435 0.026612000539898872 -0.006413999944925308
v 0.00875800009816885 0.027456000447273254 -0.009988999925553799
v 0.0062859999015927315 0.02861900068819523 -0.011366000398993492
v 0.002827000105753541 0.025475999340415 -0.014712000265717506
v 0.0013680000556632876 0.022126000374555588 -0.019838999956846237
v -0.003077999921515584 0.017914000898599625 -0.021025000140070915
v -0.005365000106394291 0.01856200024485588 -0.027170000597834587
v -0.00108299998100847 0.016659999266266823 -0.021810000762343407
v 0.014667999930679798 0.012807999737560749 0.0020989999175071716
v 0.012147000059485435 0.026612000539898872 0.006670000031590462
v 0.00875800009816885 0.027456000447273254 0.010245000012218952
v 0.0062859999015927315 0.02861900068819523 0.011621999554336071
v 0.002827000105753541 0.025475999340415 0.01496800035238266
v 0.0016449999529868364 0.016462000086903572 0.019190000370144844
v -0.003077999921515584 0.017914000898599625 0.02126999944448471
v -0.005365000106394291 0.01856200024485588 0.027414999902248383
v -0.00108299998100847 0.016659999266266823 0.022055000066757202
v 0.0014270000392571092 0.03148199990391731 -0.011447000317275524
v 0.0003000000142492354 0.027103999629616737 0.00012799999967683107
v 0.00587099976837635 0.03924399986863136 0.00012799999967683107
v 0.0014270000392571092 0.03148199990391731 0.011703000403940678
f 1 2 3
f 3 4 1
f 5 2 1
f 1 4 5
f 6 7 2
f 8 6 2
f 2 7 3
f 2 9 10
f 2 10 8
f 5 9 2
f 11 3 7
f 11 12 3
f 3 13 4
f 13 14 4
f 13 3 12
f 4 15 17
f 15 16 17
f 14 15 4
f 17 18 19
f 17 19 4
f 4 19 20
f 4 20 21
f 4 21 5
f 9 5 22
f 5 23 22
f 23 5 21
f 24 7 6
f 24 6 26
f 6 25 26
f 25 6 27
f 6 8 27
f 11 7 24
f 27 8 10
f 27 10 28
f 29 9 22
f 10 9 29
f 30 28 10
f 30 10 29
f 31 32 11
f 31 11 24
f 11 33 13
f 11 13 12
f 11 32 33
f 14 13 25
f 14 25 34
f 13 26 25
f 13 33 26
f 15 14 34
f 15 34 35
f 15 35 36
f 16 15 36
f 17 16 38
f 16 37 38
f 36 37 16
f 38 39 18
f 38 18 17
f 40 19 18
f 18 39 40
f 40 41 19
f 41 42 19
f 42 20 19
f 42 28 20
f 28 21 20
f 23 21 22
f 21 43 22
f 28 30 21
f 30 43 21
f 29 22 45
f 22 44 45
f 43 44 22
f 31 24 46
f 46 24 47
f 48 47 24
f 48 24 49
f 24 26 49
f 50 34 27
f 34 25 27
f 26 33 51
f 26 51 52
f 26 52 49
f 27 28 42
f 27 42 50
f 53 29 45
f 54 29 53
f 29 54 55
f 56 30 29
f 56 29 55
f 57 43 30
f 58 57 30
f 56 58 30
f 59 60 31
f 59 31 46
f 60 61 31
f 61 32 31
f 62 63 32
f 62 32 61
f 63 33 32
f 33 64 51
f 33 63 65
f 33 65 64
f 66 35 50
f 35 34 50
f 67 36 66
f 36 35 66
f 67 38 36
f 68 36 38
f 68 37 36
f 37 68 38
f 40 38 67
f 38 69 39
f 38 40 69
f 40 39 69
f 66 41 40
f 66 40 67
f 50 42 41
f 50 41 66
f 57 70 43
f 70 71 43
f 71 72 43
f 44 43 72
f 73 44 74
f 44 72 74
f 45 44 73
f 53 45 76
f 45 75 76
f 45 73 75
f 59 46 47
f 59 47 77
f 78 77 79
f 77 47 79
f 79 47 80
f 80 47 81
f 47 48 81
f 82 48 62
f 48 63 62
f 48 65 63
f 48 83 65
f 48 84 85
f 48 85 83
f 48 49 86
f 48 86 87
f 84 48 89
f 48 88 89
f 48 82 88
f 90 91 48
f 91 81 48
f 48 87 90
f 52 51 49
f 51 92 49
f 92 86 49
f 64 92 51
f 54 53 76
f 93 54 76
f 94 54 93
f 94 93 95
f 96 54 94
f 97 54 96
f 97 55 54
f 74 72 55
f 74 55 98
f 72 71 55
f 71 99 55
f 99 100 55
f 100 101 55
f 102 56 55
f 103 102 55
f 104 105 101
f 105 55 101
f 105 98 55
f 55 106 107
f 55 97 106
f 107 103 55
f 56 57 58
f 56 108 57
f 56 102 108
f 57 108 70
f 109 59 110
f 111 60 109
f 60 59 109
f 110 59 112
f 112 59 77
f 112 77 113
f 111 114 60
f 114 61 60
f 114 62 61
f 82 62 114
f 83 64 65
f 92 64 83
f 71 70 99
f 99 70 108
f 75 73 115
f 75 115 116
f 73 74 115
f 115 74 98
f 117 76 75
f 117 75 116
f 118 76 117
f 119 76 118
f 113 93 119
f 93 76 119
f 78 120 77
f 77 120 113
f 113 120 121
f 78 122 120
f 79 123 122
f 79 122 78
f 80 123 79
f 81 124 123
f 81 123 80
f 81 125 124
f 81 91 126
f 81 126 125
f 88 82 114
f 83 85 92
f 127 85 84
f 127 84 89
f 85 128 92
f 127 128 85
f 92 128 86
f 87 86 128
f 90 87 129
f 87 128 129
f 126 89 88
f 126 88 125
f 125 88 114
f 129 127 89
f 129 89 126
f 91 90 129
f 91 129 126
f 95 93 130
f 93 113 130
f 121 130 113
f 95 131 94
f 131 132 94
f 94 132 96
f 130 131 95
f 96 132 97
f 132 133 97
f 133 134 97
f 134 135 97
f 135 106 97
f 115 98 105
f 108 100 99
f 101 100 136
f 108 137 100
f 100 137 136
f 104 101 136
f 102 137 108
f 137 102 103
f 138 137 103
f 138 103 107
f 134 105 135
f 105 104 135
f 135 104 138
f 104 136 138
f 115 105 134
f 135 138 107
f 135 107 106
f 124 139 110
f 139 109 110
f 139 111 109
f 124 110 123
f 123 110 122
f 110 140 122
f 140 141 122
f 110 112 140
f 125 114 139
f 114 111 139
f 140 112 113
f 113 119 140
f 142 116 115
f 142 115 134
f 117 116 142
f 118 117 142
f 118 142 133
f 132 118 133
f 131 118 132
f 131 141 140
f 131 140 118
f 140 119 118
f 122 141 121
f 122 121 120
f 130 121 131
f 121 141 131
f 124 125 139
f 128 127 129
f 142 134 133
f 138 136 137
