# Generated by Visualization Toolkit
v -0.02511500008404255 0.023135000839829445 0.0001500000071246177
v -0.014012999832630157 0.02348800003528595 0.0001500000071246177
v -0.013365999795496464 0.023535000160336494 -0.00418000016361475
v -0.026076000183820724 0.023207999765872955 0.0001500000071246177
v -0.013365999795496464 0.023535000160336494 0.004480000119656324
v -0.020212000235915184 0.008923999965190887 -0.002122000092640519
v -0.014302000403404236 0.022856999188661575 -0.0014850000152364373
v -0.020214000716805458 0.008922000415623188 0.0001500000071246177
v -0.014302000403404236 0.022856999188661575 0.0017859999788925052
v -0.020212000235915184 0.008923999965190887 0.0024220000486820936
v -0.007826000452041626 0.024802999570965767 -0.012190000154078007
v -0.014322999864816666 0.023655999451875687 -0.0049600000493228436
v -0.01736599951982498 0.018525000661611557 -0.011812999844551086
v -0.029557999223470688 0.019109999760985374 -0.005270000081509352
v -0.03691599890589714 0.020997000858187675 -0.003751999931409955
v -0.04240500181913376 0.0222960002720356 -0.003527000080794096
v -0.042068000882864 0.024309000000357628 0.0001500000071246177
v -0.04240500181913376 0.0222960002720356 0.003828000044450164
v -0.03691599890589714 0.020997000858187675 0.004052999895066023
v -0.029557999223470688 0.019109999760985374 0.005570999812334776
v -0.01736599951982498 0.018525000661611557 0.012113000266253948
v -0.007826000452041626 0.024802999570965767 0.012490999884903431
v -0.014322999864816666 0.023655999451875687 0.005260000005364418
v -0.013698999769985676 0.012839999981224537 -0.009837999939918518
v -0.03046399913728237 0.014100999571383 -0.006678999867290258
v -0.020430000498890877 0.011505000293254852 -0.012267000041902065
v -0.030469000339508057 0.014096999540925026 0.0001500000071246177
v -0.03046399913728237 0.014100999571383 0.006978999823331833
v -0.013698999769985676 0.012839999981224537 0.010138999670743942
v -0.020430000498890877 0.011505000293254852 0.012567000463604927
v -0.0043680001981556416 0.01947999931871891 -0.012268999591469765
v -0.005367000121623278 0.02034899964928627 -0.0137320002540946
v -0.01033599954098463 0.02185799926519394 -0.022884000092744827
v -0.03643700107932091 0.014961999841034412 -0.005750999785959721
v -0.043122999370098114 0.014008999802172184 -0.00559299997985363
v -0.047228001058101654 0.01421200018376112 -0.005446000024676323
v -0.04974300041794777 0.02206300012767315 -0.004315999802201986
v -0.048250000923871994 0.026120999827980995 0.0001500000071246177
v -0.04974300041794777 0.02206300012767315 0.004616000223904848
v -0.047228001058101654 0.01421200018376112 0.005745999980717897
v -0.043122999370098114 0.014008999802172184 0.0058929999358952045
v -0.03643700107932091 0.014961999841034412 0.006051999982446432
v -0.01033599954098463 0.02185799926519394 0.02318499982357025
v -0.005367000121623278 0.02034899964928627 0.014031999744474888
v -0.0043680001981556416 0.01947999931871891 0.012570000253617764
v -0.001803999999538064 0.013089999556541443 -0.010931000113487244
v -0.005994000006467104 0.008489999920129776 -0.00982499960809946
v -0.002174000022932887 0.019092999398708344 -0.02142300084233284
v -0.0178810004144907 0.01194899994879961 -0.023081999272108078
v -0.03644099831581116 0.014957999810576439 0.0001500000071246177
v -0.01411299966275692 0.017278000712394714 -0.024598000571131706
v -0.018988000229001045 0.011908999644219875 -0.017400000244379044
v -0.001803999999538064 0.013089999556541443 0.01123099960386753
v -0.005994000006467104 0.008489999920129776 0.01012600027024746
v -0.002174000022932887 0.019092999398708344 0.021724000573158264
v -0.0178810004144907 0.01194899994879961 0.02338300086557865
v -0.01411299966275692 0.017278000712394714 0.024898000061511993
v -0.018988000229001045 0.011908999644219875 0.01769999973475933
v 0.0015249999705702066 0.02267399989068508 -0.009891999885439873
v 0.0017979999538511038 0.024059999734163284 -0.010986999608576298
v -0.0011399999493733048 0.019791999831795692 -0.013144999742507935
v 0.00029399999766610563 0.019884999841451645 -0.01664699986577034
v -0.0029780000913888216 0.02343199960887432 -0.018869999796152115
v -0.007652000058442354 0.022373000159859657 -0.025529999285936356
v 0.0003440000000409782 0.03034999966621399 -0.02682800032198429
v -0.04312700033187866 0.01400499977171421 0.0001500000071246177
v -0.047231998294591904 0.014208000153303146 0.0001500000071246177
v -0.05124799907207489 0.01713000051677227 -0.004209999926388264
v -0.05124799907207489 0.01713000051677227 0.004511000122874975
v -0.007652000058442354 0.022373000159859657 0.025830000638961792
v 0.0003440000000409782 0.03034999966621399 0.027129000052809715
v -0.0029780000913888216 0.02343199960887432 0.01917099952697754
v -0.0011399999493733048 0.019791999831795692 0.013446000404655933
v 0.00029399999766610563 0.019884999841451645 0.016947999596595764
v 0.0017979999538511038 0.024059999734163284 0.011288000270724297
v 0.0015249999705702066 0.02267399989068508 0.010192999616265297
v -0.0049230000004172325 0.007098000030964613 -0.004100999794900417
v 0.01319899968802929 0.0014380000066012144 -0.008542999625205994
v 0.010489000007510185 0.003504999913275242 -0.015003000386059284
v 0.006978999823331833 0.004726999904960394 -0.016757000237703323
v 0.004741999786347151 0.01068700011819601 -0.01839900016784668
v -0.000009999999747378752 0.017085000872612 -0.018276000395417213
v -0.001908999984152615 0.028700999915599823 -0.02915400080382824
v -0.0021269998978823423 0.018758999183773994 -0.02508700080215931
v -0.000577000027988106 0.026131000369787216 -0.03171199932694435
v -0.0037980000488460064 0.018201999366283417 -0.03406799957156181
v -0.0007329999934881926 0.015714000910520554 -0.03044700063765049
v 0.003011000109836459 0.016256000846624374 -0.019548999145627022
v 0.0032430000137537718 0.015189000405371189 -0.02349499985575676
v 0.0021329999435693026 0.01425000000745058 -0.027730999514460564
v 0.004435000009834766 0.013139000162482262 -0.022693000733852386
v -0.0058109997771680355 0.021435000002384186 -0.029665999114513397
v -0.0049230000004172325 0.007098000030964613 0.004401000216603279
v 0.010489000007510185 0.003504999913275242 0.015302999876439571
v 0.01319899968802929 0.0014380000066012144 0.008844000287353992
v 0.006978999823331833 0.004726999904960394 0.017057999968528748
v 0.004741999786347151 0.01068700011819601 0.018698999658226967
v -0.000009999999747378752 0.017085000872612 0.0185759998857975
v -0.001908999984152615 0.028700999915599823 0.029454000294208527
v -0.000577000027988106 0.026131000369787216 0.03201200067996979
v -0.0021269998978823423 0.018758999183773994 0.025388000532984734
v -0.0037980000488460064 0.018201999366283417 0.03436899930238724
v -0.0007329999934881926 0.015714000910520554 0.030748000368475914
v 0.0032430000137537718 0.015189000405371189 0.023795999586582184
v 0.003011000109836459 0.016256000846624374 0.019850000739097595
v 0.004435000009834766 0.013139000162482262 0.02299400046467781
v 0.0021329999435693026 0.01425000000745058 0.028031999245285988
v -0.0058109997771680355 0.021435000002384186 0.02996700070798397
v 0.004542999900877476 0.026110000908374786 -0.01166599988937378
v 0.003780999919399619 0.021212000399827957 -0.005158999934792519
v 0.00571999978274107 0.024847999215126038 -0.014329000376164913
v 0.0027580000460147858 0.02116600051522255 -0.0023900000378489494
v -0.00508899986743927 0.006422000005841255 0.0001500000071246177
v 0.004637999925762415 0.024257000535726547 -0.015713000670075417
v 0.004637999925762415 0.024257000535726547 0.016013000160455704
v 0.00571999978274107 0.024847999215126038 0.014630000106990337
v 0.004542999900877476 0.026110000908374786 0.011966000311076641
v 0.003780999919399619 0.021212000399827957 0.00546000013127923
v 0.0027580000460147858 0.02116600051522255 0.0026910000015050173
v 0.014468999579548836 0.0011630000080913305 -0.00216299993917346
v 0.014480999670922756 0.0013119999784976244 0.0001500000071246177
v 0.01628500036895275 0.015066999942064285 -0.007528000045567751
v 0.013326000422239304 0.017002999782562256 -0.011725000105798244
v 0.011335000395774841 0.01893400028347969 -0.01334100030362606
v 0.007094999775290489 0.017123999074101448 -0.017268000170588493
v 0.004689000081270933 0.01444500032812357 -0.023287000134587288
v 0.0006569999968633056 0.017433999106287956 -0.025841999799013138
v -0.0013119999784976244 0.018828000873327255 -0.03339599817991257
v 0.0021609999239444733 0.015553999692201614 -0.02680799923837185
v 0.014468999579548836 0.0011630000080913305 0.002463999902829528
v 0.01628500036895275 0.015066999942064285 0.007829000242054462
v 0.013326000422239304 0.017002999782562256 0.012024999596178532
v 0.011335000395774841 0.01893400028347969 0.013640999794006348
v 0.007094999775290489 0.017123999074101448 0.017568999901413918
v 0.004689000081270933 0.01444500032812357 0.023586999624967575
v 0.0006569999968633056 0.017433999106287956 0.026142999529838562
v -0.0013119999784976244 0.018828000873327255 0.033695999532938004
v 0.0021609999239444733 0.015553999692201614 0.027108000591397285
v 0.0075969998724758625 0.023274999111890793 -0.013435999862849712
v 0.005193000193685293 0.019511999562382698 0.0001500000071246177
v 0.017141999676823616 0.01474399957805872 0.0001500000071246177
v 0.0075969998724758625 0.023274999111890793 0.013736000284552574
f 1 2 3
f 3 4 1
f 5 2 1
f 1 4 5
f 6 7 2
f 8 6 2
f 2 7 3
f 2 9 10
f 2 10 8
f 5 9 2
f 11 3 7
f 11 12 3
f 3 13 4
f 13 14 4
f 13 3 12
f 4 15 17
f 15 16 17
f 14 15 4
f 17 18 19
f 17 19 4
f 4 19 20
f 4 20 21
f 4 21 5
f 9 5 22
f 5 23 22
f 23 5 21
f 24 7 6
f 24 6 26
f 6 25 26
f 25 6 27
f 6 8 27
f 11 7 24
f 27 8 10
f 27 10 28
f 29 9 22
f 10 9 29
f 30 28 10
f 30 10 29
f 31 32 11
f 31 11 24
f 11 33 13
f 11 13 12
f 11 32 33
f 14 13 25
f 14 25 34
f 13 26 25
f 13 33 26
f 15 14 34
f 15 34 35
f 15 35 36
f 16 15 36
f 17 16 38
f 16 37 38
f 36 37 16
f 38 39 18
f 38 18 17
f 40 19 18
f 18 39 40
f 40 41 19
f 41 42 19
f 42 20 19
f 42 28 20
f 28 21 20
f 23 21 22
f 21 43 22
f 28 30 21
f 30 43 21
f 29 22 45
f 22 44 45
f 43 44 22
f 31 24 46
f 46 24 47
f 48 47 24
f 48 24 49
f 24 26 49
f 50 34 27
f 34 25 27
f 26 33 51
f 26 51 52
f 26 52 49
f 27 28 42
f 27 42 50
f 53 29 45
f 54 29 53
f 29 54 55
f 56 30 29
f 56 29 55
f 57 43 30
f 58 57 30
f 56 58 30
f 59 60 31
f 59 31 46
f 60 61 31
f 61 32 31
f 62 63 32
f 62 32 61
f 63 33 32
f 33 64 51
f 33 63 64
f 63 65 64
f 66 35 50
f 35 34 50
f 67 36 66
f 36 35 66
f 67 38 36
f 68 36 38
f 68 37 36
f 37 68 38
f 40 38 67
f 38 69 39
f 38 40 69
f 40 39 69
f 66 41 40
f 66 40 67
f 50 42 41
f 50 41 66
f 57 70 43
f 70 71 72
f 70 72 43
f 44 43 72
f 73 44 74
f 44 72 74
f 45 44 73
f 53 45 76
f 45 75 76
f 45 73 75
f 59 46 47
f 59 47 77
f 78 77 79
f 77 47 79
f 79 47 80
f 80 47 81
f 47 48 81
f 82 48 62
f 48 63 62
f 48 65 63
f 48 83 65
f 48 84 83
f 84 85 83
f 48 49 86
f 48 86 87
f 84 48 89
f 48 88 89
f 48 82 88
f 90 91 48
f 91 81 48
f 48 87 90
f 52 51 49
f 51 92 49
f 92 86 49
f 64 92 51
f 54 53 76
f 93 54 76
f 94 54 93
f 94 93 95
f 96 54 94
f 97 54 96
f 97 55 54
f 74 72 55
f 74 55 98
f 72 71 55
f 71 99 55
f 99 100 101
f 99 101 55
f 102 56 55
f 103 102 55
f 104 105 55
f 104 55 101
f 105 98 55
f 55 106 107
f 55 97 106
f 107 103 55
f 56 57 58
f 56 108 57
f 56 102 108
f 57 108 70
f 109 59 110
f 111 60 109
f 60 59 109
f 110 59 112
f 112 59 77
f 112 77 113
f 111 114 60
f 114 61 60
f 114 62 61
f 82 62 114
f 83 64 65
f 92 64 83
f 71 70 99
f 99 70 108
f 75 73 115
f 75 115 116
f 73 74 115
f 115 74 98
f 117 76 75
f 117 75 116
f 118 76 117
f 119 76 118
f 113 93 119
f 93 76 119
f 78 120 77
f 77 120 113
f 121 113 120
f 78 122 120
f 79 123 122
f 79 122 78
f 80 123 79
f 81 124 123
f 81 123 80
f 81 125 124
f 81 91 126
f 81 126 125
f 88 82 114
f 83 85 92
f 127 85 84
f 127 84 89
f 85 128 92
f 127 128 85
f 92 128 86
f 87 86 128
f 90 87 129
f 87 128 129
f 126 89 88
f 126 88 125
f 125 88 114
f 129 127 89
f 129 89 126
f 91 90 126
f 90 129 126
f 95 93 130
f 93 113 130
f 121 130 113
f 95 131 94
f 131 132 94
f 94 132 96
f 130 131 95
f 96 132 97
f 132 133 97
f 133 134 97
f 134 135 97
f 135 106 97
f 115 98 105
f 108 100 99
f 101 100 136
f 108 137 100
f 100 137 136
f 104 101 136
f 102 137 108
f 137 102 103
f 138 137 103
f 138 103 107
f 134 105 135
f 105 104 135
f 135 104 138
f 104 136 138
f 115 105 134
f 135 138 107
f 135 107 106
f 124 139 110
f 139 109 110
f 139 111 109
f 124 110 123
f 123 110 122
f 110 140 122
f 140 141 122
f 110 112 140
f 125 114 139
f 114 111 139
f 140 112 113
f 113 119 140
f 142 116 115
f 142 115 134
f 117 116 142
f 118 117 142
f 118 142 133
f 132 118 133
f 131 118 132
f 131 141 140
f 131 140 118
f 140 119 118
f 122 141 120
f 141 121 120
f 130 121 141
f 130 141 131
f 124 125 139
f 128 127 129
f 142 134 133
f 138 136 137
