# Generated by Visualization Toolkit
v -0.30000001192092896 0 0.5
v -0.30000001192092896 0 0.4000000059604645
v -0.20000000298023224 0 0.5
v -0.20000000298023224 0 0.4000000059604645
v -0.20000000298023224 0 0.5
v -0.20000000298023224 0 0.4000000059604645
v -0.10000000149011612 0 0.5
v -0.10000000149011612 0 0.4000000059604645
v -0.10000000149011612 0 0.5
v -0.10000000149011612 0 0.4000000059604645
v 5.551119755337213e-17 0 0.5
v 5.551119755337213e-17 0 0.4000000059604645
v 5.551119755337213e-17 0 0.5
v 5.551119755337213e-17 0 0.4000000059604645
v 0.10000000149011612 0 0.5
v 0.10000000149011612 0 0.4000000059604645
v 0.10000000149011612 0 0.5
v 0.10000000149011612 0 0.4000000059604645
v 0.20000000298023224 0 0.5
v 0.20000000298023224 0 0.4000000059604645
v -0.20000000298023224 0 0.4000000059604645
v -0.20000000298023224 0 0.30000001192092896
v -0.10000000149011612 0 0.4000000059604645
v -0.10000000149011612 0 0.30000001192092896
v -0.10000000149011612 0 0.4000000059604645
v -0.10000000149011612 0 0.30000001192092896
v 5.551119755337213e-17 0 0.4000000059604645
v 5.551119755337213e-17 0 0.30000001192092896
v 5.551119755337213e-17 0 0.4000000059604645
v 5.551119755337213e-17 0 0.30000001192092896
v 0.10000000149011612 0 0.4000000059604645
v 0.10000000149011612 0 0.30000001192092896
v 0.10000000149011612 0 0.4000000059604645
v 0.10000000149011612 0 0.30000001192092896
v 0.20000000298023224 0 0.4000000059604645
v 0.20000000298023224 0 0.30000001192092896
v 0.20000000298023224 0 0.4000000059604645
v 0.20000000298023224 0 0.30000001192092896
v 0.30000001192092896 0 0.4000000059604645
v 0.30000001192092896 0 0.30000001192092896
v -0.30000001192092896 0 0.30000001192092896
v -0.30000001192092896 0 0.20000000298023224
v -0.20000000298023224 0 0.30000001192092896
v -0.20000000298023224 0 0.20000000298023224
v -0.20000000298023224 0 0.30000001192092896
v -0.20000000298023224 0 0.20000000298023224
v -0.10000000149011612 0 0.30000001192092896
v -0.10000000149011612 0 0.20000000298023224
v -0.10000000149011612 0 0.30000001192092896
v -0.10000000149011612 0 0.20000000298023224
v 5.551119755337213e-17 0 0.30000001192092896
v 5.551119755337213e-17 0 0.20000000298023224
v 5.551119755337213e-17 0 0.30000001192092896
v 5.551119755337213e-17 0 0.20000000298023224
v 0.10000000149011612 0 0.30000001192092896
v 0.10000000149011612 0 0.20000000298023224
v 0.10000000149011612 0 0.30000001192092896
v 0.10000000149011612 0 0.20000000298023224
v 0.20000000298023224 0 0.30000001192092896
v 0.20000000298023224 0 0.20000000298023224
v -0.20000000298023224 0 0.20000000298023224
v -0.20000000298023224 0 0.10000000149011612
v -0.10000000149011612 0 0.20000000298023224
v -0.10000000149011612 0 0.10000000149011612
v -0.10000000149011612 0 0.20000000298023224
v -0.10000000149011612 0 0.10000000149011612
v 5.551119755337213e-17 0 0.20000000298023224
v 5.551119755337213e-17 0 0.10000000149011612
v 5.551119755337213e-17 0 0.20000000298023224
v 5.551119755337213e-17 0 0.10000000149011612
v 0.10000000149011612 0 0.20000000298023224
v 0.10000000149011612 0 0.10000000149011612
v 0.10000000149011612 0 0.20000000298023224
v 0.10000000149011612 0 0.10000000149011612
v 0.20000000298023224 0 0.20000000298023224
v 0.20000000298023224 0 0.10000000149011612
v 0.20000000298023224 0 0.20000000298023224
v 0.20000000298023224 0 0.10000000149011612
v 0.30000001192092896 0 0.20000000298023224
v 0.30000001192092896 0 0.10000000149011612
v -0.30000001192092896 0 0.10000000149011612
v -0.30000001192092896 0 0
v -0.20000000298023224 0 0.10000000149011612
v -0.20000000298023224 0 0
v -0.20000000298023224 0 0.10000000149011612
v -0.20000000298023224 0 0
v -0.10000000149011612 0 0.10000000149011612
v -0.10000000149011612 0 0
v -0.10000000149011612 0 0.10000000149011612
v -0.10000000149011612 0 0
v 5.551119755337213e-17 0 0.10000000149011612
v 5.551119755337213e-17 0 0
v 5.551119755337213e-17 0 0.10000000149011612
v 5.551119755337213e-17 0 0
v 0.10000000149011612 0 0.10000000149011612
v 0.10000000149011612 0 0
v 0.10000000149011612 0 0.10000000149011612
v 0.10000000149011612 0 0
v 0.20000000298023224 0 0.10000000149011612
v 0.20000000298023224 0 0
v -0.20000000298023224 0 0
v -0.20000000298023224 0 -0.10000000149011612
v -0.10000000149011612 0 0
v -0.10000000149011612 0 -0.10000000149011612
v -0.10000000149011612 0 0
v -0.10000000149011612 0 -0.10000000149011612
v 5.551119755337213e-17 0 0
v 5.551119755337213e-17 0 -0.10000000149011612
v 5.551119755337213e-17 0 0
v 5.551119755337213e-17 0 -0.10000000149011612
v 0.10000000149011612 0 0
v 0.10000000149011612 0 -0.10000000149011612
v 0.10000000149011612 0 0
v 0.10000000149011612 0 -0.10000000149011612
v 0.20000000298023224 0 0
v 0.20000000298023224 0 -0.10000000149011612
v 0.20000000298023224 0 0
v 0.20000000298023224 0 -0.10000000149011612
v 0.30000001192092896 0 0
v 0.30000001192092896 0 -0.10000000149011612
v -0.30000001192092896 0 -0.10000000149011612
v -0.30000001192092896 0 -0.20000000298023224
v -0.20000000298023224 0 -0.10000000149011612
v -0.20000000298023224 0 -0.20000000298023224
v -0.20000000298023224 0 -0.10000000149011612
v -0.20000000298023224 0 -0.20000000298023224
v -0.10000000149011612 0 -0.10000000149011612
v -0.10000000149011612 0 -0.20000000298023224
v -0.10000000149011612 0 -0.10000000149011612
v -0.10000000149011612 0 -0.20000000298023224
v 5.551119755337213e-17 0 -0.10000000149011612
v 5.551119755337213e-17 0 -0.20000000298023224
v 5.551119755337213e-17 0 -0.10000000149011612
v 5.551119755337213e-17 0 -0.20000000298023224
v 0.10000000149011612 0 -0.10000000149011612
v 0.10000000149011612 0 -0.20000000298023224
v 0.10000000149011612 0 -0.10000000149011612
v 0.10000000149011612 0 -0.20000000298023224
v 0.20000000298023224 0 -0.10000000149011612
v 0.20000000298023224 0 -0.20000000298023224
v -0.20000000298023224 0 -0.20000000298023224
v -0.20000000298023224 0 -0.30000001192092896
v -0.10000000149011612 0 -0.20000000298023224
v -0.10000000149011612 0 -0.30000001192092896
v -0.10000000149011612 0 -0.20000000298023224
v -0.10000000149011612 0 -0.30000001192092896
v 5.551119755337213e-17 0 -0.20000000298023224
v 5.551119755337213e-17 0 -0.30000001192092896
v 5.551119755337213e-17 0 -0.20000000298023224
v 5.551119755337213e-17 0 -0.30000001192092896
v 0.10000000149011612 0 -0.20000000298023224
v 0.10000000149011612 0 -0.30000001192092896
v 0.10000000149011612 0 -0.20000000298023224
v 0.10000000149011612 0 -0.30000001192092896
v 0.20000000298023224 0 -0.20000000298023224
v 0.20000000298023224 0 -0.30000001192092896
v 0.20000000298023224 0 -0.20000000298023224
v 0.20000000298023224 0 -0.30000001192092896
v 0.30000001192092896 0 -0.20000000298023224
v 0.30000001192092896 0 -0.30000001192092896
v -0.30000001192092896 0 -0.30000001192092896
v -0.30000001192092896 0 -0.4000000059604645
v -0.20000000298023224 0 -0.30000001192092896
v -0.20000000298023224 0 -0.4000000059604645
v -0.20000000298023224 0 -0.30000001192092896
v -0.20000000298023224 0 -0.4000000059604645
v -0.10000000149011612 0 -0.30000001192092896
v -0.10000000149011612 0 -0.4000000059604645
v -0.10000000149011612 0 -0.30000001192092896
v -0.10000000149011612 0 -0.4000000059604645
v 5.551119755337213e-17 0 -0.30000001192092896
v 5.551119755337213e-17 0 -0.4000000059604645
v 5.551119755337213e-17 0 -0.30000001192092896
v 5.551119755337213e-17 0 -0.4000000059604645
v 0.10000000149011612 0 -0.30000001192092896
v 0.10000000149011612 0 -0.4000000059604645
v 0.10000000149011612 0 -0.30000001192092896
v 0.10000000149011612 0 -0.4000000059604645
v 0.20000000298023224 0 -0.30000001192092896
v 0.20000000298023224 0 -0.4000000059604645
v -0.20000000298023224 0 -0.4000000059604645
v -0.20000000298023224 0 -0.5
v -0.10000000149011612 0 -0.4000000059604645
v -0.10000000149011612 0 -0.5
v -0.10000000149011612 0 -0.4000000059604645
v -0.10000000149011612 0 -0.5
v 5.551119755337213e-17 0 -0.4000000059604645
v 5.551119755337213e-17 0 -0.5
v 5.551119755337213e-17 0 -0.4000000059604645
v 5.551119755337213e-17 0 -0.5
v 0.10000000149011612 0 -0.4000000059604645
v 0.10000000149011612 0 -0.5
v 0.10000000149011612 0 -0.4000000059604645
v 0.10000000149011612 0 -0.5
v 0.20000000298023224 0 -0.4000000059604645
v 0.20000000298023224 0 -0.5
v 0.20000000298023224 0 -0.4000000059604645
v 0.20000000298023224 0 -0.5
v 0.30000001192092896 0 -0.4000000059604645
v 0.30000001192092896 0 -0.5
f 4 1 2
f 4 3 1
f 12 9 10
f 12 11 9
f 20 17 18
f 20 19 17
f 24 21 22
f 24 23 21
f 32 29 30
f 32 31 29
f 40 37 38
f 40 39 37
f 44 41 42
f 44 43 41
f 52 49 50
f 52 51 49
f 60 57 58
f 60 59 57
f 64 61 62
f 64 63 61
f 72 69 70
f 72 71 69
f 80 77 78
f 80 79 77
f 84 81 82
f 84 83 81
f 92 89 90
f 92 91 89
f 100 97 98
f 100 99 97
f 104 101 102
f 104 103 101
f 112 109 110
f 112 111 109
f 120 117 118
f 120 119 117
f 124 121 122
f 124 123 121
f 132 129 130
f 132 131 129
f 140 137 138
f 140 139 137
f 144 141 142
f 144 143 141
f 152 149 150
f 152 151 149
f 160 157 158
f 160 159 157
f 164 161 162
f 164 163 161
f 172 169 170
f 172 171 169
f 180 177 178
f 180 179 177
f 184 181 182
f 184 183 181
f 192 189 190
f 192 191 189
f 200 197 198
f 200 199 197
