# Generated by Visualization Toolkit
v 0.0004910000134259462 0.42623499035835266 -0.06502900272607803
v 0.0004689999914262444 0.43701300024986267 -0.06822200119495392
v -0.0027469999622553587 0.42861801385879517 -0.07175199687480927
v 0.0019160000374540687 0.42353498935699463 -0.0632840022444725
v 0.0037640000227838755 0.42978501319885254 -0.05041800066828728
v 0.0033279999624937773 0.4195829927921295 -0.04931600019335747
v -0.019116999581456184 0.44381898641586304 -0.09582400321960449
v 0.008763999678194523 0.4352799952030182 -0.05166900157928467
v 0.007845000363886356 0.4344109892845154 -0.05108499899506569
v 0.005714999977499247 0.43273699283599854 -0.04854699969291687
v 0.006876000203192234 0.43352898955345154 -0.049988001585006714
v 0.007841000333428383 0.43845900893211365 -0.06718199700117111
v -0.01287699956446886 0.4319309890270233 -0.08890800178050995
v -0.0011549999471753836 0.4261229932308197 -0.07443799823522568
v -0.01363999955356121 0.43488600850105286 -0.08706899732351303
v 0.013700000010430813 0.415802001953125 -0.042020998895168304
v 0.006221000105142593 0.4314729869365692 -0.0425340011715889
v 0.0008200000156648457 0.41929399967193604 -0.03660999983549118
v 0.0064940000884234905 0.43081599473953247 -0.03842199966311455
v 0.006622000131756067 0.43017199635505676 -0.03334899991750717
v 0.007034000009298325 0.4280740022659302 -0.02065500058233738
v 0.0012929999502375722 0.4167810082435608 -0.03761700168251991
v 0.002741999924182892 0.41488000750541687 -0.038380999118089676
v -0.026048000901937485 0.4373050034046173 -0.10122100263834
v -0.039409998804330826 0.44970500469207764 -0.11127199977636337
v -0.03598500043153763 0.45328301191329956 -0.11166299879550934
v -0.0313429981470108 0.4509370028972626 -0.12021700292825699
v -0.022839000448584557 0.44676798582077026 -0.1091269999742508
v -0.0033309999853372574 0.4412049949169159 -0.09483800083398819
v 0.009819000028073788 0.4352650046348572 -0.05027899891138077
v 0.009457999840378761 0.4342299997806549 -0.04833099991083145
v 0.008437000215053558 0.43343499302864075 -0.04790399968624115
v 0.00712500000372529 0.43294399976730347 -0.04793800041079521
v 0.0074800001457333565 0.43261000514030457 -0.04629699885845184
v 0.006957000121474266 0.4319179952144623 -0.04430500045418739
v 0.01820399984717369 0.4318009912967682 -0.05482200160622597
v 0.014689999632537365 0.4360849857330322 -0.05217599868774414
v -0.003874999936670065 0.4364030063152313 -0.09685000032186508
v -0.023003999143838882 0.4373359978199005 -0.10859499871730804
v -0.01783600077033043 0.43569400906562805 -0.10463699698448181
v 0.011962000280618668 0.4227679967880249 -0.06252200156450272
v 0.02028599940240383 0.42291900515556335 -0.04291500151157379
v 0.02104399912059307 0.41593000292778015 -0.03261600062251091
v 0.007834999822080135 0.41213300824165344 -0.03603599965572357
v 0.01589599996805191 0.4115369915962219 -0.03201499953866005
v 0.010672000236809254 0.4304260015487671 -0.03876800090074539
v -0.0005670000100508332 0.4175960123538971 -0.03262700140476227
v -0.0007989999721758068 0.41586101055145264 -0.0340690016746521
v 0.01194700039923191 0.4315289855003357 -0.03230300173163414
v 0.010483999736607075 0.43131399154663086 -0.029738999903202057
v 0.007799000013619661 0.43042901158332825 -0.03132399916648865
v 0.008949999697506428 0.430961012840271 -0.030559999868273735
v 0.011919000186026096 0.42983299493789673 -0.035270001739263535
v 0.00408599991351366 0.42344099283218384 -0.024057000875473022
v 0.011291000060737133 0.4317289888858795 -0.022394999861717224
v 0.007563999854028225 0.42810800671577454 -0.019220000132918358
v 0.005929000210016966 0.4256249964237213 -0.02153399959206581
v 0.0005310000269673765 0.4153279960155487 -0.03603300079703331
v 0.00013899999612476677 0.41464200615882874 -0.03441999852657318
v -0.03324899822473526 0.43991100788116455 -0.10946500301361084
v -0.04482699930667877 0.44675201177597046 -0.12201300263404846
v -0.041662998497486115 0.45420899987220764 -0.11995100229978561
v -0.03814899921417236 0.4550729990005493 -0.11326999962329865
v -0.032207001000642776 0.45125699043273926 -0.12332499772310257
v -0.034706000238657 0.4527139961719513 -0.12221299856901169
v -0.03415999934077263 0.4526669979095459 -0.12048300355672836
v -0.0232510007917881 0.4471360146999359 -0.1174440011382103
v -0.029851999133825302 0.4499109983444214 -0.12173499912023544
v -0.022117000073194504 0.44691699743270874 -0.11138000339269638
v -0.0183470007032156 0.44609400629997253 -0.10947199910879135
v -0.01460999995470047 0.44530901312828064 -0.10755699872970581
v -0.012497999705374241 0.4454199969768524 -0.10367800295352936
v -0.01830900087952614 0.4432939887046814 -0.11404100060462952
v 0.010352999903261662 0.43399500846862793 -0.046845998615026474
v 0.01281800027936697 0.43438300490379333 -0.04546400159597397
v 0.00911800004541874 0.4330050051212311 -0.045910000801086426
v 0.019719000905752182 0.43197101354599 -0.039473000913858414
v 0.024397000670433044 0.42565301060676575 -0.03142299875617027
v 0.024702999740839005 0.4212009906768799 -0.029009999707341194
v 0.02413499914109707 0.4193289875984192 -0.028736000880599022
v -0.016558999195694923 0.4370729923248291 -0.10622700303792953
v -0.019710000604391098 0.4364590048789978 -0.10662899911403656
v -0.03327000141143799 0.44095900654792786 -0.11897200345993042
v -0.031076999381184578 0.4403330087661743 -0.1179099977016449
v -0.030174000188708305 0.4406839907169342 -0.11908499896526337
v -0.025617999956011772 0.4408009946346283 -0.1166829988360405
v -0.01926399953663349 0.43767300248146057 -0.10856799781322479
v 0.01992800086736679 0.4139479994773865 -0.03039800003170967
v 0.021601000800728798 0.4159550070762634 -0.030466999858617783
v 0.013757999986410141 0.4111669957637787 -0.030233999714255333
v 0.009758000262081623 0.4113459885120392 -0.030772000551223755
v 0.0046720001846551895 0.4122380018234253 -0.03262300044298172
v 0.018154999241232872 0.412771999835968 -0.029090000316500664
v 0.015931999310851097 0.41151300072669983 -0.02985600009560585
v 0.010981000028550625 0.43220001459121704 -0.0424560010433197
v 0.0117790000513196 0.4310329854488373 -0.03925599902868271
v 0.0025210001040250063 0.4212630093097687 -0.025735000148415565
v -0.000577000027988106 0.41569700837135315 -0.03268500044941902
v 0.001104000024497509 0.41694900393486023 -0.02847900055348873
v 0.013570000417530537 0.43156498670578003 -0.03170400112867355
v 0.014836999587714672 0.4320969879627228 -0.024555999785661697
v 0.013154000043869019 0.43069198727607727 -0.033330999314785004
v 0.014348000288009644 0.43089398741722107 -0.03338799998164177
v 0.013225000351667404 0.4309709966182709 -0.037122998386621475
v 0.0038060001097619534 0.4203239977359772 -0.023824000731110573
v 0.013662000186741352 0.43150898814201355 -0.020408999174833298
v 0.012013999745249748 0.43110600113868713 -0.019385000690817833
v 0.01042999979108572 0.4303390085697174 -0.018749000504612923
v 0.011200999841094017 0.42910000681877136 -0.017815999686717987
v 0.009317999705672264 0.4277159869670868 -0.01808599941432476
v 0.010510999709367752 0.42274200916290283 -0.017822999507188797
v 0.0022899999748915434 0.41327399015426636 -0.03284100070595741
v -0.043049998581409454 0.444227010011673 -0.12373299896717072
v -0.03751299902796745 0.4435279965400696 -0.12549400329589844
v -0.036021001636981964 0.44275298714637756 -0.12347999960184097
v -0.04982399940490723 0.45097100734710693 -0.13289499282836914
v -0.04841800034046173 0.44837498664855957 -0.13436700403690338
v -0.04683399945497513 0.44712600111961365 -0.1305380016565323
v -0.043035998940467834 0.45418500900268555 -0.12605999410152435
v -0.0468359999358654 0.4550899863243103 -0.13464400172233582
v -0.04218899831175804 0.4540809988975525 -0.12241499871015549
v -0.03995399922132492 0.4545159935951233 -0.12061300128698349
v -0.036031000316143036 0.45380699634552 -0.12025199830532074
v -0.037227001041173935 0.4543440043926239 -0.1199449971318245
v -0.03855599835515022 0.4546630084514618 -0.12093199789524078
v -0.03294700011610985 0.45159101486206055 -0.1262039989233017
v -0.030928000807762146 0.45034199953079224 -0.12471099942922592
v -0.03814199939370155 0.4543269872665405 -0.12303800135850906
v -0.029872000217437744 0.44811299443244934 -0.13787800073623657
v -0.02079099975526333 0.44670501351356506 -0.11276599764823914
v -0.022506000474095345 0.44501200318336487 -0.1199060007929802
v -0.02277499996125698 0.4410080015659332 -0.11660599708557129
v 0.011951999738812447 0.4336960017681122 -0.04524800181388855
v 0.013975000008940697 0.4338560104370117 -0.04354799911379814
v 0.01273099984973669 0.43206000328063965 -0.041127000004053116
v 0.01463599968701601 0.4332619905471802 -0.041453998535871506
v 0.01515199989080429 0.43266698718070984 -0.03924199938774109
v 0.01569399982690811 0.4321640133857727 -0.036903999745845795
v 0.016056999564170837 0.431769996881485 -0.034651000052690506
v 0.015740999951958656 0.4316209852695465 -0.03286899998784065
v 0.02173200063407421 0.4292350113391876 -0.02981499955058098
v 0.017110999673604965 0.43139100074768066 -0.029865000396966934
v 0.02420400083065033 0.425370991230011 -0.02999100089073181
v 0.023120999336242676 0.4268360137939453 -0.029746999964118004
v 0.023750999942421913 0.4213370084762573 -0.028082000091671944
v 0.02191000059247017 0.41596001386642456 -0.028641000390052795
v 0.021756000816822052 0.4175719916820526 -0.02776399999856949
v 0.022947000339627266 0.41945600509643555 -0.02778100036084652
v -0.0345660001039505 0.4419960081577301 -0.1218390017747879
v -0.030515000224113464 0.4419519901275635 -0.12147100269794464
v -0.032565001398324966 0.44262298941612244 -0.12307000160217285
v -0.02348100021481514 0.4416719973087311 -0.11694300174713135
v -0.023886999115347862 0.44116801023483276 -0.11666599661111832
v -0.02441300079226494 0.4406070113182068 -0.11633200198411942
v 0.012822999618947506 0.4116649925708771 -0.02950100041925907
v 0.003370000049471855 0.4132539927959442 -0.030926000326871872
v 0.010804999619722366 0.41202300786972046 -0.029512999579310417
v 0.015223000198602676 0.41361701488494873 -0.02787799946963787
v 0.018563000485301018 0.4144650101661682 -0.027845999225974083
v 0.013772999867796898 0.41247400641441345 -0.028449999168515205
v 0.0019710001070052385 0.4151119887828827 -0.02958099916577339
v 0.0013050000416114926 0.41440701484680176 -0.031196000054478645
v 0.002736999886110425 0.41596001386642456 -0.028102999553084373
v 0.014972000382840633 0.4315730035305023 -0.031672000885009766
v 0.017183000221848488 0.4311720132827759 -0.02385300025343895
v 0.01381400041282177 0.4319959878921509 -0.039225999265909195
v 0.006045000161975622 0.41953200101852417 -0.022804999724030495
v 0.007712999824434519 0.42054298520088196 -0.020481999963521957
v 0.01433700043708086 0.4297010004520416 -0.019176999107003212
v 0.013061000034213066 0.42559900879859924 -0.017728999257087708
v 0.014871000312268734 0.4278180003166199 -0.018331000581383705
v 0.010018999688327312 0.42108601331710815 -0.0190459992736578
v 0.012090999633073807 0.4229719936847687 -0.01814199984073639
v -0.040651001036167145 0.44392600655555725 -0.12852799892425537
v -0.04531800001859665 0.44654300808906555 -0.13540099561214447
v -0.04114900156855583 0.4445819854736328 -0.13206300139427185
v -0.03874899819493294 0.44416698813438416 -0.12933899462223053
v -0.03694299980998039 0.4445059895515442 -0.13007600605487823
v -0.03558899834752083 0.44394999742507935 -0.12720000743865967
v -0.03422800078988075 0.4432060122489929 -0.12498100101947784
v -0.04819900169968605 0.4486689865589142 -0.13942499458789825
v -0.05030500143766403 0.45644399523735046 -0.13940000534057617
v -0.052285999059677124 0.4566580057144165 -0.14791099727153778
v -0.045542001724243164 0.45585599541664124 -0.13471899926662445
v -0.040936000645160675 0.45451200008392334 -0.12646199762821198
v -0.04234899953007698 0.4548879861831665 -0.13062000274658203
v -0.0483429990708828 0.4569070041179657 -0.13909399509429932
v -0.0463780015707016 0.45673298835754395 -0.13739000260829926
v -0.03872000053524971 0.45444899797439575 -0.1265300065279007
v -0.03608199954032898 0.45326799154281616 -0.12850899994373322
v -0.03164000064134598 0.4506109952926636 -0.12784799933433533
v -0.033351000398397446 0.4518359899520874 -0.13022799789905548
v -0.023545999079942703 0.44263699650764465 -0.11881499737501144
v -0.03338799998164177 0.4519079923629761 -0.13466499745845795
v -0.03204299882054329 0.443803995847702 -0.12595699727535248
v -0.03351299837231636 0.4443250000476837 -0.12815800309181213
v -0.0348920002579689 0.4448460042476654 -0.13093499839305878
v -0.03948400169610977 0.44464901089668274 -0.13279399275779724
v -0.03470100089907646 0.44630900025367737 -0.1463479995727539
v -0.028540000319480896 0.448839008808136 -0.14997300505638123
v -0.03510599955916405 0.4462699890136719 -0.14221200346946716
v -0.0334709994494915 0.4524869918823242 -0.14056600630283356
v 0.020073000341653824 0.42698898911476135 -0.025025999173521996
v 0.020987000316381454 0.4277380108833313 -0.027132000774145126
v 0.022151000797748566 0.42545101046562195 -0.028051000088453293
v 0.021124999970197678 0.419530987739563 -0.027101999148726463
v 0.020980000495910645 0.4247319996356964 -0.026048999279737473
v 0.02009500004351139 0.4158110022544861 -0.02774599939584732
v 0.019612999632954597 0.4177060127258301 -0.027065999805927277
v 0.006314000114798546 0.41326799988746643 -0.02963300049304962
v 0.004075000062584877 0.41415899991989136 -0.029248999431729317
v 0.012032000347971916 0.4130780100822449 -0.028403999283909798
v 0.01356200035661459 0.41440799832344055 -0.027705000713467598
v 0.016784999519586563 0.4149799942970276 -0.02737399935722351
v 0.009662999771535397 0.419295996427536 -0.020672999322414398
v 0.013848000206053257 0.4231480062007904 -0.018890999257564545
v 0.015814000740647316 0.4253759980201721 -0.01969599910080433
v -0.03832799941301346 0.4457019865512848 -0.14901700615882874
v -0.04037100076675415 0.44627898931503296 -0.15205200016498566
v -0.04526999965310097 0.4470820128917694 -0.14016300439834595
v -0.04676000028848648 0.44798898696899414 -0.14042599499225616
v -0.04007599875330925 0.44646400213241577 -0.1551239937543869
v -0.04452800005674362 0.4525339901447296 -0.16370999813079834
v -0.04773499816656113 0.4611450135707855 -0.14893099665641785
v -0.049573998898267746 0.46112000942230225 -0.14905700087547302
v -0.04328899830579758 0.4561690092086792 -0.1356309950351715
v -0.03968999907374382 0.4548789858818054 -0.13104799389839172
v -0.04613399878144264 0.4589439928531647 -0.14400799572467804
v -0.04368099942803383 0.45743998885154724 -0.1414009928703308
v -0.03650600090622902 0.4536229968070984 -0.13310599327087402
v -0.036844998598098755 0.4543820023536682 -0.13898099958896637
v -0.03718800097703934 0.4458619952201843 -0.1418289989233017
v -0.02979999966919422 0.4457300007343292 -0.1553190052509308
v -0.03502500057220459 0.4449650049209595 -0.15721899271011353
v -0.036708999425172806 0.44593900442123413 -0.14580200612545013
v -0.028843000531196594 0.4515250027179718 -0.15997900068759918
v -0.02749199979007244 0.4481480121612549 -0.1584790050983429
v -0.0366629995405674 0.45489999651908875 -0.14464500546455383
v 0.016478000208735466 0.419185996055603 -0.025180000811815262
v 0.01511400006711483 0.4230180084705353 -0.02015800029039383
v -0.03767300024628639 0.4453960061073303 -0.1549540013074875
v -0.04336699843406677 0.4514540135860443 -0.1645040065050125
v -0.04387599974870682 0.45392900705337524 -0.16464999318122864
v -0.04644099995493889 0.4616590142250061 -0.15802200138568878
v -0.038927000015974045 0.4575369954109192 -0.15204299986362457
v -0.04221300035715103 0.4614810049533844 -0.15563499927520752
v -0.04104600101709366 0.4598029851913452 -0.15381699800491333
v -0.04503500089049339 0.46273699402809143 -0.15751999616622925
v -0.040396999567747116 0.4567500054836273 -0.14308799803256989
v -0.04019999876618385 0.4557879865169525 -0.1372089982032776
v -0.02948099933564663 0.4471679925918579 -0.16396500170230865
v -0.039914000779390335 0.44832101464271545 -0.1655389964580536
v -0.037174999713897705 0.44770199060440063 -0.16626900434494019
v -0.03928200155496597 0.45910799503326416 -0.15785400569438934
v -0.03715899959206581 0.45694500207901 -0.15503700077533722
v -0.03817100077867508 0.4580030143260956 -0.1600559949874878
v -0.03731299936771393 0.4562070071697235 -0.16242800652980804
v -0.04210999980568886 0.45228898525238037 -0.16651999950408936
v -0.04329700022935867 0.4568040072917938 -0.16392399370670319
v -0.04022999852895737 0.46015700697898865 -0.16122199594974518
v -0.03926699981093407 0.45855000615119934 -0.1552869975566864
v -0.04125899821519852 0.46116000413894653 -0.1585880070924759
v -0.038683999329805374 0.4493440091609955 -0.1673009991645813
v -0.0396369993686676 0.4597010016441345 -0.15967799723148346
f 1 2 3
f 3 4 1
f 2 1 5
f 1 6 5
f 4 6 1
f 7 3 2
f 8 2 9
f 2 10 11
f 2 11 9
f 2 5 10
f 12 2 8
f 12 7 2
f 13 14 3
f 15 13 3
f 4 3 14
f 3 7 15
f 16 6 4
f 14 16 4
f 5 17 10
f 5 6 18
f 5 19 17
f 5 20 19
f 5 21 20
f 5 18 21
f 22 18 6
f 22 6 23
f 16 23 6
f 15 7 24
f 25 24 7
f 7 26 25
f 7 27 26
f 7 28 27
f 29 28 7
f 7 12 29
f 9 30 8
f 12 8 30
f 30 9 31
f 9 11 32
f 9 32 31
f 11 10 33
f 10 34 33
f 35 10 17
f 34 10 35
f 32 11 33
f 29 12 36
f 36 12 37
f 12 30 37
f 13 38 14
f 15 24 13
f 13 24 39
f 40 38 13
f 40 13 39
f 16 14 41
f 38 41 14
f 16 42 43
f 44 23 16
f 42 16 41
f 45 16 43
f 44 16 45
f 35 17 46
f 17 19 46
f 18 47 21
f 18 48 47
f 48 18 22
f 49 19 50
f 19 20 51
f 51 52 19
f 19 52 50
f 53 19 49
f 19 53 46
f 51 20 21
f 54 21 47
f 55 51 21
f 55 21 56
f 21 54 57
f 56 21 57
f 58 22 23
f 48 22 58
f 59 23 44
f 23 59 58
f 60 24 25
f 39 24 60
f 25 61 60
f 62 25 63
f 61 25 62
f 26 63 25
f 27 63 26
f 27 64 65
f 65 66 27
f 63 27 66
f 67 68 27
f 69 67 27
f 69 27 28
f 64 27 68
f 69 28 70
f 71 70 28
f 28 72 71
f 29 72 28
f 38 73 29
f 29 36 38
f 29 71 72
f 73 71 29
f 74 30 31
f 74 75 30
f 37 30 75
f 76 74 31
f 31 32 76
f 34 76 32
f 34 32 33
f 76 34 35
f 46 76 35
f 41 38 36
f 42 41 36
f 37 77 36
f 36 78 79
f 78 36 77
f 36 80 42
f 79 80 36
f 75 77 37
f 81 38 40
f 38 81 73
f 82 40 39
f 39 83 84
f 83 39 60
f 39 85 86
f 84 85 39
f 87 82 39
f 39 86 87
f 81 40 82
f 42 80 43
f 43 88 45
f 89 43 80
f 88 43 89
f 44 45 90
f 91 44 90
f 91 92 44
f 92 59 44
f 45 93 94
f 88 93 45
f 90 45 94
f 76 46 95
f 53 96 46
f 46 96 95
f 54 47 97
f 47 48 98
f 47 98 99
f 97 47 99
f 58 59 48
f 98 48 59
f 49 50 55
f 100 49 101
f 55 101 49
f 53 49 100
f 50 52 55
f 51 55 52
f 53 100 102
f 103 104 53
f 103 53 102
f 104 96 53
f 105 54 97
f 57 54 105
f 106 55 107
f 55 106 101
f 55 108 107
f 56 108 55
f 108 56 109
f 56 110 109
f 105 56 57
f 111 56 105
f 110 56 111
f 59 112 98
f 112 59 92
f 60 113 114
f 113 60 61
f 60 114 115
f 60 115 83
f 61 116 117
f 118 113 61
f 119 120 61
f 116 61 120
f 117 118 61
f 119 61 121
f 62 121 61
f 62 63 122
f 122 121 62
f 63 123 124
f 125 63 124
f 122 63 125
f 63 66 123
f 64 126 65
f 126 64 127
f 64 68 127
f 65 126 128
f 128 66 65
f 128 123 66
f 127 68 67
f 67 129 127
f 67 69 130
f 71 67 130
f 131 129 67
f 131 67 71
f 69 70 130
f 130 70 71
f 71 73 131
f 87 73 81
f 132 73 87
f 73 132 131
f 75 74 133
f 74 76 133
f 75 134 77
f 134 75 133
f 135 76 95
f 133 76 135
f 134 136 77
f 137 138 77
f 139 140 77
f 77 141 78
f 136 137 77
f 138 139 77
f 77 142 141
f 140 142 77
f 78 143 79
f 78 144 143
f 141 144 78
f 145 79 143
f 80 79 145
f 80 146 89
f 146 80 147
f 147 80 148
f 80 145 148
f 82 87 81
f 83 85 84
f 83 115 149
f 83 149 85
f 86 85 150
f 85 149 151
f 85 151 150
f 152 153 86
f 87 86 154
f 153 154 86
f 86 150 152
f 87 154 132
f 146 88 89
f 88 146 93
f 91 90 155
f 94 155 90
f 156 91 157
f 91 156 92
f 91 155 157
f 156 112 92
f 94 93 158
f 93 146 159
f 93 159 158
f 94 160 155
f 158 160 94
f 95 96 135
f 104 135 96
f 97 99 105
f 99 98 161
f 112 162 98
f 98 162 161
f 105 99 163
f 161 163 99
f 164 100 101
f 102 100 164
f 101 142 164
f 101 165 142
f 106 165 101
f 164 103 102
f 103 140 104
f 103 164 140
f 166 135 104
f 104 139 138
f 104 138 166
f 104 140 139
f 105 163 167
f 105 168 111
f 167 168 105
f 169 106 107
f 169 165 106
f 109 107 108
f 169 107 109
f 109 111 170
f 171 169 109
f 109 110 111
f 170 171 109
f 168 172 111
f 172 173 111
f 111 173 170
f 112 156 162
f 174 114 113
f 113 175 176
f 113 176 174
f 175 113 118
f 114 177 178
f 177 114 174
f 178 179 114
f 115 114 179
f 149 115 180
f 115 179 180
f 181 117 116
f 120 182 116
f 182 183 116
f 116 183 181
f 118 117 175
f 117 181 175
f 119 184 120
f 185 119 121
f 186 184 119
f 186 119 185
f 187 182 120
f 188 187 120
f 120 184 188
f 121 122 185
f 122 125 128
f 122 128 189
f 122 189 185
f 128 124 123
f 125 124 128
f 189 128 126
f 189 126 190
f 127 191 126
f 126 192 190
f 192 126 191
f 127 129 191
f 129 131 193
f 194 192 129
f 195 196 129
f 197 198 129
f 197 129 196
f 193 195 129
f 129 199 200
f 201 199 129
f 201 129 198
f 202 194 129
f 202 129 200
f 192 191 129
f 131 132 193
f 153 132 154
f 132 153 152
f 193 132 152
f 135 134 133
f 136 134 135
f 135 166 136
f 136 166 137
f 166 138 137
f 140 164 142
f 142 165 141
f 141 203 204
f 141 165 203
f 141 205 144
f 141 204 205
f 144 205 143
f 145 143 205
f 206 148 145
f 205 207 145
f 206 145 207
f 146 147 208
f 208 159 146
f 208 147 209
f 209 147 206
f 147 148 206
f 180 151 149
f 193 152 150
f 150 151 195
f 195 193 150
f 195 151 180
f 157 155 160
f 157 210 156
f 156 211 161
f 161 162 156
f 210 211 156
f 212 210 157
f 160 212 157
f 213 158 214
f 212 160 158
f 212 158 213
f 158 159 214
f 214 159 208
f 211 163 161
f 163 215 167
f 163 211 210
f 163 210 215
f 203 165 169
f 215 168 167
f 168 215 172
f 169 171 203
f 170 173 216
f 216 217 170
f 217 171 170
f 217 203 171
f 215 173 172
f 215 216 173
f 198 177 174
f 174 176 198
f 218 176 175
f 175 219 218
f 219 175 220
f 175 221 220
f 175 181 221
f 218 198 176
f 177 198 178
f 198 197 178
f 197 179 178
f 197 196 179
f 180 179 196
f 196 195 180
f 222 219 181
f 223 181 183
f 223 222 181
f 219 221 181
f 182 187 224
f 182 225 183
f 224 225 182
f 225 223 183
f 184 186 226
f 188 184 226
f 185 189 227
f 227 186 185
f 226 186 227
f 187 228 224
f 187 188 228
f 226 229 188
f 228 188 229
f 227 189 190
f 190 230 227
f 192 230 190
f 192 194 230
f 194 202 231
f 231 230 194
f 198 232 201
f 218 232 198
f 199 233 200
f 234 199 218
f 218 199 235
f 234 233 199
f 199 201 232
f 199 232 235
f 236 202 200
f 237 200 233
f 236 200 237
f 202 236 238
f 202 238 231
f 204 203 207
f 203 217 239
f 239 207 203
f 204 207 205
f 239 209 206
f 239 206 207
f 209 214 208
f 239 214 209
f 210 212 213
f 213 215 210
f 213 214 239
f 213 239 215
f 215 240 216
f 215 239 240
f 217 216 240
f 217 240 239
f 241 218 219
f 241 234 218
f 235 232 218
f 219 220 221
f 219 222 241
f 223 242 222
f 234 222 242
f 234 241 222
f 242 223 243
f 225 244 223
f 223 244 243
f 245 224 238
f 246 224 247
f 248 225 224
f 224 229 249
f 228 229 224
f 224 249 238
f 224 245 247
f 224 246 248
f 225 248 244
f 250 229 226
f 227 250 226
f 250 227 230
f 250 249 229
f 250 230 231
f 249 250 231
f 231 238 249
f 251 233 234
f 251 237 233
f 242 252 234
f 253 251 234
f 253 234 252
f 236 254 255
f 254 236 256
f 256 236 257
f 257 236 251
f 237 251 236
f 236 255 238
f 238 255 245
f 243 258 242
f 252 242 258
f 243 244 259
f 259 258 243
f 248 260 244
f 244 260 259
f 245 261 247
f 255 261 245
f 247 262 246
f 262 248 246
f 261 262 247
f 260 248 262
f 263 257 251
f 253 263 251
f 258 263 252
f 253 252 263
f 254 261 255
f 261 254 262
f 262 254 264
f 256 264 254
f 257 264 256
f 257 263 260
f 257 260 264
f 260 258 259
f 263 258 260
f 262 264 260
