# Generated by Visualization Toolkit
v 0.003909999970346689 -0.006023999769240618 -0.0512549988925457
v 0.00572500005364418 0.003011000109836459 -0.04836200177669525
v 0.004654000047594309 -0.007081000134348869 -0.043529000133275986
v 0.005396000109612942 -0.009371000342071056 -0.0409649983048439
v 0.006324999965727329 -0.008825000375509262 -0.05277099832892418
v 0.0002579999854788184 -0.006161999888718128 -0.07111799716949463
v -0.0010870000114664435 -0.002997000003233552 -0.07018599659204483
v -0.0032389999832957983 0.004046000074595213 -0.08168400079011917
v 0.006794999819248915 0.00368200009688735 -0.029566999524831772
v 0.007859000004827976 0.004497000016272068 -0.029949000105261803
v 0.005510000046342611 0.0029349999967962503 -0.028725000098347664
v 0.003924999851733446 0.002320999978110194 -0.027645999565720558
v 0.002732000080868602 -0.001006999984383583 -0.029520999640226364
v 0.012296999804675579 0.005042999982833862 -0.045166999101638794
v 0.0019460000330582261 -0.010900000110268593 -0.026876000687479973
v 0.009197000414133072 -0.012817000038921833 -0.01597600057721138
v 0.014574999921023846 -0.009405000135302544 -0.03674300014972687
v 0.011433999985456467 -0.0025190000887960196 -0.07621199637651443
v -0.007906000129878521 -0.0036609999369829893 -0.08788199722766876
v -0.0025239998940378428 -0.004652999807149172 -0.09368699789047241
v 0.000977999996393919 -0.005317999981343746 -0.08799800276756287
v -0.017024999484419823 0.00611699977889657 -0.10383699834346771
v -0.013673000037670135 0.00977999996393919 -0.1036669984459877
v -0.006384999956935644 0.00634999992325902 -0.10961200296878815
v -0.0021869998890906572 0.004557999782264233 -0.0957610011100769
v 0.011257999576628208 0.002570000011473894 -0.07500100135803223
v 0.007368999999016523 0.004050000105053186 -0.026443000882864
v 0.00837399996817112 0.004772000014781952 -0.028304999694228172
v 0.006264000199735165 0.0032760000322014093 -0.02625500038266182
v 0.005042000208050013 0.0027089999057352543 -0.026643000543117523
v 0.004815000109374523 0.0026680000592023134 -0.024946000427007675
v 0.002343999920412898 0.0020890000741928816 -0.02169100008904934
v 0.0036410000175237656 0.002280999906361103 -0.023158999159932137
v -0.004757000133395195 -0.009259999729692936 -0.01591300033032894
v 0.0011950000189244747 0.0021279999054968357 -0.0176790002733469
v -0.0004199999966658652 0.0023300000466406345 -0.01283000037074089
v -0.0043739997781813145 0.0023590000346302986 -0.0005789999850094318
v 0.017806999385356903 0.0011180000146850944 -0.029083000496029854
v 0.01360000018030405 0.0055599999614059925 -0.028560999780893326
v -0.003967999946326017 -0.011870999820530415 -0.016248999163508415
v -0.0023449999280273914 -0.013782000169157982 -0.016138000413775444
v 0.012880999594926834 -0.01071999967098236 -0.004821000155061483
v 0.015691999346017838 -0.005563000217080116 -0.01582000032067299
v 0.001639000023715198 -0.01580199971795082 -0.011776000261306763
v 0.007837999612092972 -0.015254000201821327 -0.005235000047832727
v 0.0027230000123381615 -0.004143000114709139 -0.08927799761295319
v 0.0037499999161809683 0.0006050000083632767 -0.09818000346422195
v -0.011854000389575958 -0.002867999952286482 -0.09838899970054626
v -0.00010099999781232327 -0.004999999888241291 -0.09060599654912949
v -0.0069240001030266285 -0.0037010000087320805 -0.1055459976196289
v -0.00862099975347519 -0.0033889999613165855 -0.10737700015306473
v -0.0022140000946819782 -0.002715999959036708 -0.10265299677848816
v -0.005673999898135662 -0.003493000054731965 -0.10638999938964844
v 0.000981000019237399 -0.004095000214874744 -0.09245999902486801
v -0.018441999331116676 0.0011350000277161598 -0.11508999764919281
v -0.015157000161707401 0.011152000166475773 -0.10619299858808517
v -0.01617399975657463 0.009002000093460083 -0.11341000348329544
v -0.008863000199198723 0.007573999930173159 -0.1129010021686554
v -0.006134000141173601 0.006107000168412924 -0.11283499747514725
v -0.008941000327467918 0.007841999642550945 -0.11110799759626389
v -0.00446499977260828 0.005179999861866236 -0.11033599823713303
v 0.0002699999895412475 0.003539999946951866 -0.10366100072860718
v -0.0007379999733529985 0.004379999823868275 -0.09762900322675705
v 0.0021520000882446766 0.004104999825358391 -0.09444999694824219
v 0.005009000189602375 0.0038670001085847616 -0.09128300100564957
v 0.005665999837219715 0.004734999965876341 -0.0870010033249855
v 0.007701999973505735 0.004112999886274338 -0.024726999923586845
v 0.006221000105142593 0.0032190000638365746 -0.024104999378323555
v 0.009545999579131603 0.004867999814450741 -0.02268500067293644
v 0.005239000078290701 0.0019359999569132924 -0.01652500033378601
v -0.007422999944537878 -0.010364999994635582 -0.012399000115692616
v -0.007147999946027994 -0.01232299953699112 -0.013509999960660934
v 0.001973999897018075 0.004273000173270702 -0.008387000299990177
v 0.004224999807775021 0.004153000190854073 -0.010304000228643417
v -0.000007000000096013537 0.002982999896630645 -0.010603999719023705
v 0.000813000020571053 0.003700000001117587 -0.009602000005543232
v 0.00521400012075901 0.0019970000721514225 -0.012764999642968178
v -0.0059819999150931835 -0.002933999989181757 -0.003916999790817499
v 0.0002209999947808683 0.005927000194787979 -0.0013909999979659915
v -0.0043669999577105045 0.0026579999830573797 0.0009210000280290842
v -0.005111999809741974 -0.00026199998683296144 -0.0013389999512583017
v 0.013981999829411507 0.0038789999671280384 -0.014398000203073025
v 0.015085999853909016 -0.0047240001149475574 -0.001167000038549304
v 0.015623999759554863 -0.0007510000141337514 -0.004275000188499689
v 0.014457999728620052 -0.006556000094860792 -0.0007789999945089221
v -0.005226000212132931 -0.013088000006973743 -0.014786999672651291
v -0.006147000007331371 -0.013524999842047691 -0.013307999819517136
v 0.011074000038206577 -0.012376000173389912 -0.00279999990016222
v 0.012668999843299389 -0.010312000289559364 -0.0026489999145269394
v 0.0052200001664459705 -0.015455000102519989 -0.004242999944835901
v 0.001643999945372343 -0.015603000298142433 -0.006118999794125557
v -0.002500999951735139 -0.015328999608755112 -0.009700000286102295
v 0.007133999839425087 -0.014922999776899815 -0.0032210000790655613
v 0.008960000239312649 -0.013426000252366066 -0.001981999957934022
v 0.0004309999931138009 -0.0023300000466406345 -0.10165999829769135
v 0.0018129999516531825 0.0010900000343099236 -0.10531900078058243
v -0.010378999635577202 -0.002174000022932887 -0.11528699845075607
v -0.016184000298380852 -0.0015279999934136868 -0.11564400047063828
v -0.00966500025242567 -0.002520000096410513 -0.11278600245714188
v -0.00885900016874075 -0.0029120000544935465 -0.11064600199460983
v -0.0005939999828115106 -0.002248999895527959 -0.10211800038814545
v -0.00011700000322889537 -0.0017729999963194132 -0.10232499986886978
v -0.005177999846637249 -0.0026549999602138996 -0.10893400013446808
v -0.0012019999558106065 -0.0027779999654740095 -0.1018889993429184
v -0.006558000110089779 -0.0023769999388605356 -0.11122100055217743
v -0.017590999603271484 0.0005029999883845448 -0.1280129998922348
v -0.019416000694036484 0.003217000048607588 -0.12757499516010284
v -0.01741199940443039 -0.000007999999979801942 -0.12371999770402908
v -0.016008999198675156 0.007166000083088875 -0.12890200316905975
v -0.015375000424683094 0.00790099985897541 -0.11952199786901474
v -0.015825999900698662 0.008442999795079231 -0.11584500223398209
v -0.012008000165224075 0.009399999864399433 -0.11193399876356125
v -0.010777999646961689 0.0088919997215271 -0.11172199994325638
v -0.01291900034993887 0.009472999721765518 -0.11334999650716782
v -0.014341999776661396 0.009297999553382397 -0.11350099742412567
v -0.011808999814093113 0.008822999894618988 -0.11510200053453445
v -0.005843999795615673 0.005921000149101019 -0.11580699682235718
v -0.004459000192582607 0.005055000074207783 -0.11352799832820892
v 0.0010369999799877405 0.0007740000146441162 -0.12496999651193619
v 0.0009820000268518925 0.004023999907076359 -0.09842699766159058
v 0.008658000268042088 0.00417400011792779 -0.022657999768853188
v 0.006790999788790941 0.0030990000814199448 -0.0201409999281168
v 0.007980000227689743 0.0032820000778883696 -0.01829800009727478
v 0.009976999834179878 0.004730000160634518 -0.020431999117136
v 0.006446000188589096 0.0025190000887960196 -0.01670899987220764
v -0.006878000218421221 -0.005444999784231186 -0.005617999937385321
v -0.007412000093609095 -0.012245000340044498 -0.012125999666750431
v -0.007271999958902597 -0.010226000100374222 -0.007885999977588654
v 0.004290999844670296 0.006147999782115221 -0.002259999979287386
v 0.005545999854803085 0.004381999839097261 -0.009208999574184418
v 0.00571200018748641 0.003232999937608838 -0.010703000240027905
v 0.007075999863445759 0.0028929999098181725 -0.014236999675631523
v 0.006852999795228243 0.003493000054731965 -0.010389000177383423
v -0.0063240001909434795 -0.0059819999150931835 -0.003254000097513199
v -0.0001289999927394092 0.0058479998260736465 0.0017470000311732292
v 0.001769999973475933 0.006175999995321035 0.001285000005736947
v -0.0018360000103712082 0.0051020001992583275 0.001934999949298799
v -0.0014299999456852674 0.0040799998678267 0.0032730000093579292
v -0.0031079999171197414 0.002560999942943454 0.002630000002682209
v -0.0020759999752044678 -0.002222999930381775 0.004137999843806028
v 0.009882999584078789 0.004526000004261732 -0.018168000504374504
v 0.009321000427007675 0.0042500002309679985 -0.013410000130534172
v 0.009610000066459179 0.00433199992403388 -0.015843000262975693
v 0.007984999567270279 0.004377000033855438 -0.009565000422298908
v 0.008891000412404537 0.004251000005751848 -0.011133999563753605
v 0.012570000253617764 0.0028810000512748957 -0.00430699996650219
v 0.008244000375270844 0.004720999859273434 -0.006283999886363745
v 0.014952999539673328 -0.0008060000254772604 -0.002966000000014901
v 0.013875000178813934 -0.004495000001043081 -0.0006510000093840063
v 0.01385200023651123 0.0006120000034570694 -0.003358999965712428
v 0.01233499962836504 -0.009991000406444073 -0.0008559999987483025
v 0.011889999732375145 -0.008268999867141247 -0.0003760000108741224
v 0.013016000390052795 -0.006345999892801046 -0.0003169999981764704
v -0.004664999898523092 -0.014485999941825867 -0.010883999988436699
v 0.004091000184416771 -0.01489999983459711 -0.003965999931097031
v 0.0021989999804645777 -0.014670000411570072 -0.004718999844044447
v -0.004304000176489353 -0.014128999784588814 -0.008744999766349792
v 0.005791000090539455 -0.012570999562740326 -0.0019950000569224358
v 0.004623999819159508 -0.013875000178813934 -0.0028150000143796206
v 0.008918999694287777 -0.01153200026601553 -0.0009879999561235309
v 0.0004619999963324517 -0.001133000012487173 -0.10424699634313583
v -0.008275000378489494 -0.0019249999895691872 -0.11950600147247314
v -0.010224999859929085 -0.0022460001055151224 -0.11937300115823746
v -0.01228999998420477 -0.002463999902829528 -0.11922100186347961
v -0.007987000048160553 -0.0019229999743402004 -0.11629100143909454
v -0.011548000387847424 -0.0024240000639110804 -0.12277399748563766
v -0.014324000105261803 -0.0012860000133514404 -0.12760700285434723
v -0.007466999813914299 -0.002213000087067485 -0.11365000158548355
v -0.005080000031739473 -0.0016540000215172768 -0.11392100155353546
v -0.01565600000321865 -0.000019999999494757503 -0.13267099857330322
v -0.017643000930547714 0.0075170001946389675 -0.1347070038318634
v -0.016592999920248985 0.006221000105142593 -0.1432880014181137
v -0.015904000028967857 0.00813900027424097 -0.13384400308132172
v -0.014767000451683998 0.007984000258147717 -0.12867000699043274
v -0.014639999717473984 0.0083619998767972 -0.13157500326633453
v -0.013264000415802002 0.008280999958515167 -0.11924300342798233
v -0.013170000165700912 0.007890000008046627 -0.1236329972743988
v -0.011157999746501446 0.008340000174939632 -0.11854899674654007
v -0.00800199992954731 0.007011000066995621 -0.11928699910640717
v -0.00405400013551116 0.004765999969094992 -0.11671700328588486
v -0.004848000127822161 0.005483000073581934 -0.11970899999141693
v -0.0033650000113993883 0.004825999960303307 -0.12383999675512314
v -0.005708000157028437 -0.0015869999770075083 -0.1165430024266243
v -0.009734000079333782 -0.0023789999540895224 -0.12290100008249283
v -0.006053999997675419 -0.0016090000281110406 -0.11966799944639206
v 0.006426000036299229 -0.00040499999886378646 -0.1358409970998764
v -0.00060299999313429 -0.002672000089660287 -0.13412199914455414
v -0.0023990001063793898 -0.002059000078588724 -0.13042399287223816
v -0.0014250000240281224 0.004428999964147806 -0.12942899763584137
v 0.00834800023585558 0.003593999892473221 -0.016162000596523285
v -0.0060789999552071095 -0.01216300018131733 -0.008294000290334225
v -0.0061530000530183315 -0.013159999623894691 -0.009890000335872173
v -0.0058650001883506775 -0.011040999554097652 -0.006816000211983919
v 0.006852999795228243 0.004478999879211187 -0.008709000423550606
v 0.006256000138819218 0.005491000134497881 -0.0006590000120922923
v -0.004569000098854303 -0.006461999844759703 -0.0014189999783411622
v -0.0037960000336170197 -0.004989000037312508 0.001117000007070601
v 0.001981999957934022 0.004637000150978565 0.002964999992400408
v 0.0002880000101868063 0.0007580000092275441 0.004588000010699034
v 0.002194999950006604 0.002951999893411994 0.004255000036209822
v -0.0021200000774115324 -0.004083000123500824 0.003128000069409609
v -0.0004820000031031668 -0.0019549999851733446 0.004335000179708004
v 0.010951999574899673 0.0017999999690800905 -0.0018149999668821692
v 0.009371999651193619 0.0013520000502467155 -0.00004400000034365803
v 0.012360000051558018 -0.0005329999839887023 -0.0018769999733194709
v 0.01107100024819374 -0.006269000004976988 -0.00031599999056197703
v 0.010575000196695328 -0.0009840000420808792 -0.00029399999766610563
v 0.010324000380933285 -0.010099000297486782 -0.0006120000034570694
v 0.009638000279664993 -0.008150000125169754 -0.00047500000800937414
v -0.0019809999503195286 -0.013729999773204327 -0.006558999884873629
v 0.0029720000457018614 -0.013376000337302685 -0.003464000066742301
v -0.004215999972075224 -0.012923000380396843 -0.00711200013756752
v 0.0070859999395906925 -0.011052999645471573 -0.0012390000047162175
v 0.004170999862253666 -0.011862000450491905 -0.0025309999473392963
v -0.0030990000814199448 -0.003920000046491623 -0.13770799338817596
v -0.003980000037699938 -0.003967999946326017 -0.14130499958992004
v -0.012651000171899796 -0.0015279999934136868 -0.13209199905395508
v -0.013961000367999077 -0.0007670000195503235 -0.13299499452114105
v -0.0026519999373704195 -0.004269999917596579 -0.1440799981355667
v -0.0038999998942017555 0.00004199999966658652 -0.1545799970626831
v -0.01196799986064434 0.010742999613285065 -0.14347800612449646
v -0.013652999885380268 0.010588999837636948 -0.14420999586582184
v -0.012147000059485435 0.009473999962210655 -0.1380009949207306
v -0.012338999658823013 0.008276999928057194 -0.12880900502204895
v -0.010734000243246555 0.008564000017940998 -0.13450099527835846
v -0.01052400004118681 0.007968000136315823 -0.12313099950551987
v -0.006829000078141689 0.006585000082850456 -0.12374600023031235
v -0.0051369997672736645 0.006353999953716993 -0.12942799925804138
v -0.004486000165343285 -0.0025220001116394997 -0.1307000070810318
v 0.009562999941408634 0.0005890000029467046 -0.14566799998283386
v 0.007071000058203936 -0.004414999857544899 -0.1406719982624054
v 0.010320000350475311 -0.00241199997253716 -0.14323900640010834
v 0.0028099999763071537 -0.005787999834865332 -0.1440580040216446
v -0.0026779999025166035 -0.003066000062972307 -0.13422800600528717
v -0.003029000014066696 0.005950000137090683 -0.13469800353050232
v -0.0018980000168085098 -0.006132999900728464 0.0018129999516531825
v 0.0014250000240281224 -0.0017999999690800905 0.0042039998807013035
v 0.003548000007867813 0.0003800000122282654 0.003734000027179718
v 0.006047000177204609 -0.006570999976247549 -0.000043000000005122274
v -0.0004529999860096723 -0.005150999873876572 -0.14292800426483154
v -0.0025369999930262566 -0.0010819999733939767 -0.1547359973192215
v -0.002964999992400408 0.0013010000111535192 -0.15547199547290802
v -0.0076430002227425575 0.009843000210821629 -0.15154500305652618
v -0.0026259999722242355 0.007205999922007322 -0.14276400208473206
v -0.004011000040918589 0.00902200024574995 -0.14551399648189545
v -0.004484999924898148 0.010308999568223953 -0.14788100123405457
v -0.0064929998479783535 0.011070000007748604 -0.15079399943351746
v -0.007071000058203936 0.0078039998188614845 -0.13483600318431854
v -0.008895999751985073 0.007828000001609325 -0.12916199862957
v 0.00005900000178371556 0.006238999776542187 -0.14483800530433655
v -0.0009730000165291131 0.0077840001322329044 -0.14853499829769135
v 0.0008239999879151583 0.006401999853551388 -0.1500069946050644
v 0.002440999960526824 0.004296999890357256 -0.15160100162029266
v 0.010328000411391258 -0.004391000140458345 -0.14881600439548492
v 0.0010610000463202596 -0.004131999798119068 -0.15398700535297394
v 0.003886000020429492 -0.00469799991697073 -0.1536320000886917
v 0.0030479999259114265 -0.002059000078588724 0.0034799999557435513
v -0.0006670000148005784 -0.000514000013936311 -0.15632300078868866
v -0.0026700000744313 0.0042849997989833355 -0.15510399639606476
v -0.0007120000082068145 0.008209999650716782 -0.15215399861335754
v -0.0018370000179857016 0.007652999833226204 -0.14605799317359924
v -0.002580000087618828 0.009566999971866608 -0.15023599565029144
v -0.0006830000202171504 0.008049000054597855 -0.15044499933719635
v 0.0028210000600665808 -0.003338000038638711 -0.1553809940814972
f 3 2 1
f 1 4 3
f 6 5 1
f 7 6 1
f 4 1 5
f 1 8 7
f 8 1 2
f 10 2 9
f 2 12 11
f 2 11 9
f 2 13 12
f 2 3 13
f 14 2 10
f 14 8 2
f 3 15 13
f 4 15 3
f 16 15 4
f 5 16 4
f 16 5 17
f 18 17 5
f 6 18 5
f 7 19 6
f 6 19 20
f 21 18 6
f 21 6 20
f 7 8 19
f 22 19 8
f 8 23 22
f 8 24 23
f 8 25 24
f 26 25 8
f 8 14 26
f 28 9 27
f 9 28 10
f 9 11 29
f 9 29 27
f 14 10 28
f 11 12 30
f 29 11 30
f 12 31 30
f 13 32 12
f 33 12 32
f 31 12 33
f 13 15 34
f 13 35 32
f 13 36 35
f 13 37 36
f 13 34 37
f 26 14 38
f 38 14 39
f 14 28 39
f 40 34 15
f 40 15 41
f 16 41 15
f 16 43 42
f 44 41 16
f 43 16 17
f 45 16 42
f 44 16 45
f 17 18 38
f 43 17 38
f 46 18 21
f 18 46 47
f 18 47 26
f 26 38 18
f 48 19 22
f 20 19 48
f 49 21 20
f 20 51 50
f 51 20 48
f 20 53 52
f 50 53 20
f 54 49 20
f 20 52 54
f 46 21 49
f 22 55 48
f 57 22 56
f 55 22 57
f 23 56 22
f 24 56 23
f 24 59 58
f 58 60 24
f 56 24 60
f 62 61 24
f 63 62 24
f 63 24 25
f 59 24 61
f 63 25 64
f 65 64 25
f 25 66 65
f 26 66 25
f 26 65 66
f 47 65 26
f 68 67 27
f 27 29 68
f 67 28 27
f 67 69 28
f 39 28 69
f 31 68 29
f 31 29 30
f 68 31 33
f 33 32 70
f 32 35 70
f 70 68 33
f 34 71 37
f 34 72 71
f 72 34 40
f 74 35 73
f 35 36 75
f 75 76 35
f 35 76 73
f 77 35 74
f 35 77 70
f 75 36 37
f 78 37 71
f 79 75 37
f 79 37 80
f 37 78 81
f 80 37 81
f 39 82 38
f 38 84 83
f 84 38 82
f 38 85 43
f 83 85 38
f 69 82 39
f 86 40 41
f 72 40 86
f 87 41 44
f 41 87 86
f 42 88 45
f 43 85 42
f 89 42 85
f 88 42 89
f 44 45 90
f 91 44 90
f 91 92 44
f 92 87 44
f 45 94 93
f 88 94 45
f 90 45 93
f 54 47 46
f 49 54 46
f 95 47 54
f 65 47 96
f 47 95 96
f 48 98 97
f 98 48 55
f 48 97 99
f 48 99 51
f 51 53 50
f 51 99 100
f 51 100 53
f 102 101 52
f 52 53 103
f 54 52 104
f 101 104 52
f 52 103 102
f 53 100 105
f 53 105 103
f 54 104 95
f 55 107 106
f 108 98 55
f 110 109 55
f 107 55 109
f 106 108 55
f 110 55 111
f 57 111 55
f 56 113 112
f 114 56 112
f 115 56 114
f 57 56 115
f 56 60 113
f 115 111 57
f 58 117 116
f 59 117 58
f 116 60 58
f 117 59 118
f 59 61 118
f 116 113 60
f 118 61 62
f 62 119 118
f 62 63 120
f 65 62 120
f 96 119 62
f 96 62 65
f 63 64 120
f 120 64 65
f 69 67 121
f 67 68 121
f 68 70 122
f 123 68 122
f 121 68 123
f 69 124 82
f 124 69 121
f 77 125 70
f 70 125 122
f 78 71 126
f 71 72 127
f 71 127 128
f 126 71 128
f 86 87 72
f 127 72 87
f 74 73 79
f 73 76 79
f 130 74 129
f 79 129 74
f 77 74 130
f 75 79 76
f 77 130 131
f 133 132 77
f 133 77 131
f 132 125 77
f 134 78 126
f 81 78 134
f 136 79 135
f 79 136 129
f 79 137 135
f 80 137 79
f 137 80 138
f 80 139 138
f 134 80 81
f 140 80 134
f 139 80 140
f 124 141 82
f 143 142 82
f 145 144 82
f 82 146 84
f 141 143 82
f 142 145 82
f 82 147 146
f 144 147 82
f 84 148 83
f 149 83 148
f 85 83 149
f 84 150 148
f 146 150 84
f 85 151 89
f 151 85 152
f 152 85 153
f 85 149 153
f 87 154 127
f 154 87 92
f 151 88 89
f 88 151 94
f 91 90 155
f 93 155 90
f 157 91 156
f 91 157 92
f 91 155 156
f 157 154 92
f 93 94 158
f 93 159 155
f 158 159 93
f 94 151 160
f 94 160 158
f 101 95 104
f 95 101 102
f 96 95 161
f 161 95 102
f 119 96 161
f 97 163 162
f 164 97 98
f 163 97 164
f 162 165 97
f 99 97 165
f 98 167 166
f 98 166 164
f 167 98 108
f 100 99 168
f 99 165 168
f 168 105 100
f 161 102 103
f 103 105 169
f 169 161 103
f 169 105 168
f 170 106 107
f 108 106 167
f 106 170 167
f 109 171 107
f 171 172 107
f 107 172 170
f 173 171 109
f 110 174 109
f 175 173 109
f 109 174 175
f 176 110 111
f 177 174 110
f 177 110 176
f 111 115 176
f 116 112 113
f 114 112 116
f 115 114 116
f 115 116 178
f 115 178 176
f 178 116 117
f 178 117 179
f 118 180 117
f 117 181 179
f 181 117 180
f 118 119 180
f 182 181 119
f 169 183 119
f 185 184 119
f 185 119 183
f 161 169 119
f 119 187 186
f 188 187 119
f 188 119 184
f 189 182 119
f 189 119 186
f 181 180 119
f 123 124 121
f 122 125 123
f 132 123 125
f 190 123 132
f 141 124 123
f 123 190 141
f 126 128 134
f 128 127 191
f 154 192 127
f 127 192 191
f 134 128 193
f 191 193 128
f 194 130 129
f 129 147 194
f 129 195 147
f 136 195 129
f 131 130 194
f 194 133 131
f 132 145 142
f 132 142 190
f 132 144 145
f 133 144 132
f 133 194 144
f 134 193 196
f 134 197 140
f 196 197 134
f 198 136 135
f 138 135 137
f 198 135 138
f 198 195 136
f 138 140 199
f 200 198 138
f 138 139 140
f 199 200 138
f 197 201 140
f 201 202 140
f 140 202 199
f 141 190 143
f 190 142 143
f 144 194 147
f 147 195 146
f 146 204 203
f 146 195 204
f 146 205 150
f 146 203 205
f 150 205 148
f 149 148 205
f 206 153 149
f 205 207 149
f 206 149 207
f 151 152 208
f 208 160 151
f 208 152 209
f 209 152 206
f 152 153 206
f 154 157 192
f 156 155 159
f 156 210 157
f 211 210 156
f 159 211 156
f 157 212 191
f 191 192 157
f 210 212 157
f 214 158 213
f 211 159 158
f 211 158 214
f 158 160 213
f 213 160 208
f 184 185 162
f 163 184 162
f 185 165 162
f 184 163 164
f 164 166 184
f 185 183 165
f 168 165 183
f 215 166 167
f 215 184 166
f 167 216 215
f 216 167 217
f 167 218 217
f 167 170 218
f 183 169 168
f 219 216 170
f 220 170 172
f 220 219 170
f 216 218 170
f 171 173 221
f 171 222 172
f 221 222 171
f 222 220 172
f 173 223 221
f 173 175 223
f 174 177 224
f 175 174 224
f 224 225 175
f 223 175 225
f 176 178 226
f 226 177 176
f 224 177 226
f 226 178 179
f 179 227 226
f 181 227 179
f 181 182 227
f 182 189 228
f 228 227 182
f 184 229 188
f 215 229 184
f 230 189 186
f 187 231 186
f 232 186 231
f 230 186 232
f 233 187 215
f 215 187 234
f 233 231 187
f 187 188 229
f 187 229 234
f 189 230 235
f 189 235 228
f 212 193 191
f 193 236 196
f 193 212 210
f 193 210 236
f 204 195 198
f 236 197 196
f 197 236 201
f 198 200 204
f 199 202 237
f 237 238 199
f 238 200 199
f 238 204 200
f 236 202 201
f 236 237 202
f 203 204 207
f 203 207 205
f 204 238 239
f 239 207 204
f 239 209 206
f 239 206 207
f 209 213 208
f 239 213 209
f 210 211 214
f 214 236 210
f 214 213 239
f 214 239 236
f 240 215 216
f 240 233 215
f 234 229 215
f 216 217 218
f 216 219 240
f 220 241 219
f 233 219 241
f 233 240 219
f 241 220 242
f 222 243 220
f 220 243 242
f 244 221 235
f 246 221 245
f 247 222 221
f 221 225 248
f 223 225 221
f 221 248 235
f 221 244 245
f 221 246 247
f 222 247 243
f 249 225 224
f 226 249 224
f 249 248 225
f 249 226 227
f 249 227 228
f 248 249 228
f 228 235 248
f 230 251 250
f 251 230 252
f 252 230 253
f 253 230 254
f 232 254 230
f 230 250 235
f 254 231 233
f 254 232 231
f 241 255 233
f 256 254 233
f 256 233 255
f 235 250 244
f 236 257 237
f 236 239 257
f 238 237 257
f 238 257 239
f 242 258 241
f 255 241 258
f 242 243 259
f 259 258 242
f 247 260 243
f 243 260 259
f 244 261 245
f 250 261 244
f 245 262 246
f 261 262 245
f 262 247 246
f 260 247 262
f 251 261 250
f 261 251 262
f 262 251 263
f 252 263 251
f 253 263 252
f 253 264 260
f 264 253 254
f 253 260 263
f 256 264 254
f 258 264 255
f 256 255 264
f 260 258 259
f 264 258 260
f 262 263 260
