# Generated by Visualization Toolkit
v -0.0027469999622553587 0.42861801385879517 0.07175199687480927
v 0.0004689999914262444 0.43701300024986267 0.06822200119495392
v 0.0004910000134259462 0.42623499035835266 0.06502900272607803
v 0.0019160000374540687 0.42353498935699463 0.0632840022444725
v -0.0011549999471753836 0.4261229932308197 0.07443799823522568
v -0.01287699956446886 0.4319309890270233 0.08890800178050995
v -0.01363999955356121 0.43488600850105286 0.08706899732351303
v -0.019116999581456184 0.44381898641586304 0.09582400321960449
v 0.007845000363886356 0.4344109892845154 0.05108499899506569
v 0.008763999678194523 0.4352799952030182 0.05166900157928467
v 0.006876000203192234 0.43352898955345154 0.049988001585006714
v 0.005714999977499247 0.43273699283599854 0.04854699969291687
v 0.0037640000227838755 0.42978501319885254 0.05041800066828728
v 0.007841000333428383 0.43845900893211365 0.06718199700117111
v 0.0033279999624937773 0.4195829927921295 0.04931600019335747
v 0.013700000010430813 0.415802001953125 0.042020998895168304
v 0.011962000280618668 0.4227679967880249 0.06252200156450272
v -0.003874999936670065 0.4364030063152313 0.09685000032186508
v -0.026048000901937485 0.4373050034046173 0.10122100263834
v -0.023003999143838882 0.4373359978199005 0.10859499871730804
v -0.01783600077033043 0.43569400906562805 0.10463699698448181
v -0.039409998804330826 0.44970500469207764 0.11127199977636337
v -0.03598500043153763 0.45328301191329956 0.11166299879550934
v -0.0313429981470108 0.4509370028972626 0.12021700292825699
v -0.022839000448584557 0.44676798582077026 0.1091269999742508
v -0.0033309999853372574 0.4412049949169159 0.09483800083398819
v 0.009457999840378761 0.4342299997806549 0.04833099991083145
v 0.009819000028073788 0.4352650046348572 0.05027899891138077
v 0.008437000215053558 0.43343499302864075 0.04790399968624115
v 0.00712500000372529 0.43294399976730347 0.04793800041079521
v 0.0074800001457333565 0.43261000514030457 0.04629699885845184
v 0.006221000105142593 0.4314729869365692 0.0425340011715889
v 0.006957000121474266 0.4319179952144623 0.04430500045418739
v 0.0008200000156648457 0.41929399967193604 0.03660999983549118
v 0.0064940000884234905 0.43081599473953247 0.03842199966311455
v 0.006622000131756067 0.43017199635505676 0.03334899991750717
v 0.007034000009298325 0.4280740022659302 0.02065500058233738
v 0.01820399984717369 0.4318009912967682 0.05482200160622597
v 0.014689999632537365 0.4360849857330322 0.05217599868774414
v 0.0012929999502375722 0.4167810082435608 0.03761700168251991
v 0.002741999924182892 0.41488000750541687 0.038380999118089676
v 0.02104399912059307 0.41593000292778015 0.03261600062251091
v 0.02028599940240383 0.42291900515556335 0.04291500151157379
v 0.007834999822080135 0.41213300824165344 0.03603599965572357
v 0.01589599996805191 0.4115369915962219 0.03201499953866005
v -0.016558999195694923 0.4370729923248291 0.10622700303792953
v -0.01830900087952614 0.4432939887046814 0.11404100060462952
v -0.03324899822473526 0.43991100788116455 0.10946500301361084
v -0.019710000604391098 0.4364590048789978 0.10662899911403656
v -0.031076999381184578 0.4403330087661743 0.1179099977016449
v -0.03327000141143799 0.44095900654792786 0.11897200345993042
v -0.025617999956011772 0.4408009946346283 0.1166829988360405
v -0.030174000188708305 0.4406839907169342 0.11908499896526337
v -0.01926399953663349 0.43767300248146057 0.10856799781322479
v -0.04482699930667877 0.44675201177597046 0.12201300263404846
v -0.03814899921417236 0.4550729990005493 0.11326999962329865
v -0.041662998497486115 0.45420899987220764 0.11995100229978561
v -0.034706000238657 0.4527139961719513 0.12221299856901169
v -0.032207001000642776 0.45125699043273926 0.12332499772310257
v -0.03415999934077263 0.4526669979095459 0.12048300355672836
v -0.029851999133825302 0.4499109983444214 0.12173499912023544
v -0.0232510007917881 0.4471360146999359 0.1174440011382103
v -0.022117000073194504 0.44691699743270874 0.11138000339269638
v -0.0183470007032156 0.44609400629997253 0.10947199910879135
v -0.01460999995470047 0.44530901312828064 0.10755699872970581
v -0.012497999705374241 0.4454199969768524 0.10367800295352936
v 0.010352999903261662 0.43399500846862793 0.046845998615026474
v 0.00911800004541874 0.4330050051212311 0.045910000801086426
v 0.01281800027936697 0.43438300490379333 0.04546400159597397
v 0.010672000236809254 0.4304260015487671 0.03876800090074539
v -0.0005670000100508332 0.4175960123538971 0.03262700140476227
v -0.0007989999721758068 0.41586101055145264 0.0340690016746521
v 0.010483999736607075 0.43131399154663086 0.029738999903202057
v 0.01194700039923191 0.4315289855003357 0.03230300173163414
v 0.007799000013619661 0.43042901158332825 0.03132399916648865
v 0.008949999697506428 0.430961012840271 0.030559999868273735
v 0.011919000186026096 0.42983299493789673 0.035270001739263535
v 0.00408599991351366 0.42344099283218384 0.024057000875473022
v 0.011291000060737133 0.4317289888858795 0.022394999861717224
v 0.007563999854028225 0.42810800671577454 0.019220000132918358
v 0.005929000210016966 0.4256249964237213 0.02153399959206581
v 0.019719000905752182 0.43197101354599 0.039473000913858414
v 0.024702999740839005 0.4212009906768799 0.029009999707341194
v 0.024397000670433044 0.42565301060676575 0.03142299875617027
v 0.02413499914109707 0.4193289875984192 0.028736000880599022
v 0.0005310000269673765 0.4153279960155487 0.03603300079703331
v 0.00013899999612476677 0.41464200615882874 0.03441999852657318
v 0.01992800086736679 0.4139479994773865 0.03039800003170967
v 0.021601000800728798 0.4159550070762634 0.030466999858617783
v 0.013757999986410141 0.4111669957637787 0.030233999714255333
v 0.009758000262081623 0.4113459885120392 0.030772000551223755
v 0.0046720001846551895 0.4122380018234253 0.03262300044298172
v 0.015931999310851097 0.41151300072669983 0.02985600009560585
v 0.018154999241232872 0.412771999835968 0.029090000316500664
v -0.02277499996125698 0.4410080015659332 0.11660599708557129
v -0.022506000474095345 0.44501200318336487 0.1199060007929802
v -0.03751299902796745 0.4435279965400696 0.12549400329589844
v -0.043049998581409454 0.444227010011673 0.12373299896717072
v -0.036021001636981964 0.44275298714637756 0.12347999960184097
v -0.0345660001039505 0.4419960081577301 0.1218390017747879
v -0.023886999115347862 0.44116801023483276 0.11666599661111832
v -0.02348100021481514 0.4416719973087311 0.11694300174713135
v -0.030515000224113464 0.4419519901275635 0.12147100269794464
v -0.02441300079226494 0.4406070113182068 0.11633200198411942
v -0.032565001398324966 0.44262298941612244 0.12307000160217285
v -0.04841800034046173 0.44837498664855957 0.13436700403690338
v -0.04982399940490723 0.45097100734710693 0.13289499282836914
v -0.04683399945497513 0.44712600111961365 0.1305380016565323
v -0.0468359999358654 0.4550899863243103 0.13464400172233582
v -0.043035998940467834 0.45418500900268555 0.12605999410152435
v -0.04218899831175804 0.4540809988975525 0.12241499871015549
v -0.037227001041173935 0.4543440043926239 0.1199449971318245
v -0.036031000316143036 0.45380699634552 0.12025199830532074
v -0.03855599835515022 0.4546630084514618 0.12093199789524078
v -0.03995399922132492 0.4545159935951233 0.12061300128698349
v -0.03814199939370155 0.4543269872665405 0.12303800135850906
v -0.03294700011610985 0.45159101486206055 0.1262039989233017
v -0.030928000807762146 0.45034199953079224 0.12471099942922592
v -0.029872000217437744 0.44811299443244934 0.13787800073623657
v -0.02079099975526333 0.44670501351356506 0.11276599764823914
v 0.011951999738812447 0.4336960017681122 0.04524800181388855
v 0.010981000028550625 0.43220001459121704 0.0424560010433197
v 0.01273099984973669 0.43206000328063965 0.041127000004053116
v 0.013975000008940697 0.4338560104370117 0.04354799911379814
v 0.0117790000513196 0.4310329854488373 0.03925599902868271
v 0.0025210001040250063 0.4212630093097687 0.025735000148415565
v -0.000577000027988106 0.41569700837135315 0.03268500044941902
v 0.001104000024497509 0.41694900393486023 0.02847900055348873
v 0.014836999587714672 0.4320969879627228 0.024555999785661697
v 0.013570000417530537 0.43156498670578003 0.03170400112867355
v 0.013154000043869019 0.43069198727607727 0.033330999314785004
v 0.013225000351667404 0.4309709966182709 0.037122998386621475
v 0.014348000288009644 0.43089398741722107 0.03338799998164177
v 0.0038060001097619534 0.4203239977359772 0.023824000731110573
v 0.012013999745249748 0.43110600113868713 0.019385000690817833
v 0.013662000186741352 0.43150898814201355 0.020408999174833298
v 0.01042999979108572 0.4303390085697174 0.018749000504612923
v 0.011200999841094017 0.42910000681877136 0.017815999686717987
v 0.009317999705672264 0.4277159869670868 0.01808599941432476
v 0.010510999709367752 0.42274200916290283 0.017822999507188797
v 0.01463599968701601 0.4332619905471802 0.041453998535871506
v 0.01569399982690811 0.4321640133857727 0.036903999745845795
v 0.01515199989080429 0.43266698718070984 0.03924199938774109
v 0.015740999951958656 0.4316209852695465 0.03286899998784065
v 0.016056999564170837 0.431769996881485 0.034651000052690506
v 0.02173200063407421 0.4292350113391876 0.02981499955058098
v 0.017110999673604965 0.43139100074768066 0.029865000396966934
v 0.02420400083065033 0.425370991230011 0.02999100089073181
v 0.023750999942421913 0.4213370084762573 0.028082000091671944
v 0.023120999336242676 0.4268360137939453 0.029746999964118004
v 0.02191000059247017 0.41596001386642456 0.028641000390052795
v 0.021756000816822052 0.4175719916820526 0.02776399999856949
v 0.022947000339627266 0.41945600509643555 0.02778100036084652
v 0.0022899999748915434 0.41327399015426636 0.03284100070595741
v 0.012822999618947506 0.4116649925708771 0.02950100041925907
v 0.010804999619722366 0.41202300786972046 0.029512999579310417
v 0.003370000049471855 0.4132539927959442 0.030926000326871872
v 0.015223000198602676 0.41361701488494873 0.02787799946963787
v 0.013772999867796898 0.41247400641441345 0.028449999168515205
v 0.018563000485301018 0.4144650101661682 0.027845999225974083
v -0.023545999079942703 0.44263699650764465 0.11881499737501144
v -0.03694299980998039 0.4445059895515442 0.13007600605487823
v -0.03874899819493294 0.44416698813438416 0.12933899462223053
v -0.040651001036167145 0.44392600655555725 0.12852799892425537
v -0.03558899834752083 0.44394999742507935 0.12720000743865967
v -0.04114900156855583 0.4445819854736328 0.13206300139427185
v -0.04531800001859665 0.44654300808906555 0.13540099561214447
v -0.03422800078988075 0.4432060122489929 0.12498100101947784
v -0.03204299882054329 0.443803995847702 0.12595699727535248
v -0.04819900169968605 0.4486689865589142 0.13942499458789825
v -0.05030500143766403 0.45644399523735046 0.13940000534057617
v -0.052285999059677124 0.4566580057144165 0.14791099727153778
v -0.0483429990708828 0.4569070041179657 0.13909399509429932
v -0.045542001724243164 0.45585599541664124 0.13471899926662445
v -0.0463780015707016 0.45673298835754395 0.13739000260829926
v -0.040936000645160675 0.45451200008392334 0.12646199762821198
v -0.04234899953007698 0.4548879861831665 0.13062000274658203
v -0.03872000053524971 0.45444899797439575 0.1265300065279007
v -0.03608199954032898 0.45326799154281616 0.12850899994373322
v -0.03164000064134598 0.4506109952926636 0.12784799933433533
v -0.033351000398397446 0.4518359899520874 0.13022799789905548
v -0.03338799998164177 0.4519079923629761 0.13466499745845795
v -0.03351299837231636 0.4443250000476837 0.12815800309181213
v -0.03948400169610977 0.44464901089668274 0.13279399275779724
v -0.0348920002579689 0.4448460042476654 0.13093499839305878
v -0.028540000319480896 0.448839008808136 0.14997300505638123
v -0.03470100089907646 0.44630900025367737 0.1463479995727539
v -0.03510599955916405 0.4462699890136719 0.14221200346946716
v -0.0334709994494915 0.4524869918823242 0.14056600630283356
v 0.01381400041282177 0.4319959878921509 0.039225999265909195
v 0.0019710001070052385 0.4151119887828827 0.02958099916577339
v 0.0013050000416114926 0.41440701484680176 0.031196000054478645
v 0.002736999886110425 0.41596001386642456 0.028102999553084373
v 0.014972000382840633 0.4315730035305023 0.031672000885009766
v 0.017183000221848488 0.4311720132827759 0.02385300025343895
v 0.006045000161975622 0.41953200101852417 0.022804999724030495
v 0.007712999824434519 0.42054298520088196 0.020481999963521957
v 0.01433700043708086 0.4297010004520416 0.019176999107003212
v 0.013061000034213066 0.42559900879859924 0.017728999257087708
v 0.014871000312268734 0.4278180003166199 0.018331000581383705
v 0.010018999688327312 0.42108601331710815 0.0190459992736578
v 0.012090999633073807 0.4229719936847687 0.01814199984073639
v 0.020987000316381454 0.4277380108833313 0.027132000774145126
v 0.020073000341653824 0.42698898911476135 0.025025999173521996
v 0.022151000797748566 0.42545101046562195 0.028051000088453293
v 0.021124999970197678 0.419530987739563 0.027101999148726463
v 0.020980000495910645 0.4247319996356964 0.026048999279737473
v 0.02009500004351139 0.4158110022544861 0.02774599939584732
v 0.019612999632954597 0.4177060127258301 0.027065999805927277
v 0.006314000114798546 0.41326799988746643 0.02963300049304962
v 0.012032000347971916 0.4130780100822449 0.028403999283909798
v 0.004075000062584877 0.41415899991989136 0.029248999431729317
v 0.016784999519586563 0.4149799942970276 0.02737399935722351
v 0.01356200035661459 0.41440799832344055 0.027705000713467598
v -0.03832799941301346 0.4457019865512848 0.14901700615882874
v -0.04037100076675415 0.44627898931503296 0.15205200016498566
v -0.04526999965310097 0.4470820128917694 0.14016300439834595
v -0.04676000028848648 0.44798898696899414 0.14042599499225616
v -0.04007599875330925 0.44646400213241577 0.1551239937543869
v -0.04452800005674362 0.4525339901447296 0.16370999813079834
v -0.04773499816656113 0.4611450135707855 0.14893099665641785
v -0.049573998898267746 0.46112000942230225 0.14905700087547302
v -0.04613399878144264 0.4589439928531647 0.14400799572467804
v -0.04328899830579758 0.4561690092086792 0.1356309950351715
v -0.04368099942803383 0.45743998885154724 0.1414009928703308
v -0.03968999907374382 0.4548789858818054 0.13104799389839172
v -0.03650600090622902 0.4536229968070984 0.13310599327087402
v -0.036844998598098755 0.4543820023536682 0.13898099958896637
v -0.03718800097703934 0.4458619952201843 0.1418289989233017
v -0.028843000531196594 0.4515250027179718 0.15997900068759918
v -0.02979999966919422 0.4457300007343292 0.1553190052509308
v -0.02749199979007244 0.4481480121612549 0.1584790050983429
v -0.03502500057220459 0.4449650049209595 0.15721899271011353
v -0.036708999425172806 0.44593900442123413 0.14580200612545013
v -0.0366629995405674 0.45489999651908875 0.14464500546455383
v 0.009662999771535397 0.419295996427536 0.020672999322414398
v 0.013848000206053257 0.4231480062007904 0.018890999257564545
v 0.015814000740647316 0.4253759980201721 0.01969599910080433
v 0.016478000208735466 0.419185996055603 0.025180000811815262
v -0.03767300024628639 0.4453960061073303 0.1549540013074875
v -0.04336699843406677 0.4514540135860443 0.1645040065050125
v -0.04387599974870682 0.45392900705337524 0.16464999318122864
v -0.04644099995493889 0.4616590142250061 0.15802200138568878
v -0.038927000015974045 0.4575369954109192 0.15204299986362457
v -0.04104600101709366 0.4598029851913452 0.15381699800491333
v -0.04221300035715103 0.4614810049533844 0.15563499927520752
v -0.04503500089049339 0.46273699402809143 0.15751999616622925
v -0.040396999567747116 0.4567500054836273 0.14308799803256989
v -0.04019999876618385 0.4557879865169525 0.1372089982032776
v -0.03715899959206581 0.45694500207901 0.15503700077533722
v -0.03928200155496597 0.45910799503326416 0.15785400569438934
v -0.03817100077867508 0.4580030143260956 0.1600559949874878
v -0.03731299936771393 0.4562070071697235 0.16242800652980804
v -0.02948099933564663 0.4471679925918579 0.16396500170230865
v -0.039914000779390335 0.44832101464271545 0.1655389964580536
v -0.037174999713897705 0.44770199060440063 0.16626900434494019
v 0.01511400006711483 0.4230180084705353 0.02015800029039383
v -0.04210999980568886 0.45228898525238037 0.16651999950408936
v -0.04329700022935867 0.4568040072917938 0.16392399370670319
v -0.04022999852895737 0.46015700697898865 0.16122199594974518
v -0.03926699981093407 0.45855000615119934 0.1552869975566864
v -0.04125899821519852 0.46116000413894653 0.1585880070924759
v -0.0396369993686676 0.4597010016441345 0.15967799723148346
v -0.038683999329805374 0.4493440091609955 0.1673009991645813
f 1 2 3
f 3 4 1
f 1 5 6
f 1 6 7
f 5 1 4
f 7 8 1
f 2 1 8
f 9 2 10
f 11 12 2
f 9 11 2
f 12 13 2
f 13 3 2
f 10 2 14
f 2 8 14
f 13 15 3
f 3 15 4
f 4 15 16
f 4 16 5
f 17 5 16
f 5 17 18
f 5 18 6
f 6 19 7
f 20 19 6
f 6 18 21
f 20 6 21
f 19 8 7
f 8 19 22
f 22 23 8
f 23 24 8
f 24 25 8
f 8 25 26
f 26 14 8
f 27 9 28
f 10 28 9
f 29 11 9
f 27 29 9
f 28 10 14
f 30 12 11
f 30 11 29
f 30 31 12
f 12 32 13
f 32 12 33
f 33 12 31
f 34 15 13
f 32 35 13
f 35 36 13
f 36 37 13
f 37 34 13
f 38 14 26
f 39 14 38
f 39 28 14
f 15 34 40
f 41 15 40
f 15 41 16
f 42 43 16
f 16 41 44
f 17 16 43
f 42 16 45
f 45 16 44
f 38 18 17
f 38 17 43
f 21 18 46
f 47 46 18
f 26 47 18
f 18 38 26
f 22 19 48
f 48 19 20
f 20 21 49
f 50 51 20
f 48 20 51
f 52 53 20
f 20 53 50
f 20 49 54
f 54 52 20
f 49 21 46
f 48 55 22
f 56 22 57
f 57 22 55
f 22 56 23
f 23 56 24
f 58 59 24
f 24 60 58
f 60 24 56
f 24 61 62
f 24 62 63
f 25 24 63
f 61 24 59
f 64 25 63
f 25 64 65
f 65 66 25
f 25 66 26
f 66 65 26
f 26 65 47
f 27 67 68
f 68 29 27
f 27 28 67
f 28 69 67
f 69 28 39
f 29 68 31
f 30 29 31
f 33 31 68
f 70 32 33
f 70 35 32
f 33 68 70
f 37 71 34
f 71 72 34
f 40 34 72
f 73 35 74
f 75 36 35
f 35 76 75
f 73 76 35
f 74 35 77
f 70 77 35
f 37 36 75
f 71 37 78
f 37 75 79
f 80 37 79
f 81 78 37
f 81 37 80
f 38 82 39
f 83 84 38
f 82 38 84
f 43 85 38
f 38 85 83
f 39 82 69
f 41 40 86
f 86 40 72
f 44 41 87
f 86 87 41
f 45 88 42
f 42 85 43
f 85 42 89
f 89 42 88
f 90 45 44
f 90 44 91
f 44 92 91
f 44 87 92
f 93 94 45
f 45 94 88
f 93 45 90
f 46 47 54
f 46 54 49
f 54 47 95
f 96 47 65
f 96 95 47
f 97 98 48
f 55 48 98
f 99 97 48
f 51 99 48
f 50 53 51
f 100 99 51
f 53 100 51
f 52 101 102
f 103 53 52
f 104 52 54
f 52 104 101
f 102 103 52
f 105 100 53
f 103 105 53
f 95 104 54
f 106 107 55
f 55 98 108
f 55 109 110
f 109 55 107
f 55 108 106
f 111 55 110
f 55 111 57
f 112 113 56
f 112 56 114
f 114 56 115
f 115 56 57
f 113 60 56
f 57 111 115
f 116 117 58
f 58 117 59
f 58 60 116
f 118 59 117
f 118 61 59
f 60 113 116
f 62 61 118
f 118 119 62
f 120 63 62
f 120 62 65
f 62 119 96
f 65 62 96
f 120 64 63
f 65 64 120
f 121 67 69
f 121 68 67
f 122 70 68
f 122 68 123
f 123 68 121
f 82 124 69
f 121 69 124
f 70 125 77
f 122 125 70
f 126 71 78
f 127 72 71
f 128 127 71
f 128 71 126
f 72 87 86
f 87 72 127
f 79 73 74
f 79 76 73
f 129 74 130
f 74 129 79
f 130 74 77
f 76 79 75
f 131 130 77
f 77 132 133
f 131 77 133
f 77 125 132
f 126 78 134
f 134 78 81
f 135 79 136
f 129 136 79
f 135 137 79
f 79 137 80
f 138 80 137
f 138 139 80
f 81 80 134
f 134 80 140
f 140 80 139
f 82 141 124
f 82 142 143
f 82 144 145
f 84 146 82
f 82 143 141
f 82 145 142
f 146 147 82
f 82 147 144
f 83 148 84
f 148 83 149
f 149 83 85
f 148 150 84
f 84 150 146
f 89 151 85
f 152 85 151
f 153 85 152
f 153 149 85
f 127 154 87
f 92 87 154
f 89 88 151
f 94 151 88
f 155 90 91
f 90 155 93
f 156 91 157
f 92 157 91
f 156 155 91
f 92 154 157
f 158 94 93
f 155 159 93
f 93 159 158
f 160 151 94
f 158 160 94
f 104 95 101
f 102 101 95
f 161 95 96
f 102 95 161
f 161 96 119
f 162 163 97
f 98 97 164
f 164 97 163
f 97 165 162
f 165 97 99
f 166 167 98
f 164 166 98
f 108 98 167
f 168 99 100
f 168 165 99
f 100 105 168
f 103 102 161
f 169 105 103
f 103 161 169
f 168 105 169
f 107 106 170
f 167 106 108
f 167 170 106
f 107 171 109
f 107 172 171
f 170 172 107
f 109 171 173
f 109 174 110
f 109 173 175
f 175 174 109
f 111 110 176
f 110 174 177
f 176 110 177
f 176 115 111
f 113 112 116
f 116 112 114
f 116 114 115
f 178 116 115
f 176 178 115
f 117 116 178
f 179 117 178
f 117 180 118
f 179 181 117
f 180 117 181
f 180 119 118
f 119 181 182
f 119 183 169
f 119 184 185
f 183 119 185
f 119 169 161
f 186 187 119
f 119 187 188
f 184 119 188
f 119 182 189
f 186 119 189
f 119 180 181
f 121 124 123
f 123 125 122
f 125 123 132
f 132 123 190
f 123 124 141
f 141 190 123
f 134 128 126
f 191 127 128
f 127 192 154
f 191 192 127
f 193 128 134
f 128 193 191
f 129 130 194
f 194 147 129
f 147 195 129
f 129 195 136
f 194 130 131
f 131 133 194
f 142 145 132
f 190 142 132
f 145 144 132
f 132 144 133
f 144 194 133
f 196 193 134
f 140 197 134
f 134 197 196
f 135 136 198
f 137 135 138
f 138 135 198
f 136 195 198
f 199 140 138
f 138 198 200
f 140 139 138
f 138 200 199
f 140 201 197
f 140 202 201
f 199 202 140
f 143 190 141
f 143 142 190
f 147 194 144
f 146 195 147
f 203 204 146
f 204 195 146
f 150 205 146
f 205 203 146
f 148 205 150
f 205 148 149
f 149 153 206
f 149 207 205
f 207 149 206
f 208 152 151
f 151 160 208
f 209 152 208
f 206 152 209
f 206 153 152
f 192 157 154
f 159 155 156
f 157 210 156
f 156 210 211
f 156 211 159
f 191 212 157
f 157 192 191
f 157 212 210
f 213 158 214
f 158 159 211
f 214 158 211
f 213 160 158
f 208 160 213
f 162 185 184
f 162 184 163
f 162 165 185
f 164 163 184
f 184 166 164
f 165 183 185
f 183 165 168
f 167 166 215
f 166 184 215
f 215 216 167
f 217 167 216
f 217 218 167
f 218 170 167
f 168 169 183
f 170 216 219
f 172 170 220
f 170 219 220
f 170 218 216
f 221 173 171
f 172 222 171
f 171 222 221
f 172 220 222
f 221 223 173
f 223 175 173
f 224 177 174
f 224 174 175
f 175 225 224
f 225 175 223
f 226 178 176
f 176 177 226
f 226 177 224
f 179 178 226
f 226 227 179
f 179 227 181
f 227 182 181
f 228 189 182
f 182 227 228
f 188 229 184
f 184 229 215
f 186 189 230
f 186 231 187
f 231 186 232
f 232 186 230
f 215 187 233
f 234 187 215
f 187 231 233
f 229 188 187
f 234 229 187
f 235 230 189
f 228 235 189
f 191 193 212
f 196 236 193
f 210 212 193
f 236 210 193
f 198 195 204
f 196 197 236
f 201 236 197
f 204 200 198
f 237 202 199
f 199 238 237
f 199 200 238
f 200 204 238
f 201 202 236
f 202 237 236
f 207 204 203
f 205 207 203
f 239 238 204
f 204 207 239
f 206 209 239
f 207 206 239
f 208 213 209
f 209 213 239
f 214 211 210
f 210 236 214
f 239 213 214
f 236 239 214
f 216 215 240
f 215 233 240
f 215 229 234
f 218 217 216
f 240 219 216
f 219 241 220
f 241 219 233
f 219 240 233
f 242 220 241
f 220 243 222
f 242 243 220
f 235 221 244
f 245 221 246
f 221 222 247
f 248 225 221
f 221 225 223
f 235 248 221
f 245 244 221
f 247 246 221
f 243 247 222
f 224 225 249
f 224 249 226
f 225 248 249
f 227 226 249
f 228 227 249
f 228 249 248
f 248 235 228
f 250 251 230
f 252 230 251
f 253 230 252
f 254 230 253
f 230 254 232
f 235 250 230
f 233 231 254
f 231 232 254
f 233 255 241
f 233 254 256
f 255 233 256
f 244 250 235
f 237 257 236
f 257 239 236
f 257 237 238
f 239 257 238
f 241 258 242
f 258 241 255
f 259 243 242
f 242 258 259
f 243 260 247
f 259 260 243
f 245 261 244
f 244 261 250
f 246 262 245
f 245 262 261
f 246 247 262
f 262 247 260
f 250 261 251
f 262 251 261
f 263 251 262
f 251 263 252
f 252 263 253
f 260 264 253
f 254 253 264
f 263 260 253
f 254 264 256
f 255 264 258
f 264 255 256
f 259 258 260
f 260 258 264
f 260 263 262
