# Generated by Visualization Toolkit
v -1.2246063538223773e-16 -1.2246063538223773e-16 -1
v -1 -5.352924535182096e-24 -4.371138828673793e-8
v -0.9848077297210693 -2.1265071506368305e-17 -0.17364822328090668
v -0.9396926164627075 -4.188400907521429e-17 -0.342020183801651
v -0.8660253882408142 -6.123032430856376e-17 -0.5000000596046448
v -0.7660443782806396 -7.871618130410592e-17 -0.6427876353263855
v -0.6427875757217407 -9.381029518928775e-17 -0.7660444974899292
v -0.4999999403953552 -1.0605402409295065e-16 -0.866025447845459
v -0.34202006459236145 -1.1507536835001728e-16 -0.9396926760673523
v -0.17364808917045593 -1.2060019368804266e-16 -0.9848077893257141
v -0.9876883625984192 -0.15643447637557983 -4.371138828673793e-8
v -0.9726831316947937 -0.15405787527561188 -0.17364822328090668
v -0.928123414516449 -0.14700031280517578 -0.342020183801651
v -0.8553631901741028 -0.135476216673851 -0.5000000596046448
v -0.7566131353378296 -0.1198357492685318 -0.6427876353263855
v -0.6348737478256226 -0.10055413097143173 -0.7660444974899292
v -0.4938441216945648 -0.07821722328662872 -0.866025447845459
v -0.3378092348575592 -0.05350372940301895 -0.9396926760673523
v -0.17151020467281342 -0.027164548635482788 -0.9848077893257141
v -0.9510565400123596 -0.30901700258255005 -4.371138828673793e-8
v -0.936607837677002 -0.30432233214378357 -0.17364822328090668
v -0.8937007784843445 -0.29038098454475403 -0.342020183801651
v -0.8236390948295593 -0.2676165699958801 -0.5000000596046448
v -0.7285515069961548 -0.2367207407951355 -0.6427876353263855
v -0.6113272905349731 -0.19863228499889374 -0.7660444974899292
v -0.47552821040153503 -0.15450848639011383 -0.866025447845459
v -0.32528042793273926 -0.10569001734256744 -0.9396926760673523
v -0.16514915227890015 -0.05366021394729614 -0.9848077893257141
v -0.8910065293312073 -0.45399051904678345 -4.371138828673793e-8
v -0.8774701356887817 -0.4470933675765991 -0.17364822328090668
v -0.8372722268104553 -0.4266115128993988 -0.342020183801651
v -0.7716342806816101 -0.39316731691360474 -0.5000000596046448
v -0.6825505495071411 -0.3477768898010254 -0.6427876353263855
v -0.5727279186248779 -0.2918194532394409 -0.7660444974899292
v -0.44550320506095886 -0.22699522972106934 -0.866025447845459
v -0.30474209785461426 -0.15527386963367462 -0.9396926760673523
v -0.15472158789634705 -0.07883458584547043 -0.9848077893257141
v -0.80901700258255 -0.5877852439880371 -4.371138828673793e-8
v -0.7967261672019958 -0.5788554549217224 -0.17364822328090668
v -0.7602272629737854 -0.5523374676704407 -0.342020183801651
v -0.7006292343139648 -0.5090369582176208 -0.5000000596046448
v -0.6197429299354553 -0.4502696096897125 -0.6427876353263855
v -0.5200260281562805 -0.37782105803489685 -0.7660444974899292
v -0.40450844168663025 -0.29389259219169617 -0.866025447845459
v -0.27670004963874817 -0.20103435218334198 -0.9396926760673523
v -0.1404842585325241 -0.10206779092550278 -0.9848077893257141
v -0.7071067690849304 -0.7071067690849304 -4.371138828673793e-8
v -0.6963642239570618 -0.6963642239570618 -0.17364822328090668
v -0.6644629836082458 -0.6644630432128906 -0.342020183801651
v -0.6123723983764648 -0.6123724579811096 -0.5000000596046448
v -0.5416751503944397 -0.5416752099990845 -0.6427876353263855
v -0.4545194208621979 -0.45451945066452026 -0.7660444974899292
v -0.35355332493782043 -0.3535533547401428 -0.866025447845459
v -0.24184469878673553 -0.24184471368789673 -0.9396926760673523
v -0.12278774380683899 -0.12278775125741959 -0.9848077893257141
v -0.5877852439880371 -0.80901700258255 -4.371138828673793e-8
v -0.5788554549217224 -0.7967262268066406 -0.17364822328090668
v -0.5523374080657959 -0.7602273225784302 -0.342020183801651
v -0.5090368986129761 -0.7006292343139648 -0.5000000596046448
v -0.45026957988739014 -0.6197429299354553 -0.6427876353263855
v -0.37782102823257446 -0.5200260877609253 -0.7660444974899292
v -0.29389259219169617 -0.40450844168663025 -0.866025447845459
v -0.20103435218334198 -0.27670004963874817 -0.9396926760673523
v -0.10206778347492218 -0.1404842585325241 -0.9848077893257141
v -0.45399045944213867 -0.8910065293312073 -4.371138828673793e-8
v -0.44709333777427673 -0.8774701356887817 -0.17364822328090668
v -0.4266114830970764 -0.8372722268104553 -0.342020183801651
v -0.39316725730895996 -0.7716342806816101 -0.5000000596046448
v -0.347776859998703 -0.6825505495071411 -0.6427876353263855
v -0.29181942343711853 -0.5727279186248779 -0.7660444974899292
v -0.22699521481990814 -0.44550320506095886 -0.866025447845459
v -0.15527385473251343 -0.30474212765693665 -0.9396926760673523
v -0.07883457839488983 -0.15472158789634705 -0.9848077893257141
v -0.30901697278022766 -0.9510565400123596 -4.371138828673793e-8
v -0.3043223023414612 -0.936607837677002 -0.17364822328090668
v -0.29038095474243164 -0.8937007784843445 -0.342020183801651
v -0.26761654019355774 -0.8236390948295593 -0.5000000596046448
v -0.2367207109928131 -0.7285515069961548 -0.6427876353263855
v -0.19863225519657135 -0.6113272905349731 -0.7660444974899292
v -0.15450845658779144 -0.47552821040153503 -0.866025447845459
v -0.10569000244140625 -0.32528042793273926 -0.9396926760673523
v -0.053660206496715546 -0.16514915227890015 -0.9848077893257141
v -0.15643443167209625 -0.9876883625984192 -4.371138828673793e-8
v -0.1540578305721283 -0.9726831316947937 -0.17364822328090668
v -0.1470002681016922 -0.928123414516449 -0.342020183801651
v -0.13547618687152863 -0.8553631901741028 -0.5000000596046448
v -0.11983571946620941 -0.7566131353378296 -0.6427876353263855
v -0.10055410116910934 -0.6348738074302673 -0.7660444974899292
v -0.07821720093488693 -0.4938441216945648 -0.866025447845459
v -0.05350371450185776 -0.3378092348575592 -0.9396926760673523
v -0.02716454118490219 -0.17151020467281342 -0.9848077893257141
v 4.371138828673793e-8 -1 -4.371138828673793e-8
v 4.304731504589654e-8 -0.9848077297210693 -0.17364822328090668
v 4.107527118435428e-8 -0.9396926164627075 -0.342020183801651
v 3.785517321830412e-8 -0.8660253882408142 -0.5000000596046448
v 3.34848664351739e-8 -0.7660443782806396 -0.6427876353263855
v 2.8097137061422472e-8 -0.6427875757217407 -0.7660444974899292
v 2.1855692367012125e-8 -0.4999999403953552 -0.866025447845459
v 1.495017265540355e-8 -0.34202006459236145 -0.9396926760673523
v 7.590399420109861e-9 -0.17364808917045593 -0.9848077893257141
v 1.2246063538223773e-16 1.2246063538223773e-16 1
v -0.1736481785774231 1.2060018045315286e-16 0.9848077297210693
v -0.3420201539993286 1.1507535511512748e-16 0.9396926164627075
v -0.5 1.0605401747550575e-16 0.8660253882408142
v -0.6427876353263855 9.381028857184285e-17 0.7660444378852844
v -0.7660444378852844 7.871617468666102e-17 0.6427875757217407
v -0.866025447845459 6.123031107367396e-17 0.4999999701976776
v -0.9396926164627075 4.188400245776939e-17 0.3420201241970062
v -0.9848077893257141 2.1265061580200954e-17 0.17364813387393951
v -1 -5.352924535182096e-24 -4.371138828673793e-8
v -0.17151027917861938 -0.027164561673998833 0.9848077297210693
v -0.33780932426452637 -0.05350374057888985 0.9396926164627075
v -0.4938441812992096 -0.07821723818778992 0.8660253882408142
v -0.6348738670349121 -0.10055413842201233 0.7660444378852844
v -0.7566131949424744 -0.1198357567191124 0.6427875757217407
v -0.8553631901741028 -0.1354762315750122 0.4999999701976776
v -0.9281234741210938 -0.14700031280517578 0.3420201241970062
v -0.9726831316947937 -0.15405787527561188 0.17364813387393951
v -0.9876883625984192 -0.15643447637557983 -4.371138828673793e-8
v -0.1651492416858673 -0.05366024002432823 0.9848077297210693
v -0.32528048753738403 -0.10569003969430923 0.9396926164627075
v -0.4755282700061798 -0.15450850129127502 0.8660253882408142
v -0.6113273501396179 -0.19863229990005493 0.7660444378852844
v -0.7285515666007996 -0.2367207556962967 0.6427875757217407
v -0.8236390948295593 -0.2676165699958801 0.4999999701976776
v -0.8937007784843445 -0.2903810143470764 0.3420201241970062
v -0.936607837677002 -0.30432233214378357 0.17364813387393951
v -0.9510565400123596 -0.30901700258255005 -4.371138828673793e-8
v -0.15472166240215302 -0.07883463054895401 0.9848077297210693
v -0.3047421872615814 -0.155273899435997 0.9396926164627075
v -0.44550326466560364 -0.22699525952339172 0.8660253882408142
v -0.5727279782295227 -0.2918194830417633 0.7660444378852844
v -0.6825506091117859 -0.3477769196033478 0.6427875757217407
v -0.7716342806816101 -0.39316731691360474 0.4999999701976776
v -0.8372722864151001 -0.4266115427017212 0.3420201241970062
v -0.8774701356887817 -0.4470933675765991 0.17364813387393951
v -0.8910065293312073 -0.45399051904678345 -4.371138828673793e-8
v -0.14048433303833008 -0.10206784307956696 0.9848077297210693
v -0.27670010924339294 -0.20103441178798676 0.9396926164627075
v -0.404508501291275 -0.29389265179634094 0.8660253882408142
v -0.5200260877609253 -0.37782108783721924 0.7660444378852844
v -0.6197429895401001 -0.4502696394920349 0.6427875757217407
v -0.7006292939186096 -0.5090369582176208 0.4999999701976776
v -0.7602273225784302 -0.5523374676704407 0.3420201241970062
v -0.7967262268066406 -0.5788555145263672 0.17364813387393951
v -0.80901700258255 -0.5877852439880371 -4.371138828673793e-8
v -0.12278780341148376 -0.12278781086206436 0.9848077297210693
v -0.2418447583913803 -0.2418447732925415 0.9396926164627075
v -0.3535533845424652 -0.3535534143447876 0.8660253882408142
v -0.45451948046684265 -0.45451951026916504 0.7660444378852844
v -0.5416752099990845 -0.5416752696037292 0.6427875757217407
v -0.6123724579811096 -0.6123724579811096 0.4999999701976776
v -0.6644630432128906 -0.6644630432128906 0.3420201241970062
v -0.6963642239570618 -0.6963642835617065 0.17364813387393951
v -0.7071067690849304 -0.7071067690849304 -4.371138828673793e-8
v -0.10206783562898636 -0.14048433303833008 0.9848077297210693
v -0.20103439688682556 -0.27670010924339294 0.9396926164627075
v -0.29389262199401855 -0.404508501291275 0.8660253882408142
v -0.37782105803489685 -0.5200261473655701 0.7660444378852844
v -0.4502696096897125 -0.6197429895401001 0.6427875757217407
v -0.5090369582176208 -0.7006292939186096 0.4999999701976776
v -0.5523374676704407 -0.7602273225784302 0.3420201241970062
v -0.5788554549217224 -0.7967262268066406 0.17364813387393951
v -0.5877852439880371 -0.80901700258255 -4.371138828673793e-8
v -0.07883462309837341 -0.15472166240215302 0.9848077297210693
v -0.15527388453483582 -0.3047421872615814 0.9396926164627075
v -0.22699524462223053 -0.445503294467926 0.8660253882408142
v -0.2918194532394409 -0.5727279782295227 0.7660444378852844
v -0.3477768898010254 -0.6825506091117859 0.6427875757217407
v -0.39316728711128235 -0.7716342806816101 0.4999999701976776
v -0.4266115128993988 -0.8372722864151001 0.3420201241970062
v -0.44709333777427673 -0.8774701356887817 0.17364813387393951
v -0.45399045944213867 -0.8910065293312073 -4.371138828673793e-8
v -0.053660232573747635 -0.1651492416858673 0.9848077297210693
v -0.10569002479314804 -0.32528048753738403 0.9396926164627075
v -0.15450848639011383 -0.4755282700061798 0.8660253882408142
v -0.19863228499889374 -0.6113273501396179 0.7660444378852844
v -0.2367207258939743 -0.7285515666007996 0.6427875757217407
v -0.26761654019355774 -0.8236391544342041 0.4999999701976776
v -0.29038095474243164 -0.8937008380889893 0.3420201241970062
v -0.3043223023414612 -0.936607837677002 0.17364813387393951
v -0.30901697278022766 -0.9510565400123596 -4.371138828673793e-8
v -0.027164554223418236 -0.17151027917861938 0.9848077297210693
v -0.05350372567772865 -0.33780932426452637 0.9396926164627075
v -0.07821721583604813 -0.4938441812992096 0.8660253882408142
v -0.10055411607027054 -0.6348738670349121 0.7660444378852844
v -0.11983572691679001 -0.7566131949424744 0.6427875757217407
v -0.13547618687152863 -0.8553631901741028 0.4999999701976776
v -0.1470002830028534 -0.9281234741210938 0.3420201241970062
v -0.1540578305721283 -0.9726831316947937 0.17364813387393951
v -0.15643443167209625 -0.9876883625984192 -4.371138828673793e-8
v 7.59040386100196e-9 -0.1736481785774231 0.9848077297210693
v 1.4950176208117227e-8 -0.3420201539993286 0.9396926164627075
v 2.1855695919725804e-8 -0.5 0.8660253882408142
v 2.809714061413615e-8 -0.6427876353263855 0.7660444378852844
v 3.34848664351739e-8 -0.7660444378852844 0.6427875757217407
v 3.785517321830412e-8 -0.866025447845459 0.4999999701976776
v 4.107527118435428e-8 -0.9396926164627075 0.3420201241970062
v 4.304731504589654e-8 -0.9848077893257141 0.17364813387393951
v 4.371138828673793e-8 -1 -4.371138828673793e-8
v 0 1.2246063538223773e-16 1
v 1 5.352924535182096e-24 4.371138828673793e-8
v 0.9848077297210693 2.1265071506368305e-17 0.17364822328090668
v 0.9396926164627075 4.188400907521429e-17 0.342020183801651
v 0.8660253882408142 6.123032430856376e-17 0.5000000596046448
v 0.7660443782806396 7.871618130410592e-17 0.6427876353263855
v 0.6427875757217407 9.381029518928775e-17 0.7660444974899292
v 0.4999999403953552 1.0605402409295065e-16 0.866025447845459
v 0.34202006459236145 1.1507536835001728e-16 0.9396926760673523
v 0.17364808917045593 1.2060019368804266e-16 0.9848077893257141
v 0.9876883625984192 -0.15643447637557983 4.371138828673793e-8
v 0.9726831316947937 -0.15405787527561188 0.17364822328090668
v 0.928123414516449 -0.14700031280517578 0.342020183801651
v 0.8553631901741028 -0.135476216673851 0.5000000596046448
v 0.7566131353378296 -0.1198357492685318 0.6427876353263855
v 0.6348737478256226 -0.10055413097143173 0.7660444974899292
v 0.4938441216945648 -0.07821722328662872 0.866025447845459
v 0.3378092348575592 -0.05350372940301895 0.9396926760673523
v 0.17151020467281342 -0.027164548635482788 0.9848077893257141
v 0.9510565400123596 -0.30901700258255005 4.371138828673793e-8
v 0.936607837677002 -0.30432233214378357 0.17364822328090668
v 0.8937007784843445 -0.29038098454475403 0.342020183801651
v 0.8236390948295593 -0.2676165699958801 0.5000000596046448
v 0.7285515069961548 -0.2367207407951355 0.6427876353263855
v 0.6113272905349731 -0.19863228499889374 0.7660444974899292
v 0.47552821040153503 -0.15450848639011383 0.866025447845459
v 0.32528042793273926 -0.10569001734256744 0.9396926760673523
v 0.16514915227890015 -0.05366021394729614 0.9848077893257141
v 0.8910065293312073 -0.45399051904678345 4.371138828673793e-8
v 0.8774701356887817 -0.4470933675765991 0.17364822328090668
v 0.8372722268104553 -0.4266115128993988 0.342020183801651
v 0.7716342806816101 -0.39316731691360474 0.5000000596046448
v 0.6825505495071411 -0.3477768898010254 0.6427876353263855
v 0.5727279186248779 -0.2918194532394409 0.7660444974899292
v 0.44550320506095886 -0.22699522972106934 0.866025447845459
v 0.30474209785461426 -0.15527386963367462 0.9396926760673523
v 0.15472158789634705 -0.07883458584547043 0.9848077893257141
v 0.80901700258255 -0.5877852439880371 4.371138828673793e-8
v 0.7967261672019958 -0.5788554549217224 0.17364822328090668
v 0.7602272629737854 -0.5523374676704407 0.342020183801651
v 0.7006292343139648 -0.5090369582176208 0.5000000596046448
v 0.6197429299354553 -0.4502696096897125 0.6427876353263855
v 0.5200260281562805 -0.37782105803489685 0.7660444974899292
v 0.40450844168663025 -0.29389259219169617 0.866025447845459
v 0.27670004963874817 -0.20103435218334198 0.9396926760673523
v 0.1404842585325241 -0.10206779092550278 0.9848077893257141
v 0.7071067690849304 -0.7071067690849304 4.371138828673793e-8
v 0.6963642239570618 -0.6963642239570618 0.17364822328090668
v 0.6644629836082458 -0.6644630432128906 0.342020183801651
v 0.6123723983764648 -0.6123724579811096 0.5000000596046448
v 0.5416751503944397 -0.5416752099990845 0.6427876353263855
v 0.4545194208621979 -0.45451945066452026 0.7660444974899292
v 0.35355332493782043 -0.3535533547401428 0.866025447845459
v 0.24184469878673553 -0.24184471368789673 0.9396926760673523
v 0.12278774380683899 -0.12278775125741959 0.9848077893257141
v 0.5877852439880371 -0.80901700258255 4.371138828673793e-8
v 0.5788554549217224 -0.7967262268066406 0.17364822328090668
v 0.5523374080657959 -0.7602273225784302 0.342020183801651
v 0.5090368986129761 -0.7006292343139648 0.5000000596046448
v 0.45026957988739014 -0.6197429299354553 0.6427876353263855
v 0.37782102823257446 -0.5200260877609253 0.7660444974899292
v 0.29389259219169617 -0.40450844168663025 0.866025447845459
v 0.20103435218334198 -0.27670004963874817 0.9396926760673523
v 0.10206778347492218 -0.1404842585325241 0.9848077893257141
v 0.45399045944213867 -0.8910065293312073 4.371138828673793e-8
v 0.44709333777427673 -0.8774701356887817 0.17364822328090668
v 0.4266114830970764 -0.8372722268104553 0.342020183801651
v 0.39316725730895996 -0.7716342806816101 0.5000000596046448
v 0.347776859998703 -0.6825505495071411 0.6427876353263855
v 0.29181942343711853 -0.5727279186248779 0.7660444974899292
v 0.22699521481990814 -0.44550320506095886 0.866025447845459
v 0.15527385473251343 -0.30474212765693665 0.9396926760673523
v 0.07883457839488983 -0.15472158789634705 0.9848077893257141
v 0.30901697278022766 -0.9510565400123596 4.371138828673793e-8
v 0.3043223023414612 -0.936607837677002 0.17364822328090668
v 0.29038095474243164 -0.8937007784843445 0.342020183801651
v 0.26761654019355774 -0.8236390948295593 0.5000000596046448
v 0.2367207109928131 -0.7285515069961548 0.6427876353263855
v 0.19863225519657135 -0.6113272905349731 0.7660444974899292
v 0.15450845658779144 -0.47552821040153503 0.866025447845459
v 0.10569000244140625 -0.32528042793273926 0.9396926760673523
v 0.053660206496715546 -0.16514915227890015 0.9848077893257141
v 0.15643443167209625 -0.9876883625984192 4.371138828673793e-8
v 0.1540578305721283 -0.9726831316947937 0.17364822328090668
v 0.1470002681016922 -0.928123414516449 0.342020183801651
v 0.13547618687152863 -0.8553631901741028 0.5000000596046448
v 0.11983571946620941 -0.7566131353378296 0.6427876353263855
v 0.10055410116910934 -0.6348738074302673 0.7660444974899292
v 0.07821720093488693 -0.4938441216945648 0.866025447845459
v 0.05350371450185776 -0.3378092348575592 0.9396926760673523
v 0.02716454118490219 -0.17151020467281342 0.9848077893257141
v -4.371138828673793e-8 -1 4.371138828673793e-8
v -4.304731504589654e-8 -0.9848077297210693 0.17364822328090668
v -4.107527118435428e-8 -0.9396926164627075 0.342020183801651
v -3.785517321830412e-8 -0.8660253882408142 0.5000000596046448
v -3.34848664351739e-8 -0.7660443782806396 0.6427876353263855
v -2.8097137061422472e-8 -0.6427875757217407 0.7660444974899292
v -2.1855692367012125e-8 -0.4999999403953552 0.866025447845459
v -1.495017265540355e-8 -0.34202006459236145 0.9396926760673523
v -7.590399420109861e-9 -0.17364808917045593 0.9848077893257141
v 0 -1.2246063538223773e-16 -1
v 0.1736481785774231 -1.2060018045315286e-16 -0.9848077297210693
v 0.3420201539993286 -1.1507535511512748e-16 -0.9396926164627075
v 0.5 -1.0605401747550575e-16 -0.8660253882408142
v 0.6427876353263855 -9.381028857184285e-17 -0.7660444378852844
v 0.7660444378852844 -7.871617468666102e-17 -0.6427875757217407
v 0.866025447845459 -6.123031107367396e-17 -0.4999999701976776
v 0.9396926164627075 -4.188400245776939e-17 -0.3420201241970062
v 0.9848077893257141 -2.1265061580200954e-17 -0.17364813387393951
v 1 5.352924535182096e-24 4.371138828673793e-8
v 0.17151027917861938 -0.027164561673998833 -0.9848077297210693
v 0.33780932426452637 -0.05350374057888985 -0.9396926164627075
v 0.4938441812992096 -0.07821723818778992 -0.8660253882408142
v 0.6348738670349121 -0.10055413842201233 -0.7660444378852844
v 0.7566131949424744 -0.1198357567191124 -0.6427875757217407
v 0.8553631901741028 -0.1354762315750122 -0.4999999701976776
v 0.9281234741210938 -0.14700031280517578 -0.3420201241970062
v 0.9726831316947937 -0.15405787527561188 -0.17364813387393951
v 0.9876883625984192 -0.15643447637557983 4.371138828673793e-8
v 0.1651492416858673 -0.05366024002432823 -0.9848077297210693
v 0.32528048753738403 -0.10569003969430923 -0.9396926164627075
v 0.4755282700061798 -0.15450850129127502 -0.8660253882408142
v 0.6113273501396179 -0.19863229990005493 -0.7660444378852844
v 0.7285515666007996 -0.2367207556962967 -0.6427875757217407
v 0.8236390948295593 -0.2676165699958801 -0.4999999701976776
v 0.8937007784843445 -0.2903810143470764 -0.3420201241970062
v 0.936607837677002 -0.30432233214378357 -0.17364813387393951
v 0.9510565400123596 -0.30901700258255005 4.371138828673793e-8
v 0.15472166240215302 -0.07883463054895401 -0.9848077297210693
v 0.3047421872615814 -0.155273899435997 -0.9396926164627075
v 0.44550326466560364 -0.22699525952339172 -0.8660253882408142
v 0.5727279782295227 -0.2918194830417633 -0.7660444378852844
v 0.6825506091117859 -0.3477769196033478 -0.6427875757217407
v 0.7716342806816101 -0.39316731691360474 -0.4999999701976776
v 0.8372722864151001 -0.4266115427017212 -0.3420201241970062
v 0.8774701356887817 -0.4470933675765991 -0.17364813387393951
v 0.8910065293312073 -0.45399051904678345 4.371138828673793e-8
v 0.14048433303833008 -0.10206784307956696 -0.9848077297210693
v 0.27670010924339294 -0.20103441178798676 -0.9396926164627075
v 0.404508501291275 -0.29389265179634094 -0.8660253882408142
v 0.5200260877609253 -0.37782108783721924 -0.7660444378852844
v 0.6197429895401001 -0.4502696394920349 -0.6427875757217407
v 0.7006292939186096 -0.5090369582176208 -0.4999999701976776
v 0.7602273225784302 -0.5523374676704407 -0.3420201241970062
v 0.7967262268066406 -0.5788555145263672 -0.17364813387393951
v 0.80901700258255 -0.5877852439880371 4.371138828673793e-8
v 0.12278780341148376 -0.12278781086206436 -0.9848077297210693
v 0.2418447583913803 -0.2418447732925415 -0.9396926164627075
v 0.3535533845424652 -0.3535534143447876 -0.8660253882408142
v 0.45451948046684265 -0.45451951026916504 -0.7660444378852844
v 0.5416752099990845 -0.5416752696037292 -0.6427875757217407
v 0.6123724579811096 -0.6123724579811096 -0.4999999701976776
v 0.6644630432128906 -0.6644630432128906 -0.3420201241970062
v 0.6963642239570618 -0.6963642835617065 -0.17364813387393951
v 0.7071067690849304 -0.7071067690849304 4.371138828673793e-8
v 0.10206783562898636 -0.14048433303833008 -0.9848077297210693
v 0.20103439688682556 -0.27670010924339294 -0.9396926164627075
v 0.29389262199401855 -0.404508501291275 -0.8660253882408142
v 0.37782105803489685 -0.5200261473655701 -0.7660444378852844
v 0.4502696096897125 -0.6197429895401001 -0.6427875757217407
v 0.5090369582176208 -0.7006292939186096 -0.4999999701976776
v 0.5523374676704407 -0.7602273225784302 -0.3420201241970062
v 0.5788554549217224 -0.7967262268066406 -0.17364813387393951
v 0.5877852439880371 -0.80901700258255 4.371138828673793e-8
v 0.07883462309837341 -0.15472166240215302 -0.9848077297210693
v 0.15527388453483582 -0.3047421872615814 -0.9396926164627075
v 0.22699524462223053 -0.445503294467926 -0.8660253882408142
v 0.2918194532394409 -0.5727279782295227 -0.7660444378852844
v 0.3477768898010254 -0.6825506091117859 -0.6427875757217407
v 0.39316728711128235 -0.7716342806816101 -0.4999999701976776
v 0.4266115128993988 -0.8372722864151001 -0.3420201241970062
v 0.44709333777427673 -0.8774701356887817 -0.17364813387393951
v 0.45399045944213867 -0.8910065293312073 4.371138828673793e-8
v 0.053660232573747635 -0.1651492416858673 -0.9848077297210693
v 0.10569002479314804 -0.32528048753738403 -0.9396926164627075
v 0.15450848639011383 -0.4755282700061798 -0.8660253882408142
v 0.19863228499889374 -0.6113273501396179 -0.7660444378852844
v 0.2367207258939743 -0.7285515666007996 -0.6427875757217407
v 0.26761654019355774 -0.8236391544342041 -0.4999999701976776
v 0.29038095474243164 -0.8937008380889893 -0.3420201241970062
v 0.3043223023414612 -0.936607837677002 -0.17364813387393951
v 0.30901697278022766 -0.9510565400123596 4.371138828673793e-8
v 0.027164554223418236 -0.17151027917861938 -0.9848077297210693
v 0.05350372567772865 -0.33780932426452637 -0.9396926164627075
v 0.07821721583604813 -0.4938441812992096 -0.8660253882408142
v 0.10055411607027054 -0.6348738670349121 -0.7660444378852844
v 0.11983572691679001 -0.7566131949424744 -0.6427875757217407
v 0.13547618687152863 -0.8553631901741028 -0.4999999701976776
v 0.1470002830028534 -0.9281234741210938 -0.3420201241970062
v 0.1540578305721283 -0.9726831316947937 -0.17364813387393951
v 0.15643443167209625 -0.9876883625984192 4.371138828673793e-8
v -7.59040386100196e-9 -0.1736481785774231 -0.9848077297210693
v -1.4950176208117227e-8 -0.3420201539993286 -0.9396926164627075
v -2.1855695919725804e-8 -0.5 -0.8660253882408142
v -2.809714061413615e-8 -0.6427876353263855 -0.7660444378852844
v -3.34848664351739e-8 -0.7660444378852844 -0.6427875757217407
v -3.785517321830412e-8 -0.866025447845459 -0.4999999701976776
v -4.107527118435428e-8 -0.9396926164627075 -0.3420201241970062
v -4.304731504589654e-8 -0.9848077893257141 -0.17364813387393951
v -4.371138828673793e-8 -1 4.371138828673793e-8
v -1.2246063538223773e-16 0 1
v -1 0 4.371138828673793e-8
v -0.9848077297210693 0 0.17364822328090668
v -0.9396926164627075 0 0.342020183801651
v -0.8660253882408142 0 0.5000000596046448
v -0.7660443782806396 0 0.6427876353263855
v -0.6427875757217407 0 0.7660444974899292
v -0.4999999403953552 0 0.866025447845459
v -0.34202006459236145 0 0.9396926760673523
v -0.17364808917045593 0 0.9848077893257141
v -0.9876883625984192 0.15643447637557983 4.371138828673793e-8
v -0.9726831316947937 0.15405787527561188 0.17364822328090668
v -0.928123414516449 0.14700031280517578 0.342020183801651
v -0.8553631901741028 0.135476216673851 0.5000000596046448
v -0.7566131353378296 0.1198357492685318 0.6427876353263855
v -0.6348737478256226 0.10055413097143173 0.7660444974899292
v -0.4938441216945648 0.07821722328662872 0.866025447845459
v -0.3378092348575592 0.05350372940301895 0.9396926760673523
v -0.17151020467281342 0.027164548635482788 0.9848077893257141
v -0.9510565400123596 0.30901700258255005 4.371138828673793e-8
v -0.936607837677002 0.30432233214378357 0.17364822328090668
v -0.8937007784843445 0.29038098454475403 0.342020183801651
v -0.8236390948295593 0.2676165699958801 0.5000000596046448
v -0.7285515069961548 0.2367207407951355 0.6427876353263855
v -0.6113272905349731 0.19863228499889374 0.7660444974899292
v -0.47552821040153503 0.15450848639011383 0.866025447845459
v -0.32528042793273926 0.10569001734256744 0.9396926760673523
v -0.16514915227890015 0.05366021394729614 0.9848077893257141
v -0.8910065293312073 0.45399051904678345 4.371138828673793e-8
v -0.8774701356887817 0.4470933675765991 0.17364822328090668
v -0.8372722268104553 0.4266115128993988 0.342020183801651
v -0.7716342806816101 0.39316731691360474 0.5000000596046448
v -0.6825505495071411 0.3477768898010254 0.6427876353263855
v -0.5727279186248779 0.2918194532394409 0.7660444974899292
v -0.44550320506095886 0.22699522972106934 0.866025447845459
v -0.30474209785461426 0.15527386963367462 0.9396926760673523
v -0.15472158789634705 0.07883458584547043 0.9848077893257141
v -0.80901700258255 0.5877852439880371 4.371138828673793e-8
v -0.7967261672019958 0.5788554549217224 0.17364822328090668
v -0.7602272629737854 0.5523374676704407 0.342020183801651
v -0.7006292343139648 0.5090369582176208 0.5000000596046448
v -0.6197429299354553 0.4502696096897125 0.6427876353263855
v -0.5200260281562805 0.37782105803489685 0.7660444974899292
v -0.40450844168663025 0.29389259219169617 0.866025447845459
v -0.27670004963874817 0.20103435218334198 0.9396926760673523
v -0.1404842585325241 0.10206779092550278 0.9848077893257141
v -0.7071067690849304 0.7071067690849304 4.371138828673793e-8
v -0.6963642239570618 0.6963642239570618 0.17364822328090668
v -0.6644629836082458 0.6644630432128906 0.342020183801651
v -0.6123723983764648 0.6123724579811096 0.5000000596046448
v -0.5416751503944397 0.5416752099990845 0.6427876353263855
v -0.4545194208621979 0.45451945066452026 0.7660444974899292
v -0.35355332493782043 0.3535533547401428 0.866025447845459
v -0.24184469878673553 0.24184471368789673 0.9396926760673523
v -0.12278774380683899 0.12278775125741959 0.9848077893257141
v -0.5877852439880371 0.80901700258255 4.371138828673793e-8
v -0.5788554549217224 0.7967262268066406 0.17364822328090668
v -0.5523374080657959 0.7602273225784302 0.342020183801651
v -0.5090368986129761 0.7006292343139648 0.5000000596046448
v -0.45026957988739014 0.6197429299354553 0.6427876353263855
v -0.37782102823257446 0.5200260877609253 0.7660444974899292
v -0.29389259219169617 0.40450844168663025 0.866025447845459
v -0.20103435218334198 0.27670004963874817 0.9396926760673523
v -0.10206778347492218 0.1404842585325241 0.9848077893257141
v -0.45399045944213867 0.8910065293312073 4.371138828673793e-8
v -0.44709333777427673 0.8774701356887817 0.17364822328090668
v -0.4266114830970764 0.8372722268104553 0.342020183801651
v -0.39316725730895996 0.7716342806816101 0.5000000596046448
v -0.347776859998703 0.6825505495071411 0.6427876353263855
v -0.29181942343711853 0.5727279186248779 0.7660444974899292
v -0.22699521481990814 0.44550320506095886 0.866025447845459
v -0.15527385473251343 0.30474212765693665 0.9396926760673523
v -0.07883457839488983 0.15472158789634705 0.9848077893257141
v -0.30901697278022766 0.9510565400123596 4.371138828673793e-8
v -0.3043223023414612 0.936607837677002 0.17364822328090668
v -0.29038095474243164 0.8937007784843445 0.342020183801651
v -0.26761654019355774 0.8236390948295593 0.5000000596046448
v -0.2367207109928131 0.7285515069961548 0.6427876353263855
v -0.19863225519657135 0.6113272905349731 0.7660444974899292
v -0.15450845658779144 0.47552821040153503 0.866025447845459
v -0.10569000244140625 0.32528042793273926 0.9396926760673523
v -0.053660206496715546 0.16514915227890015 0.9848077893257141
v -0.15643443167209625 0.9876883625984192 4.371138828673793e-8
v -0.1540578305721283 0.9726831316947937 0.17364822328090668
v -0.1470002681016922 0.928123414516449 0.342020183801651
v -0.13547618687152863 0.8553631901741028 0.5000000596046448
v -0.11983571946620941 0.7566131353378296 0.6427876353263855
v -0.10055410116910934 0.6348738074302673 0.7660444974899292
v -0.07821720093488693 0.4938441216945648 0.866025447845459
v -0.05350371450185776 0.3378092348575592 0.9396926760673523
v -0.02716454118490219 0.17151020467281342 0.9848077893257141
v 4.371138828673793e-8 1 4.371138828673793e-8
v 4.304731504589654e-8 0.9848077297210693 0.17364822328090668
v 4.107527118435428e-8 0.9396926164627075 0.342020183801651
v 3.785517321830412e-8 0.8660253882408142 0.5000000596046448
v 3.34848664351739e-8 0.7660443782806396 0.6427876353263855
v 2.8097137061422472e-8 0.6427875757217407 0.7660444974899292
v 2.1855692367012125e-8 0.4999999403953552 0.866025447845459
v 1.495017265540355e-8 0.34202006459236145 0.9396926760673523
v 7.590399420109861e-9 0.17364808917045593 0.9848077893257141
v 1.2246063538223773e-16 0 -1
v -0.1736481785774231 0 -0.9848077297210693
v -0.3420201539993286 0 -0.9396926164627075
v -0.5 0 -0.8660253882408142
v -0.6427876353263855 0 -0.7660444378852844
v -0.7660444378852844 0 -0.6427875757217407
v -0.866025447845459 0 -0.4999999701976776
v -0.9396926164627075 0 -0.3420201241970062
v -0.9848077893257141 0 -0.17364813387393951
v -1 0 4.371138828673793e-8
v -0.17151027917861938 0.027164561673998833 -0.9848077297210693
v -0.33780932426452637 0.05350374057888985 -0.9396926164627075
v -0.4938441812992096 0.07821723818778992 -0.8660253882408142
v -0.6348738670349121 0.10055413842201233 -0.7660444378852844
v -0.7566131949424744 0.1198357567191124 -0.6427875757217407
v -0.8553631901741028 0.1354762315750122 -0.4999999701976776
v -0.9281234741210938 0.14700031280517578 -0.3420201241970062
v -0.9726831316947937 0.15405787527561188 -0.17364813387393951
v -0.9876883625984192 0.15643447637557983 4.371138828673793e-8
v -0.1651492416858673 0.05366024002432823 -0.9848077297210693
v -0.32528048753738403 0.10569003969430923 -0.9396926164627075
v -0.4755282700061798 0.15450850129127502 -0.8660253882408142
v -0.6113273501396179 0.19863229990005493 -0.7660444378852844
v -0.7285515666007996 0.2367207556962967 -0.6427875757217407
v -0.8236390948295593 0.2676165699958801 -0.4999999701976776
v -0.8937007784843445 0.2903810143470764 -0.3420201241970062
v -0.936607837677002 0.30432233214378357 -0.17364813387393951
v -0.9510565400123596 0.30901700258255005 4.371138828673793e-8
v -0.15472166240215302 0.07883463054895401 -0.9848077297210693
v -0.3047421872615814 0.155273899435997 -0.9396926164627075
v -0.44550326466560364 0.22699525952339172 -0.8660253882408142
v -0.5727279782295227 0.2918194830417633 -0.7660444378852844
v -0.6825506091117859 0.3477769196033478 -0.6427875757217407
v -0.7716342806816101 0.39316731691360474 -0.4999999701976776
v -0.8372722864151001 0.4266115427017212 -0.3420201241970062
v -0.8774701356887817 0.4470933675765991 -0.17364813387393951
v -0.8910065293312073 0.45399051904678345 4.371138828673793e-8
v -0.14048433303833008 0.10206784307956696 -0.9848077297210693
v -0.27670010924339294 0.20103441178798676 -0.9396926164627075
v -0.404508501291275 0.29389265179634094 -0.8660253882408142
v -0.5200260877609253 0.37782108783721924 -0.7660444378852844
v -0.6197429895401001 0.4502696394920349 -0.6427875757217407
v -0.7006292939186096 0.5090369582176208 -0.4999999701976776
v -0.7602273225784302 0.5523374676704407 -0.3420201241970062
v -0.7967262268066406 0.5788555145263672 -0.17364813387393951
v -0.80901700258255 0.5877852439880371 4.371138828673793e-8
v -0.12278780341148376 0.12278781086206436 -0.9848077297210693
v -0.2418447583913803 0.2418447732925415 -0.9396926164627075
v -0.3535533845424652 0.3535534143447876 -0.8660253882408142
v -0.45451948046684265 0.45451951026916504 -0.7660444378852844
v -0.5416752099990845 0.5416752696037292 -0.6427875757217407
v -0.6123724579811096 0.6123724579811096 -0.4999999701976776
v -0.6644630432128906 0.6644630432128906 -0.3420201241970062
v -0.6963642239570618 0.6963642835617065 -0.17364813387393951
v -0.7071067690849304 0.7071067690849304 4.371138828673793e-8
v -0.10206783562898636 0.14048433303833008 -0.9848077297210693
v -0.20103439688682556 0.27670010924339294 -0.9396926164627075
v -0.29389262199401855 0.404508501291275 -0.8660253882408142
v -0.37782105803489685 0.5200261473655701 -0.7660444378852844
v -0.4502696096897125 0.6197429895401001 -0.6427875757217407
v -0.5090369582176208 0.7006292939186096 -0.4999999701976776
v -0.5523374676704407 0.7602273225784302 -0.3420201241970062
v -0.5788554549217224 0.7967262268066406 -0.17364813387393951
v -0.5877852439880371 0.80901700258255 4.371138828673793e-8
v -0.07883462309837341 0.15472166240215302 -0.9848077297210693
v -0.15527388453483582 0.3047421872615814 -0.9396926164627075
v -0.22699524462223053 0.445503294467926 -0.8660253882408142
v -0.2918194532394409 0.5727279782295227 -0.7660444378852844
v -0.3477768898010254 0.6825506091117859 -0.6427875757217407
v -0.39316728711128235 0.7716342806816101 -0.4999999701976776
v -0.4266115128993988 0.8372722864151001 -0.3420201241970062
v -0.44709333777427673 0.8774701356887817 -0.17364813387393951
v -0.45399045944213867 0.8910065293312073 4.371138828673793e-8
v -0.053660232573747635 0.1651492416858673 -0.9848077297210693
v -0.10569002479314804 0.32528048753738403 -0.9396926164627075
v -0.15450848639011383 0.4755282700061798 -0.8660253882408142
v -0.19863228499889374 0.6113273501396179 -0.7660444378852844
v -0.2367207258939743 0.7285515666007996 -0.6427875757217407
v -0.26761654019355774 0.8236391544342041 -0.4999999701976776
v -0.29038095474243164 0.8937008380889893 -0.3420201241970062
v -0.3043223023414612 0.936607837677002 -0.17364813387393951
v -0.30901697278022766 0.9510565400123596 4.371138828673793e-8
v -0.027164554223418236 0.17151027917861938 -0.9848077297210693
v -0.05350372567772865 0.33780932426452637 -0.9396926164627075
v -0.07821721583604813 0.4938441812992096 -0.8660253882408142
v -0.10055411607027054 0.6348738670349121 -0.7660444378852844
v -0.11983572691679001 0.7566131949424744 -0.6427875757217407
v -0.13547618687152863 0.8553631901741028 -0.4999999701976776
v -0.1470002830028534 0.9281234741210938 -0.3420201241970062
v -0.1540578305721283 0.9726831316947937 -0.17364813387393951
v -0.15643443167209625 0.9876883625984192 4.371138828673793e-8
v 7.59040386100196e-9 0.1736481785774231 -0.9848077297210693
v 1.4950176208117227e-8 0.3420201539993286 -0.9396926164627075
v 2.1855695919725804e-8 0.5 -0.8660253882408142
v 2.809714061413615e-8 0.6427876353263855 -0.7660444378852844
v 3.34848664351739e-8 0.7660444378852844 -0.6427875757217407
v 3.785517321830412e-8 0.866025447845459 -0.4999999701976776
v 4.107527118435428e-8 0.9396926164627075 -0.3420201241970062
v 4.304731504589654e-8 0.9848077893257141 -0.17364813387393951
v 4.371138828673793e-8 1 4.371138828673793e-8
v 0 0 -1
v 1 0 -4.371138828673793e-8
v 0.9848077297210693 0 -0.17364822328090668
v 0.9396926164627075 0 -0.342020183801651
v 0.8660253882408142 0 -0.5000000596046448
v 0.7660443782806396 0 -0.6427876353263855
v 0.6427875757217407 0 -0.7660444974899292
v 0.4999999403953552 0 -0.866025447845459
v 0.34202006459236145 0 -0.9396926760673523
v 0.17364808917045593 0 -0.9848077893257141
v 0.9876883625984192 0.15643447637557983 -4.371138828673793e-8
v 0.9726831316947937 0.15405787527561188 -0.17364822328090668
v 0.928123414516449 0.14700031280517578 -0.342020183801651
v 0.8553631901741028 0.135476216673851 -0.5000000596046448
v 0.7566131353378296 0.1198357492685318 -0.6427876353263855
v 0.6348737478256226 0.10055413097143173 -0.7660444974899292
v 0.4938441216945648 0.07821722328662872 -0.866025447845459
v 0.3378092348575592 0.05350372940301895 -0.9396926760673523
v 0.17151020467281342 0.027164548635482788 -0.9848077893257141
v 0.9510565400123596 0.30901700258255005 -4.371138828673793e-8
v 0.936607837677002 0.30432233214378357 -0.17364822328090668
v 0.8937007784843445 0.29038098454475403 -0.342020183801651
v 0.8236390948295593 0.2676165699958801 -0.5000000596046448
v 0.7285515069961548 0.2367207407951355 -0.6427876353263855
v 0.6113272905349731 0.19863228499889374 -0.7660444974899292
v 0.47552821040153503 0.15450848639011383 -0.866025447845459
v 0.32528042793273926 0.10569001734256744 -0.9396926760673523
v 0.16514915227890015 0.05366021394729614 -0.9848077893257141
v 0.8910065293312073 0.45399051904678345 -4.371138828673793e-8
v 0.8774701356887817 0.4470933675765991 -0.17364822328090668
v 0.8372722268104553 0.4266115128993988 -0.342020183801651
v 0.7716342806816101 0.39316731691360474 -0.5000000596046448
v 0.6825505495071411 0.3477768898010254 -0.6427876353263855
v 0.5727279186248779 0.2918194532394409 -0.7660444974899292
v 0.44550320506095886 0.22699522972106934 -0.866025447845459
v 0.30474209785461426 0.15527386963367462 -0.9396926760673523
v 0.15472158789634705 0.07883458584547043 -0.9848077893257141
v 0.80901700258255 0.5877852439880371 -4.371138828673793e-8
v 0.7967261672019958 0.5788554549217224 -0.17364822328090668
v 0.7602272629737854 0.5523374676704407 -0.342020183801651
v 0.7006292343139648 0.5090369582176208 -0.5000000596046448
v 0.6197429299354553 0.4502696096897125 -0.6427876353263855
v 0.5200260281562805 0.37782105803489685 -0.7660444974899292
v 0.40450844168663025 0.29389259219169617 -0.866025447845459
v 0.27670004963874817 0.20103435218334198 -0.9396926760673523
v 0.1404842585325241 0.10206779092550278 -0.9848077893257141
v 0.7071067690849304 0.7071067690849304 -4.371138828673793e-8
v 0.6963642239570618 0.6963642239570618 -0.17364822328090668
v 0.6644629836082458 0.6644630432128906 -0.342020183801651
v 0.6123723983764648 0.6123724579811096 -0.5000000596046448
v 0.5416751503944397 0.5416752099990845 -0.6427876353263855
v 0.4545194208621979 0.45451945066452026 -0.7660444974899292
v 0.35355332493782043 0.3535533547401428 -0.866025447845459
v 0.24184469878673553 0.24184471368789673 -0.9396926760673523
v 0.12278774380683899 0.12278775125741959 -0.9848077893257141
v 0.5877852439880371 0.80901700258255 -4.371138828673793e-8
v 0.5788554549217224 0.7967262268066406 -0.17364822328090668
v 0.5523374080657959 0.7602273225784302 -0.342020183801651
v 0.5090368986129761 0.7006292343139648 -0.5000000596046448
v 0.45026957988739014 0.6197429299354553 -0.6427876353263855
v 0.37782102823257446 0.5200260877609253 -0.7660444974899292
v 0.29389259219169617 0.40450844168663025 -0.866025447845459
v 0.20103435218334198 0.27670004963874817 -0.9396926760673523
v 0.10206778347492218 0.1404842585325241 -0.9848077893257141
v 0.45399045944213867 0.8910065293312073 -4.371138828673793e-8
v 0.44709333777427673 0.8774701356887817 -0.17364822328090668
v 0.4266114830970764 0.8372722268104553 -0.342020183801651
v 0.39316725730895996 0.7716342806816101 -0.5000000596046448
v 0.347776859998703 0.6825505495071411 -0.6427876353263855
v 0.29181942343711853 0.5727279186248779 -0.7660444974899292
v 0.22699521481990814 0.44550320506095886 -0.866025447845459
v 0.15527385473251343 0.30474212765693665 -0.9396926760673523
v 0.07883457839488983 0.15472158789634705 -0.9848077893257141
v 0.30901697278022766 0.9510565400123596 -4.371138828673793e-8
v 0.3043223023414612 0.936607837677002 -0.17364822328090668
v 0.29038095474243164 0.8937007784843445 -0.342020183801651
v 0.26761654019355774 0.8236390948295593 -0.5000000596046448
v 0.2367207109928131 0.7285515069961548 -0.6427876353263855
v 0.19863225519657135 0.6113272905349731 -0.7660444974899292
v 0.15450845658779144 0.47552821040153503 -0.866025447845459
v 0.10569000244140625 0.32528042793273926 -0.9396926760673523
v 0.053660206496715546 0.16514915227890015 -0.9848077893257141
v 0.15643443167209625 0.9876883625984192 -4.371138828673793e-8
v 0.1540578305721283 0.9726831316947937 -0.17364822328090668
v 0.1470002681016922 0.928123414516449 -0.342020183801651
v 0.13547618687152863 0.8553631901741028 -0.5000000596046448
v 0.11983571946620941 0.7566131353378296 -0.6427876353263855
v 0.10055410116910934 0.6348738074302673 -0.7660444974899292
v 0.07821720093488693 0.4938441216945648 -0.866025447845459
v 0.05350371450185776 0.3378092348575592 -0.9396926760673523
v 0.02716454118490219 0.17151020467281342 -0.9848077893257141
v -4.371138828673793e-8 1 -4.371138828673793e-8
v -4.304731504589654e-8 0.9848077297210693 -0.17364822328090668
v -4.107527118435428e-8 0.9396926164627075 -0.342020183801651
v -3.785517321830412e-8 0.8660253882408142 -0.5000000596046448
v -3.34848664351739e-8 0.7660443782806396 -0.6427876353263855
v -2.8097137061422472e-8 0.6427875757217407 -0.7660444974899292
v -2.1855692367012125e-8 0.4999999403953552 -0.866025447845459
v -1.495017265540355e-8 0.34202006459236145 -0.9396926760673523
v -7.590399420109861e-9 0.17364808917045593 -0.9848077893257141
v 0 0 1
v 0.1736481785774231 0 0.9848077297210693
v 0.3420201539993286 0 0.9396926164627075
v 0.5 0 0.8660253882408142
v 0.6427876353263855 0 0.7660444378852844
v 0.7660444378852844 0 0.6427875757217407
v 0.866025447845459 0 0.4999999701976776
v 0.9396926164627075 0 0.3420201241970062
v 0.9848077893257141 0 0.17364813387393951
v 1 0 -4.371138828673793e-8
v 0.17151027917861938 0.027164561673998833 0.9848077297210693
v 0.33780932426452637 0.05350374057888985 0.9396926164627075
v 0.4938441812992096 0.07821723818778992 0.8660253882408142
v 0.6348738670349121 0.10055413842201233 0.7660444378852844
v 0.7566131949424744 0.1198357567191124 0.6427875757217407
v 0.8553631901741028 0.1354762315750122 0.4999999701976776
v 0.9281234741210938 0.14700031280517578 0.3420201241970062
v 0.9726831316947937 0.15405787527561188 0.17364813387393951
v 0.9876883625984192 0.15643447637557983 -4.371138828673793e-8
v 0.1651492416858673 0.05366024002432823 0.9848077297210693
v 0.32528048753738403 0.10569003969430923 0.9396926164627075
v 0.4755282700061798 0.15450850129127502 0.8660253882408142
v 0.6113273501396179 0.19863229990005493 0.7660444378852844
v 0.7285515666007996 0.2367207556962967 0.6427875757217407
v 0.8236390948295593 0.2676165699958801 0.4999999701976776
v 0.8937007784843445 0.2903810143470764 0.3420201241970062
v 0.936607837677002 0.30432233214378357 0.17364813387393951
v 0.9510565400123596 0.30901700258255005 -4.371138828673793e-8
v 0.15472166240215302 0.07883463054895401 0.9848077297210693
v 0.3047421872615814 0.155273899435997 0.9396926164627075
v 0.44550326466560364 0.22699525952339172 0.8660253882408142
v 0.5727279782295227 0.2918194830417633 0.7660444378852844
v 0.6825506091117859 0.3477769196033478 0.6427875757217407
v 0.7716342806816101 0.39316731691360474 0.4999999701976776
v 0.8372722864151001 0.4266115427017212 0.3420201241970062
v 0.8774701356887817 0.4470933675765991 0.17364813387393951
v 0.8910065293312073 0.45399051904678345 -4.371138828673793e-8
v 0.14048433303833008 0.10206784307956696 0.9848077297210693
v 0.27670010924339294 0.20103441178798676 0.9396926164627075
v 0.404508501291275 0.29389265179634094 0.8660253882408142
v 0.5200260877609253 0.37782108783721924 0.7660444378852844
v 0.6197429895401001 0.4502696394920349 0.6427875757217407
v 0.7006292939186096 0.5090369582176208 0.4999999701976776
v 0.7602273225784302 0.5523374676704407 0.3420201241970062
v 0.7967262268066406 0.5788555145263672 0.17364813387393951
v 0.80901700258255 0.5877852439880371 -4.371138828673793e-8
v 0.12278780341148376 0.12278781086206436 0.9848077297210693
v 0.2418447583913803 0.2418447732925415 0.9396926164627075
v 0.3535533845424652 0.3535534143447876 0.8660253882408142
v 0.45451948046684265 0.45451951026916504 0.7660444378852844
v 0.5416752099990845 0.5416752696037292 0.6427875757217407
v 0.6123724579811096 0.6123724579811096 0.4999999701976776
v 0.6644630432128906 0.6644630432128906 0.3420201241970062
v 0.6963642239570618 0.6963642835617065 0.17364813387393951
v 0.7071067690849304 0.7071067690849304 -4.371138828673793e-8
v 0.10206783562898636 0.14048433303833008 0.9848077297210693
v 0.20103439688682556 0.27670010924339294 0.9396926164627075
v 0.29389262199401855 0.404508501291275 0.8660253882408142
v 0.37782105803489685 0.5200261473655701 0.7660444378852844
v 0.4502696096897125 0.6197429895401001 0.6427875757217407
v 0.5090369582176208 0.7006292939186096 0.4999999701976776
v 0.5523374676704407 0.7602273225784302 0.3420201241970062
v 0.5788554549217224 0.7967262268066406 0.17364813387393951
v 0.5877852439880371 0.80901700258255 -4.371138828673793e-8
v 0.07883462309837341 0.15472166240215302 0.9848077297210693
v 0.15527388453483582 0.3047421872615814 0.9396926164627075
v 0.22699524462223053 0.445503294467926 0.8660253882408142
v 0.2918194532394409 0.5727279782295227 0.7660444378852844
v 0.3477768898010254 0.6825506091117859 0.6427875757217407
v 0.39316728711128235 0.7716342806816101 0.4999999701976776
v 0.4266115128993988 0.8372722864151001 0.3420201241970062
v 0.44709333777427673 0.8774701356887817 0.17364813387393951
v 0.45399045944213867 0.8910065293312073 -4.371138828673793e-8
v 0.053660232573747635 0.1651492416858673 0.9848077297210693
v 0.10569002479314804 0.32528048753738403 0.9396926164627075
v 0.15450848639011383 0.4755282700061798 0.8660253882408142
v 0.19863228499889374 0.6113273501396179 0.7660444378852844
v 0.2367207258939743 0.7285515666007996 0.6427875757217407
v 0.26761654019355774 0.8236391544342041 0.4999999701976776
v 0.29038095474243164 0.8937008380889893 0.3420201241970062
v 0.3043223023414612 0.936607837677002 0.17364813387393951
v 0.30901697278022766 0.9510565400123596 -4.371138828673793e-8
v 0.027164554223418236 0.17151027917861938 0.9848077297210693
v 0.05350372567772865 0.33780932426452637 0.9396926164627075
v 0.07821721583604813 0.4938441812992096 0.8660253882408142
v 0.10055411607027054 0.6348738670349121 0.7660444378852844
v 0.11983572691679001 0.7566131949424744 0.6427875757217407
v 0.13547618687152863 0.8553631901741028 0.4999999701976776
v 0.1470002830028534 0.9281234741210938 0.3420201241970062
v 0.1540578305721283 0.9726831316947937 0.17364813387393951
v 0.15643443167209625 0.9876883625984192 -4.371138828673793e-8
v -7.59040386100196e-9 0.1736481785774231 0.9848077297210693
v -1.4950176208117227e-8 0.3420201539993286 0.9396926164627075
v -2.1855695919725804e-8 0.5 0.8660253882408142
v -2.809714061413615e-8 0.6427876353263855 0.7660444378852844
v -3.34848664351739e-8 0.7660444378852844 0.6427875757217407
v -3.785517321830412e-8 0.866025447845459 0.4999999701976776
v -4.107527118435428e-8 0.9396926164627075 0.3420201241970062
v -4.304731504589654e-8 0.9848077893257141 0.17364813387393951
v -4.371138828673793e-8 1 -4.371138828673793e-8
f 10 1 19
f 19 1 28
f 28 1 37
f 37 1 46
f 46 1 55
f 55 1 64
f 64 1 73
f 73 1 82
f 82 1 91
f 91 1 100
f 2 3 12
f 2 12 11
f 3 4 13
f 3 13 12
f 4 5 14
f 4 14 13
f 5 6 15
f 5 15 14
f 6 7 16
f 6 16 15
f 7 8 17
f 7 17 16
f 8 9 18
f 8 18 17
f 9 10 19
f 9 19 18
f 11 12 21
f 11 21 20
f 12 13 22
f 12 22 21
f 13 14 23
f 13 23 22
f 14 15 24
f 14 24 23
f 15 16 25
f 15 25 24
f 16 17 26
f 16 26 25
f 17 18 27
f 17 27 26
f 18 19 28
f 18 28 27
f 20 21 30
f 20 30 29
f 21 22 31
f 21 31 30
f 22 23 32
f 22 32 31
f 23 24 33
f 23 33 32
f 24 25 34
f 24 34 33
f 25 26 35
f 25 35 34
f 26 27 36
f 26 36 35
f 27 28 37
f 27 37 36
f 29 30 39
f 29 39 38
f 30 31 40
f 30 40 39
f 31 32 41
f 31 41 40
f 32 33 42
f 32 42 41
f 33 34 43
f 33 43 42
f 34 35 44
f 34 44 43
f 35 36 45
f 35 45 44
f 36 37 46
f 36 46 45
f 38 39 48
f 38 48 47
f 39 40 49
f 39 49 48
f 40 41 50
f 40 50 49
f 41 42 51
f 41 51 50
f 42 43 52
f 42 52 51
f 43 44 53
f 43 53 52
f 44 45 54
f 44 54 53
f 45 46 55
f 45 55 54
f 47 48 57
f 47 57 56
f 48 49 58
f 48 58 57
f 49 50 59
f 49 59 58
f 50 51 60
f 50 60 59
f 51 52 61
f 51 61 60
f 52 53 62
f 52 62 61
f 53 54 63
f 53 63 62
f 54 55 64
f 54 64 63
f 56 57 66
f 56 66 65
f 57 58 67
f 57 67 66
f 58 59 68
f 58 68 67
f 59 60 69
f 59 69 68
f 60 61 70
f 60 70 69
f 61 62 71
f 61 71 70
f 62 63 72
f 62 72 71
f 63 64 73
f 63 73 72
f 65 66 75
f 65 75 74
f 66 67 76
f 66 76 75
f 67 68 77
f 67 77 76
f 68 69 78
f 68 78 77
f 69 70 79
f 69 79 78
f 70 71 80
f 70 80 79
f 71 72 81
f 71 81 80
f 72 73 82
f 72 82 81
f 74 75 84
f 74 84 83
f 75 76 85
f 75 85 84
f 76 77 86
f 76 86 85
f 77 78 87
f 77 87 86
f 78 79 88
f 78 88 87
f 79 80 89
f 79 89 88
f 80 81 90
f 80 90 89
f 81 82 91
f 81 91 90
f 83 84 93
f 83 93 92
f 84 85 94
f 84 94 93
f 85 86 95
f 85 95 94
f 86 87 96
f 86 96 95
f 87 88 97
f 87 97 96
f 88 89 98
f 88 98 97
f 89 90 99
f 89 99 98
f 90 91 100
f 90 100 99
f 102 111 101
f 111 120 101
f 120 129 101
f 129 138 101
f 138 147 101
f 147 156 101
f 156 165 101
f 165 174 101
f 174 183 101
f 183 192 101
f 102 103 112
f 102 112 111
f 103 104 113
f 103 113 112
f 104 105 114
f 104 114 113
f 105 106 115
f 105 115 114
f 106 107 116
f 106 116 115
f 107 108 117
f 107 117 116
f 108 109 118
f 108 118 117
f 109 110 119
f 109 119 118
f 111 112 121
f 111 121 120
f 112 113 122
f 112 122 121
f 113 114 123
f 113 123 122
f 114 115 124
f 114 124 123
f 115 116 125
f 115 125 124
f 116 117 126
f 116 126 125
f 117 118 127
f 117 127 126
f 118 119 128
f 118 128 127
f 120 121 130
f 120 130 129
f 121 122 131
f 121 131 130
f 122 123 132
f 122 132 131
f 123 124 133
f 123 133 132
f 124 125 134
f 124 134 133
f 125 126 135
f 125 135 134
f 126 127 136
f 126 136 135
f 127 128 137
f 127 137 136
f 129 130 139
f 129 139 138
f 130 131 140
f 130 140 139
f 131 132 141
f 131 141 140
f 132 133 142
f 132 142 141
f 133 134 143
f 133 143 142
f 134 135 144
f 134 144 143
f 135 136 145
f 135 145 144
f 136 137 146
f 136 146 145
f 138 139 148
f 138 148 147
f 139 140 149
f 139 149 148
f 140 141 150
f 140 150 149
f 141 142 151
f 141 151 150
f 142 143 152
f 142 152 151
f 143 144 153
f 143 153 152
f 144 145 154
f 144 154 153
f 145 146 155
f 145 155 154
f 147 148 157
f 147 157 156
f 148 149 158
f 148 158 157
f 149 150 159
f 149 159 158
f 150 151 160
f 150 160 159
f 151 152 161
f 151 161 160
f 152 153 162
f 152 162 161
f 153 154 163
f 153 163 162
f 154 155 164
f 154 164 163
f 156 157 166
f 156 166 165
f 157 158 167
f 157 167 166
f 158 159 168
f 158 168 167
f 159 160 169
f 159 169 168
f 160 161 170
f 160 170 169
f 161 162 171
f 161 171 170
f 162 163 172
f 162 172 171
f 163 164 173
f 163 173 172
f 165 166 175
f 165 175 174
f 166 167 176
f 166 176 175
f 167 168 177
f 167 177 176
f 168 169 178
f 168 178 177
f 169 170 179
f 169 179 178
f 170 171 180
f 170 180 179
f 171 172 181
f 171 181 180
f 172 173 182
f 172 182 181
f 174 175 184
f 174 184 183
f 175 176 185
f 175 185 184
f 176 177 186
f 176 186 185
f 177 178 187
f 177 187 186
f 178 179 188
f 178 188 187
f 179 180 189
f 179 189 188
f 180 181 190
f 180 190 189
f 181 182 191
f 181 191 190
f 183 184 193
f 183 193 192
f 184 185 194
f 184 194 193
f 185 186 195
f 185 195 194
f 186 187 196
f 186 196 195
f 187 188 197
f 187 197 196
f 188 189 198
f 188 198 197
f 189 190 199
f 189 199 198
f 190 191 200
f 190 200 199
f 210 201 219
f 219 201 228
f 228 201 237
f 237 201 246
f 246 201 255
f 255 201 264
f 264 201 273
f 273 201 282
f 282 201 291
f 291 201 300
f 202 203 212
f 202 212 211
f 203 204 213
f 203 213 212
f 204 205 214
f 204 214 213
f 205 206 215
f 205 215 214
f 206 207 216
f 206 216 215
f 207 208 217
f 207 217 216
f 208 209 218
f 208 218 217
f 209 210 219
f 209 219 218
f 211 212 221
f 211 221 220
f 212 213 222
f 212 222 221
f 213 214 223
f 213 223 222
f 214 215 224
f 214 224 223
f 215 216 225
f 215 225 224
f 216 217 226
f 216 226 225
f 217 218 227
f 217 227 226
f 218 219 228
f 218 228 227
f 220 221 230
f 220 230 229
f 221 222 231
f 221 231 230
f 222 223 232
f 222 232 231
f 223 224 233
f 223 233 232
f 224 225 234
f 224 234 233
f 225 226 235
f 225 235 234
f 226 227 236
f 226 236 235
f 227 228 237
f 227 237 236
f 229 230 239
f 229 239 238
f 230 231 240
f 230 240 239
f 231 232 241
f 231 241 240
f 232 233 242
f 232 242 241
f 233 234 243
f 233 243 242
f 234 235 244
f 234 244 243
f 235 236 245
f 235 245 244
f 236 237 246
f 236 246 245
f 238 239 248
f 238 248 247
f 239 240 249
f 239 249 248
f 240 241 250
f 240 250 249
f 241 242 251
f 241 251 250
f 242 243 252
f 242 252 251
f 243 244 253
f 243 253 252
f 244 245 254
f 244 254 253
f 245 246 255
f 245 255 254
f 247 248 257
f 247 257 256
f 248 249 258
f 248 258 257
f 249 250 259
f 249 259 258
f 250 251 260
f 250 260 259
f 251 252 261
f 251 261 260
f 252 253 262
f 252 262 261
f 253 254 263
f 253 263 262
f 254 255 264
f 254 264 263
f 256 257 266
f 256 266 265
f 257 258 267
f 257 267 266
f 258 259 268
f 258 268 267
f 259 260 269
f 259 269 268
f 260 261 270
f 260 270 269
f 261 262 271
f 261 271 270
f 262 263 272
f 262 272 271
f 263 264 273
f 263 273 272
f 265 266 275
f 265 275 274
f 266 267 276
f 266 276 275
f 267 268 277
f 267 277 276
f 268 269 278
f 268 278 277
f 269 270 279
f 269 279 278
f 270 271 280
f 270 280 279
f 271 272 281
f 271 281 280
f 272 273 282
f 272 282 281
f 274 275 284
f 274 284 283
f 275 276 285
f 275 285 284
f 276 277 286
f 276 286 285
f 277 278 287
f 277 287 286
f 278 279 288
f 278 288 287
f 279 280 289
f 279 289 288
f 280 281 290
f 280 290 289
f 281 282 291
f 281 291 290
f 283 284 293
f 283 293 292
f 284 285 294
f 284 294 293
f 285 286 295
f 285 295 294
f 286 287 296
f 286 296 295
f 287 288 297
f 287 297 296
f 288 289 298
f 288 298 297
f 289 290 299
f 289 299 298
f 290 291 300
f 290 300 299
f 302 311 301
f 311 320 301
f 320 329 301
f 329 338 301
f 338 347 301
f 347 356 301
f 356 365 301
f 365 374 301
f 374 383 301
f 383 392 301
f 302 303 312
f 302 312 311
f 303 304 313
f 303 313 312
f 304 305 314
f 304 314 313
f 305 306 315
f 305 315 314
f 306 307 316
f 306 316 315
f 307 308 317
f 307 317 316
f 308 309 318
f 308 318 317
f 309 310 319
f 309 319 318
f 311 312 321
f 311 321 320
f 312 313 322
f 312 322 321
f 313 314 323
f 313 323 322
f 314 315 324
f 314 324 323
f 315 316 325
f 315 325 324
f 316 317 326
f 316 326 325
f 317 318 327
f 317 327 326
f 318 319 328
f 318 328 327
f 320 321 330
f 320 330 329
f 321 322 331
f 321 331 330
f 322 323 332
f 322 332 331
f 323 324 333
f 323 333 332
f 324 325 334
f 324 334 333
f 325 326 335
f 325 335 334
f 326 327 336
f 326 336 335
f 327 328 337
f 327 337 336
f 329 330 339
f 329 339 338
f 330 331 340
f 330 340 339
f 331 332 341
f 331 341 340
f 332 333 342
f 332 342 341
f 333 334 343
f 333 343 342
f 334 335 344
f 334 344 343
f 335 336 345
f 335 345 344
f 336 337 346
f 336 346 345
f 338 339 348
f 338 348 347
f 339 340 349
f 339 349 348
f 340 341 350
f 340 350 349
f 341 342 351
f 341 351 350
f 342 343 352
f 342 352 351
f 343 344 353
f 343 353 352
f 344 345 354
f 344 354 353
f 345 346 355
f 345 355 354
f 347 348 357
f 347 357 356
f 348 349 358
f 348 358 357
f 349 350 359
f 349 359 358
f 350 351 360
f 350 360 359
f 351 352 361
f 351 361 360
f 352 353 362
f 352 362 361
f 353 354 363
f 353 363 362
f 354 355 364
f 354 364 363
f 356 357 366
f 356 366 365
f 357 358 367
f 357 367 366
f 358 359 368
f 358 368 367
f 359 360 369
f 359 369 368
f 360 361 370
f 360 370 369
f 361 362 371
f 361 371 370
f 362 363 372
f 362 372 371
f 363 364 373
f 363 373 372
f 365 366 375
f 365 375 374
f 366 367 376
f 366 376 375
f 367 368 377
f 367 377 376
f 368 369 378
f 368 378 377
f 369 370 379
f 369 379 378
f 370 371 380
f 370 380 379
f 371 372 381
f 371 381 380
f 372 373 382
f 372 382 381
f 374 375 384
f 374 384 383
f 375 376 385
f 375 385 384
f 376 377 386
f 376 386 385
f 377 378 387
f 377 387 386
f 378 379 388
f 378 388 387
f 379 380 389
f 379 389 388
f 380 381 390
f 380 390 389
f 381 382 391
f 381 391 390
f 383 384 393
f 383 393 392
f 384 385 394
f 384 394 393
f 385 386 395
f 385 395 394
f 386 387 396
f 386 396 395
f 387 388 397
f 387 397 396
f 388 389 398
f 388 398 397
f 389 390 399
f 389 399 398
f 390 391 400
f 390 400 399
f 410 401 419
f 419 401 428
f 428 401 437
f 437 401 446
f 446 401 455
f 455 401 464
f 464 401 473
f 473 401 482
f 482 401 491
f 491 401 500
f 402 403 412
f 402 412 411
f 403 404 413
f 403 413 412
f 404 405 414
f 404 414 413
f 405 406 415
f 405 415 414
f 406 407 416
f 406 416 415
f 407 408 417
f 407 417 416
f 408 409 418
f 408 418 417
f 409 410 419
f 409 419 418
f 411 412 421
f 411 421 420
f 412 413 422
f 412 422 421
f 413 414 423
f 413 423 422
f 414 415 424
f 414 424 423
f 415 416 425
f 415 425 424
f 416 417 426
f 416 426 425
f 417 418 427
f 417 427 426
f 418 419 428
f 418 428 427
f 420 421 430
f 420 430 429
f 421 422 431
f 421 431 430
f 422 423 432
f 422 432 431
f 423 424 433
f 423 433 432
f 424 425 434
f 424 434 433
f 425 426 435
f 425 435 434
f 426 427 436
f 426 436 435
f 427 428 437
f 427 437 436
f 429 430 439
f 429 439 438
f 430 431 440
f 430 440 439
f 431 432 441
f 431 441 440
f 432 433 442
f 432 442 441
f 433 434 443
f 433 443 442
f 434 435 444
f 434 444 443
f 435 436 445
f 435 445 444
f 436 437 446
f 436 446 445
f 438 439 448
f 438 448 447
f 439 440 449
f 439 449 448
f 440 441 450
f 440 450 449
f 441 442 451
f 441 451 450
f 442 443 452
f 442 452 451
f 443 444 453
f 443 453 452
f 444 445 454
f 444 454 453
f 445 446 455
f 445 455 454
f 447 448 457
f 447 457 456
f 448 449 458
f 448 458 457
f 449 450 459
f 449 459 458
f 450 451 460
f 450 460 459
f 451 452 461
f 451 461 460
f 452 453 462
f 452 462 461
f 453 454 463
f 453 463 462
f 454 455 464
f 454 464 463
f 456 457 466
f 456 466 465
f 457 458 467
f 457 467 466
f 458 459 468
f 458 468 467
f 459 460 469
f 459 469 468
f 460 461 470
f 460 470 469
f 461 462 471
f 461 471 470
f 462 463 472
f 462 472 471
f 463 464 473
f 463 473 472
f 465 466 475
f 465 475 474
f 466 467 476
f 466 476 475
f 467 468 477
f 467 477 476
f 468 469 478
f 468 478 477
f 469 470 479
f 469 479 478
f 470 471 480
f 470 480 479
f 471 472 481
f 471 481 480
f 472 473 482
f 472 482 481
f 474 475 484
f 474 484 483
f 475 476 485
f 475 485 484
f 476 477 486
f 476 486 485
f 477 478 487
f 477 487 486
f 478 479 488
f 478 488 487
f 479 480 489
f 479 489 488
f 480 481 490
f 480 490 489
f 481 482 491
f 481 491 490
f 483 484 493
f 483 493 492
f 484 485 494
f 484 494 493
f 485 486 495
f 485 495 494
f 486 487 496
f 486 496 495
f 487 488 497
f 487 497 496
f 488 489 498
f 488 498 497
f 489 490 499
f 489 499 498
f 490 491 500
f 490 500 499
f 502 511 501
f 511 520 501
f 520 529 501
f 529 538 501
f 538 547 501
f 547 556 501
f 556 565 501
f 565 574 501
f 574 583 501
f 583 592 501
f 502 503 512
f 502 512 511
f 503 504 513
f 503 513 512
f 504 505 514
f 504 514 513
f 505 506 515
f 505 515 514
f 506 507 516
f 506 516 515
f 507 508 517
f 507 517 516
f 508 509 518
f 508 518 517
f 509 510 519
f 509 519 518
f 511 512 521
f 511 521 520
f 512 513 522
f 512 522 521
f 513 514 523
f 513 523 522
f 514 515 524
f 514 524 523
f 515 516 525
f 515 525 524
f 516 517 526
f 516 526 525
f 517 518 527
f 517 527 526
f 518 519 528
f 518 528 527
f 520 521 530
f 520 530 529
f 521 522 531
f 521 531 530
f 522 523 532
f 522 532 531
f 523 524 533
f 523 533 532
f 524 525 534
f 524 534 533
f 525 526 535
f 525 535 534
f 526 527 536
f 526 536 535
f 527 528 537
f 527 537 536
f 529 530 539
f 529 539 538
f 530 531 540
f 530 540 539
f 531 532 541
f 531 541 540
f 532 533 542
f 532 542 541
f 533 534 543
f 533 543 542
f 534 535 544
f 534 544 543
f 535 536 545
f 535 545 544
f 536 537 546
f 536 546 545
f 538 539 548
f 538 548 547
f 539 540 549
f 539 549 548
f 540 541 550
f 540 550 549
f 541 542 551
f 541 551 550
f 542 543 552
f 542 552 551
f 543 544 553
f 543 553 552
f 544 545 554
f 544 554 553
f 545 546 555
f 545 555 554
f 547 548 557
f 547 557 556
f 548 549 558
f 548 558 557
f 549 550 559
f 549 559 558
f 550 551 560
f 550 560 559
f 551 552 561
f 551 561 560
f 552 553 562
f 552 562 561
f 553 554 563
f 553 563 562
f 554 555 564
f 554 564 563
f 556 557 566
f 556 566 565
f 557 558 567
f 557 567 566
f 558 559 568
f 558 568 567
f 559 560 569
f 559 569 568
f 560 561 570
f 560 570 569
f 561 562 571
f 561 571 570
f 562 563 572
f 562 572 571
f 563 564 573
f 563 573 572
f 565 566 575
f 565 575 574
f 566 567 576
f 566 576 575
f 567 568 577
f 567 577 576
f 568 569 578
f 568 578 577
f 569 570 579
f 569 579 578
f 570 571 580
f 570 580 579
f 571 572 581
f 571 581 580
f 572 573 582
f 572 582 581
f 574 575 584
f 574 584 583
f 575 576 585
f 575 585 584
f 576 577 586
f 576 586 585
f 577 578 587
f 577 587 586
f 578 579 588
f 578 588 587
f 579 580 589
f 579 589 588
f 580 581 590
f 580 590 589
f 581 582 591
f 581 591 590
f 583 584 593
f 583 593 592
f 584 585 594
f 584 594 593
f 585 586 595
f 585 595 594
f 586 587 596
f 586 596 595
f 587 588 597
f 587 597 596
f 588 589 598
f 588 598 597
f 589 590 599
f 589 599 598
f 590 591 600
f 590 600 599
f 610 601 619
f 619 601 628
f 628 601 637
f 637 601 646
f 646 601 655
f 655 601 664
f 664 601 673
f 673 601 682
f 682 601 691
f 691 601 700
f 602 603 612
f 602 612 611
f 603 604 613
f 603 613 612
f 604 605 614
f 604 614 613
f 605 606 615
f 605 615 614
f 606 607 616
f 606 616 615
f 607 608 617
f 607 617 616
f 608 609 618
f 608 618 617
f 609 610 619
f 609 619 618
f 611 612 621
f 611 621 620
f 612 613 622
f 612 622 621
f 613 614 623
f 613 623 622
f 614 615 624
f 614 624 623
f 615 616 625
f 615 625 624
f 616 617 626
f 616 626 625
f 617 618 627
f 617 627 626
f 618 619 628
f 618 628 627
f 620 621 630
f 620 630 629
f 621 622 631
f 621 631 630
f 622 623 632
f 622 632 631
f 623 624 633
f 623 633 632
f 624 625 634
f 624 634 633
f 625 626 635
f 625 635 634
f 626 627 636
f 626 636 635
f 627 628 637
f 627 637 636
f 629 630 639
f 629 639 638
f 630 631 640
f 630 640 639
f 631 632 641
f 631 641 640
f 632 633 642
f 632 642 641
f 633 634 643
f 633 643 642
f 634 635 644
f 634 644 643
f 635 636 645
f 635 645 644
f 636 637 646
f 636 646 645
f 638 639 648
f 638 648 647
f 639 640 649
f 639 649 648
f 640 641 650
f 640 650 649
f 641 642 651
f 641 651 650
f 642 643 652
f 642 652 651
f 643 644 653
f 643 653 652
f 644 645 654
f 644 654 653
f 645 646 655
f 645 655 654
f 647 648 657
f 647 657 656
f 648 649 658
f 648 658 657
f 649 650 659
f 649 659 658
f 650 651 660
f 650 660 659
f 651 652 661
f 651 661 660
f 652 653 662
f 652 662 661
f 653 654 663
f 653 663 662
f 654 655 664
f 654 664 663
f 656 657 666
f 656 666 665
f 657 658 667
f 657 667 666
f 658 659 668
f 658 668 667
f 659 660 669
f 659 669 668
f 660 661 670
f 660 670 669
f 661 662 671
f 661 671 670
f 662 663 672
f 662 672 671
f 663 664 673
f 663 673 672
f 665 666 675
f 665 675 674
f 666 667 676
f 666 676 675
f 667 668 677
f 667 677 676
f 668 669 678
f 668 678 677
f 669 670 679
f 669 679 678
f 670 671 680
f 670 680 679
f 671 672 681
f 671 681 680
f 672 673 682
f 672 682 681
f 674 675 684
f 674 684 683
f 675 676 685
f 675 685 684
f 676 677 686
f 676 686 685
f 677 678 687
f 677 687 686
f 678 679 688
f 678 688 687
f 679 680 689
f 679 689 688
f 680 681 690
f 680 690 689
f 681 682 691
f 681 691 690
f 683 684 693
f 683 693 692
f 684 685 694
f 684 694 693
f 685 686 695
f 685 695 694
f 686 687 696
f 686 696 695
f 687 688 697
f 687 697 696
f 688 689 698
f 688 698 697
f 689 690 699
f 689 699 698
f 690 691 700
f 690 700 699
f 702 711 701
f 711 720 701
f 720 729 701
f 729 738 701
f 738 747 701
f 747 756 701
f 756 765 701
f 765 774 701
f 774 783 701
f 783 792 701
f 702 703 712
f 702 712 711
f 703 704 713
f 703 713 712
f 704 705 714
f 704 714 713
f 705 706 715
f 705 715 714
f 706 707 716
f 706 716 715
f 707 708 717
f 707 717 716
f 708 709 718
f 708 718 717
f 709 710 719
f 709 719 718
f 711 712 721
f 711 721 720
f 712 713 722
f 712 722 721
f 713 714 723
f 713 723 722
f 714 715 724
f 714 724 723
f 715 716 725
f 715 725 724
f 716 717 726
f 716 726 725
f 717 718 727
f 717 727 726
f 718 719 728
f 718 728 727
f 720 721 730
f 720 730 729
f 721 722 731
f 721 731 730
f 722 723 732
f 722 732 731
f 723 724 733
f 723 733 732
f 724 725 734
f 724 734 733
f 725 726 735
f 725 735 734
f 726 727 736
f 726 736 735
f 727 728 737
f 727 737 736
f 729 730 739
f 729 739 738
f 730 731 740
f 730 740 739
f 731 732 741
f 731 741 740
f 732 733 742
f 732 742 741
f 733 734 743
f 733 743 742
f 734 735 744
f 734 744 743
f 735 736 745
f 735 745 744
f 736 737 746
f 736 746 745
f 738 739 748
f 738 748 747
f 739 740 749
f 739 749 748
f 740 741 750
f 740 750 749
f 741 742 751
f 741 751 750
f 742 743 752
f 742 752 751
f 743 744 753
f 743 753 752
f 744 745 754
f 744 754 753
f 745 746 755
f 745 755 754
f 747 748 757
f 747 757 756
f 748 749 758
f 748 758 757
f 749 750 759
f 749 759 758
f 750 751 760
f 750 760 759
f 751 752 761
f 751 761 760
f 752 753 762
f 752 762 761
f 753 754 763
f 753 763 762
f 754 755 764
f 754 764 763
f 756 757 766
f 756 766 765
f 757 758 767
f 757 767 766
f 758 759 768
f 758 768 767
f 759 760 769
f 759 769 768
f 760 761 770
f 760 770 769
f 761 762 771
f 761 771 770
f 762 763 772
f 762 772 771
f 763 764 773
f 763 773 772
f 765 766 775
f 765 775 774
f 766 767 776
f 766 776 775
f 767 768 777
f 767 777 776
f 768 769 778
f 768 778 777
f 769 770 779
f 769 779 778
f 770 771 780
f 770 780 779
f 771 772 781
f 771 781 780
f 772 773 782
f 772 782 781
f 774 775 784
f 774 784 783
f 775 776 785
f 775 785 784
f 776 777 786
f 776 786 785
f 777 778 787
f 777 787 786
f 778 779 788
f 778 788 787
f 779 780 789
f 779 789 788
f 780 781 790
f 780 790 789
f 781 782 791
f 781 791 790
f 783 784 793
f 783 793 792
f 784 785 794
f 784 794 793
f 785 786 795
f 785 795 794
f 786 787 796
f 786 796 795
f 787 788 797
f 787 797 796
f 788 789 798
f 788 798 797
f 789 790 799
f 789 799 798
f 790 791 800
f 790 800 799
