# Generated by Visualization Toolkit
v 0.019999999552965164 0.5 0
v 0.019999999552965164 0 0
v -0.009999999776482582 0.5 -0.017320508137345314
v -0.009999999776482582 0 -0.017320508137345314
v -0.009999999776482582 0.5 0.017320508137345314
v -0.009999999776482582 0 0.017320508137345314
v 0.019999999552965164 0.5 0
v -0.009999999776482582 0.5 -0.017320508137345314
v -0.009999999776482582 0.5 0.017320508137345314
v -0.009999999776482582 0 0.017320508137345314
v -0.009999999776482582 0 -0.017320508137345314
v 0.019999999552965164 0 0
v 0.13330000638961792 0 0
v -0.06670000404119492 -0.10000000149011612 1.2246468525851679e-17
v -0.06670000404119492 -0.09921146929264069 -0.012533322907984257
v -0.06670000404119492 -0.09685831516981125 -0.02486898936331272
v -0.06670000404119492 -0.09297765046358109 -0.03681245446205139
v -0.06670000404119492 -0.08763066679239273 -0.04817536845803261
v -0.06670000404119492 -0.08090169727802277 -0.05877852439880371
v -0.06670000404119492 -0.07289686053991318 -0.06845471262931824
v -0.06670000404119492 -0.06374239921569824 -0.0770513266324997
v -0.06670000404119492 -0.053582679480314255 -0.08443279564380646
v -0.06670000404119492 -0.04257792979478836 -0.09048270434141159
v -0.06670000404119492 -0.030901700258255005 -0.09510564804077148
v -0.06670000404119492 -0.01873813197016716 -0.09822872281074524
v -0.06670000404119492 -0.006279051769524813 -0.09980267286300659
v -0.06670000404119492 0.006279051769524813 -0.09980267286300659
v -0.06670000404119492 0.01873813197016716 -0.09822872281074524
v -0.06670000404119492 0.030901700258255005 -0.09510564804077148
v -0.06670000404119492 0.04257792979478836 -0.09048270434141159
v -0.06670000404119492 0.053582679480314255 -0.08443279564380646
v -0.06670000404119492 0.06374239921569824 -0.0770513266324997
v -0.06670000404119492 0.07289686053991318 -0.06845471262931824
v -0.06670000404119492 0.08090169727802277 -0.05877852439880371
v -0.06670000404119492 0.08763066679239273 -0.04817536845803261
v -0.06670000404119492 0.09297765046358109 -0.03681245446205139
v -0.06670000404119492 0.09685831516981125 -0.02486898936331272
v -0.06670000404119492 0.09921146929264069 -0.012533322907984257
v -0.06670000404119492 0.10000000149011612 4.102067296951617e-11
v -0.06670000404119492 0.09921146929264069 0.012533323839306831
v -0.06670000404119492 0.09685831516981125 0.02486898936331272
v -0.06670000404119492 0.09297765046358109 0.03681245446205139
v -0.06670000404119492 0.08763066679239273 0.04817536845803261
v -0.06670000404119492 0.08090169727802277 0.05877852439880371
v -0.06670000404119492 0.07289686053991318 0.06845471262931824
v -0.06670000404119492 0.06374239921569824 0.0770513266324997
v -0.06670000404119492 0.053582679480314255 0.08443279564380646
v -0.06670000404119492 0.04257792979478836 0.09048270434141159
v -0.06670000404119492 0.030901700258255005 0.09510564804077148
v -0.06670000404119492 0.01873813197016716 0.09822872281074524
v -0.06670000404119492 0.006279051769524813 0.09980267286300659
v -0.06670000404119492 -0.0062790522351861 0.09980267286300659
v -0.06670000404119492 -0.01873813197016716 0.09822872281074524
v -0.06670000404119492 -0.030901700258255005 0.09510564804077148
v -0.06670000404119492 -0.04257792979478836 0.09048270434141159
v -0.06670000404119492 -0.053582679480314255 0.08443279564380646
v -0.06670000404119492 -0.06374239921569824 0.0770513266324997
v -0.06670000404119492 -0.07289686053991318 0.06845471262931824
v -0.06670000404119492 -0.08090169727802277 0.05877852439880371
v -0.06670000404119492 -0.08763066679239273 0.04817536845803261
v -0.06670000404119492 -0.09297765046358109 0.03681245446205139
v -0.06670000404119492 -0.09685831516981125 0.02486898936331272
v -0.06670000404119492 -0.09921146929264069 0.012533322907984257
f 1 2 3
f 2 4 3
f 3 4 5
f 4 6 5
f 5 6 1
f 6 2 1
f 7 8 9
f 10 11 12
f 14 63 15
f 15 63 16
f 63 62 16
f 16 62 17
f 17 62 18
f 18 62 19
f 19 62 20
f 20 62 21
f 21 62 22
f 22 62 23
f 23 62 24
f 24 62 25
f 25 62 26
f 26 62 27
f 27 62 28
f 28 62 29
f 29 62 30
f 62 61 30
f 61 60 30
f 60 59 30
f 59 58 30
f 58 57 30
f 57 56 30
f 56 55 30
f 55 54 30
f 54 53 30
f 53 52 30
f 52 51 30
f 51 50 30
f 50 49 30
f 49 48 30
f 30 48 31
f 31 48 32
f 48 47 32
f 47 46 32
f 32 46 33
f 33 46 34
f 34 46 35
f 35 46 36
f 46 45 36
f 45 44 36
f 44 43 36
f 43 42 36
f 36 42 37
f 37 42 38
f 38 42 39
f 39 42 40
f 41 40 42
f 13 14 15
f 13 15 16
f 13 16 17
f 13 17 18
f 13 18 19
f 13 19 20
f 13 20 21
f 13 21 22
f 13 22 23
f 13 23 24
f 13 24 25
f 13 25 26
f 13 26 27
f 13 27 28
f 13 28 29
f 13 29 30
f 13 30 31
f 13 31 32
f 13 32 33
f 13 33 34
f 13 34 35
f 13 35 36
f 13 36 37
f 13 37 38
f 13 38 39
f 13 39 40
f 13 40 41
f 13 41 42
f 13 42 43
f 13 43 44
f 13 44 45
f 13 45 46
f 13 46 47
f 13 47 48
f 13 48 49
f 13 49 50
f 13 50 51
f 13 51 52
f 13 52 53
f 13 53 54
f 13 54 55
f 13 55 56
f 13 56 57
f 13 57 58
f 13 58 59
f 13 59 60
f 13 60 61
f 13 61 62
f 13 62 63
f 13 63 14
