# Generated by Visualization Toolkit
v 0.5 0 0
v -0.5 0.5 0
v -0.5 0.4755282700061798 0.15450850129127502
v -0.5 0.404508501291275 0.29389262199401855
v -0.5 0.29389262199401855 0.404508501291275
v -0.5 0.15450850129127502 0.4755282700061798
v -0.5 -1.0255171711825994e-10 0.5
v -0.5 -0.15450850129127502 0.4755282700061798
v -0.5 -0.29389262199401855 0.404508501291275
v -0.5 -0.404508501291275 0.29389262199401855
v -0.5 -0.4755282700061798 0.15450850129127502
v -0.5 -0.5 -2.051034342365199e-10
v -0.5 -0.4755282700061798 -0.15450850129127502
v -0.5 -0.404508501291275 -0.29389262199401855
v -0.5 -0.29389262199401855 -0.404508501291275
v -0.5 -0.15450850129127502 -0.4755282700061798
v -0.5 3.0765515135477983e-10 -0.5
v -0.5 0.15450850129127502 -0.4755282700061798
v -0.5 0.29389262199401855 -0.404508501291275
v -0.5 0.404508501291275 -0.29389262199401855
v -0.5 0.4755282700061798 -0.15450850129127502
f 16 15 17
f 15 14 17
f 17 14 18
f 18 14 19
f 19 14 20
f 20 14 21
f 21 14 2
f 2 14 3
f 3 14 4
f 4 14 5
f 5 14 6
f 14 13 6
f 6 13 7
f 7 13 8
f 13 12 8
f 12 11 8
f 8 11 9
f 11 10 9
f 1 2 3
f 1 3 4
f 1 4 5
f 1 5 6
f 1 6 7
f 1 7 8
f 1 8 9
f 1 9 10
f 1 10 11
f 1 11 12
f 1 12 13
f 1 13 14
f 1 14 15
f 1 15 16
f 1 16 17
f 1 17 18
f 1 18 19
f 1 19 20
f 1 20 21
f 1 21 2
