# Generated by Visualization Toolkit
v -0.5 -0.05000000074505806 -1.100000023841858
v -0.5 -0.05000000074505806 0.20000000298023224
v -0.5 0 -1.100000023841858
v -0.5 0 0.20000000298023224
v 2.200000047683716 -0.05000000074505806 -1.100000023841858
v 2.200000047683716 -0.05000000074505806 0.20000000298023224
v 2.200000047683716 0 -1.100000023841858
v 2.200000047683716 0 0.20000000298023224
v -0.5 -0.05000000074505806 -1.100000023841858
v -0.5 -0.05000000074505806 0.20000000298023224
v 2.200000047683716 -0.05000000074505806 -1.100000023841858
v 2.200000047683716 -0.05000000074505806 0.20000000298023224
v -0.5 0 -1.100000023841858
v -0.5 0 0.20000000298023224
v 2.200000047683716 0 -1.100000023841858
v 2.200000047683716 0 0.20000000298023224
v -0.5 -0.05000000074505806 -1.100000023841858
v 2.200000047683716 -0.05000000074505806 -1.100000023841858
v -0.5 0 -1.100000023841858
v 2.200000047683716 0 -1.100000023841858
v -0.5 -0.05000000074505806 0.20000000298023224
v 2.200000047683716 -0.05000000074505806 0.20000000298023224
v -0.5 0 0.20000000298023224
v 2.200000047683716 0 0.20000000298023224
f 1 2 3
f 2 4 3
f 5 7 6
f 7 8 6
f 9 11 10
f 11 12 10
f 13 14 15
f 14 16 15
f 17 19 18
f 19 20 18
f 21 22 23
f 22 24 23
