# Generated by Visualization Toolkit
v 0.07442999631166458 0.019362999126315117 -0.01945200003683567
v 0.07415399700403214 0.021671000868082047 -0.01789899915456772
v 0.07065500319004059 0.019415000453591347 -0.018655000254511833
v 0.07785899937152863 0.019169999286532402 -0.020212000235915184
v 0.07743799686431885 0.015683000907301903 -0.02035200037062168
v 0.07846000045537949 0.025544999167323112 -0.014573000371456146
v 0.07125400006771088 0.026078000664711 -0.010773000307381153
v 0.07014799863100052 0.020244000479578972 -0.018123000860214233
v 0.07946400344371796 0.020073000341653824 -0.020250000059604645
v 0.07076600193977356 0.020791999995708466 -0.01763400062918663
v 0.07162299752235413 0.02468400076031685 -0.012632999569177628
v 0.07059299945831299 0.022071000188589096 -0.015515999868512154
v 0.07113700360059738 0.021340999752283096 -0.016938000917434692
v 0.06941500306129456 0.017819000408053398 -0.01808599941432476
v 0.07891900092363358 0.018821999430656433 -0.021112000569701195
v 0.07982099801301956 0.01854499988257885 -0.022098999470472336
v 0.06973999738693237 0.015007000416517258 -0.01815599948167801
v 0.08061300218105316 0.014542999677360058 -0.019121000543236732
v 0.0816510021686554 0.01484999991953373 -0.021456999704241753
v 0.09065999835729599 0.02455900050699711 -0.015305999666452408
v 0.08671700209379196 0.025848999619483948 -0.013670000247657299
v 0.08767099678516388 0.02268899977207184 -0.0189059991389513
v 0.07110299915075302 0.026856999844312668 -0.009889000095427036
v 0.0778380036354065 0.02814199961721897 -0.011454000137746334
v 0.06896699965000153 0.025405999273061752 -0.010002000257372856
v 0.0693809986114502 0.018293999135494232 -0.0178459994494915
v 0.07000699639320374 0.019700000062584877 -0.01754399947822094
v 0.08290600031614304 0.019564999267458916 -0.02340400032699108
v 0.0812470018863678 0.01879500038921833 -0.02327200025320053
v 0.07003200054168701 0.02303599938750267 -0.0138330003246665
v 0.06887099891901016 0.016188999637961388 -0.017550000920891762
v 0.08032599836587906 0.018427999690175056 -0.02266700007021427
v 0.08200599998235703 0.015573999844491482 -0.023205000907182693
v 0.06988000124692917 0.014027000404894352 -0.017117999494075775
v 0.07043299823999405 0.013288999907672405 -0.017255999147892
v 0.0790340006351471 0.01171599980443716 -0.017014000564813614
v 0.07241500169038773 0.01105399988591671 -0.01646300032734871
v 0.08469399809837341 0.013256999664008617 -0.014305000193417072
v 0.08317899703979492 0.014510000124573708 -0.022760000079870224
v 0.09112299978733063 0.024893000721931458 -0.014448000118136406
v 0.09067899733781815 0.02556600049138069 -0.014053000137209892
v 0.09033399820327759 0.023750999942421913 -0.016366999596357346
v 0.09102600067853928 0.02416899986565113 -0.015192000195384026
v 0.08080100268125534 0.027533000335097313 -0.010424000211060047
v 0.08679699897766113 0.02591400034725666 -0.012480000033974648
v 0.08570300042629242 0.020780999213457108 -0.021662000566720963
v 0.08924800157546997 0.02315099909901619 -0.017771000042557716
v 0.08849500119686127 0.02229199931025505 -0.0189449992030859
v 0.07168100029230118 0.02724500000476837 -0.009186999872326851
v 0.07237999886274338 0.02761700004339218 -0.007116000168025494
v 0.07217799872159958 0.027495000511407852 -0.008344000205397606
v 0.07391899824142456 0.027086999267339706 -0.006080999970436096
v 0.07734700292348862 0.027522999793291092 -0.008457000367343426
v 0.06885900348424911 0.025529999285936356 -0.007891999557614326
v 0.0692560002207756 0.01711600087583065 -0.006302999798208475
v 0.06960500031709671 0.015860000625252724 -0.016473999246954918
v 0.08177100121974945 0.018221000209450722 -0.023746000602841377
v 0.08118700236082077 0.018300000578165054 -0.023444000631570816
v 0.0841279998421669 0.0193060003221035 -0.023252999410033226
v 0.08326999843120575 0.018566999584436417 -0.02369699999690056
v 0.08068499714136124 0.018330000340938568 -0.023079000413417816
v 0.08221399784088135 0.017965000122785568 -0.023840000852942467
v 0.0829010009765625 0.01521500013768673 -0.023221999406814575
v 0.07067699730396271 0.012656999751925468 -0.015735000371932983
v 0.0702890008687973 0.013477999716997147 -0.015939999371767044
v 0.07236699759960175 0.01100200042128563 -0.015967000275850296
v 0.07935000211000443 0.009398999623954296 -0.015697000548243523
v 0.07527700066566467 0.0103150000795722 -0.01635099947452545
v 0.07517799735069275 0.00952600035816431 -0.015610000118613243
v 0.08382900059223175 0.008336000144481659 -0.010746000334620476
v 0.08578500151634216 0.008775999769568443 -0.009410000406205654
v 0.08840800076723099 0.012144999578595161 -0.01071999967098236
v 0.09002800285816193 0.012803999707102776 -0.011315000243484974
v 0.08597499877214432 0.013899999670684338 -0.018048999831080437
v 0.0865200012922287 0.015305999666452408 -0.019053999334573746
v 0.08363600075244904 0.014952000230550766 -0.02263600006699562
v 0.09124000370502472 0.0252470001578331 -0.013485999777913094
v 0.0913349986076355 0.02418999932706356 -0.014399999752640724
v 0.08949899673461914 0.022708000615239143 -0.017849000170826912
v 0.0893160030245781 0.013717999681830406 -0.01588599942624569
v 0.0910710021853447 0.013469000346958637 -0.01337399985641241
v 0.09148799628019333 0.023444000631570816 -0.013611000031232834
v 0.09156300127506256 0.022074999287724495 -0.012811999768018723
v 0.0915440022945404 0.017589999362826347 -0.011722000315785408
v 0.08341299742460251 0.026629000902175903 -0.01090299990028143
v 0.07714399695396423 0.02716200053691864 -0.008000999689102173
v 0.0809670016169548 0.026653999462723732 -0.009877000004053116
v 0.08359800279140472 0.026110000908374786 -0.01065099984407425
v 0.08881700038909912 0.02538299933075905 -0.012501999735832214
v 0.08572100102901459 0.025909999385476112 -0.01159599982202053
v 0.0872810035943985 0.02550099976360798 -0.011977000162005424
v 0.08723700046539307 0.020949000492691994 -0.02043900080025196
v 0.08566199988126755 0.020124999806284904 -0.021891999989748
v 0.08841100335121155 0.02168699912726879 -0.01915000006556511
v 0.07042299956083298 0.026429999619722366 -0.0072189997881650925
v 0.07114800065755844 0.027055000886321068 -0.005994999781250954
v 0.07292100042104721 0.02700600028038025 -0.005530000198632479
v 0.07443899661302567 0.02662000060081482 -0.006161999888718128
v 0.07046099752187729 0.025973999872803688 -0.005776999983936548
v 0.07039199769496918 0.022822000086307526 -0.00470300018787384
v 0.06860499829053879 0.01663300022482872 -0.004606999922543764
v 0.06882300227880478 0.015607999637722969 -0.006463999859988689
v 0.0690469965338707 0.015572000294923782 -0.007391999941319227
v 0.06924299895763397 0.015567000024020672 -0.008251000195741653
v 0.06957799941301346 0.014871000312268734 -0.010312000289559364
v 0.07039500027894974 0.013559999875724316 -0.013492000289261341
v 0.06986799836158752 0.013987000100314617 -0.010546999983489513
v 0.07016699761152267 0.013779000379145145 -0.012016999535262585
v 0.08714299649000168 0.020204000174999237 -0.020232999697327614
v 0.08415699750185013 0.018366999924182892 -0.023395000025629997
v 0.08555299788713455 0.018864000216126442 -0.021758999675512314
v 0.07377099990844727 0.01075700018554926 -0.012415999546647072
v 0.07153599709272385 0.01179600041359663 -0.015644000843167305
v 0.07049600034952164 0.013158000074326992 -0.014697999693453312
v 0.07246199995279312 0.010990999639034271 -0.015432000160217285
v 0.07913099974393845 0.008058000355958939 -0.013489999808371067
v 0.07759399712085724 0.008290999568998814 -0.014751000329852104
v 0.08413399755954742 0.008453000336885452 -0.008090999908745289
v 0.08172199875116348 0.008125999942421913 -0.01039000041782856
v 0.08284900337457657 0.00822100043296814 -0.00963400024920702
v 0.08342800289392471 0.00840499997138977 -0.00846800021827221
v 0.08451200276613235 0.00887100026011467 -0.0076870000921189785
v 0.08478499948978424 0.00928100012242794 -0.00735800014808774
v 0.08505100011825562 0.010259999893605709 -0.006244000047445297
v 0.08641000092029572 0.009398999623954296 -0.007247000001370907
v 0.08762200176715851 0.01080199982970953 -0.007453000172972679
v 0.08884499967098236 0.01269800029695034 -0.009039999917149544
v 0.09121900051832199 0.013101000338792801 -0.010883999988436699
v 0.09087099879980087 0.012990999966859818 -0.013288999907672405
v 0.09073299914598465 0.013217000290751457 -0.010955000296235085
v 0.09012199938297272 0.01363999955356121 -0.009971000254154205
v 0.0900219976902008 0.02502099983394146 -0.01270500011742115
v 0.09109500050544739 0.02495799958705902 -0.013047000393271446
v 0.09152200073003769 0.024553999304771423 -0.013554999604821205
v 0.08844300359487534 0.020837999880313873 -0.01891000010073185
v 0.09146499633789062 0.01371300034224987 -0.010962000116705894
v 0.08345100283622742 0.02455900050699711 -0.009970000013709068
v 0.08753400295972824 0.02385699935257435 -0.011262999847531319
v 0.08755999803543091 0.025123000144958496 -0.011660000309348106
v 0.08601000159978867 0.02550799958407879 -0.011254999786615372
v 0.07070399820804596 0.026597000658512115 -0.006089000031352043
v 0.07376399636268616 0.02493399940431118 -0.005503000225871801
v 0.07274500280618668 0.024860000237822533 -0.0048870001919567585
v 0.07470499724149704 0.02501799911260605 -0.006064999848604202
v 0.07093799859285355 0.025940999388694763 -0.005243000108748674
v 0.07174699753522873 0.024670999497175217 -0.004865000024437904
v 0.0704599991440773 0.01918499916791916 -0.0035459999926388264
v 0.0690540000796318 0.01322999969124794 -0.0028649999294430017
v 0.06840699911117554 0.013054000213742256 -0.004025000147521496
v 0.06823299825191498 0.013484999537467957 -0.005787999834865332
v 0.06831000000238419 0.014063999988138676 -0.005882999859750271
v 0.06990200281143188 0.014081999659538269 -0.002268000040203333
v 0.06886699795722961 0.014499999582767487 -0.008356999605894089
v 0.06933099776506424 0.014221999794244766 -0.009380999952554703
v 0.07086700201034546 0.013074999675154686 -0.010842000134289265
v 0.06845299899578094 0.013278000056743622 -0.006591999903321266
v 0.07219800353050232 0.012489000335335732 -0.009139000438153744
v 0.07842600345611572 0.010131999850273132 -0.00979399960488081
v 0.0805250033736229 0.008062999695539474 -0.011215999722480774
v 0.08023399859666824 0.008342999964952469 -0.01038500014692545
v 0.08387099951505661 0.009304000064730644 -0.007220999803394079
v 0.08137699961662292 0.009557999670505524 -0.008074999786913395
v 0.08265899866819382 0.009406999684870243 -0.0075969998724758625
v 0.08307500183582306 0.011140000075101852 -0.005107000004500151
v 0.08658900111913681 0.010940000414848328 -0.006757999770343304
v 0.08085300028324127 0.01185499969869852 -0.004052999895066023
v 0.07569699734449387 0.014658000320196152 -0.0027129999361932278
v 0.07220400124788284 0.013551999814808369 -0.0015910000074654818
v 0.07092200219631195 0.013643999584019184 -0.0018100000452250242
v 0.0697140023112297 0.012783999554812908 -0.0020149999763816595
v 0.06974799931049347 0.011858999729156494 -0.0020290000829845667
v 0.06906899809837341 0.012676999904215336 -0.0028460000175982714
v 0.06838399916887283 0.012652000412344933 -0.004484999924898148
v 0.06832999736070633 0.012977000325918198 -0.005526999942958355
v 0.07103399932384491 0.012896999716758728 -0.0071669998578727245
v 0.0695440024137497 0.013043000362813473 -0.006666000001132488
v 0.06963200122117996 0.01256099995225668 -0.005291000008583069
v 0.07245200127363205 0.012264999561011791 -0.007519000209867954
v 0.07468300312757492 0.011648000217974186 -0.007788999937474728
v 0.07870599627494812 0.010533999651670456 -0.007938000373542309
v 0.07684600353240967 0.01106599997729063 -0.007966999895870686
v 0.07999099791049957 0.010077999904751778 -0.008023999631404877
v 0.07848700135946274 0.010951999574899673 -0.007321000099182129
v 0.0781330019235611 0.010622000321745872 -0.005652000196278095
v 0.07902300357818604 0.010874999687075615 -0.004364000167697668
v 0.07880999892950058 0.011044999584555626 -0.003831000067293644
v 0.07882300019264221 0.011533999815583229 -0.003186000045388937
v 0.07454899698495865 0.012772000394761562 -0.0020240000449121
v 0.07575099915266037 0.012821000069379807 -0.002337000099942088
v 0.07701600342988968 0.011266999877989292 -0.0023880000226199627
v 0.07317099720239639 0.01319199986755848 -0.001753999968059361
v 0.07175999879837036 0.011096999980509281 -0.0015180000336840749
v 0.0712909996509552 0.011036000214517117 -0.0026179999113082886
v 0.06896699965000153 0.0125749995931983 -0.004904999863356352
v 0.07160700112581253 0.011746999807655811 -0.006049000192433596
v 0.07199300080537796 0.012258999980986118 -0.007187000010162592
v 0.07078000158071518 0.011908999644219875 -0.005433000158518553
v 0.07314799726009369 0.011997000314295292 -0.007447000127285719
v 0.07797999680042267 0.011099000461399555 -0.007726000156253576
v 0.07504100352525711 0.011350000277161598 -0.007259000092744827
v 0.07416699826717377 0.011288000270724297 -0.0068430001847445965
v 0.07321400195360184 0.011490000411868095 -0.006703000050038099
v 0.07759100198745728 0.010848999954760075 -0.006572999991476536
v 0.07446099817752838 0.010591999627649784 -0.002297000028192997
v 0.07371100038290024 0.01093200035393238 -0.005962000228464603
v 0.07197800278663635 0.011335999704897404 -0.005747999995946884
v 0.0767889991402626 0.010956999845802784 -0.006953000091016293
v 0.07520200312137604 0.011060000397264957 -0.006682999897748232
v 0.07550100237131119 0.010878000408411026 -0.0061969999223947525
f 3 2 1
f 1 2 4
f 1 4 5
f 3 1 5
f 7 6 2
f 3 8 2
f 4 2 9
f 10 2 8
f 6 9 2
f 11 7 2
f 2 13 12
f 11 2 12
f 13 2 10
f 3 14 8
f 14 3 5
f 15 4 9
f 15 5 4
f 16 5 15
f 14 5 17
f 17 5 18
f 18 5 19
f 5 16 19
f 6 21 20
f 22 9 6
f 23 6 7
f 20 22 6
f 6 24 21
f 6 23 24
f 25 23 7
f 7 11 25
f 8 14 26
f 8 26 27
f 27 10 8
f 22 28 9
f 16 15 9
f 9 28 29
f 16 9 29
f 27 13 10
f 11 12 30
f 11 30 25
f 30 12 27
f 12 13 27
f 14 17 31
f 14 31 26
f 16 29 32
f 16 33 19
f 32 33 16
f 35 34 17
f 37 17 36
f 36 17 18
f 31 17 34
f 17 37 35
f 18 38 36
f 18 19 38
f 38 19 39
f 39 19 33
f 41 40 20
f 22 20 42
f 20 21 41
f 20 43 42
f 40 43 20
f 21 24 44
f 45 21 44
f 45 41 21
f 28 22 46
f 47 22 42
f 48 22 47
f 46 22 48
f 49 24 23
f 23 25 49
f 24 51 50
f 49 51 24
f 52 24 50
f 24 52 53
f 44 24 53
f 49 25 54
f 27 25 30
f 55 25 27
f 25 55 54
f 26 31 27
f 56 27 31
f 56 55 27
f 58 28 57
f 58 29 28
f 46 59 28
f 28 59 60
f 28 60 57
f 61 29 58
f 32 29 61
f 34 56 31
f 32 61 33
f 57 62 33
f 58 57 33
f 61 58 33
f 39 33 63
f 33 62 63
f 65 34 64
f 66 34 35
f 34 66 64
f 56 34 65
f 37 66 35
f 68 36 67
f 36 38 67
f 68 37 36
f 68 69 37
f 69 66 37
f 38 71 70
f 71 38 72
f 72 38 73
f 73 38 74
f 38 70 67
f 38 39 74
f 39 76 75
f 39 75 74
f 76 39 63
f 40 41 77
f 40 77 78
f 40 78 43
f 45 77 41
f 43 79 42
f 42 79 47
f 43 80 79
f 80 43 81
f 82 43 78
f 82 83 43
f 43 83 84
f 43 84 81
f 45 44 85
f 44 53 86
f 88 44 87
f 88 85 44
f 44 86 87
f 77 45 89
f 91 45 90
f 90 45 85
f 89 45 91
f 48 92 46
f 46 93 59
f 46 92 93
f 47 79 48
f 79 94 48
f 48 94 92
f 95 51 49
f 54 95 49
f 97 50 96
f 97 52 50
f 50 51 96
f 96 51 95
f 52 97 98
f 53 52 86
f 86 52 98
f 99 95 54
f 100 99 54
f 100 54 55
f 102 101 55
f 55 103 102
f 104 103 55
f 56 105 55
f 104 55 105
f 100 55 101
f 106 56 65
f 56 108 107
f 56 106 108
f 56 107 105
f 60 62 57
f 109 59 93
f 110 60 59
f 111 110 59
f 109 111 59
f 62 60 63
f 63 60 76
f 60 110 76
f 113 112 64
f 114 64 112
f 65 64 114
f 66 113 64
f 65 114 106
f 69 115 66
f 66 115 113
f 70 116 67
f 67 117 68
f 67 116 117
f 68 117 69
f 115 69 112
f 112 69 117
f 118 70 71
f 116 70 119
f 119 70 120
f 70 118 121
f 120 70 121
f 118 71 122
f 71 124 123
f 122 71 123
f 125 124 71
f 126 71 72
f 126 125 71
f 72 73 127
f 126 72 127
f 73 129 128
f 129 73 74
f 130 73 128
f 127 73 131
f 131 73 130
f 75 80 74
f 74 80 129
f 75 110 111
f 75 111 80
f 110 75 76
f 77 89 132
f 133 77 132
f 134 78 77
f 134 77 133
f 78 134 82
f 79 80 135
f 79 135 94
f 80 111 109
f 135 80 109
f 80 81 129
f 129 81 136
f 136 81 84
f 134 83 82
f 133 84 83
f 134 133 83
f 131 84 127
f 84 137 127
f 136 84 131
f 84 133 132
f 84 138 137
f 132 139 84
f 138 84 139
f 140 85 88
f 90 85 140
f 137 86 98
f 137 87 86
f 137 88 87
f 137 140 88
f 89 91 139
f 132 89 139
f 139 90 140
f 139 91 90
f 109 93 92
f 135 92 94
f 135 109 92
f 141 95 99
f 141 96 95
f 97 96 141
f 97 143 142
f 98 97 144
f 146 97 145
f 146 143 97
f 144 97 142
f 97 141 145
f 137 98 144
f 99 100 145
f 141 99 145
f 145 100 146
f 147 143 100
f 146 100 143
f 100 101 147
f 101 149 148
f 149 101 150
f 102 151 101
f 151 150 101
f 147 101 152
f 152 101 148
f 153 151 102
f 103 153 102
f 104 153 103
f 153 104 105
f 154 153 105
f 107 154 105
f 106 155 108
f 114 112 106
f 106 112 155
f 154 107 156
f 108 155 107
f 156 107 155
f 115 112 113
f 112 157 155
f 157 112 158
f 112 117 158
f 159 116 119
f 117 116 160
f 160 116 159
f 117 160 158
f 118 122 161
f 160 121 118
f 160 118 162
f 161 163 118
f 163 162 118
f 159 119 160
f 160 119 120
f 120 121 160
f 161 122 123
f 164 123 124
f 164 161 123
f 125 165 124
f 164 124 165
f 165 125 126
f 126 127 165
f 127 137 166
f 127 166 165
f 129 136 128
f 136 130 128
f 131 130 136
f 138 140 137
f 137 144 166
f 138 139 140
f 142 143 166
f 144 142 166
f 167 166 143
f 147 167 143
f 167 147 168
f 147 152 169
f 168 147 169
f 148 171 170
f 148 172 171
f 148 149 172
f 152 148 170
f 172 149 173
f 173 149 174
f 174 149 150
f 151 156 150
f 174 150 156
f 153 156 151
f 169 152 170
f 156 153 154
f 157 156 155
f 176 156 175
f 157 175 156
f 156 177 174
f 177 156 176
f 179 178 157
f 178 175 157
f 179 157 158
f 158 160 162
f 181 158 180
f 182 180 158
f 162 182 158
f 181 179 158
f 163 161 164
f 163 182 162
f 163 164 182
f 164 183 180
f 184 183 164
f 185 184 164
f 182 164 180
f 166 164 165
f 164 166 186
f 185 164 186
f 166 187 186
f 187 166 167
f 189 167 188
f 190 187 167
f 188 167 191
f 167 189 190
f 191 167 168
f 191 168 192
f 168 169 192
f 169 170 192
f 171 192 170
f 193 192 171
f 173 193 171
f 172 173 171
f 193 173 194
f 174 194 173
f 174 177 194
f 175 195 176
f 178 196 175
f 175 196 195
f 195 177 176
f 193 194 177
f 193 177 197
f 195 197 177
f 179 198 178
f 198 196 178
f 179 181 183
f 179 183 199
f 179 199 200
f 179 200 201
f 179 201 202
f 179 202 195
f 179 195 198
f 181 180 183
f 183 184 203
f 199 183 203
f 204 184 185
f 203 184 204
f 185 186 204
f 186 190 204
f 186 187 190
f 204 188 192
f 190 188 204
f 190 189 188
f 192 188 191
f 192 193 205
f 192 205 204
f 206 205 193
f 206 193 197
f 195 206 197
f 202 206 195
f 198 195 196
f 207 199 203
f 208 199 207
f 200 199 208
f 200 208 205
f 201 200 205
f 201 205 206
f 202 201 206
f 207 203 204
f 204 205 209
f 209 207 204
f 205 208 209
f 209 208 207
