# Generated by Visualization Toolkit
v 0.07442999631166458 0.019362999126315117 0.01945200003683567
v 0.07415399700403214 0.021671000868082047 0.01789899915456772
v 0.07065500319004059 0.019415000453591347 0.018655000254511833
v 0.07785899937152863 0.019169999286532402 0.020212000235915184
v 0.07743799686431885 0.015683000907301903 0.02035200037062168
v 0.07846000045537949 0.025544999167323112 0.014573000371456146
v 0.07125400006771088 0.026078000664711 0.010773000307381153
v 0.07014799863100052 0.020244000479578972 0.018123000860214233
v 0.07946400344371796 0.020073000341653824 0.020250000059604645
v 0.07076600193977356 0.020791999995708466 0.01763400062918663
v 0.07162299752235413 0.02468400076031685 0.012632999569177628
v 0.07059299945831299 0.022071000188589096 0.015515999868512154
v 0.07113700360059738 0.021340999752283096 0.016938000917434692
v 0.06941500306129456 0.017819000408053398 0.01808599941432476
v 0.07891900092363358 0.018821999430656433 0.021112000569701195
v 0.07982099801301956 0.01854499988257885 0.022098999470472336
v 0.06973999738693237 0.015007000416517258 0.01815599948167801
v 0.08061300218105316 0.014542999677360058 0.019121000543236732
v 0.0816510021686554 0.01484999991953373 0.021456999704241753
v 0.09065999835729599 0.02455900050699711 0.015305999666452408
v 0.08671700209379196 0.025848999619483948 0.013670000247657299
v 0.08767099678516388 0.02268899977207184 0.0189059991389513
v 0.07110299915075302 0.026856999844312668 0.009889000095427036
v 0.0778380036354065 0.02814199961721897 0.011454000137746334
v 0.06896699965000153 0.025405999273061752 0.010002000257372856
v 0.0693809986114502 0.018293999135494232 0.0178459994494915
v 0.07000699639320374 0.019700000062584877 0.01754399947822094
v 0.08290600031614304 0.019564999267458916 0.02340400032699108
v 0.0812470018863678 0.01879500038921833 0.02327200025320053
v 0.07003200054168701 0.02303599938750267 0.0138330003246665
v 0.06887099891901016 0.016188999637961388 0.017550000920891762
v 0.08032599836587906 0.018427999690175056 0.02266700007021427
v 0.08200599998235703 0.015573999844491482 0.023205000907182693
v 0.06988000124692917 0.014027000404894352 0.017117999494075775
v 0.07043299823999405 0.013288999907672405 0.017255999147892
v 0.0790340006351471 0.01171599980443716 0.017014000564813614
v 0.07241500169038773 0.01105399988591671 0.01646300032734871
v 0.08469399809837341 0.013256999664008617 0.014305000193417072
v 0.08317899703979492 0.014510000124573708 0.022760000079870224
v 0.09112299978733063 0.024893000721931458 0.014448000118136406
v 0.09067899733781815 0.02556600049138069 0.014053000137209892
v 0.09033399820327759 0.023750999942421913 0.016366999596357346
v 0.09102600067853928 0.02416899986565113 0.015192000195384026
v 0.08080100268125534 0.027533000335097313 0.010424000211060047
v 0.08679699897766113 0.02591400034725666 0.012480000033974648
v 0.08570300042629242 0.020780999213457108 0.021662000566720963
v 0.08924800157546997 0.02315099909901619 0.017771000042557716
v 0.08849500119686127 0.02229199931025505 0.0189449992030859
v 0.07168100029230118 0.02724500000476837 0.009186999872326851
v 0.07237999886274338 0.02761700004339218 0.007116000168025494
v 0.07217799872159958 0.027495000511407852 0.008344000205397606
v 0.07391899824142456 0.027086999267339706 0.006080999970436096
v 0.07734700292348862 0.027522999793291092 0.008457000367343426
v 0.06885900348424911 0.025529999285936356 0.007891999557614326
v 0.0692560002207756 0.01711600087583065 0.006302999798208475
v 0.06960500031709671 0.015860000625252724 0.016473999246954918
v 0.08177100121974945 0.018221000209450722 0.023746000602841377
v 0.08118700236082077 0.018300000578165054 0.023444000631570816
v 0.0841279998421669 0.0193060003221035 0.023252999410033226
v 0.08326999843120575 0.018566999584436417 0.02369699999690056
v 0.08068499714136124 0.018330000340938568 0.023079000413417816
v 0.08221399784088135 0.017965000122785568 0.023840000852942467
v 0.0829010009765625 0.01521500013768673 0.023221999406814575
v 0.07067699730396271 0.012656999751925468 0.015735000371932983
v 0.0702890008687973 0.013477999716997147 0.015939999371767044
v 0.07236699759960175 0.01100200042128563 0.015967000275850296
v 0.07935000211000443 0.009398999623954296 0.015697000548243523
v 0.07527700066566467 0.0103150000795722 0.01635099947452545
v 0.07517799735069275 0.00952600035816431 0.015610000118613243
v 0.08382900059223175 0.008336000144481659 0.010746000334620476
v 0.08578500151634216 0.008775999769568443 0.009410000406205654
v 0.08840800076723099 0.012144999578595161 0.01071999967098236
v 0.09002800285816193 0.012803999707102776 0.011315000243484974
v 0.08597499877214432 0.013899999670684338 0.018048999831080437
v 0.0865200012922287 0.015305999666452408 0.019053999334573746
v 0.08363600075244904 0.014952000230550766 0.02263600006699562
v 0.09124000370502472 0.0252470001578331 0.013485999777913094
v 0.0913349986076355 0.02418999932706356 0.014399999752640724
v 0.08949899673461914 0.022708000615239143 0.017849000170826912
v 0.0893160030245781 0.013717999681830406 0.01588599942624569
v 0.0910710021853447 0.013469000346958637 0.01337399985641241
v 0.09148799628019333 0.023444000631570816 0.013611000031232834
v 0.09156300127506256 0.022074999287724495 0.012811999768018723
v 0.0915440022945404 0.017589999362826347 0.011722000315785408
v 0.08341299742460251 0.026629000902175903 0.01090299990028143
v 0.07714399695396423 0.02716200053691864 0.008000999689102173
v 0.0809670016169548 0.026653999462723732 0.009877000004053116
v 0.08359800279140472 0.026110000908374786 0.01065099984407425
v 0.08881700038909912 0.02538299933075905 0.012501999735832214
v 0.08572100102901459 0.025909999385476112 0.01159599982202053
v 0.0872810035943985 0.02550099976360798 0.011977000162005424
v 0.08723700046539307 0.020949000492691994 0.02043900080025196
v 0.08566199988126755 0.020124999806284904 0.021891999989748
v 0.08841100335121155 0.02168699912726879 0.01915000006556511
v 0.07042299956083298 0.026429999619722366 0.0072189997881650925
v 0.07114800065755844 0.027055000886321068 0.005994999781250954
v 0.07292100042104721 0.02700600028038025 0.005530000198632479
v 0.07443899661302567 0.02662000060081482 0.006161999888718128
v 0.07046099752187729 0.025973999872803688 0.005776999983936548
v 0.07039199769496918 0.022822000086307526 0.00470300018787384
v 0.06860499829053879 0.01663300022482872 0.004606999922543764
v 0.06882300227880478 0.015607999637722969 0.006463999859988689
v 0.0690469965338707 0.015572000294923782 0.007391999941319227
v 0.06924299895763397 0.015567000024020672 0.008251000195741653
v 0.06957799941301346 0.014871000312268734 0.010312000289559364
v 0.07039500027894974 0.013559999875724316 0.013492000289261341
v 0.06986799836158752 0.013987000100314617 0.010546999983489513
v 0.07016699761152267 0.013779000379145145 0.012016999535262585
v 0.08714299649000168 0.020204000174999237 0.020232999697327614
v 0.08415699750185013 0.018366999924182892 0.023395000025629997
v 0.08555299788713455 0.018864000216126442 0.021758999675512314
v 0.07377099990844727 0.01075700018554926 0.012415999546647072
v 0.07153599709272385 0.01179600041359663 0.015644000843167305
v 0.07049600034952164 0.013158000074326992 0.014697999693453312
v 0.07246199995279312 0.010990999639034271 0.015432000160217285
v 0.07913099974393845 0.008058000355958939 0.013489999808371067
v 0.07759399712085724 0.008290999568998814 0.014751000329852104
v 0.08413399755954742 0.008453000336885452 0.008090999908745289
v 0.08172199875116348 0.008125999942421913 0.01039000041782856
v 0.08284900337457657 0.00822100043296814 0.00963400024920702
v 0.08342800289392471 0.00840499997138977 0.00846800021827221
v 0.08451200276613235 0.00887100026011467 0.0076870000921189785
v 0.08478499948978424 0.00928100012242794 0.00735800014808774
v 0.08505100011825562 0.010259999893605709 0.006244000047445297
v 0.08641000092029572 0.009398999623954296 0.007247000001370907
v 0.08762200176715851 0.01080199982970953 0.007453000172972679
v 0.08884499967098236 0.01269800029695034 0.009039999917149544
v 0.09121900051832199 0.013101000338792801 0.010883999988436699
v 0.09087099879980087 0.012990999966859818 0.013288999907672405
v 0.09073299914598465 0.013217000290751457 0.010955000296235085
v 0.09012199938297272 0.01363999955356121 0.009971000254154205
v 0.0900219976902008 0.02502099983394146 0.01270500011742115
v 0.09109500050544739 0.02495799958705902 0.013047000393271446
v 0.09152200073003769 0.024553999304771423 0.013554999604821205
v 0.08844300359487534 0.020837999880313873 0.01891000010073185
v 0.09146499633789062 0.01371300034224987 0.010962000116705894
v 0.08345100283622742 0.02455900050699711 0.009970000013709068
v 0.08753400295972824 0.02385699935257435 0.011262999847531319
v 0.08755999803543091 0.025123000144958496 0.011660000309348106
v 0.08601000159978867 0.02550799958407879 0.011254999786615372
v 0.07070399820804596 0.026597000658512115 0.006089000031352043
v 0.07376399636268616 0.02493399940431118 0.005503000225871801
v 0.07274500280618668 0.024860000237822533 0.0048870001919567585
v 0.07470499724149704 0.02501799911260605 0.006064999848604202
v 0.07093799859285355 0.025940999388694763 0.005243000108748674
v 0.07174699753522873 0.024670999497175217 0.004865000024437904
v 0.0704599991440773 0.01918499916791916 0.0035459999926388264
v 0.0690540000796318 0.01322999969124794 0.0028649999294430017
v 0.06840699911117554 0.013054000213742256 0.004025000147521496
v 0.06823299825191498 0.013484999537467957 0.005787999834865332
v 0.06831000000238419 0.014063999988138676 0.005882999859750271
v 0.06990200281143188 0.014081999659538269 0.002268000040203333
v 0.06886699795722961 0.014499999582767487 0.008356999605894089
v 0.06933099776506424 0.014221999794244766 0.009380999952554703
v 0.07086700201034546 0.013074999675154686 0.010842000134289265
v 0.06845299899578094 0.013278000056743622 0.006591999903321266
v 0.07219800353050232 0.012489000335335732 0.009139000438153744
v 0.07842600345611572 0.010131999850273132 0.00979399960488081
v 0.0805250033736229 0.008062999695539474 0.011215999722480774
v 0.08023399859666824 0.008342999964952469 0.01038500014692545
v 0.08387099951505661 0.009304000064730644 0.007220999803394079
v 0.08137699961662292 0.009557999670505524 0.008074999786913395
v 0.08265899866819382 0.009406999684870243 0.0075969998724758625
v 0.08307500183582306 0.011140000075101852 0.005107000004500151
v 0.08658900111913681 0.010940000414848328 0.006757999770343304
v 0.08085300028324127 0.01185499969869852 0.004052999895066023
v 0.07569699734449387 0.014658000320196152 0.0027129999361932278
v 0.07220400124788284 0.013551999814808369 0.0015910000074654818
v 0.07092200219631195 0.013643999584019184 0.0018100000452250242
v 0.0697140023112297 0.012783999554812908 0.0020149999763816595
v 0.06974799931049347 0.011858999729156494 0.0020290000829845667
v 0.06906899809837341 0.012676999904215336 0.0028460000175982714
v 0.06838399916887283 0.012652000412344933 0.004484999924898148
v 0.06832999736070633 0.012977000325918198 0.005526999942958355
v 0.07103399932384491 0.012896999716758728 0.0071669998578727245
v 0.0695440024137497 0.013043000362813473 0.006666000001132488
v 0.06963200122117996 0.01256099995225668 0.005291000008583069
v 0.07245200127363205 0.012264999561011791 0.007519000209867954
v 0.07468300312757492 0.011648000217974186 0.007788999937474728
v 0.07870599627494812 0.010533999651670456 0.007938000373542309
v 0.07684600353240967 0.01106599997729063 0.007966999895870686
v 0.07999099791049957 0.010077999904751778 0.008023999631404877
v 0.07848700135946274 0.010951999574899673 0.007321000099182129
v 0.0781330019235611 0.010622000321745872 0.005652000196278095
v 0.07902300357818604 0.010874999687075615 0.004364000167697668
v 0.07880999892950058 0.011044999584555626 0.003831000067293644
v 0.07882300019264221 0.011533999815583229 0.003186000045388937
v 0.07454899698495865 0.012772000394761562 0.0020240000449121
v 0.07575099915266037 0.012821000069379807 0.002337000099942088
v 0.07701600342988968 0.011266999877989292 0.0023880000226199627
v 0.07317099720239639 0.01319199986755848 0.001753999968059361
v 0.07175999879837036 0.011096999980509281 0.0015180000336840749
v 0.0712909996509552 0.011036000214517117 0.0026179999113082886
v 0.06896699965000153 0.0125749995931983 0.004904999863356352
v 0.07160700112581253 0.011746999807655811 0.006049000192433596
v 0.07199300080537796 0.012258999980986118 0.007187000010162592
v 0.07078000158071518 0.011908999644219875 0.005433000158518553
v 0.07314799726009369 0.011997000314295292 0.007447000127285719
v 0.07797999680042267 0.011099000461399555 0.007726000156253576
v 0.07504100352525711 0.011350000277161598 0.007259000092744827
v 0.07416699826717377 0.011288000270724297 0.0068430001847445965
v 0.07321400195360184 0.011490000411868095 0.006703000050038099
v 0.07759100198745728 0.010848999954760075 0.006572999991476536
v 0.07446099817752838 0.010591999627649784 0.002297000028192997
v 0.07371100038290024 0.01093200035393238 0.005962000228464603
v 0.07197800278663635 0.011335999704897404 0.005747999995946884
v 0.0767889991402626 0.010956999845802784 0.006953000091016293
v 0.07520200312137604 0.011060000397264957 0.006682999897748232
v 0.07550100237131119 0.010878000408411026 0.0061969999223947525
f 1 2 3
f 4 2 1
f 5 4 1
f 5 1 3
f 2 6 7
f 2 8 3
f 9 2 4
f 8 2 10
f 2 9 6
f 2 7 11
f 12 13 2
f 12 2 11
f 10 2 13
f 8 14 3
f 5 3 14
f 9 4 15
f 4 5 15
f 15 5 16
f 17 5 14
f 18 5 17
f 19 5 18
f 19 16 5
f 20 21 6
f 6 9 22
f 7 6 23
f 6 22 20
f 21 24 6
f 24 23 6
f 7 23 25
f 25 11 7
f 26 14 8
f 27 26 8
f 8 10 27
f 9 28 22
f 9 15 16
f 29 28 9
f 29 9 16
f 10 13 27
f 30 12 11
f 25 30 11
f 27 12 30
f 27 13 12
f 31 17 14
f 26 31 14
f 32 29 16
f 19 33 16
f 16 33 32
f 17 34 35
f 36 17 37
f 18 17 36
f 34 17 31
f 35 37 17
f 36 38 18
f 38 19 18
f 39 19 38
f 33 19 39
f 20 40 41
f 42 20 22
f 41 21 20
f 42 43 20
f 20 43 40
f 44 24 21
f 44 21 45
f 21 41 45
f 46 22 28
f 42 22 47
f 47 22 48
f 48 22 46
f 23 24 49
f 49 25 23
f 50 51 24
f 24 51 49
f 50 24 52
f 53 52 24
f 53 24 44
f 54 25 49
f 30 25 27
f 27 25 55
f 54 55 25
f 27 31 26
f 31 27 56
f 27 55 56
f 57 28 58
f 28 29 58
f 28 59 46
f 60 59 28
f 57 60 28
f 58 29 61
f 61 29 32
f 31 56 34
f 33 61 32
f 33 62 57
f 33 57 58
f 33 58 61
f 63 33 39
f 63 62 33
f 64 34 65
f 35 34 66
f 64 66 34
f 65 34 56
f 35 66 37
f 67 36 68
f 67 38 36
f 36 37 68
f 37 69 68
f 37 66 69
f 70 71 38
f 72 38 71
f 73 38 72
f 74 38 73
f 67 70 38
f 74 39 38
f 75 76 39
f 74 75 39
f 63 39 76
f 77 41 40
f 78 77 40
f 43 78 40
f 41 77 45
f 42 79 43
f 47 79 42
f 79 80 43
f 81 43 80
f 78 43 82
f 43 83 82
f 84 83 43
f 81 84 43
f 85 44 45
f 86 53 44
f 87 44 88
f 44 85 88
f 87 86 44
f 89 45 77
f 90 45 91
f 85 45 90
f 91 45 89
f 46 92 48
f 59 93 46
f 93 92 46
f 48 79 47
f 48 94 79
f 92 94 48
f 49 51 95
f 49 95 54
f 96 50 97
f 50 52 97
f 96 51 50
f 95 51 96
f 98 97 52
f 86 52 53
f 98 52 86
f 54 95 99
f 54 99 100
f 55 54 100
f 55 101 102
f 102 103 55
f 55 103 104
f 55 105 56
f 105 55 104
f 101 55 100
f 65 56 106
f 107 108 56
f 108 106 56
f 105 107 56
f 57 62 60
f 93 59 109
f 59 60 110
f 59 110 111
f 59 111 109
f 63 60 62
f 76 60 63
f 76 110 60
f 64 112 113
f 112 64 114
f 114 64 65
f 64 113 66
f 106 114 65
f 66 115 69
f 113 115 66
f 67 116 70
f 68 117 67
f 117 116 67
f 69 117 68
f 112 69 115
f 117 69 112
f 71 70 118
f 119 70 116
f 120 70 119
f 121 118 70
f 121 70 120
f 122 71 118
f 123 124 71
f 123 71 122
f 71 124 125
f 72 71 126
f 71 125 126
f 127 73 72
f 127 72 126
f 128 129 73
f 74 73 129
f 128 73 130
f 131 73 127
f 130 73 131
f 74 80 75
f 129 80 74
f 111 110 75
f 80 111 75
f 76 75 110
f 132 89 77
f 132 77 133
f 77 78 134
f 133 77 134
f 82 134 78
f 135 80 79
f 94 135 79
f 109 111 80
f 109 80 135
f 129 81 80
f 136 81 129
f 84 81 136
f 82 83 134
f 83 84 133
f 83 133 134
f 127 84 131
f 127 137 84
f 131 84 136
f 132 133 84
f 137 138 84
f 84 139 132
f 139 84 138
f 88 85 140
f 140 85 90
f 98 86 137
f 86 87 137
f 87 88 137
f 88 140 137
f 139 91 89
f 139 89 132
f 140 90 139
f 90 91 139
f 92 93 109
f 94 92 135
f 92 109 135
f 99 95 141
f 95 96 141
f 141 96 97
f 142 143 97
f 144 97 98
f 145 97 146
f 97 143 146
f 142 97 144
f 145 141 97
f 144 98 137
f 145 100 99
f 145 99 141
f 146 100 145
f 100 143 147
f 143 100 146
f 147 101 100
f 148 149 101
f 150 101 149
f 101 151 102
f 101 150 151
f 152 101 147
f 148 101 152
f 102 151 153
f 102 153 103
f 103 153 104
f 105 104 153
f 105 153 154
f 105 154 107
f 108 155 106
f 106 112 114
f 155 112 106
f 156 107 154
f 107 155 108
f 155 107 156
f 113 112 115
f 155 157 112
f 158 112 157
f 158 117 112
f 119 116 159
f 160 116 117
f 159 116 160
f 158 160 117
f 161 122 118
f 118 121 160
f 162 118 160
f 118 163 161
f 118 162 163
f 160 119 159
f 120 119 160
f 160 121 120
f 123 122 161
f 124 123 164
f 123 161 164
f 124 165 125
f 165 124 164
f 126 125 165
f 165 127 126
f 166 137 127
f 165 166 127
f 128 136 129
f 128 130 136
f 136 130 131
f 137 140 138
f 166 144 137
f 140 139 138
f 166 143 142
f 166 142 144
f 143 166 167
f 143 167 147
f 168 147 167
f 169 152 147
f 169 147 168
f 170 171 148
f 171 172 148
f 172 149 148
f 170 148 152
f 173 149 172
f 174 149 173
f 150 149 174
f 150 156 151
f 156 150 174
f 151 156 153
f 170 152 169
f 154 153 156
f 155 156 157
f 175 156 176
f 156 175 157
f 174 177 156
f 176 156 177
f 157 178 179
f 157 175 178
f 158 157 179
f 162 160 158
f 180 158 181
f 158 180 182
f 158 182 162
f 158 179 181
f 164 161 163
f 162 182 163
f 182 164 163
f 180 183 164
f 164 183 184
f 164 184 185
f 180 164 182
f 165 164 166
f 186 166 164
f 186 164 185
f 186 187 166
f 167 166 187
f 188 167 189
f 167 187 190
f 191 167 188
f 190 189 167
f 168 167 191
f 192 168 191
f 192 169 168
f 192 170 169
f 170 192 171
f 171 192 193
f 171 193 173
f 171 173 172
f 194 173 193
f 173 194 174
f 194 177 174
f 176 195 175
f 175 196 178
f 195 196 175
f 176 177 195
f 177 194 193
f 197 177 193
f 177 197 195
f 178 198 179
f 178 196 198
f 183 181 179
f 199 183 179
f 200 199 179
f 201 200 179
f 202 201 179
f 195 202 179
f 198 195 179
f 183 180 181
f 203 184 183
f 203 183 199
f 185 184 204
f 204 184 203
f 204 186 185
f 204 190 186
f 190 187 186
f 192 188 204
f 204 188 190
f 188 189 190
f 191 188 192
f 205 193 192
f 204 205 192
f 193 205 206
f 197 193 206
f 197 206 195
f 195 206 202
f 196 195 198
f 203 199 207
f 207 199 208
f 208 199 200
f 205 208 200
f 205 200 201
f 206 205 201
f 206 201 202
f 204 203 207
f 209 205 204
f 204 207 209
f 209 208 205
f 207 208 209
