# Generated by Visualization Toolkit
v 0.5 0.5 0
v 0.5 -0.5 0
v 0.4755282700061798 0.5 -0.15450850129127502
v 0.4755282700061798 -0.5 -0.15450850129127502
v 0.404508501291275 0.5 -0.29389262199401855
v 0.404508501291275 -0.5 -0.29389262199401855
v 0.29389262199401855 0.5 -0.404508501291275
v 0.29389262199401855 -0.5 -0.404508501291275
v 0.15450850129127502 0.5 -0.4755282700061798
v 0.15450850129127502 -0.5 -0.4755282700061798
v -1.0255171711825994e-10 0.5 -0.5
v -1.0255171711825994e-10 -0.5 -0.5
v -0.15450850129127502 0.5 -0.4755282700061798
v -0.15450850129127502 -0.5 -0.4755282700061798
v -0.29389262199401855 0.5 -0.404508501291275
v -0.29389262199401855 -0.5 -0.404508501291275
v -0.404508501291275 0.5 -0.29389262199401855
v -0.404508501291275 -0.5 -0.29389262199401855
v -0.4755282700061798 0.5 -0.15450850129127502
v -0.4755282700061798 -0.5 -0.15450850129127502
v -0.5 0.5 2.051034342365199e-10
v -0.5 -0.5 2.051034342365199e-10
v -0.4755282700061798 0.5 0.15450850129127502
v -0.4755282700061798 -0.5 0.15450850129127502
v -0.404508501291275 0.5 0.29389262199401855
v -0.404508501291275 -0.5 0.29389262199401855
v -0.29389262199401855 0.5 0.404508501291275
v -0.29389262199401855 -0.5 0.404508501291275
v -0.15450850129127502 0.5 0.4755282700061798
v -0.15450850129127502 -0.5 0.4755282700061798
v 3.0765515135477983e-10 0.5 0.5
v 3.0765515135477983e-10 -0.5 0.5
v 0.15450850129127502 0.5 0.4755282700061798
v 0.15450850129127502 -0.5 0.4755282700061798
v 0.29389262199401855 0.5 0.404508501291275
v 0.29389262199401855 -0.5 0.404508501291275
v 0.404508501291275 0.5 0.29389262199401855
v 0.404508501291275 -0.5 0.29389262199401855
v 0.4755282700061798 0.5 0.15450850129127502
v 0.4755282700061798 -0.5 0.15450850129127502
v 0.5 0.5 0
v 0.4755282700061798 0.5 -0.15450850129127502
v 0.404508501291275 0.5 -0.29389262199401855
v 0.29389262199401855 0.5 -0.404508501291275
v 0.15450850129127502 0.5 -0.4755282700061798
v -1.0255171711825994e-10 0.5 -0.5
v -0.15450850129127502 0.5 -0.4755282700061798
v -0.29389262199401855 0.5 -0.404508501291275
v -0.404508501291275 0.5 -0.29389262199401855
v -0.4755282700061798 0.5 -0.15450850129127502
v -0.5 0.5 2.051034342365199e-10
v -0.4755282700061798 0.5 0.15450850129127502
v -0.404508501291275 0.5 0.29389262199401855
v -0.29389262199401855 0.5 0.404508501291275
v -0.15450850129127502 0.5 0.4755282700061798
v 3.0765515135477983e-10 0.5 0.5
v 0.15450850129127502 0.5 0.4755282700061798
v 0.29389262199401855 0.5 0.404508501291275
v 0.404508501291275 0.5 0.29389262199401855
v 0.4755282700061798 0.5 0.15450850129127502
v 0.4755282700061798 -0.5 0.15450850129127502
v 0.404508501291275 -0.5 0.29389262199401855
v 0.29389262199401855 -0.5 0.404508501291275
v 0.15450850129127502 -0.5 0.4755282700061798
v 3.0765515135477983e-10 -0.5 0.5
v -0.15450850129127502 -0.5 0.4755282700061798
v -0.29389262199401855 -0.5 0.404508501291275
v -0.404508501291275 -0.5 0.29389262199401855
v -0.4755282700061798 -0.5 0.15450850129127502
v -0.5 -0.5 2.051034342365199e-10
v -0.4755282700061798 -0.5 -0.15450850129127502
v -0.404508501291275 -0.5 -0.29389262199401855
v -0.29389262199401855 -0.5 -0.404508501291275
v -0.15450850129127502 -0.5 -0.4755282700061798
v -1.0255171711825994e-10 -0.5 -0.5
v 0.15450850129127502 -0.5 -0.4755282700061798
v 0.29389262199401855 -0.5 -0.404508501291275
v 0.404508501291275 -0.5 -0.29389262199401855
v 0.4755282700061798 -0.5 -0.15450850129127502
v 0.5 -0.5 0
f 1 2 3
f 2 4 3
f 3 4 5
f 4 6 5
f 5 6 7
f 6 8 7
f 7 8 9
f 8 10 9
f 9 10 11
f 10 12 11
f 11 12 13
f 12 14 13
f 13 14 15
f 14 16 15
f 15 16 17
f 16 18 17
f 17 18 19
f 18 20 19
f 19 20 21
f 20 22 21
f 21 22 23
f 22 24 23
f 23 24 25
f 24 26 25
f 25 26 27
f 26 28 27
f 27 28 29
f 28 30 29
f 29 30 31
f 30 32 31
f 31 32 33
f 32 34 33
f 33 34 35
f 34 36 35
f 35 36 37
f 36 38 37
f 37 38 39
f 38 40 39
f 39 40 1
f 40 2 1
f 55 56 54
f 54 56 53
f 56 57 53
f 57 58 53
f 58 59 53
f 53 59 52
f 52 59 51
f 51 59 50
f 50 59 49
f 49 59 48
f 48 59 47
f 59 60 47
f 60 41 47
f 41 42 47
f 47 42 46
f 46 42 45
f 45 42 44
f 42 43 44
f 66 67 65
f 67 68 65
f 65 68 64
f 64 68 63
f 63 68 62
f 62 68 61
f 61 68 80
f 80 68 79
f 79 68 78
f 78 68 77
f 77 68 76
f 68 69 76
f 76 69 75
f 75 69 74
f 69 70 74
f 70 71 74
f 74 71 73
f 71 72 73
