# Generated by Visualization Toolkit
v 0.056696001440286636 -0.001420999993570149 -0.01961199939250946
v 0.06505600363016129 -0.0029410000424832106 -0.017000999301671982
v 0.06266500055789948 -0.0033889999613165855 -0.01925400085747242
v 0.053353000432252884 -0.001661999966017902 -0.011500000022351742
v 0.0569240003824234 -0.0026110000908374786 -0.012807999737560749
v 0.058423999696969986 -0.003212000010535121 -0.021991999819874763
v 0.06328500062227249 -0.002607000060379505 -0.016628000885248184
v 0.05024399980902672 -0.00007400000322377309 -0.015073000453412533
v 0.052751000970602036 -0.0011149999918416142 -0.025902999565005302
v 0.053043000400066376 -0.00006600000051548705 -0.021397000178694725
v 0.06530000269412994 -0.004616000223904848 -0.019096000120043755
v 0.06801000237464905 -0.0026650000363588333 -0.01563500054180622
v 0.06256300210952759 -0.006126000080257654 -0.02124200016260147
v 0.06414400041103363 -0.0069679999724030495 -0.02081199921667576
v 0.05197000131011009 -0.0014420000370591879 -0.011624000035226345
v 0.052411001175642014 -0.0022499999031424522 -0.011014999821782112
v 0.05229000002145767 -0.005747999995946884 -0.010471999645233154
v 0.05631300061941147 -0.006909999996423721 -0.011086000129580498
v 0.06410200148820877 -0.003965999931097031 -0.01293100044131279
v 0.059606000781059265 -0.004654000047594309 -0.012190000154078007
v 0.05674400180578232 -0.005197000224143267 -0.024228999391198158
v 0.05858900025486946 -0.005154000129550695 -0.022967999801039696
v 0.05407699942588806 -0.005485000088810921 -0.02673500031232834
v 0.05243400111794472 -0.004594000056385994 -0.019246000796556473
v 0.05143899843096733 -0.0006539999740198255 -0.02397499978542328
v 0.0515189990401268 -0.003667999990284443 -0.026969999074935913
v 0.06800100207328796 -0.004920000210404396 -0.019379999488592148
v 0.06724700331687927 -0.006376999896019697 -0.01960499957203865
v 0.07307600229978561 -0.003783999942243099 -0.014165000058710575
v 0.06768400222063065 -0.0036359999794512987 -0.013705000281333923
v 0.06974399834871292 -0.0050200000405311584 -0.020018000155687332
v 0.07339400053024292 -0.0038590000476688147 -0.01627199910581112
v 0.06215900182723999 -0.007091000210493803 -0.020462999120354652
v 0.05887199938297272 -0.007052000146359205 -0.022252000868320465
v 0.06305500119924545 -0.007362999953329563 -0.0132039999589324
v 0.06587599962949753 -0.007757999934256077 -0.020194999873638153
v 0.06632500141859055 -0.007288999855518341 -0.02034500055015087
v 0.0518449991941452 -0.006568000186234713 -0.01185499969869852
v 0.05204100161790848 -0.0066269999369978905 -0.012707999907433987
v 0.05239599943161011 -0.0064929998479783535 -0.014910000376403332
v 0.05185399949550629 -0.007199000101536512 -0.011074000038206577
v 0.0516900010406971 -0.0072479997761547565 -0.011721000075340271
v 0.05993599817156792 -0.006829000078141689 -0.012341000139713287
v 0.05423999950289726 -0.008662000298500061 -0.011095999740064144
v 0.05986800044775009 -0.007679999805986881 -0.01308200042694807
v 0.06333799660205841 -0.005437999963760376 -0.012346000410616398
v 0.06497099995613098 -0.007199999876320362 -0.012520000338554382
v 0.05656599998474121 -0.006641000043600798 -0.024059999734163284
v 0.05519400164484978 -0.00675999978557229 -0.025955000892281532
v 0.053686000406742096 -0.006554000079631805 -0.026758000254631042
v 0.05235400050878525 -0.006812999956309795 -0.01933700032532215
v 0.05237799882888794 -0.006490000057965517 -0.016804000362753868
v 0.05226299911737442 -0.006440000142902136 -0.0180440004914999
v 0.051913000643253326 -0.007833000272512436 -0.021824000403285027
v 0.051224999129772186 -0.006903999950736761 -0.023888999596238136
v 0.0512159988284111 -0.006357999984174967 -0.026135999709367752
v 0.05181200057268143 -0.00622399989515543 -0.02712699957191944
v 0.06784400343894958 -0.006887999828904867 -0.02032499946653843
v 0.06814400106668472 -0.007021999917924404 -0.020798999816179276
v 0.069132000207901 -0.006775000132620335 -0.02082899957895279
v 0.06714800000190735 -0.007019000127911568 -0.020179999992251396
v 0.07003200054168701 -0.005747999995946884 -0.011556999757885933
v 0.07449299842119217 -0.005369999911636114 -0.013536999933421612
v 0.0751589983701706 -0.005510000046342611 -0.016184000298380852
v 0.07217200100421906 -0.006978999823331833 -0.01962600089609623
v 0.07492300122976303 -0.005681999959051609 -0.017218999564647675
v 0.05689200013875961 -0.007803000044077635 -0.02083900012075901
v 0.06819900125265121 -0.0076939999125897884 -0.02001900039613247
v 0.07004000246524811 -0.007528999820351601 -0.02015100046992302
v 0.07217299938201904 -0.007675999775528908 -0.01781100034713745
v 0.06735999882221222 -0.007683000061661005 -0.020299000665545464
v 0.052650000900030136 -0.007189999800175428 -0.012571999803185463
v 0.053272999823093414 -0.006802000105381012 -0.014630000106990337
v 0.053240999579429626 -0.00688599981367588 -0.013964000158011913
v 0.05290500074625015 -0.0068350001238286495 -0.01628500036895275
v 0.05249600112438202 -0.007796999998390675 -0.012451999820768833
v 0.052636001259088516 -0.008717999793589115 -0.011463000439107418
v 0.05271599814295769 -0.009088000282645226 -0.012319999746978283
v 0.05417700111865997 -0.009770999662578106 -0.012666000053286552
v 0.05341799929738045 -0.009871999733150005 -0.017249999567866325
v 0.0520239993929863 -0.00950200017541647 -0.024041999131441116
v 0.05193199962377548 -0.00810300000011921 -0.026290999725461006
v 0.052776999771595 -0.007588000036776066 -0.016346000134944916
v 0.0520160011947155 -0.007000000216066837 -0.017867999151349068
v 0.05196800082921982 -0.007973999716341496 -0.01965400017797947
v 0.051353998482227325 -0.008740999735891819 -0.021858999505639076
v 0.05122699961066246 -0.00911100022494793 -0.018237000331282616
v 0.05117199942469597 -0.008949000388383865 -0.023458000272512436
v 0.05057999864220619 -0.007184999994933605 -0.024700000882148743
v 0.07333000004291534 -0.006781000178307295 -0.013563999906182289
v 0.07477899640798569 -0.006376999896019697 -0.016533000394701958
v 0.05256899818778038 -0.008464000187814236 -0.014611000195145607
v 0.05203999951481819 -0.008658000268042088 -0.016673000529408455
v 0.0531340017914772 -0.009645000100135803 -0.013164999894797802
v 0.05279099941253662 -0.009379999712109566 -0.014771999791264534
v 0.0517130009829998 -0.009723000228404999 -0.017295999452471733
v 0.051465000957250595 -0.009813000448048115 -0.018448999151587486
v 0.05272600054740906 -0.00975400023162365 -0.016011999920010567
v 0.051924001425504684 -0.009630000218749046 -0.022290999069809914
v 0.051316998898983 -0.0090549997985363 -0.024271000176668167
v 0.05139800161123276 -0.0090549997985363 -0.017355000600218773
v 0.05162600055336952 -0.007860999554395676 -0.017904000356793404
v 0.051642000675201416 -0.009468000382184982 -0.021740000694990158
f 1 2 3
f 1 4 5
f 1 3 6
f 1 7 2
f 7 1 5
f 8 4 1
f 9 10 1
f 6 9 1
f 10 8 1
f 2 11 3
f 12 11 2
f 7 12 2
f 6 3 13
f 11 14 3
f 14 13 3
f 15 4 8
f 16 4 15
f 4 16 17
f 5 4 18
f 4 17 18
f 5 19 12
f 12 7 5
f 20 19 5
f 20 5 18
f 21 6 22
f 9 6 23
f 23 6 21
f 13 22 6
f 8 24 16
f 8 10 25
f 16 15 8
f 24 8 25
f 10 9 25
f 26 25 9
f 9 23 26
f 12 27 11
f 11 27 28
f 28 14 11
f 29 12 30
f 31 27 12
f 31 12 32
f 30 12 19
f 32 12 29
f 33 13 14
f 22 13 34
f 33 34 13
f 14 35 33
f 36 35 14
f 37 36 14
f 28 37 14
f 17 16 38
f 38 16 39
f 40 39 16
f 24 40 16
f 41 18 17
f 38 42 17
f 41 17 42
f 18 43 20
f 44 45 18
f 43 18 45
f 41 44 18
f 19 20 46
f 30 19 47
f 46 47 19
f 20 43 46
f 21 22 34
f 48 21 34
f 23 21 49
f 21 48 49
f 49 50 23
f 26 23 50
f 51 24 25
f 24 52 40
f 52 24 53
f 51 53 24
f 54 25 55
f 55 25 56
f 25 26 56
f 51 25 54
f 26 57 56
f 57 26 50
f 58 27 59
f 59 27 60
f 27 31 60
f 28 27 58
f 61 37 28
f 28 58 61
f 29 62 63
f 29 30 62
f 29 63 64
f 29 64 32
f 62 30 47
f 60 31 65
f 32 66 31
f 66 65 31
f 66 32 64
f 33 67 34
f 35 67 33
f 48 34 67
f 47 46 35
f 45 67 35
f 35 68 69
f 35 69 70
f 35 36 68
f 47 35 70
f 46 45 35
f 71 36 37
f 71 68 36
f 71 37 61
f 38 72 42
f 72 38 39
f 73 39 40
f 39 74 72
f 74 39 73
f 40 75 73
f 52 75 40
f 42 76 41
f 77 44 41
f 78 77 41
f 78 41 76
f 72 76 42
f 46 43 45
f 44 79 45
f 77 78 44
f 78 79 44
f 45 79 80
f 80 67 45
f 47 70 62
f 67 81 48
f 49 48 82
f 48 81 82
f 49 82 50
f 50 82 57
f 54 53 51
f 83 52 53
f 52 83 75
f 84 83 53
f 85 53 54
f 85 84 53
f 54 55 86
f 86 87 54
f 87 85 54
f 86 55 88
f 55 89 88
f 55 56 89
f 57 82 56
f 56 82 89
f 58 71 61
f 68 58 59
f 71 58 68
f 59 60 69
f 68 59 69
f 60 65 69
f 62 70 90
f 90 63 62
f 64 63 91
f 90 91 63
f 64 91 66
f 65 66 91
f 69 65 70
f 91 70 65
f 81 67 80
f 70 91 90
f 74 76 72
f 92 74 73
f 83 73 75
f 93 92 73
f 93 73 83
f 92 76 74
f 76 92 78
f 94 78 95
f 95 78 92
f 78 94 79
f 95 79 94
f 79 95 80
f 80 96 97
f 95 98 80
f 98 96 80
f 97 99 80
f 99 81 80
f 99 100 81
f 82 81 100
f 89 82 100
f 101 93 83
f 83 102 101
f 102 83 84
f 102 84 85
f 101 85 87
f 102 85 101
f 87 86 103
f 88 103 86
f 101 87 97
f 87 103 97
f 88 89 100
f 103 88 99
f 88 100 99
f 98 95 92
f 93 98 92
f 96 98 93
f 93 101 96
f 101 97 96
f 97 103 99
