# Generated by Visualization Toolkit
v 0.02777400054037571 -0.001601999974809587 0.03833400085568428
v 0.03300099819898605 -0.0027280000504106283 0.039698000997304916
v 0.029128000140190125 -0.0023139999248087406 0.03810099884867668
v 0.030403999611735344 -0.002455000067129731 0.04005900025367737
v 0.02811500057578087 -0.0014850000152364373 0.03732199966907501
v 0.027814999222755432 -0.0026489999145269394 0.04066000133752823
v 0.026398999616503716 -0.0018469999777153134 0.03869999945163727
v 0.027010999619960785 -0.0013849999522790313 0.037067998200654984
v 0.031567998230457306 -0.0036869999021291733 0.03751099854707718
v 0.03112499974668026 -0.004002999980002642 0.03736500069499016
v 0.03325200080871582 -0.0026209999341517687 0.038600001484155655
v 0.03276199847459793 -0.0028210000600665808 0.03801799938082695
v 0.03240799903869629 -0.003094000043347478 0.03777100145816803
v 0.033298999071121216 -0.002643000101670623 0.03924800083041191
v 0.03236899897456169 -0.0029949999880045652 0.041085999459028244
v 0.03289699926972389 -0.0032579998951405287 0.041540998965501785
v 0.029301999136805534 -0.003845999948680401 0.03695100173354149
v 0.02931700088083744 -0.003481999970972538 0.040716998279094696
v 0.027289999648928642 -0.0019450000254437327 0.03557499870657921
v 0.02741600014269352 -0.0015689999563619494 0.03606100007891655
v 0.027507999911904335 -0.0013099999632686377 0.03659199923276901
v 0.02741199918091297 -0.002974000060930848 0.035218000411987305
v 0.029051000252366066 -0.0045010000467300415 0.04064000025391579
v 0.026424000039696693 -0.003002000041306019 0.04132800176739693
v 0.028694000095129013 -0.005288999993354082 0.0403439998626709
v 0.02610900066792965 -0.0021559998858720064 0.039771001785993576
v 0.026409000158309937 -0.0032579998951405287 0.039434999227523804
v 0.0314520001411438 -0.004259000066667795 0.03793200105428696
v 0.033045001327991486 -0.003280000062659383 0.03810400143265724
v 0.02910899929702282 -0.004482999909669161 0.03715800121426582
v 0.029662000015378 -0.00506999995559454 0.04032300040125847
v 0.03286299854516983 -0.003659999929368496 0.041909001767635345
v 0.032485999166965485 -0.004188000224530697 0.04228900000452995
v 0.03093400038778782 -0.004395000170916319 0.04148700088262558
v 0.027483999729156494 -0.004542000126093626 0.035989999771118164
v 0.027509000152349472 -0.004155999980866909 0.03564000129699707
v 0.030348999425768852 -0.004683999810367823 0.04122599959373474
v 0.03045699931681156 -0.005078999791294336 0.040773000568151474
v 0.02595899999141693 -0.004846999887377024 0.040497999638319016
v 0.02712699957191944 -0.0058639999479055405 0.03971699997782707
v 0.026200000196695328 -0.005578000098466873 0.039462000131607056
v 0.03182100132107735 -0.004226000048220158 0.03977600112557411
v 0.032092999666929245 -0.0042489999905228615 0.04260500147938728
v 0.03102800063788891 -0.004939999897032976 0.0419900007545948
v 0.03079799935221672 -0.005200000014156103 0.041262999176979065
v 0.03147900104522705 -0.004854999948292971 0.04221099987626076
f 1 2 3
f 1 4 2
f 3 5 1
f 6 4 1
f 1 7 6
f 7 1 8
f 1 5 8
f 9 10 2
f 2 11 12
f 2 12 13
f 14 11 2
f 3 2 10
f 13 9 2
f 4 15 2
f 16 14 2
f 2 15 16
f 17 5 3
f 3 10 17
f 15 4 18
f 6 18 4
f 19 20 5
f 20 21 5
f 19 5 22
f 17 22 5
f 8 5 21
f 6 23 18
f 24 25 6
f 7 26 6
f 24 6 26
f 23 6 25
f 26 7 27
f 8 22 7
f 27 7 22
f 8 21 20
f 22 8 19
f 19 8 20
f 9 28 10
f 9 13 12
f 11 9 12
f 11 29 9
f 28 9 29
f 30 17 10
f 31 30 10
f 31 10 28
f 11 14 29
f 16 32 14
f 33 14 32
f 14 33 29
f 32 16 15
f 33 32 15
f 33 15 34
f 15 18 34
f 30 35 17
f 35 36 17
f 22 17 36
f 34 18 23
f 22 36 35
f 27 22 35
f 34 23 37
f 25 31 23
f 23 31 38
f 37 23 38
f 24 39 25
f 39 24 27
f 24 26 27
f 25 30 31
f 39 40 25
f 25 40 30
f 27 41 39
f 27 35 41
f 28 42 31
f 29 42 28
f 42 29 33
f 30 40 35
f 42 38 31
f 43 42 33
f 33 44 43
f 34 44 33
f 37 44 34
f 40 41 35
f 37 38 45
f 44 37 45
f 42 45 38
f 39 41 40
f 46 45 42
f 46 42 43
f 44 46 43
f 46 44 45
