# Generated by Visualization Toolkit
v 0.01824299991130829 -0.0025110000278800726 0.05174800008535385
v 0.019068000838160515 -0.0026110000908374786 0.0514490008354187
v 0.018866999074816704 -0.0024419999681413174 0.050453998148441315
v 0.016986999660730362 -0.002580000087618828 0.05167900025844574
v 0.018650000914931297 -0.002894999925047159 0.052111998200416565
v 0.017721999436616898 -0.0032709999941289425 0.049035001546144485
v 0.0166849996894598 -0.003722999943420291 0.04884999990463257
v 0.018874000757932663 -0.002882000058889389 0.04977799952030182
v 0.018636999651789665 -0.004011999815702438 0.05215900018811226
v 0.01892399974167347 -0.003507999936118722 0.052344001829624176
v 0.01497500017285347 -0.0017999999690800905 0.051454998552799225
v 0.016770999878644943 -0.003008000086992979 0.051881998777389526
v 0.01834999956190586 -0.0036230001132935286 0.052698999643325806
v 0.01779099926352501 -0.003973000217229128 0.05273900181055069
v 0.016975000500679016 -0.004461999982595444 0.05209299921989441
v 0.017305999994277954 -0.0037849999498575926 0.04875599965453148
v 0.014932000078260899 -0.0023759999312460423 0.04945199936628342
v 0.014809999614953995 -0.003381999908015132 0.04838600009679794
v 0.014684000052511692 -0.004071999806910753 0.04847300052642822
v 0.017224999144673347 -0.004044000059366226 0.04927400127053261
v 0.015073000453412533 -0.00520200002938509 0.05047899857163429
v 0.016961000859737396 -0.00430600019171834 0.050367001444101334
v 0.01699800044298172 -0.00521400012075901 0.051798999309539795
v 0.017805000767111778 -0.004081000108271837 0.05077100172638893
v 0.01828099973499775 -0.004296999890357256 0.052545998245477676
v 0.017566999420523643 -0.004767999984323978 0.05244800075888634
v 0.012928999960422516 -0.0005489999894052744 0.049428001046180725
v 0.014395000413060188 -0.0018479999853298068 0.051701001822948456
v 0.012954000383615494 -0.0012359999818727374 0.050985999405384064
v 0.014739999547600746 -0.004608000162988901 0.05180099979043007
v 0.014188000001013279 -0.00344299990683794 0.0521249994635582
v 0.016188999637961388 -0.004763000179082155 0.05190100148320198
v 0.016808999702334404 -0.004972000140696764 0.05220700055360794
v 0.012350999750196934 -0.0009340000106021762 0.04722699895501137
v 0.013736999593675137 -0.0031999999191612005 0.04761800169944763
v 0.013116000220179558 -0.004561999812722206 0.048312000930309296
v 0.012678000144660473 -0.006093999836593866 0.05130400136113167
v 0.015472999773919582 -0.005156999919563532 0.051309000700712204
v 0.016370000317692757 -0.004912999924272299 0.05112500116229057
v 0.012138999998569489 -0.0005879999953322113 0.04909899830818176
v 0.012420999817550182 -0.0004820000031031668 0.04845700040459633
v 0.012260000221431255 -0.002392000053077936 0.05282299965620041
v 0.011359999887645245 -0.0019480000482872128 0.05200999975204468
v 0.012562000192701817 -0.004825000185519457 0.052834998816251755
v 0.011688999831676483 -0.0032130000181496143 0.053383998572826385
v 0.012511000037193298 -0.001981999957934022 0.0466030016541481
v 0.012222999706864357 -0.0037249999586492777 0.04778800159692764
v 0.012299000285565853 -0.003495000069960952 0.048298001289367676
v 0.012536000460386276 -0.00381499994546175 0.04732299968600273
v 0.012269999831914902 -0.005876999814063311 0.05221199989318848
v 0.011688999831676483 -0.005708000157028437 0.05122999846935272
v 0.011819999665021896 -0.004662000108510256 0.049587998539209366
v 0.011494000442326069 -0.005375999957323074 0.05247500166296959
f 1 2 3
f 4 5 1
f 1 6 7
f 6 1 3
f 1 7 4
f 2 1 5
f 8 3 2
f 2 9 8
f 2 5 10
f 10 9 2
f 6 3 8
f 11 4 7
f 12 4 11
f 12 5 4
f 13 5 14
f 5 15 14
f 5 12 15
f 13 10 5
f 16 7 6
f 16 6 8
f 17 7 18
f 7 17 11
f 18 7 19
f 16 20 7
f 19 7 21
f 22 7 20
f 7 22 21
f 16 8 9
f 9 23 24
f 9 24 16
f 25 26 9
f 10 25 9
f 26 23 9
f 13 25 10
f 17 27 11
f 28 12 11
f 11 29 28
f 27 29 11
f 30 12 31
f 31 12 28
f 12 30 32
f 15 12 32
f 13 14 25
f 33 14 15
f 14 26 25
f 33 26 14
f 15 32 33
f 16 24 20
f 18 27 17
f 27 18 34
f 35 34 18
f 35 18 19
f 19 21 36
f 35 19 36
f 24 22 20
f 21 22 24
f 37 21 38
f 37 36 21
f 38 21 39
f 21 24 39
f 24 23 32
f 26 33 23
f 32 23 33
f 39 24 32
f 40 27 41
f 40 29 27
f 27 34 41
f 42 28 29
f 42 31 28
f 43 29 40
f 42 29 43
f 30 44 38
f 31 44 30
f 30 38 32
f 42 45 31
f 44 31 45
f 39 32 38
f 34 40 41
f 46 34 35
f 47 34 46
f 34 47 48
f 43 40 34
f 34 48 43
f 36 49 35
f 49 46 35
f 49 36 37
f 50 37 38
f 49 37 51
f 51 37 50
f 50 38 44
f 42 43 45
f 51 45 43
f 51 43 52
f 52 43 48
f 45 53 44
f 53 50 44
f 53 45 51
f 46 49 47
f 47 49 52
f 48 47 52
f 52 49 51
f 53 51 50
