# Generated by Visualization Toolkit
v 0.06586199998855591 -0.004236000124365091 -0.010052000172436237
v 0.06707199662923813 -0.00445199990645051 -0.010367999784648418
v 0.0657379999756813 -0.00304599991068244 -0.010777999646961689
v 0.06509800255298615 -0.0027020000852644444 -0.010484999977052212
v 0.0654359981417656 -0.004478999879211187 -0.00991700030863285
v 0.0648220032453537 -0.0029360000044107437 -0.00966500025242567
v 0.06525000184774399 -0.0039889998733997345 -0.009812000207602978
v 0.06812500208616257 -0.0034099998883903027 -0.01156499981880188
v 0.06881900131702423 -0.0037140001077204943 -0.010406999848783016
v 0.06492599844932556 -0.004929000046104193 -0.010084000416100025
v 0.06641700118780136 -0.00481700012460351 -0.010360999964177608
v 0.06842599809169769 -0.003988000098615885 -0.0102530000731349
v 0.06736300140619278 -0.004774000030010939 -0.01005600020289421
v 0.06818100064992905 -0.0043310001492500305 -0.009972999803721905
v 0.06470099836587906 -0.005371000152081251 -0.013314999639987946
v 0.06743799895048141 -0.004954000003635883 -0.010816000401973724
v 0.06726499646902084 -0.004782000090926886 -0.01267900038510561
v 0.06738399714231491 -0.0030350000597536564 -0.01242899987846613
v 0.06421999633312225 -0.0021979999728500843 -0.01090100035071373
v 0.06431099772453308 -0.0022330000065267086 -0.009425000287592411
v 0.06353999674320221 -0.00419900007545948 -0.00865000020712614
v 0.06940300017595291 -0.00344299990683794 -0.010859999805688858
v 0.06947900354862213 -0.0033919999841600657 -0.012356000021100044
v 0.06294699758291245 -0.005212999880313873 -0.009757000021636486
v 0.0692249983549118 -0.0040699997916817665 -0.010666999965906143
v 0.06251800060272217 -0.005634000059217215 -0.01345600001513958
v 0.06287900358438492 -0.0052109998650848866 -0.014305000193417072
v 0.06624600291252136 -0.005224000196903944 -0.013926999643445015
v 0.06559400260448456 -0.005158999934792519 -0.01368200033903122
v 0.06376100331544876 -0.004908999893814325 -0.014089999720454216
v 0.06485600024461746 -0.004315000027418137 -0.01388499978929758
v 0.06790599972009659 -0.004310999996960163 -0.015304000116884708
v 0.06650099903345108 -0.004927000030875206 -0.014387999661266804
v 0.06557399779558182 -0.003244000021368265 -0.013384999707341194
v 0.06347399950027466 -0.0028540000785142183 -0.013945999555289745
v 0.0687830001115799 -0.003622000105679035 -0.014533000066876411
v 0.06807000190019608 -0.003898999886587262 -0.01500799972563982
v 0.06906100362539291 -0.003473999910056591 -0.013961000367999077
v 0.062470998615026474 -0.0023769999388605356 -0.012742999941110611
v 0.06260199844837189 -0.002334000077098608 -0.011531000025570393
v 0.06374700367450714 -0.0022440000902861357 -0.009166000410914421
v 0.06365600228309631 -0.0028460000175982714 -0.008526000194251537
v 0.06328299641609192 -0.003490000031888485 -0.008702999912202358
v 0.0628800019621849 -0.004650999791920185 -0.009324000217020512
v 0.0693809986114502 -0.0036899999249726534 -0.013106999918818474
v 0.06236400082707405 -0.0054779998026788235 -0.011401999741792679
v 0.06877599656581879 -0.004151000175625086 -0.014341999776661396
v 0.06212199851870537 -0.005073000211268663 -0.013787999749183655
v 0.06218000128865242 -0.00545400008559227 -0.01285799965262413
v 0.06284199655056 -0.0035780000034719706 -0.014758000150322914
v 0.06224299967288971 -0.004277000203728676 -0.014558999799191952
v 0.06692799925804138 -0.005148999858647585 -0.014686999842524529
v 0.0626859962940216 -0.0029249999206513166 -0.014289000071585178
v 0.062192998826503754 -0.005229000002145767 -0.011823000386357307
f 1 2 3
f 3 4 1
f 1 5 2
f 4 6 1
f 1 6 7
f 1 7 5
f 2 8 3
f 2 9 8
f 2 10 11
f 10 2 5
f 12 9 2
f 2 13 14
f 2 14 12
f 11 10 2
f 15 2 10
f 16 13 2
f 16 2 17
f 2 15 17
f 18 3 8
f 3 18 19
f 19 4 3
f 20 6 4
f 19 20 4
f 21 5 7
f 10 5 21
f 20 7 6
f 7 20 21
f 8 22 23
f 8 9 22
f 8 23 18
f 9 12 14
f 14 22 9
f 10 24 15
f 21 24 10
f 13 25 14
f 16 25 13
f 14 25 22
f 26 27 15
f 26 15 24
f 28 15 29
f 28 17 15
f 15 30 31
f 30 15 27
f 31 29 15
f 25 16 17
f 25 17 32
f 32 17 33
f 33 17 28
f 34 18 33
f 35 19 18
f 18 34 35
f 18 36 37
f 18 38 36
f 38 18 23
f 33 18 37
f 35 39 19
f 19 39 40
f 20 19 40
f 20 41 42
f 21 20 42
f 40 41 20
f 43 21 42
f 21 44 24
f 21 43 44
f 45 23 22
f 25 45 22
f 38 23 45
f 44 46 24
f 46 26 24
f 47 45 25
f 47 25 32
f 48 27 26
f 46 49 26
f 49 48 26
f 50 30 27
f 50 27 51
f 48 51 27
f 28 29 33
f 29 31 33
f 30 50 35
f 30 35 31
f 34 33 31
f 34 31 35
f 32 33 37
f 33 52 32
f 33 32 52
f 37 47 32
f 39 35 53
f 35 50 53
f 47 37 36
f 36 38 45
f 47 36 45
f 40 39 53
f 42 40 43
f 42 41 40
f 44 40 53
f 44 43 40
f 48 44 53
f 46 44 54
f 44 48 54
f 54 49 46
f 51 48 53
f 49 54 48
f 51 53 50
