# Generated by Visualization Toolkit
v 0.04911800101399422 -0.002974000060930848 0.024945000186562538
v 0.05052899941802025 -0.0028699999675154686 0.025265000760555267
v 0.05018699914216995 -0.0030380000825971365 0.024057000875473022
v 0.04421500116586685 -0.001505000051110983 0.024602999910712242
v 0.04636000096797943 -0.003028000006452203 0.023871000856161118
v 0.04959600046277046 -0.0033279999624937773 0.023661000654101372
v 0.04827599972486496 -0.004184000194072723 0.023763999342918396
v 0.048555999994277954 -0.0025369999930262566 0.025947999209165573
v 0.04770699888467789 -0.0042849997989833355 0.023653000593185425
v 0.05065400153398514 -0.003154000034555793 0.025679999962449074
v 0.05065099895000458 -0.0028909998945891857 0.02636300027370453
v 0.04772699996829033 -0.002294000005349517 0.02625199966132641
v 0.04334000125527382 -0.001706999959424138 0.024700000882148743
v 0.04460899904370308 -0.0021069999784231186 0.027885999530553818
v 0.043563999235630035 -0.0017659999430179596 0.023233000189065933
v 0.044307999312877655 -0.0015790000325068831 0.02238599956035614
v 0.04557900130748749 -0.003470999887213111 0.022935999557375908
v 0.04605099931359291 -0.004246000200510025 0.023256000131368637
v 0.048340000212192535 -0.004648000001907349 0.024166999384760857
v 0.04870999976992607 -0.0034630000591278076 0.02800700068473816
v 0.050209999084472656 -0.003160000080242753 0.028857000172138214
v 0.045527998358011246 -0.004765000194311142 0.023420000448822975
v 0.04665900021791458 -0.004825000185519457 0.023925000801682472
v 0.04370399937033653 -0.005646999925374985 0.02586599998176098
v 0.04818499833345413 -0.004523000214248896 0.02580299973487854
v 0.05049100145697594 -0.0035429999697953463 0.02849699929356575
v 0.04628400132060051 -0.0028860000893473625 0.027660999447107315
v 0.043501000851392746 -0.0022529999259859324 0.028578000143170357
v 0.043487999588251114 -0.0033370000310242176 0.029600000008940697
v 0.04296199977397919 -0.004953000228852034 0.028005000203847885
v 0.043170999735593796 -0.005018000025302172 0.02394000068306923
v 0.043028999119997025 -0.005185999907553196 0.024932000786066055
v 0.044863998889923096 -0.0031429999507963657 0.028512999415397644
v 0.04394400119781494 -0.002368000103160739 0.021172000095248222
v 0.043887000530958176 -0.003519000019878149 0.0208320003002882
v 0.04496600106358528 -0.004344000015407801 0.022538000717759132
v 0.04726700112223625 -0.003731000004336238 0.02808300033211708
v 0.049922000616788864 -0.0037070000544190407 0.0297279991209507
v 0.04761099815368652 -0.004435000009834766 0.028529999777674675
v 0.0493599995970726 -0.004085000138729811 0.029841000214219093
v 0.04817499965429306 -0.004608000162988901 0.029224999248981476
v 0.04333699867129326 -0.004885000176727772 0.022513000294566154
v 0.04567699879407883 -0.005274999886751175 0.027424000203609467
v 0.04301200062036514 -0.005384999793022871 0.025828000158071518
v 0.043115001171827316 -0.005413999781012535 0.027876999229192734
v 0.04398500174283981 -0.005495999939739704 0.028471000492572784
v 0.04804300144314766 -0.004989999812096357 0.02863200008869171
v 0.04721200093626976 -0.004714000038802624 0.028230000287294388
v 0.04625000059604645 -0.0051020001992583275 0.027765000239014626
v 0.04881399869918823 -0.004550000187009573 0.02962999977171421
v 0.045607998967170715 -0.003855000017210841 0.02814199961721897
v 0.04324299842119217 -0.004139999859035015 0.02938699908554554
v 0.04327600076794624 -0.004602999892085791 0.02917099930346012
v 0.04291500151157379 -0.005262000020593405 0.0263420008122921
v 0.043372999876737595 -0.004162999801337719 0.021508999168872833
v 0.04347100108861923 -0.003710000077262521 0.021152999252080917
v 0.046633001416921616 -0.004408000037074089 0.02817700058221817
v 0.0457490012049675 -0.004606000147759914 0.028005000203847885
f 1 2 3
f 4 1 5
f 1 6 7
f 4 8 1
f 5 1 9
f 7 9 1
f 3 6 1
f 1 8 2
f 2 10 3
f 8 11 2
f 11 10 2
f 6 3 7
f 7 3 10
f 12 8 4
f 4 13 14
f 14 12 4
f 13 4 15
f 4 16 15
f 5 16 4
f 17 16 5
f 5 18 17
f 9 18 5
f 9 7 19
f 19 7 10
f 20 8 12
f 21 8 20
f 21 11 8
f 18 9 22
f 23 22 9
f 23 9 24
f 25 9 19
f 24 9 25
f 26 10 11
f 10 25 19
f 10 26 25
f 21 26 11
f 20 12 27
f 14 27 12
f 28 14 13
f 29 28 13
f 13 30 29
f 13 15 31
f 30 13 32
f 13 31 32
f 33 27 14
f 29 33 14
f 28 29 14
f 34 15 16
f 15 34 31
f 16 17 34
f 17 35 34
f 35 17 36
f 17 18 36
f 36 18 22
f 27 37 20
f 21 20 38
f 20 37 39
f 20 40 38
f 41 40 20
f 41 20 39
f 38 26 21
f 36 22 42
f 22 23 24
f 22 24 42
f 24 25 43
f 24 31 42
f 31 24 44
f 45 44 24
f 46 45 24
f 46 24 43
f 26 47 25
f 48 49 25
f 49 43 25
f 25 47 48
f 50 47 26
f 50 26 40
f 38 40 26
f 51 37 27
f 51 27 33
f 30 52 29
f 53 33 29
f 52 53 29
f 52 30 53
f 30 45 53
f 30 54 45
f 32 54 30
f 55 42 31
f 55 31 56
f 31 34 56
f 32 31 44
f 54 32 44
f 51 33 53
f 34 35 56
f 35 55 56
f 35 36 55
f 55 36 42
f 39 37 57
f 51 57 37
f 48 39 57
f 47 39 48
f 47 41 39
f 40 41 50
f 50 41 47
f 43 49 58
f 58 53 43
f 46 43 53
f 44 45 54
f 53 45 46
f 57 58 48
f 49 48 58
f 51 53 58
f 57 51 58
