# Generated by Visualization Toolkit
v -0.0024850000627338886 0.016258999705314636 -0.0157919991761446
v 0.0022670000325888395 0.00773700000718236 -0.020323000848293304
v -0.008352999575436115 0.013257999904453754 -0.017409000545740128
v 0.0050130002200603485 0.016178999096155167 -0.015421000309288502
v -0.0019379999721422791 0.018884999677538872 -0.012364000082015991
v 0.010107000358402729 0.016044000163674355 -0.012060999870300293
v -0.011733000166714191 0.006252999883145094 -0.019245000556111336
v -0.008748999796807766 -0.0021379999816417694 -0.021889999508857727
v 0.000009999999747378752 -0.006513000000268221 -0.022549999877810478
v 0.008418000303208828 -0.0008040000102482736 -0.022012000903487206
v 0.012834999710321426 0.004267000127583742 -0.01787099987268448
v 0.011157999746501446 0.012517999857664108 -0.015340999700129032
v -0.008158000186085701 0.016468999907374382 -0.01368200033903122
v -0.014096999540925026 0.010305999778211117 -0.015534999780356884
v 0.01648399978876114 0.010525000281631947 -0.011626999825239182
v -0.002308000111952424 0.02130500040948391 -0.006500000134110451
v 0.006930000148713589 0.019752999767661095 -0.006998000200837851
v 0.014310000464320183 0.016140999272465706 -0.006252999883145094
v -0.015399999916553497 0.0016540000215172768 -0.01796099916100502
v -0.010470000095665455 -0.005477000027894974 -0.02026900090277195
v -0.0001610000035725534 -0.00949000008404255 -0.021591000258922577
v 0.008716999553143978 -0.006668000016361475 -0.021170999854803085
v 0.014469999819993973 -0.0029959999956190586 -0.01806800067424774
v 0.0173179991543293 0.0020550000481307507 -0.015207000076770782
v -0.009430999867618084 0.01915000006556511 -0.007912999950349331
v -0.01553099974989891 0.013876000419259071 -0.009879999794065952
v -0.018797999247908592 0.0056409998796880245 -0.01295899972319603
v 0.019750000908970833 0.009812000207602978 -0.0054790000431239605
v -0.0031419999431818724 0.02233099937438965 -0.0007859999896027148
v 0.002942000050097704 0.022216999903321266 0.00036700000055134296
v 0.00951400026679039 0.020136000588536263 0.000859999970998615
v 0.016752000898122787 0.015301999635994434 0.001297999988310039
v -0.016558000817894936 -0.004468999803066254 -0.01648700051009655
v -0.00949500035494566 -0.010572000406682491 -0.019026000052690506
v 0.0007880000048317015 -0.012374999932944775 -0.02017899975180626
v 0.009864999912679195 -0.010466000065207481 -0.018919000402092934
v 0.017218999564647675 -0.0057760002091526985 -0.014684000052511692
v 0.02171199955046177 0.0014809999847784638 -0.008410999551415443
v -0.010106000117957592 0.020214999094605446 -0.0021730000153183937
v -0.016733000054955482 0.015443000011146069 -0.004040999803692102
v -0.02137099951505661 0.006566999945789576 -0.0072189997881650925
v -0.020732000470161438 -0.002328000031411648 -0.011200999841094017
v 0.02318600006401539 -0.00030700000934302807 -0.005229999776929617
v 0.021278999745845795 0.009285000152885914 0.00027200000477023423
v -0.01154400035738945 0.01953200064599514 0.004240000154823065
v -0.004898999817669392 0.021668000146746635 0.004889999981969595
v 0.001572999986819923 0.02175699919462204 0.006411000154912472
v 0.00786999985575676 0.01997300051152706 0.0077680000104010105
v 0.016054000705480576 0.013590999878942966 0.009178999811410904
v -0.015422999858856201 -0.010162999853491783 -0.014790000393986702
v -0.007474000100046396 -0.014194999821484089 -0.01715799979865551
v 0.0022909999825060368 -0.01634800061583519 -0.017069999128580093
v 0.013028999790549278 -0.012810000218451023 -0.0147299999371171
v 0.019411999732255936 -0.008592000231146812 -0.010444999672472477
v -0.01767200045287609 0.014790000393986702 0.002345999935641885
v -0.022373000159859657 0.0064940000884234905 -0.0013879999751225114
v -0.022460000589489937 -0.003854000009596348 -0.00559900002554059
v -0.0173140000551939 -0.0118410000577569 -0.01058799959719181
v 0.023141000419855118 -0.004234999883919954 0.001016999944113195
v 0.02105800062417984 0.005807000212371349 0.007548000197857618
v -0.013445000164210796 0.01671000011265278 0.008832000195980072
v -0.019912999123334885 0.011075999587774277 0.005111000034958124
v -0.00597199983894825 0.01943800039589405 0.010707000270485878
v 0.001979999942705035 0.018851999193429947 0.012901999987661839
v 0.009327000007033348 0.015115000307559967 0.014813999645411968
v 0.014705999754369259 0.009681000374257565 0.015468999743461609
v -0.008936000056564808 -0.01603800058364868 -0.014580000191926956
v 0.002107999986037612 -0.018233999609947205 -0.015042999759316444
v 0.013392999768257141 -0.0156870000064373 -0.011029999703168869
v 0.020966000854969025 -0.010111999697983265 -0.005375000182539225
v -0.023300999775528908 0.001183000043965876 0.0016270000487565994
v -0.02188199944794178 -0.007930000312626362 -0.0030499999411404133
v -0.015667999163269997 -0.014510000124573708 -0.01100900024175644
v -0.006173999980092049 -0.017913000658154488 -0.013795999810099602
v 0.020997000858187675 -0.004770999774336815 0.009480999782681465
v 0.01919800043106079 0.0019150000298395753 0.013644999824464321
v -0.006442999932914972 0.016767999157309532 0.014818999916315079
v -0.013327999971807003 0.014667999930679798 0.012640999630093575
v -0.019447000697255135 0.008810999803245068 0.009583000093698502
v -0.00048099999548867345 0.015533999539911747 0.017741000279784203
v 0.004317000042647123 0.013489999808371067 0.018907999619841576
v 0.008702999912202358 0.008310999721288681 0.02005000039935112
v 0.01409200020134449 -0.0003260000084992498 0.01903199963271618
v 0.005619000177830458 -0.019266000017523766 -0.012330999597907066
v 0.014739000238478184 -0.017319999635219574 -0.004273000173270702
v 0.01999099925160408 -0.01242200005799532 0.0022539999336004257
v -0.02324499934911728 0.0006189999985508621 0.005996000021696091
v -0.022616000846028328 -0.006988000124692917 0.001382000045850873
v -0.01637200079858303 -0.014128999784588814 -0.004683999810367823
v -0.007745000068098307 -0.017629999667406082 -0.008860000409185886
v 0.017246000468730927 -0.015463000163435936 0.005797000136226416
v 0.01700199954211712 -0.007284000050276518 0.014689999632537365
v -0.014142000116407871 0.010676000267267227 0.015527999959886074
v -0.006852999795228243 0.012156999669969082 0.018588999286293983
v -0.01871900074183941 0.003918000031262636 0.012125000357627869
v -0.020368000492453575 -0.0037589999847114086 0.009983000345528126
v -0.0006510000093840063 0.009952000342309475 0.02151999995112419
v 0.005654000211507082 0.005692000035196543 0.022053999826312065
v 0.008514000102877617 -0.0017389999702572823 0.022060999646782875
v 0.01167299970984459 -0.009217999875545502 0.018046999350190163
v 0.0006179999909363687 -0.019771000370383263 -0.008724000304937363
v 0.006686000153422356 -0.020452000200748444 -0.006603999994695187
v 0.013604000210762024 -0.01865999959409237 -0.0005949999904260039
v -0.017821000888943672 -0.012360000051558018 0.002455000067129731
v -0.01066100038588047 -0.016630999743938446 -0.001888000057078898
v -0.0032399999909102917 -0.0191430002450943 -0.0029670000076293945
v 0.012267000041902065 -0.015560000203549862 0.012292000465095043
v -0.013257999904453754 -0.001420999993570149 0.016466999426484108
v -0.006525999866425991 0.003737000050023198 0.0181099995970726
v -0.01724099926650524 -0.009529000148177147 0.013278000056743622
v -0.015091000124812126 -0.016821999102830887 0.007395999971777201
v -0.0009629999985918403 0.0014299999456852674 0.020986000075936317
v 0.0051910001784563065 -0.0020649998914450407 0.023396000266075134
v 0.008209999650716782 -0.00928799994289875 0.02087000012397766
v 0.003401000052690506 -0.019520999863743782 -0.0010470000561326742
v 0.009445000439882278 -0.018800999969244003 0.004230999853461981
v -0.009402000345289707 -0.020721999928355217 0.004147999919950962
v -0.00024300000222865492 -0.021796999499201775 0.005431000143289566
v 0.008817000314593315 -0.015096999704837799 0.016013000160455704
v -0.012343999929726124 -0.0074339997954666615 0.025265999138355255
v -0.016791999340057373 -0.015301000326871872 0.021105000749230385
v -0.004982000216841698 -0.0031530000269412994 0.027602000162005424
v -0.015738999471068382 -0.021299000829458237 0.014937999658286572
v -0.013535000383853912 -0.027329999953508377 0.011625999584794044
v 0.0019839999731630087 -0.006428999826312065 0.030073000118136406
v 0.005032999906688929 -0.014066999778151512 0.02960900031030178
v 0.004745000042021275 -0.021320000290870667 0.02710600011050701
v 0.007000000216066837 -0.0194729994982481 0.010572999715805054
v -0.00843099970370531 -0.0301510002464056 0.009984999895095825
v -0.0014140000566840172 -0.030849000439047813 0.013004000298678875
v 0.003590000094845891 -0.028037000447511673 0.022022999823093414
v -0.007116000168025494 -0.0039029999170452356 0.03403500095009804
v -0.013007000088691711 -0.008965999819338322 0.03010999970138073
v -0.016950000077486038 -0.017191000282764435 0.02560799941420555
v -0.01787400059401989 -0.02518399991095066 0.02155900001525879
v -0.0011840000515803695 -0.006004000082612038 0.037300001829862595
v -0.01613200083374977 -0.03330099955201149 0.014557000249624252
v -0.013512999750673771 -0.035735998302698135 0.011876000091433525
v 0.0037430000957101583 -0.010371999815106392 0.03821999952197075
v 0.006122000049799681 -0.016496999189257622 0.03822600096464157
v 0.0024709999561309814 -0.03205899894237518 0.030705999583005905
v 0.0036440000403672457 -0.022498000413179398 0.035590000450611115
v -0.0036899999249726534 -0.03903599828481674 0.015653999522328377
v 0.002085000043734908 -0.03796900063753128 0.021988999098539352
v -0.007984999567270279 -0.0026179999113082886 0.04055200144648552
v -0.002429000101983547 -0.004000999964773655 0.04282600060105324
v -0.015659000724554062 -0.007174000144004822 0.03728500008583069
v -0.017490999773144722 -0.015230000019073486 0.036997999995946884
v -0.019361000508069992 -0.023763999342918396 0.03146800026297569
v -0.020721999928355217 -0.0331839993596077 0.023048000410199165
v 0.0019130000146105886 -0.007581000216305256 0.04501299932599068
v -0.01887200027704239 -0.0402039997279644 0.017520999535918236
v -0.016847999766469002 -0.04456600174307823 0.012662000022828579
v 0.0030700000934302807 -0.012640000320971012 0.04592999815940857
v 0.00056900002527982 -0.028498999774456024 0.03895900025963783
v 0.001373999984934926 -0.0194690003991127 0.043887000530958176
v 0.0009889999637380242 -0.04542500153183937 0.023072000592947006
v 0.0012740000383928418 -0.037578001618385315 0.03213199973106384
v -0.007933000102639198 -0.046195000410079956 0.016363000497221947
v -0.01142599992454052 -0.0007229999755509198 0.04537799954414368
v -0.005572000052779913 -0.0009749999735504389 0.049710001796483994
v -0.0017000000225380063 -0.007205999922007322 0.051339998841285706
v -0.023432999849319458 -0.0018579999450594187 0.03478600084781647
v -0.024873999878764153 -0.011090000160038471 0.03880300000309944
v -0.0257789995521307 -0.020495999604463577 0.037376999855041504
v -0.027161000296473503 -0.027566000819206238 0.0313589982688427
v -0.025479000061750412 -0.0353039987385273 0.027566000819206238
v -0.001145999995060265 -0.016672000288963318 0.050909001380205154
v -0.022926000878214836 -0.04327499866485596 0.02091200090944767
v -0.021497000008821487 -0.04764999821782112 0.01618099957704544
v -0.01953599974513054 -0.05050700157880783 0.009914999827742577
v -0.0019809999503195286 -0.033257000148296356 0.044266000390052795
v -0.0025309999473392963 -0.02608099952340126 0.047954000532627106
v 0.001424000016413629 -0.04758099839091301 0.03298500180244446
v -0.000446999998530373 -0.04027099907398224 0.038440000265836716
v -0.01432500034570694 -0.05251000076532364 0.015286000445485115
v -0.00343999988399446 -0.053633999079465866 0.02085299976170063
v 0.002122000092640519 -0.051316000521183014 0.026468999683856964
v -0.01159099955111742 0.0002390000008745119 0.049970999360084534
v -0.004738999996334314 -0.009025000035762787 0.05448399856686592
v -0.0035800000187009573 -0.019133999943733215 0.053367000073194504
v -0.0236200001090765 0.0013340000296011567 0.03688099980354309
v -0.030479000881314278 -0.0024250000715255737 0.031672000885009766
v -0.03235999867320061 -0.016637999564409256 0.034890998154878616
v -0.032540999352931976 -0.027432000264525414 0.03223999962210655
v -0.030796999111771584 -0.03774699941277504 0.030534999445080757
v -0.02809000015258789 -0.045295000076293945 0.023459000512957573
v -0.004648000001907349 -0.03663500025868416 0.04892199859023094
v -0.003984000068157911 -0.028974000364542007 0.053373001515865326
v -0.028186999261379242 -0.05033399909734726 0.013585999608039856
v -0.02504199929535389 -0.053679998964071274 0.008329000324010849
v -0.019334999844431877 -0.05588800087571144 0.00940100010484457
v 0.0021559998858720064 -0.05387699976563454 0.031957998871803284
v -0.00014000000373926014 -0.04997200146317482 0.038798000663518906
v -0.0026459998916834593 -0.04343000054359436 0.04467500001192093
v 0.0021089999936521053 -0.05666099861264229 0.02574699930846691
v -0.016133999451994896 -0.05709100142121315 0.015675000846385956
v -0.009042000398039818 -0.0581509992480278 0.019710000604391098
v -0.0032049999572336674 -0.05862699821591377 0.021477999165654182
v -0.015166999772191048 -0.001661999966017902 0.05352599918842316
v -0.026388999074697495 0.000910000002477318 0.04306900128722191
v -0.01070799957960844 -0.010851000435650349 0.057218000292778015
v -0.008875000290572643 -0.020097000524401665 0.05854300037026405
v -0.034060999751091 -0.0013129999861121178 0.035544998943805695
v -0.036017999053001404 -0.017568999901413918 0.036802999675273895
v -0.036938998848199844 -0.026979999616742134 0.037029001861810684
v -0.03556700050830841 -0.036396998912096024 0.03696899861097336
v -0.02867799997329712 -0.047363001853227615 0.031116999685764313
v -0.030119000002741814 -0.05381200090050697 0.01679600030183792
v -0.008725999854505062 -0.03810799866914749 0.053769998252391815
v -0.007360000163316727 -0.03023499995470047 0.058451998978853226
v -0.026957999914884567 -0.05700799822807312 0.010057000443339348
v -0.020556999370455742 -0.05963300168514252 0.010487000457942486
v -0.015957999974489212 -0.061216000467538834 0.018146999180316925
v 0.0029239999130368233 -0.059957001358270645 0.03386799991130829
v -0.0007670000195503235 -0.05451299995183945 0.04274500161409378
v -0.006312999874353409 -0.048836998641490936 0.04894699901342392
v 0.0036849998869001865 -0.06276500225067139 0.027736999094486237
v -0.008756999857723713 -0.06382200121879578 0.020502999424934387
v -0.0008989999769255519 -0.0644180029630661 0.02243500016629696
v -0.01820800080895424 -0.006175000220537186 0.05538500100374222
v -0.031238999217748642 -0.0038900000508874655 0.048468999564647675
v -0.03546899929642677 -0.007486999966204166 0.04188799858093262
v -0.01372699998319149 -0.01826000027358532 0.06196900084614754
v -0.03641200065612793 -0.015588999725878239 0.04323200136423111
v -0.036056999117136 -0.02645700052380562 0.04511899873614311
v -0.03383399918675423 -0.03511799871921539 0.04494199901819229
v -0.029489999637007713 -0.051899999380111694 0.03929800167679787
v -0.025522999465465546 -0.05894999951124191 0.028030000627040863
v -0.0241480004042387 -0.06204099953174591 0.03556400164961815
v -0.02925099991261959 -0.0606129989027977 0.017851000651717186
v -0.013465999625623226 -0.03958899900317192 0.055445000529289246
v -0.011037999764084816 -0.029541999101638794 0.06191699951887131
v -0.025443000718951225 -0.062217000871896744 0.011927999556064606
v -0.016938000917434692 -0.0661650002002716 0.02055799961090088
v 0.003558000084012747 -0.06723999977111816 0.03763199970126152
v 0.004375999793410301 -0.06923499703407288 0.02768399938941002
v -0.0018749999580904841 -0.0655440017580986 0.04524099826812744
v -0.011371999979019165 -0.047986000776290894 0.053040001541376114
v -0.0060270000249147415 -0.06442099809646606 0.04975000023841858
v -0.0021540001034736633 -0.07034900039434433 0.022213999181985855
v -0.010522999800741673 -0.06883800029754639 0.021205000579357147
v -0.02026199921965599 -0.019043000414967537 0.06074799969792366
v -0.02910500019788742 -0.01745700091123581 0.05643700063228607
v -0.03326199948787689 -0.019471999257802963 0.051210999488830566
v -0.018167000263929367 -0.03242500126361847 0.06031600013375282
v -0.03192000091075897 -0.028845999389886856 0.052584998309612274
v -0.024390999227762222 -0.06328599900007248 0.04310600087046623
v -0.026537999510765076 -0.0551609992980957 0.04609699919819832
v -0.029180999845266342 -0.04193999990820885 0.04937500134110451
v -0.0225249994546175 -0.0661730021238327 0.025092000141739845
v -0.020075999200344086 -0.07336299866437912 0.0370200015604496
v -0.019857000559568405 -0.04303500056266785 0.05385600030422211
v 0.007852000184357166 -0.08342500030994415 0.03565699979662895
v 0.007774000056087971 -0.08341500163078308 0.028230000287294388
v 0.0016700000269338489 -0.08460099995136261 0.02317499928176403
v -0.018055999651551247 -0.05319900065660477 0.05149200186133385
v -0.012102000415325165 -0.06537599861621857 0.051444001495838165
v -0.0002640000020619482 -0.08337999880313873 0.04573599994182587
v -0.007277000229805708 -0.08526699990034103 0.02397100068628788
v -0.0104179996997118 -0.07651600241661072 0.023951999843120575
v -0.02547300048172474 -0.03152700141072273 0.05777199938893318
v -0.019742000848054886 -0.06444799900054932 0.04828599840402603
v -0.013513999991118908 -0.08848000317811966 0.03160199895501137
v -0.014592999592423439 -0.08631599694490433 0.04646800085902214
v 0.010394999757409096 -0.11475100368261337 0.04228699952363968
v 0.01355700008571148 -0.10731799900531769 0.03051000088453293
v 0.007304000202566385 -0.11299999803304672 0.02112000063061714
v -0.008417000062763691 -0.0854640007019043 0.05057299882173538
v -0.0019749999046325684 -0.11553899943828583 0.04859999939799309
v -0.00587099976837635 -0.11480999737977982 0.028131000697612762
v -0.00790799967944622 -0.11705099791288376 0.04513699933886528
v 0.016287999227643013 -0.14573800563812256 0.04221300035715103
v 0.021585000678896904 -0.14327900111675262 0.03098900057375431
v 0.013412999920547009 -0.14348100125789642 0.01802399940788746
v 0.002220999915152788 -0.1466049998998642 0.024984000250697136
v 0.006723000202327967 -0.14782999455928802 0.044936999678611755
v -0.000052999999752501026 -0.1490900069475174 0.0392020009458065
v 0.022357000038027763 -0.1783369928598404 0.03975199908018112
v 0.026763999834656715 -0.1754480004310608 0.029277000576257706
v 0.018744999542832375 -0.1750819981098175 0.016061000525951385
v 0.007044000085443258 -0.17514899373054504 0.022582000121474266
v 0.005727999843657017 -0.1775519996881485 0.0344339981675148
v 0.011849000118672848 -0.1769140064716339 0.041937001049518585
v 0.025319000706076622 -0.20628899335861206 0.036958999931812286
v 0.029397999867796898 -0.20431199669837952 0.02290700003504753
v 0.01872600056231022 -0.20450399816036224 0.014051999896764755
v 0.010332999750971794 -0.2067749947309494 0.0198730006814003
v 0.00950200017541647 -0.20807400345802307 0.03153400123119354
v 0.015472999773919582 -0.20793500542640686 0.038651999086141586
v 0.02884499914944172 -0.24163800477981567 0.032492998987436295
v 0.03209700062870979 -0.2398110032081604 0.019745999947190285
v 0.022525999695062637 -0.23884199559688568 0.010250999592244625
v 0.012783999554812908 -0.2393220067024231 0.015362000092864037
v 0.011707999743521214 -0.24239499866962433 0.027187999337911606
v 0.019081000238656998 -0.24252699315547943 0.03471500054001808
v 0.031171999871730804 -0.27450698614120483 0.027139000594615936
v 0.03393099829554558 -0.27285999059677124 0.016310999169945717
v 0.024257000535726547 -0.2707050144672394 0.006213000044226646
v 0.013303999789059162 -0.2724260091781616 0.0116779999807477
v 0.012870999984443188 -0.2750299870967865 0.024870000779628754
v 0.020614000037312508 -0.27634501457214355 0.030348999425768852
v 0.02090200036764145 -0.3070099949836731 0.026991000398993492
v 0.028519000858068466 -0.30666598677635193 0.025290999561548233
v 0.03340600058436394 -0.30500298738479614 0.010979999788105488
v 0.026736000552773476 -0.3036389946937561 0.0017979999538511038
v 0.017224999144673347 -0.30351701378822327 0.004273000173270702
v 0.011122000403702259 -0.3048279881477356 0.012866999953985214
v 0.013097000308334827 -0.30687400698661804 0.023603999987244606
v 0.01897200010716915 -0.34011900424957275 0.024427000433206558
v 0.02980099990963936 -0.34045299887657166 0.0219579990953207
v 0.0330360010266304 -0.3411259949207306 0.007879000157117844
v 0.025036999955773354 -0.33838000893592834 -0.0040779998525977135
v 0.015455000102519989 -0.33699798583984375 -0.0015030000358819962
v 0.010595999658107758 -0.33775100111961365 0.008555999957025051
v 0.01003200002014637 -0.339150995016098 0.020232999697327614
v 0.016284000128507614 -0.3670090138912201 0.024251999333500862
v 0.03051299974322319 -0.3698520064353943 0.0185759998857975
v 0.029980000108480453 -0.368149995803833 0.0022819999139755964
v 0.025348000228405 -0.365105003118515 -0.008218999952077866
v 0.014550999738276005 -0.36232998967170715 -0.010076000355184078
v 0.008472999557852745 -0.36751899123191833 0.006192999891936779
v 0.007021999917924404 -0.36664000153541565 0.02048799954354763
v 0.0026549999602138996 -0.37998101115226746 0.023009000346064568
v 0.015522999688982964 -0.38139399886131287 0.025616999715566635
v 0.029924999922513962 -0.3863910138607025 0.020785000175237656
v 0.02954700030386448 -0.38476601243019104 -0.000446999998530373
v 0.022029999643564224 -0.3778809905052185 -0.013767999596893787
v 0.012114999815821648 -0.3752659857273102 -0.018195999786257744
v 0.008116000331938267 -0.37788400053977966 -0.009247000329196453
v 0.006616000086069107 -0.38067400455474854 0.0032659999560564756
v -0.002896999940276146 -0.3869769871234894 0.028551999479532242
v 0.011979999952018261 -0.3941589891910553 0.03141999989748001
v -0.00045399999362416565 -0.3869819939136505 0.01448800042271614
v 0.022958999499678612 -0.39725300669670105 0.028605999425053596
v 0.03530599921941757 -0.3970719873905182 0.021105000749230385
v 0.03296799957752228 -0.3956330120563507 0.008448000065982342
v 0.0311450008302927 -0.39574599266052246 -0.0018769999733194709
v 0.02707199938595295 -0.3909890055656433 -0.013136999681591988
v 0.02078399993479252 -0.3879530131816864 -0.020688999444246292
v 0.006790999788790941 -0.38790199160575867 -0.03340600058436394
v 0.01116000022739172 -0.38211700320243835 -0.023459000512957573
v 0.0043830000795423985 -0.38602301478385925 -0.013469000346958637
v 0.003587000072002411 -0.38784900307655334 0.00022200000239536166
v -0.00943399965763092 -0.3916729986667633 0.029126999899744987
v -0.009794999845325947 -0.3901729881763458 0.01438399963080883
v 0.0023529999889433384 -0.3985680043697357 0.03606700152158737
v 0.010397999547421932 -0.402182012796402 0.03410699963569641
v -0.006730999797582626 -0.3921869993209839 0.009105999954044819
v 0.021524999290704727 -0.40441301465034485 0.02931799925863743
v 0.03544599935412407 -0.40578699111938477 0.021324999630451202
v 0.032662998884916306 -0.4051769971847534 0.0087890001013875
v 0.030061999335885048 -0.4062640070915222 -0.00023200000578071922
v 0.03281800076365471 -0.4051569998264313 -0.007829000242054462
v 0.02595599927008152 -0.3998180031776428 -0.018000999465584755
v 0.01913600042462349 -0.3946239948272705 -0.027519000694155693
v 0.01744600012898445 -0.4021559953689575 -0.03031500056385994
v 0.011730000376701355 -0.3977999985218048 -0.03687699884176254
v 0.002937000012025237 -0.3939589858055115 -0.037526000291109085
v -0.0008520000264979899 -0.39127200841903687 -0.025994999334216118
v -0.001800999976694584 -0.39251500368118286 -0.01657100021839142
v -0.0020389999262988567 -0.39447999000549316 -0.0019379999721422791
v -0.01676899939775467 -0.397146999835968 0.02767699956893921
v -0.009766999632120132 -0.4028730094432831 0.03520699962973595
v -0.017997000366449356 -0.39569199085235596 0.022043999284505844
v -0.011068000458180904 -0.4007300138473511 0.006347999908030033
v -0.016787000000476837 -0.3975659906864166 0.012051000259816647
v -0.0021430000197142363 -0.40630200505256653 0.037032999098300934
v 0.007871000096201897 -0.40845900774002075 0.03412099927663803
v -0.002280999906361103 -0.400083988904953 -0.001554999966174364
v 0.0174809992313385 -0.4118509888648987 0.029676999896764755
v 0.024589000269770622 -0.4132620096206665 0.027713999152183533
v 0.03119499981403351 -0.41406598687171936 0.0225210003554821
v 0.029753999784588814 -0.4134970009326935 0.01066999975591898
v 0.025459999218583107 -0.4128369987010956 0.00003300000025774352
v 0.029709000140428543 -0.4136349856853485 -0.0061079999431967735
v 0.033344998955726624 -0.41418400406837463 -0.010227000340819359
v 0.02979400008916855 -0.41037699580192566 -0.016316000372171402
v 0.024650000035762787 -0.4075689911842346 -0.021375000476837158
v 0.01513999979943037 -0.409292995929718 -0.030919000506401062
v 0.006829999852925539 -0.40254101157188416 -0.038297999650239944
v -0.007302999962121248 -0.39754700660705566 -0.03605400025844574
v -0.015521000139415264 -0.3941749930381775 -0.02794099971652031
v -0.003647000063210726 -0.39352598786354065 -0.028425000607967377
v -0.010118000209331512 -0.39299100637435913 -0.018939999863505363
v -0.008082999847829342 -0.39839500188827515 -0.013016000390052795
v -0.022407999262213707 -0.4045880138874054 0.02329700067639351
v -0.021165000274777412 -0.4063970148563385 0.02979299984872341
v -0.012552999891340733 -0.4104200005531311 0.03059699945151806
v -0.02051199972629547 -0.4056200087070465 0.0139979999512434
v -0.002882000058889389 -0.40842199325561523 0.006231000181287527
v -0.01636599935591221 -0.4088810086250305 0.008786999620497227
v -0.0064489999786019325 -0.4136730134487152 0.032329998910427094
v 0.0032430000137537718 -0.4166800081729889 0.031911998987197876
v -0.001044000033289194 -0.4088610112667084 -0.009405000135302544
v 0.004058000165969133 -0.4105350077152252 -0.00184299994725734
v 0.016770999878644943 -0.4176749885082245 0.028480999171733856
v 0.02316099964082241 -0.4212169945240021 0.02563299983739853
v 0.022884000092744827 -0.4211379885673523 0.014379000291228294
v 0.01926100067794323 -0.4177899956703186 0.004385000094771385
v 0.02079400047659874 -0.41874799132347107 -0.004095000214874744
v 0.02907099947333336 -0.4209280014038086 -0.011580999940633774
v 0.02746500074863434 -0.41705000400543213 -0.018789000809192657
v 0.021598000079393387 -0.4131450057029724 -0.022962000221014023
v 0.012713000178337097 -0.4142020046710968 -0.031252000480890274
v 0.002471999963745475 -0.41179999709129333 -0.03643999993801117
v -0.007631999906152487 -0.40920498967170715 -0.036729998886585236
v -0.02065799944102764 -0.40859198570251465 -0.03373600170016289
v -0.017666999250650406 -0.3958989977836609 -0.0209330003708601
v -0.016815999522805214 -0.40342000126838684 -0.013198000378906727
v -0.02181999944150448 -0.4107159972190857 0.019655000418424606
v -0.021244000643491745 -0.4131290018558502 0.02807999961078167
v -0.015778999775648117 -0.41737300157546997 0.03183700144290924
v -0.014972999691963196 -0.41550999879837036 0.012462999671697617
v -0.0054419999942183495 -0.4163309931755066 0.007583000231534243
v -0.00752299977466464 -0.42243701219558716 0.03229599818587303
v 0.005836999975144863 -0.4230790138244629 0.029916999861598015
v -0.018286999315023422 -0.4099220037460327 -0.01440299954265356
v -0.01322100032120943 -0.4156160056591034 -0.014290999621152878
v -0.004486999940127134 -0.42201200127601624 -0.013926999643445015
v 0.007255000062286854 -0.41631999611854553 -0.0011249999515712261
v 0.007211000192910433 -0.4176810085773468 0.005644000135362148
v 0.013776999898254871 -0.4235369861125946 0.025724999606609344
v 0.014433000236749649 -0.42454901337623596 0.017703000456094742
v 0.013143000192940235 -0.41834598779678345 -0.00020900000527035445
v 0.01248599961400032 -0.42112699151039124 0.009177000261843204
v 0.014155000448226929 -0.4215199947357178 -0.005390999838709831
v 0.019347000867128372 -0.4255000054836273 -0.012974999845027924
v 0.022153999656438828 -0.4250189960002899 -0.022274000570178032
v 0.017172999680042267 -0.4187529981136322 -0.025937000289559364
v 0.00956599973142147 -0.42071300745010376 -0.02991900034248829
v 0.003232999937608838 -0.4177829921245575 -0.034554000943899155
v -0.007621000055223703 -0.41545000672340393 -0.03609199821949005
v -0.01809700019657612 -0.4145349860191345 -0.03388400003314018
v -0.022321999073028564 -0.4036160111427307 -0.021100999787449837
v -0.009422999806702137 -0.41903799772262573 0.012839999981224537
v -0.014324000105261803 -0.4194200038909912 0.018578000366687775
v -0.01156300026923418 -0.42186400294303894 0.024560000747442245
v 0.0013180000241845846 -0.42079898715019226 0.010886999778449535
v -0.0007280000136233866 -0.42458200454711914 0.02330699935555458
v -0.020976999774575233 -0.41589900851249695 -0.023124000057578087
v -0.014415999874472618 -0.4208559989929199 -0.018401000648736954
v -0.0037299999967217445 -0.4264320135116577 -0.016147000715136528
v 0.00634300010278821 -0.4216110110282898 -0.0076060001738369465
v 0.006279999855905771 -0.42455700039863586 0.017170999199151993
v 0.0045369998551905155 -0.4291290044784546 -0.015807000920176506
v 0.009081000462174416 -0.4302850067615509 -0.02131200022995472
v 0.011900000274181366 -0.4279620051383972 -0.028185000643134117
v -0.004435000009834766 -0.42510101199150085 -0.0343019999563694
v -0.013768999837338924 -0.42273300886154175 -0.031571000814437866
v -0.01584099978208542 -0.4222419857978821 -0.02439899928867817
v -0.004459999967366457 -0.42289999127388 0.01703600026667118
v -0.00897200033068657 -0.42693400382995605 -0.021198000758886337
v -0.001630999962799251 -0.4294779896736145 -0.020925000309944153
v 0.0013020000187680125 -0.42816001176834106 -0.0316770002245903
v -0.00817199982702732 -0.4271889925003052 -0.027455000206828117
f 1 2 3
f 4 2 1
f 3 5 1
f 1 6 4
f 1 5 6
f 3 2 7
f 7 2 8
f 8 2 9
f 9 2 10
f 10 2 11
f 11 2 12
f 12 2 4
f 3 13 5
f 3 14 13
f 7 14 3
f 4 15 12
f 4 6 15
f 13 16 5
f 5 17 6
f 5 16 17
f 6 18 15
f 6 17 18
f 7 19 14
f 8 19 7
f 8 20 19
f 9 20 8
f 9 21 20
f 10 21 9
f 10 22 21
f 11 22 10
f 11 23 22
f 11 24 23
f 12 24 11
f 12 15 24
f 13 25 16
f 14 25 13
f 14 26 25
f 14 27 26
f 19 27 14
f 15 28 24
f 15 18 28
f 25 29 16
f 16 30 17
f 16 29 30
f 17 31 18
f 17 30 31
f 18 32 28
f 18 31 32
f 19 33 27
f 20 33 19
f 20 34 33
f 21 34 20
f 21 35 34
f 22 35 21
f 22 36 35
f 23 36 22
f 23 37 36
f 24 37 23
f 24 38 37
f 24 28 38
f 25 39 29
f 26 39 25
f 26 40 39
f 27 40 26
f 27 41 40
f 27 42 41
f 33 42 27
f 28 43 38
f 28 44 43
f 28 32 44
f 45 46 29
f 39 45 29
f 29 46 30
f 30 47 31
f 46 47 30
f 31 48 32
f 47 48 31
f 32 49 44
f 48 49 32
f 33 50 42
f 34 50 33
f 34 51 50
f 35 51 34
f 35 52 51
f 36 52 35
f 36 53 52
f 37 53 36
f 37 54 53
f 38 54 37
f 38 43 54
f 55 45 39
f 40 55 39
f 56 55 40
f 41 56 40
f 57 56 41
f 42 57 41
f 58 57 42
f 50 58 42
f 43 59 54
f 60 59 43
f 44 60 43
f 49 60 44
f 45 61 46
f 62 61 45
f 55 62 45
f 61 63 46
f 46 63 47
f 47 64 48
f 63 64 47
f 48 65 49
f 64 65 48
f 49 66 60
f 65 66 49
f 67 58 50
f 51 67 50
f 68 67 51
f 52 68 51
f 69 68 52
f 53 69 52
f 70 69 53
f 54 70 53
f 59 70 54
f 71 62 55
f 56 71 55
f 72 71 56
f 57 72 56
f 73 72 57
f 58 73 57
f 74 73 58
f 67 74 58
f 59 75 70
f 76 75 59
f 60 76 59
f 66 76 60
f 61 77 63
f 61 78 77
f 62 78 61
f 62 79 78
f 71 79 62
f 63 80 64
f 63 77 80
f 64 81 65
f 64 80 81
f 65 82 66
f 65 81 82
f 66 83 76
f 66 82 83
f 84 74 67
f 68 84 67
f 85 84 68
f 69 85 68
f 86 85 69
f 70 86 69
f 75 86 70
f 71 87 79
f 72 87 71
f 72 88 87
f 73 88 72
f 73 89 88
f 74 89 73
f 74 90 89
f 84 90 74
f 75 91 86
f 75 92 91
f 76 92 75
f 76 83 92
f 93 94 77
f 78 93 77
f 77 94 80
f 95 93 78
f 79 95 78
f 96 95 79
f 87 96 79
f 80 97 81
f 94 97 80
f 81 98 82
f 97 98 81
f 82 99 83
f 98 99 82
f 83 100 92
f 99 100 83
f 84 101 90
f 84 102 101
f 85 102 84
f 85 103 102
f 86 103 85
f 86 91 103
f 88 96 87
f 104 96 88
f 89 104 88
f 105 104 89
f 90 105 89
f 106 105 90
f 101 106 90
f 91 107 103
f 100 107 91
f 92 100 91
f 93 108 94
f 95 108 93
f 108 109 94
f 94 109 97
f 110 108 95
f 96 110 95
f 111 110 96
f 104 111 96
f 97 112 98
f 109 112 97
f 98 113 99
f 112 113 98
f 99 113 100
f 100 114 107
f 113 114 100
f 115 106 101
f 102 115 101
f 116 115 102
f 103 116 102
f 107 116 103
f 117 111 104
f 105 117 104
f 118 117 105
f 106 118 105
f 115 118 106
f 107 119 116
f 114 119 107
f 108 120 109
f 121 120 108
f 110 121 108
f 120 122 109
f 109 122 112
f 123 121 110
f 111 123 110
f 124 123 111
f 117 124 111
f 112 125 113
f 122 125 112
f 113 126 114
f 125 126 113
f 114 127 119
f 126 127 114
f 128 118 115
f 116 128 115
f 119 128 116
f 129 124 117
f 118 129 117
f 130 129 118
f 128 130 118
f 119 131 128
f 127 131 119
f 120 132 122
f 120 133 132
f 121 133 120
f 121 134 133
f 121 135 134
f 123 135 121
f 122 136 125
f 122 132 136
f 123 137 135
f 124 137 123
f 124 138 137
f 129 138 124
f 125 139 126
f 125 136 139
f 126 140 127
f 126 139 140
f 127 141 131
f 127 142 141
f 127 140 142
f 131 130 128
f 129 143 138
f 130 143 129
f 130 144 143
f 131 144 130
f 131 141 144
f 133 145 132
f 132 146 136
f 132 145 146
f 133 147 145
f 134 147 133
f 134 148 147
f 135 148 134
f 135 149 148
f 135 150 149
f 137 150 135
f 136 151 139
f 136 146 151
f 137 152 150
f 138 152 137
f 138 153 152
f 143 153 138
f 139 154 140
f 139 151 154
f 140 155 142
f 140 156 155
f 140 154 156
f 141 157 144
f 141 158 157
f 142 158 141
f 142 155 158
f 143 159 153
f 144 159 143
f 144 157 159
f 147 160 145
f 145 161 146
f 145 160 161
f 146 162 151
f 146 161 162
f 147 163 160
f 147 164 163
f 148 164 147
f 148 165 164
f 149 165 148
f 149 166 165
f 150 166 149
f 150 167 166
f 152 167 150
f 151 168 154
f 151 162 168
f 152 169 167
f 152 170 169
f 153 170 152
f 153 171 170
f 159 171 153
f 154 172 156
f 154 173 172
f 168 173 154
f 155 174 158
f 155 175 174
f 156 175 155
f 156 172 175
f 157 176 159
f 157 177 176
f 178 157 158
f 178 177 157
f 158 174 178
f 159 176 171
f 163 179 160
f 160 179 161
f 161 180 162
f 161 179 180
f 162 181 168
f 162 180 181
f 163 182 179
f 164 183 163
f 163 183 182
f 165 183 164
f 165 184 183
f 166 184 165
f 166 185 184
f 166 186 185
f 167 186 166
f 167 187 186
f 169 187 167
f 168 188 173
f 168 189 188
f 168 181 189
f 169 190 187
f 170 190 169
f 170 191 190
f 171 191 170
f 171 192 191
f 176 192 171
f 172 193 175
f 172 194 193
f 172 195 194
f 173 195 172
f 173 188 195
f 174 196 178
f 175 196 174
f 175 193 196
f 176 197 192
f 177 197 176
f 177 198 197
f 199 198 177
f 178 199 177
f 196 199 178
f 179 200 180
f 201 200 179
f 182 201 179
f 180 202 181
f 200 202 180
f 181 203 189
f 202 203 181
f 204 201 182
f 183 204 182
f 205 204 183
f 184 205 183
f 206 205 184
f 185 206 184
f 207 206 185
f 186 207 185
f 208 207 186
f 187 208 186
f 209 208 187
f 190 209 187
f 188 210 195
f 211 210 188
f 189 211 188
f 203 211 189
f 212 209 190
f 191 212 190
f 213 212 191
f 192 213 191
f 214 213 192
f 197 214 192
f 193 215 196
f 216 215 193
f 194 216 193
f 217 216 194
f 195 217 194
f 210 217 195
f 196 218 199
f 215 218 196
f 219 214 197
f 198 219 197
f 220 219 198
f 199 220 198
f 218 220 199
f 200 221 202
f 222 221 200
f 201 222 200
f 223 222 201
f 204 223 201
f 202 221 203
f 203 224 211
f 221 224 203
f 225 223 204
f 205 225 204
f 226 225 205
f 206 226 205
f 227 226 206
f 207 227 206
f 228 227 207
f 208 228 207
f 208 229 230
f 208 230 228
f 229 208 209
f 229 209 231
f 231 209 212
f 210 232 217
f 233 232 210
f 211 233 210
f 224 233 211
f 231 212 234
f 234 212 213
f 234 213 235
f 235 213 214
f 219 235 214
f 216 236 215
f 215 236 237
f 215 237 218
f 217 238 216
f 216 238 236
f 239 240 217
f 217 240 238
f 232 239 217
f 218 237 241
f 218 241 220
f 220 242 219
f 219 242 235
f 220 241 242
f 221 243 224
f 222 243 221
f 244 243 222
f 223 244 222
f 245 244 223
f 225 245 223
f 224 246 233
f 243 246 224
f 226 245 225
f 247 245 226
f 227 247 226
f 228 247 227
f 228 230 248
f 228 248 249
f 250 247 228
f 249 250 228
f 251 229 231
f 251 252 229
f 229 252 230
f 230 252 248
f 251 231 234
f 232 253 239
f 246 253 232
f 233 246 232
f 251 234 235
f 242 251 235
f 238 254 236
f 236 254 255
f 236 255 237
f 237 255 256
f 237 256 241
f 240 254 238
f 257 258 239
f 239 258 240
f 239 253 257
f 258 259 240
f 240 259 254
f 241 256 260
f 241 260 242
f 260 261 242
f 261 251 242
f 243 262 246
f 244 262 243
f 245 262 244
f 247 262 245
f 246 262 253
f 250 262 247
f 249 248 263
f 248 252 263
f 249 263 257
f 257 250 249
f 253 262 250
f 253 250 257
f 261 252 251
f 264 252 261
f 265 252 264
f 263 252 265
f 259 266 254
f 254 266 267
f 254 267 255
f 255 267 268
f 255 268 256
f 256 268 260
f 257 263 258
f 263 269 258
f 258 269 259
f 269 270 259
f 259 270 266
f 260 268 271
f 260 271 264
f 260 264 261
f 263 265 269
f 264 271 272
f 264 272 265
f 265 272 270
f 265 270 269
f 270 273 266
f 266 273 274
f 266 274 267
f 267 274 275
f 267 275 268
f 268 275 276
f 268 276 271
f 272 277 270
f 270 277 273
f 271 276 278
f 271 278 272
f 272 278 277
f 277 279 273
f 273 279 280
f 273 280 274
f 274 280 281
f 274 281 275
f 275 281 282
f 275 282 276
f 276 282 283
f 276 283 278
f 278 284 277
f 277 284 279
f 278 283 284
f 284 285 279
f 279 285 286
f 279 286 280
f 280 286 287
f 280 287 281
f 281 287 288
f 281 288 282
f 282 288 289
f 282 289 283
f 283 289 290
f 283 290 284
f 284 290 285
f 290 291 285
f 285 291 292
f 285 292 286
f 286 292 293
f 286 293 287
f 287 293 294
f 287 294 288
f 288 294 295
f 288 295 289
f 289 295 296
f 289 296 290
f 290 296 291
f 296 297 291
f 291 297 298
f 291 298 292
f 292 298 299
f 292 299 293
f 293 299 300
f 293 300 294
f 294 300 301
f 294 301 295
f 295 301 302
f 295 302 296
f 296 302 297
f 302 303 297
f 303 304 297
f 297 304 298
f 304 305 298
f 305 306 298
f 298 306 299
f 306 307 299
f 299 307 300
f 307 308 300
f 300 308 301
f 301 309 302
f 308 309 301
f 309 303 302
f 309 310 303
f 303 310 311
f 303 311 304
f 304 311 312
f 304 312 305
f 305 312 313
f 305 313 306
f 306 313 314
f 306 314 307
f 307 314 315
f 307 315 308
f 308 315 316
f 308 316 309
f 309 316 310
f 316 317 310
f 310 317 318
f 310 318 311
f 311 318 319
f 311 319 312
f 312 319 320
f 312 320 313
f 313 320 321
f 313 321 314
f 314 321 322
f 314 322 315
f 315 322 323
f 315 323 316
f 316 323 317
f 323 324 317
f 324 325 317
f 317 325 318
f 325 326 318
f 318 326 319
f 326 327 319
f 327 328 319
f 319 328 320
f 328 329 320
f 320 329 321
f 329 330 321
f 321 330 322
f 330 331 322
f 322 331 323
f 331 324 323
f 332 333 324
f 324 333 325
f 331 334 324
f 334 332 324
f 333 335 325
f 325 335 326
f 335 336 326
f 336 337 326
f 326 337 327
f 337 338 327
f 327 338 328
f 338 339 328
f 328 339 329
f 340 341 329
f 339 340 329
f 341 342 329
f 329 342 330
f 342 343 330
f 330 343 331
f 343 344 331
f 344 334 331
f 332 345 333
f 334 346 332
f 346 345 332
f 345 347 333
f 347 348 333
f 333 348 335
f 344 349 334
f 349 346 334
f 348 350 335
f 335 350 336
f 350 351 336
f 336 351 337
f 351 352 337
f 352 353 337
f 337 353 338
f 353 354 338
f 338 354 339
f 354 355 339
f 339 355 340
f 355 356 340
f 356 341 340
f 356 357 341
f 357 358 341
f 358 359 341
f 341 359 360
f 341 360 342
f 342 360 343
f 360 361 343
f 343 361 344
f 361 362 344
f 362 349 344
f 363 364 345
f 345 364 347
f 346 365 345
f 365 363 345
f 349 366 346
f 366 367 346
f 367 365 346
f 364 368 347
f 347 368 348
f 368 369 348
f 348 369 350
f 362 370 349
f 370 366 349
f 369 371 350
f 371 372 350
f 350 372 351
f 372 373 351
f 351 373 352
f 373 374 352
f 374 375 352
f 352 375 353
f 375 376 353
f 353 376 354
f 376 377 354
f 377 378 354
f 354 378 355
f 378 379 355
f 355 379 356
f 379 357 356
f 379 380 357
f 357 380 381
f 357 381 358
f 358 381 382
f 358 382 359
f 359 382 383
f 359 383 384
f 359 384 360
f 360 384 361
f 384 385 361
f 385 386 361
f 361 386 362
f 386 370 362
f 365 387 363
f 363 387 388
f 363 388 364
f 364 388 389
f 364 389 368
f 367 390 365
f 365 390 387
f 370 391 366
f 366 391 392
f 366 392 367
f 367 392 390
f 368 389 393
f 368 393 369
f 369 393 394
f 369 394 371
f 395 396 370
f 386 395 370
f 370 396 391
f 371 394 397
f 371 397 372
f 372 397 398
f 372 398 373
f 373 398 399
f 373 399 374
f 374 399 400
f 374 400 375
f 401 375 400
f 375 401 402
f 375 402 376
f 376 402 377
f 377 402 403
f 377 403 404
f 377 404 378
f 378 404 380
f 378 380 379
f 404 405 380
f 380 405 406
f 380 406 381
f 381 406 407
f 381 407 382
f 382 407 383
f 383 407 408
f 383 408 409
f 384 383 409
f 384 409 385
f 385 409 410
f 385 410 386
f 386 410 395
f 390 411 387
f 387 411 412
f 387 412 388
f 388 412 389
f 389 412 413
f 389 413 393
f 392 414 390
f 390 414 411
f 396 415 391
f 391 415 392
f 392 415 414
f 393 413 416
f 393 416 394
f 394 416 417
f 394 417 397
f 410 418 395
f 395 418 419
f 395 419 396
f 396 419 420
f 396 420 421
f 396 422 415
f 421 422 396
f 397 417 398
f 398 417 423
f 398 423 399
f 399 423 424
f 399 424 400
f 401 400 425
f 400 424 426
f 400 426 425
f 401 427 428
f 401 428 402
f 425 427 401
f 402 428 429
f 402 429 403
f 403 429 430
f 403 430 404
f 404 430 405
f 430 431 405
f 405 431 432
f 405 432 406
f 406 432 407
f 407 432 433
f 407 433 408
f 408 433 434
f 408 434 435
f 409 408 435
f 409 435 410
f 410 435 418
f 414 436 411
f 411 436 437
f 411 437 412
f 412 437 413
f 413 437 438
f 413 438 416
f 415 436 414
f 422 439 415
f 415 439 436
f 416 438 440
f 416 440 417
f 417 440 423
f 435 441 418
f 418 441 442
f 418 442 419
f 419 442 420
f 420 442 443
f 420 443 444
f 421 420 444
f 421 444 425
f 425 426 421
f 421 426 422
f 426 439 422
f 423 440 445
f 423 445 424
f 424 445 426
f 425 444 427
f 426 445 439
f 427 446 447
f 427 447 428
f 444 446 427
f 428 447 429
f 429 447 448
f 429 448 430
f 430 448 431
f 448 449 431
f 431 449 432
f 433 432 449
f 433 450 434
f 433 449 450
f 434 450 451
f 434 451 441
f 435 434 441
f 439 452 436
f 436 452 437
f 437 452 438
f 438 452 440
f 445 452 439
f 440 452 445
f 441 451 453
f 441 453 442
f 442 453 443
f 443 453 454
f 443 454 446
f 444 443 446
f 446 454 447
f 447 454 455
f 447 455 448
f 448 455 449
f 455 456 449
f 449 456 450
f 450 456 451
f 451 456 453
f 453 456 454
f 454 456 455
