# Generated by Visualization Toolkit
v -0.0003499999875202775 -0.42443299293518066 -0.02497600018978119
v -0.004000000189989805 -0.4318229854106903 -0.02459999918937683
v -0.004000000189989805 -0.4254409968852997 -0.029999999329447746
v 0.0026759998872876167 -0.4170440137386322 -0.027830999344587326
v 0.0017130000051110983 -0.41536301374435425 -0.022136999294161797
v 0.008839000016450882 -0.40864500403404236 -0.025828000158071518
v -0.006221999879926443 -0.4304800033569336 -0.026941999793052673
v -0.004000000189989805 -0.42208200693130493 -0.024059999734163284
v 0.0026759998872876167 -0.4170440137386322 -0.032168999314308167
v 0.001475999946705997 -0.41989898681640625 -0.03753599897027016
v -0.004000000189989805 -0.4227530062198639 -0.0416099987924099
v -0.00804699957370758 -0.4259450137615204 -0.03556999936699867
v -0.006054999772459269 -0.4291360080242157 -0.030667999759316444
v -0.006054999772459269 -0.4291360080242157 -0.029332000762224197
v 0.008839000016450882 -0.40864500403404236 -0.03417100012302399
v 0.0012369999894872308 -0.40411099791526794 -0.022792000323534012
v 0.0034469999372959137 -0.3975600004196167 -0.027580000460147858
v 0.0034469999372959137 -0.3975600004196167 -0.032419998198747635
v -0.00828499998897314 -0.4205709993839264 -0.024102000519633293
v -0.004000000189989805 -0.4106599986553192 -0.020010000094771385
v 0.004093999974429607 -0.4098210036754608 -0.04114000126719475
v -0.004000000189989805 -0.4109959900379181 -0.044039998203516006
v -0.010665000416338444 -0.41502898931503296 -0.03917500004172325
v -0.012217000126838684 -0.41905900835990906 -0.032669998705387115
v -0.012217000126838684 -0.41905900835990906 -0.027329999953508377
v -0.0002699999895412475 -0.39470601081848145 -0.03513399884104729
v 0.00012599999899975955 -0.38781899213790894 -0.024320999160408974
v 0.0021619999315589666 -0.3831160068511963 -0.027997000142931938
v 0.0021619999315589666 -0.3831160068511963 -0.03200199827551842
v -0.0005089999758638442 -0.3700149953365326 -0.03480499982833862
v -0.011220999993383884 -0.4115000069141388 -0.02006099931895733
v -0.004000000189989805 -0.392520010471344 -0.022439999505877495
v -0.004000000189989805 -0.39184999465942383 -0.034860000014305115
v -0.009712999686598778 -0.4020960032939911 -0.037863001227378845
v -0.017866000533103943 -0.412339985370636 -0.03450499847531319
v -0.017866000533103943 -0.412339985370636 -0.025495000183582306
v -0.004000000189989805 -0.3569149971008301 -0.03539999946951866
v -0.000826000003144145 -0.3654809892177582 -0.025630999356508255
v 0.0008789999992586672 -0.3485180139541626 -0.02841399982571602
v 0.0008789999992586672 -0.3485180139541626 -0.031585998833179474
v -0.0009850000496953726 -0.30199599266052246 -0.03415000066161156
v -0.004000000189989805 -0.25547099113464355 -0.03513000160455704
v -0.010745000094175339 -0.39873600006103516 -0.020716000348329544
v -0.004000000189989805 -0.38244399428367615 -0.024329999461770058
v -0.010110000148415565 -0.3809340000152588 -0.0384100005030632
v -0.018636999651789665 -0.40494999289512634 -0.034756001085042953
v -0.018636999651789665 -0.40494999289512634 -0.02524399943649769
v -0.00828499998897314 -0.32853201031684875 -0.03589800000190735
v 0.0008399999933317304 -0.3011550009250641 -0.023336999118328094
v 0.0031900000758469105 -0.27932101488113403 -0.027664000168442726
v 0.0031900000758469105 -0.27932101488113403 -0.032336000353097916
v -0.0009050000226125121 -0.2183540016412735 -0.03426000103354454
v -0.004000000189989805 -0.15738700330257416 -0.03297000005841255
v -0.006459999829530716 -0.26958000659942627 -0.033385999500751495
v -0.008442999795079231 -0.39201799035072327 -0.0238840002566576
v -0.004000000189989805 -0.32298898696899414 -0.021090000867843628
v -0.012986999936401844 -0.4015919864177704 -0.03292100131511688
v -0.012986999936401844 -0.4015919864177704 -0.02707899920642376
v -0.00913500040769577 -0.3817729949951172 -0.031668998301029205
v 0.001554999966174364 -0.22658400237560272 -0.022353999316692352
v 0.004474000073969364 -0.1976960003376007 -0.027247000485658646
v 0.004474000073969364 -0.1976960003376007 -0.03275299817323685
v 0.0003640000068116933 -0.1607459932565689 -0.036006998270750046
v -0.004000000189989805 -0.12379699945449829 -0.03593999892473221
v -0.006777000147849321 -0.21936200559139252 -0.03382200002670288
v -0.0073379999957978725 -0.31492799520492554 -0.031083999201655388
v -0.008205999620258808 -0.35238200426101685 -0.02421100065112114
v -0.004000000189989805 -0.25547099113464355 -0.020010000094771385
v -0.00913500040769577 -0.3817729949951172 -0.028331000357866287
v -0.0073379999957978725 -0.31492799520492554 -0.028915999457240105
v 0.0012369999894872308 -0.17636600136756897 -0.022792000323534012
v 0.0034469999372959137 -0.14731000363826752 -0.027580000460147858
v 0.0034469999372959137 -0.14731000363826752 -0.032419998198747635
v 0.001554999966174364 -0.12194900214672089 -0.03764500096440315
v -0.004000000189989805 -0.09658800065517426 -0.04106999933719635
v -0.008442999795079231 -0.15604299306869507 -0.03611600026488304
v -0.007852000184357166 -0.21549899876117706 -0.031252000480890274
v -0.007852000184357166 -0.21549899876117706 -0.028748000040650368
v -0.007966999895870686 -0.28519999980926514 -0.024538999423384666
v -0.004000000189989805 -0.20542100071907043 -0.020010000094771385
v -0.008125999942421913 -0.21046000719070435 -0.024320999160408974
v 0.00044299999717622995 -0.1259790062904358 -0.0238840002566576
v 0.002420000033453107 -0.09759499877691269 -0.027914000675082207
v 0.002420000033453107 -0.09759499877691269 -0.032085999846458435
v 0.0035379999317228794 -0.09171699732542038 -0.040376000106334686
v -0.004000000189989805 -0.08584000170230865 -0.048900000751018524
v -0.010745000094175339 -0.117078997194767 -0.03928399831056595
v -0.007852000184357166 -0.14831799268722534 -0.031252000480890274
v -0.007852000184357166 -0.14831799268722534 -0.028748000040650368
v -0.0076500000432133675 -0.15133999288082123 -0.02497600018978119
v -0.004000000189989805 -0.15436400473117828 -0.021630000323057175
v 0.00012599999899975955 -0.10145899653434753 -0.024320999160408974
v 0.00395999988541007 -0.08247999846935272 -0.02741299942135811
v 0.00395999988541007 -0.08247999846935272 -0.032586999237537384
v 0.0038560000248253345 -0.07777699828147888 -0.04081299901008606
v -0.004000000189989805 -0.07307499647140503 -0.04836000129580498
v -0.011220999993383884 -0.09440500289201736 -0.03993900120258331
v -0.009906000457704067 -0.11573400348424911 -0.031918998807668686
v -0.009906000457704067 -0.11573400348424911 -0.028080999851226807
v -0.00749099999666214 -0.11808600276708603 -0.02519500069320202
v -0.004000000189989805 -0.12043700367212296 -0.024329999461770058
v 0.0011579999700188637 -0.08130499720573425 -0.022901000455021858
v 0.009352000430226326 -0.07878600060939789 -0.02566099911928177
v 0.009352000430226326 -0.07878600060939789 -0.034338999539613724
v 0.003140999935567379 -0.07257100194692612 -0.03982999920845032
v -0.004000000189989805 -0.06635600328445435 -0.04025999829173088
v -0.01193500030785799 -0.06904300302267075 -0.040922001004219055
v -0.01992099918425083 -0.07173100113868713 -0.035172998905181885
v -0.01992099918425083 -0.07173100113868713 -0.024826999753713608
v -0.009952000342309475 -0.07777699828147888 -0.02180900052189827
v -0.004000000189989805 -0.08382300287485123 -0.026489999145269394
v -0.0004290000069886446 -0.06870800256729126 -0.025085000321269035
v 0.0037040000315755606 -0.0670280009508133 -0.027496999129652977
v 0.0037040000315755606 -0.0670280009508133 -0.032503001391887665
v -0.00019099999917671084 -0.0643410012125969 -0.035241998732089996
v -0.004000000189989805 -0.06165299937129021 -0.034860000014305115
v -0.007094999775290489 -0.05913500115275383 -0.03426000103354454
v -0.009393000043928623 -0.05661499872803688 -0.031752001494169235
v -0.009393000043928623 -0.05661499872803688 -0.028248000890016556
v -0.006856999825686216 -0.06350100040435791 -0.026068000122904778
v -0.004000000189989805 -0.07038699835538864 -0.025949999690055847
v -0.004000000189989805 -0.06568499654531479 -0.029999999329447746
f 1 2 3
f 4 1 3
f 1 5 2
f 6 5 1
f 4 6 1
f 2 7 3
f 5 8 2
f 2 8 7
f 9 4 3
f 10 9 3
f 11 10 3
f 12 11 3
f 13 12 3
f 14 13 3
f 7 14 3
f 15 6 4
f 9 15 4
f 5 16 8
f 17 16 5
f 6 17 5
f 18 17 6
f 15 18 6
f 7 19 14
f 8 19 7
f 16 20 8
f 8 20 19
f 21 15 9
f 10 21 9
f 22 21 10
f 11 22 10
f 23 22 11
f 12 23 11
f 24 23 12
f 13 24 12
f 25 24 13
f 14 25 13
f 19 25 14
f 26 18 15
f 21 26 15
f 16 27 20
f 28 27 16
f 17 28 16
f 29 28 17
f 18 29 17
f 30 29 18
f 26 30 18
f 19 31 25
f 20 31 19
f 27 32 20
f 20 32 31
f 33 26 21
f 22 33 21
f 34 33 22
f 23 34 22
f 35 34 23
f 24 35 23
f 36 35 24
f 25 36 24
f 31 36 25
f 37 30 26
f 33 37 26
f 27 38 32
f 39 38 27
f 28 39 27
f 40 39 28
f 29 40 28
f 41 40 29
f 30 41 29
f 42 41 30
f 37 42 30
f 31 43 36
f 32 43 31
f 38 44 32
f 32 44 43
f 45 37 33
f 34 45 33
f 46 45 34
f 35 46 34
f 47 46 35
f 36 47 35
f 43 47 36
f 48 42 37
f 45 48 37
f 38 49 44
f 50 49 38
f 39 50 38
f 51 50 39
f 40 51 39
f 52 51 40
f 41 52 40
f 53 52 41
f 42 53 41
f 54 53 42
f 48 54 42
f 43 55 47
f 44 55 43
f 49 56 44
f 44 56 55
f 57 48 45
f 46 57 45
f 58 57 46
f 47 58 46
f 55 58 47
f 59 54 48
f 57 59 48
f 49 60 56
f 61 60 49
f 50 61 49
f 62 61 50
f 51 62 50
f 63 62 51
f 52 63 51
f 64 63 52
f 53 64 52
f 65 64 53
f 54 65 53
f 66 65 54
f 59 66 54
f 55 67 58
f 56 67 55
f 60 68 56
f 56 68 67
f 69 59 57
f 58 69 57
f 67 69 58
f 70 66 59
f 69 70 59
f 60 71 68
f 72 71 60
f 61 72 60
f 73 72 61
f 62 73 61
f 74 73 62
f 63 74 62
f 75 74 63
f 64 75 63
f 76 75 64
f 65 76 64
f 77 76 65
f 66 77 65
f 78 77 66
f 70 78 66
f 67 79 69
f 68 79 67
f 71 80 68
f 68 80 79
f 79 70 69
f 81 78 70
f 79 81 70
f 71 82 80
f 83 82 71
f 72 83 71
f 84 83 72
f 73 84 72
f 85 84 73
f 74 85 73
f 86 85 74
f 75 86 74
f 87 86 75
f 76 87 75
f 88 87 76
f 77 88 76
f 89 88 77
f 78 89 77
f 90 89 78
f 81 90 78
f 80 81 79
f 82 91 80
f 80 91 81
f 91 90 81
f 82 92 91
f 93 92 82
f 83 93 82
f 94 93 83
f 84 94 83
f 95 94 84
f 85 95 84
f 96 95 85
f 86 96 85
f 97 96 86
f 87 97 86
f 98 97 87
f 88 98 87
f 99 98 88
f 89 99 88
f 100 99 89
f 90 100 89
f 91 101 90
f 101 100 90
f 92 101 91
f 92 102 101
f 103 102 92
f 93 103 92
f 104 103 93
f 94 104 93
f 105 104 94
f 95 105 94
f 106 105 95
f 96 106 95
f 107 106 96
f 97 107 96
f 108 107 97
f 98 108 97
f 109 108 98
f 99 109 98
f 110 109 99
f 100 110 99
f 101 111 100
f 111 110 100
f 102 111 101
f 102 112 111
f 113 112 102
f 103 113 102
f 114 113 103
f 104 114 103
f 115 114 104
f 105 115 104
f 116 115 105
f 106 116 105
f 117 116 106
f 107 117 106
f 118 117 107
f 108 118 107
f 119 118 108
f 109 119 108
f 120 119 109
f 110 120 109
f 111 121 110
f 121 120 110
f 112 121 111
f 112 122 121
f 113 122 112
f 114 122 113
f 115 122 114
f 116 122 115
f 117 122 116
f 118 122 117
f 119 122 118
f 120 122 119
f 121 122 120
