# Generated by Visualization Toolkit
v 0.0010290000354871154 -0.12311799824237823 -0.011369000189006329
v 0.001408000010997057 -0.1224299967288971 -0.007954999804496765
v 0.0037010000087320805 -0.1292009949684143 -0.009301000274717808
v 0.004424999933689833 -0.12914200127124786 -0.010769999586045742
v -0.0018500000005587935 -0.11714699864387512 -0.011285999789834023
v 0.00006199999916134402 -0.11570499837398529 -0.007853999733924866
v -0.002094999887049198 -0.12015900015830994 -0.011934000067412853
v -0.000526999996509403 -0.12636099755764008 -0.011020000092685223
v -0.0029619999695569277 -0.11382299661636353 -0.012597999535501003
v -0.0009219999774359167 -0.12162899971008301 -0.006434000097215176
v 0.0015790000325068831 -0.12768399715423584 -0.006395000033080578
v -0.0013909999979659915 -0.11482299864292145 -0.006113999988883734
v -0.0007070000283420086 -0.1334889978170395 -0.006523000076413155
v -0.0003600000054575503 -0.13314099609851837 -0.010104999877512455
v -0.00203699991106987 -0.10982199758291245 -0.011673999950289726
v -0.0013879999751225114 -0.1088239997625351 -0.008580000139772892
v -0.0030070000793784857 -0.107355996966362 -0.013112000189721584
v -0.0021750000305473804 -0.10813699662685394 -0.005814000032842159
v -0.004856999963521957 -0.12024000287055969 -0.010773000307381153
v -0.003043999895453453 -0.126568004488945 -0.010869000107049942
v -0.006182000041007996 -0.11381600052118301 -0.01105200033634901
v -0.006773999892175198 -0.10734599828720093 -0.012133000418543816
v -0.0011269999668002129 -0.12376300245523453 -0.0010290000354871154
v 0.002366000087931752 -0.12961700558662415 -0.0008590000215917826
v -0.003579000011086464 -0.11721500009298325 -0.0016049999976530671
v -0.0012100000167265534 -0.13357600569725037 -0.003967000171542168
v -0.003232999937608838 -0.11002100259065628 -0.001297999988310039
v -0.002351999981328845 -0.13354100286960602 -0.008980999700725079
v -0.0020580000709742308 -0.1336899995803833 -0.002348999958485365
v -0.00597799988463521 -0.13225699961185455 -0.004064000211656094
v -0.004945999942719936 -0.1276320070028305 -0.008270000107586384
v -0.001436999998986721 -0.10232000052928925 -0.012269999831914902
v -0.001484000007621944 -0.10177599638700485 -0.008627999573946
v -0.0030799999367445707 -0.10089299827814102 -0.01374599989503622
v -0.0023529999889433384 -0.10142199695110321 -0.005535999778658152
v -0.006653999909758568 -0.1008090004324913 -0.013145999982953072
v -0.003611000021919608 -0.10293599963188171 -0.0013409999664872885
v -0.006082999985665083 -0.12101999670267105 -0.007907000370323658
v -0.007826000452041626 -0.11461400240659714 -0.007884000428020954
v -0.008957000449299812 -0.1080939993262291 -0.008217999711632729
v -0.00953300017863512 -0.1014460027217865 -0.008604999631643295
v -0.0037670000456273556 -0.12098000198602676 -0.0016919999616220593
v -0.0028170000296086073 -0.1273459941148758 -0.0016560000367462635
v -0.004629999864846468 -0.11461900174617767 -0.0017330000409856439
v -0.005657999776303768 -0.10821899771690369 -0.0017689999658614397
v -0.006399000063538551 -0.10180900245904922 -0.0016710000345483422
v -0.005394999869167805 -0.1260879933834076 -0.004379000049084425
v -0.006308999843895435 -0.1200380027294159 -0.003869999898597598
v -0.0004450000124052167 -0.09526900202035904 -0.01278700027614832
v -0.0004330000083427876 -0.0947830006480217 -0.009421999566257
v -0.002722000004723668 -0.09452799707651138 -0.01481700036674738
v -0.0015879999846220016 -0.0946350023150444 -0.0054270001128315926
v -0.006496000103652477 -0.09428200125694275 -0.014069000259041786
v -0.003189000068232417 -0.09572599828243256 -0.0015960000455379486
v -0.010169999673962593 -0.09482599794864655 -0.008946999907493591
v -0.005464999936521053 -0.0955289974808693 -0.0008549999911338091
v -0.007691999897360802 -0.11400400102138519 -0.0035019998904317617
v -0.008706999942660332 -0.10790800303220749 -0.0037380000576376915
v -0.00917499978095293 -0.10175000131130219 -0.003969999961555004
v -0.009674999862909317 -0.09557899832725525 -0.0041600000113248825
v 0.0018919999711215496 -0.08859000355005264 -0.012775000184774399
v 0.0027099999133497477 -0.08857599645853043 -0.009681000374257565
v -0.0013559999642893672 -0.0883060023188591 -0.01561299990862608
v 0.0020989999175071716 -0.08931100368499756 -0.004658000078052282
v -0.007515000179409981 -0.08795499801635742 -0.015604999847710133
v -0.00012099999730708078 -0.08959200233221054 -0.00022699999681208283
v -0.010600999929010868 -0.08821599930524826 -0.009677999652922153
v -0.005462000146508217 -0.08929900079965591 0.0006270000012591481
v -0.010472999885678291 -0.08945199847221375 -0.004358999896794558
v 0.0008190000080503523 -0.0816430002450943 -0.013907000422477722
v 0.0027989998925477266 -0.08188199996948242 -0.010538999922573566
v 0.0018899999558925629 -0.08260799944400787 -0.00483600003644824
v -0.006792999804019928 -0.08160900324583054 -0.01433700043708086
v 0.0003769999893847853 -0.08260799944400787 -0.0003009999927598983
v -0.009875999763607979 -0.08167199790477753 -0.008724999614059925
v -0.005113000050187111 -0.08298099786043167 0.000455000001238659
v -0.009827000088989735 -0.0833280012011528 -0.003863000078126788
v -0.002781999995931983 -0.0833519995212555 -0.007938999682664871
f 1 2 3
f 1 3 4
f 5 6 2
f 5 2 1
f 7 1 8
f 1 4 8
f 9 5 7
f 5 1 7
f 2 10 11
f 2 11 3
f 6 12 10
f 6 10 2
f 3 11 13
f 4 3 13
f 13 14 4
f 14 8 4
f 15 16 6
f 15 6 5
f 17 15 9
f 15 5 9
f 16 18 12
f 16 12 6
f 19 7 20
f 7 8 20
f 21 9 19
f 9 7 19
f 8 14 20
f 22 17 21
f 17 9 21
f 10 23 11
f 23 24 11
f 12 25 10
f 25 23 10
f 11 24 26
f 11 26 13
f 18 27 12
f 27 25 12
f 30 28 29
f 28 13 29
f 29 13 26
f 13 28 14
f 31 20 28
f 20 14 28
f 32 33 16
f 32 16 15
f 34 32 17
f 32 15 17
f 33 35 18
f 33 18 16
f 36 34 17
f 36 17 22
f 35 37 18
f 37 27 18
f 38 19 20
f 38 20 31
f 39 21 19
f 39 19 38
f 40 22 21
f 40 21 39
f 41 36 22
f 41 22 40
f 23 42 43
f 23 43 24
f 25 44 42
f 25 42 23
f 24 29 26
f 24 43 29
f 27 45 44
f 27 44 25
f 37 46 45
f 37 45 27
f 47 31 30
f 31 28 30
f 43 47 30
f 43 30 29
f 48 38 47
f 38 31 47
f 49 50 33
f 49 33 32
f 51 49 34
f 49 32 34
f 50 52 33
f 52 35 33
f 53 51 34
f 53 34 36
f 52 54 35
f 54 37 35
f 55 53 36
f 55 36 41
f 54 56 46
f 54 46 37
f 57 39 48
f 39 38 48
f 58 40 57
f 40 39 57
f 59 41 40
f 59 40 58
f 60 55 41
f 60 41 59
f 42 48 47
f 42 47 43
f 44 57 48
f 44 48 42
f 45 58 57
f 45 57 44
f 46 59 58
f 46 58 45
f 56 60 46
f 60 59 46
f 61 62 50
f 61 50 49
f 63 61 49
f 63 49 51
f 62 64 50
f 64 52 50
f 65 63 53
f 63 51 53
f 64 66 52
f 66 54 52
f 67 65 53
f 67 53 55
f 66 68 54
f 68 56 54
f 69 67 55
f 69 55 60
f 68 69 56
f 69 60 56
f 70 71 61
f 71 62 61
f 70 61 63
f 71 72 62
f 72 64 62
f 73 70 63
f 73 63 65
f 72 74 64
f 74 66 64
f 75 73 67
f 73 65 67
f 74 76 66
f 76 68 66
f 77 75 67
f 77 67 69
f 76 77 68
f 77 69 68
f 70 73 78
f 71 70 78
f 72 71 78
f 74 72 78
f 73 75 78
f 76 74 78
f 75 77 78
f 77 76 78
