# Generated by Visualization Toolkit
v 0.004637000150978565 -0.10104800015687943 -0.03911000117659569
v 0.004947000183165073 -0.10064499825239182 -0.03628399968147278
v 0.0068259998224675655 -0.1061210036277771 -0.03770099952816963
v 0.0074189999140799046 -0.10600399971008301 -0.03890100121498108
v 0.0022780001163482666 -0.09616699814796448 -0.038763001561164856
v 0.0038449999410659075 -0.0951479971408844 -0.03588699921965599
v 0.0020779999904334545 -0.09860099852085114 -0.03943299874663353
v 0.003361999988555908 -0.10371699929237366 -0.038975998759269714
v 0.0013670000480487943 -0.09338700026273727 -0.03968000039458275
v 0.0030380000825971365 -0.10006099939346313 -0.035002999007701874
v 0.005086999852210283 -0.10501600056886673 -0.03525400161743164
v 0.0026539999525994062 -0.09450799971818924 -0.03442300111055374
v 0.0032140000257641077 -0.10975799709558487 -0.0356299988925457
v 0.003498000092804432 -0.10930600017309189 -0.03854399919509888
v 0.002125999890267849 -0.09015700221061707 -0.03873800113797188
v 0.0026579999830573797 -0.0894860029220581 -0.03615900129079819
v 0.0013310000067576766 -0.08807200193405151 -0.039799001067876816
v 0.0020119999535381794 -0.0890519991517067 -0.03386500105261803
v -0.0001849999971454963 -0.09872099757194519 -0.0384880006313324
v 0.0013000000035390258 -0.10389299690723419 -0.03886200115084648
v -0.0012710000155493617 -0.09345299750566483 -0.03841499984264374
v -0.0017559999832883477 -0.08810999989509583 -0.03899800032377243
v 0.0028699999675154686 -0.10205899924039841 -0.030680999159812927
v 0.00573199987411499 -0.10685600340366364 -0.03081499971449375
v 0.0008619999862276018 -0.09667500108480453 -0.030845999717712402
v 0.0028019999153912067 -0.10994900017976761 -0.03354300186038017
v 0.0011449999874457717 -0.09080500155687332 -0.03025900013744831
v 0.0018660000059753656 -0.1096860021352768 -0.03764300048351288
v 0.0021069999784231186 -0.11011800169944763 -0.03222399950027466
v -0.0011050000321120024 -0.10886500030755997 -0.03356099873781204
v -0.0002589999930933118 -0.10488499701023102 -0.03678499907255173
v 0.0026179999113082886 -0.08399199694395065 -0.038874998688697815
v 0.002580000087618828 -0.08371700346469879 -0.03586899861693382
v 0.001272000023163855 -0.08275599777698517 -0.040015000849962234
v 0.001867000013589859 -0.08357200026512146 -0.033323999494314194
v -0.0016570000443607569 -0.0827149972319603 -0.039521001279354095
v 0.0008360000210814178 -0.0850059986114502 -0.029962999746203423
v -0.0011899999808520079 -0.09949299693107605 -0.03617899864912033
v -0.0026179999113082886 -0.09425400197505951 -0.035861000418663025
v -0.0035439999774098396 -0.0889040008187294 -0.03582900017499924
v -0.004015999846160412 -0.08344899863004684 -0.03583599999547005
v 0.000707999977748841 -0.09975100308656693 -0.031092999503016472
v 0.0014850000152364373 -0.10496000200510025 -0.03136099874973297
v 9.999999974752427e-7 -0.09454599767923355 -0.03082999959588051
v -0.0008420000085607171 -0.08930899947881699 -0.030559999868273735
v -0.0014479999663308263 -0.08406899869441986 -0.03017999976873398
v -0.0006270000012591481 -0.10380399972200394 -0.03353000059723854
v -0.0013749999925494194 -0.09887900203466415 -0.03283099830150604
v 0.0034310000482946634 -0.07819999754428864 -0.03896800056099892
v 0.0034409998916089535 -0.07795999944210052 -0.03619199991226196
v 0.0015650000423192978 -0.07749900221824646 -0.04059400036931038
v 0.0024949999060481787 -0.07802499830722809 -0.032917000353336334
v -0.0015269999857991934 -0.07733199745416641 -0.0399710014462471
v 0.001183000043965876 -0.0790959969162941 -0.029834000393748283
v -0.0045369998551905155 -0.078015998005867 -0.03580600023269653
v -0.0006820000126026571 -0.07897000014781952 -0.029218999668955803
v -0.002509000012651086 -0.09395900368690491 -0.03224800154566765
v -0.0033390000462532043 -0.08896200358867645 -0.03215600177645683
v -0.0037219999358057976 -0.08391299843788147 -0.032058000564575195
v -0.004131000023335218 -0.07885599881410599 -0.03192500025033951
v 0.0053460001945495605 -0.07273799926042557 -0.03864600136876106
v 0.006016999948769808 -0.07287000119686127 -0.03611399978399277
v 0.002684999955818057 -0.07237199693918228 -0.04095400124788284
v 0.0055160000920295715 -0.0737060010433197 -0.03203999996185303
v -0.0023610000498592854 -0.07208400219678879 -0.04093199968338013
v 0.003696999978274107 -0.07414299994707108 -0.02842799946665764
v -0.004889999981969595 -0.07257500290870667 -0.03609500080347061
v -0.000678999989759177 -0.07394299656152725 -0.027715999633073807
v -0.004786000121384859 -0.07383400201797485 -0.03180199861526489
v 0.004468000028282404 -0.06700100004673004 -0.03924800083041191
v 0.006089999806135893 -0.0673540011048317 -0.036504000425338745
v 0.0053449999541044235 -0.06821399927139282 -0.03187200054526329
v -0.001769999973475933 -0.06695300340652466 -0.039597999304533005
v 0.004104999825358391 -0.06842599809169769 -0.028162000700831413
v -0.004296000115573406 -0.06726700067520142 -0.035009998828172684
v -0.0003929999948013574 -0.06876599788665771 -0.027560999616980553
v -0.004255999810993671 -0.06884799897670746 -0.031109999865293503
v 0.0015170000260695815 -0.06867799907922745 -0.03444499894976616
f 1 2 3
f 1 3 4
f 5 6 2
f 5 2 1
f 7 1 8
f 1 4 8
f 9 5 7
f 5 1 7
f 2 10 11
f 2 11 3
f 6 12 10
f 6 10 2
f 3 11 13
f 4 3 13
f 13 14 4
f 14 8 4
f 15 16 6
f 15 6 5
f 17 15 9
f 15 5 9
f 16 18 12
f 16 12 6
f 19 7 20
f 7 8 20
f 21 9 19
f 9 7 19
f 8 14 20
f 22 17 21
f 17 9 21
f 10 23 11
f 23 24 11
f 12 25 10
f 25 23 10
f 11 24 26
f 11 26 13
f 18 27 12
f 27 25 12
f 30 28 29
f 28 13 29
f 26 29 13
f 13 28 14
f 31 20 28
f 20 14 28
f 32 33 16
f 32 16 15
f 34 32 17
f 32 15 17
f 33 35 18
f 33 18 16
f 36 34 17
f 36 17 22
f 35 37 18
f 37 27 18
f 38 19 20
f 38 20 31
f 39 21 19
f 39 19 38
f 40 22 21
f 40 21 39
f 41 36 22
f 41 22 40
f 23 42 43
f 23 43 24
f 25 44 42
f 25 42 23
f 24 29 26
f 24 43 29
f 27 45 44
f 27 44 25
f 37 46 45
f 37 45 27
f 47 31 30
f 31 28 30
f 43 47 30
f 43 30 29
f 48 38 47
f 38 31 47
f 49 50 33
f 49 33 32
f 51 49 34
f 49 32 34
f 50 52 33
f 52 35 33
f 53 51 34
f 53 34 36
f 52 54 35
f 54 37 35
f 55 53 36
f 55 36 41
f 54 56 46
f 54 46 37
f 57 39 48
f 39 38 48
f 58 40 57
f 40 39 57
f 59 41 40
f 59 40 58
f 60 55 41
f 60 41 59
f 42 48 47
f 42 47 43
f 44 57 48
f 44 48 42
f 45 58 57
f 45 57 44
f 46 59 58
f 46 58 45
f 56 60 46
f 60 59 46
f 61 62 50
f 61 50 49
f 63 61 49
f 63 49 51
f 62 64 50
f 64 52 50
f 65 63 53
f 63 51 53
f 64 66 52
f 66 54 52
f 67 65 53
f 67 53 55
f 66 68 54
f 68 56 54
f 69 67 55
f 69 55 60
f 68 69 56
f 69 60 56
f 70 71 61
f 71 62 61
f 70 61 63
f 71 72 62
f 72 64 62
f 73 70 63
f 73 63 65
f 72 74 64
f 74 66 64
f 75 73 67
f 73 65 67
f 74 76 66
f 76 68 66
f 77 75 67
f 77 67 69
f 76 77 68
f 77 69 68
f 70 73 78
f 71 70 78
f 72 71 78
f 74 72 78
f 73 75 78
f 76 74 78
f 75 77 78
f 77 76 78
