# Generated by Visualization Toolkit
v 0.00443200021982193 -0.13297200202941895 -0.001142999972216785
v 0.003539999946951866 -0.13329699635505676 -0.007439999841153622
v -0.0017269999952986836 -0.13389000296592712 -0.011988000012934208
v -0.006459999829530716 -0.13385699689388275 -0.007120999973267317
v -0.006039999891072512 -0.13367600739002228 -0.0020039998926222324
v -0.00005900000178371556 -0.16539700329303741 -0.003169999923557043
v 0.002346999943256378 -0.13845700025558472 -0.0008559999987483025
v 0.0023219999857246876 -0.13853999972343445 -0.006196000147610903
v -0.00029200001154094934 -0.13284100592136383 0.0014059999957680702
v -0.00036800000816583633 -0.13781499862670898 0.00101500004529953
v -0.0007259999983943999 -0.13932999968528748 -0.010804999619722366
v -0.005543000064790249 -0.1391499936580658 -0.0065460000187158585
v -0.005158999934792519 -0.13879099488258362 -0.0022330000065267086
v 0.0032309999223798513 -0.164341002702713 -0.0001849999971454963
v 0.0008490000036545098 -0.1636430025100708 0.0007060000207275152
v -0.000455000001238659 -0.16505199670791626 -0.0030350000597536564
v -0.0029140000697225332 -0.1604599952697754 -0.003232999937608838
v 0.0016629999736323953 -0.1620669960975647 -0.006682000122964382
v 0.00408599991351366 -0.15985499322414398 -0.002073999959975481
v 0.00184599997010082 -0.14414800703525543 -0.0005009999731555581
v 0.0012280000373721123 -0.14379599690437317 -0.0047610001638531685
v -0.00028199999360367656 -0.14301900565624237 0.0007769999792799354
v -0.0007719999994151294 -0.1448580026626587 -0.00871300045400858
v -0.003911000210791826 -0.14368599653244019 -0.0009529999806545675
v -0.004575000144541264 -0.14443500339984894 -0.00609700009226799
v 0.006914000026881695 -0.1600620001554489 0.0018469999777153134
v 0.0031469999812543392 -0.16335399448871613 0.0029909999575465918
v 0.0016370000084862113 -0.1634249985218048 0.00267999991774559
v 0.001272000023163855 -0.15827499330043793 0.0022869999520480633
v -0.0014019999653100967 -0.1591069996356964 -0.00014800000644754618
v -0.0024870000779628754 -0.15401899814605713 -9.999999974752427e-7
v -0.0037380000576376915 -0.15509699285030365 -0.004052000120282173
v 0.0005430000019259751 -0.15633299946784973 -0.0058559998869895935
v 0.0024939998984336853 -0.1545419991016388 -0.0029990000184625387
v 0.003911000210791826 -0.15558099746704102 0.0015920000150799751
v 0.0022730000782757998 -0.15025800466537476 0.0006960000027902424
v 0.0013409999664872885 -0.1492609977722168 -0.003926000092178583
v -0.00042100000428035855 -0.1481509953737259 0.0010049999691545963
v -0.0005680000176653266 -0.15069399774074554 -0.007459999993443489
v -0.0030670000705868006 -0.14876699447631836 -0.000058000001445179805
v -0.004083000123500824 -0.14973899722099304 -0.0049310000613331795
v 0.0004780000017490238 -0.15319499373435974 0.0016820000018924475
f 6 1 5
f 1 2 5
f 2 3 5
f 4 5 3
f 2 1 8
f 1 7 8
f 1 9 7
f 9 10 7
f 3 2 11
f 2 8 11
f 4 3 12
f 3 11 12
f 5 4 13
f 4 12 13
f 9 5 10
f 5 13 10
f 6 14 15
f 6 15 16
f 17 18 16
f 18 6 16
f 18 19 6
f 19 14 6
f 8 7 21
f 7 20 21
f 7 10 22
f 7 22 20
f 11 8 23
f 8 21 23
f 10 13 22
f 13 24 22
f 12 11 23
f 12 23 25
f 13 12 25
f 13 25 24
f 19 26 14
f 26 27 14
f 14 27 15
f 27 28 15
f 29 30 15
f 29 15 28
f 30 17 15
f 17 16 15
f 31 32 30
f 32 17 30
f 32 33 17
f 33 18 17
f 33 34 19
f 33 19 18
f 34 35 19
f 35 26 19
f 21 20 37
f 20 36 37
f 20 22 38
f 20 38 36
f 23 21 37
f 23 37 39
f 22 24 38
f 24 40 38
f 25 23 41
f 23 39 41
f 24 25 41
f 24 41 40
f 26 29 27
f 29 28 27
f 35 42 29
f 35 29 26
f 42 31 29
f 31 30 29
f 38 40 42
f 40 31 42
f 40 41 31
f 41 32 31
f 41 39 32
f 39 33 32
f 39 37 34
f 39 34 33
f 37 36 34
f 36 35 34
f 36 38 42
f 36 42 35
