# Generated by Visualization Toolkit
v -0.013275000266730785 -0.0036959999706596136 0.007151999976485968
v -0.011963999830186367 0.0013790000230073929 0.007464999798685312
v -0.009459000080823898 -0.0012440000427886844 0.003720999928191304
v -0.010897999629378319 -0.005588999949395657 0.0024029999040067196
v -0.013024000450968742 -0.006364000029861927 0.010091000236570835
v -0.01217699982225895 -0.0025530001148581505 0.012365000322461128
v -0.010014999657869339 -0.007600999902933836 0.005919000133872032
v -0.0055240001529455185 0.004935000091791153 0.005516999866813421
v -0.005111999809741974 -0.00042699999175965786 0.002957999939098954
v -0.007466999813914299 0.003745000110939145 0.010792000219225883
v -0.0068339998833835125 -0.005565000232309103 -0.0010779999429360032
v -0.006111999973654747 -0.008138000033795834 0.002778999973088503
v -0.009080000221729279 -0.00894199963659048 0.009734000079333782
v -0.011881999671459198 -0.007716999854892492 0.012412000447511673
v -0.01091499999165535 -0.005934999790042639 0.014671999961137772
v -0.007178000174462795 -0.0015999999595806003 0.015782000496983528
v -0.005123000126332045 -0.010576000437140465 0.009058999828994274
v 0.00020599999697878957 0.0028810000512748957 0.00711800018325448
v -0.0014860000228509307 -0.000012000000424450263 0.0038010000716894865
v -0.0009120000177063048 0.00227600010111928 0.011908000335097313
v -0.002061000093817711 -0.004757999908179045 -0.002455000067129731
v 0.0019030000548809767 -0.003771000076085329 0.001297999988310039
v -0.001576000009663403 -0.002655999967828393 0.015783000737428665
v -0.0019990000873804092 -0.008586999960243702 0.0024850000627338886
v -0.0005549999768845737 -0.010649999603629112 0.009069000370800495
v -0.007555000018328428 -0.014317000284790993 0.015275999903678894
v -0.010259999893605709 -0.012993000447750092 0.017116999253630638
v -0.00430600019171834 -0.014534999616444111 0.0136329997330904
v -0.009828000329434872 -0.011366000398993492 0.018871000036597252
v -0.0056859999895095825 -0.008604999631643295 0.021335000172257423
v -0.0013279999839141965 -0.007782999891787767 0.020573999732732773
v -0.0007559999939985573 -0.01485500019043684 0.01459100004285574
v 0.002394000068306923 -0.0010489999549463391 0.006643999833613634
v 0.0026710000820457935 -0.0027069998905062675 0.011222000233829021
v 0.0020840000361204147 -0.005688000004738569 0.014041000045835972
v 0.00029399999766610563 -0.008849999867379665 0.005272999871522188
v 0.002749999985098839 -0.009255999699234962 0.018647000193595886
v -0.005987999960780144 -0.024546999484300613 0.024118000641465187
v -0.008333999663591385 -0.023888999596238136 0.02510800026357174
v -0.0028329999186098576 -0.024872999638319016 0.023319000378251076
v -0.008983000181615353 -0.021782999858260155 0.02680099941790104
v 0.0011249999515712261 -0.024306999519467354 0.023778999224305153
v -0.003593999892473221 -0.019301999360322952 0.02996799908578396
v 0.0005029999883845448 -0.01913199946284294 0.030393999069929123
v 0.00443200021982193 -0.020212000235915184 0.02848299965262413
v -0.0031969998963177204 -0.03242500126361847 0.0296580009162426
v -0.005683000199496746 -0.03301199898123741 0.03119100071489811
v -0.007664999924600124 -0.03266200050711632 0.033854998648166656
v -0.0067369998432695866 -0.03030500002205372 0.036531999707221985
v 0.002529999939724803 -0.030771000310778618 0.029659999534487724
v -0.0017810000572353601 -0.026845000684261322 0.03824400156736374
v 0.005450000055134296 -0.02594500035047531 0.035319000482559204
v 0.002400999888777733 -0.02571599930524826 0.03767099976539612
v -0.003155000042170286 -0.040189001709222794 0.031785998493433
v -0.005140999797731638 -0.039847999811172485 0.0344420000910759
v 0.00046800001291558146 -0.03761700168251991 0.033775001764297485
v 0.004654000047594309 -0.0358630008995533 0.03293199837207794
v -0.00737100001424551 -0.03678400069475174 0.03789300099015236
v -0.006773999892175198 -0.03213600069284439 0.03937600180506706
v -0.0011790000135079026 -0.02977599948644638 0.0416410006582737
v 0.007029000204056501 -0.034685999155044556 0.030709000304341316
v 0.0068430001847445965 -0.032235998660326004 0.034866999834775925
v 0.007234000135213137 -0.028543999418616295 0.03920299932360649
v 0.0030950000509619713 -0.028426000848412514 0.041241999715566635
v 0.0021039999555796385 -0.040247999131679535 0.03523600101470947
v -0.0017219999572262168 -0.043175000697374344 0.03378299996256828
v -0.0037400000728666782 -0.04262100160121918 0.03824499994516373
v -0.005022999830543995 -0.038123998790979385 0.04194200038909912
v 0.00646300008520484 -0.03866500034928322 0.03502200171351433
v 0.00891599990427494 -0.03717000037431717 0.03386799991130829
v -0.006486999802291393 -0.03420399874448776 0.04236900061368942
v -0.0015490000369027257 -0.031975001096725464 0.04462200030684471
v 0.0037239999510347843 -0.03012000024318695 0.044084999710321426
v 0.00866399984806776 -0.03646700084209442 0.03773299977183342
v 0.00800899975001812 -0.03234900161623955 0.04260599985718727
v 0.005518999882042408 -0.030169999226927757 0.043724000453948975
v 0.0013150000013411045 -0.04098900035023689 0.03915400058031082
v 0.005917000118643045 -0.0378200002014637 0.0398700013756752
v -0.001323999953456223 -0.037271998822689056 0.04403200000524521
v 0.004714000038802624 -0.03371499851346016 0.04402200132608414
f 1 2 3
f 3 4 1
f 2 1 6
f 1 5 6
f 1 4 7
f 1 7 5
f 8 9 3
f 8 3 2
f 8 2 10
f 2 6 10
f 4 3 11
f 3 9 11
f 12 7 4
f 12 4 11
f 5 7 13
f 5 13 14
f 5 14 15
f 5 15 6
f 16 10 6
f 16 6 15
f 17 13 7
f 17 7 12
f 18 19 8
f 19 9 8
f 18 8 20
f 8 10 20
f 11 9 21
f 21 9 19
f 21 19 22
f 20 10 16
f 20 16 23
f 11 21 24
f 11 24 12
f 12 24 17
f 24 25 17
f 14 13 26
f 14 26 27
f 17 28 26
f 17 26 13
f 29 15 27
f 15 14 27
f 16 15 30
f 15 29 30
f 23 16 30
f 23 30 31
f 17 25 28
f 25 32 28
f 33 19 18
f 33 18 20
f 33 20 34
f 22 19 33
f 20 23 34
f 23 35 34
f 21 22 24
f 22 36 24
f 34 36 33
f 36 22 33
f 35 23 31
f 35 31 37
f 36 25 24
f 37 32 35
f 32 25 35
f 25 36 34
f 25 34 35
f 27 26 39
f 26 38 39
f 40 38 26
f 40 26 28
f 41 29 27
f 41 27 39
f 28 32 40
f 32 42 40
f 30 29 41
f 30 41 43
f 31 30 43
f 31 43 44
f 37 31 44
f 37 44 45
f 45 42 32
f 45 32 37
f 46 47 38
f 46 38 40
f 47 48 39
f 47 39 38
f 41 39 48
f 41 48 49
f 50 46 40
f 50 40 42
f 49 51 43
f 49 43 41
f 52 50 45
f 50 42 45
f 44 43 51
f 44 51 53
f 53 52 44
f 52 45 44
f 54 55 46
f 46 56 54
f 57 56 50
f 56 46 50
f 46 55 47
f 55 58 48
f 55 48 47
f 49 48 59
f 48 58 59
f 59 60 51
f 59 51 49
f 50 61 57
f 61 50 62
f 62 50 52
f 62 52 63
f 53 51 64
f 51 60 64
f 64 63 53
f 63 52 53
f 56 65 66
f 56 66 54
f 54 66 55
f 66 67 55
f 55 68 58
f 67 68 55
f 69 65 57
f 65 56 57
f 57 61 70
f 57 70 69
f 58 71 59
f 58 68 71
f 71 72 60
f 71 60 59
f 64 60 73
f 60 72 73
f 74 70 62
f 70 61 62
f 75 74 62
f 75 62 63
f 76 75 63
f 64 73 76
f 64 76 63
f 67 66 77
f 66 65 77
f 77 65 78
f 65 69 78
f 77 79 68
f 77 68 67
f 79 72 71
f 79 71 68
f 78 69 74
f 69 70 74
f 73 72 80
f 72 79 80
f 80 75 76
f 80 76 73
f 74 75 78
f 75 80 78
f 78 80 79
f 78 79 77
