# Generated by Visualization Toolkit
v -0.0054259998723864555 -0.0672760009765625 0.047839999198913574
v -0.010468999855220318 -0.0708099976181984 0.04977000132203102
v -0.006657999940216541 -0.07206600159406662 0.048854999244213104
v 0.0023300000466406345 -0.0691170021891594 0.04990899935364723
v -0.0023670000955462456 -0.07139900326728821 0.04876000061631203
v -0.005574999842792749 -0.07392100244760513 0.04988599941134453
v -0.0078959995880723 -0.06561700254678726 0.04805399850010872
v -0.0053530000150203705 -0.06055299937725067 0.04618600010871887
v -0.0013419999741017818 -0.06476899981498718 0.047873999923467636
v -0.007584999781101942 -0.0723159983754158 0.0394430011510849
v -0.0070859999395906925 -0.07401099801063538 0.045437999069690704
v -0.005160999950021505 -0.07625800371170044 0.047922998666763306
v -0.010335000231862068 -0.06382899731397629 0.04842099919915199
v -0.009441000409424305 -0.06836500018835068 0.04333300143480301
v 0.00343000004068017 -0.07129699736833572 0.04738999903202057
v 0.0009399999980814755 -0.07301999628543854 0.047777000814676285
v -0.0007989999721758068 -0.07528100162744522 0.047405000776052475
v 0.003082999959588051 -0.06212799996137619 0.047561001032590866
v 0.0032450000289827585 -0.06693500280380249 0.047224000096321106
v -0.0026660000439733267 -0.07616599649190903 0.045090001076459885
v -0.008274000138044357 -0.05910800024867058 0.045538999140262604
v -0.006289999932050705 -0.054283998906612396 0.04333199933171272
v -0.00203699991106987 -0.05837700143456459 0.045069001615047455
v -0.0035500000230968 -0.07261200249195099 0.03708000108599663
v -0.005276000127196312 -0.07468000054359436 0.04092499986290932
v -0.0051310001872479916 -0.07665800303220749 0.04461799934506416
v -0.00937500037252903 -0.06650400161743164 0.035698000341653824
v -0.005886999890208244 -0.0694499984383583 0.03647200018167496
v -0.011118000373244286 -0.05776499956846237 0.04421599954366684
v -0.010191000066697598 -0.06193599849939346 0.0405149981379509
v 0.004871000070124865 -0.07210599631071091 0.03968999907374382
v -0.00024199999461416155 -0.07696899771690369 0.04127899929881096
v -0.0012000000569969416 -0.07638400048017502 0.046404000371694565
v 0.004135999828577042 -0.06519799679517746 0.04403400048613548
v 0.004581000190228224 -0.06859499961137772 0.04224799945950508
v 0.00041099998634308577 -0.05654200166463852 0.04319699853658676
v 0.002268000040203333 -0.0605739988386631 0.04404300078749657
v 0.00015700000221841037 -0.07650300115346909 0.03933100029826164
v -0.00483699981123209 -0.07713399827480316 0.0425570011138916
v -0.00903099961578846 -0.05285000056028366 0.042118001729249954
v -0.007275000214576721 -0.0480399988591671 0.04030400142073631
v -0.0038980001118034124 -0.05232200026512146 0.04165000095963478
v 0.004544000141322613 -0.07258100062608719 0.03510899841785431
v -0.0009219999774359167 -0.07470700144767761 0.0385189987719059
v -0.003037000074982643 -0.06637000292539597 0.0336650013923645
v 0.0005440000095404685 -0.06929799914360046 0.03477099910378456
v -0.00993799977004528 -0.059647999703884125 0.03372599929571152
v -0.006787000223994255 -0.06301899999380112 0.033713001757860184
v -0.011442000046372414 -0.05130999907851219 0.040619999170303345
v -0.010703000240027905 -0.055316001176834106 0.037721000611782074
v 0.0023320000618696213 -0.07453999668359756 0.03885199874639511
v 0.005886999890208244 -0.06577900052070618 0.03787999972701073
v 0.004879999905824661 -0.069023996591568 0.03647800162434578
v 0.0014410000294446945 -0.058428000658750534 0.04137900099158287
v 0.003323999932035804 -0.062217000871896744 0.04008699953556061
v -0.0024399999529123306 -0.05042099952697754 0.039767999202013016
v -0.00029600001289509237 -0.054350998252630234 0.04077399894595146
v -0.00957299955189228 -0.04642900079488754 0.03895699977874756
v -0.007559000048786402 -0.041547998785972595 0.03781000152230263
v -0.005257999990135431 -0.04585399851202965 0.038823001086711884
v 0.004217999987304211 -0.06562799960374832 0.03323199972510338
v -0.004796000197529793 -0.059553999453783035 0.03176400065422058
v -0.001184999942779541 -0.06316400319337845 0.03330399841070175
v -0.0103150000795722 -0.05254099890589714 0.03232000023126602
v -0.008071999996900558 -0.05620399862527847 0.03188500180840492
v -0.012014999985694885 -0.04481999948620796 0.03709299862384796
v -0.011212999932467937 -0.04856700077652931 0.03517499938607216
v 0.001832999987527728 -0.059463001787662506 0.037053998559713364
v 0.0027030000928789377 -0.06299400329589844 0.035679999738931656
v -0.0005970000056549907 -0.052014000713825226 0.038752999156713486
v 0.00029399999766610563 -0.055945999920368195 0.03784500062465668
v -0.0037589999847114086 -0.04340900108218193 0.037411000579595566
v -0.002078999998047948 -0.04788300022482872 0.03777899965643883
v -0.009664000011980534 -0.03986600041389465 0.0361189991235733
v -0.0071470001712441444 -0.035041000694036484 0.035395000129938126
v -0.005462999921292067 -0.03914399817585945 0.03623899817466736
v -0.0011269999668002129 -0.06110500171780586 0.03455499932169914
v -0.00723899994045496 -0.053070999681949615 0.02973099984228611
v -0.004036999773234129 -0.05692100152373314 0.03212299942970276
v -0.011082000099122524 -0.04559899866580963 0.03066899999976158
v -0.009488999843597412 -0.049368999898433685 0.030334999784827232
v -0.011934000067412853 -0.038054998964071274 0.034178998321294785
v -0.011642999947071075 -0.04179900139570236 0.032666999846696854
v -0.0015010000206530094 -0.0538799986243248 0.034196000546216965
v -0.0009459999855607748 -0.05710100010037422 0.03456199914216995
v -0.0015190000412985682 -0.045687999576330185 0.03518500179052353
v -0.0015369999455288053 -0.04975999891757965 0.03487199917435646
v -0.003386999946087599 -0.03657799959182739 0.034341000020504
v -0.0026320000179111958 -0.04116300120949745 0.03478400036692619
v -0.009139000438153744 -0.03317800164222717 0.033601000905036926
v -0.00636200001463294 -0.0285630002617836 0.03298100084066391
v -0.004844999872148037 -0.03243299946188927 0.03364799916744232
v -0.0029879999347031116 -0.05395499989390373 0.03244100138545036
v -0.009318999946117401 -0.04626300185918808 0.02861800044775009
v -0.005890999920666218 -0.05006999894976616 0.030084999278187752
v -0.011543000116944313 -0.0387209989130497 0.0287260003387928
v -0.010515999980270863 -0.04244599863886833 0.028855999931693077
v -0.011113000102341175 -0.03105499967932701 0.03185100108385086
v -0.011502999812364578 -0.03492100164294243 0.030344000086188316
v -0.002529999939724803 -0.04746000096201897 0.03135399892926216
v -0.002759000053629279 -0.05057099834084511 0.03188500180840492
v -0.0018629999831318855 -0.03897700086236 0.032196998596191406
v -0.0021200000774115324 -0.04316899925470352 0.03189000114798546
v -0.002483000047504902 -0.029549000784754753 0.03187600150704384
v -0.0023759999312460423 -0.034240998327732086 0.03218400105834007
v -0.008352000266313553 -0.0264040008187294 0.031362999230623245
v -0.005799000151455402 -0.02194100059568882 0.030944999307394028
v -0.0042039998807013035 -0.02554900012910366 0.03164700046181679
v -0.004019000101834536 -0.046991001814603806 0.029548000544309616
v -0.010120999999344349 -0.0392020009458065 0.027411000803112984
v -0.007060999982059002 -0.04321099817752838 0.028105000033974648
v -0.011423000134527683 -0.03185199946165085 0.026619000360369682
v -0.010746000334620476 -0.03549199923872948 0.027070999145507812
v -0.010134999640285969 -0.02405799925327301 0.029673999175429344
v -0.010885000228881836 -0.027990000322461128 0.02817700058221817
v -0.0025679999962449074 -0.04055099934339523 0.028821999207139015
v -0.0034749999176710844 -0.04384800046682358 0.029141999781131744
v -0.0017709999810904264 -0.03186199814081192 0.030323000624775887
v -0.002220999915152788 -0.03622699901461601 0.029524000361561775
v -0.002171000000089407 -0.022143999114632607 0.030787000432610512
v -0.0018319999799132347 -0.02707800082862377 0.03041600063443184
v -0.007658000104129314 -0.019540999084711075 0.029407000169157982
v -0.0054410002194345 -0.015163999982178211 0.029393000528216362
v -0.004027999937534332 -0.018505999818444252 0.030251000076532364
v -0.004782999865710735 -0.04038900136947632 0.026843000203371048
v -0.009897000156342983 -0.032193999737501144 0.02552800066769123
v -0.007402000017464161 -0.036313001066446304 0.026052000001072884
v -0.010870000347495079 -0.024995999410748482 0.02456500008702278
v -0.010347999632358551 -0.02860100008547306 0.024995999410748482
v -0.009255999699234962 -0.017002999782562256 0.027614999562501907
v -0.010138999670743942 -0.021038999781012535 0.02613000012934208
v -0.00267999991774559 -0.03351699933409691 0.026753000915050507
v -0.0037090000696480274 -0.036981001496315 0.026711000129580498
v -0.0009050000226125121 -0.024757999926805496 0.028676999732851982
v -0.001921999966725707 -0.0291959997266531 0.027638999745249748
v -0.0027000000700354576 -0.014775999821722507 0.029877999797463417
v -0.001386999967508018 -0.019881000742316246 0.02893799915909767
v -0.007182000204920769 -0.012613000348210335 0.027670999988913536
v -0.00496299983933568 -0.008314000442624092 0.028263000771403313
v -0.003831000067293644 -0.011355999857187271 0.02899100072681904
v -0.004805999808013439 -0.03346699848771095 0.02442600019276142
v -0.009202999994158745 -0.02536099962890148 0.023269999772310257
v -0.006978000048547983 -0.029360000044107437 0.02385300025343895
v -0.010294999927282333 -0.018100999295711517 0.022664999589323997
v -0.009707000106573105 -0.021755000576376915 0.022857999429106712
v -0.009065999649465084 -0.009970000013709068 0.025411000475287437
v -0.009673000313341618 -0.014054999686777592 0.024150999262928963
v -0.0023320000618696213 -0.026645999401807785 0.024802999570965767
v -0.003456000005826354 -0.03001200035214424 0.024543000385165215
v 0.0002280000044265762 -0.017847999930381775 0.02641100063920021
v -0.0008999999845400453 -0.022332999855279922 0.02556299977004528
v -0.0022189998999238014 -0.007170999888330698 0.028428999707102776
v -0.0007650000043213367 -0.01269499957561493 0.027242999523878098
v -0.007079999893903732 -0.005708000157028437 0.025736000388860703
v -0.004997999873012304 -0.0015069999499246478 0.026843000203371048
v -0.002643000101670623 -0.0044999998062849045 0.027939999476075172
v -0.004007000010460615 -0.026419000700116158 0.02218800038099289
v -0.008458999916911125 -0.01856200024485588 0.0209330003708601
v -0.006066000089049339 -0.022463999688625336 0.021560000255703926
v -0.010075000114738941 -0.011144000105559826 0.020914999768137932
v -0.009190999902784824 -0.014915999956429005 0.020698999986052513
v -0.009294000454246998 -0.0030410001054406166 0.022425999864935875
v -0.009682999923825264 -0.007137000095099211 0.021810999140143394
v -0.0005920000257901847 -0.020082000643014908 0.022362999618053436
v -0.002380999969318509 -0.023166000843048096 0.022300999611616135
v 0.0016299999551847577 -0.010982999578118324 0.024255000054836273
v 0.0005370000144466758 -0.015627000480890274 0.02315800078213215
v 0.0016070000128820539 -0.001006999984383583 0.02822599932551384
v 0.0013849999522790313 -0.00585199985653162 0.026257000863552094
v -0.006147999782115221 0.001551999943330884 0.024831999093294144
v -0.0039160000160336494 0.004935000091791153 0.026688000187277794
v -0.000770999991800636 0.0013699999544769526 0.02710700035095215
v -0.0025949999690055847 -0.019516000524163246 0.019850999116897583
v -0.007935999892652035 -0.011858999729156494 0.018283000215888023
v -0.005216999910771847 -0.015751000493764877 0.01891300082206726
v -0.010294999927282333 -0.004393000155687332 0.018492000177502632
v -0.009084999561309814 -0.008222999982535839 0.01813500002026558
v -0.006382999941706657 0.005820999853312969 0.02336999960243702
v -0.008813000284135342 0.0001289999927394092 0.020194999873638153
v 0.000881000014487654 -0.013596000149846077 0.019603999331593513
v -0.0010460000485181808 -0.016565000638365746 0.01960100047290325
v 0.004523000214248896 -0.004246000200510025 0.02411700040102005
v 0.002455000067129731 -0.009062999859452248 0.021093999966979027
v 0.004222000017762184 0.0030590000096708536 0.026670999825000763
v 0.003886000020429492 0.00011300000187475234 0.025544999167323112
v -0.003102000104263425 0.003872999921441078 0.01971299946308136
v -0.0018779999809339643 -0.013067999854683876 0.016586000099778175
v -0.008034000173211098 -0.005495999939739704 0.014852000400424004
v -0.005051999818533659 -0.009207000024616718 0.015793999657034874
v -0.009279999881982803 0.0021299999207258224 0.016491999849677086
v -0.00899800006300211 -0.0015569999814033508 0.01599700003862381
v 0.002788000041618943 -0.007426000200212002 0.016398999840021133
v -0.00014200000441633165 -0.010123999789357185 0.01651100069284439
v 0.005189999938011169 0.0026469998992979527 0.023166000843048096
v 0.003932999912649393 -0.0023930000606924295 0.0195700004696846
v 0.003671000013127923 0.002633000025525689 0.012729999609291553
v -0.0036609999369829893 0.0032510000746697187 0.012264000251889229
v -0.008383000269532204 0.0015300000086426735 0.014154000207781792
v -0.0023610000498592854 -0.006405999884009361 0.013454999774694443
v -0.005609999876469374 -0.0021440000273287296 0.013678999617695808
v -0.0009069999796338379 -0.0032760000322014093 0.013015000149607658
f 1 2 3
f 4 1 5
f 6 1 3
f 2 1 7
f 1 8 7
f 1 6 5
f 8 1 9
f 1 4 9
f 2 10 11
f 2 12 3
f 13 2 7
f 12 2 11
f 10 2 14
f 2 13 14
f 12 6 3
f 15 4 16
f 4 17 16
f 18 4 19
f 4 15 19
f 17 4 5
f 4 18 9
f 6 17 5
f 6 12 20
f 17 6 20
f 8 13 7
f 18 8 9
f 13 8 21
f 8 22 21
f 22 8 23
f 8 18 23
f 10 24 25
f 10 26 11
f 27 10 14
f 26 10 25
f 24 10 28
f 10 27 28
f 26 12 11
f 12 26 20
f 13 27 14
f 29 13 21
f 27 13 30
f 13 29 30
f 31 15 32
f 33 32 15
f 34 15 35
f 15 31 35
f 33 15 16
f 15 34 19
f 17 33 16
f 33 17 20
f 34 18 19
f 36 18 37
f 18 34 37
f 18 36 23
f 32 33 20
f 38 32 20
f 39 38 20
f 26 39 20
f 22 29 21
f 36 22 23
f 29 22 40
f 22 41 40
f 41 22 42
f 22 36 42
f 24 43 44
f 24 39 25
f 45 24 28
f 39 24 44
f 43 24 46
f 24 45 46
f 39 26 25
f 27 45 28
f 47 27 30
f 45 27 48
f 27 47 48
f 29 47 30
f 49 29 40
f 47 29 50
f 29 49 50
f 43 31 51
f 31 32 51
f 52 31 53
f 31 43 53
f 31 52 35
f 32 38 51
f 52 34 35
f 54 34 55
f 34 52 55
f 34 54 37
f 54 36 37
f 56 36 57
f 36 54 57
f 36 56 42
f 43 38 44
f 38 39 44
f 38 43 51
f 41 49 40
f 56 41 42
f 49 41 58
f 41 59 58
f 59 41 60
f 41 56 60
f 61 43 46
f 43 61 53
f 45 61 46
f 62 45 48
f 61 45 63
f 45 62 63
f 47 62 48
f 64 47 50
f 62 47 65
f 47 64 65
f 49 64 50
f 66 49 58
f 64 49 67
f 49 66 67
f 61 52 53
f 68 52 69
f 52 61 69
f 52 68 55
f 68 54 55
f 70 54 71
f 54 68 71
f 54 70 57
f 70 56 57
f 72 56 73
f 56 70 73
f 56 72 60
f 59 66 58
f 72 59 60
f 66 59 74
f 59 75 74
f 75 59 76
f 59 72 76
f 77 61 63
f 61 77 69
f 62 77 63
f 78 62 65
f 77 62 79
f 62 78 79
f 64 78 65
f 80 64 67
f 78 64 81
f 64 80 81
f 66 80 67
f 82 66 74
f 80 66 83
f 66 82 83
f 77 68 69
f 84 68 85
f 68 77 85
f 68 84 71
f 84 70 71
f 86 70 87
f 70 84 87
f 70 86 73
f 86 72 73
f 88 72 89
f 72 86 89
f 72 88 76
f 75 82 74
f 88 75 76
f 82 75 90
f 75 91 90
f 91 75 92
f 75 88 92
f 93 77 79
f 77 93 85
f 78 93 79
f 94 78 81
f 93 78 95
f 78 94 95
f 80 94 81
f 96 80 83
f 94 80 97
f 80 96 97
f 82 96 83
f 98 82 90
f 96 82 99
f 82 98 99
f 93 84 85
f 100 84 101
f 84 93 101
f 84 100 87
f 100 86 87
f 102 86 103
f 86 100 103
f 86 102 89
f 102 88 89
f 104 88 105
f 88 102 105
f 88 104 92
f 91 98 90
f 104 91 92
f 98 91 106
f 91 107 106
f 107 91 108
f 91 104 108
f 109 93 95
f 93 109 101
f 94 109 95
f 110 94 97
f 109 94 111
f 94 110 111
f 96 110 97
f 112 96 99
f 110 96 113
f 96 112 113
f 98 112 99
f 114 98 106
f 112 98 115
f 98 114 115
f 109 100 101
f 116 100 117
f 100 109 117
f 100 116 103
f 116 102 103
f 118 102 119
f 102 116 119
f 102 118 105
f 118 104 105
f 120 104 121
f 104 118 121
f 104 120 108
f 107 114 106
f 120 107 108
f 114 107 122
f 107 123 122
f 123 107 124
f 107 120 124
f 125 109 111
f 109 125 117
f 110 125 111
f 126 110 113
f 125 110 127
f 110 126 127
f 112 126 113
f 128 112 115
f 126 112 129
f 112 128 129
f 114 128 115
f 130 114 122
f 128 114 131
f 114 130 131
f 125 116 117
f 132 116 133
f 116 125 133
f 116 132 119
f 132 118 119
f 134 118 135
f 118 132 135
f 118 134 121
f 134 120 121
f 136 120 137
f 120 134 137
f 120 136 124
f 123 130 122
f 136 123 124
f 130 123 138
f 123 139 138
f 139 123 140
f 123 136 140
f 141 125 127
f 125 141 133
f 126 141 127
f 142 126 129
f 141 126 143
f 126 142 143
f 128 142 129
f 144 128 131
f 142 128 145
f 128 144 145
f 130 144 131
f 146 130 138
f 144 130 147
f 130 146 147
f 141 132 133
f 148 132 149
f 132 141 149
f 132 148 135
f 148 134 135
f 150 134 151
f 134 148 151
f 134 150 137
f 150 136 137
f 152 136 153
f 136 150 153
f 136 152 140
f 139 146 138
f 152 139 140
f 146 139 154
f 139 155 154
f 155 139 156
f 139 152 156
f 157 141 143
f 141 157 149
f 142 157 143
f 158 142 145
f 157 142 159
f 142 158 159
f 144 158 145
f 160 144 147
f 158 144 161
f 144 160 161
f 146 160 147
f 162 146 154
f 160 146 163
f 146 162 163
f 157 148 149
f 164 148 165
f 148 157 165
f 148 164 151
f 164 150 151
f 166 150 167
f 150 164 167
f 150 166 153
f 166 152 153
f 168 152 169
f 152 166 169
f 152 168 156
f 155 162 154
f 168 155 156
f 162 155 170
f 155 171 170
f 171 155 172
f 155 168 172
f 173 157 159
f 157 173 165
f 158 173 159
f 174 158 161
f 173 158 175
f 158 174 175
f 160 174 161
f 176 160 163
f 174 160 177
f 160 176 177
f 162 176 163
f 178 162 170
f 176 162 179
f 162 178 179
f 173 164 165
f 180 164 181
f 164 173 181
f 164 180 167
f 180 166 167
f 182 166 183
f 166 180 183
f 166 182 169
f 182 168 169
f 184 168 185
f 168 182 185
f 168 184 172
f 171 178 170
f 184 171 172
f 186 178 171
f 186 171 184
f 187 173 175
f 173 187 181
f 174 187 175
f 188 174 177
f 187 174 189
f 174 188 189
f 176 188 177
f 190 176 179
f 188 176 191
f 176 190 191
f 178 190 179
f 186 190 178
f 187 180 181
f 192 180 193
f 180 187 193
f 180 192 183
f 192 182 183
f 194 182 195
f 182 192 195
f 182 194 185
f 194 184 185
f 186 184 194
f 186 194 196
f 186 196 197
f 186 197 198
f 186 198 190
f 199 187 189
f 187 199 193
f 188 199 189
f 198 188 191
f 199 188 200
f 188 198 200
f 190 198 191
f 199 192 193
f 196 192 201
f 192 199 201
f 192 196 195
f 196 194 195
f 197 196 201
f 198 197 200
f 197 199 200
f 199 197 201
