# Generated by Visualization Toolkit
v -0.004000000189989805 -0.12484999746084213 0.014303999952971935
v -0.0035520000383257866 -0.12393300235271454 0.017663000151515007
v -0.0017969999462366104 -0.1312139928340912 0.01678900048136711
v -0.0010779999429360032 -0.13130700588226318 0.015318999998271465
v -0.006407999899238348 -0.11844000220298767 0.01397399976849556
v -0.004372000228613615 -0.11685600131750107 0.017299000173807144
v -0.006887999828904867 -0.12158799916505814 0.013535999692976475
v -0.005801999941468239 -0.12807099521160126 0.014876999892294407
v -0.0072650001384317875 -0.11500199884176254 0.01243599969893694
v -0.005805999971926212 -0.12282700091600418 0.01912499964237213
v -0.003780999919399619 -0.1292870044708252 0.019582999870181084
v -0.005743999965488911 -0.11571499705314636 0.018974000588059425
v -0.006512000225484371 -0.13514100015163422 0.019856000319123268
v -0.006155999843031168 -0.1350490003824234 0.0162579994648695
v -0.0060270000249147415 -0.11085999757051468 0.013081000186502934
v -0.005286999978125095 -0.10966499894857407 0.016099000349640846
v -0.006810999941080809 -0.10832899808883667 0.011475999839603901
v -0.006004999857395887 -0.1087070032954216 0.018811000511050224
v -0.00964299961924553 -0.12138699740171432 0.014700000174343586
v -0.008325999602675438 -0.12808699905872345 0.015041000209748745
v -0.01046799961477518 -0.11464899778366089 0.013977999798953533
v -0.01056199986487627 -0.10797099769115448 0.012451999820768833
v -0.006147999782115221 -0.12465699762105942 0.024664999917149544
v -0.003117999993264675 -0.13097399473190308 0.02524000033736229
v -0.008088000118732452 -0.11772599816322327 0.023638000711798668
v -0.007007000036537647 -0.13502100110054016 0.022413000464439392
v -0.0071840002201497555 -0.11027500033378601 0.023446999490261078
v -0.008169000037014484 -0.13523900508880615 0.01740800030529499
v -0.007853000424802303 -0.13496699929237366 0.024034999310970306
v -0.011660000309348106 -0.13330499827861786 0.022223999723792076
v -0.010293000377714634 -0.12887300550937653 0.017709000036120415
v -0.004850999917834997 -0.1031700000166893 0.01196799986064434
v -0.00483600003644824 -0.1023550033569336 0.015564000234007835
v -0.006384999956935644 -0.10166800022125244 0.01039700023829937
v -0.005659999791532755 -0.10171400010585785 0.01862500049173832
v -0.009940000250935555 -0.10127300024032593 0.010989000089466572
v -0.007011000066995621 -0.1029060035943985 0.02291399985551834
v -0.010912000201642513 -0.12190999835729599 0.017613999545574188
v -0.012153999879956245 -0.11513900011777878 0.017193999141454697
v -0.012776999734342098 -0.1083189994096756 0.01641000062227249
v -0.012838000431656837 -0.10141199827194214 0.015564000234007835
v -0.008568000048398972 -0.12162099778652191 0.023811999708414078
v -0.008113999851047993 -0.12828700244426727 0.02428700029850006
v -0.008934999816119671 -0.1149659976363182 0.02333099953830242
v -0.009464999660849571 -0.10825800150632858 0.022853000089526176
v -0.00970499962568283 -0.10155200213193893 0.02250700071454048
v -0.010600999929010868 -0.12697599828243256 0.021484000608325005
v -0.01104000024497509 -0.12060199677944183 0.02157299965620041
v -0.003317000111564994 -0.09596999734640121 0.010963999666273594
v -0.0032500000670552254 -0.09523899853229523 0.014287999831140041
v -0.005541000049561262 -0.09516999870538712 0.008887999691069126
v -0.004370000213384628 -0.09472999721765518 0.01826399937272072
v -0.00928100012242794 -0.09458199888467789 0.009616999886929989
v -0.006031999830156565 -0.09548100084066391 0.022161999717354774
v -0.012961000204086304 -0.09452500194311142 0.014764999970793724
v -0.008282000198960304 -0.09505700320005417 0.022887999191880226
v -0.011950000189244747 -0.11421900242567062 0.021523000672459602
v -0.012489999644458294 -0.10784199833869934 0.020865999162197113
v -0.012480000033974648 -0.10143899917602539 0.020208999514579773
v -0.012501000426709652 -0.09501799941062927 0.019593000411987305
v -0.0004689999914262444 -0.0892219990491867 0.010514999739825726
v 0.0003640000068116933 -0.08905799686908722 0.013601000420749187
v -0.0036989999935030937 -0.08887600153684616 0.007664000149816275
v -0.0002770000137388706 -0.08943399786949158 0.01866300031542778
v -0.009813999757170677 -0.08805199712514877 0.007646999787539244
v -0.002489000093191862 -0.08925999701023102 0.023103000596165657
v -0.012881999835371971 -0.08769199997186661 0.013578999787569046
v -0.007788000162690878 -0.0885000005364418 0.023934999480843544
v -0.012822999618947506 -0.08862199634313583 0.018970999866724014
v -0.0010049999691545963 -0.08201699703931808 0.008905000053346157
v 0.0009679999784566462 -0.08218500018119812 0.012281999923288822
v 0.00003400000059627928 -0.08248300105333328 0.018022000789642334
v -0.008596000261604786 -0.08144299685955048 0.008472999557852745
v -0.0014519999967887998 -0.08206299692392349 0.02254600077867508
v -0.011646999977529049 -0.08089900016784668 0.014077000319957733
v -0.0069519998505711555 -0.08198799937963486 0.023327000439167023
v -0.01170200016349554 -0.08228900283575058 0.0190420001745224
v -0.00469799991697073 -0.08311499655246735 0.014977999962866306
f 1 2 3
f 1 3 4
f 5 6 2
f 5 2 1
f 7 1 8
f 1 4 8
f 9 5 7
f 5 1 7
f 2 10 11
f 2 11 3
f 6 12 10
f 6 10 2
f 3 11 13
f 4 3 13
f 13 14 4
f 14 8 4
f 15 16 6
f 15 6 5
f 17 15 9
f 15 5 9
f 16 18 12
f 16 12 6
f 19 7 20
f 7 8 20
f 21 9 19
f 9 7 19
f 8 14 20
f 22 17 21
f 17 9 21
f 10 23 11
f 23 24 11
f 12 25 10
f 25 23 10
f 11 24 26
f 11 26 13
f 18 27 12
f 27 25 12
f 30 28 29
f 28 13 29
f 29 13 26
f 13 28 14
f 31 20 28
f 20 14 28
f 32 33 16
f 32 16 15
f 34 32 17
f 32 15 17
f 33 35 18
f 33 18 16
f 36 34 17
f 36 17 22
f 35 37 18
f 37 27 18
f 38 19 20
f 38 20 31
f 39 21 19
f 39 19 38
f 40 22 21
f 40 21 39
f 41 36 22
f 41 22 40
f 23 42 43
f 23 43 24
f 25 44 42
f 25 42 23
f 24 29 26
f 24 43 29
f 27 45 44
f 27 44 25
f 37 46 45
f 37 45 27
f 47 31 30
f 31 28 30
f 43 47 30
f 43 30 29
f 48 38 47
f 38 31 47
f 49 50 33
f 49 33 32
f 51 49 34
f 49 32 34
f 50 52 33
f 52 35 33
f 53 51 34
f 53 34 36
f 52 54 35
f 54 37 35
f 55 53 36
f 55 36 41
f 54 56 46
f 54 46 37
f 57 39 48
f 39 38 48
f 58 40 57
f 40 39 57
f 59 41 40
f 59 40 58
f 60 55 41
f 60 41 59
f 42 48 47
f 42 47 43
f 44 57 48
f 44 48 42
f 45 58 57
f 45 57 44
f 46 59 58
f 46 58 45
f 56 60 46
f 60 59 46
f 61 62 50
f 61 50 49
f 63 61 49
f 63 49 51
f 62 64 50
f 64 52 50
f 65 63 53
f 63 51 53
f 64 66 52
f 66 54 52
f 67 65 53
f 67 53 55
f 66 68 54
f 68 56 54
f 69 67 55
f 69 55 60
f 68 69 56
f 69 60 56
f 70 71 61
f 71 62 61
f 70 61 63
f 71 72 62
f 72 64 62
f 73 70 63
f 73 63 65
f 72 74 64
f 74 66 64
f 75 73 67
f 73 65 67
f 74 76 66
f 76 68 66
f 77 75 67
f 77 67 69
f 76 77 68
f 77 69 68
f 70 73 78
f 71 70 78
f 72 71 78
f 74 72 78
f 73 75 78
f 76 74 78
f 75 77 78
f 77 76 78
