# Generated by Visualization Toolkit
v 0.011346999555826187 -0.04054100066423416 0.04330400004982948
v 0.0075079998932778835 -0.0438539981842041 0.0414620004594326
v 0.007209999952465296 -0.04090699926018715 0.037383999675512314
v 0.009430999867618084 -0.03587999939918518 0.042121000587940216
v 0.010162999853491783 -0.04553600028157234 0.046153999865055084
v 0.0078940000385046 -0.048333000391721725 0.044199999421834946
v 0.0070940000005066395 -0.040782999247312546 0.050397999584674835
v 0.006572999991476536 -0.035718001425266266 0.048103999346494675
v 0.007480999920517206 -0.046241000294685364 0.051743000745773315
v 0.004910000134259462 -0.0444910004734993 0.04039299860596657
v 0.004137000069022179 -0.040424998849630356 0.03731599822640419
v 0.005526999942958355 -0.048312000930309296 0.04381600022315979
v 0.0031059999018907547 -0.03853800147771835 0.04186499863862991
v 0.00989999994635582 -0.050624001771211624 0.048870999366045
v 0.0090549997985363 -0.05273500084877014 0.04662099853157997
v 0.008491000160574913 -0.05143300071358681 0.053725000470876694
v 0.006322000175714493 -0.052538998425006866 0.04670099914073944
v 0.0027890000492334366 -0.041078001260757446 0.05071699991822243
v 0.0019660000689327717 -0.03634899854660034 0.04789600148797035
v 0.0034539999905973673 -0.046477001160383224 0.05230500176548958
v 0.00443299999460578 -0.05175099894404411 0.05418400093913078
v 0.0007800000021234155 -0.04593700170516968 0.03878600150346756
v -0.001062000053934753 -0.04159000143408775 0.036111000925302505
v 0.002005999907851219 -0.048973001539707184 0.04328799992799759
v 0.0031789999920874834 -0.0531730018556118 0.04680300131440163
v -0.0041240002028644085 -0.038332000374794006 0.046011000871658325
v -0.005609000101685524 -0.041763000190258026 0.03971699997782707
v 0.010758999735116959 -0.05561399832367897 0.051203999668359756
v 0.010276000015437603 -0.057124000042676926 0.0489949993789196
v 0.009705999866127968 -0.05652200058102608 0.05587000027298927
v 0.007164000067859888 -0.05710599943995476 0.04904999956488609
v 0.005830000154674053 -0.056853998452425 0.05613899976015091
v 0.004488000180572271 -0.058164000511169434 0.04919400066137314
v -0.0038610000628978014 -0.0430850014090538 0.04805799946188927
v -0.001411000033840537 -0.047770000994205475 0.04921000078320503
v 0.0006500000017695129 -0.052411999553442 0.05097600072622299
v 0.0022690000478178263 -0.0570329986512661 0.05310999974608421
v -0.003450999967753887 -0.046633001416921616 0.04086099937558174
v -0.0018139999592676759 -0.05058800056576729 0.044224999845027924
v -0.000058000001445179805 -0.05477900058031082 0.04805099964141846
v 0.0017519999528303742 -0.05939599871635437 0.05090399831533432
v 0.013132000342011452 -0.06027299910783768 0.05286100134253502
v 0.010780000127851963 -0.061650000512599945 0.05152999982237816
v 0.010739999823272228 -0.0616770014166832 0.057649001479148865
v 0.007830999791622162 -0.061994001269340515 0.05072600021958351
v 0.007953999564051628 -0.06175899878144264 0.057693999260663986
v 0.006124999839812517 -0.06329900026321411 0.05029499903321266
v 0.0035830000415444374 -0.0616459995508194 0.055243998765945435
v 0.0031049998942762613 -0.06419699639081955 0.05098100006580353
v 0.015381000004708767 -0.0648379996418953 0.05455999821424484
v 0.011785999871790409 -0.06642299890518188 0.05251900106668472
v 0.011628000065684319 -0.06693899631500244 0.060217998921871185
v 0.009514999575912952 -0.06676000356674194 0.0514179989695549
v 0.009650999680161476 -0.06671199947595596 0.06003500148653984
v 0.007406000047922134 -0.0689140036702156 0.0495619997382164
v 0.004687000066041946 -0.06627699732780457 0.05755599960684776
v 0.004947000183165073 -0.06939200311899185 0.04944299906492233
v 0.01498700026422739 -0.06981900334358215 0.05748699977993965
v 0.012341000139713287 -0.06973999738693237 0.05601600185036659
v 0.013073000125586987 -0.0711439996957779 0.05795399844646454
v 0.009421999566257 -0.07076799869537354 0.05447100102901459
v 0.010587000288069248 -0.07145900279283524 0.05796400085091591
v 0.0077760000713169575 -0.07195699959993362 0.05334100127220154
v 0.004991000052541494 -0.07045300304889679 0.056651998311281204
v 0.004772999789565802 -0.0730850026011467 0.05245700106024742
v 0.010033000260591507 -0.07090699672698975 0.05581799894571304
f 1 2 3
f 1 3 4
f 5 6 2
f 5 2 1
f 7 1 8
f 1 4 8
f 9 5 7
f 5 1 7
f 2 10 3
f 10 11 3
f 6 12 2
f 12 10 2
f 3 11 13
f 4 3 13
f 8 4 13
f 14 15 6
f 14 6 5
f 16 14 9
f 14 5 9
f 15 17 6
f 17 12 6
f 18 7 8
f 18 8 19
f 20 9 7
f 20 7 18
f 19 8 13
f 21 16 9
f 21 9 20
f 10 22 11
f 22 23 11
f 12 24 10
f 24 22 10
f 11 23 13
f 17 25 12
f 25 24 12
f 26 19 13
f 27 26 13
f 23 27 13
f 28 29 15
f 28 15 14
f 30 28 16
f 28 14 16
f 29 31 15
f 31 17 15
f 32 30 16
f 32 16 21
f 31 33 25
f 31 25 17
f 34 18 26
f 18 19 26
f 35 20 18
f 35 18 34
f 36 21 20
f 36 20 35
f 37 32 21
f 37 21 36
f 22 38 23
f 38 27 23
f 24 39 38
f 24 38 22
f 25 40 39
f 25 39 24
f 33 41 40
f 33 40 25
f 38 34 27
f 34 26 27
f 42 43 29
f 42 29 28
f 44 42 30
f 42 28 30
f 43 45 29
f 45 31 29
f 46 44 30
f 46 30 32
f 45 47 33
f 45 33 31
f 48 46 32
f 48 32 37
f 47 49 41
f 47 41 33
f 39 35 38
f 35 34 38
f 40 36 35
f 40 35 39
f 41 37 40
f 37 36 40
f 49 48 41
f 48 37 41
f 50 51 42
f 51 43 42
f 52 50 44
f 50 42 44
f 51 53 43
f 53 45 43
f 54 52 44
f 54 44 46
f 53 55 47
f 53 47 45
f 56 54 46
f 56 46 48
f 55 57 47
f 57 49 47
f 57 56 49
f 56 48 49
f 58 59 50
f 59 51 50
f 60 58 52
f 58 50 52
f 59 61 51
f 61 53 51
f 62 60 52
f 62 52 54
f 61 63 55
f 61 55 53
f 64 62 54
f 64 54 56
f 63 65 57
f 63 57 55
f 65 64 57
f 64 56 57
f 58 60 66
f 59 58 66
f 61 59 66
f 60 62 66
f 63 61 66
f 62 64 66
f 65 63 66
f 64 65 66
