# Generated by Visualization Toolkit
v -0.002517000073567033 -0.17003700137138367 0.03150700032711029
v 0.0007639999967068434 -0.166935995221138 0.02638399973511696
v -0.0012400000123307109 -0.1667180061340332 0.021362999454140663
v -0.006424000021070242 -0.16783800721168518 0.026043999940156937
v -0.002612000098451972 -0.17299899458885193 0.030220000073313713
v 0.0006939999875612557 -0.1708039939403534 0.025682000443339348
v -0.0061980001628398895 -0.17186300456523895 0.024911999702453613
v -0.0013139999937266111 -0.17112599313259125 0.02111399918794632
v -0.003043999895453453 -0.17616499960422516 0.02944199927151203
v -0.00037799999699927866 -0.17455600202083588 0.02584500052034855
v -0.005200999788939953 -0.17576399445533752 0.02507000043988228
v -0.002397000091150403 -0.17507199943065643 0.02274399995803833
v -0.0030269999988377094 -0.17903099954128265 0.02850000001490116
v -0.0005460000247694552 -0.17849600315093994 0.02572299912571907
v -0.0050570000894367695 -0.17988799512386322 0.025270000100135803
v -0.002669000066816807 -0.17941099405288696 0.023194000124931335
v -0.001800999976694584 -0.18202799558639526 0.028947999700903893
v -0.0005840000230818987 -0.18232500553131104 0.02626200020313263
v -0.004767000209540129 -0.18402199447155 0.025419000536203384
v -0.002082000020891428 -0.18419599533081055 0.023159999400377274
v -0.0008789999992586672 -0.18503700196743011 0.02912300080060959
v 0.00033099998836405575 -0.18604399263858795 0.026491999626159668
v -0.0033390000462532043 -0.18762800097465515 0.026124000549316406
v -0.0012080000014975667 -0.18846799433231354 0.023996999487280846
v -0.00011000000085914508 -0.18806999921798706 0.029187999665737152
v -0.0007239999831654131 -0.18976299464702606 0.0270019993185997
v -0.0012519999872893095 -0.19035199284553528 0.02769099920988083
f 1 2 4
f 2 3 4
f 2 1 6
f 1 5 6
f 1 4 5
f 4 7 5
f 3 2 6
f 3 6 8
f 4 3 8
f 4 8 7
f 6 5 10
f 5 9 10
f 5 7 11
f 5 11 9
f 8 6 10
f 8 10 12
f 7 8 12
f 7 12 11
f 10 9 14
f 9 13 14
f 9 11 13
f 11 15 13
f 12 10 14
f 12 14 16
f 11 12 16
f 11 16 15
f 14 13 18
f 13 17 18
f 13 15 17
f 15 19 17
f 16 14 18
f 16 18 20
f 15 16 19
f 16 20 19
f 18 17 21
f 18 21 22
f 17 19 21
f 19 23 21
f 20 18 22
f 20 22 24
f 19 20 23
f 20 24 23
f 22 21 25
f 22 25 26
f 21 23 25
f 23 27 25
f 24 22 26
f 23 24 26
f 23 26 27
f 26 25 27
