# Generated by Visualization Toolkit
v -0.00761799979954958 -0.07631900161504745 0.019802000373601913
v -0.012697000056505203 -0.08011399954557419 0.02101000025868416
v -0.0074350000359117985 -0.08515000343322754 0.01814199984073639
v -0.007830999791622162 -0.08323399722576141 0.020521000027656555
v -0.007480999920517206 -0.0694039985537529 0.019481999799609184
v -0.012497000396251678 -0.07300499826669693 0.021040000021457672
v 0.00011700000322889537 -0.0785989984869957 0.021474000066518784
v -0.003063000040128827 -0.08413100242614746 0.017823999747633934
v 0.0009379999828524888 -0.07129400223493576 0.02052599936723709
v -0.009808000177145004 -0.0796160027384758 0.010587000288069248
v -0.007402999792248011 -0.08490099757909775 0.014821999706327915
v -0.011537999846041203 -0.07317300140857697 0.008039000444114208
v -0.004933000076562166 -0.08453299850225449 0.015381000004708767
v -0.008356000296771526 -0.06269200146198273 0.017897000536322594
v -0.013217000290751457 -0.06623400002717972 0.01808900013566017
v -0.0016749999485909939 -0.06494399905204773 0.017326999455690384
v -0.012035000137984753 -0.06605999916791916 0.0074339997954666615
v 0.0012019999558106065 -0.08025799691677094 0.018580999225378036
v -0.0034729999024420977 -0.08501499891281128 0.016628000885248184
v 0.001970000099390745 -0.07363200187683105 0.01647000014781952
v -0.0006590000120922923 -0.06645099818706512 0.015177999623119831
v -0.005770999938249588 -0.07948499917984009 0.008210999891161919
v -0.007108999881893396 -0.08497100323438644 0.012709000147879124
v -0.00519500020891428 -0.07270599901676178 0.0060709998942911625
v -0.006889000069350004 -0.06563399732112885 0.005526999942958355
v -0.0025110000278800726 -0.08460400253534317 0.011486999690532684
v -0.0021039999555796385 -0.08377400040626526 0.009665999561548233
v -0.009278999641537666 -0.05597199872136116 0.016137000173330307
v -0.013476000167429447 -0.05920099839568138 0.01581300050020218
v -0.00446499977260828 -0.05824799835681915 0.015150000341236591
v -0.01234500017017126 -0.05881199985742569 0.007431000005453825
v -0.0026340000331401825 -0.05963100120425224 0.01384500041604042
v -0.009270000271499157 -0.0588579997420311 0.0047889999113976955
v 0.0026489999145269394 -0.07957299798727036 0.010870000347495079
v 0.003725999966263771 -0.07302600145339966 0.010320999659597874
v -0.0002690000110305846 -0.06663200259208679 0.010734000243246555
v -0.0035470000002533197 -0.06057000160217285 0.00901199970394373
v 0.002326000016182661 -0.07914900034666061 0.006283999886363745
v 0.0020669999066740274 -0.07196100056171417 0.005789999850094318
v -0.0032389999832957983 -0.06773100048303604 0.007965000346302986
v -0.005032000131905079 -0.06029000133275986 0.007275999989360571
v -0.009499000385403633 -0.04911699891090393 0.014948000200092793
v -0.013983000069856644 -0.05214599892497063 0.013611000031232834
v -0.005714999977499247 -0.05090000107884407 0.014196000061929226
v -0.01304600015282631 -0.051674000918865204 0.007156999781727791
v -0.0034920000471174717 -0.05272499844431877 0.01157000008970499
v -0.011284999549388885 -0.05194399878382683 0.005016999784857035
v -0.004511999897658825 -0.05371199920773506 0.007468000054359436
v -0.005994000006467104 -0.05288799852132797 0.005787999834865332
v -0.00902399979531765 -0.04226899892091751 0.01384000014513731
v -0.013836000114679337 -0.04494599997997284 0.012063000351190567
v -0.005276000127196312 -0.04360700026154518 0.012508000247180462
v -0.013439999893307686 -0.04454600065946579 0.006583999842405319
v -0.0037690000608563423 -0.045559998601675034 0.009939000010490417
v -0.012020999565720558 -0.04477600008249283 0.005200999788939953
v -0.004482999909669161 -0.04644300043582916 0.0063240001909434795
v -0.006692999973893166 -0.04588000103831291 0.004414000082761049
v -0.008174999617040157 -0.035454001277685165 0.012728000059723854
v -0.012946000322699547 -0.03763499855995178 0.011136000044643879
v -0.004302999936044216 -0.036242999136447906 0.01145199965685606
v -0.013255000114440918 -0.03739999979734421 0.005849000066518784
v -0.0036100000143051147 -0.038217999041080475 0.009479999542236328
v -0.011730000376701355 -0.03753799945116043 0.0047109997831285
v -0.004526999779045582 -0.03914099931716919 0.0056570000015199184
v -0.006647999864071608 -0.038621000945568085 0.0033839999232441187
v -0.007548999972641468 -0.028567999601364136 0.012013000436127186
v -0.011900999583303928 -0.030357999727129936 0.010355999693274498
v -0.00392200006172061 -0.028769999742507935 0.011819000355899334
v -0.012636000290513039 -0.030280999839305878 0.005162000190466642
v -0.00267699989490211 -0.030937999486923218 0.009242000058293343
v -0.010970000177621841 -0.030403999611735344 0.0038219999987632036
v -0.004112999886274338 -0.03202600032091141 0.0050760000012815
v -0.005781000014394522 -0.0312809981405735 0.002553999889642
v -0.00712599977850914 -0.021622000262141228 0.011803999543190002
v -0.010954000055789948 -0.02304599992930889 0.009704000316560268
v -0.0043830000795423985 -0.02136100083589554 0.012354999780654907
v -0.01199399959295988 -0.023155000060796738 0.0046339998953044415
v -0.001475999946705997 -0.023730000481009483 0.008359000086784363
v -0.01015899982303381 -0.023288000375032425 0.0028460000175982714
v -0.0023089998867362738 -0.025129999965429306 0.00395399983972311
v -0.004302999936044216 -0.02406900003552437 0.0015999999595806003
v -0.006583999842405319 -0.014689000323414803 0.01202400028705597
v -0.010696999728679657 -0.01572199910879135 0.00890399981290102
v -0.0038300000596791506 -0.013624999672174454 0.012407000176608562
v -0.011707999743521214 -0.01599299907684326 0.004265999887138605
v -0.000007999999979801942 -0.01659099943935871 0.007573999930173159
v -0.009571000002324581 -0.016203999519348145 0.0015450000064447522
v -0.0007719999994151294 -0.0182460006326437 0.0025049999821931124
v -0.0035210000351071358 -0.017117999494075775 -0.0003539999888744205
v -0.006554000079631805 -0.007734999991953373 0.011950000189244747
v -0.011814000084996223 -0.00836899969726801 0.00786999985575676
v 0.0008410000009462237 -0.007734999991953373 0.01345600001513958
v -0.011862999759614468 -0.008898000232875347 0.003197999903932214
v 0.0029460000805556774 -0.009982000105082989 0.00874400045722723
v -0.009604999795556068 -0.009296000003814697 -0.0005869999877177179
v 0.001231999951414764 -0.01158900000154972 0.0008800000068731606
v -0.003978999797254801 -0.007164999842643738 -0.0028649999294430017
v -0.005446000024676323 -0.0014669999945908785 0.010773000307381153
v -0.012268999591469765 -0.0012799999676644802 0.007672999985516071
v 0.004676999989897013 -0.001496999990195036 0.01241500023752451
v -0.00901699997484684 -0.00020399999630171806 0.00494999997317791
v 0.0038159999530762434 -0.002822000067681074 0.008473999798297882
v -0.009119999594986439 -0.0009950000094249845 0.0019109999993816018
v 0.0011139999842271209 -0.004346999805420637 -0.0005959999980404973
v -0.005177999846637249 -0.004637999925762415 -0.003739000065252185
v -0.005299000069499016 -0.0012959999730810523 0.0037690000608563423
f 1 2 4
f 2 3 4
f 5 6 1
f 6 2 1
f 7 1 4
f 7 4 8
f 9 5 1
f 9 1 7
f 2 10 11
f 2 11 3
f 6 12 10
f 6 10 2
f 3 11 13
f 4 3 13
f 8 4 13
f 14 15 5
f 15 6 5
f 16 14 5
f 16 5 9
f 15 17 12
f 15 12 6
f 18 7 8
f 18 8 19
f 20 9 7
f 20 7 18
f 19 8 13
f 21 16 9
f 21 9 20
f 10 22 23
f 10 23 11
f 12 24 22
f 12 22 10
f 11 23 13
f 17 25 12
f 25 24 12
f 26 19 13
f 27 26 13
f 23 27 13
f 28 29 14
f 29 15 14
f 30 28 14
f 30 14 16
f 29 31 17
f 29 17 15
f 32 30 16
f 32 16 21
f 31 33 17
f 33 25 17
f 34 18 26
f 35 20 34
f 20 18 34
f 19 26 18
f 36 21 35
f 21 20 35
f 37 32 36
f 32 21 36
f 22 38 27
f 22 27 23
f 24 39 38
f 24 38 22
f 25 40 24
f 40 39 24
f 33 41 25
f 41 40 25
f 38 34 27
f 34 26 27
f 42 43 28
f 43 29 28
f 44 42 28
f 44 28 30
f 43 45 31
f 43 31 29
f 46 44 30
f 46 30 32
f 45 47 31
f 47 33 31
f 48 46 37
f 46 32 37
f 47 49 33
f 49 41 33
f 39 35 38
f 35 34 38
f 40 36 39
f 36 35 39
f 41 37 40
f 37 36 40
f 49 48 41
f 48 37 41
f 50 51 42
f 51 43 42
f 52 50 42
f 52 42 44
f 51 53 45
f 51 45 43
f 54 52 44
f 54 44 46
f 53 55 45
f 55 47 45
f 56 54 46
f 56 46 48
f 55 57 47
f 57 49 47
f 57 56 49
f 56 48 49
f 58 59 50
f 59 51 50
f 60 58 50
f 60 50 52
f 59 61 53
f 59 53 51
f 62 60 52
f 62 52 54
f 61 63 53
f 63 55 53
f 64 62 54
f 64 54 56
f 63 65 55
f 65 57 55
f 65 64 57
f 64 56 57
f 66 67 58
f 67 59 58
f 68 66 58
f 68 58 60
f 67 69 61
f 67 61 59
f 70 68 60
f 70 60 62
f 69 71 63
f 69 63 61
f 72 70 62
f 72 62 64
f 71 73 63
f 73 65 63
f 73 72 65
f 72 64 65
f 74 75 66
f 75 67 66
f 76 74 68
f 74 66 68
f 75 77 69
f 75 69 67
f 78 76 68
f 78 68 70
f 77 79 71
f 77 71 69
f 80 78 70
f 80 70 72
f 79 81 73
f 79 73 71
f 81 80 73
f 80 72 73
f 82 83 74
f 83 75 74
f 84 82 76
f 82 74 76
f 83 85 77
f 83 77 75
f 86 84 76
f 86 76 78
f 85 87 79
f 85 79 77
f 88 86 78
f 88 78 80
f 87 89 81
f 87 81 79
f 89 88 81
f 88 80 81
f 90 91 82
f 91 83 82
f 92 90 84
f 90 82 84
f 91 93 85
f 91 85 83
f 94 92 84
f 94 84 86
f 93 95 87
f 93 87 85
f 96 94 86
f 96 86 88
f 95 97 89
f 95 89 87
f 97 96 89
f 96 88 89
f 98 99 90
f 99 91 90
f 100 98 92
f 98 90 92
f 99 101 93
f 99 93 91
f 102 100 92
f 102 92 94
f 101 103 93
f 103 95 93
f 104 102 94
f 104 94 96
f 103 105 95
f 105 97 95
f 105 104 97
f 104 96 97
f 106 99 98
f 106 98 100
f 106 101 99
f 106 100 102
f 106 103 101
f 106 102 104
f 106 105 103
f 106 104 105
