# Generated by Visualization Toolkit
v 0.0017180000431835651 -0.166485995054245 0.004528000019490719
v 0.00471000000834465 -0.1639840006828308 -0.001019999966956675
v 0.002555999904870987 -0.1643030047416687 -0.005956999957561493
v -0.0024210000410676003 -0.16497600078582764 -0.0009980000322684646
v 0.0017000000225380063 -0.16945500671863556 0.0035800000187009573
v 0.004769999999552965 -0.16776099801063538 -0.0012870000209659338
v -0.0020729999523609877 -0.16894400119781494 -0.001686000032350421
v 0.0026469998992979527 -0.16855299472808838 -0.005714999977499247
v 0.0013699999544769526 -0.1725730001926422 0.003172999946400523
v 0.003854000009596348 -0.1713549941778183 -0.0006730000022798777
v -0.0009239999926649034 -0.17265300452709198 -0.0011340000201016665
v 0.0017719999887049198 -0.1721860021352768 -0.003622000105679035
v 0.0014700000174343586 -0.17541299760341644 0.002553999889642
v 0.003837000112980604 -0.1751450002193451 -0.0003530000103637576
v -0.0006130000110715628 -0.17658400535583496 -0.00048499999684281647
v 0.0016830000095069408 -0.17630299925804138 -0.0026859999634325504
v 0.002822000067681074 -0.17822399735450745 0.0032850001007318497
v 0.003965000156313181 -0.17876100540161133 0.0006060000159777701
v -0.00015900000289548188 -0.180527001619339 0.00010900000052060932
v 0.002454000059515238 -0.1808840036392212 -0.0022120000794529915
v 0.0038620000705122948 -0.18107900023460388 0.003756999969482422
v 0.005028000101447105 -0.18229100108146667 0.0012130000395700336
v 0.0014250000240281224 -0.18389399349689484 0.0011549999471753836
v 0.0035149999894201756 -0.1848829984664917 -0.0009410000056959689
v 0.004747999832034111 -0.18396900594234467 0.004129000008106232
v 0.004137999843806028 -0.18581700325012207 0.002167999977245927
v 0.0036559998989105225 -0.1863200068473816 0.0029360000044107437
f 1 2 4
f 2 3 4
f 2 1 6
f 1 5 6
f 1 4 5
f 4 7 5
f 3 2 6
f 3 6 8
f 4 3 8
f 4 8 7
f 6 5 10
f 5 9 10
f 5 7 11
f 5 11 9
f 8 6 12
f 6 10 12
f 7 8 12
f 7 12 11
f 10 9 14
f 9 13 14
f 9 11 13
f 11 15 13
f 12 10 14
f 12 14 16
f 11 12 16
f 11 16 15
f 14 13 18
f 13 17 18
f 13 15 17
f 15 19 17
f 16 14 18
f 16 18 20
f 15 16 19
f 16 20 19
f 18 17 21
f 18 21 22
f 17 19 21
f 19 23 21
f 20 18 22
f 20 22 24
f 19 20 23
f 20 24 23
f 22 21 25
f 22 25 26
f 21 23 25
f 23 27 25
f 24 22 26
f 23 24 26
f 23 26 27
f 26 25 27
