# Generated by Visualization Toolkit
v 0.006126000080257654 -0.13693299889564514 -0.026988999918103218
v 0.009135999716818333 -0.1351500004529953 -0.031307000666856766
v 0.007606999948620796 -0.1350249946117401 -0.03545299917459488
v 0.0032470000442117453 -0.1350650042295456 -0.0316540002822876
v 0.005795000120997429 -0.1393119990825653 -0.027855999767780304
v 0.008732999674975872 -0.1382099986076355 -0.03163899853825569
v 0.0030759999062865973 -0.1383039951324463 -0.032322000712156296
v 0.007145000156015158 -0.13848300278186798 -0.035381998866796494
v 0.005164999980479479 -0.14178499579429626 -0.028300000354647636
v 0.007519000209867954 -0.14101900160312653 -0.031289998441934586
v 0.0035200000274926424 -0.1414629966020584 -0.03193100169301033
v 0.005884000100195408 -0.1413629949092865 -0.033824000507593155
v 0.004927999805659056 -0.1440819948911667 -0.028889000415802002
v 0.007021999917924404 -0.14409300684928894 -0.03114599920809269
v 0.003254000097513199 -0.14469900727272034 -0.03150700032711029
v 0.005257999990135431 -0.14470599591732025 -0.03319000080227852
v 0.005636999849230051 -0.1465429961681366 -0.028315000236034393
v 0.006632000207901001 -0.14705799520015717 -0.03046800009906292
v 0.0031059999018907547 -0.14796200394630432 -0.031122000887989998
v 0.005293000023812056 -0.1485220044851303 -0.03290800005197525
v 0.00610300013795495 -0.14899499714374542 -0.02796800062060356
v 0.007025999948382378 -0.15006199479103088 -0.030030999332666397
v 0.003918999806046486 -0.15090900659561157 -0.030295999720692635
v 0.005594000220298767 -0.15192100405693054 -0.03194199874997139
v 0.006444999948143959 -0.15145400166511536 -0.027712000533938408
v 0.005824000108987093 -0.15282799303531647 -0.029400000348687172
v 0.005332999862730503 -0.15319299697875977 -0.028811000287532806
f 1 2 4
f 2 3 4
f 2 1 6
f 1 5 6
f 1 4 5
f 4 7 5
f 3 2 6
f 3 6 8
f 4 3 8
f 4 8 7
f 6 5 10
f 5 9 10
f 5 7 11
f 5 11 9
f 8 6 12
f 6 10 12
f 7 8 12
f 7 12 11
f 10 9 14
f 9 13 14
f 9 11 13
f 11 15 13
f 12 10 14
f 12 14 16
f 11 12 16
f 11 16 15
f 14 13 18
f 13 17 18
f 13 15 17
f 15 19 17
f 16 14 18
f 16 18 20
f 15 16 19
f 16 20 19
f 18 17 21
f 18 21 22
f 17 19 21
f 19 23 21
f 20 18 22
f 20 22 24
f 19 20 23
f 20 24 23
f 22 21 25
f 22 25 26
f 21 23 25
f 23 27 25
f 24 22 26
f 23 24 26
f 23 26 27
f 26 25 27
