# Generated by Visualization Toolkit
v -0.002713999943807721 -0.07701600342988968 -0.0016629999736323953
v -0.007757000159472227 -0.08082100003957748 -0.0009309999877586961
v -0.0024500000290572643 -0.0852229967713356 -0.004385000094771385
v -0.0028639999218285084 -0.08369000256061554 -0.001791000016964972
v -0.0026400000788271427 -0.07039099931716919 -0.0011370000429451466
v -0.007621999830007553 -0.07405299693346024 -0.000035000000934815034
v 0.005042000208050013 -0.07932300120592117 -0.00027099999715574086
v 0.0019120000069960952 -0.08417599648237228 -0.00457199988886714
v 0.005795999895781279 -0.07224400341510773 -0.0003220000071451068
v -0.004873000085353851 -0.07905499637126923 -0.011211000382900238
v -0.002420000033453107 -0.08458200097084045 -0.0076489998027682304
v -0.006661999970674515 -0.07262399792671204 -0.01295700017362833
v 0.00004600000102072954 -0.08427800238132477 -0.007046999875456095
v -0.003575999988242984 -0.06381399929523468 -0.001892999978736043
v -0.008403999730944633 -0.06725200265645981 -0.0021389999892562628
v 0.003126000054180622 -0.06583099812269211 -0.0027260000351816416
v -0.007222999818623066 -0.06578099727630615 -0.012691999785602093
v 0.006142000202089548 -0.08054299652576447 -0.003344000084325671
v 0.0015109999803826213 -0.08487600088119507 -0.005867000203579664
v 0.006849000230431557 -0.07396899908781052 -0.004631000105291605
v 0.004155999980866909 -0.0669960007071495 -0.0050409999676048756
v -0.0008370000286959112 -0.0786070004105568 -0.013549000024795532
v -0.002125999890267849 -0.08438999950885773 -0.009754999540746212
v -0.0003239999932702631 -0.07188499718904495 -0.014845999889075756
v -0.002082000020891428 -0.06509999930858612 -0.014526999555528164
v 0.0024689999409019947 -0.08385200053453445 -0.010917999781668186
v 0.002867999952286482 -0.08283600211143494 -0.012622999958693981
v -0.00455900002270937 -0.05720800161361694 -0.0028230000752955675
v -0.008727000094950199 -0.06027999892830849 -0.0035429999697953463
v 0.0002749999985098839 -0.059213001281023026 -0.004075000062584877
v -0.007598999887704849 -0.0588809996843338 -0.01181199960410595
v 0.0021180000621825457 -0.06035599857568741 -0.005535999778658152
v -0.004523999989032745 -0.0585779994726181 -0.014436000026762486
v 0.007583000231534243 -0.07894100248813629 -0.010910999961197376
v 0.00860000029206276 -0.07262899726629257 -0.01065799966454506
v 0.004546999931335449 -0.06662499904632568 -0.009472999721765518
v 0.001214000047184527 -0.06067100167274475 -0.010447000153362751
v 0.0072559998370707035 -0.07798200100660324 -0.015412000007927418
v 0.006930999923497438 -0.07107900083065033 -0.015026000328361988
v 0.0015869999770075083 -0.06736099720001221 -0.01235899981111288
v -0.0002730000123847276 -0.06020599976181984 -0.012137999758124352
v -0.0048420000821352005 -0.050537001341581345 -0.0031679999083280563
v -0.009298999793827534 -0.05329800024628639 -0.004869000054895878
v -0.0010420000180602074 -0.05211099982261658 -0.004127999767661095
v -0.008365999907255173 -0.052055999636650085 -0.011215000413358212
v 0.0011970000341534615 -0.05350999906659126 -0.006953000091016293
v -0.0066019999794662 -0.05203799903392792 -0.013371000066399574
v 0.00018600000475998968 -0.053961001336574554 -0.011145000346004963
v -0.001303000026382506 -0.05298500135540962 -0.012714000418782234
v -0.004428999964147806 -0.043877001851797104 -0.00343300006352365
v -0.009216999635100365 -0.046250998973846436 -0.005528999958187342
v -0.0006689999718219042 -0.0449570007622242 -0.004914000164717436
v -0.008825000375509262 -0.045200999826192856 -0.010916000232100487
v 0.0008549999911338091 -0.046491000801324844 -0.007699000183492899
v -0.007404000032693148 -0.045239999890327454 -0.01231599971652031
v 0.0001500000071246177 -0.046897999942302704 -0.011396000161767006
v -0.002065999899059534 -0.046149998903274536 -0.013225000351667404
v -0.0036430000327527523 -0.03724399954080582 -0.0037060000468045473
v -0.008394000120460987 -0.03916899859905243 -0.005557000171393156
v 0.00023600000713486224 -0.03780600056052208 -0.00506300013512373
v -0.008705000393092632 -0.03830600157380104 -0.01077600009739399
v 0.0009469999931752682 -0.039441000670194626 -0.007259999867528677
v -0.007178999949246645 -0.0382860004901886 -0.011919000186026096
v 0.000037999998312443495 -0.03986399993300438 -0.011168000288307667
v -0.002087000058963895 -0.039110999554395676 -0.013363000005483627
v -0.0030789999291300774 -0.030594000592827797 -0.003575999988242984
v -0.007414999883621931 -0.032134998589754105 -0.005442999769002199
v 0.0005489999894052744 -0.030731000006198883 -0.003788999980315566
v -0.008151000365614891 -0.03143699839711189 -0.010588999837636948
v 0.0018139999592676759 -0.03247100114822388 -0.00660899979993701
v -0.00648299977183342 -0.031376998871564865 -0.011932999826967716
v 0.000387999985832721 -0.033013999462127686 -0.010877000167965889
v -0.0012870000209659338 -0.03201200067996979 -0.01329100038856268
v -0.0027199999894946814 -0.0239499993622303 -0.002937000012025237
v -0.006535000167787075 -0.0250840000808239 -0.005198999773710966
v 0.00002099999983329326 -0.02374500036239624 -0.002355000004172325
v -0.007573999930173159 -0.024581000208854675 -0.010243999771773815
v 0.0029490001033991575 -0.025489000603556633 -0.006606999784708023
v -0.0057379999198019505 -0.024474000558257103 -0.012032999657094479
v 0.002128999913111329 -0.026294000446796417 -0.011149000376462936
v 0.0001250000059371814 -0.025015000253915787 -0.013358999975025654
v -0.0022410000674426556 -0.017369000241160393 -0.0018739999504759908
v -0.00634399987757206 -0.018008999526500702 -0.005100000184029341
v 0.0005029999883845448 -0.016378000378608704 -0.0013599999947473407
v -0.0073529998771846294 -0.017712000757455826 -0.009736999869346619
v 0.004352000076323748 -0.018581999465823174 -0.006513999775052071
v -0.00521499989554286 -0.01756500080227852 -0.012461000122129917
v 0.003602999961003661 -0.01954999938607216 -0.011746999807655811
v -0.0015539999585598707 -0.017921000719070435 -0.013753999955952168
v -0.0020639998838305473 -0.010646999813616276 -0.0026179999113082886
v -0.006936000194400549 -0.01093399990350008 -0.0056039998307824135
v 0.005745000205934048 -0.01089600007981062 0.00008600000001024455
v -0.007571999914944172 -0.01082799956202507 -0.009933000430464745
v 0.00724499998614192 -0.012404999695718288 -0.004544000141322613
v -0.005311000160872936 -0.010727000422775745 -0.013736000284552574
v 0.006818000227212906 -0.012955999933183193 -0.010975999757647514
v -0.0013800000306218863 -0.010958000086247921 -0.013919999822974205
v -0.0012410000199452043 -0.005737000145018101 -0.0032420000061392784
v -0.005371999926865101 -0.005266000051051378 -0.005607999861240387
v 0.00774399982765317 -0.005828999914228916 0.00011700000322889537
v -0.006556000094860792 -0.004279000218957663 -0.00979899987578392
v 0.007914000190794468 -0.00583800021559 -0.00329799996688962
v -0.005659000016748905 -0.0041160001419484615 -0.0122079998254776
v 0.005956999957561493 -0.006144000217318535 -0.01243599969893694
v 0.0009599999757483602 -0.006448000203818083 -0.013911000452935696
v 0.0004459999909158796 -0.0024759999942034483 -0.0063599999994039536
f 1 2 4
f 2 3 4
f 5 6 1
f 6 2 1
f 7 1 8
f 1 4 8
f 9 5 1
f 9 1 7
f 2 10 11
f 2 11 3
f 6 12 10
f 6 10 2
f 3 11 13
f 4 3 13
f 8 4 13
f 14 15 5
f 15 6 5
f 16 14 5
f 16 5 9
f 15 17 12
f 15 12 6
f 18 7 8
f 18 8 19
f 20 9 7
f 20 7 18
f 19 8 13
f 21 16 9
f 21 9 20
f 10 22 23
f 10 23 11
f 12 24 22
f 12 22 10
f 11 23 13
f 17 25 12
f 25 24 12
f 26 19 13
f 27 26 13
f 23 27 13
f 28 29 14
f 29 15 14
f 30 28 14
f 30 14 16
f 29 31 17
f 29 17 15
f 32 30 16
f 32 16 21
f 31 33 17
f 33 25 17
f 34 18 26
f 35 20 34
f 20 18 34
f 19 26 18
f 36 21 20
f 36 20 35
f 37 32 36
f 32 21 36
f 22 38 27
f 22 27 23
f 24 39 38
f 24 38 22
f 25 40 24
f 40 39 24
f 33 41 25
f 41 40 25
f 38 34 27
f 34 26 27
f 42 43 28
f 43 29 28
f 44 42 28
f 44 28 30
f 43 45 31
f 43 31 29
f 46 44 30
f 46 30 32
f 45 47 31
f 47 33 31
f 48 46 37
f 46 32 37
f 47 49 33
f 49 41 33
f 39 35 38
f 35 34 38
f 40 36 39
f 36 35 39
f 41 37 40
f 37 36 40
f 49 48 41
f 48 37 41
f 50 51 42
f 51 43 42
f 52 50 42
f 52 42 44
f 51 53 45
f 51 45 43
f 54 52 44
f 54 44 46
f 53 55 45
f 55 47 45
f 56 54 46
f 56 46 48
f 55 57 47
f 57 49 47
f 57 56 49
f 56 48 49
f 58 59 50
f 59 51 50
f 60 58 50
f 60 50 52
f 59 61 53
f 59 53 51
f 62 60 52
f 62 52 54
f 61 63 53
f 63 55 53
f 64 62 54
f 64 54 56
f 63 65 55
f 65 57 55
f 65 64 57
f 64 56 57
f 66 67 58
f 67 59 58
f 68 66 58
f 68 58 60
f 67 69 61
f 67 61 59
f 70 68 60
f 70 60 62
f 69 71 63
f 69 63 61
f 72 70 62
f 72 62 64
f 71 73 63
f 73 65 63
f 73 72 65
f 72 64 65
f 74 75 66
f 75 67 66
f 76 74 68
f 74 66 68
f 75 77 69
f 75 69 67
f 78 76 68
f 78 68 70
f 77 79 71
f 77 71 69
f 80 78 70
f 80 70 72
f 79 81 73
f 79 73 71
f 81 80 73
f 80 72 73
f 82 83 74
f 83 75 74
f 84 82 76
f 82 74 76
f 83 85 77
f 83 77 75
f 86 84 76
f 86 76 78
f 85 87 79
f 85 79 77
f 88 86 78
f 88 78 80
f 87 89 79
f 89 81 79
f 89 88 81
f 88 80 81
f 90 91 82
f 91 83 82
f 92 90 84
f 90 82 84
f 91 93 85
f 91 85 83
f 94 92 84
f 94 84 86
f 93 95 87
f 93 87 85
f 96 94 86
f 96 86 88
f 95 97 87
f 97 89 87
f 97 96 89
f 96 88 89
f 98 99 90
f 99 91 90
f 100 98 92
f 98 90 92
f 99 101 93
f 99 93 91
f 102 100 92
f 102 92 94
f 101 103 93
f 103 95 93
f 104 102 94
f 104 94 96
f 103 105 95
f 105 97 95
f 105 104 97
f 104 96 97
f 106 99 98
f 106 98 100
f 106 101 99
f 106 100 102
f 106 103 101
f 106 102 104
f 106 105 103
f 106 104 105
