# Generated by Visualization Toolkit
v -0.0018110000528395176 -0.06374000012874603 -0.031160999089479446
v -0.005942999850958586 -0.06691399961709976 -0.03116299957036972
v -0.0015950000379234552 -0.06991899758577347 -0.034627001732587814
v -0.0019340000580996275 -0.06908900290727615 -0.032301999628543854
v -0.001749000046402216 -0.058490999042987823 -0.029707999899983406
v -0.00583200016990304 -0.061608001589775085 -0.029391000047326088
v 0.0045449999161064625 -0.06581199914216995 -0.030400000512599945
v 0.001979999942705035 -0.06904800236225128 -0.03461400046944618
v 0.005162999965250492 -0.06010900065302849 -0.029340999200940132
v -0.0035800000187009573 -0.06389600038528442 -0.03915899991989136
v -0.0015699999639764428 -0.06889600306749344 -0.03715299814939499
v -0.005044999998062849 -0.05845100060105324 -0.03956399857997894
v 0.00044999999227002263 -0.06874500215053558 -0.036621998995542526
v -0.0025160000659525394 -0.053082000464200974 -0.029293999075889587
v -0.006473000161349773 -0.055810000747442245 -0.030027000233530998
v 0.0029750000685453415 -0.054575998336076736 -0.030277999117970467
v -0.005504999775439501 -0.05298599973320961 -0.03828800097107887
v 0.005446000024676323 -0.06631600111722946 -0.03306199982762337
v 0.0016509999986737967 -0.06940899789333344 -0.03576499968767166
v 0.0060259997844696045 -0.060826998203992844 -0.033075001090765
v 0.0038189999759197235 -0.05515399947762489 -0.032322000712156296
v -0.0002730000123847276 -0.06317199766635895 -0.040970999747514725
v -0.0013289999915286899 -0.06841400265693665 -0.03881699964404106
v 0.00014800000644754618 -0.05756299942731857 -0.04097000136971474
v -0.0012919999426230788 -0.05215299874544144 -0.03965799883008003
v 0.002435999922454357 -0.06780099868774414 -0.03966899961233139
v 0.0027630000840872526 -0.06671799719333649 -0.04088300094008446
v -0.003321999916806817 -0.04762300103902817 -0.02901500090956688
v -0.0067369998432695866 -0.04998299852013588 -0.03007199987769127
v 0.0006389999762177467 -0.049042001366615295 -0.030333999544382095
v -0.005812999792397022 -0.047572001814842224 -0.03650699928402901
v 0.00215000007301569 -0.04973499849438667 -0.03168800100684166
v -0.003292999928817153 -0.04692000150680542 -0.03857100009918213
v 0.006626000162214041 -0.063850998878479 -0.03889999911189079
v 0.007459999993443489 -0.05881299823522568 -0.03771600127220154
v 0.004139000084251165 -0.054166000336408615 -0.03582900017499924
v 0.0014090000186115503 -0.04922499880194664 -0.035686999559402466
v 0.006357999984174967 -0.062380000948905945 -0.042371999472379684
v 0.006093000061810017 -0.05688700079917908 -0.04098900035023689
v 0.0017140000127255917 -0.054308999329805374 -0.03826500102877617
v 0.0001900000061141327 -0.04858800023794174 -0.03697500005364418
v -0.00355300004594028 -0.04220300167798996 -0.028255999088287354
v -0.007205000147223473 -0.04416000097990036 -0.0300539992749691
v -0.00043899999582208693 -0.04332000017166138 -0.029272999614477158
v -0.006440000142902136 -0.042174000293016434 -0.03496599942445755
v 0.001395000028423965 -0.04400699958205223 -0.031762998551130295
v -0.004995000082999468 -0.04182500019669533 -0.03669700026512146
v 0.0005670000100508332 -0.04371799901127815 -0.03520600125193596
v -0.000653000024612993 -0.042688999325037 -0.036316998302936554
v -0.0032140000257641077 -0.03680400177836418 -0.027434000745415688
v -0.007137000095099211 -0.038387998938560486 -0.029488999396562576
v -0.00013299999409355223 -0.037443000823259354 -0.02879299968481064
v -0.006816000211983919 -0.036706000566482544 -0.03365999832749367
v 0.0011149999918416142 -0.03824400156736374 -0.031272001564502716
v -0.005650999955832958 -0.03652000054717064 -0.03479199856519699
v 0.0005380000220611691 -0.03799699991941452 -0.0343099981546402
v -0.0012779999524354935 -0.03711000084877014 -0.03566500172019005
v -0.002570000011473894 -0.03142499923706055 -0.02662299945950508
v -0.00646300008520484 -0.03268599882721901 -0.028410999104380608
v 0.0006089999806135893 -0.03166700154542923 -0.02780199982225895
v -0.0067170001566410065 -0.03117999993264675 -0.03247499838471413
v 0.0011909999884665012 -0.03264100104570389 -0.029823999851942062
v -0.00546600017696619 -0.0309859998524189 -0.03339200094342232
v 0.000446999998530373 -0.03237299993634224 -0.03303299844264984
v -0.001294999965466559 -0.03142699971795082 -0.03468199819326401
v -0.0021069999784231186 -0.026095999404788017 -0.025483999401330948
v -0.005659999791532755 -0.027045000344514847 -0.027225999161601067
v 0.0008660000166855752 -0.026172999292612076 -0.025676999241113663
v -0.006262999959290028 -0.025683000683784485 -0.0312579981982708
v 0.0019020000472664833 -0.027134999632835388 -0.028216000646352768
v -0.004896000027656555 -0.025426000356674194 -0.032329000532627106
v 0.0007340000011026859 -0.026907000690698624 -0.031734999269247055
v -0.0006389999762177467 -0.02572700008749962 -0.03352100029587746
v -0.0018119999440386891 -0.02085000090301037 -0.023936999961733818
v -0.004937999881803989 -0.021409999579191208 -0.025933999568223953
v 0.00043399998685345054 -0.020774999633431435 -0.023437000811100006
v -0.005789999850094318 -0.020221000537276268 -0.029913999140262604
v 0.0028329999186098576 -0.021517999470233917 -0.027129000052809715
v -0.0042849997989833355 -0.019858000800013542 -0.03133700042963028
v 0.0018279999494552612 -0.021421000361442566 -0.03068999946117401
v 0.000446999998530373 -0.020124999806284904 -0.03209500014781952
v -0.0014189999783411622 -0.015720000490546227 -0.0220589991658926
v -0.004782000090926886 -0.015734000131487846 -0.024754000827670097
v 0.0006259999936446548 -0.014675999991595745 -0.022075999528169632
v -0.005607999861240387 -0.014774000272154808 -0.028439000248908997
v 0.0039820000529289246 -0.01597600057721138 -0.025980999693274498
v -0.0038560000248253345 -0.014232000336050987 -0.03060699999332428
v 0.0026700000744313 -0.015807000920176506 -0.029789999127388
v 0.0006539999740198255 -0.014343000017106533 -0.031045999377965927
v -0.0012619999470189214 -0.010347999632358551 -0.02084299921989441
v -0.005750999785959721 -0.009986000135540962 -0.023754000663757324
v 0.004381000064313412 -0.011103999800980091 -0.021226000040769577
v -0.005014999769628048 -0.009254000149667263 -0.02732500061392784
v 0.005545999854803085 -0.010916000232100487 -0.023408999666571617
v -0.003435000078752637 -0.008624999783933163 -0.029952000826597214
v 0.004178000148385763 -0.010324000380933285 -0.02820100076496601
v 0.0008430000161752105 -0.008678000420331955 -0.030727999284863472
v 0.00024500000290572643 -0.006655000150203705 -0.01971999928355217
v -0.005237000063061714 -0.005623999983072281 -0.021114999428391457
v 0.005394000094383955 -0.0073899999260902405 -0.020697999745607376
v -0.004954000003635883 -0.003957999870181084 -0.02640100009739399
v 0.006901999935507774 -0.00622300012037158 -0.02141300030052662
v -0.0032579998951405287 -0.0038189999759197235 -0.029343999922275543
v 0.0047160000540316105 -0.005822999868541956 -0.028564000502228737
v 0.001858999952673912 -0.004629999864846468 -0.0297860000282526
v 0.0006810000049881637 -0.00583200016990304 -0.024553999304771423
f 1 2 4
f 2 3 4
f 5 6 1
f 6 2 1
f 7 1 8
f 1 4 8
f 9 5 1
f 9 1 7
f 2 10 11
f 2 11 3
f 6 12 10
f 6 10 2
f 3 11 13
f 4 3 13
f 8 4 13
f 14 15 5
f 15 6 5
f 16 14 5
f 16 5 9
f 15 17 12
f 15 12 6
f 18 7 8
f 18 8 19
f 20 9 7
f 20 7 18
f 19 8 13
f 21 16 9
f 21 9 20
f 10 22 23
f 10 23 11
f 12 24 22
f 12 22 10
f 11 23 13
f 17 25 12
f 25 24 12
f 26 19 13
f 27 26 13
f 23 27 13
f 28 29 14
f 29 15 14
f 30 28 14
f 30 14 16
f 29 31 17
f 29 17 15
f 32 30 16
f 32 16 21
f 31 33 17
f 33 25 17
f 34 18 26
f 35 20 34
f 20 18 34
f 19 26 18
f 36 21 20
f 36 20 35
f 37 32 36
f 32 21 36
f 22 38 27
f 22 27 23
f 24 39 38
f 24 38 22
f 25 40 24
f 40 39 24
f 33 41 25
f 41 40 25
f 38 34 27
f 34 26 27
f 42 43 28
f 43 29 28
f 44 42 28
f 44 28 30
f 43 45 31
f 43 31 29
f 46 44 30
f 46 30 32
f 45 47 31
f 47 33 31
f 48 46 37
f 46 32 37
f 47 49 33
f 49 41 33
f 39 35 38
f 35 34 38
f 40 36 39
f 36 35 39
f 41 37 40
f 37 36 40
f 49 48 41
f 48 37 41
f 50 51 42
f 51 43 42
f 52 50 42
f 52 42 44
f 51 53 45
f 51 45 43
f 54 52 44
f 54 44 46
f 53 55 45
f 55 47 45
f 56 54 46
f 56 46 48
f 55 57 47
f 57 49 47
f 57 56 49
f 56 48 49
f 58 59 50
f 59 51 50
f 60 58 50
f 60 50 52
f 59 61 53
f 59 53 51
f 62 60 52
f 62 52 54
f 61 63 53
f 63 55 53
f 64 62 54
f 64 54 56
f 63 65 55
f 65 57 55
f 65 64 57
f 64 56 57
f 66 67 58
f 67 59 58
f 68 66 58
f 68 58 60
f 67 69 61
f 67 61 59
f 70 68 60
f 70 60 62
f 69 71 63
f 69 63 61
f 72 70 62
f 72 62 64
f 71 73 63
f 73 65 63
f 73 72 65
f 72 64 65
f 74 75 66
f 75 67 66
f 76 74 68
f 74 66 68
f 75 77 69
f 75 69 67
f 78 76 68
f 78 68 70
f 77 79 71
f 77 71 69
f 80 78 70
f 80 70 72
f 79 81 73
f 79 73 71
f 81 80 73
f 80 72 73
f 82 83 74
f 83 75 74
f 84 82 76
f 82 74 76
f 83 85 77
f 83 77 75
f 86 84 76
f 86 76 78
f 85 87 79
f 85 79 77
f 88 86 78
f 88 78 80
f 87 89 79
f 89 81 79
f 89 88 81
f 88 80 81
f 90 91 82
f 91 83 82
f 92 90 84
f 90 82 84
f 91 93 85
f 91 85 83
f 94 92 84
f 94 84 86
f 93 95 87
f 93 87 85
f 96 94 86
f 96 86 88
f 95 97 89
f 95 89 87
f 97 96 89
f 96 88 89
f 98 99 90
f 99 91 90
f 100 98 92
f 98 90 92
f 99 101 91
f 101 93 91
f 102 100 94
f 100 92 94
f 101 103 95
f 101 95 93
f 104 102 94
f 104 94 96
f 103 105 97
f 103 97 95
f 105 104 97
f 104 96 97
f 106 99 98
f 106 98 100
f 106 101 99
f 106 100 102
f 106 103 101
f 106 102 104
f 106 105 103
f 106 104 105
