# Generated by Visualization Toolkit
v 0.007590999826788902 -0.11032400280237198 -0.031279001384973526
v 0.006897000130265951 -0.1102679967880249 -0.03645100072026253
v 0.0025969999842345715 -0.11028099805116653 -0.040226999670267105
v -0.001310999970883131 -0.11021900177001953 -0.03626900166273117
v -0.0010010000551119447 -0.11031600087881088 -0.032072000205516815
v 0.0022589999716728926 -0.13647900521755219 -0.03438799828290939
v 0.00559999980032444 -0.11470700055360794 -0.031296998262405396
v 0.005619000177830458 -0.11454100161790848 -0.035670001059770584
v 0.0037140001077204943 -0.1100820004940033 -0.02921300008893013
v 0.003398000029847026 -0.11412200331687927 -0.029752999544143677
v 0.0031250000465661287 -0.114826999604702 -0.03949199989438057
v -0.0008399999933317304 -0.11461400240659714 -0.0360260009765625
v -0.0005430000019259751 -0.11452899873256683 -0.03248000144958496
v 0.004978999961167574 -0.1359180063009262 -0.031881000846624374
v 0.003060000017285347 -0.13526299595832825 -0.03113500028848648
v 0.0019519999623298645 -0.1361829936504364 -0.03426399827003479
v 0.00018099999579135329 -0.13229699432849884 -0.034237999469041824
v 0.0038689998909831047 -0.13369600474834442 -0.037105999886989594
v 0.005925999954342842 -0.13221700489521027 -0.03322499990463257
v 0.0048940000124275684 -0.11934299767017365 -0.031259000301361084
v 0.004441000055521727 -0.11883799731731415 -0.03473300114274025
v 0.003200999926775694 -0.11836600303649902 -0.03017600066959858
v 0.0027840000111609697 -0.11942899972200394 -0.03802400082349777
v 0.00021399999968707561 -0.118647001683712 -0.031640999019145966
v -0.00032500000088475645 -0.11900000274181366 -0.035886000841856
v 0.008196000009775162 -0.1327040046453476 -0.030009999871253967
v 0.004935000091791153 -0.13524599373340607 -0.029239999130368233
v 0.003700000001117587 -0.1352110058069229 -0.029505999758839607
v 0.0036700000055134296 -0.13097000122070312 -0.029603000730276108
v 0.0014609999489039183 -0.13140499591827393 -0.0316459983587265
v 0.0008360000210814178 -0.12720000743865967 -0.031307999044656754
v -0.0002099999983329326 -0.12783800065517426 -0.03467699885368347
v 0.0032430000137537718 -0.1289920061826706 -0.036184001713991165
v 0.004906000103801489 -0.1277559995651245 -0.03375700116157532
v 0.0059739998541772366 -0.12887699902057648 -0.030037999153137207
v 0.004916999954730272 -0.12440700083971024 -0.030546000227332115
v 0.004244000185281038 -0.12334299832582474 -0.03428899869322777
v 0.0028200000524520874 -0.12255900353193283 -0.030215999111533165
v 0.002638000063598156 -0.12426000088453293 -0.037255000323057175
v 0.0006329999887384474 -0.12287800014019012 -0.03112800046801567
v -0.00020700000459328294 -0.12340699881315231 -0.03516300022602081
v 0.0032889998983591795 -0.1267549991607666 -0.029879000037908554
f 6 1 5
f 1 2 5
f 2 3 5
f 4 5 3
f 2 1 8
f 1 7 8
f 1 9 7
f 9 10 7
f 3 2 11
f 2 8 11
f 4 3 12
f 3 11 12
f 5 4 13
f 4 12 13
f 9 5 10
f 5 13 10
f 6 14 15
f 6 15 16
f 17 18 16
f 18 6 16
f 18 19 6
f 19 14 6
f 8 7 21
f 7 20 21
f 7 10 22
f 7 22 20
f 11 8 23
f 8 21 23
f 10 13 22
f 13 24 22
f 12 11 23
f 12 23 25
f 13 12 25
f 13 25 24
f 19 26 14
f 26 27 14
f 14 27 15
f 27 28 15
f 29 30 15
f 29 15 28
f 30 17 15
f 17 16 15
f 31 32 30
f 32 17 30
f 32 33 17
f 33 18 17
f 33 34 19
f 33 19 18
f 34 35 19
f 35 26 19
f 21 20 37
f 20 36 37
f 20 22 38
f 20 38 36
f 23 21 37
f 23 37 39
f 22 24 38
f 24 40 38
f 25 23 41
f 23 39 41
f 24 25 41
f 24 41 40
f 26 29 27
f 29 28 27
f 35 42 29
f 35 29 26
f 42 31 29
f 31 30 29
f 38 40 42
f 40 31 42
f 40 41 31
f 41 32 31
f 41 39 32
f 39 33 32
f 39 37 34
f 39 34 33
f 37 36 34
f 36 35 34
f 36 38 42
f 36 42 35
