# Generated by Visualization Toolkit
v 0.0008110000053420663 -0.004906000103801489 0.005553000140935183
v 0.0037529999390244484 -0.003370000049471855 -0.00016199999663513154
v 0.001496999990195036 -0.0036869999021291733 -0.005040000192821026
v -0.0033130000811070204 -0.003375000087544322 0.00002300000051036477
v 0.0006120000034570694 -0.007621000055223703 0.004761999938637018
v 0.003601999953389168 -0.006777999922633171 -0.00023200000578071922
v -0.003200999926775694 -0.0070130000822246075 -0.0004619999963324517
v 0.0013640000252053142 -0.00749199977144599 -0.0045779999345541
v 0.00010900000052060932 -0.01039700023829937 0.004523999989032745
v 0.0025239998940378428 -0.009847000241279602 0.000582000007852912
v -0.0022559999488294125 -0.010444999672472477 0.0002640000020619482
v 0.0003600000054575503 -0.010510999709367752 -0.0022849999368190765
v 0.00004099999932805076 -0.012990999966859818 0.004052000120282173
v 0.0023109999019652605 -0.013220000080764294 0.0010999999940395355
v -0.0021460000425577164 -0.013965999707579613 0.0011129999766126275
v 0.00007400000322377309 -0.014131000265479088 -0.0011350000277161598
v 0.0012369999894872308 -0.015633000060915947 0.004908000119030476
v 0.002266000024974346 -0.0164170004427433 0.0022440000902861357
v -0.001896000001579523 -0.017518000677227974 0.0019039999460801482
v 0.000598000013269484 -0.01830199919641018 -0.0004349999944679439
v 0.0021180000621825457 -0.018290000036358833 0.005512000061571598
v 0.003137999912723899 -0.019673999398946762 0.0030169999226927757
v -0.000493000028654933 -0.020666999742388725 0.0030990000814199448
v 0.00145800004247576 -0.021939000114798546 0.001025000005029142
v 0.0028440000023692846 -0.020966000854969025 0.006020000204443932
v 0.0020959998946636915 -0.022664999589323997 0.0041680000722408295
v 0.0016139999497681856 -0.023009000346064568 0.00496899988502264
f 1 2 4
f 2 3 4
f 2 1 6
f 1 5 6
f 1 4 5
f 4 7 5
f 3 2 6
f 3 6 8
f 4 3 7
f 3 8 7
f 6 5 10
f 5 9 10
f 5 7 11
f 5 11 9
f 8 6 12
f 6 10 12
f 7 8 12
f 7 12 11
f 10 9 14
f 9 13 14
f 9 11 13
f 11 15 13
f 12 10 14
f 12 14 16
f 11 12 16
f 11 16 15
f 14 13 18
f 13 17 18
f 13 15 17
f 15 19 17
f 16 14 18
f 16 18 20
f 15 16 19
f 16 20 19
f 18 17 21
f 18 21 22
f 17 19 21
f 19 23 21
f 20 18 22
f 20 22 24
f 19 20 23
f 20 24 23
f 22 21 25
f 22 25 26
f 21 23 25
f 23 27 25
f 24 22 26
f 23 24 26
f 23 26 27
f 26 25 27
