# Generated by Visualization Toolkit
v 0.00019700000120792538 -0.13676099479198456 0.026993000879883766
v -0.0006210000137798488 -0.13651500642299652 0.020680999383330345
v -0.00584500003606081 -0.13664600253105164 0.01603100076317787
v -0.010642999783158302 -0.13698799908161163 0.020824000239372253
v -0.01028599962592125 -0.1372700035572052 0.025942999869585037
v -0.005032999906688929 -0.1701200008392334 0.02180200070142746
v -0.002022000029683113 -0.1424430012702942 0.026726000010967255
v -0.001979999942705035 -0.1420450061559677 0.021400999277830124
v -0.00455900002270937 -0.13679200410842896 0.02948799915611744
v -0.004747000057250261 -0.14191000163555145 0.02861900068819523
v -0.004987000022083521 -0.14240500330924988 0.016697999089956284
v -0.009856999851763248 -0.14253799617290497 0.020898999646306038
v -0.0095210000872612 -0.14256200194358826 0.02523300051689148
v -0.0017549999756738544 -0.16933999955654144 0.02491600066423416
v -0.004133999813348055 -0.16866500675678253 0.025840999558568
v -0.005423000082373619 -0.16976900398731232 0.02196500077843666
v -0.007772000040858984 -0.16495899856090546 0.022179000079631805
v -0.003186000045388937 -0.16637299954891205 0.018644999712705612
v -0.0007689999765716493 -0.16453200578689575 0.023476000875234604
v -0.00266100000590086 -0.14836600422859192 0.026527000591158867
v -0.0032160000409930944 -0.1476069986820221 0.022311000153422356
v -0.004780999850481749 -0.14728300273418427 0.02788200043141842
v -0.005189999938011169 -0.1483220010995865 0.01824899949133396
v -0.008403999730944633 -0.14776800572872162 0.026050999760627747
v -0.009019000455737114 -0.14806899428367615 0.02084900066256523
v 0.0020039998926222324 -0.1651410013437271 0.02739500068128109
v -0.0018570000538602471 -0.16860400140285492 0.028171999379992485
v -0.0033660000190138817 -0.1686290055513382 0.027837000787258148
v -0.003604999976232648 -0.16325199604034424 0.02793700061738491
v -0.006268000230193138 -0.16385699808597565 0.02539999969303608
v -0.007234999909996986 -0.15858200192451477 0.026023000478744507
v -0.008460000157356262 -0.15931500494480133 0.021870000287890434
v -0.004182000178843737 -0.1604910045862198 0.020005999132990837
v -0.002225999953225255 -0.1589210033416748 0.02304700016975403
v -0.0008919999818317592 -0.16043199598789215 0.027535999193787575
v -0.002394000068306923 -0.1548130065202713 0.027135999873280525
v -0.0032430000137537718 -0.15334799885749817 0.022617999464273453
v -0.005044000223278999 -0.15262000262737274 0.02761399932205677
v -0.005140999797731638 -0.1544869989156723 0.01893799938261509
v -0.007691999897360802 -0.15312600135803223 0.026464000344276428
v -0.008667999878525734 -0.15367799997329712 0.02150600031018257
v -0.004271000158041716 -0.15792199969291687 0.027814000844955444
f 6 1 5
f 1 2 5
f 2 3 5
f 4 5 3
f 2 1 8
f 1 7 8
f 1 9 7
f 9 10 7
f 3 2 11
f 2 8 11
f 4 3 12
f 3 11 12
f 5 4 13
f 4 12 13
f 9 5 10
f 5 13 10
f 6 14 15
f 6 15 16
f 17 18 16
f 18 6 16
f 18 19 14
f 18 14 6
f 8 7 21
f 7 20 21
f 7 10 22
f 7 22 20
f 11 8 23
f 8 21 23
f 10 13 22
f 13 24 22
f 12 11 23
f 12 23 25
f 13 12 25
f 13 25 24
f 19 26 14
f 26 27 14
f 14 27 15
f 27 28 15
f 29 30 15
f 29 15 28
f 30 17 15
f 17 16 15
f 31 32 30
f 32 17 30
f 32 33 17
f 33 18 17
f 33 34 19
f 33 19 18
f 34 35 19
f 35 26 19
f 21 20 37
f 20 36 37
f 20 22 38
f 20 38 36
f 23 21 37
f 23 37 39
f 22 24 38
f 24 40 38
f 25 23 41
f 23 39 41
f 24 25 41
f 24 41 40
f 26 29 27
f 29 28 27
f 35 42 29
f 35 29 26
f 42 31 29
f 31 30 29
f 38 40 42
f 40 31 42
f 40 41 31
f 41 32 31
f 41 39 32
f 39 33 32
f 39 37 34
f 39 34 33
f 37 36 34
f 36 35 34
f 36 38 42
f 36 42 35
