# Generated by Visualization Toolkit
v 0.005344000179320574 -0.007385000120848417 0.004459000192582607
v 0.00443999981507659 -0.007579000201076269 -0.001841000048443675
v -0.000830999983008951 -0.007602000143378973 -0.006399999838322401
v -0.005535999778658152 -0.007129000034183264 -0.001538999960757792
v -0.005109999794512987 -0.007017000112682581 0.0035800000187009573
v 0.0006569999968633056 -0.006819999776780605 0.0070050000213086605
v 0.00291600008495152 -0.012147000059485435 0.004695000126957893
v 0.0028890001121908426 -0.0122079998254776 -0.000645000021904707
v 0.0002589999930933118 -0.011311000213027 0.006568999961018562
v -0.00018899999849963933 -0.012620000168681145 -0.005266000051051378
v -0.0049680001102387905 -0.012005999684333801 -0.0010089999996125698
v -0.00456500006839633 -0.011726999655365944 0.00330700003542006
v 0.002050000010058284 -0.01724799908697605 0.004999000113457441
v 0.0014600000577047467 -0.016860000789165497 0.0007409999961964786
v 0.000007000000096013537 -0.016025999560952187 0.006285000126808882
v -0.0005939999828115106 -0.017620999366044998 -0.0032220000866800547
v -0.003642000025138259 -0.016277000308036804 0.004544000141322613
v -0.004348000045865774 -0.01688000001013279 -0.0006070000235922635
v 0.0020779999904334545 -0.022817999124526978 0.006140999961644411
v 0.0012179999612271786 -0.021817000582814217 0.0015269999857991934
v -0.00046400001156143844 -0.02065500058233738 0.006465999875217676
v -0.000770999991800636 -0.022921999916434288 -0.0020210000220686197
v -0.0031330001074820757 -0.020956000313162804 0.005394999869167805
v -0.0042039998807013035 -0.021726999431848526 0.0005119999987073243
v 0.003360999980941415 -0.02779100090265274 0.00699200015515089
v 0.002022000029683113 -0.026706000789999962 0.0024079999420791864
v 0.00010299999848939478 -0.025304999202489853 0.007098999805748463
v -0.00003199999991920777 -0.028132999315857887 -0.0004659999976865947
v -0.0028959999326616526 -0.025761999189853668 0.005404999945312738
v -0.004207999911159277 -0.026607999578118324 0.0013439999893307686
v 0.006056000012904406 -0.03213300183415413 0.007209000177681446
v 0.0032599999103695154 -0.031665999442338943 0.003287999890744686
v 0.0005629999795928597 -0.029976999387145042 0.007660000119358301
v 0.0007099999929778278 -0.033424001187086105 -0.0013439999893307686
v -0.002148000057786703 -0.030469000339508057 0.00521400012075901
v -0.003737000050023198 -0.03154100105166435 0.002116000046953559
v 0.002096999902278185 -0.034752000123262405 0.008320000022649765
v 0.0021180000621825457 -0.035645999014377594 0.005135000217705965
v 0.0005920000257901847 -0.03467100113630295 0.008005999960005283
v -0.001218999968841672 -0.03627999871969223 0.002136999974027276
v -0.00020500000391621143 -0.03478899970650673 0.006029999814927578
v -0.0015899999998509884 -0.035930000245571136 0.00227600010111928
f 3 4 2
f 2 4 1
f 1 4 6
f 5 6 4
f 2 1 8
f 1 7 8
f 1 6 7
f 6 9 7
f 3 2 10
f 2 8 10
f 4 3 11
f 3 10 11
f 5 4 12
f 4 11 12
f 6 5 9
f 5 12 9
f 8 7 14
f 7 13 14
f 7 9 15
f 7 15 13
f 10 8 16
f 8 14 16
f 9 12 17
f 9 17 15
f 11 10 16
f 11 16 18
f 12 11 18
f 12 18 17
f 14 13 20
f 13 19 20
f 13 15 21
f 13 21 19
f 16 14 20
f 16 20 22
f 15 17 21
f 17 23 21
f 18 16 24
f 16 22 24
f 17 18 24
f 17 24 23
f 20 19 26
f 19 25 26
f 19 21 27
f 19 27 25
f 22 20 26
f 22 26 28
f 21 23 27
f 23 29 27
f 24 22 30
f 22 28 30
f 23 24 29
f 24 30 29
f 26 25 32
f 25 31 32
f 25 27 33
f 25 33 31
f 28 26 32
f 28 32 34
f 27 29 33
f 29 35 33
f 30 28 36
f 28 34 36
f 29 30 35
f 30 36 35
f 32 31 38
f 31 37 38
f 31 33 37
f 33 39 37
f 34 32 40
f 32 38 40
f 33 35 41
f 33 41 39
f 36 34 42
f 34 40 42
f 35 36 41
f 36 42 41
f 38 37 41
f 37 39 41
f 40 38 41
f 40 41 42
