# Generated by Visualization Toolkit
v 0.004118999931961298 -0.04592600092291832 0.0024649999104440212
v 0.004497999791055918 -0.04472700133919716 0.0057230000384151936
v 0.006792000029236078 -0.05113700032234192 0.005462000146508217
v 0.0075159999541938305 -0.051329001784324646 0.004002999980002642
v 0.0012390000047162175 -0.04045800119638443 0.0016060000052675605
v 0.0031510000117123127 -0.03856699913740158 0.004763000179082155
v 0.0009950000094249845 -0.0433179996907711 0.0014420000370591879
v 0.0025629999581724405 -0.04883100092411041 0.0033199999015778303
v 0.00012700000661425292 -0.03764199838042259 -0.00021100000594742596
v 0.0021669999696314335 -0.04374200105667114 0.007096000015735626
v 0.004668999928981066 -0.0492670014500618 0.008088000118732452
v 0.0016980000073090196 -0.03747100010514259 0.0063390000723302364
v 0.002383999992161989 -0.05459100008010864 0.008875999599695206
v 0.002732000080868602 -0.05487100034952164 0.005288999993354082
v 0.0010519999777898192 -0.03383199870586395 0.00006900000153109431
v 0.0017000000225380063 -0.03240299969911575 0.002962999977171421
v 0.00008099999831756577 -0.03181900084018707 -0.0017369999550282955
v 0.0009130000253207982 -0.03131299838423729 0.005582000128924847
v -0.001766999950632453 -0.04319800063967705 0.002598999999463558
v 0.0000470000013592653 -0.0489949993789196 0.003501000115647912
v -0.0030930000357329845 -0.037376999855041504 0.0013129999861121178
v -0.0036869999021291733 -0.03164700046181679 -0.0007730000070296228
v 0.0019630000460892916 -0.044787999242544174 0.012760000303387642
v 0.005456999875605106 -0.05010699853301048 0.013850999996066093
v -0.0004900000058114529 -0.03890300169587135 0.01116199977695942
v 0.0018820000113919377 -0.054242998361587524 0.011409999802708626
v -0.0001449999981559813 -0.032280001789331436 0.010329999960958958
v 0.0007389999809674919 -0.055048998445272446 0.006461999844759703
v 0.0010339999571442604 -0.05407800152897835 0.013024000450968742
v -0.002887000096961856 -0.05305499956011772 0.011106000281870365
v -0.0018550000386312604 -0.049532998353242874 0.006231999956071377
v 0.0016499999910593033 -0.02707800082862377 -0.0017010000301524997
v 0.0016029999824240804 -0.025971999391913414 0.0018060000147670507
v 0.000007000000096013537 -0.02602200023829937 -0.003379999892786145
v 0.0007340000011026859 -0.025133000686764717 0.004798999987542629
v -0.0035669999197125435 -0.02584500052034855 -0.0028009999077767134
v -0.0005239999736659229 -0.025815000757575035 0.009173000231385231
v -0.0029929999727755785 -0.04343299940228462 0.005547999870032072
v -0.004738000221550465 -0.03757699951529503 0.004561000037938356
v -0.005869000218808651 -0.0316770002245903 0.0032049999572336674
v -0.006446999963372946 -0.025668999180197716 0.0017750000115484
v -0.0006769999745301902 -0.04235700145363808 0.011668999679386616
v 0.0002739999908953905 -0.048165999352931976 0.01270699966698885
v -0.0015409999759867787 -0.036552999168634415 0.010626000352203846
v -0.002570000011473894 -0.030712999403476715 0.009583000093698502
v -0.003312000073492527 -0.024840999394655228 0.008670000359416008
v -0.0023040000814944506 -0.0474729984998703 0.009824000298976898
v -0.0032190000638365746 -0.041861001402139664 0.009372999891638756
v 0.002641000086441636 -0.020723000168800354 -0.0033199999015778303
v 0.002652999944984913 -0.019717000424861908 -0.00007899999764049426
v 0.0003640000068116933 -0.020385999232530594 -0.005437999963760376
v 0.0014979999978095293 -0.01891399919986725 0.003836000105366111
v -0.0034099998883903027 -0.020036999136209488 -0.004739999771118164
v -0.00010299999848939478 -0.0192709993571043 0.007784999907016754
v -0.007083999924361706 -0.01967800036072731 0.00039500001003034413
v -0.0023789999540895224 -0.018967000767588615 0.008484999649226665
v -0.004604000132530928 -0.03628699854016304 0.008785000070929527
v -0.005619000177830458 -0.030758999288082123 0.007592999842017889
v -0.006087999790906906 -0.025172000750899315 0.006393999792635441
v -0.006587999872863293 -0.019565999507904053 0.005235000047832727
v 0.004976999945938587 -0.014619999565184116 -0.004360000137239695
v 0.005795000120997429 -0.014089000411331654 -0.0013119999784976244
v 0.0017290000105276704 -0.014833999797701836 -0.007203000131994486
v 0.005183999892324209 -0.013922000303864479 0.0037559999618679285
v -0.004430000204592943 -0.014512999914586544 -0.00725100003182888
v 0.002964999992400408 -0.013438000343739986 0.008169000037014484
v -0.0075159999541938305 -0.013763000257313251 -0.0013650000328198075
v -0.0023759999312460423 -0.013028999790549278 0.008963000029325485
v -0.007387999910861254 -0.014001999981701374 0.004071999806910753
v 0.0039029999170452356 -0.008461999706923962 -0.006570999976247549
v 0.005882999859750271 -0.008117999881505966 -0.0032130000181496143
v 0.004974000155925751 -0.007828000001609325 0.002524999901652336
v -0.0037090000696480274 -0.008504999801516533 -0.007000999990850687
v 0.003461000043898821 -0.007069999817758799 0.006996000185608864
v -0.006792000029236078 -0.007625000085681677 -0.00145800004247576
v -0.0020290000829845667 -0.007284999825060368 0.007799999788403511
v -0.006742999888956547 -0.008325000293552876 0.003596999915316701
v 0.00030300000798888505 -0.009026999585330486 -0.00041700000292621553
f 1 2 3
f 1 3 4
f 5 6 2
f 5 2 1
f 7 1 8
f 1 4 8
f 9 5 7
f 5 1 7
f 2 10 11
f 2 11 3
f 6 12 10
f 6 10 2
f 3 11 13
f 4 3 13
f 13 14 4
f 14 8 4
f 15 16 6
f 15 6 5
f 17 15 9
f 15 5 9
f 16 18 12
f 16 12 6
f 19 7 20
f 7 8 20
f 21 9 19
f 9 7 19
f 8 14 20
f 22 17 21
f 17 9 21
f 10 23 11
f 23 24 11
f 12 25 10
f 25 23 10
f 11 24 26
f 11 26 13
f 18 27 12
f 27 25 12
f 30 28 29
f 28 13 29
f 26 29 13
f 13 28 14
f 31 20 28
f 20 14 28
f 32 33 16
f 32 16 15
f 34 32 17
f 32 15 17
f 33 35 18
f 33 18 16
f 36 34 17
f 36 17 22
f 35 37 18
f 37 27 18
f 38 19 20
f 38 20 31
f 39 21 19
f 39 19 38
f 40 22 21
f 40 21 39
f 41 36 22
f 41 22 40
f 23 42 43
f 23 43 24
f 25 44 42
f 25 42 23
f 24 29 26
f 24 43 29
f 27 45 44
f 27 44 25
f 37 46 45
f 37 45 27
f 47 31 30
f 31 28 30
f 43 47 30
f 43 30 29
f 48 38 47
f 38 31 47
f 49 50 33
f 49 33 32
f 51 49 34
f 49 32 34
f 50 52 33
f 52 35 33
f 53 51 34
f 53 34 36
f 52 54 35
f 54 37 35
f 55 53 36
f 55 36 41
f 54 56 46
f 54 46 37
f 57 39 48
f 39 38 48
f 58 40 57
f 40 39 57
f 59 41 40
f 59 40 58
f 60 55 41
f 60 41 59
f 42 48 47
f 42 47 43
f 44 57 48
f 44 48 42
f 45 58 57
f 45 57 44
f 46 59 58
f 46 58 45
f 56 60 46
f 60 59 46
f 61 62 50
f 61 50 49
f 63 61 49
f 63 49 51
f 62 64 50
f 64 52 50
f 65 63 53
f 63 51 53
f 64 66 52
f 66 54 52
f 67 65 53
f 67 53 55
f 66 68 54
f 68 56 54
f 69 67 55
f 69 55 60
f 68 69 56
f 69 60 56
f 70 71 61
f 71 62 61
f 70 61 63
f 71 72 62
f 72 64 62
f 73 70 63
f 73 63 65
f 72 74 64
f 74 66 64
f 75 73 67
f 73 65 67
f 74 76 66
f 76 68 66
f 77 75 67
f 77 67 69
f 76 77 68
f 77 69 68
f 70 73 78
f 71 70 78
f 72 71 78
f 74 72 78
f 73 75 78
f 76 74 78
f 75 77 78
f 77 76 78
