# Generated by Visualization Toolkit
v 0.00624299980700016 -0.0749569982290268 0.05978799983859062
v 0.0033950000070035458 -0.07761400192975998 0.05861499905586243
v 0.005987000185996294 -0.07979200035333633 0.060412000864744186
v 0.008051999844610691 -0.07836399972438812 0.060575999319553375
v 0.010878000408411026 -0.07732100039720535 0.06211400032043457
v 0.011278999969363213 -0.07260400056838989 0.06124399974942207
v 0.01064900029450655 -0.06846100091934204 0.058765001595020294
v 0.004987000022083521 -0.07134400308132172 0.05788499861955643
v 0.0026809999253600836 -0.0734340026974678 0.05677799880504608
v 0.0049299998208880424 -0.07776299864053726 0.05541900172829628
v 0.00612299982458353 -0.0792279988527298 0.05720200017094612
v 0.0037640000227838755 -0.07444799691438675 0.05481399968266487
v 0.008182999677956104 -0.08432099968194962 0.06271900236606598
v 0.01014699973165989 -0.08305100351572037 0.0644029974937439
v 0.008797000162303448 -0.0854950025677681 0.06061499938368797
v 0.013983000069856644 -0.07650300115346909 0.06317900121212006
v 0.014340000227093697 -0.07265300303697586 0.06269299983978271
v 0.014015000313520432 -0.08231499791145325 0.06443600356578827
v 0.013640999794006348 -0.0681380033493042 0.059484001249074936
v 0.011443999595940113 -0.07082799822092056 0.055668000131845474
v 0.0068870000541210175 -0.07242400199174881 0.05516599863767624
v 0.009696000255644321 -0.07644400000572205 0.053068000823259354
v 0.009638000279664993 -0.07846400141716003 0.05512399971485138
v 0.00861900020390749 -0.07377800345420837 0.052163999527692795
v 0.011269999668002129 -0.08526899665594101 0.059310998767614365
v 0.009305999614298344 -0.08790300041437149 0.06469099968671799
v 0.011385000310838223 -0.0875919982790947 0.06539300084114075
v 0.009735999628901482 -0.0894479975104332 0.0626550018787384
v 0.015908999368548393 -0.08709099888801575 0.06592400372028351
v 0.012076999992132187 -0.09022200107574463 0.062134999781847
v 0.015077999792993069 -0.07714000344276428 0.05995599925518036
v 0.015269000083208084 -0.07402899861335754 0.05897900089621544
v 0.01463400013744831 -0.08310999721288681 0.06176700070500374
v 0.015525000169873238 -0.07041999697685242 0.05722799897193909
v 0.015728000551462173 -0.08791700005531311 0.06355900317430496
v 0.013635000213980675 -0.07270999997854233 0.05286800116300583
v 0.012660999782383442 -0.07551299780607224 0.0543689988553524
v 0.01282699964940548 -0.07788799703121185 0.056338001042604446
v 0.013539000414311886 -0.08459100127220154 0.05993599817156792
v 0.014417000114917755 -0.08941300213336945 0.06236699968576431
v 0.010293000377714634 -0.09453800320625305 0.0653970018029213
v 0.013276999816298485 -0.09040100127458572 0.06707900017499924
v 0.011951000429689884 -0.09395600110292435 0.06383199989795685
v 0.01649099960923195 -0.09177999943494797 0.06697200238704681
v 0.016959000378847122 -0.09321200102567673 0.06566300243139267
v 0.014948000200092793 -0.09338200092315674 0.06456200033426285
v 0.012559999711811543 -0.09620600193738937 0.06638900190591812
v 0.014806999824941158 -0.09600000083446503 0.06572099775075912
v 0.016049999743700027 -0.09660200029611588 0.06710900366306305
f 1 2 3
f 1 3 4
f 4 5 1
f 5 6 1
f 6 7 8
f 6 8 1
f 1 8 9
f 1 9 2
f 3 2 11
f 2 10 11
f 10 2 12
f 2 9 12
f 4 3 13
f 4 13 14
f 3 11 15
f 3 15 13
f 4 14 5
f 6 5 16
f 6 16 17
f 5 14 18
f 5 18 16
f 7 6 19
f 6 17 19
f 20 7 19
f 7 20 21
f 7 21 8
f 8 21 9
f 9 21 12
f 10 22 23
f 10 23 11
f 12 24 10
f 24 22 10
f 11 23 25
f 11 25 15
f 12 21 24
f 13 26 14
f 26 27 14
f 13 15 26
f 15 28 26
f 14 27 18
f 27 29 18
f 15 25 28
f 25 30 28
f 17 16 32
f 16 31 32
f 31 16 33
f 16 18 33
f 32 34 17
f 34 19 17
f 33 18 29
f 33 29 35
f 20 19 34
f 34 36 20
f 20 36 24
f 20 24 21
f 22 37 23
f 37 38 23
f 22 24 37
f 24 36 37
f 23 38 25
f 38 39 25
f 25 39 40
f 25 40 30
f 26 41 42
f 26 42 27
f 26 28 41
f 28 43 41
f 27 42 29
f 42 44 29
f 28 30 43
f 35 29 44
f 35 44 45
f 30 40 46
f 30 46 43
f 33 39 31
f 39 38 31
f 31 38 32
f 38 37 32
f 37 36 32
f 36 34 32
f 35 40 39
f 35 39 33
f 45 46 35
f 46 40 35
f 41 47 42
f 48 47 43
f 47 41 43
f 49 44 42
f 42 47 49
f 43 46 48
f 49 45 44
f 48 46 45
f 49 48 45
f 49 47 48
