# Generated by Visualization Toolkit
v 0.11618199944496155 0.029906999319791794 -0.0203699991106987
v 0.11777400225400925 0.029293999075889587 -0.020560000091791153
v 0.11657600104808807 0.030256999656558037 -0.021445000544190407
v 0.11727800220251083 0.02878900058567524 -0.01969200000166893
v 0.11140400171279907 0.03000500053167343 -0.019915999844670296
v 0.11518599838018417 0.028429999947547913 -0.01881599985063076
v 0.11717399954795837 0.028269000351428986 -0.019247999414801598
v 0.11799599975347519 0.02982800081372261 -0.02179500088095665
v 0.119998998939991 0.02797600068151951 -0.021164000034332275
v 0.11781200021505356 0.028555000200867653 -0.023372000083327293
v 0.10894600301980972 0.03017600066959858 -0.021588999778032303
v 0.11719200015068054 0.02843499928712845 -0.025832999497652054
v 0.11806699633598328 0.027533000335097313 -0.025539999827742577
v 0.10378199815750122 0.02327599935233593 -0.02047000080347061
v 0.10047099739313126 0.026260999962687492 -0.02264999970793724
v 0.1182129979133606 0.026704000309109688 -0.01789899915456772
v 0.11860600113868713 0.027413999661803246 -0.018803000450134277
v 0.12020999938249588 0.028497999534010887 -0.022304000332951546
v 0.11896199733018875 0.026649000123143196 -0.025185000151395798
v 0.12043700367212296 0.026782000437378883 -0.02189899981021881
v 0.12031400203704834 0.02707800082862377 -0.02097800001502037
v 0.10071899741888046 0.027667000889778137 -0.025502000004053116
v 0.1017099991440773 0.027494000270962715 -0.02731500007212162
v 0.10169800370931625 0.028308000415563583 -0.023469999432563782
v 0.11781200021505356 0.026055999100208282 -0.026907000690698624
v 0.11568199843168259 0.02236899919807911 -0.0284269992262125
v 0.11678499728441238 0.02399200014770031 -0.02783999964594841
v 0.1187020018696785 0.025211000815033913 -0.02662999927997589
v 0.11199100315570831 0.01744999922811985 -0.0160910002887249
v 0.11256600171327591 0.01868399977684021 -0.016705000773072243
v 0.09942100197076797 0.018484000116586685 -0.019682999700307846
v 0.09803900122642517 0.02002899907529354 -0.02063800022006035
v 0.1148340031504631 0.02206600084900856 -0.017792999744415283
v 0.11586499959230423 0.023181000724434853 -0.01773799955844879
v 0.0985179990530014 0.021229000762104988 -0.020973000675439835
v 0.11733900010585785 0.025596000254154205 -0.017674999311566353
v 0.09876900166273117 0.02509400062263012 -0.022638000547885895
v 0.09919899702072144 0.025843000039458275 -0.02311900071799755
v 0.11792299896478653 0.025283999741077423 -0.018167000263929367
v 0.11979500204324722 0.027007000520825386 -0.02376299910247326
v 0.11969300359487534 0.025419000536203384 -0.025704000145196915
v 0.12009900063276291 0.026504000648856163 -0.023886000737547874
v 0.11630500108003616 0.016196999698877335 -0.021278999745845795
v 0.11733999848365784 0.02309500053524971 -0.018557000905275345
v 0.11703900247812271 0.021031999960541725 -0.019094999879598618
v 0.0989459976553917 0.02662299945950508 -0.026149999350309372
v 0.10064399987459183 0.027627000585198402 -0.024746999144554138
v 0.09883800148963928 0.026670999825000763 -0.025364000350236893
v 0.10166200250387192 0.024894999340176582 -0.028568999841809273
v 0.09977699816226959 0.026812000200152397 -0.02354300022125244
v 0.10011500120162964 0.02740900032222271 -0.024095000699162483
v 0.11823999881744385 0.023646000772714615 -0.02787799946963787
v 0.11737900227308273 0.022319000214338303 -0.028502000495791435
v 0.11652500182390213 0.021203000098466873 -0.029059000313282013
v 0.09941799938678741 0.02297299914062023 -0.029749000445008278
v 0.10215800255537033 0.020258000120520592 -0.030541999265551567
v 0.10177099704742432 0.016011999920010567 -0.032148998230695724
v 0.11080099642276764 0.015562999993562698 -0.0312460009008646
v 0.11213500052690506 0.015217999927699566 -0.014979000203311443
v 0.11270800232887268 0.01765199936926365 -0.016401000320911407
v 0.1097629964351654 0.014959000051021576 -0.014429000206291676
v 0.11150600016117096 0.016183000057935715 -0.0149940000846982
v 0.11328600347042084 0.018882999196648598 -0.01696000061929226
v 0.11471399664878845 0.01988700032234192 -0.01773099973797798
v 0.11466299742460251 0.02095700055360794 -0.017819000408053398
v 0.09713699668645859 0.017587000504136086 -0.01947000063955784
v 0.09754300117492676 0.01881599985063076 -0.020260000601410866
v 0.09626500308513641 0.01970900036394596 -0.020868999883532524
v 0.11515899747610092 0.020726000890135765 -0.017954999580979347
v 0.11609899997711182 0.02114499919116497 -0.018254000693559647
v 0.1171180009841919 0.0236239992082119 -0.018303999677300453
v 0.09830799698829651 0.023831000551581383 -0.02219800092279911
v 0.09804700314998627 0.022683000192046165 -0.02174600027501583
v 0.09761399775743484 0.02153399959206581 -0.021321000531315804
v 0.09774599969387054 0.024768000468611717 -0.023082999512553215
v 0.11705899983644485 0.020086999982595444 -0.02938699908554554
v 0.11556199938058853 0.015964999794960022 -0.018876999616622925
v 0.11348699778318405 0.005429000128060579 -0.02087000012397766
v 0.11620199680328369 0.013364000245928764 -0.028219999745488167
v 0.11598099768161774 0.011339000426232815 -0.027924999594688416
v 0.11568800359964371 0.009277000091969967 -0.028641000390052795
v 0.11536599695682526 0.007156999781727791 -0.026472000405192375
v 0.1165509968996048 0.014972000382840633 -0.028410999104380608
v 0.11651500314474106 0.020193999633193016 -0.01893400028347969
v 0.09890499711036682 0.025980999693274498 -0.02695699967443943
v 0.09800499677658081 0.02474600076675415 -0.027334999293088913
v 0.09838400036096573 0.026271000504493713 -0.025993000715970993
v 0.0989459976553917 0.025306999683380127 -0.02773899957537651
v 0.11612299829721451 0.02028300054371357 -0.02954299934208393
v 0.10036200284957886 0.020586999133229256 -0.030574999749660492
v 0.09935200214385986 0.021091999486088753 -0.03034600056707859
v 0.09867600351572037 0.022727999836206436 -0.029318999499082565
v 0.09766700118780136 0.018933000043034554 -0.030230000615119934
v 0.10069900006055832 0.018619000911712646 -0.0315219983458519
v 0.09990900009870529 0.01891399919986725 -0.031238000839948654
v 0.09987799823284149 0.015982000157237053 -0.03304300084710121
v 0.09889200329780579 0.011008000001311302 -0.03319599851965904
v 0.1003120020031929 0.017253000289201736 -0.03229900076985359
v 0.11562299728393555 0.018566999584436417 -0.030274000018835068
v 0.11584100127220154 0.019387999549508095 -0.029972000047564507
v 0.11538799852132797 0.01753699965775013 -0.03054100088775158
v 0.11407499760389328 0.015331000089645386 -0.030538000166416168
v 0.11167199909687042 0.015130000188946724 -0.01445899996906519
v 0.11269000172615051 0.016467999666929245 -0.015838000923395157
v 0.11274799704551697 0.015267999842762947 -0.015208999626338482
v 0.11266999691724777 0.012999000027775764 -0.014736000448465347
v 0.11374299973249435 0.018912000581622124 -0.017170999199151993
v 0.11433500051498413 0.01761999912559986 -0.017247000709176064
v 0.1108120009303093 0.01346299983561039 -0.013220000080764294
v 0.11052799969911575 0.011951000429689884 -0.012662000022828579
v 0.1110759973526001 0.014894000254571438 -0.013919999822974205
v 0.10044699907302856 0.014314999803900719 -0.016874000430107117
v 0.11423800140619278 0.018850000575184822 -0.01738099940121174
v 0.1147959977388382 0.01865600049495697 -0.01762400008738041
v 0.11566399782896042 0.02039100043475628 -0.018107999116182327
v 0.11585699766874313 0.019036000594496727 -0.01863900013267994
v 0.09678000211715698 0.01634800061583519 -0.01866300031542778
v 0.0946820005774498 0.01691799983382225 -0.01980300061404705
v 0.11564499884843826 0.015575000084936619 -0.030292000621557236
v 0.11637800186872482 0.015355000272393227 -0.02984599955379963
v 0.11665099859237671 0.015297000296413898 -0.029412999749183655
v 0.11325900256633759 0.004745000042021275 -0.023750999942421913
v 0.11471199989318848 0.006018000189214945 -0.026078000664711
v 0.11269800364971161 0.004403000231832266 -0.022187000140547752
v 0.11169599741697311 0.0043310001492500305 -0.019253000617027283
v 0.11112599819898605 0.005975000094622374 -0.015579000115394592
v 0.11592099815607071 0.013427999801933765 -0.029718000441789627
v 0.1150439977645874 0.007708999793976545 -0.028429999947547913
v 0.11493100225925446 0.009428000077605247 -0.029425999149680138
v 0.11468300223350525 0.0064119999296963215 -0.027546999976038933
v 0.09842900186777115 0.023959999904036522 -0.028304999694228172
v 0.09728500247001648 0.015836000442504883 -0.03227299824357033
v 0.09650500118732452 0.01576399989426136 -0.03135399892926216
v 0.09109800308942795 0.010981000028550625 -0.024397000670433044
v 0.09336800128221512 0.014661000110208988 -0.0192050002515316
v 0.09879600256681442 0.01595200039446354 -0.03278600051999092
v 0.09614499658346176 0.013907000422477722 -0.03387000039219856
v 0.09681200236082077 0.007972000166773796 -0.031585998833179474
v 0.10853499919176102 0.006051999982446432 -0.029178999364376068
v 0.09575200080871582 0.01235199999064207 -0.033893000334501266
v 0.09499000012874603 0.011229000054299831 -0.033640000969171524
v 0.11407800018787384 0.006382000166922808 -0.028189999982714653
v 0.11114100366830826 0.01228800043463707 -0.013097000308334827
v 0.11113099753856659 0.010639999993145466 -0.013544999994337559
v 0.10945200175046921 0.008286000229418278 -0.013034000061452389
v 0.11068099737167358 0.008817999623715878 -0.013659999705851078
v 0.09775900095701218 0.009519999846816063 -0.017416000366210938
v 0.09603200107812881 0.009847000241279602 -0.018042000010609627
v 0.0950779989361763 0.010223000310361385 -0.01839200034737587
v 0.09523899853229523 0.012071000412106514 -0.01819000020623207
v 0.0953570008277893 0.013864999637007713 -0.01816600002348423
v 0.09657400101423264 0.014967000111937523 -0.01817999966442585
v 0.11253300309181213 0.004534999839961529 -0.024181999266147614
v 0.11376100033521652 0.005268999841064215 -0.025458000600337982
v 0.11413499712944031 0.005762000102549791 -0.026503000408411026
v 0.11139000207185745 0.003920000046491623 -0.020771000534296036
v 0.10989399999380112 0.0038689998909831047 -0.021335000172257423
v 0.11093399673700333 0.0039090001955628395 -0.019283000379800797
v 0.11065399646759033 0.0040779998525977135 -0.023253999650478363
v 0.11053100228309631 0.005576999858021736 -0.01537800021469593
v 0.1098719984292984 0.0051020001992583275 -0.015495000407099724
v 0.11036600172519684 0.004412999842315912 -0.017462000250816345
v 0.1102520003914833 0.00711200013756752 -0.014120000414550304
v 0.11083599925041199 0.007331999950110912 -0.014516999945044518
v 0.11360099911689758 0.005642999894917011 -0.027055999264121056
v 0.09595300257205963 0.014794999733567238 -0.03194800019264221
v 0.09671200066804886 0.014866000041365623 -0.03311700001358986
v 0.09240099787712097 0.010270999744534492 -0.03040900081396103
v 0.09147000312805176 0.00953499972820282 -0.02892499975860119
v 0.0953890010714531 0.013938999734818935 -0.032652001827955246
v 0.09305799752473831 0.010781999677419662 -0.031355999410152435
v 0.09106600284576416 0.009436000138521194 -0.02770400047302246
v 0.09050700068473816 0.009518999606370926 -0.021601999178528786
v 0.09150499850511551 0.012110999785363674 -0.01933000050485134
v 0.09097100049257278 0.010777000337839127 -0.02023099921643734
v 0.09543299674987793 0.012786000035703182 -0.03381900116801262
v 0.09440000355243683 0.01185499969869852 -0.033330000936985016
v 0.09153900295495987 0.008183999918401241 -0.029184000566601753
v 0.09334000200033188 0.006572999991476536 -0.026938000693917274
v 0.09354999661445618 0.00990699976682663 -0.03236500173807144
v 0.09597700089216232 0.006566999945789576 -0.02018599957227707
v 0.09385299682617188 0.01102100033313036 -0.03282500058412552
v 0.09769000113010406 0.007817000150680542 -0.018400000408291817
v 0.09597299993038177 0.008142000064253807 -0.019019000232219696
v 0.09423500299453735 0.010603000409901142 -0.018693000078201294
v 0.09243199974298477 0.009684000164270401 -0.02017500065267086
v 0.09337799996137619 0.010986000299453735 -0.01896899938583374
v 0.09254200011491776 0.011376000009477139 -0.019214000552892685
v 0.10946299880743027 0.0038640000857412815 -0.01962600089609623
v 0.0908610001206398 0.008534999564290047 -0.02729099988937378
v 0.09065999835729599 0.00829199980944395 -0.025304999202489853
v 0.0926470011472702 0.007329000160098076 -0.023121999576687813
v 0.09146200120449066 0.010285000316798687 -0.02027300000190735
v 0.09240200370550156 0.0080960001796484 -0.021330999210476875
v 0.09200700372457504 0.007294999901205301 -0.025133000686764717
f 1 2 3
f 4 2 1
f 3 5 1
f 6 7 1
f 7 4 1
f 6 1 5
f 8 3 2
f 4 9 2
f 8 2 9
f 8 10 3
f 3 11 5
f 12 3 13
f 3 10 13
f 11 3 12
f 7 9 4
f 6 5 14
f 14 5 15
f 5 11 15
f 16 6 14
f 16 17 6
f 17 7 6
f 17 9 7
f 8 9 18
f 19 8 18
f 8 19 10
f 9 20 18
f 21 9 17
f 20 9 21
f 13 10 19
f 22 11 23
f 11 12 23
f 11 24 15
f 11 22 24
f 13 25 12
f 12 26 23
f 26 12 27
f 25 27 12
f 19 28 13
f 28 25 13
f 14 29 30
f 31 29 14
f 14 32 31
f 33 34 14
f 15 35 14
f 34 36 14
f 36 16 14
f 33 14 30
f 14 35 32
f 35 15 37
f 15 24 38
f 38 37 15
f 39 21 16
f 39 16 36
f 16 21 17
f 40 18 20
f 19 18 40
f 40 41 19
f 28 19 41
f 20 42 40
f 42 20 41
f 20 43 41
f 20 21 43
f 44 21 39
f 21 44 45
f 21 45 43
f 46 22 23
f 24 22 47
f 47 22 48
f 48 22 46
f 49 46 23
f 26 49 23
f 24 50 38
f 24 51 50
f 24 47 51
f 28 52 25
f 27 25 52
f 53 26 52
f 54 26 53
f 55 49 26
f 56 55 26
f 26 57 56
f 58 57 26
f 54 58 26
f 27 52 26
f 52 28 41
f 59 60 29
f 61 62 29
f 29 31 61
f 29 62 59
f 30 29 60
f 63 64 30
f 64 65 30
f 65 33 30
f 30 60 63
f 31 66 61
f 67 31 32
f 31 67 66
f 68 32 35
f 68 67 32
f 69 70 33
f 33 71 34
f 71 33 70
f 33 65 69
f 71 36 34
f 72 73 35
f 35 37 72
f 73 74 35
f 35 74 68
f 71 39 36
f 75 37 38
f 72 37 75
f 38 50 75
f 39 71 44
f 42 41 40
f 53 52 41
f 41 76 53
f 76 41 43
f 77 78 43
f 79 43 80
f 43 81 80
f 43 82 81
f 83 76 43
f 79 83 43
f 78 82 43
f 84 77 43
f 45 84 43
f 70 44 71
f 44 70 45
f 70 84 45
f 85 46 49
f 86 87 46
f 46 85 86
f 48 46 87
f 51 47 48
f 75 51 48
f 87 75 48
f 55 88 49
f 88 85 49
f 51 75 50
f 53 76 54
f 54 89 58
f 89 54 76
f 55 56 90
f 55 90 91
f 88 55 92
f 93 92 55
f 55 91 93
f 94 95 56
f 95 90 56
f 57 94 56
f 96 57 97
f 96 98 57
f 98 94 57
f 58 97 57
f 99 58 100
f 99 101 58
f 97 58 102
f 89 100 58
f 102 58 101
f 62 103 59
f 104 60 59
f 104 59 105
f 103 106 59
f 106 105 59
f 60 107 63
f 60 104 108
f 107 60 108
f 109 61 110
f 111 61 109
f 112 110 61
f 66 112 61
f 61 111 62
f 62 111 103
f 107 64 63
f 64 107 113
f 114 64 113
f 65 64 69
f 64 115 69
f 64 114 116
f 115 64 116
f 66 117 112
f 118 117 66
f 118 66 67
f 68 118 67
f 73 68 74
f 75 68 72
f 68 73 72
f 68 75 93
f 118 68 93
f 115 70 69
f 116 84 70
f 70 115 116
f 93 75 86
f 75 87 86
f 99 100 76
f 101 99 76
f 119 101 76
f 119 76 120
f 76 121 120
f 100 89 76
f 121 76 83
f 77 105 106
f 108 105 77
f 114 108 77
f 114 77 116
f 77 84 116
f 106 78 77
f 122 123 78
f 123 82 78
f 124 122 78
f 125 124 78
f 126 125 78
f 106 126 78
f 83 79 127
f 81 127 79
f 81 79 80
f 128 129 81
f 81 129 127
f 81 82 130
f 81 130 128
f 123 130 82
f 127 121 83
f 85 88 86
f 131 92 86
f 86 88 131
f 93 86 92
f 88 92 131
f 91 90 93
f 95 93 90
f 93 95 98
f 132 93 98
f 93 132 133
f 134 93 133
f 93 135 118
f 93 134 135
f 95 94 98
f 136 96 137
f 97 137 96
f 96 136 98
f 127 129 97
f 127 97 102
f 138 97 139
f 140 137 97
f 141 140 97
f 139 97 142
f 97 129 142
f 141 97 138
f 136 132 98
f 102 101 119
f 102 119 127
f 111 109 103
f 109 143 103
f 103 143 106
f 104 105 108
f 144 126 106
f 144 106 143
f 107 108 113
f 108 114 113
f 109 110 143
f 110 112 145
f 146 143 110
f 110 145 146
f 147 145 112
f 148 147 112
f 149 148 112
f 149 112 150
f 112 151 150
f 117 152 112
f 151 112 152
f 117 118 152
f 152 118 151
f 135 151 118
f 127 119 120
f 121 127 120
f 153 154 122
f 123 122 154
f 124 153 122
f 130 123 155
f 123 154 155
f 156 157 124
f 124 125 158
f 124 159 153
f 159 124 157
f 158 156 124
f 125 160 161
f 162 158 125
f 161 162 125
f 126 160 125
f 163 160 126
f 126 164 163
f 164 126 144
f 128 130 142
f 142 129 128
f 165 142 130
f 165 130 155
f 166 133 132
f 132 167 166
f 132 136 167
f 134 133 166
f 168 169 134
f 170 134 166
f 134 170 171
f 134 171 168
f 134 169 172
f 134 172 173
f 135 134 173
f 151 135 150
f 174 150 135
f 173 175 135
f 175 174 135
f 136 137 167
f 137 140 176
f 167 137 170
f 137 177 170
f 177 137 176
f 178 138 179
f 138 139 179
f 180 141 138
f 178 180 138
f 165 139 142
f 153 139 154
f 179 139 181
f 154 139 165
f 159 139 153
f 139 159 181
f 140 141 176
f 176 141 177
f 182 141 180
f 182 177 141
f 144 143 146
f 146 164 144
f 183 161 145
f 145 147 183
f 145 161 160
f 145 160 163
f 164 146 145
f 164 145 163
f 147 148 184
f 147 184 183
f 148 149 184
f 149 185 186
f 149 186 184
f 185 149 150
f 187 185 150
f 188 187 150
f 174 188 150
f 154 165 155
f 189 157 156
f 158 189 156
f 181 157 189
f 159 157 181
f 189 158 162
f 161 181 162
f 181 161 183
f 181 189 162
f 167 170 166
f 168 171 180
f 180 169 168
f 172 169 178
f 180 178 169
f 171 170 177
f 182 180 171
f 177 182 171
f 178 190 172
f 173 172 191
f 190 191 172
f 192 173 191
f 193 175 173
f 194 173 192
f 173 194 186
f 173 186 193
f 188 174 193
f 174 175 193
f 178 179 190
f 179 195 191
f 179 181 192
f 195 179 192
f 179 191 190
f 183 184 181
f 194 192 181
f 194 181 184
f 184 186 194
f 185 187 186
f 193 186 188
f 187 188 186
f 191 195 192
