# Generated by Visualization Toolkit
v -0.009135999716818333 0.026512999087572098 0.13821500539779663
v -0.008182999677956104 0.025615999475121498 0.14553700387477875
v -0.007961999624967575 0.022564999759197235 0.1383100003004074
v -0.011485000140964985 0.02433300018310547 0.13321399688720703
v -0.01190400030463934 0.02931799925863743 0.13956399261951447
v -0.017635999247431755 0.030693000182509422 0.14579300582408905
v -0.013880999758839607 0.02676999941468239 0.14739200472831726
v -0.012028999626636505 0.0220589991658926 0.14203700423240662
v -0.011746999807655811 0.022036999464035034 0.13224999606609344
v -0.01564900018274784 0.029659999534487724 0.13467299938201904
v -0.013150000013411045 0.023353999480605125 0.12970100343227386
v -0.013422000221908092 0.02149599976837635 0.12711100280284882
v -0.020089000463485718 0.03201499953866005 0.1427849978208542
v -0.01861399970948696 0.027851000428199768 0.14841799437999725
v -0.01656699925661087 0.023288000375032425 0.1456650048494339
v -0.019917000085115433 0.021988000720739365 0.14369900524616241
v -0.016100000590085983 0.021020999178290367 0.13317200541496277
v -0.017997000366449356 0.020975999534130096 0.12815600633621216
v -0.023377999663352966 0.03284300118684769 0.13685700297355652
v -0.017829999327659607 0.02909800037741661 0.12917999923229218
v -0.013345000334084034 0.02260199934244156 0.12460699677467346
v -0.014911999925971031 0.021250000223517418 0.12169499695301056
v -0.018939999863505363 0.020394999533891678 0.12160100042819977
v -0.02271999977529049 0.030154999345541 0.14649200439453125
v -0.022405000403523445 0.02487199939787388 0.14716799557209015
v -0.022987000644207 0.022009000182151794 0.13405799865722656
v -0.02855299971997738 0.02148599922657013 0.14140799641609192
v -0.02994699962437153 0.023267000913619995 0.14189499616622925
v -0.024018000811338425 0.02196599915623665 0.12869299948215485
v -0.025505000725388527 0.02081100083887577 0.12187600135803223
v -0.03145400062203407 0.032329000532627106 0.13700799643993378
v -0.02844499982893467 0.03127799928188324 0.14135900139808655
v -0.02520200051367283 0.03301199898123741 0.13027900457382202
v -0.019638000056147575 0.028975000604987144 0.12368399649858475
v -0.01344900019466877 0.02206999994814396 0.12026999890804291
v -0.014278000220656395 0.020684000104665756 0.1182750016450882
v -0.01881200075149536 0.019368000328540802 0.11713200062513351
v -0.026906000450253487 0.01898300088942051 0.11440200358629227
v -0.03268799930810928 0.02376200072467327 0.13482899963855743
v -0.03283499926328659 0.027226999402046204 0.12748600542545319
v -0.033987000584602356 0.026352999731898308 0.136230006814003
v -0.029954999685287476 0.026367999613285065 0.12245900183916092
v -0.028714999556541443 0.0212629996240139 0.11420899629592896
v -0.031947001814842224 0.032687000930309296 0.13011500239372253
v -0.02389100007712841 0.03184200078248978 0.123198002576828
v -0.019065000116825104 0.02739899978041649 0.11731799691915512
v -0.012357999570667744 0.020208999514579773 0.11534199863672256
v -0.014008999802172184 0.01968500018119812 0.1148580014705658
v -0.018603000789880753 0.01825599931180477 0.11217299848794937
v -0.02810800075531006 0.016863999888300896 0.10882800072431564
v -0.023009000346064568 0.0174150001257658 0.11046499758958817
v -0.03285599872469902 0.030643999576568604 0.12898899614810944
v -0.03085000067949295 0.02903899922966957 0.12237299978733063
v -0.028981000185012817 0.026353999972343445 0.1138399988412857
v -0.02830200083553791 0.023807000368833542 0.10790900141000748
v -0.030222000554203987 0.03175999969244003 0.12333399802446365
v -0.022763000801205635 0.0315760001540184 0.11671800166368484
v -0.016457000747323036 0.026621999219059944 0.11196299642324448
v -0.01025800034403801 0.018673000857234 0.11002799868583679
v -0.010247999802231789 0.01703600026667118 0.10900399833917618
v -0.014756999909877777 0.016719000414013863 0.10614100098609924
v -0.012165999971330166 0.01600700058043003 0.10803499817848206
v -0.020464999601244926 0.015768000856041908 0.10162100195884705
v -0.017155999317765236 0.016964999958872795 0.10436200350522995
v -0.02170100063085556 0.021386999636888504 0.10046300292015076
v -0.02694999985396862 0.03038400039076805 0.11432400345802307
v -0.02493700012564659 0.028483999893069267 0.10878899693489075
v -0.019120000302791595 0.0261400006711483 0.10067600011825562
v -0.019605999812483788 0.029280999675393105 0.10990999639034271
v -0.011254999786615372 0.02156900055706501 0.10754899680614471
v -0.011869000270962715 0.024001000449061394 0.10599300265312195
v -0.008945999667048454 0.019461000338196754 0.1075500026345253
v -0.0065460000187158585 0.016813000664114952 0.10402599722146988
v -0.007081000134348869 0.014302999712526798 0.10382100194692612
v -0.009602000005543232 0.012749000452458858 0.10283499956130981
v -0.01450200006365776 0.01510700024664402 0.09790699928998947
v -0.011459999717772007 0.014453000389039516 0.10039500147104263
v -0.017163999378681183 0.01985899917781353 0.09559900313615799
v -0.016530999913811684 0.015192000195384026 0.09596700221300125
v -0.014488999731838703 0.024821000173687935 0.0965690016746521
v -0.01425000000745058 0.026434000581502914 0.10282500088214874
v -0.011266999877989292 0.024612000212073326 0.0982310026884079
v -0.006790999788790941 0.018188999965786934 0.10323300212621689
v -0.007122000213712454 0.01905900053679943 0.10277199745178223
v -0.008206999860703945 0.02202799916267395 0.10078500211238861
v -0.002517000073567033 0.014808000065386295 0.09810499846935272
v -0.0023270000237971544 0.013309000059962273 0.09734799712896347
v -0.005828999914228916 0.008460000157356262 0.09594900161027908
v -0.00737100001424551 0.011682000011205673 0.0946120023727417
v -0.011859999969601631 0.01398599985986948 0.09107399731874466
v -0.009686999954283237 0.013040999881923199 0.09266199916601181
v -0.010174999944865704 0.022451000288128853 0.09205800294876099
v -0.012490999884903431 0.018650000914931297 0.09069599956274033
v -0.0075980001129209995 0.022485999390482903 0.09356000274419785
v -0.004813000094145536 0.019992999732494354 0.09578199684619904
v 0.0020649998914450407 0.012338000349700451 0.09158899635076523
v -0.0011579999700188637 0.006810999941080809 0.09035500138998032
v 0.00203999993391335 0.010003999806940556 0.09119399636983871
v -0.0039519998244941235 0.01003899984061718 0.08774500340223312
v -0.007449000142514706 0.015643000602722168 0.08461999893188477
v -0.007278000004589558 0.01255900040268898 0.08541599661111832
v -0.0034660000819712877 0.01907699927687645 0.08737999945878983
v -0.005131999962031841 0.01944199949502945 0.08597099781036377
v -0.00017899999511428177 0.016589999198913574 0.08995100110769272
v 0.006388999987393618 0.006988000124692917 0.08395099639892578
v 0.0062779998406767845 0.010184000246226788 0.08469799906015396
v -0.00060299999313429 0.007147999946027994 0.0815889984369278
v 0.0024079999420791864 0.004310000222176313 0.08313599973917007
v -0.0036140000447630882 0.00954199954867363 0.07934000343084335
v -0.0034179999493062496 0.013791999779641628 0.07815399765968323
v 0.00430699996650219 0.01435299962759018 0.08337800204753876
v 0.0013020000187680125 0.016596000641584396 0.08167699724435806
v -0.0012809999752789736 0.017451999709010124 0.07924100011587143
v 0.005520000122487545 0.001896000001579523 0.0747779980301857
v 0.010135999880731106 0.004468999803066254 0.07520800083875656
v 0.006874999962747097 0.01272599957883358 0.07920700311660767
v 0.008112000301480293 0.010905000381171703 0.0753289982676506
v 0.009529000148177147 0.006765000056475401 0.07653100043535233
v -0.00041099998634308577 0.006905999965965748 0.07104600220918655
v 0.002971000038087368 0.0036100000143051147 0.073512002825737
v -0.00003300000025774352 0.01115300040692091 0.07066900283098221
v 0.003656999906525016 0.014953999780118465 0.0696839988231659
v 0.006556000094860792 0.013814999721944332 0.07040899991989136
v 0.004019000101834536 0.0011879999656230211 0.06633400171995163
v 0.008123000152409077 -0.0003699999942909926 0.06786099821329117
v 0.012544999830424786 0.0028019999153912067 0.06764599680900574
v 0.012993999756872654 0.0055240001529455185 0.06779000163078308
v 0.01143800001591444 0.009793000295758247 0.06731700152158737
v 0.008747000247240067 0.01309799961745739 0.06601700186729431
v 0.0021540001034736633 0.009386000223457813 0.06307300180196762
v 0.002007999923080206 0.004044000059366226 0.06315399706363678
v 0.0059380000457167625 0.014155999757349491 0.06480000168085098
v 0.004788000136613846 0.0005000000237487257 0.06218300014734268
v 0.009627999737858772 -0.0022879999596625566 0.06198100000619888
v 0.013088000006973743 0.00021600000036414713 0.06065699830651283
v 0.014755000360310078 0.004253000020980835 0.05952199921011925
v 0.013925000093877316 0.008767999708652496 0.05655200034379959
v 0.009908000007271767 0.012335999868810177 0.05624900013208389
v 0.0031320000998675823 0.008488999679684639 0.05537499859929085
v 0.007282999809831381 0.013384000398218632 0.05585499852895737
v 0.002589999930933118 0.0021699999924749136 0.05554400011897087
v 0.004856000188738108 -0.0015399999683722854 0.054760999977588654
v 0.01001999992877245 -0.004004999995231628 0.05534899979829788
v 0.014174999669194221 -0.0007529999711550772 0.0547959990799427
v 0.015185999684035778 0.00532899983227253 0.053977999836206436
v 0.010173000395298004 0.012388000264763832 0.05369900166988373
v 0.013565000146627426 0.00841199979186058 0.04643699899315834
v 0.00939599983394146 0.010065999813377857 0.05005199834704399
v 0.015747999772429466 0.005231000017374754 0.046845998615026474
v 0.006808000151067972 0.013009999878704548 0.051676999777555466
v 0.0023870000150054693 0.007313999813050032 0.04947400093078613
v 0.0020989999175071716 0.0014860000228509307 0.04779300093650818
v 0.004705999977886677 -0.0033919999841600657 0.04622599855065346
v 0.010373000055551529 -0.005392000079154968 0.047871001064777374
v 0.014891999773681164 -0.0018479999853298068 0.04785799980163574
v 0.016201000660657883 0.0033259999472647905 0.040511999279260635
v 0.013586999848484993 0.008196000009775162 0.03974299877882004
v 0.006233000196516514 0.013013999909162521 0.046907998621463776
v 0.010014000348746777 0.012548999860882759 0.039657000452280045
v 0.015235000289976597 -0.0027970001101493835 0.04108000174164772
v 0.000990999978967011 0.007278000004589558 0.044815000146627426
v 0.00037200000951997936 0.002319999970495701 0.042663998901844025
v 0.0031320000998675823 -0.0006500000017695129 0.037188999354839325
v 0.0048039997927844524 -0.004741999786347151 0.03584900125861168
v 0.011265000328421593 -0.006655000150203705 0.03995199874043465
v 0.014143000356853008 -0.001879999996162951 0.03373099863529205
v 0.016269000247120857 0.0023270000237971544 0.03394699841737747
v 0.01434400025755167 0.00808900035917759 0.033424001187086105
v 0.005456000100821257 0.014659999869763851 0.040015000849962234
v 0.010685999877750874 0.01193699985742569 0.03365999832749367
v 0.0115130003541708 -0.0056329998187720776 0.03472499921917915
v -0.0013389999512583017 0.008023000322282314 0.03803800046443939
v -0.001104000024497509 -0.0006150000263005495 0.035367999225854874
v -0.002644999884068966 0.0027650000993162394 0.03581999987363815
v 0.0015780000248923898 -0.003782999934628606 0.0337969996035099
v 0.00495600001886487 -0.006045000161975622 0.03225100040435791
v 0.0128370001912117 -0.0036150000523775816 0.026139000430703163
v 0.013919999822974205 -0.00056900002527982 0.02449899911880493
v 0.01281300000846386 0.004784999880939722 0.02459999918937683
v 0.014649000018835068 0.0058639999479055405 0.03177500143647194
v 0.012498999945819378 0.011349000036716461 0.030048999935388565
v 0.002400000113993883 0.01603499986231327 0.03481600061058998
v 0.009166000410914421 0.015073000453412533 0.03027000091969967
v 0.0027600000612437725 0.017664000391960144 0.030208999291062355
v 0.008085000328719616 -0.005171999800950289 0.02856599912047386
v -0.0038999998942017555 0.009557999670505524 0.032648999243974686
v -0.005948000121861696 -0.0021639999467879534 0.028396999463438988
v -0.00033999999868683517 -0.0049959998577833176 0.030107999220490456
v -0.0064489999786019325 0.00419300002977252 0.029819000512361526
v 0.006306999828666449 0.006912999786436558 0.025464000180363655
v 0.01279900036752224 0.009584999643266201 0.02514900080859661
v 0.0071310000494122505 0.002171000000089407 0.025844000279903412
v 0.009002000093460083 0.013484000228345394 0.026162000373005867
v -0.003955999854952097 0.011885000392794609 0.02832300029695034
v 0.004379000049084425 0.011733000166714191 0.026172999292612076
v 0.0003769999893847853 -0.004592000041157007 0.027024999260902405
v -0.007873999886214733 0.004916999954730272 0.025165999308228493
v -0.007315000053495169 -0.002053000032901764 0.02495099976658821
v -0.0009980000322684646 0.007304999977350235 0.024281000718474388
v -0.00013800000306218863 0.00003400000059627928 0.024630000814795494
v 0.0019180000526830554 0.004124999977648258 0.06364399939775467
v -0.0005970000056549907 0.007218000013381243 0.07147099822759628
v -0.0005990000208839774 0.0067610000260174274 0.0707710012793541
f 1 2 3
f 4 1 3
f 1 5 2
f 1 3 2
f 4 5 1
f 6 7 2
f 8 2 7
f 3 2 8
f 6 2 5
f 9 3 8
f 4 3 9
f 4 10 5
f 10 4 11
f 12 11 4
f 12 4 9
f 5 10 13
f 5 13 6
f 14 6 13
f 6 14 7
f 15 7 14
f 8 7 15
f 8 15 16
f 9 8 17
f 8 16 17
f 9 17 18
f 9 18 12
f 13 10 19
f 20 19 10
f 10 11 20
f 20 11 21
f 22 21 11
f 22 11 12
f 12 18 23
f 12 23 22
f 24 13 19
f 14 13 24
f 24 25 14
f 25 15 14
f 25 16 15
f 16 26 17
f 16 27 26
f 28 27 16
f 28 16 25
f 29 18 17
f 29 17 26
f 30 23 18
f 30 18 29
f 31 32 19
f 20 33 19
f 24 19 32
f 33 31 19
f 34 33 20
f 20 21 34
f 34 21 35
f 21 22 36
f 21 36 35
f 22 23 37
f 22 37 36
f 38 37 23
f 38 23 30
f 32 25 24
f 32 28 25
f 39 26 27
f 40 29 26
f 40 26 39
f 41 39 27
f 41 27 28
f 31 41 28
f 31 28 32
f 42 30 29
f 42 29 40
f 43 38 30
f 43 30 42
f 33 44 31
f 44 41 31
f 34 45 33
f 45 44 33
f 46 45 34
f 34 35 46
f 46 35 47
f 48 47 35
f 48 35 36
f 36 37 49
f 36 49 48
f 49 37 38
f 43 50 38
f 51 38 50
f 49 38 51
f 52 40 39
f 52 39 41
f 53 42 40
f 53 40 52
f 44 52 41
f 54 43 42
f 54 42 53
f 55 50 43
f 55 43 54
f 45 56 44
f 56 52 44
f 46 57 45
f 57 56 45
f 58 57 46
f 46 47 58
f 58 47 59
f 60 59 47
f 60 47 48
f 48 49 61
f 62 60 48
f 48 61 62
f 63 64 49
f 61 49 64
f 63 49 51
f 51 50 63
f 65 63 50
f 65 50 55
f 56 53 52
f 66 54 53
f 66 53 56
f 67 55 54
f 67 54 66
f 68 65 55
f 68 55 67
f 57 66 56
f 58 69 57
f 69 66 57
f 70 71 58
f 71 69 58
f 58 59 70
f 72 70 59
f 72 59 73
f 74 73 59
f 74 59 60
f 75 74 60
f 75 60 62
f 76 77 61
f 76 61 64
f 77 62 61
f 77 75 62
f 63 65 78
f 79 64 63
f 63 78 79
f 79 76 64
f 80 78 65
f 80 65 68
f 69 67 66
f 81 68 67
f 81 67 69
f 82 80 68
f 82 68 81
f 71 81 69
f 83 84 70
f 83 70 72
f 84 71 70
f 84 85 71
f 85 81 71
f 72 73 83
f 83 73 86
f 87 86 73
f 87 73 74
f 88 87 74
f 88 74 75
f 89 88 75
f 89 75 77
f 90 91 76
f 90 76 79
f 91 77 76
f 91 89 77
f 92 93 78
f 93 79 78
f 92 78 80
f 93 90 79
f 94 92 80
f 94 80 82
f 85 82 81
f 95 94 82
f 95 82 85
f 83 86 84
f 86 85 84
f 86 95 85
f 95 86 96
f 96 86 87
f 97 98 87
f 97 87 88
f 96 87 98
f 99 97 88
f 99 88 89
f 99 89 91
f 100 101 90
f 101 91 90
f 100 90 93
f 101 99 91
f 102 103 92
f 100 93 92
f 102 92 94
f 100 92 103
f 104 102 94
f 104 94 95
f 95 96 104
f 96 98 105
f 106 104 96
f 96 105 106
f 107 108 97
f 107 97 99
f 108 98 97
f 108 105 98
f 109 107 99
f 109 99 101
f 110 101 100
f 103 110 100
f 110 109 101
f 111 112 102
f 111 102 104
f 112 103 102
f 103 113 110
f 112 113 103
f 106 111 104
f 114 115 105
f 106 105 115
f 114 105 108
f 116 111 106
f 106 117 116
f 118 117 106
f 106 115 118
f 107 109 119
f 120 108 107
f 107 119 120
f 120 114 108
f 121 119 109
f 121 109 110
f 122 121 110
f 122 110 113
f 123 112 111
f 123 111 116
f 113 112 123
f 113 123 122
f 124 125 114
f 124 114 120
f 125 115 114
f 125 126 115
f 118 115 126
f 116 117 123
f 127 128 117
f 129 123 117
f 127 117 118
f 129 117 128
f 118 126 127
f 130 131 119
f 121 130 119
f 120 119 131
f 120 131 124
f 121 122 132
f 121 132 130
f 122 123 129
f 122 129 132
f 133 124 131
f 134 125 124
f 133 134 124
f 134 126 125
f 134 135 126
f 127 126 135
f 136 128 127
f 127 135 136
f 136 137 128
f 137 129 128
f 132 129 138
f 137 138 129
f 130 139 131
f 130 132 140
f 130 140 139
f 139 141 131
f 141 133 131
f 132 138 140
f 141 142 133
f 142 134 133
f 142 143 134
f 143 135 134
f 143 144 135
f 136 135 144
f 145 137 136
f 136 144 145
f 146 138 137
f 147 148 137
f 149 147 137
f 148 146 137
f 149 137 145
f 140 138 146
f 139 140 150
f 151 141 139
f 139 150 151
f 140 146 150
f 151 152 141
f 142 141 152
f 152 153 142
f 143 142 153
f 153 154 143
f 154 144 143
f 154 155 144
f 145 144 155
f 145 155 149
f 150 146 148
f 156 157 147
f 148 147 157
f 156 147 149
f 158 148 159
f 150 148 158
f 148 157 159
f 149 155 160
f 149 160 156
f 151 150 158
f 161 152 151
f 151 158 161
f 162 153 152
f 161 162 152
f 163 153 162
f 164 153 163
f 165 154 153
f 165 153 164
f 165 155 154
f 165 160 155
f 166 167 156
f 167 157 156
f 166 156 160
f 167 168 157
f 159 157 168
f 161 158 169
f 158 159 169
f 169 159 170
f 159 168 170
f 171 166 160
f 171 160 165
f 172 162 161
f 161 169 172
f 173 163 162
f 172 174 162
f 173 162 174
f 175 163 173
f 164 163 175
f 171 165 164
f 175 176 164
f 171 164 176
f 177 178 166
f 179 180 166
f 166 180 167
f 177 166 171
f 179 166 178
f 180 168 167
f 168 180 181
f 168 181 170
f 172 169 182
f 169 170 182
f 170 181 183
f 170 183 184
f 170 184 182
f 171 176 185
f 171 185 177
f 172 182 186
f 186 174 172
f 173 187 188
f 174 187 173
f 173 188 175
f 186 189 174
f 174 189 187
f 175 188 176
f 188 185 176
f 179 178 177
f 179 177 185
f 190 191 179
f 190 179 192
f 191 180 179
f 179 185 192
f 191 181 180
f 193 183 181
f 193 181 191
f 194 186 182
f 194 182 184
f 183 193 184
f 194 184 195
f 184 193 195
f 192 185 196
f 188 196 185
f 197 189 186
f 197 186 194
f 187 198 196
f 187 189 197
f 187 196 188
f 187 197 198
f 195 190 199
f 192 199 190
f 195 191 190
f 195 193 191
f 192 200 199
f 192 196 200
f 199 197 194
f 195 199 194
f 200 196 198
f 198 197 199
f 198 199 200
f 201 202 203
