# Generated by Visualization Toolkit
v -0.11345700174570084 -0.0980760008096695 0.08574900031089783
v -0.10764099657535553 -0.08793199807405472 0.09884300082921982
v -0.1100429967045784 -0.0865819975733757 0.0985260009765625
v -0.1131030023097992 -0.09432400017976761 0.07242099940776825
v -0.11068200320005417 -0.09542399644851685 0.0843840017914772
v -0.11490499973297119 -0.09766799956560135 0.08482600003480911
v -0.11442500352859497 -0.09587299823760986 0.074024997651577
v -0.10725300014019012 -0.08482600003480911 0.09647999703884125
v -0.10577300190925598 -0.07902800291776657 0.10242100059986115
v -0.10805000364780426 -0.07770399749279022 0.10232699662446976
v -0.11080600321292877 -0.08305700123310089 0.09652099758386612
v -0.10865099728107452 -0.0756480023264885 0.1020440012216568
v -0.11209999769926071 -0.08937499672174454 0.06970000267028809
v -0.10854899883270264 -0.09168899804353714 0.08122500032186508
v -0.11583700031042099 -0.0914819985628128 0.08268699795007706
v -0.11472000181674957 -0.09237299859523773 0.07206500321626663
v -0.11501699686050415 -0.08887399733066559 0.07010599970817566
v -0.1061829999089241 -0.07980699837207794 0.09458299726247787
v -0.10423900187015533 -0.07620300352573395 0.10229100286960602
v -0.10015500336885452 -0.06043199822306633 0.11044199764728546
v -0.10403600335121155 -0.05826700106263161 0.1107110008597374
v -0.10480599850416183 -0.056387998163700104 0.10992000252008438
v -0.11157699674367905 -0.07731399685144424 0.0931050032377243
v -0.10956499725580215 -0.06870999932289124 0.09800200164318085
v -0.10443700104951859 -0.05421299859881401 0.10801900178194046
v -0.1120079979300499 -0.08300100266933441 0.0667629987001419
v -0.1120539978146553 -0.08618800342082977 0.068231001496315
v -0.1080000028014183 -0.08662699908018112 0.07761000096797943
v -0.11572299897670746 -0.0847959965467453 0.07750900089740753
v -0.1138330027461052 -0.07606399804353714 0.07339899986982346
v -0.11393199861049652 -0.0805639997124672 0.06578099727630615
v -0.10458199679851532 -0.07557900249958038 0.09317799657583237
v -0.10293299704790115 -0.07212500274181366 0.10015399754047394
v -0.09806200116872787 -0.060770999640226364 0.10962499678134918
v -0.0956910029053688 -0.049063000828027725 0.11842100322246552
v -0.09706400334835052 -0.047965001314878464 0.12010800093412399
v -0.09777999669313431 -0.04588000103831291 0.11959599703550339
v -0.09701800346374512 -0.0443280003964901 0.1174279972910881
v -0.10936299711465836 -0.06794500350952148 0.08890999853610992
v -0.1078680008649826 -0.06317000091075897 0.0947130024433136
v -0.10119300335645676 -0.05047899857163429 0.10599499940872192
v -0.0952259972691536 -0.042149998247623444 0.11480399966239929
v -0.10795799642801285 -0.07970000058412552 0.07562900334596634
v -0.1117670014500618 -0.07572399824857712 0.06359600275754929
v -0.10629399865865707 -0.06439799815416336 0.08638100326061249
v -0.11184900254011154 -0.07068599760532379 0.0699549987912178
v -0.11294200271368027 -0.07219099998474121 0.0632219985127449
v -0.10305800288915634 -0.06946899741888046 0.09061899781227112
v -0.10180199891328812 -0.06898300349712372 0.09940899908542633
v -0.09645699709653854 -0.059971000999212265 0.10806100070476532
v -0.09312500059604645 -0.04782500118017197 0.11926399916410446
v -0.086217001080513 -0.0415010005235672 0.1253499984741211
v -0.08776599913835526 -0.04045400023460388 0.12599100172519684
v -0.08853500336408615 -0.03857500106096268 0.1252010017633438
v -0.08767600357532501 -0.03616499900817871 0.12392900139093399
v -0.08568499982357025 -0.03377300128340721 0.12066199630498886
v -0.10435900092124939 -0.05914999917149544 0.09286899864673615
v -0.09848900139331818 -0.04776899889111519 0.10325399786233902
v -0.09214700013399124 -0.03979799896478653 0.11069799959659576
v -0.08293700218200684 -0.03311700001358986 0.11764899641275406
v -0.10757700353860855 -0.07122500240802765 0.07310199737548828
v -0.10965900123119354 -0.05509199947118759 0.058044999837875366
v -0.10483600199222565 -0.059112001210451126 0.08489099889993668
v -0.10247799754142761 -0.054774001240730286 0.0921889990568161
v -0.11003100126981735 -0.06412400305271149 0.06901299953460693
v -0.11215700209140778 -0.06611400097608566 0.062174998223781586
v -0.10905999690294266 -0.04742100089788437 0.057863999158144
v -0.10280899703502655 -0.06188800185918808 0.0883369967341423
v -0.10057099908590317 -0.06408900022506714 0.09713400155305862
v -0.09606699645519257 -0.058508001267910004 0.10690800100564957
v -0.08985000103712082 -0.048854999244213104 0.11604800075292587
v -0.08536799997091293 -0.04135800153017044 0.12351799756288528
v -0.07653199881315231 -0.03537999838590622 0.12972000241279602
v -0.07830899953842163 -0.03427699953317642 0.12991400063037872
v -0.0795150026679039 -0.03166000172495842 0.1300099939107895
v -0.07917799800634384 -0.030101999640464783 0.1294659972190857
v -0.07754699885845184 -0.028548000380396843 0.12599599361419678
v -0.07448799908161163 -0.027705000713467598 0.12255900353193283
v -0.09718699753284454 -0.04534599930047989 0.10232999920845032
v -0.09089600294828415 -0.03801799938082695 0.10914900153875351
v -0.08180300146341324 -0.03116999939084053 0.1153310015797615
v -0.07367900013923645 -0.025810999795794487 0.12011899799108505
v -0.10548300296068192 -0.051653001457452774 0.06856399774551392
v -0.10323700308799744 -0.029267000034451485 0.05521799996495247
v -0.1021990031003952 -0.0415010005235672 0.08123599737882614
v -0.0988520011305809 -0.03669999912381172 0.08980000019073486
v -0.09306199848651886 -0.030494000762701035 0.09842800348997116
v -0.10745800286531448 -0.04507400095462799 0.06699299812316895
v -0.10213299840688705 -0.02519500069320202 0.06340000033378601
v -0.10424300283193588 -0.027780000120401382 0.05676800012588501
v -0.10063499957323074 -0.046107999980449677 0.08411400020122528
v -0.09970500320196152 -0.05510199815034866 0.09414699673652649
v -0.09554699808359146 -0.05601400136947632 0.10497099906206131
v -0.08784999698400497 -0.04824399948120117 0.11454000324010849
v -0.08179999887943268 -0.04073299840092659 0.1203640028834343
v -0.07597699761390686 -0.0347989983856678 0.12695200741291046
v -0.07407400012016296 -0.03426000103354454 0.13088199496269226
v -0.07514800131320953 -0.03225399926304817 0.13140200078487396
v -0.07662999629974365 -0.02993199974298477 0.13131099939346313
v -0.0768589973449707 -0.028233999386429787 0.12965400516986847
v -0.07470899820327759 -0.027163000777363777 0.12756800651550293
v -0.07177399843931198 -0.025717999786138535 0.12370000034570694
v -0.07053200155496597 -0.02335200086236 0.12194900214672089
v -0.08828800171613693 -0.026885999366641045 0.10469699651002884
v -0.0814720019698143 -0.02321000024676323 0.11163599789142609
v -0.07295499742031097 -0.02025900036096573 0.11789599806070328
v -0.06908799707889557 -0.017930999398231506 0.1199129968881607
v -0.09865400195121765 -0.02703999914228916 0.06565500050783157
v -0.09599900245666504 -0.0022330000065267086 0.05893800035119057
v -0.09761600196361542 -0.021976999938488007 0.0782649964094162
v -0.09413900226354599 -0.018983999267220497 0.08567299693822861
v -0.08918099850416183 -0.017105000093579292 0.09474699944257736
v -0.08494199812412262 -0.016165999695658684 0.10151799768209457
v -0.08965999633073807 -0.0014130000490695238 0.07143200188875198
v -0.09948000311851501 -0.016169000416994095 0.06305699795484543
v -0.09682799875736237 -0.007143000140786171 0.06271400302648544
v -0.09982000291347504 -0.013187999837100506 0.05835999920964241
v -0.0974309965968132 -0.004813999868929386 0.058208998292684555
v -0.09405399858951569 -0.023262999951839447 0.08055000007152557
v -0.09791699796915054 -0.04288899898529053 0.091948002576828
v -0.09578400105237961 -0.047150999307632446 0.10138799995183945
v -0.08769799768924713 -0.04659000039100647 0.1124039962887764
v -0.07959599792957306 -0.03989600017666817 0.11821000277996063
v -0.0738229975104332 -0.03417599946260452 0.1245179995894432
v -0.07329999655485153 -0.03315100073814392 0.12836100161075592
v -0.07177399843931198 -0.0330049991607666 0.1324319988489151
v -0.0726889967918396 -0.031134000048041344 0.1325639933347702
v -0.07396300137042999 -0.02828799933195114 0.13272300362586975
v -0.07275599986314774 -0.02595899999141693 0.13211500644683838
v -0.07188399881124496 -0.025203000754117966 0.12892800569534302
v -0.06855499744415283 -0.02349100075662136 0.12547500431537628
v -0.06719300150871277 -0.02173900045454502 0.12414500117301941
v -0.06622599810361862 -0.016688000410795212 0.12202499806880951
v -0.07836899906396866 -0.013930999673902988 0.10867500305175781
v -0.07076899707317352 -0.013156999833881855 0.11626599729061127
v -0.06779900193214417 -0.012382999993860722 0.11826299875974655
v -0.06409800052642822 -0.011436999775469303 0.12133099883794785
v -0.0893779993057251 -0.0009919999865815043 0.0679439976811409
v -0.09670499712228775 0.0001630000042496249 0.05931999906897545
v -0.09164299815893173 0.010195000097155571 0.06057899817824364
v -0.0848350003361702 0.0025369999930262566 0.07743799686431885
v -0.0799190029501915 0.005398999899625778 0.08466800302267075
v -0.07469400018453598 0.006802000105381012 0.09269700199365616
v -0.0698390007019043 0.00648100022226572 0.10296200215816498
v -0.08770699799060822 0.006938000209629536 0.0709410011768341
v -0.08375299721956253 0.009823000058531761 0.07610300183296204
v -0.09334199875593185 0.0025629999581724405 0.06473200023174286
v -0.08329199999570847 -0.00015500000154133886 0.07801099866628647
v -0.09103000164031982 -0.021661000326275826 0.08773200213909149
v -0.09430000185966492 -0.03855099901556969 0.09945599734783173
v -0.08772099763154984 -0.03689900040626526 0.10994599759578705
v -0.07862599939107895 -0.037376001477241516 0.11661600321531296
v -0.07078800350427628 -0.03381900116801262 0.12189099937677383
v -0.07109499722719193 -0.032774001359939575 0.1258690059185028
v -0.07063400000333786 -0.03150700032711029 0.12977300584316254
v -0.07055100053548813 -0.030202999711036682 0.13415400683879852
v -0.06865400075912476 -0.03178200125694275 0.13383999466896057
v -0.07081100344657898 -0.02778100036084652 0.13487400114536285
v -0.07055599987506866 -0.025270000100135803 0.1336430013179779
v -0.06882700324058533 -0.023290999233722687 0.1307470053434372
v -0.06512100249528885 -0.02132200077176094 0.12769299745559692
v -0.06425300240516663 -0.019360000267624855 0.12608200311660767
v -0.06265900284051895 -0.015131000429391861 0.12466699630022049
v -0.061831001192331314 -0.011115999892354012 0.12333600223064423
v -0.06628300249576569 0.0026599999982863665 0.11202599853277206
v -0.06478100270032883 -0.000645000021904707 0.117078997194767
v -0.06270399689674377 -0.002768999896943569 0.12115199863910675
v -0.060989998281002045 -0.004525000229477882 0.12346599996089935
v -0.08517800271511078 0.011115999892354012 0.06961499899625778
v -0.09075500071048737 0.009073000401258469 0.06793200224637985
v -0.09520400315523148 0.005216000135987997 0.06089700013399124
v -0.09152799844741821 0.013319999910891056 0.06204599887132645
v -0.08403199911117554 0.022029999643564224 0.062470000237226486
v -0.07944999635219574 0.011150999926030636 0.08459000289440155
v -0.07537300139665604 0.012527000159025192 0.09262800216674805
v -0.07067699730396271 0.012331999838352203 0.10327000170946121
v -0.06647100299596786 0.00862099975347519 0.11258599907159805
v -0.08789599686861038 0.011385000310838223 0.07215899974107742
v -0.08450300246477127 0.012316999956965446 0.07709100097417831
v -0.08212999999523163 0.014298999682068825 0.08635199815034866
v -0.07925300300121307 0.011328999884426594 0.07883500307798386
v -0.08002399653196335 0.00035799999022856355 0.08550100028514862
v -0.08691699802875519 -0.019797999411821365 0.09496500343084335
v -0.08702299743890762 -0.032274000346660614 0.10819900035858154
v -0.07871700078248978 -0.03149399906396866 0.11543100327253342
v -0.07058899849653244 -0.031511999666690826 0.12037300318479538
v -0.0678969994187355 -0.03223000094294548 0.1237419992685318
v -0.06863199919462204 -0.031204000115394592 0.12737500667572021
v -0.06856299936771393 -0.030202999711036682 0.1308639943599701
v -0.06763699650764465 -0.02963400073349476 0.13586300611495972
v -0.06808499991893768 -0.02637000009417534 0.13622699677944183
v -0.06700699776411057 -0.030764000490307808 0.13567900657653809
v -0.06745400279760361 -0.023465000092983246 0.1348540037870407
v -0.06538300216197968 -0.021128999069333076 0.13295899331569672
v -0.06251099705696106 -0.018993999809026718 0.12950100004673004
v -0.06088799983263016 -0.016373999416828156 0.12815900146961212
v -0.06002900004386902 -0.013962999917566776 0.12688800692558289
v -0.058970000594854355 -0.010452000424265862 0.12565599381923676
v -0.05919399857521057 -0.0048409998416900635 0.12648099660873413
v -0.06382899731397629 0.00635500019416213 0.11777400225400925
v -0.06260699778795242 0.0033390000462532043 0.12244699895381927
v -0.06096399948000908 0.000307999987853691 0.12548600137233734
v -0.05938100069761276 -0.00008600000001024455 0.12859900295734406
v -0.07746600359678268 0.020219000056385994 0.0708170011639595
v -0.0885389968752861 0.014169000089168549 0.0742579996585846
v -0.09060899913311005 0.012993000447750092 0.06948400288820267
v -0.0909229964017868 0.015646999701857567 0.07027100026607513
v -0.0902239978313446 0.015305000357329845 0.062345001846551895
v -0.08892100304365158 0.01728999987244606 0.06264500319957733
v -0.08624699711799622 0.020580999553203583 0.06284199655056
v -0.08276800066232681 0.025939999148249626 0.06516300141811371
v -0.07960700243711472 0.029596000909805298 0.06543999910354614
v -0.07677099853754044 0.030672000721096992 0.06611199676990509
v -0.07896699756383896 0.01515199989080429 0.09450899809598923
v -0.0743279978632927 0.016704000532627106 0.1045520007610321
v -0.07028300315141678 0.018350999802350998 0.11462999880313873
v -0.06613899767398834 0.01590700075030327 0.12100899964570999
v -0.08628199994564056 0.013287999667227268 0.07939299941062927
v -0.08821900188922882 0.014294000342488289 0.09086500108242035
v -0.08736900240182877 0.015096000395715237 0.09905099868774414
v -0.07224699854850769 0.018032999709248543 0.08038199692964554
v -0.07517699897289276 0.010002999566495419 0.08596000075340271
v -0.07677199691534042 -0.0004980000085197389 0.09310600161552429
v -0.08050300180912018 -0.016819000244140625 0.10428600013256073
v -0.07877500355243683 -0.026767000555992126 0.11464100331068039
v -0.07038500159978867 -0.026054000481963158 0.12011200189590454
v -0.06654500216245651 -0.029455000534653664 0.12255699932575226
v -0.0652960017323494 -0.030205000191926956 0.1246659979224205
v -0.06618200242519379 -0.02963699959218502 0.12887699902057648
v -0.06516800075769424 -0.028376000002026558 0.13334999978542328
v -0.06412100046873093 -0.028291000053286552 0.1382260024547577
v -0.06471499800682068 -0.02592400088906288 0.13882899284362793
v -0.06388500332832336 -0.022345000877976418 0.13715100288391113
v -0.06276699900627136 -0.02999899908900261 0.13787899911403656
v -0.061501000076532364 -0.01982400007545948 0.1348399966955185
v -0.05855700001120567 -0.01686899922788143 0.13343800604343414
v -0.05760300159454346 -0.013904999941587448 0.13218900561332703
v -0.05695100128650665 -0.011574000120162964 0.13102500140666962
v -0.05570400133728981 -0.008596999570727348 0.13104799389839172
v -0.054388999938964844 -0.005412000231444836 0.1313530057668686
v -0.054809000343084335 -0.0013510000426322222 0.13179199397563934
v -0.0634400025010109 0.011006999760866165 0.12611199915409088
v -0.0622670017182827 0.006579000037163496 0.12893299758434296
v -0.05974400043487549 0.002983999904245138 0.13088199496269226
v -0.054625000804662704 0.0010920000495389104 0.13286900520324707
v -0.06970900297164917 0.02771800011396408 0.07208400219678879
v -0.09000200033187866 0.016217999160289764 0.07526200264692307
v -0.08805999904870987 0.014259000308811665 0.08169399946928024
v -0.08917099982500076 0.016496999189257622 0.07601600140333176
v -0.08887899667024612 0.017230000346899033 0.0702819973230362
v -0.08720099925994873 0.0184129998087883 0.07042799890041351
v -0.0825439989566803 0.021253999322652817 0.07013099640607834
v -0.07909499853849411 0.024181999266147614 0.07044900208711624
v -0.07641100138425827 0.02733900025486946 0.07118400186300278
v -0.07685799896717072 0.0332689993083477 0.06734699755907059
v -0.06674499809741974 0.03968900069594383 0.07096700370311737
v -0.08167800307273865 0.01834299974143505 0.10764499753713608
v -0.07440900057554245 0.022665999829769135 0.11670400202274323
v -0.06802699714899063 0.02049900032579899 0.1231210008263588
v -0.06380599737167358 0.016781000420451164 0.12929999828338623
v -0.08987600356340408 0.01448499970138073 0.09059199690818787
v -0.0878710001707077 0.015615999698638916 0.099651999771595
v -0.08285699784755707 0.019791999831795692 0.10813800245523453
v -0.0644180029630661 0.023645000532269478 0.07967499643564224
v -0.06967099756002426 0.016448000445961952 0.0859690010547638
v -0.0721839964389801 0.007826999761164188 0.09324900060892105
v -0.07377000153064728 -0.002491000108420849 0.10183200240135193
v -0.07477399706840515 -0.015495999716222286 0.11204899847507477
v -0.07076799869537354 -0.021376999095082283 0.11920099705457687
v -0.0668250024318695 -0.024359000846743584 0.12220499664545059
v -0.06400199979543686 -0.027195999398827553 0.123539999127388
v -0.0618089996278286 -0.02800299972295761 0.12573200464248657
v -0.06290300190448761 -0.02778100036084652 0.13113300502300262
v -0.059296999126672745 -0.02676999941468239 0.1359660029411316
v -0.059275999665260315 -0.02655700035393238 0.14250999689102173
v -0.05985400080680847 -0.023128999397158623 0.14209799468517303
v -0.05931200087070465 -0.018686000257730484 0.13983899354934692
v -0.05698699876666069 -0.016061000525951385 0.13812999427318573
v -0.05748699977993965 -0.028555000200867653 0.1416269987821579
v -0.055688999593257904 -0.013492000289261341 0.13666599988937378
v -0.05466499924659729 -0.010765999555587769 0.1353520005941391
v -0.0537789985537529 -0.009077999740839005 0.13483600318431854
v -0.053004998713731766 -0.006909000221639872 0.1344279944896698
v -0.05250899866223335 -0.0045889997854828835 0.13419100642204285
v -0.0519540011882782 -0.002503999974578619 0.1338929980993271
v -0.052223000675439835 -0.00008499999967170879 0.13461700081825256
v -0.06205900013446808 0.012214000336825848 0.13323000073432922
v -0.05959099903702736 0.00902200024574995 0.13667899370193481
v -0.05612799897789955 0.006252999883145094 0.13626599311828613
v -0.05281100049614906 0.0030320000369101763 0.13645200431346893
v -0.061500001698732376 0.03585100173950195 0.07548099756240845
v -0.08954600244760513 0.014933999627828598 0.08282499760389328
v -0.08864600211381912 0.0180440004914999 0.09041699767112732
v -0.08749900013208389 0.017368000000715256 0.0752749964594841
v -0.08839400112628937 0.017368000000715256 0.08282700181007385
v -0.0828780010342598 0.019293999299407005 0.07544100284576416
v -0.07809200137853622 0.021524999290704727 0.07556000351905823
v -0.07532799988985062 0.02341499924659729 0.07610499858856201
v -0.07278300076723099 0.025226999074220657 0.07673899829387665
v -0.07212699949741364 0.030844999477267265 0.07315099984407425
v -0.07230599969625473 0.03707300126552582 0.06948400288820267
v -0.06583599746227264 0.04141800105571747 0.07242300361394882
v -0.06271599978208542 0.04188999906182289 0.07260800153017044
v -0.07479699701070786 0.02556000091135502 0.11754799634218216
v -0.06972000002861023 0.02620300091803074 0.12527599930763245
v -0.06429000198841095 0.02271999977529049 0.1317179948091507
v -0.061163000762462616 0.01603499986231327 0.13694800436496735
v -0.08667100220918655 0.020479999482631683 0.09853000193834305
v -0.08261100202798843 0.022887999191880226 0.10670699924230576
v -0.0727740004658699 0.027552999556064606 0.11592300236225128
v -0.05659100040793419 0.030316999182105064 0.08107999712228775
v -0.06121300160884857 0.019471999257802963 0.08461599797010422
v -0.06749100238084793 0.013110999949276447 0.09181399643421173
v -0.06951499730348587 0.005162999965250492 0.1000709980726242
v -0.07014299929141998 -0.0038419999182224274 0.1086139976978302
v -0.06856100261211395 -0.013353000394999981 0.11710800230503082
v -0.06663399934768677 -0.018766000866889954 0.12139900028705597
v -0.06393499672412872 -0.022631999105215073 0.12351500242948532
v -0.06138399988412857 -0.025753000751137733 0.12466099858283997
v -0.05902000144124031 -0.026520000770688057 0.12790000438690186
v -0.05758700147271156 -0.025860000401735306 0.13407300412654877
v -0.05603700131177902 -0.026806000620126724 0.13983699679374695
v -0.054857999086380005 -0.024105999618768692 0.14454300701618195
v -0.05658400058746338 -0.020387999713420868 0.1450430005788803
v -0.05629400163888931 -0.01650100015103817 0.14369000494480133
v -0.05463699996471405 -0.013402000069618225 0.14153100550174713
v -0.052556999027729034 -0.011206000111997128 0.14019300043582916
v -0.05247600004076958 -0.02607100084424019 0.14308300614356995
v -0.054586999118328094 -0.02505600079894066 0.138047993183136
v -0.05146099999547005 -0.009437999688088894 0.1395689994096756
v -0.05052800104022026 -0.007395999971777201 0.1387850046157837
v -0.04957199841737747 -0.0059460001066327095 0.1382029950618744
v -0.04923500120639801 -0.004389000125229359 0.1376589983701706
v -0.049327999353408813 -0.00254100002348423 0.13766099512577057
v -0.04901999980211258 -0.001019999966956675 0.13826900720596313
v -0.04916499927639961 0.00048499999684281647 0.13853299617767334
v -0.05914200097322464 0.012509999796748161 0.13916100561618805
v -0.05544399842619896 0.009235000237822533 0.13885599374771118
v -0.05224300175905228 0.0060430001467466354 0.13881300389766693
v -0.049194999039173126 0.0024029999040067196 0.13934999704360962
v -0.05416199937462807 0.04158399999141693 0.08013500273227692
v -0.08625400066375732 0.019222000613808632 0.09021300077438354
v -0.08398900181055069 0.022568000480532646 0.09714099764823914
v -0.08714000135660172 0.017633000388741493 0.08194400370121002
v -0.08323899656534195 0.01927899941802025 0.08981499820947647
v -0.08333700150251389 0.018376000225543976 0.0806640014052391
v -0.0789709985256195 0.01912499964237213 0.07996000349521637
v -0.07607399672269821 0.020403999835252762 0.08093000203371048
v -0.06411699950695038 0.02966099977493286 0.07942300289869308
v -0.06159399822354317 0.02470399998128414 0.08255299925804138
v -0.06505800038576126 0.03553599864244461 0.07638899981975555
v -0.056891001760959625 0.04168799892067909 0.08125600218772888
v -0.06341800093650818 0.04250599816441536 0.07474199682474136
v -0.06894700229167938 0.02837200090289116 0.1248679980635643
v -0.06458999961614609 0.02781200036406517 0.13450700044631958
v -0.06028100103139877 0.019990000873804092 0.1401199996471405
v -0.05816899985074997 0.01475400011986494 0.14179100096225739
v -0.07982099801301956 0.024644000455737114 0.10466299951076508
v -0.07178500294685364 0.027171000838279724 0.11523299664258957
v -0.06770999729633331 0.029082000255584717 0.12432800233364105
v -0.05094200000166893 0.03589000180363655 0.08573400229215622
v -0.05306899920105934 0.025844000279903412 0.08638899773359299
v -0.05960800126194954 0.016359999775886536 0.09017100185155869
v -0.06557299941778183 0.009651999920606613 0.09891600161790848
v -0.0668959990143776 0.00228599994443357 0.10661099851131439
v -0.06514900177717209 -0.004947000183165073 0.11474200338125229
v -0.06485400348901749 -0.012981999665498734 0.1203790009021759
v -0.06328699737787247 -0.01759999990463257 0.12325499951839447
v -0.060933999717235565 -0.020934000611305237 0.12504400312900543
v -0.057022999972105026 -0.023060999810695648 0.12676499783992767
v -0.054639000445604324 -0.024102000519633293 0.13109900057315826
v -0.05074099823832512 -0.022417999804019928 0.14721399545669556
v -0.05350799858570099 -0.017998000606894493 0.14917999505996704
v -0.053296998143196106 -0.013295999728143215 0.14767999947071075
v -0.0517520010471344 -0.010169999673962593 0.14530299603939056
v -0.05086499825119972 -0.008480999618768692 0.14478600025177002
v -0.049702998250722885 -0.006804999895393848 0.14355899393558502
v -0.05015600100159645 -0.025262000039219856 0.14115700125694275
v -0.048082999885082245 -0.02409599907696247 0.1459289938211441
v -0.05275899916887283 -0.024612000212073326 0.1360359936952591
v -0.04892899841070175 -0.005534000229090452 0.1424649953842163
v -0.047981999814510345 -0.0040779998525977135 0.1418910026550293
v -0.04785099998116493 -0.0025949999690055847 0.14144200086593628
v -0.047814998775720596 -0.0018080000299960375 0.14152300357818604
v -0.0474420003592968 -0.0009689999860711396 0.14172999560832977
v -0.04730299860239029 0.000375000003259629 0.14183099567890167
v -0.04694899916648865 0.0013520000502467155 0.14148400723934174
v -0.05398400127887726 0.011095000430941582 0.14033900201320648
v -0.05050700157880783 0.006541999988257885 0.13856400549411774
v -0.04707600176334381 0.003607999999076128 0.13984599709510803
v -0.04460500180721283 0.0025080000050365925 0.14242899417877197
v -0.08164100348949432 0.022518999874591827 0.09651099890470505
v -0.0773719996213913 0.025143999606370926 0.1040399968624115
v -0.07993700355291367 0.01828799955546856 0.08858100324869156
v -0.07754400372505188 0.017728999257087708 0.09523999691009521
v -0.07664299756288528 0.017292000353336334 0.0873510017991066
v -0.07287099957466125 0.017247000709176064 0.08599799871444702
v -0.06048399955034256 0.021250000223517418 0.08636300265789032
v -0.05240900069475174 0.03554600104689598 0.08671499788761139
v -0.04972200095653534 0.029961999505758286 0.0898829996585846
v -0.04916299879550934 0.02598400041460991 0.09179800003767014
v -0.06128200143575668 0.029797999188303947 0.12995900213718414
v -0.05990400165319443 0.021452000364661217 0.14210200309753418
v -0.06315000355243683 0.02861200086772442 0.13699400424957275
v -0.05950300022959709 0.030813999474048615 0.1340000033378601
v -0.057339999824762344 0.015343000181019306 0.14343300461769104
v -0.07079699635505676 0.026791000738739967 0.11454299837350845
v -0.06572099775075912 0.028193999081850052 0.12349600344896317
v -0.06095099821686745 0.023409999907016754 0.12812000513076782
v -0.04916299879550934 0.029719000682234764 0.08972299844026566
v -0.05151500180363655 0.022856000810861588 0.08945199847221375
v -0.05837799981236458 0.012996000237762928 0.09627100080251694
v -0.0637739971280098 0.00648899981752038 0.10469699651002884
v -0.06309100240468979 0.00022600000374950469 0.11321199685335159
v -0.06202000007033348 -0.0056420001201331615 0.11845000088214874
v -0.06154699996113777 -0.012164999730885029 0.12249000370502472
v -0.0595490001142025 -0.01661200076341629 0.12516699731349945
v -0.05665399879217148 -0.019818000495433807 0.12698900699615479
v -0.052122000604867935 -0.021880999207496643 0.13010099530220032
v -0.04475200176239014 -0.0248780008405447 0.14811499416828156
v -0.05004199966788292 -0.016547000035643578 0.1521410048007965
v -0.04759399965405464 -0.02159300073981285 0.1502559930086136
v -0.05039599910378456 -0.012729000300168991 0.15252499282360077
v -0.049288999289274216 -0.006471999920904636 0.1510470062494278
v -0.04846300184726715 -0.004540999885648489 0.15059299767017365
v -0.04805300012230873 -0.02485400065779686 0.13844099640846252
v -0.04622599855065346 -0.024817999452352524 0.1443219929933548
v -0.050289999693632126 -0.023353999480605125 0.13352100551128387
v -0.04782100021839142 -0.003725999966263771 0.15008999407291412
v -0.0471079982817173 -0.002213000087067485 0.149058997631073
v -0.045990001410245895 -0.0010260000126436353 0.14864200353622437
v -0.045837998390197754 -0.00056900002527982 0.14806300401687622
v -0.0451430007815361 0.000012999999853491317 0.14749300479888916
v -0.044512998312711716 0.0008329999982379377 0.14699800312519073
v -0.04190099984407425 0.0019650000613182783 0.1472329944372177
v -0.049699001014232635 0.006037000101059675 0.13609999418258667
v -0.0504859983921051 0.014674999751150608 0.1412840038537979
v -0.05423400178551674 0.013240999542176723 0.14215800166130066
v -0.051493000239133835 0.011633999645709991 0.13857099413871765
v -0.04575800150632858 0.0030640000477433205 0.13910700380802155
v -0.04401399940252304 0.0026710000820457935 0.1412999927997589
v -0.07291900366544724 0.01684500090777874 0.10328300297260284
v -0.06758300215005875 0.01431300025433302 0.11217500269412994
v -0.07391899824142456 0.014523999765515327 0.09356199949979782
v -0.07056000083684921 0.01319899968802929 0.10105200111865997
v -0.07030700147151947 0.013718999922275543 0.0919020026922226
v -0.05718199908733368 0.017688000574707985 0.09237399697303772
v -0.04718799889087677 0.020472999662160873 0.09549299627542496
v -0.048569999635219574 0.02601799927651882 0.09122099727392197
v -0.046365998685359955 0.020131999626755714 0.09446199983358383
v -0.056598000228405 0.019662000238895416 0.131399005651474
v -0.05416300147771835 0.026920000091195107 0.13675999641418457
v -0.05609999969601631 0.026194000616669655 0.13452300429344177
v -0.05794199928641319 0.02490999922156334 0.14722199738025665
v -0.057969000190496445 0.028470000252127647 0.1468379944562912
v -0.050009001046419144 0.030146999284625053 0.14073599874973297
v -0.0486610010266304 0.028744999319314957 0.141293004155159
v -0.05517299845814705 0.018131999298930168 0.15035200119018555
v -0.06379900127649307 0.011775000020861626 0.11645600199699402
v -0.05907199904322624 0.009789999574422836 0.12259799987077713
v -0.05514200031757355 0.008150000125169754 0.12664000689983368
v -0.04865400120615959 0.018750999122858047 0.09346099942922592
v -0.055736999958753586 0.010369000025093555 0.10054600238800049
v -0.06059800088405609 0.0031649998854845762 0.11146900057792664
v -0.06025899946689606 -0.001677999971434474 0.11720799654722214
v -0.05944500118494034 -0.006192999891936779 0.12105000019073486
v -0.05756700038909912 -0.012257999740540981 0.1247130036354065
v -0.055472999811172485 -0.016023000702261925 0.12687000632286072
v -0.05093400180339813 -0.018970999866724014 0.12929700314998627
v -0.045233000069856644 -0.020580999553203583 0.15174399316310883
v -0.04322199895977974 -0.02339399978518486 0.15007400512695312
v -0.04320099949836731 -0.02623400092124939 0.14658400416374207
v -0.04899799823760986 -0.016188999637961388 0.1527950018644333
v -0.04935700073838234 -0.012369000352919102 0.15317100286483765
v -0.0482029989361763 -0.007406999822705984 0.1526550054550171
v -0.047136999666690826 -0.00447099981829524 0.15162600576877594
v -0.0465719997882843 -0.0032790000550448895 0.15063999593257904
v -0.04574799910187721 -0.023910000920295715 0.13596999645233154
v -0.042222000658512115 -0.026427000761032104 0.14095500111579895
v -0.04897899925708771 -0.02181600034236908 0.13190999627113342
v -0.04588000103831291 -0.0022509999107569456 0.15041899681091309
v -0.045462001115083694 -0.0015079999575391412 0.1500220000743866
v -0.04455399885773659 -0.0008479999960400164 0.1493529975414276
v -0.04333300143480301 0.000893999997060746 0.14895400404930115
v -0.04205099865794182 0.00171999994199723 0.14860400557518005
v -0.042667001485824585 0.003361999988555908 0.1409820020198822
v -0.042148999869823456 0.0026340000331401825 0.1491210013628006
v -0.04045499861240387 0.0033420000690966845 0.14638200402259827
v -0.04434200003743172 0.003066000062972307 0.138387992978096
v -0.047979000955820084 0.003969000186771154 0.13439300656318665
v -0.0479779988527298 0.018265999853610992 0.14642100036144257
v -0.05083300173282623 0.021335000172257423 0.13889700174331665
v -0.052698999643325806 0.016851000487804413 0.14836299419403076
v -0.05257900059223175 0.019464999437332153 0.13613800704479218
v -0.0517829991877079 0.010114000178873539 0.13483799993991852
v -0.06466399878263474 0.009775999933481216 0.10982400178909302
v -0.06113800033926964 0.006806999910622835 0.11447399854660034
v -0.06604500114917755 0.011234999634325504 0.09850800037384033
v -0.06031300127506256 0.007935999892652035 0.10767000168561935
v -0.05393199995160103 0.013918000273406506 0.09779799729585648
v -0.045409999787807465 0.016693999990820885 0.09949599951505661
v -0.04437800124287605 0.016878999769687653 0.09871599823236465
v -0.04616500064730644 0.015278000384569168 0.09800200164318085
v -0.053748998790979385 0.01610800065100193 0.13346800208091736
v -0.05279500037431717 0.007654999848455191 0.12879200279712677
v -0.04651699960231781 0.022792000323534012 0.14370599389076233
v -0.05502200126647949 0.02373499982059002 0.15893299877643585
v -0.05414099991321564 0.025862999260425568 0.15875500440597534
v -0.040665000677108765 0.03053399920463562 0.1473899930715561
v -0.0392099991440773 0.028934000059962273 0.14672699570655823
v -0.03925599902868271 0.024545999243855476 0.14818300306797028
v -0.05079500004649162 0.017575999721884727 0.15685200691223145
v -0.05647600069642067 0.0048940000124275684 0.11923699826002121
v -0.05327500030398369 0.004267999902367592 0.12377899885177612
v -0.05059700086712837 0.0033859999384731054 0.1257150024175644
v -0.05349700152873993 0.007089000195264816 0.10721699893474579
v -0.05718199908733368 0.0018710000440478325 0.11467500030994415
v -0.057408999651670456 -0.002394000068306923 0.11964800208806992
v -0.0552310012280941 -0.0067980000749230385 0.123369000852108
v -0.05318799987435341 -0.010906999930739403 0.12578800320625305
v -0.04947799816727638 -0.015776999294757843 0.12867100536823273
v -0.040667999535799026 -0.025490999221801758 0.14823000133037567
v -0.03727500140666962 -0.02668900042772293 0.14578400552272797
v -0.039034999907016754 -0.027217000722885132 0.14406399428844452
v -0.034255001693964005 -0.025735000148415565 0.14294999837875366
v -0.029461000114679337 -0.02141300030052662 0.1390720009803772
v -0.03243299946188927 -0.024414999410510063 0.14162200689315796
v -0.028169000521302223 -0.01809700019657612 0.13883699476718903
v -0.043595001101493835 -0.022525999695062637 0.1347610056400299
v -0.03913300111889839 -0.025992000475525856 0.1391499936580658
v -0.0469059981405735 -0.01917099952697754 0.13091200590133667
v -0.02630000002682209 -0.012826000340282917 0.1388459950685501
v -0.02630399912595749 -0.01042299997061491 0.1388619989156723
v -0.02617100067436695 -0.008227000012993813 0.13900800049304962
v -0.04185599833726883 0.003914999775588512 0.1406400054693222
v -0.04062600061297417 0.003335000015795231 0.14854800701141357
v -0.02447899989783764 -0.005942999850958586 0.1387930065393448
v -0.04041200131177902 0.0048420000821352005 0.1394529938697815
v -0.03967199847102165 0.003413999918848276 0.1481339931488037
v -0.038401998579502106 0.004476999863982201 0.1460530012845993
v -0.042603999376297 0.0032550001051276922 0.1372479945421219
v -0.04577900096774101 0.0028520000632852316 0.13256299495697021
v -0.042621999979019165 0.020400000736117363 0.15277700126171112
v -0.04761499911546707 0.018702000379562378 0.15452900528907776
v -0.05069800093770027 0.0061530000530183315 0.13151399791240692
v -0.057075001299381256 0.005716999992728233 0.11226999759674072
v -0.05363300070166588 0.004011000040918589 0.11712100356817245
v -0.05051900073885918 0.01040400005877018 0.10555399954319
v -0.05046200007200241 0.00837900023907423 0.11038699746131897
v -0.04299300163984299 0.01284400001168251 0.10544700175523758
v -0.04224399849772453 0.013187999837100506 0.10482999682426453
v -0.044449999928474426 0.010854000225663185 0.10451500117778778
v -0.04841100051999092 0.003326999954879284 0.12913300096988678
v -0.053220998495817184 0.022075999528169632 0.1640540063381195
v -0.052643001079559326 0.02553500048816204 0.16362999379634857
v -0.036122001707553864 0.030427999794483185 0.150176003575325
v -0.034348998218774796 0.028704000636935234 0.14820599555969238
v -0.03522900119423866 0.02478400059044361 0.1501459926366806
v -0.03915499895811081 0.021090999245643616 0.1545110046863556
v -0.048583000898361206 0.018890000879764557 0.16015399992465973
v -0.04997999966144562 0.002962999977171421 0.12165900319814682
v -0.04730900004506111 0.0025279999244958162 0.12393499910831451
v -0.04462999850511551 0.002397000091150403 0.12709300220012665
v -0.051245998591184616 0.00471699982881546 0.11144900321960449
v -0.05447100102901459 0.0005729999975301325 0.11823999881744385
v -0.05327700078487396 -0.00367900007404387 0.1224920004606247
v -0.05120300129055977 -0.0069989999756217 0.12498500198125839
v -0.046567000448703766 -0.011345000006258488 0.12775400280952454
v -0.03542200103402138 -0.025939999148249626 0.14152799546718597
v -0.032993998378515244 -0.02471200004220009 0.14016999304294586
v -0.02867799997329712 -0.01805100031197071 0.13712400197982788
v -0.030079999938607216 -0.021176999434828758 0.1385679990053177
v -0.026969000697135925 -0.013542000204324722 0.1368270069360733
v -0.04132499918341637 -0.01966799981892109 0.13312000036239624
v -0.03710800036787987 -0.024010000750422478 0.13752199709415436
v -0.0451200008392334 -0.01623700000345707 0.1295270025730133
v -0.02708899974822998 -0.010672999545931816 0.13696099817752838
v -0.026909999549388885 -0.008980999700725079 0.13680499792099
v -0.025109000504016876 -0.006318999920040369 0.13650600612163544
v -0.022220000624656677 -0.002498999936506152 0.1369429975748062
v -0.022460000589489937 -0.0024429999757558107 0.1396300047636032
v -0.04044799879193306 0.004637000150978565 0.13604800403118134
v -0.03570900112390518 0.007586000021547079 0.1385509967803955
v -0.03659699857234955 0.004736000206321478 0.14573800563812256
v -0.03673100098967552 0.004013999830931425 0.1474130004644394
v -0.042176999151706696 0.003068000078201294 0.1310500055551529
v -0.04480699822306633 0.02005000039935112 0.1572519987821579
v -0.046362001448869705 0.006477999966591597 0.11458899825811386
v -0.04390300065279007 0.004621999803930521 0.11906000226736069
v -0.04395199939608574 0.009302999824285507 0.11003299802541733
v -0.044002000242471695 0.006285000126808882 0.1144929975271225
v -0.043435998260974884 0.009841999970376492 0.1084199994802475
v -0.04492200165987015 0.0076779997907578945 0.10918000340461731
v -0.0385189987719059 0.005452999845147133 0.12949399650096893
v -0.048951998353004456 0.02168400026857853 0.1666630059480667
v -0.04898099973797798 0.026002999395132065 0.16750499606132507
v -0.028271999210119247 0.03083599917590618 0.15106600522994995
v -0.027842000126838684 0.027535000815987587 0.148717999458313
v -0.02885100059211254 0.024675000458955765 0.15057699382305145
v -0.03560800105333328 0.02082899957895279 0.15693299472332
v -0.03947800025343895 0.021526999771595 0.159838005900383
v -0.04371200129389763 0.02154500037431717 0.16398200392723083
v -0.04194600135087967 0.00430699996650219 0.12115400284528732
v -0.04020300135016441 0.004536000080406666 0.12511399388313293
v -0.03360699862241745 0.007966999895870686 0.12759500741958618
v -0.04908199980854988 0.0032850001007318497 0.11499500274658203
v -0.05012800171971321 -0.0010849999962374568 0.1206509992480278
v -0.049396999180316925 -0.004639000166207552 0.12380699813365936
v -0.04473400115966797 -0.008200000040233135 0.1266629993915558
v -0.034290000796318054 -0.021019000560045242 0.13590000569820404
v -0.03134800121188164 -0.013259000144898891 0.13454000651836395
v -0.03282900154590607 -0.017826000228524208 0.1352829933166504
v -0.030628999695181847 -0.010858999565243721 0.13420000672340393
v -0.039197999984025955 -0.016818000003695488 0.1324010044336319
v -0.04225999861955643 -0.012145999819040298 0.12887200713157654
v -0.027660999447107315 -0.00634900014847517 0.13411299884319305
v -0.029529999941587448 -0.008330999873578548 0.13481000065803528
v -0.022958999499678612 -0.00045399999362416565 0.1344590038061142
v -0.021331999450922012 -0.00005900000178371556 0.1376499980688095
v -0.024661000818014145 -0.003318999893963337 0.13354100286960602
v -0.022028999403119087 0.0005559999844990671 0.13979199528694153
v -0.03692900016903877 0.008071999996900558 0.1344040036201477
v -0.029471000656485558 0.0077760000713169575 0.1376730054616928
v -0.032524000853300095 0.005462000146508217 0.14375999569892883
v -0.0321040004491806 0.004424000158905983 0.145113006234169
v -0.04262299835681915 0.005371999926865101 0.11737500131130219
v -0.038263000547885895 0.005661999806761742 0.1194550022482872
v -0.043901000171899796 0.00609100004658103 0.1132889986038208
v -0.0414699986577034 0.0046430001966655254 0.11612699925899506
v -0.045779999345541 0.004685999825596809 0.11377499997615814
v -0.0311840008944273 0.008472000248730183 0.13324600458145142
v -0.045795001089572906 0.024143999442458153 0.1684889942407608
v -0.043487999588251114 0.026907000690698624 0.1693660020828247
v -0.017105000093579292 0.030427999794483185 0.15214499831199646
v -0.014387999661266804 0.027758000418543816 0.14957599341869354
v -0.016428999602794647 0.023946000263094902 0.1509779989719391
v -0.0292930006980896 0.020376000553369522 0.1607629954814911
v -0.03641600161790848 0.021649999544024467 0.16340500116348267
v -0.04244999960064888 0.023053999990224838 0.16664999723434448
v -0.035881999880075455 0.006264000199735165 0.12257900089025497
v -0.029217999428510666 0.009327000007033348 0.1255369931459427
v -0.02456600032746792 0.008608000352978706 0.13187700510025024
v -0.04539300128817558 0.0018360000103712082 0.11804399639368057
v -0.04585300013422966 -0.0022330000065267086 0.12202099710702896
v -0.04219900071620941 -0.006560999900102615 0.1258610039949417
v -0.03551999852061272 -0.010220999829471111 0.1310880035161972
v -0.036451999098062515 -0.012263000011444092 0.1318729966878891
v -0.03332100063562393 -0.007739999797195196 0.130854994058609
v -0.03996400162577629 -0.009429999627172947 0.12777000665664673
v -0.02674500085413456 -0.0039079999551177025 0.1285579949617386
v -0.03051299974322319 -0.006266000214964151 0.12989500164985657
v -0.02459000051021576 -0.002216000109910965 0.1282469928264618
v -0.02145400084555149 -0.0009929999941959977 0.12652899324893951
v -0.01885100081562996 0.0031510000117123127 0.13168799877166748
v -0.01992899924516678 0.005594999995082617 0.13254700601100922
v -0.022262999787926674 0.0059899999760091305 0.1360509991645813
v -0.02163499966263771 0.0018810000037774444 0.13919000327587128
v -0.027925999835133553 0.004947000183165073 0.14192800223827362
v -0.027723999693989754 0.003969000186771154 0.1428299993276596
v -0.03561900183558464 0.006521999835968018 0.11765000224113464
v -0.03264699876308441 0.008046000264585018 0.12087000161409378
v -0.04363200068473816 0.0034000000450760126 0.11677800118923187
v -0.03314400091767311 0.004044000059366226 0.11408799886703491
v -0.04176799952983856 0.026345999911427498 0.17012900114059448
v -0.04020800068974495 0.024543000385165215 0.16825899481773376
v -0.012927999719977379 0.030091000720858574 0.15651600062847137
v -0.009050999768078327 0.027005000039935112 0.15358400344848633
v -0.007947999984025955 0.023530999198555946 0.15258300304412842
v -0.02711700089275837 0.022545000538229942 0.16277199983596802
v -0.03322099894285202 0.022676000371575356 0.16673900187015533
v -0.02646300010383129 0.010595999658107758 0.12429799884557724
v -0.029424000531435013 0.01027199998497963 0.11951500177383423
v -0.02173900045454502 0.00875800009816885 0.1298999935388565
v -0.0415400005877018 -0.00005700000110664405 0.11982399970293045
v -0.039854999631643295 -0.004389000125229359 0.12380500137805939
v -0.038036998361349106 -0.007681000046432018 0.1270119994878769
v -0.035415999591350555 -0.005803000181913376 0.1253490000963211
v -0.026568999513983727 -0.0016769999638199806 0.11995600163936615
v -0.031599998474121094 -0.003415999934077263 0.12286300212144852
v -0.017007000744342804 -0.001967000076547265 0.12527400255203247
v -0.01571499928832054 0.001973999897018075 0.12994499504566193
v -0.021133000031113625 -0.0017369999550282955 0.12030299752950668
v -0.015325999818742275 0.005702999886125326 0.13248899579048157
v -0.016123000532388687 0.00843099970370531 0.13040199875831604
v -0.03184900060296059 0.008570999838411808 0.11542300134897232
v -0.03031199984252453 0.006899000145494938 0.1130099967122078
v -0.02648800052702427 0.0013699999544769526 0.11434400081634521
v -0.03588100150227547 -0.002128999913111329 0.12094400078058243
v -0.021828999742865562 0.0024399999529123306 0.11580099910497665
v -0.03048500046133995 0.02724199928343296 0.16933700442314148
v -0.013918999582529068 0.02877799980342388 0.16281099617481232
v -0.0319180004298687 0.025421999394893646 0.16983500123023987
v -0.007969999685883522 0.027002999559044838 0.16098099946975708
v -0.007156000006943941 0.02293200045824051 0.16203999519348145
v -0.019461000338196754 0.023351000621914864 0.16607899963855743
v -0.029577000066637993 0.022657999768853188 0.1682939976453781
v -0.02131900005042553 0.012171000242233276 0.12529100477695465
v -0.026180999353528023 0.014306999742984772 0.11837799847126007
v -0.029712999239563942 0.013236000202596188 0.11492999643087387
v -0.016597000882029533 -0.0029060000088065863 0.12097900360822678
v -0.013047999702394009 -0.004809999838471413 0.12461099773645401
v -0.01119299978017807 0.0013909999979659915 0.13041099905967712
v -0.011409999802708626 0.002819000044837594 0.13297200202941895
v -0.01165900006890297 0.0076299998909235 0.1305910050868988
v -0.016214000061154366 0.012807000428438187 0.12674500048160553
v -0.027274999767541885 0.01116899959743023 0.11285799741744995
v -0.01764100044965744 0.0041970000602304935 0.11616300046443939
v -0.026491999626159668 0.023094000294804573 0.16962100565433502
v -0.02546199969947338 0.02674899995326996 0.17097899317741394
v -0.010963999666273594 0.024445999413728714 0.1670060008764267
v -0.011754999868571758 0.022551000118255615 0.16631799936294556
v -0.020393000915646553 0.014165000058710575 0.11939600110054016
v -0.02089500054717064 0.012865999713540077 0.11664800345897675
v -0.01948999986052513 0.010614000260829926 0.11535699665546417
v -0.012256000190973282 -0.004871999844908714 0.12249000370502472
v -0.010592999868094921 -0.006082000210881233 0.12575000524520874
v -0.008729999884963036 -0.00032900000223889947 0.13121099770069122
v -0.007674000225961208 0.00020300000323913991 0.13330000638961792
v -0.007914000190794468 0.004879999905824661 0.13145700097084045
v -0.011405999772250652 0.008774000220000744 0.12634900212287903
v -0.012924999929964542 0.010889999568462372 0.12285199761390686
v -0.01307000033557415 0.0018660000059753656 0.11723200231790543
v -0.01322100032120943 0.009808000177145004 0.11945600062608719
v -0.010580999776721 0.003918999806046486 0.11793699860572815
v -0.008559999987483025 -0.0020089999306946993 0.12012600153684616
v -0.009624999947845936 -0.006415000185370445 0.1237960010766983
v -0.008950999937951565 -0.0074709998443722725 0.127577006816864
v -0.007770000025629997 -0.003502999898046255 0.1320289969444275
v -0.00585100008174777 -0.0014519999967887998 0.1352819949388504
v -0.004036999773234129 0.0019660000689327717 0.13309499621391296
v -0.006513999775052071 0.004854000173509121 0.12876300513744354
v -0.008768999949097633 0.0057230000384151936 0.12519200146198273
v -0.00916299968957901 0.004406000021845102 0.12266600131988525
v -0.007809000089764595 0.0019399999873712659 0.1210940033197403
v -0.0067900000140070915 -0.0038689998909831047 0.12182900309562683
v -0.007965999655425549 -0.008248000405728817 0.1252799928188324
v -0.0045819999650120735 -0.011490999720990658 0.1319430023431778
v -0.004809999838471413 -0.009039999917149544 0.13465100526809692
v -0.002773999935016036 -0.0047439998015761375 0.1386989951133728
v -0.000737000023946166 -0.0012540000025182962 0.1364070028066635
v -0.00013899999612476677 -0.0003349999897181988 0.13338099420070648
v -0.000009999999747378752 -0.00036199999158270657 0.1304740011692047
v 0.00037799999699927866 -0.0023610000498592854 0.1271830052137375
v -0.000043000000005122274 -0.004612000193446875 0.12512199580669403
v 0.0005119999987073243 -0.009721999987959862 0.12476199865341187
v -0.0028299998957663774 -0.012504000216722488 0.12922599911689758
v -0.0025390000082552433 -0.013377999886870384 0.13294699788093567
v -0.002983999904245138 -0.012780999764800072 0.13437700271606445
v 0.000018999999156221747 -0.006862000096589327 0.13927799463272095
v 0.0017800000496208668 -0.0052999998442828655 0.13801200687885284
v 0.003343000076711178 -0.005148000083863735 0.1358170062303543
v 0.004482000134885311 -0.005305000115185976 0.13436999917030334
v 0.004197999835014343 -0.006512000225484371 0.13152199983596802
v 0.0037529999390244484 -0.00911100022494793 0.12658999860286713
v 0.002337000099942088 -0.013907999731600285 0.12727099657058716
v -0.0010779999429360032 -0.013783000409603119 0.130731999874115
v 0.0003760000108741224 -0.014902000315487385 0.13552899658679962
v 0.0004349999944679439 -0.01438399963080883 0.13669399917125702
v 0.002549000084400177 -0.011973000131547451 0.13876399397850037
v 0.003889000043272972 -0.011157000437378883 0.1379069983959198
v 0.004827999975532293 -0.009562999941408634 0.13678200542926788
v 0.005251999944448471 -0.009576000273227692 0.13514600694179535
v 0.005456000100821257 -0.010118000209331512 0.13326400518417358
v 0.0056870002299547195 -0.011682000011205673 0.13124899566173553
v 0.0032820000778883696 -0.014681000262498856 0.13124200701713562
v 0.0007409999961964786 -0.015119999647140503 0.13360600173473358
v 0.002587999915704131 -0.015093999914824963 0.13635900616645813
v 0.0038219999987632036 -0.013938000425696373 0.13616900146007538
v 0.004304000176489353 -0.014183999970555305 0.1344739943742752
v 0.00304599991068244 -0.015072000212967396 0.13357999920845032
f 1 2 3
f 4 5 1
f 6 7 1
f 1 3 6
f 5 2 1
f 4 1 7
f 5 8 2
f 2 9 10
f 2 10 3
f 8 9 2
f 6 3 11
f 3 10 12
f 3 12 11
f 13 5 4
f 7 13 4
f 13 14 5
f 14 8 5
f 6 11 15
f 15 7 6
f 15 16 7
f 7 16 13
f 16 17 13
f 14 18 8
f 8 19 9
f 18 19 8
f 9 20 21
f 9 21 10
f 19 20 9
f 10 21 22
f 10 22 12
f 15 11 23
f 11 12 24
f 11 24 23
f 12 22 25
f 12 25 24
f 26 13 17
f 27 14 13
f 27 28 14
f 28 18 14
f 16 15 29
f 15 23 29
f 16 29 17
f 17 29 30
f 17 30 31
f 26 17 31
f 28 32 18
f 18 33 19
f 32 33 18
f 19 34 20
f 33 34 19
f 20 35 36
f 20 36 21
f 34 35 20
f 21 36 37
f 21 37 22
f 22 37 38
f 22 38 25
f 29 23 39
f 23 24 40
f 23 40 39
f 24 25 41
f 24 41 40
f 25 38 42
f 25 42 41
f 26 43 28
f 44 43 26
f 26 28 27
f 31 44 26
f 43 32 28
f 29 39 30
f 30 39 45
f 31 30 46
f 30 45 46
f 31 47 44
f 31 46 47
f 43 48 32
f 32 49 33
f 48 49 32
f 33 50 34
f 49 50 33
f 34 51 35
f 50 51 34
f 35 52 53
f 35 53 36
f 51 52 35
f 36 53 54
f 36 54 37
f 37 54 55
f 37 55 38
f 38 55 56
f 38 56 42
f 39 40 57
f 39 57 45
f 40 41 58
f 40 58 57
f 41 42 59
f 41 59 58
f 42 56 60
f 42 60 59
f 44 61 43
f 61 48 43
f 62 61 44
f 47 62 44
f 46 45 63
f 45 57 64
f 45 64 63
f 47 46 65
f 46 63 65
f 47 66 67
f 47 65 66
f 47 67 62
f 61 68 48
f 48 69 49
f 68 69 48
f 49 70 50
f 69 70 49
f 50 71 51
f 70 71 50
f 51 72 52
f 71 72 51
f 52 73 74
f 52 74 53
f 72 73 52
f 53 74 75
f 53 75 54
f 54 75 76
f 54 76 55
f 55 76 77
f 55 77 56
f 56 77 78
f 56 78 60
f 57 58 79
f 57 79 64
f 58 59 80
f 58 80 79
f 59 60 81
f 59 81 80
f 60 78 82
f 60 82 81
f 62 83 61
f 83 68 61
f 84 83 62
f 67 84 62
f 65 63 85
f 63 64 86
f 63 86 85
f 64 79 87
f 64 87 86
f 66 65 88
f 65 85 88
f 66 88 67
f 67 88 89
f 67 90 84
f 67 89 90
f 83 91 68
f 68 92 69
f 91 92 68
f 69 93 70
f 92 93 69
f 70 94 71
f 93 94 70
f 71 95 72
f 94 95 71
f 72 96 73
f 95 96 72
f 73 97 98
f 73 98 74
f 96 97 73
f 74 98 99
f 74 99 75
f 75 99 100
f 75 100 76
f 76 100 101
f 76 101 77
f 77 101 102
f 77 102 78
f 78 102 103
f 78 103 82
f 79 80 104
f 79 104 87
f 80 81 105
f 80 105 104
f 81 82 106
f 81 106 105
f 82 103 107
f 82 107 106
f 84 108 83
f 108 91 83
f 109 108 84
f 90 109 84
f 88 85 110
f 85 86 111
f 85 111 110
f 86 87 112
f 86 112 111
f 87 104 113
f 87 113 112
f 88 110 89
f 89 110 114
f 90 89 115
f 89 114 116
f 90 117 118
f 90 115 117
f 90 118 109
f 108 119 91
f 91 120 92
f 119 120 91
f 92 121 93
f 120 121 92
f 93 122 94
f 121 122 93
f 94 123 95
f 122 123 94
f 95 124 96
f 123 124 95
f 96 125 97
f 124 125 96
f 97 126 127
f 97 127 98
f 125 126 97
f 98 127 128
f 98 128 99
f 99 128 129
f 99 129 100
f 100 129 130
f 100 130 101
f 101 130 131
f 101 131 102
f 102 131 132
f 102 132 103
f 103 132 133
f 103 133 107
f 104 105 134
f 104 134 113
f 105 106 135
f 105 135 134
f 106 107 136
f 106 136 135
f 107 133 137
f 107 137 136
f 109 138 108
f 138 119 108
f 118 139 109
f 140 138 109
f 139 140 109
f 110 111 141
f 110 141 114
f 111 112 142
f 111 142 141
f 112 113 143
f 112 143 142
f 113 134 144
f 113 144 143
f 116 114 145
f 114 141 146
f 114 146 145
f 117 115 116
f 118 116 147
f 116 145 147
f 117 116 118
f 118 147 139
f 138 148 119
f 119 149 120
f 148 149 119
f 120 150 121
f 149 150 120
f 121 151 122
f 150 151 121
f 122 152 123
f 151 152 122
f 123 153 124
f 152 153 123
f 124 154 125
f 153 154 124
f 125 155 126
f 154 155 125
f 156 127 126
f 157 126 155
f 156 126 157
f 158 128 127
f 158 127 156
f 159 129 128
f 159 128 158
f 160 130 129
f 160 129 159
f 161 131 130
f 161 130 160
f 162 132 131
f 162 131 161
f 163 133 132
f 163 132 162
f 164 137 133
f 164 133 163
f 134 135 165
f 134 165 144
f 135 136 166
f 135 166 165
f 136 137 167
f 136 167 166
f 168 167 137
f 168 137 164
f 140 169 138
f 169 148 138
f 139 147 170
f 139 171 140
f 139 170 171
f 171 172 140
f 173 169 140
f 172 173 140
f 141 142 174
f 141 174 146
f 142 143 175
f 142 175 174
f 143 144 176
f 143 176 175
f 144 165 177
f 144 177 176
f 147 145 178
f 145 146 179
f 145 179 178
f 146 174 180
f 146 180 179
f 147 178 170
f 169 181 148
f 148 182 149
f 181 182 148
f 149 183 150
f 182 183 149
f 150 184 151
f 183 184 150
f 151 185 152
f 184 185 151
f 152 186 153
f 185 186 152
f 153 187 154
f 186 187 153
f 154 188 155
f 187 188 154
f 189 155 188
f 157 155 189
f 156 190 191
f 157 190 156
f 156 191 158
f 157 192 190
f 189 192 157
f 158 191 193
f 158 193 159
f 159 193 194
f 159 194 160
f 160 194 195
f 160 195 161
f 161 195 196
f 161 196 162
f 162 196 197
f 162 197 163
f 163 197 198
f 163 198 164
f 164 198 199
f 164 199 168
f 165 166 200
f 165 200 177
f 166 167 201
f 166 201 200
f 202 201 167
f 202 167 168
f 168 199 203
f 168 203 202
f 173 204 169
f 204 181 169
f 170 178 205
f 171 170 206
f 170 205 206
f 171 206 172
f 172 206 207
f 172 207 208
f 209 210 208
f 172 208 210
f 172 210 173
f 211 212 173
f 210 211 173
f 213 204 173
f 212 213 173
f 174 175 214
f 174 214 180
f 175 176 215
f 175 215 214
f 176 177 216
f 176 216 215
f 177 200 217
f 177 217 216
f 178 179 218
f 178 218 205
f 179 180 219
f 179 219 218
f 180 214 220
f 180 220 219
f 204 221 181
f 181 222 182
f 221 222 181
f 182 223 183
f 222 223 182
f 183 224 184
f 223 224 183
f 184 225 185
f 224 225 184
f 185 226 186
f 225 226 185
f 186 227 187
f 226 227 186
f 187 228 188
f 227 228 187
f 229 188 228
f 189 188 229
f 189 230 192
f 229 230 189
f 190 231 232
f 192 231 190
f 190 232 191
f 191 232 233
f 191 233 193
f 192 234 231
f 230 234 192
f 193 233 235
f 193 235 194
f 194 235 236
f 194 236 195
f 195 236 237
f 195 237 196
f 196 237 238
f 196 238 197
f 197 238 239
f 197 239 198
f 198 239 240
f 198 240 199
f 199 240 241
f 199 241 203
f 200 201 242
f 200 242 217
f 243 242 201
f 243 201 202
f 202 203 244
f 202 244 243
f 203 241 245
f 203 245 244
f 213 246 204
f 246 221 204
f 206 205 247
f 205 218 248
f 205 248 247
f 206 247 207
f 207 247 249
f 208 207 250
f 207 249 250
f 208 250 209
f 209 250 251
f 209 251 210
f 210 251 252
f 210 252 211
f 211 252 253
f 211 253 212
f 212 253 254
f 212 255 213
f 212 254 255
f 256 246 213
f 255 256 213
f 214 215 257
f 214 257 220
f 215 216 258
f 215 258 257
f 216 217 259
f 216 259 258
f 217 242 260
f 217 260 259
f 218 219 261
f 218 261 248
f 219 220 262
f 219 262 261
f 220 257 263
f 220 263 262
f 246 264 221
f 221 265 222
f 264 265 221
f 222 266 223
f 265 266 222
f 223 267 224
f 266 267 223
f 224 268 225
f 267 268 224
f 225 269 226
f 268 269 225
f 226 270 227
f 269 270 226
f 227 271 228
f 270 271 227
f 272 228 271
f 229 228 272
f 229 273 230
f 272 273 229
f 230 274 234
f 273 274 230
f 231 275 276
f 234 275 231
f 231 276 232
f 232 276 277
f 232 277 233
f 233 277 278
f 233 278 235
f 234 279 275
f 274 279 234
f 235 278 280
f 235 280 236
f 236 280 281
f 236 281 237
f 237 281 282
f 237 282 238
f 238 282 283
f 238 283 239
f 239 283 284
f 239 284 240
f 240 284 285
f 240 285 241
f 241 285 286
f 241 286 245
f 287 260 242
f 287 242 243
f 243 244 288
f 243 288 287
f 244 245 289
f 244 289 288
f 245 286 290
f 245 290 289
f 256 291 246
f 291 264 246
f 247 248 292
f 247 292 249
f 248 261 293
f 248 293 292
f 250 249 294
f 249 292 295
f 249 295 294
f 250 294 251
f 251 294 296
f 251 296 252
f 252 296 297
f 252 297 253
f 253 297 298
f 253 298 254
f 254 298 299
f 255 254 300
f 254 299 300
f 255 301 302
f 255 300 301
f 255 302 303
f 255 303 256
f 303 291 256
f 257 258 304
f 257 304 263
f 258 259 305
f 258 305 304
f 259 260 306
f 259 306 305
f 307 306 260
f 307 260 287
f 261 262 308
f 261 308 293
f 262 263 309
f 262 309 308
f 263 304 310
f 263 310 309
f 291 311 264
f 264 312 265
f 311 312 264
f 265 313 266
f 312 313 265
f 266 314 267
f 313 314 266
f 267 315 268
f 314 315 267
f 268 316 269
f 315 316 268
f 269 317 270
f 316 317 269
f 270 318 271
f 317 318 270
f 319 271 318
f 272 271 319
f 272 320 273
f 319 320 272
f 273 321 274
f 320 321 273
f 274 322 279
f 321 322 274
f 275 323 324
f 279 323 275
f 275 324 276
f 276 324 325
f 276 325 277
f 277 325 326
f 277 326 278
f 278 326 327
f 278 327 280
f 279 328 323
f 329 328 279
f 280 327 330
f 280 330 281
f 281 330 331
f 281 331 282
f 282 331 332
f 282 332 283
f 283 332 333
f 283 333 284
f 284 333 334
f 284 334 285
f 285 334 335
f 285 335 286
f 286 335 336
f 286 336 290
f 287 288 337
f 287 337 307
f 288 289 338
f 288 338 337
f 289 290 339
f 289 339 338
f 290 336 340
f 290 340 339
f 303 341 291
f 341 311 291
f 292 293 342
f 292 342 295
f 293 308 343
f 293 343 342
f 294 295 344
f 294 344 296
f 295 342 345
f 295 345 344
f 296 344 346
f 296 346 297
f 297 346 347
f 297 347 298
f 298 347 348
f 298 348 299
f 300 299 349
f 299 348 350
f 299 350 349
f 301 300 351
f 300 349 351
f 301 351 302
f 302 351 352
f 302 353 303
f 302 352 353
f 353 341 303
f 304 305 354
f 304 354 310
f 305 306 355
f 305 355 354
f 356 355 306
f 356 306 307
f 307 337 357
f 307 357 356
f 308 309 358
f 308 358 343
f 309 310 359
f 309 359 358
f 310 354 360
f 310 360 359
f 341 361 311
f 311 362 312
f 361 362 311
f 312 363 313
f 362 363 312
f 313 364 314
f 363 364 313
f 314 365 315
f 364 365 314
f 315 366 316
f 365 366 315
f 316 367 317
f 366 367 316
f 317 368 318
f 367 368 317
f 369 318 368
f 319 318 369
f 319 370 320
f 369 370 319
f 320 371 321
f 370 371 320
f 321 329 322
f 371 329 321
f 323 372 373
f 328 372 323
f 323 373 324
f 324 373 374
f 324 374 325
f 325 374 375
f 325 375 326
f 326 375 376
f 326 376 327
f 327 376 377
f 327 377 330
f 329 378 328
f 328 379 372
f 378 379 328
f 371 380 329
f 380 378 329
f 330 377 381
f 330 381 331
f 331 381 382
f 331 382 332
f 332 382 383
f 332 383 333
f 333 383 384
f 333 384 334
f 334 384 385
f 334 385 335
f 335 385 386
f 335 386 336
f 336 386 387
f 336 387 340
f 337 338 388
f 337 388 357
f 338 339 389
f 338 389 388
f 339 340 390
f 339 390 389
f 340 387 391
f 340 391 390
f 353 352 341
f 352 361 341
f 342 343 392
f 342 392 345
f 343 358 393
f 343 393 392
f 344 345 394
f 344 394 346
f 345 392 395
f 345 395 394
f 346 394 396
f 346 396 347
f 347 396 397
f 347 397 348
f 348 397 398
f 348 398 350
f 351 349 399
f 349 350 400
f 349 400 399
f 350 398 401
f 350 401 400
f 351 399 352
f 352 399 361
f 354 355 402
f 354 402 360
f 403 404 355
f 355 404 405
f 403 355 356
f 355 405 402
f 403 356 357
f 403 357 406
f 388 406 357
f 358 359 407
f 358 407 393
f 359 360 408
f 359 408 407
f 360 402 409
f 360 409 408
f 361 410 362
f 399 410 361
f 362 411 363
f 410 411 362
f 363 412 364
f 411 412 363
f 364 413 365
f 412 413 364
f 365 414 366
f 413 414 365
f 366 415 367
f 414 415 366
f 367 416 368
f 415 416 367
f 417 368 416
f 369 368 417
f 369 418 370
f 417 418 369
f 370 419 371
f 418 419 370
f 419 380 371
f 372 379 420
f 421 373 372
f 372 420 422
f 421 372 422
f 374 373 421
f 375 374 423
f 374 421 423
f 376 375 423
f 376 424 377
f 376 423 424
f 377 424 425
f 377 425 381
f 380 426 378
f 378 427 379
f 426 427 378
f 420 379 427
f 419 428 380
f 428 426 380
f 381 425 429
f 381 429 382
f 382 429 430
f 382 430 383
f 383 430 431
f 383 431 384
f 385 384 431
f 432 386 385
f 385 431 432
f 387 386 433
f 432 433 386
f 387 434 435
f 387 433 434
f 387 435 391
f 388 389 436
f 437 438 388
f 388 438 406
f 388 436 439
f 437 388 439
f 389 390 440
f 389 440 436
f 390 391 441
f 390 441 440
f 441 391 435
f 392 393 442
f 392 442 395
f 393 407 443
f 393 443 442
f 394 395 444
f 394 444 396
f 395 442 445
f 395 445 444
f 396 444 446
f 396 446 397
f 397 446 447
f 397 447 398
f 398 447 448
f 398 448 401
f 399 400 410
f 400 401 449
f 400 449 410
f 401 448 450
f 401 450 449
f 451 409 402
f 452 453 402
f 451 402 453
f 452 402 405
f 454 403 406
f 455 404 403
f 455 403 454
f 456 405 404
f 456 404 455
f 457 452 405
f 457 405 456
f 458 406 438
f 454 406 458
f 407 408 459
f 407 459 443
f 408 409 460
f 408 460 459
f 461 460 409
f 461 409 451
f 410 449 411
f 411 462 412
f 449 462 411
f 412 463 413
f 462 463 412
f 413 464 414
f 463 464 413
f 414 465 415
f 464 465 414
f 415 466 416
f 465 466 415
f 467 416 466
f 417 416 467
f 417 468 418
f 467 468 417
f 418 469 419
f 468 469 418
f 469 428 419
f 420 471 470
f 420 427 472
f 472 471 420
f 420 470 422
f 421 473 474
f 422 473 421
f 421 474 423
f 422 470 473
f 423 474 475
f 423 475 424
f 476 425 424
f 476 424 475
f 477 429 425
f 477 425 476
f 428 478 426
f 426 479 427
f 478 479 426
f 472 427 479
f 469 480 428
f 480 478 428
f 481 430 429
f 481 429 477
f 482 431 430
f 482 430 481
f 483 432 431
f 483 431 482
f 484 433 432
f 484 432 483
f 434 433 484
f 485 435 434
f 485 434 484
f 486 441 435
f 487 488 435
f 486 435 488
f 487 435 485
f 436 440 489
f 439 436 490
f 436 489 490
f 491 437 492
f 493 438 437
f 492 437 439
f 493 437 491
f 458 438 493
f 494 439 495
f 439 490 495
f 492 439 494
f 440 441 486
f 440 486 489
f 442 443 496
f 442 496 445
f 443 459 497
f 443 497 496
f 444 445 498
f 444 498 446
f 445 496 499
f 445 499 498
f 446 498 500
f 446 500 447
f 447 500 501
f 447 501 448
f 448 501 502
f 448 502 450
f 449 450 462
f 450 502 503
f 450 503 462
f 451 504 505
f 453 504 451
f 451 505 461
f 506 492 452
f 452 492 494
f 506 452 457
f 452 494 453
f 453 494 504
f 507 454 458
f 508 455 454
f 508 454 507
f 509 456 455
f 509 455 508
f 510 457 456
f 510 456 509
f 511 506 457
f 511 457 510
f 512 458 493
f 507 458 512
f 459 460 513
f 459 513 497
f 514 513 460
f 514 460 461
f 461 505 515
f 461 515 514
f 462 503 463
f 463 516 464
f 503 516 463
f 464 517 465
f 516 517 464
f 465 518 466
f 517 518 465
f 519 466 518
f 467 466 519
f 467 520 468
f 519 520 467
f 468 521 469
f 520 521 468
f 521 480 469
f 470 471 522
f 473 470 523
f 470 522 523
f 472 522 471
f 524 472 479
f 524 522 472
f 474 473 523
f 475 474 525
f 474 523 525
f 476 475 526
f 475 525 527
f 475 527 526
f 477 476 528
f 476 526 528
f 481 477 528
f 480 529 478
f 478 530 479
f 529 530 478
f 530 524 479
f 521 531 480
f 531 529 480
f 483 482 481
f 483 481 532
f 481 528 532
f 484 483 533
f 483 532 533
f 485 484 534
f 484 533 534
f 487 485 534
f 489 486 535
f 488 535 486
f 536 488 487
f 487 534 537
f 537 536 487
f 538 535 488
f 539 540 488
f 538 488 540
f 539 488 536
f 490 489 541
f 489 535 541
f 495 490 542
f 490 541 542
f 543 491 506
f 544 493 491
f 544 491 543
f 491 492 506
f 512 493 544
f 494 495 504
f 504 495 545
f 495 542 545
f 496 497 546
f 496 546 499
f 497 513 547
f 497 547 546
f 498 499 548
f 498 548 500
f 499 546 549
f 499 549 548
f 500 548 550
f 500 550 501
f 501 550 551
f 501 551 502
f 502 551 552
f 502 552 503
f 503 552 516
f 504 545 505
f 505 545 553
f 505 553 515
f 543 506 511
f 554 507 512
f 555 508 507
f 555 507 554
f 556 509 508
f 556 508 555
f 557 510 509
f 557 509 556
f 558 511 510
f 558 510 557
f 559 543 511
f 559 511 558
f 560 512 544
f 554 512 560
f 561 547 513
f 561 513 514
f 514 515 562
f 514 562 561
f 515 553 563
f 515 563 562
f 516 564 517
f 552 564 516
f 517 565 518
f 564 565 517
f 566 518 565
f 519 518 566
f 519 567 520
f 566 567 519
f 520 568 521
f 567 568 520
f 568 531 521
f 524 523 522
f 569 525 523
f 569 523 524
f 530 569 524
f 570 527 525
f 570 525 569
f 571 528 526
f 572 526 527
f 571 526 572
f 572 527 570
f 573 532 528
f 573 528 571
f 531 574 529
f 529 575 530
f 574 575 529
f 575 569 530
f 568 576 531
f 576 574 531
f 577 533 532
f 577 532 573
f 578 534 533
f 578 533 577
f 579 537 534
f 579 534 578
f 541 535 538
f 537 539 536
f 580 581 537
f 537 581 539
f 580 537 579
f 582 538 583
f 538 540 584
f 541 538 582
f 538 584 583
f 585 540 539
f 581 585 539
f 585 584 540
f 542 541 582
f 545 542 586
f 542 582 586
f 587 544 543
f 587 543 559
f 560 544 587
f 545 586 553
f 546 547 588
f 546 588 549
f 589 588 547
f 589 547 561
f 548 549 590
f 548 590 550
f 549 588 591
f 549 591 590
f 550 590 592
f 550 592 551
f 551 592 593
f 551 593 552
f 552 593 564
f 553 586 594
f 553 594 563
f 595 554 560
f 596 555 554
f 596 554 595
f 597 556 555
f 597 555 596
f 598 557 556
f 598 556 597
f 599 558 557
f 599 557 598
f 600 559 558
f 600 558 599
f 601 587 559
f 601 559 600
f 602 560 587
f 595 560 602
f 561 562 603
f 561 603 589
f 562 563 604
f 562 604 603
f 563 594 605
f 563 605 604
f 564 606 565
f 593 606 564
f 607 565 606
f 566 565 607
f 566 608 567
f 607 608 566
f 567 609 568
f 608 609 567
f 609 576 568
f 575 570 569
f 610 572 570
f 610 570 575
f 611 573 571
f 612 571 572
f 611 571 612
f 612 572 610
f 613 577 573
f 613 573 611
f 576 614 574
f 574 610 575
f 614 610 574
f 609 615 576
f 615 614 576
f 613 578 577
f 616 579 578
f 613 617 578
f 616 578 617
f 616 580 579
f 618 619 580
f 616 620 580
f 621 581 580
f 618 580 620
f 621 580 619
f 581 621 585
f 586 582 622
f 582 583 622
f 622 583 623
f 583 584 624
f 583 624 623
f 625 624 584
f 625 584 585
f 621 625 585
f 586 622 594
f 602 587 601
f 626 591 588
f 626 588 589
f 589 603 627
f 589 627 626
f 590 591 628
f 590 628 592
f 629 628 591
f 629 591 626
f 592 628 630
f 592 630 593
f 593 630 606
f 594 622 631
f 594 631 605
f 632 595 602
f 633 596 595
f 633 595 632
f 634 597 596
f 634 596 633
f 635 598 597
f 635 597 634
f 636 599 598
f 636 598 635
f 637 600 599
f 637 599 636
f 638 601 600
f 638 600 637
f 639 602 601
f 639 601 638
f 632 602 639
f 603 604 640
f 603 640 627
f 604 605 641
f 604 641 640
f 605 631 642
f 605 642 641
f 643 606 630
f 607 606 643
f 607 644 608
f 643 644 607
f 608 645 609
f 644 645 608
f 645 615 609
f 614 612 610
f 646 613 611
f 647 611 612
f 646 611 647
f 647 612 614
f 648 617 613
f 648 613 646
f 615 647 614
f 645 649 615
f 649 647 615
f 650 620 616
f 651 616 617
f 650 616 651
f 651 617 648
f 652 618 620
f 653 654 618
f 655 656 618
f 656 619 618
f 653 618 652
f 655 618 654
f 656 657 619
f 619 657 621
f 652 620 650
f 621 657 658
f 621 659 625
f 621 658 659
f 622 623 631
f 631 623 656
f 623 624 658
f 623 658 656
f 659 658 624
f 659 624 625
f 626 627 660
f 626 660 629
f 627 640 661
f 627 661 660
f 662 630 628
f 662 628 629
f 629 660 663
f 629 663 662
f 643 630 662
f 631 656 642
f 633 632 664
f 665 632 639
f 632 665 664
f 664 634 633
f 664 666 634
f 666 635 634
f 666 667 635
f 635 667 668
f 635 668 636
f 636 668 669
f 636 669 637
f 637 669 670
f 637 670 638
f 665 639 638
f 665 638 670
f 640 641 661
f 641 671 672
f 641 672 661
f 642 671 641
f 642 673 671
f 642 656 655
f 642 655 673
f 643 674 644
f 662 674 643
f 644 675 645
f 674 675 644
f 675 649 645
f 676 648 646
f 649 646 647
f 676 646 649
f 677 651 648
f 677 648 676
f 675 676 649
f 678 652 650
f 679 650 651
f 678 650 679
f 679 651 677
f 653 652 678
f 653 680 681
f 653 681 654
f 682 680 653
f 653 678 682
f 654 681 683
f 654 683 655
f 655 683 684
f 655 684 673
f 656 658 657
f 660 685 686
f 660 686 663
f 661 685 660
f 661 672 685
f 662 663 674
f 663 687 688
f 689 687 663
f 663 688 674
f 689 663 686
f 690 664 665
f 691 666 664
f 691 664 690
f 692 665 670
f 690 665 692
f 693 667 666
f 693 666 691
f 694 668 667
f 694 667 693
f 695 669 668
f 695 668 694
f 696 670 669
f 696 669 695
f 692 670 696
f 671 697 698
f 671 698 672
f 673 697 671
f 672 698 699
f 672 699 685
f 673 684 697
f 674 688 675
f 688 676 675
f 688 677 676
f 687 679 677
f 687 677 688
f 689 682 678
f 687 678 679
f 689 678 687
f 682 700 680
f 680 701 702
f 680 702 681
f 700 701 680
f 681 702 703
f 681 703 683
f 689 700 682
f 683 703 704
f 683 704 684
f 684 704 705
f 684 705 697
f 685 699 706
f 685 706 686
f 686 706 707
f 686 707 689
f 689 707 700
f 692 708 690
f 690 708 709
f 710 691 690
f 710 690 709
f 695 690 692
f 693 691 710
f 696 708 692
f 695 692 696
f 695 694 693
f 693 710 694
f 710 711 694
f 694 711 695
f 695 711 696
f 711 708 696
f 697 705 712
f 697 712 698
f 698 712 713
f 698 713 699
f 699 713 714
f 699 714 706
f 700 715 701
f 707 715 700
f 701 716 717
f 701 717 702
f 715 716 701
f 713 702 701
f 713 701 715
f 702 717 718
f 702 718 703
f 713 703 702
f 703 718 719
f 703 719 704
f 713 704 703
f 704 719 720
f 713 705 704
f 704 720 705
f 713 712 705
f 705 720 721
f 705 721 712
f 706 714 722
f 706 722 707
f 707 722 715
f 711 709 708
f 711 710 709
f 712 721 723
f 712 723 713
f 713 723 724
f 713 724 714
f 713 715 722
f 713 722 714
f 714 724 725
f 714 725 722
f 715 726 716
f 722 726 715
f 716 727 728
f 716 728 717
f 726 727 716
f 717 728 729
f 717 729 718
f 718 729 730
f 718 730 719
f 719 730 731
f 719 731 720
f 720 731 732
f 720 732 721
f 721 732 733
f 721 733 723
f 722 725 726
f 723 733 734
f 723 734 724
f 724 734 735
f 724 735 725
f 725 735 736
f 725 736 726
f 726 736 727
f 727 737 738
f 727 738 728
f 736 737 727
f 728 738 739
f 728 739 729
f 729 739 740
f 729 740 730
f 730 740 741
f 730 741 731
f 731 741 742
f 731 742 732
f 732 742 743
f 732 743 733
f 733 743 744
f 733 744 734
f 734 744 745
f 734 745 735
f 735 745 746
f 735 746 736
f 736 746 737
f 737 747 748
f 737 748 738
f 746 747 737
f 738 748 749
f 738 749 739
f 739 749 750
f 739 750 740
f 740 750 751
f 740 751 741
f 741 751 752
f 741 752 742
f 742 752 753
f 742 753 743
f 743 753 754
f 743 754 744
f 744 754 755
f 744 755 745
f 745 755 756
f 745 756 746
f 746 756 747
f 747 757 758
f 747 758 748
f 756 757 747
f 748 758 759
f 748 759 749
f 749 759 760
f 749 760 750
f 750 760 761
f 750 761 751
f 751 761 762
f 751 762 752
f 752 762 763
f 752 763 753
f 753 763 764
f 753 764 754
f 754 764 765
f 754 765 755
f 755 765 766
f 755 766 756
f 756 766 757
f 767 758 757
f 767 757 766
f 759 758 767
f 768 761 759
f 759 767 768
f 762 761 768
f 762 768 769
f 762 769 763
f 769 764 763
f 770 765 764
f 770 764 769
f 770 766 765
f 767 766 770
f 770 768 767
f 770 769 768
