# Generated by Visualization Toolkit
v 0.013152999803423882 -0.02742299996316433 0.011730000376701355
v 0.011978000402450562 -0.02404800057411194 0.01312899962067604
v 0.011837000027298927 -0.027605999261140823 0.013919999822974205
v 0.011281999759376049 -0.030205000191926956 0.013013999909162521
v 0.012284000404179096 -0.025570999830961227 0.010449999943375587
v 0.011997000314295292 -0.03145499899983406 0.011629000306129456
v 0.011636000126600266 -0.028957000002264977 0.009720000438392162
v 0.009948999620974064 -0.027267999947071075 0.015843000262975693
v 0.010017000138759613 -0.02456199936568737 0.01609399914741516
v 0.009850000031292439 -0.02302899956703186 0.01522700022906065
v 0.009619000367820263 -0.02644599974155426 0.01075000036507845
v 0.007890000008046627 -0.023343000560998917 0.012943999841809273
v 0.010572999715805054 -0.03280600160360336 0.01293100044131279
v 0.008639000356197357 -0.03278300166130066 0.01361900009214878
v 0.010123999789357185 -0.03179699927568436 0.010261000134050846
v 0.009014000184834003 -0.03356799855828285 0.011509999632835388
v 0.0066709998063743114 -0.029147999361157417 0.01092899963259697
v 0.007087999954819679 -0.024188999086618423 0.017410999163985252
v 0.0036170000676065683 -0.027264999225735664 0.017142999917268753
v 0.006624999921768904 -0.03206200152635574 0.014171999879181385
v 0.0060339998453855515 -0.029231000691652298 0.015393000096082687
v 0.008496999740600586 -0.022631000727415085 0.015673000365495682
v 0.005890999920666218 -0.025422999635338783 0.011700999923050404
v 0.006539999973028898 -0.022766999900341034 0.013387000188231468
v 0.008066999725997448 -0.03357499837875366 0.01153200026601553
v 0.009042000398039818 -0.031902000308036804 0.010797999799251556
v 0.004887999966740608 -0.028300000354647636 0.01089600007981062
v 0.005317999981343746 -0.03150099888443947 0.011535000056028366
v 0.003942999988794327 -0.02418600022792816 0.01810700073838234
v 0.004383999854326248 -0.029844999313354492 0.01457899995148182
v 0.000901999999769032 -0.025326000526547432 0.02112000063061714
v 0.0025110000278800726 -0.027977000921964645 0.0156230004504323
v -0.0010779999429360032 -0.027651000767946243 0.019175000488758087
v 0.004162000026553869 -0.02131200022995472 0.014654000289738178
v 0.004302999936044216 -0.021890999749302864 0.01628899946808815
v 0.003312000073492527 -0.023886000737547874 0.011315999552607536
v 0.0026499999221414328 -0.02659600041806698 0.010143999941647053
v 0.0024530000519007444 -0.0203000009059906 0.012426000088453293
v 0.0021039999555796385 -0.028192000463604927 0.010041999630630016
v 0.00101500004529953 -0.027758000418543816 0.01297600008547306
v 0.003000000026077032 -0.02180599980056286 0.01691100001335144
v -0.0015180000336840749 -0.02539600059390068 0.02281700074672699
v -0.001988000003620982 -0.023669999092817307 0.022216999903321266
v -0.000881000014487654 -0.01729400083422661 0.016902999952435493
v -0.0040779998525977135 -0.026030000299215317 0.023303000256419182
v -0.006513999775052071 -0.02666899934411049 0.02293499931693077
v -0.011246999725699425 -0.02751000039279461 0.010638000443577766
v -0.0008960000122897327 -0.02733900025486946 0.007023000158369541
v -0.009483999572694302 -0.028542999178171158 0.018376000225543976
v -0.008255000226199627 -0.028630999848246574 0.020302999764680862
v 0.0018269999418407679 -0.019355999305844307 0.014453000389039516
v 0.0018629999831318855 -0.022640999406576157 0.01002500019967556
v 0.0008609999786131084 -0.02794799953699112 0.00865199975669384
v 0.0016039999900385737 -0.017381999641656876 0.00875800009816885
v 0.0018579999450594187 -0.020304000005126 0.00811500009149313
v 0.0017130000051110983 -0.012776999734342098 0.010929999873042107
v 0.00020599999697878957 -0.027816999703645706 0.007410999853163958
v -0.005547000095248222 -0.023300999775528908 0.023691000416874886
v -0.008251000195741653 -0.01895200088620186 0.020509999245405197
v -0.00228299992159009 -0.014538000337779522 0.015062999911606312
v 0.00028899998869746923 -0.011602000333368778 0.01346299983561039
v -0.009138000197708607 -0.026921000331640244 0.01986199989914894
v -0.011885000392794609 -0.02371699921786785 0.011428999714553356
v -0.011575000360608101 -0.027396000921726227 0.012938999570906162
v 0.0008069999748840928 -0.019773999229073524 0.006672999821603298
v 0.0006440000142902136 -0.025299999862909317 0.007462000008672476
v 0.0013119999784976244 -0.015350000001490116 0.007530999835580587
v 0.0008319999906234443 -0.009278999641537666 0.009405000135302544
v -0.007794999983161688 -0.02239600010216236 0.020671000704169273
v -0.01028900034725666 -0.015154000371694565 0.014140999875962734
v -0.010649999603629112 -0.016770999878644943 0.012496000155806541
v -0.002125999890267849 -0.012807999737560749 0.013179999776184559
v -0.011227999813854694 -0.015131999738514423 0.009572000242769718
v -0.009902999736368656 -0.013983000069856644 0.009046999737620354
v -0.0017040000529959798 -0.010812999680638313 0.008542000316083431
v -0.010058999992907047 -0.014240000396966934 0.012035000137984753
f 1 2 3
f 1 3 4
f 1 5 2
f 1 4 6
f 5 1 7
f 6 7 1
f 2 8 3
f 2 9 8
f 10 9 2
f 5 11 2
f 11 12 2
f 2 12 10
f 3 8 4
f 4 13 6
f 14 4 8
f 4 14 13
f 7 11 5
f 7 6 15
f 16 6 13
f 6 16 15
f 11 7 17
f 17 7 15
f 8 9 18
f 19 8 18
f 20 14 8
f 20 8 21
f 21 8 19
f 10 18 9
f 18 10 22
f 12 22 10
f 23 11 17
f 11 23 12
f 24 22 12
f 12 23 24
f 13 14 16
f 16 14 25
f 20 25 14
f 26 17 15
f 16 26 15
f 25 26 16
f 23 17 27
f 25 17 26
f 17 28 27
f 17 25 28
f 29 19 18
f 29 18 22
f 19 30 21
f 19 29 31
f 32 30 19
f 19 31 33
f 32 19 33
f 25 20 28
f 28 20 30
f 21 30 20
f 22 24 34
f 22 34 35
f 29 22 35
f 24 23 36
f 37 36 23
f 37 23 27
f 24 36 38
f 38 34 24
f 39 27 28
f 27 39 37
f 40 28 30
f 28 40 39
f 41 29 35
f 41 31 29
f 40 30 32
f 42 31 43
f 42 33 31
f 43 31 44
f 41 44 31
f 40 32 33
f 33 45 46
f 47 48 33
f 49 33 50
f 46 50 33
f 33 49 47
f 33 42 45
f 40 33 48
f 35 34 51
f 34 38 51
f 41 35 51
f 52 36 37
f 38 36 52
f 37 53 52
f 53 37 39
f 54 38 55
f 55 38 52
f 38 56 51
f 56 38 54
f 53 39 40
f 57 53 40
f 48 57 40
f 44 41 51
f 43 45 42
f 45 43 58
f 44 58 43
f 59 44 60
f 59 58 44
f 61 60 44
f 61 44 51
f 45 58 46
f 46 62 50
f 46 58 62
f 47 63 48
f 47 64 63
f 64 47 49
f 48 63 65
f 48 66 57
f 65 66 48
f 62 49 50
f 63 64 49
f 62 63 49
f 51 56 61
f 52 53 55
f 66 53 57
f 53 66 55
f 55 65 54
f 54 65 67
f 54 67 56
f 66 65 55
f 56 67 68
f 56 68 61
f 62 58 69
f 59 69 58
f 60 70 59
f 63 69 59
f 70 71 59
f 59 71 63
f 72 60 61
f 72 70 60
f 68 72 61
f 63 62 69
f 65 63 67
f 63 71 73
f 67 63 74
f 73 74 63
f 75 67 74
f 75 68 67
f 75 72 68
f 72 75 70
f 70 75 76
f 76 71 70
f 71 76 73
f 73 76 74
f 74 76 75
