# Generated by Visualization Toolkit
v 0.011837000027298927 -0.027605999261140823 -0.013919999822974205
v 0.011978000402450562 -0.02404800057411194 -0.01312899962067604
v 0.013152999803423882 -0.02742299996316433 -0.011730000376701355
v 0.011281999759376049 -0.030205000191926956 -0.013013999909162521
v 0.009948999620974064 -0.027267999947071075 -0.015843000262975693
v 0.010017000138759613 -0.02456199936568737 -0.01609399914741516
v 0.009850000031292439 -0.02302899956703186 -0.01522700022906065
v 0.012284000404179096 -0.025570999830961227 -0.010449999943375587
v 0.009619000367820263 -0.02644599974155426 -0.01075000036507845
v 0.007890000008046627 -0.023343000560998917 -0.012943999841809273
v 0.011997000314295292 -0.03145499899983406 -0.011629000306129456
v 0.011636000126600266 -0.028957000002264977 -0.009720000438392162
v 0.010572999715805054 -0.03280600160360336 -0.01293100044131279
v 0.008639000356197357 -0.03278300166130066 -0.01361900009214878
v 0.007087999954819679 -0.024188999086618423 -0.017410999163985252
v 0.0036170000676065683 -0.027264999225735664 -0.017142999917268753
v 0.006624999921768904 -0.03206200152635574 -0.014171999879181385
v 0.0060339998453855515 -0.029231000691652298 -0.015393000096082687
v 0.008496999740600586 -0.022631000727415085 -0.015673000365495682
v 0.0066709998063743114 -0.029147999361157417 -0.01092899963259697
v 0.005890999920666218 -0.025422999635338783 -0.011700999923050404
v 0.006539999973028898 -0.022766999900341034 -0.013387000188231468
v 0.010123999789357185 -0.03179699927568436 -0.010261000134050846
v 0.009014000184834003 -0.03356799855828285 -0.011509999632835388
v 0.008066999725997448 -0.03357499837875366 -0.01153200026601553
v 0.003942999988794327 -0.02418600022792816 -0.01810700073838234
v 0.004383999854326248 -0.029844999313354492 -0.01457899995148182
v 0.000901999999769032 -0.025326000526547432 -0.02112000063061714
v 0.0025110000278800726 -0.027977000921964645 -0.0156230004504323
v -0.0010779999429360032 -0.027651000767946243 -0.019175000488758087
v 0.005317999981343746 -0.03150099888443947 -0.011535000056028366
v 0.004162000026553869 -0.02131200022995472 -0.014654000289738178
v 0.004302999936044216 -0.021890999749302864 -0.01628899946808815
v 0.004887999966740608 -0.028300000354647636 -0.01089600007981062
v 0.009042000398039818 -0.031902000308036804 -0.010797999799251556
v 0.003312000073492527 -0.023886000737547874 -0.011315999552607536
v 0.0026499999221414328 -0.02659600041806698 -0.010143999941647053
v 0.0024530000519007444 -0.0203000009059906 -0.012426000088453293
v 0.003000000026077032 -0.02180599980056286 -0.01691100001335144
v 0.00101500004529953 -0.027758000418543816 -0.01297600008547306
v -0.001988000003620982 -0.023669999092817307 -0.022216999903321266
v -0.0015180000336840749 -0.02539600059390068 -0.02281700074672699
v -0.000881000014487654 -0.01729400083422661 -0.016902999952435493
v -0.006513999775052071 -0.02666899934411049 -0.02293499931693077
v -0.0040779998525977135 -0.026030000299215317 -0.023303000256419182
v -0.0008960000122897327 -0.02733900025486946 -0.007023000158369541
v -0.011246999725699425 -0.02751000039279461 -0.010638000443577766
v -0.008255000226199627 -0.028630999848246574 -0.020302999764680862
v -0.009483999572694302 -0.028542999178171158 -0.018376000225543976
v 0.0021039999555796385 -0.028192000463604927 -0.010041999630630016
v 0.0018269999418407679 -0.019355999305844307 -0.014453000389039516
v 0.0018629999831318855 -0.022640999406576157 -0.01002500019967556
v 0.0008609999786131084 -0.02794799953699112 -0.00865199975669384
v 0.0018579999450594187 -0.020304000005126 -0.00811500009149313
v 0.0016039999900385737 -0.017381999641656876 -0.00875800009816885
v 0.0017130000051110983 -0.012776999734342098 -0.010929999873042107
v 0.00020599999697878957 -0.027816999703645706 -0.007410999853163958
v -0.005547000095248222 -0.023300999775528908 -0.023691000416874886
v -0.00228299992159009 -0.014538000337779522 -0.015062999911606312
v -0.008251000195741653 -0.01895200088620186 -0.020509999245405197
v 0.00028899998869746923 -0.011602000333368778 -0.01346299983561039
v -0.009138000197708607 -0.026921000331640244 -0.01986199989914894
v 0.0008069999748840928 -0.019773999229073524 -0.006672999821603298
v -0.011885000392794609 -0.02371699921786785 -0.011428999714553356
v 0.0006440000142902136 -0.025299999862909317 -0.007462000008672476
v -0.011575000360608101 -0.027396000921726227 -0.012938999570906162
v 0.0013119999784976244 -0.015350000001490116 -0.007530999835580587
v 0.0008319999906234443 -0.009278999641537666 -0.009405000135302544
v -0.007794999983161688 -0.02239600010216236 -0.020671000704169273
v -0.002125999890267849 -0.012807999737560749 -0.013179999776184559
v -0.01028900034725666 -0.015154000371694565 -0.014140999875962734
v -0.010649999603629112 -0.016770999878644943 -0.012496000155806541
v -0.011227999813854694 -0.015131999738514423 -0.009572000242769718
v -0.009902999736368656 -0.013983000069856644 -0.009046999737620354
v -0.0017040000529959798 -0.010812999680638313 -0.008542000316083431
v -0.010058999992907047 -0.014240000396966934 -0.012035000137984753
f 1 2 3
f 4 1 3
f 1 5 2
f 4 5 1
f 5 6 2
f 2 6 7
f 2 8 3
f 2 9 8
f 2 10 9
f 7 10 2
f 11 4 3
f 12 3 8
f 3 12 11
f 11 13 4
f 5 4 14
f 13 14 4
f 15 6 5
f 15 5 16
f 5 14 17
f 18 5 17
f 16 5 18
f 6 15 7
f 19 7 15
f 7 19 10
f 8 9 12
f 20 9 21
f 20 12 9
f 10 21 9
f 10 19 22
f 22 21 10
f 23 11 12
f 13 11 24
f 23 24 11
f 23 12 20
f 24 14 13
f 25 14 24
f 14 25 17
f 15 16 26
f 19 15 26
f 18 27 16
f 28 26 16
f 16 27 29
f 30 28 16
f 30 16 29
f 31 17 25
f 27 17 31
f 17 27 18
f 32 22 19
f 33 32 19
f 33 19 26
f 34 20 21
f 23 20 35
f 35 20 25
f 34 31 20
f 31 25 20
f 36 21 22
f 21 36 37
f 34 21 37
f 38 36 22
f 22 32 38
f 23 35 24
f 24 35 25
f 33 26 39
f 26 28 39
f 29 27 40
f 27 31 40
f 41 28 42
f 28 30 42
f 43 28 41
f 28 43 39
f 30 29 40
f 44 45 30
f 30 46 47
f 48 30 49
f 30 48 44
f 47 49 30
f 45 42 30
f 46 30 40
f 31 34 50
f 50 40 31
f 51 32 33
f 51 38 32
f 51 33 39
f 37 50 34
f 37 36 52
f 52 36 38
f 52 53 37
f 50 37 53
f 54 38 55
f 52 38 54
f 51 56 38
f 55 38 56
f 51 39 43
f 40 53 57
f 40 57 46
f 40 50 53
f 42 45 41
f 58 41 45
f 41 58 43
f 59 43 60
f 43 58 60
f 43 59 61
f 51 43 61
f 48 62 44
f 62 58 44
f 44 58 45
f 63 64 46
f 57 65 46
f 46 65 63
f 46 64 47
f 64 66 47
f 49 47 66
f 48 49 62
f 49 66 64
f 49 64 62
f 61 56 51
f 54 53 52
f 57 53 65
f 54 65 53
f 54 63 65
f 55 63 54
f 67 63 55
f 56 67 55
f 68 67 56
f 61 68 56
f 69 58 62
f 58 69 60
f 61 59 70
f 59 71 70
f 60 71 59
f 60 69 64
f 60 72 71
f 64 72 60
f 61 70 68
f 69 62 64
f 67 64 63
f 73 72 64
f 74 64 67
f 64 74 73
f 74 67 75
f 67 68 75
f 68 70 75
f 71 75 70
f 76 75 71
f 71 72 76
f 73 76 72
f 74 76 73
f 75 76 74
