# Generated by Visualization Toolkit
v 0.0017989999614655972 -0.18509000539779663 -0.007098999805748463
v -0.0033499998971819878 -0.22861100733280182 -0.009503000415861607
v 0.010027999989688396 -0.2374110072851181 -0.0023640000727027655
v 0.009248999878764153 -0.2153480052947998 -0.002382999984547496
v -0.005688999779522419 -0.17959199845790863 -0.0058200000785291195
v 0.006976000033318996 -0.14707200229167938 -0.007765000220388174
v 0.011714000254869461 -0.1769769936800003 0.0005779999773949385
v 0.013845999725162983 -0.1436299979686737 -0.003777999896556139
v -0.00381199992261827 -0.22787299752235413 0.00749199977144599
v -0.006928000133484602 -0.20598700642585754 -0.004341000225394964
v 0.006233000196516514 -0.24893100559711456 -0.010033000260591507
v -0.0008159999852068722 -0.24948200583457947 -0.014295999892055988
v -0.0024939998984336853 -0.24515199661254883 0.003751999931409955
v 0.009731999598443508 -0.24709300696849823 -0.005444000009447336
v 0.011497000232338905 -0.24506600201129913 0.0017269999952986836
v 0.010274999774992466 -0.21590399742126465 0.001104000024497509
v -0.005907000042498112 -0.2047490030527115 0.004532000049948692
v -0.003848999971523881 -0.1558620035648346 -0.005200999788939953
v -0.006372000090777874 -0.1560879945755005 0.0008459999808110297
v 0.0029819998890161514 -0.08728499710559845 -0.008852999657392502
v -0.002587999915704131 -0.17495599389076233 0.007706000003963709
v 0.004616999998688698 -0.12393499910831451 0.007459000218659639
v 0.015870999544858932 -0.0990070030093193 -0.001285000005736947
v -0.0024019998963922262 -0.23657600581645966 0.008759000338613987
v 0.0001990000018849969 -0.23680900037288666 0.010267999954521656
v 0.009724999777972698 -0.2659299969673157 -0.01782199926674366
v 0.011549999937415123 -0.2660770118236542 -0.013020999729633331
v 0.0023849999997764826 -0.2625190019607544 -0.020880000665783882
v -0.00026699999580159783 -0.2633259892463684 -0.01913299970328808
v 0.00013699999544769526 -0.2617279887199402 0.013962999917566776
v 0.00028899998869746923 -0.2609519958496094 0.015838999301195145
v -0.0010010000551119447 -0.26623401045799255 -0.005903999786823988
v 0.0013559999642893672 -0.2651360034942627 0.0018240000354126096
v -0.00029200001154094934 -0.25310200452804565 0.012872000224888325
v 0.015402000397443771 -0.2725229859352112 -0.0005230000242590904
v 0.01372000016272068 -0.26694101095199585 0.00443200021982193
v 0.0005929999751970172 -0.24504299461841583 0.011533999815583229
v 0.0031139999628067017 -0.26239100098609924 0.01733499951660633
v 0.011831000447273254 -0.26081201434135437 0.008921000175178051
v 0.014078999869525433 -0.26949501037597656 -0.004236999899148941
v 0.01498199999332428 -0.27281901240348816 -0.0028150000143796206
v -0.004666000138968229 -0.15593400597572327 0.004891999997198582
v -0.0024709999561309814 -0.09808100014925003 0.0004330000083427876
v -0.002713999943807721 -0.12748600542545319 0.004166000057011843
v 0.009014000184834003 -0.036122001707553864 -0.010723999701440334
v 0.017710000276565552 -0.03192700073122978 -0.006054999772459269
v 0.00380500010214746 -0.03634899854660034 -0.009731999598443508
v -0.0014199999859556556 -0.07284600287675858 -0.0030010000336915255
v 0.01335499994456768 -0.08249100297689438 0.003955999854952097
v 0.004767999984323978 -0.09747199714183807 0.008317999541759491
v 0.010664000175893307 -0.2710599899291992 -0.02307100035250187
v 0.012476000003516674 -0.2718220055103302 -0.02164500020444393
v 0.01183599978685379 -0.26951199769973755 -0.017285000532865524
v 0.012171000242233276 -0.2735219895839691 -0.008143000304698944
v 0.011815999634563923 -0.2722190022468567 -0.01195599976927042
v 0.006713000126183033 -0.27114999294281006 -0.023984000086784363
v 0.001164000015705824 -0.2801609933376312 -0.015096000395715237
v 0.005133000202476978 -0.2782920002937317 -0.02250399999320507
v -0.0009590000263415277 -0.2713159918785095 -0.008967000059783459
v -0.0007849999819882214 -0.2760240137577057 -0.01046799961477518
v 0.0008510000188834965 -0.27407100796699524 0.019294999539852142
v 0.0016339999856427312 -0.2690959870815277 0.011017999611794949
v 0.0006689999718219042 -0.2659339904785156 0.01860000006854534
v 0.0031220000237226486 -0.269665002822876 -0.003083999967202544
v 0.006403000093996525 -0.2708609998226166 0.0006629999843426049
v 0.016005000099539757 -0.27537500858306885 -0.0007220000261440873
v 0.014605999924242496 -0.2737100124359131 0.0016400000313296914
v 0.01307000033557415 -0.27134498953819275 0.004356999881565571
v 0.012745999731123447 -0.27051299810409546 0.008464000187814236
v 0.01297600008547306 -0.27031099796295166 0.012485000304877758
v 0.011946000158786774 -0.27374500036239624 0.018101999536156654
v 0.003102000104263425 -0.2706319987773895 0.023725999519228935
v 0.013531000353395939 -0.27393999695777893 -0.004834999796003103
v 0.016200000420212746 -0.2759059965610504 -0.003073000116273761
v -0.0014049999881535769 -0.07658299803733826 0.0009250000002793968
v 0.011978000402450562 -0.007400999777019024 -0.018061000853776932
v 0.0040790000930428505 -0.020976999774575233 -0.01295700017362833
v 0.016363000497221947 -0.002449000021442771 -0.017091000452637672
v 0.011787000112235546 -0.059390999376773834 0.008310999721288681
v 0.020076999440789223 -0.022982999682426453 0.0033360000234097242
v 0.022244999185204506 -0.008154000155627728 -0.0028550000861287117
v 0.023145999759435654 -0.0029120000544935465 -0.010358000174164772
v 0.0006300000241026282 -0.021321000531315804 -0.011258999817073345
v -0.0015150000108405948 -0.03609500080347061 -0.0032770000398159027
v -0.0016720000421628356 -0.04411900043487549 -0.0030789999291300774
v -0.0014819999923929572 -0.0500670000910759 -0.003089000005275011
v 0.008023999631404877 -0.0451820008456707 0.00939400028437376
v -0.00037299998803064227 -0.05431799963116646 0.0023870000150054693
v 0.015305000357329845 -0.2770079970359802 -0.02159699983894825
v 0.01295199990272522 -0.2763499915599823 -0.023531999439001083
v 0.014031999744474888 -0.27397701144218445 -0.02026199921965599
v 0.012388999573886395 -0.2747350037097931 -0.013167999684810638
v 0.01690799929201603 -0.27842798829078674 -0.005071999970823526
v 0.010552000254392624 -0.2799740135669708 -0.02428399957716465
v 0.003837000112980604 -0.2877109944820404 -0.011597000062465668
v 0.001474000047892332 -0.2811479866504669 -0.010626000352203846
v 0.005303999874740839 -0.289341002702713 -0.011676999740302563
v 0.010664000175893307 -0.28693899512290955 -0.02026600018143654
v 0.002202000003308058 -0.2721239924430847 -0.006591999903321266
v 0.006932999938726425 -0.2740580141544342 -0.0056409998796880245
v 0.003467000089585781 -0.2769779860973358 -0.007734000217169523
v 0.0019229999743402004 -0.2773570120334625 0.014587000012397766
v 0.002584999892860651 -0.2721010148525238 0.012734999880194664
v 0.0010000000474974513 -0.2761090099811554 0.030264999717473984
v 0.00015500000154133886 -0.27690601348876953 0.021410999819636345
v 0.010374999605119228 -0.27506300806999207 0.0022169998846948147
v 0.00903400033712387 -0.27679601311683655 0.007788000162690878
v 0.004867999814450741 -0.27484700083732605 0.011474000290036201
v 0.0061240000650286674 -0.2708609998226166 -0.0018619999755173922
v 0.009920000098645687 -0.27397599816322327 -0.000838999985717237
v 0.00980400014668703 -0.2745720148086548 0.0006590000120922923
v 0.01546700019389391 -0.2776859998703003 0.0027809999883174896
v 0.01896899938583374 -0.27908599376678467 -0.0008210000232793391
v 0.011958999559283257 -0.2756989896297455 0.004259999841451645
v 0.010374000295996666 -0.276636004447937 0.007207000162452459
v 0.01043500006198883 -0.275613009929657 0.00930000003427267
v 0.013253999873995781 -0.27382001280784607 0.015273000113666058
v 0.011897999793291092 -0.27569401264190674 0.012846999801695347
v 0.014688000082969666 -0.27685800194740295 0.01664300076663494
v 0.006945000030100346 -0.2779340147972107 0.031957998871803284
v 0.012258999980986118 -0.2792209982872009 0.023197000846266747
v 0.015259999781847 -0.27950799465179443 0.018105000257492065
v 0.009333999827504158 -0.27953100204467773 0.030693000182509422
v 0.003215000033378601 -0.2764970064163208 0.031543001532554626
v 0.012191000394523144 0.008936000056564808 -0.018523000180721283
v 0.00010900000052060932 -0.0012839999981224537 -0.018411999568343163
v 0.008603000082075596 0.007031000219285488 -0.01984100043773651
v -0.00042600001324899495 -0.011691000312566757 -0.01511599961668253
v 0.013857999816536903 0.01027000043541193 -0.016186000779271126
v 0.022406000643968582 0.0017269999952986836 -0.011331000365316868
v 0.02121400088071823 0.004869000054895878 -0.011971999891102314
v 0.019328000023961067 -0.02331800013780594 0.006453999783843756
v 0.027532000094652176 -0.007961999624967575 0.008967000059783459
v 0.024582000449299812 -0.014348999597132206 0.005024999845772982
v 0.024243999272584915 -0.014498000033199787 0.0031059999018907547
v 0.022760000079870224 0.0021840000990778208 -0.0031500000040978193
v 0.02843400090932846 -0.0018029999919235706 0.0003330000035930425
v 0.027525000274181366 -0.010095000267028809 0.002283999929204583
v 0.021859999746084213 0.0019509999547153711 -0.00633700005710125
v -0.003111999947577715 -0.015706000849604607 -0.00888300035148859
v -0.0036899999249726534 -0.02728400006890297 0.0014260000316426158
v -0.002194999950006604 -0.035753000527620316 0.00152299995534122
v 0.0014959999825805426 -0.036511000245809555 0.007199000101536512
v 0.0067460001446306705 -0.03493800014257431 0.010173999704420567
v 0.017909999936819077 -0.27726998925209045 -0.02090200036764145
v 0.025638999417424202 -0.2871370017528534 -0.01739099994301796
v 0.01704300008714199 -0.2836019992828369 -0.020618999376893044
v 0.01584699936211109 -0.2847500145435333 -0.022096000611782074
v 0.01507600024342537 -0.2750000059604645 -0.020430000498890877
v 0.015838000923395157 -0.27532199025154114 -0.019478999078273773
v 0.02285899966955185 -0.277334988117218 -0.01611199975013733
v 0.019412999972701073 -0.2774670124053955 -0.008329999633133411
v 0.020431000739336014 -0.27696600556373596 -0.01908300071954727
v 0.016870999708771706 -0.27577701210975647 -0.019625000655651093
v 0.01952899992465973 -0.27970901131629944 -0.004248000215739012
v 0.01360199972987175 -0.2857449948787689 -0.02209700085222721
v 0.004666999913752079 -0.2836880087852478 -0.004538999870419502
v 0.0059830001555383205 -0.2904140055179596 -0.008810999803245068
v 0.009290999732911587 -0.29247498512268066 -0.008391999639570713
v 0.016133999451994896 -0.2877349853515625 -0.020041000097990036
v 0.01909800060093403 -0.2934660017490387 -0.014566999860107899
v 0.019650999456644058 -0.29209399223327637 -0.01626800000667572
v 0.016165999695658684 -0.2939800024032593 -0.013137999922037125
v 0.006889000069350004 -0.27210700511932373 -0.004133000038564205
v 0.007296000141650438 -0.27528899908065796 -0.005034999921917915
v 0.007728000171482563 -0.2781429886817932 -0.002142000012099743
v 0.004840000066906214 -0.2819649875164032 -0.004207000136375427
v 0.005384999793022871 -0.277321994304657 0.01170899998396635
v 0.004145999904721975 -0.283394992351532 0.006312999874353409
v 0.001142999972216785 -0.2797060012817383 0.03162200003862381
v 0.001032999949529767 -0.28365498781204224 0.03129899874329567
v 0.0026910000015050173 -0.28555700182914734 0.01979300007224083
v 0.002266000024974346 -0.2843469977378845 0.01217000000178814
v 0.0057310000993311405 -0.2818160057067871 -0.000291000003926456
v 0.007449000142514706 -0.27948498725891113 0.006297999992966652
v 0.008333999663591385 -0.27822598814964294 0.00838600005954504
v 0.007652999833226204 -0.27738600969314575 0.00913000013679266
v 0.012474000453948975 -0.2767390012741089 0.0045380000956356525
v 0.019231000915169716 -0.2818169891834259 0.006548999808728695
v 0.015964999794960022 -0.2801060080528259 0.009488999843597412
v 0.02159699983894825 -0.28171899914741516 -0.0037360000424087048
v 0.021801000460982323 -0.2853600084781647 0.0036150000523775816
v 0.010890999808907509 -0.2766909897327423 0.009801999665796757
v 0.01473699975758791 -0.27759799361228943 0.014783999882638454
v 0.01916700042784214 -0.28215500712394714 0.011339999735355377
v 0.021741999313235283 -0.2856549918651581 0.0155239999294281
v 0.021020999178290367 -0.285288006067276 0.01795800030231476
v 0.02046000026166439 -0.28505998849868774 0.01845400035381317
v 0.018223000690340996 -0.2837370038032532 0.018828000873327255
v 0.0026519999373704195 -0.2796129882335663 0.032735999673604965
v 0.006519999820739031 -0.28183498978614807 0.032712001353502274
v 0.009095000103116035 -0.2868860065937042 0.029146000742912292
v 0.013015000149607658 -0.28158000111579895 0.02065199986100197
v 0.011359999887645245 -0.2845520079135895 0.022818999364972115
v 0.006918999832123518 0.008771000429987907 -0.01846799999475479
v 0.010002999566495419 0.01090100035071373 -0.01745700091123581
v 0.003163000103086233 0.004879999905824661 -0.01923299953341484
v -0.0007130000158213079 0.003938000183552504 -0.01751299947500229
v -0.004892999771982431 0.002727000042796135 -0.013054000213742256
v -0.00659599993377924 -0.008876999840140343 -0.010521999560296535
v 0.011637000367045403 0.0124719999730587 -0.016032999381422997
v 0.016766000539064407 0.011479999870061874 -0.011700999923050404
v 0.012435000389814377 0.013504000380635262 -0.013856999576091766
v 0.020628999918699265 0.007577999960631132 -0.010247999802231789
v 0.00889899954199791 -0.019277000799775124 0.013908999972045422
v 0.016398999840021133 -0.007600000128149986 0.01758600026369095
v 0.01897599920630455 -0.004730000160634518 0.018703000620007515
v 0.02150600031018257 0.002713999943807721 0.0171549990773201
v 0.02931400015950203 -0.005276000127196312 0.006149000022560358
v 0.027365999296307564 -0.0020800000056624413 0.008812000043690205
v 0.019122999161481857 0.00892999954521656 -0.006955000106245279
v 0.024212000891566277 0.0050650001503527164 -0.00019099999917671084
v 0.027667999267578125 0.0004980000085197389 0.00014800000644754618
v 0.02928999997675419 0.00006199999916134402 0.0031210000161081553
v -0.006442000158131123 -0.013491000048816204 0.004023000132292509
v -0.004813000094145536 -0.017875000834465027 0.0038499999791383743
v -0.005549999885261059 -0.015186999924480915 0.008004000410437584
v -0.00042799999937415123 -0.02034199982881546 0.01244600024074316
v 0.0013989999424666166 -0.02812799997627735 0.009554999880492687
v 0.005578000098466873 -0.020150000229477882 0.014406000263988972
v 0.0024610001128166914 -0.02024500072002411 0.01406100019812584
v 0.015917999669909477 -0.2754890024662018 -0.02006400004029274
v 0.025039000436663628 -0.27980899810791016 -0.017812000587582588
v 0.0263030007481575 -0.28453201055526733 -0.017472999170422554
v 0.02631000056862831 -0.2882469892501831 -0.014352000318467617
v 0.02437499910593033 -0.29075101017951965 -0.014655999839305878
v 0.023799000307917595 -0.2894519865512848 -0.01705300062894821
v 0.025603000074625015 -0.2795009911060333 -0.015251999720931053
v 0.02423899993300438 -0.27981698513031006 -0.009442999958992004
v 0.005280000157654285 -0.28493601083755493 -0.0011500000255182385
v 0.009197000414133072 -0.29295799136161804 -0.000045000000682193786
v 0.007124000228941441 -0.29017698764801025 -0.006122000049799681
v 0.009455000050365925 -0.29301100969314575 -0.005979999899864197
v 0.021530000492930412 -0.292589008808136 -0.01485500019043684
v 0.02164600044488907 -0.2931100130081177 -0.012257999740540981
v 0.019114000722765923 -0.29417699575424194 -0.012346000410616398
v 0.00572599982842803 -0.27930501103401184 0.009081999771296978
v 0.004404999781399965 -0.28981998562812805 0.006056000012904406
v 0.002265000017359853 -0.28390100598335266 0.03227800130844116
v 0.0028780000284314156 -0.28860199451446533 0.030602000653743744
v 0.004784999880939722 -0.28844499588012695 0.018831999972462654
v 0.003484999993816018 -0.287337988615036 0.017438000068068504
v 0.002901999978348613 -0.28741100430488586 0.011687000282108784
v 0.020476000383496284 -0.28434398770332336 0.006612999830394983
v 0.022262999787926674 -0.28965699672698975 -0.004170000087469816
v 0.026453999802470207 -0.2824540138244629 -0.01056199986487627
v 0.020222000777721405 -0.29019200801849365 0.006194999907165766
v 0.02091600000858307 -0.28730300068855286 0.00658900011330843
v 0.021709999069571495 -0.29314500093460083 0.016036000102758408
v 0.021616000682115555 -0.2890399992465973 0.01801300048828125
v 0.020452000200748444 -0.2886179983615875 0.0190069992095232
v 0.012994999997317791 -0.28431999683380127 0.020538000389933586
v 0.0043390002101659775 -0.2838680148124695 0.03265799954533577
v 0.005998999811708927 -0.2893179953098297 0.030616000294685364
v 0.00381499994546175 -0.2874610126018524 0.031619999557733536
v 0.007864000275731087 -0.2891539931297302 0.028846999630331993
v 0.009456999599933624 -0.289588987827301 0.022461000829935074
v 0.004255000036209822 0.007757000159472227 -0.018024999648332596
v 0.0005089999758638442 0.011660999618470669 -0.009347000159323215
v -0.008954999968409538 0.011026999913156033 -0.0006569999968633056
v -0.005171999800950289 0.014309000223875046 -0.001820000004954636
v -0.011692999862134457 0.007329000160098076 0.0010000000474974513
v -0.012896999716758728 0.0012910000514239073 0.0008730000117793679
v -0.011109000071883202 -0.004741999786347151 0.0005959999980404973
v 0.01612200029194355 0.01243599969893694 -0.00930000003427267
v 0.00890900008380413 0.015048000030219555 -0.006787999998778105
v 0.0041069998405873775 0.014770999550819397 -0.007825000211596489
v 0.014797000214457512 0.012953000143170357 -0.007966999895870686
v 0.0043669999577105045 -0.013783000409603119 0.01917400024831295
v 0.007792000193148851 -0.012814000248908997 0.01918799988925457
v 0.01593399979174137 -0.007348999846726656 0.02091600000858307
v 0.015211000107228756 -0.004064000211656094 0.02319199964404106
v 0.022098999470472336 0.006928000133484602 0.014494000002741814
v 0.013144000433385372 -0.00009899999713525176 0.02471099980175495
v 0.014081000350415707 0.0064559997990727425 0.022135000675916672
v 0.01942100003361702 0.014147999696433544 0.006816999986767769
v 0.0193060003221035 0.012915000319480896 0.00016399999731220305
v 0.01794400066137314 0.011296999640762806 -0.006167999934405088
v 0.028334999457001686 0.0017460000235587358 0.0019099999917671084
v -0.012659000232815742 -0.0059540001675486565 0.005477000027894974
v -0.004234999883919954 -0.012594999745488167 0.019625000655651093
v -0.0015920000150799751 -0.017355000600218773 0.01440299954265356
v -0.010267999954521656 -0.010054999962449074 0.012257000431418419
v 0.001120000029914081 -0.01590000092983246 0.017775999382138252
v 0.026844000443816185 -0.28208398818969727 -0.014627999626100063
v 0.02706499956548214 -0.2855919897556305 -0.014751999638974667
v 0.026083000004291534 -0.28867700695991516 -0.010292000137269497
v 0.008310999721288681 -0.29472699761390686 0.006221999879926443
v 0.014581000432372093 -0.2941350042819977 0.0009539999882690609
v 0.018792999908328056 -0.2929939925670624 -0.0053170002065598965
v 0.004036999773234129 -0.29392099380493164 0.00929300021380186
v 0.005038999952375889 -0.28967800736427307 0.027915000915527344
v 0.004858999978750944 -0.28925999999046326 0.030719000846147537
v 0.00699299992993474 -0.289561003446579 0.02049800008535385
v 0.0043299999088048935 -0.2881909906864166 0.01750599965453148
v 0.005216000135987997 -0.29071998596191406 0.015776000916957855
v 0.004424000158905983 -0.2952220141887665 0.011857000179588795
v 0.02696700021624565 -0.285768985748291 -0.010540000163018703
v 0.016186999157071114 -0.29464998841285706 0.004532999824732542
v 0.019960999488830566 -0.2966040074825287 0.015549999661743641
v 0.021013999357819557 -0.29308798909187317 0.01806900091469288
v 0.019276000559329987 -0.2963950037956238 0.017619000747799873
v 0.017588000744581223 -0.2950100004673004 0.01872899942100048
v 0.011777999810874462 -0.29079800844192505 0.019293999299407005
v 0.010205999948084354 -0.28995299339294434 0.020029999315738678
v 0.006763999816030264 -0.2897860109806061 0.028426000848412514
v 0.009236999787390232 -0.29001399874687195 0.020951999351382256
v -0.009855999611318111 0.010755999945104122 0.007935999892652035
v 0.0034749999176710844 0.017204999923706055 -0.0042409999296069145
v 0.002345999935641885 0.018271999433636665 -0.0001880000054370612
v -0.002876000013202429 0.013174000196158886 0.015289000235497952
v -0.013345999643206596 0.0037400000728666782 0.003450999967753887
v -0.013819999992847443 0.0003229999856557697 0.005520000122487545
v 0.008346999995410442 0.017402999103069305 -0.00343300006352365
v -0.0001630000042496249 -0.012817000038921833 0.02222999930381775
v 0.003911999985575676 -0.012594999745488167 0.023284999653697014
v 0.00824700016528368 -0.011288999579846859 0.02366900071501732
v 0.009227000176906586 -0.007323999889194965 0.02502099983394146
v 0.010703000240027905 0.013751000165939331 0.017165999859571457
v 0.004304999951273203 0.0005910000181756914 0.02576100081205368
v 0.008803999982774258 0.008128000423312187 0.02260199934244156
v 0.010118000209331512 0.018101999536156654 0.008023999631404877
v -0.012126999907195568 -0.0015450000064447522 0.013377999886870384
v -0.0011790000135079026 -0.010081999935209751 0.02353600040078163
v -0.007660999894142151 -0.0006329999887384474 0.01990099996328354
v -0.0019259999971836805 -0.005884999874979258 0.02429400011897087
v 0.007751000113785267 -0.2980259954929352 0.011265000328421593
v 0.013706999830901623 -0.2959049940109253 0.0062500000931322575
v 0.004848000127822161 -0.29613998532295227 0.011309999972581863
v 0.007930000312626362 -0.29015499353408813 0.017992999404668808
v 0.00798300001770258 -0.29823899269104004 0.013864999637007713
v 0.013712000101804733 -0.2993820011615753 0.016013000160455704
v 0.010487999767065048 -0.2915480136871338 0.018796000629663467
v 0.017115000635385513 -0.29900699853897095 0.014595000073313713
v 0.013969000428915024 -0.29962000250816345 0.013776999898254871
v 0.016791999340057373 -0.2986699938774109 0.01686899922788143
v -0.013005999848246574 0.003894000081345439 0.00810300000011921
v -0.004184999968856573 0.006219000089913607 0.0203000009059906
v 0.0018309999722987413 0.008462999947369099 0.022092999890446663
v 0.00279999990016222 -0.009569000452756882 0.024918999522924423
f 3 2 1
f 4 3 1
f 6 1 5
f 5 1 2
f 4 1 7
f 7 1 8
f 6 8 1
f 10 2 9
f 2 3 11
f 11 12 2
f 2 13 9
f 13 2 12
f 2 10 5
f 3 15 14
f 3 14 11
f 3 4 15
f 4 7 16
f 15 4 16
f 5 10 17
f 5 19 18
f 6 5 18
f 5 17 19
f 20 6 18
f 8 6 20
f 7 21 16
f 8 21 7
f 21 8 22
f 23 22 8
f 23 8 20
f 17 9 21
f 13 24 9
f 17 10 9
f 25 9 24
f 21 9 25
f 27 26 11
f 27 11 14
f 28 12 11
f 28 11 26
f 12 29 13
f 28 29 12
f 31 13 30
f 13 29 32
f 33 13 32
f 13 33 30
f 24 13 34
f 13 31 34
f 27 14 15
f 25 15 21
f 36 35 15
f 21 15 16
f 38 15 37
f 15 38 39
f 37 15 25
f 15 39 36
f 41 40 15
f 41 15 35
f 15 40 27
f 42 19 17
f 21 42 17
f 18 19 20
f 43 20 19
f 19 42 44
f 43 19 44
f 46 20 45
f 20 47 45
f 48 47 20
f 20 43 48
f 20 46 23
f 42 21 44
f 44 21 22
f 50 22 49
f 22 23 49
f 44 22 50
f 49 23 46
f 25 24 37
f 24 34 37
f 26 51 28
f 51 26 52
f 53 52 26
f 26 27 53
f 54 27 40
f 27 54 55
f 27 55 53
f 29 28 56
f 28 51 56
f 58 57 29
f 29 56 58
f 29 59 32
f 60 29 57
f 29 60 59
f 30 62 61
f 30 33 62
f 30 63 31
f 61 63 30
f 31 63 38
f 31 38 34
f 33 32 64
f 59 64 32
f 64 65 33
f 62 33 65
f 38 37 34
f 67 66 35
f 35 36 68
f 35 68 67
f 66 41 35
f 36 39 69
f 69 68 36
f 38 70 39
f 70 38 71
f 38 72 71
f 38 63 72
f 39 70 69
f 40 41 73
f 54 40 73
f 74 41 66
f 73 41 74
f 50 75 43
f 75 48 43
f 43 44 50
f 77 76 45
f 47 77 45
f 46 45 76
f 76 78 46
f 46 79 49
f 46 80 79
f 81 80 46
f 46 82 81
f 46 78 82
f 83 77 47
f 84 83 47
f 84 47 85
f 47 86 85
f 86 47 48
f 48 75 86
f 50 49 79
f 88 50 87
f 88 75 50
f 50 79 87
f 90 51 89
f 90 56 51
f 51 52 89
f 89 52 91
f 52 53 91
f 92 91 53
f 55 92 53
f 54 73 93
f 54 92 55
f 92 54 93
f 58 56 94
f 90 94 56
f 57 58 95
f 60 57 96
f 96 57 95
f 58 98 97
f 94 98 58
f 58 97 95
f 99 59 60
f 64 59 99
f 100 99 60
f 101 100 60
f 96 101 60
f 61 103 102
f 61 62 103
f 61 104 63
f 104 61 105
f 102 105 61
f 106 62 65
f 62 106 107
f 62 107 108
f 108 103 62
f 63 104 72
f 99 109 64
f 109 65 64
f 65 109 110
f 65 110 111
f 65 111 106
f 66 67 112
f 66 112 113
f 74 66 113
f 68 114 67
f 112 67 114
f 68 69 115
f 115 114 68
f 69 70 116
f 115 69 116
f 117 70 71
f 118 70 117
f 70 118 116
f 117 71 119
f 72 120 71
f 122 71 121
f 71 122 119
f 71 123 121
f 123 71 120
f 120 72 124
f 104 124 72
f 93 73 74
f 93 74 113
f 86 75 88
f 76 125 78
f 127 76 126
f 125 76 127
f 128 126 76
f 76 77 128
f 77 83 128
f 129 78 125
f 82 78 130
f 131 130 78
f 129 131 78
f 87 79 132
f 132 79 80
f 80 133 132
f 80 135 134
f 134 133 80
f 80 81 135
f 137 81 136
f 138 135 81
f 138 81 137
f 81 139 136
f 82 139 81
f 139 82 130
f 140 128 83
f 83 84 140
f 141 140 84
f 141 84 85
f 142 141 85
f 85 86 142
f 86 88 142
f 88 87 143
f 132 144 87
f 144 143 87
f 142 88 143
f 146 89 145
f 146 147 89
f 89 147 148
f 148 90 89
f 89 91 149
f 89 149 145
f 90 148 94
f 92 150 91
f 149 91 150
f 152 151 92
f 152 92 93
f 153 92 151
f 92 153 154
f 150 92 154
f 155 152 93
f 93 113 155
f 156 98 94
f 148 156 94
f 95 97 157
f 157 96 95
f 157 101 96
f 157 97 158
f 159 158 97
f 159 97 98
f 98 156 160
f 162 161 98
f 161 163 98
f 163 159 98
f 162 98 160
f 109 99 164
f 99 100 164
f 110 100 165
f 164 100 110
f 101 165 100
f 101 166 165
f 166 101 167
f 101 157 167
f 103 108 102
f 102 108 168
f 168 169 102
f 102 169 105
f 104 171 170
f 104 105 171
f 104 170 124
f 172 171 105
f 173 105 169
f 172 105 173
f 106 166 174
f 166 106 111
f 176 106 175
f 106 176 107
f 175 106 174
f 168 107 177
f 107 168 108
f 177 107 176
f 109 164 110
f 166 110 165
f 166 111 110
f 178 112 114
f 180 179 112
f 112 178 115
f 180 112 115
f 113 112 179
f 182 181 113
f 113 181 155
f 179 182 113
f 178 114 115
f 115 116 183
f 115 183 180
f 116 118 183
f 117 119 184
f 117 184 118
f 184 183 118
f 119 186 185
f 119 187 186
f 187 119 188
f 189 119 122
f 119 189 188
f 185 184 119
f 190 120 124
f 123 120 191
f 120 190 191
f 192 121 123
f 194 193 121
f 121 192 194
f 122 121 193
f 122 193 189
f 123 191 192
f 124 170 190
f 195 125 127
f 196 129 125
f 125 195 196
f 197 127 126
f 197 126 198
f 199 198 126
f 126 200 199
f 128 200 126
f 197 195 127
f 200 128 140
f 129 196 201
f 203 202 129
f 129 202 204
f 204 131 129
f 129 201 203
f 131 204 130
f 139 130 204
f 132 205 144
f 205 132 133
f 207 206 133
f 133 206 205
f 133 134 138
f 208 207 133
f 209 133 138
f 133 210 208
f 210 133 209
f 138 134 135
f 139 211 136
f 211 212 136
f 136 212 213
f 137 136 213
f 209 138 137
f 137 214 209
f 213 214 137
f 204 211 139
f 140 215 200
f 215 140 216
f 141 216 140
f 216 141 217
f 218 217 141
f 218 141 219
f 219 141 142
f 143 219 142
f 143 144 219
f 220 144 205
f 221 144 220
f 219 144 221
f 145 149 222
f 153 145 154
f 223 145 153
f 224 145 223
f 224 146 145
f 222 154 145
f 226 146 225
f 146 227 160
f 146 160 147
f 146 226 227
f 224 225 146
f 147 160 148
f 148 160 156
f 222 149 150
f 150 154 222
f 228 223 151
f 153 151 223
f 151 229 228
f 229 151 152
f 152 155 229
f 155 181 229
f 230 167 157
f 157 231 230
f 231 157 232
f 232 157 158
f 158 159 232
f 232 159 233
f 159 163 233
f 160 227 162
f 234 161 162
f 235 161 234
f 235 236 161
f 161 236 163
f 227 234 162
f 163 236 233
f 174 166 167
f 174 167 230
f 169 168 237
f 168 177 237
f 174 169 175
f 169 237 175
f 169 174 238
f 173 169 238
f 170 239 190
f 170 171 239
f 240 171 172
f 171 240 239
f 240 172 241
f 173 242 172
f 172 242 241
f 173 243 242
f 238 243 173
f 174 230 238
f 175 237 176
f 237 177 176
f 179 180 185
f 185 244 179
f 179 244 182
f 180 183 184
f 180 184 185
f 245 181 182
f 245 246 181
f 181 246 229
f 247 245 182
f 182 248 247
f 182 244 248
f 185 186 244
f 249 244 186
f 187 250 186
f 250 249 186
f 187 188 250
f 251 188 189
f 250 188 251
f 252 189 193
f 189 252 251
f 253 191 190
f 239 253 190
f 191 255 254
f 255 191 253
f 192 191 254
f 192 254 256
f 257 194 192
f 192 256 257
f 193 194 252
f 252 194 257
f 258 195 197
f 258 259 195
f 259 196 195
f 196 259 201
f 197 198 258
f 258 198 259
f 260 198 199
f 198 260 261
f 261 259 198
f 199 263 262
f 263 199 264
f 199 262 260
f 199 200 264
f 200 215 264
f 259 203 201
f 203 265 202
f 265 204 202
f 203 267 266
f 259 267 203
f 265 203 268
f 266 268 203
f 204 265 211
f 205 269 220
f 270 269 205
f 206 270 205
f 270 206 271
f 271 206 207
f 207 272 271
f 272 207 208
f 210 273 208
f 274 272 208
f 275 274 208
f 275 208 273
f 209 214 210
f 214 276 210
f 276 273 210
f 211 278 277
f 265 278 211
f 212 211 277
f 212 276 279
f 276 212 277
f 212 279 213
f 213 279 214
f 276 214 279
f 280 264 215
f 215 217 280
f 216 217 215
f 282 281 217
f 283 280 217
f 281 283 217
f 282 217 218
f 282 218 221
f 221 218 219
f 269 221 220
f 221 269 284
f 282 221 284
f 285 223 228
f 285 224 223
f 225 224 286
f 286 224 285
f 225 287 226
f 286 287 225
f 226 235 234
f 235 226 287
f 226 234 227
f 228 246 285
f 246 228 229
f 230 231 238
f 231 288 238
f 233 231 232
f 233 289 231
f 289 288 231
f 289 233 290
f 290 233 236
f 235 287 290
f 290 236 235
f 243 238 291
f 288 291 238
f 255 239 240
f 239 255 253
f 241 292 240
f 255 240 293
f 292 293 240
f 292 241 294
f 295 241 242
f 241 295 294
f 296 295 242
f 242 243 296
f 291 297 243
f 296 243 297
f 244 249 248
f 290 245 247
f 246 245 298
f 298 245 287
f 287 245 290
f 298 285 246
f 290 247 299
f 300 247 249
f 247 300 299
f 249 247 248
f 249 250 301
f 249 302 300
f 249 301 302
f 250 251 301
f 301 251 303
f 251 304 303
f 251 252 304
f 252 305 304
f 252 257 305
f 293 254 255
f 306 254 293
f 256 254 306
f 257 256 306
f 257 306 307
f 305 257 307
f 261 267 259
f 308 260 262
f 308 261 260
f 267 261 309
f 261 310 309
f 311 310 261
f 311 261 308
f 312 308 262
f 262 263 312
f 312 263 313
f 263 264 280
f 280 313 263
f 278 265 268
f 314 266 267
f 277 266 314
f 268 266 277
f 309 314 267
f 268 277 278
f 269 315 284
f 316 315 269
f 270 316 269
f 270 271 317
f 316 270 317
f 318 271 272
f 318 317 271
f 274 318 272
f 273 319 275
f 276 319 273
f 318 274 320
f 320 274 275
f 319 321 275
f 321 320 275
f 319 276 322
f 322 276 277
f 314 322 277
f 313 280 323
f 283 323 280
f 281 284 315
f 281 315 324
f 281 325 283
f 325 281 326
f 282 284 281
f 326 281 324
f 323 283 325
f 285 298 286
f 287 286 298
f 327 291 288
f 328 288 289
f 328 327 288
f 299 328 289
f 299 289 290
f 291 327 329
f 291 329 297
f 306 293 292
f 292 294 306
f 307 294 305
f 307 306 294
f 295 330 294
f 305 294 330
f 295 296 330
f 296 297 331
f 296 331 332
f 333 296 332
f 333 330 296
f 297 329 331
f 300 334 299
f 299 335 328
f 334 335 299
f 336 300 302
f 300 336 334
f 303 302 301
f 303 336 302
f 336 303 332
f 332 303 304
f 333 304 305
f 333 332 304
f 333 305 330
f 323 308 337
f 308 312 337
f 308 323 338
f 308 338 311
f 314 309 310
f 311 322 310
f 322 314 310
f 311 338 339
f 339 319 311
f 311 319 322
f 313 337 312
f 323 337 313
f 316 324 315
f 340 316 317
f 324 316 340
f 340 317 318
f 320 340 318
f 339 321 319
f 320 326 340
f 321 339 320
f 325 320 338
f 320 325 326
f 320 339 338
f 325 338 323
f 324 340 326
f 331 329 327
f 328 335 327
f 327 335 331
f 332 331 335
f 335 336 332
f 334 336 335
