# Generated by Visualization Toolkit
v 0.04605900123715401 -0.16184699535369873 0.01724899932742119
v 0.04694699868559837 -0.1622850000858307 0.015752999112010002
v 0.04781299829483032 -0.16185499727725983 0.01660200022161007
v 0.0458189994096756 -0.16208800673484802 0.016635999083518982
v 0.047143999487161636 -0.16117799282073975 0.017455000430345535
v 0.044895000755786896 -0.16197900474071503 0.0181099995970726
v 0.0498570017516613 -0.16255499422550201 0.01539700012654066
v 0.05016300082206726 -0.1634570062160492 0.013729999773204327
v 0.0423940010368824 -0.1617880016565323 0.015568000264465809
v 0.047793999314308167 -0.16090799868106842 0.01714799925684929
v 0.048847001045942307 -0.16137200593948364 0.016445999965071678
v 0.04251199960708618 -0.16173100471496582 0.01653899997472763
v 0.04410000145435333 -0.1621129959821701 0.0176170002669096
v 0.04439400136470795 -0.16078199446201324 0.01955600082874298
v 0.04537300020456314 -0.1597059965133667 0.019447999075055122
v 0.0441569983959198 -0.1618019938468933 0.018563000485301018
v 0.044130999594926834 -0.1612659990787506 0.019206000491976738
v 0.053033001720905304 -0.16442599892616272 0.013174000196158886
v 0.051288001239299774 -0.16235099732875824 0.015443000011146069
v 0.050415001809597015 -0.16200800240039825 0.015572000294923782
v 0.052710000425577164 -0.16441099345684052 0.012590000405907631
v 0.05003799870610237 -0.16328300535678864 0.011876000091433525
v 0.045754000544548035 -0.16199100017547607 0.0117790000513196
v 0.04161899909377098 -0.16135400533676147 0.012268999591469765
v 0.04185599833726883 -0.16157099604606628 0.014422999694943428
v 0.04794500023126602 -0.15994100272655487 0.01657100021839142
v 0.046018000692129135 -0.15901899337768555 0.01874700002372265
v 0.05047700181603432 -0.161421999335289 0.01496300008147955
v 0.048937998712062836 -0.1605370044708252 0.0156870000064373
v 0.043522000312805176 -0.16144999861717224 0.01862799935042858
v 0.04318699985742569 -0.16064299643039703 0.014151999726891518
v 0.04399000108242035 -0.15960100293159485 0.014515000395476818
v 0.04481400176882744 -0.15946300327777863 0.019677000120282173
v 0.04413200169801712 -0.15906700491905212 0.01926399953663349
v 0.04370199888944626 -0.16022799909114838 0.019347000867128372
v 0.04521000012755394 -0.15853899717330933 0.01896500028669834
v 0.05502999946475029 -0.16424299776554108 0.01409399975091219
v 0.05243900045752525 -0.16262300312519073 0.015273000113666058
v 0.05645599961280823 -0.1647779941558838 0.0123070003464818
v 0.051624998450279236 -0.16200000047683716 0.015297999605536461
v 0.05561500042676926 -0.1646440029144287 0.01075000036507845
v 0.05276000127196312 -0.16387100517749786 0.011251999996602535
v 0.05112700164318085 -0.1624000072479248 0.010350000113248825
v 0.04982399940490723 -0.1626559942960739 0.010870999656617641
v 0.048145998269319534 -0.16140100359916687 0.010489000007510185
v 0.04677300155162811 -0.16088899970054626 0.010240999981760979
v 0.04487200081348419 -0.16065099835395813 0.009956000372767448
v 0.04259800165891647 -0.16064000129699707 0.010127999819815159
v 0.04233799874782562 -0.16082599759101868 0.01115499995648861
v 0.043820999562740326 -0.15980400145053864 0.013629999943077564
v 0.04575999826192856 -0.15719300508499146 0.010652000084519386
v 0.04531199857592583 -0.1576080024242401 0.01755400002002716
v 0.050255998969078064 -0.16097299754619598 0.01309099979698658
v 0.04436599835753441 -0.1583079993724823 0.015162999741733074
v 0.04427500069141388 -0.15866999328136444 0.014588999561965466
v 0.04355200007557869 -0.16016900539398193 0.014154000207781792
v 0.04401100054383278 -0.15911200642585754 0.014155999757349491
v 0.04418199881911278 -0.15853199362754822 0.018823999911546707
v 0.04439400136470795 -0.1576559990644455 0.01771399937570095
v 0.044054001569747925 -0.15755000710487366 0.016824999824166298
v 0.05581900104880333 -0.16430099308490753 0.014902999624609947
v 0.05621799826622009 -0.16472800076007843 0.014041000045835972
v 0.05269699916243553 -0.16235099732875824 0.01628899946808815
v 0.05220299959182739 -0.16225799918174744 0.01566999964416027
v 0.05677799880504608 -0.16490299999713898 0.012701000086963177
v 0.0566370002925396 -0.1648859977722168 0.011799000203609467
v 0.05777899920940399 -0.16446000337600708 0.013024999760091305
v 0.05721699818968773 -0.16467900574207306 0.011714000254869461
v 0.05167900025844574 -0.16149500012397766 0.012938999570906162
v 0.052368998527526855 -0.16168099641799927 0.01461699977517128
v 0.052622001618146896 -0.16145800054073334 0.015468999743461609
v 0.05394100025296211 -0.1635890007019043 0.009530999697744846
v 0.056088000535964966 -0.1637219935655594 0.00963400024920702
v 0.0571650005877018 -0.16428999602794647 0.010722000151872635
v 0.05201299861073494 -0.1622689962387085 0.009529000148177147
v 0.05177899822592735 -0.1626179963350296 0.0103150000795722
v 0.05065000057220459 -0.1622530072927475 0.010425999760627747
v 0.05157899856567383 -0.16212299466133118 0.010076000355184078
v 0.05106600001454353 -0.16190199553966522 0.010470000095665455
v 0.04978000000119209 -0.16202400624752045 0.010590000078082085
v 0.04992299899458885 -0.1614300012588501 0.01106599997729063
v 0.047609999775886536 -0.15974299609661102 0.010329999960958958
v 0.04585200175642967 -0.15956099331378937 0.009549999609589577
v 0.04367600008845329 -0.15939000248908997 0.008825000375509262
v 0.04284000024199486 -0.1602800041437149 0.00962700042873621
v 0.04244399815797806 -0.16048799455165863 0.010692000389099121
v 0.043017998337745667 -0.15921199321746826 0.010166999883949757
v 0.042789001017808914 -0.1601179987192154 0.010800999589264393
v 0.04424599930644035 -0.1581680029630661 0.012955999933183193
v 0.046105001121759415 -0.1582310050725937 0.009726000018417835
v 0.045010000467300415 -0.15758800506591797 0.009424000047147274
v 0.043832000344991684 -0.15726099908351898 0.00977499969303608
v 0.04382700100541115 -0.15684400498867035 0.010955000296235085
v 0.0439159981906414 -0.1569570004940033 0.013647000305354595
v 0.04446699842810631 -0.157382994890213 0.01719300076365471
v 0.04404500126838684 -0.15787899494171143 0.014330999925732613
v 0.05656300112605095 -0.16361500322818756 0.015320999547839165
v 0.05573200061917305 -0.16314800083637238 0.015769999474287033
v 0.05692199990153313 -0.16384999454021454 0.015025000087916851
v 0.0539730004966259 -0.1622619926929474 0.016404999420046806
v 0.057464998215436935 -0.16424299776554108 0.01413199957460165
v 0.05293300002813339 -0.16187100112438202 0.016658000648021698
v 0.05242199823260307 -0.1617880016565323 0.016346000134944916
v 0.05688399821519852 -0.16331599652767181 0.014681000262498856
v 0.05760499835014343 -0.16396799683570862 0.01209999993443489
v 0.056366998702287674 -0.16272899508476257 0.013886000029742718
v 0.05293300002813339 -0.16177600622177124 0.012668999843299389
v 0.0519459992647171 -0.1616629958152771 0.010866999626159668
v 0.05283299833536148 -0.1613900065422058 0.016171999275684357
v 0.05401099845767021 -0.16172300279140472 0.01598300039768219
v 0.053677998483181 -0.16248899698257446 0.008813000284135342
v 0.05304199829697609 -0.16217400133609772 0.008844999596476555
v 0.055459000170230865 -0.16273100674152374 0.009569000452756882
v 0.05256899818778038 -0.16197499632835388 0.009007999673485756
v 0.05186200141906738 -0.16178399324417114 0.009324000217020512
v 0.05210600048303604 -0.16145199537277222 0.010266000404953957
v 0.044557999819517136 -0.15871399641036987 0.00880299974232912
v 0.04298499971628189 -0.15906000137329102 0.008960999548435211
v 0.04382399842143059 -0.1588910073041916 0.008725999854505062
v 0.04387100040912628 -0.15798799693584442 0.011730000376701355
v 0.04302699863910675 -0.15815000236034393 0.010150999762117863
v 0.043345000594854355 -0.15860100090503693 0.008888999931514263
v 0.04300500079989433 -0.15809200704097748 0.009286999702453613
v 0.043216001242399216 -0.15743400156497955 0.010428999550640583
v 0.05625800043344498 -0.16283899545669556 0.015205999836325645
v 0.05318500101566315 -0.16165900230407715 0.009277000091969967
v 0.05218999832868576 -0.1613920032978058 0.00976600032299757
f 1 2 3
f 4 2 1
f 5 6 1
f 6 4 1
f 5 1 3
f 7 3 2
f 8 7 2
f 8 2 9
f 2 4 9
f 10 5 3
f 11 3 7
f 11 10 3
f 12 4 13
f 9 4 12
f 4 6 13
f 6 5 14
f 14 5 15
f 5 10 15
f 16 13 6
f 17 16 6
f 6 14 17
f 8 18 7
f 19 20 7
f 20 11 7
f 18 19 7
f 21 18 8
f 22 8 9
f 22 21 8
f 23 22 9
f 9 24 23
f 24 9 25
f 12 25 9
f 10 11 26
f 27 10 26
f 15 10 27
f 28 29 11
f 28 11 20
f 29 26 11
f 12 13 30
f 25 12 31
f 31 12 32
f 12 30 32
f 13 16 30
f 33 14 15
f 34 35 14
f 17 14 35
f 14 33 34
f 27 36 15
f 33 15 36
f 17 30 16
f 30 17 35
f 37 38 18
f 18 38 19
f 18 21 39
f 37 18 39
f 38 40 19
f 20 19 40
f 28 20 40
f 39 21 41
f 42 41 21
f 22 42 21
f 42 22 43
f 44 43 22
f 23 44 22
f 45 44 23
f 46 45 23
f 47 23 24
f 46 23 47
f 48 47 24
f 49 48 24
f 31 24 25
f 49 24 50
f 24 31 50
f 26 29 51
f 52 26 51
f 27 26 52
f 36 27 52
f 53 29 28
f 40 53 28
f 51 29 53
f 34 30 35
f 30 34 54
f 32 30 55
f 30 54 55
f 50 31 56
f 32 56 31
f 32 57 56
f 32 55 57
f 33 36 34
f 58 34 36
f 58 59 34
f 60 34 59
f 54 34 60
f 59 58 36
f 59 36 52
f 61 37 62
f 62 37 39
f 63 37 61
f 63 38 37
f 63 64 38
f 38 64 40
f 62 39 65
f 41 66 39
f 67 65 39
f 66 68 39
f 67 39 68
f 69 40 70
f 40 69 53
f 40 64 71
f 70 40 71
f 72 73 41
f 68 66 41
f 68 41 74
f 73 74 41
f 72 41 42
f 72 42 75
f 43 76 42
f 76 75 42
f 43 44 77
f 76 43 78
f 77 79 43
f 78 43 79
f 45 80 44
f 80 77 44
f 80 45 81
f 82 81 45
f 45 46 82
f 46 47 83
f 46 83 82
f 84 47 85
f 84 83 47
f 48 85 47
f 49 86 48
f 85 48 87
f 88 48 86
f 48 88 87
f 86 49 88
f 88 49 50
f 50 56 57
f 89 88 50
f 89 50 57
f 90 51 82
f 82 51 53
f 91 51 90
f 51 91 92
f 51 92 93
f 51 93 52
f 93 94 52
f 95 52 94
f 95 59 52
f 81 82 53
f 81 53 69
f 54 60 96
f 54 96 55
f 55 96 57
f 57 96 89
f 59 95 60
f 95 94 60
f 60 94 96
f 97 98 61
f 99 97 61
f 100 61 98
f 99 61 101
f 61 62 101
f 102 63 61
f 102 61 100
f 62 67 101
f 65 67 62
f 63 103 64
f 102 103 63
f 103 71 64
f 104 101 67
f 67 68 105
f 105 106 67
f 67 106 104
f 68 74 105
f 69 79 81
f 70 107 69
f 107 108 69
f 69 108 79
f 71 107 70
f 103 109 71
f 107 71 106
f 106 71 110
f 109 110 71
f 72 111 73
f 72 112 111
f 72 75 112
f 111 113 73
f 74 73 105
f 113 105 73
f 75 114 112
f 75 115 114
f 75 76 78
f 78 115 75
f 80 79 77
f 78 79 116
f 115 78 116
f 80 81 79
f 79 108 116
f 90 82 83
f 83 117 90
f 117 83 84
f 85 118 84
f 84 118 119
f 84 119 117
f 118 85 87
f 87 88 89
f 87 89 120
f 118 87 121
f 120 121 87
f 89 94 120
f 96 94 89
f 91 90 117
f 122 91 117
f 91 122 92
f 122 123 92
f 124 93 92
f 123 124 92
f 124 94 93
f 94 124 120
f 125 98 97
f 99 104 97
f 104 125 97
f 98 125 110
f 98 110 100
f 104 99 101
f 110 102 100
f 109 102 110
f 103 102 109
f 125 104 106
f 106 105 113
f 126 106 113
f 127 107 106
f 110 125 106
f 126 127 106
f 107 116 108
f 107 127 116
f 113 111 126
f 111 112 126
f 114 126 112
f 115 126 114
f 115 127 126
f 127 115 116
f 122 117 119
f 122 119 118
f 118 123 122
f 121 123 118
f 120 124 121
f 123 121 124
