# Generated by Visualization Toolkit
v 0.04781299829483032 -0.16185499727725983 -0.01660200022161007
v 0.04694699868559837 -0.1622850000858307 -0.015752999112010002
v 0.04605900123715401 -0.16184699535369873 -0.01724899932742119
v 0.047143999487161636 -0.16117799282073975 -0.017455000430345535
v 0.0498570017516613 -0.16255499422550201 -0.01539700012654066
v 0.047793999314308167 -0.16090799868106842 -0.01714799925684929
v 0.048847001045942307 -0.16137200593948364 -0.016445999965071678
v 0.0458189994096756 -0.16208800673484802 -0.016635999083518982
v 0.05016300082206726 -0.1634570062160492 -0.013729999773204327
v 0.0423940010368824 -0.1617880016565323 -0.015568000264465809
v 0.044895000755786896 -0.16197900474071503 -0.0181099995970726
v 0.04439400136470795 -0.16078199446201324 -0.01955600082874298
v 0.04537300020456314 -0.1597059965133667 -0.019447999075055122
v 0.053033001720905304 -0.16442599892616272 -0.013174000196158886
v 0.050415001809597015 -0.16200800240039825 -0.015572000294923782
v 0.051288001239299774 -0.16235099732875824 -0.015443000011146069
v 0.04794500023126602 -0.15994100272655487 -0.01657100021839142
v 0.046018000692129135 -0.15901899337768555 -0.01874700002372265
v 0.048937998712062836 -0.1605370044708252 -0.0156870000064373
v 0.05047700181603432 -0.161421999335289 -0.01496300008147955
v 0.04410000145435333 -0.1621129959821701 -0.0176170002669096
v 0.04251199960708618 -0.16173100471496582 -0.01653899997472763
v 0.052710000425577164 -0.16441099345684052 -0.012590000405907631
v 0.05003799870610237 -0.16328300535678864 -0.011876000091433525
v 0.045754000544548035 -0.16199100017547607 -0.0117790000513196
v 0.04161899909377098 -0.16135400533676147 -0.012268999591469765
v 0.04185599833726883 -0.16157099604606628 -0.014422999694943428
v 0.0441569983959198 -0.1618019938468933 -0.018563000485301018
v 0.044130999594926834 -0.1612659990787506 -0.019206000491976738
v 0.04481400176882744 -0.15946300327777863 -0.019677000120282173
v 0.04370199888944626 -0.16022799909114838 -0.019347000867128372
v 0.04413200169801712 -0.15906700491905212 -0.01926399953663349
v 0.04521000012755394 -0.15853899717330933 -0.01896500028669834
v 0.05243900045752525 -0.16262300312519073 -0.015273000113666058
v 0.05502999946475029 -0.16424299776554108 -0.01409399975091219
v 0.05645599961280823 -0.1647779941558838 -0.0123070003464818
v 0.051624998450279236 -0.16200000047683716 -0.015297999605536461
v 0.04575999826192856 -0.15719300508499146 -0.010652000084519386
v 0.04531199857592583 -0.1576080024242401 -0.01755400002002716
v 0.050255998969078064 -0.16097299754619598 -0.01309099979698658
v 0.043522000312805176 -0.16144999861717224 -0.01862799935042858
v 0.04318699985742569 -0.16064299643039703 -0.014151999726891518
v 0.04399000108242035 -0.15960100293159485 -0.014515000395476818
v 0.05561500042676926 -0.1646440029144287 -0.01075000036507845
v 0.05276000127196312 -0.16387100517749786 -0.011251999996602535
v 0.05112700164318085 -0.1624000072479248 -0.010350000113248825
v 0.04982399940490723 -0.1626559942960739 -0.010870999656617641
v 0.048145998269319534 -0.16140100359916687 -0.010489000007510185
v 0.04677300155162811 -0.16088899970054626 -0.010240999981760979
v 0.04487200081348419 -0.16065099835395813 -0.009956000372767448
v 0.04259800165891647 -0.16064000129699707 -0.010127999819815159
v 0.04233799874782562 -0.16082599759101868 -0.01115499995648861
v 0.043820999562740326 -0.15980400145053864 -0.013629999943077564
v 0.04436599835753441 -0.1583079993724823 -0.015162999741733074
v 0.04418199881911278 -0.15853199362754822 -0.018823999911546707
v 0.04439400136470795 -0.1576559990644455 -0.01771399937570095
v 0.044054001569747925 -0.15755000710487366 -0.016824999824166298
v 0.05269699916243553 -0.16235099732875824 -0.01628899946808815
v 0.05220299959182739 -0.16225799918174744 -0.01566999964416027
v 0.05621799826622009 -0.16472800076007843 -0.014041000045835972
v 0.05581900104880333 -0.16430099308490753 -0.014902999624609947
v 0.05677799880504608 -0.16490299999713898 -0.012701000086963177
v 0.0566370002925396 -0.1648859977722168 -0.011799000203609467
v 0.05777899920940399 -0.16446000337600708 -0.013024999760091305
v 0.05721699818968773 -0.16467900574207306 -0.011714000254869461
v 0.052368998527526855 -0.16168099641799927 -0.01461699977517128
v 0.05167900025844574 -0.16149500012397766 -0.012938999570906162
v 0.052622001618146896 -0.16145800054073334 -0.015468999743461609
v 0.047609999775886536 -0.15974299609661102 -0.010329999960958958
v 0.046105001121759415 -0.1582310050725937 -0.009726000018417835
v 0.045010000467300415 -0.15758800506591797 -0.009424000047147274
v 0.043832000344991684 -0.15726099908351898 -0.00977499969303608
v 0.04382700100541115 -0.15684400498867035 -0.010955000296235085
v 0.0439159981906414 -0.1569570004940033 -0.013647000305354595
v 0.04446699842810631 -0.157382994890213 -0.01719300076365471
v 0.04992299899458885 -0.1614300012588501 -0.01106599997729063
v 0.04427500069141388 -0.15866999328136444 -0.014588999561965466
v 0.04355200007557869 -0.16016900539398193 -0.014154000207781792
v 0.04401100054383278 -0.15911200642585754 -0.014155999757349491
v 0.056088000535964966 -0.1637219935655594 -0.00963400024920702
v 0.05394100025296211 -0.1635890007019043 -0.009530999697744846
v 0.0571650005877018 -0.16428999602794647 -0.010722000151872635
v 0.05201299861073494 -0.1622689962387085 -0.009529000148177147
v 0.05177899822592735 -0.1626179963350296 -0.0103150000795722
v 0.05065000057220459 -0.1622530072927475 -0.010425999760627747
v 0.05157899856567383 -0.16212299466133118 -0.010076000355184078
v 0.05106600001454353 -0.16190199553966522 -0.010470000095665455
v 0.04978000000119209 -0.16202400624752045 -0.010590000078082085
v 0.04585200175642967 -0.15956099331378937 -0.009549999609589577
v 0.04284000024199486 -0.1602800041437149 -0.00962700042873621
v 0.04367600008845329 -0.15939000248908997 -0.008825000375509262
v 0.04244399815797806 -0.16048799455165863 -0.010692000389099121
v 0.043017998337745667 -0.15921199321746826 -0.010166999883949757
v 0.042789001017808914 -0.1601179987192154 -0.010800999589264393
v 0.04424599930644035 -0.1581680029630661 -0.012955999933183193
v 0.04404500126838684 -0.15787899494171143 -0.014330999925732613
v 0.05293300002813339 -0.16187100112438202 -0.016658000648021698
v 0.05242199823260307 -0.1617880016565323 -0.016346000134944916
v 0.057464998215436935 -0.16424299776554108 -0.01413199957460165
v 0.05573200061917305 -0.16314800083637238 -0.015769999474287033
v 0.05656300112605095 -0.16361500322818756 -0.015320999547839165
v 0.05692199990153313 -0.16384999454021454 -0.015025000087916851
v 0.0539730004966259 -0.1622619926929474 -0.016404999420046806
v 0.05688399821519852 -0.16331599652767181 -0.014681000262498856
v 0.05760499835014343 -0.16396799683570862 -0.01209999993443489
v 0.056366998702287674 -0.16272899508476257 -0.013886000029742718
v 0.05293300002813339 -0.16177600622177124 -0.012668999843299389
v 0.0519459992647171 -0.1616629958152771 -0.010866999626159668
v 0.05283299833536148 -0.1613900065422058 -0.016171999275684357
v 0.05401099845767021 -0.16172300279140472 -0.01598300039768219
v 0.044557999819517136 -0.15871399641036987 -0.00880299974232912
v 0.043345000594854355 -0.15860100090503693 -0.008888999931514263
v 0.04300500079989433 -0.15809200704097748 -0.009286999702453613
v 0.043216001242399216 -0.15743400156497955 -0.010428999550640583
v 0.04387100040912628 -0.15798799693584442 -0.011730000376701355
v 0.053677998483181 -0.16248899698257446 -0.008813000284135342
v 0.055459000170230865 -0.16273100674152374 -0.009569000452756882
v 0.05304199829697609 -0.16217400133609772 -0.008844999596476555
v 0.05256899818778038 -0.16197499632835388 -0.009007999673485756
v 0.05186200141906738 -0.16178399324417114 -0.009324000217020512
v 0.05210600048303604 -0.16145199537277222 -0.010266000404953957
v 0.04298499971628189 -0.15906000137329102 -0.008960999548435211
v 0.04382399842143059 -0.1588910073041916 -0.008725999854505062
v 0.04302699863910675 -0.15815000236034393 -0.010150999762117863
v 0.05625800043344498 -0.16283899545669556 -0.015205999836325645
v 0.05318500101566315 -0.16165900230407715 -0.009277000091969967
v 0.05218999832868576 -0.1613920032978058 -0.00976600032299757
f 1 2 3
f 1 3 4
f 2 1 5
f 1 4 6
f 5 1 7
f 1 6 7
f 3 2 8
f 2 5 9
f 10 2 9
f 10 8 2
f 3 11 4
f 3 8 11
f 12 4 11
f 13 4 12
f 13 6 4
f 5 14 9
f 5 15 16
f 5 7 15
f 5 16 14
f 17 7 6
f 17 6 18
f 18 6 13
f 7 19 20
f 15 7 20
f 7 17 19
f 21 8 22
f 22 8 10
f 21 11 8
f 9 14 23
f 10 9 24
f 9 23 24
f 10 24 25
f 25 26 10
f 27 10 26
f 10 27 22
f 11 21 28
f 11 28 29
f 29 12 11
f 13 12 30
f 12 31 32
f 31 12 29
f 32 30 12
f 13 33 18
f 33 13 30
f 14 34 35
f 16 34 14
f 36 23 14
f 36 14 35
f 37 16 15
f 37 15 20
f 16 37 34
f 38 19 17
f 38 17 39
f 39 17 18
f 39 18 33
f 20 19 40
f 40 19 38
f 20 40 37
f 41 21 22
f 41 28 21
f 42 22 27
f 43 22 42
f 43 41 22
f 44 23 36
f 23 44 45
f 23 45 24
f 46 24 45
f 24 46 47
f 24 47 25
f 25 47 48
f 25 48 49
f 26 25 50
f 50 25 49
f 26 50 51
f 26 51 52
f 27 26 42
f 53 26 52
f 53 42 26
f 28 41 29
f 31 29 41
f 32 33 30
f 31 41 32
f 54 32 41
f 33 32 55
f 32 56 55
f 56 32 57
f 57 32 54
f 33 55 56
f 39 33 56
f 35 34 58
f 34 59 58
f 37 59 34
f 60 35 61
f 36 35 60
f 61 35 58
f 62 36 60
f 36 63 44
f 36 62 64
f 36 65 63
f 65 36 64
f 66 37 67
f 40 67 37
f 68 59 37
f 68 37 66
f 69 38 70
f 40 38 69
f 70 38 71
f 72 71 38
f 73 72 38
f 39 73 38
f 39 74 73
f 74 39 75
f 39 56 75
f 40 69 76
f 67 40 76
f 77 41 43
f 77 54 41
f 78 42 53
f 42 78 43
f 78 79 43
f 79 77 43
f 44 80 81
f 44 63 65
f 82 44 65
f 44 82 80
f 45 44 81
f 83 45 81
f 45 84 46
f 45 83 84
f 85 47 46
f 86 46 84
f 46 87 85
f 87 46 86
f 47 88 48
f 47 85 88
f 76 48 88
f 48 76 69
f 69 49 48
f 89 50 49
f 69 89 49
f 90 50 91
f 50 89 91
f 50 90 51
f 51 92 52
f 93 51 90
f 92 51 94
f 93 94 51
f 94 52 92
f 53 52 94
f 79 78 53
f 53 94 95
f 79 53 95
f 96 57 54
f 77 96 54
f 57 75 56
f 57 74 75
f 96 74 57
f 61 58 97
f 59 98 58
f 58 98 97
f 59 68 98
f 99 60 61
f 99 64 60
f 60 64 62
f 61 100 101
f 61 101 102
f 100 61 103
f 99 61 102
f 103 61 97
f 64 99 104
f 105 65 64
f 64 106 105
f 104 106 64
f 105 82 65
f 67 107 66
f 66 107 68
f 76 87 67
f 67 108 107
f 87 108 67
f 68 109 98
f 106 68 107
f 110 68 106
f 68 110 109
f 89 69 70
f 70 111 89
f 111 70 71
f 111 71 112
f 72 112 71
f 72 113 112
f 72 73 114
f 72 114 113
f 73 74 114
f 115 74 95
f 95 74 96
f 115 114 74
f 87 76 88
f 79 96 77
f 95 96 79
f 80 116 81
f 80 117 116
f 105 80 82
f 80 105 117
f 116 118 81
f 118 83 81
f 118 119 83
f 119 120 83
f 86 84 83
f 83 120 86
f 85 87 88
f 121 87 86
f 121 86 120
f 121 108 87
f 91 89 111
f 91 122 90
f 93 90 122
f 123 122 91
f 111 123 91
f 95 94 93
f 115 95 93
f 124 93 122
f 93 124 115
f 103 97 110
f 110 97 109
f 109 97 98
f 99 102 104
f 101 100 125
f 110 125 100
f 103 110 100
f 101 104 102
f 101 125 104
f 106 104 125
f 117 105 106
f 117 106 126
f 106 107 127
f 106 125 110
f 106 127 126
f 108 121 107
f 121 127 107
f 123 111 112
f 122 123 112
f 112 113 122
f 122 113 124
f 114 124 113
f 124 114 115
f 126 116 117
f 126 118 116
f 118 126 119
f 119 126 120
f 126 127 120
f 121 120 127
