# Generated by Visualization Toolkit
v 0.01902499981224537 -0.13516800105571747 -0.024390999227762222
v 0.018743999302387238 -0.13855700194835663 -0.02368899993598461
v 0.017906000837683678 -0.1362909972667694 -0.0231890007853508
v 0.01891399919986725 -0.134443998336792 -0.024174999445676804
v 0.024450000375509262 -0.13671299815177917 -0.025397000834345818
v 0.021550999954342842 -0.13431000709533691 -0.025026999413967133
v 0.017361000180244446 -0.13615599274635315 -0.02133299969136715
v 0.02080100029706955 -0.14105099439620972 -0.023786000907421112
v 0.019680000841617584 -0.14080899953842163 -0.022045999765396118
v 0.012101000174880028 -0.12817400693893433 -0.019541999325156212
v 0.015406999737024307 -0.1322759985923767 -0.02215700037777424
v 0.014782000333070755 -0.12672899663448334 -0.024178000167012215
v 0.016705000773072243 -0.12622599303722382 -0.02403399907052517
v 0.020694000646471977 -0.1335189938545227 -0.023499999195337296
v 0.020570000633597374 -0.1338919997215271 -0.024616999551653862
v 0.02162100002169609 -0.14135600626468658 -0.023896999657154083
v 0.024091999977827072 -0.14031000435352325 -0.024467000737786293
v 0.024654999375343323 -0.1385989934206009 -0.024992000311613083
v 0.024896999821066856 -0.13511499762535095 -0.024563999846577644
v 0.02583100087940693 -0.13730399310588837 -0.02429099939763546
v 0.022622000426054 -0.13360799849033356 -0.02400200068950653
v 0.017875999212265015 -0.13606399297714233 -0.01700899936258793
v 0.018679000437259674 -0.13873699307441711 -0.017635000869631767
v 0.019617000594735146 -0.14054900407791138 -0.019605999812483788
v 0.02131599932909012 -0.14176400005817413 -0.022257000207901
v 0.009298999793827534 -0.12301500141620636 -0.02038699947297573
v 0.01166599988937378 -0.12600499391555786 -0.017302999272942543
v 0.012388999573886395 -0.12122999876737595 -0.024483000859618187
v 0.012138999998569489 -0.11507199704647064 -0.02532999962568283
v 0.014007000252604485 -0.11758799850940704 -0.024222999811172485
v 0.015407999977469444 -0.12053799629211426 -0.023159999400377274
v 0.02132599987089634 -0.13324500620365143 -0.02167999930679798
v 0.02402699925005436 -0.14117099344730377 -0.02313699945807457
v 0.02575399912893772 -0.13830099999904633 -0.024097999557852745
v 0.024862000718712807 -0.14027200639247894 -0.023528000339865685
v 0.0251499991863966 -0.13552899658679962 -0.021984999999403954
v 0.026019999757409096 -0.13759499788284302 -0.021987000480294228
v 0.023182999342679977 -0.1339150071144104 -0.022028999403119087
v 0.007656999863684177 -0.11350700259208679 -0.014293000102043152
v 0.02029000036418438 -0.13896100223064423 -0.015212999656796455
v 0.018720999360084534 -0.13469499349594116 -0.015706000849604607
v 0.02042900025844574 -0.14101600646972656 -0.01608400046825409
v 0.021733000874519348 -0.14217300713062286 -0.017163999378681183
v 0.021424999460577965 -0.14157600700855255 -0.019555000588297844
v 0.023845000192523003 -0.14112700521945953 -0.020448999479413033
v 0.004745999816805124 -0.11291900277137756 -0.016313999891281128
v 0.009170999750494957 -0.11249300092458725 -0.026386000216007233
v 0.003926999866962433 -0.11146999895572662 -0.022659000009298325
v 0.010243000462651253 -0.1123809963464737 -0.026277000084519386
v 0.012527000159025192 -0.10983700305223465 -0.024651000276207924
v 0.012036999687552452 -0.11229400336742401 -0.01600099913775921
v 0.01667499914765358 -0.12300299853086472 -0.02019600011408329
v 0.021250000223517418 -0.1334719955921173 -0.019610000774264336
v 0.02585200034081936 -0.1384429931640625 -0.02176699973642826
v 0.025102000683546066 -0.13678699731826782 -0.019480999559164047
v 0.025383999571204185 -0.13773700594902039 -0.019497999921441078
v 0.0029070000164210796 -0.10632699728012085 -0.01381400041282177
v 0.010925999842584133 -0.11319799721240997 -0.01372199971228838
v 0.009279999881982803 -0.11077599972486496 -0.013129999861121178
v 0.007679999805986881 -0.10874699801206589 -0.012306000106036663
v 0.017625000327825546 -0.12864600121974945 -0.015639999881386757
v 0.022187000140547752 -0.13619600236415863 -0.014120000414550304
v 0.021436000242829323 -0.13645699620246887 -0.014316000044345856
v 0.021608000621199608 -0.14098000526428223 -0.015011999756097794
v 0.024475999176502228 -0.139832004904747 -0.014173000119626522
v 0.024170000106096268 -0.13736100494861603 -0.013868000358343124
v 0.02463199943304062 -0.13813899457454681 -0.013873999938368797
v 0.020313000306487083 -0.13390900194644928 -0.015893999487161636
v 0.02207300066947937 -0.1345759928226471 -0.014888999983668327
v 0.021762000396847725 -0.14200900495052338 -0.015819000080227852
v 0.023739999160170555 -0.14179900288581848 -0.015567000024020672
v 0.023708000779151917 -0.1410129964351654 -0.019658999517560005
v 0.024450000375509262 -0.14024999737739563 -0.019626999273896217
v 0.002022000029683113 -0.10764200240373611 -0.021911999210715294
v 0.0024349999148398638 -0.10790999978780746 -0.015799999237060547
v 0.003498000092804432 -0.10886699706315994 -0.02520200051367283
v 0.0075079998932778835 -0.10758999735116959 -0.028663000091910362
v 0.009959000162780285 -0.10713200271129608 -0.028302999213337898
v 0.010824000462889671 -0.10726899653673172 -0.027563000097870827
v 0.011648000217974186 -0.10184399783611298 -0.02441300079226494
v 0.010762999765574932 -0.10456400364637375 -0.013566000387072563
v 0.010463000275194645 -0.11157800257205963 -0.01360000018030405
v 0.021190999075770378 -0.133432999253273 -0.017330000177025795
v 0.02448900043964386 -0.13542500138282776 -0.016836000606417656
v 0.022644000127911568 -0.13421300053596497 -0.017013000324368477
v 0.025894999504089355 -0.13769200444221497 -0.01709599979221821
v 0.025560999289155006 -0.13987399637699127 -0.017278000712394714
v 0.0017320000333711505 -0.10558000206947327 -0.018893999978899956
v 0.004139000084251165 -0.10395299643278122 -0.012307999655604362
v 0.0023060000967234373 -0.10411600023508072 -0.014897000044584274
v 0.004898999817669392 -0.10334999859333038 -0.012218999676406384
v 0.009007999673485756 -0.10520800203084946 -0.012403000146150589
v 0.024176999926567078 -0.13590799272060394 -0.014576000161468983
v 0.025054000318050385 -0.1402129977941513 -0.014894999563694
v 0.025471000000834465 -0.13809099793434143 -0.014562999829649925
v 0.0017729999963194132 -0.10551399737596512 -0.0213639996945858
v 0.003938999958336353 -0.10360900312662125 -0.026719000190496445
v 0.0043390002101659775 -0.10519800335168839 -0.02730800025165081
v 0.0081599997356534 -0.10505200177431107 -0.028649000450968742
v 0.006752000190317631 -0.1052670031785965 -0.028873000293970108
v 0.010583999566733837 -0.10598400235176086 -0.0278290007263422
v 0.008453000336885452 -0.10138799995183945 -0.014870000071823597
v 0.01013800036162138 -0.1005299985408783 -0.023351000621914864
v 0.009758000262081623 -0.10259900242090225 -0.013867000117897987
v 0.010418999940156937 -0.10239499807357788 -0.02672700025141239
v 0.00796900037676096 -0.10106399655342102 -0.026443000882864
v 0.0035910001024603844 -0.10251999646425247 -0.013458999805152416
v 0.00710699986666441 -0.1022460013628006 -0.018880000337958336
v 0.00520200002938509 -0.10178899765014648 -0.013284999877214432
v 0.007970999926328659 -0.10256099700927734 -0.012860000133514404
v 0.004184000194072723 -0.10245300084352493 -0.02513200044631958
v 0.005843999795615673 -0.10153800249099731 -0.026461999863386154
v 0.006074000149965286 -0.10256999731063843 -0.02795800007879734
v 0.00860000029206276 -0.10266199707984924 -0.02784699946641922
v 0.007162999827414751 -0.10141599923372269 -0.013883999548852444
v 0.007687999866902828 -0.10098099708557129 -0.015699999406933784
f 1 2 3
f 3 4 1
f 5 2 1
f 5 1 6
f 4 6 1
f 7 3 2
f 8 2 5
f 2 8 9
f 9 7 2
f 3 7 10
f 4 3 11
f 10 11 3
f 11 12 4
f 13 4 12
f 4 13 14
f 4 14 15
f 4 15 6
f 5 16 8
f 5 17 16
f 5 18 17
f 19 5 6
f 19 20 5
f 18 5 20
f 6 15 21
f 6 21 19
f 22 10 7
f 23 22 7
f 9 24 7
f 7 24 23
f 25 8 16
f 25 9 8
f 24 9 25
f 26 11 10
f 27 26 10
f 10 22 27
f 12 11 26
f 12 26 28
f 28 29 12
f 12 29 13
f 29 30 13
f 13 31 14
f 13 30 31
f 21 15 14
f 31 32 14
f 32 21 14
f 25 16 33
f 16 17 33
f 18 34 17
f 35 33 17
f 35 17 34
f 20 34 18
f 36 20 19
f 36 19 21
f 20 36 37
f 37 34 20
f 38 36 21
f 21 32 38
f 27 22 39
f 23 40 22
f 39 22 41
f 40 23 42
f 23 24 42
f 42 24 43
f 44 24 25
f 43 24 44
f 33 45 25
f 25 45 44
f 27 46 26
f 47 28 26
f 48 47 26
f 48 26 46
f 39 46 27
f 29 28 47
f 47 49 29
f 29 49 50
f 50 30 29
f 30 50 31
f 31 50 51
f 31 51 52
f 52 32 31
f 53 32 52
f 53 38 32
f 45 33 35
f 54 35 34
f 34 37 54
f 45 35 54
f 38 55 36
f 37 36 55
f 56 37 55
f 56 54 37
f 55 38 53
f 57 46 39
f 58 59 39
f 60 57 39
f 39 59 60
f 41 61 39
f 39 61 58
f 62 63 40
f 40 64 65
f 42 64 40
f 62 40 66
f 66 40 67
f 40 65 67
f 63 41 40
f 41 68 61
f 68 41 69
f 41 63 62
f 41 62 69
f 43 70 42
f 42 70 64
f 43 71 70
f 43 44 71
f 71 44 72
f 44 45 72
f 54 73 45
f 73 72 45
f 48 46 74
f 74 46 75
f 57 75 46
f 48 76 47
f 47 77 49
f 76 77 47
f 48 74 76
f 78 49 77
f 50 49 79
f 79 49 78
f 79 80 50
f 50 81 51
f 50 80 81
f 51 58 61
f 82 58 51
f 61 52 51
f 82 51 81
f 61 83 52
f 53 52 83
f 84 55 53
f 84 53 85
f 53 83 85
f 54 56 73
f 86 55 84
f 55 86 56
f 87 73 56
f 86 87 56
f 88 75 57
f 60 89 57
f 57 90 88
f 90 57 89
f 59 58 82
f 60 59 82
f 89 60 91
f 60 82 92
f 60 92 91
f 83 61 68
f 93 62 66
f 62 93 69
f 70 65 64
f 70 71 65
f 65 94 67
f 65 71 94
f 66 67 93
f 94 95 67
f 67 95 93
f 68 85 83
f 85 68 69
f 84 69 93
f 84 85 69
f 73 71 72
f 73 87 71
f 71 87 94
f 74 75 88
f 74 88 96
f 96 97 74
f 76 74 97
f 98 76 97
f 98 77 76
f 78 77 99
f 77 98 100
f 99 77 100
f 78 101 79
f 101 78 99
f 80 79 101
f 102 80 103
f 80 102 104
f 81 80 104
f 80 101 105
f 106 80 105
f 80 106 103
f 82 81 92
f 104 92 81
f 86 84 93
f 86 93 95
f 86 95 87
f 87 95 94
f 88 90 107
f 88 108 96
f 108 88 107
f 90 89 107
f 91 107 89
f 109 107 91
f 110 91 92
f 110 109 91
f 92 104 110
f 108 111 96
f 97 96 111
f 111 112 97
f 97 112 113
f 98 97 113
f 113 100 98
f 100 114 99
f 99 105 101
f 105 99 114
f 100 113 114
f 102 115 104
f 116 102 103
f 116 115 102
f 112 108 103
f 116 103 108
f 103 106 112
f 115 110 104
f 106 105 114
f 113 112 106
f 113 106 114
f 108 107 109
f 112 111 108
f 108 109 116
f 109 110 115
f 115 116 109
