# Generated by Visualization Toolkit
v 0.017906000837683678 -0.1362909972667694 0.0231890007853508
v 0.018743999302387238 -0.13855700194835663 0.02368899993598461
v 0.01902499981224537 -0.13516800105571747 0.024390999227762222
v 0.012101000174880028 -0.12817400693893433 0.019541999325156212
v 0.017361000180244446 -0.13615599274635315 0.02133299969136715
v 0.01891399919986725 -0.134443998336792 0.024174999445676804
v 0.015406999737024307 -0.1322759985923767 0.02215700037777424
v 0.024450000375509262 -0.13671299815177917 0.025397000834345818
v 0.02080100029706955 -0.14105099439620972 0.023786000907421112
v 0.019680000841617584 -0.14080899953842163 0.022045999765396118
v 0.021550999954342842 -0.13431000709533691 0.025026999413967133
v 0.009298999793827534 -0.12301500141620636 0.02038699947297573
v 0.01166599988937378 -0.12600499391555786 0.017302999272942543
v 0.017875999212265015 -0.13606399297714233 0.01700899936258793
v 0.018679000437259674 -0.13873699307441711 0.017635000869631767
v 0.019617000594735146 -0.14054900407791138 0.019605999812483788
v 0.014782000333070755 -0.12672899663448334 0.024178000167012215
v 0.016705000773072243 -0.12622599303722382 0.02403399907052517
v 0.020694000646471977 -0.1335189938545227 0.023499999195337296
v 0.020570000633597374 -0.1338919997215271 0.024616999551653862
v 0.02162100002169609 -0.14135600626468658 0.023896999657154083
v 0.024091999977827072 -0.14031000435352325 0.024467000737786293
v 0.024654999375343323 -0.1385989934206009 0.024992000311613083
v 0.024896999821066856 -0.13511499762535095 0.024563999846577644
v 0.02583100087940693 -0.13730399310588837 0.02429099939763546
v 0.02131599932909012 -0.14176400005817413 0.022257000207901
v 0.022622000426054 -0.13360799849033356 0.02400200068950653
v 0.004745999816805124 -0.11291900277137756 0.016313999891281128
v 0.012388999573886395 -0.12122999876737595 0.024483000859618187
v 0.009170999750494957 -0.11249300092458725 0.026386000216007233
v 0.003926999866962433 -0.11146999895572662 0.022659000009298325
v 0.007656999863684177 -0.11350700259208679 0.014293000102043152
v 0.02029000036418438 -0.13896100223064423 0.015212999656796455
v 0.018720999360084534 -0.13469499349594116 0.015706000849604607
v 0.02042900025844574 -0.14101600646972656 0.01608400046825409
v 0.021733000874519348 -0.14217300713062286 0.017163999378681183
v 0.021424999460577965 -0.14157600700855255 0.019555000588297844
v 0.012138999998569489 -0.11507199704647064 0.02532999962568283
v 0.014007000252604485 -0.11758799850940704 0.024222999811172485
v 0.015407999977469444 -0.12053799629211426 0.023159999400377274
v 0.02132599987089634 -0.13324500620365143 0.02167999930679798
v 0.02402699925005436 -0.14117099344730377 0.02313699945807457
v 0.02575399912893772 -0.13830099999904633 0.024097999557852745
v 0.024862000718712807 -0.14027200639247894 0.023528000339865685
v 0.0251499991863966 -0.13552899658679962 0.021984999999403954
v 0.026019999757409096 -0.13759499788284302 0.021987000480294228
v 0.023845000192523003 -0.14112700521945953 0.020448999479413033
v 0.023182999342679977 -0.1339150071144104 0.022028999403119087
v 0.002022000029683113 -0.10764200240373611 0.021911999210715294
v 0.0024349999148398638 -0.10790999978780746 0.015799999237060547
v 0.0029070000164210796 -0.10632699728012085 0.01381400041282177
v 0.010243000462651253 -0.1123809963464737 0.026277000084519386
v 0.003498000092804432 -0.10886699706315994 0.02520200051367283
v 0.0075079998932778835 -0.10758999735116959 0.028663000091910362
v 0.009279999881982803 -0.11077599972486496 0.013129999861121178
v 0.010925999842584133 -0.11319799721240997 0.01372199971228838
v 0.007679999805986881 -0.10874699801206589 0.012306000106036663
v 0.017625000327825546 -0.12864600121974945 0.015639999881386757
v 0.021436000242829323 -0.13645699620246887 0.014316000044345856
v 0.022187000140547752 -0.13619600236415863 0.014120000414550304
v 0.024475999176502228 -0.139832004904747 0.014173000119626522
v 0.021608000621199608 -0.14098000526428223 0.015011999756097794
v 0.024170000106096268 -0.13736100494861603 0.013868000358343124
v 0.02463199943304062 -0.13813899457454681 0.013873999938368797
v 0.020313000306487083 -0.13390900194644928 0.015893999487161636
v 0.02207300066947937 -0.1345759928226471 0.014888999983668327
v 0.021762000396847725 -0.14200900495052338 0.015819000080227852
v 0.023739999160170555 -0.14179900288581848 0.015567000024020672
v 0.023708000779151917 -0.1410129964351654 0.019658999517560005
v 0.012527000159025192 -0.10983700305223465 0.024651000276207924
v 0.012036999687552452 -0.11229400336742401 0.01600099913775921
v 0.01667499914765358 -0.12300299853086472 0.02019600011408329
v 0.021250000223517418 -0.1334719955921173 0.019610000774264336
v 0.02585200034081936 -0.1384429931640625 0.02176699973642826
v 0.025102000683546066 -0.13678699731826782 0.019480999559164047
v 0.025383999571204185 -0.13773700594902039 0.019497999921441078
v 0.024450000375509262 -0.14024999737739563 0.019626999273896217
v 0.0017320000333711505 -0.10558000206947327 0.018893999978899956
v 0.0017729999963194132 -0.10551399737596512 0.0213639996945858
v 0.003938999958336353 -0.10360900312662125 0.026719000190496445
v 0.004139000084251165 -0.10395299643278122 0.012307999655604362
v 0.0023060000967234373 -0.10411600023508072 0.014897000044584274
v 0.009959000162780285 -0.10713200271129608 0.028302999213337898
v 0.010824000462889671 -0.10726899653673172 0.027563000097870827
v 0.0043390002101659775 -0.10519800335168839 0.02730800025165081
v 0.0081599997356534 -0.10505200177431107 0.028649000450968742
v 0.006752000190317631 -0.1052670031785965 0.028873000293970108
v 0.010463000275194645 -0.11157800257205963 0.01360000018030405
v 0.004898999817669392 -0.10334999859333038 0.012218999676406384
v 0.009007999673485756 -0.10520800203084946 0.012403000146150589
v 0.021190999075770378 -0.133432999253273 0.017330000177025795
v 0.024176999926567078 -0.13590799272060394 0.014576000161468983
v 0.025054000318050385 -0.1402129977941513 0.014894999563694
v 0.025471000000834465 -0.13809099793434143 0.014562999829649925
v 0.022644000127911568 -0.13421300053596497 0.017013000324368477
v 0.02448900043964386 -0.13542500138282776 0.016836000606417656
v 0.025560999289155006 -0.13987399637699127 0.017278000712394714
v 0.011648000217974186 -0.10184399783611298 0.02441300079226494
v 0.010762999765574932 -0.10456400364637375 0.013566000387072563
v 0.025894999504089355 -0.13769200444221497 0.01709599979221821
v 0.0035910001024603844 -0.10251999646425247 0.013458999805152416
v 0.00710699986666441 -0.1022460013628006 0.018880000337958336
v 0.004184000194072723 -0.10245300084352493 0.02513200044631958
v 0.005843999795615673 -0.10153800249099731 0.026461999863386154
v 0.006074000149965286 -0.10256999731063843 0.02795800007879734
v 0.010583999566733837 -0.10598400235176086 0.0278290007263422
v 0.00860000029206276 -0.10266199707984924 0.02784699946641922
v 0.010418999940156937 -0.10239499807357788 0.02672700025141239
v 0.00520200002938509 -0.10178899765014648 0.013284999877214432
v 0.007970999926328659 -0.10256099700927734 0.012860000133514404
v 0.009758000262081623 -0.10259900242090225 0.013867000117897987
v 0.01013800036162138 -0.1005299985408783 0.023351000621914864
v 0.008453000336885452 -0.10138799995183945 0.014870000071823597
v 0.00796900037676096 -0.10106399655342102 0.026443000882864
v 0.007687999866902828 -0.10098099708557129 0.015699999406933784
v 0.007162999827414751 -0.10141599923372269 0.013883999548852444
f 1 2 3
f 4 5 1
f 3 6 1
f 7 1 6
f 2 1 5
f 1 7 4
f 8 2 9
f 3 2 8
f 10 9 2
f 2 5 10
f 11 3 8
f 3 11 6
f 4 7 12
f 4 12 13
f 13 14 4
f 5 4 14
f 5 14 15
f 5 16 10
f 15 16 5
f 6 17 7
f 17 6 18
f 19 18 6
f 20 19 6
f 11 20 6
f 12 7 17
f 9 21 8
f 21 22 8
f 22 23 8
f 11 8 24
f 8 25 24
f 25 8 23
f 21 9 26
f 9 10 26
f 26 10 16
f 27 20 11
f 24 27 11
f 12 28 13
f 29 12 17
f 12 29 30
f 12 30 31
f 28 12 31
f 32 14 13
f 13 28 32
f 14 33 15
f 34 14 32
f 35 15 33
f 35 16 15
f 36 16 35
f 26 16 37
f 37 16 36
f 17 38 29
f 18 38 17
f 18 39 38
f 19 40 18
f 40 39 18
f 19 20 27
f 19 41 40
f 19 27 41
f 42 21 26
f 42 22 21
f 22 43 23
f 22 42 44
f 43 22 44
f 23 43 25
f 24 25 45
f 27 24 45
f 46 45 25
f 25 43 46
f 26 47 42
f 37 47 26
f 27 45 48
f 48 41 27
f 49 28 31
f 50 28 49
f 28 50 51
f 32 28 51
f 30 29 38
f 38 52 30
f 30 53 31
f 52 54 30
f 30 54 53
f 53 49 31
f 32 55 56
f 32 51 57
f 57 55 32
f 32 58 34
f 56 58 32
f 33 59 60
f 61 62 33
f 33 62 35
f 63 33 60
f 64 33 63
f 64 61 33
f 33 34 59
f 58 65 34
f 66 34 65
f 60 59 34
f 66 60 34
f 35 67 36
f 62 67 35
f 67 68 36
f 68 37 36
f 69 37 68
f 69 47 37
f 70 52 38
f 38 39 70
f 40 70 39
f 71 70 40
f 72 71 40
f 40 41 72
f 72 41 73
f 41 48 73
f 44 42 47
f 43 44 74
f 74 46 43
f 74 44 47
f 45 75 48
f 75 45 46
f 75 46 76
f 46 74 76
f 47 77 74
f 47 69 77
f 73 48 75
f 78 50 49
f 79 78 49
f 49 80 79
f 80 49 53
f 51 50 78
f 51 81 57
f 78 82 51
f 81 51 82
f 54 52 83
f 84 52 70
f 83 52 84
f 80 53 85
f 53 54 85
f 86 54 83
f 87 85 54
f 87 54 86
f 88 56 55
f 88 55 57
f 58 56 71
f 71 56 88
f 89 57 81
f 90 88 57
f 89 90 57
f 72 91 58
f 65 58 91
f 71 72 58
f 63 60 92
f 66 92 60
f 61 68 67
f 62 61 67
f 64 93 61
f 93 68 61
f 92 64 63
f 64 94 93
f 92 94 64
f 91 95 65
f 66 65 95
f 92 66 96
f 66 95 96
f 69 68 77
f 68 97 77
f 93 97 68
f 70 98 84
f 71 99 70
f 99 98 70
f 99 71 88
f 91 72 73
f 73 75 96
f 95 73 96
f 95 91 73
f 77 76 74
f 96 75 100
f 76 100 75
f 76 77 97
f 76 97 100
f 101 82 78
f 79 102 78
f 101 78 102
f 79 103 102
f 103 79 80
f 80 104 103
f 105 104 80
f 105 80 85
f 101 81 82
f 81 101 89
f 84 106 83
f 86 83 106
f 106 84 98
f 85 87 105
f 86 107 87
f 106 108 86
f 107 86 108
f 107 105 87
f 90 99 88
f 89 101 109
f 90 89 110
f 89 109 110
f 110 111 90
f 99 90 111
f 94 92 100
f 92 96 100
f 93 94 97
f 97 94 100
f 112 98 113
f 111 113 98
f 111 98 99
f 108 106 98
f 108 98 114
f 112 114 98
f 109 101 102
f 112 102 104
f 102 103 104
f 115 109 102
f 102 112 115
f 114 104 105
f 104 114 112
f 107 114 105
f 107 108 114
f 116 110 109
f 109 115 116
f 111 110 116
f 111 116 113
f 112 113 115
f 113 116 115
