# Generated by Visualization Toolkit
v 0.037679001688957214 -0.1580680012702942 -0.018509000539779663
v 0.039684001356363297 -0.16033199429512024 -0.01776999980211258
v 0.03930800035595894 -0.1601880043745041 -0.01653200015425682
v 0.03676899895071983 -0.1569720059633255 -0.017892999574542046
v 0.04243500158190727 -0.15743400156497955 -0.019592000171542168
v 0.038346998393535614 -0.15556000173091888 -0.01981700025498867
v 0.036986999213695526 -0.15563400089740753 -0.019238000735640526
v 0.04108000174164772 -0.16066999733448029 -0.017854999750852585
v 0.04064000025391579 -0.16088099777698517 -0.016551999375224113
v 0.03720699995756149 -0.15757399797439575 -0.014793000183999538
v 0.039788998663425446 -0.15961800515651703 -0.011345000006258488
v 0.03996500000357628 -0.1601559966802597 -0.013400999829173088
v 0.03475100174546242 -0.15511499345302582 -0.01761999912559986
v 0.032628998160362244 -0.15336400270462036 -0.0149959996342659
v 0.04243199899792671 -0.1599150002002716 -0.018293999135494232
v 0.042819999158382416 -0.15881100296974182 -0.018926000222563744
v 0.039746999740600586 -0.1556520015001297 -0.020090999081730843
v 0.041335999965667725 -0.15632599592208862 -0.01996699906885624
v 0.04146600142121315 -0.15529799461364746 -0.019619999453425407
v 0.04298799857497215 -0.15671099722385406 -0.01896500028669834
v 0.0378590002655983 -0.1546030044555664 -0.018921000882983208
v 0.03916899859905243 -0.15444399416446686 -0.019321000203490257
v 0.03670800104737282 -0.1534699946641922 -0.01929900050163269
v 0.03561900183558464 -0.15436699986457825 -0.01918400079011917
v 0.04290800169110298 -0.1598760038614273 -0.017364000901579857
v 0.0406000018119812 -0.16040000319480896 -0.014138000085949898
v 0.042649999260902405 -0.15912599861621857 -0.014523999765515327
v 0.03667299821972847 -0.1561959981918335 -0.013119000010192394
v 0.041039999574422836 -0.1600620001554489 -0.011006000451743603
v 0.03860900178551674 -0.15656700730323792 -0.011095999740064144
v 0.03764199838042259 -0.1568010002374649 -0.011760000139474869
v 0.04058000072836876 -0.15921300649642944 -0.010611999779939651
v 0.041131000965833664 -0.16039499640464783 -0.012107999995350838
v 0.028562000021338463 -0.14936499297618866 -0.015494000166654587
v 0.028725000098347664 -0.14863499999046326 -0.020907999947667122
v 0.032962001860141754 -0.15165500342845917 -0.020145000889897346
v 0.031092999503016472 -0.1494089961051941 -0.02137799933552742
v 0.03660999983549118 -0.15518799424171448 -0.012330000288784504
v 0.033362001180648804 -0.15231099724769592 -0.013106999918818474
v 0.02779800072312355 -0.14837199449539185 -0.0147299999371171
v 0.031567998230457306 -0.1501930058002472 -0.012814999558031559
v 0.02686299942433834 -0.14600299298763275 -0.013318000361323357
v 0.043441999703645706 -0.1581210047006607 -0.018268000334501266
v 0.04170899838209152 -0.15520000457763672 -0.01746400073170662
v 0.04314199835062027 -0.1565520018339157 -0.017111999914050102
v 0.03810799866914749 -0.1540829986333847 -0.017504999414086342
v 0.04133100062608719 -0.1552090048789978 -0.015312000177800655
v 0.03520200029015541 -0.15168499946594238 -0.01961500011384487
v 0.03425300121307373 -0.15010300278663635 -0.01728999987244606
v 0.034890998154878616 -0.15218600630760193 -0.019927000626921654
v 0.04340999945998192 -0.1579110026359558 -0.016459999606013298
v 0.04261799901723862 -0.15956999361515045 -0.01267900038510561
v 0.042812999337911606 -0.15713000297546387 -0.01487400010228157
v 0.043400999158620834 -0.15773199498653412 -0.012760999612510204
v 0.03768699988722801 -0.1553570032119751 -0.0115769999101758
v 0.042305998504161835 -0.15926100313663483 -0.010722000151872635
v 0.03860500082373619 -0.15594300627708435 -0.010995999909937382
v 0.0403750017285347 -0.15711399912834167 -0.011003999970853329
v 0.042417000979185104 -0.15749700367450714 -0.010231999680399895
v 0.02319199964404106 -0.14534500241279602 -0.01617800071835518
v 0.023068999871611595 -0.14548499882221222 -0.017193999141454697
v 0.023729000240564346 -0.14517299830913544 -0.022050999104976654
v 0.0293940007686615 -0.1463800072669983 -0.023327000439167023
v 0.026859000325202942 -0.14694499969482422 -0.022644000127911568
v 0.03206900134682655 -0.14892999827861786 -0.02139499969780445
v 0.036910999566316605 -0.15438899397850037 -0.012407000176608562
v 0.036118000745773315 -0.15291200578212738 -0.01291900034993887
v 0.03236600011587143 -0.14900599420070648 -0.012949000112712383
v 0.023757999762892723 -0.14396800100803375 -0.013873999938368797
v 0.02519400045275688 -0.14358699321746826 -0.012764000333845615
v 0.027854999527335167 -0.1451359987258911 -0.012906000018119812
v 0.029729999601840973 -0.14586800336837769 -0.013123000040650368
v 0.037863001227378845 -0.1537030041217804 -0.013907999731600285
v 0.04093800112605095 -0.1545889973640442 -0.013224000111222267
v 0.04286700114607811 -0.1560090035200119 -0.013044999912381172
v 0.03258400037884712 -0.14816200733184814 -0.02063100039958954
v 0.04288800060749054 -0.1569100022315979 -0.010758000425994396
v 0.04300199821591377 -0.15777599811553955 -0.010688000358641148
v 0.03975899890065193 -0.15439000725746155 -0.011459000408649445
v 0.0372139997780323 -0.15379400551319122 -0.012773999944329262
v 0.04067299887537956 -0.15533800423145294 -0.010595999658107758
v 0.04191099852323532 -0.15620699524879456 -0.010312999598681927
v 0.021865999326109886 -0.14345699548721313 -0.016808999702334404
v 0.02187200076878071 -0.14391399919986725 -0.019432000815868378
v 0.026037000119686127 -0.14565500617027283 -0.024229999631643295
v 0.023646999150514603 -0.1439639925956726 -0.022700000554323196
v 0.024325000122189522 -0.14392000436782837 -0.02406799979507923
v 0.02740499936044216 -0.1450670063495636 -0.02490299940109253
v 0.02818799950182438 -0.14301900565624237 -0.025384999811649323
v 0.030616000294685364 -0.14496299624443054 -0.022276999428868294
v 0.02922699972987175 -0.14254899322986603 -0.024661999195814133
v 0.02988399937748909 -0.14408600330352783 -0.016269000247120857
v 0.022949999198317528 -0.14304399490356445 -0.014632999897003174
v 0.024217000231146812 -0.14216099679470062 -0.013063999824225903
v 0.026189999654889107 -0.14268800616264343 -0.012640000320971012
v 0.028873000293970108 -0.14444300532341003 -0.013265999965369701
v 0.04078200086951256 -0.15471400320529938 -0.011260000057518482
v 0.04257600009441376 -0.1560630053281784 -0.010859999805688858
v 0.023446999490261078 -0.1429470032453537 -0.015448999591171741
v 0.023719999939203262 -0.14354999363422394 -0.01936200074851513
v 0.026593999937176704 -0.14390599727630615 -0.025498999282717705
v 0.025147000327706337 -0.1432269960641861 -0.024958999827504158
v 0.02652299962937832 -0.14162799715995789 -0.02493100054562092
v 0.027219999581575394 -0.14047999680042267 -0.023269999772310257
v 0.025784000754356384 -0.1425590068101883 -0.019550999626517296
v 0.026643000543117523 -0.14157600700855255 -0.019504999741911888
v 0.027132999151945114 -0.14114899933338165 -0.02064099907875061
v 0.025064999237656593 -0.1428530067205429 -0.02439899928867817
v 0.02483999915421009 -0.14306600391864777 -0.01923000067472458
v 0.02687700092792511 -0.1423410028219223 -0.02574699930846691
v 0.02708500064909458 -0.1429630070924759 -0.02566399984061718
v 0.02903199940919876 -0.140407994389534 -0.022895000874996185
v 0.028511999174952507 -0.14130200445652008 -0.024647999554872513
v 0.02840700000524521 -0.14115199446678162 -0.014379999600350857
v 0.025756999850273132 -0.14164899289608002 -0.016178999096155167
v 0.024907000362873077 -0.1409820020198822 -0.013500000350177288
v 0.027383999899029732 -0.14163899421691895 -0.013214999809861183
v 0.024612000212073326 -0.14328500628471375 -0.018206000328063965
v 0.025940999388694763 -0.14214499294757843 -0.017868999391794205
v 0.02606000006198883 -0.14263099431991577 -0.025661999359726906
v 0.027187999337911606 -0.14040400087833405 -0.024349000304937363
v 0.027615999802947044 -0.14012999832630157 -0.02371099963784218
v 0.02773600071668625 -0.13950400054454803 -0.022474000230431557
v 0.02599100023508072 -0.14201100170612335 -0.01908300071954727
v 0.025647999718785286 -0.14263099431991577 -0.018709000200033188
v 0.027091000229120255 -0.14037300646305084 -0.020114999264478683
v 0.026794999837875366 -0.14008399844169617 -0.01912900060415268
v 0.026528000831604004 -0.14157499372959137 -0.018695000559091568
v 0.02741999924182892 -0.13914600014686584 -0.020831000059843063
v 0.026287000626325607 -0.1402300000190735 -0.013957999646663666
v 0.026623999699950218 -0.1394760012626648 -0.015273000113666058
v 0.02578200027346611 -0.13995400071144104 -0.014289000071585178
v 0.026466000825166702 -0.13987299799919128 -0.01594099961221218
v 0.02672399953007698 -0.14110800623893738 -0.01787699945271015
f 1 2 3
f 1 3 4
f 2 1 5
f 6 1 7
f 5 1 6
f 7 1 4
f 3 2 8
f 2 5 8
f 8 9 3
f 10 4 3
f 10 3 11
f 3 12 11
f 12 3 9
f 13 4 14
f 7 4 13
f 4 10 14
f 5 15 8
f 5 16 15
f 5 17 18
f 5 6 17
f 18 19 5
f 19 20 5
f 16 5 20
f 7 21 6
f 22 6 21
f 17 6 22
f 7 23 21
f 24 7 13
f 23 7 24
f 9 8 25
f 8 15 25
f 12 9 26
f 9 27 26
f 9 25 27
f 14 10 28
f 11 28 10
f 11 12 29
f 30 31 11
f 11 32 30
f 11 29 32
f 11 31 28
f 29 12 33
f 26 33 12
f 34 13 14
f 34 35 13
f 13 36 24
f 13 37 36
f 37 13 35
f 14 38 39
f 34 14 40
f 41 14 39
f 14 41 42
f 40 14 42
f 38 14 28
f 25 15 43
f 15 16 43
f 16 20 43
f 19 18 17
f 22 19 17
f 44 20 19
f 22 44 19
f 20 44 45
f 45 43 20
f 23 46 21
f 46 22 21
f 47 22 46
f 22 47 44
f 23 48 49
f 46 23 49
f 23 50 48
f 24 50 23
f 50 24 36
f 25 43 51
f 51 27 25
f 52 26 27
f 33 26 52
f 53 27 51
f 53 54 27
f 54 52 27
f 28 31 55
f 55 38 28
f 33 56 29
f 56 32 29
f 30 55 31
f 57 55 30
f 57 30 58
f 30 32 58
f 32 59 58
f 56 59 32
f 56 33 52
f 60 34 40
f 34 61 62
f 34 62 35
f 60 61 34
f 63 35 64
f 37 35 63
f 35 62 64
f 37 50 36
f 37 65 50
f 37 63 65
f 38 66 39
f 38 55 66
f 39 66 67
f 67 41 39
f 42 60 40
f 41 67 68
f 41 68 42
f 60 42 69
f 69 42 70
f 71 70 42
f 72 71 42
f 68 72 42
f 43 45 51
f 53 44 47
f 44 53 45
f 53 51 45
f 46 49 73
f 74 47 46
f 46 73 74
f 47 75 53
f 75 47 74
f 76 49 48
f 48 65 76
f 50 65 48
f 49 68 67
f 67 73 49
f 76 68 49
f 56 52 54
f 53 75 54
f 54 77 78
f 75 77 54
f 56 54 78
f 55 79 80
f 66 55 80
f 55 57 81
f 55 81 79
f 56 78 59
f 81 57 58
f 81 58 82
f 58 59 82
f 59 77 82
f 77 59 78
f 61 60 83
f 83 60 69
f 84 62 61
f 83 84 61
f 62 85 64
f 84 86 62
f 62 86 87
f 85 62 87
f 64 88 63
f 89 63 88
f 76 65 63
f 63 90 76
f 90 63 91
f 91 63 89
f 88 64 85
f 66 80 67
f 73 67 80
f 90 68 76
f 72 68 92
f 90 92 68
f 93 69 94
f 69 93 83
f 69 70 94
f 70 71 95
f 95 94 70
f 96 95 71
f 71 72 96
f 72 92 96
f 80 74 73
f 75 74 97
f 74 80 79
f 74 79 97
f 98 77 75
f 75 97 98
f 77 98 82
f 81 97 79
f 98 81 82
f 81 98 97
f 83 99 84
f 83 93 99
f 84 100 86
f 100 84 99
f 85 87 101
f 85 101 88
f 87 86 102
f 103 86 104
f 86 105 106
f 86 106 107
f 102 86 108
f 108 86 103
f 86 100 109
f 86 107 104
f 105 86 109
f 102 101 87
f 89 88 101
f 110 89 111
f 111 89 101
f 91 89 110
f 92 90 112
f 112 90 91
f 91 113 112
f 113 91 110
f 92 112 114
f 96 92 114
f 94 115 93
f 99 93 115
f 94 95 116
f 94 116 115
f 95 96 117
f 95 117 116
f 96 114 117
f 100 99 118
f 118 99 119
f 99 115 119
f 100 118 109
f 101 120 111
f 102 120 101
f 108 120 102
f 121 103 104
f 120 108 103
f 103 110 120
f 103 121 110
f 122 104 123
f 104 122 121
f 123 104 107
f 124 106 105
f 105 109 118
f 118 125 105
f 124 105 125
f 106 126 107
f 106 127 126
f 127 106 128
f 124 128 106
f 107 126 129
f 107 129 123
f 111 120 110
f 121 113 110
f 112 129 114
f 129 112 123
f 122 112 113
f 112 122 123
f 113 121 122
f 117 114 130
f 131 130 114
f 129 131 114
f 115 116 132
f 115 131 133
f 115 132 131
f 134 115 133
f 119 115 134
f 130 132 116
f 116 117 130
f 125 118 119
f 119 134 128
f 124 125 119
f 124 119 128
f 126 127 129
f 127 133 129
f 127 134 133
f 128 134 127
f 133 131 129
f 132 130 131
