# Generated by Visualization Toolkit
v 0.07691799849271774 -0.003002000041306019 0.015495000407099724
v 0.07310699671506882 -0.003002000041306019 0.010835999622941017
v 0.06532099843025208 -0.003002000041306019 0.008147000335156918
v 0.0648450031876564 -0.003002000041306019 0.012039000168442726
v 0.059415001422166824 -0.003002000041306019 0.010458000004291534
v 0.05330299958586693 -0.003002000041306019 0.005950000137090683
v 0.05084900185465813 -0.003002000041306019 0.009936000220477581
v 0.05274700000882149 -0.003002000041306019 0.019757000729441643
v 0.07419200241565704 -0.0015589999966323376 0.012277999892830849
v 0.0665540024638176 -0.0006769999745301902 0.011366000398993492
v 0.06251099705696106 -0.0011980000417679548 0.013414000160992146
v 0.05719500035047531 0.00008399999933317304 0.011064999736845493
v 0.05237499997019768 0.0006040000007487833 0.010579999536275864
v 0.05115199834108353 0.00008399999933317304 0.012130999937653542
v 0.07542899996042252 -0.001057000015862286 0.014580000191926956
v 0.06793499737977982 -0.0002789999998640269 0.015432000160217285
v 0.06049500033259392 -0.000018999999156221747 0.016587000340223312
v 0.055688001215457916 0.002833999926224351 0.01570899970829487
v 0.05178000032901764 0.0016659999964758754 0.017102999612689018
v 0.051927000284194946 0.0017960000550374389 0.01699800044298172
v 0.07583100348711014 -0.001057000015862286 0.01686299964785576
v 0.06849800050258636 -0.0002789999998640269 0.018626999109983444
v 0.06111200153827667 -0.000018999999156221747 0.020085999742150307
v 0.056894998997449875 0.002833999926224351 0.022554999217391014
v 0.0527460016310215 0.0016659999964758754 0.02258099988102913
v 0.05291999876499176 0.0017960000550374389 0.022628000006079674
v 0.07596699893474579 -0.0016789999790489674 0.019051000475883484
v 0.07068900018930435 -0.0010389999952167273 0.021624000743031502
v 0.06373800337314606 -0.001639000023715198 0.021310999989509583
v 0.059369999915361404 -0.0007570000016130507 0.02433899976313114
v 0.05514900013804436 -0.00027600000612437725 0.026316000148653984
v 0.05343199893832207 -0.0005169999785721302 0.026002999395132065
v 0.0759269967675209 -0.003002000041306019 0.020238999277353287
v 0.07265599817037582 -0.003002000041306019 0.023353999480605125
v 0.06595499813556671 -0.003002000041306019 0.02022000029683113
v 0.060958001762628555 -0.003002000041306019 0.021100999787449837
v 0.05703600123524666 -0.003002000041306019 0.02712400071322918
v 0.053348999470472336 -0.003002000041306019 0.025996999815106392
v 0.07521399855613708 -0.004443999845534563 0.019492000341415405
v 0.07031399756669998 -0.0057669999077916145 0.02374500036239624
v 0.06661999970674515 -0.00432500010356307 0.020698999986052513
v 0.0615059994161129 -0.004604999907314777 0.02232000045478344
v 0.05749699845910072 -0.00648800004273653 0.027853000909090042
v 0.053449999541044235 -0.005526999942958355 0.02610200084745884
v 0.07425999641418457 -0.0053369998931884766 0.017376000061631203
v 0.06731600314378738 -0.008320000022649765 0.0204050000756979
v 0.06689999997615814 -0.0058559998869895935 0.01898599974811077
v 0.06151600182056427 -0.006763000041246414 0.020486000925302505
v 0.05702900141477585 -0.010134999640285969 0.023315999656915665
v 0.05293399840593338 -0.007930000312626362 0.022704999893903732
v 0.07377699762582779 -0.0053369998931884766 0.014636999927461147
v 0.06621599942445755 -0.008320000022649765 0.014165000058710575
v 0.06631000339984894 -0.0058559998869895935 0.01563899964094162
v 0.06073800101876259 -0.006763000041246414 0.01607299968600273
v 0.055553000420331955 -0.010134999640285969 0.014946999959647655
v 0.051913999021053314 -0.007930000312626362 0.0169220007956028
v 0.07333400100469589 -0.00456500006839633 0.012121999636292458
v 0.06547799706459045 -0.006128000095486641 0.00950200017541647
v 0.06543000042438507 -0.004765999969094992 0.013003000058233738
v 0.05989399924874306 -0.005446999799460173 0.012232000008225441
v 0.054055001586675644 -0.007369999773800373 0.008333000354468822
v 0.051134999841451645 -0.006128000095486641 0.01203100010752678
v 0.07132499665021896 -0.003002000041306019 -0.013206000439822674
v 0.07006700336933136 -0.003002000041306019 -0.01474399957805872
v 0.06749799847602844 -0.003002000041306019 -0.015630999580025673
v 0.06734099984169006 -0.003002000041306019 -0.014347000047564507
v 0.06554900109767914 -0.003002000041306019 -0.014867999590933323
v 0.06353200227022171 -0.003002000041306019 -0.016356000676751137
v 0.06272199749946594 -0.003002000041306019 -0.015041000209748745
v 0.06334800273180008 -0.003002000041306019 -0.011800000444054604
v 0.07042499631643295 -0.0025259999092668295 -0.014267999678850174
v 0.0679050013422966 -0.0022350000217556953 -0.014569000340998173
v 0.06657099723815918 -0.0024059999268501997 -0.013892999850213528
v 0.06481599807739258 -0.0019839999731630087 -0.014667999930679798
v 0.06322599947452545 -0.0018119999440386891 -0.014826999977231026
v 0.06282199919223785 -0.0019839999731630087 -0.014317000284790993
v 0.0708329975605011 -0.002360000042244792 -0.013507000170648098
v 0.06836099922657013 -0.002102999947965145 -0.013226999901235104
v 0.06590499728918076 -0.0020169999916106462 -0.012846999801695347
v 0.06431899964809418 -0.0010770000517368317 -0.013135000132024288
v 0.06302899867296219 -0.0014609999489039183 -0.012675999663770199
v 0.06307800114154816 -0.0014189999783411622 -0.01271000038832426
v 0.07096599787473679 -0.002360000042244792 -0.012755000032484531
v 0.06854599714279175 -0.002102999947965145 -0.012172999791800976
v 0.06610900163650513 -0.0020169999916106462 -0.011691000312566757
v 0.06471700221300125 -0.0010770000517368317 -0.010875999927520752
v 0.06334800273180008 -0.0014609999489039183 -0.010866999626159668
v 0.06340599805116653 -0.0014189999783411622 -0.010851999744772911
v 0.0710109993815422 -0.0025659999810159206 -0.012032999657094479
v 0.06926900148391724 -0.0023539999965578318 -0.011183000169694424
v 0.06697499752044678 -0.002552000107243657 -0.011288000270724297
v 0.06553400307893753 -0.0022619999945163727 -0.010288000106811523
v 0.06414099782705307 -0.002102999947965145 -0.009634999558329582
v 0.06357499957084656 -0.002182000083848834 -0.009739000350236893
v 0.07099799811840057 -0.003002000041306019 -0.011641999706625938
v 0.06991799920797348 -0.003002000041306019 -0.010613000020384789
v 0.06770700216293335 -0.003002000041306019 -0.011646999977529049
v 0.06605800241231918 -0.003002000041306019 -0.011355999857187271
v 0.06476400047540665 -0.003002000041306019 -0.009368999861180782
v 0.06354700028896332 -0.003002000041306019 -0.009739999659359455
v 0.070762999355793 -0.0034779999405145645 -0.011886999942362309
v 0.06914599984884262 -0.003914999775588512 -0.010483000427484512
v 0.06792700290679932 -0.0034390001092106104 -0.011489000171422958
v 0.06623899936676025 -0.0035310001112520695 -0.010954000055789948
v 0.06491599977016449 -0.004153000190854073 -0.009127000346779823
v 0.0635799989104271 -0.0038350000977516174 -0.009705999866127968
v 0.07044800370931625 -0.003773000091314316 -0.01258500013500452
v 0.06815599650144577 -0.004757000133395195 -0.011586000211536884
v 0.06801900267601013 -0.003944000229239464 -0.01205500029027462
v 0.06624200195074081 -0.004242999944835901 -0.011559000238776207
v 0.06476200371980667 -0.005355999805033207 -0.010625000111758709
v 0.06340999901294708 -0.004627999849617481 -0.010827000252902508
v 0.07028800249099731 -0.003773000091314316 -0.01348899956792593
v 0.06779299676418304 -0.004757000133395195 -0.013646000064909458
v 0.06782399863004684 -0.003944000229239464 -0.013159000314772129
v 0.06598500162363052 -0.004242999944835901 -0.013016000390052795
v 0.06427499651908875 -0.005355999805033207 -0.013388000428676605
v 0.06307400017976761 -0.004627999849617481 -0.012734999880194664
v 0.07014200091362 -0.0035180000122636557 -0.01432000007480383
v 0.06755000352859497 -0.004033000208437443 -0.015184000134468079
v 0.06753399968147278 -0.0035840000491589308 -0.014028999954462051
v 0.0657069981098175 -0.0038079998921602964 -0.01428299956023693
v 0.06378000229597092 -0.004443000070750713 -0.015569999814033508
v 0.06281699985265732 -0.004033000208437443 -0.014348999597132206
v 0.05065400153398514 -0.003002000041306019 -0.026062000542879105
v 0.04939600080251694 -0.003002000041306019 -0.02759999968111515
v 0.04682699963450432 -0.003002000041306019 -0.02848700061440468
v 0.04666899889707565 -0.003002000041306019 -0.027202000841498375
v 0.04487700015306473 -0.003002000041306019 -0.027723999693989754
v 0.0428600013256073 -0.003002000041306019 -0.029211999848484993
v 0.04205099865794182 -0.003002000041306019 -0.02789600007236004
v 0.04267700016498566 -0.003002000041306019 -0.024654999375343323
v 0.04975400120019913 -0.0025259999092668295 -0.027123000472784042
v 0.04723300039768219 -0.0022350000217556953 -0.027425000444054604
v 0.04589900001883507 -0.0024059999268501997 -0.02674899995326996
v 0.044144999235868454 -0.0019839999731630087 -0.02752400003373623
v 0.04255399852991104 -0.0018119999440386891 -0.02768399938941002
v 0.04215100035071373 -0.0019839999731630087 -0.027171999216079712
v 0.050161998718976974 -0.002360000042244792 -0.026364000514149666
v 0.04768899828195572 -0.002102999947965145 -0.026083000004291534
v 0.04523399844765663 -0.0020169999916106462 -0.02570199966430664
v 0.04364699870347977 -0.0010770000517368317 -0.025992000475525856
v 0.042357999831438065 -0.0014609999489039183 -0.025530999526381493
v 0.042406998574733734 -0.0014189999783411622 -0.02556600049138069
v 0.05029499903321266 -0.002360000042244792 -0.025611000135540962
v 0.047874998301267624 -0.002102999947965145 -0.025028999894857407
v 0.045437999069690704 -0.0020169999916106462 -0.024546999484300613
v 0.04404599964618683 -0.0010770000517368317 -0.023731999099254608
v 0.04267700016498566 -0.0014609999489039183 -0.023723000660538673
v 0.04273400083184242 -0.0014189999783411622 -0.023708000779151917
v 0.05034000054001808 -0.0025659999810159206 -0.02488899976015091
v 0.048597998917102814 -0.0023539999965578318 -0.024039000272750854
v 0.04630399867892265 -0.002552000107243657 -0.024142000824213028
v 0.04486300051212311 -0.0022619999945163727 -0.023143000900745392
v 0.043469998985528946 -0.002102999947965145 -0.022491000592708588
v 0.04290299862623215 -0.002182000083848834 -0.022593999281525612
v 0.05032699927687645 -0.003002000041306019 -0.02449600026011467
v 0.049247000366449356 -0.003002000041306019 -0.023468000814318657
v 0.04703599959611893 -0.003002000041306019 -0.02450300008058548
v 0.04538699984550476 -0.003002000041306019 -0.024212000891566277
v 0.04409300163388252 -0.003002000041306019 -0.022223999723792076
v 0.04287499934434891 -0.003002000041306019 -0.022597000002861023
v 0.05009099841117859 -0.0034779999405145645 -0.02474300004541874
v 0.04847399890422821 -0.003914999775588512 -0.023339999839663506
v 0.04725499823689461 -0.0034390001092106104 -0.024344999343156815
v 0.04556800052523613 -0.0035310001112520695 -0.023809999227523804
v 0.044245000928640366 -0.004153000190854073 -0.021983999758958817
v 0.04290900006890297 -0.0038350000977516174 -0.022562000900506973
v 0.049775999039411545 -0.003773000091314316 -0.02544100023806095
v 0.047485001385211945 -0.004757000133395195 -0.024442000314593315
v 0.04734800010919571 -0.003944000229239464 -0.02490999922156334
v 0.04557099938392639 -0.004242999944835901 -0.024414999410510063
v 0.04408999904990196 -0.005355999805033207 -0.02348100021481514
v 0.04273900017142296 -0.004627999849617481 -0.0236820001155138
v 0.04961699992418289 -0.003773000091314316 -0.02634499967098236
v 0.04712200164794922 -0.004757000133395195 -0.026499999687075615
v 0.04715299978852272 -0.003944000229239464 -0.026014000177383423
v 0.0453139990568161 -0.004242999944835901 -0.02587199956178665
v 0.04360299929976463 -0.005355999805033207 -0.026241999119520187
v 0.0424019992351532 -0.004627999849617481 -0.02559100091457367
v 0.04947099834680557 -0.0035180000122636557 -0.027174999937415123
v 0.04687799885869026 -0.004033000208437443 -0.028039000928401947
v 0.04686199873685837 -0.0035840000491589308 -0.02688400074839592
v 0.04503599926829338 -0.0038079998921602964 -0.027139000594615936
v 0.043108999729156494 -0.004443000070750713 -0.028426000848412514
v 0.04214499890804291 -0.004033000208437443 -0.027204999700188637
v 0.03429099917411804 -0.003002000041306019 -0.03967700153589249
v 0.03303299844264984 -0.003002000041306019 -0.04121499881148338
v 0.03046399913728237 -0.003002000041306019 -0.04210200160741806
v 0.030306000262498856 -0.003002000041306019 -0.040817998349666595
v 0.028514999896287918 -0.003002000041306019 -0.04134000092744827
v 0.02649799920618534 -0.003002000041306019 -0.042826998978853226
v 0.02568800002336502 -0.003002000041306019 -0.04151099920272827
v 0.02631399966776371 -0.003002000041306019 -0.03827099874615669
v 0.03339099884033203 -0.0025259999092668295 -0.040738001465797424
v 0.030869999900460243 -0.0022350000217556953 -0.041039999574422836
v 0.02953599952161312 -0.0024059999268501997 -0.04036400094628334
v 0.027782000601291656 -0.0019839999731630087 -0.04113899916410446
v 0.026190999895334244 -0.0018119999440386891 -0.04129999876022339
v 0.025787999853491783 -0.0019839999731630087 -0.04078799858689308
v 0.03379900008440018 -0.002360000042244792 -0.0399789996445179
v 0.03132599964737892 -0.002102999947965145 -0.039698000997304916
v 0.028870999813079834 -0.0020169999916106462 -0.03931799903512001
v 0.027285000309348106 -0.0010770000517368317 -0.03960699960589409
v 0.025994999334216118 -0.0014609999489039183 -0.03914799913764
v 0.026043999940156937 -0.0014189999783411622 -0.03918199986219406
v 0.033932000398635864 -0.002360000042244792 -0.039225999265909195
v 0.031511999666690826 -0.002102999947965145 -0.03864400088787079
v 0.029075000435113907 -0.0020169999916106462 -0.03816299885511398
v 0.027682999148964882 -0.0010770000517368317 -0.03734799847006798
v 0.02631399966776371 -0.0014609999489039183 -0.03734000027179718
v 0.026371000334620476 -0.0014189999783411622 -0.0373230017721653
v 0.033976998180150986 -0.0025659999810159206 -0.03850400075316429
v 0.032235000282526016 -0.0023539999965578318 -0.037654999643564224
v 0.029941000044345856 -0.002552000107243657 -0.037758998572826385
v 0.02850000001490116 -0.0022619999945163727 -0.03675900027155876
v 0.02710700035095215 -0.002102999947965145 -0.03610699996352196
v 0.02653999999165535 -0.002182000083848834 -0.03621000051498413
v 0.03396400064229965 -0.003002000041306019 -0.03811199963092804
v 0.03288400173187256 -0.003002000041306019 -0.03708399832248688
v 0.03067299909889698 -0.003002000041306019 -0.03811800107359886
v 0.029023999348282814 -0.003002000041306019 -0.0378279983997345
v 0.027729999274015427 -0.003002000041306019 -0.035840000957250595
v 0.026512999087572098 -0.003002000041306019 -0.036212000995874405
v 0.03372799977660179 -0.0034779999405145645 -0.03835900127887726
v 0.03211100026965141 -0.003914999775588512 -0.036956001073122025
v 0.030892999842762947 -0.0034390001092106104 -0.0379600003361702
v 0.029205000028014183 -0.0035310001112520695 -0.03742599859833717
v 0.02788200043141842 -0.004153000190854073 -0.03559799864888191
v 0.026545999571681023 -0.0038350000977516174 -0.03617699816823006
v 0.03341300040483475 -0.003773000091314316 -0.03905700147151947
v 0.031122000887989998 -0.004757000133395195 -0.038058001548051834
v 0.030984999611973763 -0.003944000229239464 -0.03852599859237671
v 0.029208000749349594 -0.004242999944835901 -0.03803100064396858
v 0.027727000415325165 -0.005355999805033207 -0.03709600120782852
v 0.02637599967420101 -0.004627999849617481 -0.03729800134897232
v 0.033254001289606094 -0.003773000091314316 -0.03996099904179573
v 0.030758999288082123 -0.004757000133395195 -0.040116000920534134
v 0.030789999291300774 -0.003944000229239464 -0.03963100165128708
v 0.028951000422239304 -0.004242999944835901 -0.039487000554800034
v 0.027241000905632973 -0.005355999805033207 -0.03985799849033356
v 0.0260390006005764 -0.004627999849617481 -0.03920599818229675
v 0.033107999712228775 -0.0035180000122636557 -0.04079100117087364
v 0.030515000224113464 -0.004033000208437443 -0.04165500029921532
v 0.03049900010228157 -0.0035840000491589308 -0.04050000011920929
v 0.028673000633716583 -0.0038079998921602964 -0.04075400158762932
v 0.026745999231934547 -0.004443000070750713 -0.042040999978780746
v 0.02578200027346611 -0.004033000208437443 -0.04081999883055687
v 0.019593000411987305 -0.003002000041306019 -0.05104900151491165
v 0.018334999680519104 -0.003002000041306019 -0.05258600041270256
v 0.015766000375151634 -0.003002000041306019 -0.05347299948334694
v 0.015608999878168106 -0.003002000041306019 -0.052188001573085785
v 0.013817000202834606 -0.003002000041306019 -0.052710000425577164
v 0.011800000444054604 -0.003002000041306019 -0.0541980005800724
v 0.010990000329911709 -0.003002000041306019 -0.052882999181747437
v 0.011615999974310398 -0.003002000041306019 -0.04964200034737587
v 0.018693000078201294 -0.0025259999092668295 -0.05211000144481659
v 0.016172999516129494 -0.0022350000217556953 -0.052411001175642014
v 0.014839000068604946 -0.0024059999268501997 -0.05173499882221222
v 0.01308399997651577 -0.0019839999731630087 -0.05251000076532364
v 0.011494000442326069 -0.0018119999440386891 -0.05266899988055229
v 0.011090000160038471 -0.0019839999731630087 -0.05215800181031227
v 0.01910099945962429 -0.002360000042244792 -0.05134899914264679
v 0.016628000885248184 -0.002102999947965145 -0.051068998873233795
v 0.014173000119626522 -0.0020169999916106462 -0.0506879985332489
v 0.01258699968457222 -0.0010770000517368317 -0.05097699910402298
v 0.011296999640762806 -0.0014609999489039183 -0.0505170002579689
v 0.011346000246703625 -0.0014189999783411622 -0.050551000982522964
v 0.019233999773859978 -0.002360000042244792 -0.05059700086712837
v 0.01681400090456009 -0.002102999947965145 -0.05001499876379967
v 0.01437699981033802 -0.0020169999916106462 -0.049532998353242874
v 0.012985000386834145 -0.0010770000517368317 -0.04871800169348717
v 0.011615999974310398 -0.0014609999489039183 -0.04870999976992607
v 0.011673999950289726 -0.0014189999783411622 -0.04869399964809418
v 0.01927899941802025 -0.0025659999810159206 -0.04987499862909317
v 0.01753699965775013 -0.0023539999965578318 -0.049024999141693115
v 0.015243000350892544 -0.002552000107243657 -0.04912799969315529
v 0.01380200032144785 -0.0022619999945163727 -0.04812999814748764
v 0.012408999726176262 -0.002102999947965145 -0.04747699946165085
v 0.0118429996073246 -0.002182000083848834 -0.04758000001311302
v 0.019266000017523766 -0.003002000041306019 -0.04948199912905693
v 0.018185999244451523 -0.003002000041306019 -0.048454999923706055
v 0.015975000336766243 -0.003002000041306019 -0.04948800057172775
v 0.014326999895274639 -0.003002000041306019 -0.0491969995200634
v 0.013031999580562115 -0.003002000041306019 -0.047210000455379486
v 0.01181500032544136 -0.003002000041306019 -0.047582000494003296
v 0.019030999392271042 -0.0034779999405145645 -0.04972900077700615
v 0.017413999885320663 -0.003914999775588512 -0.048326000571250916
v 0.01619499921798706 -0.0034390001092106104 -0.049330998212099075
v 0.014507000334560871 -0.0035310001112520695 -0.04879499971866608
v 0.013183999806642532 -0.004153000190854073 -0.04696900025010109
v 0.01184799987822771 -0.0038350000977516174 -0.047547999769449234
v 0.018716000020503998 -0.003773000091314316 -0.05042799934744835
v 0.01642400026321411 -0.004757000133395195 -0.049428001046180725
v 0.016287000849843025 -0.003944000229239464 -0.04989499971270561
v 0.014510000124573708 -0.004242999944835901 -0.04940100014209747
v 0.013030000030994415 -0.005355999805033207 -0.0484669990837574
v 0.0116779999807477 -0.004627999849617481 -0.0486689992249012
v 0.018556000664830208 -0.003773000091314316 -0.05133099853992462
v 0.016061000525951385 -0.004757000133395195 -0.05148699879646301
v 0.016092000529170036 -0.003944000229239464 -0.050999999046325684
v 0.014252999797463417 -0.004242999944835901 -0.05085799843072891
v 0.012543000280857086 -0.005355999805033207 -0.05122800171375275
v 0.011340999975800514 -0.004627999849617481 -0.05057799816131592
v 0.01840999908745289 -0.0035180000122636557 -0.05216100066900253
v 0.015816999599337578 -0.004033000208437443 -0.05302499979734421
v 0.01580199971795082 -0.0035840000491589308 -0.05187100172042847
v 0.013975000008940697 -0.0038079998921602964 -0.0521249994635582
v 0.012047999538481236 -0.004443000070750713 -0.053412001579999924
v 0.011083999648690224 -0.004033000208437443 -0.05219100043177605
v 0.06140799820423126 -0.003002000041306019 -0.010900000110268593
v 0.060635000467300415 -0.003002000041306019 -0.014349999837577343
v 0.05903000012040138 -0.003002000041306019 -0.015035999938845634
v 0.05580100044608116 -0.003002000041306019 -0.013691999949514866
v 0.051656998693943024 -0.003002000041306019 -0.012865000404417515
v 0.0476359985768795 -0.003002000041306019 -0.012737000361084938
v 0.04487600177526474 -0.003002000041306019 -0.013414000160992146
v 0.04354099929332733 -0.003002000041306019 -0.011628000065684319
v 0.04428499937057495 -0.003002000041306019 -0.007880999706685543
v 0.061080001294612885 -0.0013909999979659915 -0.013469000346958637
v 0.05958399921655655 -0.000910000002477318 -0.013989999890327454
v 0.05598299950361252 -0.000910000002477318 -0.01335499994456768
v 0.052028998732566833 -0.0009340000106021762 -0.012618999928236008
v 0.04792200028896332 -0.0006929999799467623 -0.012285999953746796
v 0.0456480011343956 -0.0004290000069886446 -0.012316999956965446
v 0.04389499872922897 -0.0010310000507161021 -0.01102800015360117
v 0.06165499985218048 -0.0006680000224150717 -0.0118429996073246
v 0.06032299995422363 0.00011100000119768083 -0.011907000094652176
v 0.05644199997186661 0.0007329999934881926 -0.011462000198662281
v 0.05268099904060364 0.0007329999934881926 -0.010799000039696693
v 0.048500001430511475 0.001044000033289194 -0.01018300000578165
v 0.04666399955749512 0.0009660000214353204 -0.009828000329434872
v 0.04447000101208687 0.00026599998818710446 -0.009170999750494957
v 0.061962999403476715 -0.0006680000224150717 -0.010099000297486782
v 0.060731999576091766 0.00011100000119768083 -0.009584000334143639
v 0.05693399906158447 0.0007329999934881926 -0.008674000389873981
v 0.0531730018556118 0.0007329999934881926 -0.008011000230908394
v 0.049031998962163925 0.001044000033289194 -0.007160000037401915
v 0.04718700051307678 0.0009660000214353204 -0.006864999886602163
v 0.04490000009536743 0.00026599998818710446 -0.006730999797582626
v 0.062137000262737274 -0.0016789999790489674 -0.008871999569237232
v 0.060864001512527466 -0.001221999991685152 -0.007903999648988247
v 0.05766899883747101 -0.0017760000191628933 -0.008240999653935432
v 0.05306899920105934 -0.0017760000191628933 -0.007430000230669975
v 0.04912799969315529 -0.0012710000155493617 -0.005913000088185072
v 0.047162000089883804 -0.0008619999862276018 -0.004898999817669392
v 0.04490099847316742 -0.0013670000480487943 -0.005324000027030706
v 0.06214199960231781 -0.003002000041306019 -0.00860700011253357
v 0.06077200174331665 -0.003002000041306019 -0.007493000011891127
v 0.058017000555992126 -0.003002000041306019 -0.010011999867856503
v 0.052577000111341476 -0.003002000041306019 -0.009052000008523464
v 0.04885699972510338 -0.003002000041306019 -0.006748999934643507
v 0.046835001558065414 -0.003002000041306019 -0.004648000001907349
v 0.04463500156998634 -0.003002000041306019 -0.005423000082373619
v 0.06159700080752373 -0.004395999945700169 -0.008659999817609787
v 0.060283999890089035 -0.004997999873012304 -0.007447999902069569
v 0.05722200125455856 -0.0039160000160336494 -0.008671999908983707
v 0.05256899818778038 -0.003868000116199255 -0.007930000312626362
v 0.04882099851965904 -0.0044929999858140945 -0.006250999867916107
v 0.04662799835205078 -0.005237999837845564 -0.004648999776691198
v 0.04472799971699715 -0.0045889997854828835 -0.005371999926865101
v 0.060857001692056656 -0.005570000037550926 -0.009816000238060951
v 0.059498999267816544 -0.006814000196754932 -0.009096000343561172
v 0.05614599958062172 -0.00572599982842803 -0.008923999965190887
v 0.05229499936103821 -0.005570000037550926 -0.008306000381708145
v 0.04850099980831146 -0.0062699997797608376 -0.007366000209003687
v 0.04608599841594696 -0.007282000035047531 -0.006550999823957682
v 0.04456999897956848 -0.006115000229328871 -0.00673400005325675
v 0.06051899865269661 -0.005570000037550926 -0.011731999926269054
v 0.05899700149893761 -0.006814000196754932 -0.011943000368773937
v 0.05578799918293953 -0.00572599982842803 -0.010958000086247921
v 0.05195700004696846 -0.005570000037550926 -0.010223000310361385
v 0.04806999862194061 -0.0062699997797608376 -0.00980599969625473
v 0.04552299901843071 -0.007282000035047531 -0.00974700041115284
v 0.04416000097990036 -0.006115000229328871 -0.009057000279426575
v 0.060499001294374466 -0.004685999825596809 -0.013484000228345394
v 0.05888399854302406 -0.005309999920427799 -0.01421900000423193
v 0.05571100115776062 -0.004780999850481749 -0.012798000127077103
v 0.05172999948263168 -0.00471000000834465 -0.011978000402450562
v 0.047749001532793045 -0.00506999995559454 -0.011864000000059605
v 0.04506099969148636 -0.005671000108122826 -0.012369999662041664
v 0.04374900087714195 -0.004925999790430069 -0.010924000293016434
v 0.040929000824689865 -0.003002000041306019 -0.024313999339938164
v 0.04030200093984604 -0.003002000041306019 -0.027108000591397285
v 0.03900099918246269 -0.003002000041306019 -0.027664000168442726
v 0.036386001855134964 -0.003002000041306019 -0.02657400071620941
v 0.03302999958395958 -0.003002000041306019 -0.02590399980545044
v 0.02977300062775612 -0.003002000041306019 -0.025800999253988266
v 0.027538999915122986 -0.003002000041306019 -0.02634900063276291
v 0.02645700052380562 -0.003002000041306019 -0.024901999160647392
v 0.027058999985456467 -0.003002000041306019 -0.02186799980700016
v 0.0406620018184185 -0.0016969999996945262 -0.026395000517368317
v 0.039452001452445984 -0.0013070000568404794 -0.026815999299287796
v 0.03653499856591225 -0.0013070000568404794 -0.026302000507712364
v 0.03333299979567528 -0.0013269999762997031 -0.02570600062608719
v 0.03000500053167343 -0.0011320000048726797 -0.025436999276280403
v 0.028162000700831413 -0.0009180000051856041 -0.025460999459028244
v 0.026743000373244286 -0.0014049999881535769 -0.024416999891400337
v 0.041127998381853104 -0.0011109999613836408 -0.02507700026035309
v 0.040049999952316284 -0.00048099999548867345 -0.02512899972498417
v 0.03690500184893608 0.00002300000051036477 -0.024769000709056854
v 0.03386000171303749 0.00002300000051036477 -0.02423200011253357
v 0.030472999438643456 0.00027600000612437725 -0.023731999099254608
v 0.028985999524593353 0.00021300000662449747 -0.023445000872015953
v 0.027208000421524048 -0.0003539999888744205 -0.02291399985551834
v 0.041377000510692596 -0.0011109999613836408 -0.023665999993681908
v 0.04038200154900551 -0.00048099999548867345 -0.023245999589562416
v 0.037303999066352844 0.00002300000051036477 -0.02251099981367588
v 0.034258000552654266 0.00002300000051036477 -0.021973999217152596
v 0.030904000625014305 0.00027600000612437725 -0.021284999325871468
v 0.029409000650048256 0.00021300000662449747 -0.021045999601483345
v 0.027557000517845154 -0.0003539999888744205 -0.0209369994699955
v 0.04151900112628937 -0.0019310000352561474 -0.02267099916934967
v 0.04048699885606766 -0.0015610000118613243 -0.021886000409722328
v 0.03790000081062317 -0.0020089999306946993 -0.0221599992364645
v 0.03417300060391426 -0.0020089999306946993 -0.02150299958884716
v 0.0309820007532835 -0.001598999951966107 -0.02027300000190735
v 0.029388999566435814 -0.0012679999927058816 -0.019453000277280807
v 0.02755800075829029 -0.0016769999638199806 -0.01979699917137623
v 0.04152299836277962 -0.003002000041306019 -0.02245599962770939
v 0.04041299968957901 -0.003002000041306019 -0.021553000435233116
v 0.03818200156092644 -0.003002000041306019 -0.023593999445438385
v 0.0337739996612072 -0.003002000041306019 -0.022816000506281853
v 0.030762000009417534 -0.003002000041306019 -0.02095000073313713
v 0.029123999178409576 -0.003002000041306019 -0.019248999655246735
v 0.02734299935400486 -0.003002000041306019 -0.019876999780535698
v 0.04108100011944771 -0.004131999798119068 -0.022499000653624535
v 0.040017999708652496 -0.0046190000139176846 -0.02151699922978878
v 0.03753799945116043 -0.003742000088095665 -0.022508999332785606
v 0.03376799821853638 -0.003703000023961067 -0.021908000111579895
v 0.030733000487089157 -0.004209999926388264 -0.02054700069129467
v 0.028957000002264977 -0.004813000094145536 -0.01924999989569187
v 0.027417000383138657 -0.004286999814212322 -0.01983500085771084
v 0.04048300161957741 -0.00508200004696846 -0.023435000330209732
v 0.039381999522447586 -0.00609100004658103 -0.022853000089526176
v 0.03666599839925766 -0.00520800007507205 -0.02271299995481968
v 0.03354699909687042 -0.00508200004696846 -0.02221200056374073
v 0.030473999679088593 -0.0056489999406039715 -0.021452000364661217
v 0.028519000858068466 -0.0064690001308918 -0.02079099975526333
v 0.027289999648928642 -0.0055229999125003815 -0.020937999710440636
v 0.04020899906754494 -0.00508200004696846 -0.024986999109387398
v 0.03897500038146973 -0.00609100004658103 -0.025157999247312546
v 0.036375001072883606 -0.00520800007507205 -0.02436099946498871
v 0.03327399864792824 -0.00508200004696846 -0.023763999342918396
v 0.030124999582767487 -0.0056489999406039715 -0.023428000509738922
v 0.02806200087070465 -0.0064690001308918 -0.023378999903798103
v 0.026957999914884567 -0.0055229999125003815 -0.02282099984586239
v 0.040192000567913055 -0.004364999942481518 -0.026405999436974525
v 0.0388839989900589 -0.004871999844908714 -0.0270019993185997
v 0.03631399944424629 -0.004443000070750713 -0.025849999859929085
v 0.03308900073170662 -0.004385000094771385 -0.025187000632286072
v 0.029864000156521797 -0.004676999989897013 -0.02509400062263012
v 0.027688000351190567 -0.005164000205695629 -0.02550400048494339
v 0.026623999699950218 -0.004559999797493219 -0.02433199994266033
v 0.024118000641465187 -0.003002000041306019 -0.038019999861717224
v 0.023566000163555145 -0.003002000041306019 -0.04053699970245361
v 0.02250000089406967 -0.003002000041306019 -0.04105599969625473
v 0.020392000675201416 -0.003002000041306019 -0.040119998157024384
v 0.017673999071121216 -0.003002000041306019 -0.03956900164484978
v 0.015030000358819962 -0.003002000041306019 -0.03952600061893463
v 0.013205000199377537 -0.003002000041306019 -0.04005200043320656
v 0.012347999960184097 -0.003002000041306019 -0.038770999759435654
v 0.012884000316262245 -0.003002000041306019 -0.036038998514413834
v 0.02387000061571598 -0.0018279999494552612 -0.03989100083708763
v 0.02287900075316429 -0.0014769999543204904 -0.04028899967670441
v 0.020517000928521156 -0.0014769999543204904 -0.039872001856565475
v 0.01792299933731556 -0.0014949999749660492 -0.039386000484228134
v 0.015223000198602676 -0.001319000031799078 -0.03919500112533569
v 0.01372500043362379 -0.0011259999591857195 -0.03924600034952164
v 0.012587999925017357 -0.0015650000423192978 -0.03832999989390373
v 0.024268999695777893 -0.0013010000111535192 -0.03870199993252754
v 0.023391999304294586 -0.0007329999934881926 -0.03876499831676483
v 0.02084200084209442 -0.0002789999998640269 -0.03849099949002266
v 0.018373999744653702 -0.0002789999998640269 -0.03805600106716156
v 0.0156289990991354 -0.00005199999941396527 -0.03765900060534477
v 0.014425000175833702 -0.00010900000052060932 -0.037425000220537186
v 0.01298999972641468 -0.0006200000061653554 -0.03697500005364418
v 0.02449299953877926 -0.0013010000111535192 -0.03743100166320801
v 0.02369000017642975 -0.0007329999934881926 -0.037071000784635544
v 0.021199999377131462 -0.0002789999998640269 -0.03645699843764305
v 0.01873200014233589 -0.0002789999998640269 -0.03602200001478195
v 0.016016999259591103 -0.00005199999941396527 -0.03545600175857544
v 0.014805999584496021 -0.00010900000052060932 -0.0352649986743927
v 0.013302999548614025 -0.0006200000061653554 -0.03519599884748459
v 0.024622999131679535 -0.0020379999186843634 -0.03653800114989281
v 0.023795999586582184 -0.0017049999441951513 -0.03584900125861168
v 0.021689999848604202 -0.002107999986037612 -0.03613400086760521
v 0.018671000376343727 -0.002107999986037612 -0.03560199961066246
v 0.016095999628305435 -0.0017399999778717756 -0.03454799950122833
v 0.014813999645411968 -0.0014420000370591879 -0.0338359996676445
v 0.013321000151336193 -0.0018100000452250242 -0.034171998500823975
v 0.024630000814795494 -0.003002000041306019 -0.036343999207019806
v 0.023740999400615692 -0.003002000041306019 -0.03555100038647652
v 0.0218959990888834 -0.003002000041306019 -0.0374159999191761
v 0.018326999619603157 -0.003002000041306019 -0.036786001175642014
v 0.01590700075030327 -0.003002000041306019 -0.035158999264240265
v 0.014601999893784523 -0.003002000041306019 -0.033656999468803406
v 0.013145999982953072 -0.003002000041306019 -0.034247998148202896
v 0.02426999993622303 -0.004017999861389399 -0.036389000713825226
v 0.02342200092971325 -0.0044570001773536205 -0.03552500158548355
v 0.021390000358223915 -0.003667999990284443 -0.036451999098062515
v 0.018334999680519104 -0.0036329999566078186 -0.035971999168395996
v 0.015890000388026237 -0.004087999928742647 -0.034797001630067825
v 0.014467000029981136 -0.004633000120520592 -0.03365999832749367
v 0.013206000439822674 -0.004157999996095896 -0.034210000187158585
v 0.02376900054514408 -0.004873999860137701 -0.03723800182342529
v 0.02288299985229969 -0.005781999789178371 -0.03673199936747551
v 0.02067900076508522 -0.004987999796867371 -0.03664899989962578
v 0.018151000142097473 -0.004873999860137701 -0.03624799847602844
v 0.015665000304579735 -0.005384999793022871 -0.03561199828982353
v 0.014085999689996243 -0.006122000049799681 -0.035050999373197556
v 0.013085000216960907 -0.0052709998562932014 -0.035200998187065125
v 0.02352200075984001 -0.004873999860137701 -0.03863599896430969
v 0.022516999393701553 -0.005781999789178371 -0.03880799934267998
v 0.02041799947619438 -0.004987999796867371 -0.03813200071454048
v 0.01790500059723854 -0.004873999860137701 -0.03764500096440315
v 0.015351000241935253 -0.005384999793022871 -0.03739200159907341
v 0.013675999827682972 -0.006122000049799681 -0.037379998713731766
v 0.012786000035703182 -0.0052709998562932014 -0.03689499944448471
v 0.023486999794840813 -0.004228999838232994 -0.03990999981760979
v 0.022414999082684517 -0.004683999810367823 -0.040463000535964966
v 0.020344000309705734 -0.004298999905586243 -0.039468999952077866
v 0.017734000459313393 -0.004246999975293875 -0.0389229990541935
v 0.01511400006711483 -0.004509999882429838 -0.03889000043272972
v 0.013338999822735786 -0.004947000183165073 -0.039292000234127045
v 0.012493000365793705 -0.004404000006616116 -0.03825699910521507
v 0.009906000457704067 -0.003002000041306019 -0.04947600141167641
v 0.009374000132083893 -0.003002000041306019 -0.051996998488903046
v 0.008488000370562077 -0.003002000041306019 -0.05254700034856796
v 0.0067980000749230385 -0.003002000041306019 -0.05168500170111656
v 0.004598999861627817 -0.003002000041306019 -0.051224999129772186
v 0.0024429999757558107 -0.003002000041306019 -0.05126899853348732
v 0.0009369999752379954 -0.003002000041306019 -0.05185199901461601
v 0.0002809999859891832 -0.003002000041306019 -0.050606001168489456
v 0.0008060000254772604 -0.003002000041306019 -0.047871001064777374
v 0.00964299961924553 -0.0019450000254437327 -0.051343999803066254
v 0.008821999654173851 -0.0016289999475702643 -0.051771000027656555
v 0.006907999981194735 -0.0016289999475702643 -0.051433999091386795
v 0.004807999823242426 -0.0016449999529868364 -0.05103499814867973
v 0.002612000098451972 -0.0014880000380799174 -0.05093400180339813
v 0.0013889999827370048 -0.0013139999937266111 -0.051033999770879745
v 0.0004900000058114529 -0.0017079999670386314 -0.05015899986028671
v 0.010006999596953392 -0.001471000025048852 -0.05014999955892563
v 0.009289000183343887 -0.0009599999757483602 -0.050241000950336456
v 0.0072189997881650925 -0.0005510000046342611 -0.050050001591444016
v 0.0052189999260008335 -0.0005510000046342611 -0.04969700053334236
v 0.0029929999727755785 -0.0003480000013951212 -0.04939299821853638
v 0.002019000006839633 -0.0003980000037699938 -0.049199000000953674
v 0.0008609999786131084 -0.0008570000063627958 -0.04879799857735634
v 0.010231000371277332 -0.001471000025048852 -0.04887799918651581
v 0.009588000364601612 -0.0009599999757483602 -0.04854600131511688
v 0.007577000185847282 -0.0005510000046342611 -0.04801800101995468
v 0.005578000098466873 -0.0005510000046342611 -0.047665998339653015
v 0.003381999908015132 -0.0003480000013951212 -0.047189999371767044
v 0.002400000113993883 -0.0003980000037699938 -0.0470380000770092
v 0.0011749999830499291 -0.0008570000063627958 -0.047019001096487045
v 0.010366999544203281 -0.002133999951183796 -0.047986000776290894
v 0.009715000167489052 -0.0018339999951422215 -0.04732700064778328
v 0.007987000048160553 -0.002196999965235591 -0.047680001705884933
v 0.005541000049561262 -0.002196999965235591 -0.047249000519514084
v 0.0034759999252855778 -0.001867000013589859 -0.04628400132060051
v 0.0024530000519007444 -0.0015979999443516135 -0.045618001371622086
v 0.0012229999992996454 -0.001930000027641654 -0.046000998467206955
v 0.010378999635577202 -0.003002000041306019 -0.04779199883341789
v 0.00967899989336729 -0.003002000041306019 -0.04703399911522865
v 0.008112999610602856 -0.003002000041306019 -0.048948001116514206
v 0.005222000181674957 -0.003002000041306019 -0.04843800142407417
v 0.0033019999973475933 -0.003002000041306019 -0.04689899832010269
v 0.00228599994443357 -0.003002000041306019 -0.04544699937105179
v 0.0010779999429360032 -0.003002000041306019 -0.04608200117945671
v 0.010083000175654888 -0.003916999790817499 -0.047850001603364944
v 0.009417999535799026 -0.004310999996960163 -0.04701799899339676
v 0.0077320002019405365 -0.003601999953389168 -0.048006001859903336
v 0.005255000200122595 -0.0035689999349415302 -0.04762699827551842
v 0.0032999999821186066 -0.0039809998124837875 -0.046539001166820526
v 0.0021750000305473804 -0.004470000043511391 -0.0454539991915226
v 0.0011289999820291996 -0.004044000059366226 -0.04604300111532211
v 0.009646999649703503 -0.004687000066041946 -0.04870999976992607
v 0.008941000327467918 -0.005503000225871801 -0.04823499917984009
v 0.007145000156015158 -0.0047889999113976955 -0.04822399839758873
v 0.005096000153571367 -0.004687000066041946 -0.0479080006480217
v 0.0030879999976605177 -0.0051460000686347485 -0.04735700041055679
v 0.0018189999973401427 -0.005810000002384186 -0.04684999957680702
v 0.0009980000322684646 -0.005044000223278999 -0.04703199863433838
v 0.00940100010484457 -0.004687000066041946 -0.05010800063610077
v 0.008574999868869781 -0.005503000225871801 -0.050310999155044556
v 0.006883999798446894 -0.0047889999113976955 -0.04970800131559372
v 0.0048500001430511475 -0.004687000066041946 -0.04930499941110611
v 0.0027749999426305294 -0.0051460000686347485 -0.0491349995136261
v 0.0014090000186115503 -0.005810000002384186 -0.04917899891734123
v 0.0006990000256337225 -0.005044000223278999 -0.04872699826955795
v 0.009329999797046185 -0.0041069998405873775 -0.05137600004673004
v 0.008437000215053558 -0.004517000168561935 -0.051961999386548996
v 0.006779999937862158 -0.004168999847024679 -0.05104000121355057
v 0.004668999928981066 -0.004122000187635422 -0.05058100074529648
v 0.002532999962568283 -0.004358999896794558 -0.050634000450372696
v 0.0010710000060498714 -0.0047530001029372215 -0.05109100043773651
v 0.0004149999876972288 -0.004263999871909618 -0.0500900000333786
v 0.04779699817299843 -0.00482300017029047 0.021963000297546387
v 0.04434100165963173 -0.004466999787837267 0.01396500039845705
v 0.037772998213768005 -0.0033130000811070204 0.014414000324904919
v 0.031890999525785446 -0.0022479998879134655 0.015856999903917313
v 0.024947000667452812 -0.001003999961540103 0.01708099991083145
v 0.013195999898016453 0.0009130000253207982 0.013078000396490097
v 0.008348999544978142 0.0018360000103712082 0.01575399935245514
v 0.007857000455260277 0.002067999914288521 0.02049900032579899
v 0.011096999980509281 0.0017480000387877226 0.02843400090932846
v 0.04575899988412857 -0.0013640000252053142 0.016464000567793846
v 0.039792001247406006 -0.0001880000054370612 0.017311999574303627
v 0.03126800060272217 0.0012959999730810523 0.018897000700235367
v 0.02391500025987625 0.0033909999765455723 0.01871900074183941
v 0.015292000025510788 0.0059079998172819614 0.01839599944651127
v 0.009626000188291073 0.0066639999859035015 0.019886000081896782
v 0.007716000080108643 0.005814999807626009 0.02247699908912182
v 0.04701999947428703 -0.00044299999717622995 0.020284999161958694
v 0.04154999926686287 0.00039000000106170774 0.02131200022995472
v 0.030455000698566437 0.0025229998864233494 0.02320599928498268
v 0.023173000663518906 0.006459000054746866 0.02336299978196621
v 0.016818000003695488 0.006500000134110451 0.024954000487923622
v 0.010610999539494514 0.008050000295042992 0.02585900016129017
v 0.007670999970287085 0.007919000461697578 0.026659000664949417
v 0.04763999953866005 -0.00044299999717622995 0.02380399964749813
v 0.042148999869823456 0.00039000000106170774 0.024709999561309814
v 0.03107599914073944 0.0025229998864233494 0.026724999770522118
v 0.02417900040745735 0.006459000054746866 0.029068000614643097
v 0.017663000151515007 0.006500000134110451 0.02974800020456314
v 0.011521000415086746 0.008050000295042992 0.031018000096082687
v 0.008484000340104103 0.007919000461697578 0.031272999942302704
v 0.04659000039100647 -0.0014440000522881746 0.02754100039601326
v 0.04114599898457527 -0.0004450000124052167 0.028541000559926033
v 0.03318699821829796 0.0003760000108741224 0.028920000419020653
v 0.02311299927532673 0.003266999963670969 0.032540999352931976
v 0.01793600060045719 0.004482999909669161 0.033945001661777496
v 0.012544999830424786 0.005810000002384186 0.035509999841451645
v 0.0093560004606843 0.005247000139206648 0.03414599969983101
v 0.04499499872326851 -0.004093999974429607 0.029848000034689903
v 0.039590999484062195 -0.003117999993264675 0.031105000525712967
v 0.03485799953341484 -0.002355000004172325 0.02920600026845932
v 0.021423999220132828 0.0000779999973019585 0.0324850007891655
v 0.017527999356389046 0.000859999970998615 0.03590700030326843
v 0.012823999859392643 0.0017310000257566571 0.037647001445293427
v 0.0096859997138381 0.002174000022932887 0.034352000802755356
v 0.043494999408721924 -0.0068660001270473 0.02804500050842762
v 0.039009999483823776 -0.006256999913603067 0.029205000028014183
v 0.035548001527786255 -0.0043390002101659775 0.027357999235391617
v 0.023948999121785164 -0.002305000089108944 0.029485000297427177
v 0.017292000353336334 -0.0027360001113265753 0.03373099863529205
v 0.013434000313282013 -0.0028029999230057 0.03584500029683113
v 0.009228000417351723 -0.00040499999886378646 0.033472999930381775
v 0.042034000158309937 -0.007958999834954739 0.024762000888586044
v 0.03842100128531456 -0.00774999987334013 0.025585999712347984
v 0.036375001072883606 -0.004970999900251627 0.024915000423789024
v 0.02680400013923645 -0.0027459999546408653 0.02638399973511696
v 0.017038000747561455 -0.004507000092417002 0.029608000069856644
v 0.013779000379145145 -0.005824999883770943 0.030995000153779984
v 0.008593999780714512 -0.0021180000621825457 0.030720999464392662
v 0.04142399877309799 -0.007958999834954739 0.0213019996881485
v 0.03774699941277504 -0.00774999987334013 0.021764000877738
v 0.03605400025844574 -0.004970999900251627 0.023094000294804573
v 0.026558000594377518 -0.0027459999546408653 0.024987999349832535
v 0.01627800054848194 -0.004507000092417002 0.025297999382019043
v 0.012740000151097775 -0.005824999883770943 0.02510800026357174
v 0.007962999865412712 -0.0021180000621825457 0.027140000835061073
v 0.042583998292684555 -0.007317999843508005 0.017066000029444695
v 0.03743400052189827 -0.006709999870508909 0.017441999167203903
v 0.033720001578330994 -0.005152000114321709 0.01961199939250946
v 0.02551399916410446 -0.003512999974191189 0.021345000714063644
v 0.014272999949753284 -0.004108000081032515 0.018904000520706177
v 0.01006999984383583 -0.0035490000154823065 0.01931699924170971
v 0.00761000020429492 -0.00107999995816499 0.023190999403595924
v 0.03876100108027458 -0.005388000048696995 -0.006907000206410885
v 0.03783300146460533 -0.005332000087946653 -0.010329999960958958
v 0.03483099862933159 -0.00482300017029047 -0.01076900027692318
v 0.028344999998807907 -0.0036379999946802855 -0.008849999867379665
v 0.020166000351309776 -0.002171000000089407 -0.007311999797821045
v 0.012343999929726124 -0.0007880000048317015 -0.006515000015497208
v 0.0071020000614225864 0.0001140000022132881 -0.0067529999651014805
v 0.004215000197291374 0.000678999989759177 -0.004693000111728907
v 0.005036000162363052 0.0006500000017695129 -0.0009599999757483602
v 0.03885500133037567 -0.0036669999826699495 -0.009549999609589577
v 0.03613299876451492 -0.00266100000590086 -0.009855000302195549
v 0.029040999710559845 -0.0013909999979659915 -0.008604999631643295
v 0.02124200016260147 -0.00002099999983329326 -0.007189999800175428
v 0.013261999934911728 0.0016659999964758754 -0.006175000220537186
v 0.00890399981290102 0.002732000080868602 -0.00583800021559
v 0.0051750000566244125 0.0027520000003278255 -0.00419999985024333
v 0.03984000161290169 -0.0029750000685453415 -0.0079969996586442
v 0.03741399943828583 -0.0016710000345483422 -0.007867000065743923
v 0.029927000403404236 0.0003640000068116933 -0.006787000223994255
v 0.022520000115036964 0.001690999954007566 -0.005481000058352947
v 0.0143630001693964 0.003498000092804432 -0.004162999801337719
v 0.010728999972343445 0.004062000196427107 -0.0034920000471174717
v 0.00622900016605854 0.00408599991351366 -0.002429000101983547
v 0.040146999061107635 -0.0029750000685453415 -0.006252000108361244
v 0.03782400116324425 -0.0016710000345483422 -0.005543999839574099
v 0.0304189994931221 0.0003640000068116933 -0.003998999949544668
v 0.02301199920475483 0.001690999954007566 -0.002693000016734004
v 0.014895999804139137 0.003498000092804432 -0.0011409999569877982
v 0.011250999756157398 0.004062000196427107 -0.0005290000117383897
v 0.006659000180661678 0.00408599991351366 0.000012000000424450263
v 0.04008999839425087 -0.00406799977645278 -0.004984000232070684
v 0.037546999752521515 -0.0030739998910576105 -0.0037930000107735395
v 0.031300000846385956 -0.002607000060379505 -0.0035920001100748777
v 0.022237999364733696 -0.0009850000496953726 -0.0019940000493079424
v 0.014436000026762486 0.001006999984383583 0.00020399999630171806
v 0.01053099986165762 0.0021879998967051506 0.001560000004246831
v 0.00611699977889657 0.002382999984547496 0.0015150000108405948
v 0.039806999266147614 -0.005501000210642815 -0.004668000154197216
v 0.03696100041270256 -0.004964999854564667 -0.0032939999364316463
v 0.03203500062227249 -0.004174999892711639 -0.005429999902844429
v 0.021317999809980392 -0.0022559999488294125 -0.0035409999545663595
v 0.013718999922275543 -0.0008449999731965363 -0.0005530000198632479
v 0.009448000229895115 -0.00002700000004551839 0.0019450000254437327
v 0.0053090001456439495 0.000678999989759177 0.0015109999803826213
v 0.03849099949002266 -0.0068430001847445965 -0.004585999995470047
v 0.03562900051474571 -0.00698000006377697 -0.0031010000966489315
v 0.030097000300884247 -0.004821999929845333 -0.003889000043272972
v 0.02095099911093712 -0.0031320000998675823 -0.002355000004172325
v 0.013283999636769295 -0.0024339999072253704 0.000014999999621068127
v 0.008621999993920326 -0.0024029999040067196 0.002053000032901764
v 0.005177000071853399 -0.0010860000038519502 0.001601999974809587
v 0.037025000900030136 -0.007943999953567982 -0.005613999906927347
v 0.034033000469207764 -0.008798000402748585 -0.004606000147759914
v 0.027706999331712723 -0.0064489999786019325 -0.003909999970346689
v 0.02016099914908409 -0.004923999775201082 -0.0026400000788271427
v 0.012509999796748161 -0.004335999954491854 -0.001019999966956675
v 0.007499000057578087 -0.004567999858409166 0.0002530000056140125
v 0.004805999808013439 -0.0027830000035464764 0.00027799999224953353
v 0.03668700158596039 -0.007943999953567982 -0.007530000060796738
v 0.03353099897503853 -0.008798000402748585 -0.007453000172972679
v 0.027348000556230545 -0.0064489999786019325 -0.005942999850958586
v 0.019822999835014343 -0.004923999775201082 -0.004556000232696533
v 0.012079999782145023 -0.004335999954491854 -0.0034600000362843275
v 0.006934999953955412 -0.004567999858409166 -0.0029430000577121973
v 0.004395999945700169 -0.0027830000035464764 -0.0020459999796003103
v 0.037105999886989594 -0.007075000088661909 -0.009359999559819698
v 0.033975999802351 -0.00725100003182888 -0.009827000088989735
v 0.027682999148964882 -0.005501000210642815 -0.00785600021481514
v 0.019836999475955963 -0.004011000040918589 -0.006353999953716993
v 0.01202400028705597 -0.003037000074982643 -0.005565000232309103
v 0.006779000163078308 -0.0028059999458491802 -0.005619999952614307
v 0.004133999813348055 -0.0014540000120177865 -0.003938999958336353
v 0.021695999428629875 -0.0040870001539587975 -0.020399000495672226
v 0.020798999816179276 -0.004036999773234129 -0.02382799983024597
v 0.018081000074744225 -0.0035800000187009573 -0.024317000061273575
v 0.012257000431418419 -0.0025130000431090593 -0.02251400053501129
v 0.004896999802440405 -0.001193000003695488 -0.02112000063061714
v -0.0021520000882446766 0.00005199999941396527 -0.020459000021219254
v -0.006889999844133854 0.0008650000090710819 -0.020786000415682793
v -0.009461999870836735 0.0013719999697059393 -0.0187819991260767
v -0.008658000268042088 0.0013470000121742487 -0.015046999789774418
v 0.021765999495983124 -0.002363000065088272 -0.02303900010883808
v 0.01931300014257431 -0.0014049999881535769 -0.02339000068604946
v 0.012928999960422516 -0.0002629999944474548 -0.02226400002837181
v 0.005909999832510948 0.0009679999784566462 -0.020987000316381454
v -0.0012740000383928418 0.0025140000507235527 -0.02011200040578842
v -0.005197000224143267 0.0035019998904317617 -0.01985199935734272
v -0.008549000136554241 0.0034539999905973673 -0.01828099973499775
v 0.02269599959254265 -0.0016599999507889152 -0.021472999826073647
v 0.02052300050854683 -0.0004030000127386302 -0.021390000358223915
v 0.013791999779641628 0.0014979999978095293 -0.020441999658942223
v 0.00712500000372529 0.0026920000091195107 -0.019267000257968903
v -0.0002119999990100041 0.004352000076323748 -0.01809299923479557
v -0.0034839999862015247 0.004852000158280134 -0.017487000674009323
v -0.007542000152170658 0.004796000197529793 -0.016502000391483307
v 0.023003000766038895 -0.0016599999507889152 -0.019731000065803528
v 0.0209330003708601 -0.0004030000127386302 -0.01906600035727024
v 0.01428299956023693 0.0014979999978095293 -0.01765500009059906
v 0.00761700002476573 0.0026920000091195107 -0.016479000449180603
v 0.00031999999191612005 0.004352000076323748 -0.015073000453412533
v -0.0029609999619424343 0.004852000158280134 -0.014523000456392765
v -0.00711200013756752 0.004796000197529793 -0.014062000438570976
v 0.022955000400543213 -0.0027540000155568123 -0.01846499927341938
v 0.020687000826001167 -0.0018100000452250242 -0.017318999394774437
v 0.015037000179290771 -0.0014509999891743064 -0.017224999144673347
v 0.006881999783217907 0.000009999999747378752 -0.015786999836564064
v -0.00011500000255182385 0.0018570000538602471 -0.013729999773204327
v -0.003611000021919608 0.002964999992400408 -0.012446999549865723
v -0.007606999948620796 0.003085999982431531 -0.01256600022315979
v 0.02267800085246563 -0.004188999999314547 -0.0181489996612072
v 0.02013299986720085 -0.0037070000544190407 -0.01682800054550171
v 0.015646999701857567 -0.0029949999880045652 -0.019040999934077263
v 0.006002000067383051 -0.0012679999927058816 -0.017340999096632004
v -0.0008079999824985862 9.999999974752427e-7 -0.014492000453174114
v -0.004623000044375658 0.0007379999733529985 -0.012075000442564487
v -0.008368000388145447 0.0013719999697059393 -0.01257800031453371
v 0.021466000005602837 -0.005549999885261059 -0.018084000796079636
v 0.01889600045979023 -0.0057379999198019505 -0.016651000827550888
v 0.013906000182032585 -0.00367900007404387 -0.017534999176859856
v 0.005675000138580799 -0.00215300009585917 -0.016163000836968422
v -0.0012199999764561653 -0.0015920000150799751 -0.013927999883890152
v -0.005408999975770712 -0.0016459999606013298 -0.011974000371992588
v -0.008515999652445316 -0.00039000000106170774 -0.012484000064432621
v 0.0201019998639822 -0.006670000031590462 -0.01912900060415268
v 0.01739400066435337 -0.007573999930173159 -0.018171999603509903
v 0.011713000014424324 -0.00534099992364645 -0.017589999362826347
v 0.004923999775201082 -0.0039519998244941235 -0.016452999785542488
v -0.0019710001070052385 -0.0034990001004189253 -0.01496800035238266
v -0.0064940000884234905 -0.0038189999759197235 -0.013780999928712845
v -0.00890200026333332 -0.002085000043734908 -0.013805000111460686
v 0.019763000309467316 -0.006670000031590462 -0.021046999841928482
v 0.016891999170184135 -0.007573999930173159 -0.02102000080049038
v 0.011354999616742134 -0.00534099992364645 -0.019624000415205956
v 0.004585999995470047 -0.0039519998244941235 -0.018370000645518303
v -0.0024019998963922262 -0.0034990001004189253 -0.01740800030529499
v -0.0070569999516010284 -0.0038189999759197235 -0.016976000741124153
v -0.009310999885201454 -0.002085000043734908 -0.01612900011241436
v 0.02012700028717518 -0.005789999850094318 -0.022866999730467796
v 0.017280999571084976 -0.006016000173985958 -0.02338399924337864
v 0.011642999947071075 -0.004383999854326248 -0.021528000012040138
v 0.004585000220686197 -0.0030360000673681498 -0.020166000351309776
v -0.0024629998952150345 -0.0021979999728500843 -0.01951099932193756
v -0.007213999982923269 -0.002056000055745244 -0.01965400017797947
v -0.00955899991095066 -0.0007580000092275441 -0.01802399940788746
v 0.00735800014808774 -0.0032760000322014093 -0.03437099978327751
v 0.006459999829530716 -0.0032250001095235348 -0.03779900074005127
v 0.003742000088095665 -0.002767999889329076 -0.03828899934887886
v -0.0020830000285059214 -0.0017010000301524997 -0.036486998200416565
v -0.009441000409424305 -0.0003809999907389283 -0.035092998296022415
v -0.01649099960923195 0.0008640000014565885 -0.03443000093102455
v -0.02122800052165985 0.0016769999638199806 -0.034758999943733215
v -0.023800000548362732 0.0021840000990778208 -0.03275499865412712
v -0.022995999082922935 0.0021589999087154865 -0.029019000008702278
v 0.0074269999749958515 -0.0015510000521317124 -0.03700999915599823
v 0.004974000155925751 -0.0005929999751970172 -0.037362001836299896
v -0.0014090000186115503 0.0005489999894052744 -0.03623700141906738
v -0.008427999913692474 0.0017810000572353601 -0.034960001707077026
v -0.015611999668180943 0.003326999954879284 -0.034085001796483994
v -0.01953599974513054 0.004313999786973 -0.033824000507593155
v -0.022887999191880226 0.004265999887138605 -0.03225399926304817
v 0.008357999846339226 -0.0008479999960400164 -0.035447001457214355
v 0.006184000056236982 0.0004090000002179295 -0.03536299988627434
v -0.0005469999741762877 0.0023089998867362738 -0.034414999186992645
v -0.0072130002081394196 0.0035039999056607485 -0.033240001648664474
v -0.014550000429153442 0.005164999980479479 -0.03206599876284599
v -0.017822999507188797 0.005663000047206879 -0.03145800158381462
v -0.021880999207496643 0.005607999861240387 -0.030472999438643456
v 0.008665000088512897 -0.0008479999960400164 -0.0337040014564991
v 0.006593999918550253 0.0004090000002179295 -0.03303899988532066
v -0.000056000000768108293 0.0023089998867362738 -0.03162600100040436
v -0.00672100018709898 0.0035039999056607485 -0.03045099973678589
v -0.014018000103533268 0.005164999980479479 -0.029044000431895256
v -0.01730000041425228 0.005663000047206879 -0.028496000915765762
v -0.02145100012421608 0.005607999861240387 -0.028032999485731125
v 0.008616000413894653 -0.0019420000026002526 -0.032437000423669815
v 0.00634900014847517 -0.000999000039882958 -0.03129199892282486
v 0.0006990000256337225 -0.0006389999762177467 -0.031197000294923782
v -0.007457000203430653 0.0008210000232793391 -0.02975899912416935
v -0.014453999698162079 0.0026700000744313 -0.027701999992132187
v -0.01795000024139881 0.0037769998889416456 -0.026419000700116158
v -0.02194499969482422 0.003897000104188919 -0.026538999751210213
v 0.008340000174939632 -0.003378000110387802 -0.032120998948812485
v 0.005793999880552292 -0.002893999917432666 -0.030799999833106995
v 0.001307999948039651 -0.0021840000990778208 -0.033013999462127686
v -0.008336000144481659 -0.0004569999873638153 -0.03131299838423729
v -0.01514699961990118 0.000813000020571053 -0.02846500091254711
v -0.01896199956536293 0.0015490000369027257 -0.026047000661492348
v -0.02270600013434887 0.0021840000990778208 -0.02655000053346157
v 0.007127999793738127 -0.004738000221550465 -0.03205699846148491
v 0.004556000232696533 -0.004927000030875206 -0.030623000115156174
v -0.0004330000083427876 -0.002865999937057495 -0.03150799870491028
v -0.008665000088512897 -0.0013409999664872885 -0.030135000124573708
v -0.015557999722659588 -0.0007800000021234155 -0.02789900079369545
v -0.01974800042808056 -0.0008340000058524311 -0.02594600059092045
v -0.022854000329971313 0.00042299999040551484 -0.02645600028336048
v 0.005762000102549791 -0.0058570001274347305 -0.03310300037264824
v 0.0030539999715983868 -0.006763000041246414 -0.032145000994205475
v -0.0026259999722242355 -0.0045289997942745686 -0.03156299889087677
v -0.00941499974578619 -0.0031399999279528856 -0.03042599931359291
v -0.01631000079214573 -0.0026859999634325504 -0.02893899939954281
v -0.0208320003002882 -0.0030070000793784857 -0.02775299921631813
v -0.02324100024998188 -0.001272000023163855 -0.02777799963951111
v 0.005423999857157469 -0.0058570001274347305 -0.03501899912953377
v 0.002552000107243657 -0.006763000041246414 -0.034991998225450516
v -0.002983999904245138 -0.0045289997942745686 -0.033594999462366104
v -0.009752999991178513 -0.0031399999279528856 -0.032343000173568726
v -0.016739999875426292 -0.0026859999634325504 -0.031380001455545425
v -0.02139499969780445 -0.0030070000793784857 -0.030949000269174576
v -0.02365100011229515 -0.001272000023163855 -0.030101999640464783
v 0.005789000075310469 -0.004978000186383724 -0.03683900088071823
v 0.0029430000577121973 -0.005204999819397926 -0.03735699877142906
v -0.002696000039577484 -0.0035719999577850103 -0.03550000116229057
v -0.00975400023162365 -0.0022239999379962683 -0.03413800150156021
v -0.01680300012230873 -0.001386999967508018 -0.03348299860954285
v -0.021553000435233116 -0.0012440000427886844 -0.03362499922513962
v -0.02389799989759922 0.00005400000009103678 -0.031996000558137894
v -0.004728000145405531 -0.00279000005684793 -0.046202998608350754
v -0.005625000223517418 -0.0027379998937249184 -0.04963099956512451
v -0.008344000205397606 -0.002280999906361103 -0.0501209981739521
v -0.014169000089168549 -0.001214000047184527 -0.048319000750780106
v -0.021528000012040138 0.00010599999950500205 -0.04692300036549568
v -0.028578000143170357 0.0013510000426322222 -0.046261999756097794
v -0.03331499919295311 0.00216299993917346 -0.04659000039100647
v -0.035886000841856 0.0026710000820457935 -0.04458500072360039
v -0.035082001239061356 0.0026459998916834593 -0.04085100069642067
v -0.004658999852836132 -0.0010639999527484179 -0.048840999603271484
v -0.00711200013756752 -0.00010599999950500205 -0.049192000180482864
v -0.013496000319719315 0.0010359999723732471 -0.04806699976325035
v -0.020514000207185745 0.0022670000325888395 -0.04679099842905998
v -0.027698000892996788 0.00381199992261827 -0.045917000621557236
v -0.0316229984164238 0.004800000227987766 -0.04565500095486641
v -0.03497299924492836 0.0047519998624920845 -0.04408400133252144
v -0.003727999981492758 -0.00036100001307204366 -0.047276999801397324
v -0.005901999771595001 0.0008960000122897327 -0.047192998230457306
v -0.012633999809622765 0.00279600010253489 -0.0462459996342659
v -0.01929900050163269 0.0039900001138448715 -0.04507099837064743
v -0.0266369991004467 0.005650999955832958 -0.043898001313209534
v -0.02990799956023693 0.006149999797344208 -0.04329000040888786
v -0.033966001123189926 0.006095000077039003 -0.04230500012636185
v -0.0034209999721497297 -0.00036100001307204366 -0.04553399980068207
v -0.005491999909281731 0.0008960000122897327 -0.04487000033259392
v -0.012141999788582325 0.00279600010253489 -0.04345700144767761
v -0.018806999549269676 0.0039900001138448715 -0.04228200018405914
v -0.026103999465703964 0.005650999955832958 -0.04087600111961365
v -0.029385000467300415 0.006149999797344208 -0.04032700136303902
v -0.033535998314619064 0.006095000077039003 -0.03986399993300438
v -0.003470000112429261 -0.0014570000348612666 -0.04426800087094307
v -0.005737000145018101 -0.0005119999987073243 -0.043122999370098114
v -0.011386999860405922 -0.00015199999324977398 -0.04302800074219704
v -0.01954299956560135 0.001307999948039651 -0.04159000143408775
v -0.02653999999165535 0.0031560000497847795 -0.03953300043940544
v -0.030036000534892082 0.004263999871909618 -0.03825100138783455
v -0.03403199836611748 0.004383999854326248 -0.03836899995803833
v -0.003745999885722995 -0.0028909998945891857 -0.043953001499176025
v -0.006293000187724829 -0.00240899994969368 -0.04263100028038025
v -0.010777999646961689 -0.0016969999996945262 -0.04484499990940094
v -0.020423000678420067 0.000029999999242136255 -0.043143998831510544
v -0.02723200060427189 0.0012989999959245324 -0.04029500111937523
v -0.031046999618411064 0.0020359999034553766 -0.03787799924612045
v -0.03479300066828728 0.0026710000820457935 -0.038380999118089676
v -0.004958000034093857 -0.004251000005751848 -0.04388799890875816
v -0.007528999820351601 -0.00443999981507659 -0.04245400056242943
v -0.012519000098109245 -0.0023799999617040157 -0.04334000125527382
v -0.020749999210238457 -0.0008539999835193157 -0.041965000331401825
v -0.02764499932527542 -0.00029399999766610563 -0.039730001240968704
v -0.03183399885892868 -0.0003480000013951212 -0.03777699917554855
v -0.03494099900126457 0.0009089999948628247 -0.038286998867988586
v -0.0063240001909434795 -0.005371000152081251 -0.04493299871683121
v -0.009031999856233597 -0.006275999825447798 -0.04397600144147873
v -0.014712000265717506 -0.004042999818921089 -0.043393999338150024
v -0.021500999107956886 -0.002652999944984913 -0.04225600138306618
v -0.028395000845193863 -0.0022009999956935644 -0.0407710000872612
v -0.03291799873113632 -0.002520000096410513 -0.039583999663591385
v -0.03532699868083 -0.0007859999896027148 -0.03960900008678436
v -0.006661999970674515 -0.005371000152081251 -0.04684999957680702
v -0.009534000419080257 -0.006275999825447798 -0.04682299867272377
v -0.015069999732077122 -0.004042999818921089 -0.045426998287439346
v -0.021839000284671783 -0.002652999944984913 -0.04417400062084198
v -0.028826000168919563 -0.0022009999956935644 -0.04321099817752838
v -0.03348100185394287 -0.002520000096410513 -0.04278000071644783
v -0.03573700040578842 -0.0007859999896027148 -0.04193300008773804
v -0.006297000218182802 -0.004490999970585108 -0.04867099970579147
v -0.00914399977773428 -0.004718999844044447 -0.0491890013217926
v -0.014782999642193317 -0.003085999982431531 -0.04733100160956383
v -0.02184000052511692 -0.0017369999550282955 -0.04596899822354317
v -0.028889000415802002 -0.0008999999845400453 -0.0453139990568161
v -0.03363899886608124 -0.0007570000016130507 -0.04545599967241287
v -0.03598399832844734 0.0005409999866969883 -0.043827999383211136
f 1 2 9
f 2 3 10
f 2 10 9
f 3 4 10
f 4 11 10
f 4 5 11
f 5 12 11
f 5 6 12
f 6 13 12
f 6 7 13
f 7 14 13
f 7 8 14
f 1 9 15
f 9 10 16
f 9 16 15
f 10 11 16
f 11 17 16
f 11 12 17
f 12 18 17
f 12 13 18
f 13 19 18
f 14 8 20
f 1 15 21
f 15 16 21
f 16 22 21
f 16 17 22
f 17 23 22
f 17 18 24
f 17 24 23
f 18 19 25
f 18 25 24
f 19 20 26
f 19 26 25
f 20 8 26
f 1 21 27
f 21 22 28
f 21 28 27
f 22 23 29
f 22 29 28
f 23 24 30
f 23 30 29
f 24 25 31
f 24 31 30
f 26 8 32
f 1 27 33
f 27 28 34
f 27 34 33
f 28 29 35
f 28 35 34
f 29 30 36
f 29 36 35
f 30 31 37
f 30 37 36
f 31 32 38
f 31 38 37
f 32 8 38
f 1 33 39
f 33 34 39
f 34 40 39
f 34 35 40
f 35 41 40
f 35 36 42
f 35 42 41
f 36 37 42
f 37 43 42
f 37 38 44
f 37 44 43
f 38 8 44
f 1 39 45
f 39 40 45
f 40 46 45
f 40 41 46
f 41 47 46
f 41 42 48
f 41 48 47
f 42 43 49
f 42 49 48
f 43 44 49
f 44 50 49
f 44 8 50
f 1 45 51
f 45 46 51
f 46 52 51
f 46 47 52
f 47 53 52
f 47 48 54
f 47 54 53
f 48 49 54
f 49 55 54
f 49 50 55
f 50 56 55
f 50 8 56
f 1 51 57
f 51 52 57
f 52 58 57
f 52 53 59
f 52 59 58
f 53 54 59
f 54 60 59
f 54 55 60
f 55 61 60
f 55 56 62
f 55 62 61
f 56 8 62
f 1 57 2
f 57 58 2
f 58 3 2
f 58 59 4
f 58 4 3
f 59 60 4
f 60 5 4
f 60 61 5
f 61 6 5
f 61 62 7
f 61 7 6
f 62 8 7
f 63 64 71
f 64 65 72
f 64 72 71
f 65 66 72
f 66 73 72
f 66 67 73
f 67 74 73
f 67 68 74
f 68 75 74
f 68 69 75
f 69 76 75
f 69 70 76
f 63 71 77
f 71 72 78
f 71 78 77
f 72 73 78
f 73 79 78
f 73 74 79
f 74 80 79
f 74 75 80
f 75 81 80
f 76 70 82
f 63 77 83
f 77 78 83
f 78 84 83
f 78 79 84
f 79 85 84
f 79 80 85
f 80 86 85
f 80 81 87
f 80 87 86
f 81 82 88
f 81 88 87
f 82 70 88
f 63 83 89
f 83 84 90
f 83 90 89
f 84 85 91
f 84 91 90
f 85 86 92
f 85 92 91
f 86 87 93
f 86 93 92
f 88 70 94
f 63 89 95
f 89 90 96
f 89 96 95
f 90 91 97
f 90 97 96
f 91 92 98
f 91 98 97
f 92 93 99
f 92 99 98
f 93 94 100
f 93 100 99
f 94 70 100
f 63 95 101
f 95 96 101
f 96 102 101
f 96 97 102
f 97 103 102
f 97 98 104
f 97 104 103
f 98 99 104
f 99 105 104
f 99 100 106
f 99 106 105
f 100 70 106
f 63 101 107
f 101 102 107
f 102 108 107
f 102 103 108
f 103 109 108
f 103 104 110
f 103 110 109
f 104 105 111
f 104 111 110
f 105 106 111
f 106 112 111
f 106 70 112
f 63 107 113
f 107 108 113
f 108 114 113
f 108 109 114
f 109 115 114
f 109 110 116
f 109 116 115
f 110 111 116
f 111 117 116
f 111 112 118
f 111 118 117
f 112 70 118
f 63 113 119
f 113 114 119
f 114 120 119
f 114 115 121
f 114 121 120
f 115 116 121
f 116 122 121
f 116 117 122
f 117 123 122
f 117 118 124
f 117 124 123
f 118 70 124
f 63 119 64
f 119 120 64
f 120 65 64
f 120 121 66
f 120 66 65
f 121 122 66
f 122 67 66
f 122 123 67
f 123 68 67
f 123 124 69
f 123 69 68
f 124 70 69
f 125 126 133
f 126 127 134
f 126 134 133
f 127 128 134
f 128 135 134
f 128 129 135
f 129 136 135
f 129 130 136
f 130 137 136
f 130 131 137
f 131 138 137
f 131 132 138
f 125 133 139
f 133 134 140
f 133 140 139
f 134 135 140
f 135 141 140
f 135 136 141
f 136 142 141
f 136 137 142
f 137 143 142
f 138 132 144
f 125 139 145
f 139 140 146
f 139 146 145
f 140 141 147
f 140 147 146
f 141 142 148
f 141 148 147
f 142 143 148
f 143 149 148
f 143 144 150
f 143 150 149
f 144 132 150
f 125 145 151
f 145 146 152
f 145 152 151
f 146 147 153
f 146 153 152
f 147 148 154
f 147 154 153
f 148 149 155
f 148 155 154
f 150 132 156
f 125 151 157
f 151 152 158
f 151 158 157
f 152 153 159
f 152 159 158
f 153 154 160
f 153 160 159
f 154 155 161
f 154 161 160
f 155 156 162
f 155 162 161
f 156 132 162
f 125 157 163
f 157 158 163
f 158 164 163
f 158 159 164
f 159 165 164
f 159 160 166
f 159 166 165
f 160 161 166
f 161 167 166
f 161 162 168
f 161 168 167
f 162 132 168
f 125 163 169
f 163 164 169
f 164 170 169
f 164 165 170
f 165 171 170
f 165 166 172
f 165 172 171
f 166 167 173
f 166 173 172
f 167 168 173
f 168 174 173
f 168 132 174
f 125 169 175
f 169 170 176
f 169 176 175
f 170 171 176
f 171 177 176
f 171 172 177
f 172 178 177
f 172 173 179
f 172 179 178
f 173 174 179
f 174 180 179
f 174 132 180
f 125 175 181
f 175 176 181
f 176 182 181
f 176 177 183
f 176 183 182
f 177 178 183
f 178 184 183
f 178 179 184
f 179 185 184
f 179 180 186
f 179 186 185
f 180 132 186
f 125 181 126
f 181 182 126
f 182 127 126
f 182 183 128
f 182 128 127
f 183 184 128
f 184 129 128
f 184 185 129
f 185 130 129
f 185 186 131
f 185 131 130
f 186 132 131
f 187 188 195
f 188 189 196
f 188 196 195
f 189 190 196
f 190 197 196
f 190 191 197
f 191 198 197
f 191 192 198
f 192 199 198
f 192 193 199
f 193 200 199
f 193 194 200
f 187 195 201
f 195 196 202
f 195 202 201
f 196 197 202
f 197 203 202
f 197 198 203
f 198 204 203
f 198 199 204
f 199 205 204
f 200 194 206
f 187 201 207
f 201 202 208
f 201 208 207
f 202 203 209
f 202 209 208
f 203 204 209
f 204 210 209
f 204 205 211
f 204 211 210
f 205 206 211
f 206 212 211
f 206 194 212
f 187 207 213
f 207 208 214
f 207 214 213
f 208 209 215
f 208 215 214
f 209 210 216
f 209 216 215
f 210 211 217
f 210 217 216
f 212 194 218
f 187 213 219
f 213 214 220
f 213 220 219
f 214 215 221
f 214 221 220
f 215 216 222
f 215 222 221
f 216 217 223
f 216 223 222
f 217 218 224
f 217 224 223
f 218 194 224
f 187 219 225
f 219 220 225
f 220 226 225
f 220 221 226
f 221 227 226
f 221 222 228
f 221 228 227
f 222 223 228
f 223 229 228
f 223 224 230
f 223 230 229
f 224 194 230
f 187 225 231
f 225 226 231
f 226 232 231
f 226 227 232
f 227 233 232
f 227 228 234
f 227 234 233
f 228 229 235
f 228 235 234
f 229 230 235
f 230 236 235
f 230 194 236
f 187 231 237
f 231 232 238
f 231 238 237
f 232 233 238
f 233 239 238
f 233 234 240
f 233 240 239
f 234 235 241
f 234 241 240
f 235 236 242
f 235 242 241
f 236 194 242
f 187 237 243
f 237 238 243
f 238 244 243
f 238 239 245
f 238 245 244
f 239 240 245
f 240 246 245
f 240 241 246
f 241 247 246
f 241 242 248
f 241 248 247
f 242 194 248
f 187 243 188
f 243 244 188
f 244 189 188
f 244 245 190
f 244 190 189
f 245 246 190
f 246 191 190
f 246 247 191
f 247 192 191
f 247 248 193
f 247 193 192
f 248 194 193
f 249 250 257
f 250 251 258
f 250 258 257
f 251 252 258
f 252 259 258
f 252 253 259
f 253 260 259
f 253 254 260
f 254 261 260
f 254 255 261
f 255 262 261
f 255 256 262
f 249 257 263
f 257 258 264
f 257 264 263
f 258 259 264
f 259 265 264
f 259 260 265
f 260 266 265
f 260 261 266
f 261 267 266
f 262 256 268
f 249 263 269
f 263 264 270
f 263 270 269
f 264 265 271
f 264 271 270
f 265 266 271
f 266 272 271
f 266 267 273
f 266 273 272
f 267 268 273
f 268 274 273
f 268 256 274
f 249 269 275
f 269 270 276
f 269 276 275
f 270 271 277
f 270 277 276
f 271 272 278
f 271 278 277
f 272 273 279
f 272 279 278
f 274 256 280
f 249 275 281
f 275 276 282
f 275 282 281
f 276 277 283
f 276 283 282
f 277 278 284
f 277 284 283
f 278 279 285
f 278 285 284
f 279 280 286
f 279 286 285
f 280 256 286
f 249 281 287
f 281 282 287
f 282 288 287
f 282 283 288
f 283 289 288
f 283 284 290
f 283 290 289
f 284 285 290
f 285 291 290
f 285 286 292
f 285 292 291
f 286 256 292
f 249 287 293
f 287 288 293
f 288 294 293
f 288 289 294
f 289 295 294
f 289 290 296
f 289 296 295
f 290 291 297
f 290 297 296
f 291 292 297
f 292 298 297
f 292 256 298
f 249 293 299
f 293 294 299
f 294 300 299
f 294 295 301
f 294 301 300
f 295 296 301
f 296 302 301
f 296 297 303
f 296 303 302
f 297 298 303
f 298 304 303
f 298 256 304
f 249 299 305
f 299 300 305
f 300 306 305
f 300 301 307
f 300 307 306
f 301 302 307
f 302 308 307
f 302 303 308
f 303 309 308
f 303 304 310
f 303 310 309
f 304 256 310
f 249 305 250
f 305 306 250
f 306 251 250
f 306 307 252
f 306 252 251
f 307 308 252
f 308 253 252
f 308 309 253
f 309 254 253
f 309 310 255
f 309 255 254
f 310 256 255
f 311 312 320
f 312 313 321
f 312 321 320
f 313 314 322
f 313 322 321
f 314 315 323
f 314 323 322
f 315 316 324
f 315 324 323
f 316 317 325
f 316 325 324
f 317 318 326
f 317 326 325
f 318 319 326
f 311 320 327
f 320 321 328
f 320 328 327
f 321 322 329
f 321 329 328
f 322 323 330
f 322 330 329
f 323 324 331
f 323 331 330
f 324 325 332
f 324 332 331
f 325 326 333
f 325 333 332
f 326 319 333
f 311 327 334
f 327 328 335
f 327 335 334
f 328 329 335
f 329 336 335
f 329 330 337
f 329 337 336
f 330 331 337
f 331 338 337
f 331 332 338
f 332 339 338
f 332 333 339
f 333 340 339
f 333 319 340
f 311 334 341
f 334 335 341
f 335 342 341
f 335 336 343
f 335 343 342
f 336 337 344
f 336 344 343
f 337 338 344
f 338 345 344
f 338 339 345
f 339 346 345
f 339 340 346
f 340 347 346
f 340 319 347
f 311 341 348
f 341 342 348
f 342 349 348
f 342 343 349
f 343 350 349
f 343 344 351
f 343 351 350
f 344 345 352
f 344 352 351
f 345 346 353
f 345 353 352
f 346 347 353
f 347 354 353
f 347 319 354
f 311 348 355
f 348 349 355
f 349 356 355
f 349 350 357
f 349 357 356
f 350 351 357
f 351 358 357
f 351 352 358
f 352 359 358
f 352 353 359
f 353 360 359
f 353 354 361
f 353 361 360
f 354 319 361
f 311 355 362
f 355 356 362
f 356 363 362
f 356 357 363
f 357 364 363
f 357 358 364
f 358 365 364
f 358 359 365
f 359 366 365
f 359 360 366
f 360 367 366
f 360 361 368
f 360 368 367
f 361 319 368
f 311 362 369
f 362 363 370
f 362 370 369
f 363 364 371
f 363 371 370
f 364 365 371
f 365 372 371
f 365 366 373
f 365 373 372
f 366 367 373
f 367 374 373
f 367 368 374
f 368 375 374
f 368 319 375
f 311 369 376
f 369 370 377
f 369 377 376
f 370 371 378
f 370 378 377
f 371 372 379
f 371 379 378
f 372 373 379
f 373 380 379
f 373 374 380
f 374 381 380
f 374 375 382
f 374 382 381
f 375 319 382
f 311 376 312
f 376 377 313
f 376 313 312
f 377 378 314
f 377 314 313
f 378 379 315
f 378 315 314
f 379 380 316
f 379 316 315
f 380 381 316
f 381 317 316
f 381 382 318
f 381 318 317
f 382 319 318
f 383 384 392
f 384 385 393
f 384 393 392
f 385 386 394
f 385 394 393
f 386 387 395
f 386 395 394
f 387 388 396
f 387 396 395
f 388 389 397
f 388 397 396
f 389 390 398
f 389 398 397
f 390 391 398
f 383 392 399
f 392 393 400
f 392 400 399
f 393 394 401
f 393 401 400
f 394 395 402
f 394 402 401
f 395 396 403
f 395 403 402
f 396 397 404
f 396 404 403
f 397 398 405
f 397 405 404
f 398 391 405
f 383 399 406
f 399 400 406
f 400 407 406
f 400 401 408
f 400 408 407
f 401 402 409
f 401 409 408
f 402 403 409
f 403 410 409
f 403 404 410
f 404 411 410
f 404 405 412
f 404 412 411
f 405 391 412
f 383 406 413
f 406 407 413
f 407 414 413
f 407 408 415
f 407 415 414
f 408 409 416
f 408 416 415
f 409 410 416
f 410 417 416
f 410 411 417
f 411 418 417
f 411 412 418
f 412 419 418
f 412 391 419
f 383 413 420
f 413 414 420
f 414 421 420
f 414 415 421
f 415 422 421
f 415 416 423
f 415 423 422
f 416 417 424
f 416 424 423
f 417 418 425
f 417 425 424
f 418 419 425
f 419 426 425
f 419 391 426
f 383 420 427
f 420 421 427
f 421 428 427
f 421 422 429
f 421 429 428
f 422 423 429
f 423 430 429
f 423 424 430
f 424 431 430
f 424 425 431
f 425 432 431
f 425 426 433
f 425 433 432
f 426 391 433
f 383 427 434
f 427 428 434
f 428 435 434
f 428 429 435
f 429 436 435
f 429 430 436
f 430 437 436
f 430 431 437
f 431 438 437
f 431 432 438
f 432 439 438
f 432 433 440
f 432 440 439
f 433 391 440
f 383 434 441
f 434 435 441
f 435 442 441
f 435 436 442
f 436 443 442
f 436 437 444
f 436 444 443
f 437 438 444
f 438 445 444
f 438 439 446
f 438 446 445
f 439 440 446
f 440 447 446
f 440 391 447
f 383 441 448
f 441 442 449
f 441 449 448
f 442 443 450
f 442 450 449
f 443 444 451
f 443 451 450
f 444 445 451
f 445 452 451
f 445 446 452
f 446 453 452
f 446 447 454
f 446 454 453
f 447 391 454
f 383 448 384
f 448 449 385
f 448 385 384
f 449 450 386
f 449 386 385
f 450 451 387
f 450 387 386
f 451 452 388
f 451 388 387
f 452 453 388
f 453 389 388
f 453 454 390
f 453 390 389
f 454 391 390
f 455 456 464
f 456 457 465
f 456 465 464
f 457 458 466
f 457 466 465
f 458 459 467
f 458 467 466
f 459 460 468
f 459 468 467
f 460 461 469
f 460 469 468
f 461 462 470
f 461 470 469
f 462 463 470
f 455 464 471
f 464 465 472
f 464 472 471
f 465 466 473
f 465 473 472
f 466 467 474
f 466 474 473
f 467 468 475
f 467 475 474
f 468 469 476
f 468 476 475
f 469 470 477
f 469 477 476
f 470 463 477
f 455 471 478
f 471 472 478
f 472 479 478
f 472 473 479
f 473 480 479
f 473 474 480
f 474 481 480
f 474 475 481
f 475 482 481
f 475 476 483
f 475 483 482
f 476 477 483
f 477 484 483
f 477 463 484
f 455 478 485
f 478 479 485
f 479 486 485
f 479 480 487
f 479 487 486
f 480 481 488
f 480 488 487
f 481 482 489
f 481 489 488
f 482 483 489
f 483 490 489
f 483 484 490
f 484 491 490
f 484 463 491
f 455 485 492
f 485 486 492
f 486 493 492
f 486 487 493
f 487 494 493
f 487 488 495
f 487 495 494
f 488 489 496
f 488 496 495
f 489 490 497
f 489 497 496
f 490 491 497
f 491 498 497
f 491 463 498
f 455 492 499
f 492 493 499
f 493 500 499
f 493 494 501
f 493 501 500
f 494 495 501
f 495 502 501
f 495 496 502
f 496 503 502
f 496 497 503
f 497 504 503
f 497 498 505
f 497 505 504
f 498 463 505
f 455 499 506
f 499 500 506
f 500 507 506
f 500 501 507
f 501 508 507
f 501 502 508
f 502 509 508
f 502 503 509
f 503 510 509
f 503 504 510
f 504 511 510
f 504 505 512
f 504 512 511
f 505 463 512
f 455 506 513
f 506 507 514
f 506 514 513
f 507 508 515
f 507 515 514
f 508 509 516
f 508 516 515
f 509 510 517
f 509 517 516
f 510 511 517
f 511 518 517
f 511 512 519
f 511 519 518
f 512 463 519
f 455 513 520
f 513 514 520
f 514 521 520
f 514 515 522
f 514 522 521
f 515 516 523
f 515 523 522
f 516 517 523
f 517 524 523
f 517 518 524
f 518 525 524
f 518 519 526
f 518 526 525
f 519 463 526
f 455 520 456
f 520 521 457
f 520 457 456
f 521 522 458
f 521 458 457
f 522 523 459
f 522 459 458
f 523 524 460
f 523 460 459
f 524 525 460
f 525 461 460
f 525 526 462
f 525 462 461
f 526 463 462
f 527 528 536
f 528 529 537
f 528 537 536
f 529 530 538
f 529 538 537
f 530 531 539
f 530 539 538
f 531 532 540
f 531 540 539
f 532 533 541
f 532 541 540
f 533 534 541
f 534 542 541
f 534 535 542
f 527 536 543
f 536 537 544
f 536 544 543
f 537 538 545
f 537 545 544
f 538 539 546
f 538 546 545
f 539 540 547
f 539 547 546
f 540 541 548
f 540 548 547
f 541 542 548
f 542 549 548
f 542 535 549
f 527 543 550
f 543 544 550
f 544 551 550
f 544 545 552
f 544 552 551
f 545 546 553
f 545 553 552
f 546 547 554
f 546 554 553
f 547 548 554
f 548 555 554
f 548 549 556
f 548 556 555
f 549 535 556
f 527 550 557
f 550 551 557
f 551 558 557
f 551 552 559
f 551 559 558
f 552 553 560
f 552 560 559
f 553 554 561
f 553 561 560
f 554 555 561
f 555 562 561
f 555 556 562
f 556 563 562
f 556 535 563
f 527 557 564
f 557 558 564
f 558 565 564
f 558 559 565
f 559 566 565
f 559 560 567
f 559 567 566
f 560 561 568
f 560 568 567
f 561 562 569
f 561 569 568
f 562 563 569
f 563 570 569
f 563 535 570
f 527 564 571
f 564 565 571
f 565 572 571
f 565 566 573
f 565 573 572
f 566 567 573
f 567 574 573
f 567 568 574
f 568 575 574
f 568 569 575
f 569 576 575
f 569 570 577
f 569 577 576
f 570 535 577
f 527 571 578
f 571 572 578
f 572 579 578
f 572 573 579
f 573 580 579
f 573 574 580
f 574 581 580
f 574 575 581
f 575 582 581
f 575 576 582
f 576 583 582
f 576 577 584
f 576 584 583
f 577 535 584
f 527 578 585
f 578 579 586
f 578 586 585
f 579 580 586
f 580 587 586
f 580 581 588
f 580 588 587
f 581 582 589
f 581 589 588
f 582 583 589
f 583 590 589
f 583 584 591
f 583 591 590
f 584 535 591
f 527 585 592
f 585 586 592
f 586 593 592
f 586 587 594
f 586 594 593
f 587 588 595
f 587 595 594
f 588 589 595
f 589 596 595
f 589 590 596
f 590 597 596
f 590 591 598
f 590 598 597
f 591 535 598
f 527 592 528
f 592 593 528
f 593 529 528
f 593 594 530
f 593 530 529
f 594 595 531
f 594 531 530
f 595 596 531
f 596 532 531
f 596 597 532
f 597 533 532
f 597 598 534
f 597 534 533
f 598 535 534
f 599 600 608
f 600 601 609
f 600 609 608
f 601 602 609
f 602 610 609
f 602 603 610
f 603 611 610
f 603 604 612
f 603 612 611
f 604 605 612
f 605 613 612
f 605 606 613
f 606 614 613
f 606 607 614
f 599 608 615
f 608 609 616
f 608 616 615
f 609 610 616
f 610 617 616
f 610 611 617
f 611 618 617
f 611 612 618
f 612 619 618
f 612 613 619
f 613 620 619
f 613 614 620
f 614 621 620
f 614 607 621
f 599 615 622
f 615 616 622
f 616 623 622
f 616 617 624
f 616 624 623
f 617 618 625
f 617 625 624
f 618 619 625
f 619 626 625
f 619 620 627
f 619 627 626
f 620 621 627
f 621 628 627
f 621 607 628
f 599 622 629
f 622 623 629
f 623 630 629
f 623 624 631
f 623 631 630
f 624 625 632
f 624 632 631
f 625 626 632
f 626 633 632
f 626 627 634
f 626 634 633
f 627 628 635
f 627 635 634
f 628 607 635
f 599 629 636
f 629 630 636
f 630 637 636
f 630 631 638
f 630 638 637
f 631 632 639
f 631 639 638
f 632 633 639
f 633 640 639
f 633 634 641
f 633 641 640
f 634 635 642
f 634 642 641
f 635 607 642
f 599 636 643
f 636 637 643
f 637 644 643
f 637 638 645
f 637 645 644
f 638 639 646
f 638 646 645
f 639 640 647
f 639 647 646
f 640 641 648
f 640 648 647
f 641 642 649
f 641 649 648
f 642 607 649
f 599 643 650
f 643 644 650
f 644 651 650
f 644 645 651
f 645 652 651
f 645 646 653
f 645 653 652
f 646 647 654
f 646 654 653
f 647 648 655
f 647 655 654
f 648 649 656
f 648 656 655
f 649 607 656
f 599 650 657
f 650 651 658
f 650 658 657
f 651 652 658
f 652 659 658
f 652 653 660
f 652 660 659
f 653 654 660
f 654 661 660
f 654 655 661
f 655 662 661
f 655 656 663
f 655 663 662
f 656 607 663
f 599 657 664
f 657 658 665
f 657 665 664
f 658 659 666
f 658 666 665
f 659 660 666
f 660 667 666
f 660 661 667
f 661 668 667
f 661 662 668
f 662 669 668
f 662 663 670
f 662 670 669
f 663 607 670
f 599 664 600
f 664 665 601
f 664 601 600
f 665 666 601
f 666 602 601
f 666 667 602
f 667 603 602
f 667 668 603
f 668 604 603
f 668 669 604
f 669 605 604
f 669 670 606
f 669 606 605
f 670 607 606
f 671 672 680
f 672 673 681
f 672 681 680
f 673 674 682
f 673 682 681
f 674 675 683
f 674 683 682
f 675 676 684
f 675 684 683
f 676 677 685
f 676 685 684
f 677 678 686
f 677 686 685
f 678 679 686
f 671 680 687
f 680 681 688
f 680 688 687
f 681 682 689
f 681 689 688
f 682 683 690
f 682 690 689
f 683 684 691
f 683 691 690
f 684 685 692
f 684 692 691
f 685 686 693
f 685 693 692
f 686 679 693
f 671 687 694
f 687 688 694
f 688 695 694
f 688 689 696
f 688 696 695
f 689 690 697
f 689 697 696
f 690 691 698
f 690 698 697
f 691 692 699
f 691 699 698
f 692 693 699
f 693 700 699
f 693 679 700
f 671 694 701
f 694 695 701
f 695 702 701
f 695 696 703
f 695 703 702
f 696 697 704
f 696 704 703
f 697 698 704
f 698 705 704
f 698 699 705
f 699 706 705
f 699 700 706
f 700 707 706
f 700 679 707
f 671 701 708
f 701 702 708
f 702 709 708
f 702 703 710
f 702 710 709
f 703 704 711
f 703 711 710
f 704 705 711
f 705 712 711
f 705 706 712
f 706 713 712
f 706 707 713
f 707 714 713
f 707 679 714
f 671 708 715
f 708 709 715
f 709 716 715
f 709 710 716
f 710 717 716
f 710 711 717
f 711 718 717
f 711 712 718
f 712 719 718
f 712 713 719
f 713 720 719
f 713 714 721
f 713 721 720
f 714 679 721
f 671 715 722
f 715 716 722
f 716 723 722
f 716 717 723
f 717 724 723
f 717 718 724
f 718 725 724
f 718 719 725
f 719 726 725
f 719 720 726
f 720 727 726
f 720 721 728
f 720 728 727
f 721 679 728
f 671 722 729
f 722 723 730
f 722 730 729
f 723 724 730
f 724 731 730
f 724 725 731
f 725 732 731
f 725 726 733
f 725 733 732
f 726 727 733
f 727 734 733
f 727 728 734
f 728 735 734
f 728 679 735
f 671 729 736
f 729 730 737
f 729 737 736
f 730 731 738
f 730 738 737
f 731 732 739
f 731 739 738
f 732 733 740
f 732 740 739
f 733 734 741
f 733 741 740
f 734 735 741
f 735 742 741
f 735 679 742
f 671 736 672
f 736 737 673
f 736 673 672
f 737 738 674
f 737 674 673
f 738 739 675
f 738 675 674
f 739 740 676
f 739 676 675
f 740 741 677
f 740 677 676
f 741 742 677
f 742 678 677
f 742 679 678
f 743 744 752
f 744 745 753
f 744 753 752
f 745 746 754
f 745 754 753
f 746 747 755
f 746 755 754
f 747 748 756
f 747 756 755
f 748 749 757
f 748 757 756
f 749 750 758
f 749 758 757
f 750 751 758
f 743 752 759
f 752 753 760
f 752 760 759
f 753 754 761
f 753 761 760
f 754 755 762
f 754 762 761
f 755 756 763
f 755 763 762
f 756 757 764
f 756 764 763
f 757 758 765
f 757 765 764
f 758 751 765
f 743 759 766
f 759 760 767
f 759 767 766
f 760 761 767
f 761 768 767
f 761 762 768
f 762 769 768
f 762 763 770
f 762 770 769
f 763 764 770
f 764 771 770
f 764 765 772
f 764 772 771
f 765 751 772
f 743 766 773
f 766 767 773
f 767 774 773
f 767 768 775
f 767 775 774
f 768 769 776
f 768 776 775
f 769 770 776
f 770 777 776
f 770 771 777
f 771 778 777
f 771 772 778
f 772 779 778
f 772 751 779
f 743 773 780
f 773 774 780
f 774 781 780
f 774 775 782
f 774 782 781
f 775 776 783
f 775 783 782
f 776 777 783
f 777 784 783
f 777 778 784
f 778 785 784
f 778 779 785
f 779 786 785
f 779 751 786
f 743 780 787
f 780 781 787
f 781 788 787
f 781 782 788
f 782 789 788
f 782 783 789
f 783 790 789
f 783 784 790
f 784 791 790
f 784 785 791
f 785 792 791
f 785 786 793
f 785 793 792
f 786 751 793
f 743 787 794
f 787 788 794
f 788 795 794
f 788 789 795
f 789 796 795
f 789 790 796
f 790 797 796
f 790 791 797
f 791 798 797
f 791 792 798
f 792 799 798
f 792 793 800
f 792 800 799
f 793 751 800
f 743 794 801
f 794 795 801
f 795 802 801
f 795 796 803
f 795 803 802
f 796 797 804
f 796 804 803
f 797 798 804
f 798 805 804
f 798 799 806
f 798 806 805
f 799 800 807
f 799 807 806
f 800 751 807
f 743 801 808
f 801 802 809
f 801 809 808
f 802 803 810
f 802 810 809
f 803 804 811
f 803 811 810
f 804 805 812
f 804 812 811
f 805 806 812
f 806 813 812
f 806 807 814
f 806 814 813
f 807 751 814
f 743 808 744
f 808 809 745
f 808 745 744
f 809 810 746
f 809 746 745
f 810 811 747
f 810 747 746
f 811 812 748
f 811 748 747
f 812 813 749
f 812 749 748
f 813 814 749
f 814 750 749
f 814 751 750
f 815 816 824
f 816 817 825
f 816 825 824
f 817 818 826
f 817 826 825
f 818 819 827
f 818 827 826
f 819 820 828
f 819 828 827
f 820 821 829
f 820 829 828
f 821 822 830
f 821 830 829
f 822 823 830
f 815 824 831
f 824 825 832
f 824 832 831
f 825 826 833
f 825 833 832
f 826 827 834
f 826 834 833
f 827 828 835
f 827 835 834
f 828 829 836
f 828 836 835
f 829 830 837
f 829 837 836
f 830 823 837
f 815 831 838
f 831 832 838
f 832 839 838
f 832 833 839
f 833 840 839
f 833 834 840
f 834 841 840
f 834 835 841
f 835 842 841
f 835 836 842
f 836 843 842
f 836 837 844
f 836 844 843
f 837 823 844
f 815 838 845
f 838 839 845
f 839 846 845
f 839 840 847
f 839 847 846
f 840 841 848
f 840 848 847
f 841 842 848
f 842 849 848
f 842 843 849
f 843 850 849
f 843 844 850
f 844 851 850
f 844 823 851
f 815 845 852
f 845 846 852
f 846 853 852
f 846 847 854
f 846 854 853
f 847 848 855
f 847 855 854
f 848 849 855
f 849 856 855
f 849 850 856
f 850 857 856
f 850 851 857
f 851 858 857
f 851 823 858
f 815 852 859
f 852 853 859
f 853 860 859
f 853 854 860
f 854 861 860
f 854 855 861
f 855 862 861
f 855 856 862
f 856 863 862
f 856 857 863
f 857 864 863
f 857 858 865
f 857 865 864
f 858 823 865
f 815 859 866
f 859 860 866
f 860 867 866
f 860 861 867
f 861 868 867
f 861 862 868
f 862 869 868
f 862 863 869
f 863 870 869
f 863 864 870
f 864 871 870
f 864 865 872
f 864 872 871
f 865 823 872
f 815 866 873
f 866 867 874
f 866 874 873
f 867 868 875
f 867 875 874
f 868 869 875
f 869 876 875
f 869 870 877
f 869 877 876
f 870 871 878
f 870 878 877
f 871 872 878
f 872 879 878
f 872 823 879
f 815 873 880
f 873 874 881
f 873 881 880
f 874 875 882
f 874 882 881
f 875 876 883
f 875 883 882
f 876 877 884
f 876 884 883
f 877 878 884
f 878 885 884
f 878 879 886
f 878 886 885
f 879 823 886
f 815 880 816
f 880 881 817
f 880 817 816
f 881 882 818
f 881 818 817
f 882 883 819
f 882 819 818
f 883 884 820
f 883 820 819
f 884 885 821
f 884 821 820
f 885 886 821
f 886 822 821
f 886 823 822
f 887 888 896
f 888 889 897
f 888 897 896
f 889 890 898
f 889 898 897
f 890 891 899
f 890 899 898
f 891 892 900
f 891 900 899
f 892 893 901
f 892 901 900
f 893 894 902
f 893 902 901
f 894 895 902
f 887 896 903
f 896 897 904
f 896 904 903
f 897 898 905
f 897 905 904
f 898 899 906
f 898 906 905
f 899 900 907
f 899 907 906
f 900 901 908
f 900 908 907
f 901 902 909
f 901 909 908
f 902 895 909
f 887 903 910
f 903 904 911
f 903 911 910
f 904 905 912
f 904 912 911
f 905 906 913
f 905 913 912
f 906 907 914
f 906 914 913
f 907 908 914
f 908 915 914
f 908 909 915
f 909 916 915
f 909 895 916
f 887 910 917
f 910 911 917
f 911 918 917
f 911 912 919
f 911 919 918
f 912 913 920
f 912 920 919
f 913 914 920
f 914 921 920
f 914 915 921
f 915 922 921
f 915 916 922
f 916 923 922
f 916 895 923
f 887 917 924
f 917 918 924
f 918 925 924
f 918 919 926
f 918 926 925
f 919 920 927
f 919 927 926
f 920 921 927
f 921 928 927
f 921 922 928
f 922 929 928
f 922 923 929
f 923 930 929
f 923 895 930
f 887 924 931
f 924 925 931
f 925 932 931
f 925 926 932
f 926 933 932
f 926 927 933
f 927 934 933
f 927 928 934
f 928 935 934
f 928 929 935
f 929 936 935
f 929 930 937
f 929 937 936
f 930 895 937
f 887 931 938
f 931 932 938
f 932 939 938
f 932 933 939
f 933 940 939
f 933 934 940
f 934 941 940
f 934 935 941
f 935 942 941
f 935 936 942
f 936 943 942
f 936 937 944
f 936 944 943
f 937 895 944
f 887 938 945
f 938 939 946
f 938 946 945
f 939 940 947
f 939 947 946
f 940 941 948
f 940 948 947
f 941 942 948
f 942 949 948
f 942 943 949
f 943 950 949
f 943 944 950
f 944 951 950
f 944 895 951
f 887 945 952
f 945 946 953
f 945 953 952
f 946 947 954
f 946 954 953
f 947 948 955
f 947 955 954
f 948 949 956
f 948 956 955
f 949 950 956
f 950 957 956
f 950 951 958
f 950 958 957
f 951 895 958
f 887 952 888
f 952 953 889
f 952 889 888
f 953 954 890
f 953 890 889
f 954 955 891
f 954 891 890
f 955 956 892
f 955 892 891
f 956 957 893
f 956 893 892
f 957 958 893
f 958 894 893
f 958 895 894
