# Blender 4.5.1 LTS
# www.blender.org
o humerus
v -0.003244 0.022145 0.007029
v -0.009188 0.021756 0.003054
v -0.015251 0.017942 0.003615
v -0.018212 0.012891 0.007792
v -0.016575 0.009246 0.013576
v -0.010928 0.009649 0.017587
v -0.004086 0.014405 0.017265
v -0.002427 0.019449 0.012335
v -0.002748 0.022122 0.006969
v 0.002353 0.023356 0.002803
v -0.007155 0.022663 -0.003832
v -0.017598 0.015852 -0.002462
v -0.021310 0.008721 0.004652
v -0.017751 0.002869 0.014689
v -0.008703 0.003965 0.020695
v 0.001233 0.010930 0.020080
v 0.004971 0.020040 0.011575
v 0.002739 0.023418 0.002639
v 0.008170 0.022454 -0.001271
v -0.003993 0.021530 -0.010593
v -0.018156 0.012355 -0.008206
v -0.022899 0.002425 0.002320
v -0.018077 -0.002902 0.014250
v -0.005922 -0.000902 0.022249
v 0.006589 0.004748 0.020926
v 0.012041 0.017227 0.009431
v 0.008166 0.022208 -0.002045
v 0.011549 0.021347 -0.004581
v 0.000434 0.020121 -0.014291
v -0.017473 0.010115 -0.010857
v -0.022446 -0.000708 -0.001880
v -0.017680 -0.007626 0.011885
v -0.004088 -0.008184 0.021088
v 0.011399 0.000412 0.019046
v 0.015519 0.015315 0.008920
v 0.012084 0.020805 -0.005781
v 0.015023 0.015432 -0.008562
v 0.004268 0.017597 -0.020783
v -0.009264 0.012481 -0.017274
v -0.014553 0.005100 -0.012266
v -0.018456 -0.005989 -0.001841
v -0.014168 -0.010596 0.006234
v -0.004545 -0.013629 0.015277
v 0.012713 -0.003616 0.013975
v 0.020082 0.010297 0.004429
v 0.015269 0.015820 -0.009177
v 0.016555 0.007919 -0.010461
v 0.016959 0.011885 -0.015338
v 0.007396 0.012197 -0.025325
v -0.003283 0.008705 -0.026377
v -0.013737 0.001648 -0.022501
v -0.016766 -0.004063 -0.016965
v -0.012606 -0.009845 -0.008658
v -0.009881 -0.016235 0.002200
v -0.002202 -0.020117 0.011343
v 0.013524 -0.010481 0.008362
v 0.021547 -0.004656 0.007384
v 0.025149 0.000617 0.001751
v 0.025735 0.003363 -0.003644
v 0.024020 0.006003 -0.007184
v -0.010938 0.015935 0.012544
v 0.012182 -0.023823 -0.005011
v 0.011030 -0.041944 -0.002473
v 0.012750 -0.042884 -0.007851
v 0.013496 -0.025435 -0.011856
v 0.008526 -0.041976 -0.012286
v 0.010080 -0.027862 -0.014966
v -0.000761 -0.042723 -0.012073
v -0.000955 -0.029565 -0.014659
v -0.007797 -0.042698 -0.005221
v -0.005025 -0.028850 -0.011905
v -0.007637 -0.026900 -0.003417
v -0.008240 -0.043255 -0.001167
v -0.007076 -0.026718 0.003651
v -0.000496 -0.041919 0.008140
v -0.000292 -0.025300 0.009993
v 0.008762 -0.042400 0.007335
v 0.011699 -0.023893 0.006030
v 0.011456 -0.042134 0.003658
v 0.013812 -0.024251 -0.000533
v 0.011026 -0.041941 -0.002471
v 0.011295 -0.070937 -0.000594
v 0.012629 -0.073147 -0.007015
v 0.003747 -0.071300 -0.010301
v -0.006409 -0.071249 -0.005919
v -0.007978 -0.071089 -0.001440
v -0.007103 -0.070953 0.003238
v -0.001930 -0.069544 0.008766
v 0.005248 -0.069828 0.008195
v 0.010276 -0.070448 0.004992
v 0.011294 -0.070990 -0.000586
v 0.009461 -0.096869 0.002659
v 0.010547 -0.099296 -0.005653
v 0.003011 -0.096196 -0.009137
v -0.003479 -0.096289 -0.009406
v -0.007278 -0.095051 -0.005450
v -0.008139 -0.094138 0.002078
v -0.002702 -0.094297 0.011240
v 0.004935 -0.096129 0.010073
v 0.009450 -0.096810 0.002643
v 0.008569 -0.119485 0.004240
v 0.009790 -0.116960 -0.004989
v 0.004835 -0.117444 -0.008255
v -0.003266 -0.116925 -0.008734
v -0.006328 -0.117512 -0.004643
v -0.008821 -0.117296 0.003839
v -0.006297 -0.117521 0.010624
v 0.002875 -0.118829 0.011929
v -0.005818 -0.020940 -0.014888
v -0.008856 -0.013017 -0.018095
v -0.008528 -0.020831 -0.004821
v -0.009350 -0.016567 -0.006621
v -0.007876 -0.022418 0.003686
v 0.011849 -0.017701 0.006517
v 0.015308 -0.015891 0.005226
v 0.018906 -0.009752 0.005891
v 0.020639 -0.007164 0.002529
v 0.021890 -0.005532 -0.001109
v 0.023147 -0.003132 -0.004990
v 0.016395 -0.015339 0.002319
v 0.017376 -0.014082 -0.001727
v 0.016320 -0.002660 -0.009930
v 0.017201 -0.003261 -0.017416
v 0.013916 -0.014016 -0.007850
v 0.013998 -0.016768 -0.014428
v 0.006757 -0.005730 -0.024424
v -0.007993 -0.006661 -0.024288
v 0.007661 -0.018510 -0.018617
v -0.000738 -0.019969 -0.018286
v 0.000073 -0.282517 0.042841
v -0.001307 -0.285146 0.043295
v -0.000876 -0.290486 0.041449
v 0.002684 -0.293483 0.036206
v 0.005130 -0.293851 0.030730
v 0.011529 -0.301300 0.028188
v -0.002660 -0.283083 0.043811
v -0.004632 -0.285732 0.041886
v -0.005840 -0.285337 0.036744
v -0.004656 -0.285036 0.031411
v -0.002703 -0.290263 0.027093
v 0.001644 -0.302885 0.025455
v -0.000048 -0.275476 0.040749
v -0.005837 -0.275374 0.032872
v -0.004980 -0.283163 0.030496
v -0.004352 -0.286292 0.025248
v -0.004472 -0.289312 0.023766
v -0.004438 -0.297099 0.022931
v -0.000219 -0.270320 0.033987
v -0.005680 -0.274132 0.025349
v -0.005405 -0.291137 0.020941
v -0.003259 -0.288600 0.015178
v -0.003140 -0.288734 0.009550
v -0.004918 -0.287426 0.002675
v -0.008215 -0.286556 -0.000746
v -0.000784 -0.276645 0.021792
v 0.002830 -0.278378 0.017336
v 0.004227 -0.279963 0.012833
v 0.001871 -0.279556 0.004865
v -0.005255 -0.280590 0.000546
v -0.007604 -0.281241 0.000560
v 0.009713 -0.278483 0.024464
v -0.006093 -0.270213 0.019561
v -0.001314 -0.273361 0.016955
v 0.000624 -0.274196 0.011630
v -0.001128 -0.274224 0.006328
v -0.004515 -0.274949 0.003621
v -0.008726 -0.273296 0.001730
v 0.000543 -0.269516 0.019547
v -0.006970 -0.266334 0.009127
v 0.015406 -0.284528 0.025336
v 0.013312 -0.283321 0.020058
v 0.012064 -0.284744 0.012793
v 0.010340 -0.283020 0.008705
v 0.008863 -0.281382 0.004190
v 0.017580 -0.289385 0.026864
v 0.015714 -0.288724 0.018685
v 0.013675 -0.288393 0.012535
v 0.013172 -0.285872 0.009064
v 0.013613 -0.285364 0.005840
v 0.017085 -0.294865 0.027418
v 0.015569 -0.293575 0.019386
v 0.013521 -0.292119 0.012723
v 0.014468 -0.292237 0.008933
v 0.014833 -0.292261 0.006123
v 0.011632 -0.299754 0.020103
v 0.010544 -0.297107 0.013407
v 0.010647 -0.296786 0.009133
v 0.009532 -0.298110 0.004600
v 0.004218 -0.301180 0.018558
v 0.003966 -0.298370 0.011211
v 0.003981 -0.298598 0.007254
v 0.003666 -0.299191 0.002382
v -0.002499 -0.296840 0.018021
v -0.000776 -0.295464 0.010884
v -0.000540 -0.296957 0.005080
v -0.001149 -0.298908 -0.000018
v -0.003687 -0.291230 0.016841
v -0.002755 -0.291286 0.009557
v -0.004298 -0.291975 0.002914
v -0.007010 -0.293095 -0.000731
v 0.005384 -0.291532 0.037754
v 0.007230 -0.291693 0.030575
v 0.006180 -0.280740 0.038444
v 0.008076 -0.279409 0.031089
v 0.009639 -0.278443 0.024458
v 0.006761 -0.285540 0.036787
v 0.008795 -0.286054 0.030469
v 0.006566 -0.290087 0.035287
v 0.003730 -0.266854 0.025257
v 0.006736 -0.264837 0.016813
v 0.006186 -0.262338 0.012123
v 0.003690 -0.273340 0.034135
v 0.005615 -0.271728 0.027749
v -0.007667 -0.260900 -0.010428
v -0.011129 -0.261075 0.000199
v -0.008536 -0.259852 0.015319
v -0.001495 -0.260297 0.025350
v -0.010141 -0.279368 -0.004475
v -0.010110 -0.273404 -0.009054
v -0.009356 -0.265051 -0.011089
v -0.005826 -0.290703 -0.005216
v -0.005376 -0.291468 -0.010361
v -0.005761 -0.286223 -0.013935
v -0.005254 -0.279402 -0.016580
v -0.004235 -0.270576 -0.014945
v -0.000776 -0.297935 -0.007316
v -0.001011 -0.294387 -0.013980
v 0.001717 -0.290230 -0.018066
v 0.000610 -0.286407 -0.019544
v -0.000330 -0.281830 -0.020771
v 0.002317 -0.297589 -0.011059
v 0.007459 -0.295108 -0.014537
v 0.010172 -0.289351 -0.016043
v 0.008882 -0.280127 -0.015309
v 0.009263 -0.283447 -0.016698
v 0.005068 -0.299011 -0.001932
v 0.009922 -0.297249 -0.000014
v 0.013551 -0.292249 0.002188
v 0.013115 -0.286306 0.001260
v 0.009440 -0.282017 -0.000790
v 0.003432 -0.299874 -0.006789
v 0.011076 -0.299271 -0.006353
v 0.015577 -0.295345 -0.006527
v 0.016858 -0.291095 -0.005933
v 0.016818 -0.286690 -0.006324
v 0.013095 -0.281182 -0.006746
v 0.008211 -0.278995 -0.007128
v 0.006782 -0.299695 -0.010843
v 0.011682 -0.296932 -0.013931
v 0.014112 -0.291093 -0.016133
v 0.014688 -0.285734 -0.015138
v 0.011296 -0.281280 -0.014078
v -0.000979 -0.298563 -0.004093
v 0.004632 -0.278044 -0.011244
v 0.002939 -0.274501 -0.008290
v 0.003082 -0.272393 -0.004595
v 0.006112 -0.266775 0.007410
v 0.006751 -0.271682 0.006277
v 0.004070 -0.274857 -0.001301
v 0.008000 -0.278592 0.004304
v 0.005370 -0.277938 -0.000189
v 0.007513 -0.280087 0.000029
v 0.005973 -0.278931 -0.009821
v 0.006291 -0.279137 -0.003778
v 0.004212 -0.277520 -0.005751
v 0.006441 -0.280080 0.008673
v 0.006099 -0.280151 0.017543
v 0.005123 -0.272035 0.009627
v 0.004907 -0.271847 0.014437
v 0.005456 -0.266769 0.012823
v 0.006000 -0.261020 0.015902
v 0.005545 -0.262529 0.007731
v 0.002280 -0.262817 -0.000811
v 0.003717 -0.246915 0.014849
v 0.005378 -0.245431 0.008828
v 0.001550 -0.245784 0.001498
v -0.009665 -0.244816 -0.005731
v -0.012037 -0.242822 0.001386
v -0.011241 -0.242399 0.011966
v -0.003615 -0.247872 0.021303
v 0.000268 -0.246665 0.017915
v 0.003721 -0.246949 0.014852
v 0.005380 -0.192929 0.010625
v 0.003402 -0.226637 0.013316
v 0.005137 -0.226970 0.007943
v 0.005411 -0.194794 0.004278
v -0.000305 -0.225814 0.000853
v 0.000466 -0.193890 -0.000268
v -0.010525 -0.226541 -0.003325
v -0.007298 -0.193380 -0.001301
v -0.013335 -0.226722 0.003529
v -0.013444 -0.193071 0.004460
v -0.012748 -0.227827 0.012980
v -0.012463 -0.192921 0.012504
v -0.005256 -0.227419 0.018903
v -0.002420 -0.192819 0.017128
v -0.001158 -0.228425 0.017326
v 0.002633 -0.193354 0.014930
v 0.003408 -0.226693 0.013317
v 0.005355 -0.193003 0.010619
v 0.007425 -0.150734 0.007848
v 0.007986 -0.152205 0.000563
v 0.004291 -0.151938 -0.003414
v 0.000289 -0.151330 -0.005056
v -0.005137 -0.148847 -0.003371
v -0.010171 -0.147607 0.003716
v -0.008081 -0.148241 0.012067
v 0.001852 -0.148773 0.014361
v 0.008472 -0.119500 0.004121
vn -0.3301 0.9335 -0.1403
vn -0.0211 0.9973 -0.0702
vn -0.2420 0.9284 0.2821
vn -0.4216 0.8913 0.1668
vn -0.7617 0.6360 -0.1237
vn -0.6703 0.7146 0.2000
vn -0.9240 0.3148 0.2169
vn -0.7762 0.4886 0.3984
vn -0.7559 0.1225 0.6431
vn -0.6495 0.3744 0.6618
vn -0.3408 0.2102 0.9163
vn -0.3908 0.4312 0.8132
vn 0.0809 0.4562 0.8862
vn -0.1659 0.6252 0.7627
vn 0.2269 0.8117 0.5382
vn -0.1017 0.8354 0.5401
vn 0.1688 0.9211 0.3509
vn 0.1334 0.8903 0.4355
vn -0.2356 0.8783 -0.4161
vn 0.0821 0.9748 -0.2075
vn -0.7848 0.4903 -0.3791
vn -0.9967 0.0624 0.0528
vn -0.7760 -0.1462 0.6135
vn -0.2242 -0.0648 0.9724
vn 0.2819 0.2772 0.9185
vn 0.4726 0.7208 0.5070
vn 0.4388 0.8701 0.2247
vn 0.0156 0.8850 -0.4653
vn 0.2837 0.8557 -0.4327
vn -0.6247 0.4741 -0.6205
vn -0.8979 -0.1966 -0.3940
vn -0.7613 -0.5928 0.2627
vn -0.2563 -0.5652 0.7841
vn 0.5367 -0.2602 0.8026
vn 0.7385 0.4413 0.5098
vn 0.6605 0.7438 0.1028
vn 0.6444 0.7269 -0.2375
vn 0.0236 0.8796 -0.4752
vn -0.6256 0.5096 -0.5907
vn -0.9124 0.1926 -0.3613
vn -0.8124 -0.5535 -0.1833
vn -0.6491 -0.7043 0.2874
vn 0.1233 -0.6300 0.7667
vn 0.7073 -0.1410 0.6927
vn 0.8380 0.4738 0.2706
vn 0.7595 0.5475 -0.3512
vn 0.8469 0.3481 -0.4021
vn 0.9363 0.0726 -0.3435
vn 0.1874 0.4698 -0.8626
vn -0.2384 0.2685 -0.9333
vn -0.7787 0.0929 -0.6205
vn -0.9149 -0.2819 -0.2890
vn -0.7865 -0.6017 -0.1393
vn -0.8516 -0.5121 0.1120
vn -0.3031 -0.4578 0.8358
vn 0.3977 -0.3685 0.8402
vn 0.6835 -0.3987 0.6115
vn 0.9312 -0.0994 0.3507
vn 0.9981 -0.0089 -0.0602
vn 0.7579 0.1953 -0.6224
vn -0.4429 0.7079 0.5502
vn 0.9459 -0.0798 -0.3144
vn 0.9629 0.0029 0.2697
vn 0.9846 -0.1538 -0.0827
vn 0.9473 -0.1446 -0.2858
vn 0.3237 -0.1789 -0.9291
vn 0.3731 -0.2401 -0.8962
vn -0.4408 -0.1350 -0.8874
vn -0.3153 -0.2825 -0.9060
vn -0.9155 -0.0721 -0.3959
vn -0.7962 -0.2201 -0.5635
vn -0.9948 -0.0678 -0.0754
vn -0.9455 0.0011 0.3256
vn -0.8677 -0.1012 0.4868
vn -0.3629 -0.0424 0.9309
vn -0.1571 -0.1495 0.9762
vn 0.4679 -0.0371 0.8830
vn 0.7196 -0.1605 0.6756
vn 0.9626 -0.0558 0.2651
vn 0.9729 -0.2313 -0.0052
vn 0.9825 -0.0846 -0.1661
vn 0.8859 -0.0444 -0.4617
vn 0.9815 -0.0320 0.1886
vn 0.1156 -0.0361 -0.9926
vn -0.6104 -0.0175 -0.7919
vn -0.9507 0.0049 -0.3102
vn -0.9643 0.0066 0.2648
vn -0.5462 0.0599 0.8355
vn 0.2550 0.0367 0.9663
vn 0.8290 -0.0259 0.5586
vn 0.9947 -0.0251 0.0995
vn 0.8936 -0.0601 -0.4448
vn 0.9899 -0.0398 0.1358
vn 0.2180 -0.0425 -0.9750
vn -0.5543 -0.0078 -0.8323
vn -0.9522 0.0005 -0.3056
vn -0.9456 0.0564 0.3203
vn -0.2768 0.0813 0.9575
vn 0.6052 0.0167 0.7959
vn 0.9091 -0.0396 0.4148
vn 0.9236 -0.0812 -0.3746
vn 0.9546 -0.0226 0.2971
vn 0.3411 -0.0776 -0.9368
vn -0.3296 -0.0713 -0.9414
vn -0.8579 -0.0338 -0.5127
vn -0.9984 0.0314 0.0462
vn -0.6098 0.0725 0.7892
vn 0.4294 0.0358 0.9024
vn -0.9714 -0.1974 -0.1320
vn -0.7649 -0.4054 -0.5006
vn -0.9291 -0.3541 -0.1069
vn -0.7764 -0.4926 -0.3931
vn -0.9205 -0.2219 0.3215
vn 0.3915 -0.2151 0.8947
vn 0.7120 -0.3674 0.5984
vn 0.7167 -0.4715 0.5138
vn 0.8742 -0.4772 0.0897
vn 0.8922 -0.4506 0.0309
vn 0.8089 -0.3764 -0.4516
vn 0.8901 -0.4233 0.1689
vn 0.8913 -0.4151 -0.1822
vn 0.8823 -0.1923 -0.4296
vn 0.9092 -0.1363 -0.3933
vn 0.9331 -0.2598 -0.2487
vn 0.9074 -0.2134 -0.3621
vn 0.3061 -0.1903 -0.9328
vn -0.3806 -0.3627 -0.8507
vn 0.3185 -0.3305 -0.8884
vn -0.2358 -0.4075 -0.8823
vn -0.7472 -0.1110 0.6553
vn -0.6001 0.0230 0.7996
vn 0.4024 -0.1133 0.9084
vn 0.2163 -0.3878 0.8960
vn -0.7350 -0.6545 0.1773
vn -0.2626 -0.6526 0.7107
vn -0.7197 -0.6891 0.0850
vn -0.2985 -0.9262 0.2302
vn -0.7404 -0.4887 0.4614
vn 0.0750 -0.7377 0.6709
vn -0.4844 -0.7953 0.3645
vn 0.3447 -0.7649 0.5442
vn -0.8946 0.3461 0.2827
vn 0.0852 0.6589 0.7474
vn -0.9911 0.0124 0.1328
vn -0.6915 -0.6006 0.4014
vn -0.9444 -0.1484 0.2936
vn -0.9390 -0.3280 0.1031
vn -0.1095 0.8038 0.5847
vn -0.9955 -0.0416 -0.0849
vn -0.9878 -0.1111 -0.1089
vn -0.8353 -0.1727 -0.5220
vn -0.9149 0.2914 -0.2795
vn -0.9203 0.1107 -0.3753
vn -0.9563 0.2920 -0.0141
vn -0.0868 0.9392 0.3323
vn -0.8433 0.1900 0.5027
vn -0.7244 -0.1347 0.6761
vn -0.3675 -0.1306 0.9208
vn -0.7404 -0.0838 0.6669
vn -0.5078 -0.1745 0.8436
vn -0.6948 -0.6622 -0.2805
vn -0.8417 -0.5031 -0.1961
vn -0.7935 -0.6079 -0.0306
vn -0.6944 -0.5575 0.4549
vn -0.4761 -0.4739 0.7408
vn -0.5188 -0.3470 0.7813
vn -0.7988 -0.5505 0.2425
vn 0.9473 0.1817 -0.2638
vn 0.8851 0.1368 0.4449
vn 0.8299 0.5031 0.2410
vn 0.7389 0.6184 -0.2677
vn 0.9687 0.2376 -0.0716
vn 0.7014 0.7100 -0.0632
vn 0.9049 0.4108 0.1113
vn 0.6225 0.7711 0.1336
vn 0.8838 0.4665 -0.0364
vn 0.7878 0.6113 0.0756
vn 0.9048 -0.3153 -0.2863
vn 0.8526 -0.3715 0.3676
vn 0.9411 -0.3237 -0.0974
vn 0.9487 -0.2906 0.1245
vn 0.9689 -0.2429 -0.0473
vn 0.5460 -0.7876 -0.2856
vn 0.5738 -0.7939 -0.2011
vn 0.5344 -0.8406 0.0880
vn 0.5102 -0.8595 0.0318
vn -0.1439 -0.9441 -0.2965
vn -0.1204 -0.9833 -0.1366
vn -0.0475 -0.9925 0.1126
vn 0.0676 -0.9934 0.0925
vn -0.7511 -0.5875 -0.3012
vn -0.7223 -0.6892 -0.0568
vn -0.6319 -0.7163 0.2962
vn -0.5689 -0.8224 -0.0003
vn -0.9606 -0.1463 -0.2363
vn -0.9666 -0.2545 0.0286
vn -0.8576 -0.2648 0.4408
vn -0.8905 -0.4248 0.1632
vn 0.7101 -0.5086 0.4870
vn 0.6834 -0.2381 0.6901
vn 0.8212 -0.1746 0.5433
vn 0.8163 0.2053 0.5399
vn 0.7860 0.0377 0.6171
vn 0.8462 0.3581 0.3945
vn 0.6961 0.6858 -0.2126
vn 0.8165 -0.0603 0.5742
vn 0.7042 0.5584 0.4385
vn 0.7326 0.5102 0.4505
vn 0.9308 0.3408 0.1324
vn 0.9625 -0.2421 0.1226
vn 0.9783 -0.1595 -0.1319
vn 0.9852 -0.0440 -0.1655
vn 0.9783 -0.1596 -0.1319
vn 0.9625 -0.2422 0.1226
vn 0.8518 0.5236 -0.0143
vn -0.9449 -0.1112 0.3080
vn -0.9991 -0.0428 -0.0036
vn 0.0470 0.4837 0.8740
vn -0.9792 -0.1885 0.0748
vn -0.9568 -0.1039 -0.2714
vn -0.8485 0.1211 -0.5151
vn -0.4679 0.3368 -0.8171
vn -0.8374 -0.5039 -0.2118
vn -0.8507 -0.4096 -0.3296
vn -0.7825 -0.2656 -0.5631
vn -0.6404 0.0083 -0.7680
vn 0.4393 0.6120 -0.6576
vn -0.6608 -0.7346 -0.1543
vn -0.5013 -0.6403 -0.5820
vn -0.2514 -0.4968 -0.8306
vn -0.1961 -0.2902 -0.9367
vn -0.0338 0.1604 -0.9865
vn -0.2694 -0.7720 -0.5757
vn -0.0540 -0.5173 -0.8541
vn 0.1485 -0.1681 -0.9745
vn 0.4080 0.1703 -0.8970
vn 0.6101 0.7249 -0.3200
vn 0.0469 -0.9964 0.0706
vn 0.3502 -0.9338 0.0732
vn -0.2182 -0.9743 -0.0549
vn 0.6202 -0.7774 0.1045
vn 0.8251 -0.5628 0.0502
vn 0.9756 -0.2070 0.0737
vn 0.9942 -0.0810 0.0709
vn 0.8730 0.4442 0.2014
vn 0.9451 0.3073 0.1109
vn 0.6565 0.7443 0.1221
vn 0.6719 0.7305 0.1221
vn 0.3231 0.9443 0.0630
vn -0.0768 -0.8764 -0.4754
vn 0.3074 -0.6554 -0.6899
vn 0.6699 -0.2261 -0.7072
vn 0.7349 0.2965 -0.6100
vn 0.5689 0.7136 -0.4088
vn -0.5690 -0.8224 -0.0004
vn -0.9814 0.1906 -0.0248
vn -0.6608 -0.7345 -0.1543
vn 0.6822 0.7294 -0.0503
vn 0.8723 0.4428 -0.2075
vn 0.9059 0.2550 -0.3382
vn 0.9420 0.2156 -0.2573
vn 0.9929 0.1037 -0.0576
vn 0.9849 0.0849 -0.1510
vn 0.8200 0.5121 -0.2558
vn 0.9253 0.3780 0.0311
vn 0.6803 0.7093 -0.1846
vn 0.5448 0.8259 0.1451
vn 0.5487 0.8356 0.0270
vn 0.8681 0.4962 0.0108
vn 0.8314 0.4340 0.3471
vn -0.0867 0.9392 0.3322
vn 0.7502 0.6211 -0.2269
vn 0.9525 -0.0419 0.3017
vn 0.9871 -0.0834 0.1366
vn 0.9783 -0.1595 -0.1320
vn 0.9796 -0.1048 0.1712
vn 0.9852 -0.0439 -0.1655
vn 0.9796 -0.1049 0.1712
vn 0.9852 -0.0440 -0.1656
vn 0.8930 0.2409 0.3801
vn 0.9111 0.1690 -0.3760
vn 0.7924 0.3519 -0.4983
vn 0.9991 0.0413 -0.0020
vn 0.9517 0.1052 0.2885
vn 0.8089 0.0018 -0.5879
vn 0.2392 0.1552 -0.9585
vn -0.9796 -0.0386 -0.1970
vn -0.9573 -0.0848 0.2764
vn -0.4061 0.0998 0.9084
vn 0.6192 0.1701 0.7666
vn 0.6577 0.1020 0.7463
vn 0.9811 -0.0081 -0.1933
vn 0.9550 0.0105 0.2963
vn 0.9932 -0.0290 0.1126
vn 0.9306 -0.0603 -0.3609
vn 0.6069 0.0095 -0.7947
vn 0.4697 -0.0598 -0.8808
vn -0.4394 0.0527 -0.8968
vn -0.3323 0.0006 -0.9432
vn -0.9734 -0.0168 -0.2286
vn -0.9114 0.0354 -0.4099
vn -0.9034 -0.0300 0.4278
vn -0.8798 0.0901 0.4666
vn -0.0584 0.0695 0.9959
vn -0.1294 0.0764 0.9886
vn 0.5254 0.0371 0.8500
vn 0.5375 0.0323 0.8427
vn 0.7253 0.0137 0.6883
vn 0.8189 0.0070 0.5739
vn 0.9325 -0.0093 0.3609
vn 0.9386 -0.0879 -0.3335
vn 0.4884 -0.1295 -0.8630
vn -0.1094 -0.1024 -0.9887
vn -0.7600 -0.0395 -0.6487
vn -0.9999 0.0121 -0.0109
vn -0.6195 0.0506 0.7834
vn 0.3520 0.0402 0.9351
vn 0.9325 -0.0093 0.3610
vn 0.8137 0.0419 0.5797
s 1
f 11//1 1//3 10//2
f 2//4 1//3 11//1
f 12//5 2//4 11//1
f 3//6 2//4 12//5
f 13//7 3//6 12//5
f 4//8 3//6 13//7
f 14//9 4//8 13//7
f 5//10 4//8 14//9
f 15//11 5//10 14//9
f 6//12 5//10 15//11
f 16//13 6//12 15//11
f 7//14 6//12 16//13
f 17//15 7//14 16//13
f 8//16 7//14 17//15
f 18//17 8//16 17//15
f 9//18 8//16 18//17
f 20//19 10//2 19//20
f 11//1 10//2 20//19
f 21//21 11//1 20//19
f 12//5 11//1 21//21
f 22//22 12//5 21//21
f 13//7 12//5 22//22
f 23//23 13//7 22//22
f 14//9 13//7 23//23
f 24//24 14//9 23//23
f 15//11 14//9 24//24
f 25//25 15//11 24//24
f 16//13 15//11 25//25
f 26//26 16//13 25//25
f 17//15 16//13 26//26
f 27//27 17//15 26//26
f 18//17 17//15 27//27
f 29//28 19//20 28//29
f 20//19 19//20 29//28
f 30//30 20//19 29//28
f 21//21 20//19 30//30
f 31//31 21//21 30//30
f 22//22 21//21 31//31
f 32//32 22//22 31//31
f 23//23 22//22 32//32
f 33//33 23//23 32//32
f 24//24 23//23 33//33
f 34//34 24//24 33//33
f 25//25 24//24 34//34
f 35//35 25//25 34//34
f 26//26 25//25 35//35
f 36//36 26//26 35//35
f 27//27 26//26 36//36
f 29//28 28//29 37//37
f 29//28 37//37 38//38
f 30//30 29//28 38//38
f 30//30 38//38 39//39
f 31//31 30//30 39//39
f 31//31 39//39 40//40
f 31//31 40//40 41//41
f 32//32 31//31 41//41
f 32//32 41//41 42//42
f 33//33 32//32 42//42
f 33//33 42//42 43//43
f 34//34 33//33 43//43
f 34//34 43//43 44//44
f 35//35 34//34 44//44
f 35//35 44//44 45//45
f 36//36 35//35 45//45
f 36//36 45//45 46//46
f 37//37 47//48 48//47
f 38//38 37//37 48//47
f 38//38 48//47 49//49
f 39//39 38//38 49//49
f 39//39 49//49 50//50
f 39//39 50//50 51//51
f 40//40 39//39 51//51
f 40//40 51//51 52//52
f 41//41 40//40 52//52
f 41//41 52//52 53//53
f 41//41 53//53 54//54
f 42//42 41//41 54//54
f 42//42 54//54 55//55
f 43//43 42//42 55//55
f 43//43 55//55 56//56
f 43//43 56//56 57//57
f 44//44 43//43 57//57
f 44//44 57//57 58//58
f 45//45 44//44 58//58
f 45//45 58//58 59//59
f 45//45 59//59 60//60
f 46//46 45//45 60//60
f 46//46 60//60 47//48
f 8//16 1//3 61//61
f 7//14 8//16 61//61
f 6//12 7//14 61//61
f 5//10 6//12 61//61
f 4//8 5//10 61//61
f 3//6 4//8 61//61
f 2//4 3//6 61//61
f 1//3 2//4 61//61
f 64//62 62//64 63//63
f 65//65 62//64 64//62
f 66//66 65//65 64//62
f 67//67 65//65 66//66
f 68//68 67//67 66//66
f 69//69 67//67 68//68
f 70//70 69//69 68//68
f 71//71 69//69 70//70
f 72//72 71//71 70//70
f 73//73 72//72 70//70
f 74//74 72//72 73//73
f 75//75 74//74 73//73
f 76//76 74//74 75//75
f 77//77 76//76 75//75
f 78//78 76//76 77//77
f 79//79 78//78 77//77
f 80//80 78//78 79//79
f 81//81 80//80 79//79
f 62//64 80//80 81//81
f 83//82 63//63 82//83
f 64//62 63//63 83//82
f 84//84 64//62 83//82
f 66//66 64//62 84//84
f 85//85 66//66 84//84
f 68//68 66//66 85//85
f 86//86 68//68 85//85
f 70//70 68//68 86//86
f 87//87 70//70 86//86
f 73//73 70//70 87//87
f 88//88 73//73 87//87
f 75//75 73//73 88//88
f 89//89 75//75 88//88
f 77//77 75//75 89//89
f 90//90 77//77 89//89
f 79//79 77//77 90//90
f 91//91 79//79 90//90
f 81//81 79//79 91//91
f 93//92 82//83 92//93
f 83//82 82//83 93//92
f 94//94 83//82 93//92
f 84//84 83//82 94//94
f 95//95 84//84 94//94
f 85//85 84//84 95//95
f 86//86 85//85 95//95
f 96//96 86//86 95//95
f 87//87 86//86 96//96
f 97//97 87//87 96//96
f 88//88 87//87 97//97
f 98//98 88//88 97//97
f 89//89 88//88 98//98
f 99//99 89//89 98//98
f 90//90 89//89 99//99
f 100//100 90//90 99//99
f 91//91 90//90 100//100
f 102//101 92//93 101//102
f 93//92 92//93 102//101
f 103//103 93//92 102//101
f 94//94 93//92 103//103
f 104//104 94//94 103//103
f 95//95 94//94 104//104
f 105//105 95//95 104//104
f 96//96 95//95 105//105
f 106//106 96//96 105//105
f 97//97 96//96 106//106
f 107//107 97//97 106//106
f 98//98 97//97 107//107
f 108//108 98//98 107//107
f 99//99 98//98 108//108
f 101//102 99//99 108//108
f 100//100 99//99 101//102
f 111//109 71//71 72//72
f 109//110 71//71 111//109
f 112//111 109//110 111//109
f 110//112 109//110 112//111
f 53//53 110//112 112//111
f 52//52 110//112 53//53
f 113//113 72//72 74//74
f 111//109 72//72 113//113
f 112//111 111//109 113//113
f 54//54 112//111 113//113
f 53//53 112//111 54//54
f 113//113 74//74 76//76
f 55//55 113//113 76//76
f 54//54 113//113 55//55
f 76//76 78//78 114//114
f 55//55 76//76 114//114
f 55//55 114//114 56//56
f 114//114 78//78 115//115
f 114//114 115//115 116//116
f 56//56 114//114 116//116
f 56//56 116//116 57//57
f 117//117 57//57 116//116
f 58//58 57//57 117//117
f 118//118 58//58 117//117
f 59//59 58//58 118//118
f 119//119 59//59 118//118
f 60//60 59//59 119//119
f 120//120 116//116 115//115
f 117//117 116//116 120//120
f 118//118 117//117 120//120
f 121//121 118//118 120//120
f 119//119 118//118 121//121
f 120//120 115//115 78//78
f 80//80 120//120 78//78
f 121//121 120//120 80//80
f 122//122 60//60 119//119
f 47//48 60//60 122//122
f 123//123 47//48 122//122
f 48//47 47//48 123//123
f 124//124 119//119 121//121
f 122//122 119//119 124//124
f 125//125 122//122 124//124
f 123//123 122//122 125//125
f 62//64 121//121 80//80
f 124//124 121//121 62//64
f 65//65 124//124 62//64
f 125//125 124//124 65//65
f 126//126 48//47 123//123
f 49//49 48//47 126//126
f 50//50 49//49 126//126
f 127//127 50//50 126//126
f 51//51 50//50 127//127
f 110//112 51//51 127//127
f 52//52 51//51 110//112
f 128//128 123//123 125//125
f 126//126 123//123 128//128
f 129//129 126//126 128//128
f 127//127 126//126 129//129
f 109//110 127//127 129//129
f 110//112 127//127 109//110
f 67//67 125//125 65//65
f 128//128 125//125 67//67
f 69//69 128//128 67//67
f 129//129 128//128 69//69
f 71//71 129//129 69//69
f 109//110 129//129 71//71
f 137//130 130//132 136//131
f 131//133 130//132 137//130
f 138//134 131//133 137//130
f 132//135 131//133 138//134
f 139//136 132//135 138//134
f 133//137 132//135 139//136
f 140//138 133//137 139//136
f 134//139 133//137 140//138
f 141//140 134//139 140//138
f 135//141 134//139 141//140
f 143//142 136//131 142//143
f 137//130 136//131 143//142
f 144//144 137//130 143//142
f 138//134 137//130 144//144
f 145//145 138//134 144//144
f 139//136 138//134 145//145
f 146//146 139//136 145//145
f 140//138 139//136 146//146
f 147//147 140//138 146//146
f 141//140 140//138 147//147
f 143//142 142//143 148//148
f 149//149 143//142 148//148
f 144//144 143//142 149//149
f 150//150 144//144 149//149
f 145//145 144//144 150//150
f 146//146 145//145 150//150
f 147//147 146//146 150//150
f 150//150 149//149 155//151
f 151//152 150//150 155//151
f 151//152 155//151 156//153
f 152//154 151//152 156//153
f 152//154 156//153 157//155
f 153//156 152//154 157//155
f 153//156 157//155 158//157
f 153//156 158//157 159//158
f 154//159 153//156 159//158
f 154//159 159//158 160//160
f 163//161 149//149 162//162
f 155//151 149//149 163//161
f 164//163 155//151 163//161
f 156//153 155//151 164//163
f 157//155 156//153 164//163
f 165//164 157//155 164//163
f 158//157 157//155 165//164
f 166//165 158//157 165//164
f 159//158 158//157 166//165
f 167//166 159//158 166//165
f 160//160 159//158 167//166
f 163//161 162//162 169//167
f 164//163 163//161 169//167
f 165//164 164//163 169//167
f 166//165 165//164 169//167
f 167//166 166//165 169//167
f 176//168 170//170 175//169
f 171//171 170//170 176//168
f 177//172 171//171 176//168
f 172//173 171//171 177//172
f 178//174 172//173 177//172
f 173//175 172//173 178//174
f 179//176 173//175 178//174
f 174//177 173//175 179//176
f 181//178 175//169 180//179
f 176//168 175//169 181//178
f 182//180 176//168 181//178
f 177//172 176//168 182//180
f 183//181 177//172 182//180
f 178//174 177//172 183//181
f 184//182 178//174 183//181
f 179//176 178//174 184//182
f 185//183 180//179 135//141
f 181//178 180//179 185//183
f 186//184 181//178 185//183
f 182//180 181//178 186//184
f 187//185 182//180 186//184
f 183//181 182//180 187//185
f 188//186 183//181 187//185
f 184//182 183//181 188//186
f 189//187 135//141 141//140
f 185//183 135//141 189//187
f 190//188 185//183 189//187
f 186//184 185//183 190//188
f 191//189 186//184 190//188
f 187//185 186//184 191//189
f 192//190 187//185 191//189
f 188//186 187//185 192//190
f 193//191 141//140 147//147
f 189//187 141//140 193//191
f 194//192 189//187 193//191
f 190//188 189//187 194//192
f 195//193 190//188 194//192
f 191//189 190//188 195//193
f 196//194 191//189 195//193
f 192//190 191//189 196//194
f 197//195 147//147 150//150
f 193//191 147//147 197//195
f 198//196 193//191 197//195
f 194//192 193//191 198//196
f 199//197 194//192 198//196
f 195//193 194//192 199//197
f 200//198 195//193 199//197
f 196//194 195//193 200//198
f 197//195 150//150 151//152
f 152//154 197//195 151//152
f 198//196 197//195 152//154
f 153//156 198//196 152//154
f 199//197 198//196 153//156
f 154//159 199//197 153//156
f 200//198 199//197 154//159
f 201//199 132//135 133//137
f 134//139 201//199 133//137
f 202//200 201//199 134//139
f 135//141 202//200 134//139
f 180//179 202//200 135//141
f 206//201 130//132 131//133
f 203//202 130//132 206//201
f 207//203 203//202 206//201
f 204//204 203//202 207//203
f 170//170 204//204 207//203
f 205//205 204//204 170//170
f 208//206 131//133 132//135
f 206//201 131//133 208//206
f 202//200 206//201 208//206
f 207//203 206//201 202//200
f 175//169 207//203 202//200
f 170//170 207//203 175//169
f 208//206 132//135 201//199
f 202//200 208//206 201//199
f 175//169 202//200 180//179
f 212//207 148//148 142//143
f 209//208 148//148 212//207
f 213//209 209//208 212//207
f 210//210 209//208 213//209
f 168//211 210//210 213//209
f 211//212 210//214 168//213
f 203//202 142//143 130//132
f 212//207 142//143 203//202
f 204//204 212//207 203//202
f 213//209 212//207 204//204
f 161//215 213//209 204//204
f 168//211 213//209 161//215
f 216//216 215//217 169//167
f 216//216 169//167 162//162
f 216//216 162//162 149//149
f 217//218 216//216 149//149
f 217//218 149//149 148//148
f 215//217 218//219 169//167
f 219//220 218//219 215//217
f 220//221 219//220 215//217
f 214//222 220//221 215//217
f 218//219 200//198 154//159
f 221//223 200//198 218//219
f 222//224 221//223 218//219
f 219//220 222//224 218//219
f 223//225 222//224 219//220
f 220//221 223//225 219//220
f 224//226 223//225 220//221
f 214//222 224//226 220//221
f 225//227 224//226 214//222
f 221//223 196//194 200//198
f 226//228 196//194 221//223
f 222//224 226//228 221//223
f 227//229 226//228 222//224
f 228//230 227//229 222//224
f 223//225 228//230 222//224
f 229//231 228//230 223//225
f 224//226 229//231 223//225
f 230//232 229//231 224//226
f 225//227 230//232 224//226
f 231//233 226//228 227//229
f 228//230 231//233 227//229
f 232//234 231//233 228//230
f 233//235 232//234 228//230
f 229//231 233//235 228//230
f 235//236 233//235 229//231
f 230//232 235//236 229//231
f 234//237 235//236 230//232
f 225//227 234//237 230//232
f 236//238 241//240 242//239
f 237//241 236//238 242//239
f 237//241 242//239 243//242
f 238//243 237//241 243//242
f 238//243 243//242 244//244
f 239//245 238//243 244//244
f 239//245 244//244 245//246
f 239//245 245//246 246//247
f 240//248 239//245 246//247
f 240//248 246//247 247//249
f 242//239 241//240 248//250
f 249//251 242//239 248//250
f 243//242 242//239 249//251
f 250//252 243//242 249//251
f 244//244 243//242 250//252
f 251//253 244//244 250//252
f 245//246 244//244 251//253
f 246//247 245//246 251//253
f 252//254 246//247 251//253
f 247//249 246//247 252//254
f 196//255 226//257 253//256
f 236//238 196//194 226//228
f 241//240 236//238 226//228
f 231//233 241//240 226//228
f 248//250 241//240 231//233
f 232//234 248//250 231//233
f 249//251 248//250 232//234
f 233//235 249//251 232//234
f 250//252 249//251 233//235
f 251//253 250//252 233//235
f 235//236 251//253 233//235
f 252//254 251//253 235//236
f 234//237 252//254 235//236
f 254//258 234//237 225//227
f 255//259 254//258 225//227
f 256//260 255//259 225//227
f 259//261 257//263 258//262
f 256//260 257//263 259//261
f 261//264 258//262 260//265
f 259//261 258//262 261//264
f 261//264 260//265 262//266
f 240//248 260//265 174//177
f 262//266 260//265 240//248
f 239//245 174//177 179//176
f 240//248 174//177 239//245
f 238//243 179//176 184//182
f 239//245 179//176 238//243
f 237//241 184//182 188//186
f 238//243 184//182 237//241
f 236//238 188//186 192//190
f 237//241 188//186 236//238
f 236//238 192//190 196//194
f 247//249 252//254 234//237
f 247//249 234//237 263//267
f 247//249 263//267 264//268
f 240//248 247//249 264//268
f 240//248 264//268 262//266
f 265//269 234//237 254//258
f 263//267 234//237 265//269
f 264//268 263//267 265//269
f 261//264 264//268 265//269
f 262//266 264//268 261//264
f 265//269 254//258 255//259
f 259//261 265//269 255//259
f 261//264 265//269 259//261
f 259//261 255//259 256//260
f 266//270 174//177 260//265
f 173//175 174//177 266//270
f 157//271 173//175 266//270
f 172//173 173//175 157//271
f 267//272 172//173 157//271
f 171//171 172//173 267//272
f 205//205 171//171 267//272
f 170//170 171//171 205//205
f 268//273 260//265 258//262
f 266//270 260//265 268//273
f 157//271 266//270 268//273
f 269//274 157//271 268//273
f 267//272 157//271 269//274
f 168//275 267//272 269//274
f 205//205 267//272 168//275
f 270//276 258//262 257//263
f 268//273 258//262 270//276
f 269//274 268//273 270//276
f 210//214 269//274 270//276
f 168//275 269//274 210//214
f 270//276 257//263 211//277
f 270//278 210//210 211//279
f 209//208 217//218 148//148
f 271//280 217//218 209//208
f 210//210 271//280 209//208
f 211//277 271//280 210//210
f 272//281 211//277 257//263
f 256//260 272//281 257//263
f 273//282 272//281 256//260
f 225//227 273//282 256//260
f 214//222 273//282 225//227
f 275//283 274//284 271//280
f 275//283 271//280 211//277
f 276//285 275//283 211//277
f 276//285 211//277 272//281
f 277//286 276//285 272//281
f 277//286 272//281 273//282
f 277//286 273//282 214//222
f 278//287 277//286 214//222
f 278//287 214//222 215//217
f 279//288 278//287 215//217
f 279//288 215//217 216//216
f 280//289 279//288 216//216
f 280//289 216//216 217//218
f 281//290 280//289 217//218
f 281//290 217//218 271//280
f 282//291 281//290 271//280
f 285//292 283//294 284//293
f 286//295 283//294 285//292
f 287//296 286//295 285//292
f 288//297 286//295 287//296
f 289//298 288//297 287//296
f 290//299 288//297 289//298
f 291//300 290//299 289//298
f 292//301 290//299 291//300
f 293//302 292//301 291//300
f 294//303 292//301 293//302
f 295//304 294//303 293//302
f 296//305 294//303 295//304
f 297//306 296//305 295//304
f 298//307 296//305 297//306
f 299//308 298//307 297//306
f 300//309 298//307 299//308
f 275//283 284//293 274//284
f 285//292 284//293 275//283
f 276//285 285//292 275//283
f 287//296 285//292 276//285
f 277//286 287//296 276//285
f 289//298 287//296 277//286
f 278//287 289//298 277//286
f 291//300 289//298 278//287
f 279//288 291//300 278//287
f 293//302 291//300 279//288
f 280//289 293//302 279//288
f 295//304 293//302 280//289
f 281//290 295//304 280//289
f 297//306 295//304 281//290
f 282//291 297//306 281//290
f 299//308 297//306 282//291
f 286//295 301//310 283//294
f 302//311 301//310 286//295
f 288//297 302//311 286//295
f 303//312 302//311 288//297
f 290//299 303//312 288//297
f 304//313 303//312 290//299
f 292//301 304//313 290//299
f 305//314 304//313 292//301
f 294//303 305//314 292//301
f 306//315 305//314 294//303
f 296//305 306//315 294//303
f 307//316 306//315 296//305
f 298//307 307//316 296//305
f 308//317 307//316 298//307
f 300//309 308//317 298//307
f 301//318 308//317 300//309
f 302//311 101//102 301//310
f 102//101 101//102 302//311
f 303//312 102//101 302//311
f 103//103 102//101 303//312
f 304//313 103//103 303//312
f 104//104 103//103 304//313
f 305//314 104//104 304//313
f 105//105 104//104 305//314
f 306//315 105//105 305//314
f 106//106 105//105 306//315
f 307//316 106//106 306//315
f 107//107 106//106 307//316
f 308//317 107//107 307//316
f 108//108 107//107 308//317
f 301//318 108//108 308//317
f 309//319 108//108 301//318
f 160//160 167//166 218//219
f 160//160 218//219 154//159
