# Generated by Visualization Toolkit
v 0 0.05291999876499176 0
v 0 0.05027399957180023 0.012600000016391277
v 0.005481999833136797 0.0491270013153553 0.007546000182628632
v 0.005758000072091818 0.04797999933362007 0.0018710000440478325
v 0.005758000072091818 0.04797999933362007 -0.0018710000440478325
v 0.0038950000889599323 0.04974399879574776 -0.005361999850720167
v 0 0.05150900036096573 -0.007199999876320362
v -0.003367000026628375 0.05159600079059601 -0.004633000120520592
v -0.004046000074595213 0.05168500170111656 -0.0013150000013411045
v -0.004046000074595213 0.05168500170111656 0.0013150000013411045
v -0.004954000003635883 0.050978999584913254 0.006818000227212906
v 0 0.044982001185417175 0.021764000877738
v 0.01014699973165989 0.04436499997973442 0.013965999707579613
v -0.007934999652206898 0.04339500144124031 0.01092199981212616
v 0.012138999998569489 0.04374700039625168 0.003944000229239464
v 0.012138999998569489 0.04374700039625168 -0.003944000229239464
v 0.008992999792098999 0.04656900092959404 -0.012377999722957611
v 0 0.04939199984073639 -0.01783600077033043
v -0.006781000178307295 0.04559899866580963 -0.009332999587059021
v -0.004980999976396561 0.04180699959397316 -0.001617999980226159
v -0.004980999976396561 0.04180699959397316 0.001617999980226159
v 0 0.035280000418424606 0.024708999320864677
v 0.012023000046610832 0.03395700082182884 0.016548000276088715
v -0.008175999857485294 0.03501499816775322 0.011253000237047672
v 0.015406999737024307 0.03263400122523308 0.005005999933928251
v -0.002956999931484461 0.03475100174546242 0.0009609999833628535
v 0.015406999737024307 0.03263400122523308 -0.005005999933928251
v 0.012600000016391277 0.03492699936032295 -0.017342999577522278
v 0 0.037220001220703125 -0.026673000305891037
v -0.008751999586820602 0.035985998809337616 -0.012047000229358673
v -0.002956999931484461 0.03475100174546242 -0.0009609999833628535
v 0 0.023814000189304352 0.021436000242829323
v 0.011013000272214413 0.023814000189304352 0.015158000402152538
v -0.00735800014808774 0.0255769994109869 0.010127999819815159
v 0.01525100041180849 0.023814000189304352 0.004954999778419733
v -0.00342399999499321 0.027341999113559723 0.0011119999689981341
v 0.01525100041180849 0.023814000189304352 -0.004954999778419733
v -0.00342399999499321 0.027341999113559723 -0.0011119999689981341
v 0.011590000241994858 0.02346000075340271 -0.015953000634908676
v 0 0.02310900017619133 -0.023399999365210533
v -0.007934999652206898 0.025225000455975533 -0.01092199981212616
v 0 0.018345000222325325 0.015545999631285667
v 0.008511999621987343 0.016493000090122223 0.01171599980443716
v -0.00788700021803379 0.015434999950230122 0.010855999775230885
v 0.012760999612510204 0.01464099995791912 0.004145999904721975
v -0.010738000273704529 0.012524000369012356 0.0034890000242739916
v 0.012760999612510204 0.01464099995791912 -0.004145999904721975
v -0.010738000273704529 0.012524000369012356 -0.0034890000242739916
v 0.009088999591767788 0.016228999942541122 -0.012511000037193298
v -0.008464000187814236 0.015170999802649021 -0.011649999767541885
v 0 0.017815999686717987 -0.01750900037586689
v 0 0.00864300038665533 0.013418000191450119
v 0.006924999877810478 0.00873200036585331 0.009530999697744846
v -0.006924999877810478 0.007937000133097172 0.009530999697744846
v 0.009649000130593777 0.008820000104606152 0.0031349998898804188
v -0.009649000130593777 0.00723200011998415 0.0031349998898804188
v 0.009649000130593777 0.008820000104606152 -0.0031349998898804188
v -0.009649000130593777 0.00723200011998415 -0.0031349998898804188
v 0.007550999987870455 0.008555999957025051 -0.01039199996739626
v -0.007550999987870455 0.007761000189930201 -0.01039199996739626
v 0 0.008290999568998814 -0.015545999631285667
v 0 0.0042329998686909676 0.008182000368833542
v 0.003990999888628721 0.003969000186771154 0.005495000164955854
v -0.004424000158905983 0.003616000059992075 0.006089000031352043
v 0.005135000217705965 0.003705000039190054 0.0016690000193193555
v -0.006535999942570925 0.0029990000184625387 0.002124000107869506
v 0.005135000217705965 0.003705000039190054 -0.0016690000193193555
v -0.006535999942570925 0.0029990000184625387 -0.002124000107869506
v 0.004616999998688698 0.00343999988399446 -0.00635500019416213
v -0.0050490000285208225 0.0030869999900460243 -0.006949999835342169
v 0 0.0031739999540150166 -0.010308999568223953
v 0 0 0
f 1 2 3
f 1 3 4
f 1 4 5
f 1 5 6
f 1 6 7
f 1 7 8
f 1 8 9
f 1 9 10
f 1 10 11
f 1 11 2
f 2 12 13
f 2 13 3
f 11 14 2
f 14 12 2
f 3 13 15
f 3 15 4
f 4 15 5
f 15 16 5
f 5 16 6
f 16 17 6
f 6 17 7
f 17 18 7
f 7 18 19
f 7 19 8
f 8 19 20
f 8 20 9
f 9 20 10
f 20 21 10
f 10 21 11
f 21 14 11
f 12 22 23
f 12 23 13
f 14 24 12
f 24 22 12
f 13 23 25
f 13 25 15
f 21 26 24
f 21 24 14
f 15 25 16
f 25 27 16
f 16 27 28
f 16 28 17
f 17 28 18
f 28 29 18
f 18 29 30
f 18 30 19
f 19 30 20
f 30 31 20
f 20 31 21
f 31 26 21
f 22 32 23
f 32 33 23
f 24 34 32
f 24 32 22
f 23 33 25
f 33 35 25
f 26 36 24
f 36 34 24
f 25 35 27
f 35 37 27
f 31 38 26
f 38 36 26
f 27 37 39
f 27 39 28
f 28 39 40
f 28 40 29
f 29 40 30
f 40 41 30
f 30 41 31
f 41 38 31
f 32 42 33
f 42 43 33
f 34 44 42
f 34 42 32
f 33 43 35
f 43 45 35
f 36 46 34
f 46 44 34
f 35 45 37
f 45 47 37
f 38 48 36
f 48 46 36
f 37 47 49
f 37 49 39
f 41 50 48
f 41 48 38
f 39 49 51
f 39 51 40
f 40 51 41
f 51 50 41
f 42 52 43
f 52 53 43
f 44 54 52
f 44 52 42
f 43 53 45
f 53 55 45
f 46 56 54
f 46 54 44
f 45 55 47
f 55 57 47
f 48 58 46
f 58 56 46
f 47 57 59
f 47 59 49
f 50 60 48
f 60 58 48
f 49 59 61
f 49 61 51
f 51 61 50
f 61 60 50
f 52 62 53
f 62 63 53
f 54 64 62
f 54 62 52
f 53 63 55
f 63 65 55
f 56 66 64
f 56 64 54
f 55 65 57
f 65 67 57
f 58 68 56
f 68 66 56
f 57 67 69
f 57 69 59
f 60 70 58
f 70 68 58
f 59 69 71
f 59 71 61
f 61 71 60
f 71 70 60
f 62 72 63
f 64 72 62
f 63 72 65
f 66 72 64
f 65 72 67
f 68 72 66
f 67 72 69
f 70 72 68
f 69 72 71
f 71 72 70
