# Generated by Visualization Toolkit
v 0 0.05291999876499176 0
v 0 0.05027399957180023 0.012600000016391277
v 0 0.044982001185417175 0.021764000877738
v 0 0.035280000418424606 0.024708999320864677
v 0 0.023814000189304352 0.021436000242829323
v 0 0.018345000222325325 0.015545999631285667
v 0 0.00864300038665533 0.013418000191450119
v 0 0.0042329998686909676 0.008182000368833542
v 0 0 0
v 0.005481999833136797 0.0491270013153553 0.007546000182628632
v 0.01014699973165989 0.04436499997973442 0.013965999707579613
v 0.012023000046610832 0.03395700082182884 0.016548000276088715
v 0.011013000272214413 0.023814000189304352 0.015158000402152538
v 0.008511999621987343 0.016493000090122223 0.01171599980443716
v 0.006924999877810478 0.00873200036585331 0.009530999697744846
v 0.003990999888628721 0.003969000186771154 0.005495000164955854
v 0.005758000072091818 0.04797999933362007 0.0018710000440478325
v 0.012138999998569489 0.04374700039625168 0.003944000229239464
v 0.015406999737024307 0.03263400122523308 0.005005999933928251
v 0.01525100041180849 0.023814000189304352 0.004954999778419733
v 0.012760999612510204 0.01464099995791912 0.004145999904721975
v 0.009649000130593777 0.008820000104606152 0.0031349998898804188
v 0.005135000217705965 0.003705000039190054 0.0016690000193193555
v 0.005758000072091818 0.04797999933362007 -0.0018710000440478325
v 0.012138999998569489 0.04374700039625168 -0.003944000229239464
v 0.015406999737024307 0.03263400122523308 -0.005005999933928251
v 0.01525100041180849 0.023814000189304352 -0.004954999778419733
v 0.012760999612510204 0.01464099995791912 -0.004145999904721975
v 0.009649000130593777 0.008820000104606152 -0.0031349998898804188
v 0.005135000217705965 0.003705000039190054 -0.0016690000193193555
v 0.0038950000889599323 0.04974399879574776 -0.005361999850720167
v 0.008992999792098999 0.04656900092959404 -0.012377999722957611
v 0.012600000016391277 0.03492699936032295 -0.017342999577522278
v 0.011590000241994858 0.02346000075340271 -0.015953000634908676
v 0.009088999591767788 0.016228999942541122 -0.012511000037193298
v 0.007550999987870455 0.008555999957025051 -0.01039199996739626
v 0.004616999998688698 0.00343999988399446 -0.00635500019416213
v 0 0.05150900036096573 -0.007199999876320362
v 0 0.04939199984073639 -0.01783600077033043
v 0 0.037220001220703125 -0.026673000305891037
v 0 0.02310900017619133 -0.023399999365210533
v 0 0.017815999686717987 -0.01750900037586689
v 0 0.008290999568998814 -0.015545999631285667
v 0 0.0031739999540150166 -0.010308999568223953
v -0.003367000026628375 0.05159600079059601 -0.004633000120520592
v -0.006781000178307295 0.04559899866580963 -0.009332999587059021
v -0.008751999586820602 0.035985998809337616 -0.012047000229358673
v -0.007934999652206898 0.025225000455975533 -0.01092199981212616
v -0.008464000187814236 0.015170999802649021 -0.011649999767541885
v -0.007550999987870455 0.007761000189930201 -0.01039199996739626
v -0.0050490000285208225 0.0030869999900460243 -0.006949999835342169
v -0.004046000074595213 0.05168500170111656 -0.0013150000013411045
v -0.004980999976396561 0.04180699959397316 -0.001617999980226159
v -0.002956999931484461 0.03475100174546242 -0.0009609999833628535
v -0.00342399999499321 0.027341999113559723 -0.0011119999689981341
v -0.010738000273704529 0.012524000369012356 -0.0034890000242739916
v -0.009649000130593777 0.00723200011998415 -0.0031349998898804188
v -0.006535999942570925 0.0029990000184625387 -0.002124000107869506
v -0.004046000074595213 0.05168500170111656 0.0013150000013411045
v -0.004980999976396561 0.04180699959397316 0.001617999980226159
v -0.002956999931484461 0.03475100174546242 0.0009609999833628535
v -0.00342399999499321 0.027341999113559723 0.0011119999689981341
v -0.010738000273704529 0.012524000369012356 0.0034890000242739916
v -0.009649000130593777 0.00723200011998415 0.0031349998898804188
v -0.006535999942570925 0.0029990000184625387 0.002124000107869506
v -0.004954000003635883 0.050978999584913254 0.006818000227212906
v -0.007934999652206898 0.04339500144124031 0.01092199981212616
v -0.008175999857485294 0.03501499816775322 0.011253000237047672
v -0.00735800014808774 0.0255769994109869 0.010127999819815159
v -0.00788700021803379 0.015434999950230122 0.010855999775230885
v -0.006924999877810478 0.007937000133097172 0.009530999697744846
v -0.004424000158905983 0.003616000059992075 0.006089000031352043
f 1 2 10
f 2 3 11
f 2 11 10
f 3 4 12
f 3 12 11
f 4 5 12
f 5 13 12
f 5 6 13
f 6 14 13
f 6 7 14
f 7 15 14
f 7 8 15
f 8 16 15
f 8 9 16
f 1 10 17
f 10 11 18
f 10 18 17
f 11 12 19
f 11 19 18
f 12 13 19
f 13 20 19
f 13 14 20
f 14 21 20
f 14 15 21
f 15 22 21
f 15 16 22
f 16 23 22
f 16 9 23
f 1 17 24
f 17 18 24
f 18 25 24
f 18 19 25
f 19 26 25
f 19 20 26
f 20 27 26
f 20 21 27
f 21 28 27
f 21 22 28
f 22 29 28
f 22 23 29
f 23 30 29
f 23 9 30
f 1 24 31
f 24 25 31
f 25 32 31
f 25 26 33
f 25 33 32
f 26 27 34
f 26 34 33
f 27 28 35
f 27 35 34
f 28 29 36
f 28 36 35
f 29 30 37
f 29 37 36
f 30 9 37
f 1 31 38
f 31 32 38
f 32 39 38
f 32 33 39
f 33 40 39
f 33 34 41
f 33 41 40
f 34 35 42
f 34 42 41
f 35 36 43
f 35 43 42
f 36 37 44
f 36 44 43
f 37 9 44
f 1 38 45
f 38 39 46
f 38 46 45
f 39 40 47
f 39 47 46
f 40 41 47
f 41 48 47
f 41 42 48
f 42 49 48
f 42 43 49
f 43 50 49
f 43 44 50
f 44 51 50
f 44 9 51
f 1 45 52
f 45 46 53
f 45 53 52
f 46 47 53
f 47 54 53
f 47 48 54
f 48 55 54
f 48 49 56
f 48 56 55
f 49 50 56
f 50 57 56
f 50 51 57
f 51 58 57
f 51 9 58
f 1 52 59
f 52 53 59
f 53 60 59
f 53 54 60
f 54 61 60
f 54 55 61
f 55 62 61
f 55 56 62
f 56 63 62
f 56 57 63
f 57 64 63
f 57 58 64
f 58 65 64
f 58 9 65
f 1 59 66
f 59 60 66
f 60 67 66
f 60 61 68
f 60 68 67
f 61 62 68
f 62 69 68
f 62 63 69
f 63 70 69
f 63 64 71
f 63 71 70
f 64 65 72
f 64 72 71
f 65 9 72
f 1 66 2
f 66 67 2
f 67 3 2
f 67 68 3
f 68 4 3
f 68 69 5
f 68 5 4
f 69 70 6
f 69 6 5
f 70 71 7
f 70 7 6
f 71 72 8
f 71 8 7
f 72 9 8
