# Blender 4.5.1 LTS
# www.blender.org
o radius
v -0.000663 0.001141 0.007926
v 0.005261 0.001284 0.006012
v 0.007840 0.002032 -0.000350
v 0.006718 0.002672 -0.005658
v 0.001144 0.002726 -0.008383
v -0.003573 0.002622 -0.007855
v -0.006591 0.001676 -0.001405
v -0.005168 0.001347 0.004521
v -0.000244 0.000079 0.000571
v 0.028093 -0.233968 -0.018620
v 0.023393 -0.233290 -0.019433
v 0.029714 -0.233105 -0.021773
v 0.033467 -0.235151 -0.018757
v 0.038205 -0.237979 -0.020779
v 0.034594 -0.235234 -0.023780
v 0.040291 -0.240193 -0.022155
v 0.035704 -0.236222 -0.025006
v 0.041017 -0.243321 -0.024656
v 0.036150 -0.237155 -0.026469
v 0.039330 -0.240556 -0.027555
v 0.034481 -0.235797 -0.027891
v 0.034971 -0.236156 -0.029891
v 0.031760 -0.234680 -0.028743
v 0.027894 -0.235222 -0.032002
v 0.027440 -0.233126 -0.028645
v 0.019586 -0.233691 -0.031417
v 0.022915 -0.232759 -0.027914
v 0.016192 -0.234882 -0.032185
v 0.020431 -0.231751 -0.026464
v 0.014360 -0.233941 -0.031942
v 0.019514 -0.231326 -0.024855
v 0.014858 -0.230073 -0.026205
v 0.018471 -0.230653 -0.023551
v 0.010637 -0.231829 -0.017125
v 0.018834 -0.231011 -0.020944
v 0.017850 -0.232712 -0.014670
v 0.021822 -0.231775 -0.019785
v 0.022629 -0.234024 -0.014434
v 0.028289 -0.233981 -0.018580
v 0.026079 -0.232086 -0.024685
v 0.027040 -0.223482 -0.018260
v 0.028805 -0.229946 -0.014878
v 0.034446 -0.224354 -0.018235
v 0.035983 -0.229632 -0.015372
v 0.041934 -0.223399 -0.017552
v 0.042146 -0.228180 -0.016557
v 0.045851 -0.228803 -0.025837
v 0.042845 -0.223983 -0.028657
v 0.039408 -0.229758 -0.030622
v 0.038139 -0.223831 -0.031597
v 0.032099 -0.230394 -0.036068
v 0.030868 -0.223377 -0.036898
v 0.026937 -0.229893 -0.036177
v 0.024740 -0.223255 -0.035406
v 0.017606 -0.229293 -0.034381
v 0.014135 -0.223544 -0.032653
v 0.013133 -0.228605 -0.033805
v 0.014730 -0.227596 -0.025821
v 0.014694 -0.222788 -0.020183
v 0.011605 -0.228538 -0.017849
v 0.020968 -0.223103 -0.017960
v 0.016929 -0.229573 -0.012210
v 0.028020 -0.223575 -0.018578
v 0.027097 -0.220445 -0.019106
v 0.035421 -0.219414 -0.019987
v 0.040370 -0.217749 -0.020168
v 0.039654 -0.216901 -0.026395
v 0.033374 -0.218023 -0.033021
v 0.027222 -0.218636 -0.035127
v 0.019930 -0.218398 -0.031912
v 0.016275 -0.217636 -0.029814
v 0.016353 -0.217727 -0.020745
v 0.027943 -0.219908 -0.019580
v 0.027523 -0.208334 -0.019979
v 0.032726 -0.207778 -0.020245
v 0.038454 -0.207336 -0.023605
v 0.035626 -0.205968 -0.027848
v 0.032421 -0.206082 -0.030707
v 0.025938 -0.207635 -0.032486
v 0.019137 -0.208329 -0.028458
v 0.018373 -0.208316 -0.022233
v 0.028520 -0.208515 -0.020408
v 0.026374 -0.184039 -0.017921
v 0.031901 -0.183774 -0.018359
v 0.034822 -0.183559 -0.023066
v 0.032605 -0.183150 -0.027092
v 0.029285 -0.181391 -0.028816
v 0.021235 -0.183477 -0.024609
v 0.018803 -0.183304 -0.020676
v 0.022082 -0.183472 -0.018763
v 0.027223 -0.183985 -0.018557
v 0.025302 -0.139253 -0.017960
v 0.025787 -0.166353 -0.015638
v 0.031772 -0.166010 -0.016793
v 0.031056 -0.139099 -0.015552
v 0.033567 -0.165754 -0.019984
v 0.031757 -0.138656 -0.018335
v 0.031077 -0.167226 -0.025744
v 0.029234 -0.138535 -0.025448
v 0.025359 -0.165510 -0.027262
v 0.024697 -0.139179 -0.025464
v 0.021127 -0.165702 -0.023140
v 0.019354 -0.140294 -0.021693
v 0.020140 -0.165764 -0.019341
v 0.016873 -0.140179 -0.016542
v 0.023132 -0.166298 -0.017638
v 0.020827 -0.139236 -0.015584
v 0.026481 -0.165812 -0.016865
v 0.022498 -0.115268 -0.011420
v 0.028189 -0.114538 -0.013517
v 0.027161 -0.113552 -0.019175
v 0.024123 -0.113602 -0.023329
v 0.023047 -0.114117 -0.023725
v 0.017034 -0.115662 -0.018812
v 0.013148 -0.116584 -0.014604
v 0.017488 -0.115600 -0.012528
v 0.013947 -0.073959 -0.003978
v 0.018698 -0.088365 -0.006614
v 0.022738 -0.087151 -0.008487
v 0.017871 -0.071537 -0.005416
v 0.024102 -0.086640 -0.013489
v 0.018484 -0.071250 -0.010812
v 0.020914 -0.086554 -0.017864
v 0.014718 -0.071249 -0.014394
v 0.018983 -0.086771 -0.017993
v 0.013854 -0.070830 -0.015041
v 0.013342 -0.087976 -0.017284
v 0.006855 -0.071939 -0.013166
v 0.007002 -0.091231 -0.010799
v 0.004052 -0.073763 -0.008531
v 0.013518 -0.088819 -0.009421
v 0.008958 -0.073410 -0.006413
v 0.018809 -0.088106 -0.007073
v 0.004515 -0.046906 -0.002381
v 0.009604 -0.060699 -0.001192
v 0.014160 -0.058272 -0.003216
v 0.010470 -0.046028 -0.000932
v 0.015937 -0.056609 -0.007883
v 0.012891 -0.044431 -0.005265
v 0.012696 -0.056393 -0.012460
v 0.007681 -0.044072 -0.011170
v 0.007434 -0.057634 -0.013116
v 0.003132 -0.045595 -0.011400
v 0.002616 -0.060151 -0.010335
v -0.000303 -0.046186 -0.008291
v 0.002474 -0.060677 -0.006311
v -0.001627 -0.047961 -0.001378
v 0.006860 -0.060889 -0.002829
v 0.000945 -0.046449 0.001005
v 0.010013 -0.060810 -0.001222
v 0.004012 -0.041539 0.003505
v 0.009608 -0.039884 0.000164
v 0.011568 -0.038498 -0.003984
v 0.007630 -0.037800 -0.010502
v 0.000313 -0.039747 -0.009830
v -0.002147 -0.040081 -0.007409
v -0.004257 -0.041036 -0.001900
v 0.003786 -0.029199 0.004890
v 0.004524 -0.035997 0.004201
v 0.007661 -0.034872 0.001713
v 0.007679 -0.026463 0.000704
v 0.010443 -0.032773 -0.004231
v 0.008188 -0.025203 -0.004387
v 0.005397 -0.033317 -0.010214
v 0.003468 -0.024579 -0.008609
v -0.000663 -0.034126 -0.009338
v -0.002414 -0.025895 -0.007759
v -0.003614 -0.035429 -0.006318
v -0.004952 -0.027661 -0.004399
v -0.005162 -0.037697 -0.000956
v -0.005797 -0.029058 0.000294
v 0.000914 -0.037639 0.003846
v 0.000425 -0.029366 0.004772
v 0.004481 -0.035571 0.004039
v 0.003688 -0.029193 0.004870
v -0.001318 -0.005181 0.002705
v 0.000878 -0.012617 0.004688
v 0.005889 -0.011244 0.002114
v 0.007687 -0.004630 0.007334
v 0.006486 -0.009869 -0.003870
v 0.009805 -0.003641 0.000804
v 0.003388 -0.010406 -0.007377
v 0.006226 -0.002120 -0.008214
v -0.001800 -0.009566 -0.007759
v 0.000228 -0.001737 -0.010266
v -0.004740 -0.010736 -0.005749
v -0.003523 -0.002781 -0.009753
v -0.005664 -0.011213 -0.001885
v -0.008682 -0.005329 -0.002825
v -0.003800 -0.011508 0.002903
v -0.006452 -0.006752 0.005815
v 0.001017 -0.012016 0.004689
v 0.001959 -0.022311 0.004432
v 0.006693 -0.020556 0.001332
v 0.006810 -0.019403 -0.004370
v 0.003803 -0.018980 -0.007532
v -0.001246 -0.019737 -0.008083
v -0.003758 -0.020555 -0.006557
v -0.004921 -0.020889 -0.004477
v -0.003768 -0.021220 0.000774
v 0.002339 -0.022182 0.004117
v -0.000429 0.001054 0.007759
v -0.000602 -0.000110 0.009741
v 0.007116 0.000199 0.007611
v 0.010043 0.000726 -0.002515
v 0.008167 0.002207 -0.007880
v 0.001660 0.002445 -0.010986
v -0.009110 0.000781 -0.002362
v -0.006925 0.000269 0.006279
v -0.000626 -0.000221 0.009825
vn 0.0856 0.9769 0.1955
vn -0.0082 0.9963 0.0858
vn 0.2041 0.9609 0.1870
vn 0.2577 0.9568 0.1349
vn 0.0374 0.9982 0.0471
vn -0.0223 0.9960 0.0867
vn -0.4260 0.8420 -0.3310
vn -0.1465 0.9837 0.1047
vn -0.0958 0.9770 0.1904
vn -0.2079 -0.9326 -0.2950
vn -0.2961 -0.9261 -0.2338
vn -0.0359 -0.8749 0.4830
vn -0.2020 -0.8421 0.5000
vn -0.1239 -0.7439 0.6567
vn -0.6334 -0.7735 0.0232
vn 0.3314 -0.7312 0.5963
vn -0.7448 -0.6365 0.2001
vn 0.5885 -0.6758 -0.4437
vn -0.7570 -0.6524 0.0360
vn -0.0825 -0.8238 -0.5608
vn -0.6088 -0.7911 0.0592
vn -0.2847 -0.8608 -0.4218
vn -0.3157 -0.8884 0.3332
vn -0.1403 -0.9107 -0.3884
vn -0.1483 -0.8899 0.4314
vn -0.0106 -0.8009 -0.5987
vn 0.0920 -0.9638 0.2501
vn -0.0718 -0.6833 -0.7266
vn -0.0918 -0.8691 0.4860
vn -0.8344 -0.5427 -0.0963
vn -0.2061 -0.9073 0.3664
vn -0.9648 -0.2401 -0.1078
vn -0.1009 -0.9942 -0.0382
vn -0.8495 -0.4551 0.2671
vn -0.0432 -0.9724 -0.2294
vn -0.4387 -0.6688 0.6002
vn -0.3520 -0.8910 -0.2869
vn -0.0427 -0.7243 0.6882
vn -0.2961 -0.9261 -0.2339
vn 0.4752 -0.6013 0.6423
vn -0.0358 -0.8748 0.4831
vn 0.2907 0.9531 -0.0845
vn -0.2020 -0.8422 0.5000
vn -0.1240 -0.7440 0.6566
vn 0.5886 -0.6757 -0.4439
vn -0.2848 -0.8608 -0.4217
vn -0.0719 -0.6832 -0.7267
vn -0.8495 -0.4550 0.2670
vn -0.4386 -0.6688 0.6002
vn -0.0427 -0.7242 0.6882
vn 0.4752 -0.6014 0.6423
vn -0.0378 0.4126 0.9101
vn 0.2089 -0.0118 0.9779
vn 0.0525 0.3578 0.9323
vn 0.0565 -0.1722 0.9834
vn 0.6687 0.4419 0.5980
vn 0.5506 -0.2096 0.8081
vn 0.9974 -0.0483 -0.0539
vn 0.7640 0.2916 -0.5756
vn 0.6210 -0.1321 -0.7726
vn 0.5681 0.0987 -0.8170
vn 0.2466 -0.3629 -0.8986
vn 0.1727 0.1617 -0.9716
vn -0.1026 -0.3984 -0.9115
vn -0.2571 0.1788 -0.9497
vn -0.0983 -0.1655 -0.9813
vn -0.7148 0.3156 -0.6241
vn -0.7180 -0.1309 -0.6836
vn -0.9991 0.0396 -0.0173
vn -0.8902 0.3307 0.3132
vn -0.8863 0.2993 0.3534
vn -0.1405 0.4860 0.8626
vn -0.1705 0.0982 0.9805
vn 0.1405 0.4724 0.8701
vn 0.2090 -0.0118 0.9778
vn -0.2020 -0.8422 0.4999
vn 0.5885 -0.6757 -0.4439
vn -0.2847 -0.8608 -0.4219
vn -0.1403 -0.9108 -0.3884
vn -0.0718 -0.6832 -0.7267
vn -0.9648 -0.2400 -0.1078
vn -0.8495 -0.4550 0.2671
vn -0.4387 -0.6687 0.6003
vn 0.4752 -0.6013 0.6424
vn 0.0937 0.2433 0.9654
vn 0.0709 0.1280 0.9892
vn 0.6838 0.4379 0.5837
vn 0.8868 0.3455 -0.3069
vn 0.5250 0.3000 -0.7965
vn -0.0473 0.2745 -0.9604
vn -0.3901 0.3094 -0.8673
vn -0.8718 0.3653 -0.3263
vn -0.5244 0.3046 0.7951
vn 0.0044 0.2704 0.9627
vn 0.2203 0.0072 0.9754
vn 0.0515 -0.0056 0.9987
vn 0.8425 0.1488 0.5177
vn 0.8137 0.1554 -0.5601
vn 0.4367 0.1700 -0.8834
vn -0.2609 0.1991 -0.9446
vn -0.7726 0.2113 -0.5987
vn -0.8187 0.1256 0.5604
vn -0.1215 0.0198 0.9924
vn 0.0755 -0.0939 0.9927
vn 0.4646 -0.0469 0.8843
vn 0.9958 0.0903 0.0174
vn 0.7445 0.1306 -0.6547
vn 0.1118 0.1247 -0.9859
vn -0.6599 0.0984 -0.7449
vn -0.9966 0.0504 0.0648
vn -0.3043 -0.0596 0.9507
vn -0.1017 -0.0800 0.9916
vn 0.5081 -0.0222 0.8610
vn 0.1548 -0.0410 0.9871
vn 0.0333 -0.0941 0.9950
vn 0.5393 -0.0523 0.8405
vn 0.9975 0.0697 -0.0129
vn 0.9864 0.1081 -0.1237
vn 0.6933 0.1063 -0.7127
vn 0.5657 0.1190 -0.8160
vn -0.2407 0.0595 -0.9688
vn -0.2828 0.0530 -0.9577
vn -0.8232 0.0294 -0.5669
vn -0.7916 -0.0174 -0.6108
vn -0.9341 -0.0515 0.3534
vn -0.9319 -0.1408 0.3343
vn -0.2864 -0.0897 0.9539
vn -0.0161 -0.0820 0.9965
vn 0.0166 -0.0473 0.9987
vn -0.0752 -0.1855 0.9798
vn 0.8278 0.0517 0.5586
vn 0.9479 0.1798 -0.2631
vn 0.5239 0.1838 -0.8317
vn -0.2341 0.1165 -0.9652
vn -0.6565 -0.0035 -0.7543
vn -0.9546 -0.2107 0.2105
vn -0.1491 -0.1755 0.9731
vn 0.7932 0.0658 0.6054
vn 0.4077 -0.0725 0.9102
vn -0.0238 -0.2064 0.9782
vn 0.7685 0.1226 0.6280
vn 0.9479 0.2570 -0.1880
vn 0.9173 0.3173 -0.2408
vn 0.4504 0.2976 -0.8418
vn 0.6004 0.2788 -0.7495
vn -0.0334 0.1869 -0.9818
vn 0.1290 0.1812 -0.9750
vn -0.4685 0.0154 -0.8833
vn -0.5938 -0.0272 -0.8041
vn -0.9296 -0.2373 0.2820
vn -0.8813 -0.2429 0.4053
vn -0.2701 -0.1996 0.9419
vn -0.4333 -0.2884 0.8538
vn -0.3931 -0.2707 0.8787
vn -0.0238 -0.2065 0.9782
vn 0.6637 0.0903 0.7425
vn 0.3733 0.0311 0.9272
vn 0.2954 -0.2596 0.9194
vn 0.5900 -0.1481 0.7937
vn 0.9699 0.2228 -0.0985
vn 0.9688 0.2403 -0.0613
vn 0.5590 0.2430 -0.7927
vn 0.4448 0.2034 -0.8722
vn -0.1867 0.0786 -0.9793
vn -0.3402 0.0437 -0.9393
vn -0.8125 -0.0952 -0.5751
vn -0.8601 -0.1603 -0.4842
vn -0.8745 -0.2903 0.3887
vn -0.8865 -0.3714 0.2760
vn -0.4916 -0.3644 0.7909
vn -0.1859 -0.2826 0.9411
vn -0.0692 -0.1564 0.9853
vn -0.0844 -0.4067 0.9097
vn 0.7430 0.0157 0.6691
vn 0.9805 0.1908 -0.0466
vn 0.4223 0.1755 -0.8893
vn -0.4279 -0.0016 -0.9038
vn -0.8222 -0.1744 -0.5418
vn -0.9222 -0.2787 0.2682
vn 0.7783 0.0853 0.6220
vn 0.5971 -0.0555 0.8003
vn 0.6586 0.0974 0.7461
vn 0.8336 0.1396 0.5344
vn 0.9610 0.2430 -0.1319
vn 0.9181 0.2417 -0.3142
vn 0.3169 0.2043 -0.9262
vn 0.2883 0.1895 -0.9386
vn -0.4557 0.0393 -0.8893
vn -0.4725 0.0719 -0.8784
vn -0.8514 -0.0854 -0.5176
vn -0.8828 -0.0099 -0.4697
vn -0.9219 -0.2631 0.2845
vn -0.9504 0.0147 0.3106
vn -0.3677 -0.2064 0.9067
vn -0.4076 0.0294 0.9127
vn -0.0049 -0.1105 0.9939
vn -0.1942 0.1017 0.9757
vn 0.7794 -0.0878 0.6203
vn 0.4596 0.1155 0.8806
vn 0.0598 -0.2856 0.9565
vn 0.5565 -0.4871 0.6730
vn 0.9398 -0.1138 -0.3223
vn 0.9774 -0.1671 -0.1295
vn 0.4792 -0.0439 -0.8766
vn 0.5972 -0.2935 -0.7465
vn -0.2148 -0.1017 -0.9713
vn 0.0691 -0.2554 -0.9644
vn -0.7381 -0.1132 -0.6651
vn -0.5879 -0.1003 -0.8027
vn -0.9817 -0.1858 -0.0411
vn -0.9401 -0.2458 -0.2363
vn -0.7070 -0.3570 0.6105
vn -0.5684 -0.2529 0.7829
vn -0.1158 -0.1351 0.9840
vn 0.0599 -0.2855 0.9565
vn 0.8452 0.0881 0.5271
vn 0.5786 0.0868 0.8110
vn 0.9313 0.1192 -0.3442
vn 0.4098 0.0623 -0.9101
vn -0.2751 -0.0136 -0.9613
vn -0.7544 -0.0536 -0.6542
vn -0.9980 -0.0584 -0.0248
vn -0.7491 -0.0701 0.6587
vn -0.4455 -0.0953 0.8902
vn 0.5778 0.5875 0.5666
vn 0.0646 0.0111 0.9978
vn 0.9209 0.3896 0.0118
vn 0.6440 0.5132 -0.5674
vn -0.0129 0.6830 -0.7303
vn -0.8921 0.4510 -0.0263
vn -0.5054 0.5382 0.6745
vn -0.4188 0.5136 0.7489
vn -0.2799 0.8287 0.4847
s 1
f 1//1 2//3 9//2
f 2//3 3//4 9//2
f 3//4 4//5 9//2
f 4//5 5//6 9//2
f 5//6 6//7 9//2
f 6//7 7//8 9//2
f 7//8 8//9 9//2
f 8//9 1//1 9//2
f 12//10 10//12 11//11
f 13//13 10//12 12//10
f 11//11 13//13 12//10
f 14//14 13//13 11//11
f 15//15 14//14 11//11
f 16//16 14//14 15//15
f 17//17 16//16 15//15
f 18//18 16//16 17//17
f 19//19 18//18 17//17
f 20//20 18//18 19//19
f 21//21 20//20 19//19
f 22//22 20//20 21//21
f 23//23 22//22 21//21
f 24//24 22//22 23//23
f 25//25 24//24 23//23
f 26//26 24//24 25//25
f 27//27 26//26 25//25
f 28//28 26//26 27//27
f 29//29 28//28 27//27
f 30//30 28//28 29//29
f 31//31 30//30 29//29
f 32//32 30//30 31//31
f 33//33 32//32 31//31
f 34//34 32//32 33//33
f 35//35 34//34 33//33
f 36//36 34//34 35//35
f 37//37 36//36 35//35
f 38//38 36//36 37//37
f 11//39 38//38 37//37
f 39//40 38//38 11//39
f 10//41 13//43 40//42
f 13//43 14//44 40//42
f 14//44 16//16 40//42
f 16//16 18//45 40//42
f 18//45 20//20 40//42
f 20//20 22//46 40//42
f 22//46 24//24 40//42
f 24//24 26//26 40//42
f 26//26 28//47 40//42
f 28//47 30//30 40//42
f 30//30 32//32 40//42
f 32//32 34//48 40//42
f 34//48 36//49 40//42
f 36//49 38//50 40//42
f 38//50 39//51 40//42
f 43//52 41//54 42//53
f 43//52 42//53 44//55
f 45//56 43//52 44//55
f 45//56 44//55 46//57
f 45//56 46//57 47//58
f 48//59 45//56 47//58
f 48//59 47//58 49//60
f 50//61 48//59 49//60
f 50//61 49//60 51//62
f 52//63 50//61 51//62
f 52//63 51//62 53//64
f 54//65 52//63 53//64
f 54//65 53//64 55//66
f 56//67 54//65 55//66
f 56//67 55//66 57//68
f 56//67 57//68 58//69
f 59//70 56//67 58//69
f 59//70 58//69 60//71
f 61//72 59//70 60//71
f 61//72 60//71 62//73
f 63//74 61//72 62//73
f 63//74 62//73 42//75
f 44//55 42//53 10//12
f 44//55 10//12 13//76
f 44//55 13//76 14//14
f 46//57 44//55 14//14
f 46//57 14//14 16//16
f 47//58 46//57 16//16
f 47//58 16//16 18//77
f 49//60 47//58 18//77
f 49//60 18//77 20//20
f 51//62 49//60 20//20
f 51//62 20//20 22//78
f 53//64 51//62 22//78
f 53//64 22//78 24//79
f 53//64 24//79 26//26
f 55//66 53//64 26//26
f 55//66 26//26 28//80
f 57//68 55//66 28//80
f 57//68 28//80 30//30
f 58//69 57//68 30//30
f 58//69 30//30 32//81
f 60//71 58//69 32//81
f 60//71 32//81 34//82
f 60//71 34//82 36//83
f 62//73 60//71 36//83
f 62//73 36//83 38//50
f 42//75 62//73 38//50
f 42//75 38//50 39//84
f 65//85 64//86 41//54
f 65//85 41//54 43//52
f 66//87 65//85 43//52
f 66//87 43//52 45//56
f 67//88 66//87 45//56
f 67//88 45//56 48//59
f 68//89 67//88 48//59
f 68//89 48//59 50//61
f 68//89 50//61 52//63
f 69//90 68//89 52//63
f 69//90 52//63 54//65
f 70//91 69//90 54//65
f 70//91 54//65 56//67
f 71//92 70//91 56//67
f 71//92 56//67 59//70
f 72//93 71//92 59//70
f 72//93 59//70 61//72
f 73//94 72//93 61//72
f 73//94 61//72 63//74
f 75//95 74//96 64//86
f 75//95 64//86 65//85
f 76//97 75//95 65//85
f 76//97 65//85 66//87
f 77//98 76//97 66//87
f 77//98 66//87 67//88
f 77//98 67//88 68//89
f 78//99 77//98 68//89
f 78//99 68//89 69//90
f 79//100 78//99 69//90
f 79//100 69//90 70//91
f 80//101 79//100 70//91
f 80//101 70//91 71//92
f 81//102 80//101 71//92
f 81//102 71//92 72//93
f 82//103 81//102 72//93
f 82//103 72//93 73//94
f 75//95 83//104 74//96
f 84//105 83//104 75//95
f 76//97 84//105 75//95
f 85//106 84//105 76//97
f 77//98 85//106 76//97
f 86//107 85//106 77//98
f 78//99 86//107 77//98
f 87//108 86//107 78//99
f 79//100 87//108 78//99
f 88//109 87//108 79//100
f 80//101 88//109 79//100
f 89//110 88//109 80//101
f 81//102 89//110 80//101
f 90//111 89//110 81//102
f 82//103 90//111 81//102
f 91//112 90//111 82//103
f 94//113 92//115 93//114
f 95//116 92//115 94//113
f 96//117 95//116 94//113
f 97//118 95//116 96//117
f 98//119 97//118 96//117
f 99//120 97//118 98//119
f 100//121 99//120 98//119
f 101//122 99//120 100//121
f 102//123 101//122 100//121
f 103//124 101//122 102//123
f 104//125 103//124 102//123
f 105//126 103//124 104//125
f 106//127 105//126 104//125
f 107//128 105//126 106//127
f 108//129 107//128 106//127
f 92//115 107//128 108//129
f 84//105 93//114 83//104
f 94//113 93//114 84//105
f 85//106 94//113 84//105
f 96//117 94//113 85//106
f 86//107 96//117 85//106
f 98//119 96//117 86//107
f 87//108 98//119 86//107
f 100//121 98//119 87//108
f 88//109 100//121 87//108
f 102//123 100//121 88//109
f 89//110 102//123 88//109
f 104//125 102//123 89//110
f 90//111 104//125 89//110
f 106//127 104//125 90//111
f 91//112 106//127 90//111
f 108//129 106//127 91//112
f 95//116 109//130 92//115
f 110//131 109//130 95//116
f 97//118 110//131 95//116
f 111//132 110//131 97//118
f 99//120 111//132 97//118
f 112//133 111//132 99//120
f 101//122 112//133 99//120
f 113//134 112//133 101//122
f 103//124 113//134 101//122
f 114//135 113//134 103//124
f 105//126 114//135 103//124
f 115//136 114//135 105//126
f 107//128 115//136 105//126
f 116//137 115//136 107//128
f 92//115 116//137 107//128
f 109//130 116//137 92//115
f 119//138 117//140 118//139
f 120//141 117//140 119//138
f 121//142 120//141 119//138
f 122//143 120//141 121//142
f 123//144 122//143 121//142
f 124//145 122//143 123//144
f 125//146 124//145 123//144
f 126//147 124//145 125//146
f 127//148 126//147 125//146
f 128//149 126//147 127//148
f 129//150 128//149 127//148
f 130//151 128//149 129//150
f 131//152 130//151 129//150
f 132//153 130//151 131//152
f 133//154 132//153 131//152
f 117//155 132//153 133//154
f 110//131 118//139 109//130
f 119//138 118//139 110//131
f 111//132 119//138 110//131
f 121//142 119//138 111//132
f 112//133 121//142 111//132
f 123//144 121//142 112//133
f 113//134 123//144 112//133
f 125//146 123//144 113//134
f 114//135 125//146 113//134
f 127//148 125//146 114//135
f 115//136 127//148 114//135
f 129//150 127//148 115//136
f 116//137 129//150 115//136
f 131//152 129//150 116//137
f 109//130 131//152 116//137
f 133//154 131//152 109//130
f 136//156 134//158 135//157
f 137//159 134//158 136//156
f 138//160 137//159 136//156
f 139//161 137//159 138//160
f 140//162 139//161 138//160
f 141//163 139//161 140//162
f 142//164 141//163 140//162
f 143//165 141//163 142//164
f 144//166 143//165 142//164
f 145//167 143//165 144//166
f 146//168 145//167 144//166
f 147//169 145//167 146//168
f 148//170 147//169 146//168
f 149//171 147//169 148//170
f 150//172 149//171 148//170
f 134//158 149//171 150//172
f 120//141 135//157 117//140
f 136//156 135//157 120//141
f 122//143 136//156 120//141
f 138//160 136//156 122//143
f 124//145 138//160 122//143
f 140//162 138//160 124//145
f 126//147 140//162 124//145
f 142//164 140//162 126//147
f 128//149 142//164 126//147
f 144//166 142//164 128//149
f 130//151 144//166 128//149
f 146//168 144//166 130//151
f 132//153 146//168 130//151
f 148//170 146//168 132//153
f 117//155 148//170 132//153
f 150//172 148//170 117//155
f 137//159 151//173 134//158
f 152//174 151//173 137//159
f 139//161 152//174 137//159
f 153//175 152//174 139//161
f 141//163 153//175 139//161
f 154//176 153//175 141//163
f 143//165 154//176 141//163
f 155//177 154//176 143//165
f 145//167 155//177 143//165
f 156//178 155//177 145//167
f 147//169 156//178 145//167
f 157//179 156//178 147//169
f 149//171 157//179 147//169
f 151//173 157//179 149//171
f 134//158 151//173 149//171
f 160//180 158//182 159//181
f 161//183 158//182 160//180
f 162//184 161//183 160//180
f 163//185 161//183 162//184
f 164//186 163//185 162//184
f 165//187 163//185 164//186
f 166//188 165//187 164//186
f 167//189 165//187 166//188
f 168//190 167//189 166//188
f 169//191 167//189 168//190
f 170//192 169//191 168//190
f 171//193 169//191 170//192
f 172//194 171//193 170//192
f 173//195 171//193 172//194
f 174//196 173//195 172//194
f 175//197 173//195 174//196
f 152//174 159//181 151//173
f 160//180 159//181 152//174
f 153//175 160//180 152//174
f 162//184 160//180 153//175
f 154//176 162//184 153//175
f 164//186 162//184 154//176
f 155//177 164//186 154//176
f 166//188 164//186 155//177
f 156//178 166//188 155//177
f 168//190 166//188 156//178
f 157//179 168//190 156//178
f 170//192 168//190 157//179
f 151//173 170//192 157//179
f 172//194 170//192 151//173
f 174//196 172//194 151//173
f 178//198 176//200 177//199
f 179//201 176//200 178//198
f 180//202 179//201 178//198
f 181//203 179//201 180//202
f 182//204 181//203 180//202
f 183//205 181//203 182//204
f 184//206 183//205 182//204
f 185//207 183//205 184//206
f 186//208 185//207 184//206
f 187//209 185//207 186//208
f 188//210 187//209 186//208
f 189//211 187//209 188//210
f 190//212 189//211 188//210
f 191//213 189//211 190//212
f 192//214 191//213 190//212
f 176//215 191//213 192//214
f 194//216 177//199 193//217
f 178//198 177//199 194//216
f 195//218 178//198 194//216
f 180//202 178//198 195//218
f 196//219 180//202 195//218
f 182//204 180//202 196//219
f 197//220 182//204 196//219
f 184//206 182//204 197//220
f 198//221 184//206 197//220
f 186//208 184//206 198//221
f 199//222 186//208 198//221
f 188//210 186//208 199//222
f 200//223 188//210 199//222
f 190//212 188//210 200//223
f 201//224 190//212 200//223
f 192//214 190//212 201//224
f 161//183 193//217 158//182
f 194//216 193//217 161//183
f 163//185 194//216 161//183
f 195//218 194//216 163//185
f 165//187 195//218 163//185
f 196//219 195//218 165//187
f 167//189 196//219 165//187
f 197//220 196//219 167//189
f 169//191 197//220 167//189
f 198//221 197//220 169//191
f 171//193 198//221 169//191
f 199//222 198//221 171//193
f 173//195 199//222 171//193
f 200//223 199//222 173//195
f 175//197 200//223 173//195
f 201//224 200//223 175//197
f 204//225 1//1 203//226
f 2//3 1//1 204//225
f 205//227 2//3 204//225
f 3//4 2//3 205//227
f 206//228 3//4 205//227
f 4//5 3//4 206//228
f 207//229 4//5 206//228
f 5//6 4//5 207//229
f 6//7 5//6 207//229
f 7//8 6//7 208//230
f 209//231 7//8 208//230
f 8//9 7//8 209//231
f 210//232 8//9 209//231
f 202//233 8//9 210//232
f 179//201 203//226 176//200
f 204//225 203//226 179//201
f 181//203 204//225 179//201
f 205//227 204//225 181//203
f 183//205 205//227 181//203
f 206//228 205//227 183//205
f 185//207 206//228 183//205
f 207//229 206//228 185//207
f 187//209 207//229 185//207
f 6//7 207//229 187//209
f 189//211 6//7 187//209
f 208//230 6//7 189//211
f 191//213 208//230 189//211
f 209//231 208//230 191//213
f 176//215 209//231 191//213
f 210//232 209//231 176//215
