# Generated by Visualization Toolkit
v -0.002320999978110194 -0.20904399454593658 -0.04546299949288368
v -0.0007469999836757779 -0.21545299887657166 -0.04621800035238266
v 0.003459000028669834 -0.2152860015630722 -0.04965699836611748
v 0.0029929999727755785 -0.21036100387573242 -0.05096999928355217
v -0.000009999999747378752 -0.1942950040102005 -0.05303899943828583
v -0.005086999852210283 -0.19732600450515747 -0.04719199985265732
v -0.0007600000244565308 -0.18685099482536316 -0.05310000106692314
v -0.005611000116914511 -0.18846499919891357 -0.047575999051332474
v -0.0011709999525919557 -0.16808800399303436 -0.050645001232624054
v -0.006302000023424625 -0.16871699690818787 -0.04570399969816208
v -0.002196999965235591 -0.13571199774742126 -0.0427669994533062
v -0.0036669999826699495 -0.1357560008764267 -0.04115400090813637
v -0.001690999954007566 -0.11111100018024445 -0.03715899959206581
v -0.0034030000679194927 -0.11164599657058716 -0.033654000610113144
v -0.0006779999821446836 -0.07998699694871902 -0.026399999856948853
v -0.0039889998733997345 -0.08105500042438507 -0.022732000797986984
v 0.0009640000062063336 -0.06060599908232689 -0.0169489998370409
v -0.0031530000269412994 -0.06151299923658371 -0.01534199994057417
v 0.0033549999352544546 -0.044509001076221466 -0.00885200034826994
v -0.0013340000296011567 -0.04424000158905983 -0.007581000216305256
v 0.004645000211894512 -0.030466999858617783 -0.002515000058338046
v -0.002076999982818961 -0.03478800132870674 -0.002403999911621213
v -0.0013729999773204327 -0.030047999694943428 0.00007400000322377309
v 0.003413999918848276 -0.024806000292301178 -0.0002629999944474548
v -0.0009130000253207982 -0.024896999821066856 0.00043899999582208693
v 0.0030980000738054514 -0.019169000908732414 0.0003129999968223274
v -0.0005569999921135604 -0.019175000488758087 0.0014990000054240227
v 0.00039599998854100704 0.00010199999815085903 0.007199999876320362
v 0.004780000075697899 0.00003199999991920777 0.006186000071465969
v 0.000011000000085914508 0.000028000000384054147 0.000009000000318337698
v 0.005125000141561031 -0.2139900028705597 -0.06049500033259392
v 0.0068720001727342606 -0.21042099595069885 -0.06191200017929077
v 0.0026499999221414328 -0.19445499777793884 -0.06107399985194206
v 0.0018779999809339643 -0.18572799861431122 -0.05938500165939331
v 0.0013510000426322222 -0.16710199415683746 -0.056457001715898514
v 0.001740999985486269 -0.13423499464988708 -0.047775998711586
v 0.001762000028975308 -0.10941600054502487 -0.04114000126719475
v 0.002111000008881092 -0.07838000357151031 -0.030856000259518623
v 0.004999999888241291 -0.059773001819849014 -0.021577000617980957
v 0.007992999628186226 -0.04422200098633766 -0.011859999969601631
v 0.00951400026679039 -0.03861299902200699 -0.008080000057816505
v 0.009465999901294708 -0.030348999425768852 -0.004166000057011843
v 0.008698999881744385 -0.023460999131202698 -0.003323999932035804
v 0.007573000155389309 -0.018063999712467194 -0.002764000091701746
v 0.007102999836206436 -0.009604999795556068 -0.0002629999944474548
v 0.003664999967440963 -0.01081900019198656 0.003871999913826585
v 0.0095210000872612 -0.006415999960154295 0.0019249999895691872
v 0.004964000079780817 -0.00815299991518259 0.006142999976873398
v 0.011049999855458736 -0.002256999956443906 0.002816000021994114
v 0.0065830000676214695 -0.003037000074982643 0.008169000037014484
v 0.007876000367105007 0.0015960000455379486 0.0026130001060664654
v 0.00686000008136034 0.0027979998849332333 -0.003536999924108386
v 0.008175999857485294 0.002179000061005354 -0.005013999994844198
v 0.008136999793350697 -0.0029490001033991575 -0.007153000216931105
v 0.006359000224620104 -0.007395999971777201 -0.00711800018325448
v 0.007741999812424183 -0.016109000891447067 -0.008094999939203262
v 0.009362000040709972 -0.021007999777793884 -0.009446999989449978
v 0.011827999725937843 -0.026618000119924545 -0.006994999945163727
v 0.012703999876976013 -0.03198700025677681 -0.007613999769091606
v 0.011366000398993492 -0.03777400031685829 -0.010040000081062317
v 0.010116999968886375 -0.03622100129723549 -0.01397200021892786
v 0.011518999934196472 -0.03036399930715561 -0.011775000020861626
v 0.008905000053346157 -0.04217600077390671 -0.01588200032711029
v 0.005766000133007765 -0.05843399837613106 -0.024219999089837074
v 0.002618999918922782 -0.07741600275039673 -0.0347759984433651
v 0.002394000068306923 -0.10854700207710266 -0.04559199884533882
v 0.0020069999154657125 -0.13323800265789032 -0.05174100026488304
v 0.001415999955497682 -0.166484996676445 -0.060871999710798264
v 0.002245000097900629 -0.18546800315380096 -0.06518899649381638
v 0.004120000172406435 -0.19383999705314636 -0.06809700280427933
v 0.008054000325500965 -0.20928500592708588 -0.06639999896287918
v 0.0076430002227425575 -0.2043049931526184 -0.07121499627828598
v 0.007129000034183264 -0.21121199429035187 -0.0710579976439476
v 0.0045819999650120735 -0.21530599892139435 -0.06540600210428238
v 0.0043230000883340836 -0.21331599354743958 -0.07328200340270996
v 0.003145999973639846 -0.2199079990386963 -0.07238399982452393
v 0.0025110000278800726 -0.21856999397277832 -0.0756710022687912
v 0.0004090000002179295 -0.18528300523757935 -0.0672530010342598
v -0.0014009999576956034 -0.1666789948940277 -0.06331799924373627
v -0.0013589999871328473 -0.1312139928340912 -0.05528299883008003
v -0.0013470000121742487 -0.1066410019993782 -0.048725999891757965
v -0.001383999944664538 -0.07620199769735336 -0.03819600120186806
v 0.00041000000783242285 -0.05571899935603142 -0.028896000236272812
v 0.0010140000376850367 -0.03622899949550629 -0.020503999665379524
v 0.0024429999757558107 -0.027411000803112984 -0.01602100022137165
v 0.0022249999456107616 -0.018814999610185623 -0.012315000407397747
v 0.0010779999429360032 -0.014448000118136406 -0.010999999940395355
v 0.0005990000208839774 -0.006225999910384417 -0.008573000319302082
v 0.0012130000395700336 -0.0017379999626427889 -0.010280000045895576
v 0.0009609999833628535 0.00381199992261827 -0.007809000089764595
v -0.008905000053346157 0.0017900000093504786 0.0011409999569877982
v -0.0028860000893473625 0.0008420000085607171 0.006010999903082848
v -0.00936300028115511 -0.18712200224399567 -0.04979600012302399
v -0.01218200009316206 -0.19769400358200073 -0.05030899867415428
v -0.014550000429153442 -0.20552000403404236 -0.05037999898195267
v -0.0029800001066178083 -0.2124989926815033 -0.04535499960184097
v -0.007988999597728252 -0.2125370055437088 -0.050526998937129974
v -0.011843999847769737 -0.21461699903011322 -0.05275699868798256
v -0.0033730000723153353 -0.18527400493621826 -0.06773199886083603
v -0.0002899999963119626 -0.010393000207841396 0.005390999838709831
v -0.00026000000070780516 -0.007422999944537878 0.007681999821215868
v -0.005659999791532755 -0.018151000142097473 0.00044299999717622995
v -0.005410999990999699 -0.024027999490499496 -0.0010379999876022339
v -0.0064409999176859856 -0.031605999916791916 -0.004495000001043081
v -0.006035999860614538 -0.04231199994683266 -0.009885000064969063
v -0.0071680000983178616 -0.06102599948644638 -0.018991999328136444
v -0.007420999929308891 -0.08118099719285965 -0.02696100063621998
v 0.00018699999782256782 -0.002901999978348613 0.01001999992877245
v -0.004933000076562166 -0.21400900185108185 -0.055330999195575714
v -0.003134000115096569 -0.21462200582027435 -0.06100999936461449
v -0.0004910000134259462 -0.21580399572849274 -0.06502199918031693
v 0.0018649999983608723 -0.22016799449920654 -0.07144899666309357
v 0.00215999991632998 -0.21923600137233734 -0.07514599710702896
v 0.0008670000243000686 -0.2208320051431656 -0.0739390030503273
v -0.0012570000253617764 -0.22008900344371796 -0.07354799658060074
v -0.00031800000579096377 -0.21810799837112427 -0.07609199732542038
v 0.004031999967992306 -0.20547999441623688 -0.0722619965672493
v 0.001766999950632453 -0.194472998380661 -0.07023999840021133
v -0.0022730000782757998 -0.19635500013828278 -0.07049299776554108
v -0.0009480000007897615 -0.2056480050086975 -0.07387500256299973
v -0.005071000196039677 -0.21519100666046143 -0.07191900163888931
v -0.004046000074595213 -0.20721200108528137 -0.0725720003247261
v -0.0041519999504089355 -0.21705499291419983 -0.07001999765634537
v -0.006674999836832285 -0.16681000590324402 -0.06259600073099136
v -0.0085230004042387 -0.18656499683856964 -0.06549300253391266
v -0.007515000179409981 -0.19766299426555634 -0.06892599910497665
v -0.00814799964427948 -0.2092989981174469 -0.0701880007982254
v -0.008771000429987907 -0.21435999870300293 -0.06976500153541565
v -0.009886999614536762 -0.21601800620555878 -0.06270600110292435
v -0.010928000323474407 -0.2136709988117218 -0.06728799641132355
v -0.012388999573886395 -0.21152999997138977 -0.0691550001502037
v -0.011750999838113785 -0.21151000261306763 -0.07026799768209457
v -0.011226000264286995 -0.20723100006580353 -0.06974899768829346
v -0.009957999922335148 -0.1974100023508072 -0.0676560029387474
v -0.012121999636292458 -0.1969580054283142 -0.06524500250816345
v -0.010633000172674656 -0.18694500625133514 -0.062950998544693
v -0.01372199971228838 -0.20631299912929535 -0.06712500005960464
v -0.011726000346243382 -0.209198996424675 -0.06541699916124344
v -0.012284000404179096 -0.19770699739456177 -0.06160400062799454
v -0.008330999873578548 -0.16717499494552612 -0.05826900154352188
v -0.010629000142216682 -0.1870580017566681 -0.05784200131893158
v -0.00826600007712841 -0.1678609997034073 -0.052956998348236084
v -0.012323999777436256 -0.19734099507331848 -0.05729199945926666
v -0.01285600010305643 -0.21095900237560272 -0.05990700051188469
v -0.011033999733626842 -0.21524100005626678 -0.06351400166749954
v -0.014945000410079956 -0.20871500670909882 -0.05548600107431412
v -0.016092000529170036 -0.20635199546813965 -0.051642999053001404
v -0.014895999804139137 -0.2142390012741089 -0.0553629994392395
v -0.01735600084066391 -0.21210399270057678 -0.05239100009202957
v -0.016370000317692757 -0.20969900488853455 -0.05177000164985657
v -0.005367000121623278 -0.13505999743938446 -0.045448001474142075
v -0.005367000121623278 -0.11067400127649307 -0.03827400133013725
v -0.006552999839186668 -0.08131799846887589 -0.026312999427318573
v -0.0038399999029934406 -0.06198500096797943 -0.016339000314474106
v -0.006701999809592962 -0.06169100105762482 -0.018939999863505363
v -0.0015480000292882323 -0.04339500144124031 -0.007412999868392944
v -0.006401999853551388 -0.007002000231295824 0.004087999928742647
v -0.007833000272512436 -0.0025579999200999737 0.007060999982059002
v -0.0071760001592338085 0.00031999999191612005 0.007908999919891357
v -0.010579999536275864 -0.0015109999803826213 -0.00011300000187475234
v -0.008476000279188156 -0.005745000205934048 -0.0011149999918416142
v -0.0073079997673630714 -0.01726599968969822 -0.003963000141084194
v -0.00698099983856082 -0.021796999499201775 -0.0055320002138614655
v -0.007215000223368406 -0.02964700013399124 -0.00829199980944395
v -0.007317999843508005 -0.04004500061273575 -0.013150000013411045
v -0.00760400015860796 -0.06089000031352043 -0.02171199955046177
v -0.0072119999676942825 -0.08065599948167801 -0.029577000066637993
v -0.006694000214338303 -0.10892099887132645 -0.04257600009441376
v -0.006550999823957682 -0.13300499320030212 -0.0498960018157959
v -0.005371999926865101 -0.1312510073184967 -0.05445899814367294
v -0.006351000163704157 -0.10757700353860855 -0.04838300123810768
v -0.0062060002237558365 -0.0781639963388443 -0.03770500048995018
v -0.006227999925613403 -0.057815998792648315 -0.028245000168681145
v -0.006298999767750502 -0.0378509983420372 -0.018317999318242073
v -0.006107000168412924 -0.02755199931561947 -0.013120999559760094
v -0.004966000095009804 -0.01923999935388565 -0.010277999565005302
v -0.004854999948292971 -0.015030999667942524 -0.00853000022470951
v -0.005437000188976526 -0.006390000227838755 -0.006670000031590462
v -0.007269999943673611 0.0002739999908953905 -0.007902000099420547
v -0.006147000007331371 0.004282000008970499 -0.00647500017657876
f 2 3 4
f 4 5 6
f 5 7 8
f 7 9 10
f 9 11 12
f 11 13 14
f 13 15 16
f 15 17 18
f 17 19 20
f 19 21 22
f 22 21 23
f 26 27 25
f 28 29 30
f 3 31 32
f 32 33 5
f 33 34 7
f 34 35 9
f 35 36 11
f 36 37 13
f 37 38 15
f 38 39 17
f 39 40 19
f 19 40 41
f 41 42 21
f 42 43 24
f 43 44 26
f 44 45 46
f 45 47 48
f 47 49 50
f 49 51 29
f 29 51 30
f 51 49 53
f 49 47 54
f 47 45 55
f 45 44 56
f 44 43 57
f 57 43 58
f 43 42 59
f 42 41 60
f 60 41 40
f 40 61 60
f 61 62 59
f 62 57 58
f 61 40 63
f 40 39 64
f 39 38 65
f 38 37 66
f 37 36 67
f 36 35 68
f 35 34 69
f 34 33 70
f 32 71 72
f 71 32 31
f 73 72 71
f 31 74 75
f 74 76 77
f 78 79 68
f 79 80 67
f 80 81 66
f 81 82 65
f 82 83 64
f 63 84 61
f 84 85 62
f 85 86 57
f 86 87 56
f 87 88 55
f 88 89 54
f 89 90 53
f 53 90 52
f 52 90 30
f 30 91 92
f 29 28 92
f 10 93 8
f 93 94 6
f 94 95 1
f 1 96 2
f 95 97 96
f 96 97 2
f 97 95 98
f 79 78 99
f 21 25 23
f 102 103 25
f 103 104 23
f 23 104 22
f 104 105 20
f 105 106 18
f 106 107 16
f 26 46 100
f 46 48 101
f 48 50 108
f 50 29 28
f 31 3 110
f 110 3 2
f 31 111 74
f 74 111 112
f 109 2 97
f 98 109 97
f 51 52 30
f 24 25 21
f 114 115 116
f 118 117 120
f 116 121 122
f 116 115 123
f 120 122 119
f 79 99 125
f 119 122 127
f 122 121 128
f 128 121 123
f 123 129 130
f 131 132 128
f 132 133 127
f 133 134 126
f 126 134 125
f 134 135 136
f 134 133 137
f 133 132 131
f 131 130 138
f 138 139 137
f 137 139 135
f 136 140 124
f 136 141 142
f 136 135 139
f 141 139 143
f 139 138 144
f 138 130 145
f 143 144 146
f 144 145 148
f 148 150 147
f 149 148 98
f 148 145 129
f 12 14 152
f 14 16 153
f 16 154 155
f 154 156 105
f 27 100 157
f 100 101 158
f 158 101 108
f 108 159 158
f 159 91 160
f 160 161 157
f 161 162 102
f 162 163 103
f 163 164 104
f 164 165 105
f 165 166 155
f 166 167 153
f 168 169 151
f 169 140 142
f 140 169 170
f 169 168 171
f 168 167 172
f 167 166 173
f 166 165 174
f 165 164 175
f 164 163 176
f 163 162 177
f 162 161 178
f 160 91 180
f 90 89 179
f 89 88 178
f 88 87 177
f 87 86 176
f 86 85 175
f 84 83 173
f 83 82 172
f 80 79 124
f 83 84 63
f 168 152 153
f 170 171 81
f 81 171 172
f 84 174 175
f 30 90 180
f 30 180 91
f 159 92 28
f 91 159 92
f 160 179 178
f 151 142 10
f 143 94 93
f 146 147 94
f 94 147 95
f 147 150 98
f 98 150 149
f 142 141 93
f 78 69 70
f 99 78 118
f 125 99 119
f 117 118 70
f 72 73 75
f 120 117 75
f 77 116 120
f 115 116 77
f 112 114 77
f 98 129 110
f 129 123 111
f 115 114 112
f 145 130 129
f 148 149 150
f 1 2 4
f 1 4 6
f 6 5 8
f 8 7 10
f 10 9 12
f 12 11 14
f 14 13 16
f 16 15 18
f 18 17 20
f 20 19 22
f 24 26 25
f 4 3 32
f 4 32 5
f 5 33 7
f 7 34 9
f 9 35 11
f 11 36 13
f 13 37 15
f 15 38 17
f 17 39 19
f 19 41 21
f 21 42 24
f 24 43 26
f 26 44 46
f 46 45 48
f 48 47 50
f 50 49 29
f 52 51 53
f 53 49 54
f 54 47 55
f 55 45 56
f 56 44 57
f 58 43 59
f 59 42 60
f 60 61 59
f 59 62 58
f 63 40 64
f 64 39 65
f 65 38 66
f 66 37 67
f 67 36 68
f 68 35 69
f 69 34 70
f 33 32 72
f 31 73 71
f 73 31 75
f 75 74 77
f 69 78 68
f 68 79 67
f 67 80 66
f 66 81 65
f 65 82 64
f 61 84 62
f 62 85 57
f 57 86 56
f 56 87 55
f 55 88 54
f 54 89 53
f 29 92 30
f 8 93 6
f 6 94 1
f 1 95 96
f 27 102 25
f 25 103 23
f 22 104 20
f 20 105 18
f 18 106 16
f 27 26 100
f 100 46 101
f 101 48 108
f 108 50 28
f 111 31 110
f 109 110 2
f 77 74 112
f 113 114 116
f 119 118 120
f 120 116 122
f 121 116 123
f 124 79 125
f 126 119 127
f 127 122 128
f 128 123 130
f 130 131 128
f 128 132 127
f 127 133 126
f 125 134 136
f 135 134 137
f 137 133 131
f 137 131 138
f 125 136 124
f 140 136 142
f 141 136 139
f 143 139 144
f 144 138 145
f 146 144 148
f 146 148 147
f 98 148 129
f 151 12 152
f 152 14 153
f 153 16 155
f 155 154 105
f 102 27 157
f 157 100 158
f 158 159 160
f 158 160 157
f 157 161 102
f 102 162 103
f 103 163 104
f 104 164 105
f 105 165 155
f 155 166 153
f 152 168 151
f 151 169 142
f 124 140 170
f 170 169 171
f 171 168 172
f 172 167 173
f 173 166 174
f 174 165 175
f 175 164 176
f 176 163 177
f 177 162 178
f 179 160 180
f 180 90 179
f 179 89 178
f 178 88 177
f 177 87 176
f 176 86 175
f 174 84 173
f 173 83 172
f 170 80 124
f 64 83 63
f 167 168 153
f 80 170 81
f 82 81 172
f 85 84 175
f 159 28 108
f 161 160 178
f 12 151 10
f 141 143 93
f 143 146 94
f 95 147 98
f 10 142 93
f 118 78 70
f 119 99 118
f 126 125 119
f 72 117 70
f 117 72 75
f 75 77 120
f 114 115 77
f 76 112 77
f 109 98 110
f 110 129 111
f 123 115 112
f 70 33 72
f 76 77 112
f 111 123 112
f 112 123 111
