# Generated by Visualization Toolkit
v -0.09594599902629852 -0.1412310004234314 0.04742899909615517
v -0.09537100046873093 -0.13733699917793274 0.05103300139307976
v -0.09664899855852127 -0.13242200016975403 0.054666999727487564
v -0.09831699728965759 -0.12568199634552002 0.05659100040793419
v -0.10006999969482422 -0.11738499999046326 0.05913100019097328
v -0.102633997797966 -0.09796400368213654 0.06405600160360336
v -0.10115300118923187 -0.07270999997854233 0.06863299757242203
v -0.09626899659633636 -0.04539899900555611 0.06882300227880478
v -0.09395000338554382 -0.03269499912858009 0.06829600036144257
v -0.08788800239562988 -0.02238300070166588 0.06913100183010101
v -0.08148899674415588 -0.01363999955356121 0.06991499662399292
v -0.0742259994149208 -0.004100999794900417 0.06875800341367722
v -0.06705600023269653 0.0029849999118596315 0.06616199761629105
v -0.06938400119543076 0.00267999991774559 0.06437300145626068
v -0.0773250013589859 -0.0049669998697936535 0.06695999950170517
v -0.08405999839305878 -0.010917999781668186 0.06825800240039825
v -0.08802799880504608 -0.015177999623119831 0.06904900074005127
v -0.09021999686956406 -0.018769999966025352 0.06906499713659286
v -0.09307300299406052 -0.022245999425649643 0.06847900152206421
v -0.0969339981675148 -0.025812000036239624 0.06698700040578842
v -0.098362997174263 -0.027264999225735664 0.0666939988732338
v -0.10003499686717987 -0.029167000204324722 0.06617499887943268
v -0.09947600215673447 -0.031762998551130295 0.06701699644327164
v -0.09933000057935715 -0.035718001425266266 0.06847800314426422
v -0.10147599875926971 -0.04270699992775917 0.07089900225400925
v -0.1036209985613823 -0.05294099822640419 0.07194700092077255
v -0.10535699874162674 -0.0715780034661293 0.06991100311279297
v -0.10605499893426895 -0.0918859988451004 0.06506200134754181
v -0.10468000173568726 -0.11098799854516983 0.06244499981403351
v -0.10503000020980835 -0.11771299690008163 0.06106499955058098
v -0.10510499775409698 -0.12318699806928635 0.057225000113248825
v -0.10433900356292725 -0.13191799819469452 0.052765000611543655
v -0.10196699947118759 -0.13828900456428528 0.04773399978876114
v -0.09946099668741226 -0.14412899315357208 0.04590899869799614
v -0.09777700155973434 -0.14424599707126617 0.04539300128817558
v -0.10148900002241135 -0.1410910040140152 0.058357998728752136
v -0.10208799690008163 -0.13617099821567535 0.06124600023031235
v -0.10385599732398987 -0.13001100718975067 0.0641070008277893
v -0.10569799691438675 -0.12294600158929825 0.06722799688577652
v -0.10869000107049942 -0.10252299904823303 0.07313600182533264
v -0.10778599977493286 -0.07614099979400635 0.07752799987792969
v -0.10464700311422348 -0.04813599959015846 0.07580900192260742
v -0.10224299877882004 -0.03509199991822243 0.07535099983215332
v -0.09657599776983261 -0.022075999528169632 0.07549399882555008
v -0.09024199843406677 -0.01218399964272976 0.07385499775409698
v -0.08103299885988235 -0.0014039999805390835 0.07176099717617035
v -0.07716400176286697 0.0015140000032261014 0.07121899724006653
v -0.077394999563694 0.0020979999098926783 0.06897599995136261
v -0.08009699732065201 0.0005169999785721302 0.07058999687433243
v -0.08624699711799622 -0.004978999961167574 0.07175400108098984
v -0.09046100080013275 -0.009584999643266201 0.07264000177383423
v -0.09292399883270264 -0.013748999685049057 0.07377099990844727
v -0.09536699950695038 -0.01789199933409691 0.07321999967098236
v -0.09833700209856033 -0.023857999593019485 0.07456099987030029
v -0.10035999864339828 -0.027556000277400017 0.07406000047922134
v -0.10230299830436707 -0.031929999589920044 0.07396300137042999
v -0.10468500107526779 -0.04057899862527847 0.07412199676036835
v -0.10563699901103973 -0.04587800055742264 0.07525700330734253
v -0.10574699938297272 -0.050951000303030014 0.07614199817180634
v -0.10652700066566467 -0.059592001140117645 0.07537800073623657
v -0.1086060032248497 -0.07477500289678574 0.07577099651098251
v -0.10949800163507462 -0.09487699717283249 0.07346499711275101
v -0.10809999704360962 -0.11361099779605865 0.06849999725818634
v -0.10752400010824203 -0.11968100070953369 0.06728500127792358
v -0.10636000335216522 -0.12797799706459045 0.06455700099468231
v -0.10484600067138672 -0.13614900410175323 0.06009899824857712
v -0.10206899791955948 -0.14276599884033203 0.056467000395059586
v -0.09144099801778793 -0.1296750009059906 0.036632999777793884
v -0.09177800267934799 -0.12463799864053726 0.03874199837446213
v -0.09134799987077713 -0.12026900053024292 0.04051399976015091
v -0.09161099791526794 -0.11411099880933762 0.043379999697208405
v -0.09327299892902374 -0.10670600086450577 0.04564899951219559
v -0.09502100199460983 -0.09099099785089493 0.050289999693632126
v -0.09363699704408646 -0.06754899770021439 0.05543600022792816
v -0.08805900067090988 -0.043101001530885696 0.06067400053143501
v -0.08600100129842758 -0.031076999381184578 0.06092400103807449
v -0.08010599762201309 -0.023229999467730522 0.061243001371622086
v -0.07381399720907211 -0.016421999782323837 0.0639519989490509
v -0.06716900318861008 -0.008476000279188156 0.0646200031042099
v -0.061576999723911285 -0.001829999964684248 0.06158699840307236
v -0.0626629963517189 -0.0023709998931735754 0.06026000156998634
v -0.07463599741458893 -0.010458000004291534 0.06427299976348877
v -0.08279400318861008 -0.016398999840021133 0.06462299823760986
v -0.08506199717521667 -0.01863900013267994 0.06457699835300446
v -0.08750200271606445 -0.02098800055682659 0.06438799947500229
v -0.09169799834489822 -0.023994000628590584 0.06326399743556976
v -0.09580100327730179 -0.026673000305891037 0.0622280016541481
v -0.09705200046300888 -0.02777799963951111 0.061080001294612885
v -0.09798599779605865 -0.02822599932551384 0.06159299984574318
v -0.09649399667978287 -0.030043000355362892 0.06294099986553192
v -0.09593400359153748 -0.0327720008790493 0.06513500213623047
v -0.09529300034046173 -0.03717400133609772 0.06636100262403488
v -0.0955749973654747 -0.04570399969816208 0.0653809979557991
v -0.09783100336790085 -0.06698299944400787 0.056720998138189316
v -0.09804300218820572 -0.08684500306844711 0.05266600102186203
v -0.096560999751091 -0.1044669970870018 0.04845299944281578
v -0.09665100276470184 -0.10984999686479568 0.04663600027561188
v -0.0983090028166771 -0.11374399811029434 0.04339899867773056
v -0.09771899878978729 -0.12315399944782257 0.038773998618125916
v -0.09511800110340118 -0.12852700054645538 0.035673998296260834
v -0.0932689979672432 -0.1317799985408783 0.033934999257326126
v -0.09066899865865707 -0.13269199430942535 0.03424999862909317
v -0.08859100192785263 -0.12041600048542023 0.03180000185966492
v -0.0886010006070137 -0.11627700179815292 0.03420199826359749
v -0.08826100081205368 -0.11302600055932999 0.03521500155329704
v -0.08851899951696396 -0.10810299962759018 0.037730999290943146
v -0.09001799672842026 -0.09924100339412689 0.04083999991416931
v -0.09099800139665604 -0.08701200038194656 0.0434270016849041
v -0.08920799940824509 -0.06514099985361099 0.049281999468803406
v -0.08313000202178955 -0.041710998862981796 0.05428500100970268
v -0.08007699996232986 -0.03137899935245514 0.05509600043296814
v -0.07595700025558472 -0.024108000099658966 0.05651300027966499
v -0.06878100335597992 -0.0197720006108284 0.06000899896025658
v -0.06168900057673454 -0.012051000259816647 0.06040399894118309
v -0.05779600143432617 -0.007430000230669975 0.05819400027394295
v -0.05832900106906891 -0.007277000229805708 0.0578950010240078
v -0.07057800143957138 -0.014775999821722507 0.06190299987792969
v -0.0840189978480339 -0.02151300013065338 0.05972300097346306
v -0.0868000015616417 -0.023302000015974045 0.05990999937057495
v -0.0906430035829544 -0.024739999324083328 0.05810000002384186
v -0.09380599856376648 -0.026052000001072884 0.05587900057435036
v -0.09472700208425522 -0.02648399956524372 0.054701998829841614
v -0.09540099650621414 -0.02907400019466877 0.054405998438596725
v -0.09415899962186813 -0.02954000048339367 0.055883001536130905
v -0.09161099791526794 -0.031062999740242958 0.061250001192092896
v -0.09071700274944305 -0.033438000828027725 0.06239800155162811
v -0.09013999998569489 -0.040734998881816864 0.06082800030708313
v -0.09315499663352966 -0.06311900168657303 0.05046600103378296
v -0.09351000189781189 -0.08117099851369858 0.045260000973939896
v -0.09321100264787674 -0.09947100281715393 0.042013999074697495
v -0.09406699985265732 -0.10406599938869476 0.040869999676942825
v -0.09623699635267258 -0.10852999985218048 0.03818099945783615
v -0.09605100005865097 -0.11412300169467926 0.03456500172615051
v -0.09294699877500534 -0.12062100321054459 0.030897000804543495
v -0.09194599837064743 -0.12253200262784958 0.030779000371694565
v -0.08952599763870239 -0.12344899773597717 0.03127799928188324
v -0.08352500200271606 -0.1038530021905899 0.026314999908208847
v -0.0825359970331192 -0.10286600142717361 0.028240999206900597
v -0.08271300047636032 -0.10141199827194214 0.029455000534653664
v -0.08314500004053116 -0.09895499795675278 0.03146100044250488
v -0.08582299947738647 -0.09042800217866898 0.0348609983921051
v -0.08639699965715408 -0.08179599791765213 0.03711099922657013
v -0.08377499878406525 -0.06229199841618538 0.04335999861359596
v -0.07795000076293945 -0.04166699945926666 0.04778100177645683
v -0.0749950036406517 -0.03269200026988983 0.048829998821020126
v -0.07181400060653687 -0.02676600031554699 0.05143100023269653
v -0.06529799848794937 -0.022317999973893166 0.055059000849723816
v -0.05891000106930733 -0.014595000073313713 0.0578479990363121
v -0.05620700120925903 -0.01090800017118454 0.0569010004401207
v -0.05661899968981743 -0.011014999821782112 0.05618999898433685
v -0.06795100122690201 -0.017820000648498535 0.05851000174880028
v -0.07913199812173843 -0.02385699935257435 0.055656999349594116
v -0.08238299936056137 -0.024383999407291412 0.053373001515865326
v -0.08537600189447403 -0.02390100061893463 0.051332999020814896
v -0.08837500214576721 -0.023422999307513237 0.049286000430583954
v -0.09113100171089172 -0.023966999724507332 0.04812199994921684
v -0.09314999729394913 -0.025519000366330147 0.04730499908328056
v -0.09365800023078918 -0.02922300063073635 0.046817999333143234
v -0.0919789969921112 -0.029120000079274178 0.04698299989104271
v -0.08733800053596497 -0.028296999633312225 0.052917998284101486
v -0.08469100296497345 -0.03102700039744377 0.05531400069594383
v -0.08411800116300583 -0.03676600009202957 0.05511699989438057
v -0.08645199984312057 -0.06002900004386902 0.0429840013384819
v -0.08687999844551086 -0.07370000332593918 0.03842400014400482
v -0.08723100274801254 -0.08884300291538239 0.033587999641895294
v -0.08781299740076065 -0.09140600264072418 0.03235799819231033
v -0.08921600133180618 -0.09440500289201736 0.02901099994778633
v -0.09113699942827225 -0.09853599965572357 0.02621600031852722
v -0.09062600135803223 -0.1006539985537529 0.02428399957716465
v -0.08936599642038345 -0.10233999788761139 0.023719999939203262
v -0.08536700159311295 -0.10383299738168716 0.024984000250697136
v -0.07862000167369843 -0.08984199911355972 0.018281999975442886
v -0.0761450007557869 -0.09045200049877167 0.02223600074648857
v -0.07473400235176086 -0.08958200365304947 0.024210000410676003
v -0.07542099803686142 -0.08802399784326553 0.026312999427318573
v -0.0777520015835762 -0.07859399914741516 0.02868100069463253
v -0.07833600044250488 -0.0740009993314743 0.030548999086022377
v -0.07581499963998795 -0.05786300078034401 0.03601599857211113
v -0.07252400368452072 -0.04273400083184242 0.04012899845838547
v -0.07025399804115295 -0.034561000764369965 0.04293200001120567
v -0.06757800281047821 -0.029531000182032585 0.04506799951195717
v -0.06198899820446968 -0.0251499991863966 0.04948500171303749
v -0.054455000907182693 -0.01797799952328205 0.054715998470783234
v -0.05226299911737442 -0.016188999637961388 0.05434099957346916
v -0.05284100025892258 -0.01594500057399273 0.05313200131058693
v -0.06265900284051895 -0.020503999665379524 0.05355900153517723
v -0.07457499951124191 -0.026636000722646713 0.050616998225450516
v -0.07772800326347351 -0.026373999193310738 0.0480789989233017
v -0.08130499720573425 -0.023749999701976776 0.04552000015974045
v -0.08570999652147293 -0.019663000479340553 0.04323200136423111
v -0.08779200166463852 -0.01998000033199787 0.04201599955558777
v -0.08962699770927429 -0.0224239993840456 0.039980001747608185
v -0.08963699638843536 -0.027365000918507576 0.038586001843214035
v -0.0892229974269867 -0.027820000424981117 0.03929600119590759
v -0.08239799737930298 -0.026559999212622643 0.045857999473810196
v -0.0790029987692833 -0.028627000749111176 0.048604998737573624
v -0.07734499871730804 -0.03414800018072128 0.04871400073170662
v -0.08085700124502182 -0.0580889992415905 0.03754099830985069
v -0.08136799931526184 -0.06906499713659286 0.03360399976372719
v -0.0807809978723526 -0.08026500046253204 0.0286289993673563
v -0.08126699924468994 -0.08215799927711487 0.026808999478816986
v -0.08274099975824356 -0.08480600267648697 0.022045999765396118
v -0.08339899778366089 -0.08713400363922119 0.019047999754548073
v -0.08330100029706955 -0.08869300037622452 0.016755999997258186
v -0.08212800323963165 -0.09060300141572952 0.016447000205516815
v -0.0810609981417656 -0.09153000265359879 0.018432000651955605
v -0.07128000259399414 -0.08198100328445435 0.01618099957704544
v -0.0687979981303215 -0.08090899884700775 0.02015100046992302
v -0.06739600002765656 -0.07981199771165848 0.022802000865340233
v -0.06731700152158737 -0.07723899930715561 0.024591999128460884
v -0.06872700154781342 -0.07151500135660172 0.025713000446558
v -0.06980500370264053 -0.06690499931573868 0.026460999622941017
v -0.06861700117588043 -0.055250998586416245 0.030000999569892883
v -0.06711000204086304 -0.043150998651981354 0.03451700136065483
v -0.06559599936008453 -0.03666200116276741 0.0372919999063015
v -0.06384400278329849 -0.03208500146865845 0.039948999881744385
v -0.057930998504161835 -0.027101999148726463 0.046039000153541565
v -0.05032600089907646 -0.02077700011432171 0.05097400024533272
v -0.04872199892997742 -0.01886799931526184 0.05074600130319595
v -0.04947299882769585 -0.01918799988925457 0.04972599819302559
v -0.0575300008058548 -0.023428000509738922 0.04915999993681908
v -0.06840600073337555 -0.02806999906897545 0.045340001583099365
v -0.072393998503685 -0.026778999716043472 0.04171400144696236
v -0.07470200210809708 -0.0234839990735054 0.038947999477386475
v -0.08018600195646286 -0.016023999080061913 0.037064000964164734
v -0.08226999640464783 -0.016899000853300095 0.03582900017499924
v -0.08409799635410309 -0.01900400035083294 0.033132001757621765
v -0.08342999964952469 -0.022029999643564224 0.031686000525951385
v -0.08218199759721756 -0.023282000795006752 0.03246799856424332
v -0.07569500058889389 -0.023801999166607857 0.03735800087451935
v -0.07178899645805359 -0.027552999556064606 0.03954099863767624
v -0.07005400210618973 -0.033188000321388245 0.04005499929189682
v -0.07316800206899643 -0.05446400120854378 0.032329000532627106
v -0.07375399768352509 -0.06398899853229523 0.028666000813245773
v -0.07174400240182877 -0.0717179998755455 0.02501099929213524
v -0.07189399749040604 -0.07372099906206131 0.022478999570012093
v -0.07362599670886993 -0.07469300180673599 0.018857000395655632
v -0.07427199929952621 -0.07723599672317505 0.015185999684035778
v -0.07434699684381485 -0.07969599962234497 0.013735000044107437
v -0.07308799773454666 -0.08138199895620346 0.01317100040614605
v -0.07159599661827087 -0.08218199759721756 0.014190999791026115
v -0.06261000037193298 -0.07379200309515 0.015293999575078487
v -0.06128999963402748 -0.07292699813842773 0.018202999606728554
v -0.059133999049663544 -0.0721839964389801 0.021525999531149864
v -0.05973299965262413 -0.06994699686765671 0.02304299920797348
v -0.06055299937725067 -0.0645499974489212 0.023347999900579453
v -0.06196200102567673 -0.06004900112748146 0.024128999561071396
v -0.061788998544216156 -0.05187100172042847 0.026722000911831856
v -0.06060599908232689 -0.043125998228788376 0.0298909991979599
v -0.0599370002746582 -0.037755999714136124 0.03190099820494652
v -0.05852000042796135 -0.03452099859714508 0.03423000127077103
v -0.053530000150203705 -0.029657000675797462 0.040174998342990875
v -0.04626699909567833 -0.024553000926971436 0.04512599855661392
v -0.04449300095438957 -0.021870000287890434 0.04539300128817558
v -0.044989001005887985 -0.022306999191641808 0.044603001326322556
v -0.05169700086116791 -0.025968000292778015 0.042552001774311066
v -0.06004500016570091 -0.02994599938392639 0.03797300159931183
v -0.06395500153303146 -0.028767000883817673 0.034765999764204025
v -0.06691999733448029 -0.02468300051987171 0.03173999860882759
v -0.07154099643230438 -0.01282699964940548 0.028620999306440353
v -0.07320199906826019 -0.012346000410616398 0.02677600085735321
v -0.0743660032749176 -0.014574999921023846 0.02468300051987171
v -0.07370900362730026 -0.01739799976348877 0.025598999112844467
v -0.06956399977207184 -0.02104800008237362 0.028669999912381172
v -0.06476899981498718 -0.030083000659942627 0.031631000339984894
v -0.06369800120592117 -0.03594699874520302 0.032221000641584396
v -0.0641380026936531 -0.0520859993994236 0.02696399949491024
v -0.06456899642944336 -0.059372998774051666 0.024824000895023346
v -0.0637269988656044 -0.06486199796199799 0.022489000111818314
v -0.06354600191116333 -0.06675399839878082 0.019922999665141106
v -0.06543300300836563 -0.06794200092554092 0.015811000019311905
v -0.06582999974489212 -0.0695900022983551 0.012036999687552452
v -0.06574200093746185 -0.07115700095891953 0.011424999684095383
v -0.06416399776935577 -0.07353600114583969 0.01182899996638298
v -0.06233200058341026 -0.07433299720287323 0.012477000243961811
v -0.05999099835753441 -0.07165700197219849 0.014626000076532364
v -0.05859399959445 -0.07102800160646439 0.017604000866413116
v -0.056189000606536865 -0.07005099952220917 0.020486000925302505
v -0.05568600073456764 -0.06714499741792679 0.021981000900268555
v -0.05692699924111366 -0.062189001590013504 0.022247999906539917
v -0.05792199820280075 -0.05668500065803528 0.023075999692082405
v -0.05749399960041046 -0.05073599889874458 0.024522000923752785
v -0.05656399950385094 -0.043118998408317566 0.027118999511003494
v -0.05589300021529198 -0.038975998759269714 0.028774000704288483
v -0.05422800034284592 -0.03507800027728081 0.032017000019550323
v -0.049897998571395874 -0.03142499923706055 0.03666999936103821
v -0.044975001364946365 -0.027550000697374344 0.040497999638319016
v -0.044130999594926834 -0.025203999131917953 0.04161699861288071
v -0.044116999953985214 -0.025748999789357185 0.03992500156164169
v -0.0500589981675148 -0.027735000476241112 0.037898000329732895
v -0.055406998842954636 -0.03138099983334541 0.03436800092458725
v -0.05889999866485596 -0.030889999121427536 0.0311879999935627
v -0.061788998544216156 -0.026355000212788582 0.02858399972319603
v -0.0646739974617958 -0.010191000066697598 0.02128699980676174
v -0.06650800257921219 -0.009612999856472015 0.019967999309301376
v -0.0674239993095398 -0.010495999827980995 0.019127000123262405
v -0.06767799705266953 -0.012742999941110611 0.018533000722527504
v -0.06562700122594833 -0.01817299984395504 0.021051999181509018
v -0.063571996986866 -0.022474000230431557 0.023581000044941902
v -0.06054000183939934 -0.031638000160455704 0.027303999289870262
v -0.06040700152516365 -0.03872299939393997 0.02772900089621544
v -0.06093800067901611 -0.05073599889874458 0.025803999975323677
v -0.06077999994158745 -0.05634099990129471 0.023876000195741653
v -0.060694001615047455 -0.061831001192331314 0.021536000072956085
v -0.06101800128817558 -0.06429000198841095 0.019523000344634056
v -0.06257300078868866 -0.06603199988603592 0.01502699963748455
v -0.06390099972486496 -0.06735300272703171 0.012455999851226807
v -0.0629659965634346 -0.06891299784183502 0.01091499999165535
v -0.061129000037908554 -0.07094699889421463 0.011210000142455101
v -0.05989199876785278 -0.07276599854230881 0.011990999802947044
v -0.05737999826669693 -0.06952700018882751 0.013952000066637993
v -0.0561399981379509 -0.06900099664926529 0.016787000000476837
v -0.05383000150322914 -0.0675790011882782 0.020267000421881676
v -0.05340899899601936 -0.06445000320672989 0.021688999608159065
v -0.0541439987719059 -0.059944998472929 0.021731000393629074
v -0.05446799844503403 -0.05489199981093407 0.02215000055730343
v -0.05395200103521347 -0.049281999468803406 0.02333899959921837
v -0.053355999290943146 -0.04311300069093704 0.025273999199271202
v -0.05243600159883499 -0.03909299895167351 0.02715500071644783
v -0.050515998154878616 -0.03574199974536896 0.02927500009536743
v -0.04668699949979782 -0.03231300041079521 0.033805001527071
v -0.04410099983215332 -0.030433999374508858 0.03583800047636032
v -0.042681001126766205 -0.02875700034201145 0.03679399937391281
v -0.042504001408815384 -0.028528999537229538 0.035604000091552734
v -0.04475799947977066 -0.028730999678373337 0.03490100055932999
v -0.050599999725818634 -0.03226599842309952 0.030572999268770218
v -0.05291900038719177 -0.0317780002951622 0.027792999520897865
v -0.05538199841976166 -0.027241000905632973 0.023874999955296516
v -0.05812700092792511 -0.013895000331103802 0.01805499941110611
v -0.05908200144767761 -0.007577000185847282 0.016193000599741936
v -0.060724999755620956 -0.009882999584078789 0.010944000445306301
v -0.06026599928736687 -0.014972999691963196 0.01371499989181757
v -0.059390999376773834 -0.02084900066256523 0.016176000237464905
v -0.05885300040245056 -0.026616999879479408 0.019349999725818634
v -0.057663001120090485 -0.03419400006532669 0.02310599945485592
v -0.0570250004529953 -0.040282998234033585 0.02433199994266033
v -0.0568000003695488 -0.04904500022530556 0.023798000067472458
v -0.05773499980568886 -0.05454200133681297 0.02257700078189373
v -0.05723800137639046 -0.05958300083875656 0.02027899958193302
v -0.05789000168442726 -0.06147700175642967 0.01864200085401535
v -0.05987900123000145 -0.06356699764728546 0.01444500032812357
v -0.05976499989628792 -0.06431400030851364 0.01114100031554699
v -0.06035400182008743 -0.06678300350904465 0.010240999981760979
v -0.058688998222351074 -0.06937900185585022 0.010723999701440334
v -0.05752699822187424 -0.0710740014910698 0.011088999919593334
v -0.04583999887108803 -0.06268200278282166 0.010904000140726566
v -0.044854000210762024 -0.061583999544382095 0.013175999745726585
v -0.04311300069093704 -0.059491999447345734 0.016811000183224678
v -0.04135899990797043 -0.05692800134420395 0.018425999209284782
v -0.04093899950385094 -0.05389900133013725 0.01951099932193756
v -0.04026800021529198 -0.050537001341581345 0.02049200050532818
v -0.03850200027227402 -0.04572499915957451 0.022130999714136124
v -0.03758300095796585 -0.04236999899148941 0.023660000413656235
v -0.035659998655319214 -0.0403669998049736 0.02508999966084957
v -0.034331999719142914 -0.03792700171470642 0.027682999148964882
v -0.03167299926280975 -0.03516300022602081 0.0314750000834465
v -0.02502799965441227 -0.030439000576734543 0.04028100147843361
v -0.030383000150322914 -0.02460400015115738 0.03238299861550331
v -0.032715000212192535 -0.026823999360203743 0.029896000400185585
v -0.03587900102138519 -0.02913700044155121 0.02632799930870533
v -0.03921400010585785 -0.03189700096845627 0.023271000012755394
v -0.04245299845933914 -0.03152399882674217 0.020322000607848167
v -0.04451199993491173 -0.029016999527812004 0.017430000007152557
v -0.04538499936461449 -0.02514900080859661 0.013938999734818935
v -0.0444209985435009 -0.02343600057065487 0.010408000089228153
v -0.046247001737356186 -0.02430500090122223 0.008054999634623528
v -0.04769099876284599 -0.026448000222444534 0.009109999984502792
v -0.04848400130867958 -0.02961600013077259 0.011435000225901604
v -0.047022998332977295 -0.034598998725414276 0.015104999765753746
v -0.04704900085926056 -0.03708399832248688 0.01609800010919571
v -0.04605599865317345 -0.041032999753952026 0.01662999950349331
v -0.046831000596284866 -0.04440400004386902 0.01658499985933304
v -0.04750699922442436 -0.04754599928855896 0.016284000128507614
v -0.04742500185966492 -0.049897998571395874 0.014991000294685364
v -0.04749999940395355 -0.052921000868082047 0.013538000173866749
v -0.049430001527071 -0.056262001395225525 0.011421999894082546
v -0.05067100003361702 -0.05904100090265274 0.008572000078856945
v -0.05041100084781647 -0.06262899935245514 0.0067369998432695866
v -0.04958900064229965 -0.06488800048828125 0.007472999859601259
v -0.04809299856424332 -0.06635800004005432 0.008158000186085701
v -0.055358998477458954 -0.06784699857234955 0.013434000313282013
v -0.05369900166988373 -0.06697899848222733 0.015969999134540558
v -0.050624001771211624 -0.06477800011634827 0.02013999968767166
v -0.05088299885392189 -0.0625389963388443 0.02128399908542633
v -0.05119499936699867 -0.05770000070333481 0.02102999947965145
v -0.050595998764038086 -0.05320600047707558 0.02126999944448471
v -0.04958299919962883 -0.04860600084066391 0.022221999242901802
v -0.04865099862217903 -0.04289799928665161 0.024125000461935997
v -0.047557998448610306 -0.03953799977898598 0.025476999580860138
v -0.04548199847340584 -0.03653800114989281 0.028070999309420586
v -0.042148999869823456 -0.03298399969935417 0.03181400150060654
v -0.04106900095939636 -0.031206000596284866 0.03349300101399422
v -0.03939399868249893 -0.02964800037443638 0.03468099981546402
v -0.04029899835586548 -0.029068000614643097 0.03317699953913689
v -0.040957000106573105 -0.029944999143481255 0.03121899999678135
v -0.04578699916601181 -0.03248099982738495 0.027134999632835388
v -0.048608001321554184 -0.0316540002822876 0.02423500083386898
v -0.050328999757766724 -0.028015000745654106 0.02098800055682659
v -0.05249899998307228 -0.016707999631762505 0.01601400040090084
v -0.05236399918794632 -0.010052000172436237 0.013124999590218067
v -0.05383700132369995 -0.016611000522971153 0.006637000013142824
v -0.05479799956083298 -0.020796999335289 0.009472999721765518
v -0.05593400076031685 -0.024877000600099564 0.01283199992030859
v -0.05624900013208389 -0.030654000118374825 0.01692900061607361
v -0.054799001663923264 -0.03676600009202957 0.02059599943459034
v -0.05449900031089783 -0.041620999574661255 0.022539999336004257
v -0.05418799817562103 -0.04825900122523308 0.022447999566793442
v -0.05393899977207184 -0.052292000502347946 0.020948000252246857
v -0.054361000657081604 -0.0566600002348423 0.019169000908732414
v -0.05443499982357025 -0.05866599828004837 0.01738799922168255
v -0.05683999881148338 -0.06108900159597397 0.013478999957442284
v -0.057402998208999634 -0.06319800019264221 0.010234000161290169
v -0.05689600110054016 -0.06565800309181213 0.00897900015115738
v -0.056411001831293106 -0.06803199648857117 0.00974200014024973
v -0.054412998259067535 -0.06928300112485886 0.01053600013256073
v -0.051812998950481415 -0.0653659999370575 0.011912000365555286
v -0.05032699927687645 -0.06449999660253525 0.014639000408351421
v -0.047676000744104385 -0.06275200098752975 0.01876699924468994
v -0.04666600003838539 -0.05906200036406517 0.02037999965250492
v -0.046820998191833496 -0.055796001106500626 0.020260000601410866
v -0.046386998146772385 -0.05186599865555763 0.020679999142885208
v -0.04537799954414368 -0.04649300128221512 0.02231699973344803
v -0.04437299817800522 -0.04234800115227699 0.02360600046813488
v -0.0433650016784668 -0.03977299854159355 0.025211000815033913
v -0.040867000818252563 -0.036890000104904175 0.02785399928689003
v -0.03770200163125992 -0.03412200137972832 0.031091999262571335
v -0.03188899904489517 -0.028932999819517136 0.0388059988617897
v -0.0337660014629364 -0.02674799971282482 0.03472499921917915
v -0.03567200154066086 -0.027956999838352203 0.03229700028896332
v -0.03850699961185455 -0.029833000153303146 0.029702000319957733
v -0.04259100183844566 -0.03235900029540062 0.025628000497817993
v -0.04541400074958801 -0.03198599815368652 0.023057999089360237
v -0.047460999339818954 -0.028012000024318695 0.019517000764608383
v -0.04864500090479851 -0.01963699981570244 0.014752999879419804
v -0.0474339984357357 -0.016015000641345978 0.012477000243961811
v -0.05049299821257591 -0.021338000893592834 0.005570000037550926
v -0.05169900134205818 -0.023830000311136246 0.00785799976438284
v -0.05215299874544144 -0.02745099924504757 0.01013999991118908
v -0.05272800102829933 -0.03368400037288666 0.015698999166488647
v -0.05243099853396416 -0.03674900159239769 0.01799900084733963
v -0.05196800082921982 -0.041496001183986664 0.020092999562621117
v -0.0509909987449646 -0.04702100157737732 0.020948000252246857
v -0.05107399821281433 -0.05060100182890892 0.01948400028049946
v -0.051148999482393265 -0.05306199938058853 0.01803399994969368
v -0.051895998418331146 -0.05585400015115738 0.01631700061261654
v -0.05337600037455559 -0.0582830011844635 0.01223399955779314
v -0.05445700138807297 -0.0608460009098053 0.00986700039356947
v -0.05420299991965294 -0.06375099718570709 0.008377999998629093
v -0.05330200120806694 -0.06690599769353867 0.008844999596476555
v -0.05255400016903877 -0.06792200356721878 0.009185999631881714
v -0.04112600162625313 -0.06011100113391876 0.010111999697983265
v -0.03997800126671791 -0.059457000344991684 0.012528999708592892
v -0.038488999009132385 -0.057916998863220215 0.015596999786794186
v -0.037918999791145325 -0.056255001574754715 0.017493000254034996
v -0.036660999059677124 -0.05334800109267235 0.01899299956858158
v -0.0358240008354187 -0.050220999866724014 0.020793000236153603
v -0.033980999141931534 -0.04574200138449669 0.022166000679135323
v -0.03254999965429306 -0.04273099824786186 0.02382499910891056
v -0.031213000416755676 -0.040720000863075256 0.02505600079894066
v -0.02947000041604042 -0.03850499913096428 0.027341000735759735
v -0.026889000087976456 -0.03562600165605545 0.03072899952530861
v -0.023145999759435654 -0.03320100158452988 0.034839000552892685
v -0.02615400031208992 -0.022556999698281288 0.028762999922037125
v -0.02956799976527691 -0.024539999663829803 0.025638999417424202
v -0.033319998532533646 -0.027754999697208405 0.022533999755978584
v -0.035989001393318176 -0.030647000297904015 0.020083999261260033
v -0.03899199888110161 -0.03139600157737732 0.01768999919295311
v -0.04081200063228607 -0.03058299981057644 0.015352999791502953
v -0.04237300157546997 -0.02875800058245659 0.013259000144898891
v -0.042601000517606735 -0.02828500047326088 0.01066999975591898
v -0.04410199820995331 -0.02905699983239174 0.009979999624192715
v -0.044721998274326324 -0.03222300112247467 0.01211399957537651
v -0.044089000672101974 -0.035277001559734344 0.014038000255823135
v -0.04359700158238411 -0.03764599934220314 0.014806999824941158
v -0.04368700087070465 -0.03977999836206436 0.014375999569892883
v -0.043696001172065735 -0.04213700070977211 0.014018000103533268
v -0.04395100101828575 -0.04438399896025658 0.013423999771475792
v -0.04436999931931496 -0.04617200046777725 0.012695999816060066
v -0.04453499987721443 -0.048969000577926636 0.01116199977695942
v -0.044950999319553375 -0.0516510009765625 0.009411999955773354
v -0.04627100005745888 -0.05454999953508377 0.007158999796956778
v -0.04543900117278099 -0.05891399830579758 0.00483699981123209
v -0.04418899863958359 -0.062174998223781586 0.0045889997854828835
v -0.04236600175499916 -0.0638820007443428 0.005905000027269125
v -0.036083001643419266 -0.05943100154399872 0.00825599953532219
v -0.034846000373363495 -0.05879800021648407 0.01142400037497282
v -0.03344700112938881 -0.05759299919009209 0.014406999573111534
v -0.03194800019264221 -0.05592299997806549 0.01613200083374977
v -0.030703000724315643 -0.05280200019478798 0.01830499991774559
v -0.029357999563217163 -0.049671001732349396 0.01954999938607216
v -0.027670999988913536 -0.04474800080060959 0.020771000534296036
v -0.02733900025486946 -0.04261599853634834 0.021770000457763672
v -0.025738000869750977 -0.03981399908661842 0.022563999518752098
v -0.023567000404000282 -0.03793499991297722 0.02421800047159195
v -0.020733000710606575 -0.035041000694036484 0.026484999805688858
v -0.01905599981546402 -0.03302700072526932 0.02734299935400486
v -0.01998800039291382 -0.022199999541044235 0.02384299971163273
v -0.02591099962592125 -0.02338300086557865 0.02080800011754036
v -0.031011000275611877 -0.024687999859452248 0.018201999366283417
v -0.03334299847483635 -0.02858700044453144 0.015704000368714333
v -0.03484800085425377 -0.0302559994161129 0.01398599985986948
v -0.03617800027132034 -0.030681999400258064 0.01243599969893694
v -0.03734099864959717 -0.030889000743627548 0.011374999769032001
v -0.03850099816918373 -0.030541999265551567 0.010320000350475311
v -0.04043399915099144 -0.03210600093007088 0.010250000283122063
v -0.04027999937534332 -0.03402699902653694 0.0110470000654459
v -0.039948999881744385 -0.035496000200510025 0.011339999735355377
v -0.04013200104236603 -0.03707300126552582 0.011846999637782574
v -0.039723001420497894 -0.03887699916958809 0.011873000301420689
v -0.03963499888777733 -0.040442999452352524 0.01126100029796362
v -0.040144000202417374 -0.04200499877333641 0.010451000183820724
v -0.040477000176906586 -0.044137001037597656 0.009452000260353088
v -0.041053999215364456 -0.04603400081396103 0.008565999567508698
v -0.04230999946594238 -0.048486001789569855 0.0067349998280406
v -0.04279800131917 -0.051718998700380325 0.004220999777317047
v -0.04205400124192238 -0.0555340014398098 0.0028389999642968178
v -0.03989399969577789 -0.05892900004982948 0.003768000053241849
v -0.03765900060534477 -0.06052999943494797 0.005795000120997429
v -0.031615000218153 -0.05819199979305267 0.006215999834239483
v -0.028385000303387642 -0.05925599858164787 0.01050500012934208
v -0.025983000174164772 -0.05839100107550621 0.013047999702394009
v -0.024815000593662262 -0.056171998381614685 0.015143999829888344
v -0.023067999631166458 -0.05282700061798096 0.01744000054895878
v -0.022390000522136688 -0.04946500062942505 0.018414000049233437
v -0.021963000297546387 -0.044753000140190125 0.019516000524163246
v -0.021782999858260155 -0.04228400066494942 0.020029999315738678
v -0.021020999178290367 -0.0395830012857914 0.019725000485777855
v -0.01976500079035759 -0.037349000573158264 0.020881999284029007
v -0.017582999542355537 -0.033886998891830444 0.022211000323295593
v -0.01622699946165085 -0.03073900006711483 0.021764999255537987
v -0.01627800054848194 -0.02420400083065033 0.020407000556588173
v -0.02303200028836727 -0.02358200028538704 0.016975000500679016
v -0.02870899997651577 -0.024776000529527664 0.014511999674141407
v -0.03247600048780441 -0.02822599932551384 0.012423999607563019
v -0.03338700160384178 -0.02932799980044365 0.010904000140726566
v -0.03397500142455101 -0.029992999508976936 0.010363000445067883
v -0.035055000334978104 -0.030886000022292137 0.009708000347018242
v -0.035300999879837036 -0.03109399974346161 0.008464000187814236
v -0.037571001797914505 -0.03266900032758713 0.00877000018954277
v -0.03765000030398369 -0.033674001693725586 0.008342999964952469
v -0.03757400065660477 -0.03502599895000458 0.00840499997138977
v -0.03783600032329559 -0.035923998802900314 0.00850799959152937
v -0.03775399923324585 -0.036708999425172806 0.008577999658882618
v -0.03750700131058693 -0.03817100077867508 0.00810999982059002
v -0.03800800070166588 -0.0397379994392395 0.007309999782592058
v -0.03824499994516373 -0.04106999933719635 0.006053000222891569
v -0.03874700143933296 -0.0428600013256073 0.004567000083625317
v -0.03916599974036217 -0.04464900121092796 0.003837999887764454
v -0.039487000554800034 -0.04788000136613846 0.0011419999646022916
v -0.0384880006313324 -0.05247899889945984 -0.00036100001307204366
v -0.035590000450611115 -0.05645599961280823 0.0022539999336004257
v -0.0330980010330677 -0.05772000178694725 0.004182999953627586
v -0.027915000915527344 -0.058977000415325165 0.004813999868929386
v -0.024423999711871147 -0.05936000123620033 0.008326999843120575
v -0.021855000406503677 -0.05761000141501427 0.011711000464856625
v -0.02010500058531761 -0.05605499818921089 0.013651000335812569
v -0.018355000764131546 -0.052156999707221985 0.015953000634908676
v -0.01793299987912178 -0.04890799894928932 0.01771100051701069
v -0.017165999859571457 -0.04419400170445442 0.01844000071287155
v -0.017743999138474464 -0.04138299822807312 0.018278999254107475
v -0.017906999215483665 -0.03969300165772438 0.018476000055670738
v -0.016731999814510345 -0.03678299859166145 0.019231000915169716
v -0.014535999856889248 -0.032517001032829285 0.01955699920654297
v -0.013934999704360962 -0.029934000223875046 0.0191040001809597
v -0.014166999608278275 -0.028005000203847885 0.017537999898195267
v -0.019985999912023544 -0.025916999205946922 0.013264999724924564
v -0.023982999846339226 -0.02609900012612343 0.01030499953776598
v -0.027226999402046204 -0.027408000081777573 0.007340000011026859
v -0.028819000348448753 -0.027952000498771667 0.006568999961018562
v -0.030491000041365623 -0.029399000108242035 0.00571999978274107
v -0.03141000121831894 -0.030959999188780785 0.004523999989032745
v -0.033757999539375305 -0.03252299875020981 0.004075000062584877
v -0.03408899903297424 -0.033413998782634735 0.00343300006352365
v -0.0345040000975132 -0.034077998250722885 0.0027030000928789377
v -0.03442100062966347 -0.03452799841761589 0.002104999963194132
v -0.0351720005273819 -0.03586500138044357 0.0014120000414550304
v -0.03532499819993973 -0.037429001182317734 0.00023200000578071922
v -0.035666000097990036 -0.03831600025296211 -0.0004199999966658652
v -0.03600100055336952 -0.0403360016644001 -0.0010730000212788582
v -0.0355909988284111 -0.04661700129508972 -0.00278700003400445
v -0.034689001739025116 -0.050335001200437546 -0.0023240000009536743
v -0.031964000314474106 -0.054979000240564346 0.00013000000035390258
v -0.029236000031232834 -0.057833001017570496 0.002933999989181757
v -0.02521499991416931 -0.057746998965740204 0.0038799999747425318
v -0.02240299992263317 -0.05846700072288513 0.007120999973267317
v -0.02041799947619438 -0.057149000465869904 0.010639999993145466
v -0.019253000617027283 -0.05560300126671791 0.012393999844789505
v -0.017596999183297157 -0.05226299911737442 0.015626000240445137
v -0.017004000023007393 -0.04879099875688553 0.01618799939751625
v -0.01613900065422058 -0.043285999447107315 0.016662999987602234
v -0.01655600033700466 -0.04092000052332878 0.016645999625325203
v -0.016774000599980354 -0.03872799873352051 0.016540000215172768
v -0.015615000389516354 -0.036205001175403595 0.017185000702738762
v -0.014089000411331654 -0.03238200023770332 0.016899000853300095
v -0.014158999547362328 -0.02934899926185608 0.016853999346494675
v -0.019394999369978905 -0.026806000620126724 0.01244600024074316
v -0.023057999089360237 -0.026990000158548355 0.009107000194489956
v -0.026801999658346176 -0.02806599996984005 0.005688000004738569
v -0.029311999678611755 -0.029117999598383904 0.004230000078678131
v -0.03009999915957451 -0.029337000101804733 0.0035840000491589308
v -0.0312809981405735 -0.030257999897003174 0.0026360000483691692
v -0.031160999089479446 -0.031165000051259995 0.0031610000878572464
v -0.03214799985289574 -0.03217700123786926 0.002491000108420849
v -0.03290500119328499 -0.03407999873161316 0.0017890000017359853
v -0.03348299860954285 -0.03485200181603432 0.0009079999872483313
v -0.03365100175142288 -0.03563600033521652 0.00041599999531172216
v -0.034074001014232635 -0.036754000931978226 0.000024000000848900527
v -0.034154001623392105 -0.03797899931669235 -0.001075000036507845
v -0.0343950018286705 -0.04100299999117851 -0.0023449999280273914
v -0.03449999913573265 -0.046059999614953995 -0.0031419999431818724
v -0.033590998500585556 -0.04977799952030182 -0.0026859999634325504
v -0.02951500006020069 -0.05351899936795235 -0.0006960000027902424
v -0.027538999915122986 -0.05602699890732765 0.0014380000066012144
v -0.09288500249385834 -0.030301999300718307 0.05856600031256676
v -0.0723709985613823 -0.01258699968457222 0.027698999270796776
v -0.041746001690626144 -0.06199700012803078 0.00800899975001812
v -0.10133100301027298 -0.029743000864982605 0.07401199638843536
v -0.1034569963812828 -0.13945700228214264 0.0582830011844635
v -0.10448899865150452 -0.0622589997947216 0.07092899829149246
v -0.10297200083732605 -0.133091002702713 0.06267700344324112
v -0.043299999088048935 -0.020150000229477882 0.008047999814152718
v -0.04539500176906586 -0.013756999745965004 0.010263999924063683
v -0.05007699877023697 -0.00891099963337183 0.011466000229120255
v -0.0565360002219677 -0.006095999851822853 0.012749999761581421
v -0.05886000022292137 -0.008741999976336956 0.008914000354707241
v -0.05322699993848801 -0.015018999576568604 0.004819999914616346
v -0.04938799887895584 -0.020545000210404396 0.004197999835014343
v -0.04639400169253349 -0.022151999175548553 0.0062339999713003635
v -0.04022800177335739 -0.01596199907362461 0.0037350000347942114
v -0.040316998958587646 -0.011381999589502811 0.006736000068485737
v -0.04400499910116196 -0.005987000185996294 0.008511999621987343
v -0.04567300155758858 -0.004858000203967094 0.008701000362634659
v -0.05139800161123276 -0.007569999899715185 0.0007469999836757779
v -0.050655998289585114 -0.01105399988591671 0.00038300000596791506
v -0.04604800045490265 -0.017123999074101448 -0.0019239999819546938
v -0.04397900030016899 -0.018060000613331795 0.0006370000191964209
v -0.03388400003314018 -0.012675999663770199 -0.0010179999517276883
v -0.032572999596595764 -0.00823500007390976 0.004290999844670296
v -0.03366199880838394 -0.003971999976783991 0.005708999931812286
v -0.03515499830245972 -0.0026100000832229853 0.00469199987128377
v -0.044266000390052795 -0.008960000239312649 -0.009774000383913517
v -0.044690001755952835 -0.011195000261068344 -0.010173999704420567
v -0.040130000561475754 -0.016644999384880066 -0.007069999817758799
v -0.03789199888706207 -0.01510700024664402 -0.004002999980002642
v -0.030263999477028847 -0.01133699994534254 -0.0017960000550374389
v -0.028284000232815742 -0.007236999925225973 0.0034370000939816236
v -0.028620999306440353 -0.0033160001039505005 0.005537999793887138
v -0.030105000361800194 -0.0018269999418407679 0.0031769999768584967
v -0.04154200106859207 -0.008813000284135342 -0.014094999991357327
v -0.04138299822807312 -0.012296999804675579 -0.014654000289738178
v -0.037411998957395554 -0.014832000248134136 -0.0096859997138381
v -0.03476100042462349 -0.013186999596655369 -0.005905999802052975
v -0.02622699923813343 -0.010890999808907509 -0.003217000048607588
v -0.02208700031042099 -0.006254999898374081 0.0046709999442100525
v -0.0220979992300272 -0.003352999920025468 0.00672800000756979
v -0.022482000291347504 -0.00006900000153109431 0.004348999820649624
v -0.037151999771595 -0.007563000079244375 -0.01689000055193901
v -0.03658900037407875 -0.011850000359117985 -0.016069000586867332
v -0.03226400166749954 -0.011227999813854694 -0.012122999876737595
v -0.02928899973630905 -0.010722000151872635 -0.007025000173598528
v -0.019164999946951866 -0.010104999877512455 -0.005282000172883272
v -0.010041999630630016 -0.004871999844908714 0.007499000057578087
v -0.009119999594986439 -0.0008379999781027436 0.00938200019299984
v -0.011513999663293362 0.0014509999891743064 0.0061969999223947525
v -0.031610000878572464 -0.005667999852448702 -0.01726599968969822
v -0.03354800119996071 -0.008814999833703041 -0.01701599918305874
v -0.03064499981701374 -0.009410000406205654 -0.014374000020325184
v -0.025489000603556633 -0.009926999919116497 -0.009677999652922153
v -0.01696000061929226 -0.007513999938964844 -0.006659000180661678
v -0.0014939999673515558 -0.003785999957472086 0.008143999613821507
v -0.0028909998945891857 -0.0005050000036135316 0.006891000084578991
v -0.0063669998198747635 0.002015999983996153 0.0030559999868273735
v -0.029681000858545303 -0.005898000206798315 -0.01755799911916256
v -0.0283610001206398 -0.007495999801903963 -0.015348000451922417
v -0.02177800051867962 -0.008231000043451786 -0.012071000412106514
v -0.008973999880254269 -0.005288000218570232 -0.007872000336647034
v 0.0017740000039339066 -0.00381799996830523 -0.0007859999896027148
v 0.00002300000051036477 0.000007000000096013537 0.000025999999706982635
v -0.0054779998026788235 0.000838999985717237 -0.003281000070273876
v -0.0193060003221035 -0.0031580000650137663 -0.013872000388801098
v -0.020225999876856804 -0.005169000010937452 -0.014724000357091427
v -0.01791200041770935 -0.007567000109702349 -0.012629999779164791
v -0.0014440000522881746 -0.004772000014781952 -0.0061090001836419106
v -0.0008449999731965363 -0.002741999924182892 -0.006568000186234713
v -0.014023999683558941 -0.0027280000504106283 -0.014158999547362328
v -0.014715000055730343 -0.006560999900102615 -0.013113000430166721
v -0.029966000467538834 -0.02569499984383583 0.04058000072836876
v -0.020410999655723572 -0.028537999838590622 0.0400799997150898
v -0.017875999212265015 -0.03233199939131737 0.03591100126504898
v -0.01672299951314926 -0.0313740000128746 0.02981399931013584
v -0.013651999644935131 -0.026623999699950218 0.025505000725388527
v -0.014883000403642654 -0.024359000846743584 0.024396000429987907
v -0.01782899908721447 -0.0216669999063015 0.02648399956524372
v -0.02406900003552437 -0.020901000127196312 0.03067299909889698
v -0.02804899960756302 -0.021932000294327736 0.0345270000398159
v -0.031103000044822693 -0.024197999387979507 0.03785200044512749
v -0.02785700000822544 -0.020987000316381454 0.041512999683618546
v -0.01664000004529953 -0.026088999584317207 0.040814001113176346
v -0.013186000287532806 -0.03269200026988983 0.03643200173974037
v -0.012644000351428986 -0.03164299950003624 0.03217799961566925
v -0.010909000411629677 -0.02733599953353405 0.02800000086426735
v -0.01053799968212843 -0.0234839990735054 0.02564300037920475
v -0.012300999835133553 -0.021025000140070915 0.027452999725937843
v -0.019195999950170517 -0.018442999571561813 0.03104499913752079
v -0.025954000651836395 -0.017464999109506607 0.03646399825811386
v -0.030006999149918556 -0.019267000257968903 0.03888100013136864
v -0.019718000665307045 -0.02011599950492382 0.041113998740911484
v -0.011614000424742699 -0.027569999918341637 0.0409649983048439
v -0.008329999633133411 -0.03383199870586395 0.0360959991812706
v -0.008553000167012215 -0.03380899876356125 0.03384299948811531
v -0.006386999972164631 -0.027130000293254852 0.028720000758767128
v -0.0061889998614788055 -0.025645000860095024 0.026189999654889107
v -0.00786800030618906 -0.021056000143289566 0.028426000848412514
v -0.01408000010997057 -0.016894999891519547 0.03096199966967106
v -0.020163999870419502 -0.016589000821113586 0.03697900101542473
v -0.02111699990928173 -0.01807600073516369 0.03950300067663193
v -0.009422999806702137 -0.025098999962210655 0.04092799872159958
v -0.005913999862968922 -0.03049900010228157 0.03933599963784218
v -0.005226000212132931 -0.03485200181603432 0.03551600128412247
v -0.0057069999165833 -0.034598998725414276 0.0333780013024807
v -0.003541999962180853 -0.02837499976158142 0.028584999963641167
v -0.002096999902278185 -0.027580000460147858 0.026839999482035637
v -0.0036069999914616346 -0.023096999153494835 0.028558999300003052
v -0.008906999602913857 -0.02007799968123436 0.03258899971842766
v -0.011610999703407288 -0.01840599998831749 0.035572998225688934
v -0.012570000253617764 -0.019673999398946762 0.038777001202106476
v -0.005638000089675188 -0.026441000401973724 0.03859600052237511
v -0.0034729999024420977 -0.031957998871803284 0.03814899921417236
v -0.002951999893411994 -0.03631199896335602 0.034511998295784
v -0.003438000101596117 -0.03560899943113327 0.03203799948096275
v -0.0018690000288188457 -0.03130299970507622 0.028043000027537346
v 0.0004299999854993075 -0.028814999386668205 0.025397999212145805
v 0.001003999961540103 -0.02524299919605255 0.027979999780654907
v -0.002957999939098954 -0.023009000346064568 0.031523000448942184
v -0.006163999903947115 -0.02269200049340725 0.03438900038599968
v -0.006953999865800142 -0.02416899986565113 0.036727000027894974
v 0.003914000000804663 -0.03140899911522865 0.03671500086784363
v 0.005237000063061714 -0.036364998668432236 0.037206001579761505
v 0.00367900007404387 -0.03946499899029732 0.03202899917960167
v 0.0025289999321103096 -0.03863900154829025 0.028951000422239304
v 0.0025770000647753477 -0.03614199906587601 0.026277000084519386
v 0.004798999987542629 -0.03138799965381622 0.02289400063455105
v 0.005547000095248222 -0.027712000533938408 0.025635000318288803
v 0.005185000132769346 -0.02684199996292591 0.02871299907565117
v 0.00457100011408329 -0.02697799913585186 0.031553998589515686
v 0.004449000116437674 -0.0290290005505085 0.03483299911022186
v 0.008679999969899654 -0.035137999802827835 0.03627900034189224
v 0.008340000174939632 -0.04006800055503845 0.03525499999523163
v 0.00595200015231967 -0.040362998843193054 0.03102800063788891
v 0.0050559998489916325 -0.040109001100063324 0.02851100079715252
v 0.0048940000124275684 -0.039531998336315155 0.027014000341296196
v 0.007972000166773796 -0.032979000359773636 0.02305700071156025
v 0.009053000248968601 -0.031201999634504318 0.02473600022494793
v 0.009953999891877174 -0.030889000743627548 0.027261000126600266
v 0.010695000179111958 -0.030917000025510788 0.028953000903129578
v 0.009909000247716904 -0.03228199854493141 0.031631000339984894
v 0.012153999879956245 -0.03713599964976311 0.032280001789331436
v 0.01038500014692545 -0.04049300029873848 0.03166399896144867
v 0.008647000417113304 -0.0412449985742569 0.02872299961745739
v 0.008751999586820602 -0.04100500047206879 0.026770999655127525
v 0.00901500042527914 -0.04043300077319145 0.02566099911928177
v 0.011134999804198742 -0.03761100023984909 0.024209000170230865
v 0.012048999778926373 -0.03662100061774254 0.02538299933075905
v 0.012378999963402748 -0.03494400158524513 0.026713000610470772
v 0.012366999872028828 -0.034960001707077026 0.02840300090610981
v 0.012175999581813812 -0.03554400056600571 0.030274000018835068
v 0.011101000010967255 -0.040786001831293106 0.026542000472545624
v 0.012024999596178532 -0.039448998868465424 0.027045000344514847
v 0.012094000354409218 -0.03968700021505356 0.02880699932575226
v 0.010824000462889671 -0.04081200063228607 0.029343999922275543
f 101 102 35
f 100 101 34
f 99 100 33
f 98 99 32
f 97 98 31
f 96 97 30
f 95 96 29
f 94 95 28
f 93 94 27
f 92 93 26
f 91 92 25
f 90 91 24
f 89 90 23
f 88 89 22
f 87 88 21
f 86 87 20
f 85 86 19
f 84 85 18
f 83 84 17
f 82 83 16
f 81 82 15
f 80 81 14
f 79 80 13
f 78 79 12
f 77 78 11
f 76 77 10
f 75 76 9
f 74 75 8
f 73 74 7
f 72 73 6
f 71 72 5
f 70 71 4
f 69 70 3
f 68 69 2
f 102 68 1
f 135 136 102
f 134 135 101
f 133 134 100
f 132 133 99
f 131 132 98
f 130 131 97
f 129 130 96
f 128 129 95
f 127 128 94
f 126 127 93
f 125 126 92
f 614 125 91
f 124 614 90
f 123 124 89
f 122 123 88
f 121 122 87
f 120 121 86
f 119 120 85
f 118 119 84
f 117 118 83
f 116 117 82
f 115 116 81
f 114 115 80
f 113 114 79
f 112 113 78
f 111 112 77
f 110 111 76
f 109 110 75
f 108 109 74
f 107 108 73
f 106 107 72
f 105 106 71
f 104 105 70
f 103 104 69
f 136 103 68
f 170 171 136
f 169 170 135
f 168 169 134
f 167 168 133
f 166 167 132
f 165 166 131
f 164 165 130
f 163 164 129
f 162 163 128
f 161 162 127
f 160 161 126
f 159 160 125
f 158 159 614
f 157 158 124
f 156 157 123
f 155 156 122
f 154 155 121
f 153 154 120
f 152 153 119
f 151 152 118
f 150 151 117
f 149 150 116
f 148 149 115
f 147 148 114
f 146 147 113
f 145 146 112
f 144 145 111
f 143 144 110
f 142 143 109
f 141 142 108
f 140 141 107
f 139 140 106
f 138 139 105
f 137 138 104
f 171 137 103
f 205 206 171
f 204 205 170
f 203 204 169
f 202 203 168
f 201 202 167
f 200 201 166
f 199 200 165
f 198 199 164
f 197 198 163
f 196 197 162
f 195 196 161
f 194 195 160
f 193 194 159
f 192 193 158
f 191 192 157
f 190 191 156
f 189 190 155
f 188 189 154
f 187 188 153
f 186 187 152
f 185 186 151
f 184 185 150
f 183 184 149
f 182 183 148
f 181 182 147
f 180 181 146
f 179 180 145
f 178 179 144
f 177 178 143
f 176 177 142
f 175 176 141
f 174 175 140
f 173 174 139
f 172 173 138
f 206 172 137
f 240 241 206
f 239 240 205
f 238 239 204
f 237 238 203
f 236 237 202
f 235 236 201
f 234 235 200
f 233 234 199
f 232 233 198
f 231 232 197
f 230 231 196
f 229 230 195
f 228 229 194
f 227 228 193
f 226 227 192
f 225 226 191
f 224 225 190
f 223 224 189
f 222 223 188
f 221 222 187
f 220 221 186
f 219 220 185
f 218 219 184
f 217 218 183
f 216 217 182
f 215 216 181
f 214 215 180
f 213 214 179
f 212 213 178
f 211 212 177
f 210 211 176
f 209 210 175
f 208 209 174
f 207 208 173
f 241 207 172
f 274 275 241
f 273 274 240
f 272 273 239
f 271 272 238
f 270 271 237
f 269 270 236
f 268 269 235
f 267 268 234
f 266 267 233
f 265 266 232
f 264 265 231
f 263 264 230
f 262 263 229
f 261 262 228
f 615 261 227
f 260 615 226
f 259 260 225
f 258 259 224
f 257 258 223
f 256 257 222
f 255 256 221
f 254 255 220
f 253 254 219
f 252 253 218
f 251 252 217
f 250 251 216
f 249 250 215
f 248 249 214
f 247 248 213
f 246 247 212
f 245 246 211
f 244 245 210
f 243 244 209
f 242 243 208
f 275 242 207
f 309 310 275
f 308 309 274
f 307 308 273
f 306 307 272
f 305 306 271
f 304 305 270
f 303 304 269
f 302 303 268
f 301 302 267
f 300 301 266
f 299 300 265
f 298 299 264
f 297 298 263
f 296 297 262
f 295 296 261
f 294 295 615
f 293 294 260
f 292 293 259
f 291 292 258
f 290 291 257
f 289 290 256
f 288 289 255
f 287 288 254
f 286 287 253
f 285 286 252
f 284 285 251
f 283 284 250
f 282 283 249
f 281 282 248
f 280 281 247
f 279 280 246
f 278 279 245
f 277 278 244
f 276 277 243
f 310 276 242
f 344 345 310
f 343 344 309
f 342 343 308
f 341 342 307
f 340 341 306
f 339 340 305
f 338 339 304
f 337 338 303
f 336 337 302
f 335 336 301
f 334 335 300
f 333 334 299
f 332 333 298
f 331 332 297
f 330 331 296
f 329 330 295
f 328 329 294
f 327 328 293
f 326 327 292
f 325 326 291
f 324 325 290
f 323 324 289
f 322 323 288
f 321 322 287
f 320 321 286
f 319 320 285
f 318 319 284
f 317 318 283
f 316 317 282
f 315 316 281
f 314 315 280
f 313 314 279
f 312 313 278
f 311 312 277
f 345 311 276
f 345 344 414
f 344 343 413
f 343 342 412
f 342 341 411
f 341 340 410
f 340 339 409
f 339 338 408
f 338 337 407
f 337 336 406
f 336 335 405
f 335 334 404
f 334 333 403
f 333 332 402
f 332 331 401
f 330 329 399
f 329 328 398
f 328 327 397
f 327 326 396
f 326 325 395
f 325 324 394
f 324 323 393
f 323 322 392
f 322 321 391
f 321 320 390
f 320 319 389
f 319 318 388
f 318 317 387
f 317 316 386
f 316 315 385
f 315 314 384
f 314 313 383
f 313 312 382
f 312 311 381
f 311 345 415
f 449 450 415
f 448 449 414
f 447 448 413
f 446 447 412
f 445 446 411
f 444 445 410
f 443 444 409
f 442 443 408
f 441 442 407
f 440 441 406
f 439 440 405
f 438 439 404
f 437 438 403
f 436 437 402
f 434 435 400
f 433 434 399
f 432 433 398
f 431 432 397
f 430 431 396
f 429 430 395
f 428 429 394
f 427 428 393
f 426 427 392
f 425 426 391
f 424 425 390
f 423 424 389
f 422 423 388
f 421 422 387
f 420 421 386
f 419 420 385
f 418 419 384
f 417 418 383
f 416 417 382
f 450 416 381
f 379 380 450
f 378 379 449
f 377 378 448
f 376 377 447
f 375 376 446
f 374 375 445
f 373 374 444
f 372 373 443
f 371 372 442
f 370 371 441
f 369 370 440
f 368 369 439
f 367 368 438
f 366 367 437
f 364 365 435
f 363 364 434
f 362 363 433
f 361 362 432
f 360 361 431
f 359 360 430
f 358 359 429
f 356 357 427
f 355 356 426
f 354 355 425
f 353 354 424
f 352 353 423
f 351 352 422
f 350 351 421
f 349 350 420
f 348 349 419
f 347 348 418
f 346 347 417
f 380 346 416
f 517 518 484
f 516 517 483
f 515 516 482
f 514 515 481
f 513 514 480
f 512 513 479
f 511 512 478
f 510 511 477
f 509 510 476
f 508 509 475
f 507 508 474
f 506 507 473
f 505 506 472
f 504 505 471
f 503 504 470
f 502 503 469
f 501 502 468
f 500 501 467
f 499 500 466
f 498 499 465
f 497 498 464
f 495 496 462
f 494 495 461
f 493 494 460
f 492 493 459
f 491 492 458
f 490 491 457
f 489 490 456
f 488 489 455
f 487 488 454
f 486 487 453
f 485 486 452
f 518 485 451
f 551 552 518
f 550 551 517
f 549 550 516
f 548 549 515
f 547 548 514
f 546 547 513
f 545 546 512
f 544 545 511
f 543 544 510
f 542 543 509
f 541 542 508
f 540 541 507
f 539 540 506
f 538 539 505
f 537 538 504
f 536 537 503
f 535 536 502
f 534 535 501
f 533 534 500
f 532 533 499
f 531 532 498
f 529 530 496
f 528 529 495
f 527 528 494
f 526 527 493
f 525 526 492
f 524 525 491
f 523 524 490
f 522 523 489
f 521 522 488
f 520 521 487
f 486 520 519
f 485 519 552
f 573 540 539
f 571 572 539
f 571 538 537
f 571 537 536
f 536 535 570
f 570 535 534
f 568 569 534
f 567 568 533
f 566 567 532
f 565 566 531
f 564 565 531
f 563 564 530
f 563 529 528
f 561 562 528
f 561 527 526
f 559 560 526
f 558 559 525
f 557 558 524
f 556 557 523
f 555 556 522
f 554 555 521
f 553 519 520
f 519 552 583
f 583 552 551
f 551 550 581
f 581 550 549
f 580 549 548
f 580 548 547
f 546 579 547
f 578 579 546
f 577 578 545
f 576 577 544
f 575 576 543
f 540 573 574
f 575 542 541
f 579 578 608
f 578 577 607
f 577 576 606
f 576 575 605
f 575 574 604
f 574 573 603
f 603 573 572
f 572 571 602
f 571 570 601
f 601 570 600
f 570 569 599
f 569 568 598
f 568 567 597
f 567 566 596
f 566 565 595
f 593 594 563
f 592 593 562
f 591 592 561
f 590 591 560
f 589 590 559
f 588 589 558
f 587 588 557
f 586 587 556
f 585 586 555
f 584 585 554
f 553 584 613
f 583 613 612
f 611 612 582
f 610 611 581
f 609 610 580
f 483 484 380
f 482 483 379
f 481 482 378
f 480 481 377
f 479 480 376
f 478 479 375
f 477 478 374
f 476 477 373
f 475 476 372
f 474 475 371
f 473 474 370
f 472 473 369
f 471 472 368
f 470 471 367
f 469 470 366
f 468 469 365
f 467 468 364
f 466 467 363
f 465 466 362
f 464 465 361
f 463 464 360
f 460 461 357
f 459 460 356
f 458 459 355
f 457 458 354
f 456 457 353
f 455 456 352
f 454 455 351
f 453 454 350
f 452 453 349
f 451 452 348
f 616 451 347
f 484 616 346
f 32 33 618
f 31 32 66
f 30 31 65
f 29 30 64
f 28 29 63
f 27 28 62
f 619 27 61
f 26 619 60
f 25 26 59
f 24 25 58
f 23 24 57
f 22 23 56
f 21 22 617
f 20 21 55
f 19 20 54
f 18 19 53
f 17 18 52
f 16 17 51
f 15 16 50
f 14 15 49
f 13 14 48
f 12 13 47
f 11 12 46
f 10 11 45
f 9 10 44
f 8 9 43
f 7 8 42
f 6 7 41
f 5 6 40
f 4 5 39
f 3 4 38
f 2 3 620
f 1 2 37
f 35 1 36
f 62 63 64
f 66 37 38
f 39 64 65
f 47 48 49
f 49 50 51
f 45 51 52
f 44 52 53
f 44 53 54
f 43 56 57
f 43 57 58
f 42 58 59
f 59 60 61
f 41 61 62
f 35 67 34
f 67 618 33
f 676 677 678
f 685 684 683
f 675 674 681
f 674 673 680
f 673 672 679
f 672 671 678
f 671 670 677
f 670 669 676
f 669 675 682
f 660 659 667
f 659 658 666
f 658 657 665
f 657 656 664
f 656 655 663
f 655 654 662
f 654 653 661
f 653 660 668
f 652 651 659
f 651 650 658
f 650 649 657
f 649 648 656
f 648 647 655
f 647 646 654
f 646 645 653
f 645 652 660
f 644 643 651
f 643 642 650
f 642 641 649
f 641 640 648
f 640 639 647
f 639 638 646
f 638 637 645
f 637 644 652
f 636 635 643
f 635 634 642
f 634 633 641
f 633 632 640
f 632 631 639
f 631 630 638
f 630 629 637
f 629 636 644
f 628 627 635
f 627 626 634
f 626 625 633
f 625 624 632
f 624 623 631
f 623 622 630
f 622 621 629
f 621 628 636
f 677 683 684
f 676 683 677
f 682 686 683
f 681 686 682
f 680 686 681
f 685 686 680
f 680 679 684
f 714 715 716
f 768 769 770
f 706 705 695
f 705 704 694
f 704 703 693
f 703 702 692
f 702 701 691
f 701 700 690
f 700 699 689
f 699 698 688
f 698 697 687
f 697 706 696
f 716 715 705
f 715 714 704
f 714 713 703
f 713 712 702
f 712 711 701
f 711 710 700
f 710 709 699
f 709 708 698
f 708 707 697
f 707 716 706
f 726 725 715
f 725 724 714
f 724 723 713
f 723 722 712
f 722 721 711
f 721 720 710
f 720 719 709
f 719 718 708
f 718 717 707
f 717 726 716
f 736 735 725
f 735 734 724
f 734 733 723
f 733 732 722
f 732 731 721
f 731 730 720
f 730 729 719
f 729 728 718
f 728 727 717
f 727 736 726
f 746 745 735
f 745 744 734
f 744 743 733
f 743 742 732
f 742 741 731
f 741 740 730
f 740 739 729
f 739 738 728
f 738 737 727
f 737 746 736
f 756 755 745
f 755 754 744
f 754 753 743
f 753 752 742
f 752 751 741
f 751 750 740
f 750 749 739
f 749 748 738
f 748 747 737
f 747 756 746
f 766 765 755
f 765 764 754
f 764 763 753
f 763 762 752
f 762 761 751
f 761 760 750
f 760 759 749
f 759 758 748
f 758 757 747
f 757 766 756
f 767 761 762
f 760 761 767
f 759 760 767
f 758 759 770
f 757 758 770
f 766 757 769
f 768 764 765
f 762 764 768
f 769 768 765
f 331 625 626
f 436 401 626
f 624 625 331
f 330 400 623
f 435 622 623
f 365 621 622
f 366 628 621
f 462 496 690
f 530 691 690
f 462 689 688
f 461 462 357
f 427 357 688
f 687 696 428
f 696 695 358
f 695 694 463
f 358 463 359
f 694 693 497
f 692 531 497
f 530 531 692
f 663 671 672
f 670 671 663
f 669 670 662
f 675 669 661
f 664 672 673
f 673 666 665
f 667 666 674
f 668 667 674
f 673 674 666
f 595 565 564
f 563 594 595
f 597 596 595
f 598 595 594
f 599 594 593
f 591 604 603
f 592 602 601
f 592 603 602
f 606 605 604
f 612 613 584
f 585 612 611
f 585 611 610
f 586 610 609
f 588 609 608
f 589 607 606
f 589 608 607
f 627 628 366
f 37 66 618
f 37 618 67
f 34 101 35
f 33 100 34
f 32 99 33
f 31 98 32
f 30 97 31
f 29 96 30
f 28 95 29
f 27 94 28
f 26 93 27
f 25 92 26
f 24 91 25
f 23 90 24
f 22 89 23
f 21 88 22
f 20 87 21
f 19 86 20
f 18 85 19
f 17 84 18
f 16 83 17
f 15 82 16
f 14 81 15
f 13 80 14
f 12 79 13
f 11 78 12
f 10 77 11
f 9 76 10
f 8 75 9
f 7 74 8
f 6 73 7
f 5 72 6
f 4 71 5
f 3 70 4
f 2 69 3
f 1 68 2
f 35 102 1
f 101 135 102
f 100 134 101
f 99 133 100
f 98 132 99
f 97 131 98
f 96 130 97
f 95 129 96
f 94 128 95
f 93 127 94
f 92 126 93
f 91 125 92
f 90 614 91
f 89 124 90
f 88 123 89
f 87 122 88
f 86 121 87
f 85 120 86
f 84 119 85
f 83 118 84
f 82 117 83
f 81 116 82
f 80 115 81
f 79 114 80
f 78 113 79
f 77 112 78
f 76 111 77
f 75 110 76
f 74 109 75
f 73 108 74
f 72 107 73
f 71 106 72
f 70 105 71
f 69 104 70
f 68 103 69
f 102 136 68
f 135 170 136
f 134 169 135
f 133 168 134
f 132 167 133
f 131 166 132
f 130 165 131
f 129 164 130
f 128 163 129
f 127 162 128
f 126 161 127
f 125 160 126
f 614 159 125
f 124 158 614
f 123 157 124
f 122 156 123
f 121 155 122
f 120 154 121
f 119 153 120
f 118 152 119
f 117 151 118
f 116 150 117
f 115 149 116
f 114 148 115
f 113 147 114
f 112 146 113
f 111 145 112
f 110 144 111
f 109 143 110
f 108 142 109
f 107 141 108
f 106 140 107
f 105 139 106
f 104 138 105
f 103 137 104
f 136 171 103
f 170 205 171
f 169 204 170
f 168 203 169
f 167 202 168
f 166 201 167
f 165 200 166
f 164 199 165
f 163 198 164
f 162 197 163
f 161 196 162
f 160 195 161
f 159 194 160
f 158 193 159
f 157 192 158
f 156 191 157
f 155 190 156
f 154 189 155
f 153 188 154
f 152 187 153
f 151 186 152
f 150 185 151
f 149 184 150
f 148 183 149
f 147 182 148
f 146 181 147
f 145 180 146
f 144 179 145
f 143 178 144
f 142 177 143
f 141 176 142
f 140 175 141
f 139 174 140
f 138 173 139
f 137 172 138
f 171 206 137
f 205 240 206
f 204 239 205
f 203 238 204
f 202 237 203
f 201 236 202
f 200 235 201
f 199 234 200
f 198 233 199
f 197 232 198
f 196 231 197
f 195 230 196
f 194 229 195
f 193 228 194
f 192 227 193
f 191 226 192
f 190 225 191
f 189 224 190
f 188 223 189
f 187 222 188
f 186 221 187
f 185 220 186
f 184 219 185
f 183 218 184
f 182 217 183
f 181 216 182
f 180 215 181
f 179 214 180
f 178 213 179
f 177 212 178
f 176 211 177
f 175 210 176
f 174 209 175
f 173 208 174
f 172 207 173
f 206 241 172
f 240 274 241
f 239 273 240
f 238 272 239
f 237 271 238
f 236 270 237
f 235 269 236
f 234 268 235
f 233 267 234
f 232 266 233
f 231 265 232
f 230 264 231
f 229 263 230
f 228 262 229
f 227 261 228
f 226 615 227
f 225 260 226
f 224 259 225
f 223 258 224
f 222 257 223
f 221 256 222
f 220 255 221
f 219 254 220
f 218 253 219
f 217 252 218
f 216 251 217
f 215 250 216
f 214 249 215
f 213 248 214
f 212 247 213
f 211 246 212
f 210 245 211
f 209 244 210
f 208 243 209
f 207 242 208
f 241 275 207
f 274 309 275
f 273 308 274
f 272 307 273
f 271 306 272
f 270 305 271
f 269 304 270
f 268 303 269
f 267 302 268
f 266 301 267
f 265 300 266
f 264 299 265
f 263 298 264
f 262 297 263
f 261 296 262
f 615 295 261
f 260 294 615
f 259 293 260
f 258 292 259
f 257 291 258
f 256 290 257
f 255 289 256
f 254 288 255
f 253 287 254
f 252 286 253
f 251 285 252
f 250 284 251
f 249 283 250
f 248 282 249
f 247 281 248
f 246 280 247
f 245 279 246
f 244 278 245
f 243 277 244
f 242 276 243
f 275 310 242
f 309 344 310
f 308 343 309
f 307 342 308
f 306 341 307
f 305 340 306
f 304 339 305
f 303 338 304
f 302 337 303
f 301 336 302
f 300 335 301
f 299 334 300
f 298 333 299
f 297 332 298
f 296 331 297
f 295 330 296
f 294 329 295
f 293 328 294
f 292 327 293
f 291 326 292
f 290 325 291
f 289 324 290
f 288 323 289
f 287 322 288
f 286 321 287
f 285 320 286
f 284 319 285
f 283 318 284
f 282 317 283
f 281 316 282
f 280 315 281
f 279 314 280
f 278 313 279
f 277 312 278
f 276 311 277
f 310 345 276
f 415 345 414
f 414 344 413
f 413 343 412
f 412 342 411
f 411 341 410
f 410 340 409
f 409 339 408
f 408 338 407
f 407 337 406
f 406 336 405
f 405 335 404
f 404 334 403
f 403 333 402
f 402 332 401
f 400 330 399
f 399 329 398
f 398 328 397
f 397 327 396
f 396 326 395
f 395 325 394
f 394 324 393
f 393 323 392
f 392 322 391
f 391 321 390
f 390 320 389
f 389 319 388
f 388 318 387
f 387 317 386
f 386 316 385
f 385 315 384
f 384 314 383
f 383 313 382
f 382 312 381
f 381 311 415
f 414 449 415
f 413 448 414
f 412 447 413
f 411 446 412
f 410 445 411
f 409 444 410
f 408 443 409
f 407 442 408
f 406 441 407
f 405 440 406
f 404 439 405
f 403 438 404
f 402 437 403
f 401 436 402
f 399 434 400
f 398 433 399
f 397 432 398
f 396 431 397
f 395 430 396
f 394 429 395
f 393 428 394
f 392 427 393
f 391 426 392
f 390 425 391
f 389 424 390
f 388 423 389
f 387 422 388
f 386 421 387
f 385 420 386
f 384 419 385
f 383 418 384
f 382 417 383
f 381 416 382
f 415 450 381
f 449 379 450
f 448 378 449
f 447 377 448
f 446 376 447
f 445 375 446
f 444 374 445
f 443 373 444
f 442 372 443
f 441 371 442
f 440 370 441
f 439 369 440
f 438 368 439
f 437 367 438
f 436 366 437
f 434 364 435
f 433 363 434
f 432 362 433
f 431 361 432
f 430 360 431
f 429 359 430
f 428 358 429
f 426 356 427
f 425 355 426
f 424 354 425
f 423 353 424
f 422 352 423
f 421 351 422
f 420 350 421
f 419 349 420
f 418 348 419
f 417 347 418
f 416 346 417
f 450 380 416
f 483 517 484
f 482 516 483
f 481 515 482
f 480 514 481
f 479 513 480
f 478 512 479
f 477 511 478
f 476 510 477
f 475 509 476
f 474 508 475
f 473 507 474
f 472 506 473
f 471 505 472
f 470 504 471
f 469 503 470
f 468 502 469
f 467 501 468
f 466 500 467
f 465 499 466
f 464 498 465
f 463 497 464
f 461 495 462
f 460 494 461
f 459 493 460
f 458 492 459
f 457 491 458
f 456 490 457
f 455 489 456
f 454 488 455
f 453 487 454
f 452 486 453
f 451 485 452
f 484 518 451
f 517 551 518
f 516 550 517
f 515 549 516
f 514 548 515
f 513 547 514
f 512 546 513
f 511 545 512
f 510 544 511
f 509 543 510
f 508 542 509
f 507 541 508
f 506 540 507
f 505 539 506
f 504 538 505
f 503 537 504
f 502 536 503
f 501 535 502
f 500 534 501
f 499 533 500
f 498 532 499
f 497 531 498
f 495 529 496
f 494 528 495
f 493 527 494
f 492 526 493
f 491 525 492
f 490 524 491
f 489 523 490
f 488 522 489
f 487 521 488
f 486 520 487
f 485 519 486
f 518 552 485
f 572 573 539
f 538 571 539
f 570 571 536
f 569 570 534
f 533 568 534
f 532 567 533
f 531 566 532
f 530 564 531
f 529 563 530
f 562 563 528
f 527 561 528
f 560 561 526
f 525 559 526
f 524 558 525
f 523 557 524
f 522 556 523
f 521 555 522
f 520 554 521
f 553 519 583
f 582 583 551
f 554 553 520
f 582 551 581
f 580 581 549
f 579 580 547
f 545 578 546
f 544 577 545
f 543 576 544
f 542 575 543
f 541 540 574
f 574 575 541
f 609 579 608
f 608 578 607
f 607 577 606
f 606 576 605
f 605 575 604
f 604 574 603
f 603 572 602
f 602 571 601
f 600 570 599
f 599 569 598
f 598 568 597
f 597 567 596
f 596 566 595
f 562 593 563
f 561 592 562
f 560 591 561
f 559 590 560
f 558 589 559
f 557 588 558
f 556 587 557
f 555 586 556
f 554 585 555
f 554 584 553
f 583 613 553
f 582 612 583
f 581 611 582
f 580 610 581
f 579 609 580
f 379 483 380
f 378 482 379
f 377 481 378
f 376 480 377
f 375 479 376
f 374 478 375
f 373 477 374
f 372 476 373
f 371 475 372
f 370 474 371
f 369 473 370
f 368 472 369
f 367 471 368
f 366 470 367
f 365 469 366
f 364 468 365
f 363 467 364
f 362 466 363
f 361 465 362
f 360 464 361
f 359 463 360
f 356 460 357
f 355 459 356
f 354 458 355
f 353 457 354
f 352 456 353
f 351 455 352
f 350 454 351
f 349 453 350
f 348 452 349
f 347 451 348
f 346 616 347
f 380 484 346
f 66 32 618
f 65 31 66
f 64 30 65
f 63 29 64
f 62 28 63
f 61 27 62
f 60 619 61
f 59 26 60
f 58 25 59
f 57 24 58
f 56 23 57
f 617 22 56
f 55 21 617
f 54 20 55
f 53 19 54
f 52 18 53
f 51 17 52
f 50 16 51
f 49 15 50
f 48 14 49
f 47 13 48
f 46 12 47
f 45 11 46
f 44 10 45
f 43 9 44
f 42 8 43
f 41 7 42
f 40 6 41
f 39 5 40
f 38 4 39
f 3 38 620
f 37 2 620
f 36 1 37
f 67 35 36
f 40 62 64
f 66 38 65
f 38 39 65
f 47 49 51
f 44 45 52
f 55 617 54
f 56 54 617
f 42 43 58
f 42 59 61
f 40 41 62
f 34 67 33
f 686 685 683
f 682 675 681
f 681 674 680
f 680 673 679
f 679 672 678
f 677 671 678
f 677 670 676
f 676 669 682
f 668 660 667
f 667 659 666
f 666 658 665
f 665 657 664
f 664 656 663
f 663 655 662
f 662 654 661
f 661 653 668
f 660 652 659
f 659 651 658
f 658 650 657
f 657 649 656
f 656 648 655
f 655 647 654
f 654 646 653
f 653 645 660
f 652 644 651
f 651 643 650
f 650 642 649
f 649 641 648
f 648 640 647
f 647 639 646
f 646 638 645
f 645 637 652
f 644 636 643
f 643 635 642
f 642 634 641
f 641 633 640
f 640 632 639
f 639 631 638
f 638 630 637
f 637 629 644
f 636 628 635
f 635 627 634
f 634 626 633
f 633 625 632
f 632 624 631
f 631 623 630
f 630 622 629
f 629 621 636
f 677 684 678
f 682 683 676
f 685 680 684
f 713 714 716
f 767 768 770
f 696 706 695
f 695 705 694
f 694 704 693
f 693 703 692
f 692 702 691
f 691 701 690
f 690 700 689
f 689 699 688
f 688 698 687
f 687 697 696
f 706 716 705
f 705 715 704
f 704 714 703
f 703 713 702
f 702 712 701
f 701 711 700
f 700 710 699
f 699 709 698
f 698 708 697
f 697 707 706
f 716 726 715
f 715 725 714
f 714 724 713
f 713 723 712
f 712 722 711
f 711 721 710
f 710 720 709
f 709 719 708
f 708 718 707
f 707 717 716
f 726 736 725
f 725 735 724
f 724 734 723
f 723 733 722
f 722 732 721
f 721 731 720
f 720 730 719
f 719 729 718
f 718 728 717
f 717 727 726
f 736 746 735
f 735 745 734
f 734 744 733
f 733 743 732
f 732 742 731
f 731 741 730
f 730 740 729
f 729 739 728
f 728 738 727
f 727 737 736
f 746 756 745
f 745 755 744
f 744 754 743
f 743 753 742
f 742 752 741
f 741 751 740
f 740 750 739
f 739 749 738
f 738 748 737
f 737 747 746
f 756 766 755
f 755 765 754
f 754 764 753
f 753 763 752
f 752 762 751
f 751 761 750
f 750 760 749
f 749 759 748
f 748 758 747
f 747 757 756
f 768 767 762
f 770 759 767
f 769 757 770
f 766 769 765
f 401 331 626
f 627 436 626
f 330 624 331
f 624 330 623
f 400 435 623
f 435 365 622
f 365 366 621
f 689 462 690
f 496 530 690
f 357 462 688
f 687 427 688
f 427 687 428
f 428 696 358
f 358 695 463
f 463 694 497
f 693 692 497
f 691 530 692
f 664 663 672
f 662 670 663
f 661 669 662
f 668 675 661
f 665 664 673
f 675 668 674
f 564 563 595
f 598 597 595
f 599 598 594
f 600 599 593
f 592 591 603
f 593 592 601
f 590 606 604
f 585 584 612
f 586 585 610
f 587 586 609
f 589 588 608
f 590 589 606
f 436 627 366
f 36 37 67
f 39 40 64
f 46 47 51
f 44 54 56
f 41 42 61
f 712 713 716
f 601 600 593
f 591 590 604
f 588 587 609
f 45 46 51
f 43 44 56
f 681 680 676
f 711 712 716
f 682 681 676
f 710 711 716
f 709 710 716
f 708 709 716
f 707 708 716
f 684 679 678
