# Blender 4.5.1 LTS
# www.blender.org
o ulna
v -0.009357 -0.010036 -0.007856
v -0.010113 -0.010628 -0.012293
v -0.005751 -0.012393 -0.009177
v -0.009587 -0.008686 -0.004887
v -0.001042 -0.013203 -0.007970
v 0.004926 -0.013329 -0.007780
v -0.005392 -0.011931 -0.004384
v -0.000688 -0.012641 -0.003623
v 0.006212 -0.009919 -0.001606
v -0.009776 -0.007221 -0.002900
v -0.006989 -0.010853 -0.002674
v -0.009685 -0.006639 -0.000925
v -0.006101 -0.011527 -0.000355
v 0.003168 -0.012140 0.000014
v -0.010966 -0.007764 0.002189
v -0.007740 -0.011973 0.002722
v -0.003865 -0.014444 0.003771
v 0.000227 -0.015392 0.004438
v 0.003735 -0.017104 0.007017
v -0.013733 -0.009489 0.005649
v -0.011323 -0.012143 0.005843
v -0.006664 -0.015670 0.007238
v -0.004121 -0.016919 0.007897
v 0.002128 -0.017355 0.010678
v -0.010229 0.011257 -0.008116
v -0.016565 0.009458 -0.008913
v -0.022600 0.000150 -0.008779
v -0.019672 -0.005675 -0.008804
v -0.014884 -0.011751 -0.011155
v -0.011490 -0.014190 -0.014937
v -0.015356 0.008150 -0.010269
v -0.016029 0.003307 -0.011050
v -0.014180 -0.002494 -0.010496
v -0.011123 -0.006937 -0.008267
v -0.011660 0.005528 -0.006181
v -0.012463 -0.000144 -0.005497
v -0.011781 -0.004516 -0.005016
v -0.010900 -0.007066 -0.004913
v -0.007100 0.011211 -0.004532
v -0.009296 0.007642 -0.002884
v -0.011011 0.004319 -0.002439
v -0.012036 0.000749 -0.002667
v -0.012136 -0.002561 -0.002979
v -0.005171 0.010977 -0.000103
v -0.008128 0.007480 -0.000066
v -0.010493 0.004523 -0.000154
v -0.011811 0.000631 -0.000208
v -0.011983 -0.002286 -0.000202
v -0.006964 0.010672 0.006821
v -0.008967 0.007762 0.004901
v -0.011210 0.004318 0.004404
v -0.012698 0.000330 0.003141
v -0.013222 -0.004130 0.004468
v -0.011417 0.010028 0.011276
v -0.013548 0.004899 0.009863
v -0.014871 0.000421 0.008549
v -0.014754 -0.002771 0.008016
v -0.015063 -0.006286 0.007030
v -0.015004 0.005051 0.014066
v -0.015594 0.001018 0.013028
v -0.015723 -0.003174 0.011095
v -0.017002 -0.005548 0.010122
v -0.017284 -0.008048 0.008299
v -0.016543 -0.010502 0.008000
v -0.021637 0.001640 0.012487
v -0.024802 -0.006831 0.008613
v -0.017269 0.009055 0.010983
v -0.025204 -0.000674 0.010929
v -0.016278 0.011983 0.006461
v -0.026911 0.002944 0.009452
v -0.028321 0.006336 0.003634
v -0.016319 0.012146 0.001409
v -0.026861 0.006069 0.000548
v -0.017285 0.011343 -0.003255
v -0.025526 0.004302 -0.003453
v -0.013178 0.010488 -0.009742
v -0.027263 -0.023614 -0.007713
v -0.026834 -0.017932 -0.003210
v -0.027201 -0.016895 -0.007714
v -0.026110 -0.010656 0.003417
v -0.027814 -0.009128 0.000839
v -0.027652 -0.007253 -0.003922
v -0.025039 -0.008617 -0.009391
v -0.015259 -0.047309 -0.022131
v -0.015520 -0.039126 -0.020773
v -0.013654 -0.034003 -0.020165
v -0.011510 -0.026966 -0.018995
v -0.011080 -0.019733 -0.018229
v -0.011261 -0.016953 -0.017075
v -0.024556 -0.047852 -0.018535
v -0.025608 -0.042737 -0.016368
v -0.026040 -0.038879 -0.014619
v -0.027055 -0.032266 -0.011806
v -0.009276 -0.049714 -0.007928
v -0.019383 -0.050637 -0.010018
v -0.008958 -0.015085 0.012607
v -0.008340 -0.022540 0.010901
v -0.007115 -0.026690 0.004722
v -0.008486 -0.035129 -0.000490
v -0.009268 -0.042353 -0.003672
v -0.018624 -0.018964 0.001087
v -0.019743 -0.029313 -0.002405
v -0.019500 -0.035780 -0.004815
v -0.020181 -0.042502 -0.007588
v -0.007815 -0.049835 -0.014591
v -0.006138 -0.040569 -0.009859
v -0.004792 -0.032287 -0.008138
v -0.003458 -0.025770 -0.009526
v -0.000484 -0.021743 -0.011658
v -0.003872 -0.023347 -0.012983
v -0.007166 -0.022235 -0.014586
v -0.009094 -0.036189 -0.014504
v 0.002050 -0.017995 -0.009994
v -0.005836 -0.017989 -0.010815
v -0.003149 -0.023945 -0.001898
v -0.006957 -0.038475 -0.005361
v -0.002206 -0.022298 0.007160
v -0.000570 -0.020324 0.002135
v 0.001170 -0.019370 -0.000979
v -0.011116 -0.071821 -0.012425
v -0.020548 -0.071261 -0.017357
v -0.022394 -0.072183 -0.024932
v -0.014015 -0.070733 -0.025700
v -0.007666 -0.069125 -0.025577
v -0.009599 -0.070744 -0.018446
v 0.009410 -0.243676 -0.043255
v 0.012917 -0.241602 -0.046665
v 0.008288 -0.240272 -0.040753
v 0.012822 -0.236019 -0.044892
v 0.012263 -0.240984 -0.051220
v 0.014063 -0.233464 -0.050313
v 0.009751 -0.241508 -0.054184
v 0.010178 -0.235557 -0.055044
v 0.006772 -0.242521 -0.053265
v 0.004299 -0.243308 -0.050507
v 0.004889 -0.237586 -0.056111
v 0.000318 -0.244179 -0.049408
v 0.001133 -0.239277 -0.052473
v -0.000803 -0.245551 -0.049697
v -0.002469 -0.247579 -0.048385
v -0.006015 -0.241890 -0.048676
v -0.004183 -0.246115 -0.046044
v -0.001943 -0.241983 -0.044509
v -0.001392 -0.244938 -0.045709
v 0.000672 -0.241648 -0.041950
v -0.000119 -0.243866 -0.044798
v 0.003665 -0.243547 -0.042997
v 0.008537 -0.240654 -0.040981
v 0.009194 -0.243787 -0.043481
v 0.002500 -0.244073 -0.046853
v 0.003124 -0.225482 -0.039989
v 0.005034 -0.232866 -0.040708
v 0.007103 -0.223076 -0.043483
v 0.010181 -0.230479 -0.044736
v 0.006682 -0.221256 -0.046859
v 0.010114 -0.229923 -0.049335
v 0.001049 -0.222100 -0.048268
v 0.004541 -0.229540 -0.052339
v -0.000156 -0.232577 -0.050018
v -0.003584 -0.224031 -0.045977
v -0.004004 -0.233448 -0.048293
v -0.003667 -0.224985 -0.042367
v -0.004510 -0.234841 -0.043795
v -0.000837 -0.225949 -0.038975
v -0.001106 -0.234266 -0.040381
v 0.002966 -0.225788 -0.040306
v 0.004538 -0.232793 -0.041066
v 0.000011 -0.187811 -0.031452
v 0.002274 -0.213747 -0.037198
v 0.003142 -0.187566 -0.034797
v 0.005377 -0.212413 -0.039724
v 0.003580 -0.187165 -0.040381
v 0.005309 -0.211865 -0.043653
v -0.004026 -0.188058 -0.040096
v -0.000642 -0.211918 -0.045857
v -0.004708 -0.212914 -0.043240
v -0.008312 -0.189183 -0.036362
v -0.003940 -0.213930 -0.038421
v -0.006101 -0.188188 -0.032632
v -0.001637 -0.214316 -0.035827
v -0.000030 -0.187224 -0.030550
v 0.002217 -0.213549 -0.037330
v -0.007424 -0.139402 -0.022247
v -0.003629 -0.162056 -0.026292
v -0.000825 -0.162913 -0.031307
v -0.003030 -0.139136 -0.028764
v 0.001183 -0.162503 -0.037559
v -0.000529 -0.138117 -0.033173
v -0.006564 -0.164007 -0.037147
v -0.008696 -0.139344 -0.033072
v -0.012079 -0.164801 -0.034128
v -0.013992 -0.140012 -0.030945
v -0.009909 -0.163225 -0.029049
v -0.013352 -0.139035 -0.025877
v -0.003444 -0.162145 -0.026204
v -0.007482 -0.139207 -0.022155
v -0.010793 -0.099704 -0.016770
v -0.008780 -0.119076 -0.019882
v -0.005038 -0.118462 -0.025591
v -0.006602 -0.099055 -0.022925
v -0.001902 -0.117483 -0.031475
v -0.003527 -0.097181 -0.028574
v -0.008730 -0.118618 -0.031817
v -0.011010 -0.097853 -0.029224
v -0.016497 -0.119127 -0.031035
v -0.019080 -0.098461 -0.030054
v -0.016151 -0.119173 -0.025712
v -0.018081 -0.099690 -0.023002
v -0.008848 -0.119372 -0.020601
v -0.010327 -0.099969 -0.017220
v -0.011079 -0.071726 -0.011842
vn 0.6466 0.4771 -0.5952
vn 0.4604 0.5749 -0.6764
vn 0.4589 0.7357 -0.4981
vn 0.2039 0.6310 -0.7485
vn 0.6478 0.7413 -0.1758
vn 0.5149 0.6880 -0.5114
vn 0.3640 0.9210 0.1387
vn -0.0258 0.9977 -0.0631
vn 0.8006 0.5118 0.3115
vn 0.5651 0.8175 -0.1111
vn 0.7985 0.5200 -0.3035
vn 0.8339 0.5392 0.1174
vn 0.5094 0.8106 0.2888
vn 0.5418 0.4110 0.7332
vn -0.0583 0.6459 0.7612
vn 0.1881 0.9478 0.2573
vn 0.4012 0.8331 0.3807
vn -0.1974 0.8845 0.4228
vn 0.5276 0.6782 0.5115
vn 0.7206 0.4026 0.5645
vn 0.2473 0.8382 0.4861
vn 0.0575 0.8923 0.4477
vn 0.8462 0.1832 0.5003
vn 0.4836 0.6123 0.6255
vn 0.6613 0.2224 0.7164
vn -0.4649 0.6671 -0.5821
vn 0.3533 0.0754 -0.9325
vn 0.3771 0.5894 -0.7144
vn 0.3133 0.1470 -0.9382
vn -0.2423 0.3577 -0.9019
vn 0.5308 0.0939 -0.8423
vn 0.2713 0.1066 -0.9566
vn 0.6710 0.3947 -0.6277
vn 0.6425 0.6655 -0.3798
vn 0.4052 0.6163 -0.6753
vn 0.8067 -0.3229 -0.4949
vn 0.9171 -0.0755 -0.3913
vn 0.9614 0.1800 -0.2081
vn 0.8519 0.4765 -0.2172
vn 0.7808 -0.5203 -0.3458
vn 0.7672 0.4157 -0.4884
vn 0.9287 -0.3293 -0.1707
vn 0.9946 -0.0923 -0.0469
vn 0.9550 0.2732 -0.1160
vn 0.7781 -0.6199 -0.1017
vn 0.9191 0.3922 0.0373
vn 0.8862 -0.4615 -0.0414
vn 0.9821 -0.1797 0.0559
vn 0.9736 0.1777 0.1435
vn 0.7790 -0.5763 0.2469
vn 0.8633 0.0762 0.4989
vn 0.8651 -0.4447 0.2319
vn 0.9359 -0.2048 0.2865
vn 0.8793 0.0777 0.4698
vn 0.8596 -0.4083 0.3072
vn 0.5763 0.3294 0.7479
vn 0.8982 -0.3155 0.3061
vn 0.8375 -0.2341 0.4937
vn 0.7347 -0.0494 0.6766
vn 0.5922 -0.3729 0.7144
vn 0.0448 0.1466 0.9882
vn 0.5764 -0.4654 0.6717
vn 0.5902 -0.4533 0.6680
vn 0.4269 -0.2927 0.8556
vn 0.2906 0.1749 0.9407
vn -0.4291 -0.0487 0.9019
vn -0.3386 -0.3824 0.8597
vn -0.4425 0.5836 0.6808
vn -0.6849 -0.0033 0.7286
vn -0.2108 0.9047 0.3702
vn -0.7274 0.2375 0.6438
vn -0.8541 0.5200 -0.0018
vn -0.2064 0.9755 -0.0759
vn -0.7175 0.5989 -0.3555
vn -0.3326 0.9125 -0.2384
vn -0.7534 0.4188 -0.5069
vn -0.4649 0.6671 -0.5822
vn -0.2789 0.9589 0.0517
vn 0.3770 0.5895 -0.7144
vn -0.8810 0.0419 -0.4712
vn -0.8209 -0.2988 0.4866
vn -0.9892 -0.1036 -0.1041
vn -0.9664 -0.1500 0.2086
vn -0.7511 -0.4056 0.5209
vn -0.9442 0.1096 -0.3106
vn -0.6196 0.2343 -0.7491
vn 0.0228 0.1553 -0.9876
vn -0.8459 0.0312 -0.5324
vn 0.1466 0.2091 -0.9668
vn -0.9634 -0.0127 -0.2677
vn 0.0111 0.1462 -0.9892
vn -0.8988 0.0667 -0.4333
vn -0.0853 0.2053 -0.9750
vn -0.9967 -0.0640 0.0505
vn 0.2749 0.1795 -0.9446
vn 0.0975 0.4123 -0.9058
vn -0.5451 -0.4126 0.7298
vn -0.1359 -0.5793 0.8037
vn -0.5504 -0.3946 0.7358
vn 0.3927 -0.7059 0.5895
vn -0.5399 -0.3286 0.7749
vn 0.1500 -0.4605 0.8749
vn -0.6136 -0.3109 0.7259
vn 0.2205 -0.4230 0.8789
vn -0.5620 -0.3027 0.7698
vn 0.1860 -0.5182 0.8348
vn 0.9838 -0.1294 -0.1240
vn 0.7714 -0.1078 -0.6271
vn 0.9655 -0.1046 -0.2385
vn 0.9861 -0.1580 -0.0510
vn 0.8698 -0.4216 -0.2562
vn 0.6465 -0.1999 -0.7363
vn 0.3832 0.2055 -0.9005
vn 0.6066 0.1612 -0.7785
vn 0.7714 -0.1078 -0.6272
vn 0.9970 -0.0311 -0.0708
vn 0.4490 0.3748 -0.8111
vn 0.7774 -0.3213 -0.5407
vn 0.9223 -0.2531 0.2920
vn 0.8145 -0.5565 0.1642
vn 0.5762 -0.7756 0.2578
vn 0.7465 -0.6641 0.0417
vn 0.8145 -0.5689 0.1139
vn 0.5894 -0.1660 0.7906
vn -0.7673 -0.1884 0.6130
vn -0.9218 -0.0039 -0.3877
vn -0.0935 0.1607 -0.9826
vn 0.6501 0.1756 -0.7392
vn 0.9582 -0.0311 0.2842
vn 0.6621 0.0133 0.7493
vn 0.7857 -0.5947 0.1704
vn 0.6350 -0.7464 0.1992
vn 0.9160 0.1717 0.3625
vn 0.8097 -0.5430 -0.2225
vn 0.8549 0.3025 -0.4214
vn 0.5222 -0.6078 -0.5983
vn 0.1365 0.0833 -0.9871
vn -0.2129 -0.7132 -0.6678
vn -0.0333 -0.8105 -0.5848
vn -0.3130 -0.1830 -0.9320
vn 0.2373 -0.7174 -0.6550
vn -0.3753 -0.1483 -0.9150
vn 0.4818 -0.5457 -0.6856
vn -0.2040 -0.8048 -0.5575
vn -0.9761 -0.1418 -0.1649
vn -0.2515 -0.6698 0.6986
vn -0.5754 -0.2744 0.7705
vn 0.0776 -0.7227 0.6868
vn -0.1943 -0.4741 0.8588
vn 0.1021 -0.8747 0.4738
vn -0.0530 -0.8337 0.5496
vn -0.0388 -0.4136 0.9096
vn 0.0062 -0.8656 0.5006
vn 0.3045 -0.9525 0.0105
vn 0.8211 0.0850 0.5644
vn 0.5821 0.1408 0.8008
vn 0.6651 -0.0159 0.7466
vn 0.8167 0.3197 0.4805
vn 0.8622 0.3542 -0.3622
vn 0.7120 0.6010 -0.3632
vn -0.0639 0.3231 -0.9442
vn 0.0248 0.5341 -0.8451
vn -0.5402 0.2189 -0.8126
vn -0.7494 0.1241 -0.6503
vn -0.8332 0.1918 -0.5186
vn -0.9752 -0.0485 0.2160
vn -0.8763 -0.0752 0.4759
vn -0.4588 -0.1904 0.8679
vn -0.2564 -0.2107 0.9433
vn 0.3000 -0.1670 0.9392
vn 0.0623 -0.0982 0.9932
vn 0.8740 0.0144 0.4856
vn 0.6856 -0.1119 0.7193
vn 0.7309 -0.0598 0.6798
vn 0.9595 0.0392 0.2789
vn 0.9208 0.1404 -0.3638
vn 0.5785 0.2535 -0.7753
vn -0.2671 0.1340 -0.9543
vn -0.2071 0.2049 -0.9566
vn -0.9102 0.0054 -0.4142
vn -0.9630 -0.0888 -0.2544
vn -0.8702 -0.1895 0.4548
vn -0.6791 -0.1958 0.7074
vn -0.1328 -0.2369 0.9624
vn -0.1484 -0.1973 0.9690
vn 0.3900 -0.1967 0.8996
vn 0.9242 0.0693 0.3756
vn 0.8342 0.0340 0.5504
vn 0.8457 0.0229 0.5331
vn 0.8685 0.0069 0.4956
vn 0.8002 0.1494 -0.5809
vn 0.8455 0.1408 -0.5150
vn -0.3160 0.0992 -0.9436
vn -0.2166 0.0932 -0.9718
vn -0.9496 -0.0723 -0.3049
vn -0.8670 -0.0634 -0.4942
vn -0.6952 -0.1908 0.6930
vn -0.8188 -0.1697 0.5485
vn -0.4225 -0.2063 0.8826
vn -0.5457 -0.1411 0.8260
vn 0.8562 0.0034 0.5166
vn 0.8395 -0.0046 0.5433
vn 0.8310 -0.0295 0.5554
vn 0.8823 -0.0002 0.4707
vn 0.8600 0.1001 -0.5003
vn 0.8481 0.1531 -0.5072
vn -0.0750 0.0821 -0.9938
vn 0.0365 0.1145 -0.9927
vn -0.7492 -0.0559 -0.6600
vn -0.7358 -0.0036 -0.6772
vn -0.8559 -0.1355 0.4991
vn -0.8411 -0.1708 0.5133
vn -0.5779 -0.1513 0.8019
vn -0.5620 -0.1879 0.8055
vn -0.5019 -0.1747 0.8471
s 1
f 2//1 1//3 3//2
f 5//4 1//3 4//5
f 3//2 1//3 5//4
f 5//4 4//5 6//6
f 6//6 4//5 7//7
f 6//6 7//7 8//8
f 6//6 8//8 9//9
f 11//10 4//5 10//11
f 7//7 4//5 11//10
f 8//8 7//7 11//10
f 11//10 10//11 12//12
f 11//10 12//12 13//13
f 24//14 23//16 96//15
f 23//16 22//17 96//15
f 8//8 11//10 14//18
f 9//9 8//8 14//18
f 16//19 12//12 15//20
f 13//13 12//12 16//19
f 17//21 13//13 16//19
f 11//10 13//13 17//21
f 18//22 11//10 17//21
f 14//18 11//10 18//22
f 19//23 14//18 18//22
f 9//9 14//18 19//23
f 21//24 15//20 20//25
f 16//19 15//20 21//24
f 22//17 16//19 21//24
f 17//21 16//19 22//17
f 23//16 17//21 22//17
f 18//22 17//21 23//16
f 24//14 18//22 23//16
f 19//23 18//22 24//14
f 26//26 25//28 31//27
f 32//29 26//26 31//27
f 27//30 26//26 32//29
f 33//31 27//30 32//29
f 28//32 27//30 33//31
f 34//33 28//32 33//31
f 29//34 28//32 34//33
f 1//3 29//34 34//33
f 30//35 29//34 1//3
f 31//27 25//28 35//36
f 36//37 31//27 35//36
f 32//29 31//27 36//37
f 37//38 32//29 36//37
f 33//31 32//29 37//38
f 38//39 33//31 37//38
f 34//33 33//31 38//39
f 4//5 34//33 38//39
f 1//3 34//33 4//5
f 40//40 25//28 39//41
f 35//36 25//28 40//40
f 41//42 35//36 40//40
f 36//37 35//36 41//42
f 42//43 36//37 41//42
f 37//38 36//37 42//43
f 43//44 37//38 42//43
f 38//39 37//38 43//44
f 10//11 38//39 43//44
f 4//5 38//39 10//11
f 45//45 39//41 44//46
f 40//40 39//41 45//45
f 46//47 40//40 45//45
f 41//42 40//40 46//47
f 47//48 41//42 46//47
f 42//43 41//42 47//48
f 48//49 42//43 47//48
f 43//44 42//43 48//49
f 12//12 43//44 48//49
f 10//11 43//44 12//12
f 50//50 44//46 49//51
f 45//45 44//46 50//50
f 51//52 45//45 50//50
f 46//47 45//45 51//52
f 52//53 46//47 51//52
f 47//48 46//47 52//53
f 53//54 47//48 52//53
f 48//49 47//48 53//54
f 15//20 48//49 53//54
f 12//12 48//49 15//20
f 55//55 49//51 54//56
f 50//50 49//51 55//55
f 56//57 50//50 55//55
f 51//52 50//50 56//57
f 57//58 51//52 56//57
f 52//53 51//52 57//58
f 58//59 52//53 57//58
f 53//54 52//53 58//59
f 20//25 53//54 58//59
f 15//20 53//54 20//25
f 60//60 54//56 59//61
f 55//55 54//56 60//60
f 61//62 55//55 60//60
f 56//57 55//55 61//62
f 62//63 56//57 61//62
f 57//58 56//57 62//63
f 63//64 57//58 62//63
f 58//59 57//58 63//64
f 64//65 58//59 63//64
f 20//25 58//59 64//65
f 60//60 59//61 65//66
f 61//62 60//60 65//66
f 66//67 61//62 65//66
f 62//63 61//62 66//67
f 63//64 62//63 66//67
f 64//65 63//64 66//67
f 67//68 66//67 65//66
f 68//69 66//67 67//68
f 69//70 68//69 67//68
f 70//71 68//69 69//70
f 71//72 70//71 69//70
f 72//73 71//72 69//70
f 73//74 71//72 72//73
f 74//75 73//74 72//73
f 75//76 73//74 74//75
f 26//26 75//76 74//75
f 27//30 75//76 26//26
f 67//68 65//66 59//61
f 67//68 59//61 54//56
f 69//70 67//68 54//56
f 69//70 54//56 49//51
f 69//70 49//51 44//46
f 72//73 69//70 44//46
f 72//73 44//46 39//41
f 74//75 72//73 39//41
f 74//75 39//41 25//28
f 26//26 74//75 25//28
f 26//77 25//79 76//78
f 79//80 77//82 78//81
f 78//81 80//84 81//83
f 79//80 78//81 81//83
f 79//80 81//83 82//85
f 79//80 82//85 83//86
f 80//84 66//67 68//69
f 81//83 80//84 68//69
f 81//83 68//69 70//71
f 81//83 70//71 71//72
f 82//85 81//83 71//72
f 82//85 71//72 73//74
f 82//85 73//74 75//76
f 83//86 82//85 75//76
f 83//86 75//76 27//30
f 85//87 84//89 90//88
f 85//87 90//88 91//90
f 86//91 85//87 91//90
f 86//91 91//90 92//92
f 87//93 86//91 92//92
f 87//93 92//92 93//94
f 87//93 93//94 77//82
f 88//95 87//93 77//82
f 88//95 77//82 79//80
f 89//96 88//95 79//80
f 89//96 79//80 83//86
f 30//35 89//96 83//86
f 30//35 83//86 27//30
f 29//34 30//35 27//30
f 29//34 27//30 28//32
f 101//97 96//15 64//65
f 97//98 96//15 101//97
f 102//99 97//98 101//97
f 98//100 97//98 102//99
f 103//101 98//100 102//99
f 99//102 98//100 103//101
f 104//103 99//102 103//101
f 100//104 99//102 104//103
f 95//105 100//104 104//103
f 94//106 100//104 95//105
f 101//97 64//65 66//67
f 101//97 66//67 80//84
f 101//97 80//84 78//81
f 102//99 101//97 78//81
f 102//99 78//81 77//82
f 103//101 102//99 77//82
f 103//101 77//82 93//94
f 104//103 103//101 93//94
f 104//103 93//94 92//92
f 104//103 92//92 91//90
f 95//105 104//103 91//90
f 95//105 91//90 90//88
f 106//107 105//109 112//108
f 107//110 106//107 112//108
f 108//111 107//110 112//108
f 109//112 108//111 112//108
f 110//113 109//112 112//108
f 111//114 110//113 112//108
f 88//95 111//114 112//108
f 87//93 88//95 112//108
f 86//91 87//93 112//108
f 85//87 86//91 112//108
f 84//89 85//87 112//108
f 84//89 105//116 112//115
f 5//4 6//6 114//117
f 3//2 5//4 114//117
f 2//1 3//2 114//117
f 30//35 2//1 114//117
f 89//96 30//35 114//117
f 88//95 89//96 114//117
f 111//114 88//95 114//117
f 110//113 111//114 114//117
f 109//112 110//113 114//117
f 113//118 109//112 114//117
f 6//6 113//118 114//117
f 94//106 105//109 116//119
f 100//104 94//106 116//119
f 99//102 100//104 116//119
f 98//100 99//102 116//119
f 115//120 98//100 116//119
f 109//112 115//120 116//119
f 108//111 109//112 116//119
f 107//110 108//111 116//119
f 106//107 107//110 116//119
f 105//109 106//107 116//119
f 97//98 98//100 117//121
f 24//14 97//98 117//121
f 96//15 97//98 24//14
f 118//122 98//100 115//120
f 117//121 98//100 118//122
f 19//23 117//121 118//122
f 24//14 117//121 19//23
f 118//122 115//120 119//123
f 9//9 118//122 119//123
f 19//23 118//122 9//9
f 113//118 115//120 109//112
f 119//123 115//120 113//118
f 6//6 119//123 113//118
f 9//9 119//123 6//6
f 95//105 120//124 94//106
f 121//125 120//124 95//105
f 90//88 121//125 95//105
f 122//126 121//125 90//88
f 123//127 122//126 90//88
f 84//89 123//127 90//88
f 124//128 123//127 84//89
f 105//109 124//128 84//89
f 125//129 124//128 105//109
f 94//106 125//129 105//109
f 120//124 125//129 94//106
f 128//130 126//132 127//131
f 129//133 128//130 127//131
f 129//133 127//131 130//134
f 131//135 129//133 130//134
f 131//135 130//134 132//136
f 133//137 131//135 132//136
f 133//137 132//136 134//138
f 133//137 134//138 135//139
f 136//140 133//137 135//139
f 136//140 135//139 137//141
f 138//142 136//140 137//141
f 138//142 137//141 139//143
f 138//142 139//143 140//144
f 141//145 138//142 140//144
f 141//145 140//144 142//146
f 143//147 141//145 142//146
f 143//147 142//146 144//148
f 145//149 143//147 144//148
f 145//149 144//148 146//150
f 145//149 146//150 147//151
f 148//152 145//149 147//151
f 148//152 147//151 149//153
f 127//131 126//132 150//154
f 130//134 127//131 150//154
f 132//136 130//134 150//154
f 134//138 132//136 150//154
f 135//139 134//138 150//154
f 137//141 135//139 150//154
f 139//143 137//141 150//154
f 140//144 139//143 150//154
f 142//146 140//144 150//154
f 144//148 142//146 150//154
f 146//150 144//148 150//154
f 147//151 146//150 150//154
f 149//153 147//151 150//154
f 153//155 151//157 152//156
f 153//155 152//156 154//158
f 155//159 153//155 154//158
f 155//159 154//158 156//160
f 157//161 155//159 156//160
f 157//161 156//160 158//162
f 157//161 158//162 159//163
f 160//164 157//161 159//163
f 160//164 159//163 161//165
f 162//166 160//164 161//165
f 162//166 161//165 163//167
f 164//168 162//166 163//167
f 164//168 163//167 165//169
f 166//170 164//168 165//169
f 166//170 165//169 167//171
f 154//158 152//156 128//130
f 154//158 128//130 129//133
f 156//160 154//158 129//133
f 156//160 129//133 131//135
f 158//162 156//160 131//135
f 158//162 131//135 133//137
f 158//162 133//137 136//140
f 159//163 158//162 136//140
f 159//163 136//140 138//142
f 161//165 159//163 138//142
f 161//165 138//142 141//145
f 163//167 161//165 141//145
f 163//167 141//145 143//147
f 165//169 163//167 143//147
f 165//169 143//147 145//149
f 167//171 165//169 145//149
f 167//171 145//149 148//152
f 170//172 168//174 169//173
f 170//172 169//173 171//175
f 172//176 170//172 171//175
f 172//176 171//175 173//177
f 174//178 172//176 173//177
f 174//178 173//177 175//179
f 174//178 175//179 176//180
f 177//181 174//178 176//180
f 177//181 176//180 178//182
f 179//183 177//181 178//182
f 179//183 178//182 180//184
f 181//185 179//183 180//184
f 181//185 180//184 182//186
f 153//155 169//173 151//157
f 171//175 169//173 153//155
f 155//159 171//175 153//155
f 173//177 171//175 155//159
f 157//161 173//177 155//159
f 175//179 173//177 157//161
f 160//164 175//179 157//161
f 176//180 175//179 160//164
f 162//166 176//180 160//164
f 178//182 176//180 162//166
f 164//168 178//182 162//166
f 180//184 178//182 164//168
f 166//170 180//184 164//168
f 182//186 180//184 166//170
f 185//187 183//189 184//188
f 186//190 183//189 185//187
f 187//191 186//190 185//187
f 188//192 186//190 187//191
f 189//193 188//192 187//191
f 190//194 188//192 189//193
f 191//195 190//194 189//193
f 192//196 190//194 191//195
f 193//197 192//196 191//195
f 194//198 192//196 193//197
f 195//199 194//198 193//197
f 196//200 194//198 195//199
f 170//172 184//188 168//174
f 185//187 184//188 170//172
f 172//176 185//187 170//172
f 187//191 185//187 172//176
f 174//178 187//191 172//176
f 189//193 187//191 174//178
f 177//181 189//193 174//178
f 191//195 189//193 177//181
f 179//183 191//195 177//181
f 193//197 191//195 179//183
f 181//185 193//197 179//183
f 195//199 193//197 181//185
f 199//201 197//203 198//202
f 200//204 197//203 199//201
f 201//205 200//204 199//201
f 202//206 200//204 201//205
f 203//207 202//206 201//205
f 204//208 202//206 203//207
f 205//209 204//208 203//207
f 206//210 204//208 205//209
f 207//211 206//210 205//209
f 208//212 206//210 207//211
f 209//213 208//212 207//211
f 210//214 208//212 209//213
f 186//190 198//202 183//189
f 199//201 198//202 186//190
f 188//192 199//201 186//190
f 201//205 199//201 188//192
f 190//194 201//205 188//192
f 203//207 201//205 190//194
f 192//196 203//207 190//194
f 205//209 203//207 192//196
f 194//198 205//209 192//196
f 207//211 205//209 194//198
f 196//200 207//211 194//198
f 209//213 207//211 196//200
f 200//204 120//124 197//203
f 125//129 120//124 200//204
f 202//206 125//129 200//204
f 124//128 125//129 202//206
f 204//208 124//128 202//206
f 123//127 124//128 204//208
f 206//210 123//127 204//208
f 122//126 123//127 206//210
f 208//212 122//126 206//210
f 121//125 122//126 208//212
f 210//214 121//125 208//212
f 211//215 121//125 210//214
f 21//24 20//25 64//65
f 22//17 21//24 64//65
f 96//15 22//17 64//65
