# Generated by Visualization Toolkit
v 0.031546998769044876 -0.13224999606609344 -0.04577400162816048
v 0.03090599924325943 -0.13172399997711182 -0.04671899974346161
v 0.03338399901986122 -0.13343000411987305 -0.046929001808166504
v 0.030091000720858574 -0.1302109956741333 -0.045145001262426376
v 0.030553000047802925 -0.13021500408649445 -0.04468800127506256
v 0.02998499944806099 -0.13061100244522095 -0.04560299962759018
v 0.03434300050139427 -0.13079899549484253 -0.04442499950528145
v 0.033132001757621765 -0.13320299983024597 -0.045935001224279404
v 0.03255600109696388 -0.13231800496578217 -0.05107000097632408
v 0.029922999441623688 -0.1305440068244934 -0.047012001276016235
v 0.03370099887251854 -0.13329699635505676 -0.045882001519203186
v 0.03328999876976013 -0.13300199806690216 -0.04884900152683258
v 0.03472999855875969 -0.13203799724578857 -0.048507001250982285
v 0.03502799943089485 -0.1326889991760254 -0.046250998973846436
v 0.028351999819278717 -0.12858200073242188 -0.04532099887728691
v 0.029851000756025314 -0.1292870044708252 -0.04469799995422363
v 0.030905000865459442 -0.12926100194454193 -0.0442270003259182
v 0.02615099959075451 -0.12734299898147583 -0.04806499928236008
v 0.03466099873185158 -0.13273100554943085 -0.045510001480579376
v 0.034821998327970505 -0.13187900185585022 -0.044982001185417175
v 0.033341001719236374 -0.1299149990081787 -0.044109001755714417
v 0.03201200067996979 -0.12936100363731384 -0.04400499910116196
v 0.034683000296354294 -0.13022500276565552 -0.0449099987745285
v 0.033590998500585556 -0.1326799988746643 -0.051343999803066254
v 0.029788000509142876 -0.1297069936990738 -0.049626000225543976
v 0.030513999983668327 -0.13006900250911713 -0.050693999975919724
v 0.03312300145626068 -0.1319960057735443 -0.05164499953389168
v 0.03460000082850456 -0.13047200441360474 -0.04818800091743469
v 0.03513700142502785 -0.13091400265693665 -0.04988599941134453
v 0.03447800129652023 -0.13206300139427185 -0.0515500009059906
v 0.03521899878978729 -0.13133099675178528 -0.04549200087785721
v 0.034999001771211624 -0.13056699931621552 -0.04667399823665619
v 0.02380100078880787 -0.12485100328922272 -0.044248998165130615
v 0.026190999895334244 -0.1261020004749298 -0.043914999812841415
v 0.02861800044775009 -0.12826499342918396 -0.04472300037741661
v 0.030401000753045082 -0.12848000228405 -0.04492799937725067
v 0.029354000464081764 -0.12757599353790283 -0.04460899904370308
v 0.03140399977564812 -0.12838399410247803 -0.04459900036454201
v 0.02658900059759617 -0.12648600339889526 -0.049550000578165054
v 0.02245499938726425 -0.12413299828767776 -0.04760799929499626
v 0.021730000153183937 -0.1233230009675026 -0.0482029989361763
v 0.020694000646471977 -0.12141100317239761 -0.04929099977016449
v 0.033309999853372574 -0.1290999948978424 -0.04436599835753441
v 0.03478199988603592 -0.13006499409675598 -0.046386998146772385
v 0.03348800167441368 -0.1289830058813095 -0.04608599841594696
v 0.034338001161813736 -0.13066299259662628 -0.051906999200582504
v 0.029500000178813934 -0.12879200279712677 -0.05021199956536293
v 0.03036399930715561 -0.12892700731754303 -0.050811998546123505
v 0.031156999990344048 -0.12939199805259705 -0.051284000277519226
v 0.031311001628637314 -0.13039599359035492 -0.051128000020980835
v 0.03449799865484238 -0.12955200672149658 -0.04962800070643425
v 0.03319400176405907 -0.12894099950790405 -0.047807998955249786
v 0.03483099862933159 -0.1309020072221756 -0.051545001566410065
v 0.034630000591278076 -0.1302179992198944 -0.05147299915552139
v 0.02443999983370304 -0.12432499974966049 -0.04289500042796135
v 0.020002000033855438 -0.12133999913930893 -0.04056699946522713
v 0.020997000858187675 -0.12091100215911865 -0.040010999888181686
v 0.01799900084733963 -0.12075100094079971 -0.04226300120353699
v 0.027767999097704887 -0.12654699385166168 -0.04409100115299225
v 0.030527999624609947 -0.12804600596427917 -0.04604800045490265
v 0.02321700006723404 -0.12167699635028839 -0.04945100098848343
v 0.02374899946153164 -0.12117800116539001 -0.04472300037741661
v 0.029923999682068825 -0.12744799256324768 -0.04874499887228012
v 0.02544499933719635 -0.12335000187158585 -0.04346099868416786
v 0.02928999997675419 -0.12796400487422943 -0.0500200018286705
v 0.028821999207139015 -0.12700000405311584 -0.04969999939203262
v 0.017660999670624733 -0.12101999670267105 -0.04619999974966049
v 0.01800299994647503 -0.11976700276136398 -0.04882099851965904
v 0.019077999517321587 -0.11946699768304825 -0.0496940016746521
v 0.02205199934542179 -0.1209620013833046 -0.049501001834869385
v 0.03377600014209747 -0.12963899970054626 -0.051819998770952225
v 0.031091999262571335 -0.12806500494480133 -0.05075100064277649
v 0.029791999608278275 -0.1277099996805191 -0.049828000366687775
v 0.03172500059008598 -0.12880800664424896 -0.05139400064945221
v 0.03269600123167038 -0.12893900275230408 -0.05158200114965439
v 0.03427699953317642 -0.12954699993133545 -0.05137699842453003
v 0.032701000571250916 -0.12846200168132782 -0.05103899911046028
v 0.02270900085568428 -0.12127099931240082 -0.04105300083756447
v 0.025141999125480652 -0.12396200001239777 -0.0428679995238781
v 0.01844000071287155 -0.11994100362062454 -0.0406700000166893
v 0.02021300047636032 -0.11999399960041046 -0.03951599821448326
v 0.021345000714063644 -0.11931700259447098 -0.0395830012857914
v 0.016517000272870064 -0.11980099976062775 -0.04438500106334686
v 0.01732500083744526 -0.11999800056219101 -0.04256699979305267
v 0.022064000368118286 -0.12021099776029587 -0.049293000251054764
v 0.021276000887155533 -0.11762899905443192 -0.04834200069308281
v 0.021669000387191772 -0.11721999943256378 -0.04151900112628937
v 0.02349499985575676 -0.12082699686288834 -0.042093999683856964
v 0.016457999125123024 -0.1193929985165596 -0.046473998576402664
v 0.01665700040757656 -0.11938600242137909 -0.0471160002052784
v 0.018130000680685043 -0.11833299696445465 -0.04943099990487099
v 0.017253000289201736 -0.11904100328683853 -0.048200998455286026
v 0.019740000367164612 -0.11877100169658661 -0.04977099969983101
v 0.020539000630378723 -0.11797399818897247 -0.04928699880838394
v 0.02209700085222721 -0.11894799768924713 -0.040146999061107635
v 0.020261000841856003 -0.11725600063800812 -0.041228998452425
v 0.019863000139594078 -0.11818400025367737 -0.03992699831724167
v 0.02027899958193302 -0.11772999912500381 -0.04334300011396408
v 0.019951000809669495 -0.11803799867630005 -0.04426199942827225
v 0.019631000235676765 -0.11898300051689148 -0.03936399891972542
v 0.01873300038278103 -0.11917900294065475 -0.04451800137758255
v 0.019406000152230263 -0.11879999935626984 -0.04424799978733063
v 0.020476000383496284 -0.1192609965801239 -0.03936399891972542
v 0.020729999989271164 -0.11855900287628174 -0.0395050011575222
v 0.01858299970626831 -0.11932799965143204 -0.04534199833869934
v 0.019499000161886215 -0.11686000227928162 -0.048670001327991486
v 0.019664999097585678 -0.11629600077867508 -0.047603998333215714
v 0.020245999097824097 -0.11615800112485886 -0.04315200075507164
v 0.021376999095082283 -0.11795199662446976 -0.04013799875974655
v 0.020539000630378723 -0.11647800356149673 -0.041843999177217484
v 0.02052599936723709 -0.11699499934911728 -0.04086799919605255
v 0.018056999891996384 -0.11892499774694443 -0.047231998294591904
v 0.01851700060069561 -0.11742199957370758 -0.0490569993853569
v 0.01942799985408783 -0.11814100295305252 -0.04651099815964699
v 0.020225999876856804 -0.11721699684858322 -0.04036499932408333
v 0.020109999924898148 -0.11760099977254868 -0.04397900030016899
v 0.01949699968099594 -0.11836200207471848 -0.044610001146793365
v 0.01988000050187111 -0.11712200194597244 -0.044488999992609024
v 0.019860999658703804 -0.1180189996957779 -0.0449099987745285
v 0.019308999180793762 -0.11883799731731415 -0.044923000037670135
f 1 2 3
f 4 1 5
f 1 6 2
f 7 1 8
f 5 1 7
f 3 8 1
f 6 1 4
f 3 2 9
f 9 2 10
f 6 10 2
f 3 11 8
f 12 3 9
f 12 13 3
f 13 14 3
f 14 11 3
f 15 4 16
f 5 16 4
f 6 4 15
f 16 5 17
f 17 5 7
f 18 10 6
f 6 15 18
f 8 11 7
f 11 19 7
f 19 20 7
f 21 22 7
f 22 17 7
f 7 23 21
f 23 7 20
f 9 24 12
f 10 25 9
f 26 9 25
f 27 9 26
f 27 24 9
f 18 25 10
f 14 19 11
f 13 12 24
f 14 13 28
f 13 29 28
f 29 13 30
f 13 24 30
f 31 19 14
f 31 14 32
f 32 14 28
f 33 15 34
f 33 18 15
f 16 35 15
f 35 34 15
f 36 37 16
f 35 16 37
f 17 36 16
f 38 17 22
f 36 17 38
f 25 18 39
f 18 33 40
f 41 18 40
f 39 18 42
f 18 41 42
f 31 20 19
f 31 23 20
f 22 21 43
f 21 23 43
f 22 43 38
f 44 45 23
f 23 31 44
f 43 23 45
f 24 46 30
f 27 46 24
f 39 47 25
f 48 26 25
f 25 47 48
f 49 50 26
f 49 26 48
f 50 27 26
f 50 46 27
f 29 51 28
f 28 51 52
f 44 28 45
f 28 52 45
f 44 32 28
f 53 54 29
f 29 54 51
f 53 29 30
f 53 30 46
f 32 44 31
f 55 33 34
f 56 33 57
f 57 33 55
f 33 56 58
f 40 33 58
f 34 35 59
f 34 59 55
f 37 59 35
f 36 60 37
f 36 38 60
f 37 61 62
f 63 61 37
f 37 60 63
f 37 62 64
f 64 59 37
f 63 38 43
f 63 60 38
f 39 65 47
f 42 66 39
f 39 66 65
f 67 41 40
f 58 67 40
f 68 41 67
f 42 41 68
f 42 68 69
f 42 69 70
f 42 70 61
f 61 66 42
f 43 45 63
f 45 52 63
f 46 50 71
f 71 54 46
f 53 46 54
f 65 48 47
f 72 49 48
f 73 72 48
f 73 48 65
f 49 72 74
f 50 49 74
f 75 50 74
f 71 50 75
f 51 54 76
f 76 77 51
f 77 52 51
f 63 52 77
f 71 76 54
f 57 55 78
f 79 78 55
f 59 79 55
f 80 58 56
f 80 56 81
f 56 57 81
f 81 57 82
f 57 78 82
f 67 58 83
f 58 84 83
f 84 58 80
f 64 79 59
f 85 61 70
f 66 61 63
f 61 85 62
f 62 85 86
f 87 62 86
f 62 88 64
f 87 88 62
f 63 77 73
f 73 66 63
f 78 79 64
f 64 88 78
f 66 73 65
f 67 83 89
f 90 68 67
f 90 67 89
f 91 68 92
f 90 92 68
f 91 69 68
f 69 91 93
f 70 69 93
f 70 94 85
f 70 93 94
f 71 75 76
f 72 77 74
f 72 73 77
f 77 75 74
f 77 76 75
f 95 78 88
f 82 78 95
f 96 80 97
f 80 98 99
f 97 80 100
f 80 81 100
f 101 84 80
f 98 80 96
f 101 80 102
f 99 102 80
f 103 100 81
f 81 82 103
f 103 82 104
f 104 82 95
f 83 84 89
f 84 105 89
f 101 105 84
f 86 85 94
f 106 86 94
f 86 106 107
f 107 108 86
f 86 108 87
f 87 109 95
f 110 87 108
f 95 88 87
f 109 87 111
f 110 111 87
f 89 112 90
f 105 112 89
f 112 92 90
f 93 91 113
f 112 91 92
f 112 114 91
f 114 113 91
f 113 94 93
f 106 94 113
f 104 95 109
f 110 98 96
f 110 96 111
f 115 111 96
f 96 97 115
f 100 103 97
f 103 115 97
f 98 116 99
f 110 108 98
f 116 98 108
f 102 99 117
f 116 118 99
f 119 99 118
f 99 119 117
f 105 101 102
f 102 120 105
f 120 102 117
f 103 104 115
f 104 109 115
f 114 112 105
f 114 105 120
f 107 106 114
f 106 113 114
f 108 107 118
f 107 114 119
f 118 107 119
f 116 108 118
f 111 115 109
f 114 120 117
f 119 114 117
