# Generated by Visualization Toolkit
v 0.015775000676512718 -0.11621200293302536 0.04041900113224983
v 0.01796399988234043 -0.11511199921369553 0.038993000984191895
v 0.017103999853134155 -0.11880099773406982 0.04069799929857254
v 0.0125749995931983 -0.11661899834871292 0.04067999869585037
v 0.01621999964118004 -0.11348000168800354 0.03864699974656105
v 0.012883000075817108 -0.11309099942445755 0.03916599974036217
v 0.018000999465584755 -0.11769499629735947 0.04008999839425087
v 0.018410999327898026 -0.11354999989271164 0.03946699947118759
v 0.0192050002515316 -0.11538299918174744 0.04007500037550926
v 0.013766000047326088 -0.11836999654769897 0.04103200137615204
v 0.01525299996137619 -0.11912000179290771 0.04102500155568123
v 0.017520999535918236 -0.11884500086307526 0.04171400144696236
v 0.013067999854683876 -0.1177389994263649 0.04166200011968613
v 0.008725999854505062 -0.10910899937152863 0.040509000420570374
v 0.01444500032812357 -0.11258800327777863 0.03884299844503403
v 0.013759000226855278 -0.11284799873828888 0.038864001631736755
v 0.016334999352693558 -0.11218199878931046 0.039608001708984375
v 0.014550999738276005 -0.1120539978146553 0.039767999202013016
v 0.009335000067949295 -0.1065329983830452 0.038169000297784805
v 0.01028900034725666 -0.10641399770975113 0.03815599903464317
v 0.018897999078035355 -0.11715299636125565 0.04076699912548065
v 0.018590999767184258 -0.1134369969367981 0.04178300127387047
v 0.019332999363541603 -0.11521299928426743 0.04213099926710129
v 0.013584000058472157 -0.11833299696445465 0.04168400168418884
v 0.014898999594151974 -0.11912599951028824 0.04250200092792511
v 0.018888000398874283 -0.11672999709844589 0.042743001133203506
v 0.017059000208973885 -0.11785899847745895 0.04467200115323067
v 0.014928000047802925 -0.11840099841356277 0.044815000146627426
v 0.013066999614238739 -0.11736399680376053 0.04234899953007698
v 0.004112000111490488 -0.10262399911880493 0.04153800010681152
v 0.002862999914214015 -0.09794999659061432 0.03787500038743019
v 0.0072639998979866505 -0.10182300209999084 0.037071000784635544
v 0.012695999816060066 -0.11679700016975403 0.04447900131344795
v 0.016820000484585762 -0.11209599673748016 0.04144100099802017
v 0.015110000036656857 -0.11148600280284882 0.04154299944639206
v 0.012171999551355839 -0.10777699947357178 0.038878001272678375
v 0.01016900036484003 -0.10395800322294235 0.037438999861478806
v 0.01806800067424774 -0.11327599734067917 0.04402000084519386
v 0.01856900006532669 -0.11565600335597992 0.044411998242139816
v 0.013379000127315521 -0.11823900043964386 0.042493000626564026
v 0.013914999552071095 -0.1180810034275055 0.044721998274326324
v 0.01876400038599968 -0.11636599898338318 0.04659099876880646
v 0.017116999253630638 -0.11793799698352814 0.04737500101327896
v 0.016106000170111656 -0.11823400110006332 0.047634001821279526
v 0.014876999892294407 -0.11845800280570984 0.045983001589775085
v 0.0022440000902861357 -0.09800899773836136 0.038968998938798904
v 0.006262000184506178 -0.10471600294113159 0.044078998267650604
v 0.0020439999643713236 -0.09790199995040894 0.041161999106407166
v 0.00546600017696619 -0.0970500037074089 0.03534499928355217
v 0.000493000028654933 -0.09477599710226059 0.036093998700380325
v 0.00004199999966658652 -0.09468699991703033 0.037365999072790146
v 0.0092569999396801 -0.10160999745130539 0.0370590016245842
v 0.013968000188469887 -0.11731699854135513 0.0477290004491806
v 0.01258500013500452 -0.11431699991226196 0.04665699973702431
v 0.012198000214993954 -0.11279900372028351 0.04686100035905838
v 0.01720299944281578 -0.11262500286102295 0.04390399903059006
v 0.009681000374257565 -0.10204199701547623 0.04585999995470047
v 0.014818999916315079 -0.11071900278329849 0.045572999864816666
v 0.01913600042462349 -0.11441700160503387 0.04640299826860428
v 0.017463000491261482 -0.11226899921894073 0.04826200008392334
v 0.018247000873088837 -0.1162479966878891 0.048712000250816345
v 0.017633000388741493 -0.11700399965047836 0.048530999571084976
v 0.015166000463068485 -0.11809200048446655 0.04814299941062927
v 0.016036000102758408 -0.11794999986886978 0.04823800176382065
v -0.0009720000089146197 -0.0908140018582344 0.042413998395204544
v 0.009650999680161476 -0.10725100338459015 0.046525999903678894
v 0.0023270000237971544 -0.09252200275659561 0.04409699887037277
v -0.0023219999857246876 -0.09013999998569489 0.0384799987077713
v -0.0015790000325068831 -0.09127900004386902 0.040130000561475754
v 0.0034169999416917562 -0.09149400144815445 0.03217199817299843
v 0.0005150000215508044 -0.09333699941635132 0.03517699986696243
v 0.006105000153183937 -0.09314700216054916 0.033948998898267746
v 0.0072119999676942825 -0.09658700227737427 0.035468000918626785
v -0.0005579999997280538 -0.09347400069236755 0.03683900088071823
v 0.007639999967068434 -0.09421099722385406 0.04256699979305267
v 0.007693000137805939 -0.09182900190353394 0.03517499938607216
v 0.012643000110983849 -0.1143999993801117 0.047224000096321106
v 0.015041000209748745 -0.11705199629068375 0.04867599904537201
v 0.012400999665260315 -0.113086998462677 0.04732999950647354
v 0.012134999968111515 -0.11174900084733963 0.04729500040411949
v 0.012501000426709652 -0.11189299821853638 0.047704000025987625
v 0.013682999648153782 -0.11033499985933304 0.04709000140428543
v 0.006777000147849321 -0.09501100331544876 0.04462900012731552
v 0.015306999906897545 -0.11074300110340118 0.04779500141739845
v 0.018689999356865883 -0.11432100087404251 0.04866499826312065
v 0.01679999940097332 -0.11265400052070618 0.04892199859023094
v 0.017712999135255814 -0.11580400168895721 0.049268998205661774
v -0.0017059999518096447 -0.08903499692678452 0.04214699938893318
v 0.0010339999571442604 -0.09015499800443649 0.04435399919748306
v 0.012450999580323696 -0.11096099764108658 0.04771199822425842
v 0.004728999920189381 -0.09180200099945068 0.04446600005030632
v -0.0005460000247694552 -0.09148500114679337 0.034049998968839645
v -0.002245000097900629 -0.09003700315952301 0.03999900072813034
v -0.00203699991106987 -0.08704199641942978 0.04116399958729744
v -0.0021470000501722097 -0.08776800334453583 0.03925099968910217
v -0.002128999913111329 -0.08849000185728073 0.04063799977302551
v -0.0017049999441951513 -0.08750999718904495 0.03587900102138519
v -0.0017389999702572823 -0.08945100009441376 0.041147999465465546
v 0.0011249999515712261 -0.09047800302505493 0.031651999801397324
v 0.003111999947577715 -0.0906360000371933 0.03138900175690651
v 0.004974000155925751 -0.0881740003824234 0.030970999971032143
v 0.006874999962747097 -0.09002599865198135 0.03301599994301796
v 0.0077309999614953995 -0.08661200106143951 0.03409799933433533
v 0.005654999986290932 -0.09152600169181824 0.04435500130057335
v 0.0061160000041127205 -0.08538799732923508 0.04365500062704086
v 0.013267000205814838 -0.1137010008096695 0.047974999994039536
v 0.013593999668955803 -0.11191000044345856 0.04837999865412712
v 0.017896000295877457 -0.1142520010471344 0.049258001148700714
v -0.001534000039100647 -0.08578299731016159 0.04238399863243103
v -0.0011109999613836408 -0.08738899976015091 0.043515000492334366
v 0.002087000058963895 -0.08862899988889694 0.04505399987101555
v 0.0006949999951757491 -0.08957699686288834 0.03156999871134758
v -0.0003060000017285347 -0.08410900086164474 0.04332200065255165
v 0.005781999789178371 -0.08361200243234634 0.0346749983727932
v 0.00007599999662488699 -0.08725900202989578 0.032333001494407654
v 0.001108999946154654 -0.08566299825906754 0.032572001218795776
v 0.001711999997496605 -0.08958099782466888 0.031011000275611877
v 0.002581000095233321 -0.08882799744606018 0.030604999512434006
v 0.005942000076174736 -0.08559899777173996 0.031619999557733536
v 0.004393999930471182 -0.08636800199747086 0.030926000326871872
v 0.006500000134110451 -0.08778999745845795 0.03179499879479408
v 0.007129000034183264 -0.08484400063753128 0.033918000757694244
v 0.003512999974191189 -0.08354199677705765 0.044498998671770096
v 0.005148999858647585 -0.08361399918794632 0.0434579998254776
v 0.006630000192672014 -0.08429499715566635 0.03635599836707115
v 0.0002300000051036477 -0.0852930024266243 0.04442699998617172
v 0.002563999965786934 -0.08381599932909012 0.04464900121092796
v 0.0014260000316426158 -0.08869300037622452 0.031029000878334045
v 0.002827000105753541 -0.082566998898983 0.04215399920940399
v 0.0010760000441223383 -0.08317500352859497 0.04364600032567978
v 0.003969000186771154 -0.0843380019068718 0.03304300084710121
v 0.005016000010073185 -0.08308900147676468 0.03821999952197075
v 0.005061999894678593 -0.08412300050258636 0.032882001250982285
v 0.0010890000266954303 -0.08691500127315521 0.03177500143647194
v 0.003836000105366111 -0.0847489982843399 0.031964998692274094
v 0.0027459999546408653 -0.08262699842453003 0.043490998446941376
v 0.003949000034481287 -0.08271300047636032 0.04254499822854996
f 1 2 3
f 3 4 1
f 2 1 5
f 1 6 5
f 1 4 6
f 3 2 7
f 8 2 5
f 8 9 2
f 7 2 9
f 3 10 4
f 3 11 10
f 11 3 12
f 12 3 7
f 4 10 13
f 14 4 13
f 6 4 14
f 15 5 16
f 5 15 17
f 16 5 6
f 5 17 8
f 6 18 16
f 14 19 6
f 20 6 19
f 20 18 6
f 7 9 21
f 12 7 21
f 22 9 8
f 22 8 17
f 9 22 23
f 23 21 9
f 13 10 24
f 24 10 11
f 24 11 25
f 25 11 12
f 26 12 21
f 26 27 12
f 28 12 27
f 25 12 28
f 29 13 24
f 29 14 13
f 14 30 31
f 14 32 19
f 32 14 31
f 33 14 29
f 14 33 30
f 16 18 15
f 17 15 18
f 34 22 17
f 35 17 18
f 17 35 34
f 35 18 36
f 20 36 18
f 19 37 20
f 37 19 32
f 20 37 36
f 21 23 26
f 34 38 22
f 23 22 38
f 39 26 23
f 39 23 38
f 24 40 29
f 24 25 40
f 41 40 25
f 25 28 41
f 39 27 26
f 39 42 27
f 43 27 42
f 44 45 27
f 43 44 27
f 27 45 28
f 45 41 28
f 29 40 33
f 31 30 46
f 47 48 30
f 48 46 30
f 47 30 33
f 32 31 49
f 49 31 50
f 31 46 51
f 50 31 51
f 32 49 52
f 52 37 32
f 53 54 33
f 40 53 33
f 55 47 33
f 33 54 55
f 56 34 35
f 34 56 38
f 35 57 58
f 57 35 36
f 56 35 58
f 57 36 52
f 36 37 52
f 38 59 39
f 56 60 38
f 59 38 60
f 39 59 42
f 53 40 41
f 45 53 41
f 59 61 42
f 43 42 61
f 62 44 43
f 62 43 61
f 45 44 63
f 44 62 64
f 63 44 64
f 53 45 63
f 46 48 51
f 48 47 65
f 66 57 47
f 67 65 47
f 47 57 67
f 66 47 55
f 51 48 68
f 48 69 68
f 69 48 65
f 70 49 71
f 49 50 71
f 49 70 72
f 49 72 73
f 52 49 73
f 74 71 50
f 50 51 74
f 74 51 68
f 75 52 76
f 52 75 57
f 76 52 73
f 77 54 53
f 77 53 78
f 53 63 78
f 79 54 77
f 54 79 55
f 80 66 55
f 55 79 81
f 80 55 81
f 60 56 58
f 82 58 57
f 83 67 57
f 66 82 57
f 83 57 75
f 84 60 58
f 58 82 84
f 85 61 59
f 59 60 85
f 60 86 85
f 86 60 84
f 85 87 61
f 87 62 61
f 87 64 62
f 63 64 78
f 64 87 78
f 69 65 88
f 88 65 89
f 89 65 67
f 80 90 66
f 90 82 66
f 83 91 67
f 67 91 89
f 74 68 92
f 69 93 68
f 94 95 68
f 96 68 93
f 96 94 68
f 97 68 95
f 97 92 68
f 88 98 69
f 98 93 69
f 70 71 99
f 99 100 70
f 70 100 101
f 102 70 101
f 102 72 70
f 71 74 92
f 92 99 71
f 73 72 76
f 76 72 102
f 75 76 103
f 83 75 104
f 105 104 75
f 103 105 75
f 103 76 102
f 81 79 77
f 77 78 106
f 81 77 106
f 106 78 87
f 80 81 90
f 107 90 81
f 107 81 106
f 90 84 82
f 91 83 104
f 90 107 84
f 84 107 86
f 85 86 108
f 87 85 108
f 86 106 108
f 86 107 106
f 106 87 108
f 96 88 94
f 88 109 94
f 96 98 88
f 89 110 88
f 88 110 109
f 91 111 89
f 111 110 89
f 104 111 91
f 99 92 112
f 112 92 97
f 93 98 96
f 95 94 109
f 109 113 95
f 114 97 95
f 113 114 95
f 115 112 97
f 114 116 97
f 115 97 116
f 99 112 117
f 117 100 99
f 118 100 117
f 101 100 118
f 119 101 120
f 121 102 101
f 120 101 118
f 101 119 121
f 121 103 102
f 122 105 103
f 121 122 103
f 104 105 123
f 111 104 123
f 105 124 123
f 105 125 124
f 125 105 122
f 109 110 113
f 113 110 126
f 111 126 110
f 126 111 127
f 111 123 127
f 112 115 128
f 117 112 128
f 114 113 129
f 126 130 113
f 113 130 129
f 114 131 116
f 132 122 114
f 122 133 114
f 129 132 114
f 131 114 133
f 134 115 116
f 128 115 134
f 134 116 135
f 131 135 116
f 117 128 118
f 134 118 128
f 118 134 120
f 135 119 120
f 119 135 133
f 121 119 122
f 133 122 119
f 135 120 134
f 122 132 125
f 123 130 127
f 130 123 136
f 123 137 136
f 137 123 124
f 125 137 124
f 137 125 132
f 126 127 130
f 136 129 130
f 136 137 129
f 129 137 132
f 131 133 135
