# Generated by Visualization Toolkit
v 0.017103999853134155 -0.11880099773406982 -0.04069799929857254
v 0.01796399988234043 -0.11511199921369553 -0.038993000984191895
v 0.015775000676512718 -0.11621200293302536 -0.04041900113224983
v 0.0125749995931983 -0.11661899834871292 -0.04067999869585037
v 0.013766000047326088 -0.11836999654769897 -0.04103200137615204
v 0.01525299996137619 -0.11912000179290771 -0.04102500155568123
v 0.018000999465584755 -0.11769499629735947 -0.04008999839425087
v 0.017520999535918236 -0.11884500086307526 -0.04171400144696236
v 0.01621999964118004 -0.11348000168800354 -0.03864699974656105
v 0.018410999327898026 -0.11354999989271164 -0.03946699947118759
v 0.0192050002515316 -0.11538299918174744 -0.04007500037550926
v 0.012883000075817108 -0.11309099942445755 -0.03916599974036217
v 0.013067999854683876 -0.1177389994263649 -0.04166200011968613
v 0.008725999854505062 -0.10910899937152863 -0.040509000420570374
v 0.013584000058472157 -0.11833299696445465 -0.04168400168418884
v 0.014898999594151974 -0.11912599951028824 -0.04250200092792511
v 0.018897999078035355 -0.11715299636125565 -0.04076699912548065
v 0.018888000398874283 -0.11672999709844589 -0.042743001133203506
v 0.017059000208973885 -0.11785899847745895 -0.04467200115323067
v 0.014928000047802925 -0.11840099841356277 -0.044815000146627426
v 0.013759000226855278 -0.11284799873828888 -0.038864001631736755
v 0.01444500032812357 -0.11258800327777863 -0.03884299844503403
v 0.016334999352693558 -0.11218199878931046 -0.039608001708984375
v 0.018590999767184258 -0.1134369969367981 -0.04178300127387047
v 0.019332999363541603 -0.11521299928426743 -0.04213099926710129
v 0.014550999738276005 -0.1120539978146553 -0.039767999202013016
v 0.009335000067949295 -0.1065329983830452 -0.038169000297784805
v 0.01028900034725666 -0.10641399770975113 -0.03815599903464317
v 0.013066999614238739 -0.11736399680376053 -0.04234899953007698
v 0.002862999914214015 -0.09794999659061432 -0.03787500038743019
v 0.004112000111490488 -0.10262399911880493 -0.04153800010681152
v 0.0072639998979866505 -0.10182300209999084 -0.037071000784635544
v 0.012695999816060066 -0.11679700016975403 -0.04447900131344795
v 0.013379000127315521 -0.11823900043964386 -0.042493000626564026
v 0.013914999552071095 -0.1180810034275055 -0.044721998274326324
v 0.01856900006532669 -0.11565600335597992 -0.044411998242139816
v 0.01876400038599968 -0.11636599898338318 -0.04659099876880646
v 0.017116999253630638 -0.11793799698352814 -0.04737500101327896
v 0.014876999892294407 -0.11845800280570984 -0.045983001589775085
v 0.016106000170111656 -0.11823400110006332 -0.047634001821279526
v 0.016820000484585762 -0.11209599673748016 -0.04144100099802017
v 0.015110000036656857 -0.11148600280284882 -0.04154299944639206
v 0.01806800067424774 -0.11327599734067917 -0.04402000084519386
v 0.012171999551355839 -0.10777699947357178 -0.038878001272678375
v 0.01016900036484003 -0.10395800322294235 -0.037438999861478806
v 0.00546600017696619 -0.0970500037074089 -0.03534499928355217
v 0.000493000028654933 -0.09477599710226059 -0.036093998700380325
v 0.0022440000902861357 -0.09800899773836136 -0.038968998938798904
v 0.00004199999966658652 -0.09468699991703033 -0.037365999072790146
v 0.0020439999643713236 -0.09790199995040894 -0.041161999106407166
v 0.006262000184506178 -0.10471600294113159 -0.044078998267650604
v 0.0092569999396801 -0.10160999745130539 -0.0370590016245842
v 0.01258500013500452 -0.11431699991226196 -0.04665699973702431
v 0.013968000188469887 -0.11731699854135513 -0.0477290004491806
v 0.012198000214993954 -0.11279900372028351 -0.04686100035905838
v 0.01913600042462349 -0.11441700160503387 -0.04640299826860428
v 0.018247000873088837 -0.1162479966878891 -0.048712000250816345
v 0.017633000388741493 -0.11700399965047836 -0.048530999571084976
v 0.015166000463068485 -0.11809200048446655 -0.04814299941062927
v 0.016036000102758408 -0.11794999986886978 -0.04823800176382065
v 0.01720299944281578 -0.11262500286102295 -0.04390399903059006
v 0.014818999916315079 -0.11071900278329849 -0.045572999864816666
v 0.009681000374257565 -0.10204199701547623 -0.04585999995470047
v 0.017463000491261482 -0.11226899921894073 -0.04826200008392334
v 0.0005150000215508044 -0.09333699941635132 -0.03517699986696243
v 0.0034169999416917562 -0.09149400144815445 -0.03217199817299843
v 0.006105000153183937 -0.09314700216054916 -0.033948998898267746
v 0.0072119999676942825 -0.09658700227737427 -0.035468000918626785
v -0.0005579999997280538 -0.09347400069236755 -0.03683900088071823
v -0.0023219999857246876 -0.09013999998569489 -0.0384799987077713
v -0.0015790000325068831 -0.09127900004386902 -0.040130000561475754
v -0.0009720000089146197 -0.0908140018582344 -0.042413998395204544
v 0.009650999680161476 -0.10725100338459015 -0.046525999903678894
v 0.0023270000237971544 -0.09252200275659561 -0.04409699887037277
v 0.007693000137805939 -0.09182900190353394 -0.03517499938607216
v 0.007639999967068434 -0.09421099722385406 -0.04256699979305267
v 0.012643000110983849 -0.1143999993801117 -0.047224000096321106
v 0.012400999665260315 -0.113086998462677 -0.04732999950647354
v 0.015041000209748745 -0.11705199629068375 -0.04867599904537201
v 0.012134999968111515 -0.11174900084733963 -0.04729500040411949
v 0.012501000426709652 -0.11189299821853638 -0.047704000025987625
v 0.018689999356865883 -0.11432100087404251 -0.04866499826312065
v 0.017712999135255814 -0.11580400168895721 -0.049268998205661774
v 0.013682999648153782 -0.11033499985933304 -0.04709000140428543
v 0.015306999906897545 -0.11074300110340118 -0.04779500141739845
v 0.006777000147849321 -0.09501100331544876 -0.04462900012731552
v 0.01679999940097332 -0.11265400052070618 -0.04892199859023094
v 0.0011249999515712261 -0.09047800302505493 -0.031651999801397324
v -0.0005460000247694552 -0.09148500114679337 -0.034049998968839645
v 0.003111999947577715 -0.0906360000371933 -0.03138900175690651
v 0.004974000155925751 -0.0881740003824234 -0.030970999971032143
v 0.006874999962747097 -0.09002599865198135 -0.03301599994301796
v -0.002245000097900629 -0.09003700315952301 -0.03999900072813034
v -0.0021470000501722097 -0.08776800334453583 -0.03925099968910217
v -0.00203699991106987 -0.08704199641942978 -0.04116399958729744
v -0.002128999913111329 -0.08849000185728073 -0.04063799977302551
v -0.0017049999441951513 -0.08750999718904495 -0.03587900102138519
v -0.0017389999702572823 -0.08945100009441376 -0.041147999465465546
v -0.0017059999518096447 -0.08903499692678452 -0.04214699938893318
v 0.0010339999571442604 -0.09015499800443649 -0.04435399919748306
v 0.012450999580323696 -0.11096099764108658 -0.04771199822425842
v 0.004728999920189381 -0.09180200099945068 -0.04446600005030632
v 0.0077309999614953995 -0.08661200106143951 -0.03409799933433533
v 0.005654999986290932 -0.09152600169181824 -0.04435500130057335
v 0.0061160000041127205 -0.08538799732923508 -0.04365500062704086
v 0.013267000205814838 -0.1137010008096695 -0.047974999994039536
v 0.013593999668955803 -0.11191000044345856 -0.04837999865412712
v 0.017896000295877457 -0.1142520010471344 -0.049258001148700714
v 0.0006949999951757491 -0.08957699686288834 -0.03156999871134758
v 0.001711999997496605 -0.08958099782466888 -0.031011000275611877
v 0.002581000095233321 -0.08882799744606018 -0.030604999512434006
v 0.004393999930471182 -0.08636800199747086 -0.030926000326871872
v 0.005942000076174736 -0.08559899777173996 -0.031619999557733536
v 0.006500000134110451 -0.08778999745845795 -0.03179499879479408
v -0.0003060000017285347 -0.08410900086164474 -0.04332200065255165
v -0.001534000039100647 -0.08578299731016159 -0.04238399863243103
v 0.005781999789178371 -0.08361200243234634 -0.0346749983727932
v 0.00007599999662488699 -0.08725900202989578 -0.032333001494407654
v 0.001108999946154654 -0.08566299825906754 -0.032572001218795776
v -0.0011109999613836408 -0.08738899976015091 -0.043515000492334366
v 0.002087000058963895 -0.08862899988889694 -0.04505399987101555
v 0.007129000034183264 -0.08484400063753128 -0.033918000757694244
v 0.003512999974191189 -0.08354199677705765 -0.044498998671770096
v 0.005148999858647585 -0.08361399918794632 -0.0434579998254776
v 0.006630000192672014 -0.08429499715566635 -0.03635599836707115
v 0.0014260000316426158 -0.08869300037622452 -0.031029000878334045
v 0.0010890000266954303 -0.08691500127315521 -0.03177500143647194
v 0.003836000105366111 -0.0847489982843399 -0.031964998692274094
v 0.005061999894678593 -0.08412300050258636 -0.032882001250982285
v 0.002827000105753541 -0.082566998898983 -0.04215399920940399
v 0.0002300000051036477 -0.0852930024266243 -0.04442699998617172
v 0.0010760000441223383 -0.08317500352859497 -0.04364600032567978
v 0.003969000186771154 -0.0843380019068718 -0.03304300084710121
v 0.005016000010073185 -0.08308900147676468 -0.03821999952197075
v 0.002563999965786934 -0.08381599932909012 -0.04464900121092796
v 0.0027459999546408653 -0.08262699842453003 -0.043490998446941376
v 0.003949000034481287 -0.08271300047636032 -0.04254499822854996
f 1 2 3
f 3 4 1
f 4 5 1
f 5 6 1
f 7 2 1
f 8 1 6
f 7 1 8
f 9 3 2
f 9 2 10
f 2 11 10
f 11 2 7
f 9 12 3
f 12 4 3
f 13 5 4
f 13 4 14
f 14 4 12
f 15 5 13
f 6 5 15
f 16 6 15
f 8 6 16
f 17 11 7
f 17 7 8
f 17 8 18
f 8 19 18
f 19 8 20
f 20 8 16
f 21 9 22
f 23 22 9
f 12 9 21
f 10 23 9
f 10 11 24
f 23 10 24
f 25 24 11
f 11 17 25
f 21 26 12
f 12 27 14
f 27 12 28
f 12 26 28
f 15 13 29
f 13 14 29
f 30 31 14
f 27 32 14
f 30 14 32
f 29 14 33
f 31 33 14
f 29 34 15
f 34 16 15
f 16 34 35
f 35 20 16
f 18 25 17
f 18 19 36
f 25 18 36
f 19 37 36
f 37 19 38
f 19 39 40
f 19 40 38
f 20 39 19
f 20 35 39
f 22 26 21
f 26 22 23
f 23 24 41
f 26 23 42
f 41 42 23
f 24 43 41
f 43 24 25
f 43 25 36
f 44 26 42
f 26 44 28
f 28 45 27
f 32 27 45
f 44 45 28
f 33 34 29
f 46 30 32
f 47 30 46
f 48 31 30
f 49 48 30
f 49 30 47
f 31 50 51
f 31 48 50
f 33 31 51
f 52 46 32
f 32 45 52
f 33 53 54
f 33 54 34
f 33 51 55
f 55 53 33
f 35 34 54
f 35 54 39
f 37 56 36
f 36 56 43
f 37 57 56
f 57 37 38
f 38 40 58
f 57 38 58
f 59 39 54
f 59 40 39
f 60 58 40
f 60 40 59
f 42 41 61
f 43 61 41
f 62 63 42
f 44 42 63
f 62 42 61
f 43 64 61
f 64 43 56
f 52 44 63
f 52 45 44
f 65 46 66
f 65 47 46
f 67 66 46
f 68 67 46
f 68 46 52
f 47 65 69
f 69 49 47
f 49 50 48
f 70 49 69
f 70 50 49
f 70 71 50
f 72 51 50
f 72 50 71
f 51 63 73
f 51 72 74
f 74 63 51
f 55 51 73
f 75 52 76
f 63 76 52
f 68 52 75
f 77 53 78
f 54 53 77
f 55 78 53
f 79 54 77
f 79 59 54
f 55 73 80
f 81 78 55
f 81 55 80
f 56 57 82
f 82 64 56
f 57 83 82
f 57 58 83
f 58 60 83
f 79 60 59
f 79 83 60
f 62 61 64
f 63 62 84
f 62 64 85
f 85 84 62
f 63 74 86
f 63 84 73
f 76 63 86
f 82 87 64
f 85 64 87
f 88 65 66
f 89 69 65
f 65 88 89
f 66 90 88
f 91 90 66
f 91 66 92
f 66 67 92
f 75 67 68
f 92 67 75
f 89 70 69
f 70 93 71
f 70 94 95
f 93 70 96
f 70 95 96
f 94 70 97
f 70 89 97
f 71 98 99
f 71 93 98
f 99 72 71
f 100 72 99
f 74 72 100
f 73 101 80
f 73 84 101
f 74 102 86
f 100 102 74
f 103 75 76
f 92 75 103
f 104 76 86
f 76 104 105
f 76 105 103
f 77 78 81
f 106 79 77
f 106 77 81
f 83 79 106
f 101 81 80
f 81 101 107
f 106 81 107
f 108 87 82
f 108 82 83
f 108 83 106
f 84 85 101
f 85 107 101
f 87 107 85
f 104 86 102
f 108 106 87
f 106 107 87
f 109 89 88
f 110 109 88
f 88 90 110
f 97 89 109
f 110 90 111
f 111 90 91
f 112 91 113
f 91 92 114
f 111 91 112
f 114 113 91
f 92 103 114
f 96 98 93
f 94 115 116
f 116 95 94
f 94 97 117
f 94 117 115
f 95 99 96
f 95 116 99
f 99 98 96
f 97 109 118
f 97 119 117
f 119 97 118
f 99 120 100
f 116 120 99
f 100 121 102
f 100 120 121
f 102 121 104
f 103 105 122
f 103 122 114
f 123 105 104
f 123 104 121
f 123 124 105
f 124 125 105
f 122 105 125
f 126 118 109
f 126 109 110
f 111 126 110
f 126 111 127
f 112 127 111
f 127 112 128
f 112 113 128
f 129 128 113
f 122 113 114
f 113 122 129
f 115 120 116
f 130 115 117
f 131 120 115
f 115 132 131
f 130 132 115
f 119 133 117
f 117 122 134
f 117 129 122
f 117 134 130
f 129 117 133
f 119 118 127
f 127 118 126
f 128 119 127
f 119 128 133
f 120 131 121
f 135 121 131
f 135 123 121
f 125 134 122
f 135 132 123
f 136 123 132
f 136 137 123
f 124 123 137
f 124 137 125
f 134 125 137
f 128 129 133
f 132 130 136
f 130 137 136
f 134 137 130
f 132 135 131
