# Generated by Visualization Toolkit
v 0.04547800123691559 -0.13599500060081482 -0.04709099978208542
v 0.046574000269174576 -0.1374099999666214 -0.04825599864125252
v 0.047331999987363815 -0.13746100664138794 -0.04759100079536438
v 0.04773600026965141 -0.13651099801063538 -0.04715700075030327
v 0.04631499946117401 -0.13558900356292725 -0.04695500060915947
v 0.04498999938368797 -0.13583800196647644 -0.0472479984164238
v 0.045106999576091766 -0.13524200022220612 -0.0470689982175827
v 0.04188999906182289 -0.13610899448394775 -0.048179998993873596
v 0.04777799919247627 -0.1380070000886917 -0.04826800152659416
v 0.047843001782894135 -0.13810600340366364 -0.0496629998087883
v 0.04430000111460686 -0.13753299415111542 -0.04951599985361099
v 0.04883800074458122 -0.1373859941959381 -0.047818999737501144
v 0.0481950007379055 -0.13629500567913055 -0.04758799821138382
v 0.04602300003170967 -0.1348229944705963 -0.04721200093626976
v 0.042775001376867294 -0.1353680044412613 -0.04726799950003624
v 0.044082000851631165 -0.13510799407958984 -0.04717300087213516
v 0.04521999880671501 -0.13449199497699738 -0.047529999166727066
v 0.04207000136375427 -0.13547199964523315 -0.047419000416994095
v 0.03935899958014488 -0.13425399363040924 -0.04654800146818161
v 0.03855200111865997 -0.1347229927778244 -0.047148000448942184
v 0.038718998432159424 -0.13535800576210022 -0.04918200150132179
v 0.0377889983355999 -0.1347150057554245 -0.04752200096845627
v 0.04912799969315529 -0.1376429945230484 -0.04819900169968605
v 0.04918200150132179 -0.13783599436283112 -0.04906899854540825
v 0.04782000184059143 -0.13832299411296844 -0.05042500048875809
v 0.0488630011677742 -0.13783100247383118 -0.050144001841545105
v 0.04274599999189377 -0.13668599724769592 -0.0502920001745224
v 0.04727799817919731 -0.13813799619674683 -0.05097400024533272
v 0.04506099969148636 -0.1366419941186905 -0.05200999975204468
v 0.04882200062274933 -0.13685500621795654 -0.048245999962091446
v 0.04857100173830986 -0.13654999434947968 -0.048597998917102814
v 0.04741299897432327 -0.1361909955739975 -0.05150799825787544
v 0.041832998394966125 -0.13501699268817902 -0.047221001237630844
v 0.04308300092816353 -0.1349470019340515 -0.047297000885009766
v 0.04414999857544899 -0.13466599583625793 -0.04785099998116493
v 0.04548899829387665 -0.13497400283813477 -0.04958900064229965
v 0.04471899941563606 -0.1349249929189682 -0.049545999616384506
v 0.039413001388311386 -0.13328100740909576 -0.046108998358249664
v 0.0373850017786026 -0.13435900211334229 -0.04649500176310539
v 0.04052799940109253 -0.1339160054922104 -0.04655800014734268
v 0.03683200106024742 -0.1344909965991974 -0.049727000296115875
v 0.0395749993622303 -0.13506799936294556 -0.050728000700473785
v 0.03558000177145004 -0.13415199518203735 -0.04575899988412857
v 0.04889800027012825 -0.1373250037431717 -0.049803998321294785
v 0.048631999641656876 -0.13780799508094788 -0.051368001848459244
v 0.04832400009036064 -0.13699699938297272 -0.051284998655319214
v 0.048760998994112015 -0.13722799718379974 -0.05033399909734726
v 0.042796000838279724 -0.13548900187015533 -0.051437001675367355
v 0.04108700156211853 -0.1354680061340332 -0.05100199952721596
v 0.048257000744342804 -0.13759300112724304 -0.051656000316143036
v 0.04661500081419945 -0.1366029977798462 -0.05225599929690361
v 0.045402999967336655 -0.13594800233840942 -0.05242300033569336
v 0.043234001845121384 -0.1352979987859726 -0.052046999335289
v 0.04484499990940094 -0.13499200344085693 -0.05214700102806091
v 0.04634099826216698 -0.1358260065317154 -0.05211900174617767
v 0.04471300169825554 -0.13485099375247955 -0.050301000475883484
v 0.04416799917817116 -0.1345670074224472 -0.0515189990401268
v 0.042222000658512115 -0.13421399891376495 -0.04771700128912926
v 0.041464000940322876 -0.13371600210666656 -0.04744499921798706
v 0.04348199814558029 -0.1345359981060028 -0.049355000257492065
v 0.04420600086450577 -0.1349090039730072 -0.050338998436927795
v 0.038137998431921005 -0.13256600499153137 -0.04523700103163719
v 0.03974800184369087 -0.13242900371551514 -0.04650399833917618
v 0.038235001266002655 -0.13147799670696259 -0.045159000903367996
v 0.03596000000834465 -0.1333570033311844 -0.04435399919748306
v 0.0365849994122982 -0.13300399482250214 -0.044259000569581985
v 0.036309000104665756 -0.13404999673366547 -0.05104300007224083
v 0.03685300052165985 -0.13415899872779846 -0.05090299993753433
v 0.03349100053310394 -0.13373200595378876 -0.05005799978971481
v 0.039990998804569244 -0.13436999917030334 -0.051235999912023544
v 0.03718100115656853 -0.13336099684238434 -0.051639001816511154
v 0.035259999334812164 -0.13349300622940063 -0.04486199840903282
v 0.034178998321294785 -0.13380999863147736 -0.04656499996781349
v 0.03451399877667427 -0.1334580034017563 -0.045813001692295074
v 0.03348600119352341 -0.13371500372886658 -0.04831099882721901
v 0.042139001190662384 -0.13495700061321259 -0.05151500180363655
v 0.04272900149226189 -0.1349329948425293 -0.05186399817466736
v 0.04130600020289421 -0.13484999537467957 -0.051336999982595444
v 0.043136000633239746 -0.1345749944448471 -0.05207899957895279
v 0.043650999665260315 -0.13450899720191956 -0.05189400166273117
v 0.04069200158119202 -0.13297100365161896 -0.04870200157165527
v 0.04259699955582619 -0.1345299929380417 -0.050523001700639725
v 0.04179399833083153 -0.13412800431251526 -0.05035199970006943
v 0.04190399870276451 -0.13388100266456604 -0.0497639998793602
v 0.042399998754262924 -0.13443900644779205 -0.0510529987514019
v 0.03745099902153015 -0.13207100331783295 -0.04450099915266037
v 0.037255000323057175 -0.1302890032529831 -0.04514800012111664
v 0.03741399943828583 -0.12977099418640137 -0.04989299923181534
v 0.037804000079631805 -0.13025100529193878 -0.04589100182056427
v 0.03716399893164635 -0.13070300221443176 -0.04465600103139877
v 0.036056000739336014 -0.13275699317455292 -0.04393500089645386
v 0.03576900064945221 -0.13236699998378754 -0.04422200098633766
v 0.03672099858522415 -0.13230100274085999 -0.0440559983253479
v 0.0361500009894371 -0.1335889995098114 -0.0515809990465641
v 0.03466000035405159 -0.13285799324512482 -0.05224199965596199
v 0.03438299894332886 -0.13316500186920166 -0.051812998950481415
v 0.03421499952673912 -0.13331499695777893 -0.05097699910402298
v 0.03826000168919563 -0.13203200697898865 -0.05199100077152252
v 0.03865500167012215 -0.1315629929304123 -0.05187999829649925
v 0.04069799929857254 -0.13431400060653687 -0.05112000182271004
v 0.039921000599861145 -0.1330060064792633 -0.05139400064945221
v 0.03523600101470947 -0.13277000188827515 -0.04852500185370445
v 0.03595700114965439 -0.1318109929561615 -0.04472300037741661
v 0.03582900017499924 -0.13207900524139404 -0.04744800180196762
v 0.03585299849510193 -0.13151900470256805 -0.045781999826431274
v 0.041717998683452606 -0.1345140039920807 -0.051323000341653824
v 0.03798599913716316 -0.13002599775791168 -0.05147700011730194
v 0.04128799960017204 -0.13425099849700928 -0.05087700113654137
v 0.03680700063705444 -0.13159899413585663 -0.04403200000524521
v 0.03606000170111656 -0.13030800223350525 -0.04524200037121773
v 0.03675900027155876 -0.1298390030860901 -0.04595300182700157
v 0.03655200079083443 -0.12955200672149658 -0.050606001168489456
v 0.036913998425006866 -0.12976999580860138 -0.051396001130342484
v 0.03603300079703331 -0.12955500185489655 -0.04982699826359749
v 0.03748700022697449 -0.1297920048236847 -0.05144999921321869
v 0.03641600161790848 -0.12958000600337982 -0.046650998294353485
v 0.036051999777555466 -0.13129200041294098 -0.04436799883842468
v 0.036044999957084656 -0.1318099945783615 -0.044217001646757126
v 0.03630699962377548 -0.13249699771404266 -0.05291200056672096
v 0.03745599836111069 -0.13211700320243835 -0.05241300165653229
v 0.03515499830245972 -0.1318349987268448 -0.05290500074625015
v 0.03464600071310997 -0.13263100385665894 -0.05128199979662895
v 0.0348379984498024 -0.13224700093269348 -0.05157800018787384
v 0.035335998982191086 -0.13135699927806854 -0.052903998643159866
v 0.035544998943805695 -0.13248500227928162 -0.04911499843001366
v 0.037866998463869095 -0.13163499534130096 -0.05229699984192848
v 0.0377499982714653 -0.13077999651432037 -0.052347999066114426
v 0.03562900051474571 -0.13228200376033783 -0.04834999889135361
v 0.036072999238967896 -0.1307770013809204 -0.046477001160383224
v 0.035937998443841934 -0.13126400113105774 -0.04822000116109848
v 0.03610999882221222 -0.13124600052833557 -0.047499001026153564
v 0.03575599938631058 -0.13163800537586212 -0.0485600009560585
v 0.035881999880075455 -0.13096100091934204 -0.045504000037908554
v 0.03726299852132797 -0.13046400249004364 -0.05249600112438202
v 0.03577899932861328 -0.13019099831581116 -0.04582500085234642
v 0.03573400154709816 -0.12996800243854523 -0.04643300175666809
v 0.03558899834752083 -0.12988199293613434 -0.047593001276254654
v 0.03604099899530411 -0.12970000505447388 -0.051291998475790024
v 0.03551900014281273 -0.1299709975719452 -0.05065000057220459
v 0.037151999771595 -0.12999099493026733 -0.05197500064969063
v 0.03665100038051605 -0.12982699275016785 -0.05187100172042847
v 0.03533000126481056 -0.1299780011177063 -0.050151001662015915
v 0.03544599935412407 -0.1298840045928955 -0.04853900149464607
v 0.03715899959206581 -0.13186900317668915 -0.05280200019478798
v 0.0365619994699955 -0.13208700716495514 -0.053077999502420425
v 0.03616400063037872 -0.13179199397563934 -0.05323600023984909
v 0.03550000116229057 -0.13130900263786316 -0.05149799957871437
v 0.03591899946331978 -0.13125400245189667 -0.05058399960398674
v 0.035307999700307846 -0.13140399754047394 -0.05198400095105171
v 0.03546399995684624 -0.1309259980916977 -0.05196800082921982
v 0.03570200130343437 -0.1305759996175766 -0.052577000111341476
v 0.03578599914908409 -0.13206499814987183 -0.04883800074458122
v 0.03586500138044357 -0.13164499402046204 -0.04979800060391426
v 0.03681499883532524 -0.1316249966621399 -0.05308099836111069
v 0.03594199940562248 -0.13127699494361877 -0.04891499876976013
v 0.03552599996328354 -0.13030500710010529 -0.05172999948263168
v 0.03588100150227547 -0.13064299523830414 -0.050331998616456985
v 0.03588800132274628 -0.1306779980659485 -0.04950999841094017
v 0.036065999418497086 -0.1310269981622696 -0.04993699863553047
f 1 2 3
f 4 1 3
f 5 1 4
f 2 1 6
f 7 6 1
f 7 1 5
f 8 2 6
f 9 3 2
f 10 2 11
f 9 2 10
f 2 8 11
f 12 4 3
f 3 9 12
f 13 4 12
f 5 4 13
f 14 7 5
f 5 13 14
f 6 15 8
f 16 6 7
f 16 15 6
f 14 17 7
f 16 7 17
f 18 19 8
f 15 18 8
f 20 8 19
f 21 11 8
f 8 20 22
f 22 21 8
f 12 9 23
f 23 9 24
f 9 10 24
f 25 10 11
f 25 26 10
f 10 26 24
f 11 21 27
f 28 11 29
f 25 11 28
f 27 29 11
f 13 12 30
f 12 23 30
f 31 32 13
f 31 13 30
f 14 13 32
f 32 17 14
f 18 15 33
f 34 15 16
f 15 34 33
f 16 35 34
f 16 17 35
f 36 17 32
f 17 37 35
f 36 37 17
f 19 18 33
f 38 39 19
f 39 20 19
f 19 33 40
f 38 19 40
f 20 39 22
f 21 22 41
f 27 21 42
f 21 41 42
f 39 43 22
f 43 41 22
f 23 24 44
f 44 31 23
f 23 31 30
f 24 26 44
f 28 45 25
f 26 25 45
f 45 46 26
f 26 46 47
f 26 47 44
f 29 27 48
f 49 27 42
f 49 48 27
f 28 50 45
f 29 50 28
f 51 50 29
f 29 52 51
f 29 53 52
f 48 53 29
f 46 32 31
f 31 44 47
f 31 47 46
f 54 32 55
f 56 36 32
f 57 32 54
f 56 32 57
f 51 32 50
f 50 32 46
f 32 51 55
f 33 34 58
f 40 33 59
f 58 59 33
f 60 34 35
f 34 60 58
f 35 37 60
f 37 36 56
f 37 56 61
f 37 61 60
f 39 38 62
f 38 40 63
f 64 38 63
f 62 38 64
f 65 43 39
f 39 66 65
f 66 39 62
f 59 63 40
f 67 68 41
f 41 68 42
f 41 69 67
f 43 69 41
f 49 42 70
f 71 70 42
f 42 68 71
f 43 65 72
f 73 43 74
f 43 72 74
f 75 69 43
f 75 43 73
f 45 50 46
f 48 49 76
f 77 53 48
f 77 48 76
f 76 49 78
f 78 49 70
f 51 52 55
f 55 52 54
f 53 54 52
f 53 79 54
f 79 53 77
f 79 80 54
f 54 80 57
f 56 80 61
f 56 57 80
f 81 59 58
f 81 58 60
f 81 63 59
f 82 60 61
f 83 84 60
f 83 60 82
f 60 84 81
f 82 61 85
f 85 61 80
f 86 66 62
f 86 62 64
f 63 87 64
f 88 63 81
f 89 63 88
f 89 87 63
f 90 64 87
f 64 90 86
f 65 66 91
f 72 65 92
f 65 91 92
f 93 91 66
f 86 93 66
f 71 68 67
f 71 67 94
f 67 95 94
f 96 67 69
f 96 95 67
f 97 96 69
f 97 69 75
f 71 98 70
f 70 98 99
f 100 70 101
f 99 101 70
f 78 70 100
f 71 94 98
f 74 72 102
f 72 92 103
f 102 72 104
f 105 72 103
f 72 105 104
f 73 74 102
f 75 73 102
f 102 97 75
f 79 76 80
f 79 77 76
f 76 85 80
f 78 106 76
f 85 76 106
f 106 78 100
f 101 107 81
f 81 107 88
f 101 81 84
f 106 82 85
f 82 106 108
f 108 83 82
f 83 101 84
f 108 101 83
f 93 86 109
f 109 86 90
f 90 87 110
f 111 87 89
f 111 110 87
f 112 88 113
f 114 88 112
f 115 113 88
f 107 115 88
f 116 88 114
f 116 89 88
f 111 89 116
f 110 117 90
f 109 90 117
f 93 92 91
f 118 92 93
f 92 118 103
f 93 109 117
f 117 118 93
f 119 94 95
f 120 98 94
f 94 119 120
f 95 121 119
f 122 95 96
f 95 122 123
f 124 121 95
f 124 95 123
f 96 97 122
f 97 102 125
f 122 97 125
f 126 98 120
f 99 98 126
f 127 99 126
f 127 107 99
f 99 107 101
f 101 108 100
f 100 108 106
f 102 104 128
f 125 102 128
f 103 117 105
f 118 117 103
f 129 104 105
f 130 104 131
f 104 129 131
f 104 132 128
f 104 130 132
f 133 105 117
f 105 133 129
f 134 107 127
f 107 134 115
f 110 111 135
f 117 110 135
f 136 110 135
f 136 135 110
f 137 111 116
f 135 111 136
f 137 136 111
f 113 138 112
f 114 112 139
f 112 138 139
f 115 140 113
f 141 113 140
f 141 138 113
f 142 143 114
f 142 114 139
f 116 114 143
f 134 140 115
f 116 143 137
f 135 133 117
f 144 120 119
f 144 119 145
f 119 121 146
f 119 146 145
f 120 144 126
f 124 146 121
f 125 123 122
f 147 123 148
f 124 123 149
f 125 148 123
f 149 123 147
f 124 149 150
f 151 124 150
f 151 146 124
f 152 153 125
f 128 152 125
f 148 125 153
f 126 154 127
f 144 154 126
f 134 127 154
f 152 128 132
f 133 136 129
f 129 136 131
f 143 130 137
f 155 130 143
f 137 130 131
f 130 155 132
f 131 136 137
f 152 132 153
f 155 153 132
f 133 135 136
f 151 141 134
f 141 140 134
f 146 134 154
f 134 146 151
f 141 151 138
f 151 156 138
f 156 139 138
f 139 156 148
f 148 157 139
f 143 142 139
f 143 139 158
f 157 158 139
f 155 143 158
f 154 144 145
f 145 146 154
f 147 148 150
f 150 149 147
f 148 156 150
f 159 157 148
f 159 148 153
f 150 156 151
f 158 159 153
f 153 155 158
f 159 158 157
