# Generated by Visualization Toolkit
v 0.047331999987363815 -0.13746100664138794 0.04759100079536438
v 0.046574000269174576 -0.1374099999666214 0.04825599864125252
v 0.04547800123691559 -0.13599500060081482 0.04709099978208542
v 0.04773600026965141 -0.13651099801063538 0.04715700075030327
v 0.04777799919247627 -0.1380070000886917 0.04826800152659416
v 0.04883800074458122 -0.1373859941959381 0.047818999737501144
v 0.04498999938368797 -0.13583800196647644 0.0472479984164238
v 0.04188999906182289 -0.13610899448394775 0.048179998993873596
v 0.04430000111460686 -0.13753299415111542 0.04951599985361099
v 0.047843001782894135 -0.13810600340366364 0.0496629998087883
v 0.04631499946117401 -0.13558900356292725 0.04695500060915947
v 0.045106999576091766 -0.13524200022220612 0.0470689982175827
v 0.0481950007379055 -0.13629500567913055 0.04758799821138382
v 0.04912799969315529 -0.1376429945230484 0.04819900169968605
v 0.04918200150132179 -0.13783599436283112 0.04906899854540825
v 0.04882200062274933 -0.13685500621795654 0.048245999962091446
v 0.042775001376867294 -0.1353680044412613 0.04726799950003624
v 0.044082000851631165 -0.13510799407958984 0.04717300087213516
v 0.03935899958014488 -0.13425399363040924 0.04654800146818161
v 0.04207000136375427 -0.13547199964523315 0.047419000416994095
v 0.03855200111865997 -0.1347229927778244 0.047148000448942184
v 0.038718998432159424 -0.13535800576210022 0.04918200150132179
v 0.0377889983355999 -0.1347150057554245 0.04752200096845627
v 0.04782000184059143 -0.13832299411296844 0.05042500048875809
v 0.04274599999189377 -0.13668599724769592 0.0502920001745224
v 0.04506099969148636 -0.1366419941186905 0.05200999975204468
v 0.04727799817919731 -0.13813799619674683 0.05097400024533272
v 0.0488630011677742 -0.13783100247383118 0.050144001841545105
v 0.04602300003170967 -0.1348229944705963 0.04721200093626976
v 0.04521999880671501 -0.13449199497699738 0.047529999166727066
v 0.04741299897432327 -0.1361909955739975 0.05150799825787544
v 0.04857100173830986 -0.13654999434947968 0.048597998917102814
v 0.04889800027012825 -0.1373250037431717 0.049803998321294785
v 0.041832998394966125 -0.13501699268817902 0.047221001237630844
v 0.04308300092816353 -0.1349470019340515 0.047297000885009766
v 0.04414999857544899 -0.13466599583625793 0.04785099998116493
v 0.0373850017786026 -0.13435900211334229 0.04649500176310539
v 0.039413001388311386 -0.13328100740909576 0.046108998358249664
v 0.04052799940109253 -0.1339160054922104 0.04655800014734268
v 0.03683200106024742 -0.1344909965991974 0.049727000296115875
v 0.0395749993622303 -0.13506799936294556 0.050728000700473785
v 0.03558000177145004 -0.13415199518203735 0.04575899988412857
v 0.048631999641656876 -0.13780799508094788 0.051368001848459244
v 0.042796000838279724 -0.13548900187015533 0.051437001675367355
v 0.04108700156211853 -0.1354680061340332 0.05100199952721596
v 0.048257000744342804 -0.13759300112724304 0.051656000316143036
v 0.04661500081419945 -0.1366029977798462 0.05225599929690361
v 0.045402999967336655 -0.13594800233840942 0.05242300033569336
v 0.043234001845121384 -0.1352979987859726 0.052046999335289
v 0.04832400009036064 -0.13699699938297272 0.051284998655319214
v 0.048760998994112015 -0.13722799718379974 0.05033399909734726
v 0.04548899829387665 -0.13497400283813477 0.04958900064229965
v 0.04471899941563606 -0.1349249929189682 0.049545999616384506
v 0.04634099826216698 -0.1358260065317154 0.05211900174617767
v 0.04484499990940094 -0.13499200344085693 0.05214700102806091
v 0.04471300169825554 -0.13485099375247955 0.050301000475883484
v 0.04416799917817116 -0.1345670074224472 0.0515189990401268
v 0.042222000658512115 -0.13421399891376495 0.04771700128912926
v 0.041464000940322876 -0.13371600210666656 0.04744499921798706
v 0.04348199814558029 -0.1345359981060028 0.049355000257492065
v 0.038137998431921005 -0.13256600499153137 0.04523700103163719
v 0.03596000000834465 -0.1333570033311844 0.04435399919748306
v 0.0365849994122982 -0.13300399482250214 0.044259000569581985
v 0.03974800184369087 -0.13242900371551514 0.04650399833917618
v 0.038235001266002655 -0.13147799670696259 0.045159000903367996
v 0.03685300052165985 -0.13415899872779846 0.05090299993753433
v 0.036309000104665756 -0.13404999673366547 0.05104300007224083
v 0.03349100053310394 -0.13373200595378876 0.05005799978971481
v 0.039990998804569244 -0.13436999917030334 0.051235999912023544
v 0.03718100115656853 -0.13336099684238434 0.051639001816511154
v 0.035259999334812164 -0.13349300622940063 0.04486199840903282
v 0.03451399877667427 -0.1334580034017563 0.045813001692295074
v 0.034178998321294785 -0.13380999863147736 0.04656499996781349
v 0.03348600119352341 -0.13371500372886658 0.04831099882721901
v 0.042139001190662384 -0.13495700061321259 0.05151500180363655
v 0.04272900149226189 -0.1349329948425293 0.05186399817466736
v 0.04130600020289421 -0.13484999537467957 0.051336999982595444
v 0.043136000633239746 -0.1345749944448471 0.05207899957895279
v 0.04420600086450577 -0.1349090039730072 0.050338998436927795
v 0.043650999665260315 -0.13450899720191956 0.05189400166273117
v 0.04069200158119202 -0.13297100365161896 0.04870200157165527
v 0.04259699955582619 -0.1345299929380417 0.050523001700639725
v 0.04190399870276451 -0.13388100266456604 0.0497639998793602
v 0.04179399833083153 -0.13412800431251526 0.05035199970006943
v 0.03745099902153015 -0.13207100331783295 0.04450099915266037
v 0.036056000739336014 -0.13275699317455292 0.04393500089645386
v 0.03576900064945221 -0.13236699998378754 0.04422200098633766
v 0.03672099858522415 -0.13230100274085999 0.0440559983253479
v 0.037255000323057175 -0.1302890032529831 0.04514800012111664
v 0.03741399943828583 -0.12977099418640137 0.04989299923181534
v 0.037804000079631805 -0.13025100529193878 0.04589100182056427
v 0.03716399893164635 -0.13070300221443176 0.04465600103139877
v 0.0361500009894371 -0.1335889995098114 0.0515809990465641
v 0.03466000035405159 -0.13285799324512482 0.05224199965596199
v 0.03438299894332886 -0.13316500186920166 0.051812998950481415
v 0.03421499952673912 -0.13331499695777893 0.05097699910402298
v 0.03826000168919563 -0.13203200697898865 0.05199100077152252
v 0.03865500167012215 -0.1315629929304123 0.05187999829649925
v 0.039921000599861145 -0.1330060064792633 0.05139400064945221
v 0.04069799929857254 -0.13431400060653687 0.05112000182271004
v 0.03523600101470947 -0.13277000188827515 0.04852500185370445
v 0.03595700114965439 -0.1318109929561615 0.04472300037741661
v 0.03582900017499924 -0.13207900524139404 0.04744800180196762
v 0.03585299849510193 -0.13151900470256805 0.045781999826431274
v 0.042399998754262924 -0.13443900644779205 0.0510529987514019
v 0.041717998683452606 -0.1345140039920807 0.051323000341653824
v 0.03798599913716316 -0.13002599775791168 0.05147700011730194
v 0.04128799960017204 -0.13425099849700928 0.05087700113654137
v 0.03680700063705444 -0.13159899413585663 0.04403200000524521
v 0.036044999957084656 -0.1318099945783615 0.044217001646757126
v 0.036051999777555466 -0.13129200041294098 0.04436799883842468
v 0.03606000170111656 -0.13030800223350525 0.04524200037121773
v 0.03675900027155876 -0.1298390030860901 0.04595300182700157
v 0.036913998425006866 -0.12976999580860138 0.051396001130342484
v 0.03655200079083443 -0.12955200672149658 0.050606001168489456
v 0.03603300079703331 -0.12955500185489655 0.04982699826359749
v 0.03748700022697449 -0.1297920048236847 0.05144999921321869
v 0.03641600161790848 -0.12958000600337982 0.046650998294353485
v 0.03630699962377548 -0.13249699771404266 0.05291200056672096
v 0.03745599836111069 -0.13211700320243835 0.05241300165653229
v 0.03515499830245972 -0.1318349987268448 0.05290500074625015
v 0.03464600071310997 -0.13263100385665894 0.05128199979662895
v 0.0348379984498024 -0.13224700093269348 0.05157800018787384
v 0.035335998982191086 -0.13135699927806854 0.052903998643159866
v 0.035544998943805695 -0.13248500227928162 0.04911499843001366
v 0.037866998463869095 -0.13163499534130096 0.05229699984192848
v 0.0377499982714653 -0.13077999651432037 0.052347999066114426
v 0.03562900051474571 -0.13228200376033783 0.04834999889135361
v 0.036072999238967896 -0.1307770013809204 0.046477001160383224
v 0.03610999882221222 -0.13124600052833557 0.047499001026153564
v 0.035937998443841934 -0.13126400113105774 0.04822000116109848
v 0.03575599938631058 -0.13163800537586212 0.0485600009560585
v 0.035881999880075455 -0.13096100091934204 0.045504000037908554
v 0.03726299852132797 -0.13046400249004364 0.05249600112438202
v 0.03577899932861328 -0.13019099831581116 0.04582500085234642
v 0.03573400154709816 -0.12996800243854523 0.04643300175666809
v 0.03558899834752083 -0.12988199293613434 0.047593001276254654
v 0.03604099899530411 -0.12970000505447388 0.051291998475790024
v 0.037151999771595 -0.12999099493026733 0.05197500064969063
v 0.03665100038051605 -0.12982699275016785 0.05187100172042847
v 0.03551900014281273 -0.1299709975719452 0.05065000057220459
v 0.03544599935412407 -0.1298840045928955 0.04853900149464607
v 0.03533000126481056 -0.1299780011177063 0.050151001662015915
v 0.03715899959206581 -0.13186900317668915 0.05280200019478798
v 0.0365619994699955 -0.13208700716495514 0.053077999502420425
v 0.03616400063037872 -0.13179199397563934 0.05323600023984909
v 0.03591899946331978 -0.13125400245189667 0.05058399960398674
v 0.03550000116229057 -0.13130900263786316 0.05149799957871437
v 0.035307999700307846 -0.13140399754047394 0.05198400095105171
v 0.03546399995684624 -0.1309259980916977 0.05196800082921982
v 0.03570200130343437 -0.1305759996175766 0.052577000111341476
v 0.03586500138044357 -0.13164499402046204 0.04979800060391426
v 0.03578599914908409 -0.13206499814987183 0.04883800074458122
v 0.03681499883532524 -0.1316249966621399 0.05308099836111069
v 0.03594199940562248 -0.13127699494361877 0.04891499876976013
v 0.03552599996328354 -0.13030500710010529 0.05172999948263168
v 0.03588100150227547 -0.13064299523830414 0.050331998616456985
v 0.03588800132274628 -0.1306779980659485 0.04950999841094017
v 0.036065999418497086 -0.1310269981622696 0.04993699863553047
f 1 2 3
f 1 3 4
f 2 1 5
f 1 4 6
f 6 5 1
f 7 3 2
f 7 2 8
f 9 2 10
f 10 2 5
f 9 8 2
f 4 3 11
f 3 7 12
f 11 3 12
f 6 4 13
f 13 4 11
f 14 5 6
f 15 5 14
f 15 10 5
f 16 6 13
f 16 14 6
f 8 17 7
f 12 7 18
f 7 17 18
f 8 19 20
f 8 20 17
f 19 8 21
f 8 9 22
f 23 21 8
f 8 22 23
f 9 10 24
f 25 22 9
f 26 9 27
f 27 9 24
f 9 26 25
f 10 28 24
f 15 28 10
f 11 12 29
f 29 13 11
f 12 30 29
f 30 12 18
f 13 31 32
f 16 13 32
f 31 13 29
f 33 15 14
f 14 32 33
f 16 32 14
f 33 28 15
f 34 17 20
f 18 17 35
f 34 35 17
f 35 36 18
f 36 30 18
f 34 20 19
f 19 37 38
f 19 21 37
f 39 34 19
f 39 19 38
f 23 37 21
f 40 23 22
f 41 22 25
f 41 40 22
f 23 42 37
f 23 40 42
f 24 43 27
f 43 24 28
f 44 25 26
f 41 25 45
f 25 44 45
f 27 46 26
f 26 46 47
f 47 48 26
f 48 49 26
f 26 49 44
f 43 46 27
f 28 50 43
f 51 50 28
f 33 51 28
f 29 30 31
f 31 30 52
f 36 53 30
f 30 53 52
f 32 31 50
f 54 31 55
f 31 52 56
f 55 31 57
f 57 31 56
f 46 31 47
f 50 31 46
f 54 47 31
f 51 33 32
f 50 51 32
f 58 35 34
f 59 34 39
f 34 59 58
f 36 35 60
f 58 60 35
f 60 53 36
f 61 38 37
f 37 42 62
f 62 63 37
f 61 37 63
f 64 39 38
f 64 38 65
f 65 38 61
f 39 64 59
f 40 66 67
f 41 66 40
f 67 68 40
f 40 68 42
f 69 41 45
f 41 69 70
f 70 66 41
f 71 62 42
f 72 42 73
f 72 71 42
f 42 68 74
f 73 42 74
f 50 46 43
f 75 45 44
f 44 49 76
f 75 44 76
f 77 45 75
f 69 45 77
f 54 48 47
f 55 48 54
f 48 55 49
f 55 78 49
f 76 49 78
f 56 52 53
f 79 56 53
f 60 79 53
f 55 80 78
f 57 80 55
f 79 80 56
f 80 57 56
f 58 59 81
f 60 58 81
f 59 64 81
f 79 60 82
f 60 83 84
f 82 60 84
f 81 83 60
f 61 63 85
f 65 61 85
f 86 63 62
f 87 62 71
f 87 86 62
f 63 86 88
f 63 88 85
f 65 89 64
f 81 64 90
f 90 64 91
f 64 89 91
f 89 65 92
f 85 92 65
f 67 66 70
f 93 67 70
f 93 94 67
f 68 67 95
f 67 94 95
f 68 95 96
f 74 68 96
f 69 97 70
f 98 97 69
f 99 69 100
f 69 99 98
f 100 69 77
f 97 93 70
f 101 71 72
f 102 87 71
f 103 71 101
f 102 71 104
f 103 104 71
f 101 72 73
f 101 73 74
f 74 96 101
f 80 75 78
f 75 76 78
f 80 105 75
f 75 106 77
f 106 75 105
f 100 77 106
f 105 79 82
f 80 79 105
f 81 107 99
f 90 107 81
f 83 81 99
f 105 82 106
f 108 106 82
f 82 84 108
f 83 99 84
f 84 99 108
f 109 85 88
f 92 85 109
f 86 87 88
f 88 87 110
f 102 110 87
f 111 109 88
f 88 110 111
f 112 89 92
f 91 89 113
f 89 112 113
f 114 90 115
f 115 90 116
f 90 114 117
f 90 117 107
f 116 90 118
f 90 91 118
f 118 91 113
f 92 111 112
f 111 92 109
f 94 93 119
f 93 97 120
f 120 119 93
f 119 121 94
f 95 94 122
f 123 122 94
f 94 121 124
f 123 94 124
f 122 96 95
f 125 101 96
f 125 96 122
f 120 97 126
f 126 97 98
f 126 98 127
f 98 107 127
f 99 107 98
f 100 108 99
f 106 108 100
f 128 103 101
f 128 101 125
f 104 111 102
f 102 111 110
f 104 103 129
f 130 103 131
f 130 129 103
f 128 132 103
f 132 131 103
f 111 104 133
f 129 133 104
f 127 107 134
f 117 134 107
f 135 112 111
f 111 133 135
f 135 113 112
f 135 112 136
f 112 135 136
f 118 113 137
f 136 113 135
f 113 136 137
f 115 138 114
f 114 139 117
f 139 114 140
f 114 138 140
f 141 115 116
f 141 138 115
f 116 142 143
f 141 116 143
f 142 116 118
f 117 139 134
f 137 142 118
f 119 120 144
f 145 119 144
f 146 121 119
f 145 146 119
f 126 144 120
f 121 146 124
f 122 123 125
f 147 123 148
f 149 123 124
f 123 147 125
f 148 123 149
f 150 149 124
f 150 124 151
f 124 146 151
f 125 152 153
f 125 153 128
f 152 125 147
f 127 154 126
f 126 154 144
f 154 127 134
f 132 128 153
f 129 136 133
f 130 136 129
f 130 131 137
f 137 136 130
f 137 131 142
f 142 131 155
f 132 155 131
f 152 132 153
f 132 152 155
f 136 135 133
f 134 140 151
f 134 139 140
f 154 134 146
f 151 146 134
f 138 151 140
f 138 156 151
f 138 141 156
f 147 156 141
f 141 157 147
f 141 143 142
f 158 141 142
f 141 158 157
f 158 142 155
f 145 144 154
f 154 146 145
f 150 147 148
f 150 156 147
f 147 157 159
f 152 147 159
f 148 149 150
f 151 156 150
f 152 159 158
f 158 155 152
f 157 158 159
