# Generated by Visualization Toolkit
v 0.010262000374495983 0.10834299772977829 0
v 0.023284999653697014 0.11541000008583069 -0.008983000181615353
v 0.02232999913394451 0.11101599782705307 0
v 0.018658999353647232 0.11378400027751923 -0.018384000286459923
v 0.01153200026601553 0.11036600172519684 -0.022960999980568886
v -0.006566999945789576 0.10362400114536285 0
v -0.006345999892801046 0.10331200063228607 -0.005394999869167805
v -0.006816000211983919 0.1035119965672493 -0.015980999916791916
v -0.0022120000794529915 0.10674600303173065 -0.02309500053524971
v 0.023284999653697014 0.11541000008583069 0.008983000181615353
v 0.018658999353647232 0.11378400027751923 0.018384000286459923
v 0.01153200026601553 0.11036600172519684 0.022960999980568886
v -0.006345999892801046 0.10331200063228607 0.005394999869167805
v -0.006816000211983919 0.1035119965672493 0.015980999916791916
v -0.0022120000794529915 0.10674600303173065 0.02309500053524971
v 0.023538999259471893 0.11675500124692917 -0.010789000429213047
v 0.02319199964404106 0.11738099902868271 0
v 0.023538999259471893 0.11675500124692917 0.010789000429213047
v 0.016863999888300896 0.11631300300359726 -0.017754999920725822
v 0.008351000025868416 0.11546199768781662 -0.02158600091934204
v -0.005504999775439501 0.10954099893569946 -0.005045999772846699
v -0.005421000067144632 0.10941500216722488 0
v -0.005504999775439501 0.10954099893569946 0.005045999772846699
v -0.006155000068247318 0.1112930029630661 -0.016318000853061676
v -0.001867000013589859 0.11015400290489197 -0.021747000515460968
v -0.0070039997808635235 0.11065399646759033 -0.009634999558329582
v 0.016863999888300896 0.11631300300359726 0.017754999920725822
v 0.008351000025868416 0.11546199768781662 0.02158600091934204
v -0.001867000013589859 0.11015400290489197 0.021747000515460968
v -0.006155000068247318 0.1112930029630661 0.016318000853061676
v -0.0070039997808635235 0.11065399646759033 0.009634999558329582
v 0.01919499970972538 0.1219640001654625 -0.010502000339329243
v 0.020654000341892242 0.12208999693393707 0
v 0.01919499970972538 0.1219640001654625 0.010502000339329243
v 0.013481000438332558 0.12084899842739105 -0.017309000715613365
v 0.006624000146985054 0.12004999816417694 -0.01962899975478649
v -0.01040400005877018 0.11552099883556366 -0.00648100022226572
v -0.009937000460922718 0.11577700078487396 0
v -0.01040400005877018 0.11552099883556366 0.00648100022226572
v -0.00871300045400858 0.11461299657821655 -0.01945899985730648
v -0.0033160001039505005 0.11740799993276596 -0.020577000454068184
v -0.012438000179827213 0.11527799814939499 -0.009941999800503254
v 0.013481000438332558 0.12084899842739105 0.017309000715613365
v 0.006624000146985054 0.12004999816417694 0.01962899975478649
v -0.0033160001039505005 0.11740799993276596 0.020577000454068184
v -0.00871300045400858 0.11461299657821655 0.01945899985730648
v -0.012438000179827213 0.11527799814939499 0.009941999800503254
v 0.01599299907684326 0.1309400051832199 -0.010130000300705433
v 0.016912000253796577 0.13276199996471405 0
v 0.01599299907684326 0.1309400051832199 0.010130000300705433
v 0.010080999694764614 0.12884800136089325 -0.017974000424146652
v 0.005239000078290701 0.1267559975385666 -0.01971600018441677
v -0.014626000076532364 0.12127900123596191 -0.006696000229567289
v -0.016724999994039536 0.12084600329399109 -0.010394999757409096
v -0.013961000367999077 0.12171600013971329 0
v -0.014626000076532364 0.12127900123596191 0.006696000229567289
v -0.016724999994039536 0.12084600329399109 0.010394999757409096
v -0.009819000028073788 0.12146899849176407 -0.021129999309778214
v -0.004782999865710735 0.12257499992847443 -0.020721999928355217
v -0.012838000431656837 0.11567799746990204 -0.02149900048971176
v -0.01448999997228384 0.1113860011100769 -0.01752999983727932
v -0.01611199975013733 0.11834199726581573 -0.02571599930524826
v -0.021371999755501747 0.11404000222682953 -0.003788999980315566
v 0.010080999694764614 0.12884800136089325 0.017974000424146652
v 0.005239000078290701 0.1267559975385666 0.01971600018441677
v -0.004782999865710735 0.12257499992847443 0.020721999928355217
v -0.009819000028073788 0.12146899849176407 0.021129999309778214
v -0.01448999997228384 0.1113860011100769 0.01752999983727932
v -0.012838000431656837 0.11567799746990204 0.02149900048971176
v -0.01611199975013733 0.11834199726581573 0.02571599930524826
v -0.021371999755501747 0.11404000222682953 0.003788999980315566
v 0.015437999740242958 0.13649900257587433 -0.011210000142455101
v 0.015876000747084618 0.13719700276851654 0
v 0.015437999740242958 0.13649900257587433 0.011210000142455101
v 0.010507999919354916 0.13372500240802765 -0.019027000293135643
v 0.00472299987450242 0.13039200007915497 -0.02180499956011772
v -0.017968999221920967 0.1287049949169159 -0.008549000136554241
v -0.018035000190138817 0.12654200196266174 -0.01116199977695942
v -0.0159939993172884 0.12847399711608887 0
v -0.017968999221920967 0.1287049949169159 0.008549000136554241
v -0.018035000190138817 0.12654200196266174 0.01116199977695942
v -0.012504000216722488 0.12564100325107574 -0.020416000857949257
v -0.004300999920815229 0.12811200320720673 -0.02286599949002266
v -0.019138000905513763 0.12410999834537506 -0.020468000322580338
v -0.022571999579668045 0.11294099688529968 -0.017633000388741493
v -0.025769999250769615 0.11681000143289566 -0.023740999400615692
v -0.01863200031220913 0.11197800189256668 -0.025398999452590942
v -0.015375999733805656 0.10764200240373611 -0.010789000429213047
v -0.020397000014781952 0.11391899734735489 -0.0297200009226799
v -0.020100999623537064 0.11764200031757355 -0.03269200026988983
v -0.01706700026988983 0.10225199908018112 -0.00522099994122982
v -0.02112000063061714 0.1124119982123375 0
v -0.030294999480247498 0.11204099655151367 0
v -0.025596000254154205 0.11965300142765045 -0.007891999557614326
v 0.010507999919354916 0.13372500240802765 0.019027000293135643
v 0.00472299987450242 0.13039200007915497 0.02180499956011772
v -0.004300999920815229 0.12811200320720673 0.02286599949002266
v -0.012504000216722488 0.12564100325107574 0.020416000857949257
v -0.019138000905513763 0.12410999834537506 0.020468000322580338
v -0.025769999250769615 0.11681000143289566 0.023740999400615692
v -0.022571999579668045 0.11294099688529968 0.017633000388741493
v -0.01863200031220913 0.11197800189256668 0.025398999452590942
v -0.015375999733805656 0.10764200240373611 0.010789000429213047
v -0.020100999623537064 0.11764200031757355 0.03269200026988983
v -0.020397000014781952 0.11391899734735489 0.0297200009226799
v -0.01706700026988983 0.10225199908018112 0.00522099994122982
v -0.025596000254154205 0.11965300142765045 0.007891999557614326
v 0.013283999636769295 0.14119599759578705 -0.011416000314056873
v 0.014000000432133675 0.1418199986219406 0
v 0.013283999636769295 0.14119599759578705 0.011416000314056873
v 0.008460000157356262 0.1387300044298172 -0.01928899995982647
v 0.0015839999541640282 0.1358020007610321 -0.022859999909996986
v -0.007050999905914068 0.1312970072031021 -0.02300800010561943
v -0.01956300064921379 0.12615400552749634 -0.01445200014859438
v -0.027515999972820282 0.129954993724823 -0.016405999660491943
v -0.026381999254226685 0.12714600563049316 -0.010300000198185444
v -0.0009970000246539712 0.13514700531959534 0
v -0.015922000631690025 0.12904900312423706 -0.017549000680446625
v -0.027515999972820282 0.129954993724823 0.016405999660491943
v -0.01956300064921379 0.12615400552749634 0.01445200014859438
v -0.026381999254226685 0.12714600563049316 0.010300000198185444
v -0.015922000631690025 0.12904900312423706 0.017549000680446625
v -0.0242139995098114 0.12261799722909927 -0.029174000024795532
v -0.024291999638080597 0.1263349950313568 -0.018868999555706978
v -0.0231539998203516 0.10493999719619751 -0.01587899960577488
v -0.026959000155329704 0.10154999792575836 -0.012968000024557114
v -0.0314829982817173 0.11636900156736374 -0.02165300026535988
v -0.03152899816632271 0.11483100056648254 -0.014539999887347221
v -0.028894999995827675 0.11418700218200684 -0.013000000268220901
v -0.03418299928307533 0.12556099891662598 -0.019979000091552734
v -0.027622999623417854 0.12315499782562256 -0.021834999322891235
v -0.01410599984228611 0.1006999984383583 -0.012299000285565853
v -0.025446999818086624 0.09730300307273865 -0.017501000314950943
v -0.02487199939787388 0.1135139986872673 -0.03298100084066391
v -0.02401299960911274 0.11649399995803833 -0.036166999489068985
v -0.028264999389648438 0.12067800015211105 -0.03344399854540825
v -0.015487000346183777 0.096731998026371 -0.00685499981045723
v -0.02045699954032898 0.10213399678468704 0
v -0.030162999406456947 0.1078369989991188 -0.005061999894678593
v -0.03699199855327606 0.10097000002861023 0
v -0.0259770005941391 0.10822500288486481 -0.008497999981045723
v -0.027383999899029732 0.1128539964556694 -0.010658999904990196
v -0.030162999406456947 0.1078369989991188 0.005061999894678593
v -0.0259770005941391 0.10822500288486481 0.008497999981045723
v -0.027383999899029732 0.1128539964556694 0.010658999904990196
v -0.0268389992415905 0.11978700011968613 -0.011629999615252018
v 0.008460000157356262 0.1387300044298172 0.01928899995982647
v 0.0015839999541640282 0.1358020007610321 0.022859999909996986
v -0.007050999905914068 0.1312970072031021 0.02300800010561943
v -0.0242139995098114 0.12261799722909927 0.029174000024795532
v -0.024291999638080597 0.1263349950313568 0.018868999555706978
v -0.03418299928307533 0.12556099891662598 0.019979000091552734
v -0.0314829982817173 0.11636900156736374 0.02165300026535988
v -0.027622999623417854 0.12315499782562256 0.021834999322891235
v -0.026959000155329704 0.10154999792575836 0.012968000024557114
v -0.0231539998203516 0.10493999719619751 0.01587899960577488
v -0.03152899816632271 0.11483100056648254 0.014539999887347221
v -0.028894999995827675 0.11418700218200684 0.013000000268220901
v -0.01410599984228611 0.1006999984383583 0.012299000285565853
v -0.025446999818086624 0.09730300307273865 0.017501000314950943
v -0.02401299960911274 0.11649399995803833 0.036166999489068985
v -0.02487199939787388 0.1135139986872673 0.03298100084066391
v -0.028264999389648438 0.12067800015211105 0.03344399854540825
v -0.015487000346183777 0.096731998026371 0.00685499981045723
v -0.0268389992415905 0.11978700011968613 0.011629999615252018
v -0.03864999860525131 0.1200300008058548 -0.01674400083720684
v -0.03132199868559837 0.12018699944019318 -0.014276999980211258
v -0.03864999860525131 0.1200300008058548 0.01674400083720684
v -0.03132199868559837 0.12018699944019318 0.014276999980211258
v -0.0270990002900362 0.09275200217962265 -0.009957999922335148
v -0.02840300090610981 0.09761299937963486 -0.01052400004118681
v -0.023212000727653503 0.09032399952411652 -0.017254000529646873
v -0.027504000812768936 0.10380399972200394 -0.009066999889910221
v -0.0363599993288517 0.1191760003566742 -0.02214599959552288
v -0.03737099841237068 0.11603999882936478 -0.017201999202370644
v -0.014343000017106533 0.08805199712514877 -0.013666000217199326
v -0.01733900047838688 0.09328299760818481 -0.005444999784231186
v -0.021313000470399857 0.09558799862861633 0
v -0.01733900047838688 0.09328299760818481 0.005444999784231186
v -0.0325470007956028 0.10185600072145462 -0.004273999948054552
v -0.034345000982284546 0.09665700048208237 -0.0041600000113248825
v -0.045017000287771225 0.0943479984998703 0
v -0.0325470007956028 0.10185600072145462 0.004273999948054552
v -0.034345000982284546 0.09665700048208237 0.0041600000113248825
v -0.027504000812768936 0.10380399972200394 0.009066999889910221
v -0.0363599993288517 0.1191760003566742 0.02214599959552288
v -0.03737099841237068 0.11603999882936478 0.017201999202370644
v -0.02840300090610981 0.09761299937963486 0.01052400004118681
v -0.0270990002900362 0.09275200217962265 0.009957999922335148
v -0.023212000727653503 0.09032399952411652 0.017254000529646873
v -0.014343000017106533 0.08805199712514877 0.013666000217199326
v -0.03311900049448013 0.09203600138425827 -0.004342999774962664
v -0.022415999323129654 0.09132599830627441 -0.007826000452041626
v -0.027886999770998955 0.09074100106954575 -0.00509499991312623
v -0.02611899934709072 0.08558399975299835 0
v -0.022415999323129654 0.09132599830627441 0.007826000452041626
v -0.027886999770998955 0.09074100106954575 0.00509499991312623
v -0.04546999931335449 0.08866599947214127 0
v -0.03311900049448013 0.09203600138425827 0.004342999774962664
v -0.035627998411655426 0.08745899796485901 -0.004732999950647354
v -0.03171800076961517 0.08627700060606003 -0.004749000072479248
v -0.03175799921154976 0.08179499953985214 -0.0036869999021291733
v -0.033323999494314194 0.08042299747467041 0
v -0.03175799921154976 0.08179499953985214 0.0036869999021291733
v -0.03171800076961517 0.08627700060606003 0.004749000072479248
v -0.04202999919652939 0.08439599722623825 -0.004792000167071819
v -0.042419999837875366 0.08255299925804138 0
v -0.04202999919652939 0.08439599722623825 0.004792000167071819
v -0.035627998411655426 0.08745899796485901 0.004732999950647354
v -0.03912699967622757 0.08134499937295914 -0.005584000144153833
v -0.03753900155425072 0.07976700365543365 0
v -0.03912699967622757 0.08134499937295914 0.005584000144153833
f 1 2 3
f 1 4 2
f 1 5 4
f 1 6 7
f 7 8 1
f 1 8 9
f 9 5 1
f 3 10 1
f 10 11 1
f 11 12 1
f 13 6 1
f 1 14 13
f 15 14 1
f 1 12 15
f 3 2 16
f 16 2 4
f 17 3 16
f 18 10 3
f 18 3 17
f 19 16 4
f 19 4 5
f 20 19 5
f 20 5 9
f 21 7 6
f 22 21 6
f 6 13 23
f 6 23 22
f 7 21 8
f 8 24 25
f 9 8 25
f 26 24 8
f 21 26 8
f 25 20 9
f 11 10 18
f 11 18 27
f 12 11 27
f 12 27 28
f 15 12 28
f 14 23 13
f 29 30 14
f 29 14 15
f 14 30 31
f 14 31 23
f 15 28 29
f 16 32 33
f 17 16 33
f 32 16 19
f 33 18 17
f 33 34 18
f 27 18 34
f 35 32 19
f 35 19 20
f 36 35 20
f 36 20 25
f 21 22 37
f 26 21 37
f 38 37 22
f 22 39 38
f 39 22 23
f 39 23 31
f 24 40 41
f 25 24 41
f 42 24 26
f 42 40 24
f 41 36 25
f 42 26 37
f 27 34 43
f 28 27 43
f 28 43 44
f 29 28 44
f 29 44 45
f 45 30 29
f 45 46 30
f 31 30 47
f 30 46 47
f 39 31 47
f 32 48 49
f 33 32 49
f 48 32 35
f 49 34 33
f 49 50 34
f 43 34 50
f 51 48 35
f 51 35 36
f 52 51 36
f 52 36 41
f 53 37 38
f 53 54 37
f 54 42 37
f 55 53 38
f 38 39 56
f 38 56 55
f 39 57 56
f 39 47 57
f 40 58 59
f 41 40 59
f 60 40 61
f 40 60 62
f 58 40 62
f 42 61 40
f 59 52 41
f 42 63 61
f 63 42 54
f 43 50 64
f 44 43 64
f 44 64 65
f 45 44 65
f 45 65 66
f 66 46 45
f 66 67 46
f 68 46 69
f 70 69 46
f 70 46 67
f 46 68 47
f 68 71 47
f 57 47 71
f 48 72 73
f 49 48 73
f 72 48 51
f 73 50 49
f 73 74 50
f 64 50 74
f 75 72 51
f 75 51 52
f 76 75 52
f 76 52 59
f 77 53 55
f 78 54 53
f 77 78 53
f 54 78 63
f 79 77 55
f 55 56 80
f 55 80 79
f 56 57 81
f 56 81 80
f 71 81 57
f 58 82 83
f 59 58 83
f 58 62 84
f 82 58 84
f 83 76 59
f 62 60 61
f 61 85 86
f 87 61 86
f 87 62 61
f 88 85 61
f 63 88 61
f 89 90 62
f 87 89 62
f 62 90 84
f 91 63 92
f 93 92 63
f 94 93 63
f 63 91 88
f 78 94 63
f 64 74 95
f 65 64 95
f 65 95 96
f 66 65 96
f 66 96 97
f 97 67 66
f 97 98 67
f 99 70 67
f 99 67 98
f 100 101 68
f 100 68 102
f 68 69 70
f 68 70 102
f 68 101 103
f 68 103 71
f 70 104 105
f 70 105 102
f 99 104 70
f 92 71 106
f 71 92 93
f 71 93 107
f 103 106 71
f 71 107 81
f 72 108 109
f 73 72 109
f 108 72 75
f 109 74 73
f 109 110 74
f 95 74 110
f 111 108 75
f 75 76 112
f 111 75 112
f 76 83 113
f 112 76 113
f 77 114 115
f 115 116 77
f 116 94 77
f 78 77 94
f 117 77 79
f 117 118 77
f 77 118 114
f 79 80 117
f 119 120 80
f 80 121 119
f 80 107 121
f 107 80 81
f 80 122 117
f 120 122 80
f 83 82 113
f 82 84 118
f 82 118 113
f 84 114 118
f 90 123 84
f 124 84 123
f 114 84 124
f 85 125 126
f 86 85 127
f 85 128 127
f 88 125 85
f 126 129 85
f 129 128 85
f 86 127 130
f 123 87 86
f 123 86 131
f 131 86 130
f 123 89 87
f 132 88 91
f 88 132 133
f 125 88 133
f 89 134 135
f 90 89 135
f 89 136 134
f 123 136 89
f 90 135 123
f 137 91 138
f 138 91 92
f 137 132 91
f 92 106 138
f 93 139 140
f 141 139 93
f 142 141 93
f 93 94 142
f 140 143 93
f 93 143 144
f 93 144 145
f 145 107 93
f 94 146 142
f 116 146 94
f 95 110 147
f 148 96 95
f 148 95 147
f 149 97 96
f 149 96 148
f 149 98 97
f 122 99 98
f 149 122 98
f 122 120 99
f 99 150 104
f 150 99 151
f 151 99 120
f 152 153 100
f 153 101 100
f 100 102 150
f 154 100 150
f 152 100 154
f 155 156 101
f 153 157 101
f 101 156 103
f 101 158 155
f 101 157 158
f 102 105 150
f 106 103 159
f 160 159 103
f 160 103 156
f 150 161 104
f 161 105 104
f 161 162 105
f 162 163 105
f 105 163 150
f 138 106 164
f 106 159 164
f 145 165 107
f 107 165 121
f 117 108 111
f 117 109 108
f 110 109 117
f 147 110 117
f 117 111 112
f 117 112 113
f 117 113 118
f 124 115 114
f 115 124 130
f 115 130 166
f 167 115 166
f 167 146 115
f 116 115 146
f 148 147 117
f 149 148 117
f 122 149 117
f 120 119 151
f 152 151 119
f 168 152 119
f 168 119 169
f 119 165 169
f 165 119 121
f 135 136 123
f 131 124 123
f 124 131 130
f 126 125 133
f 170 171 126
f 172 170 126
f 133 172 126
f 173 126 171
f 126 173 129
f 127 174 130
f 175 174 127
f 175 127 128
f 166 175 128
f 167 166 128
f 128 129 146
f 167 128 146
f 146 129 142
f 141 129 173
f 142 129 141
f 166 130 174
f 132 176 133
f 137 176 132
f 176 172 133
f 134 136 135
f 177 137 138
f 177 176 137
f 178 177 138
f 138 164 179
f 138 179 178
f 140 139 180
f 139 141 180
f 181 182 140
f 180 181 140
f 183 143 140
f 140 182 184
f 140 184 183
f 141 173 180
f 183 144 143
f 183 185 144
f 185 158 144
f 144 158 145
f 145 158 165
f 150 163 161
f 150 151 154
f 152 154 151
f 152 186 153
f 186 152 168
f 153 186 187
f 157 153 187
f 160 156 155
f 155 188 189
f 155 189 190
f 155 190 160
f 188 155 185
f 158 185 155
f 157 187 168
f 157 168 169
f 165 158 157
f 165 157 169
f 160 191 159
f 159 191 164
f 160 190 191
f 161 163 162
f 164 191 179
f 175 166 174
f 186 168 187
f 171 170 192
f 170 193 194
f 192 170 194
f 170 172 193
f 173 171 181
f 181 171 192
f 172 176 193
f 180 173 181
f 193 176 177
f 194 193 177
f 195 194 177
f 195 177 178
f 178 179 195
f 179 191 196
f 179 196 197
f 179 197 195
f 181 192 182
f 192 198 182
f 182 198 199
f 182 199 184
f 184 185 183
f 184 188 185
f 199 188 184
f 199 189 188
f 197 196 189
f 197 189 199
f 196 190 189
f 196 191 190
f 192 200 198
f 192 194 201
f 200 192 201
f 194 195 202
f 201 194 202
f 203 202 195
f 195 204 203
f 204 195 197
f 205 197 199
f 204 197 205
f 200 206 198
f 198 206 207
f 198 208 209
f 198 209 199
f 207 208 198
f 205 199 209
f 200 201 202
f 210 200 202
f 200 210 206
f 210 202 203
f 211 210 203
f 203 204 212
f 203 212 211
f 204 205 209
f 204 209 212
f 206 210 211
f 207 206 211
f 211 208 207
f 211 212 208
f 208 212 209
