# Generated by Visualization Toolkit
v 0.016008000820875168 0.07571200281381607 0
v 0.030393000692129135 0.08060900121927261 -0.00926200021058321
v 0.028720999136567116 0.07631000131368637 0
v 0.02542399987578392 0.07976800203323364 -0.018953999504446983
v 0.017622999846935272 0.07754500210285187 -0.023672999814152718
v -0.0018789999885484576 0.07387000322341919 0
v -0.0017030000453814864 0.07351399958133698 -0.005561999976634979
v -0.00215000007301569 0.0737999975681305 -0.01647699996829033
v 0.0030529999639838934 0.07627899944782257 -0.02381099946796894
v 0.030393000692129135 0.08060900121927261 0.00926200021058321
v 0.02542399987578392 0.07976800203323364 0.018953999504446983
v 0.017622999846935272 0.07754500210285187 0.023672999814152718
v -0.0017030000453814864 0.07351399958133698 0.005561999976634979
v -0.00215000007301569 0.0737999975681305 0.01647699996829033
v 0.0030529999639838934 0.07627899944782257 0.02381099946796894
v 0.030865000560879707 0.08193200081586838 -0.011123999953269958
v 0.030611999332904816 0.0826290026307106 0
v 0.030865000560879707 0.08193200081586838 0.011123999953269958
v 0.02399899996817112 0.08265399932861328 -0.01830499991774559
v 0.015196000225841999 0.08328399807214737 -0.022254999727010727
v -0.0025369999930262566 0.07956700026988983 -0.00520299980416894
v -0.002471999963745475 0.07942400127649307 0
v -0.0025369999930262566 0.07956700026988983 0.00520299980416894
v -0.0029200001154094934 0.08146200329065323 -0.016824999824166298
v 0.0039470000192523 0.07968299835920334 -0.022422000765800476
v -0.003886000020429492 0.08096200227737427 -0.009933999739587307
v 0.02399899996817112 0.08265399932861328 0.01830499991774559
v 0.015196000225841999 0.08328399807214737 0.022254999727010727
v 0.0039470000192523 0.07968299835920334 0.022422000765800476
v -0.0029200001154094934 0.08146200329065323 0.016824999824166298
v -0.003886000020429492 0.08096200227737427 0.009933999739587307
v 0.02727299928665161 0.08798900246620178 -0.01082799956202507
v 0.02877900004386902 0.08786199986934662 0
v 0.02727299928665161 0.08798900246620178 0.01082799956202507
v 0.02127699926495552 0.08786000311374664 -0.0178459994494915
v 0.014167999848723412 0.08825100213289261 -0.0202380008995533
v -0.0038900000508874655 0.08663800358772278 -0.006682000122964382
v -0.0033740000799298286 0.0868149995803833 0
v -0.0038900000508874655 0.08663800358772278 0.006682000122964382
v -0.0023129999171942472 0.0854170024394989 -0.020061999559402466
v 0.0036269999109208584 0.08731099963188171 -0.02121499925851822
v -0.005998999811708927 0.08674799650907516 -0.010250000283122063
v 0.02127699926495552 0.08786000311374664 0.0178459994494915
v 0.014167999848723412 0.08825100213289261 0.0202380008995533
v 0.0036269999109208584 0.08731099963188171 0.02121499925851822
v -0.0023129999171942472 0.0854170024394989 0.020061999559402466
v -0.005998999811708927 0.08674799650907516 0.010250000283122063
v 0.025443000718951225 0.09767699986696243 -0.010444000363349915
v 0.02666899934411049 0.09936799854040146 0
v 0.025443000718951225 0.09767699986696243 0.010444000363349915
v 0.01909000054001808 0.09658899903297424 -0.018532000482082367
v 0.013826999813318253 0.09531199932098389 -0.02032800018787384
v -0.007271000184118748 0.09323199838399887 -0.006903999950736761
v -0.009476999752223492 0.09316100180149078 -0.010716999880969524
v -0.006525000091642141 0.09356000274419785 0
v -0.007271000184118748 0.09323199838399887 0.006903999950736761
v -0.009476999752223492 0.09316100180149078 0.010716999880969524
v -0.002345999935641885 0.09258099645376205 -0.02178500033915043
v 0.002956999931484461 0.09282100200653076 -0.021364999935030937
v -0.00634300010278821 0.08722399920225143 -0.022166000679135323
v -0.008709000423550606 0.08315099775791168 -0.018073000013828278
v -0.009251999668776989 0.09050700068473816 -0.026512999087572098
v -0.015293999575078487 0.08705700188875198 -0.003907000180333853
v 0.01909000054001808 0.09658899903297424 0.018532000482082367
v 0.013826999813318253 0.09531199932098389 0.02032800018787384
v 0.002956999931484461 0.09282100200653076 0.021364999935030937
v -0.002345999935641885 0.09258099645376205 0.02178500033915043
v -0.008709000423550606 0.08315099775791168 0.018073000013828278
v -0.00634300010278821 0.08722399920225143 0.022166000679135323
v -0.009251999668776989 0.09050700068473816 0.026512999087572098
v -0.015293999575078487 0.08705700188875198 0.003907000180333853
v 0.025762999430298805 0.1034260019659996 -0.01155799999833107
v 0.02632099948823452 0.10405799746513367 0
v 0.025762999430298805 0.1034260019659996 0.01155799999833107
v 0.020301999524235725 0.10147099941968918 -0.019617000594735146
v 0.013880999758839607 0.09909900277853012 -0.022482000291347504
v -0.009491999633610249 0.1013680025935173 -0.008813999593257904
v -0.009903999976813793 0.09918099641799927 -0.011508000083267689
v -0.007517999969422817 0.1007860004901886 0
v -0.009491999633610249 0.1013680025935173 0.008813999593257904
v -0.009903999976813793 0.09918099641799927 0.011508000083267689
v -0.004416000097990036 0.09729400277137756 -0.021049000322818756
v 0.0043299999088048935 0.09836500138044357 -0.02357500046491623
v -0.011415000073611736 0.09690199792385101 -0.02110300026834011
v -0.016690000891685486 0.08615099638700485 -0.01817999966442585
v -0.019329000264406204 0.09064599871635437 -0.024477999657392502
v -0.01283199992030859 0.08448000252246857 -0.026187000796198845
v -0.010208000428974628 0.07950100302696228 -0.011123999953269958
v -0.01432000007480383 0.08676300197839737 -0.03064199909567833
v -0.013425000011920929 0.0904960036277771 -0.033705998212099075
v -0.012787999585270882 0.07431799918413162 -0.005382999777793884
v -0.015296000055968761 0.08535899966955185 0
v -0.02469700016081333 0.08659200370311737 0
v -0.018698999658226967 0.09350600093603134 -0.008136999793350697
v 0.020301999524235725 0.10147099941968918 0.019617000594735146
v 0.013880999758839607 0.09909900277853012 0.022482000291347504
v 0.0043299999088048935 0.09836500138044357 0.02357500046491623
v -0.004416000097990036 0.09729400277137756 0.021049000322818756
v -0.011415000073611736 0.09690199792385101 0.02110300026834011
v -0.019329000264406204 0.09064599871635437 0.024477999657392502
v -0.016690000891685486 0.08615099638700485 0.01817999966442585
v -0.01283199992030859 0.08448000252246857 0.026187000796198845
v -0.010208000428974628 0.07950100302696228 0.011123999953269958
v -0.013425000011920929 0.0904960036277771 0.033705998212099075
v -0.01432000007480383 0.08676300197839737 0.03064199909567833
v -0.012787999585270882 0.07431799918413162 0.005382999777793884
v -0.018698999658226967 0.09350600093603134 0.008136999793350697
v 0.024320000782608986 0.10857799649238586 -0.011769999749958515
v 0.025147000327706337 0.10908699780702591 0
v 0.024320000782608986 0.10857799649238586 0.011769999749958515
v 0.019014999270439148 0.10691899806261063 -0.01988700032234192
v 0.011547000147402287 0.1051499992609024 -0.023569000884890556
v 0.00203699991106987 0.10208600014448166 -0.023722000420093536
v -0.011521999724209309 0.09905499964952469 -0.014901000075042248
v -0.019013000652194023 0.10431600362062454 -0.01691400073468685
v -0.018306000158190727 0.10126099735498428 -0.010619999840855598
v 0.008814999833703041 0.10493700206279755 0
v -0.0073529998771846294 0.10135900229215622 -0.018093999475240707
v -0.019013000652194023 0.10431600362062454 0.01691400073468685
v -0.011521999724209309 0.09905499964952469 0.014901000075042248
v -0.018306000158190727 0.10126099735498428 0.010619999840855598
v -0.0073529998771846294 0.10135900229215622 0.018093999475240707
v -0.016820000484585762 0.09627699851989746 -0.03007899969816208
v -0.016308000311255455 0.10006900131702423 -0.019454000517725945
v -0.018557999283075333 0.07812000066041946 -0.01637200079858303
v -0.022972000762820244 0.07534199953079224 -0.013371000066399574
v -0.025217000395059586 0.09120000153779984 -0.022324999794363976
v -0.025508999824523926 0.08964499831199646 -0.014991000294685364
v -0.022928999736905098 0.08852799981832504 -0.013403000310063362
v -0.026500999927520752 0.1010190024971962 -0.02059900015592575
v -0.020205000415444374 0.09742099791765213 -0.022512000054121017
v -0.010021000169217587 0.07222100347280502 -0.012679999694228172
v -0.022109000012278557 0.07075899839401245 -0.0180440004914999
v -0.0189410001039505 0.08713799715042114 -0.03400399908423424
v -0.017590999603271484 0.09001599997282028 -0.03728900104761124
v -0.021253999322652817 0.0950160026550293 -0.034481000155210495
v -0.012059000320732594 0.06842999905347824 -0.007067999802529812
v -0.0162579994648695 0.07479400187730789 0
v -0.02523300051689148 0.08229599893093109 -0.0052189999260008335
v -0.03327900171279907 0.07651399821043015 0
v -0.020907999947667122 0.08195500075817108 -0.008762000128626823
v -0.02160399965941906 0.08690699934959412 -0.010989000089466572
v -0.02523300051689148 0.08229599893093109 0.0052189999260008335
v -0.020907999947667122 0.08195500075817108 0.008762000128626823
v -0.02160399965941906 0.08690699934959412 0.010989000089466572
v -0.019943999126553535 0.093859001994133 -0.011990999802947044
v 0.019014999270439148 0.10691899806261063 0.01988700032234192
v 0.011547000147402287 0.1051499992609024 0.023569000884890556
v 0.00203699991106987 0.10208600014448166 0.023722000420093536
v -0.016820000484585762 0.09627699851989746 0.03007899969816208
v -0.016308000311255455 0.10006900131702423 0.019454000517725945
v -0.026500999927520752 0.1010190024971962 0.02059900015592575
v -0.025217000395059586 0.09120000153779984 0.022324999794363976
v -0.020205000415444374 0.09742099791765213 0.022512000054121017
v -0.022972000762820244 0.07534199953079224 0.013371000066399574
v -0.018557999283075333 0.07812000066041946 0.01637200079858303
v -0.025508999824523926 0.08964499831199646 0.014991000294685364
v -0.022928999736905098 0.08852799981832504 0.013403000310063362
v -0.010021000169217587 0.07222100347280502 0.012679999694228172
v -0.022109000012278557 0.07075899839401245 0.0180440004914999
v -0.017590999603271484 0.09001599997282028 0.03728900104761124
v -0.0189410001039505 0.08713799715042114 0.03400399908423424
v -0.021253999322652817 0.0950160026550293 0.034481000155210495
v -0.012059000320732594 0.06842999905347824 0.007067999802529812
v -0.019943999126553535 0.093859001994133 0.011990999802947044
v -0.03193100169301033 0.0961809977889061 -0.017263000831007957
v -0.024444999173283577 0.09505400061607361 -0.014720000326633453
v -0.03193100169301033 0.0961809977889061 0.017263000831007957
v -0.024444999173283577 0.09505400061607361 0.014720000326633453
v -0.024515999481081963 0.06642299890518188 -0.010266999714076519
v -0.02507000043988228 0.07159300148487091 -0.010850000195205212
v -0.020944999530911446 0.06327199935913086 -0.017789000645279884
v -0.023166999220848083 0.0777290016412735 -0.009348000399768353
v -0.029735000804066658 0.09491000324487686 -0.022833000868558884
v -0.03126399964094162 0.09189900010824203 -0.017735999077558517
v -0.012277999892830849 0.05940600112080574 -0.014089999720454216
v -0.014494000002741814 0.065249003469944 -0.005613999906927347
v -0.01817299984395504 0.06829000264406204 0
v -0.014494000002741814 0.065249003469944 0.005613999906927347
v -0.028612999245524406 0.0766339972615242 -0.004406000021845102
v -0.03127099946141243 0.07166499644517899 -0.004288999829441309
v -0.04250499978661537 0.07119099795818329 0
v -0.028612999245524406 0.0766339972615242 0.004406000021845102
v -0.03127099946141243 0.07166499644517899 0.004288999829441309
v -0.023166999220848083 0.0777290016412735 0.009348000399768353
v -0.029735000804066658 0.09491000324487686 0.022833000868558884
v -0.03126399964094162 0.09189900010824203 0.017735999077558517
v -0.02507000043988228 0.07159300148487091 0.010850000195205212
v -0.024515999481081963 0.06642299890518188 0.010266999714076519
v -0.020944999530911446 0.06327199935913086 0.017789000645279884
v -0.012277999892830849 0.05940600112080574 0.014089999720454216
v -0.03075999952852726 0.06675200164318085 -0.004478000104427338
v -0.019975999370217323 0.06415099650621414 -0.008067999966442585
v -0.025637999176979065 0.06451600044965744 -0.005253000184893608
v -0.024660000577569008 0.05896399915218353 0
v -0.019975999370217323 0.06415099650621414 0.008067999966442585
v -0.025637999176979065 0.06451600044965744 0.005253000184893608
v -0.04387199878692627 0.06549499928951263 0
v -0.03075999952852726 0.06675200164318085 0.004478000104427338
v -0.034042999148368835 0.0625389963388443 -0.004879999905824661
v -0.030251000076532364 0.06065100058913231 -0.004896999802440405
v -0.031005000695586205 0.056102000176906586 -0.00380200007930398
v -0.0328189991414547 0.05498199909925461 0
v -0.031005000695586205 0.056102000176906586 0.00380200007930398
v -0.030249999836087227 0.06065100058913231 0.004896999802440405
v -0.04104899987578392 0.06055000051856041 -0.004941000137478113
v -0.04174000024795532 0.058743998408317566 0
v -0.04104899987578392 0.06055000051856041 0.004941000137478113
v -0.034042999148368835 0.0625389963388443 0.004879999905824661
v -0.03858000040054321 0.05693899840116501 -0.005756999831646681
v -0.0372139997780323 0.055055998265743256 0
v -0.03858000040054321 0.05693899840116501 0.005756999831646681
f 1 2 3
f 1 4 2
f 1 5 4
f 1 6 7
f 7 8 1
f 1 8 9
f 9 5 1
f 3 10 1
f 10 11 1
f 11 12 1
f 13 6 1
f 1 14 13
f 15 14 1
f 1 12 15
f 3 2 16
f 16 2 4
f 17 3 16
f 18 10 3
f 18 3 17
f 19 16 4
f 19 4 5
f 20 19 5
f 20 5 9
f 21 7 6
f 22 21 6
f 6 13 23
f 6 23 22
f 7 21 8
f 8 24 25
f 9 8 25
f 26 24 8
f 21 26 8
f 25 20 9
f 11 10 18
f 11 18 27
f 12 11 27
f 12 27 28
f 15 12 28
f 14 23 13
f 29 30 14
f 29 14 15
f 14 30 31
f 14 31 23
f 15 28 29
f 16 32 33
f 17 16 33
f 32 16 19
f 33 18 17
f 33 34 18
f 27 18 34
f 35 32 19
f 35 19 20
f 36 35 20
f 36 20 25
f 21 22 37
f 26 21 37
f 38 37 22
f 22 39 38
f 39 22 23
f 39 23 31
f 24 40 41
f 25 24 41
f 42 24 26
f 42 40 24
f 41 36 25
f 42 26 37
f 27 34 43
f 28 27 43
f 28 43 44
f 29 28 44
f 29 44 45
f 45 30 29
f 45 46 30
f 31 30 47
f 30 46 47
f 39 31 47
f 32 48 49
f 33 32 49
f 48 32 35
f 49 34 33
f 49 50 34
f 43 34 50
f 51 48 35
f 51 35 36
f 52 51 36
f 52 36 41
f 53 37 38
f 53 54 37
f 54 42 37
f 55 53 38
f 38 39 56
f 38 56 55
f 39 57 56
f 39 47 57
f 40 58 59
f 41 40 59
f 60 40 61
f 40 60 62
f 58 40 62
f 42 61 40
f 59 52 41
f 42 63 61
f 63 42 54
f 43 50 64
f 44 43 64
f 44 64 65
f 45 44 65
f 45 65 66
f 66 46 45
f 66 67 46
f 68 46 69
f 70 69 46
f 70 46 67
f 46 68 47
f 68 71 47
f 57 47 71
f 48 72 73
f 49 48 73
f 72 48 51
f 73 50 49
f 73 74 50
f 64 50 74
f 75 72 51
f 75 51 52
f 76 75 52
f 76 52 59
f 77 53 55
f 78 54 53
f 77 78 53
f 54 78 63
f 79 77 55
f 55 56 80
f 55 80 79
f 56 57 81
f 56 81 80
f 71 81 57
f 58 82 83
f 59 58 83
f 58 62 84
f 82 58 84
f 83 76 59
f 62 60 61
f 61 85 86
f 87 61 86
f 87 62 61
f 88 85 61
f 63 88 61
f 89 90 62
f 87 89 62
f 62 90 84
f 91 63 92
f 93 92 63
f 94 93 63
f 63 91 88
f 78 94 63
f 64 74 95
f 65 64 95
f 65 95 96
f 66 65 96
f 66 96 97
f 97 67 66
f 97 98 67
f 99 70 67
f 99 67 98
f 100 101 68
f 100 68 102
f 68 69 70
f 68 70 102
f 68 101 103
f 68 103 71
f 70 104 105
f 70 105 102
f 99 104 70
f 92 71 106
f 71 92 93
f 71 93 107
f 103 106 71
f 71 107 81
f 72 108 109
f 73 72 109
f 108 72 75
f 109 74 73
f 109 110 74
f 95 74 110
f 111 108 75
f 75 76 112
f 111 75 112
f 76 83 113
f 112 76 113
f 77 114 115
f 115 116 77
f 116 94 77
f 78 77 94
f 117 77 79
f 117 118 77
f 77 118 114
f 79 80 117
f 119 120 80
f 80 121 119
f 80 107 121
f 107 80 81
f 80 122 117
f 120 122 80
f 83 82 113
f 82 84 118
f 82 118 113
f 84 114 118
f 90 123 84
f 124 84 123
f 114 84 124
f 85 125 126
f 86 85 127
f 85 128 127
f 88 125 85
f 126 129 85
f 129 128 85
f 86 127 130
f 123 87 86
f 123 86 131
f 131 86 130
f 123 89 87
f 132 88 91
f 88 132 133
f 125 88 133
f 89 134 135
f 90 89 135
f 89 136 134
f 123 136 89
f 90 135 123
f 137 91 138
f 138 91 92
f 137 132 91
f 92 106 138
f 93 139 140
f 141 139 93
f 142 141 93
f 93 94 142
f 140 143 93
f 93 143 144
f 93 144 145
f 145 107 93
f 94 146 142
f 116 146 94
f 95 110 147
f 148 96 95
f 148 95 147
f 149 97 96
f 149 96 148
f 149 98 97
f 122 99 98
f 149 122 98
f 122 120 99
f 99 150 104
f 150 99 151
f 151 99 120
f 152 153 100
f 153 101 100
f 100 102 150
f 154 100 150
f 152 100 154
f 155 156 101
f 153 157 101
f 101 156 103
f 101 158 155
f 101 157 158
f 102 105 150
f 106 103 159
f 160 159 103
f 160 103 156
f 150 161 104
f 161 105 104
f 161 162 105
f 162 163 105
f 105 163 150
f 138 106 164
f 106 159 164
f 145 165 107
f 107 165 121
f 117 108 111
f 117 109 108
f 110 109 117
f 147 110 117
f 117 111 112
f 117 112 113
f 117 113 118
f 124 115 114
f 115 124 130
f 115 130 166
f 167 115 166
f 167 146 115
f 116 115 146
f 148 147 117
f 149 148 117
f 122 149 117
f 120 119 151
f 152 151 119
f 168 152 119
f 168 119 169
f 119 165 169
f 165 119 121
f 135 136 123
f 131 124 123
f 124 131 130
f 126 125 133
f 170 171 126
f 172 170 126
f 133 172 126
f 173 126 171
f 126 173 129
f 127 174 130
f 175 174 127
f 175 127 128
f 166 175 128
f 167 166 128
f 128 129 146
f 167 128 146
f 146 129 142
f 141 129 173
f 142 129 141
f 166 130 174
f 132 176 133
f 137 176 132
f 176 172 133
f 134 136 135
f 177 137 138
f 177 176 137
f 178 177 138
f 138 164 179
f 138 179 178
f 140 139 180
f 139 141 180
f 181 182 140
f 180 181 140
f 183 143 140
f 140 182 184
f 140 184 183
f 141 173 180
f 183 144 143
f 183 185 144
f 185 158 144
f 144 158 145
f 145 158 165
f 150 163 161
f 150 151 154
f 152 154 151
f 152 186 153
f 186 152 168
f 153 186 187
f 157 153 187
f 160 156 155
f 155 188 189
f 155 189 190
f 155 190 160
f 188 155 185
f 158 185 155
f 157 187 168
f 157 168 169
f 165 158 157
f 165 157 169
f 160 191 159
f 159 191 164
f 160 190 191
f 161 163 162
f 164 191 179
f 175 166 174
f 186 168 187
f 171 170 192
f 170 193 194
f 192 170 194
f 170 172 193
f 173 171 181
f 181 171 192
f 172 176 193
f 180 173 181
f 193 176 177
f 194 193 177
f 195 194 177
f 195 177 178
f 178 179 195
f 179 191 196
f 179 196 197
f 179 197 195
f 181 192 182
f 192 198 182
f 182 198 199
f 182 199 184
f 184 185 183
f 184 188 185
f 199 188 184
f 199 189 188
f 197 196 189
f 197 189 199
f 196 190 189
f 196 191 190
f 192 200 198
f 192 194 201
f 200 192 201
f 194 195 202
f 201 194 202
f 203 202 195
f 195 204 203
f 204 195 197
f 205 197 199
f 204 197 205
f 200 206 198
f 198 206 207
f 198 208 209
f 198 209 199
f 207 208 198
f 205 199 209
f 200 201 202
f 210 200 202
f 200 210 206
f 210 202 203
f 211 210 203
f 203 204 212
f 203 212 211
f 204 205 209
f 204 209 212
f 206 210 211
f 207 206 211
f 211 208 207
f 211 212 208
f 208 212 209
