# Generated by Visualization Toolkit
v 0.010402999818325043 0.005803000181913376 0
v 0.024133000522851944 0.0038060001097619534 -0.00927099958062172
v 0.023094000294804573 0.0007200000109151006 0
v 0.01922599971294403 0.005191999953240156 -0.01897300034761429
v 0.015007000416517258 0.005053000058978796 -0.02369699999690056
v -0.003309000050649047 0.012044000439345837 0
v -0.003286000108346343 0.011642999947071075 -0.0055680000223219395
v -0.0035860000643879175 0.012097000144422054 -0.016493000090122223
v 0.0021780000533908606 0.012102000415325165 -0.02383499965071678
v 0.024133000522851944 0.0038060001097619534 0.00927099958062172
v 0.01922599971294403 0.005191999953240156 0.01897300034761429
v 0.015007000416517258 0.005053000058978796 0.02369699999690056
v -0.003286000108346343 0.011642999947071075 0.0055680000223219395
v -0.0035860000643879175 0.012097000144422054 0.016493000090122223
v 0.0021780000533908606 0.012102000415325165 0.02383499965071678
v 0.025086000561714172 0.004805999808013439 -0.011134999804198742
v 0.02512500062584877 0.0055519999004900455 0
v 0.025086000561714172 0.004805999808013439 0.011134999804198742
v 0.018299000337719917 0.008559999987483025 -0.018324000760912895
v 0.01501299999654293 0.011332999914884567 -0.022276999428868294
v -0.0027830000035464764 0.01562800072133541 -0.00520800007507205
v -0.002778999973088503 0.015468999743461609 0
v -0.0027830000035464764 0.01562800072133541 0.00520800007507205
v -0.0023960000835359097 0.0175199992954731 -0.016840999945998192
v 0.003237999975681305 0.012923999689519405 -0.022444000467658043
v -0.0034809999633580446 0.017481999471783638 -0.009944000281393528
v 0.018299000337719917 0.008559999987483025 0.018324000760912895
v 0.01501299999654293 0.011332999914884567 0.022276999428868294
v 0.003237999975681305 0.012923999689519405 0.022444000467658043
v -0.0023960000835359097 0.0175199992954731 0.016840999945998192
v -0.0034809999633580446 0.017481999471783638 0.009944000281393528
v 0.026472000405192375 0.011889999732375145 -0.010839000344276428
v 0.02418000064790249 0.011207000352442265 0
v 0.026472000405192375 0.011889999732375145 0.010839000344276428
v 0.02240700088441372 0.012868000194430351 -0.01786400005221367
v 0.016008000820875168 0.01630299910902977 -0.020258000120520592
v -0.0012659999774768949 0.022655000910162926 -0.006688999943435192
v -0.0007210000185295939 0.022593999281525612 0
v -0.0012659999774768949 0.022655000910162926 0.006688999943435192
v -0.00028899998869746923 0.020860999822616577 -0.020082000643014908
v 0.005925999954342842 0.02001200057566166 -0.021237000823020935
v -0.003166999900713563 0.023669999092817307 -0.010259999893605709
v 0.02240700088441372 0.012868000194430351 0.01786400005221367
v 0.016008000820875168 0.01630299910902977 0.020258000120520592
v 0.005925999954342842 0.02001200057566166 0.021237000823020935
v -0.00028899998869746923 0.020860999822616577 0.020082000643014908
v -0.003166999900713563 0.023669999092817307 0.010259999893605709
v 0.026453999802470207 0.02009199932217598 -0.010455000214278698
v 0.028245000168681145 0.021100999787449837 0
v 0.026453999802470207 0.02009199932217598 0.010455000214278698
v 0.02380399964749813 0.02176699973642826 -0.018549999222159386
v 0.01845400035381317 0.022884000092744827 -0.020347999408841133
v -0.001803999999538064 0.030128000304102898 -0.006910999771207571
v -0.003865000093355775 0.031019000336527824 -0.010727999731898308
v -0.0009879999561235309 0.03010299988090992 0
v -0.001803999999538064 0.030128000304102898 0.006910999771207571
v -0.003865000093355775 0.031019000336527824 0.010727999731898308
v 0.002481000032275915 0.0274020005017519 -0.021807000041007996
v 0.007462000008672476 0.02532299980521202 -0.021385999396443367
v -0.0032969999592751265 0.024252999573946 -0.02218800038099289
v -0.007069999817758799 0.021567000076174736 -0.018091000616550446
v -0.004695000126957893 0.02850399911403656 -0.02653999999165535
v -0.011611999943852425 0.027977000921964645 -0.003911000210791826
v 0.02380399964749813 0.02176699973642826 0.018549999222159386
v 0.01845400035381317 0.022884000092744827 0.020347999408841133
v 0.007462000008672476 0.02532299980521202 0.021385999396443367
v 0.002481000032275915 0.0274020005017519 0.021807000041007996
v -0.007069999817758799 0.021567000076174736 0.018091000616550446
v -0.0032969999592751265 0.024252999573946 0.02218800038099289
v -0.004695000126957893 0.02850399911403656 0.02653999999165535
v -0.011611999943852425 0.027977000921964645 0.003911000210791826
v 0.03262700140476227 0.025105999782681465 -0.01157000008970499
v 0.03338799998164177 0.025439999997615814 0
v 0.03262700140476227 0.025105999782681465 0.01157000008970499
v 0.026829000562429428 0.025690000504255295 -0.01963699981570244
v 0.01998399943113327 0.026311000809073448 -0.02250399999320507
v -0.0006699999794363976 0.03850200027227402 -0.008822999894618988
v -0.0019049999536946416 0.036688998341560364 -0.01152000017464161
v 0.0009219999774359167 0.03711799904704094 0
v -0.0006699999794363976 0.03850200027227402 0.008822999894618988
v -0.0019049999536946416 0.036688998341560364 0.01152000017464161
v 0.00241499999538064 0.03259199857711792 -0.021069999784231186
v 0.010894999839365482 0.02977900020778179 -0.02359900064766407
v -0.004188000224530697 0.035266000777482986 -0.02112399972975254
v -0.013252999633550644 0.02775700017809868 -0.018198000267148018
v -0.013927999883890152 0.03299500048160553 -0.024501999840140343
v -0.010350000113248825 0.024562999606132507 -0.02621299959719181
v -0.01001300010830164 0.02163499966263771 -0.011134999804198742
v -0.010828999802470207 0.027287999168038368 -0.030672000721096992
v -0.008545000106096268 0.03030100092291832 -0.03373999893665314
v -0.014418999664485455 0.01807199977338314 -0.005388000048696995
v -0.012277999892830849 0.026430999860167503 0
v -0.020555000752210617 0.03357100114226341 0
v -0.012230000458657742 0.03532800078392029 -0.008144999854266644
v 0.026829000562429428 0.025690000504255295 0.01963699981570244
v 0.01998399943113327 0.026311000809073448 0.02250399999320507
v 0.010894999839365482 0.02977900020778179 0.02359900064766407
v 0.00241499999538064 0.03259199857711792 0.021069999784231186
v -0.004188000224530697 0.035266000777482986 0.02112399972975254
v -0.013927999883890152 0.03299500048160553 0.024501999840140343
v -0.013252999633550644 0.02775700017809868 0.018198000267148018
v -0.010350000113248825 0.024562999606132507 0.02621299959719181
v -0.01001300010830164 0.02163499966263771 0.011134999804198742
v -0.008545000106096268 0.03030100092291832 0.03373999893665314
v -0.010828999802470207 0.027287999168038368 0.030672000721096992
v -0.014418999664485455 0.01807199977338314 0.005388000048696995
v -0.012230000458657742 0.03532800078392029 0.008144999854266644
v 0.031828999519348145 0.030667999759316444 -0.011781999841332436
v 0.03279000148177147 0.030773000791668892 0
v 0.031828999519348145 0.030667999759316444 0.011781999841332436
v 0.027773000299930573 0.031210999935865402 -0.01990699954330921
v 0.020198000594973564 0.0328340008854866 -0.023592999204993248
v 0.010236999951303005 0.03416299819946289 -0.02374500036239624
v -0.003444999922066927 0.03727399930357933 -0.014914999715983868
v -0.008293000049889088 0.04531199857592583 -0.016930999234318733
v -0.008834999985992908 0.0422229990363121 -0.01063000038266182
v 0.017596999183297157 0.033824000507593155 0
v 0.001297999988310039 0.03756700083613396 -0.018112000077962875
v -0.008293000049889088 0.04531199857592583 0.016930999234318733
v -0.003444999922066927 0.03727399930357933 0.014914999715983868
v -0.008834999985992908 0.0422229990363121 0.01063000038266182
v 0.001297999988310039 0.03756700083613396 0.018112000077962875
v -0.009414000436663628 0.03703799843788147 -0.030108999460935593
v -0.007459000218659639 0.04027099907398224 -0.0194729994982481
v -0.018214000388979912 0.023287000134587288 -0.016388000920414925
v -0.023368999361991882 0.022671999409794807 -0.013384000398218632
v -0.019138000905513763 0.03604999929666519 -0.022346999496221542
v -0.02001499943435192 0.0347599983215332 -0.01500600017607212
v -0.018074000254273415 0.032625000923871994 -0.013415999710559845
v -0.016482999548316002 0.045552000403404236 -0.02061999961733818
v -0.012086999602615833 0.03954700008034706 -0.022533999755978584
v -0.012690999545156956 0.014999999664723873 -0.01269300002604723
v -0.02447899989783764 0.020447999238967896 -0.01806199923157692
v -0.014941999688744545 0.029631000012159348 -0.0340379998087883
v -0.0125730000436306 0.03166799992322922 -0.03732600063085556
v -0.013993999920785427 0.03781000152230263 -0.034515999257564545
v -0.01613299921154976 0.014103000052273273 -0.007075000088661909
v -0.017430000007152557 0.019982999190688133 0
v -0.02273000031709671 0.029921000823378563 -0.005224000196903944
v -0.0324070006608963 0.028150999918580055 0
v -0.0188790000975132 0.027758000418543816 -0.008771000429987907
v -0.017486000433564186 0.030573999509215355 -0.011001000180840492
v -0.02273000031709671 0.029921000823378563 0.005224000196903944
v -0.0188790000975132 0.027758000418543816 0.008771000429987907
v -0.017486000433564186 0.030573999509215355 0.011001000180840492
v -0.013238999992609024 0.0361890010535717 -0.012002999894320965
v 0.027773000299930573 0.031210999935865402 0.01990699954330921
v 0.020198000594973564 0.0328340008854866 0.023592999204993248
v 0.010236999951303005 0.03416299819946289 0.02374500036239624
v -0.009414000436663628 0.03703799843788147 0.030108999460935593
v -0.007459000218659639 0.04027099907398224 0.0194729994982481
v -0.016482999548316002 0.045552000403404236 0.02061999961733818
v -0.019138000905513763 0.03604999929666519 0.022346999496221542
v -0.012086999602615833 0.03954700008034706 0.022533999755978584
v -0.023368999361991882 0.022671999409794807 0.013384000398218632
v -0.018214000388979912 0.023287000134587288 0.016388000920414925
v -0.02001499943435192 0.0347599983215332 0.01500600017607212
v -0.018074000254273415 0.032625000923871994 0.013415999710559845
v -0.012690999545156956 0.014999999664723873 0.01269300002604723
v -0.02447899989783764 0.020447999238967896 0.01806199923157692
v -0.0125730000436306 0.03166799992322922 0.03732600063085556
v -0.014941999688744545 0.029631000012159348 0.0340379998087883
v -0.013993999920785427 0.03781000152230263 0.034515999257564545
v -0.01613299921154976 0.014103000052273273 0.007075000088661909
v -0.013238999992609024 0.0361890010535717 0.012002999894320965
v -0.023377999663352966 0.04349600151181221 -0.017280999571084976
v -0.016920000314712524 0.03922700136899948 -0.01473500020802021
v -0.023377999663352966 0.04349600151181221 0.017280999571084976
v -0.016920000314712524 0.03922700136899948 0.01473500020802021
v -0.02844100072979927 0.018526999279856682 -0.01027700025588274
v -0.026878999546170235 0.022450000047683716 -0.010861000046133995
v -0.026398999616503716 0.014468000270426273 -0.017806999385356903
v -0.022614000365138054 0.024910999462008476 -0.009358000010251999
v -0.02185099944472313 0.041388001292943954 -0.022856000810861588
v -0.024437999352812767 0.03930699825286865 -0.01775299943983555
v -0.019869999960064888 0.006124999839812517 -0.01410400029271841
v -0.01962199993431568 0.012291000224649906 -0.005619999952614307
v -0.021740000694990158 0.014945000410079956 0
v -0.01962199993431568 0.012291000224649906 0.005619999952614307
v -0.028060000389814377 0.02625799924135208 -0.0044109998270869255
v -0.0324539989233017 0.022910000756382942 -0.0042929998598992825
v -0.038871001452207565 0.02708500064909458 0
v -0.028060000389814377 0.02625799924135208 0.0044109998270869255
v -0.0324539989233017 0.022910000756382942 0.0042929998598992825
v -0.022614000365138054 0.024910999462008476 0.009358000010251999
v -0.02185099944472313 0.041388001292943954 0.022856000810861588
v -0.024437999352812767 0.03930699825286865 0.01775299943983555
v -0.026878999546170235 0.022450000047683716 0.010861000046133995
v -0.02844100072979927 0.018526999279856682 0.01027700025588274
v -0.026398999616503716 0.014468000270426273 0.017806999385356903
v -0.019869999960064888 0.006124999839812517 0.01410400029271841
v -0.03325200080871582 0.02245499938726425 -0.004482000134885311
v -0.025102000683546066 0.013633999973535538 -0.008077000267803669
v -0.030875999480485916 0.020295999944210052 -0.005259000230580568
v -0.03169799968600273 0.017480000853538513 0
v -0.025102000683546066 0.013633999973535538 0.008077000267803669
v -0.030875999480485916 0.020295999944210052 0.005259000230580568
v -0.041071001440286636 0.024709999561309814 0
v -0.03325200080871582 0.02245499938726425 0.004482000134885311
v -0.03618000075221062 0.021191999316215515 -0.004883999936282635
v -0.03447800129652023 0.01948400028049946 -0.004902000073343515
v -0.036042001098394394 0.017513999715447426 -0.00380500010214746
v -0.037358999252319336 0.017381999641656876 0
v -0.036042001098394394 0.017513999715447426 0.00380500010214746
v -0.03447800129652023 0.01948400028049946 0.004902000073343515
v -0.040686000138521194 0.021779000759124756 -0.004945999942719936
v -0.041531000286340714 0.02108200080692768 0
v -0.040686000138521194 0.021779000759124756 0.004945999942719936
v -0.03618000075221062 0.021191999316215515 0.004883999936282635
v -0.040171001106500626 0.019548999145627022 -0.005762999877333641
v -0.03985799849033356 0.018370000645518303 0
v -0.040171001106500626 0.019548999145627022 0.005762999877333641
f 1 2 3
f 1 4 2
f 1 5 4
f 1 6 7
f 7 8 1
f 1 8 9
f 9 5 1
f 3 10 1
f 10 11 1
f 11 12 1
f 13 6 1
f 1 14 13
f 15 14 1
f 1 12 15
f 3 2 16
f 16 2 4
f 17 3 16
f 18 10 3
f 18 3 17
f 19 16 4
f 19 4 5
f 20 19 5
f 20 5 9
f 21 7 6
f 22 21 6
f 6 13 23
f 6 23 22
f 7 21 8
f 8 24 25
f 9 8 25
f 26 24 8
f 21 26 8
f 25 20 9
f 11 10 18
f 11 18 27
f 12 11 27
f 12 27 28
f 15 12 28
f 14 23 13
f 29 30 14
f 29 14 15
f 14 30 31
f 14 31 23
f 15 28 29
f 16 32 33
f 17 16 33
f 32 16 19
f 33 18 17
f 33 34 18
f 27 18 34
f 35 32 19
f 35 19 20
f 36 35 20
f 36 20 25
f 21 22 37
f 26 21 37
f 38 37 22
f 22 39 38
f 39 22 23
f 39 23 31
f 24 40 41
f 25 24 41
f 42 24 26
f 42 40 24
f 41 36 25
f 42 26 37
f 27 34 43
f 28 27 43
f 28 43 44
f 29 28 44
f 29 44 45
f 45 30 29
f 45 46 30
f 31 30 47
f 30 46 47
f 39 31 47
f 32 48 49
f 33 32 49
f 48 32 35
f 49 34 33
f 49 50 34
f 43 34 50
f 51 48 35
f 51 35 36
f 52 51 36
f 52 36 41
f 53 37 38
f 53 54 37
f 54 42 37
f 55 53 38
f 38 39 56
f 38 56 55
f 39 57 56
f 39 47 57
f 40 58 59
f 41 40 59
f 60 40 61
f 40 60 62
f 58 40 62
f 42 61 40
f 59 52 41
f 42 63 61
f 63 42 54
f 43 50 64
f 44 43 64
f 44 64 65
f 45 44 65
f 45 65 66
f 66 46 45
f 66 67 46
f 68 46 69
f 70 69 46
f 70 46 67
f 46 68 47
f 68 71 47
f 57 47 71
f 48 72 73
f 49 48 73
f 72 48 51
f 73 50 49
f 73 74 50
f 64 50 74
f 75 72 51
f 75 51 52
f 76 75 52
f 76 52 59
f 77 53 55
f 78 54 53
f 77 78 53
f 54 78 63
f 79 77 55
f 55 56 80
f 55 80 79
f 56 57 81
f 56 81 80
f 71 81 57
f 58 82 83
f 59 58 83
f 58 62 84
f 82 58 84
f 83 76 59
f 62 60 61
f 61 85 86
f 87 61 86
f 87 62 61
f 88 85 61
f 63 88 61
f 89 90 62
f 87 89 62
f 62 90 84
f 91 63 92
f 93 92 63
f 94 93 63
f 63 91 88
f 78 94 63
f 64 74 95
f 65 64 95
f 65 95 96
f 66 65 96
f 66 96 97
f 97 67 66
f 97 98 67
f 99 70 67
f 99 67 98
f 100 101 68
f 100 68 102
f 68 69 70
f 68 70 102
f 68 101 103
f 68 103 71
f 70 104 105
f 70 105 102
f 99 104 70
f 92 71 106
f 71 92 93
f 71 93 107
f 103 106 71
f 71 107 81
f 72 108 109
f 73 72 109
f 108 72 75
f 109 74 73
f 109 110 74
f 95 74 110
f 111 108 75
f 75 76 112
f 111 75 112
f 76 83 113
f 112 76 113
f 77 114 115
f 115 116 77
f 116 94 77
f 78 77 94
f 117 77 79
f 117 118 77
f 77 118 114
f 79 80 117
f 119 120 80
f 80 121 119
f 80 107 121
f 107 80 81
f 80 122 117
f 120 122 80
f 83 82 113
f 82 84 118
f 82 118 113
f 84 114 118
f 90 123 84
f 124 84 123
f 114 84 124
f 85 125 126
f 86 85 127
f 85 128 127
f 88 125 85
f 126 129 85
f 129 128 85
f 86 127 130
f 123 87 86
f 123 86 131
f 131 86 130
f 123 89 87
f 132 88 91
f 88 132 133
f 125 88 133
f 89 134 135
f 90 89 135
f 89 136 134
f 123 136 89
f 90 135 123
f 137 91 138
f 138 91 92
f 137 132 91
f 92 106 138
f 93 139 140
f 141 139 93
f 142 141 93
f 93 94 142
f 140 143 93
f 93 143 144
f 93 144 145
f 145 107 93
f 94 146 142
f 116 146 94
f 95 110 147
f 148 96 95
f 148 95 147
f 149 97 96
f 149 96 148
f 149 98 97
f 122 99 98
f 149 122 98
f 122 120 99
f 99 150 104
f 150 99 151
f 151 99 120
f 152 153 100
f 153 101 100
f 100 102 150
f 154 100 150
f 152 100 154
f 155 156 101
f 153 157 101
f 101 156 103
f 101 158 155
f 101 157 158
f 102 105 150
f 106 103 159
f 160 159 103
f 160 103 156
f 150 161 104
f 161 105 104
f 161 162 105
f 162 163 105
f 105 163 150
f 138 106 164
f 106 159 164
f 145 165 107
f 107 165 121
f 117 108 111
f 117 109 108
f 110 109 117
f 147 110 117
f 117 111 112
f 117 112 113
f 117 113 118
f 124 115 114
f 115 124 130
f 115 130 166
f 167 115 166
f 167 146 115
f 116 115 146
f 148 147 117
f 149 148 117
f 122 149 117
f 120 119 151
f 152 151 119
f 168 152 119
f 168 119 169
f 119 165 169
f 165 119 121
f 135 136 123
f 131 124 123
f 124 131 130
f 126 125 133
f 170 171 126
f 172 170 126
f 133 172 126
f 173 126 171
f 126 173 129
f 127 174 130
f 175 174 127
f 175 127 128
f 166 175 128
f 167 166 128
f 128 129 146
f 167 128 146
f 146 129 142
f 141 129 173
f 142 129 141
f 166 130 174
f 132 176 133
f 137 176 132
f 176 172 133
f 134 136 135
f 177 137 138
f 177 176 137
f 178 177 138
f 138 164 179
f 138 179 178
f 140 139 180
f 139 141 180
f 181 182 140
f 180 181 140
f 183 143 140
f 140 182 184
f 140 184 183
f 141 173 180
f 183 144 143
f 183 185 144
f 185 158 144
f 144 158 145
f 145 158 165
f 150 163 161
f 150 151 154
f 152 154 151
f 152 186 153
f 186 152 168
f 153 186 187
f 157 153 187
f 160 156 155
f 155 188 189
f 155 189 190
f 155 190 160
f 188 155 185
f 158 185 155
f 157 187 168
f 157 168 169
f 165 158 157
f 165 157 169
f 160 191 159
f 159 191 164
f 160 190 191
f 161 163 162
f 164 191 179
f 175 166 174
f 186 168 187
f 171 170 192
f 170 193 194
f 192 170 194
f 170 172 193
f 173 171 181
f 181 171 192
f 172 176 193
f 180 173 181
f 193 176 177
f 194 193 177
f 195 194 177
f 195 177 178
f 178 179 195
f 179 191 196
f 179 196 197
f 179 197 195
f 181 192 182
f 192 198 182
f 182 198 199
f 182 199 184
f 184 185 183
f 184 188 185
f 199 188 184
f 199 189 188
f 197 196 189
f 197 189 199
f 196 190 189
f 196 191 190
f 192 200 198
f 192 194 201
f 200 192 201
f 194 195 202
f 201 194 202
f 203 202 195
f 195 204 203
f 204 195 197
f 205 197 199
f 204 197 205
f 200 206 198
f 198 206 207
f 198 208 209
f 198 209 199
f 207 208 198
f 205 199 209
f 200 201 202
f 210 200 202
f 200 210 206
f 210 202 203
f 211 210 203
f 203 204 212
f 203 212 211
f 204 205 209
f 204 209 212
f 206 210 211
f 207 206 211
f 211 208 207
f 211 212 208
f 208 212 209
