# Generated by Visualization Toolkit
v 0.0017079999670386314 0.00911100022494793 0
v 0.016093000769615173 0.014008999802172184 -0.00926200021058321
v 0.014419999904930592 0.009709999896585941 0
v 0.011123999953269958 0.013167999684810638 -0.018953999504446983
v 0.0033229999244213104 0.010944999754428864 -0.023672999814152718
v -0.016178999096155167 0.007269999943673611 0
v -0.016002999618649483 0.006914000026881695 -0.005561999976634979
v -0.016450000926852226 0.007199999876320362 -0.01647699996829033
v -0.011246999725699425 0.00967899989336729 -0.02381099946796894
v 0.016093000769615173 0.014008999802172184 0.00926200021058321
v 0.011123999953269958 0.013167999684810638 0.018953999504446983
v 0.0033229999244213104 0.010944999754428864 0.023672999814152718
v -0.016002999618649483 0.006914000026881695 0.005561999976634979
v -0.016450000926852226 0.007199999876320362 0.01647699996829033
v -0.011246999725699425 0.00967899989336729 0.02381099946796894
v 0.016565000638365746 0.015332000330090523 -0.011123999953269958
v 0.016311999410390854 0.016029000282287598 0
v 0.016565000638365746 0.015332000330090523 0.011123999953269958
v 0.009699000045657158 0.016054000705480576 -0.01830499991774559
v 0.0008960000122897327 0.016683999449014664 -0.022254999727010727
v -0.016837000846862793 0.012966999784111977 -0.00520299980416894
v -0.01677200011909008 0.012823999859392643 0
v -0.016837000846862793 0.012966999784111977 0.00520299980416894
v -0.01721999980509281 0.01486200001090765 -0.016824999824166298
v -0.010352999903261662 0.013082999736070633 -0.022422000765800476
v -0.018185999244451523 0.014360999688506126 -0.009933999739587307
v 0.009699000045657158 0.016054000705480576 0.01830499991774559
v 0.0008960000122897327 0.016683999449014664 0.022254999727010727
v -0.010352999903261662 0.013082999736070633 0.022422000765800476
v -0.01721999980509281 0.01486200001090765 0.016824999824166298
v -0.018185999244451523 0.014360999688506126 0.009933999739587307
v 0.012973000295460224 0.021389000117778778 -0.01082799956202507
v 0.014479000121355057 0.021261999383568764 0
v 0.012973000295460224 0.021389000117778778 0.01082799956202507
v 0.006976999808102846 0.02126000076532364 -0.0178459994494915
v -0.0001320000010309741 0.021650999784469604 -0.0202380008995533
v -0.01819000020623207 0.020037999376654625 -0.006682000122964382
v -0.017673999071121216 0.020214999094605446 0
v -0.01819000020623207 0.020037999376654625 0.006682000122964382
v -0.016612999141216278 0.018818000331521034 -0.020061999559402466
v -0.010672999545931816 0.02071099914610386 -0.02121499925851822
v -0.0203000009059906 0.02014799974858761 -0.010250000283122063
v 0.006976999808102846 0.02126000076532364 0.0178459994494915
v -0.0001320000010309741 0.021650999784469604 0.0202380008995533
v -0.010672999545931816 0.02071099914610386 0.02121499925851822
v -0.016612999141216278 0.018818000331521034 0.020061999559402466
v -0.0203000009059906 0.02014799974858761 0.010250000283122063
v 0.011142999865114689 0.031076999381184578 -0.010444000363349915
v 0.012369000352919102 0.03276799991726875 0
v 0.011142999865114689 0.031076999381184578 0.010444000363349915
v 0.0047900001518428326 0.029989000409841537 -0.018532000482082367
v -0.0004729999927803874 0.02871200069785118 -0.02032800018787384
v -0.021570999175310135 0.026631999760866165 -0.006903999950736761
v -0.023777000606060028 0.02656099945306778 -0.010716999880969524
v -0.02082500047981739 0.02696000039577484 0
v -0.021570999175310135 0.026631999760866165 0.006903999950736761
v -0.023777000606060028 0.02656099945306778 0.010716999880969524
v -0.016645999625325203 0.025980999693274498 -0.02178500033915043
v -0.011343000456690788 0.026220999658107758 -0.021364999935030937
v -0.020642999559640884 0.02062400057911873 -0.022166000679135323
v -0.023009000346064568 0.016550999134778976 -0.018073000013828278
v -0.023552000522613525 0.023907000198960304 -0.026512999087572098
v -0.029594000428915024 0.02045699954032898 -0.003907000180333853
v 0.0047900001518428326 0.029989000409841537 0.018532000482082367
v -0.0004729999927803874 0.02871200069785118 0.02032800018787384
v -0.011343000456690788 0.026220999658107758 0.021364999935030937
v -0.016645999625325203 0.025980999693274498 0.02178500033915043
v -0.023009000346064568 0.016550999134778976 0.018073000013828278
v -0.020642999559640884 0.02062400057911873 0.022166000679135323
v -0.023552000522613525 0.023907000198960304 0.026512999087572098
v -0.029594000428915024 0.02045699954032898 0.003907000180333853
v 0.011463000439107418 0.0368259996175766 -0.01155799999833107
v 0.012020999565720558 0.03745799884200096 0
v 0.011463000439107418 0.0368259996175766 0.01155799999833107
v 0.006002000067383051 0.03487100079655647 -0.019617000594735146
v -0.0004189999890513718 0.03249900043010712 -0.022482000291347504
v -0.023792000487446785 0.0347680002450943 -0.008813999593257904
v -0.02420400083065033 0.03258100152015686 -0.011508000083267689
v -0.021818000823259354 0.034185998141765594 0
v -0.023792000487446785 0.0347680002450943 0.008813999593257904
v -0.02420400083065033 0.03258100152015686 0.011508000083267689
v -0.018716000020503998 0.030693000182509422 -0.021049000322818756
v -0.009970000013709068 0.03176499903202057 -0.02357500046491623
v -0.025715000927448273 0.030301999300718307 -0.02110300026834011
v -0.030990000814199448 0.019550999626517296 -0.01817999966442585
v -0.033629000186920166 0.024046000093221664 -0.024477999657392502
v -0.027132000774145126 0.017880000174045563 -0.026187000796198845
v -0.024507999420166016 0.012900999747216702 -0.011123999953269958
v -0.028620000928640366 0.020162999629974365 -0.03064199909567833
v -0.02772499993443489 0.023895999416708946 -0.033705998212099075
v -0.027087999507784843 0.007718000095337629 -0.005382999777793884
v -0.029596000909805298 0.018758999183773994 0
v -0.038996998220682144 0.019991999492049217 0
v -0.03299900144338608 0.026906000450253487 -0.008136999793350697
v 0.006002000067383051 0.03487100079655647 0.019617000594735146
v -0.0004189999890513718 0.03249900043010712 0.022482000291347504
v -0.009970000013709068 0.03176499903202057 0.02357500046491623
v -0.018716000020503998 0.030693000182509422 0.021049000322818756
v -0.025715000927448273 0.030301999300718307 0.02110300026834011
v -0.033629000186920166 0.024046000093221664 0.024477999657392502
v -0.030990000814199448 0.019550999626517296 0.01817999966442585
v -0.027132000774145126 0.017880000174045563 0.026187000796198845
v -0.024507999420166016 0.012900999747216702 0.011123999953269958
v -0.02772499993443489 0.023895999416708946 0.033705998212099075
v -0.028620000928640366 0.020162999629974365 0.03064199909567833
v -0.027087999507784843 0.007718000095337629 0.005382999777793884
v -0.03299900144338608 0.026906000450253487 0.008136999793350697
v 0.01001999992877245 0.04197800159454346 -0.011769999749958515
v 0.010847000405192375 0.042486999183893204 0
v 0.01001999992877245 0.04197800159454346 0.011769999749958515
v 0.0047149998135864735 0.04031899943947792 -0.01988700032234192
v -0.002753000007942319 0.0385500006377697 -0.023569000884890556
v -0.012263000011444092 0.03548600152134895 -0.023722000420093536
v -0.025822000578045845 0.03245500102639198 -0.014901000075042248
v -0.033312998712062836 0.03771499916911125 -0.01691400073468685
v -0.03260599821805954 0.03466099873185158 -0.010619999840855598
v -0.005485000088810921 0.03833699971437454 0
v -0.02165300026535988 0.034758999943733215 -0.018093999475240707
v -0.033312998712062836 0.03771499916911125 0.01691400073468685
v -0.025822000578045845 0.03245500102639198 0.014901000075042248
v -0.03260599821805954 0.03466099873185158 0.010619999840855598
v -0.02165300026535988 0.034758999943733215 0.018093999475240707
v -0.031120000407099724 0.029676999896764755 -0.03007899969816208
v -0.030608000233769417 0.03346899896860123 -0.019454000517725945
v -0.03285700082778931 0.01152000017464161 -0.01637200079858303
v -0.037271998822689056 0.008741999976336956 -0.013371000066399574
v -0.03951700031757355 0.02459999918937683 -0.022324999794363976
v -0.03980899974703789 0.023044999688863754 -0.014991000294685364
v -0.03722900152206421 0.021927999332547188 -0.013403000310063362
v -0.040800999850034714 0.03441900014877319 -0.02059900015592575
v -0.03450499847531319 0.030820999294519424 -0.022512000054121017
v -0.024320999160408974 0.005621000193059444 -0.012679999694228172
v -0.03640900179743767 0.0041589997708797455 -0.0180440004914999
v -0.03324100002646446 0.020538000389933586 -0.03400399908423424
v -0.031890999525785446 0.023415999487042427 -0.03728900104761124
v -0.03555399924516678 0.028416000306606293 -0.034481000155210495
v -0.02635899931192398 0.001829999964684248 -0.007067999802529812
v -0.03055799938738346 0.008194000460207462 0
v -0.039531998336315155 0.015696000307798386 -0.0052189999260008335
v -0.047579001635313034 0.00991399958729744 0
v -0.03520800173282623 0.015355000272393227 -0.008762000128626823
v -0.03590400144457817 0.02030700072646141 -0.010989000089466572
v -0.039531998336315155 0.015696000307798386 0.0052189999260008335
v -0.03520800173282623 0.015355000272393227 0.008762000128626823
v -0.03590400144457817 0.02030700072646141 0.010989000089466572
v -0.034244000911712646 0.02725899964570999 -0.011990999802947044
v 0.0047149998135864735 0.04031899943947792 0.01988700032234192
v -0.002753000007942319 0.0385500006377697 0.023569000884890556
v -0.012263000011444092 0.03548600152134895 0.023722000420093536
v -0.031120000407099724 0.029676999896764755 0.03007899969816208
v -0.030608000233769417 0.03346899896860123 0.019454000517725945
v -0.040800999850034714 0.03441900014877319 0.02059900015592575
v -0.03951700031757355 0.02459999918937683 0.022324999794363976
v -0.03450499847531319 0.030820999294519424 0.022512000054121017
v -0.037271998822689056 0.008741999976336956 0.013371000066399574
v -0.03285700082778931 0.01152000017464161 0.01637200079858303
v -0.03980899974703789 0.023044999688863754 0.014991000294685364
v -0.03722900152206421 0.021927999332547188 0.013403000310063362
v -0.024320999160408974 0.005621000193059444 0.012679999694228172
v -0.03640900179743767 0.0041589997708797455 0.0180440004914999
v -0.031890999525785446 0.023415999487042427 0.03728900104761124
v -0.03324100002646446 0.020538000389933586 0.03400399908423424
v -0.03555399924516678 0.028416000306606293 0.034481000155210495
v -0.02635899931192398 0.001829999964684248 0.007067999802529812
v -0.034244000911712646 0.02725899964570999 0.011990999802947044
v -0.04623100161552429 0.02958099916577339 -0.017263000831007957
v -0.03874500095844269 0.028454000130295753 -0.014720000326633453
v -0.04623100161552429 0.02958099916577339 0.017263000831007957
v -0.03874500095844269 0.028454000130295753 0.014720000326633453
v -0.038816001266241074 -0.00017699999443721026 -0.010266999714076519
v -0.03937000036239624 0.004993000067770481 -0.010850000195205212
v -0.03524500131607056 -0.0033279999624937773 -0.017789000645279884
v -0.037466999143362045 0.011129000224173069 -0.009348000399768353
v -0.04403499886393547 0.028310000896453857 -0.022833000868558884
v -0.04556399956345558 0.02529899962246418 -0.017735999077558517
v -0.02657799981534481 -0.007195000071078539 -0.014089999720454216
v -0.028793999925255775 -0.0013510000426322222 -0.005613999906927347
v -0.03247300162911415 0.0016899999463930726 0
v -0.028793999925255775 -0.0013510000426322222 0.005613999906927347
v -0.04291300103068352 0.01003399956971407 -0.004406000021845102
v -0.04557099938392639 0.0050650001503527164 -0.004288999829441309
v -0.056804999709129333 0.00459099980071187 0
v -0.04291300103068352 0.01003399956971407 0.004406000021845102
v -0.04557099938392639 0.0050650001503527164 0.004288999829441309
v -0.037466999143362045 0.011129000224173069 0.009348000399768353
v -0.04403499886393547 0.028310000896453857 0.022833000868558884
v -0.04556399956345558 0.02529899962246418 0.017735999077558517
v -0.03937000036239624 0.004993000067770481 0.010850000195205212
v -0.038816001266241074 -0.00017699999443721026 0.010266999714076519
v -0.03524500131607056 -0.0033279999624937773 0.017789000645279884
v -0.02657799981534481 -0.007195000071078539 0.014089999720454216
v -0.04506000131368637 0.00015199999324977398 -0.004478000104427338
v -0.034276001155376434 -0.002449000021442771 -0.008067999966442585
v -0.03993799909949303 -0.0020840000361204147 -0.005253000184893608
v -0.03895999863743782 -0.00763599993661046 0
v -0.034276001155376434 -0.002449000021442771 0.008067999966442585
v -0.03993799909949303 -0.0020840000361204147 0.005253000184893608
v -0.05817199870944023 -0.0011050000321120024 0
v -0.04506000131368637 0.00015199999324977398 0.004478000104427338
v -0.0483429990708828 -0.00406099995598197 -0.004879999905824661
v -0.044550999999046326 -0.005948999896645546 -0.004896999802440405
v -0.04530499875545502 -0.01049800030887127 -0.00380200007930398
v -0.04711899906396866 -0.011618000455200672 0
v -0.04530499875545502 -0.01049800030887127 0.00380200007930398
v -0.04455000162124634 -0.005948999896645546 0.004896999802440405
v -0.05534899979829788 -0.006049999967217445 -0.004941000137478113
v -0.056040000170469284 -0.00785600021481514 0
v -0.05534899979829788 -0.006049999967217445 0.004941000137478113
v -0.0483429990708828 -0.00406099995598197 0.004879999905824661
v -0.052880000323057175 -0.009661000221967697 -0.005756999831646681
v -0.051513999700546265 -0.01154400035738945 0
v -0.052880000323057175 -0.009661000221967697 0.005756999831646681
f 1 2 3
f 1 4 2
f 1 5 4
f 1 6 7
f 7 8 1
f 1 8 9
f 9 5 1
f 3 10 1
f 10 11 1
f 11 12 1
f 13 6 1
f 1 14 13
f 15 14 1
f 1 12 15
f 3 2 16
f 16 2 4
f 17 3 16
f 18 10 3
f 18 3 17
f 19 16 4
f 19 4 5
f 20 19 5
f 20 5 9
f 21 7 6
f 22 21 6
f 6 13 23
f 6 23 22
f 7 21 8
f 8 24 25
f 9 8 25
f 26 24 8
f 21 26 8
f 25 20 9
f 11 10 18
f 11 18 27
f 12 11 27
f 12 27 28
f 15 12 28
f 14 23 13
f 29 30 14
f 29 14 15
f 14 30 31
f 14 31 23
f 15 28 29
f 16 32 33
f 17 16 33
f 32 16 19
f 33 18 17
f 33 34 18
f 27 18 34
f 35 32 19
f 35 19 20
f 36 35 20
f 36 20 25
f 21 22 37
f 26 21 37
f 38 37 22
f 22 39 38
f 39 22 23
f 39 23 31
f 24 40 41
f 25 24 41
f 42 24 26
f 42 40 24
f 41 36 25
f 42 26 37
f 27 34 43
f 28 27 43
f 28 43 44
f 29 28 44
f 29 44 45
f 45 30 29
f 45 46 30
f 31 30 47
f 30 46 47
f 39 31 47
f 32 48 49
f 33 32 49
f 48 32 35
f 49 34 33
f 49 50 34
f 43 34 50
f 51 48 35
f 51 35 36
f 52 51 36
f 52 36 41
f 53 37 38
f 53 54 37
f 54 42 37
f 55 53 38
f 38 39 56
f 38 56 55
f 39 57 56
f 39 47 57
f 40 58 59
f 41 40 59
f 60 40 61
f 40 60 62
f 58 40 62
f 42 61 40
f 59 52 41
f 42 63 61
f 63 42 54
f 43 50 64
f 44 43 64
f 44 64 65
f 45 44 65
f 45 65 66
f 66 46 45
f 66 67 46
f 68 46 69
f 70 69 46
f 70 46 67
f 46 68 47
f 68 71 47
f 57 47 71
f 48 72 73
f 49 48 73
f 72 48 51
f 73 50 49
f 73 74 50
f 64 50 74
f 75 72 51
f 75 51 52
f 76 75 52
f 76 52 59
f 77 53 55
f 78 54 53
f 77 78 53
f 54 78 63
f 79 77 55
f 55 56 80
f 55 80 79
f 56 57 81
f 56 81 80
f 71 81 57
f 58 82 83
f 59 58 83
f 58 62 84
f 82 58 84
f 83 76 59
f 62 60 61
f 61 85 86
f 87 61 86
f 87 62 61
f 88 85 61
f 63 88 61
f 89 90 62
f 87 89 62
f 62 90 84
f 91 63 92
f 93 92 63
f 94 93 63
f 63 91 88
f 78 94 63
f 64 74 95
f 65 64 95
f 65 95 96
f 66 65 96
f 66 96 97
f 97 67 66
f 97 98 67
f 99 70 67
f 99 67 98
f 100 101 68
f 100 68 102
f 68 69 70
f 68 70 102
f 68 101 103
f 68 103 71
f 70 104 105
f 70 105 102
f 99 104 70
f 92 71 106
f 71 92 93
f 71 93 107
f 103 106 71
f 71 107 81
f 72 108 109
f 73 72 109
f 108 72 75
f 109 74 73
f 109 110 74
f 95 74 110
f 111 108 75
f 75 76 112
f 111 75 112
f 76 83 113
f 112 76 113
f 77 114 115
f 115 116 77
f 116 94 77
f 78 77 94
f 117 77 79
f 117 118 77
f 77 118 114
f 79 80 117
f 119 120 80
f 80 121 119
f 80 107 121
f 107 80 81
f 80 122 117
f 120 122 80
f 83 82 113
f 82 84 118
f 82 118 113
f 84 114 118
f 90 123 84
f 124 84 123
f 114 84 124
f 85 125 126
f 86 85 127
f 85 128 127
f 88 125 85
f 126 129 85
f 129 128 85
f 86 127 130
f 123 87 86
f 123 86 131
f 131 86 130
f 123 89 87
f 132 88 91
f 88 132 133
f 125 88 133
f 89 134 135
f 90 89 135
f 89 136 134
f 123 136 89
f 90 135 123
f 137 91 138
f 138 91 92
f 137 132 91
f 92 106 138
f 93 139 140
f 141 139 93
f 142 141 93
f 93 94 142
f 140 143 93
f 93 143 144
f 93 144 145
f 145 107 93
f 94 146 142
f 116 146 94
f 95 110 147
f 148 96 95
f 148 95 147
f 149 97 96
f 149 96 148
f 149 98 97
f 122 99 98
f 149 122 98
f 122 120 99
f 99 150 104
f 150 99 151
f 151 99 120
f 152 153 100
f 153 101 100
f 100 102 150
f 154 100 150
f 152 100 154
f 155 156 101
f 153 157 101
f 101 156 103
f 101 158 155
f 101 157 158
f 102 105 150
f 106 103 159
f 160 159 103
f 160 103 156
f 150 161 104
f 161 105 104
f 161 162 105
f 162 163 105
f 105 163 150
f 138 106 164
f 106 159 164
f 145 165 107
f 107 165 121
f 117 108 111
f 117 109 108
f 110 109 117
f 147 110 117
f 117 111 112
f 117 112 113
f 117 113 118
f 124 115 114
f 115 124 130
f 115 130 166
f 167 115 166
f 167 146 115
f 116 115 146
f 148 147 117
f 149 148 117
f 122 149 117
f 120 119 151
f 152 151 119
f 168 152 119
f 168 119 169
f 119 165 169
f 165 119 121
f 135 136 123
f 131 124 123
f 124 131 130
f 126 125 133
f 170 171 126
f 172 170 126
f 133 172 126
f 173 126 171
f 126 173 129
f 127 174 130
f 175 174 127
f 175 127 128
f 166 175 128
f 167 166 128
f 128 129 146
f 167 128 146
f 146 129 142
f 141 129 173
f 142 129 141
f 166 130 174
f 132 176 133
f 137 176 132
f 176 172 133
f 134 136 135
f 177 137 138
f 177 176 137
f 178 177 138
f 138 164 179
f 138 179 178
f 140 139 180
f 139 141 180
f 181 182 140
f 180 181 140
f 183 143 140
f 140 182 184
f 140 184 183
f 141 173 180
f 183 144 143
f 183 185 144
f 185 158 144
f 144 158 145
f 145 158 165
f 150 163 161
f 150 151 154
f 152 154 151
f 152 186 153
f 186 152 168
f 153 186 187
f 157 153 187
f 160 156 155
f 155 188 189
f 155 189 190
f 155 190 160
f 188 155 185
f 158 185 155
f 157 187 168
f 157 168 169
f 165 158 157
f 165 157 169
f 160 191 159
f 159 191 164
f 160 190 191
f 161 163 162
f 164 191 179
f 175 166 174
f 186 168 187
f 171 170 192
f 170 193 194
f 192 170 194
f 170 172 193
f 173 171 181
f 181 171 192
f 172 176 193
f 180 173 181
f 193 176 177
f 194 193 177
f 195 194 177
f 195 177 178
f 178 179 195
f 179 191 196
f 179 196 197
f 179 197 195
f 181 192 182
f 192 198 182
f 182 198 199
f 182 199 184
f 184 185 183
f 184 188 185
f 199 188 184
f 199 189 188
f 197 196 189
f 197 189 199
f 196 190 189
f 196 191 190
f 192 200 198
f 192 194 201
f 200 192 201
f 194 195 202
f 201 194 202
f 203 202 195
f 195 204 203
f 204 195 197
f 205 197 199
f 204 197 205
f 200 206 198
f 198 206 207
f 198 208 209
f 198 209 199
f 207 208 198
f 205 199 209
f 200 201 202
f 210 200 202
f 200 210 206
f 210 202 203
f 211 210 203
f 203 204 212
f 203 212 211
f 204 205 209
f 204 209 212
f 206 210 211
f 207 206 211
f 211 208 207
f 211 212 208
f 208 212 209
