# Generated by Visualization Toolkit
v 0.018077999353408813 0.03993299975991249 0
v 0.034014999866485596 0.04141499847173691 -0.00927099958062172
v 0.03146899864077568 0.03760800138115883 0
v 0.028946999460458755 0.041746001690626144 -0.01897300034761429
v 0.020052000880241394 0.04134700074791908 -0.02369699999690056
v 0.00008099999831756577 0.04227900132536888 0
v 0.00018000000272877514 0.04188999906182289 -0.0055680000223219395
v -0.0002010000025620684 0.04227299988269806 -0.016493000090122223
v 0.0054410002194345 0.04348599910736084 -0.02383499965071678
v 0.034014999866485596 0.04141499847173691 0.00927099958062172
v 0.028946999460458755 0.041746001690626144 0.01897300034761429
v 0.020052000880241394 0.04134700074791908 0.02369699999690056
v 0.00018000000272877514 0.04188999906182289 0.0055680000223219395
v -0.0002010000025620684 0.04227299988269806 0.016493000090122223
v 0.0054410002194345 0.04348599910736084 0.02383499965071678
v 0.03475699946284294 0.0425960011780262 -0.011134999804198742
v 0.03465399891138077 0.043334998190402985 0
v 0.03475699946284294 0.0425960011780262 0.011134999804198742
v 0.027400000020861626 0.044854000210762024 -0.018324000760912895
v 0.018864000216126442 0.04750800132751465 -0.022276999428868294
v 0.0006259999936446548 0.047988999634981155 -0.00520800007507205
v 0.0006600000197067857 0.04783400148153305 0
v 0.0006259999936446548 0.047988999634981155 0.00520800007507205
v 0.000645000021904707 0.04992600157856941 -0.016840999945998192
v 0.007034000009298325 0.04659999907016754 -0.022444000467658043
v -0.00041000000783242285 0.04966200143098831 -0.009944000281393528
v 0.027400000020861626 0.044854000210762024 0.018324000760912895
v 0.018864000216126442 0.04750800132751465 0.022276999428868294
v 0.007034000009298325 0.04659999907016754 0.022444000467658043
v 0.000645000021904707 0.04992600157856941 0.016840999945998192
v -0.00041000000783242285 0.04966200143098831 0.009944000281393528
v 0.03173999860882759 0.04930099844932556 -0.010839000344276428
v 0.03319700062274933 0.04882799834012985 0
v 0.03173999860882759 0.04930099844932556 0.010839000344276428
v 0.02580999955534935 0.05056300014257431 -0.01786400005221367
v 0.01889199949800968 0.052590999752283096 -0.020258000120520592
v 0.0007740000146441162 0.0551999993622303 -0.006688999943435192
v 0.0013200000394135714 0.055254001170396805 0
v 0.0007740000146441162 0.0551999993622303 0.006688999943435192
v 0.0020719999447464943 0.053644001483917236 -0.020082000643014908
v 0.008317000232636929 0.05411500111222267 -0.021237000823020935
v -0.0012799999676644802 0.055796001106500626 -0.010259999893605709
v 0.02580999955534935 0.05056300014257431 0.01786400005221367
v 0.01889199949800968 0.052590999752283096 0.020258000120520592
v 0.008317000232636929 0.05411500111222267 0.021237000823020935
v 0.0020719999447464943 0.053644001483917236 0.020082000643014908
v -0.0012799999676644802 0.055796001106500626 0.010259999893605709
v 0.03196699917316437 0.0591760016977787 -0.010455000214278698
v 0.03352800011634827 0.060541000217199326 0
v 0.03196699917316437 0.0591760016977787 0.010455000214278698
v 0.025483999401330948 0.059585001319646835 -0.018549999222159386
v 0.020034000277519226 0.05955899879336357 -0.020347999408841133
v -0.0011749999830499291 0.06241599842905998 -0.006910999771207571
v -0.003360999980941415 0.06285800039768219 -0.010727999731898308
v -0.000371000001905486 0.06256300210952759 0
v -0.0011749999830499291 0.06241599842905998 0.006910999771207571
v -0.003360999980941415 0.06285800039768219 0.010727999731898308
v 0.0035389999393373728 0.06064099818468094 -0.021807000041007996
v 0.00880999956279993 0.05964700132608414 -0.021385999396443367
v -0.0015180000336840749 0.05634099990129471 -0.02218800038099289
v -0.004701000172644854 0.052914999425411224 -0.018091000616550446
v -0.0036949999630451202 0.0602170005440712 -0.02653999999165535
v -0.010366000235080719 0.05825100094079971 -0.003911000210791826
v 0.025483999401330948 0.059585001319646835 0.018549999222159386
v 0.020034000277519226 0.05955899879336357 0.020347999408841133
v 0.00880999956279993 0.05964700132608414 0.021385999396443367
v 0.0035389999393373728 0.06064099818468094 0.021807000041007996
v -0.004701000172644854 0.052914999425411224 0.018091000616550446
v -0.0015180000336840749 0.05634099990129471 0.02218800038099289
v -0.0036949999630451202 0.0602170005440712 0.02653999999165535
v -0.010366000235080719 0.05825100094079971 0.003911000210791826
v 0.03348600119352341 0.06470999866724014 -0.01157000008970499
v 0.03416699916124344 0.06519699841737747 0
v 0.03348600119352341 0.06470999866724014 0.01157000008970499
v 0.027698999270796776 0.06406699866056442 -0.01963699981570244
v 0.020880000665783882 0.06324099749326706 -0.02250399999320507
v -0.0016570000443607569 0.07086700201034546 -0.008822999894618988
v -0.0025210001040250063 0.06882999837398529 -0.01152000017464161
v 0.00016399999731220305 0.06984300166368484 0
v -0.0016570000443607569 0.07086700201034546 0.008822999894618988
v -0.0025210001040250063 0.06882999837398529 0.01152000017464161
v 0.0024870000779628754 0.06571699678897858 -0.021069999784231186
v 0.011323000304400921 0.0647369995713234 -0.02359900064766407
v -0.004486000165343285 0.06695599853992462 -0.02112399972975254
v -0.01193000003695488 0.05768999829888344 -0.018198000267148018
v -0.01358800008893013 0.0626859962940216 -0.024501999840140343
v -0.008481999859213829 0.05516599863767624 -0.02621299959719181
v -0.006940999999642372 0.04970100149512291 -0.011134999804198742
v -0.009468999691307545 0.05773799866437912 -0.030672000721096992
v -0.007805999834090471 0.0611720010638237 -0.03373999893665314
v -0.01056700013577938 0.045242998749017715 -0.005388000048696995
v -0.010723999701440334 0.05659399926662445 0
v -0.019721999764442444 0.059974998235702515 0
v -0.012369000352919102 0.06532999873161316 -0.008144999854266644
v 0.027698999270796776 0.06406699866056442 0.01963699981570244
v 0.020880000665783882 0.06324099749326706 0.02250399999320507
v 0.011323000304400921 0.0647369995713234 0.02359900064766407
v 0.0024870000779628754 0.06571699678897858 0.021069999784231186
v -0.004486000165343285 0.06695599853992462 0.02112399972975254
v -0.01358800008893013 0.0626859962940216 0.024501999840140343
v -0.01193000003695488 0.05768999829888344 0.018198000267148018
v -0.008481999859213829 0.05516599863767624 0.02621299959719181
v -0.006940999999642372 0.04970100149512291 0.011134999804198742
v -0.007805999834090471 0.0611720010638237 0.03373999893665314
v -0.009468999691307545 0.05773799866437912 0.030672000721096992
v -0.01056700013577938 0.045242998749017715 0.005388000048696995
v -0.012369000352919102 0.06532999873161316 0.008144999854266644
v 0.0316459983587265 0.06999699771404266 -0.011781999841332436
v 0.03256699815392494 0.07030200213193893 0
v 0.0316459983587265 0.06999699771404266 0.011781999841332436
v 0.027573000639677048 0.06967999786138535 -0.01990699954330921
v 0.019849000498652458 0.0696839988231659 -0.023592999204993248
v 0.009844999760389328 0.06889799982309341 -0.02374500036239624
v -0.004139999859035015 0.06908100098371506 -0.014914999715983868
v -0.010414999909698963 0.07594799995422363 -0.016930999234318733
v -0.010358000174164772 0.0728050023317337 -0.01063000038266182
v 0.017114000394940376 0.07010900229215622 0
v 0.000446999998530373 0.07036300003528595 -0.018112000077962875
v -0.010414999909698963 0.07594799995422363 0.016930999234318733
v -0.004139999859035015 0.06908100098371506 0.014914999715983868
v -0.010358000174164772 0.0728050023317337 0.01063000038266182
v 0.000446999998530373 0.07036300003528595 0.018112000077962875
v -0.00993799977004528 0.06759899854660034 -0.030108999460935593
v -0.00863999966531992 0.07117900252342224 -0.0194729994982481
v -0.015451000072062016 0.05028799921274185 -0.016388000920414925
v -0.020378999412059784 0.04859999939799309 -0.013384000398218632
v -0.019269000738859177 0.06459099799394608 -0.022346999496221542
v -0.019881999120116234 0.06314100325107574 -0.01500600017607212
v -0.017575999721884727 0.06145400181412697 -0.013415999710559845
v -0.018478000536561012 0.0744670033454895 -0.02061999961733818
v -0.013032999821007252 0.06949800252914429 -0.022533999755978584
v -0.008280999958515167 0.042555999010801315 -0.01269300002604723
v -0.020488999783992767 0.043928999453783035 -0.01806199923157692
v -0.013939999975264072 0.05917400121688843 -0.0340379998087883
v -0.012009000405669212 0.0616689994931221 -0.03732600063085556
v -0.014569000340998173 0.06739500164985657 -0.034515999257564545
v -0.011080999858677387 0.039329998195171356 -0.007075000088661909
v -0.013883999548852444 0.04651099815964699 0
v -0.02114900015294552 0.055907998234033585 -0.005224000196903944
v -0.030282000079751015 0.05213100090622902 0
v -0.016961999237537384 0.054572999477386475 -0.008771000429987907
v -0.016611000522971153 0.05956599861383438 -0.011001000180840492
v -0.02114900015294552 0.055907998234033585 0.005224000196903944
v -0.016961999237537384 0.054572999477386475 0.008771000429987907
v -0.016611000522971153 0.05956599861383438 0.011001000180840492
v -0.013520999811589718 0.06596300005912781 -0.012002999894320965
v 0.027573000639677048 0.06967999786138535 0.01990699954330921
v 0.019849000498652458 0.0696839988231659 0.023592999204993248
v 0.009844999760389328 0.06889799982309341 0.02374500036239624
v -0.00993799977004528 0.06759899854660034 0.030108999460935593
v -0.00863999966531992 0.07117900252342224 0.0194729994982481
v -0.018478000536561012 0.0744670033454895 0.02061999961733818
v -0.019269000738859177 0.06459099799394608 0.022346999496221542
v -0.013032999821007252 0.06949800252914429 0.022533999755978584
v -0.020378999412059784 0.04859999939799309 0.013384000398218632
v -0.015451000072062016 0.05028799921274185 0.016388000920414925
v -0.019881999120116234 0.06314100325107574 0.01500600017607212
v -0.017575999721884727 0.06145400181412697 0.013415999710559845
v -0.008280999958515167 0.042555999010801315 0.01269300002604723
v -0.020488999783992767 0.043928999453783035 0.01806199923157692
v -0.012009000405669212 0.0616689994931221 0.03732600063085556
v -0.013939999975264072 0.05917400121688843 0.0340379998087883
v -0.014569000340998173 0.06739500164985657 0.034515999257564545
v -0.011080999858677387 0.039329998195171356 0.007075000088661909
v -0.013520999811589718 0.06596300005912781 0.012002999894320965
v -0.02483700029551983 0.07100500166416168 -0.017280999571084976
v -0.017702000215649605 0.06817100197076797 -0.01473500020802021
v -0.02483700029551983 0.07100500166416168 0.017280999571084976
v -0.017702000215649605 0.06817100197076797 0.01473500020802021
v -0.023767000064253807 0.04025699943304062 -0.01027700025588274
v -0.023228999227285385 0.04542899876832962 -0.010861000046133995
v -0.020910000428557396 0.03635599836707115 -0.017806999385356903
v -0.02007099986076355 0.05097400024533272 -0.009358000010251999
v -0.022941000759601593 0.06925699859857559 -0.022856000810861588
v -0.02507700026035309 0.06667300313711166 -0.01775299943983555
v -0.013186000287532806 0.030577000230550766 -0.01410400029271841
v -0.014144999906420708 0.03679100051522255 -0.005619999952614307
v -0.01713000051677227 0.04060899838805199 0
v -0.014144999906420708 0.03679100051522255 0.005619999952614307
v -0.025662999600172043 0.05116700008511543 -0.0044109998270869255
v -0.029319999739527702 0.04693499952554703 -0.0042929998598992825
v -0.04047999903559685 0.04907499998807907 0
v -0.025662999600172043 0.05116700008511543 0.0044109998270869255
v -0.029319999739527702 0.04693499952554703 0.0042929998598992825
v -0.02007099986076355 0.05097400024533272 0.009358000010251999
v -0.022941000759601593 0.06925699859857559 0.022856000810861588
v -0.02507700026035309 0.06667300313711166 0.01775299943983555
v -0.023228999227285385 0.04542899876832962 0.010861000046133995
v -0.023767000064253807 0.04025699943304062 0.01027700025588274
v -0.020910000428557396 0.03635599836707115 0.017806999385356903
v -0.013186000287532806 0.030577000230550766 0.01410400029271841
v -0.02984599955379963 0.042024001479148865 -0.004482000134885311
v -0.0197720006108284 0.0369889996945858 -0.008077000267803669
v -0.02527100034058094 0.03865699842572212 -0.005259000230580568
v -0.025469999760389328 0.033013999462127686 0
v -0.0197720006108284 0.0369889996945858 0.008077000267803669
v -0.02527100034058094 0.03865699842572212 0.005259000230580568
v -0.04301900044083595 0.04383400082588196 0
v -0.02984599955379963 0.042024001479148865 0.004482000134885311
v -0.033959999680519104 0.03867499902844429 -0.004883999936282635
v -0.0306209996342659 0.035955000668764114 -0.004902000073343515
v -0.03231700137257576 0.03169099986553192 -0.00380500010214746
v -0.03433600068092346 0.031019000336527824 0
v -0.03231700137257576 0.03169099986553192 0.00380500010214746
v -0.0306209996342659 0.035955000668764114 0.004902000073343515
v -0.04127499833703041 0.038357000797986984 -0.004945999942719936
v -0.04233299940824509 0.0367560014128685 0
v -0.04127499833703041 0.038357000797986984 0.004945999942719936
v -0.033959999680519104 0.03867499902844429 0.004883999936282635
v -0.03959999978542328 0.034262001514434814 -0.005762999877333641
v -0.03864999860525131 0.03210899978876114 0
v -0.03959999978542328 0.034262001514434814 0.005762999877333641
f 1 2 3
f 1 4 2
f 1 5 4
f 1 6 7
f 7 8 1
f 1 8 9
f 9 5 1
f 3 10 1
f 10 11 1
f 11 12 1
f 13 6 1
f 1 14 13
f 15 14 1
f 1 12 15
f 3 2 16
f 16 2 4
f 17 3 16
f 18 10 3
f 18 3 17
f 19 16 4
f 19 4 5
f 20 19 5
f 20 5 9
f 21 7 6
f 22 21 6
f 6 13 23
f 6 23 22
f 7 21 8
f 8 24 25
f 9 8 25
f 26 24 8
f 21 26 8
f 25 20 9
f 11 10 18
f 11 18 27
f 12 11 27
f 12 27 28
f 15 12 28
f 14 23 13
f 29 30 14
f 29 14 15
f 14 30 31
f 14 31 23
f 15 28 29
f 16 32 33
f 17 16 33
f 32 16 19
f 33 18 17
f 33 34 18
f 27 18 34
f 35 32 19
f 35 19 20
f 36 35 20
f 36 20 25
f 21 22 37
f 26 21 37
f 38 37 22
f 22 39 38
f 39 22 23
f 39 23 31
f 24 40 41
f 25 24 41
f 42 24 26
f 42 40 24
f 41 36 25
f 42 26 37
f 27 34 43
f 28 27 43
f 28 43 44
f 29 28 44
f 29 44 45
f 45 30 29
f 45 46 30
f 31 30 47
f 30 46 47
f 39 31 47
f 32 48 49
f 33 32 49
f 48 32 35
f 49 34 33
f 49 50 34
f 43 34 50
f 51 48 35
f 51 35 36
f 52 51 36
f 52 36 41
f 53 37 38
f 53 54 37
f 54 42 37
f 55 53 38
f 38 39 56
f 38 56 55
f 39 57 56
f 39 47 57
f 40 58 59
f 41 40 59
f 60 40 61
f 40 60 62
f 58 40 62
f 42 61 40
f 59 52 41
f 42 63 61
f 63 42 54
f 43 50 64
f 44 43 64
f 44 64 65
f 45 44 65
f 45 65 66
f 66 46 45
f 66 67 46
f 68 46 69
f 70 69 46
f 70 46 67
f 46 68 47
f 68 71 47
f 57 47 71
f 48 72 73
f 49 48 73
f 72 48 51
f 73 50 49
f 73 74 50
f 64 50 74
f 75 72 51
f 75 51 52
f 76 75 52
f 76 52 59
f 77 53 55
f 78 54 53
f 77 78 53
f 54 78 63
f 79 77 55
f 55 56 80
f 55 80 79
f 56 57 81
f 56 81 80
f 71 81 57
f 58 82 83
f 59 58 83
f 58 62 84
f 82 58 84
f 83 76 59
f 62 60 61
f 61 85 86
f 87 61 86
f 87 62 61
f 88 85 61
f 63 88 61
f 89 90 62
f 87 89 62
f 62 90 84
f 91 63 92
f 93 92 63
f 94 93 63
f 63 91 88
f 78 94 63
f 64 74 95
f 65 64 95
f 65 95 96
f 66 65 96
f 66 96 97
f 97 67 66
f 97 98 67
f 99 70 67
f 99 67 98
f 100 101 68
f 100 68 102
f 68 69 70
f 68 70 102
f 68 101 103
f 68 103 71
f 70 104 105
f 70 105 102
f 99 104 70
f 92 71 106
f 71 92 93
f 71 93 107
f 103 106 71
f 71 107 81
f 72 108 109
f 73 72 109
f 108 72 75
f 109 74 73
f 109 110 74
f 95 74 110
f 111 108 75
f 75 76 112
f 111 75 112
f 76 83 113
f 112 76 113
f 77 114 115
f 115 116 77
f 116 94 77
f 78 77 94
f 117 77 79
f 117 118 77
f 77 118 114
f 79 80 117
f 119 120 80
f 80 121 119
f 80 107 121
f 107 80 81
f 80 122 117
f 120 122 80
f 83 82 113
f 82 84 118
f 82 118 113
f 84 114 118
f 90 123 84
f 124 84 123
f 114 84 124
f 85 125 126
f 86 85 127
f 85 128 127
f 88 125 85
f 126 129 85
f 129 128 85
f 86 127 130
f 123 87 86
f 123 86 131
f 131 86 130
f 123 89 87
f 132 88 91
f 88 132 133
f 125 88 133
f 89 134 135
f 90 89 135
f 89 136 134
f 123 136 89
f 90 135 123
f 137 91 138
f 138 91 92
f 137 132 91
f 92 106 138
f 93 139 140
f 141 139 93
f 142 141 93
f 93 94 142
f 140 143 93
f 93 143 144
f 93 144 145
f 145 107 93
f 94 146 142
f 116 146 94
f 95 110 147
f 148 96 95
f 148 95 147
f 149 97 96
f 149 96 148
f 149 98 97
f 122 99 98
f 149 122 98
f 122 120 99
f 99 150 104
f 150 99 151
f 151 99 120
f 152 153 100
f 153 101 100
f 100 102 150
f 154 100 150
f 152 100 154
f 155 156 101
f 153 157 101
f 101 156 103
f 101 158 155
f 101 157 158
f 102 105 150
f 106 103 159
f 160 159 103
f 160 103 156
f 150 161 104
f 161 105 104
f 161 162 105
f 162 163 105
f 105 163 150
f 138 106 164
f 106 159 164
f 145 165 107
f 107 165 121
f 117 108 111
f 117 109 108
f 110 109 117
f 147 110 117
f 117 111 112
f 117 112 113
f 117 113 118
f 124 115 114
f 115 124 130
f 115 130 166
f 167 115 166
f 167 146 115
f 116 115 146
f 148 147 117
f 149 148 117
f 122 149 117
f 120 119 151
f 152 151 119
f 168 152 119
f 168 119 169
f 119 165 169
f 165 119 121
f 135 136 123
f 131 124 123
f 124 131 130
f 126 125 133
f 170 171 126
f 172 170 126
f 133 172 126
f 173 126 171
f 126 173 129
f 127 174 130
f 175 174 127
f 175 127 128
f 166 175 128
f 167 166 128
f 128 129 146
f 167 128 146
f 146 129 142
f 141 129 173
f 142 129 141
f 166 130 174
f 132 176 133
f 137 176 132
f 176 172 133
f 134 136 135
f 177 137 138
f 177 176 137
f 178 177 138
f 138 164 179
f 138 179 178
f 140 139 180
f 139 141 180
f 181 182 140
f 180 181 140
f 183 143 140
f 140 182 184
f 140 184 183
f 141 173 180
f 183 144 143
f 183 185 144
f 185 158 144
f 144 158 145
f 145 158 165
f 150 163 161
f 150 151 154
f 152 154 151
f 152 186 153
f 186 152 168
f 153 186 187
f 157 153 187
f 160 156 155
f 155 188 189
f 155 189 190
f 155 190 160
f 188 155 185
f 158 185 155
f 157 187 168
f 157 168 169
f 165 158 157
f 165 157 169
f 160 191 159
f 159 191 164
f 160 190 191
f 161 163 162
f 164 191 179
f 175 166 174
f 186 168 187
f 171 170 192
f 170 193 194
f 192 170 194
f 170 172 193
f 173 171 181
f 181 171 192
f 172 176 193
f 180 173 181
f 193 176 177
f 194 193 177
f 195 194 177
f 195 177 178
f 178 179 195
f 179 191 196
f 179 196 197
f 179 197 195
f 181 192 182
f 192 198 182
f 182 198 199
f 182 199 184
f 184 185 183
f 184 188 185
f 199 188 184
f 199 189 188
f 197 196 189
f 197 189 199
f 196 190 189
f 196 191 190
f 192 200 198
f 192 194 201
f 200 192 201
f 194 195 202
f 201 194 202
f 203 202 195
f 195 204 203
f 204 195 197
f 205 197 199
f 204 197 205
f 200 206 198
f 198 206 207
f 198 208 209
f 198 209 199
f 207 208 198
f 205 199 209
f 200 201 202
f 210 200 202
f 200 210 206
f 210 202 203
f 211 210 203
f 203 204 212
f 203 212 211
f 204 205 209
f 204 209 212
f 206 210 211
f 207 206 211
f 211 208 207
f 211 212 208
f 208 212 209
