# Generated by Visualization Toolkit
v 0.001762000028975308 0.00634300010278821 0
v 0.014785000123083591 0.013410000130534172 -0.008983000181615353
v 0.013829999603331089 0.009015999734401703 0
v 0.01015899982303381 0.01178400032222271 -0.018384000286459923
v 0.0030320000369101763 0.008365999907255173 -0.022960999980568886
v -0.015066999942064285 0.0016240000259131193 0
v -0.014845999889075756 0.0013119999784976244 -0.005394999869167805
v -0.015316000208258629 0.0015119999879971147 -0.015980999916791916
v -0.010711999610066414 0.004745999816805124 -0.02309500053524971
v 0.014785000123083591 0.013410000130534172 0.008983000181615353
v 0.01015899982303381 0.01178400032222271 0.018384000286459923
v 0.0030320000369101763 0.008365999907255173 0.022960999980568886
v -0.014845999889075756 0.0013119999784976244 0.005394999869167805
v -0.015316000208258629 0.0015119999879971147 0.015980999916791916
v -0.010711999610066414 0.004745999816805124 0.02309500053524971
v 0.015038999728858471 0.014755000360310078 -0.010789000429213047
v 0.014692000113427639 0.015381000004708767 0
v 0.015038999728858471 0.014755000360310078 0.010789000429213047
v 0.008364000357687473 0.01431300025433302 -0.017754999920725822
v -0.00014899999951012433 0.013461999595165253 -0.02158600091934204
v -0.01400499977171421 0.007540999911725521 -0.005045999772846699
v -0.013921000063419342 0.007414999883621931 0
v -0.01400499977171421 0.007540999911725521 0.005045999772846699
v -0.01465499959886074 0.00929300021380186 -0.016318000853061676
v -0.010366999544203281 0.008154000155627728 -0.021747000515460968
v -0.015503999777138233 0.008654000237584114 -0.009634999558329582
v 0.008364000357687473 0.01431300025433302 0.017754999920725822
v -0.00014899999951012433 0.013461999595165253 0.02158600091934204
v -0.010366999544203281 0.008154000155627728 0.021747000515460968
v -0.01465499959886074 0.00929300021380186 0.016318000853061676
v -0.015503999777138233 0.008654000237584114 0.009634999558329582
v 0.010695000179111958 0.01996299996972084 -0.010502000339329243
v 0.012155000120401382 0.020090000703930855 0
v 0.010695000179111958 0.01996299996972084 0.010502000339329243
v 0.004980999976396561 0.018849000334739685 -0.017309000715613365
v -0.0018759999657049775 0.018050000071525574 -0.01962899975478649
v -0.018904000520706177 0.013520999811589718 -0.00648100022226572
v -0.01843699999153614 0.013776999898254871 0
v -0.018904000520706177 0.013520999811589718 0.00648100022226572
v -0.017212999984622 0.012613000348210335 -0.01945899985730648
v -0.011815999634563923 0.015407999977469444 -0.020577000454068184
v -0.020937999710440636 0.013278000056743622 -0.009941999800503254
v 0.004980999976396561 0.018849000334739685 0.017309000715613365
v -0.0018759999657049775 0.018050000071525574 0.01962899975478649
v -0.011815999634563923 0.015407999977469444 0.020577000454068184
v -0.017212999984622 0.012613000348210335 0.01945899985730648
v -0.020937999710440636 0.013278000056743622 0.009941999800503254
v 0.007493000011891127 0.028939999639987946 -0.010130000300705433
v 0.00841199979186058 0.030762000009417534 0
v 0.007493000011891127 0.028939999639987946 0.010130000300705433
v 0.0015810000477358699 0.026847999542951584 -0.017974000424146652
v -0.003260999917984009 0.024755999445915222 -0.01971600018441677
v -0.02312600053846836 0.01927899941802025 -0.006696000229567289
v -0.025225000455975533 0.018845999613404274 -0.010394999757409096
v -0.022461000829935074 0.01971600018441677 0
v -0.02312600053846836 0.01927899941802025 0.006696000229567289
v -0.025225000455975533 0.018845999613404274 0.010394999757409096
v -0.01831899955868721 0.0194690003991127 -0.021129999309778214
v -0.013283000327646732 0.02057499997317791 -0.020721999928355217
v -0.021338000893592834 0.013678000308573246 -0.02149900048971176
v -0.022989999502897263 0.009386000223457813 -0.01752999983727932
v -0.024612000212073326 0.016341999173164368 -0.02571599930524826
v -0.029872000217437744 0.012040000408887863 -0.003788999980315566
v 0.0015810000477358699 0.026847999542951584 0.017974000424146652
v -0.003260999917984009 0.024755999445915222 0.01971600018441677
v -0.013283000327646732 0.02057499997317791 0.020721999928355217
v -0.01831899955868721 0.0194690003991127 0.021129999309778214
v -0.022989999502897263 0.009386000223457813 0.01752999983727932
v -0.021338000893592834 0.013678000308573246 0.02149900048971176
v -0.024612000212073326 0.016341999173164368 0.02571599930524826
v -0.029872000217437744 0.012040000408887863 0.003788999980315566
v 0.006938000209629536 0.03449900075793266 -0.011210000142455101
v 0.007375999819487333 0.035197000950574875 0
v 0.006938000209629536 0.03449900075793266 0.011210000142455101
v 0.002007999923080206 0.03172500059008598 -0.019027000293135643
v -0.0037769998889416456 0.028392000123858452 -0.02180499956011772
v -0.026468999683856964 0.026705000549554825 -0.008549000136554241
v -0.02653600089251995 0.024542000144720078 -0.01116199977695942
v -0.024493999779224396 0.02647400088608265 0
v -0.026468999683856964 0.026705000549554825 0.008549000136554241
v -0.02653600089251995 0.024542000144720078 0.01116199977695942
v -0.021004000678658485 0.02364099957048893 -0.020416000857949257
v -0.012800999917089939 0.02611199952661991 -0.02286599949002266
v -0.027638999745249748 0.022110000252723694 -0.020468000322580338
v -0.031072000041604042 0.01094099972397089 -0.017633000388741493
v -0.03426999971270561 0.014809999614953995 -0.023740999400615692
v -0.027132000774145126 0.009978000074625015 -0.025398999452590942
v -0.023876000195741653 0.0056420001201331615 -0.010789000429213047
v -0.02889700047671795 0.011919000186026096 -0.0297200009226799
v -0.02860100008547306 0.015641000121831894 -0.03269200026988983
v -0.02556700073182583 0.0002519999979995191 -0.00522099994122982
v -0.02961999922990799 0.010412000119686127 0
v -0.038795001804828644 0.010041000321507454 0
v -0.03409599885344505 0.017652999609708786 -0.007891999557614326
v 0.002007999923080206 0.03172500059008598 0.019027000293135643
v -0.0037769998889416456 0.028392000123858452 0.02180499956011772
v -0.012800999917089939 0.02611199952661991 0.02286599949002266
v -0.021004000678658485 0.02364099957048893 0.020416000857949257
v -0.027638999745249748 0.022110000252723694 0.020468000322580338
v -0.03426999971270561 0.014809999614953995 0.023740999400615692
v -0.031072000041604042 0.01094099972397089 0.017633000388741493
v -0.027132000774145126 0.009978000074625015 0.025398999452590942
v -0.023876000195741653 0.0056420001201331615 0.010789000429213047
v -0.02860100008547306 0.015641000121831894 0.03269200026988983
v -0.02889700047671795 0.011919000186026096 0.0297200009226799
v -0.02556700073182583 0.0002519999979995191 0.00522099994122982
v -0.03409599885344505 0.017652999609708786 0.007891999557614326
v 0.004784000106155872 0.03919599950313568 -0.011416000314056873
v 0.005499999970197678 0.039820000529289246 0
v 0.004784000106155872 0.03919599950313568 0.011416000314056873
v -0.00003899999865097925 0.036729998886585236 -0.01928899995982647
v -0.0069160000421106815 0.03380199894309044 -0.022859999909996986
v -0.015550999902188778 0.029296999797225 -0.02300800010561943
v -0.02806299924850464 0.024153999984264374 -0.01445200014859438
v -0.03601599857211113 0.02795499935746193 -0.016405999660491943
v -0.03488200157880783 0.0251460000872612 -0.010300000198185444
v -0.009496999904513359 0.03314699977636337 0
v -0.024421999230980873 0.027048999443650246 -0.017549000680446625
v -0.03601599857211113 0.02795499935746193 0.016405999660491943
v -0.02806299924850464 0.024153999984264374 0.01445200014859438
v -0.03488200157880783 0.0251460000872612 0.010300000198185444
v -0.024421999230980873 0.027048999443650246 0.017549000680446625
v -0.03271400183439255 0.020617999136447906 -0.029174000024795532
v -0.032791998237371445 0.024335000663995743 -0.018868999555706978
v -0.0316540002822876 0.002940000034868717 -0.01587899960577488
v -0.0354590006172657 -0.00044999999227002263 -0.012968000024557114
v -0.03998300060629845 0.014368999749422073 -0.02165300026535988
v -0.040029000490903854 0.012830999679863453 -0.014539999887347221
v -0.03739500045776367 0.01218700036406517 -0.013000000268220901
v -0.04268300160765648 0.02356100082397461 -0.019979000091552734
v -0.03612300008535385 0.02115499973297119 -0.021834999322891235
v -0.022606000304222107 -0.0013000000035390258 -0.012299000285565853
v -0.03394699841737747 -0.00469700014218688 -0.017501000314950943
v -0.033371999859809875 0.011513999663293362 -0.03298100084066391
v -0.03251300007104874 0.014494000002741814 -0.036166999489068985
v -0.036765001714229584 0.018678000196814537 -0.03344399854540825
v -0.023987000808119774 -0.005268000066280365 -0.00685499981045723
v -0.028957000002264977 0.0001340000017080456 0
v -0.038662999868392944 0.005836999975144863 -0.005061999894678593
v -0.04549200087785721 -0.0010300000431016088 0
v -0.03447699919342995 0.006225000135600567 -0.008497999981045723
v -0.03588499873876572 0.010854000225663185 -0.010658999904990196
v -0.038662999868392944 0.005836999975144863 0.005061999894678593
v -0.03447699919342995 0.006225000135600567 0.008497999981045723
v -0.03588499873876572 0.010854000225663185 0.010658999904990196
v -0.035339001566171646 0.01778700016438961 -0.011629999615252018
v -0.00003899999865097925 0.036729998886585236 0.01928899995982647
v -0.0069160000421106815 0.03380199894309044 0.022859999909996986
v -0.015550999902188778 0.029296999797225 0.02300800010561943
v -0.03271400183439255 0.020617999136447906 0.029174000024795532
v -0.032791998237371445 0.024335000663995743 0.018868999555706978
v -0.04268300160765648 0.02356100082397461 0.019979000091552734
v -0.03998300060629845 0.014368999749422073 0.02165300026535988
v -0.03612300008535385 0.02115499973297119 0.021834999322891235
v -0.0354590006172657 -0.00044999999227002263 0.012968000024557114
v -0.0316540002822876 0.002940000034868717 0.01587899960577488
v -0.040029000490903854 0.012830999679863453 0.014539999887347221
v -0.03739500045776367 0.01218700036406517 0.013000000268220901
v -0.022606000304222107 -0.0013000000035390258 0.012299000285565853
v -0.03394699841737747 -0.00469700014218688 0.017501000314950943
v -0.03251300007104874 0.014494000002741814 0.036166999489068985
v -0.033371999859809875 0.011513999663293362 0.03298100084066391
v -0.036765001714229584 0.018678000196814537 0.03344399854540825
v -0.023987000808119774 -0.005268000066280365 0.00685499981045723
v -0.035339001566171646 0.01778700016438961 0.011629999615252018
v -0.04715000092983246 0.01803000085055828 -0.01674400083720684
v -0.03982200101017952 0.01818699948489666 -0.014276999980211258
v -0.04715000092983246 0.01803000085055828 0.01674400083720684
v -0.03982200101017952 0.01818699948489666 0.014276999980211258
v -0.0355990007519722 -0.009247999638319016 -0.009957999922335148
v -0.03690300136804581 -0.004387000110000372 -0.01052400004118681
v -0.03171199932694435 -0.01167600043118 -0.017254000529646873
v -0.036003999412059784 0.001803999999538064 -0.009066999889910221
v -0.044860001653432846 0.017176000401377678 -0.02214599959552288
v -0.04587100073695183 0.014039999805390835 -0.017201999202370644
v -0.022842999547719955 -0.01394800003618002 -0.013666000217199326
v -0.025838999077677727 -0.008716999553143978 -0.005444999784231186
v -0.029812999069690704 -0.0064119999296963215 0
v -0.025838999077677727 -0.008716999553143978 0.005444999784231186
v -0.041046999394893646 -0.00014400000509340316 -0.004273999948054552
v -0.042844999581575394 -0.005342999938875437 -0.0041600000113248825
v -0.05351699888706207 -0.007652000058442354 0
v -0.041046999394893646 -0.00014400000509340316 0.004273999948054552
v -0.042844999581575394 -0.005342999938875437 0.0041600000113248825
v -0.036003999412059784 0.001803999999538064 0.009066999889910221
v -0.044860001653432846 0.017176000401377678 0.02214599959552288
v -0.04587100073695183 0.014039999805390835 0.017201999202370644
v -0.03690300136804581 -0.004387000110000372 0.01052400004118681
v -0.0355990007519722 -0.009247999638319016 0.009957999922335148
v -0.03171199932694435 -0.01167600043118 0.017254000529646873
v -0.022842999547719955 -0.01394800003618002 0.013666000217199326
v -0.04161899909377098 -0.009964000433683395 -0.004342999774962664
v -0.03091599978506565 -0.010673999786376953 -0.007826000452041626
v -0.03638700023293495 -0.011260000057518482 -0.00509499991312623
v -0.03461899980902672 -0.016416000202298164 0
v -0.03091599978506565 -0.010673999786376953 0.007826000452041626
v -0.03638700023293495 -0.011260000057518482 0.00509499991312623
v -0.05397000163793564 -0.013333999551832676 0
v -0.04161899909377098 -0.009964000433683395 0.004342999774962664
v -0.04412800073623657 -0.014541000127792358 -0.004732999950647354
v -0.04021799936890602 -0.01572299934923649 -0.004749000072479248
v -0.040258001536130905 -0.020205000415444374 -0.0036869999021291733
v -0.04182400181889534 -0.021577000617980957 0
v -0.040258001536130905 -0.020205000415444374 0.0036869999021291733
v -0.04021799936890602 -0.01572299934923649 0.004749000072479248
v -0.050530001521110535 -0.017604000866413116 -0.004792000167071819
v -0.050919998437166214 -0.019447000697255135 0
v -0.050530001521110535 -0.017604000866413116 0.004792000167071819
v -0.04412800073623657 -0.014541000127792358 0.004732999950647354
v -0.04762699827551842 -0.02065500058233738 -0.005584000144153833
v -0.046039000153541565 -0.02223300002515316 0
v -0.04762699827551842 -0.02065500058233738 0.005584000144153833
f 1 2 3
f 1 4 2
f 1 5 4
f 1 6 7
f 7 8 1
f 1 8 9
f 9 5 1
f 3 10 1
f 10 11 1
f 11 12 1
f 13 6 1
f 1 14 13
f 15 14 1
f 1 12 15
f 3 2 16
f 16 2 4
f 17 3 16
f 18 10 3
f 18 3 17
f 19 16 4
f 19 4 5
f 20 19 5
f 20 5 9
f 21 7 6
f 22 21 6
f 6 13 23
f 6 23 22
f 7 21 8
f 8 24 25
f 9 8 25
f 26 24 8
f 21 26 8
f 25 20 9
f 11 10 18
f 11 18 27
f 12 11 27
f 12 27 28
f 15 12 28
f 14 23 13
f 29 30 14
f 29 14 15
f 14 30 31
f 14 31 23
f 15 28 29
f 16 32 33
f 17 16 33
f 32 16 19
f 33 18 17
f 33 34 18
f 27 18 34
f 35 32 19
f 35 19 20
f 36 35 20
f 36 20 25
f 21 22 37
f 26 21 37
f 38 37 22
f 22 39 38
f 39 22 23
f 39 23 31
f 24 40 41
f 25 24 41
f 42 24 26
f 42 40 24
f 41 36 25
f 42 26 37
f 27 34 43
f 28 27 43
f 28 43 44
f 29 28 44
f 29 44 45
f 45 30 29
f 45 46 30
f 31 30 47
f 30 46 47
f 39 31 47
f 32 48 49
f 33 32 49
f 48 32 35
f 49 34 33
f 49 50 34
f 43 34 50
f 51 48 35
f 51 35 36
f 52 51 36
f 52 36 41
f 53 37 38
f 53 54 37
f 54 42 37
f 55 53 38
f 38 39 56
f 38 56 55
f 39 57 56
f 39 47 57
f 40 58 59
f 41 40 59
f 60 40 61
f 40 60 62
f 58 40 62
f 42 61 40
f 59 52 41
f 42 63 61
f 63 42 54
f 43 50 64
f 44 43 64
f 44 64 65
f 45 44 65
f 45 65 66
f 66 46 45
f 66 67 46
f 68 46 69
f 70 69 46
f 70 46 67
f 46 68 47
f 68 71 47
f 57 47 71
f 48 72 73
f 49 48 73
f 72 48 51
f 73 50 49
f 73 74 50
f 64 50 74
f 75 72 51
f 75 51 52
f 76 75 52
f 76 52 59
f 77 53 55
f 78 54 53
f 77 78 53
f 54 78 63
f 79 77 55
f 55 56 80
f 55 80 79
f 56 57 81
f 56 81 80
f 71 81 57
f 58 82 83
f 59 58 83
f 58 62 84
f 82 58 84
f 83 76 59
f 62 60 61
f 61 85 86
f 87 61 86
f 87 62 61
f 88 85 61
f 63 88 61
f 89 90 62
f 87 89 62
f 62 90 84
f 91 63 92
f 93 92 63
f 94 93 63
f 63 91 88
f 78 94 63
f 64 74 95
f 65 64 95
f 65 95 96
f 66 65 96
f 66 96 97
f 97 67 66
f 97 98 67
f 99 70 67
f 99 67 98
f 100 101 68
f 100 68 102
f 68 69 70
f 68 70 102
f 68 101 103
f 68 103 71
f 70 104 105
f 70 105 102
f 99 104 70
f 92 71 106
f 71 92 93
f 71 93 107
f 103 106 71
f 71 107 81
f 72 108 109
f 73 72 109
f 108 72 75
f 109 74 73
f 109 110 74
f 95 74 110
f 111 108 75
f 75 76 112
f 111 75 112
f 76 83 113
f 112 76 113
f 77 114 115
f 115 116 77
f 116 94 77
f 78 77 94
f 117 77 79
f 117 118 77
f 77 118 114
f 79 80 117
f 119 120 80
f 80 121 119
f 80 107 121
f 107 80 81
f 80 122 117
f 120 122 80
f 83 82 113
f 82 84 118
f 82 118 113
f 84 114 118
f 90 123 84
f 124 84 123
f 114 84 124
f 85 125 126
f 86 85 127
f 85 128 127
f 88 125 85
f 126 129 85
f 129 128 85
f 86 127 130
f 123 87 86
f 123 86 131
f 131 86 130
f 123 89 87
f 132 88 91
f 88 132 133
f 125 88 133
f 89 134 135
f 90 89 135
f 89 136 134
f 123 136 89
f 90 135 123
f 137 91 138
f 138 91 92
f 137 132 91
f 92 106 138
f 93 139 140
f 141 139 93
f 142 141 93
f 93 94 142
f 140 143 93
f 93 143 144
f 93 144 145
f 145 107 93
f 94 146 142
f 116 146 94
f 95 110 147
f 148 96 95
f 148 95 147
f 149 97 96
f 149 96 148
f 149 98 97
f 122 99 98
f 149 122 98
f 122 120 99
f 99 150 104
f 150 99 151
f 151 99 120
f 152 153 100
f 153 101 100
f 100 102 150
f 154 100 150
f 152 100 154
f 155 156 101
f 153 157 101
f 101 156 103
f 101 158 155
f 101 157 158
f 102 105 150
f 106 103 159
f 160 159 103
f 160 103 156
f 150 161 104
f 161 105 104
f 161 162 105
f 162 163 105
f 105 163 150
f 138 106 164
f 106 159 164
f 145 165 107
f 107 165 121
f 117 108 111
f 117 109 108
f 110 109 117
f 147 110 117
f 117 111 112
f 117 112 113
f 117 113 118
f 124 115 114
f 115 124 130
f 115 130 166
f 167 115 166
f 167 146 115
f 116 115 146
f 148 147 117
f 149 148 117
f 122 149 117
f 120 119 151
f 152 151 119
f 168 152 119
f 168 119 169
f 119 165 169
f 165 119 121
f 135 136 123
f 131 124 123
f 124 131 130
f 126 125 133
f 170 171 126
f 172 170 126
f 133 172 126
f 173 126 171
f 126 173 129
f 127 174 130
f 175 174 127
f 175 127 128
f 166 175 128
f 167 166 128
f 128 129 146
f 167 128 146
f 146 129 142
f 141 129 173
f 142 129 141
f 166 130 174
f 132 176 133
f 137 176 132
f 176 172 133
f 134 136 135
f 177 137 138
f 177 176 137
f 178 177 138
f 138 164 179
f 138 179 178
f 140 139 180
f 139 141 180
f 181 182 140
f 180 181 140
f 183 143 140
f 140 182 184
f 140 184 183
f 141 173 180
f 183 144 143
f 183 185 144
f 185 158 144
f 144 158 145
f 145 158 165
f 150 163 161
f 150 151 154
f 152 154 151
f 152 186 153
f 186 152 168
f 153 186 187
f 157 153 187
f 160 156 155
f 155 188 189
f 155 189 190
f 155 190 160
f 188 155 185
f 158 185 155
f 157 187 168
f 157 168 169
f 165 158 157
f 165 157 169
f 160 191 159
f 159 191 164
f 160 190 191
f 161 163 162
f 164 191 179
f 175 166 174
f 186 168 187
f 171 170 192
f 170 193 194
f 192 170 194
f 170 172 193
f 173 171 181
f 181 171 192
f 172 176 193
f 180 173 181
f 193 176 177
f 194 193 177
f 195 194 177
f 195 177 178
f 178 179 195
f 179 191 196
f 179 196 197
f 179 197 195
f 181 192 182
f 192 198 182
f 182 198 199
f 182 199 184
f 184 185 183
f 184 188 185
f 199 188 184
f 199 189 188
f 197 196 189
f 197 189 199
f 196 190 189
f 196 191 190
f 192 200 198
f 192 194 201
f 200 192 201
f 194 195 202
f 201 194 202
f 203 202 195
f 195 204 203
f 204 195 197
f 205 197 199
f 204 197 205
f 200 206 198
f 198 206 207
f 198 208 209
f 198 209 199
f 207 208 198
f 205 199 209
f 200 201 202
f 210 200 202
f 200 210 206
f 210 202 203
f 211 210 203
f 203 204 212
f 203 212 211
f 204 205 209
f 204 209 212
f 206 210 211
f 207 206 211
f 211 208 207
f 211 212 208
f 208 212 209
