# Generated by Visualization Toolkit
v 0.005778000224381685 0.007431999780237675 0
v 0.02171500027179718 0.008914999663829803 -0.00927099958062172
v 0.019169000908732414 0.005107999779284 0
v 0.01664699986577034 0.009246000088751316 -0.01897300034761429
v 0.007751999888569117 0.008847000077366829 -0.02369699999690056
v -0.012218999676406384 0.009778999723494053 0
v -0.012120000086724758 0.009390000253915787 -0.0055680000223219395
v -0.012501000426709652 0.00977300014346838 -0.016493000090122223
v -0.006858999840915203 0.010986999608576298 -0.02383499965071678
v 0.02171500027179718 0.008914999663829803 0.00927099958062172
v 0.01664699986577034 0.009246000088751316 0.01897300034761429
v 0.007751999888569117 0.008847000077366829 0.02369699999690056
v -0.012120000086724758 0.009390000253915787 0.0055680000223219395
v -0.012501000426709652 0.00977300014346838 0.016493000090122223
v -0.006858999840915203 0.010986999608576298 0.02383499965071678
v 0.022456999868154526 0.010095999576151371 -0.011134999804198742
v 0.022353999316692352 0.010835000313818455 0
v 0.022456999868154526 0.010095999576151371 0.011134999804198742
v 0.01510000042617321 0.01235399954020977 -0.018324000760912895
v 0.006564000155776739 0.01500799972563982 -0.022276999428868294
v -0.011673999950289726 0.015488999895751476 -0.00520800007507205
v -0.011640000157058239 0.015333999879658222 0
v -0.011673999950289726 0.015488999895751476 0.00520800007507205
v -0.011655000038444996 0.01742600090801716 -0.016840999945998192
v -0.005266000051051378 0.014100000262260437 -0.022444000467658043
v -0.01271000038832426 0.017162000760436058 -0.009944000281393528
v 0.01510000042617321 0.01235399954020977 0.018324000760912895
v 0.006564000155776739 0.01500799972563982 0.022276999428868294
v -0.005266000051051378 0.014100000262260437 0.022444000467658043
v -0.011655000038444996 0.01742600090801716 0.016840999945998192
v -0.01271000038832426 0.017162000760436058 0.009944000281393528
v 0.019440000876784325 0.016800999641418457 -0.010839000344276428
v 0.020896999165415764 0.016327999532222748 0
v 0.019440000876784325 0.016800999641418457 0.010839000344276428
v 0.013509999960660934 0.018063999712467194 -0.01786400005221367
v 0.006591999903321266 0.020090999081730843 -0.020258000120520592
v -0.011525999754667282 0.022700000554323196 -0.006688999943435192
v -0.010979999788105488 0.02275400049984455 0
v -0.011525999754667282 0.022700000554323196 0.006688999943435192
v -0.010228999890387058 0.021144000813364983 -0.020082000643014908
v -0.003982999827712774 0.021615000441670418 -0.021237000823020935
v -0.013580000028014183 0.023296000435948372 -0.010259999893605709
v 0.013509999960660934 0.018063999712467194 0.01786400005221367
v 0.006591999903321266 0.020090999081730843 0.020258000120520592
v -0.003982999827712774 0.021615000441670418 0.021237000823020935
v -0.010228999890387058 0.021144000813364983 0.020082000643014908
v -0.013580000028014183 0.023296000435948372 0.010259999893605709
v 0.019666999578475952 0.0266759991645813 -0.010455000214278698
v 0.02122800052165985 0.028040999546647072 0
v 0.019666999578475952 0.0266759991645813 0.010455000214278698
v 0.013183999806642532 0.02708500064909458 -0.018549999222159386
v 0.007734000217169523 0.02705799974501133 -0.020347999408841133
v -0.01347499992698431 0.029915999621152878 -0.006910999771207571
v -0.015660999342799187 0.030357999727129936 -0.010727999731898308
v -0.012671000324189663 0.030062999576330185 0
v -0.01347499992698431 0.029915999621152878 0.006910999771207571
v -0.015660999342799187 0.030357999727129936 0.010727999731898308
v -0.008762000128626823 0.028140999376773834 -0.021807000041007996
v -0.003490000031888485 0.027147000655531883 -0.021385999396443367
v -0.013818000443279743 0.023840999230742455 -0.02218800038099289
v -0.017000999301671982 0.02041500061750412 -0.018091000616550446
v -0.015994999557733536 0.027716999873518944 -0.02653999999165535
v -0.022665999829769135 0.02575100027024746 -0.003911000210791826
v 0.013183999806642532 0.02708500064909458 0.018549999222159386
v 0.007734000217169523 0.02705799974501133 0.020347999408841133
v -0.003490000031888485 0.027147000655531883 0.021385999396443367
v -0.008762000128626823 0.028140999376773834 0.021807000041007996
v -0.017000999301671982 0.02041500061750412 0.018091000616550446
v -0.013818000443279743 0.023840999230742455 0.02218800038099289
v -0.015994999557733536 0.027716999873518944 0.02653999999165535
v -0.022665999829769135 0.02575100027024746 0.003911000210791826
v 0.021184999495744705 0.03220999985933304 -0.01157000008970499
v 0.021866999566555023 0.03269699960947037 0
v 0.021184999495744705 0.03220999985933304 0.01157000008970499
v 0.01539899967610836 0.03156699985265732 -0.01963699981570244
v 0.008580000139772892 0.030741000548005104 -0.02250399999320507
v -0.013957000337541103 0.038366999477148056 -0.008822999894618988
v -0.014821000397205353 0.036329999566078186 -0.01152000017464161
v -0.012136000208556652 0.03734299913048744 0
v -0.013957000337541103 0.038366999477148056 0.008822999894618988
v -0.014821000397205353 0.036329999566078186 0.01152000017464161
v -0.009813000448048115 0.03321700170636177 -0.021069999784231186
v -0.0009769999887794256 0.03223700076341629 -0.02359900064766407
v -0.0167859997600317 0.03445599973201752 -0.02112399972975254
v -0.024229999631643295 0.025189999490976334 -0.018198000267148018
v -0.025887999683618546 0.03018599934875965 -0.024501999840140343
v -0.020781999453902245 0.022665999829769135 -0.02621299959719181
v -0.019240999594330788 0.017201000824570656 -0.011134999804198742
v -0.021769000217318535 0.025237999856472015 -0.030672000721096992
v -0.02010600082576275 0.028672000393271446 -0.03373999893665314
v -0.022866999730467796 0.012742999941110611 -0.005388000048696995
v -0.023024000227451324 0.024094000458717346 0
v -0.03202199935913086 0.02747499942779541 0
v -0.024669000878930092 0.032829999923706055 -0.008144999854266644
v 0.01539899967610836 0.03156699985265732 0.01963699981570244
v 0.008580000139772892 0.030741000548005104 0.02250399999320507
v -0.0009769999887794256 0.03223700076341629 0.02359900064766407
v -0.009813000448048115 0.03321700170636177 0.021069999784231186
v -0.0167859997600317 0.03445599973201752 0.02112399972975254
v -0.025887999683618546 0.03018599934875965 0.024501999840140343
v -0.024229999631643295 0.025189999490976334 0.018198000267148018
v -0.020781999453902245 0.022665999829769135 0.02621299959719181
v -0.019240999594330788 0.017201000824570656 0.011134999804198742
v -0.02010600082576275 0.028672000393271446 0.03373999893665314
v -0.021769000217318535 0.025237999856472015 0.030672000721096992
v -0.022866999730467796 0.012742999941110611 0.005388000048696995
v -0.024669000878930092 0.032829999923706055 0.008144999854266644
v 0.019346000626683235 0.03749699890613556 -0.011781999841332436
v 0.020267000421881676 0.03780199959874153 0
v 0.019346000626683235 0.03749699890613556 0.011781999841332436
v 0.015273000113666058 0.03717999905347824 -0.01990699954330921
v 0.007548999972641468 0.03718400001525879 -0.023592999204993248
v -0.002455000067129731 0.03639800101518631 -0.02374500036239624
v -0.016440000385046005 0.036580998450517654 -0.014914999715983868
v -0.022715000435709953 0.04344800114631653 -0.016930999234318733
v -0.022657999768853188 0.0403049997985363 -0.01063000038266182
v 0.004813999868929386 0.037608999758958817 0
v -0.011853000149130821 0.037863001227378845 -0.018112000077962875
v -0.022715000435709953 0.04344800114631653 0.016930999234318733
v -0.016440000385046005 0.036580998450517654 0.014914999715983868
v -0.022657999768853188 0.0403049997985363 0.01063000038266182
v -0.011853000149130821 0.037863001227378845 0.018112000077962875
v -0.022237999364733696 0.03509800136089325 -0.030108999460935593
v -0.02094000019133091 0.03867899999022484 -0.0194729994982481
v -0.027751000598073006 0.017788000404834747 -0.016388000920414925
v -0.0326789990067482 0.016100000590085983 -0.013384000398218632
v -0.03156900033354759 0.03209099918603897 -0.022346999496221542
v -0.0321820005774498 0.03064100071787834 -0.01500600017607212
v -0.029875999316573143 0.028953999280929565 -0.013415999710559845
v -0.030778000131249428 0.0419670008122921 -0.02061999961733818
v -0.025333000347018242 0.036997999995946884 -0.022533999755978584
v -0.020580999553203583 0.01005600020289421 -0.01269300002604723
v -0.03278899937868118 0.011428999714553356 -0.01806199923157692
v -0.026240000501275063 0.026674000546336174 -0.0340379998087883
v -0.024309000000357628 0.029169000685214996 -0.03732600063085556
v -0.026869000867009163 0.034894999116659164 -0.034515999257564545
v -0.023381000384688377 0.006829000078141689 -0.007075000088661909
v -0.026182999834418297 0.014011000283062458 0
v -0.03344900161027908 0.02340799942612648 -0.005224000196903944
v -0.04258200153708458 0.019631000235676765 0
v -0.02926200069487095 0.02207300066947937 -0.008771000429987907
v -0.02891100011765957 0.027065999805927277 -0.011001000180840492
v -0.03344900161027908 0.02340799942612648 0.005224000196903944
v -0.02926200069487095 0.02207300066947937 0.008771000429987907
v -0.02891100011765957 0.027065999805927277 0.011001000180840492
v -0.025821000337600708 0.03346399962902069 -0.012002999894320965
v 0.015273000113666058 0.03717999905347824 0.01990699954330921
v 0.007548999972641468 0.03718400001525879 0.023592999204993248
v -0.002455000067129731 0.03639800101518631 0.02374500036239624
v -0.022237999364733696 0.03509800136089325 0.030108999460935593
v -0.02094000019133091 0.03867899999022484 0.0194729994982481
v -0.030778000131249428 0.0419670008122921 0.02061999961733818
v -0.03156900033354759 0.03209099918603897 0.022346999496221542
v -0.025333000347018242 0.036997999995946884 0.022533999755978584
v -0.0326789990067482 0.016100000590085983 0.013384000398218632
v -0.027751000598073006 0.017788000404834747 0.016388000920414925
v -0.0321820005774498 0.03064100071787834 0.01500600017607212
v -0.029875999316573143 0.028953999280929565 0.013415999710559845
v -0.020580999553203583 0.01005600020289421 0.01269300002604723
v -0.03278899937868118 0.011428999714553356 0.01806199923157692
v -0.024309000000357628 0.029169000685214996 0.03732600063085556
v -0.026240000501275063 0.026674000546336174 0.0340379998087883
v -0.026869000867009163 0.034894999116659164 0.034515999257564545
v -0.023381000384688377 0.006829000078141689 0.007075000088661909
v -0.025821000337600708 0.03346399962902069 0.012002999894320965
v -0.037137001752853394 0.03850499913096428 -0.017280999571084976
v -0.03000199981033802 0.03567099943757057 -0.01473500020802021
v -0.037137001752853394 0.03850499913096428 0.017280999571084976
v -0.03000199981033802 0.03567099943757057 0.01473500020802021
v -0.03606700152158737 0.007757000159472227 -0.01027700025588274
v -0.0355289988219738 0.012928999960422516 -0.010861000046133995
v -0.03320999816060066 0.0038560000248253345 -0.017806999385356903
v -0.032370999455451965 0.018473999574780464 -0.009358000010251999
v -0.03524100035429001 0.03675699979066849 -0.022856000810861588
v -0.037376999855041504 0.03417399898171425 -0.01775299943983555
v -0.025485999882221222 -0.0019239999819546938 -0.01410400029271841
v -0.026443999260663986 0.004290999844670296 -0.005619999952614307
v -0.029430000111460686 0.008108999580144882 0
v -0.026443999260663986 0.004290999844670296 0.005619999952614307
v -0.03796299919486046 0.01866699941456318 -0.0044109998270869255
v -0.04162000119686127 0.014434999786317348 -0.0042929998598992825
v -0.05277999863028526 0.016574999317526817 0
v -0.03796299919486046 0.01866699941456318 0.0044109998270869255
v -0.04162000119686127 0.014434999786317348 0.0042929998598992825
v -0.032370999455451965 0.018473999574780464 0.009358000010251999
v -0.03524100035429001 0.03675699979066849 0.022856000810861588
v -0.037376999855041504 0.03417399898171425 0.01775299943983555
v -0.0355289988219738 0.012928999960422516 0.010861000046133995
v -0.03606700152158737 0.007757000159472227 0.01027700025588274
v -0.03320999816060066 0.0038560000248253345 0.017806999385356903
v -0.025485999882221222 -0.0019239999819546938 0.01410400029271841
v -0.042146001011133194 0.009523999877274036 -0.004482000134885311
v -0.032072000205516815 0.004488999955356121 -0.008077000267803669
v -0.037571001797914505 0.006157000083476305 -0.005259000230580568
v -0.037769999355077744 0.000514000013936311 0
v -0.032072000205516815 0.004488999955356121 0.008077000267803669
v -0.037571001797914505 0.006157000083476305 0.005259000230580568
v -0.05531900003552437 0.011335000395774841 0
v -0.042146001011133194 0.009523999877274036 0.004482000134885311
v -0.046261001378297806 0.006175000220537186 -0.004883999936282635
v -0.042920999228954315 0.0034549999982118607 -0.004902000073343515
v -0.044617000967264175 -0.0008079999824985862 -0.00380500010214746
v -0.04663600027561188 -0.0014809999847784638 0
v -0.044617000967264175 -0.0008079999824985862 0.00380500010214746
v -0.042920999228954315 0.0034549999982118607 0.004902000073343515
v -0.053575001657009125 0.0058570001274347305 -0.004945999942719936
v -0.0546329990029335 0.004255999810993671 0
v -0.053575001657009125 0.0058570001274347305 0.004945999942719936
v -0.046261001378297806 0.006175000220537186 0.004883999936282635
v -0.051899999380111694 0.001762000028975308 -0.005762999877333641
v -0.05094999819993973 -0.0003910000086762011 0
v -0.051899999380111694 0.001762000028975308 0.005762999877333641
f 1 2 3
f 1 4 2
f 1 5 4
f 1 6 7
f 7 8 1
f 1 8 9
f 9 5 1
f 3 10 1
f 10 11 1
f 11 12 1
f 13 6 1
f 1 14 13
f 15 14 1
f 1 12 15
f 3 2 16
f 16 2 4
f 17 3 16
f 18 10 3
f 18 3 17
f 19 16 4
f 19 4 5
f 20 19 5
f 20 5 9
f 21 7 6
f 22 21 6
f 6 13 23
f 6 23 22
f 7 21 8
f 8 24 25
f 9 8 25
f 26 24 8
f 21 26 8
f 25 20 9
f 11 10 18
f 11 18 27
f 12 11 27
f 12 27 28
f 15 12 28
f 14 23 13
f 29 30 14
f 29 14 15
f 14 30 31
f 14 31 23
f 15 28 29
f 16 32 33
f 17 16 33
f 32 16 19
f 33 18 17
f 33 34 18
f 27 18 34
f 35 32 19
f 35 19 20
f 36 35 20
f 36 20 25
f 21 22 37
f 26 21 37
f 38 37 22
f 22 39 38
f 39 22 23
f 39 23 31
f 24 40 41
f 25 24 41
f 42 24 26
f 42 40 24
f 41 36 25
f 42 26 37
f 27 34 43
f 28 27 43
f 28 43 44
f 29 28 44
f 29 44 45
f 45 30 29
f 45 46 30
f 31 30 47
f 30 46 47
f 39 31 47
f 32 48 49
f 33 32 49
f 48 32 35
f 49 34 33
f 49 50 34
f 43 34 50
f 51 48 35
f 51 35 36
f 52 51 36
f 52 36 41
f 53 37 38
f 53 54 37
f 54 42 37
f 55 53 38
f 38 39 56
f 38 56 55
f 39 57 56
f 39 47 57
f 40 58 59
f 41 40 59
f 60 40 61
f 40 60 62
f 58 40 62
f 42 61 40
f 59 52 41
f 42 63 61
f 63 42 54
f 43 50 64
f 44 43 64
f 44 64 65
f 45 44 65
f 45 65 66
f 66 46 45
f 66 67 46
f 68 46 69
f 70 69 46
f 70 46 67
f 46 68 47
f 68 71 47
f 57 47 71
f 48 72 73
f 49 48 73
f 72 48 51
f 73 50 49
f 73 74 50
f 64 50 74
f 75 72 51
f 75 51 52
f 76 75 52
f 76 52 59
f 77 53 55
f 78 54 53
f 77 78 53
f 54 78 63
f 79 77 55
f 55 56 80
f 55 80 79
f 56 57 81
f 56 81 80
f 71 81 57
f 58 82 83
f 59 58 83
f 58 62 84
f 82 58 84
f 83 76 59
f 62 60 61
f 61 85 86
f 87 61 86
f 87 62 61
f 88 85 61
f 63 88 61
f 89 90 62
f 87 89 62
f 62 90 84
f 91 63 92
f 93 92 63
f 94 93 63
f 63 91 88
f 78 94 63
f 64 74 95
f 65 64 95
f 65 95 96
f 66 65 96
f 66 96 97
f 97 67 66
f 97 98 67
f 99 70 67
f 99 67 98
f 100 101 68
f 100 68 102
f 68 69 70
f 68 70 102
f 68 101 103
f 68 103 71
f 70 104 105
f 70 105 102
f 99 104 70
f 92 71 106
f 71 92 93
f 71 93 107
f 103 106 71
f 71 107 81
f 72 108 109
f 73 72 109
f 108 72 75
f 109 74 73
f 109 110 74
f 95 74 110
f 111 108 75
f 75 76 112
f 111 75 112
f 76 83 113
f 112 76 113
f 77 114 115
f 115 116 77
f 116 94 77
f 78 77 94
f 117 77 79
f 117 118 77
f 77 118 114
f 79 80 117
f 119 120 80
f 80 121 119
f 80 107 121
f 107 80 81
f 80 122 117
f 120 122 80
f 83 82 113
f 82 84 118
f 82 118 113
f 84 114 118
f 90 123 84
f 124 84 123
f 114 84 124
f 85 125 126
f 86 85 127
f 85 128 127
f 88 125 85
f 126 129 85
f 129 128 85
f 86 127 130
f 123 87 86
f 123 86 131
f 131 86 130
f 123 89 87
f 132 88 91
f 88 132 133
f 125 88 133
f 89 134 135
f 90 89 135
f 89 136 134
f 123 136 89
f 90 135 123
f 137 91 138
f 138 91 92
f 137 132 91
f 92 106 138
f 93 139 140
f 141 139 93
f 142 141 93
f 93 94 142
f 140 143 93
f 93 143 144
f 93 144 145
f 145 107 93
f 94 146 142
f 116 146 94
f 95 110 147
f 148 96 95
f 148 95 147
f 149 97 96
f 149 96 148
f 149 98 97
f 122 99 98
f 149 122 98
f 122 120 99
f 99 150 104
f 150 99 151
f 151 99 120
f 152 153 100
f 153 101 100
f 100 102 150
f 154 100 150
f 152 100 154
f 155 156 101
f 153 157 101
f 101 156 103
f 101 158 155
f 101 157 158
f 102 105 150
f 106 103 159
f 160 159 103
f 160 103 156
f 150 161 104
f 161 105 104
f 161 162 105
f 162 163 105
f 105 163 150
f 138 106 164
f 106 159 164
f 145 165 107
f 107 165 121
f 117 108 111
f 117 109 108
f 110 109 117
f 147 110 117
f 117 111 112
f 117 112 113
f 117 113 118
f 124 115 114
f 115 124 130
f 115 130 166
f 167 115 166
f 167 146 115
f 116 115 146
f 148 147 117
f 149 148 117
f 122 149 117
f 120 119 151
f 152 151 119
f 168 152 119
f 168 119 169
f 119 165 169
f 165 119 121
f 135 136 123
f 131 124 123
f 124 131 130
f 126 125 133
f 170 171 126
f 172 170 126
f 133 172 126
f 173 126 171
f 126 173 129
f 127 174 130
f 175 174 127
f 175 127 128
f 166 175 128
f 167 166 128
f 128 129 146
f 167 128 146
f 146 129 142
f 141 129 173
f 142 129 141
f 166 130 174
f 132 176 133
f 137 176 132
f 176 172 133
f 134 136 135
f 177 137 138
f 177 176 137
f 178 177 138
f 138 164 179
f 138 179 178
f 140 139 180
f 139 141 180
f 181 182 140
f 180 181 140
f 183 143 140
f 140 182 184
f 140 184 183
f 141 173 180
f 183 144 143
f 183 185 144
f 185 158 144
f 144 158 145
f 145 158 165
f 150 163 161
f 150 151 154
f 152 154 151
f 152 186 153
f 186 152 168
f 153 186 187
f 157 153 187
f 160 156 155
f 155 188 189
f 155 189 190
f 155 190 160
f 188 155 185
f 158 185 155
f 157 187 168
f 157 168 169
f 165 158 157
f 165 157 169
f 160 191 159
f 159 191 164
f 160 190 191
f 161 163 162
f 164 191 179
f 175 166 174
f 186 168 187
f 171 170 192
f 170 193 194
f 192 170 194
f 170 172 193
f 173 171 181
f 181 171 192
f 172 176 193
f 180 173 181
f 193 176 177
f 194 193 177
f 195 194 177
f 195 177 178
f 178 179 195
f 179 191 196
f 179 196 197
f 179 197 195
f 181 192 182
f 192 198 182
f 182 198 199
f 182 199 184
f 184 185 183
f 184 188 185
f 199 188 184
f 199 189 188
f 197 196 189
f 197 189 199
f 196 190 189
f 196 191 190
f 192 200 198
f 192 194 201
f 200 192 201
f 194 195 202
f 201 194 202
f 203 202 195
f 195 204 203
f 204 195 197
f 205 197 199
f 204 197 205
f 200 206 198
f 198 206 207
f 198 208 209
f 198 209 199
f 207 208 198
f 205 199 209
f 200 201 202
f 210 200 202
f 200 210 206
f 210 202 203
f 211 210 203
f 203 204 212
f 203 212 211
f 204 205 209
f 204 209 212
f 206 210 211
f 207 206 211
f 211 208 207
f 211 212 208
f 208 212 209
