# Generated by Visualization Toolkit
v 0.0004769999941345304 0.007348000071942806 0
v 0.014287999831140041 0.014565999619662762 -0.008983000181615353
v 0.015189999714493752 0.014569000340998173 0
v 0.009619000367820263 0.01308200042694807 -0.018384000286459923
v 0.002400000113993883 0.00988100003451109 -0.022960999980568886
v -0.015475000254809856 0.000025999999706982635 0
v -0.015211000107228756 -0.0002469999890308827 -0.005394999869167805
v -0.015704000368714333 -0.0001230000052601099 -0.015980999916791916
v -0.011618000455200672 0.00380200007930398 -0.02309500053524971
v 0.014287999831140041 0.014565999619662762 0.008983000181615353
v 0.009619000367820263 0.01308200042694807 0.018384000286459923
v 0.002400000113993883 0.00988100003451109 0.022960999980568886
v -0.015211000107228756 -0.0002469999890308827 0.005394999869167805
v -0.015704000368714333 -0.0001230000052601099 0.015980999916791916
v -0.011618000455200672 0.00380200007930398 0.02309500053524971
v 0.01457899995148182 0.01590299978852272 -0.010789000429213047
v 0.014248999767005444 0.016540000215172768 0
v 0.01457899995148182 0.01590299978852272 0.010789000429213047
v 0.0078940000385046 0.01566299982368946 -0.017754999920725822
v -0.0006399999838322401 0.015070999972522259 -0.02158600091934204
v -0.01686199940741062 0.0076299998909235 -0.005045999772846699
v -0.016781000420451164 0.007501000072807074 0
v -0.01686199940741062 0.0076299998909235 0.005045999772846699
v -0.01746400073170662 0.009399999864399433 -0.016318000853061676
v -0.011001000180840492 0.010075000114738941 -0.021747000515460968
v -0.018330000340938568 0.008787999860942364 -0.009634999558329582
v 0.0078940000385046 0.01566299982368946 0.017754999920725822
v -0.0006399999838322401 0.015070999972522259 0.02158600091934204
v -0.011001000180840492 0.010075000114738941 0.021747000515460968
v -0.01746400073170662 0.009399999864399433 0.016318000853061676
v -0.018330000340938568 0.008787999860942364 0.009634999558329582
v 0.010379999876022339 0.021240999922156334 -0.010502000339329243
v 0.011842000298202038 0.02132299914956093 0
v 0.010379999876022339 0.021240999922156334 0.010502000339329243
v 0.004635999910533428 0.0203000009059906 -0.017309000715613365
v -0.0022410000674426556 0.019708000123500824 -0.01962899975478649
v -0.019387999549508095 0.01569800078868866 -0.00648100022226572
v -0.01891399919986725 0.015938999131321907 0
v -0.019387999549508095 0.01569800078868866 0.00648100022226572
v -0.017721999436616898 0.014739000238478184 -0.01945899985730648
v -0.012249999679625034 0.017369000241160393 -0.020577000454068184
v -0.021428000181913376 0.01551700010895729 -0.009941999800503254
v 0.004635999910533428 0.0203000009059906 0.017309000715613365
v -0.0022410000674426556 0.019708000123500824 0.01962899975478649
v -0.012249999679625034 0.017369000241160393 0.020577000454068184
v -0.017721999436616898 0.014739000238478184 0.01945899985730648
v -0.021428000181913376 0.01551700010895729 0.009941999800503254
v 0.007424999959766865 0.030309999361634254 -0.010130000300705433
v 0.008394000120460987 0.03210199996829033 0
v 0.007424999959766865 0.030309999361634254 0.010130000300705433
v 0.0014570000348612666 0.028396999463438988 -0.017974000424146652
v -0.003441999899223447 0.02645299956202507 -0.01971600018441677
v -0.023451000452041626 0.02157999947667122 -0.006696000229567289
v -0.025560999289155006 0.02121100015938282 -0.010394999757409096
v -0.022773999720811844 0.0219969991594553 0
v -0.023451000452041626 0.02157999947667122 0.006696000229567289
v -0.025560999289155006 0.02121100015938282 0.010394999757409096
v -0.018640000373125076 0.02162499912083149 -0.021129999309778214
v -0.013574999757111073 0.022577999159693718 -0.020721999928355217
v -0.021817000582814217 0.015928000211715698 -0.02149900048971176
v -0.023586999624967575 0.011687999591231346 -0.01752999983727932
v -0.02501700073480606 0.018689999356865883 -0.02571599930524826
v -0.030393999069929123 0.014549000188708305 -0.003788999980315566
v 0.0014570000348612666 0.028396999463438988 0.017974000424146652
v -0.003441999899223447 0.02645299956202507 0.01971600018441677
v -0.013574999757111073 0.022577999159693718 0.020721999928355217
v -0.018640000373125076 0.02162499912083149 0.021129999309778214
v -0.023586999624967575 0.011687999591231346 0.01752999983727932
v -0.021817000582814217 0.015928000211715698 0.02149900048971176
v -0.02501700073480606 0.018689999356865883 0.02571599930524826
v -0.030393999069929123 0.014549000188708305 0.003788999980315566
v 0.007021999917924404 0.035881999880075455 -0.011210000142455101
v 0.0074800001457333565 0.03656600043177605 0
v 0.007021999917924404 0.035881999880075455 0.011210000142455101
v 0.0020179999992251396 0.033257998526096344 -0.019027000293135643
v -0.003857000032439828 0.03010299988090992 -0.02180499956011772
v -0.02658900059759617 0.029102999716997147 -0.008549000136554241
v -0.026714999228715897 0.026944000273942947 -0.01116199977695942
v -0.02462100051343441 0.02881300076842308 0
v -0.02658900059759617 0.029102999716997147 0.008549000136554241
v -0.026714999228715897 0.026944000273942947 0.01116199977695942
v -0.021209999918937683 0.025875000283122063 -0.020416000857949257
v -0.012941000051796436 0.0280969999730587 -0.02286599949002266
v -0.027884000912308693 0.024545999243855476 -0.020468000322580338
v -0.0316229984164238 0.013488000258803368 -0.017633000388741493
v -0.034713998436927795 0.017450999468564987 -0.023740999400615692
v -0.02771100029349327 0.012404999695718288 -0.025398999452590942
v -0.02457600086927414 0.007973000407218933 -0.010789000429213047
v -0.029423000290989876 0.014399000443518162 -0.0297200009226799
v -0.029023999348282814 0.01811099983751774 -0.03269200026988983
v -0.026413999497890472 0.002638000063598156 -0.00522099994122982
v -0.03018599934875965 0.012915000319480896 0
v -0.03937000036239624 0.012822000309824944 0
v -0.03446200117468834 0.020287999883294106 -0.007891999557614326
v 0.0020179999992251396 0.033257998526096344 0.019027000293135643
v -0.003857000032439828 0.03010299988090992 0.02180499956011772
v -0.012941000051796436 0.0280969999730587 0.02286599949002266
v -0.021209999918937683 0.025875000283122063 0.020416000857949257
v -0.027884000912308693 0.024545999243855476 0.020468000322580338
v -0.034713998436927795 0.017450999468564987 0.023740999400615692
v -0.0316229984164238 0.013488000258803368 0.017633000388741493
v -0.02771100029349327 0.012404999695718288 0.025398999452590942
v -0.02457600086927414 0.007973000407218933 0.010789000429213047
v -0.029023999348282814 0.01811099983751774 0.03269200026988983
v -0.029423000290989876 0.014399000443518162 0.0297200009226799
v -0.026413999497890472 0.002638000063598156 0.00522099994122982
v -0.03446200117468834 0.020287999883294106 0.007891999557614326
v 0.004999000113457441 0.04064200073480606 -0.011416000314056873
v 0.0057310000993311405 0.04124400019645691 0
v 0.004999000113457441 0.04064200073480606 0.011416000314056873
v 0.00010900000052060932 0.03832300007343292 -0.01928899995982647
v -0.00684700021520257 0.03560499846935272 -0.022859999909996986
v -0.015603000298142433 0.03136400133371353 -0.02300800010561943
v -0.02825300022959709 0.02660199999809265 -0.01445200014859438
v -0.03609900176525116 0.03064199909567833 -0.016405999660491943
v -0.03504300117492676 0.027799999341368675 -0.010300000198185444
v -0.009445000439882278 0.03502799943089485 0
v -0.024532999843358994 0.029386000707745552 -0.017549000680446625
v -0.03609900176525116 0.03064199909567833 0.016405999660491943
v -0.02825300022959709 0.02660199999809265 0.01445200014859438
v -0.03504300117492676 0.027799999341368675 0.010300000198185444
v -0.024532999843358994 0.029386000707745552 0.017549000680446625
v -0.03299900144338608 0.023209000006318092 -0.029174000024795532
v -0.032976001501083374 0.02692599967122078 -0.018868999555706978
v -0.03242500126361847 0.005508999805897474 -0.01587899960577488
v -0.036322999745607376 0.0022360000293701887 -0.012968000024557114
v -0.04043800011277199 0.017183000221848488 -0.02165300026535988
v -0.04052700102329254 0.015646999701857567 -0.014539999887347221
v -0.03791100159287453 0.014924000017344952 -0.013000000268220901
v -0.04288500174880028 0.026451999321579933 -0.019979000091552734
v -0.036393001675605774 0.023848000913858414 -0.021834999322891235
v -0.023497000336647034 0.0009970000246539712 -0.012299000285565853
v -0.03492800146341324 -0.0020550000481307507 -0.017501000314950943
v -0.033907998353242874 0.01413000002503395 -0.03298100084066391
v -0.03296700119972229 0.01708200015127659 -0.036166999489068985
v -0.03710300102829933 0.02139200083911419 -0.03344399854540825
v -0.02498600073158741 -0.0029269999358803034 -0.00685499981045723
v -0.029805999249219894 0.002621999941766262 0
v -0.03935299813747406 0.008616000413894653 -0.005061999894678593
v -0.04630599915981293 -0.0009899999713525176 0
v -0.03515699878334999 0.008876999840140343 -0.008497999981045723
v -0.03643700107932091 0.013546000234782696 -0.010658999904990196
v -0.03935299813747406 0.008616000413894653 0.005061999894678593
v -0.03515699878334999 0.008876999840140343 0.008497999981045723
v -0.03643700107932091 0.013546000234782696 0.010658999904990196
v -0.03570200130343437 0.020457999780774117 -0.011629999615252018
v 0.00010900000052060932 0.03832300007343292 0.01928899995982647
v -0.00684700021520257 0.03560499846935272 0.022859999909996986
v -0.015603000298142433 0.03136400133371353 0.02300800010561943
v -0.03299900144338608 0.023209000006318092 0.029174000024795532
v -0.032976001501083374 0.02692599967122078 0.018868999555706978
v -0.04288500174880028 0.026451999321579933 0.019979000091552734
v -0.04043800011277199 0.017183000221848488 0.02165300026535988
v -0.036393001675605774 0.023848000913858414 0.021834999322891235
v -0.036322999745607376 0.0022360000293701887 0.012968000024557114
v -0.03242500126361847 0.005508999805897474 0.01587899960577488
v -0.04052700102329254 0.015646999701857567 0.014539999887347221
v -0.03791100159287453 0.014924000017344952 0.013000000268220901
v -0.023497000336647034 0.0009970000246539712 0.012299000285565853
v -0.03492800146341324 -0.0020550000481307507 0.017501000314950943
v -0.03296700119972229 0.01708200015127659 0.036166999489068985
v -0.033907998353242874 0.01413000002503395 0.03298100084066391
v -0.03710300102829933 0.02139200083911419 0.03344399854540825
v -0.02498600073158741 -0.0029269999358803034 0.00685499981045723
v -0.03570200130343437 0.020457999780774117 0.011629999615252018
v -0.047502998262643814 0.021059000864624977 -0.01674400083720684
v -0.0401730015873909 0.0209950003772974 -0.014276999980211258
v -0.047502998262643814 0.021059000864624977 0.01674400083720684
v -0.0401730015873909 0.0209950003772974 0.014276999980211258
v -0.03670400008559227 -0.006552999839186668 -0.009957999922335148
v -0.03787500038743019 -0.0016560000367462635 -0.01052400004118681
v -0.032885000109672546 -0.009097999893128872 -0.017254000529646873
v -0.03680500015616417 0.004505000077188015 -0.009066999889910221
v -0.04523700103163719 0.020136000588536263 -0.02214599959552288
v -0.04633399844169617 0.017031999304890633 -0.017201999202370644
v -0.024080999195575714 -0.011636000126600266 -0.013666000217199326
v -0.026931999251246452 -0.006318000145256519 -0.005444999784231186
v -0.030842000618577003 -0.003894000081345439 0
v -0.026931999251246452 -0.006318000145256519 0.005444999784231186
v -0.04190099984407425 0.0027099999133497477 -0.004273999948054552
v -0.04383999854326248 -0.0024309998843818903 -0.0041600000113248825
v -0.054572999477386475 -0.004416000097990036 0
v -0.04190099984407425 0.0027099999133497477 0.004273999948054552
v -0.04383999854326248 -0.0024309998843818903 0.0041600000113248825
v -0.03680500015616417 0.004505000077188015 0.009066999889910221
v -0.04523700103163719 0.020136000588536263 0.02214599959552288
v -0.04633399844169617 0.017031999304890633 0.017201999202370644
v -0.03787500038743019 -0.0016560000367462635 0.01052400004118681
v -0.03670400008559227 -0.006552999839186668 0.009957999922335148
v -0.032885000109672546 -0.009097999893128872 0.017254000529646873
v -0.024080999195575714 -0.011636000126600266 0.013666000217199326
v -0.042743001133203506 -0.0070870001800358295 -0.004342999774962664
v -0.03206200152635574 -0.00812000036239624 -0.007826000452041626
v -0.037546999752521515 -0.008539999835193157 -0.00509499991312623
v -0.03592099994421005 -0.013747000135481358 0
v -0.03206200152635574 -0.00812000036239624 0.007826000452041626
v -0.037546999752521515 -0.008539999835193157 0.00509499991312623
v -0.05518199875950813 -0.010080999694764614 0
v -0.042743001133203506 -0.0070870001800358295 0.004342999774962664
v -0.0453759990632534 -0.011586000211536884 -0.004732999950647354
v -0.041499000042676926 -0.012884999625384808 -0.004749000072479248
v -0.041662998497486115 -0.017364000901579857 -0.0036869999021291733
v -0.04326599836349487 -0.01868700049817562 0
v -0.041662998497486115 -0.017364000901579857 0.0036869999021291733
v -0.041499000042676926 -0.012884999625384808 0.004749000072479248
v -0.05186000093817711 -0.014453000389039516 -0.004792000167071819
v -0.05230100080370903 -0.016282999888062477 0
v -0.05186000093817711 -0.014453000389039516 0.004792000167071819
v -0.0453759990632534 -0.011586000211536884 0.004732999950647354
v -0.049042001366615295 -0.017589999362826347 -0.005584000144153833
v -0.04749799892306328 -0.019215000793337822 0
v -0.049042001366615295 -0.017589999362826347 0.005584000144153833
f 1 2 3
f 1 4 2
f 1 5 4
f 1 6 7
f 7 8 1
f 1 8 9
f 9 5 1
f 3 10 1
f 10 11 1
f 11 12 1
f 13 6 1
f 1 14 13
f 15 14 1
f 1 12 15
f 3 2 16
f 16 2 4
f 17 3 16
f 18 10 3
f 18 3 17
f 19 16 4
f 19 4 5
f 20 19 5
f 20 5 9
f 21 7 6
f 22 21 6
f 6 13 23
f 6 23 22
f 7 21 8
f 8 24 25
f 9 8 25
f 26 24 8
f 21 26 8
f 25 20 9
f 11 10 18
f 11 18 27
f 12 11 27
f 12 27 28
f 15 12 28
f 14 23 13
f 29 30 14
f 29 14 15
f 14 30 31
f 14 31 23
f 15 28 29
f 16 32 33
f 17 16 33
f 32 16 19
f 33 18 17
f 33 34 18
f 27 18 34
f 35 32 19
f 35 19 20
f 36 35 20
f 36 20 25
f 21 22 37
f 26 21 37
f 38 37 22
f 22 39 38
f 39 22 23
f 39 23 31
f 24 40 41
f 25 24 41
f 42 24 26
f 42 40 24
f 41 36 25
f 42 26 37
f 27 34 43
f 28 27 43
f 28 43 44
f 29 28 44
f 29 44 45
f 45 30 29
f 45 46 30
f 31 30 47
f 30 46 47
f 39 31 47
f 32 48 49
f 33 32 49
f 48 32 35
f 49 34 33
f 49 50 34
f 43 34 50
f 51 48 35
f 51 35 36
f 52 51 36
f 52 36 41
f 53 37 38
f 53 54 37
f 54 42 37
f 55 53 38
f 38 39 56
f 38 56 55
f 39 57 56
f 39 47 57
f 40 58 59
f 41 40 59
f 60 40 61
f 40 60 62
f 58 40 62
f 42 61 40
f 59 52 41
f 42 63 61
f 63 42 54
f 43 50 64
f 44 43 64
f 44 64 65
f 45 44 65
f 45 65 66
f 66 46 45
f 66 67 46
f 68 46 69
f 70 69 46
f 70 46 67
f 46 68 47
f 68 71 47
f 57 47 71
f 48 72 73
f 49 48 73
f 72 48 51
f 73 50 49
f 73 74 50
f 64 50 74
f 75 72 51
f 75 51 52
f 76 75 52
f 76 52 59
f 77 53 55
f 78 54 53
f 77 78 53
f 54 78 63
f 79 77 55
f 55 56 80
f 55 80 79
f 56 57 81
f 56 81 80
f 71 81 57
f 58 82 83
f 59 58 83
f 58 62 84
f 82 58 84
f 83 76 59
f 62 60 61
f 61 85 86
f 87 61 86
f 87 62 61
f 88 85 61
f 63 88 61
f 89 90 62
f 87 89 62
f 62 90 84
f 91 63 92
f 93 92 63
f 94 93 63
f 63 91 88
f 78 94 63
f 64 74 95
f 65 64 95
f 65 95 96
f 66 65 96
f 66 96 97
f 97 67 66
f 97 98 67
f 99 70 67
f 99 67 98
f 100 101 68
f 100 68 102
f 68 69 70
f 68 70 102
f 68 101 103
f 68 103 71
f 70 104 105
f 70 105 102
f 99 104 70
f 92 71 106
f 71 92 93
f 71 93 107
f 103 106 71
f 71 107 81
f 72 108 109
f 73 72 109
f 108 72 75
f 109 74 73
f 109 110 74
f 95 74 110
f 111 108 75
f 75 76 112
f 111 75 112
f 76 83 113
f 112 76 113
f 77 114 115
f 115 116 77
f 116 94 77
f 78 77 94
f 117 77 79
f 117 118 77
f 77 118 114
f 79 80 117
f 119 120 80
f 80 121 119
f 80 107 121
f 107 80 81
f 80 122 117
f 120 122 80
f 83 82 113
f 82 84 118
f 82 118 113
f 84 114 118
f 90 123 84
f 124 84 123
f 114 84 124
f 85 125 126
f 86 85 127
f 85 128 127
f 88 125 85
f 126 129 85
f 129 128 85
f 86 127 130
f 123 87 86
f 123 86 131
f 131 86 130
f 123 89 87
f 132 88 91
f 88 132 133
f 125 88 133
f 89 134 135
f 90 89 135
f 89 136 134
f 123 136 89
f 90 135 123
f 137 91 138
f 138 91 92
f 137 132 91
f 92 106 138
f 93 139 140
f 141 139 93
f 142 141 93
f 93 94 142
f 140 143 93
f 93 143 144
f 93 144 145
f 145 107 93
f 94 146 142
f 116 146 94
f 95 110 147
f 148 96 95
f 148 95 147
f 149 97 96
f 149 96 148
f 149 98 97
f 122 99 98
f 149 122 98
f 122 120 99
f 99 150 104
f 150 99 151
f 151 99 120
f 152 153 100
f 153 101 100
f 100 102 150
f 154 100 150
f 152 100 154
f 155 156 101
f 153 157 101
f 101 156 103
f 101 158 155
f 101 157 158
f 102 105 150
f 106 103 159
f 160 159 103
f 160 103 156
f 150 161 104
f 161 105 104
f 161 162 105
f 162 163 105
f 105 163 150
f 138 106 164
f 106 159 164
f 145 165 107
f 107 165 121
f 117 108 111
f 117 109 108
f 110 109 117
f 147 110 117
f 117 111 112
f 117 112 113
f 117 113 118
f 124 115 114
f 115 124 130
f 115 130 166
f 167 115 166
f 167 146 115
f 116 115 146
f 148 147 117
f 149 148 117
f 122 149 117
f 120 119 151
f 152 151 119
f 168 152 119
f 168 119 169
f 119 165 169
f 165 119 121
f 135 136 123
f 131 124 123
f 124 131 130
f 126 125 133
f 170 171 126
f 172 170 126
f 133 172 126
f 173 126 171
f 126 173 129
f 127 174 130
f 175 174 127
f 175 127 128
f 166 175 128
f 167 166 128
f 128 129 146
f 167 128 146
f 146 129 142
f 141 129 173
f 142 129 141
f 166 130 174
f 132 176 133
f 137 176 132
f 176 172 133
f 134 136 135
f 177 137 138
f 177 176 137
f 178 177 138
f 138 164 179
f 138 179 178
f 140 139 180
f 139 141 180
f 181 182 140
f 180 181 140
f 183 143 140
f 140 182 184
f 140 184 183
f 141 173 180
f 183 144 143
f 183 185 144
f 185 158 144
f 144 158 145
f 145 158 165
f 150 163 161
f 150 151 154
f 152 154 151
f 152 186 153
f 186 152 168
f 153 186 187
f 157 153 187
f 160 156 155
f 155 188 189
f 155 189 190
f 155 190 160
f 188 155 185
f 158 185 155
f 157 187 168
f 157 168 169
f 165 158 157
f 165 157 169
f 160 191 159
f 159 191 164
f 160 190 191
f 161 163 162
f 164 191 179
f 175 166 174
f 186 168 187
f 171 170 192
f 170 193 194
f 192 170 194
f 170 172 193
f 173 171 181
f 181 171 192
f 172 176 193
f 180 173 181
f 193 176 177
f 194 193 177
f 195 194 177
f 195 177 178
f 178 179 195
f 179 191 196
f 179 196 197
f 179 197 195
f 181 192 182
f 192 198 182
f 182 198 199
f 182 199 184
f 184 185 183
f 184 188 185
f 199 188 184
f 199 189 188
f 197 196 189
f 197 189 199
f 196 190 189
f 196 191 190
f 192 200 198
f 192 194 201
f 200 192 201
f 194 195 202
f 201 194 202
f 203 202 195
f 195 204 203
f 204 195 197
f 205 197 199
f 204 197 205
f 200 206 198
f 198 206 207
f 198 208 209
f 198 209 199
f 207 208 198
f 205 199 209
f 200 201 202
f 210 200 202
f 200 210 206
f 210 202 203
f 211 210 203
f 203 204 212
f 203 212 211
f 204 205 209
f 204 209 212
f 206 210 211
f 207 206 211
f 211 208 207
f 211 212 208
f 208 212 209
