# Generated by Visualization Toolkit
v 0.006941999774426222 -0.005752000026404858 0.003261999925598502
v 0.004550999961793423 -0.009215000085532665 0.0078039998188614845
v 0.004989999812096357 -0.007899000309407711 0.00433199992403388
v 0.006033000070601702 -0.004796000197529793 0.00042699999175965786
v 0.0064039998687803745 -0.007792999967932701 0.008042000234127045
v 0.007613999769091606 -0.00203699991106987 0.0034469999372959137
v 0.006341999862343073 -0.003671000013127923 -0.00009300000237999484
v 0.006544000003486872 -0.002500999951735139 -0.0011220000451430678
v 0.0031129999551922083 -0.00977300014346838 0.011045999825000763
v 0.0040420000441372395 -0.004393000155687332 0.0010849999962374568
v 0.002157999901100993 -0.005212000105530024 0.003513999981805682
v -0.0005779999773949385 -0.007110999897122383 0.009212999604642391
v 0.00585799990221858 -0.0031159999780356884 -0.0009830000344663858
v 0.005024000070989132 -0.008321999572217464 0.010712999850511551
v 0.006155999843031168 -0.002217999892309308 0.0096220001578331
v 0.007499000057578087 0.00020799999765586108 0.0034680000972002745
v 0.005355000030249357 -0.0018420000560581684 -0.0022499999031424522
v 0.005919999908655882 -0.0004659999976865947 -0.001626000041142106
v 0.001145999995060265 -0.009879999794065952 0.0128370001912117
v -0.000299000006634742 -0.0031769999768584967 0.0016850000247359276
v 0.004786999896168709 -0.0019130000146105886 -0.0021860001143068075
v -0.0018269999418407679 -0.005570999812334776 0.004184999968856573
v -0.0010319999419152737 -0.006029000040143728 0.00597799988463521
v -0.006068000104278326 -0.008868999779224396 0.0059819999150931835
v -0.003959000110626221 -0.010356999933719635 0.013294000178575516
v -0.0012390000047162175 -0.009940000250935555 0.013496999628841877
v 0.0010710000060498714 -0.00810999982059002 0.015062999911606312
v 0.005113000050187111 0.002271000063046813 0.007104999851435423
v 0.0019030000548809767 0.003544999985024333 0.00824700016528368
v 0.0014560000272467732 0.0019239999819546938 0.01183400023728609
v -0.0007970000151544809 -0.0030360000673681498 0.015591000206768513
v -0.0017900000093504786 -0.005907000042498112 0.01664699986577034
v 0.005204000044614077 0.001386999967508018 -0.0005080000264570117
v 0.004310000222176313 0.0031999999191612005 0.0053519997745752335
v 0.0037120000924915075 -0.00011100000119768083 -0.003237999975681305
v -0.0011840000515803695 -0.00836700014770031 0.015727000311017036
v -0.0007789999945089221 -0.0012880000285804272 0.00045399999362416565
v -0.0024510000366717577 -0.004004000220447779 0.002572000026702881
v -0.003713000100106001 -0.0067980000749230385 0.0042329998686909676
v -0.00824000034481287 -0.010452999733388424 0.0019120000069960952
v -0.007919000461697578 -0.010191000066697598 0.005714999977499247
v -0.0034149999264627695 -0.00736499996855855 0.016032999381422997
v -0.006550999823957682 -0.006564000155776739 0.01434400025755167
v -0.007613999769091606 -0.01166599988937378 0.010857000015676022
v 0.0003220000071451068 0.00381499994546175 0.004819000139832497
v -0.0038320000749081373 0.0015839999541640282 0.009731999598443508
v -0.0028959999326616526 -0.002621999941766262 0.015122000128030777
v -0.002234000014141202 0.00013099999341648072 0.013306999579071999
v -0.0037529999390244484 -0.005716000217944384 0.016228999942541122
v -0.005241999868303537 0.00060299999313429 0.007437000051140785
v -0.0029349999967962503 -0.0021210000850260258 0.0013539999490603805
v -0.006765999831259251 -0.0050570000894367695 0.0006040000007487833
v -0.009549999609589577 -0.010867999866604805 0.0014130000490695238
v -0.00941499974578619 -0.00967200007289648 0.0001140000022132881
v -0.010716999880969524 -0.009417999535799026 0.001234999974258244
v -0.008294999599456787 -0.008930999785661697 0.009302999824285507
v -0.010223999619483948 -0.005679000169038773 0.005619999952614307
v -0.008271999657154083 -0.005152000114321709 0.0114120002835989
v -0.008907999843358994 -0.008833999745547771 0.010165000334382057
v -0.005537999793887138 -0.0008379999781027436 0.011710000224411488
v -0.007488999981433153 -0.0015780000248923898 0.009417000226676464
v -0.007745000068098307 -0.0014149999478831887 0.006819999776780605
v -0.01056000031530857 -0.006233000196516514 0.0027089999057352543
v -0.00814099982380867 -0.006093000061810017 -0.0006290000164881349
v -0.010533000342547894 -0.007362000178545713 -0.0026829999405890703
v -0.009717999957501888 -0.0064130001701414585 -0.0023360000923275948
v -0.011090000160038471 -0.007687999866902828 0.0003100000030826777
v -0.00976100005209446 -0.006814999971538782 0.008669000118970871
f 1 2 3
f 4 1 3
f 5 2 1
f 6 5 1
f 4 7 1
f 7 8 1
f 6 1 8
f 9 3 2
f 9 2 5
f 10 3 11
f 4 3 10
f 9 12 3
f 11 3 12
f 13 4 10
f 4 13 7
f 14 9 5
f 15 14 5
f 15 5 6
f 16 6 8
f 6 16 15
f 7 13 8
f 13 17 8
f 8 17 18
f 8 18 16
f 9 14 19
f 12 9 19
f 20 10 11
f 21 10 20
f 21 13 10
f 20 11 22
f 23 22 11
f 12 23 11
f 23 12 24
f 24 12 25
f 12 19 26
f 12 26 25
f 17 13 21
f 15 27 14
f 14 27 19
f 16 28 15
f 28 29 15
f 15 30 31
f 32 15 31
f 32 27 15
f 15 29 30
f 16 18 33
f 16 34 28
f 16 33 34
f 35 17 21
f 35 18 17
f 18 35 33
f 36 19 27
f 36 26 19
f 35 20 37
f 35 21 20
f 37 20 38
f 20 22 38
f 38 22 39
f 24 39 22
f 22 23 24
f 40 24 41
f 24 40 39
f 41 24 25
f 36 42 25
f 43 25 42
f 26 36 25
f 44 25 43
f 44 41 25
f 27 32 36
f 34 29 28
f 34 45 29
f 29 45 46
f 30 29 46
f 30 47 31
f 47 30 48
f 46 48 30
f 49 31 47
f 49 32 31
f 36 32 42
f 49 42 32
f 35 45 33
f 45 34 33
f 35 37 50
f 35 50 45
f 50 37 51
f 38 51 37
f 51 38 52
f 38 39 52
f 52 39 40
f 40 41 53
f 40 54 52
f 54 40 53
f 41 55 53
f 56 57 41
f 41 57 55
f 56 41 44
f 49 43 42
f 43 58 59
f 60 58 43
f 49 60 43
f 43 59 44
f 56 44 59
f 50 46 45
f 50 60 46
f 48 46 60
f 60 49 47
f 60 47 48
f 61 50 62
f 60 50 61
f 50 51 62
f 62 51 52
f 63 52 64
f 52 63 62
f 54 64 52
f 53 55 65
f 54 53 65
f 54 66 64
f 66 54 65
f 55 57 63
f 67 55 63
f 65 55 67
f 68 57 56
f 59 68 56
f 68 61 57
f 62 63 57
f 62 57 61
f 68 59 58
f 58 60 61
f 58 61 68
f 63 64 67
f 66 67 64
f 65 67 66
