# Generated by Visualization Toolkit
v 0.006417999975383282 -0.09149699658155441 0.014090999960899353
v 0.005762999877333641 -0.0878399983048439 0.014010000042617321
v 0.008875000290572643 -0.09248699992895126 0.014031000435352325
v 0.008727000094950199 -0.0978040024638176 0.014682999812066555
v 0.006357000209391117 -0.09525399655103683 0.014542999677360058
v 0.005324000027030706 -0.09544000029563904 0.013732999563217163
v 0.004292000085115433 -0.08803299814462662 0.012202000245451927
v 0.0029100000392645597 -0.09452199935913086 0.011014999821782112
v 0.002248999895527959 -0.08939599990844727 0.010993000119924545
v 0.00804699957370758 -0.08944500237703323 0.014305000193417072
v -0.0006220000213943422 -0.07894100248813629 0.011610000394284725
v 0.0036959999706596136 -0.0806720033288002 0.015604999847710133
v 0.006506999954581261 -0.08632300049066544 0.01707400009036064
v 0.009353999979794025 -0.09016700088977814 0.014271000400185585
v 0.010657000355422497 -0.09310699999332428 0.015050999820232391
v 0.008426000364124775 -0.09904400259256363 0.015062999911606312
v 0.010230000130832195 -0.09853599965572357 0.01627100072801113
v 0.005572999827563763 -0.09717600047588348 0.01537999976426363
v 0.004416000097990036 -0.09819500148296356 0.012616000138223171
v -0.0010930000571534038 -0.08624999970197678 0.0114120002835989
v 0.002615999896079302 -0.09692800045013428 0.011241000145673752
v 0.0033030000049620867 -0.09853199869394302 0.011824999935925007
v 0.00940100010484457 -0.08942300081253052 0.015103000216186047
v 0.007991000078618526 -0.0886629968881607 0.016937000676989555
v 0.0015910000074654818 -0.07186000049114227 0.01450200006365776
v -0.0033130000811070204 -0.06615000218153 0.011957000009715557
v -0.00508299982175231 -0.07021799683570862 0.012707999907433987
v 0.005936000030487776 -0.08456999808549881 0.01862199977040291
v 0.003924000076949596 -0.07792700082063675 0.01748800091445446
v 0.010135999880731106 -0.0905660018324852 0.01603800058364868
v 0.011215000413358212 -0.09621399641036987 0.01750900037586689
v 0.009050000458955765 -0.10074400156736374 0.016950000077486038
v 0.007468000054359436 -0.10019700229167938 0.01594500057399273
v 0.008953000418841839 -0.10113900154829025 0.01933000050485134
v 0.003882999997586012 -0.09909500181674957 0.012094000354409218
v 0.005594999995082617 -0.10063999891281128 0.01515199989080429
v -0.0027050001081079245 -0.08947300165891647 0.019468000158667564
v 0.0004349999944679439 -0.0958390012383461 0.012009000405669212
v -0.000291000003926456 -0.09483599662780762 0.018271999433636665
v -0.001221999991685152 -0.09330099821090698 0.018451999872922897
v 0.0007270000060088933 -0.09743800014257431 0.012488000094890594
v 0.0009720000089146197 -0.09844599664211273 0.013398000039160252
v 0.008016999810934067 -0.09023399651050568 0.022637000307440758
v 0.011086000129580498 -0.09438200294971466 0.02219099923968315
v 0.00038899999344721437 -0.06239499896764755 0.01362599991261959
v -0.0016560000367462635 -0.06251899898052216 0.012373000383377075
v -0.007048000115901232 -0.05141200125217438 0.012485000304877758
v -0.00431999983265996 -0.07625199854373932 0.01902100071310997
v -0.008201000280678272 -0.050700001418590546 0.014921000227332115
v -0.006767000071704388 -0.057266999036073685 0.017438000068068504
v 0.006337999831885099 -0.08684899657964706 0.023941999301314354
v 0.0033770001027733088 -0.08008100092411041 0.020748000591993332
v 0.004908000119030476 -0.08399800211191177 0.02230899967253208
v -0.0006270000012591481 -0.06889300048351288 0.01929200068116188
v 0.0008510000188834965 -0.06155800074338913 0.01589599996805191
v -0.0003549999964889139 -0.06534499675035477 0.01844099909067154
v 0.01131999958306551 -0.09768600016832352 0.020340999588370323
v 0.00773600023239851 -0.10158900171518326 0.0178810004144907
v 0.008191999979317188 -0.10075099766254425 0.023073000833392143
v 0.002065999899059534 -0.09965600073337555 0.01740100048482418
v 0.005338999908417463 -0.10196200013160706 0.017938999459147453
v -0.0023300000466406345 -0.08717100322246552 0.022307999432086945
v -0.001567999948747456 -0.09352699667215347 0.02026199921965599
v -0.003191000083461404 -0.09093400090932846 0.02169400081038475
v 0.00037799999699927866 -0.09725400060415268 0.012994999997317791
v -0.00015799999528098851 -0.09489399939775467 0.020222999155521393
v 0.0005590000073425472 -0.09720499813556671 0.020438000559806824
v 0.00033400001120753586 -0.09850099682807922 0.016685999929904938
v 0.0007939999923110008 -0.09891200065612793 0.015572000294923782
v 0.008798999711871147 -0.09060999751091003 0.02675200067460537
v 0.007918000221252441 -0.08781199902296066 0.02629699930548668
v 0.008636999875307083 -0.09144999831914902 0.02527100034058094
v 0.00951400026679039 -0.095319002866745 0.02621299959719181
v -0.0003530000103637576 -0.05034000054001808 0.009465999901294708
v 0.0007600000244565308 -0.04602200165390968 0.008479000069200993
v -0.00747800013050437 -0.04599300026893616 0.01123099960386753
v 0.00003199999991920777 -0.08523499965667725 0.0234179999679327
v -0.0030670000705868006 -0.07243599742650986 0.02033800072968006
v -0.00850799959152937 -0.04110400006175041 0.018425000831484795
v -0.009345999918878078 -0.04068100079894066 0.01732500083744526
v -0.009862000122666359 -0.04024599865078926 0.013492000289261341
v -0.008387000299990177 -0.04221399873495102 0.010658999904990196
v -0.0036849998869001865 -0.06596600264310837 0.019639000296592712
v -0.004104999825358391 -0.050126999616622925 0.019058000296354294
v -0.005016000010073185 -0.04463199898600578 0.01944199949502945
v 0.005944000091403723 -0.08656500279903412 0.02480500005185604
v 0.00686000008136034 -0.08709300309419632 0.025492999702692032
v 0.0012890000361949205 -0.08102100342512131 0.02266399934887886
v 0.003355999942868948 -0.08737199753522873 0.024550000205636024
v 0.0007960000075399876 -0.04983599856495857 0.013802999630570412
v -0.000004999999873689376 -0.05365300178527832 0.016922999173402786
v -0.00006199999916134402 -0.059689000248909 0.017323000356554985
v -0.00266400002874434 -0.05629400163888931 0.018769999966025352
v 0.009006000123918056 -0.09957999736070633 0.023722000420093536
v 0.006157000083476305 -0.1014930009841919 0.021470999345183372
v 0.007872000336647034 -0.09963499754667282 0.024522000923752785
v 0.0033019999973475933 -0.10075200349092484 0.019411999732255936
v 0.0018029999919235706 -0.09828700125217438 0.022247999906539917
v -0.002643000101670623 -0.0910239964723587 0.02387399971485138
v -0.0018090000376105309 -0.08944100141525269 0.024512000381946564
v 0.0003459999861661345 -0.09489399939775467 0.021922999992966652
v 0.0007379999733529985 -0.09288699924945831 0.02349199913442135
v -0.002303000073879957 -0.09231399744749069 0.022822000086307526
v 0.001988000003620982 -0.09577099978923798 0.022763000801205635
v 0.009069999679923058 -0.09201200306415558 0.027062999084591866
v 0.008201999589800835 -0.08983500301837921 0.027782000601291656
v 0.007426000200212002 -0.08795499801635742 0.026819000020623207
v 0.008275999687612057 -0.09528400003910065 0.027434999123215675
v 0.007880999706685543 -0.09670999646186829 0.02676299959421158
v 0.008829000405967236 -0.0923290029168129 0.02751999907195568
v 0.0019509999547153711 -0.045131001621484756 0.011474999599158764
v -0.006074000149965286 -0.041443999856710434 0.008314999751746655
v 0.00133200001437217 -0.04178199917078018 0.006231999956071377
v -0.009283999912440777 -0.038401998579502106 0.019842000678181648
v -0.00559999980032444 -0.04201800003647804 0.020145999267697334
v -0.01104000024497509 -0.03692900016903877 0.015660999342799187
v -0.011130000464618206 -0.03753599897027016 0.013635000213980675
v -0.011074000038206577 -0.03662300109863281 0.010913999751210213
v -0.009251000359654427 -0.03989500179886818 0.009549999609589577
v -0.00786999985575676 -0.04085699841380119 0.008971000090241432
v -0.0013330000219866633 -0.05010800063610077 0.018404999747872353
v -0.002002999885007739 -0.0440870001912117 0.01918400079011917
v 0.005293000023812056 -0.08901900053024292 0.025861000642180443
v 0.00725100003182888 -0.0883840024471283 0.027573000639677048
v -0.0011190000222995877 -0.0915130004286766 0.02447899989783764
v 0.004162999801337719 -0.09189700335264206 0.025185000151395798
v 0.002131999935954809 -0.09143300354480743 0.02435700036585331
v 0.0006060000159777701 -0.0442809984087944 0.017240000888705254
v 0.0031369999051094055 -0.09822700172662735 0.02398099936544895
v 0.0020989999175071716 -0.09411600232124329 0.023459000512957573
v 0.004612000193446875 -0.09284999966621399 0.025404000654816628
v 0.005576000083237886 -0.09523499757051468 0.026820000261068344
v 0.005979999899864197 -0.0906819999217987 0.027171000838279724
v 0.008333000354468822 -0.09250599890947342 0.027888000011444092
v 0.0058929999358952045 -0.09271600097417831 0.027674999088048935
v 0.003898999886587262 -0.03873800113797188 0.013465999625623226
v 0.0034390001092106104 -0.03821700066328049 0.006564000155776739
v 0.004271000158041716 -0.038419000804424286 0.009882999584078789
v -0.0006050000083632767 -0.03855299949645996 0.004912999924272299
v -0.0070779998786747456 -0.040894001722335815 0.008119000121951103
v 0.0033179998863488436 -0.03739599883556366 0.005495999939739704
v -0.006147000007331371 -0.03555800020694733 0.02309500053524971
v -0.008004999719560146 -0.032010000199079514 0.020326999947428703
v -0.008762000128626823 -0.030024999752640724 0.018014000728726387
v -0.01107999961823225 -0.034641001373529434 0.014457999728620052
v -0.01133199967443943 -0.03600599989295006 0.013040999881923199
v -0.010803000070154667 -0.03495499864220619 0.007701999973505735
v -0.010724999941885471 -0.03314200043678284 0.008492999710142612
v -0.010468999855220318 -0.033045001327991486 0.010821999981999397
v -0.004098000004887581 -0.03666200116276741 0.022561000660061836
v -0.001984999980777502 -0.0395440012216568 0.01978899911046028
v 0.0019680000841617584 -0.03957900032401085 0.01685499958693981
v -0.0008060000254772604 -0.039758000522851944 0.018852999433875084
v 0.002369999885559082 -0.03848600015044212 0.01620499975979328
v 0.002492999890819192 -0.03766300156712532 0.015301000326871872
v 0.0041240002028644085 -0.03783600032329559 0.01232299953699112
v 0.0036150000523775816 -0.03700999915599823 0.006419000215828419
v 0.0036410000175237656 -0.03655099868774414 0.007294000126421452
v 0.003628999926149845 -0.03572800010442734 0.00901500042527914
v 0.0036100000143051147 -0.03578300029039383 0.010734000243246555
v 0.0021329999435693026 -0.032930001616477966 0.003358999965712428
v 0.004534999839961529 -0.03412900120019913 0.004674999974668026
v -0.009291999973356724 -0.03394100069999695 0.006087000016123056
v -0.006291999947279692 -0.03286600112915039 0.021900000050663948
v -0.0055149998515844345 -0.034519001841545105 0.02301100082695484
v -0.007751999888569117 -0.030528999865055084 0.019464999437332153
v -0.006417000200599432 -0.031293001025915146 0.020771000534296036
v -0.0085249999538064 -0.02969999983906746 0.01853499934077263
v -0.009242000058293343 -0.03066200017929077 0.01661599986255169
v -0.008334999904036522 -0.029298000037670135 0.017312999814748764
v -0.010087000206112862 -0.032287999987602234 0.012879000045359135
v -0.009898999705910683 -0.033160001039505005 0.006564999930560589
v -0.009116999804973602 -0.03177899867296219 0.007340999785810709
v -0.008837999776005745 -0.03130200132727623 0.011758999899029732
v -0.009123999625444412 -0.031870000064373016 0.010215999558568
v -0.004430000204592943 -0.0331760011613369 0.022241000086069107
v -0.0033360000234097242 -0.03461100161075592 0.02127699926495552
v -0.0011060000397264957 -0.03745099902153015 0.01827399991452694
v 0.0013289999915286899 -0.038314998149871826 0.01727299951016903
v 0.0000940000027185306 -0.03683200106024742 0.018008999526500702
v 0.0017140000127255917 -0.03585600107908249 0.013047000393271446
v 0.000371000001905486 -0.036010999232530594 0.013942999765276909
v 0.00027200000477023423 -0.035881999880075455 0.015855999663472176
v 0.0031220000237226486 -0.03552199900150299 0.01278000045567751
v 0.004220000002533197 -0.03545000031590462 0.005969000048935413
v 0.004029000177979469 -0.03429200127720833 0.010102000087499619
v 0.005067000165581703 -0.0341779999434948 0.005696000065654516
v 0.00445799995213747 -0.034269001334905624 0.008728000335395336
v 0.002099999925121665 -0.034327998757362366 0.012412000447511673
v 0.00253800000064075 -0.03195200115442276 0.004126999992877245
v -0.00686099985614419 -0.03315100073814392 0.005688000004738569
v -0.003959000110626221 -0.03243099898099899 0.0053889998234808445
v 0.004693000111728907 -0.03336599841713905 0.004765000194311142
v -0.0055610002018511295 -0.03229700028896332 0.021841999143362045
v -0.007699999958276749 -0.030326999723911285 0.014316000044345856
v -0.006899000145494938 -0.028839999809861183 0.016318999230861664
v -0.006198999937623739 -0.02886899933218956 0.01666799932718277
v -0.004681000020354986 -0.03090200014412403 0.020461000502109528
v -0.008541000075638294 -0.03181099891662598 0.006558000110089779
v -0.00784400012344122 -0.031640999019145966 0.007149999961256981
v -0.005268000066280365 -0.0315140001475811 0.012555999681353569
v -0.0008740000193938613 -0.032749999314546585 0.01016900036484003
v -0.00507500022649765 -0.031769998371601105 0.008217000402510166
v -0.002311999909579754 -0.03361300006508827 0.02090200036764145
v -0.00034100000630132854 -0.033883001655340195 0.01929599978029728
v 0.00012599999899975955 -0.034008000046014786 0.018477000296115875
v 0.00023799999326001853 -0.03470500186085701 0.01331700012087822
v -0.0002410000015515834 -0.03325999900698662 0.013685000129044056
v 0.004038000013679266 -0.0331679992377758 0.009812000207602978
v 0.0033340000081807375 -0.032767001539468765 0.010634999722242355
v 0.004984000232070684 -0.03355100005865097 0.005260000005364418
v 0.005071000196039677 -0.033656999468803406 0.005801999941468239
v 0.004941000137478113 -0.03328000009059906 0.006756999995559454
v -0.00016900000628083944 -0.03198700025677681 0.014216000214219093
v 0.0013310000067576766 -0.031505998224020004 0.012322000227868557
v -0.005299000069499016 -0.03136700019240379 0.006769000086933374
v 0.004550000187009573 -0.0328110009431839 0.004927999805659056
v -0.007176999934017658 -0.031603001058101654 0.006490999832749367
v -0.002939000027254224 -0.031651999801397324 0.020090999081730843
v -0.0022410000674426556 -0.03052400052547455 0.013213000260293484
v -0.0020699999295175076 -0.030722999945282936 0.012236000038683414
v -0.0022589999716728926 -0.03112499974668026 0.0114120002835989
v -0.005239999853074551 -0.02907799929380417 0.015600999817252159
v -0.004058000165969133 -0.02958199940621853 0.01596199907362461
v 0.0048870001919567585 -0.03303699940443039 0.005419999826699495
v -0.002056000055745244 -0.029861999675631523 0.01394800003618002
v -0.003240999998524785 -0.02919900044798851 0.014937000349164009
f 1 2 3
f 3 4 1
f 1 4 5
f 1 5 6
f 2 1 7
f 8 1 6
f 9 1 8
f 7 1 9
f 10 3 2
f 7 11 2
f 11 12 2
f 13 10 2
f 12 13 2
f 10 14 3
f 14 15 3
f 4 3 15
f 4 16 5
f 16 4 17
f 4 15 17
f 5 16 18
f 5 18 6
f 6 19 8
f 18 19 6
f 7 9 11
f 9 8 20
f 21 20 8
f 8 19 22
f 8 22 21
f 9 20 11
f 23 10 24
f 23 14 10
f 13 24 10
f 11 25 12
f 11 26 25
f 26 11 27
f 20 27 11
f 13 12 28
f 25 29 12
f 28 12 29
f 13 28 24
f 30 14 23
f 14 30 15
f 31 17 15
f 15 30 31
f 32 16 17
f 32 33 16
f 16 33 18
f 17 31 34
f 32 17 34
f 18 35 19
f 36 35 18
f 18 33 36
f 19 35 22
f 27 20 37
f 21 38 20
f 39 20 38
f 40 20 39
f 20 40 37
f 38 21 41
f 22 41 21
f 42 41 22
f 35 42 22
f 30 23 24
f 43 44 24
f 44 30 24
f 43 24 28
f 45 25 46
f 46 25 26
f 25 45 29
f 26 47 46
f 27 47 26
f 27 37 48
f 49 27 50
f 27 48 50
f 27 49 47
f 28 51 43
f 29 52 28
f 53 28 52
f 53 51 28
f 52 29 54
f 55 29 45
f 29 55 56
f 29 56 54
f 44 31 30
f 57 34 31
f 31 44 57
f 32 34 58
f 58 33 32
f 33 58 36
f 59 34 57
f 34 59 58
f 35 60 42
f 35 36 60
f 36 61 60
f 58 61 36
f 48 37 62
f 63 64 37
f 63 37 40
f 37 64 62
f 38 65 39
f 38 41 65
f 66 39 67
f 39 68 67
f 68 39 65
f 40 39 66
f 63 40 66
f 41 42 65
f 65 42 69
f 60 69 42
f 70 43 71
f 72 44 43
f 72 43 70
f 71 43 51
f 57 44 73
f 44 72 73
f 74 55 45
f 46 74 45
f 47 74 46
f 75 47 76
f 75 74 47
f 76 47 49
f 77 78 48
f 78 50 48
f 62 77 48
f 50 79 49
f 79 80 49
f 81 49 80
f 49 81 82
f 76 49 82
f 83 84 50
f 78 83 50
f 84 85 50
f 85 79 50
f 53 86 51
f 87 71 51
f 86 87 51
f 88 53 52
f 54 88 52
f 53 89 86
f 88 89 53
f 88 54 77
f 78 77 54
f 78 54 83
f 54 56 83
f 90 91 55
f 74 90 55
f 56 55 92
f 55 91 92
f 93 83 56
f 93 56 92
f 73 94 57
f 59 57 94
f 59 95 58
f 95 61 58
f 94 96 59
f 95 59 96
f 60 97 98
f 67 68 60
f 67 60 98
f 68 69 60
f 61 97 60
f 95 97 61
f 99 62 64
f 62 99 100
f 62 100 77
f 63 101 102
f 66 101 63
f 63 102 103
f 64 63 103
f 99 64 103
f 65 69 68
f 66 67 101
f 98 104 67
f 104 101 67
f 73 70 105
f 70 106 105
f 72 70 73
f 71 106 70
f 107 106 71
f 71 87 107
f 108 109 73
f 105 110 73
f 108 73 110
f 94 73 109
f 111 90 74
f 75 111 74
f 76 112 75
f 113 75 112
f 75 113 111
f 82 112 76
f 89 77 100
f 88 77 89
f 114 80 79
f 79 115 114
f 79 85 115
f 114 116 80
f 117 81 80
f 117 80 116
f 81 118 119
f 82 81 119
f 117 118 81
f 82 120 112
f 119 120 82
f 84 83 93
f 93 121 84
f 85 84 121
f 85 121 122
f 85 122 115
f 123 86 89
f 87 86 124
f 124 86 123
f 87 124 107
f 100 125 89
f 126 123 89
f 126 89 127
f 127 89 125
f 128 90 111
f 91 90 128
f 92 91 93
f 91 128 121
f 121 93 91
f 109 96 94
f 129 97 95
f 96 129 95
f 109 129 96
f 97 129 98
f 98 129 104
f 125 100 99
f 103 125 99
f 102 101 104
f 102 127 125
f 102 104 130
f 102 130 127
f 102 125 103
f 131 130 104
f 129 132 104
f 131 104 132
f 110 105 106
f 133 106 124
f 124 106 107
f 134 110 106
f 134 106 133
f 135 108 134
f 132 108 135
f 108 132 109
f 108 110 134
f 129 109 132
f 111 136 128
f 111 113 137
f 138 111 137
f 136 111 138
f 139 113 112
f 140 112 120
f 139 112 140
f 113 139 141
f 113 141 137
f 114 142 116
f 114 115 142
f 122 142 115
f 116 143 144
f 145 116 144
f 116 142 143
f 116 145 117
f 145 146 117
f 146 118 117
f 147 119 118
f 148 147 118
f 149 148 118
f 149 118 146
f 119 147 140
f 140 120 119
f 121 128 122
f 150 142 122
f 128 151 122
f 150 122 151
f 133 123 126
f 124 123 133
f 126 127 131
f 126 131 135
f 133 126 135
f 131 127 130
f 136 152 128
f 153 128 152
f 128 153 151
f 131 132 135
f 135 134 133
f 154 136 155
f 156 136 138
f 156 155 136
f 152 136 154
f 157 137 141
f 158 137 157
f 158 159 137
f 138 137 159
f 159 160 138
f 156 138 160
f 161 162 139
f 162 141 139
f 163 161 139
f 139 140 163
f 163 140 147
f 141 162 157
f 142 164 143
f 165 164 142
f 150 165 142
f 143 166 144
f 143 164 167
f 167 166 143
f 166 168 144
f 145 144 169
f 144 168 170
f 169 144 170
f 145 169 171
f 171 146 145
f 149 146 171
f 163 147 172
f 148 172 147
f 173 148 149
f 173 172 148
f 149 174 175
f 149 171 174
f 173 149 175
f 150 176 165
f 151 177 150
f 176 150 177
f 153 178 151
f 177 151 178
f 152 154 179
f 179 153 152
f 179 178 153
f 154 155 180
f 154 180 179
f 156 181 155
f 155 181 182
f 182 183 155
f 155 183 180
f 184 156 160
f 184 181 156
f 157 185 158
f 162 185 157
f 158 186 159
f 158 185 187
f 187 188 158
f 188 186 158
f 160 159 186
f 160 189 184
f 186 189 160
f 161 190 162
f 191 192 161
f 192 190 161
f 161 163 191
f 187 185 162
f 193 187 162
f 193 162 190
f 191 163 172
f 164 176 194
f 164 194 167
f 165 176 164
f 170 166 167
f 168 166 170
f 169 195 171
f 169 196 195
f 170 196 169
f 170 197 196
f 198 197 170
f 174 171 195
f 172 173 199
f 199 191 172
f 200 173 175
f 200 199 173
f 174 201 202
f 203 175 174
f 203 174 202
f 174 195 201
f 175 203 200
f 204 176 177
f 176 204 194
f 177 178 180
f 180 205 177
f 204 177 205
f 178 179 180
f 180 183 206
f 180 206 205
f 181 207 182
f 184 189 181
f 207 181 189
f 208 183 182
f 208 182 207
f 206 183 208
f 186 188 209
f 186 209 210
f 210 189 186
f 211 212 187
f 188 187 212
f 211 187 193
f 213 209 188
f 213 188 212
f 214 189 215
f 189 210 215
f 189 208 207
f 214 208 189
f 192 216 190
f 216 203 190
f 217 193 190
f 190 203 202
f 217 190 202
f 218 192 191
f 191 199 218
f 200 216 192
f 200 192 218
f 217 211 193
f 194 219 198
f 204 219 194
f 220 221 195
f 201 195 222
f 222 195 221
f 195 196 220
f 220 196 223
f 197 223 196
f 197 198 224
f 223 197 224
f 198 219 224
f 218 199 200
f 200 203 216
f 222 202 201
f 225 217 202
f 213 225 202
f 213 202 222
f 204 205 219
f 219 205 206
f 214 206 208
f 206 214 219
f 220 210 209
f 209 213 222
f 209 222 221
f 209 221 220
f 215 210 226
f 226 210 220
f 217 225 211
f 225 212 211
f 225 213 212
f 224 219 214
f 224 214 215
f 215 226 227
f 224 215 227
f 223 226 220
f 227 226 223
f 224 227 223
