# Generated by Visualization Toolkit
v 0.1584250032901764 0.005231000017374754 0.011870999820530415
v 0.1546510010957718 -0.000003000000106112566 0.013154000043869019
v 0.15259000658988953 0.001829999964684248 0.013182000257074833
v 0.15675200521945953 0.00688599981367588 0.012559999711811543
v 0.1549540013074875 0.007189000025391579 0.01216300018131733
v 0.15952399373054504 0.006221000105142593 0.01252800039947033
v 0.15937800705432892 -0.0030060000717639923 0.011467999778687954
v 0.16141599416732788 0.004333999939262867 0.013321000151336193
v 0.15702399611473083 -0.00406099995598197 0.012914000079035759
v 0.1572979986667633 -0.006345000118017197 0.014643999747931957
v 0.1521189957857132 0.0012629999546334147 0.014426000416278839
v 0.1576559990644455 -0.004887999966740608 0.012273999862372875
v 0.1449050009250641 0.005127999931573868 0.013384999707341194
v 0.14491599798202515 0.008628999814391136 0.010622000321745872
v 0.14811000227928162 0.01107999961823225 0.011819999665021896
v 0.15970300137996674 0.0064409999176859856 0.013763999566435814
v 0.1620199978351593 -0.0010349999647587538 0.011783000081777573
v 0.16105200350284576 -0.003938000183552504 0.01170899998396635
v 0.15852099657058716 -0.005109000019729137 0.011973000131547451
v 0.16033700108528137 0.0055680000223219395 0.015519999898970127
v 0.16336099803447723 0.004178999923169613 0.013999000191688538
v 0.15935200452804565 -0.006523999851197004 0.014551999978721142
v 0.15856599807739258 -0.0028019999153912067 0.018021000549197197
v 0.15837900340557098 -0.005280000157654285 0.016448000445961952
v 0.15707899630069733 -0.0002770000137388706 0.017242999747395515
v 0.15966099500656128 -0.005650999955832958 0.01635099947452545
v 0.15498599410057068 0.005841999780386686 0.016735000535845757
v 0.15539099276065826 0.0014280000468716025 0.01768999919295311
v 0.1263660043478012 0.012171999551355839 0.012512000277638435
v 0.1360889971256256 0.009101999923586845 0.01075700018554926
v 0.1350719928741455 0.017261000350117683 0.01260400004684925
v 0.1303980052471161 0.013466999866068363 0.008837999776005745
v 0.13165700435638428 0.017627999186515808 0.008848000317811966
v 0.15347599983215332 0.009390000253915787 0.014495999552309513
v 0.1220339983701706 0.02314000017940998 0.009045000188052654
v 0.15708400309085846 0.007267000153660774 0.016210999339818954
v 0.16151399910449982 -0.005247000139206648 0.012759000062942505
v 0.16447199881076813 -0.00007599999662488699 0.014152999967336655
v 0.16078400611877441 -0.005878999829292297 0.01257800031453371
v 0.159510999917984 0.00419300002977252 0.017162000760436058
v 0.16243399679660797 0.004900000058114529 0.015521000139415264
v 0.16424599289894104 0.0005869999877177179 0.016674000769853592
v 0.1607690006494522 -0.005626999773085117 0.0158270001411438
v 0.16319799423217773 -0.0015269999857991934 0.0176829993724823
v 0.16187499463558197 0.004058000165969133 0.017280999571084976
v 0.16140399873256683 -0.004412999842315912 0.017062999308109283
v 0.1573449969291687 0.005692000035196543 0.01771700009703636
v 0.10968700051307678 0.015189999714493752 0.008376999758183956
v 0.11077500134706497 0.015124999918043613 0.005584000144153833
v 0.10357700288295746 0.02352299913764 0.014940000139176846
v 0.11154700070619583 0.028095999732613564 0.009681000374257565
v 0.11077400296926498 0.021825000643730164 0.004738000221550465
v 0.10502199828624725 0.028421999886631966 0.005456000100821257
v 0.16228599846363068 -0.004157999996095896 0.01632699929177761
v 0.10373599827289581 0.014756999909877777 0.004654000047594309
v 0.1014069989323616 0.016124000772833824 0.005309999920427799
v 0.10046800225973129 0.0216669999063015 0.012267000041902065
v 0.10123299807310104 0.026575999334454536 0.014182999730110168
v 0.10056900233030319 0.025414999574422836 0.014037000015377998
v 0.09991700202226639 0.024421000853180885 0.013411000370979309
v 0.10460299998521805 0.028939999639987946 0.006178999785333872
v 0.10374400019645691 0.029364999383687973 0.007195999845862389
v 0.10243400186300278 0.02855999954044819 0.01252800039947033
v 0.10405399650335312 0.019305000081658363 0.004567999858409166
v 0.10392799973487854 0.020514000207185745 0.004182000178843737
v 0.10425499826669693 0.026559000834822655 0.004251000005751848
v 0.10126200318336487 0.01755700074136257 0.00533400010317564
v 0.10286399722099304 0.027060000225901604 0.004825000185519457
v 0.10350699722766876 0.028836999088525772 0.006066999863833189
f 1 2 3
f 4 1 5
f 4 6 1
f 7 1 8
f 1 3 5
f 1 7 2
f 8 1 6
f 2 9 10
f 2 11 3
f 11 2 10
f 9 2 12
f 12 2 7
f 3 11 13
f 13 14 3
f 5 3 14
f 5 15 4
f 15 16 4
f 4 16 6
f 15 5 14
f 6 16 8
f 8 17 7
f 17 18 7
f 19 12 7
f 18 19 7
f 16 20 8
f 21 8 20
f 21 17 8
f 10 9 22
f 9 12 22
f 23 10 24
f 25 10 23
f 25 11 10
f 24 10 26
f 26 10 22
f 11 27 13
f 11 25 28
f 11 28 27
f 12 19 22
f 29 30 13
f 30 14 13
f 13 27 31
f 31 29 13
f 14 30 32
f 14 33 15
f 14 32 33
f 15 34 16
f 35 31 15
f 31 34 15
f 15 33 35
f 34 36 16
f 16 36 20
f 37 17 38
f 17 21 38
f 18 17 37
f 39 19 18
f 18 37 39
f 22 19 39
f 20 36 40
f 20 40 41
f 21 20 41
f 41 42 21
f 38 21 42
f 39 43 22
f 43 26 22
f 44 45 23
f 40 25 23
f 44 23 46
f 23 45 40
f 23 24 26
f 46 23 26
f 25 40 28
f 43 46 26
f 34 27 36
f 27 34 31
f 47 27 28
f 47 36 27
f 40 47 28
f 48 49 29
f 32 30 29
f 49 32 29
f 29 31 50
f 48 29 50
f 51 50 31
f 51 31 35
f 32 49 52
f 52 33 32
f 33 53 35
f 52 53 33
f 51 35 53
f 36 47 40
f 37 43 39
f 43 37 54
f 54 37 38
f 38 42 54
f 45 41 40
f 42 41 45
f 45 44 42
f 42 44 54
f 46 43 54
f 54 44 46
f 49 48 55
f 48 56 55
f 50 57 48
f 48 57 56
f 55 52 49
f 50 51 58
f 50 59 60
f 59 50 58
f 57 50 60
f 61 51 53
f 51 61 62
f 63 51 62
f 63 58 51
f 52 64 65
f 55 64 52
f 52 66 53
f 65 66 52
f 61 53 66
f 55 67 64
f 67 55 56
f 57 67 56
f 57 68 67
f 68 57 60
f 58 63 59
f 59 68 60
f 63 68 59
f 61 66 69
f 61 69 62
f 62 69 63
f 63 69 68
f 65 64 67
f 66 65 68
f 65 67 68
f 66 68 69
