# Generated by Visualization Toolkit
v 0.1447950005531311 0.00002700000004551839 0.028074000030755997
v 0.14833000302314758 -0.0022279999684542418 0.0267730001360178
v 0.14802299439907074 -0.003700000001117587 0.029025999829173088
v 0.14148500561714172 0.0028929999098181725 0.027130000293254852
v 0.14162899553775787 0.0030590000096708536 0.026440000161528587
v 0.14868399500846863 -0.0025530001148581505 0.03067599982023239
v 0.14683100581169128 0.0001610000035725534 0.02559399977326393
v 0.148389995098114 -0.0023300000466406345 0.025689000263810158
v 0.15126100182533264 0.00030399998649954796 0.03220999985933304
v 0.15096700191497803 -0.004004000220447779 0.028807999566197395
v 0.13592299818992615 0.005566000007092953 0.02499699965119362
v 0.14872699975967407 0.002807999961078167 0.025232000276446342
v 0.14190299808979034 0.010015999898314476 0.023989999666810036
v 0.13323800265789032 0.01027000043541193 0.021825000643730164
v 0.15330299735069275 -0.0005719999899156392 0.03181900084018707
v 0.15252399444580078 0.00019700000120792538 0.025079000741243362
v 0.15263399481773376 -0.0030700000934302807 0.02691200003027916
v 0.1425199955701828 0.007625000085681677 0.028905000537633896
v 0.13792699575424194 0.006428999826312065 0.02696800045669079
v 0.14705699682235718 0.00837399996817112 0.03060699999332428
v 0.15449300408363342 0.0016880000475794077 0.03171800076961517
v 0.15400700271129608 0.004133000038564205 0.031672000885009766
v 0.15464000403881073 -0.000003000000106112566 0.03009600006043911
v 0.13011200726032257 0.007728000171482563 0.023264000192284584
v 0.13543599843978882 0.007234000135213137 0.026498999446630478
v 0.1297609955072403 0.007712999824434519 0.025483999401330948
v 0.1517760008573532 0.007701000198721886 0.026415999978780746
v 0.14955399930477142 0.008791999891400337 0.024808000773191452
v 0.13544000685214996 0.012783999554812908 0.022902999073266983
v 0.1421699970960617 0.011374000459909439 0.025743000209331512
v 0.11320099979639053 0.013667000457644463 0.018327999860048294
v 0.11058899760246277 0.017727000638842583 0.016540000215172768
v 0.15459699928760529 0.0049959998577833176 0.026649000123143196
v 0.15435299277305603 -0.0007029999978840351 0.027442999184131622
v 0.1432500034570694 0.009612999856472015 0.02826800011098385
v 0.13887900114059448 0.009903999976813793 0.027403999119997025
v 0.15317000448703766 0.006351999938488007 0.030858999118208885
v 0.14783300459384918 0.009576000273227692 0.02927899919450283
v 0.1550000011920929 0.0019020000472664833 0.03070399910211563
v 0.154681995511055 0.005537000019103289 0.029210999608039856
v 0.11190199851989746 0.011392000131309032 0.020711999386548996
v 0.11599300056695938 0.011033999733626842 0.023883000016212463
v 0.12512600421905518 0.01706000044941902 0.023731999099254608
v 0.15289700031280518 0.007822999730706215 0.028526000678539276
v 0.15415699779987335 0.0065830000676214695 0.0269399993121624
v 0.1036050021648407 0.02368899993598461 0.018265999853610992
v 0.10278499871492386 0.01279900036752224 0.015216999687254429
v 0.10316800326108932 0.02194499969482422 0.015936000272631645
v 0.1015940010547638 0.018674999475479126 0.014037000015377998
v 0.10996299982070923 0.011194000020623207 0.022863000631332397
v 0.09522300213575363 0.01269300002604723 0.015111000277101994
v 0.10470899939537048 0.012938999570906162 0.024323999881744385
v 0.1007310003042221 0.018743999302387238 0.023872999474406242
v 0.1013529971241951 0.023817000910639763 0.021390000358223915
v 0.09692200273275375 0.02586499974131584 0.01822800002992153
v 0.10080999881029129 0.016993999481201172 0.014491000212728977
v 0.09480900317430496 0.025805000215768814 0.016752000898122787
v 0.09708300232887268 0.022197000682353973 0.014539999887347221
v 0.0947289988398552 0.018702000379562378 0.013900999911129475
v 0.09845899790525436 0.017317000776529312 0.014547999948263168
v 0.08822900056838989 0.018758999183773994 0.0226610004901886
v 0.09315600246191025 0.013968000188469887 0.01598699949681759
v 0.09869299829006195 0.016630999743938446 0.014682999812066555
v 0.09260900318622589 0.018637999892234802 0.023878000676631927
v 0.0933300033211708 0.01788800023496151 0.014529000036418438
v 0.09292799979448318 0.02031799964606762 0.02468300051987171
v 0.0887250006198883 0.02280700020492077 0.023514000698924065
v 0.09467799961566925 0.026041999459266663 0.017246000468730927
v 0.0927169993519783 0.026000000536441803 0.016932999715209007
v 0.09509599953889847 0.019509999081492424 0.01494900044053793
v 0.09301699697971344 0.024768000468611717 0.015584000386297703
v 0.0961809977889061 0.022897999733686447 0.015043999999761581
v 0.09582299739122391 0.022523000836372375 0.015675000846385956
v 0.09630999714136124 0.021707000210881233 0.014917000196874142
v 0.09349799901247025 0.018843999132514 0.014232000336050987
v 0.08765300363302231 0.02082199975848198 0.023905999958515167
f 1 2 3
f 4 5 1
f 6 1 3
f 7 8 1
f 2 1 8
f 7 1 5
f 9 1 6
f 9 4 1
f 2 8 10
f 10 3 2
f 10 6 3
f 5 4 11
f 9 11 4
f 5 12 7
f 13 5 14
f 11 14 5
f 5 13 12
f 6 15 9
f 15 6 10
f 7 12 8
f 16 8 12
f 17 8 16
f 10 8 17
f 9 18 19
f 18 9 20
f 21 9 15
f 22 20 9
f 9 19 11
f 21 22 9
f 10 17 23
f 15 10 23
f 24 14 11
f 19 25 11
f 11 26 24
f 25 26 11
f 27 16 12
f 28 27 12
f 12 13 28
f 29 30 13
f 30 28 13
f 29 13 14
f 14 24 31
f 14 31 32
f 14 32 29
f 23 21 15
f 33 16 27
f 34 16 33
f 16 34 17
f 17 34 23
f 35 18 20
f 18 36 19
f 36 18 35
f 19 36 25
f 22 37 20
f 38 20 37
f 35 20 38
f 21 39 22
f 39 21 23
f 22 39 40
f 22 40 37
f 34 39 23
f 41 24 42
f 42 24 26
f 41 31 24
f 25 36 43
f 25 43 26
f 43 42 26
f 28 38 27
f 38 44 27
f 45 27 44
f 33 27 45
f 28 30 38
f 46 43 29
f 30 29 43
f 29 32 46
f 36 30 43
f 30 36 35
f 30 35 38
f 31 41 47
f 32 31 47
f 48 46 32
f 47 49 32
f 49 48 32
f 33 45 40
f 33 40 39
f 39 34 33
f 44 37 40
f 38 37 44
f 40 45 44
f 50 41 42
f 51 41 50
f 47 41 51
f 50 42 52
f 42 43 52
f 52 43 53
f 43 54 53
f 46 54 43
f 55 46 48
f 55 54 46
f 47 56 49
f 56 47 51
f 57 55 48
f 57 48 58
f 48 49 58
f 59 58 49
f 60 49 56
f 49 60 59
f 51 50 52
f 51 61 62
f 56 51 63
f 51 53 64
f 64 61 51
f 53 51 52
f 65 63 51
f 51 62 65
f 66 53 54
f 66 64 53
f 67 54 55
f 66 54 67
f 68 55 57
f 67 55 69
f 55 68 69
f 60 56 63
f 69 68 57
f 57 70 71
f 57 71 69
f 57 58 72
f 57 72 73
f 57 73 70
f 74 72 58
f 70 58 59
f 58 70 74
f 59 60 65
f 70 59 75
f 59 65 75
f 63 65 60
f 64 76 61
f 62 61 75
f 61 69 75
f 76 69 61
f 75 65 62
f 64 66 76
f 76 66 67
f 67 69 76
f 71 75 69
f 74 70 73
f 70 75 71
f 74 73 72
