# Generated by Visualization Toolkit
v 0.003089000005275011 -0.09559500217437744 0.025801999494433403
v 0.0036730000283569098 -0.08966699987649918 0.024473000317811966
v 0.0009169999975711107 -0.09287499636411667 0.023777000606060028
v 0.0028470000252127647 -0.09710600227117538 0.025800999253988266
v 0.005001000128686428 -0.09277399629354477 0.025033000856637955
v 0.003604999976232648 -0.0970190018415451 0.025855999439954758
v 0.0010740000288933516 -0.08904100209474564 0.02348800003528595
v 0.0003239999932702631 -0.08554600179195404 0.022808000445365906
v 0.0024679999332875013 -0.08699800074100494 0.023559000343084335
v 0.00380899989977479 -0.08752600103616714 0.02411700040102005
v 0.004348999820649624 -0.08820900321006775 0.024311000481247902
v 0.005301999859511852 -0.09034399688243866 0.024514000862836838
v 0.00011800000356743112 -0.09527599811553955 0.02315700054168701
v 0.000011000000085914508 -0.09294400364160538 0.023951999843120575
v 0.002481000032275915 -0.09810200333595276 0.02531999908387661
v 0.003135999897494912 -0.0982770025730133 0.025551000609993935
v 0.004327999893575907 -0.09658999741077423 0.025637999176979065
v 0.005590999964624643 -0.09171599894762039 0.02453400008380413
v 0.003829000052064657 -0.09808599948883057 0.025460999459028244
v -0.002426000079140067 -0.08545999974012375 0.024978000670671463
v -0.0019280000124126673 -0.0872659981250763 0.02546899951994419
v -0.0016070000128820539 -0.09011899679899216 0.024713000282645226
v 0.001449999981559813 -0.0862250030040741 0.021703999489545822
v -0.0031389999203383923 -0.08323699980974197 0.023517999798059464
v -0.0008520000264979899 -0.08119399845600128 0.020579999312758446
v 0.0006590000120922923 -0.08483800292015076 0.020639000460505486
v 0.003727999981492758 -0.08704700320959091 0.023426000028848648
v 0.002271000063046813 -0.08680500090122223 0.02260500006377697
v 0.005123000126332045 -0.08914600312709808 0.023050999268889427
v 0.005373000167310238 -0.08979000151157379 0.023811999708414078
v -0.0003150000120513141 -0.09489499777555466 0.024327000603079796
v -0.001101000001654029 -0.09673900157213211 0.024612000212073326
v -0.0003349999897181988 -0.09873999655246735 0.024341000244021416
v 0.0002460000105202198 -0.09832300245761871 0.02380100078880787
v 0.0020149999763816595 -0.09901099652051926 0.02485099993646145
v 0.003286000108346343 -0.09925000369548798 0.02497199922800064
v 0.005623000208288431 -0.0968329980969429 0.02227500081062317
v 0.005667000077664852 -0.09085399657487869 0.02371400035917759
v -0.0029639999847859144 -0.08687099814414978 0.02500000037252903
v -0.0037869999650865793 -0.08469899743795395 0.023579999804496765
v -0.00190100003965199 -0.0954819992184639 0.024365000426769257
v -0.0028589998837560415 -0.0905120000243187 0.024017000570893288
v 0.002094999887049198 -0.08697500079870224 0.021581999957561493
v -0.004222000017762184 -0.0788239985704422 0.02230199985206127
v -0.0026569999754428864 -0.07263600081205368 0.019892999902367592
v -0.002722000004723668 -0.06997200101613998 0.017911000177264214
v -0.0005469999741762877 -0.08108200132846832 0.018880000337958336
v 0.001943000010214746 -0.09164399653673172 0.01776999980211258
v 0.005967000033706427 -0.092119000852108 0.022221000865101814
v -0.0019199999514967203 -0.09860000014305115 0.02279300056397915
v 0.00041099998634308577 -0.09934700280427933 0.024495000019669533
v 0.0012639999622479081 -0.09939199686050415 0.02473899908363819
v 0.002096999902278185 -0.09972900152206421 0.024210000410676003
v 0.0032259998843073845 -0.09988299757242203 0.02384999953210354
v 0.002741999924182892 -0.09995999932289124 0.024173999205231667
v 0.005442999769002199 -0.09707599878311157 0.021313000470399857
v 0.004763999953866005 -0.09822099655866623 0.021062999963760376
v -0.004288999829441309 -0.08886999636888504 0.023016000166535378
v -0.005067999940365553 -0.08358900249004364 0.022453999146819115
v -0.0036609999369829893 -0.09594400227069855 0.02284199930727482
v -0.004244000185281038 -0.060965001583099365 0.017247000709176064
v -0.005743000190705061 -0.06074099987745285 0.01787400059401989
v -0.007170999888330698 -0.06095099821686745 0.01803000085055828
v -0.008422999642789364 -0.06777500361204147 0.018642999231815338
v -0.0011690000537782907 -0.08393500000238419 0.01597999967634678
v -0.00356299988925457 -0.08295100182294846 0.014504999853670597
v -0.0040799998678267 -0.06104300171136856 0.016429999843239784
v -0.004097000230103731 -0.060756001621484756 0.015526000410318375
v -0.005456999875605106 -0.06832599639892578 0.014538999646902084
v 0.0025049999821931124 -0.09595099836587906 0.01694200001657009
v 0.0016509999986737967 -0.09212499856948853 0.014945999719202518
v 0.004645000211894512 -0.09654200077056885 0.01955999992787838
v 0.0010089999996125698 -0.08880200237035751 0.014708000235259533
v -0.00011100000119768083 -0.0871570035815239 0.015716999769210815
v -0.00040600000647827983 -0.10042200237512589 0.021908000111579895
v 0.001972000114619732 -0.10043500363826752 0.02323799952864647
v -0.0024850000627338886 -0.09967000037431717 0.01983099989593029
v -0.004085000138729811 -0.09694299846887589 0.02127999998629093
v 0.0030900000128895044 -0.1002340018749237 0.02269499935209751
v 0.004430999979376793 -0.09800100326538086 0.0200009997934103
v 0.00279300007969141 -0.09995999932289124 0.021084999665617943
v 0.002819000044837594 -0.09984900057315826 0.020135000348091125
v -0.0064559997990727425 -0.0898279994726181 0.017636999487876892
v -0.005475000012665987 -0.09334199875593185 0.01729400083422661
v -0.007792000193148851 -0.0816510021686554 0.015769999474287033
v -0.005288999993354082 -0.0578170008957386 0.017813999205827713
v -0.004614999983459711 -0.05785899981856346 0.0175199992954731
v -0.006140999961644411 -0.05432000011205673 0.016884999349713326
v -0.0055599999614059925 -0.054614998400211334 0.017266999930143356
v -0.00798300001770258 -0.04969000071287155 0.016665000468492508
v -0.009960000403225422 -0.049782998859882355 0.01577799953520298
v -0.00991700030863285 -0.06200199946761131 0.01533500012010336
v -0.008391999639570713 -0.07523199915885925 0.015096999704837799
v -0.010835000313818455 -0.053025998175144196 0.01413699984550476
v -0.004255999810993671 -0.087848000228405 0.013646000064909458
v -0.000506000011228025 -0.08709099888801575 0.014986000023782253
v -0.005379000212997198 -0.08496599644422531 0.013778000138700008
v -0.004182999953627586 -0.046248000115156174 0.012477999553084373
v -0.004178000148385763 -0.04907099902629852 0.014375999569892883
v -0.0049959998577833176 -0.054572999477386475 0.01730399951338768
v -0.004997000098228455 -0.05036500096321106 0.0124080004170537
v -0.007108999881893396 -0.059137001633644104 0.012621000409126282
v -0.007156000006943941 -0.07504100352525711 0.014170000329613686
v 0.001769999973475933 -0.09345299750566483 0.015232999809086323
v 0.001319000031799078 -0.09619800001382828 0.015568000264465809
v 0.0006210000137798488 -0.09857200086116791 0.01674499921500683
v 0.0011940000113099813 -0.09114299714565277 0.01435600034892559
v 0.000387999985832721 -0.08965600281953812 0.013873999938368797
v 0.0017719999887049198 -0.10040400177240372 0.021275000646710396
v -0.0028719999827444553 -0.09953799843788147 0.01883699931204319
v -0.0023300000466406345 -0.09975499659776688 0.018657999113202095
v 0.001706999959424138 -0.10025399923324585 0.01940299943089485
v -0.004964999854564667 -0.09609899669885635 0.01657399907708168
v -0.004515999928116798 -0.09685099869966507 0.016459999606013298
v -0.00659500015899539 -0.092739999294281 0.015727000311017036
v -0.00737199978902936 -0.08806400001049042 0.0159939993172884
v -0.007304000202566385 -0.09113100171089172 0.015526999719440937
v -0.0055069997906684875 -0.09389100223779678 0.016099000349640846
v -0.007474999874830246 -0.08703599870204926 0.014786999672651291
v -0.007348000071942806 -0.08430299907922745 0.014380999840795994
v -0.006442000158131123 -0.04843199998140335 0.0166229996830225
v -0.004776999820023775 -0.04844700172543526 0.01701599918305874
v -0.007288000080734491 -0.04357900097966194 0.01702200062572956
v -0.00901000015437603 -0.044029999524354935 0.017097000032663345
v -0.00999400019645691 -0.04422900080680847 0.016635999083518982
v -0.00930199958384037 -0.06873200088739395 0.014165000058710575
v -0.00785600021481514 -0.07516799867153168 0.014534999616444111
v -0.010347999632358551 -0.05328100174665451 0.012223999947309494
v -0.011256000027060509 -0.048225000500679016 0.011265000328421593
v -0.012136000208556652 -0.042830999940633774 0.011118999682366848
v -0.012257999740540981 -0.03902300074696541 0.013255000114440918
v -0.0057390001602470875 -0.08856700360774994 0.013225000351667404
v -0.001133000012487173 -0.08965799957513809 0.014437999576330185
v -0.0020290000829845667 -0.09215900301933289 0.014936000108718872
v -0.003777999896556139 -0.09053199738264084 0.014353999868035316
v -0.007309999782592058 -0.08636199682950974 0.013891000300645828
v -0.007063999772071838 -0.08677499741315842 0.01355000026524067
v -0.003183000022545457 -0.0440169982612133 0.01498899981379509
v -0.004854999948292971 -0.042479000985622406 0.009709999896585941
v -0.003911999985575676 -0.04408000037074089 0.016839999705553055
v -0.00620400020852685 -0.05038600042462349 0.01116899959743023
v -0.008326999843120575 -0.05333000048995018 0.011265000328421593
v -0.00076299998909235 -0.09368400275707245 0.014001999981701374
v -0.0009590000263415277 -0.0958390012383461 0.01484999991953373
v -0.00171999994199723 -0.09899000078439713 0.016923999413847923
v -0.0029060000088065863 -0.09814699739217758 0.01623300090432167
v -0.0006500000017695129 -0.09163200110197067 0.014066999778151512
v -0.004472999833524227 -0.0954120010137558 0.015943000093102455
v -0.005160000175237656 -0.09409700334072113 0.015479999594390392
v -0.0031109999399632215 -0.09543199837207794 0.016137000173330307
v -0.005975000094622374 -0.09292499721050262 0.015189999714493752
v -0.006922000087797642 -0.09209199994802475 0.015209999866783619
v -0.00784900039434433 -0.08967000246047974 0.015146000310778618
v -0.007563999854028225 -0.09069199860095978 0.015080000273883343
v -0.007418000139296055 -0.03936399891972542 0.017727000638842583
v -0.0055240001529455185 -0.03761500120162964 0.016966000199317932
v -0.008559999987483025 -0.03930800035595894 0.018442999571561813
v -0.0034910000395029783 -0.03951499983668327 0.016930999234318733
v -0.009390000253915787 -0.04187300056219101 0.01767599955201149
v -0.010781999677419662 -0.04868999868631363 0.010262000374495983
v -0.009789999574422836 -0.04849899932742119 0.00981799978762865
v -0.011025000363588333 -0.047885000705718994 0.009604999795556068
v -0.012493000365793705 -0.03983499854803085 0.011411000043153763
v -0.012538000009953976 -0.03920900076627731 0.011912000365555286
v -0.011637999676167965 -0.041218001395463943 0.010009000077843666
v -0.01126100029796362 -0.04575999826192856 0.00930199958384037
v -0.011599999852478504 -0.03857199847698212 0.0149959996342659
v -0.011986999772489071 -0.03821000084280968 0.014077999629080296
v -0.012574000284075737 -0.037859998643398285 0.013357999734580517
v -0.007511000148952007 -0.09010999649763107 0.014190999791026115
v -0.005119000095874071 -0.09161999821662903 0.014116000384092331
v -0.001661999966017902 -0.0931520015001297 0.015103000216186047
v -0.0011449999874457717 -0.09307499974966049 0.014519000425934792
v -0.004364000167697668 -0.09234700351953506 0.014897000044584274
v -0.007480999920517206 -0.087459996342659 0.013860000297427177
v -0.002816000021994114 -0.039778001606464386 0.015798000618815422
v -0.0018449999624863267 -0.03846700116991997 0.014550000429153442
v -0.002604000037536025 -0.03963499888777733 0.010851999744772911
v -0.004474000073969364 -0.04030999913811684 0.009116999804973602
v -0.006910999771207571 -0.044913001358509064 0.00918199960142374
v -0.005073000211268663 -0.040477998554706573 0.009026999585330486
v -0.006312999874353409 -0.0920720025897026 0.0147299999371171
v -0.007402000017464161 -0.09070699661970139 0.01457899995148182
v -0.007282999809831381 -0.036970000714063644 0.018623000010848045
v -0.009259999729692936 -0.03869999945163727 0.01867399923503399
v -0.004335000179708004 -0.03482399880886078 0.01744000054895878
v -0.010009000077843666 -0.0388140007853508 0.017785999923944473
v -0.0019160000374540687 -0.035006001591682434 0.016947999596595764
v -0.01165200024843216 -0.03681499883532524 0.01633399911224842
v -0.01017600018531084 -0.04766299948096275 0.00902399979531765
v -0.012624000199139118 -0.038763001561164856 0.010963000357151031
v -0.013251000083982944 -0.03612300008535385 0.012803000397980213
v -0.013616000302135944 -0.03324199840426445 0.01169699989259243
v -0.012285999953746796 -0.03940799832344055 0.010405000299215317
v -0.011882999911904335 -0.039709001779556274 0.009829999879002571
v -0.010490000247955322 -0.04398399963974953 0.00889500044286251
v -0.01082099974155426 -0.040651001036167145 0.009573999792337418
v -0.011807999573647976 -0.03750799968838692 0.014845999889075756
v -0.012457000091671944 -0.037362001836299896 0.014227000065147877
v -0.001996000064536929 -0.037122998386621475 0.015776999294757843
v -0.0015640000347048044 -0.03715299814939499 0.014201999641954899
v -0.003722999943420291 -0.03790599852800369 0.009019999764859676
v -0.003648000070825219 -0.03896800056099892 0.009410999715328217
v -0.002268000040203333 -0.03726999834179878 0.011014999821782112
v -0.005078999791294336 -0.03915100172162056 0.008690999820828438
v -0.0044929999858140945 -0.03903999924659729 0.00875800009816885
v -0.007348000071942806 -0.0425029993057251 0.009180000051856041
v -0.006593000143766403 -0.040532998740673065 0.009668000042438507
v -0.009708000347018242 -0.0378590002655983 0.018804000690579414
v -0.008484999649226665 -0.036694999784231186 0.01901799999177456
v -0.007102999836206436 -0.03554999828338623 0.01871499978005886
v -0.010528000071644783 -0.03791999816894531 0.017727000638842583
v -0.002891999902203679 -0.03027000091969967 0.01666400022804737
v -0.006804999895393848 -0.03138599917292595 0.017935000360012054
v -0.0021359999664127827 -0.03111799992620945 0.016475999727845192
v -0.006984000094234943 -0.032575998455286026 0.01838799938559532
v -0.001766999950632453 -0.03486299887299538 0.016303999349474907
v -0.0010979999788105488 -0.031683001667261124 0.01637299917638302
v -0.012648999691009521 -0.036086998879909515 0.014224999584257603
v -0.012400999665260315 -0.035036999732255936 0.01508999988436699
v -0.011882999911904335 -0.03556400164961815 0.0165180005133152
v -0.013062999583780766 -0.03779599815607071 0.009833999909460545
v -0.013602999970316887 -0.03456300124526024 0.01057399995625019
v -0.013160999864339828 -0.03136499971151352 0.013407000340521336
v -0.013627000153064728 -0.03265399858355522 0.010737000033259392
v -0.013244000263512135 -0.03011300042271614 0.011843999847769737
v -0.012165999971330166 -0.03867200016975403 0.009499999694526196
v -0.011068999767303467 -0.039416998624801636 0.009712000377476215
v -0.008387000299990177 -0.040532998740673065 0.010023999959230423
v -0.0018520000157877803 -0.03463200107216835 0.015576999634504318
v -0.0020000000949949026 -0.03451700136065483 0.014810999855399132
v -0.004399000201374292 -0.03808800131082535 0.008721999824047089
v -0.004137999843806028 -0.036726001650094986 0.008682000450789928
v -0.004720000084489584 -0.03668000176548958 0.008697999641299248
v -0.004658999852836132 -0.03723499923944473 0.008566999807953835
v -0.002389000030234456 -0.034651000052690506 0.011500000022351742
v -0.0029060000088065863 -0.0341619998216629 0.010366000235080719
v -0.003220000071451068 -0.03450600057840347 0.009227000176906586
v -0.004395000170916319 -0.03616100177168846 0.008787999860942364
v -0.005969000048935413 -0.03740999847650528 0.008736000396311283
v -0.007073000073432922 -0.036559998989105225 0.008799999952316284
v -0.007038000039756298 -0.04081699997186661 0.009717999957501888
v -0.009991000406444073 -0.03315100073814392 0.01957700029015541
v -0.008255000226199627 -0.03278699889779091 0.02009899914264679
v -0.008325999602675438 -0.03490399941802025 0.01963300071656704
v -0.011966999620199203 -0.03248399868607521 0.016675999388098717
v -0.007079999893903732 -0.0305160004645586 0.017549000680446625
v -0.002687999978661537 -0.029536999762058258 0.015876999124884605
v -0.008527999743819237 -0.031176000833511353 0.019895000383257866
v -0.008737999945878983 -0.03009900078177452 0.019255999475717545
v -0.0013539999490603805 -0.033250000327825546 0.01608400046825409
v -0.0010270000202581286 -0.030990000814199448 0.01604500040411949
v -0.0007570000016130507 -0.03197399899363518 0.0158270001411438
v -0.012145999819040298 -0.033656999468803406 0.015065000392496586
v -0.012605000287294388 -0.03173200041055679 0.014026000164449215
v -0.012272000312805176 -0.03233399987220764 0.015038999728858471
v -0.012387000024318695 -0.03674900159239769 0.009391999803483486
v -0.012949000112712383 -0.03266200050711632 0.010135999880731106
v -0.013133999891579151 -0.03027999959886074 0.012896000407636166
v -0.012811999768018723 -0.030774999409914017 0.013488000258803368
v -0.013233000412583351 -0.029579000547528267 0.010242000222206116
v -0.012802000157535076 -0.029606999829411507 0.011831999756395817
v -0.013199999928474426 -0.029117999598383904 0.010913999751210213
v -0.011486000381410122 -0.03834100067615509 0.009614000096917152
v -0.011939000338315964 -0.037415001541376114 0.009285000152885914
v -0.010515999980270863 -0.03794199973344803 0.010622999630868435
v -0.007670000195503235 -0.03955899924039841 0.009850000031292439
v -0.009333999827504158 -0.03865800052881241 0.01068899966776371
v -0.004991000052541494 -0.03564700111746788 0.009008999913930893
v -0.005535999778658152 -0.035721998661756516 0.00889699999243021
v -0.00534699996933341 -0.036570001393556595 0.008546000346541405
v -0.0023980000987648964 -0.03208199888467789 0.010451000183820724
v -0.0010010000551119447 -0.03137800097465515 0.014813000336289406
v -0.0031449999660253525 -0.03372599929571152 0.009039999917149544
v -0.002570000011473894 -0.03215400129556656 0.008976999670267105
v -0.004401000216603279 -0.03318699821829796 0.008999000303447247
v -0.004918999969959259 -0.034814998507499695 0.009019000455737114
v -0.00634999992325902 -0.035530999302864075 0.00900499988347292
v -0.007546999957412481 -0.03580600023269653 0.009487999603152275
v -0.008716000244021416 -0.036347001791000366 0.01032899972051382
v -0.010456999763846397 -0.031596001237630844 0.019060999155044556
v -0.011481000110507011 -0.03139200061559677 0.01540399994701147
v -0.011416999623179436 -0.030376000329852104 0.017239000648260117
v -0.011099000461399555 -0.030412999913096428 0.01609800010919571
v -0.009209999814629555 -0.029631000012159348 0.018377000465989113
v -0.010273000225424767 -0.030038999393582344 0.015830999240279198
v -0.0011790000135079026 -0.03051299974322319 0.015737000852823257
v -0.008320000022649765 -0.030650999397039413 0.014720000326633453
v -0.005776999983936548 -0.031238000839948654 0.013120999559760094
v -0.011981000192463398 -0.03126100078225136 0.014197999611496925
v -0.01205000001937151 -0.032951999455690384 0.010506999678909779
v -0.012516000308096409 -0.030115999281406403 0.00991399958729744
v -0.01207400020211935 -0.029726000502705574 0.012396999634802341
v -0.0127379996702075 -0.029962999746203423 0.01317800022661686
v -0.012250999920070171 -0.030710000544786453 0.013705000281333923
v -0.012613000348210335 -0.02880599908530712 0.010102000087499619
v -0.012409999966621399 -0.02917500026524067 0.011043000034987926
v -0.012242999859154224 -0.029030000790953636 0.011675000190734863
v -0.010982000268995762 -0.036997999995946884 0.010363000445067883
v -0.01013999991118908 -0.036671001464128494 0.010683000087738037
v -0.005489999894052744 -0.03513599932193756 0.009088000282645226
v -0.005574999842792749 -0.03471500054001808 0.009499999694526196
v -0.005638000089675188 -0.033980000764131546 0.009736999869346619
v -0.005537000019103289 -0.03403399884700775 0.009119000285863876
v -0.006765999831259251 -0.02981399931013584 0.009906000457704067
v -0.002624999964609742 -0.03136900067329407 0.0095229996368289
v -0.005673000123351812 -0.031550001353025436 0.012569000013172626
v -0.006697000004351139 -0.030316000804305077 0.011900000274181366
v -0.004077000077813864 -0.032728999853134155 0.008724999614059925
v -0.0038479999639093876 -0.03094400092959404 0.008973999880254269
v -0.005475999787449837 -0.03290700167417526 0.009709999896585941
v -0.005357999820262194 -0.032464999705553055 0.009340999647974968
v -0.006907999981194735 -0.03466799855232239 0.009170000441372395
v -0.00800899975001812 -0.034749001264572144 0.010308999568223953
v -0.011429999954998493 -0.030778000131249428 0.014589999802410603
v -0.011095999740064144 -0.0302559994161129 0.014379999600350857
v -0.010332999750971794 -0.030590999871492386 0.014178999699652195
v -0.010367999784648418 -0.030239999294281006 0.013485999777913094
v -0.00965300016105175 -0.03032599948346615 0.012431000359356403
v -0.0087890001013875 -0.03090599924325943 0.012116000056266785
v -0.009371999651193619 -0.03232099860906601 0.010634999722242355
v -0.010758999735116959 -0.031734999269247055 0.010528000071644783
v -0.011733000166714191 -0.03094400092959404 0.009998999536037445
v -0.012117999605834484 -0.029099000617861748 0.009676000103354454
v -0.011440999805927277 -0.02957800030708313 0.012864000163972378
v -0.01070099975913763 -0.028961999341845512 0.011478000320494175
v -0.011500000022351742 -0.029985999688506126 0.013570999726653099
v -0.01206700038164854 -0.028859000653028488 0.010281000286340714
v -0.010489000007510185 -0.028666000813245773 0.010811000131070614
v -0.008713999763131142 -0.03378500044345856 0.010641000233590603
v -0.005549000110477209 -0.033201999962329865 0.009066999889910221
v -0.007007999811321497 -0.03254399821162224 0.009611999616026878
v -0.008932000026106834 -0.029399000108242035 0.009987999685108662
v -0.007594000082463026 -0.029441000893712044 0.009642000310122967
v -0.009176000021398067 -0.0300890002399683 0.01140500046312809
v -0.005508999805897474 -0.03188500180840492 0.009089999832212925
v -0.0076350001618266106 -0.031032999977469444 0.009557999670505524
v -0.010348999872803688 -0.031039999797940254 0.010220999829471111
v -0.010959000326693058 -0.02931799925863743 0.00939400028437376
v -0.010014000348746777 -0.029200000688433647 0.009318999946117401
v -0.008585000410676003 -0.03125400096178055 0.009587000124156475
v -0.011339999735355377 -0.030385000631213188 0.009777000173926353
v -0.011603999882936478 -0.029145000502467155 0.00945299956947565
v -0.010838000103831291 -0.02833399921655655 0.009341999888420105
v -0.010235999710857868 -0.02843499928712845 0.009685000404715538
v -0.008112000301480293 -0.02996799908578396 0.009734000079333782
v -0.00925000011920929 -0.029962999746203423 0.009359000250697136
f 1 2 3
f 3 4 1
f 1 5 2
f 6 1 4
f 6 5 1
f 3 2 7
f 8 2 9
f 10 2 11
f 2 8 7
f 2 10 9
f 11 2 12
f 12 2 5
f 13 4 3
f 14 13 3
f 14 3 7
f 4 15 16
f 6 4 16
f 13 15 4
f 17 5 6
f 18 12 5
f 17 18 5
f 17 6 19
f 19 6 16
f 7 20 21
f 14 7 22
f 21 22 7
f 20 7 8
f 9 23 8
f 24 20 8
f 8 25 24
f 23 26 8
f 8 26 25
f 9 10 27
f 9 28 23
f 28 9 27
f 11 27 10
f 27 11 29
f 11 12 30
f 29 11 30
f 18 30 12
f 31 32 13
f 32 33 13
f 13 14 31
f 13 33 34
f 13 35 15
f 34 35 13
f 22 31 14
f 16 15 36
f 15 35 36
f 19 16 36
f 18 17 37
f 37 17 19
f 30 18 38
f 37 38 18
f 36 37 19
f 20 39 21
f 24 40 20
f 20 40 39
f 39 22 21
f 41 31 22
f 22 39 42
f 22 42 41
f 43 26 23
f 28 43 23
f 25 44 24
f 44 40 24
f 45 44 25
f 25 46 45
f 25 47 46
f 26 47 25
f 48 47 26
f 43 48 26
f 43 28 27
f 29 43 27
f 29 38 49
f 29 30 38
f 48 43 29
f 48 29 49
f 41 32 31
f 41 50 32
f 50 33 32
f 50 51 33
f 33 51 34
f 51 52 34
f 34 52 35
f 36 35 53
f 52 53 35
f 37 36 54
f 54 36 55
f 55 36 53
f 38 37 49
f 37 56 49
f 37 57 56
f 57 37 54
f 40 58 39
f 42 39 58
f 59 40 44
f 40 59 58
f 60 41 58
f 42 58 41
f 41 60 50
f 45 61 44
f 61 62 44
f 63 44 62
f 63 64 44
f 44 64 59
f 46 61 45
f 65 66 46
f 67 46 68
f 46 67 61
f 46 47 65
f 69 68 46
f 69 46 66
f 48 65 47
f 48 70 71
f 70 48 72
f 71 73 48
f 48 73 74
f 72 48 49
f 48 74 65
f 72 49 56
f 75 76 50
f 50 77 75
f 60 78 50
f 78 77 50
f 50 76 51
f 51 76 52
f 52 76 53
f 55 53 76
f 79 54 76
f 57 54 79
f 76 54 55
f 56 80 72
f 80 56 57
f 57 81 82
f 80 57 82
f 81 57 79
f 58 83 84
f 78 60 58
f 59 85 58
f 58 84 78
f 85 83 58
f 85 59 64
f 61 86 62
f 61 87 86
f 87 61 67
f 63 62 88
f 62 89 88
f 62 86 89
f 63 88 90
f 91 63 90
f 63 91 64
f 64 92 93
f 94 64 91
f 64 94 92
f 93 85 64
f 66 65 95
f 96 95 65
f 74 96 65
f 97 69 66
f 66 95 97
f 67 68 98
f 98 99 67
f 67 99 100
f 100 87 67
f 101 98 68
f 102 101 68
f 69 102 68
f 103 102 69
f 97 103 69
f 70 104 71
f 70 72 80
f 105 104 70
f 106 70 80
f 70 106 105
f 107 71 104
f 71 107 73
f 74 73 96
f 73 107 108
f 108 96 73
f 76 75 109
f 110 75 77
f 75 111 112
f 75 110 111
f 112 109 75
f 76 109 79
f 110 77 78
f 113 114 78
f 78 114 110
f 84 113 78
f 81 79 109
f 82 106 80
f 81 109 112
f 82 81 112
f 112 106 82
f 84 83 115
f 116 83 85
f 83 117 115
f 83 116 117
f 113 84 118
f 118 84 115
f 116 85 119
f 85 93 120
f 119 85 120
f 86 100 89
f 87 100 86
f 90 88 121
f 122 121 88
f 89 122 88
f 100 122 89
f 121 123 90
f 123 124 90
f 125 91 90
f 124 125 90
f 94 91 125
f 126 93 92
f 126 92 94
f 93 126 127
f 127 120 93
f 128 94 129
f 126 94 128
f 129 94 130
f 130 94 131
f 131 94 125
f 95 132 97
f 95 133 134
f 135 95 134
f 132 95 135
f 95 96 133
f 133 96 108
f 120 97 136
f 97 120 103
f 137 97 132
f 97 137 136
f 98 138 99
f 98 139 138
f 139 98 101
f 100 99 122
f 140 99 138
f 140 122 99
f 101 102 141
f 101 141 139
f 142 141 102
f 102 103 142
f 103 120 127
f 127 126 103
f 126 142 103
f 104 143 107
f 105 143 104
f 143 105 144
f 106 144 105
f 145 106 112
f 146 144 106
f 145 146 106
f 108 107 147
f 147 107 143
f 147 133 108
f 114 111 110
f 112 111 145
f 146 145 111
f 114 146 111
f 113 148 114
f 113 149 148
f 149 113 118
f 146 114 150
f 148 150 114
f 151 118 115
f 152 151 115
f 152 115 117
f 116 153 117
f 119 153 116
f 154 117 153
f 154 152 117
f 151 149 118
f 136 153 119
f 119 120 136
f 122 140 121
f 140 123 121
f 155 123 156
f 155 157 123
f 158 156 123
f 140 158 123
f 157 124 123
f 159 125 124
f 157 159 124
f 159 131 125
f 142 126 128
f 129 160 128
f 128 161 142
f 161 128 160
f 162 129 130
f 129 162 160
f 163 130 164
f 165 130 163
f 130 165 166
f 162 130 166
f 164 130 131
f 131 167 168
f 169 164 131
f 168 169 131
f 167 131 159
f 170 132 171
f 135 171 132
f 132 170 137
f 134 133 147
f 172 135 134
f 173 172 134
f 173 134 147
f 174 171 135
f 135 172 174
f 153 136 175
f 175 136 137
f 170 175 137
f 138 176 140
f 177 138 178
f 138 179 178
f 138 139 179
f 176 138 177
f 139 141 180
f 179 139 181
f 180 181 139
f 140 176 158
f 161 180 141
f 141 142 161
f 143 144 173
f 147 143 173
f 144 146 150
f 144 150 172
f 173 144 172
f 148 174 150
f 148 149 174
f 174 149 151
f 150 174 172
f 182 174 151
f 152 182 151
f 183 182 152
f 183 152 154
f 153 175 170
f 183 153 170
f 183 154 153
f 156 184 155
f 155 185 157
f 155 184 185
f 186 184 156
f 156 158 186
f 157 187 159
f 187 157 185
f 186 158 188
f 188 158 176
f 189 167 159
f 159 187 189
f 190 160 162
f 190 161 160
f 180 161 190
f 166 190 162
f 163 164 191
f 191 165 163
f 164 192 193
f 191 164 193
f 164 169 192
f 165 194 195
f 165 196 166
f 195 197 165
f 191 194 165
f 196 165 197
f 166 196 190
f 168 167 198
f 167 189 198
f 199 169 168
f 168 198 199
f 169 199 192
f 183 170 171
f 182 171 174
f 182 183 171
f 200 176 177
f 200 188 176
f 201 177 178
f 200 177 201
f 202 178 203
f 201 178 204
f 178 202 204
f 203 178 179
f 181 205 179
f 206 203 179
f 179 205 206
f 181 180 207
f 207 180 190
f 181 207 208
f 181 208 205
f 184 209 185
f 209 184 210
f 211 184 186
f 211 210 184
f 212 185 209
f 212 187 185
f 213 214 186
f 186 215 213
f 186 188 215
f 216 211 186
f 186 214 216
f 189 187 212
f 188 200 217
f 188 218 215
f 217 218 188
f 189 219 198
f 220 189 221
f 220 219 189
f 212 221 189
f 190 196 207
f 222 194 191
f 222 191 223
f 191 193 223
f 192 224 193
f 219 192 199
f 219 224 192
f 193 225 223
f 224 226 193
f 193 226 225
f 195 194 227
f 194 222 227
f 227 228 195
f 195 228 197
f 207 196 197
f 228 229 197
f 207 197 229
f 198 219 199
f 217 200 230
f 200 231 230
f 231 200 201
f 204 231 201
f 232 202 203
f 202 233 204
f 234 233 202
f 234 202 235
f 232 235 202
f 206 232 203
f 236 231 204
f 204 237 236
f 204 238 237
f 238 204 239
f 233 239 204
f 205 240 206
f 205 241 240
f 208 241 205
f 240 232 206
f 208 207 242
f 207 229 242
f 208 242 241
f 212 209 243
f 243 209 244
f 244 209 245
f 245 209 210
f 211 245 210
f 245 211 216
f 221 212 246
f 246 212 243
f 213 247 214
f 213 248 247
f 215 248 213
f 214 249 216
f 249 214 250
f 214 247 250
f 218 248 215
f 244 216 249
f 245 216 244
f 230 251 217
f 217 251 218
f 248 218 252
f 218 230 253
f 218 251 230
f 218 253 252
f 224 219 220
f 221 254 220
f 255 224 220
f 254 255 220
f 256 221 246
f 256 254 221
f 257 222 223
f 257 227 222
f 225 258 223
f 223 258 257
f 224 259 226
f 224 255 260
f 259 224 260
f 258 225 261
f 225 226 262
f 263 225 262
f 263 261 225
f 262 226 259
f 228 227 264
f 265 264 227
f 257 265 227
f 229 228 266
f 266 228 264
f 242 229 267
f 267 229 268
f 268 229 266
f 253 230 231
f 253 231 236
f 232 240 235
f 269 239 233
f 234 269 233
f 270 269 234
f 270 234 235
f 270 235 271
f 240 271 235
f 236 237 272
f 273 253 236
f 273 236 272
f 238 274 237
f 237 274 275
f 272 237 275
f 239 274 238
f 274 239 276
f 269 277 239
f 276 239 277
f 241 278 240
f 240 270 271
f 240 278 270
f 241 279 278
f 241 267 280
f 241 242 267
f 279 241 280
f 246 243 281
f 281 243 249
f 249 243 244
f 246 282 256
f 246 283 284
f 282 246 284
f 283 246 281
f 250 247 285
f 285 247 286
f 247 248 286
f 248 252 287
f 248 288 286
f 289 288 248
f 289 248 287
f 250 281 249
f 283 281 250
f 285 283 250
f 252 253 287
f 253 273 287
f 255 254 256
f 256 290 255
f 255 290 260
f 256 282 290
f 291 265 257
f 258 291 257
f 291 258 292
f 292 258 261
f 293 262 259
f 259 260 294
f 293 259 294
f 260 295 294
f 260 290 295
f 292 261 296
f 297 296 261
f 263 297 261
f 298 262 293
f 263 262 298
f 298 297 263
f 299 266 264
f 265 299 264
f 291 299 265
f 266 300 268
f 300 266 299
f 267 268 280
f 300 280 268
f 270 301 269
f 269 301 277
f 301 270 302
f 270 301 302
f 270 303 302
f 302 303 270
f 278 304 270
f 304 301 270
f 273 272 305
f 275 306 272
f 272 306 305
f 307 287 273
f 308 307 273
f 305 308 273
f 274 276 309
f 275 274 309
f 310 275 309
f 310 306 275
f 302 303 276
f 276 277 302
f 303 311 276
f 276 311 312
f 309 276 312
f 301 302 277
f 278 313 304
f 278 279 313
f 279 280 314
f 279 314 313
f 300 314 280
f 282 284 315
f 282 315 290
f 283 285 286
f 283 286 284
f 286 316 284
f 315 284 316
f 286 288 317
f 317 316 286
f 307 289 287
f 318 317 288
f 289 318 288
f 289 319 318
f 320 289 307
f 319 289 320
f 290 315 295
f 321 291 322
f 321 300 291
f 292 323 291
f 322 291 323
f 291 300 299
f 296 324 292
f 292 324 323
f 325 293 294
f 326 293 325
f 298 293 326
f 294 295 327
f 327 325 294
f 295 315 316
f 327 295 316
f 324 296 328
f 297 328 296
f 298 329 297
f 297 329 328
f 326 329 298
f 330 314 300
f 321 330 300
f 302 301 304
f 331 311 302
f 302 304 331
f 302 311 303
f 332 304 313
f 331 304 332
f 333 305 334
f 305 335 308
f 305 333 335
f 305 306 310
f 334 305 310
f 320 307 308
f 308 335 320
f 334 309 336
f 334 310 309
f 309 312 336
f 311 331 312
f 332 312 331
f 337 336 312
f 332 337 312
f 330 313 314
f 330 332 313
f 317 327 316
f 318 327 317
f 327 318 325
f 319 325 318
f 319 326 325
f 319 320 326
f 335 326 320
f 322 338 321
f 339 321 338
f 339 340 321
f 341 332 321
f 321 340 341
f 321 332 330
f 342 338 322
f 322 323 342
f 324 342 323
f 342 324 343
f 324 328 343
f 326 335 329
f 344 343 328
f 329 345 328
f 328 345 344
f 333 329 335
f 329 333 345
f 341 337 332
f 333 334 346
f 345 333 340
f 346 340 333
f 334 336 346
f 336 337 346
f 347 337 341
f 346 337 347
f 343 338 342
f 343 339 338
f 343 344 339
f 339 344 340
f 341 340 347
f 345 340 344
f 346 347 340
