# Generated by Visualization Toolkit
v 0.0009169999975711107 -0.09287499636411667 -0.023777000606060028
v 0.0036730000283569098 -0.08966699987649918 -0.024473000317811966
v 0.003089000005275011 -0.09559500217437744 -0.025801999494433403
v 0.0028470000252127647 -0.09710600227117538 -0.025800999253988266
v 0.00011800000356743112 -0.09527599811553955 -0.02315700054168701
v 0.0010740000288933516 -0.08904100209474564 -0.02348800003528595
v 0.000011000000085914508 -0.09294400364160538 -0.023951999843120575
v 0.0024679999332875013 -0.08699800074100494 -0.023559000343084335
v 0.0003239999932702631 -0.08554600179195404 -0.022808000445365906
v 0.004348999820649624 -0.08820900321006775 -0.024311000481247902
v 0.00380899989977479 -0.08752600103616714 -0.02411700040102005
v 0.005001000128686428 -0.09277399629354477 -0.025033000856637955
v 0.005301999859511852 -0.09034399688243866 -0.024514000862836838
v 0.003604999976232648 -0.0970190018415451 -0.025855999439954758
v 0.003135999897494912 -0.0982770025730133 -0.025551000609993935
v 0.002481000032275915 -0.09810200333595276 -0.02531999908387661
v -0.001101000001654029 -0.09673900157213211 -0.024612000212073326
v -0.0003150000120513141 -0.09489499777555466 -0.024327000603079796
v -0.0003349999897181988 -0.09873999655246735 -0.024341000244021416
v 0.0002460000105202198 -0.09832300245761871 -0.02380100078880787
v 0.0020149999763816595 -0.09901099652051926 -0.02485099993646145
v -0.0019280000124126673 -0.0872659981250763 -0.02546899951994419
v -0.002426000079140067 -0.08545999974012375 -0.024978000670671463
v -0.0016070000128820539 -0.09011899679899216 -0.024713000282645226
v 0.003727999981492758 -0.08704700320959091 -0.023426000028848648
v 0.001449999981559813 -0.0862250030040741 -0.021703999489545822
v 0.002271000063046813 -0.08680500090122223 -0.02260500006377697
v -0.0031389999203383923 -0.08323699980974197 -0.023517999798059464
v -0.0008520000264979899 -0.08119399845600128 -0.020579999312758446
v 0.0006590000120922923 -0.08483800292015076 -0.020639000460505486
v 0.005123000126332045 -0.08914600312709808 -0.023050999268889427
v 0.005373000167310238 -0.08979000151157379 -0.023811999708414078
v 0.004327999893575907 -0.09658999741077423 -0.025637999176979065
v 0.005590999964624643 -0.09171599894762039 -0.02453400008380413
v 0.003829000052064657 -0.09808599948883057 -0.025460999459028244
v 0.003286000108346343 -0.09925000369548798 -0.02497199922800064
v -0.00190100003965199 -0.0954819992184639 -0.024365000426769257
v -0.0019199999514967203 -0.09860000014305115 -0.02279300056397915
v 0.00041099998634308577 -0.09934700280427933 -0.024495000019669533
v 0.0012639999622479081 -0.09939199686050415 -0.02473899908363819
v 0.002096999902278185 -0.09972900152206421 -0.024210000410676003
v -0.0029639999847859144 -0.08687099814414978 -0.02500000037252903
v -0.0037869999650865793 -0.08469899743795395 -0.023579999804496765
v -0.0028589998837560415 -0.0905120000243187 -0.024017000570893288
v 0.002094999887049198 -0.08697500079870224 -0.021581999957561493
v -0.004222000017762184 -0.0788239985704422 -0.02230199985206127
v -0.0026569999754428864 -0.07263600081205368 -0.019892999902367592
v -0.002722000004723668 -0.06997200101613998 -0.017911000177264214
v -0.0005469999741762877 -0.08108200132846832 -0.018880000337958336
v 0.001943000010214746 -0.09164399653673172 -0.01776999980211258
v 0.005967000033706427 -0.092119000852108 -0.022221000865101814
v 0.005667000077664852 -0.09085399657487869 -0.02371400035917759
v 0.005623000208288431 -0.0968329980969429 -0.02227500081062317
v 0.0032259998843073845 -0.09988299757242203 -0.02384999953210354
v 0.002741999924182892 -0.09995999932289124 -0.024173999205231667
v -0.004288999829441309 -0.08886999636888504 -0.023016000166535378
v -0.0036609999369829893 -0.09594400227069855 -0.02284199930727482
v 0.001972000114619732 -0.10043500363826752 -0.02323799952864647
v -0.00040600000647827983 -0.10042200237512589 -0.021908000111579895
v -0.0024850000627338886 -0.09967000037431717 -0.01983099989593029
v -0.004085000138729811 -0.09694299846887589 -0.02127999998629093
v -0.005067999940365553 -0.08358900249004364 -0.022453999146819115
v -0.004244000185281038 -0.060965001583099365 -0.017247000709176064
v -0.005743000190705061 -0.06074099987745285 -0.01787400059401989
v -0.007170999888330698 -0.06095099821686745 -0.01803000085055828
v -0.008422999642789364 -0.06777500361204147 -0.018642999231815338
v -0.00356299988925457 -0.08295100182294846 -0.014504999853670597
v -0.0011690000537782907 -0.08393500000238419 -0.01597999967634678
v -0.004097000230103731 -0.060756001621484756 -0.015526000410318375
v -0.0040799998678267 -0.06104300171136856 -0.016429999843239784
v -0.005456999875605106 -0.06832599639892578 -0.014538999646902084
v 0.0016509999986737967 -0.09212499856948853 -0.014945999719202518
v 0.0025049999821931124 -0.09595099836587906 -0.01694200001657009
v 0.004645000211894512 -0.09654200077056885 -0.01955999992787838
v 0.0010089999996125698 -0.08880200237035751 -0.014708000235259533
v -0.00011100000119768083 -0.0871570035815239 -0.015716999769210815
v 0.005442999769002199 -0.09707599878311157 -0.021313000470399857
v 0.004763999953866005 -0.09822099655866623 -0.021062999963760376
v 0.0030900000128895044 -0.1002340018749237 -0.02269499935209751
v -0.005475000012665987 -0.09334199875593185 -0.01729400083422661
v -0.0064559997990727425 -0.0898279994726181 -0.017636999487876892
v -0.007792000193148851 -0.0816510021686554 -0.015769999474287033
v 0.0017719999887049198 -0.10040400177240372 -0.021275000646710396
v -0.0028719999827444553 -0.09953799843788147 -0.01883699931204319
v 0.001706999959424138 -0.10025399923324585 -0.01940299943089485
v -0.0023300000466406345 -0.09975499659776688 -0.018657999113202095
v -0.004515999928116798 -0.09685099869966507 -0.016459999606013298
v -0.004964999854564667 -0.09609899669885635 -0.01657399907708168
v -0.005288999993354082 -0.0578170008957386 -0.017813999205827713
v -0.004614999983459711 -0.05785899981856346 -0.0175199992954731
v -0.006140999961644411 -0.05432000011205673 -0.016884999349713326
v -0.0055599999614059925 -0.054614998400211334 -0.017266999930143356
v -0.00798300001770258 -0.04969000071287155 -0.016665000468492508
v -0.009960000403225422 -0.049782998859882355 -0.01577799953520298
v -0.008391999639570713 -0.07523199915885925 -0.015096999704837799
v -0.00991700030863285 -0.06200199946761131 -0.01533500012010336
v -0.010835000313818455 -0.053025998175144196 -0.01413699984550476
v -0.005379000212997198 -0.08496599644422531 -0.013778000138700008
v -0.004255999810993671 -0.087848000228405 -0.013646000064909458
v -0.000506000011228025 -0.08709099888801575 -0.014986000023782253
v -0.004182999953627586 -0.046248000115156174 -0.012477999553084373
v -0.004997000098228455 -0.05036500096321106 -0.0124080004170537
v -0.007108999881893396 -0.059137001633644104 -0.012621000409126282
v -0.004178000148385763 -0.04907099902629852 -0.014375999569892883
v -0.0049959998577833176 -0.054572999477386475 -0.01730399951338768
v -0.007156000006943941 -0.07504100352525711 -0.014170000329613686
v 0.001769999973475933 -0.09345299750566483 -0.015232999809086323
v 0.0011940000113099813 -0.09114299714565277 -0.01435600034892559
v 0.004430999979376793 -0.09800100326538086 -0.0200009997934103
v 0.001319000031799078 -0.09619800001382828 -0.015568000264465809
v 0.0006210000137798488 -0.09857200086116791 -0.01674499921500683
v 0.000387999985832721 -0.08965600281953812 -0.013873999938368797
v 0.002819000044837594 -0.09984900057315826 -0.020135000348091125
v 0.00279300007969141 -0.09995999932289124 -0.021084999665617943
v -0.0055069997906684875 -0.09389100223779678 -0.016099000349640846
v -0.00659500015899539 -0.092739999294281 -0.015727000311017036
v -0.00737199978902936 -0.08806400001049042 -0.0159939993172884
v -0.007304000202566385 -0.09113100171089172 -0.015526999719440937
v -0.007474999874830246 -0.08703599870204926 -0.014786999672651291
v -0.007348000071942806 -0.08430299907922745 -0.014380999840795994
v -0.00171999994199723 -0.09899000078439713 -0.016923999413847923
v -0.0029060000088065863 -0.09814699739217758 -0.01623300090432167
v -0.004472999833524227 -0.0954120010137558 -0.015943000093102455
v -0.0031109999399632215 -0.09543199837207794 -0.016137000173330307
v -0.005160000175237656 -0.09409700334072113 -0.015479999594390392
v -0.006442000158131123 -0.04843199998140335 -0.0166229996830225
v -0.004776999820023775 -0.04844700172543526 -0.01701599918305874
v -0.007288000080734491 -0.04357900097966194 -0.01702200062572956
v -0.00901000015437603 -0.044029999524354935 -0.017097000032663345
v -0.00999400019645691 -0.04422900080680847 -0.016635999083518982
v -0.00785600021481514 -0.07516799867153168 -0.014534999616444111
v -0.00930199958384037 -0.06873200088739395 -0.014165000058710575
v -0.011256000027060509 -0.048225000500679016 -0.011265000328421593
v -0.010347999632358551 -0.05328100174665451 -0.012223999947309494
v -0.012136000208556652 -0.042830999940633774 -0.011118999682366848
v -0.012257999740540981 -0.03902300074696541 -0.013255000114440918
v -0.007309999782592058 -0.08636199682950974 -0.013891000300645828
v -0.0057390001602470875 -0.08856700360774994 -0.013225000351667404
v -0.007063999772071838 -0.08677499741315842 -0.01355000026524067
v -0.0020290000829845667 -0.09215900301933289 -0.014936000108718872
v -0.001133000012487173 -0.08965799957513809 -0.014437999576330185
v -0.003777999896556139 -0.09053199738264084 -0.014353999868035316
v -0.003183000022545457 -0.0440169982612133 -0.01498899981379509
v -0.004854999948292971 -0.042479000985622406 -0.009709999896585941
v -0.00620400020852685 -0.05038600042462349 -0.01116899959743023
v -0.008326999843120575 -0.05333000048995018 -0.011265000328421593
v -0.003911999985575676 -0.04408000037074089 -0.016839999705553055
v -0.00076299998909235 -0.09368400275707245 -0.014001999981701374
v -0.0006500000017695129 -0.09163200110197067 -0.014066999778151512
v -0.0009590000263415277 -0.0958390012383461 -0.01484999991953373
v -0.005975000094622374 -0.09292499721050262 -0.015189999714493752
v -0.006922000087797642 -0.09209199994802475 -0.015209999866783619
v -0.00784900039434433 -0.08967000246047974 -0.015146000310778618
v -0.007563999854028225 -0.09069199860095978 -0.015080000273883343
v -0.004364000167697668 -0.09234700351953506 -0.014897000044584274
v -0.001661999966017902 -0.0931520015001297 -0.015103000216186047
v -0.0055240001529455185 -0.03761500120162964 -0.016966000199317932
v -0.007418000139296055 -0.03936399891972542 -0.017727000638842583
v -0.008559999987483025 -0.03930800035595894 -0.018442999571561813
v -0.0034910000395029783 -0.03951499983668327 -0.016930999234318733
v -0.009390000253915787 -0.04187300056219101 -0.01767599955201149
v -0.011025000363588333 -0.047885000705718994 -0.009604999795556068
v -0.010781999677419662 -0.04868999868631363 -0.010262000374495983
v -0.009789999574422836 -0.04849899932742119 -0.00981799978762865
v -0.012538000009953976 -0.03920900076627731 -0.011912000365555286
v -0.012493000365793705 -0.03983499854803085 -0.011411000043153763
v -0.011637999676167965 -0.041218001395463943 -0.010009000077843666
v -0.01126100029796362 -0.04575999826192856 -0.00930199958384037
v -0.011986999772489071 -0.03821000084280968 -0.014077999629080296
v -0.011599999852478504 -0.03857199847698212 -0.0149959996342659
v -0.012574000284075737 -0.037859998643398285 -0.013357999734580517
v -0.007480999920517206 -0.087459996342659 -0.013860000297427177
v -0.005119000095874071 -0.09161999821662903 -0.014116000384092331
v -0.007511000148952007 -0.09010999649763107 -0.014190999791026115
v -0.0011449999874457717 -0.09307499974966049 -0.014519000425934792
v -0.002816000021994114 -0.039778001606464386 -0.015798000618815422
v -0.002604000037536025 -0.03963499888777733 -0.010851999744772911
v -0.0018449999624863267 -0.03846700116991997 -0.014550000429153442
v -0.004474000073969364 -0.04030999913811684 -0.009116999804973602
v -0.006910999771207571 -0.044913001358509064 -0.00918199960142374
v -0.005073000211268663 -0.040477998554706573 -0.009026999585330486
v -0.006312999874353409 -0.0920720025897026 -0.0147299999371171
v -0.007402000017464161 -0.09070699661970139 -0.01457899995148182
v -0.007282999809831381 -0.036970000714063644 -0.018623000010848045
v -0.004335000179708004 -0.03482399880886078 -0.01744000054895878
v -0.009259999729692936 -0.03869999945163727 -0.01867399923503399
v -0.010009000077843666 -0.0388140007853508 -0.017785999923944473
v -0.0019160000374540687 -0.035006001591682434 -0.016947999596595764
v -0.01165200024843216 -0.03681499883532524 -0.01633399911224842
v -0.01017600018531084 -0.04766299948096275 -0.00902399979531765
v -0.012624000199139118 -0.038763001561164856 -0.010963000357151031
v -0.013616000302135944 -0.03324199840426445 -0.01169699989259243
v -0.013251000083982944 -0.03612300008535385 -0.012803000397980213
v -0.011882999911904335 -0.039709001779556274 -0.009829999879002571
v -0.012285999953746796 -0.03940799832344055 -0.010405000299215317
v -0.010490000247955322 -0.04398399963974953 -0.00889500044286251
v -0.01082099974155426 -0.040651001036167145 -0.009573999792337418
v -0.012457000091671944 -0.037362001836299896 -0.014227000065147877
v -0.011807999573647976 -0.03750799968838692 -0.014845999889075756
v -0.001996000064536929 -0.037122998386621475 -0.015776999294757843
v -0.003648000070825219 -0.03896800056099892 -0.009410999715328217
v -0.003722999943420291 -0.03790599852800369 -0.009019999764859676
v -0.002268000040203333 -0.03726999834179878 -0.011014999821782112
v -0.0015640000347048044 -0.03715299814939499 -0.014201999641954899
v -0.005078999791294336 -0.03915100172162056 -0.008690999820828438
v -0.0044929999858140945 -0.03903999924659729 -0.00875800009816885
v -0.007348000071942806 -0.0425029993057251 -0.009180000051856041
v -0.006593000143766403 -0.040532998740673065 -0.009668000042438507
v -0.009708000347018242 -0.0378590002655983 -0.018804000690579414
v -0.008484999649226665 -0.036694999784231186 -0.01901799999177456
v -0.007102999836206436 -0.03554999828338623 -0.01871499978005886
v -0.006804999895393848 -0.03138599917292595 -0.017935000360012054
v -0.002891999902203679 -0.03027000091969967 -0.01666400022804737
v -0.0021359999664127827 -0.03111799992620945 -0.016475999727845192
v -0.006984000094234943 -0.032575998455286026 -0.01838799938559532
v -0.010528000071644783 -0.03791999816894531 -0.017727000638842583
v -0.001766999950632453 -0.03486299887299538 -0.016303999349474907
v -0.0010979999788105488 -0.031683001667261124 -0.01637299917638302
v -0.012648999691009521 -0.036086998879909515 -0.014224999584257603
v -0.011882999911904335 -0.03556400164961815 -0.0165180005133152
v -0.012400999665260315 -0.035036999732255936 -0.01508999988436699
v -0.013062999583780766 -0.03779599815607071 -0.009833999909460545
v -0.013602999970316887 -0.03456300124526024 -0.01057399995625019
v -0.013627000153064728 -0.03265399858355522 -0.010737000033259392
v -0.013160999864339828 -0.03136499971151352 -0.013407000340521336
v -0.013244000263512135 -0.03011300042271614 -0.011843999847769737
v -0.011068999767303467 -0.039416998624801636 -0.009712000377476215
v -0.012165999971330166 -0.03867200016975403 -0.009499999694526196
v -0.008387000299990177 -0.040532998740673065 -0.010023999959230423
v -0.0018520000157877803 -0.03463200107216835 -0.015576999634504318
v -0.0020000000949949026 -0.03451700136065483 -0.014810999855399132
v -0.004399000201374292 -0.03808800131082535 -0.008721999824047089
v -0.004137999843806028 -0.036726001650094986 -0.008682000450789928
v -0.004720000084489584 -0.03668000176548958 -0.008697999641299248
v -0.004658999852836132 -0.03723499923944473 -0.008566999807953835
v -0.002389000030234456 -0.034651000052690506 -0.011500000022351742
v -0.0029060000088065863 -0.0341619998216629 -0.010366000235080719
v -0.003220000071451068 -0.03450600057840347 -0.009227000176906586
v -0.004395000170916319 -0.03616100177168846 -0.008787999860942364
v -0.005969000048935413 -0.03740999847650528 -0.008736000396311283
v -0.007073000073432922 -0.036559998989105225 -0.008799999952316284
v -0.007038000039756298 -0.04081699997186661 -0.009717999957501888
v -0.009991000406444073 -0.03315100073814392 -0.01957700029015541
v -0.008255000226199627 -0.03278699889779091 -0.02009899914264679
v -0.008325999602675438 -0.03490399941802025 -0.01963300071656704
v -0.007079999893903732 -0.0305160004645586 -0.017549000680446625
v -0.008527999743819237 -0.031176000833511353 -0.019895000383257866
v -0.008737999945878983 -0.03009900078177452 -0.019255999475717545
v -0.002687999978661537 -0.029536999762058258 -0.015876999124884605
v -0.011966999620199203 -0.03248399868607521 -0.016675999388098717
v -0.0013539999490603805 -0.033250000327825546 -0.01608400046825409
v -0.0010270000202581286 -0.030990000814199448 -0.01604500040411949
v -0.0007570000016130507 -0.03197399899363518 -0.0158270001411438
v -0.012145999819040298 -0.033656999468803406 -0.015065000392496586
v -0.012272000312805176 -0.03233399987220764 -0.015038999728858471
v -0.012605000287294388 -0.03173200041055679 -0.014026000164449215
v -0.012387000024318695 -0.03674900159239769 -0.009391999803483486
v -0.012949000112712383 -0.03266200050711632 -0.010135999880731106
v -0.013233000412583351 -0.029579000547528267 -0.010242000222206116
v -0.012802000157535076 -0.029606999829411507 -0.011831999756395817
v -0.013199999928474426 -0.029117999598383904 -0.010913999751210213
v -0.013133999891579151 -0.03027999959886074 -0.012896000407636166
v -0.012811999768018723 -0.030774999409914017 -0.013488000258803368
v -0.010515999980270863 -0.03794199973344803 -0.010622999630868435
v -0.011486000381410122 -0.03834100067615509 -0.009614000096917152
v -0.011939000338315964 -0.037415001541376114 -0.009285000152885914
v -0.007670000195503235 -0.03955899924039841 -0.009850000031292439
v -0.009333999827504158 -0.03865800052881241 -0.01068899966776371
v -0.004991000052541494 -0.03564700111746788 -0.009008999913930893
v -0.005535999778658152 -0.035721998661756516 -0.00889699999243021
v -0.00534699996933341 -0.036570001393556595 -0.008546000346541405
v -0.0023980000987648964 -0.03208199888467789 -0.010451000183820724
v -0.0010010000551119447 -0.03137800097465515 -0.014813000336289406
v -0.0031449999660253525 -0.03372599929571152 -0.009039999917149544
v -0.002570000011473894 -0.03215400129556656 -0.008976999670267105
v -0.004401000216603279 -0.03318699821829796 -0.008999000303447247
v -0.004918999969959259 -0.034814998507499695 -0.009019000455737114
v -0.00634999992325902 -0.035530999302864075 -0.00900499988347292
v -0.007546999957412481 -0.03580600023269653 -0.009487999603152275
v -0.008716000244021416 -0.036347001791000366 -0.01032899972051382
v -0.010456999763846397 -0.031596001237630844 -0.019060999155044556
v -0.009209999814629555 -0.029631000012159348 -0.018377000465989113
v -0.010273000225424767 -0.030038999393582344 -0.015830999240279198
v -0.011416999623179436 -0.030376000329852104 -0.017239000648260117
v -0.0011790000135079026 -0.03051299974322319 -0.015737000852823257
v -0.008320000022649765 -0.030650999397039413 -0.014720000326633453
v -0.005776999983936548 -0.031238000839948654 -0.013120999559760094
v -0.011481000110507011 -0.03139200061559677 -0.01540399994701147
v -0.011099000461399555 -0.030412999913096428 -0.01609800010919571
v -0.011981000192463398 -0.03126100078225136 -0.014197999611496925
v -0.01205000001937151 -0.032951999455690384 -0.010506999678909779
v -0.012516000308096409 -0.030115999281406403 -0.00991399958729744
v -0.012613000348210335 -0.02880599908530712 -0.010102000087499619
v -0.012409999966621399 -0.02917500026524067 -0.011043000034987926
v -0.01207400020211935 -0.029726000502705574 -0.012396999634802341
v -0.012242999859154224 -0.029030000790953636 -0.011675000190734863
v -0.0127379996702075 -0.029962999746203423 -0.01317800022661686
v -0.012250999920070171 -0.030710000544786453 -0.013705000281333923
v -0.01013999991118908 -0.036671001464128494 -0.010683000087738037
v -0.010982000268995762 -0.036997999995946884 -0.010363000445067883
v -0.005489999894052744 -0.03513599932193756 -0.009088000282645226
v -0.005574999842792749 -0.03471500054001808 -0.009499999694526196
v -0.005638000089675188 -0.033980000764131546 -0.009736999869346619
v -0.005537000019103289 -0.03403399884700775 -0.009119000285863876
v -0.006765999831259251 -0.02981399931013584 -0.009906000457704067
v -0.002624999964609742 -0.03136900067329407 -0.0095229996368289
v -0.005673000123351812 -0.031550001353025436 -0.012569000013172626
v -0.006697000004351139 -0.030316000804305077 -0.011900000274181366
v -0.004077000077813864 -0.032728999853134155 -0.008724999614059925
v -0.0038479999639093876 -0.03094400092959404 -0.008973999880254269
v -0.005475999787449837 -0.03290700167417526 -0.009709999896585941
v -0.005357999820262194 -0.032464999705553055 -0.009340999647974968
v -0.006907999981194735 -0.03466799855232239 -0.009170000441372395
v -0.00800899975001812 -0.034749001264572144 -0.010308999568223953
v -0.010332999750971794 -0.030590999871492386 -0.014178999699652195
v -0.011095999740064144 -0.0302559994161129 -0.014379999600350857
v -0.010367999784648418 -0.030239999294281006 -0.013485999777913094
v -0.00965300016105175 -0.03032599948346615 -0.012431000359356403
v -0.0087890001013875 -0.03090599924325943 -0.012116000056266785
v -0.011429999954998493 -0.030778000131249428 -0.014589999802410603
v -0.010758999735116959 -0.031734999269247055 -0.010528000071644783
v -0.009371999651193619 -0.03232099860906601 -0.010634999722242355
v -0.011733000166714191 -0.03094400092959404 -0.009998999536037445
v -0.012117999605834484 -0.029099000617861748 -0.009676000103354454
v -0.01206700038164854 -0.028859000653028488 -0.010281000286340714
v -0.010489000007510185 -0.028666000813245773 -0.010811000131070614
v -0.011440999805927277 -0.02957800030708313 -0.012864000163972378
v -0.01070099975913763 -0.028961999341845512 -0.011478000320494175
v -0.011500000022351742 -0.029985999688506126 -0.013570999726653099
v -0.008713999763131142 -0.03378500044345856 -0.010641000233590603
v -0.005549000110477209 -0.033201999962329865 -0.009066999889910221
v -0.007007999811321497 -0.03254399821162224 -0.009611999616026878
v -0.007594000082463026 -0.029441000893712044 -0.009642000310122967
v -0.008932000026106834 -0.029399000108242035 -0.009987999685108662
v -0.009176000021398067 -0.0300890002399683 -0.01140500046312809
v -0.005508999805897474 -0.03188500180840492 -0.009089999832212925
v -0.0076350001618266106 -0.031032999977469444 -0.009557999670505524
v -0.010348999872803688 -0.031039999797940254 -0.010220999829471111
v -0.011339999735355377 -0.030385000631213188 -0.009777000173926353
v -0.010959000326693058 -0.02931799925863743 -0.00939400028437376
v -0.010014000348746777 -0.029200000688433647 -0.009318999946117401
v -0.008585000410676003 -0.03125400096178055 -0.009587000124156475
v -0.011603999882936478 -0.029145000502467155 -0.00945299956947565
v -0.010838000103831291 -0.02833399921655655 -0.009341999888420105
v -0.010235999710857868 -0.02843499928712845 -0.009685000404715538
v -0.008112000301480293 -0.02996799908578396 -0.009734000079333782
v -0.00925000011920929 -0.029962999746203423 -0.009359000250697136
f 1 2 3
f 3 4 1
f 1 4 5
f 6 2 1
f 1 5 7
f 6 1 7
f 8 2 9
f 10 2 11
f 6 9 2
f 2 12 3
f 8 11 2
f 13 2 10
f 12 2 13
f 4 3 14
f 3 12 14
f 15 16 4
f 15 4 14
f 4 16 5
f 5 17 18
f 5 19 17
f 18 7 5
f 20 19 5
f 16 21 5
f 5 21 20
f 22 23 6
f 24 6 7
f 6 24 22
f 9 6 23
f 7 18 24
f 25 11 8
f 9 26 8
f 26 27 8
f 25 8 27
f 9 23 28
f 28 29 9
f 9 30 26
f 29 30 9
f 31 10 25
f 11 25 10
f 32 13 10
f 32 10 31
f 14 12 33
f 12 13 34
f 12 34 33
f 13 32 34
f 35 14 33
f 15 14 35
f 36 15 35
f 36 16 15
f 36 21 16
f 18 17 37
f 17 38 37
f 17 19 38
f 24 18 37
f 19 39 38
f 20 39 19
f 20 40 39
f 21 40 20
f 41 21 36
f 21 41 40
f 22 42 23
f 22 24 42
f 23 43 28
f 42 43 23
f 44 42 24
f 37 44 24
f 25 27 45
f 25 45 31
f 26 30 45
f 26 45 27
f 28 46 29
f 28 43 46
f 29 46 47
f 47 48 29
f 48 49 29
f 29 49 30
f 30 49 50
f 30 50 45
f 51 52 31
f 52 32 31
f 31 45 50
f 51 31 50
f 52 34 32
f 53 33 34
f 35 33 53
f 34 52 53
f 35 53 36
f 54 36 53
f 55 36 54
f 41 36 55
f 56 37 57
f 37 56 44
f 38 57 37
f 38 58 59
f 59 60 38
f 38 61 57
f 38 60 61
f 39 58 38
f 40 58 39
f 41 58 40
f 58 41 55
f 42 56 43
f 56 42 44
f 46 43 62
f 56 62 43
f 46 63 47
f 46 64 63
f 64 46 65
f 46 66 65
f 62 66 46
f 47 63 48
f 48 67 68
f 69 48 70
f 63 70 48
f 68 49 48
f 48 69 71
f 67 48 71
f 49 68 50
f 72 73 50
f 74 50 73
f 50 75 72
f 76 75 50
f 51 50 74
f 68 76 50
f 77 51 74
f 51 53 52
f 51 77 53
f 77 78 53
f 54 53 78
f 58 54 79
f 79 54 78
f 55 54 58
f 80 81 56
f 56 57 61
f 56 82 62
f 61 80 56
f 56 81 82
f 79 83 58
f 83 59 58
f 60 59 84
f 85 86 59
f 86 84 59
f 59 83 85
f 61 60 84
f 61 87 88
f 84 87 61
f 61 88 80
f 66 62 82
f 64 89 63
f 89 90 63
f 70 63 90
f 91 64 65
f 91 92 64
f 92 89 64
f 93 91 65
f 93 65 94
f 66 94 65
f 95 96 66
f 94 66 97
f 96 97 66
f 66 82 95
f 67 71 98
f 98 99 67
f 99 68 67
f 68 99 100
f 68 100 76
f 101 69 70
f 69 101 102
f 69 102 103
f 69 103 71
f 70 104 101
f 105 104 70
f 70 90 105
f 71 103 106
f 71 106 98
f 107 72 108
f 75 108 72
f 72 107 73
f 109 74 73
f 73 107 110
f 109 73 111
f 110 111 73
f 74 109 77
f 100 75 76
f 112 108 75
f 75 100 112
f 78 77 109
f 113 114 78
f 113 78 109
f 79 78 114
f 83 79 114
f 115 80 88
f 116 80 115
f 116 81 80
f 82 81 117
f 116 118 81
f 118 117 81
f 119 82 117
f 120 95 82
f 120 82 119
f 85 83 114
f 84 86 87
f 113 111 85
f 85 111 121
f 121 86 85
f 85 114 113
f 86 121 122
f 86 122 87
f 87 123 88
f 124 87 122
f 87 124 123
f 123 125 88
f 115 88 125
f 92 105 89
f 89 105 90
f 126 91 93
f 91 126 127
f 91 127 92
f 92 127 105
f 93 128 126
f 93 129 128
f 93 94 130
f 93 130 129
f 130 94 97
f 131 132 95
f 95 120 131
f 96 95 132
f 97 96 132
f 133 97 134
f 134 97 132
f 135 97 133
f 136 97 135
f 130 97 136
f 137 98 120
f 106 120 98
f 98 138 99
f 138 98 139
f 137 139 98
f 140 141 99
f 140 99 142
f 142 99 138
f 141 100 99
f 112 100 141
f 104 143 101
f 143 144 101
f 102 101 144
f 145 103 102
f 144 145 102
f 103 145 146
f 146 106 103
f 127 104 105
f 143 104 147
f 104 127 147
f 131 120 106
f 106 132 131
f 106 146 132
f 108 148 107
f 107 148 110
f 149 108 112
f 148 108 149
f 109 111 113
f 150 110 148
f 110 150 111
f 111 150 122
f 111 122 121
f 112 141 149
f 116 115 151
f 115 125 151
f 116 151 152
f 118 116 152
f 118 153 117
f 117 153 119
f 153 118 154
f 118 152 154
f 119 153 137
f 137 120 119
f 124 122 150
f 124 155 123
f 155 125 123
f 156 155 124
f 156 124 150
f 151 125 155
f 126 147 127
f 126 128 147
f 157 128 158
f 128 159 158
f 128 157 160
f 128 160 147
f 128 129 159
f 129 130 161
f 129 161 159
f 130 136 161
f 134 132 146
f 135 133 162
f 163 162 133
f 134 163 133
f 146 164 134
f 163 134 164
f 165 135 166
f 166 135 167
f 168 167 135
f 168 135 162
f 136 135 165
f 169 170 136
f 136 165 171
f 136 171 169
f 161 136 170
f 172 137 153
f 139 137 172
f 173 138 174
f 138 173 142
f 139 174 138
f 139 172 174
f 140 142 156
f 140 156 175
f 149 141 140
f 149 140 175
f 142 173 155
f 155 156 142
f 147 176 143
f 177 143 178
f 177 179 143
f 179 144 143
f 178 143 176
f 180 145 144
f 181 144 179
f 144 181 180
f 145 180 164
f 164 146 145
f 160 176 147
f 175 150 148
f 175 148 149
f 156 150 175
f 151 155 182
f 151 182 152
f 152 182 183
f 154 152 183
f 174 172 153
f 174 153 183
f 153 154 183
f 155 173 182
f 158 184 157
f 157 184 185
f 185 160 157
f 159 186 158
f 186 184 158
f 161 187 159
f 186 159 187
f 188 160 185
f 176 160 188
f 161 170 189
f 189 187 161
f 162 163 190
f 162 190 168
f 163 164 190
f 190 164 180
f 191 165 166
f 192 193 165
f 192 165 191
f 193 171 165
f 166 167 191
f 194 195 167
f 168 196 167
f 167 197 194
f 167 195 191
f 197 167 196
f 190 196 168
f 169 171 198
f 198 199 169
f 199 170 169
f 199 189 170
f 193 198 171
f 173 174 183
f 173 183 182
f 178 176 200
f 176 188 200
f 201 177 202
f 203 177 204
f 177 178 204
f 203 202 177
f 179 177 201
f 204 178 200
f 179 205 181
f 179 201 206
f 206 205 179
f 207 180 181
f 190 180 207
f 208 207 181
f 205 208 181
f 186 209 184
f 210 184 209
f 185 184 211
f 184 210 211
f 185 212 213
f 213 214 185
f 214 188 185
f 185 211 215
f 215 212 185
f 209 186 216
f 186 187 216
f 216 187 189
f 217 200 188
f 214 218 188
f 188 218 217
f 199 219 189
f 220 189 221
f 189 219 221
f 189 220 216
f 207 196 190
f 191 195 222
f 223 191 222
f 223 192 191
f 223 224 192
f 192 225 193
f 192 226 225
f 224 226 192
f 198 193 219
f 193 225 219
f 194 227 228
f 197 227 194
f 228 195 194
f 228 222 195
f 197 196 207
f 197 229 227
f 229 197 207
f 198 219 199
f 230 200 217
f 230 231 200
f 204 200 231
f 201 202 232
f 201 232 206
f 203 233 202
f 202 233 234
f 235 202 234
f 202 235 232
f 203 231 236
f 204 231 203
f 236 237 203
f 237 238 203
f 239 203 238
f 203 239 233
f 206 240 205
f 240 241 205
f 205 241 208
f 206 232 240
f 242 207 208
f 242 229 207
f 241 242 208
f 243 209 216
f 244 209 243
f 245 209 244
f 210 209 245
f 210 245 211
f 215 211 245
f 212 246 213
f 215 247 212
f 248 212 247
f 248 246 212
f 246 249 213
f 213 249 214
f 214 249 218
f 247 215 244
f 244 215 245
f 250 216 220
f 243 216 250
f 217 251 230
f 218 251 217
f 252 218 249
f 253 230 218
f 230 251 218
f 252 253 218
f 221 219 225
f 221 254 220
f 250 220 255
f 220 254 255
f 221 225 256
f 221 256 254
f 223 222 257
f 222 228 257
f 223 258 224
f 257 258 223
f 259 224 258
f 260 226 224
f 260 224 261
f 224 259 261
f 226 262 225
f 263 256 225
f 263 225 262
f 262 226 260
f 264 227 229
f 265 228 227
f 265 227 264
f 228 265 266
f 228 266 257
f 267 229 242
f 268 229 267
f 264 229 268
f 231 230 253
f 236 231 253
f 235 240 232
f 233 239 269
f 233 269 234
f 234 269 270
f 235 234 270
f 271 235 270
f 235 271 240
f 272 237 236
f 236 253 273
f 272 236 273
f 237 274 238
f 275 274 237
f 275 237 272
f 238 274 239
f 276 239 274
f 239 277 269
f 277 239 276
f 240 278 241
f 271 270 240
f 270 278 240
f 278 279 241
f 280 267 241
f 267 242 241
f 280 241 279
f 281 243 250
f 247 243 281
f 244 243 247
f 282 246 248
f 283 246 282
f 283 249 246
f 247 281 248
f 248 281 284
f 248 284 282
f 285 252 249
f 283 286 249
f 249 286 287
f 285 249 287
f 255 288 250
f 289 284 250
f 289 250 288
f 281 250 284
f 285 253 252
f 285 273 253
f 255 254 256
f 256 290 255
f 290 288 255
f 263 290 256
f 257 266 291
f 257 291 258
f 292 258 291
f 259 258 292
f 293 259 292
f 259 293 294
f 259 294 261
f 295 260 296
f 296 260 261
f 262 260 295
f 261 294 296
f 297 263 262
f 297 262 295
f 297 298 263
f 298 290 263
f 268 299 264
f 300 264 299
f 265 264 300
f 265 300 266
f 266 300 291
f 280 268 267
f 268 280 299
f 269 301 270
f 277 301 269
f 302 270 301
f 302 301 270
f 302 303 270
f 270 303 302
f 270 304 278
f 270 301 304
f 305 272 273
f 272 306 275
f 305 306 272
f 273 285 307
f 273 307 308
f 273 308 305
f 309 276 274
f 309 274 275
f 309 275 310
f 275 306 310
f 276 303 302
f 302 277 276
f 276 311 303
f 312 311 276
f 312 276 309
f 277 302 301
f 304 313 278
f 313 279 278
f 314 280 279
f 313 314 279
f 280 314 299
f 283 282 284
f 315 286 283
f 283 316 315
f 289 316 283
f 289 283 284
f 285 287 307
f 286 315 317
f 286 317 287
f 317 318 287
f 307 287 319
f 319 287 318
f 320 289 288
f 290 320 288
f 316 289 320
f 298 320 290
f 321 291 322
f 291 299 322
f 291 323 292
f 323 291 321
f 300 299 291
f 292 324 293
f 323 324 292
f 325 293 324
f 293 325 294
f 294 326 296
f 325 326 294
f 297 295 327
f 327 295 328
f 328 295 296
f 296 326 328
f 329 298 297
f 297 327 329
f 316 320 298
f 316 298 329
f 299 314 330
f 299 330 322
f 304 301 302
f 302 311 331
f 331 304 302
f 303 311 302
f 313 304 332
f 332 304 331
f 333 305 334
f 308 335 305
f 335 334 305
f 310 306 305
f 310 305 333
f 308 307 319
f 319 335 308
f 336 309 333
f 309 310 333
f 336 312 309
f 312 331 311
f 331 312 332
f 312 336 337
f 312 337 332
f 314 313 330
f 313 332 330
f 316 329 315
f 315 329 317
f 327 317 329
f 317 327 318
f 327 328 318
f 328 319 318
f 319 328 335
f 321 338 339
f 339 323 321
f 322 338 321
f 338 322 340
f 322 341 340
f 322 332 342
f 342 341 322
f 330 332 322
f 323 339 324
f 343 324 339
f 343 325 324
f 325 343 344
f 325 345 326
f 344 345 325
f 326 335 328
f 335 326 334
f 345 334 326
f 332 337 342
f 346 336 333
f 346 333 334
f 341 334 345
f 334 341 346
f 346 337 336
f 342 337 347
f 347 337 346
f 339 338 343
f 338 340 343
f 340 344 343
f 341 344 340
f 347 341 342
f 344 341 345
f 341 347 346
