# Generated by Visualization Toolkit
v 0.07586999982595444 0.012508000247180462 0.03015200048685074
v 0.07737100124359131 0.009441999718546867 0.031046999618411064
v 0.07299599796533585 0.012880000285804272 0.031838998198509216
v 0.07891300320625305 0.011215999722480774 0.029927000403404236
v 0.08153200149536133 0.012767000123858452 0.02490600012242794
v 0.07276500016450882 0.014964999631047249 0.032600998878479004
v 0.07531700283288956 0.009820999577641487 0.03365100175142288
v 0.07212799787521362 0.011843999847769737 0.03305700048804283
v 0.08367499709129333 0.008597999811172485 0.03245500102639198
v 0.0809440016746521 0.008407000452280045 0.033344998955726624
v 0.0718189999461174 0.014306999742984772 0.03476300090551376
v 0.08421999961137772 0.012350999750196934 0.024282999336719513
v 0.08316799998283386 0.01451599970459938 0.024013999849557877
v 0.0778840035200119 0.020515000447630882 0.03132300078868866
v 0.07349299639463425 0.01682399958372116 0.032993998378515244
v 0.07193300127983093 0.01296900026500225 0.03511299937963486
v 0.07334200292825699 0.01321600005030632 0.03702300041913986
v 0.07676000148057938 0.011222000233829021 0.03757600113749504
v 0.08868400007486343 0.010599999688565731 0.02498999983072281
v 0.09110599756240845 0.00901199970394373 0.03213699907064438
v 0.09189999848604202 0.010985000059008598 0.035395000129938126
v 0.08772099763154984 0.011889999732375145 0.035714998841285706
v 0.07332900166511536 0.01457700040191412 0.037342000752687454
v 0.07651399821043015 0.018874000757932663 0.03385100141167641
v 0.09281899780035019 0.01227600034326315 0.025237999856472015
v 0.08359599858522415 0.02371400035917759 0.029683999717235565
v 0.08021099865436554 0.018689999356865883 0.03563399985432625
v 0.07629500329494476 0.014314999803900719 0.03833099827170372
v 0.08055000007152557 0.014123000204563141 0.03750399872660637
v 0.09526199847459793 0.011521000415086746 0.026686999946832657
v 0.09879499673843384 0.008396999910473824 0.03260499984025955
v 0.10397999733686447 0.00853700004518032 0.031077999621629715
v 0.11414899677038193 0.006031000055372715 0.0364300012588501
v 0.08748999983072281 0.02060599997639656 0.03374600037932396
v 0.07779599726200104 0.015549000352621078 0.036945998668670654
v 0.09240599721670151 0.02283800020813942 0.029225999489426613
v 0.09779399633407593 0.01523599959909916 0.026562999933958054
v 0.08889500051736832 0.02319899946451187 0.03136000037193298
v 0.09938299655914307 0.013133999891579151 0.02698799967765808
v 0.11825600266456604 0.0035119999665766954 0.03512199968099594
v 0.1128539964556694 0.008400999940931797 0.031158000230789185
v 0.12152399867773056 0.002985999919474125 0.03485099971294403
v 0.12275099754333496 0.0027620000764727592 0.03819100186228752
v 0.11084900051355362 0.01564900018274784 0.03441900014877319
v 0.12259399890899658 0.009252999909222126 0.039083998650312424
v 0.12760299444198608 0.008558999747037888 0.040849000215530396
v 0.1256909966468811 0.0037350000347942114 0.04007299989461899
v 0.12545500695705414 0.0052999998442828655 0.040897998958826065
v 0.09801200032234192 0.02000799961388111 0.030553000047802925
v 0.09953200072050095 0.018231000751256943 0.02827499993145466
v 0.11074099689722061 0.015383999794721603 0.032517001032829285
v 0.1250160038471222 0.007691999897360802 0.03328299894928932
v 0.12836399674415588 0.000534999999217689 0.03411699831485748
v 0.12959299981594086 -0.0005639999872073531 0.03569899871945381
v 0.1285489946603775 -0.0009430000209249556 0.03939000144600868
v 0.11746200174093246 0.013577999547123909 0.03493500128388405
v 0.12310100346803665 0.01107800006866455 0.037696000188589096
v 0.12853200733661652 0.008256999775767326 0.04320099949836731
v 0.12721200287342072 0.005601000040769577 0.04320700094103813
v 0.12855499982833862 0.009456999599933624 0.03803899884223938
v 0.13411100208759308 0.008163999766111374 0.042451001703739166
v 0.1315390020608902 0.0015569999814033508 0.04318400099873543
v 0.12926700711250305 0.0037690000608563423 0.04419900104403496
v 0.12856599688529968 0.00936300028115511 0.035916998982429504
v 0.13279299437999725 0.004021999891847372 0.03421600162982941
v 0.13086800277233124 0.0028540000785142183 0.03434799984097481
v 0.13233399391174316 -0.0011749999830499291 0.03668399900197983
v 0.1325799971818924 -0.0018759999657049775 0.040862999856472015
v 0.13349300622940063 -0.0017740000039339066 0.04194699972867966
v 0.13419599831104279 0.005491999909281731 0.0458419993519783
v 0.1401599943637848 0.005524999927729368 0.04085899889469147
v 0.13548000156879425 0.006994000170379877 0.04538299888372421
v 0.13760100305080414 0.0051819998770952225 0.04628700017929077
v 0.13811799883842468 0.0012120000319555402 0.04522699862718582
v 0.135684996843338 -0.0007360000163316727 0.04394900053739548
v 0.13304300606250763 0.005431999918073416 0.03484499827027321
v 0.1351419985294342 0.003957000095397234 0.036545999348163605
v 0.13505999743938446 0.0009840000420808792 0.0357699990272522
v 0.13435600697994232 -0.0015640000347048044 0.04024000093340874
v 0.13553500175476074 -0.0022239999379962683 0.03935199975967407
v 0.1342560052871704 -0.0021689999848604202 0.04103799909353256
v 0.13499799370765686 -0.0026279999874532223 0.04183100163936615
v 0.1402450054883957 0.002445999998599291 0.0426350012421608
v 0.14058099687099457 0.0037640000227838755 0.03948599845170975
v 0.13812899589538574 -0.0004349999944679439 0.043811000883579254
v 0.13909900188446045 -0.0009619999909773469 0.04149400070309639
v 0.13908100128173828 0.0009490000084042549 0.037960998713970184
v 0.13861200213432312 -0.0008200000156648457 0.03853899985551834
v 0.13787199556827545 -0.00165200000628829 0.042399000376462936
v 0.1395989954471588 0.0003490000090096146 0.038830000907182693
f 1 2 3
f 4 2 1
f 4 1 5
f 5 1 6
f 6 1 3
f 7 8 2
f 9 2 4
f 7 2 10
f 2 9 10
f 3 2 8
f 3 11 6
f 3 8 11
f 9 4 5
f 12 9 5
f 13 12 5
f 5 6 14
f 13 5 14
f 15 6 11
f 6 15 14
f 16 8 7
f 17 16 7
f 18 17 7
f 7 10 18
f 8 16 11
f 12 19 9
f 9 19 20
f 20 10 9
f 10 20 21
f 10 21 22
f 18 10 22
f 23 24 11
f 16 23 11
f 11 24 15
f 12 25 19
f 12 13 25
f 26 13 14
f 25 13 26
f 26 14 27
f 15 24 14
f 27 14 24
f 23 16 17
f 17 28 23
f 17 18 28
f 22 29 18
f 29 28 18
f 25 30 19
f 19 30 20
f 31 21 20
f 20 30 32
f 20 32 31
f 21 31 33
f 21 33 34
f 21 34 22
f 34 27 22
f 27 29 22
f 28 24 23
f 27 24 35
f 28 35 24
f 36 37 25
f 25 37 30
f 25 26 36
f 36 26 38
f 26 27 38
f 27 35 29
f 38 27 34
f 28 29 35
f 30 39 32
f 37 39 30
f 31 32 40
f 40 33 31
f 41 32 39
f 32 42 40
f 41 42 32
f 43 33 40
f 44 33 45
f 34 33 44
f 33 46 45
f 47 33 43
f 46 33 48
f 33 47 48
f 38 34 49
f 44 49 34
f 36 38 49
f 36 49 50
f 37 36 50
f 39 37 50
f 41 39 51
f 51 39 50
f 42 43 40
f 51 52 41
f 41 52 42
f 53 54 42
f 55 42 54
f 53 42 52
f 55 43 42
f 43 55 47
f 51 44 56
f 49 44 51
f 44 45 57
f 56 44 57
f 45 46 57
f 58 46 59
f 60 46 61
f 58 61 46
f 59 46 48
f 57 46 60
f 59 48 47
f 47 55 62
f 62 63 47
f 59 47 63
f 49 51 50
f 51 56 64
f 52 51 64
f 52 64 65
f 53 52 66
f 66 52 65
f 66 67 53
f 53 67 54
f 68 54 67
f 54 68 55
f 69 55 68
f 69 62 55
f 60 56 57
f 64 56 60
f 61 58 70
f 70 58 59
f 70 59 63
f 60 61 64
f 71 64 61
f 70 72 61
f 61 72 71
f 62 73 70
f 74 62 75
f 73 62 74
f 75 62 69
f 62 70 63
f 76 64 71
f 76 65 64
f 77 66 65
f 65 76 77
f 66 78 67
f 78 66 77
f 79 67 80
f 79 68 67
f 67 78 80
f 68 79 81
f 69 68 81
f 69 81 82
f 69 82 75
f 70 73 72
f 76 71 77
f 83 84 71
f 77 71 84
f 71 73 83
f 72 73 71
f 73 74 83
f 74 85 86
f 74 86 83
f 85 74 75
f 85 75 82
f 84 78 77
f 87 78 84
f 80 78 88
f 87 88 78
f 81 79 80
f 81 80 82
f 80 88 89
f 80 89 82
f 85 82 89
f 83 86 84
f 84 86 90
f 84 90 87
f 85 89 86
f 90 86 88
f 88 86 89
f 90 88 87
