# Generated by Visualization Toolkit
v 0.004308000206947327 -0.07650300115346909 0.04121600091457367
v 0.0004870000120718032 -0.07331100106239319 0.03927300125360489
v 0.0023129999171942472 -0.07639499753713608 0.0404449999332428
v 0.0016339999856427312 -0.08243899792432785 0.04123299941420555
v 0.0024659999180585146 -0.07453499734401703 0.04006100073456764
v 0.003907000180333853 -0.07982199639081955 0.04163900017738342
v 0.0037479999009519815 -0.07499399781227112 0.040667999535799026
v 0.004226000048220158 -0.0755700021982193 0.04092799872159958
v 0.004980999976396561 -0.07735099643468857 0.0412600003182888
v 0.0047079999931156635 -0.07602699846029282 0.040516000241041183
v 0.0006469999789260328 -0.07469599694013596 0.03956500068306923
v -0.000742000003810972 -0.06820899993181229 0.036139000207185745
v -0.0027389999013394117 -0.07110200077295303 0.03989199921488762
v 0.00043700000969693065 -0.07503899931907654 0.040038999170064926
v -0.0013000000035390258 -0.07278700172901154 0.04069500043988228
v 0.0015660000499337912 -0.07408499717712402 0.0382549986243248
v 0.00042699999175965786 -0.0721839964389801 0.035461001098155975
v -0.0006479999865405262 -0.08185099810361862 0.0399399995803833
v -0.0001049999991664663 -0.08374500274658203 0.039969999343156815
v 0.0009280000231228769 -0.07649300247430801 0.04022499918937683
v 0.0007360000163316727 -0.07802899926900864 0.04015599936246872
v 0.0005970000056549907 -0.08410300314426422 0.04041200131177902
v 0.003444999922066927 -0.0823260024189949 0.041294001042842865
v 0.001962000038474798 -0.08440999686717987 0.0405069999396801
v 0.0021269998978823423 -0.07475599646568298 0.038120001554489136
v 0.003719999920576811 -0.07469099760055542 0.03996099904179573
v 0.005115999840199947 -0.07846800237894058 0.04120799899101257
v 0.00457199988886714 -0.07576800137758255 0.0397690013051033
v 0.005111999809741974 -0.07700199633836746 0.04054399952292442
v -0.0039980001747608185 -0.06306099891662598 0.03650299832224846
v -0.0017359999474138021 -0.05826300010085106 0.034060001373291016
v -0.0011919999960809946 -0.061149001121520996 0.033045001327991486
v -0.0035379999317228794 -0.072223000228405 0.03993399813771248
v -0.0023159999400377274 -0.07276900112628937 0.04118200019001961
v 0.00008600000001024455 -0.0776899978518486 0.03974800184369087
v -0.0010679999832063913 -0.07412800192832947 0.040957000106573105
v 0.0016509999986737967 -0.07856400310993195 0.035287998616695404
v 0.0012499999720603228 -0.07773199677467346 0.03456899896264076
v -0.000024000000848900527 -0.07556100189685822 0.03223700076341629
v -0.002937000012025237 -0.0649930015206337 0.030817000195384026
v -0.0008110000053420663 -0.07283899933099747 0.03221699967980385
v -0.001062000053934753 -0.08343800157308578 0.039636000990867615
v -0.0008590000215917826 -0.08048900216817856 0.03959500044584274
v -0.0011889999732375145 -0.08117000013589859 0.03977299854159355
v -0.0016060000052675605 -0.08213099837303162 0.039767999202013016
v -0.00021800000104121864 -0.08437400311231613 0.040369998663663864
v 0.0006060000159777701 -0.08484099805355072 0.03976599872112274
v 0.003203999949619174 -0.08410199731588364 0.03948599845170975
v 0.005057999864220619 -0.0807809978723526 0.04028100147843361
v 0.0018609999679028988 -0.0851380005478859 0.03950899839401245
v 0.0013010000111535192 -0.08508700132369995 0.039799999445676804
v 0.005336000118404627 -0.07824700325727463 0.039135999977588654
v 0.005456999875605106 -0.0791030004620552 0.03885100036859512
v 0.004821999929845333 -0.08075200021266937 0.03707300126552582
v 0.005293000023812056 -0.07788900285959244 0.040437001734972
v -0.0063749998807907104 -0.06111299991607666 0.03450100123882294
v -0.00406000018119812 -0.05796699970960617 0.034561000764369965
v -0.001879999996162951 -0.050721000880002975 0.032391998916864395
v -0.0014929999597370625 -0.05344599857926369 0.03204699978232384
v -0.002334000077098608 -0.05319499969482422 0.03315899893641472
v -0.0037720000836998224 -0.060074999928474426 0.029371000826358795
v -0.002982999896630645 -0.0738689973950386 0.04125300049781799
v -0.004395999945700169 -0.07564599812030792 0.039645999670028687
v -0.002015999983996153 -0.07420500367879868 0.04165500029921532
v -0.0007389999809674919 -0.0791419968008995 0.03980199992656708
v -0.001988000003620982 -0.07662799954414368 0.04088100045919418
v 0.0020890000741928816 -0.0799809992313385 0.03446400165557861
v 0.0014169999631121755 -0.07948300242424011 0.033351998776197433
v 0.0009679999784566462 -0.07710299640893936 0.03139699995517731
v -0.0004149999876972288 -0.07558400183916092 0.03144799917936325
v -0.006936999969184399 -0.06547500193119049 0.029016999527812004
v -0.005537999793887138 -0.0716399997472763 0.02937999926507473
v -0.00266400002874434 -0.07594899833202362 0.030626999214291573
v -0.0010679999832063913 -0.08433900028467178 0.040084000676870346
v -0.0018599999602884054 -0.08387400209903717 0.03943200036883354
v -0.000999000039882958 -0.07997699826955795 0.03996799886226654
v -0.002022000029683113 -0.07943800091743469 0.04051300138235092
v -0.0023509999737143517 -0.08062300086021423 0.03999999910593033
v -0.002481000032275915 -0.08235599845647812 0.03942900151014328
v 0.0003539999888744205 -0.08572500199079514 0.03869999945163727
v 0.0038389998953789473 -0.0843840017914772 0.037271998822689056
v 0.005001000128686428 -0.08175300061702728 0.03988900035619736
v 0.004726999904960394 -0.08302000164985657 0.03861699998378754
v 0.001614999957382679 -0.08569200336933136 0.038359999656677246
v 0.0035830000415444374 -0.08432900160551071 0.036288000643253326
v 0.0016840000171214342 -0.08273500204086304 0.0335719995200634
v -0.0077309999614953995 -0.05453300103545189 0.029404999688267708
v -0.006699000019580126 -0.05411199852824211 0.03168800100684166
v -0.00748400017619133 -0.06540899723768234 0.029566999524831772
v -0.00735200010240078 -0.0703670009970665 0.03212900087237358
v -0.00544800003990531 -0.048183001577854156 0.031470999121665955
v -0.0065899998880922794 -0.051541998982429504 0.031209999695420265
v -0.0016980000073090196 -0.0483429990708828 0.031022999435663223
v -0.00216299993917346 -0.04792400076985359 0.031120000407099724
v -0.002626999979838729 -0.05048700049519539 0.032343000173568726
v -0.0013889999827370048 -0.04908299818634987 0.028410999104380608
v -0.004685999825596809 -0.05265999957919121 0.026413999497890472
v -0.006153999827802181 -0.05785499885678291 0.027197999879717827
v -0.0032250001095235348 -0.07695499807596207 0.040352001786231995
v -0.004631000105291605 -0.08052700012922287 0.03932800143957138
v -0.0029200001154094934 -0.07982899993658066 0.04061700031161308
v -0.005748999770730734 -0.08262299746274948 0.03579200059175491
v -0.005685000214725733 -0.07643300294876099 0.03610000014305115
v 0.0015079999575391412 -0.07932800054550171 0.03237700089812279
v 0.000957000011112541 -0.07906000316143036 0.031231999397277832
v 0.0002699999895412475 -0.07787299901247025 0.0305550005286932
v -0.0009180000051856041 -0.07639099657535553 0.031153999269008636
v -0.007162999827414751 -0.07057800143957138 0.029936999082565308
v -0.007689000107347965 -0.0500280000269413 0.026064999401569366
v -0.005154000129550695 -0.07366900146007538 0.029659999534487724
v -0.006316999904811382 -0.07400699704885483 0.02964000031352043
v -0.003470999887213111 -0.0772320032119751 0.030541999265551567
v -0.005805000197142363 -0.07669100165367126 0.02941099926829338
v -0.0020570000633597374 -0.08574900031089783 0.037092000246047974
v -0.0033470001071691513 -0.08392500132322311 0.03811800107359886
v -0.0027830000035464764 -0.08141999691724777 0.03975199908018112
v -0.003481999970972538 -0.08274500072002411 0.03893499821424484
v 0.0002099999983329326 -0.08621200174093246 0.0351330004632473
v -0.000539999979082495 -0.0848350003361702 0.033020999282598495
v 0.0010770000517368317 -0.083017997443676 0.03289100155234337
v 0.0008280000183731318 -0.08109000325202942 0.03176100179553032
v -0.007943999953567982 -0.049594998359680176 0.028056999668478966
v -0.007408999837934971 -0.07579100131988525 0.03215400129556656
v -0.007199999876320362 -0.07466500252485275 0.029836999252438545
v -0.002597999991849065 -0.04781400039792061 0.03163500130176544
v -0.004263000097125769 -0.0411049984395504 0.03121200017631054
v -0.005249999929219484 -0.041221000254154205 0.03094800002872944
v -0.006322000175714493 -0.04139599949121475 0.03002299927175045
v -0.007164000067859888 -0.04606400057673454 0.02901099994778633
v -0.007540999911725521 -0.04655800014734268 0.027386000379920006
v -0.0014570000348612666 -0.045903000980615616 0.030208000913262367
v -0.0020630001090466976 -0.04299100115895271 0.030905000865459442
v -0.0017800000496208668 -0.04525800049304962 0.03063799999654293
v -0.0008609999786131084 -0.04412800073623657 0.02773899957537651
v -0.0020890000741928816 -0.04345500096678734 0.02357099950313568
v -0.004203000105917454 -0.04780000075697899 0.02460400015115738
v -0.0050490000285208225 -0.04771900177001953 0.02419699914753437
v -0.004689999856054783 -0.08159200102090836 0.038651999086141586
v -0.004257999826222658 -0.08493799716234207 0.03444699943065643
v -0.005014999769628048 -0.08378499746322632 0.03279799968004227
v -0.005822000093758106 -0.08247900009155273 0.03286899998784065
v -0.006053000222891569 -0.08009699732065201 0.033583998680114746
v -0.007058999966830015 -0.07971200346946716 0.03213199973106384
v -0.0009549999958835542 -0.07939600199460983 0.030791999772191048
v -0.0024270000867545605 -0.07964599877595901 0.03148699924349785
v -0.0016090000281110406 -0.0804930031299591 0.03119800053536892
v -0.00303900009021163 -0.07912500202655792 0.03121899999678135
v -0.006699000019580126 -0.04729500040411949 0.025103000923991203
v -0.006976999808102846 -0.07507599890232086 0.029572999104857445
v -0.004790999926626682 -0.07966200262308121 0.03132700175046921
v -0.0054720002226531506 -0.07911600172519684 0.030484000220894814
v -0.007025000173598528 -0.07680299878120422 0.029673999175429344
v -0.003019999945536256 -0.08545400202274323 0.03413200005888939
v -0.0019099999917671084 -0.0854090005159378 0.03342600166797638
v -0.001724999980069697 -0.08272600173950195 0.03147900104522705
v -0.0012610000558197498 -0.08106999844312668 0.030796000733971596
v -0.00802600011229515 -0.07718399912118912 0.03135799989104271
v -0.0076790000312030315 -0.07695599645376205 0.03037399984896183
v -0.004321000073105097 -0.03614199906587601 0.031348999589681625
v -0.0054259998723864555 -0.037866998463869095 0.03131699934601784
v -0.003449999960139394 -0.04085800051689148 0.031106000766158104
v -0.005607999861240387 -0.03663399815559387 0.030882999300956726
v -0.007273999974131584 -0.03806700184941292 0.027480000630021095
v -0.006670000031590462 -0.04380299896001816 0.026115000247955322
v -0.007114999927580357 -0.04161199927330017 0.026384999975562096
v -0.005450000055134296 -0.04469799995422363 0.02361699938774109
v -0.001057000015862286 -0.04359700158238411 0.029918000102043152
v -0.00088900001719594 -0.041655998677015305 0.02977300062775612
v -0.0010580000234767795 -0.03827900066971779 0.029377000406384468
v -0.002595999976620078 -0.04087800160050392 0.030703000724315643
v -0.001142999972216785 -0.04005900025367737 0.0216279998421669
v 0.00046099998871795833 -0.040463000535964966 0.027581999078392982
v 0.0002410000015515834 -0.04024900123476982 0.02886899933218956
v -0.003335000015795231 -0.04176200181245804 0.02137799933552742
v -0.00430000014603138 -0.04539300128817558 0.023026999086141586
v -0.0044450000859797 -0.043251000344753265 0.02216999977827072
v -0.005245000123977661 -0.08203499764204025 0.03228599950671196
v -0.002167999977245927 -0.08046399801969528 0.031647998839616776
v -0.005764999892562628 -0.08096099644899368 0.031915999948978424
v -0.006105999927967787 -0.08069200068712234 0.032489001750946045
v -0.006453000009059906 -0.07998000085353851 0.03161099925637245
v -0.007323999889194965 -0.07922700047492981 0.03156200051307678
v -0.004850999917834997 -0.045125000178813934 0.023088999092578888
v -0.006711999885737896 -0.0793209969997406 0.031085999682545662
v -0.0077229999005794525 -0.07769499719142914 0.0304189994931221
v -0.003275000024586916 -0.03925999999046326 0.030966000631451607
v -0.0033009999897331 -0.03780600056052208 0.03115200065076351
v -0.0030519999563694 -0.036302000284194946 0.03123299963772297
v -0.005576000083237886 -0.03563600033521652 0.030897000804543495
v -0.004914000164717436 -0.03547300025820732 0.031700000166893005
v -0.006651000119745731 -0.03504699841141701 0.028099000453948975
v -0.007404000032693148 -0.037748999893665314 0.025495000183582306
v -0.005766000133007765 -0.04194499924778938 0.02284100092947483
v -0.007007000036537647 -0.03991800174117088 0.02238300070166588
v -0.0048329997807741165 -0.04328399896621704 0.022641999647021294
v 0.0010890000266954303 -0.03716599941253662 0.027696000412106514
v -0.0020439999643713236 -0.036166001111269 0.02981399931013584
v -0.0007660000119358301 -0.036692000925540924 0.02898699976503849
v -0.002383999992161989 -0.039308998733758926 0.03028300032019615
v 0.0007459999760612845 -0.035645000636577606 0.02815599925816059
v -0.002194999950006604 -0.03796600177884102 0.02990500070154667
v 0.0012000000569969416 -0.03774400055408478 0.022088000550866127
v -0.000666000007186085 -0.036653999239206314 0.01889299973845482
v -0.0013050000416114926 -0.0385500006377697 0.02029700018465519
v -0.0021120000164955854 -0.040251001715660095 0.021150000393390656
v 0.0007810000097379088 -0.03718699887394905 0.02069699950516224
v 0.0020620001014322042 -0.0363290011882782 0.025906000286340714
v 0.002094999887049198 -0.03645600005984306 0.024793999269604683
v -0.004296999890357256 -0.04209600016474724 0.021398000419139862
v -0.004474000073969364 -0.03994100168347359 0.02106199972331524
v -0.0029690000228583813 -0.04008999839425087 0.021018000319600105
v -0.004863999783992767 -0.04215399920940399 0.021599000319838524
v -0.003244000021368265 -0.03550399839878082 0.03171199932694435
v -0.0059739998541772366 -0.03489400073885918 0.03040199913084507
v -0.005247999913990498 -0.03475100174546242 0.031876999884843826
v -0.007373000029474497 -0.03377100080251694 0.024771999567747116
v -0.007145000156015158 -0.03489900007843971 0.026000000536441803
v -0.007670000195503235 -0.035548001527786255 0.025286000221967697
v -0.006686000153422356 -0.03305000066757202 0.027759000658988953
v -0.006434000097215176 -0.031821999698877335 0.028971999883651733
v -0.005107999779284 -0.04214699938893318 0.02254199981689453
v -0.007108000107109547 -0.0385419987142086 0.02033199928700924
v -0.006128999870270491 -0.04044000059366226 0.020997999235987663
v -0.007683999836444855 -0.0354590006172657 0.020687000826001167
v 0.00184599997010082 -0.035006001591682434 0.026406999677419662
v -0.001395000028423965 -0.03507399931550026 0.028790000826120377
v 0.0017810000572353601 -0.03303699940443039 0.026233000680804253
v 0.00021600000036414713 -0.03441900014877319 0.027463000267744064
v 0.002271000063046813 -0.035280000418424606 0.02474999986588955
v 0.0015429999912157655 -0.03578300029039383 0.02132200077176094
v 0.0008169999928213656 -0.03629399836063385 0.02011300064623356
v -0.001626000041142106 -0.035367000848054886 0.01800299994647503
v 0.000011000000085914508 -0.03649500012397766 0.019161999225616455
v -0.0009399999980814755 -0.03595000132918358 0.018319999799132347
v -0.002087000058963895 -0.03863300010561943 0.020677000284194946
v -0.002455000067129731 -0.03533799946308136 0.018293000757694244
v -0.0028639999218285084 -0.03604799881577492 0.018519999459385872
v -0.0026110000908374786 -0.03748200088739395 0.01991499960422516
v -0.005373999942094088 -0.039778001606464386 0.020796999335289
v -0.004333999939262867 -0.038384001702070236 0.021031999960541725
v -0.005429000128060579 -0.038026001304388046 0.020377999171614647
v -0.0032389999832957983 -0.03864999860525131 0.021112000569701195
v -0.003967000171542168 -0.03388899937272072 0.03193200007081032
v -0.002814000006765127 -0.034217000007629395 0.03154199942946434
v -0.005260000005364418 -0.03384200111031532 0.03170499950647354
v -0.0076939999125897884 -0.03482300043106079 0.025127999484539032
v -0.00647599995136261 -0.03173200041055679 0.025603000074625015
v -0.006661000195890665 -0.030160000547766685 0.021296000108122826
v -0.007945000194013119 -0.0336650013923645 0.022140000015497208
v -0.006783999968320131 -0.0311450008302927 0.024274000898003578
v -0.007013999857008457 -0.030889999121427536 0.023388000205159187
v -0.00646300008520484 -0.030540000647306442 0.025465000420808792
v -0.0066709998063743114 -0.030441999435424805 0.027367999777197838
v -0.006676000077277422 -0.03042599931359291 0.028362000361084938
v -0.005642999894917011 -0.03164299950003624 0.030125999823212624
v -0.006426000036299229 -0.03830600157380104 0.019888000562787056
v -0.0070779998786747456 -0.03743299841880798 0.019514000043272972
v -0.007269000168889761 -0.035684000700712204 0.019272999837994576
v -0.006723000202327967 -0.034699998795986176 0.019252000376582146
v -0.006943999789655209 -0.03389199823141098 0.019318999722599983
v 0.0018820000113919377 -0.03300200030207634 0.02531999908387661
v 0.0017239999724552035 -0.03288000077009201 0.024174999445676804
v 0.0015300000086426735 -0.03286699950695038 0.023138999938964844
v -0.000522000016644597 -0.03267800062894821 0.02695400081574917
v 0.0010300000431016088 -0.03096199966967106 0.024003000929951668
v 0.002337000099942088 -0.030267000198364258 0.023560000583529472
v 0.0021619999315589666 -0.03167299926280975 0.023933999240398407
v 0.0013180000241845846 -0.0334790013730526 0.020339999347925186
v 0.0005039999959990382 -0.03363500162959099 0.017959000542759895
v 0.0008290000259876251 -0.03320800140500069 0.019040999934077263
v -0.0004290000069886446 -0.03553000092506409 0.01821500062942505
v -0.0018070000223815441 -0.034627001732587814 0.017687000334262848
v -0.001765000051818788 -0.0340769998729229 0.017928000539541245
v -0.0031190000008791685 -0.03531700000166893 0.018285000696778297
v -0.002492999890819192 -0.03439699858427048 0.01811099983751774
v -0.003148999996483326 -0.03697099909186363 0.01910099945962429
v -0.003806999884545803 -0.037755999714136124 0.020246999338269234
v -0.004466000013053417 -0.03740699961781502 0.02043999917805195
v -0.005135999992489815 -0.0361500009894371 0.019547000527381897
v -0.005646999925374985 -0.03614800050854683 0.01960100047290325
v -0.006424000021070242 -0.035638999193906784 0.01858600042760372
v -0.0034749999176710844 -0.03756700083613396 0.0197720006108284
v -0.002698000054806471 -0.03308200091123581 0.030747000128030777
v -0.003918999806046486 -0.03280000016093254 0.031373001635074615
v -0.0039820000529289246 -0.031387001276016235 0.030431000515818596
v -0.00646300008520484 -0.030132999643683434 0.02421100065112114
v -0.006147999782115221 -0.03155200183391571 0.01916399970650673
v -0.006568999961018562 -0.028578000143170357 0.020795999094843864
v -0.00659599993377924 -0.029225999489426613 0.02175999991595745
v -0.006258999928832054 -0.028821000829339027 0.02171899937093258
v -0.006845000199973583 -0.02995000034570694 0.0234839990735054
v -0.005913999862968922 -0.029471000656485558 0.024354999884963036
v -0.005752999801188707 -0.028245000168681145 0.02664799988269806
v -0.005452000070363283 -0.028572000563144684 0.02475699968636036
v -0.006405999884009361 -0.028355000540614128 0.02791599929332733
v -0.0063149998895823956 -0.028953000903129578 0.02872299961745739
v -0.004511999897658825 -0.0278329998254776 0.028876999393105507
v -0.00698699988424778 -0.03658699989318848 0.01901400089263916
v -0.006140999961644411 -0.034040000289678574 0.01867399923503399
v -0.006155999843031168 -0.033201999962329865 0.01888200081884861
v 0.002749999985098839 -0.030672000721096992 0.02320699952542782
v 0.0023350000847131014 -0.031123999506235123 0.022050999104976654
v -0.0003440000000409782 -0.0303530003875494 0.02406200021505356
v 0.0006929999799467623 -0.029110999777913094 0.02316500060260296
v 0.0005779999773949385 -0.027793999761343002 0.022072000429034233
v 0.0022750000935047865 -0.029573999345302582 0.022955000400543213
v 0.001918999943882227 -0.03209000080823898 0.020054999738931656
v 0.0006060000159777701 -0.03301699832081795 0.01755400002002716
v -0.0002579999854788184 -0.03373799845576286 0.017493000254034996
v 0.0014179999707266688 -0.03151300176978111 0.01860000006854534
v 0.0012959999730810523 -0.031787000596523285 0.01730700023472309
v -0.0012150000547990203 -0.03383500128984451 0.017703000456094742
v -0.0018070000223815441 -0.033622000366449356 0.017602000385522842
v -0.0015640000347048044 -0.03330500051379204 0.018052000552415848
v -0.003413999918848276 -0.034651000052690506 0.01838899962604046
v -0.003596999915316701 -0.03609500080347061 0.01858600042760372
v -0.0029070000164210796 -0.03365999832749367 0.017906999215483665
v -0.004333000164479017 -0.03640900179743767 0.019385000690817833
v -0.004755999892950058 -0.03595200181007385 0.019058000296354294
v -0.005135000217705965 -0.0351950004696846 0.019101999700069427
v -0.004784000106155872 -0.03505000099539757 0.018705999478697777
v -0.005661000031977892 -0.035312000662088394 0.019096000120043755
v -0.0056870002299547195 -0.034442998468875885 0.01865999959409237
v -0.003982999827712774 -0.03552699834108353 0.018532000482082367
v -0.006521000061184168 -0.029378000646829605 0.02353299967944622
v -0.005104000214487314 -0.033383000642061234 0.01878499984741211
v -0.005960999988019466 -0.02961299940943718 0.019392000511288643
v -0.006517999805510044 -0.02905699983239174 0.0200360007584095
v -0.005874999798834324 -0.028410999104380608 0.021511999890208244
v -0.005905000027269125 -0.028668999671936035 0.02079400047659874
v -0.006711000110954046 -0.029117999598383904 0.022871999070048332
v -0.005739999935030937 -0.028728999197483063 0.022259000688791275
v -0.006051999982446432 -0.029138000681996346 0.023753000423312187
v -0.005022999830543995 -0.027925999835133553 0.024424999952316284
v -0.004484999924898148 -0.027347000315785408 0.025465000420808792
v -0.005419000051915646 -0.02783999964594841 0.027388999238610268
v -0.0018739999504759908 -0.02712400071322918 0.025310000404715538
v 0.002626999979838729 -0.030239999294281006 0.02268099971115589
v 0.002068999921903014 -0.03086799941956997 0.02033800072968006
v -0.00039999998989515007 -0.027313999831676483 0.022693999111652374
v 0.0018779999809339643 -0.02899100072681904 0.022419000044465065
v -0.00019799999427050352 -0.02703000046312809 0.02217699959874153
v -0.0017930000321939588 -0.027365000918507576 0.02137799933552742
v -0.000623999978415668 -0.02782999910414219 0.020181000232696533
v 0.0023300000466406345 -0.029495999217033386 0.022391999140381813
v -0.0006520000169984996 -0.03249499946832657 0.017211999744176865
v -0.000295000005280599 -0.032175999134778976 0.016899000853300095
v -0.002093000104650855 -0.02907799929380417 0.018353000283241272
v 0.0012829999905079603 -0.031065000221133232 0.017695000395178795
v 0.00006600000051548705 -0.030705999583005905 0.016930999234318733
v -0.0037930000107735395 -0.030717000365257263 0.01805499941110611
v -0.0017640000442042947 -0.03281699866056442 0.017479000613093376
v -0.001664999988861382 -0.032113999128341675 0.017880000174045563
v -0.0036150000523775816 -0.033702000975608826 0.018518000841140747
v -0.004009999800473452 -0.032864999026060104 0.01839599944651127
v -0.005150000099092722 -0.03421600162982941 0.018859000876545906
v -0.006442999932914972 -0.028756000101566315 0.023159999400377274
v -0.0048779998905956745 -0.03246400132775307 0.018503999337553978
v -0.006142999976873398 -0.02848299965262413 0.019852999597787857
v -0.005816000048071146 -0.028821999207139015 0.019252000376582146
v -0.005173000041395426 -0.02909800037741661 0.0186769999563694
v -0.004987999796867371 -0.031032999977469444 0.018828000873327255
v -0.0047599999234080315 -0.028226999565958977 0.02098100073635578
v -0.004916999954730272 -0.028258999809622765 0.021688999608159065
v -0.004681000020354986 -0.028186999261379242 0.02020999975502491
v -0.0053369998931884766 -0.02831299975514412 0.022746000438928604
v -0.005386000033468008 -0.028286000713706017 0.023530999198555946
v -0.004110000096261501 -0.027986999601125717 0.024056000635027885
v -0.0026310000102967024 -0.027465999126434326 0.02352599985897541
v 0.002329000039026141 -0.030141999945044518 0.021709000691771507
v -0.0014489999739453197 -0.028199000284075737 0.01906600035727024
v -0.0028180000372231007 -0.027948999777436256 0.0205329991877079
v -0.00029799999902024865 -0.028124000877141953 0.019812999293208122
v -0.0015300000086426735 -0.03180199861526489 0.01742199994623661
v -0.001496999990195036 -0.030810000374913216 0.01704300008714199
v -0.0016250000335276127 -0.03135399892926216 0.017124999314546585
v -0.002848000032827258 -0.028967000544071198 0.018122000619769096
v -0.003653000108897686 -0.02875700034201145 0.01888200081884861
v -0.0031999999191612005 -0.0293589998036623 0.018358999863266945
v -0.0046190000139176846 -0.029015999287366867 0.0185139998793602
v -0.004327000118792057 -0.03160800039768219 0.01838099956512451
v -0.005158999934792519 -0.02828899957239628 0.018861999735236168
v -0.0047690002247691154 -0.03049200028181076 0.018679000437259674
v -0.0012880000285804272 -0.028091000393033028 0.01958400011062622
f 1 2 3
f 3 4 1
f 2 1 5
f 4 6 1
f 1 7 5
f 8 7 1
f 1 6 9
f 8 1 10
f 9 10 1
f 3 2 11
f 12 13 2
f 2 14 11
f 15 14 2
f 13 15 2
f 2 5 16
f 16 17 2
f 2 17 12
f 18 19 3
f 3 20 21
f 3 21 18
f 3 11 20
f 3 19 4
f 19 22 4
f 23 4 24
f 6 4 23
f 4 22 24
f 25 5 26
f 5 7 26
f 5 25 16
f 6 27 9
f 23 27 6
f 8 26 7
f 26 8 28
f 28 8 10
f 27 29 9
f 9 29 10
f 29 28 10
f 14 20 11
f 13 12 30
f 31 30 12
f 32 31 12
f 12 17 32
f 13 33 34
f 15 13 34
f 30 33 13
f 35 20 14
f 14 15 36
f 35 14 36
f 36 15 34
f 25 17 16
f 25 37 17
f 38 39 17
f 17 37 38
f 17 40 32
f 40 17 41
f 17 39 41
f 42 19 18
f 18 43 44
f 43 18 21
f 44 45 18
f 45 42 18
f 46 22 19
f 42 46 19
f 35 21 20
f 35 43 21
f 24 22 47
f 46 47 22
f 48 23 24
f 27 23 49
f 48 49 23
f 50 24 51
f 50 48 24
f 51 24 47
f 25 26 28
f 25 28 52
f 53 25 52
f 53 54 25
f 37 25 54
f 49 55 27
f 29 27 55
f 28 29 52
f 52 29 55
f 56 33 30
f 57 30 31
f 30 57 56
f 58 31 59
f 60 31 58
f 31 60 57
f 31 32 59
f 61 59 32
f 40 61 32
f 34 33 62
f 33 56 63
f 33 63 62
f 36 34 64
f 34 62 64
f 65 43 35
f 66 35 64
f 35 66 65
f 64 35 36
f 37 67 68
f 37 54 67
f 38 37 68
f 38 69 39
f 68 69 38
f 39 70 41
f 39 69 70
f 71 61 40
f 72 40 73
f 72 71 40
f 73 40 41
f 70 73 41
f 74 46 42
f 75 74 42
f 45 75 42
f 44 43 76
f 43 65 76
f 77 44 66
f 66 44 76
f 78 44 77
f 44 78 45
f 79 75 45
f 78 79 45
f 46 74 47
f 51 47 80
f 74 80 47
f 50 81 48
f 49 48 82
f 83 82 48
f 81 83 48
f 52 49 53
f 52 55 49
f 82 53 49
f 80 50 51
f 84 50 80
f 84 81 50
f 83 54 53
f 83 53 82
f 85 54 83
f 86 54 85
f 54 86 67
f 87 56 88
f 56 87 89
f 90 63 56
f 89 90 56
f 57 88 56
f 60 91 57
f 57 92 88
f 57 91 92
f 59 93 58
f 94 58 93
f 58 94 95
f 60 58 95
f 59 96 93
f 97 59 61
f 97 96 59
f 91 60 95
f 98 97 61
f 71 98 61
f 66 62 99
f 62 66 64
f 99 62 63
f 100 101 63
f 102 100 63
f 99 63 101
f 63 90 103
f 63 103 102
f 66 76 65
f 66 99 101
f 101 77 66
f 86 68 67
f 104 69 68
f 86 104 68
f 69 105 106
f 104 105 69
f 106 70 69
f 73 70 107
f 107 70 106
f 108 71 72
f 89 109 71
f 71 108 89
f 71 109 98
f 73 110 72
f 72 110 111
f 108 72 111
f 107 112 73
f 73 112 113
f 73 113 110
f 114 74 75
f 114 80 74
f 115 75 79
f 115 114 75
f 101 78 77
f 116 78 101
f 116 79 78
f 117 115 79
f 116 117 79
f 80 118 84
f 114 118 80
f 118 81 84
f 85 83 81
f 85 81 118
f 119 86 85
f 118 119 85
f 86 119 120
f 86 121 104
f 121 86 120
f 88 92 87
f 109 89 87
f 109 87 122
f 92 122 87
f 90 89 108
f 123 90 124
f 123 103 90
f 124 90 108
f 125 91 95
f 125 126 91
f 127 92 91
f 126 127 91
f 92 127 128
f 129 92 128
f 92 130 122
f 92 129 130
f 131 94 93
f 131 93 96
f 94 132 125
f 94 131 133
f 95 94 125
f 132 94 133
f 96 134 131
f 96 135 134
f 96 97 136
f 135 96 136
f 137 136 97
f 97 98 137
f 109 137 98
f 101 100 117
f 117 100 138
f 102 138 100
f 101 117 116
f 102 114 115
f 102 139 114
f 117 102 115
f 138 102 117
f 140 139 102
f 141 140 102
f 103 142 102
f 102 142 141
f 103 123 143
f 142 103 143
f 105 104 121
f 106 105 144
f 144 105 121
f 144 107 106
f 145 107 146
f 147 107 145
f 147 112 107
f 146 107 144
f 108 111 124
f 122 148 109
f 109 148 137
f 111 110 113
f 149 111 113
f 111 149 124
f 150 151 112
f 112 147 150
f 151 113 112
f 152 113 151
f 152 149 113
f 114 139 153
f 114 153 118
f 154 119 118
f 118 153 154
f 119 155 120
f 155 119 154
f 120 156 121
f 156 120 155
f 144 121 156
f 148 122 130
f 124 157 123
f 123 157 143
f 157 124 158
f 158 124 149
f 126 125 132
f 159 160 126
f 161 159 126
f 132 161 126
f 126 160 127
f 160 128 127
f 128 160 162
f 129 128 163
f 162 163 128
f 164 129 165
f 129 164 130
f 165 129 163
f 166 130 164
f 166 148 130
f 131 134 167
f 133 131 167
f 168 169 132
f 161 132 170
f 132 133 168
f 132 169 170
f 133 167 168
f 134 171 172
f 171 134 135
f 173 134 172
f 173 167 134
f 171 135 174
f 135 136 175
f 176 174 135
f 175 176 135
f 175 136 137
f 148 175 137
f 139 140 153
f 140 154 153
f 155 154 140
f 141 177 140
f 140 178 155
f 177 178 140
f 141 179 177
f 141 142 180
f 179 141 180
f 180 142 143
f 181 180 143
f 182 181 143
f 182 143 157
f 144 156 146
f 146 178 145
f 178 147 145
f 156 155 146
f 146 155 178
f 178 150 147
f 175 148 183
f 183 148 166
f 152 158 149
f 184 151 150
f 150 179 181
f 177 150 178
f 177 179 150
f 184 150 181
f 158 152 151
f 185 158 151
f 184 185 151
f 157 158 185
f 185 182 157
f 160 159 162
f 159 161 186
f 159 187 188
f 159 189 162
f 186 187 159
f 189 159 190
f 188 190 159
f 186 161 170
f 162 191 163
f 162 189 191
f 165 163 192
f 192 163 191
f 193 164 165
f 164 193 166
f 165 194 193
f 165 192 194
f 166 195 183
f 195 166 193
f 167 173 168
f 169 168 173
f 173 196 169
f 197 169 198
f 169 199 170
f 198 169 200
f 169 197 201
f 169 201 199
f 196 200 169
f 186 170 199
f 172 171 202
f 203 171 204
f 205 204 171
f 174 205 171
f 206 202 171
f 203 206 171
f 172 196 173
f 207 172 208
f 172 202 208
f 196 172 207
f 174 176 209
f 174 210 211
f 205 174 211
f 210 174 209
f 183 176 175
f 209 176 212
f 195 212 176
f 183 195 176
f 181 179 180
f 182 184 181
f 182 185 184
f 199 187 186
f 188 187 201
f 187 199 201
f 197 213 188
f 188 201 197
f 188 213 190
f 191 189 214
f 214 189 190
f 214 190 215
f 213 215 190
f 191 216 217
f 192 191 218
f 218 191 217
f 216 191 219
f 220 219 191
f 214 220 191
f 194 192 218
f 221 195 193
f 194 221 193
f 222 223 194
f 194 223 221
f 194 218 224
f 222 194 224
f 212 195 221
f 225 196 207
f 225 200 196
f 197 198 226
f 226 213 197
f 198 200 226
f 227 228 200
f 228 226 200
f 225 227 200
f 229 208 202
f 229 202 230
f 202 231 230
f 202 206 231
f 204 232 203
f 203 233 206
f 203 234 233
f 203 232 234
f 204 205 235
f 232 204 236
f 236 204 237
f 238 237 204
f 235 238 204
f 235 205 211
f 206 233 231
f 208 229 207
f 225 207 229
f 239 209 212
f 239 210 209
f 211 210 240
f 241 210 239
f 210 241 240
f 235 211 242
f 211 240 242
f 212 223 239
f 223 212 221
f 243 213 244
f 226 244 213
f 215 213 243
f 215 220 214
f 220 215 245
f 245 215 243
f 217 216 246
f 219 247 216
f 216 248 249
f 216 249 246
f 216 247 250
f 250 251 216
f 248 216 251
f 218 217 246
f 218 249 224
f 246 249 218
f 252 219 253
f 252 247 219
f 219 254 253
f 219 220 254
f 220 245 255
f 220 255 254
f 223 222 256
f 257 256 222
f 257 222 258
f 222 224 258
f 239 223 256
f 258 224 259
f 259 224 260
f 224 249 260
f 227 225 261
f 261 225 262
f 225 263 262
f 263 225 229
f 264 226 228
f 264 244 226
f 228 227 265
f 266 265 227
f 267 266 227
f 261 267 227
f 264 228 265
f 230 263 229
f 268 263 230
f 230 269 270
f 230 270 268
f 230 271 269
f 231 271 230
f 233 271 231
f 236 272 232
f 234 232 233
f 234 233 232
f 272 273 232
f 234 232 272
f 232 273 272
f 234 271 233
f 234 273 271
f 272 273 234
f 242 238 235
f 274 275 236
f 236 275 272
f 236 237 274
f 237 276 274
f 237 238 276
f 238 242 276
f 239 256 241
f 242 240 277
f 240 241 278
f 277 240 278
f 279 241 280
f 279 278 241
f 241 281 280
f 241 256 281
f 282 242 277
f 282 276 242
f 283 243 244
f 283 284 243
f 284 245 243
f 283 244 264
f 255 245 285
f 285 245 284
f 286 247 252
f 247 286 250
f 249 248 287
f 287 248 288
f 289 248 251
f 248 289 290
f 288 248 290
f 249 287 260
f 286 291 250
f 250 291 251
f 289 251 291
f 252 253 292
f 252 292 286
f 253 293 294
f 253 295 293
f 253 294 292
f 295 253 254
f 296 254 255
f 296 295 254
f 296 255 297
f 297 255 285
f 298 256 257
f 256 298 281
f 257 258 298
f 299 258 259
f 281 298 258
f 299 281 258
f 300 259 260
f 300 299 259
f 287 300 260
f 262 267 261
f 266 262 301
f 266 267 262
f 262 302 301
f 302 262 263
f 302 263 268
f 264 265 303
f 303 283 264
f 265 266 304
f 303 265 304
f 266 305 304
f 305 266 306
f 266 301 306
f 268 270 307
f 307 302 268
f 269 308 270
f 309 308 269
f 271 309 269
f 307 270 310
f 270 308 311
f 310 270 311
f 273 312 271
f 309 271 312
f 275 313 272
f 313 273 272
f 273 314 312
f 313 314 273
f 274 315 275
f 274 316 315
f 316 274 276
f 275 317 313
f 275 315 317
f 282 316 276
f 277 278 282
f 278 318 282
f 319 278 279
f 278 319 318
f 280 320 279
f 279 321 319
f 279 320 321
f 320 280 322
f 322 280 281
f 323 322 281
f 323 281 299
f 318 324 282
f 316 282 324
f 284 283 303
f 284 303 285
f 285 303 297
f 286 292 325
f 291 286 325
f 326 287 327
f 287 326 300
f 327 287 328
f 288 328 287
f 329 330 288
f 288 290 329
f 288 330 328
f 291 331 289
f 290 289 331
f 329 290 332
f 332 290 331
f 331 291 325
f 292 294 333
f 325 292 333
f 294 293 334
f 334 293 335
f 336 335 293
f 295 336 293
f 333 294 334
f 295 296 297
f 295 297 336
f 337 297 303
f 297 337 335
f 335 336 297
f 326 299 300
f 299 326 323
f 301 338 306
f 338 301 302
f 302 339 338
f 339 302 307
f 340 337 303
f 303 304 340
f 304 305 340
f 305 306 341
f 305 342 340
f 343 342 305
f 344 305 341
f 344 343 305
f 306 345 341
f 306 338 345
f 339 307 310
f 308 309 346
f 308 346 347
f 311 308 347
f 346 309 312
f 339 310 348
f 311 349 310
f 310 349 348
f 350 311 347
f 350 349 311
f 346 312 314
f 351 313 317
f 351 352 313
f 352 353 313
f 313 353 314
f 314 353 346
f 315 324 354
f 315 316 324
f 315 354 317
f 355 317 354
f 355 351 317
f 319 321 318
f 318 321 324
f 320 356 321
f 356 320 322
f 321 354 324
f 356 355 321
f 355 354 321
f 356 322 323
f 356 323 326
f 325 333 357
f 331 325 357
f 358 326 327
f 358 356 326
f 359 360 327
f 360 361 327
f 327 328 359
f 362 327 361
f 362 358 327
f 330 359 328
f 329 363 330
f 329 332 364
f 364 363 329
f 363 365 330
f 330 365 359
f 332 331 357
f 366 332 357
f 364 332 366
f 357 333 367
f 367 333 334
f 368 367 334
f 368 334 335
f 342 335 337
f 342 369 335
f 335 369 368
f 340 342 337
f 338 370 345
f 338 339 370
f 371 370 339
f 348 371 339
f 344 341 345
f 343 369 342
f 343 364 368
f 364 343 344
f 343 368 369
f 372 344 373
f 373 344 345
f 364 344 372
f 373 345 370
f 346 353 374
f 347 346 374
f 375 347 376
f 375 350 347
f 347 374 376
f 348 349 350
f 377 348 350
f 378 371 348
f 378 348 377
f 377 350 375
f 374 352 351
f 376 351 379
f 351 376 374
f 379 351 380
f 381 380 351
f 381 351 355
f 353 352 374
f 358 355 356
f 381 355 358
f 367 366 357
f 362 381 358
f 382 360 359
f 365 382 359
f 360 382 361
f 361 383 362
f 361 381 383
f 381 361 380
f 380 361 382
f 362 383 381
f 363 372 365
f 364 372 363
f 364 366 368
f 378 365 372
f 365 378 382
f 367 368 366
f 384 373 370
f 371 384 370
f 371 378 372
f 371 372 384
f 372 373 384
f 377 375 379
f 375 376 379
f 378 377 379
f 379 382 378
f 379 380 382
