# Generated by Visualization Toolkit
v 0.0023129999171942472 -0.07639499753713608 -0.0404449999332428
v 0.0004870000120718032 -0.07331100106239319 -0.03927300125360489
v 0.004308000206947327 -0.07650300115346909 -0.04121600091457367
v -0.0001049999991664663 -0.08374500274658203 -0.039969999343156815
v -0.0006479999865405262 -0.08185099810361862 -0.0399399995803833
v 0.0016339999856427312 -0.08243899792432785 -0.04123299941420555
v 0.0007360000163316727 -0.07802899926900864 -0.04015599936246872
v 0.0009280000231228769 -0.07649300247430801 -0.04022499918937683
v 0.0006469999789260328 -0.07469599694013596 -0.03956500068306923
v -0.0027389999013394117 -0.07110200077295303 -0.03989199921488762
v -0.000742000003810972 -0.06820899993181229 -0.036139000207185745
v 0.0024659999180585146 -0.07453499734401703 -0.04006100073456764
v 0.00043700000969693065 -0.07503899931907654 -0.040038999170064926
v -0.0013000000035390258 -0.07278700172901154 -0.04069500043988228
v 0.0015660000499337912 -0.07408499717712402 -0.0382549986243248
v 0.00042699999175965786 -0.0721839964389801 -0.035461001098155975
v 0.003907000180333853 -0.07982199639081955 -0.04163900017738342
v 0.0037479999009519815 -0.07499399781227112 -0.040667999535799026
v 0.004226000048220158 -0.0755700021982193 -0.04092799872159958
v 0.004980999976396561 -0.07735099643468857 -0.0412600003182888
v 0.0047079999931156635 -0.07602699846029282 -0.040516000241041183
v 0.0005970000056549907 -0.08410300314426422 -0.04041200131177902
v -0.00021800000104121864 -0.08437400311231613 -0.040369998663663864
v -0.001062000053934753 -0.08343800157308578 -0.039636000990867615
v -0.0011889999732375145 -0.08117000013589859 -0.03977299854159355
v -0.0008590000215917826 -0.08048900216817856 -0.03959500044584274
v -0.0016060000052675605 -0.08213099837303162 -0.039767999202013016
v 0.001962000038474798 -0.08440999686717987 -0.0405069999396801
v 0.003444999922066927 -0.0823260024189949 -0.041294001042842865
v 0.00008600000001024455 -0.0776899978518486 -0.03974800184369087
v -0.0023159999400377274 -0.07276900112628937 -0.04118200019001961
v -0.0035379999317228794 -0.072223000228405 -0.03993399813771248
v -0.0039980001747608185 -0.06306099891662598 -0.03650299832224846
v -0.0017359999474138021 -0.05826300010085106 -0.034060001373291016
v -0.0011919999960809946 -0.061149001121520996 -0.033045001327991486
v 0.003719999920576811 -0.07469099760055542 -0.03996099904179573
v 0.0021269998978823423 -0.07475599646568298 -0.038120001554489136
v -0.0010679999832063913 -0.07412800192832947 -0.040957000106573105
v 0.0016509999986737967 -0.07856400310993195 -0.035287998616695404
v -0.000024000000848900527 -0.07556100189685822 -0.03223700076341629
v 0.0012499999720603228 -0.07773199677467346 -0.03456899896264076
v -0.002937000012025237 -0.0649930015206337 -0.030817000195384026
v -0.0008110000053420663 -0.07283899933099747 -0.03221699967980385
v 0.005115999840199947 -0.07846800237894058 -0.04120799899101257
v 0.00457199988886714 -0.07576800137758255 -0.0397690013051033
v 0.005111999809741974 -0.07700199633836746 -0.04054399952292442
v 0.0006060000159777701 -0.08484099805355072 -0.03976599872112274
v -0.0010679999832063913 -0.08433900028467178 -0.040084000676870346
v -0.0018599999602884054 -0.08387400209903717 -0.03943200036883354
v -0.000999000039882958 -0.07997699826955795 -0.03996799886226654
v -0.001988000003620982 -0.07662799954414368 -0.04088100045919418
v -0.002022000029683113 -0.07943800091743469 -0.04051300138235092
v -0.0023509999737143517 -0.08062300086021423 -0.03999999910593033
v -0.0007389999809674919 -0.0791419968008995 -0.03980199992656708
v -0.002481000032275915 -0.08235599845647812 -0.03942900151014328
v 0.0013010000111535192 -0.08508700132369995 -0.039799999445676804
v 0.0018609999679028988 -0.0851380005478859 -0.03950899839401245
v 0.003203999949619174 -0.08410199731588364 -0.03948599845170975
v 0.005057999864220619 -0.0807809978723526 -0.04028100147843361
v -0.002015999983996153 -0.07420500367879868 -0.04165500029921532
v -0.002982999896630645 -0.0738689973950386 -0.04125300049781799
v -0.0063749998807907104 -0.06111299991607666 -0.03450100123882294
v -0.004395999945700169 -0.07564599812030792 -0.039645999670028687
v -0.00406000018119812 -0.05796699970960617 -0.034561000764369965
v -0.0014929999597370625 -0.05344599857926369 -0.03204699978232384
v -0.001879999996162951 -0.050721000880002975 -0.032391998916864395
v -0.002334000077098608 -0.05319499969482422 -0.03315899893641472
v -0.0037720000836998224 -0.060074999928474426 -0.029371000826358795
v 0.005336000118404627 -0.07824700325727463 -0.039135999977588654
v 0.005456999875605106 -0.0791030004620552 -0.03885100036859512
v 0.004821999929845333 -0.08075200021266937 -0.03707300126552582
v 0.0014169999631121755 -0.07948300242424011 -0.033351998776197433
v 0.0020890000741928816 -0.0799809992313385 -0.03446400165557861
v 0.0009679999784566462 -0.07710299640893936 -0.03139699995517731
v -0.0004149999876972288 -0.07558400183916092 -0.03144799917936325
v -0.006936999969184399 -0.06547500193119049 -0.029016999527812004
v -0.00266400002874434 -0.07594899833202362 -0.030626999214291573
v -0.005537999793887138 -0.0716399997472763 -0.02937999926507473
v 0.005293000023812056 -0.07788900285959244 -0.040437001734972
v 0.0003539999888744205 -0.08572500199079514 -0.03869999945163727
v -0.0020570000633597374 -0.08574900031089783 -0.037092000246047974
v -0.0033470001071691513 -0.08392500132322311 -0.03811800107359886
v -0.0032250001095235348 -0.07695499807596207 -0.040352001786231995
v -0.0029200001154094934 -0.07982899993658066 -0.04061700031161308
v -0.0027830000035464764 -0.08141999691724777 -0.03975199908018112
v -0.003481999970972538 -0.08274500072002411 -0.03893499821424484
v 0.001614999957382679 -0.08569200336933136 -0.038359999656677246
v 0.0038389998953789473 -0.0843840017914772 -0.037271998822689056
v 0.005001000128686428 -0.08175300061702728 -0.03988900035619736
v 0.004726999904960394 -0.08302000164985657 -0.03861699998378754
v -0.006699000019580126 -0.05411199852824211 -0.03168800100684166
v -0.0077309999614953995 -0.05453300103545189 -0.029404999688267708
v -0.00748400017619133 -0.06540899723768234 -0.029566999524831772
v -0.00735200010240078 -0.0703670009970665 -0.03212900087237358
v -0.004631000105291605 -0.08052700012922287 -0.03932800143957138
v -0.005748999770730734 -0.08262299746274948 -0.03579200059175491
v -0.005685000214725733 -0.07643300294876099 -0.03610000014305115
v -0.00544800003990531 -0.048183001577854156 -0.031470999121665955
v -0.0065899998880922794 -0.051541998982429504 -0.031209999695420265
v -0.0016980000073090196 -0.0483429990708828 -0.031022999435663223
v -0.0013889999827370048 -0.04908299818634987 -0.028410999104380608
v -0.004685999825596809 -0.05265999957919121 -0.026413999497890472
v -0.00216299993917346 -0.04792400076985359 -0.031120000407099724
v -0.002626999979838729 -0.05048700049519539 -0.032343000173568726
v -0.006153999827802181 -0.05785499885678291 -0.027197999879717827
v 0.0035830000415444374 -0.08432900160551071 -0.036288000643253326
v 0.0016840000171214342 -0.08273500204086304 -0.0335719995200634
v 0.0015079999575391412 -0.07932800054550171 -0.03237700089812279
v 0.0002699999895412475 -0.07787299901247025 -0.0305550005286932
v 0.000957000011112541 -0.07906000316143036 -0.031231999397277832
v -0.0009180000051856041 -0.07639099657535553 -0.031153999269008636
v -0.007162999827414751 -0.07057800143957138 -0.029936999082565308
v -0.007689000107347965 -0.0500280000269413 -0.026064999401569366
v -0.003470999887213111 -0.0772320032119751 -0.030541999265551567
v -0.005805000197142363 -0.07669100165367126 -0.02941099926829338
v -0.005154000129550695 -0.07366900146007538 -0.029659999534487724
v -0.006316999904811382 -0.07400699704885483 -0.02964000031352043
v 0.0002099999983329326 -0.08621200174093246 -0.0351330004632473
v -0.003019999945536256 -0.08545400202274323 -0.03413200005888939
v -0.004257999826222658 -0.08493799716234207 -0.03444699943065643
v -0.004689999856054783 -0.08159200102090836 -0.038651999086141586
v -0.007943999953567982 -0.049594998359680176 -0.028056999668478966
v -0.007199999876320362 -0.07466500252485275 -0.029836999252438545
v -0.007408999837934971 -0.07579100131988525 -0.03215400129556656
v -0.005014999769628048 -0.08378499746322632 -0.03279799968004227
v -0.005822000093758106 -0.08247900009155273 -0.03286899998784065
v -0.006053000222891569 -0.08009699732065201 -0.033583998680114746
v -0.007058999966830015 -0.07971200346946716 -0.03213199973106384
v -0.002597999991849065 -0.04781400039792061 -0.03163500130176544
v -0.004263000097125769 -0.0411049984395504 -0.03121200017631054
v -0.005249999929219484 -0.041221000254154205 -0.03094800002872944
v -0.006322000175714493 -0.04139599949121475 -0.03002299927175045
v -0.007164000067859888 -0.04606400057673454 -0.02901099994778633
v -0.007540999911725521 -0.04655800014734268 -0.027386000379920006
v -0.0014570000348612666 -0.045903000980615616 -0.030208000913262367
v -0.0008609999786131084 -0.04412800073623657 -0.02773899957537651
v -0.0020890000741928816 -0.04345500096678734 -0.02357099950313568
v -0.004203000105917454 -0.04780000075697899 -0.02460400015115738
v -0.0050490000285208225 -0.04771900177001953 -0.02419699914753437
v -0.0020630001090466976 -0.04299100115895271 -0.030905000865459442
v -0.0017800000496208668 -0.04525800049304962 -0.03063799999654293
v -0.000539999979082495 -0.0848350003361702 -0.033020999282598495
v 0.0010770000517368317 -0.083017997443676 -0.03289100155234337
v 0.0008280000183731318 -0.08109000325202942 -0.03176100179553032
v -0.0009549999958835542 -0.07939600199460983 -0.030791999772191048
v -0.0016090000281110406 -0.0804930031299591 -0.03119800053536892
v -0.0024270000867545605 -0.07964599877595901 -0.03148699924349785
v -0.00303900009021163 -0.07912500202655792 -0.03121899999678135
v -0.006699000019580126 -0.04729500040411949 -0.025103000923991203
v -0.0054720002226531506 -0.07911600172519684 -0.030484000220894814
v -0.004790999926626682 -0.07966200262308121 -0.03132700175046921
v -0.007025000173598528 -0.07680299878120422 -0.029673999175429344
v -0.006976999808102846 -0.07507599890232086 -0.029572999104857445
v -0.0019099999917671084 -0.0854090005159378 -0.03342600166797638
v -0.0076790000312030315 -0.07695599645376205 -0.03037399984896183
v -0.00802600011229515 -0.07718399912118912 -0.03135799989104271
v -0.001724999980069697 -0.08272600173950195 -0.03147900104522705
v -0.005245000123977661 -0.08203499764204025 -0.03228599950671196
v -0.002167999977245927 -0.08046399801969528 -0.031647998839616776
v -0.005764999892562628 -0.08096099644899368 -0.031915999948978424
v -0.006105999927967787 -0.08069200068712234 -0.032489001750946045
v -0.006453000009059906 -0.07998000085353851 -0.03161099925637245
v -0.007323999889194965 -0.07922700047492981 -0.03156200051307678
v -0.0054259998723864555 -0.037866998463869095 -0.03131699934601784
v -0.004321000073105097 -0.03614199906587601 -0.031348999589681625
v -0.003449999960139394 -0.04085800051689148 -0.031106000766158104
v -0.005607999861240387 -0.03663399815559387 -0.030882999300956726
v -0.007273999974131584 -0.03806700184941292 -0.027480000630021095
v -0.007114999927580357 -0.04161199927330017 -0.026384999975562096
v -0.006670000031590462 -0.04380299896001816 -0.026115000247955322
v -0.005450000055134296 -0.04469799995422363 -0.02361699938774109
v -0.001057000015862286 -0.04359700158238411 -0.029918000102043152
v 0.00046099998871795833 -0.040463000535964966 -0.027581999078392982
v -0.001142999972216785 -0.04005900025367737 -0.0216279998421669
v 0.0002410000015515834 -0.04024900123476982 -0.02886899933218956
v -0.003335000015795231 -0.04176200181245804 -0.02137799933552742
v -0.00430000014603138 -0.04539300128817558 -0.023026999086141586
v -0.0044450000859797 -0.043251000344753265 -0.02216999977827072
v -0.0010580000234767795 -0.03827900066971779 -0.029377000406384468
v -0.00088900001719594 -0.041655998677015305 -0.02977300062775612
v -0.002595999976620078 -0.04087800160050392 -0.030703000724315643
v -0.0012610000558197498 -0.08106999844312668 -0.030796000733971596
v -0.004850999917834997 -0.045125000178813934 -0.023088999092578888
v -0.0077229999005794525 -0.07769499719142914 -0.0304189994931221
v -0.006711999885737896 -0.0793209969997406 -0.031085999682545662
v -0.003275000024586916 -0.03925999999046326 -0.030966000631451607
v -0.0030519999563694 -0.036302000284194946 -0.03123299963772297
v -0.0033009999897331 -0.03780600056052208 -0.03115200065076351
v -0.005576000083237886 -0.03563600033521652 -0.030897000804543495
v -0.004914000164717436 -0.03547300025820732 -0.031700000166893005
v -0.006651000119745731 -0.03504699841141701 -0.028099000453948975
v -0.007404000032693148 -0.037748999893665314 -0.025495000183582306
v -0.005766000133007765 -0.04194499924778938 -0.02284100092947483
v -0.007007000036537647 -0.03991800174117088 -0.02238300070166588
v -0.0048329997807741165 -0.04328399896621704 -0.022641999647021294
v 0.0010890000266954303 -0.03716599941253662 -0.027696000412106514
v 0.002094999887049198 -0.03645600005984306 -0.024793999269604683
v 0.0020620001014322042 -0.0363290011882782 -0.025906000286340714
v 0.0012000000569969416 -0.03774400055408478 -0.022088000550866127
v -0.0013050000416114926 -0.0385500006377697 -0.02029700018465519
v -0.000666000007186085 -0.036653999239206314 -0.01889299973845482
v -0.0021120000164955854 -0.040251001715660095 -0.021150000393390656
v 0.0007810000097379088 -0.03718699887394905 -0.02069699950516224
v -0.004296999890357256 -0.04209600016474724 -0.021398000419139862
v -0.0029690000228583813 -0.04008999839425087 -0.021018000319600105
v -0.004474000073969364 -0.03994100168347359 -0.02106199972331524
v -0.004863999783992767 -0.04215399920940399 -0.021599000319838524
v -0.0007660000119358301 -0.036692000925540924 -0.02898699976503849
v -0.0020439999643713236 -0.036166001111269 -0.02981399931013584
v -0.002383999992161989 -0.039308998733758926 -0.03028300032019615
v 0.0007459999760612845 -0.035645000636577606 -0.02815599925816059
v -0.002194999950006604 -0.03796600177884102 -0.02990500070154667
v -0.003244000021368265 -0.03550399839878082 -0.03171199932694435
v -0.0059739998541772366 -0.03489400073885918 -0.03040199913084507
v -0.005247999913990498 -0.03475100174546242 -0.031876999884843826
v -0.007145000156015158 -0.03489900007843971 -0.026000000536441803
v -0.007373000029474497 -0.03377100080251694 -0.024771999567747116
v -0.007670000195503235 -0.035548001527786255 -0.025286000221967697
v -0.006686000153422356 -0.03305000066757202 -0.027759000658988953
v -0.006434000097215176 -0.031821999698877335 -0.028971999883651733
v -0.005107999779284 -0.04214699938893318 -0.02254199981689453
v -0.006128999870270491 -0.04044000059366226 -0.020997999235987663
v -0.007108000107109547 -0.0385419987142086 -0.02033199928700924
v -0.007683999836444855 -0.0354590006172657 -0.020687000826001167
v 0.00184599997010082 -0.035006001591682434 -0.026406999677419662
v 0.002271000063046813 -0.035280000418424606 -0.02474999986588955
v 0.0015429999912157655 -0.03578300029039383 -0.02132200077176094
v 0.0008169999928213656 -0.03629399836063385 -0.02011300064623356
v -0.002087000058963895 -0.03863300010561943 -0.020677000284194946
v -0.002455000067129731 -0.03533799946308136 -0.018293000757694244
v -0.001626000041142106 -0.035367000848054886 -0.01800299994647503
v -0.0028639999218285084 -0.03604799881577492 -0.018519999459385872
v -0.0026110000908374786 -0.03748200088739395 -0.01991499960422516
v 0.000011000000085914508 -0.03649500012397766 -0.019161999225616455
v -0.0009399999980814755 -0.03595000132918358 -0.018319999799132347
v -0.005373999942094088 -0.039778001606464386 -0.020796999335289
v -0.0032389999832957983 -0.03864999860525131 -0.021112000569701195
v -0.004333999939262867 -0.038384001702070236 -0.021031999960541725
v -0.005429000128060579 -0.038026001304388046 -0.020377999171614647
v -0.001395000028423965 -0.03507399931550026 -0.028790000826120377
v 0.00021600000036414713 -0.03441900014877319 -0.027463000267744064
v 0.0017810000572353601 -0.03303699940443039 -0.026233000680804253
v -0.002814000006765127 -0.034217000007629395 -0.03154199942946434
v -0.003967000171542168 -0.03388899937272072 -0.03193200007081032
v -0.005260000005364418 -0.03384200111031532 -0.03170499950647354
v -0.0076939999125897884 -0.03482300043106079 -0.025127999484539032
v -0.00647599995136261 -0.03173200041055679 -0.025603000074625015
v -0.007945000194013119 -0.0336650013923645 -0.022140000015497208
v -0.006661000195890665 -0.030160000547766685 -0.021296000108122826
v -0.006783999968320131 -0.0311450008302927 -0.024274000898003578
v -0.007013999857008457 -0.030889999121427536 -0.023388000205159187
v -0.0066709998063743114 -0.030441999435424805 -0.027367999777197838
v -0.00646300008520484 -0.030540000647306442 -0.025465000420808792
v -0.006676000077277422 -0.03042599931359291 -0.028362000361084938
v -0.005642999894917011 -0.03164299950003624 -0.030125999823212624
v -0.006426000036299229 -0.03830600157380104 -0.019888000562787056
v -0.0070779998786747456 -0.03743299841880798 -0.019514000043272972
v -0.007269000168889761 -0.035684000700712204 -0.019272999837994576
v -0.006723000202327967 -0.034699998795986176 -0.019252000376582146
v -0.006943999789655209 -0.03389199823141098 -0.019318999722599983
v 0.0018820000113919377 -0.03300200030207634 -0.02531999908387661
v 0.0017239999724552035 -0.03288000077009201 -0.024174999445676804
v 0.0015300000086426735 -0.03286699950695038 -0.023138999938964844
v 0.0013180000241845846 -0.0334790013730526 -0.020339999347925186
v 0.0008290000259876251 -0.03320800140500069 -0.019040999934077263
v 0.0005039999959990382 -0.03363500162959099 -0.017959000542759895
v -0.0004290000069886446 -0.03553000092506409 -0.01821500062942505
v -0.002492999890819192 -0.03439699858427048 -0.01811099983751774
v -0.0031190000008791685 -0.03531700000166893 -0.018285000696778297
v -0.0018070000223815441 -0.034627001732587814 -0.017687000334262848
v -0.001765000051818788 -0.0340769998729229 -0.017928000539541245
v -0.003148999996483326 -0.03697099909186363 -0.01910099945962429
v -0.003806999884545803 -0.037755999714136124 -0.020246999338269234
v -0.0034749999176710844 -0.03756700083613396 -0.0197720006108284
v -0.004466000013053417 -0.03740699961781502 -0.02043999917805195
v -0.005646999925374985 -0.03614800050854683 -0.01960100047290325
v -0.005135999992489815 -0.0361500009894371 -0.019547000527381897
v -0.006424000021070242 -0.035638999193906784 -0.01858600042760372
v -0.000522000016644597 -0.03267800062894821 -0.02695400081574917
v 0.0010300000431016088 -0.03096199966967106 -0.024003000929951668
v 0.002337000099942088 -0.030267000198364258 -0.023560000583529472
v 0.0021619999315589666 -0.03167299926280975 -0.023933999240398407
v -0.002698000054806471 -0.03308200091123581 -0.030747000128030777
v -0.003918999806046486 -0.03280000016093254 -0.031373001635074615
v -0.0039820000529289246 -0.031387001276016235 -0.030431000515818596
v -0.00646300008520484 -0.030132999643683434 -0.02421100065112114
v -0.006147999782115221 -0.03155200183391571 -0.01916399970650673
v -0.006568999961018562 -0.028578000143170357 -0.020795999094843864
v -0.00659599993377924 -0.029225999489426613 -0.02175999991595745
v -0.006258999928832054 -0.028821000829339027 -0.02171899937093258
v -0.006845000199973583 -0.02995000034570694 -0.0234839990735054
v -0.005452000070363283 -0.028572000563144684 -0.02475699968636036
v -0.005752999801188707 -0.028245000168681145 -0.02664799988269806
v -0.006405999884009361 -0.028355000540614128 -0.02791599929332733
v -0.005913999862968922 -0.029471000656485558 -0.024354999884963036
v -0.0063149998895823956 -0.028953000903129578 -0.02872299961745739
v -0.004511999897658825 -0.0278329998254776 -0.028876999393105507
v -0.00698699988424778 -0.03658699989318848 -0.01901400089263916
v -0.006140999961644411 -0.034040000289678574 -0.01867399923503399
v -0.006155999843031168 -0.033201999962329865 -0.01888200081884861
v 0.002749999985098839 -0.030672000721096992 -0.02320699952542782
v 0.0023350000847131014 -0.031123999506235123 -0.022050999104976654
v 0.001918999943882227 -0.03209000080823898 -0.020054999738931656
v 0.0014179999707266688 -0.03151300176978111 -0.01860000006854534
v 0.0006060000159777701 -0.03301699832081795 -0.01755400002002716
v 0.0012959999730810523 -0.031787000596523285 -0.01730700023472309
v -0.0002579999854788184 -0.03373799845576286 -0.017493000254034996
v -0.0012150000547990203 -0.03383500128984451 -0.017703000456094742
v -0.003413999918848276 -0.034651000052690506 -0.01838899962604046
v -0.0018070000223815441 -0.033622000366449356 -0.017602000385522842
v -0.0029070000164210796 -0.03365999832749367 -0.017906999215483665
v -0.003596999915316701 -0.03609500080347061 -0.01858600042760372
v -0.0015640000347048044 -0.03330500051379204 -0.018052000552415848
v -0.004333000164479017 -0.03640900179743767 -0.019385000690817833
v -0.003982999827712774 -0.03552699834108353 -0.018532000482082367
v -0.004755999892950058 -0.03595200181007385 -0.019058000296354294
v -0.005135000217705965 -0.0351950004696846 -0.019101999700069427
v -0.005661000031977892 -0.035312000662088394 -0.019096000120043755
v -0.004784000106155872 -0.03505000099539757 -0.018705999478697777
v -0.0056870002299547195 -0.034442998468875885 -0.01865999959409237
v -0.0003440000000409782 -0.0303530003875494 -0.02406200021505356
v 0.0006929999799467623 -0.029110999777913094 -0.02316500060260296
v 0.0005779999773949385 -0.027793999761343002 -0.022072000429034233
v 0.0022750000935047865 -0.029573999345302582 -0.022955000400543213
v -0.006521000061184168 -0.029378000646829605 -0.02353299967944622
v -0.005960999988019466 -0.02961299940943718 -0.019392000511288643
v -0.005104000214487314 -0.033383000642061234 -0.01878499984741211
v -0.006517999805510044 -0.02905699983239174 -0.0200360007584095
v -0.005905000027269125 -0.028668999671936035 -0.02079400047659874
v -0.005874999798834324 -0.028410999104380608 -0.021511999890208244
v -0.006711000110954046 -0.029117999598383904 -0.022871999070048332
v -0.005739999935030937 -0.028728999197483063 -0.022259000688791275
v -0.006051999982446432 -0.029138000681996346 -0.023753000423312187
v -0.005022999830543995 -0.027925999835133553 -0.024424999952316284
v -0.004484999924898148 -0.027347000315785408 -0.025465000420808792
v -0.005419000051915646 -0.02783999964594841 -0.027388999238610268
v -0.0018739999504759908 -0.02712400071322918 -0.025310000404715538
v 0.002626999979838729 -0.030239999294281006 -0.02268099971115589
v 0.002068999921903014 -0.03086799941956997 -0.02033800072968006
v -0.002093000104650855 -0.02907799929380417 -0.018353000283241272
v 0.0012829999905079603 -0.031065000221133232 -0.017695000395178795
v -0.0006520000169984996 -0.03249499946832657 -0.017211999744176865
v -0.000295000005280599 -0.032175999134778976 -0.016899000853300095
v 0.00006600000051548705 -0.030705999583005905 -0.016930999234318733
v -0.0036150000523775816 -0.033702000975608826 -0.018518000841140747
v -0.0037930000107735395 -0.030717000365257263 -0.01805499941110611
v -0.0017640000442042947 -0.03281699866056442 -0.017479000613093376
v -0.001664999988861382 -0.032113999128341675 -0.017880000174045563
v -0.004009999800473452 -0.032864999026060104 -0.01839599944651127
v -0.005150000099092722 -0.03421600162982941 -0.018859000876545906
v -0.00039999998989515007 -0.027313999831676483 -0.022693999111652374
v 0.0018779999809339643 -0.02899100072681904 -0.022419000044465065
v -0.00019799999427050352 -0.02703000046312809 -0.02217699959874153
v -0.0017930000321939588 -0.027365000918507576 -0.02137799933552742
v -0.000623999978415668 -0.02782999910414219 -0.020181000232696533
v 0.0023300000466406345 -0.029495999217033386 -0.022391999140381813
v -0.006442999932914972 -0.028756000101566315 -0.023159999400377274
v -0.005816000048071146 -0.028821999207139015 -0.019252000376582146
v -0.006142999976873398 -0.02848299965262413 -0.019852999597787857
v -0.005173000041395426 -0.02909800037741661 -0.0186769999563694
v -0.0048779998905956745 -0.03246400132775307 -0.018503999337553978
v -0.004987999796867371 -0.031032999977469444 -0.018828000873327255
v -0.0047599999234080315 -0.028226999565958977 -0.02098100073635578
v -0.004681000020354986 -0.028186999261379242 -0.02020999975502491
v -0.004916999954730272 -0.028258999809622765 -0.021688999608159065
v -0.0053369998931884766 -0.02831299975514412 -0.022746000438928604
v -0.005386000033468008 -0.028286000713706017 -0.023530999198555946
v -0.004110000096261501 -0.027986999601125717 -0.024056000635027885
v -0.0026310000102967024 -0.027465999126434326 -0.02352599985897541
v 0.002329000039026141 -0.030141999945044518 -0.021709000691771507
v -0.0014489999739453197 -0.028199000284075737 -0.01906600035727024
v -0.002848000032827258 -0.028967000544071198 -0.018122000619769096
v -0.003653000108897686 -0.02875700034201145 -0.01888200081884861
v -0.0015300000086426735 -0.03180199861526489 -0.01742199994623661
v -0.0016250000335276127 -0.03135399892926216 -0.017124999314546585
v -0.001496999990195036 -0.030810000374913216 -0.01704300008714199
v -0.0031999999191612005 -0.0293589998036623 -0.018358999863266945
v -0.0046190000139176846 -0.029015999287366867 -0.0185139998793602
v -0.004327000118792057 -0.03160800039768219 -0.01838099956512451
v -0.00029799999902024865 -0.028124000877141953 -0.019812999293208122
v -0.0028180000372231007 -0.027948999777436256 -0.0205329991877079
v -0.005158999934792519 -0.02828899957239628 -0.018861999735236168
v -0.0047690002247691154 -0.03049200028181076 -0.018679000437259674
v -0.0012880000285804272 -0.028091000393033028 -0.01958400011062622
f 1 2 3
f 1 4 5
f 3 6 1
f 7 8 1
f 5 7 1
f 8 9 1
f 9 2 1
f 6 4 1
f 2 10 11
f 12 3 2
f 9 13 2
f 2 13 14
f 2 14 10
f 15 12 2
f 2 16 15
f 11 16 2
f 3 17 6
f 12 18 3
f 3 18 19
f 20 17 3
f 21 3 19
f 3 21 20
f 6 22 4
f 4 22 23
f 5 4 24
f 4 23 24
f 25 26 5
f 7 5 26
f 5 27 25
f 5 24 27
f 28 6 29
f 29 6 17
f 28 22 6
f 8 7 30
f 7 26 30
f 13 8 30
f 9 8 13
f 31 32 10
f 31 10 14
f 33 11 10
f 10 32 33
f 11 33 34
f 11 34 35
f 35 16 11
f 36 12 37
f 36 18 12
f 15 37 12
f 38 14 13
f 38 13 30
f 31 14 38
f 15 16 37
f 16 39 37
f 16 40 41
f 41 39 16
f 35 42 16
f 43 16 42
f 43 40 16
f 20 44 17
f 17 44 29
f 18 36 19
f 45 19 36
f 21 19 45
f 20 46 44
f 21 46 20
f 21 45 46
f 47 22 28
f 22 47 23
f 24 23 48
f 47 48 23
f 24 48 49
f 24 49 27
f 50 26 25
f 51 25 52
f 50 25 51
f 52 25 53
f 27 53 25
f 30 26 54
f 50 54 26
f 27 49 55
f 27 55 53
f 56 28 57
f 28 58 57
f 28 29 58
f 47 28 56
f 59 29 44
f 29 59 58
f 60 30 51
f 54 51 30
f 38 30 60
f 60 31 38
f 60 61 31
f 61 32 31
f 33 32 62
f 63 62 32
f 61 63 32
f 34 33 64
f 62 64 33
f 65 34 66
f 66 34 67
f 64 67 34
f 65 35 34
f 35 65 68
f 35 68 42
f 45 36 37
f 69 45 37
f 69 37 70
f 37 71 70
f 71 37 39
f 72 73 39
f 73 71 39
f 72 39 41
f 40 74 41
f 43 75 40
f 75 74 40
f 41 74 72
f 42 68 76
f 77 42 78
f 42 76 78
f 43 42 77
f 43 77 75
f 44 79 59
f 79 44 46
f 69 46 45
f 79 46 69
f 80 47 56
f 47 80 48
f 49 48 81
f 48 80 81
f 55 49 82
f 49 81 82
f 54 50 51
f 83 61 51
f 84 83 51
f 51 52 84
f 60 51 61
f 52 53 84
f 84 53 85
f 53 55 85
f 55 82 86
f 55 86 85
f 56 57 80
f 80 57 87
f 57 88 87
f 58 88 57
f 89 58 59
f 58 89 90
f 58 90 88
f 70 59 69
f 59 79 69
f 59 70 89
f 63 61 83
f 91 62 92
f 93 92 62
f 62 63 94
f 62 94 93
f 62 91 64
f 63 84 95
f 63 95 96
f 84 63 83
f 97 94 63
f 96 97 63
f 64 98 67
f 91 99 64
f 99 98 64
f 66 100 65
f 100 101 65
f 68 65 102
f 65 101 102
f 100 66 103
f 104 103 66
f 104 66 67
f 104 67 98
f 68 102 105
f 68 105 76
f 70 71 90
f 89 70 90
f 90 71 106
f 106 71 107
f 73 107 71
f 72 74 108
f 72 108 107
f 73 72 107
f 109 110 74
f 74 110 108
f 74 75 109
f 111 75 77
f 109 75 111
f 78 76 112
f 76 113 93
f 93 112 76
f 105 113 76
f 77 114 111
f 115 114 77
f 116 115 77
f 78 116 77
f 117 116 78
f 117 78 112
f 87 118 80
f 80 118 81
f 82 81 96
f 119 120 81
f 81 120 96
f 118 119 81
f 82 96 86
f 86 95 84
f 85 86 84
f 86 96 121
f 121 95 86
f 87 88 118
f 88 90 106
f 118 88 106
f 92 99 91
f 92 93 113
f 122 92 113
f 92 122 99
f 112 93 94
f 123 94 124
f 94 97 124
f 112 94 123
f 95 121 96
f 96 120 125
f 96 125 126
f 96 127 97
f 126 127 96
f 128 124 97
f 128 97 127
f 104 98 129
f 98 130 129
f 98 99 131
f 98 131 130
f 132 131 99
f 132 99 133
f 122 134 99
f 134 133 99
f 100 103 135
f 101 100 135
f 135 136 101
f 136 137 101
f 138 102 101
f 138 101 137
f 102 138 139
f 139 105 102
f 129 140 103
f 141 135 103
f 129 103 104
f 141 103 140
f 105 139 113
f 106 107 142
f 106 142 118
f 143 142 107
f 108 144 107
f 143 107 144
f 144 108 110
f 145 110 109
f 109 111 145
f 144 110 145
f 146 111 147
f 147 111 148
f 111 114 148
f 145 111 146
f 123 117 112
f 113 149 122
f 139 149 113
f 114 150 151
f 151 148 114
f 114 115 150
f 150 115 152
f 115 153 152
f 115 116 117
f 115 117 153
f 123 153 117
f 118 142 154
f 154 119 118
f 119 154 125
f 119 125 120
f 134 122 149
f 155 123 156
f 124 156 123
f 153 123 155
f 128 156 124
f 125 154 157
f 125 158 126
f 157 159 125
f 125 159 158
f 158 160 126
f 161 127 126
f 161 126 160
f 128 127 161
f 128 161 162
f 128 162 163
f 156 128 163
f 140 129 130
f 130 164 165
f 130 165 166
f 130 166 140
f 131 164 130
f 131 132 164
f 167 164 132
f 168 132 133
f 132 168 167
f 169 133 170
f 134 170 133
f 168 133 169
f 170 134 171
f 134 149 171
f 172 136 135
f 172 135 141
f 173 174 136
f 137 136 174
f 173 136 175
f 136 172 175
f 176 137 174
f 177 138 137
f 137 176 178
f 137 178 177
f 139 138 177
f 139 177 149
f 140 179 180
f 181 140 166
f 180 141 140
f 181 179 140
f 180 172 141
f 143 157 142
f 154 142 157
f 144 182 143
f 157 143 182
f 182 144 145
f 146 182 145
f 146 157 182
f 147 159 146
f 159 157 146
f 147 148 159
f 148 151 159
f 183 149 177
f 171 149 183
f 150 152 155
f 150 155 184
f 151 150 185
f 150 184 185
f 162 160 151
f 159 151 158
f 151 160 158
f 162 151 185
f 153 155 152
f 184 155 156
f 156 163 184
f 161 160 162
f 162 185 163
f 185 184 163
f 167 165 164
f 186 166 165
f 187 188 165
f 167 189 165
f 165 188 186
f 190 165 189
f 165 190 187
f 181 166 186
f 168 191 167
f 191 189 167
f 192 168 169
f 191 168 192
f 193 194 169
f 169 170 193
f 194 192 169
f 171 193 170
f 183 195 171
f 193 171 195
f 180 175 172
f 175 196 173
f 197 173 198
f 197 199 173
f 199 174 173
f 198 173 196
f 200 174 201
f 174 200 202
f 174 202 176
f 174 199 203
f 174 203 201
f 175 180 179
f 179 196 175
f 204 178 176
f 205 206 176
f 205 176 202
f 204 176 206
f 177 178 183
f 207 178 204
f 178 207 195
f 178 195 183
f 208 179 209
f 181 210 179
f 211 179 208
f 212 209 179
f 210 212 179
f 179 211 196
f 210 181 186
f 186 188 210
f 187 213 209
f 209 212 187
f 212 188 187
f 190 213 187
f 212 210 188
f 214 189 191
f 190 189 214
f 215 190 214
f 190 215 213
f 216 217 191
f 218 191 192
f 216 191 218
f 219 191 217
f 191 219 220
f 191 220 214
f 218 192 194
f 193 195 221
f 193 221 194
f 194 222 223
f 221 222 194
f 224 218 194
f 224 194 223
f 221 195 207
f 198 196 225
f 196 211 225
f 198 226 197
f 199 197 226
f 226 198 225
f 227 199 226
f 227 228 199
f 228 203 199
f 229 202 200
f 230 200 231
f 201 231 200
f 232 200 230
f 200 232 233
f 200 233 229
f 203 234 201
f 234 235 201
f 235 231 201
f 205 202 229
f 228 234 203
f 207 204 236
f 204 206 236
f 237 205 229
f 237 238 205
f 238 206 205
f 236 206 239
f 238 239 206
f 236 222 207
f 221 207 222
f 240 208 209
f 240 211 208
f 209 213 240
f 211 241 242
f 211 240 241
f 211 242 225
f 243 213 244
f 213 243 240
f 244 213 215
f 214 220 215
f 245 215 220
f 244 215 245
f 246 216 218
f 246 217 216
f 217 247 219
f 248 249 217
f 246 248 217
f 250 247 217
f 217 251 250
f 251 217 249
f 224 248 218
f 218 248 246
f 252 219 253
f 219 247 253
f 252 254 219
f 254 220 219
f 255 245 220
f 254 255 220
f 256 223 222
f 256 222 236
f 223 256 257
f 258 223 257
f 258 224 223
f 259 224 258
f 260 224 259
f 260 248 224
f 261 225 242
f 262 225 261
f 262 263 225
f 226 225 263
f 226 263 227
f 227 263 264
f 265 266 227
f 264 265 227
f 266 267 227
f 227 267 228
f 228 267 234
f 229 233 237
f 230 268 269
f 231 270 230
f 270 268 230
f 269 232 230
f 234 231 235
f 231 234 235
f 231 271 270
f 270 231 235
f 270 271 231
f 269 272 232
f 272 233 232
f 272 237 233
f 234 267 235
f 267 271 235
f 235 271 270
f 239 256 236
f 273 237 274
f 237 272 274
f 273 238 237
f 275 239 238
f 275 238 273
f 276 239 277
f 239 275 277
f 276 278 239
f 278 256 239
f 241 240 279
f 240 243 279
f 280 242 241
f 280 241 279
f 242 280 281
f 242 281 282
f 242 282 261
f 279 243 283
f 243 244 283
f 244 284 283
f 244 245 284
f 285 245 255
f 284 245 285
f 253 247 286
f 250 286 247
f 260 287 248
f 287 249 248
f 288 249 287
f 251 249 289
f 290 289 249
f 290 249 288
f 250 291 286
f 251 291 250
f 291 251 289
f 292 293 252
f 293 294 252
f 295 292 252
f 295 252 253
f 254 252 294
f 286 295 253
f 255 254 296
f 254 294 296
f 297 255 296
f 285 255 297
f 257 256 298
f 278 298 256
f 298 258 257
f 259 258 299
f 258 298 278
f 258 278 299
f 260 259 300
f 259 299 300
f 260 300 287
f 261 282 262
f 301 262 281
f 262 282 281
f 301 302 262
f 263 262 302
f 264 263 302
f 303 265 264
f 264 302 303
f 304 265 303
f 265 305 266
f 306 305 265
f 306 265 304
f 266 305 307
f 266 307 267
f 267 308 271
f 308 267 307
f 268 309 269
f 270 310 268
f 310 311 268
f 311 309 268
f 309 312 269
f 272 269 312
f 270 271 310
f 308 313 271
f 271 313 310
f 272 312 274
f 274 275 273
f 274 314 275
f 274 315 314
f 315 274 312
f 277 275 316
f 314 316 275
f 277 317 276
f 318 276 317
f 278 276 318
f 316 319 277
f 319 317 277
f 278 318 320
f 299 278 320
f 321 280 279
f 279 283 321
f 322 281 280
f 322 280 321
f 322 323 281
f 324 281 323
f 324 301 281
f 321 283 284
f 285 321 284
f 297 321 285
f 325 295 286
f 325 286 291
f 326 287 327
f 300 327 287
f 328 287 326
f 287 328 288
f 288 329 330
f 330 290 288
f 328 329 288
f 289 331 291
f 331 289 290
f 332 290 330
f 331 290 332
f 325 291 331
f 333 292 295
f 334 292 333
f 334 293 292
f 335 293 334
f 293 335 336
f 293 336 294
f 297 296 294
f 336 297 294
f 333 295 325
f 321 297 337
f 335 337 297
f 297 336 335
f 300 299 327
f 320 327 299
f 324 338 301
f 302 301 338
f 338 339 302
f 303 302 339
f 304 303 339
f 340 304 339
f 304 341 306
f 340 341 304
f 342 307 305
f 343 342 305
f 343 305 306
f 343 306 344
f 306 341 344
f 308 307 342
f 313 308 342
f 345 315 309
f 315 312 309
f 311 345 309
f 311 310 346
f 310 347 346
f 310 348 347
f 313 348 310
f 345 311 349
f 311 346 349
f 342 348 313
f 314 319 316
f 315 319 314
f 315 345 319
f 319 350 317
f 318 317 350
f 320 318 350
f 319 349 350
f 319 345 349
f 327 320 350
f 321 337 351
f 351 322 321
f 351 323 322
f 352 324 323
f 351 353 323
f 323 353 354
f 352 323 355
f 323 354 355
f 352 356 324
f 356 338 324
f 357 333 325
f 357 325 331
f 326 358 359
f 326 360 358
f 359 328 326
f 326 327 361
f 360 326 362
f 326 361 362
f 327 350 361
f 328 359 329
f 329 363 330
f 329 364 363
f 359 364 329
f 365 332 330
f 330 363 365
f 357 331 332
f 357 332 366
f 366 332 365
f 367 333 357
f 334 333 367
f 334 367 368
f 335 334 368
f 337 335 353
f 335 369 353
f 368 369 335
f 337 353 351
f 356 370 338
f 370 339 338
f 339 370 371
f 339 371 340
f 344 341 340
f 344 340 372
f 340 371 373
f 372 340 373
f 374 348 342
f 374 342 343
f 375 343 376
f 343 344 376
f 375 374 343
f 376 344 372
f 346 347 374
f 377 346 375
f 374 375 346
f 378 346 377
f 346 378 379
f 349 346 379
f 374 347 348
f 350 349 361
f 361 349 379
f 356 352 355
f 353 369 354
f 368 365 354
f 355 354 365
f 369 368 354
f 380 355 381
f 356 355 380
f 381 355 365
f 370 356 380
f 357 366 367
f 359 358 382
f 360 382 358
f 359 382 364
f 362 383 360
f 383 379 360
f 378 360 379
f 382 360 378
f 361 379 362
f 379 383 362
f 364 381 363
f 363 381 365
f 381 364 373
f 382 373 364
f 368 366 365
f 366 368 367
f 370 380 384
f 370 384 371
f 381 373 371
f 384 381 371
f 377 376 372
f 377 372 373
f 373 382 377
f 377 375 376
f 382 378 377
f 384 380 381
