# Generated by Visualization Toolkit
v 0.006738000083714724 -0.09287499636411667 0.0024770000018179417
v 0.0035059999208897352 -0.08817599713802338 0.0032079999800771475
v 0.004443999845534563 -0.09191299974918365 0.0034360000863671303
v 0.0068870000541210175 -0.09843099862337112 0.0028750000055879354
v 0.005549999885261059 -0.08983699977397919 0.0021279999054968357
v 0.006792000029236078 -0.09054800122976303 0.0016530000139027834
v 0.007895000278949738 -0.09368100017309189 0.0008479999960400164
v 0.0038620000705122948 -0.08944299817085266 0.005125999916344881
v 0.00015799999528098851 -0.08376000076532364 0.00622999994084239
v 0.0011149999918416142 -0.08351399749517441 0.0015589999966323376
v 0.0025629999581724405 -0.0872189998626709 -0.000045000000682193786
v 0.004592000041157007 -0.09583699703216553 0.003703000023961067
v 0.0040710000321269035 -0.09587500244379044 0.004912999924272299
v 0.004315000027418137 -0.09241999685764313 0.004674999974668026
v 0.0065819998271763325 -0.09977699816226959 0.0028989999555051327
v 0.007546000182628632 -0.09946800023317337 0.0009079999872483313
v 0.00418600020930171 -0.08955799788236618 -0.0002460000105202198
v 0.00636299978941679 -0.0899519994854927 0.0007890000124461949
v 0.006697000004351139 -0.09129100292921066 -0.00017800000205170363
v 0.007577999960631132 -0.09732700139284134 -0.0010189999593421817
v 0.0033080000430345535 -0.09060999751091003 0.006527000106871128
v 0.0029319999739527702 -0.0891600027680397 0.006575999781489372
v 0.00031800000579096377 -0.08616500347852707 0.0070859999395906925
v 0.0010839999886229634 -0.08808299899101257 0.007286000065505505
v -0.0007479999912902713 -0.07799199968576431 0.0018119999440386891
v -0.002515000058338046 -0.07879099994897842 0.00800700020045042
v 0.001145999995060265 -0.0857430025935173 -0.0013989999424666166
v 0.0037239999510347843 -0.0979750007390976 0.0036780000664293766
v 0.00420599989593029 -0.09758000075817108 0.006035999860614538
v 0.003020999953150749 -0.09428700059652328 0.008162000216543674
v 0.0026759998872876167 -0.09068500250577927 0.008177000097930431
v 0.006455000024288893 -0.10190299898386002 0.0012760000536218286
v 0.005543000064790249 -0.10127899795770645 0.002873999997973442
v 0.005284000188112259 -0.10274700075387955 -0.0006820000126026571
v 0.005078999791294336 -0.09638000279664993 -0.005301999859511852
v 0.0017209999496117234 -0.0922819972038269 -0.004912000149488449
v 0.0065100002102553844 -0.09938400238752365 -0.0032659999560564756
v 0.0020169999916106462 -0.0891840010881424 0.007788000162690878
v -0.00039500001003034413 -0.08790399879217148 0.0074339997954666615
v -0.00177800003439188 -0.08645900338888168 0.007935999892652035
v -0.0033889999613165855 -0.07951600104570389 0.008445000275969505
v -0.0007830000249668956 -0.08928799629211426 0.008287999778985977
v -0.004972999915480614 -0.06905300170183182 0.006554000079631805
v -0.004519999958574772 -0.06548400223255157 0.004238000139594078
v -0.005020999815315008 -0.0621270015835762 0.0039369999431073666
v -0.0038240000139921904 -0.062217000871896744 0.0018560000462457538
v -0.001787999994121492 -0.07581000030040741 -0.0004870000120718032
v -0.006800999864935875 -0.06994999945163727 0.007397000212222338
v -0.006647000089287758 -0.06997700035572052 -0.0014570000348612666
v -0.0025839998852461576 -0.0816200003027916 -0.002759000053629279
v -0.0007340000011026859 -0.08910900354385376 -0.005799000151455402
v -0.0015399999683722854 -0.08590000122785568 -0.004182999953627586
v 0.004062000196427107 -0.09914299845695496 0.007803000044077635
v 0.004362999927252531 -0.10167499631643295 0.004573000129312277
v 0.003493000054731965 -0.09627299755811691 0.007331999950110912
v 0.0005239999736659229 -0.09597600251436234 0.008669000118970871
v 0.0028750000055879354 -0.09674900025129318 0.008454999886453152
v 0.005036999937146902 -0.10309100151062012 0.0013180000241845846
v 0.002824000082910061 -0.10309600085020065 -0.003613000037148595
v 0.0011690000537782907 -0.09403099864721298 -0.007275999989360571
v 0.0019239999819546938 -0.09815099835395813 -0.007861999794840813
v -0.00033999999868683517 -0.09053099900484085 -0.008426000364124775
v 0.0005280000041238964 -0.0934630036354065 -0.00877199973911047
v 0.0031079999171197414 -0.10201600193977356 -0.004757999908179045
v -0.001969000091776252 -0.08962900191545486 0.007451999932527542
v -0.006430999841541052 -0.07341799885034561 0.007185999769717455
v -0.005836999975144863 -0.06576000154018402 0.005766000133007765
v -0.007836000062525272 -0.06673599779605865 0.006453999783843756
v -0.004048999864608049 -0.05900600180029869 0.0027520000003278255
v -0.006002999842166901 -0.05534299835562706 0.003346000099554658
v -0.005177000071853399 -0.05564599856734276 0.003387999953702092
v -0.004604000132530928 -0.05902500078082085 0.003662999952211976
v -0.004569000098854303 -0.06180199980735779 -0.0004619999963324517
v -0.0059819999150931835 -0.05319700017571449 -0.001959000015631318
v -0.006401000078767538 -0.06618499755859375 -0.001446999958716333
v -0.01054100040346384 -0.06374099850654602 0.0040480000898242
v -0.00520800007507205 -0.08298700302839279 -0.0032550001051276922
v -0.006202000193297863 -0.08745399862527847 -0.002598999999463558
v -0.008888999931514263 -0.07383400201797485 -0.0006000000284984708
v -0.009814999997615814 -0.06710399687290192 -0.0007820000173524022
v -0.001512999995611608 -0.08899399638175964 -0.006403000093996525
v -0.0009720000089146197 -0.08965499699115753 -0.0073460000567138195
v -0.0035780000034719706 -0.08980699628591537 -0.004809000063687563
v 0.0008219999726861715 -0.09764199703931808 0.00853000022470951
v 0.0007949999999254942 -0.09885799884796143 0.007895000278949738
v 0.0020540000405162573 -0.10026299953460693 0.005894999951124191
v 0.0022060000337660313 -0.103302001953125 0.002641000086441636
v 0.00027600000612437725 -0.09759899973869324 0.00824000034481287
v 0.0019490000559017062 -0.10354799777269363 -0.00025599999935366213
v 0.0017450000159442425 -0.10224699974060059 -0.004894999787211418
v -0.0028909998945891857 -0.10064099729061127 -0.0018579999450594187
v 0.0007740000146441162 -0.09494999796152115 -0.008934999816119671
v 0.00038400001358240843 -0.09536699950695038 -0.00916100014001131
v 0.0002629999944474548 -0.09837400168180466 -0.008328000083565712
v -0.0005610000225715339 -0.09288299828767776 -0.009503999724984169
v -0.0010000000474974513 -0.09078700095415115 -0.008616000413894653
v -0.002715999959036708 -0.09393899887800217 0.005104000214487314
v -0.006295999977737665 -0.09104400128126144 0.0028260000981390476
v -0.009240999817848206 -0.058591000735759735 0.005444999784231186
v -0.004548000171780586 -0.05557199940085411 0.003017999930307269
v -0.0062339999713003635 -0.052393000572919846 0.0034199999645352364
v -0.00940600037574768 -0.05085799843072891 0.00509499991312623
v -0.0033480001147836447 -0.04452100023627281 0.002715999959036708
v -0.002245000097900629 -0.03977600112557411 -0.00020900000527035445
v -0.004902000073343515 -0.043528001755476 -0.0024270000867545605
v -0.007306999992579222 -0.044440001249313354 -0.004393000155687332
v -0.009575000032782555 -0.05704899877309799 -0.0021389999892562628
v -0.007877999916672707 -0.050390999764204025 -0.003235999960452318
v -0.01244799979031086 -0.05784200131893158 0.0011360000353306532
v -0.012469000183045864 -0.054350998252630234 0.003341000061482191
v -0.007832000032067299 -0.08420500159263611 0.0008580000139772892
v -0.007542999926954508 -0.08924700319766998 -0.0001849999971454963
v -0.007770999800413847 -0.09198799729347229 -0.001820000004954636
v -0.011256000027060509 -0.054099999368190765 -0.0022070000413805246
v -0.002308000111952424 -0.09171599894762039 -0.006591999903321266
v -0.00145800004247576 -0.09137500077486038 -0.00911100022494793
v -0.002669000066816807 -0.09453800320625305 -0.004985999781638384
v -0.004052999895066023 -0.09470199793577194 -0.0030269999988377094
v -0.006947000045329332 -0.09410399943590164 -0.0018149999668821692
v 0.0004220000118948519 -0.10037299990653992 0.005549999885261059
v -0.0004180000105407089 -0.09985300153493881 0.006023999769240618
v -0.00016700000560376793 -0.1009019985795021 0.003840999910607934
v -0.0033050000201910734 -0.1003360003232956 -0.001117000007070601
v -0.0036770000588148832 -0.09634800255298615 0.002638000063598156
v -0.0018029999919235706 -0.10001499950885773 -0.004368999972939491
v -0.0022700000554323196 -0.09825599938631058 -0.0031469999812543392
v -0.003963999915868044 -0.09840500354766846 -0.0010300000431016088
v -0.00020399999630171806 -0.09562700241804123 -0.009211000055074692
v -0.002222999930381775 -0.09583699703216553 -0.007825000211596489
v -0.0021349999587982893 -0.09366100281476974 -0.007772000040858984
v -0.004265000112354755 -0.09475000202655792 0.0033889999613165855
v -0.007528999820351601 -0.0929810032248497 0.001487000030465424
v -0.005485000088810921 -0.0955900028347969 0.0018189999973401427
v -0.010726000182330608 -0.05087700113654137 0.004999000113457441
v -0.006093999836593866 -0.04184599965810776 0.004265999887138605
v -0.009441999718546867 -0.042555999010801315 0.007164000067859888
v -0.0022640000097453594 -0.038314998149871826 0.0029589999467134476
v -0.004995000082999468 -0.03786800056695938 0.00456599984318018
v -0.0012989999959245324 -0.036956001073122025 -0.0007820000173524022
v -0.0012120000319555402 -0.03710399940609932 0.0012420000275596976
v -0.007420000154525042 -0.03960200026631355 -0.005733999889343977
v -0.005274000111967325 -0.0392879992723465 -0.004985999781638384
v -0.004310000222176313 -0.03902300074696541 -0.004639999940991402
v -0.00822800025343895 -0.03982099890708923 -0.0055680000223219395
v -0.010506999678909779 -0.04475799947977066 -0.004852999933063984
v -0.012323999777436256 -0.04811700060963631 -0.0032850001007318497
v -0.012916999869048595 -0.05447600036859512 0.000506000011228025
v -0.013763000257313251 -0.04463699832558632 0.003573999973013997
v -0.011946000158786774 -0.04504700005054474 0.005284999962896109
v -0.014367000199854374 -0.049274999648332596 0.0003009999927598983
v -0.007988999597728252 -0.09349600225687027 -0.0005450000171549618
v -0.012896000407636166 -0.051045000553131104 -0.0018810000037774444
v -0.004712999798357487 -0.09752199798822403 -0.0007789999945089221
v -0.005551000125706196 -0.09633299708366394 -0.00019200000679120421
v -0.006312999874353409 -0.09530500322580338 -0.0006670000148005784
v -0.007646999787539244 -0.09408099949359894 -0.00011500000255182385
v -0.004310999996960163 -0.09894700348377228 -0.0000779999973019585
v -0.003969000186771154 -0.09954799711704254 -0.0007580000092275441
v -0.004670000169426203 -0.09727499634027481 0.00046300000394694507
v -0.0064039998687803745 -0.09526699781417847 0.000901999999769032
v -0.010991999879479408 -0.04289599880576134 0.006496000103652477
v -0.008346999995410442 -0.03982799872756004 0.007441999856382608
v -0.007215999998152256 -0.039799999445676804 0.006037999875843525
v -0.010120999999344349 -0.04070400074124336 0.007203999906778336
v -0.00046999999904073775 -0.035082001239061356 0.002893999917432666
v -0.006750000175088644 -0.03736500069499016 0.007050999905914068
v -0.0014939999673515558 -0.03432200103998184 0.0035669999197125435
v -0.0030429998878389597 -0.036851998418569565 -0.003507999936118722
v -0.001344999996945262 -0.03438999876379967 0.0006179999909363687
v -0.002575000049546361 -0.034391000866889954 -0.0022360000293701887
v 0.000003999999989900971 -0.0331679992377758 0.0018980000168085098
v -0.005991999991238117 -0.038297999650239944 -0.005429999902844429
v -0.008123000152409077 -0.03850200027227402 -0.005565000232309103
v -0.007333000190556049 -0.038346998393535614 -0.005747999995946884
v -0.005014999769628048 -0.0381769984960556 -0.005243000108748674
v -0.011064999736845493 -0.04227299988269806 -0.004492000211030245
v -0.009794999845325947 -0.040171001106500626 -0.0039980001747608185
v -0.013860000297427177 -0.04284600168466568 -0.003602999961003661
v -0.01425699982792139 -0.048326000571250916 -0.003166999900713563
v -0.01345799956470728 -0.0491890013217926 -0.002517000073567033
v -0.014329999685287476 -0.049623001366853714 -0.0013040000339969993
v -0.01191100012511015 -0.042608000338077545 0.004528000019490719
v -0.014131000265479088 -0.04196000099182129 0.0037400000728666782
v -0.015199000015854836 -0.039746999740600586 0.003163000103086233
v -0.014910999685525894 -0.04878599941730499 -0.001896000001579523
v -0.01629200018942356 -0.04180099815130234 -0.0017709999810904264
v -0.01670599915087223 -0.04057899862527847 0.00043899999582208693
v -0.011629999615252018 -0.041117001324892044 0.0061969999223947525
v -0.010266000404953957 -0.03938300162553787 0.0076779997907578945
v -0.009100999683141708 -0.03923700004816055 0.008139999583363533
v -0.011850000359117985 -0.039824001491069794 0.006566999945789576
v 0.0005310000269673765 -0.03157399967312813 0.0023380001075565815
v -0.009576999582350254 -0.03838900104165077 0.008615000173449516
v -0.009548000060021877 -0.03719300031661987 0.008960000239312649
v -0.007104000076651573 -0.031038999557495117 0.005756999831646681
v -0.00152299995534122 -0.029296999797225 0.002939000027254224
v -0.004701000172644854 -0.03715499863028526 -0.00496299983933568
v -0.004875000100582838 -0.03395799919962883 -0.004898000042885542
v -0.006302000023424625 -0.035684000700712204 -0.004503999836742878
v -0.006113000214099884 -0.036191001534461975 -0.004889000207185745
v -0.0019199999514967203 -0.032690998166799545 -0.002423000056296587
v -0.004029000177979469 -0.033764999359846115 -0.0037819999270141125
v 0.0007329999934881926 -0.03173299878835678 0.0018400000408291817
v -0.005863000173121691 -0.03728500008583069 -0.005295999813824892
v -0.0068720001727342606 -0.03747199848294258 -0.0053369998931884766
v -0.008004000410437584 -0.03694000095129013 -0.004666999913752079
v -0.00860000029206276 -0.036991000175476074 -0.004170000087469816
v -0.011130000464618206 -0.0393190011382103 -0.0032969999592751265
v -0.012242999859154224 -0.03910600021481514 -0.0024019998963922262
v -0.010634000413119793 -0.0389540009200573 -0.0037010000087320805
v -0.01561299990862608 -0.04098000004887581 -0.002827000105753541
v -0.01181000005453825 -0.03889400139451027 0.0042940001003444195
v -0.014054999686777592 -0.03880399838089943 0.004095000214874744
v -0.015588000416755676 -0.03856800124049187 0.0034630000591278076
v -0.01716100051999092 -0.040024999529123306 -0.0012049999786540866
v -0.016951000317931175 -0.04022099822759628 -0.0021470000501722097
v -0.01734899915754795 -0.038704998791217804 0.00029799999902024865
v -0.017007000744342804 -0.03441200032830238 0.003441999899223447
v -0.012657999992370605 -0.03740999847650528 0.007323000114411116
v -0.012009000405669212 -0.037755001336336136 0.004153000190854073
v -0.013035999611020088 -0.03681499883532524 0.0050490000285208225
v 0.0005360000068321824 -0.03081200085580349 0.0020459999796003103
v -0.01030499953776598 -0.03263700008392334 0.00964299961924553
v -0.01194700039923191 -0.03301699832081795 0.009049000218510628
v -0.011219999752938747 -0.030632000416517258 0.00611699977889657
v -0.01145199965685606 -0.030906999483704567 0.0068270000629127026
v -0.012186000123620033 -0.03139699995517731 0.008201999589800835
v -0.011315000243484974 -0.03184200078248978 0.009114000014960766
v 0.0002589999930933118 -0.03027999959886074 0.001858999952673912
v -0.011803999543190002 -0.030666999518871307 0.005291000008583069
v -0.009344999678432941 -0.0306560005992651 0.003976999782025814
v -0.0067010000348091125 -0.031307999044656754 0.0003000000142492354
v -0.004904999863356352 -0.03311200067400932 -0.005177999846637249
v -0.005880999844521284 -0.03407900035381317 -0.0048409998416900635
v -0.0069679999724030495 -0.0352340005338192 -0.00394099997356534
v -0.00698699988424778 -0.034370001405477524 -0.004102999810129404
v -0.006814999971538782 -0.03619600087404251 -0.0045380000956356525
v -0.003473999910056591 -0.03292199969291687 -0.00392800010740757
v -0.0032369999680668116 -0.032145000994205475 -0.0038620000705122948
v 0.000387999985832721 -0.030834000557661057 0.0010900000343099236
v -0.001062000053934753 -0.03147999942302704 -0.0010819999733939767
v -0.008925000205636024 -0.035144999623298645 -0.0035429999697953463
v -0.007741999812424183 -0.03608899936079979 -0.004478000104427338
v -0.007988999597728252 -0.03522700071334839 -0.004348999820649624
v -0.010613000020384789 -0.03549899905920029 -0.002877000020816922
v -0.010638999752700329 -0.03713500127196312 -0.0032240001019090414
v -0.016047000885009766 -0.039716001600027084 -0.0027209999971091747
v -0.015030999667942524 -0.03809399902820587 -0.0018919999711215496
v -0.015447000041604042 -0.03556700050830841 -0.0021810000762343407
v -0.011501999571919441 -0.03649299964308739 -0.0027439999394118786
v -0.015091000124812126 -0.036726001650094986 0.004964000079780817
v -0.017618000507354736 -0.03914999961853027 -0.0025679999962449074
v -0.018598999828100204 -0.0384490005671978 -0.0017140000127255917
v -0.0191079992800951 -0.036552999168634415 -0.0007820000173524022
v -0.015545999631285667 -0.03329100087285042 0.004869000054895878
v -0.01611899957060814 -0.029109999537467957 0.0039079999551177025
v -0.013565000146627426 -0.034060999751091 0.005799999926239252
v -0.013767000287771225 -0.0327490009367466 0.005859999917447567
v -0.012942000292241573 -0.03309499844908714 0.008073999546468258
v -0.012659999541938305 -0.03039499931037426 0.005601000040769577
v -0.012107999995350838 -0.030634000897407532 0.006335000041872263
v -0.01244099996984005 -0.0313120000064373 0.00648800004273653
v -0.01231400016695261 -0.03058600053191185 0.0040790000930428505
v -0.013148000463843346 -0.030125999823212624 0.004815999884158373
v -0.0128370001912117 -0.029805000871419907 0.003172999946400523
v -0.008557000197470188 -0.029913000762462616 -0.00021300000662449747
v -0.0116779999807477 -0.03057900071144104 0.0003239999932702631
v -0.006182999815791845 -0.03209900110960007 -0.004964999854564667
v -0.004327999893575907 -0.0321739986538887 -0.005404000170528889
v -0.0077669997699558735 -0.03530900180339813 -0.0038660001009702682
v -0.007706999778747559 -0.034724000841379166 -0.003766000038012862
v -0.007416999898850918 -0.033893998712301254 -0.003524000057950616
v -0.0032289999071508646 -0.031606998294591904 -0.003645000047981739
v -0.0041069998405873775 -0.03141700103878975 -0.005288000218570232
v -0.009486000053584576 -0.02965500019490719 -0.0019509999547153711
v -0.0031820000149309635 -0.03125999867916107 -0.0031689999159425497
v -0.009734000079333782 -0.029121000319719315 -0.0027729999274015427
v -0.00811699964106083 -0.03200700134038925 -0.004110000096261501
v -0.009974000044167042 -0.034226998686790466 -0.0035699999425560236
v -0.008073999546468258 -0.03416299819946289 -0.0038980001118034124
v -0.01371499989181757 -0.031922001391649246 -0.002130999928340316
v -0.017636999487876892 -0.037728000432252884 -0.0031210000161081553
v -0.016932999715209007 -0.03612599894404411 -0.002615999896079302
v -0.018705999478697777 -0.032944001257419586 -0.0015249999705702066
v -0.017771000042557716 -0.02839300036430359 -0.001851000008173287
v -0.017235999926924706 -0.028369000181555748 -0.002380999969318509
v -0.018188999965786934 -0.037129998207092285 -0.002795000094920397
v -0.018704000860452652 -0.029681000858545303 -0.0005629999795928597
v -0.016448000445961952 -0.027248000726103783 0.003056999994441867
v -0.014837999828159809 -0.02774900011718273 0.002887000096961856
v -0.012760000303387642 -0.029565000906586647 -0.0006140000186860561
v -0.014909000135958195 -0.027289999648928642 0.0011630000080913305
v -0.007996000349521637 -0.032597001641988754 -0.0036669999826699495
v -0.008077999576926231 -0.03128800168633461 -0.004044999834150076
v -0.005669000092893839 -0.030257999897003174 -0.0044999998062849045
v -0.00797600019723177 -0.03056200034916401 -0.004025000147521496
v -0.007745000068098307 -0.034338001161813736 -0.0033760000951588154
v -0.007911000400781631 -0.033587001264095306 -0.003295999951660633
v -0.0038960000965744257 -0.030997000634670258 -0.004935000091791153
v -0.013156999833881855 -0.028982000425457954 -0.002050000010058284
v -0.0038610000628978014 -0.030722999945282936 -0.004478000104427338
v -0.013225000351667404 -0.028668999671936035 -0.0025480000767856836
v -0.011241000145673752 -0.02865299955010414 -0.0030529999639838934
v -0.010642999783158302 -0.03117400035262108 -0.0034680000972002745
v -0.011394999921321869 -0.030357999727129936 -0.0033650000113993883
v -0.01410400029271841 -0.02924099937081337 -0.0034549999982118607
v -0.013012999668717384 -0.030597999691963196 -0.0034290000330656767
v -0.01768600009381771 -0.026683999225497246 -0.0010590000310912728
v -0.01742600090801716 -0.027084000408649445 -0.0020020001102238894
v -0.016241999343037605 -0.027139000594615936 -0.0026179999113082886
v -0.016973000019788742 -0.02694600075483322 -0.0022350000217556953
v -0.017335999757051468 -0.02606000006198883 -0.0003490000090096146
v -0.01697400026023388 -0.025836000218987465 0.00031800000579096377
v -0.01525100041180849 -0.027096999809145927 -0.0016980000073090196
v -0.012072999961674213 -0.029238000512123108 -0.0030129998922348022
v -0.007464999798685312 -0.030055999755859375 -0.00394099997356534
v -0.015212999656796455 -0.02743699960410595 -0.002403999911621213
v -0.014569000340998173 -0.028217000886797905 -0.0031419999431818724
v -0.017253000289201736 -0.026252999901771545 -0.0012750000460073352
v -0.017017999663949013 -0.025860000401735306 -0.0007130000158213079
f 1 2 3
f 3 4 1
f 2 1 5
f 1 6 5
f 1 7 6
f 7 1 4
f 8 3 2
f 2 9 8
f 2 10 9
f 2 5 11
f 2 11 10
f 12 4 3
f 13 12 3
f 13 3 14
f 3 8 14
f 12 15 4
f 16 4 15
f 16 7 4
f 17 5 18
f 5 6 18
f 5 17 11
f 18 6 19
f 7 19 6
f 7 16 20
f 20 19 7
f 21 14 8
f 8 9 22
f 22 21 8
f 9 23 24
f 22 9 24
f 9 25 26
f 23 9 26
f 10 25 9
f 27 25 10
f 11 27 10
f 17 27 11
f 13 28 12
f 12 28 15
f 28 13 29
f 30 29 13
f 13 14 30
f 30 14 31
f 31 14 21
f 32 16 15
f 15 33 32
f 28 33 15
f 34 20 16
f 34 16 32
f 17 18 19
f 17 35 36
f 17 19 35
f 27 17 36
f 19 20 35
f 20 34 37
f 37 35 20
f 31 21 38
f 38 21 22
f 22 24 38
f 23 39 24
f 40 39 23
f 23 41 40
f 23 26 41
f 24 42 38
f 24 39 42
f 25 43 26
f 25 44 43
f 45 25 46
f 45 44 25
f 47 46 25
f 25 27 47
f 48 26 43
f 26 48 41
f 49 27 50
f 36 51 27
f 27 49 47
f 50 27 52
f 27 51 52
f 28 29 53
f 53 54 28
f 54 33 28
f 55 29 30
f 53 29 55
f 56 57 30
f 31 56 30
f 57 55 30
f 42 31 38
f 31 42 56
f 58 34 32
f 32 33 58
f 54 58 33
f 37 34 59
f 58 59 34
f 36 35 60
f 61 35 37
f 61 60 35
f 62 36 63
f 63 36 60
f 51 36 62
f 37 64 61
f 64 37 59
f 39 40 42
f 65 42 40
f 40 66 65
f 66 40 41
f 66 41 48
f 65 56 42
f 43 44 67
f 43 68 48
f 43 67 68
f 67 44 45
f 46 69 45
f 45 70 67
f 45 71 70
f 45 72 71
f 45 69 72
f 46 47 73
f 73 74 46
f 74 69 46
f 75 73 47
f 49 75 47
f 76 48 68
f 76 66 48
f 50 77 49
f 78 49 77
f 49 78 79
f 80 49 79
f 80 75 49
f 50 52 77
f 51 81 52
f 51 62 82
f 51 82 81
f 81 83 52
f 52 83 77
f 57 84 53
f 85 86 53
f 57 53 55
f 53 84 85
f 86 54 53
f 54 86 87
f 54 87 58
f 84 57 56
f 56 65 88
f 88 84 56
f 89 59 58
f 87 89 58
f 59 90 64
f 91 59 89
f 59 91 90
f 61 63 60
f 92 63 61
f 61 93 92
f 93 61 94
f 94 61 64
f 63 95 62
f 62 95 96
f 96 82 62
f 92 95 63
f 64 90 94
f 88 65 97
f 65 66 98
f 98 97 65
f 76 98 66
f 99 67 70
f 67 99 68
f 76 68 99
f 74 100 69
f 69 100 72
f 70 101 102
f 71 101 70
f 102 99 70
f 72 100 71
f 71 100 103
f 71 103 101
f 74 73 75
f 104 74 105
f 74 106 105
f 74 75 107
f 108 74 107
f 108 106 74
f 100 74 103
f 104 103 74
f 80 107 75
f 98 76 109
f 109 76 110
f 99 110 76
f 83 78 77
f 111 79 78
f 111 78 112
f 83 113 78
f 78 113 112
f 111 109 79
f 109 80 79
f 107 80 114
f 109 114 80
f 83 81 115
f 116 81 82
f 115 81 116
f 96 116 82
f 83 115 117
f 118 83 117
f 119 83 118
f 83 119 113
f 88 85 84
f 85 120 86
f 121 85 88
f 120 85 121
f 86 122 87
f 120 122 86
f 123 89 87
f 123 87 122
f 88 124 121
f 88 97 124
f 89 123 91
f 125 90 91
f 90 125 94
f 91 126 125
f 91 127 126
f 127 91 123
f 95 92 93
f 95 93 128
f 128 93 94
f 128 94 129
f 129 94 125
f 116 95 130
f 96 95 116
f 130 95 128
f 124 97 131
f 97 98 131
f 98 109 111
f 112 98 111
f 98 132 133
f 131 98 133
f 112 132 98
f 110 99 134
f 99 102 134
f 102 101 103
f 103 135 102
f 136 102 135
f 136 134 102
f 104 137 103
f 103 138 135
f 138 103 137
f 105 139 104
f 140 137 104
f 140 104 139
f 105 141 142
f 105 142 143
f 106 141 105
f 143 139 105
f 141 106 144
f 145 106 108
f 145 144 106
f 108 107 114
f 114 146 108
f 146 145 108
f 110 147 109
f 114 109 147
f 148 110 149
f 150 147 110
f 150 110 148
f 149 110 134
f 132 112 151
f 151 112 113
f 151 113 119
f 152 114 147
f 152 146 114
f 117 115 130
f 130 115 116
f 126 118 117
f 129 125 117
f 125 126 117
f 129 117 130
f 118 153 154
f 127 118 126
f 127 153 118
f 155 119 118
f 155 118 154
f 156 119 155
f 151 119 156
f 122 120 121
f 122 121 157
f 157 121 124
f 157 158 122
f 122 158 123
f 158 127 123
f 157 124 159
f 159 124 131
f 157 127 158
f 157 153 127
f 130 128 129
f 159 131 133
f 160 133 132
f 156 132 151
f 156 160 132
f 154 159 133
f 160 154 133
f 134 136 161
f 161 149 134
f 135 162 136
f 163 135 138
f 163 162 135
f 136 162 164
f 161 136 164
f 165 138 137
f 137 140 165
f 138 166 163
f 167 166 138
f 138 165 167
f 143 168 139
f 169 140 139
f 170 139 168
f 170 169 139
f 165 140 171
f 140 169 171
f 172 142 141
f 144 173 141
f 174 172 141
f 141 173 174
f 175 143 142
f 172 175 142
f 143 175 168
f 144 176 177
f 144 145 176
f 144 177 173
f 145 178 176
f 145 146 179
f 178 145 179
f 180 179 146
f 152 180 146
f 147 180 152
f 180 147 181
f 150 181 147
f 182 148 149
f 148 182 183
f 150 148 184
f 184 148 183
f 161 182 149
f 150 185 181
f 150 186 185
f 150 187 186
f 187 150 184
f 153 157 159
f 154 153 159
f 160 155 154
f 156 155 160
f 188 182 161
f 161 164 188
f 162 189 164
f 189 162 190
f 163 190 162
f 163 166 190
f 164 191 188
f 164 189 191
f 192 167 165
f 171 192 165
f 166 193 190
f 194 166 167
f 194 193 166
f 167 195 194
f 196 167 192
f 196 195 167
f 168 175 197
f 170 168 198
f 168 199 198
f 200 199 168
f 197 200 168
f 201 171 169
f 201 169 170
f 170 202 201
f 198 202 170
f 192 171 203
f 171 201 203
f 204 175 172
f 205 204 172
f 174 205 172
f 173 205 174
f 173 206 205
f 173 207 206
f 177 207 173
f 175 204 197
f 177 176 208
f 176 209 208
f 176 178 209
f 210 207 177
f 210 177 208
f 179 211 178
f 178 211 209
f 179 180 181
f 179 181 185
f 186 179 185
f 186 211 179
f 182 188 212
f 183 182 212
f 184 183 213
f 183 212 213
f 214 187 184
f 213 214 184
f 186 215 216
f 216 211 186
f 215 186 187
f 217 215 187
f 217 187 218
f 187 214 218
f 191 212 188
f 189 190 193
f 189 219 191
f 189 193 219
f 212 191 220
f 191 221 220
f 221 191 219
f 192 203 222
f 196 192 222
f 219 193 194
f 194 223 224
f 219 194 224
f 195 223 194
f 195 196 225
f 225 226 195
f 227 228 195
f 228 223 195
f 227 195 226
f 196 222 229
f 196 230 225
f 196 231 230
f 232 231 196
f 232 196 229
f 204 200 197
f 198 233 202
f 234 233 198
f 199 234 198
f 235 199 200
f 235 236 199
f 234 199 236
f 237 200 204
f 237 235 200
f 201 238 239
f 240 203 201
f 201 241 240
f 241 201 239
f 201 202 238
f 202 233 238
f 203 240 222
f 205 237 204
f 205 206 237
f 206 207 242
f 206 243 237
f 244 243 206
f 242 244 206
f 242 207 245
f 246 245 207
f 210 246 207
f 208 209 246
f 210 208 246
f 247 209 211
f 209 247 248
f 209 248 249
f 209 250 246
f 209 249 250
f 216 247 211
f 213 212 220
f 251 214 213
f 220 251 213
f 251 218 214
f 216 215 252
f 253 215 217
f 215 253 252
f 252 247 216
f 253 217 254
f 217 218 254
f 255 256 218
f 251 255 218
f 218 256 254
f 219 257 221
f 258 219 259
f 258 257 219
f 219 224 259
f 220 221 251
f 221 255 251
f 221 257 255
f 222 240 229
f 228 224 223
f 228 259 224
f 225 260 261
f 260 225 230
f 261 226 225
f 226 261 262
f 227 226 262
f 227 259 228
f 259 227 262
f 232 229 240
f 230 231 263
f 230 264 260
f 263 264 230
f 265 263 231
f 232 265 231
f 266 232 240
f 232 267 265
f 267 232 266
f 233 234 268
f 238 233 269
f 269 233 268
f 268 234 236
f 270 235 237
f 270 271 235
f 235 271 236
f 271 272 236
f 268 236 272
f 270 237 244
f 244 237 243
f 239 238 269
f 273 239 274
f 273 241 239
f 239 269 274
f 275 266 240
f 275 240 241
f 241 276 277
f 273 276 241
f 277 275 241
f 242 278 244
f 242 279 278
f 242 245 279
f 278 280 244
f 280 270 244
f 245 250 281
f 245 246 250
f 245 281 279
f 247 252 282
f 248 247 282
f 249 248 283
f 283 248 282
f 249 284 285
f 285 286 249
f 281 249 286
f 284 249 283
f 249 281 250
f 287 252 253
f 287 282 252
f 253 284 287
f 284 253 254
f 284 254 288
f 254 256 289
f 288 254 289
f 255 264 256
f 255 257 258
f 258 264 255
f 264 290 256
f 290 289 256
f 258 262 264
f 258 259 262
f 264 262 260
f 260 262 261
f 265 264 263
f 264 265 290
f 267 290 265
f 266 291 267
f 275 291 266
f 267 292 290
f 291 292 267
f 268 293 278
f 268 278 294
f 274 269 268
f 295 274 268
f 296 268 294
f 296 295 268
f 272 293 268
f 271 270 297
f 270 298 297
f 280 298 270
f 271 297 272
f 298 293 272
f 297 298 272
f 274 299 273
f 273 299 276
f 295 299 274
f 275 300 291
f 277 300 275
f 276 301 277
f 299 301 276
f 277 302 300
f 302 277 303
f 277 301 295
f 303 277 295
f 278 293 280
f 281 278 279
f 304 278 281
f 305 294 278
f 304 305 278
f 280 293 298
f 286 306 281
f 307 304 281
f 281 306 307
f 283 282 287
f 287 284 283
f 285 284 288
f 285 288 308
f 285 309 286
f 285 308 309
f 286 310 306
f 311 286 309
f 311 310 286
f 289 312 288
f 312 308 288
f 312 289 313
f 292 289 290
f 289 292 313
f 292 291 314
f 300 314 291
f 292 314 313
f 294 305 315
f 296 294 315
f 316 295 296
f 295 301 299
f 303 295 316
f 316 296 303
f 303 296 315
f 314 300 317
f 302 317 300
f 302 303 315
f 317 302 318
f 315 318 302
f 307 305 304
f 315 305 306
f 306 305 307
f 315 306 318
f 310 318 306
f 319 308 312
f 308 319 309
f 311 309 319
f 310 311 319
f 319 317 310
f 317 318 310
f 312 320 319
f 312 313 320
f 313 314 320
f 320 314 319
f 314 317 319
