# Generated by Visualization Toolkit
v 0.1621749997138977 0.0033499998971819878 0.0003440000000409782
v 0.16236799955368042 0.00356299988925457 -0.0005249999812804163
v 0.16900299489498138 -0.005142000038176775 0.0010870000114664435
v 0.15954099595546722 0.005028999876230955 0.0003760000108741224
v 0.15640400350093842 0.007590999826788902 -0.0023219999857246876
v 0.17218199372291565 -0.0020359999034553766 0.005412000231444836
v 0.17037400603294373 0.0008960000122897327 0.003971000202000141
v 0.17207199335098267 -0.00469700014218688 0.003790999995544553
v 0.16745099425315857 0.0029329999815672636 0.0047690002247691154
v 0.16225400567054749 0.005198999773710966 0.0013379999436438084
v 0.1695449948310852 -0.002939000027254224 -0.0014590000500902534
v 0.1708260029554367 0.006998000200837851 -0.003693999955430627
v 0.17053699493408203 -0.0038920000661164522 -0.002303000073879957
v 0.174235999584198 -0.005946999881416559 0.0011350000277161598
v 0.1732490062713623 -0.005166999995708466 0.0037090000696480274
v 0.1721539944410324 -0.005193999968469143 0.0005869999877177179
v 0.15221799910068512 0.014611000195145607 0.0005660000024363399
v 0.1390949934720993 0.014758000150322914 -0.00108299998100847
v 0.13212299346923828 0.017558999359607697 -0.0054870001040399075
v 0.13933199644088745 0.01859699934720993 -0.006570000201463699
v 0.17681799829006195 -0.002213000087067485 0.005555000156164169
v 0.17816400527954102 0.0026549999602138996 0.0045819999650120735
v 0.16830599308013916 0.005547999870032072 0.005090999882668257
v 0.1696159988641739 0.007424999959766865 0.00406799977645278
v 0.16399599611759186 0.007720000110566616 0.0025579999200999737
v 0.15394900739192963 0.01676500029861927 -0.001117000007070601
v 0.16837100684642792 0.009941999800503254 -0.0015589999966323376
v 0.17256399989128113 0.007910000160336494 -0.0030799999367445707
v 0.17866599559783936 0.005146999843418598 -0.0012179999612271786
v 0.17706799507141113 -0.002222999930381775 -0.002964999992400408
v 0.1752520054578781 -0.004385000094771385 -0.002877000020816922
v 0.15004000067710876 0.01738099940121174 -0.005293000023812056
v 0.1757570058107376 -0.00532800005748868 -0.0015930000226944685
v 0.1772170066833496 -0.004097000230103731 -0.001978999935090542
v 0.1645050048828125 0.00864499993622303 0.0021840000990778208
v 0.16396699845790863 0.011939000338315964 -0.00043799998820759356
v 0.138387992978096 0.018323000520467758 -0.0004250000056345016
v 0.13660599291324615 0.02492699958384037 -0.0023350000847131014
v 0.12771600484848022 0.017071999609470367 -0.001765000051818788
v 0.13450099527835846 0.021720999851822853 -0.007864000275731087
v 0.11963299661874771 0.020092999562621117 -0.010215999558568
v 0.12930800020694733 0.019386999309062958 -0.008364999666810036
v 0.13523100316524506 0.02426999993622303 -0.007081000134348869
v 0.17979800701141357 -0.0003100000030826777 0.00367900007404387
v 0.17982199788093567 0.0032220000866800547 0.0015140000032261014
v 0.17737099528312683 0.005975000094622374 0.0008379999781027436
v 0.18021200597286224 0.00004400000034365803 -0.0010379999876022339
v 0.1203169971704483 0.03363800048828125 -0.005688999779522419
v 0.1184139996767044 0.0334010012447834 -0.0026340000331401825
v 0.12200000137090683 0.025860000401735306 0.0016670000040903687
v 0.11862999945878983 0.019809000194072723 -0.005849000066518784
v 0.1312289983034134 0.025282999500632286 -0.008311999961733818
v 0.1128230020403862 0.019598999992012978 -0.010737000033259392
v 0.11416099965572357 0.020912999287247658 -0.011672000400722027
v 0.12171799689531326 0.024252999573946 -0.011145000346004963
v 0.12431299686431885 0.025537999346852303 -0.010906999930739403
v 0.18053099513053894 0.000582000007852912 0.0013200000394135714
v 0.11879199743270874 0.032304998487234116 -0.011270999908447266
v 0.1122170016169548 0.03489400073885918 -0.010804999619722366
v 0.11271300166845322 0.03518199920654297 -0.006268000230193138
v 0.11265499889850616 0.028875000774860382 0.0025059999898076057
v 0.11165300011634827 0.034306999295949936 -0.0010920000495389104
v 0.11672999709844589 0.02237600088119507 -0.003969999961555004
v 0.11354999989271164 0.02225399948656559 -0.005113000050187111
v 0.11355800181627274 0.023097999393939972 -0.002845000009983778
v 0.11228500306606293 0.021462999284267426 -0.0051299999468028545
v 0.11061199754476547 0.0267730001360178 -0.0003459999861661345
v 0.10965599864721298 0.021321000531315804 -0.01028599962592125
v 0.12120600044727325 0.025053000077605247 -0.01116000022739172
v 0.11997900158166885 0.027860000729560852 -0.012357000261545181
v 0.11948399990797043 0.028503000736236572 -0.012609000317752361
v 0.11103899776935577 0.028857000172138214 -0.01118400041013956
v 0.12236200273036957 0.025661999359726906 -0.011478000320494175
v 0.11406199634075165 0.03220900148153305 -0.012834999710321426
v 0.11026400327682495 0.028276000171899796 -0.00012599999899975955
v 0.11184199899435043 0.032919999212026596 -0.011951000429689884
v 0.11187099665403366 0.033966001123189926 -0.0068259998224675655
v 0.1100120022892952 0.029817000031471252 0.0006000000284984708
v 0.111626997590065 0.021529000252485275 -0.007013999857008457
v 0.11183299869298935 0.021562999114394188 -0.005543999839574099
v 0.11001099646091461 0.024330999702215195 -0.0035039999056607485
v 0.10945399850606918 0.022633999586105347 -0.00823500007390976
f 1 2 3
f 4 5 1
f 1 6 7
f 2 1 5
f 1 8 6
f 1 7 9
f 1 9 10
f 10 4 1
f 1 3 8
f 2 11 3
f 5 12 2
f 12 13 2
f 11 2 13
f 14 15 3
f 3 11 16
f 16 14 3
f 15 8 3
f 10 17 4
f 18 19 4
f 5 4 19
f 18 4 17
f 19 20 5
f 12 5 20
f 6 21 7
f 8 21 6
f 21 22 7
f 23 9 7
f 7 24 23
f 22 24 7
f 21 8 15
f 10 9 23
f 10 25 17
f 10 23 25
f 11 13 16
f 26 27 12
f 28 12 27
f 29 30 12
f 30 31 12
f 29 12 28
f 31 13 12
f 32 26 12
f 32 12 20
f 13 31 16
f 16 33 14
f 14 21 15
f 14 33 34
f 21 14 34
f 31 33 16
f 35 36 17
f 36 26 17
f 17 25 35
f 37 18 17
f 17 38 37
f 26 38 17
f 19 18 39
f 39 18 37
f 19 40 20
f 19 39 41
f 19 42 40
f 42 19 41
f 40 43 20
f 32 20 43
f 22 21 44
f 44 21 34
f 22 44 45
f 22 45 46
f 22 46 24
f 23 36 35
f 23 35 25
f 36 23 24
f 24 27 36
f 46 27 24
f 26 32 38
f 26 36 27
f 27 46 28
f 28 46 29
f 47 29 45
f 45 29 46
f 30 29 47
f 30 47 34
f 30 34 31
f 34 33 31
f 32 48 38
f 48 32 43
f 44 34 47
f 49 50 37
f 49 37 38
f 39 37 50
f 48 49 38
f 51 41 39
f 39 50 51
f 40 52 43
f 52 40 42
f 51 53 41
f 53 54 41
f 41 54 55
f 56 41 55
f 41 56 42
f 52 42 56
f 43 52 48
f 57 45 44
f 44 47 57
f 47 45 57
f 48 52 58
f 48 59 60
f 59 48 58
f 49 48 60
f 50 49 61
f 62 49 60
f 49 62 61
f 63 50 64
f 50 65 66
f 50 66 64
f 65 50 67
f 50 61 67
f 50 63 51
f 63 53 51
f 56 58 52
f 54 53 68
f 63 68 53
f 55 54 69
f 69 54 70
f 71 70 54
f 54 72 71
f 54 68 72
f 73 55 69
f 73 56 55
f 56 73 58
f 71 74 58
f 58 70 71
f 58 73 70
f 59 58 74
f 72 75 59
f 72 59 76
f 59 75 77
f 76 59 74
f 59 77 60
f 60 77 62
f 75 61 78
f 61 62 78
f 67 61 75
f 62 77 78
f 63 79 68
f 79 63 64
f 66 79 64
f 65 80 66
f 67 81 65
f 81 82 65
f 65 82 80
f 79 66 80
f 81 67 75
f 79 82 68
f 72 68 82
f 70 73 69
f 72 74 71
f 82 75 72
f 76 74 72
f 75 82 81
f 75 78 77
f 79 80 82
