# Generated by Visualization Toolkit
v 0.16580000519752502 0.007329000160098076 -0.03482000157237053
v 0.1654050052165985 0.005884999874979258 -0.034901998937129974
v 0.15909700095653534 0.009976999834179878 -0.03320299834012985
v 0.16913500428199768 0.010520000010728836 -0.031876999884843826
v 0.1714629977941513 0.005288000218570232 -0.03574899956583977
v 0.16239400207996368 0.004573000129312277 -0.03366599977016449
v 0.1674569994211197 0.003837999887764454 -0.03517099842429161
v 0.16070200502872467 0.007313000038266182 -0.033629000186920166
v 0.16942399740219116 0.004459000192582607 -0.035562001168727875
v 0.1564909964799881 0.008888999931514263 -0.03339700028300285
v 0.1348010003566742 0.01816900074481964 -0.031096000224351883
v 0.1561879962682724 0.014302999712526798 -0.029363000765442848
v 0.1734360009431839 0.012369999662041664 -0.02877099998295307
v 0.15894100069999695 0.014023999683558941 -0.029116999357938766
v 0.1727689951658249 0.008741999976336956 -0.033521998673677444
v 0.1758520007133484 0.010067000053822994 -0.03214100003242493
v 0.17434699833393097 0.005111999809741974 -0.03584799915552139
v 0.17540299892425537 0.008090999908745289 -0.034428998827934265
v 0.16077600419521332 0.00092299998505041 -0.02979400008916855
v 0.15804700553417206 0.006308000069111586 -0.033555999398231506
v 0.16732299327850342 -0.0040790000930428505 -0.030565999448299408
v 0.16722500324249268 0.0026599999982863665 -0.03454500064253807
v 0.16806000471115112 0.0033420000690966845 -0.035092998296022415
v 0.16948799788951874 -0.00036899998667649925 -0.03321100026369095
v 0.17391100525856018 0.003926000092178583 -0.03546300157904625
v 0.17413899302482605 0.0044999998062849045 -0.03572100028395653
v 0.14586399495601654 0.010718000121414661 -0.03275100141763687
v 0.14160899817943573 0.013693000189960003 -0.03224800154566765
v 0.13411900401115417 0.014907999895513058 -0.03212499991059303
v 0.13071100413799286 0.01905299909412861 -0.031978998333215714
v 0.1407719999551773 0.01869400031864643 -0.028680000454187393
v 0.13577499985694885 0.02067900076508522 -0.02865700051188469
v 0.12793299555778503 0.02540699951350689 -0.029726000502705574
v 0.12785300612449646 0.022251000627875328 -0.031713999807834625
v 0.1415420025587082 0.01936499960720539 -0.02468699961900711
v 0.1543940007686615 0.015668999403715134 -0.024647999554872513
v 0.17609499394893646 0.01320900022983551 -0.024720000103116035
v 0.17828699946403503 0.011630999855697155 -0.02804899960756302
v 0.16993099451065063 0.013535999692976475 -0.024171000346541405
v 0.17321699857711792 0.013818000443279743 -0.023781999945640564
v 0.16391199827194214 0.014045000076293945 -0.024557000026106834
v 0.1592469960451126 0.014639999717473984 -0.024498000741004944
v 0.17866599559783936 0.009500999934971333 -0.0319180004298687
v 0.17661599814891815 0.003737000050023198 -0.03510899841785431
v 0.1780710071325302 0.007015000097453594 -0.03406799957156181
v 0.17523500323295593 0.00392800010740757 -0.035408999770879745
v 0.16185800731182098 -0.0009350000182166696 -0.028867999091744423
v 0.16049499809741974 0.000818000000435859 -0.02875800058245659
v 0.1571110039949417 0.0030519999563694 -0.03095499984920025
v 0.16565799713134766 -0.003727999981492758 -0.029810000211000443
v 0.16365399956703186 -0.00267699989490211 -0.02901099994778633
v 0.1569100022315979 0.002991999965161085 -0.029934000223875046
v 0.15248000621795654 0.005185000132769346 -0.03109399974346161
v 0.1705700010061264 -0.004292000085115433 -0.031773000955581665
v 0.16711099445819855 -0.004606000147759914 -0.030068999156355858
v 0.17519600689411163 -0.000539999979082495 -0.03438900038599968
v 0.17490899562835693 -0.0014890000456944108 -0.03413999825716019
v 0.17602400481700897 0.0032649999484419823 -0.035193998366594315
v 0.17619499564170837 0.0006230000290088356 -0.03458699956536293
v 0.1429159939289093 0.008706999942660332 -0.030897000804543495
v 0.13810299336910248 0.010799000039696693 -0.031001999974250793
v 0.1306540071964264 0.015588999725878239 -0.032496001571416855
v 0.13374699652194977 0.012102000415325165 -0.030355999246239662
v 0.12745100259780884 0.01998700015246868 -0.03341500088572502
v 0.13620400428771973 0.02124200016260147 -0.02500399947166443
v 0.1261560022830963 0.02790199965238571 -0.026498999446630478
v 0.1322910040616989 0.023584000766277313 -0.026009999215602875
v 0.12566600739955902 0.026419000700116158 -0.029904000461101532
v 0.12590999901294708 0.027281999588012695 -0.028257999569177628
v 0.1250939965248108 0.023329000920057297 -0.032412998378276825
v 0.1364859938621521 0.019094999879598618 -0.021745000034570694
v 0.146464005112648 0.014192000031471252 -0.020336000248789787
v 0.14048300683498383 0.015375000424683094 -0.019883999601006508
v 0.1351570039987564 0.01645899936556816 -0.018247999250888824
v 0.15618400275707245 0.012564999982714653 -0.021177999675273895
v 0.1512089967727661 0.012834999710321426 -0.02050499990582466
v 0.17907799780368805 0.011274999938905239 -0.02765900082886219
v 0.17344500124454498 0.013617999851703644 -0.023138999938964844
v 0.1761929988861084 0.013057000003755093 -0.023777000606060028
v 0.17895600199699402 0.011850000359117985 -0.023680999875068665
v 0.16350600123405457 0.013074999675154686 -0.0228860005736351
v 0.16793900728225708 0.012749999761581421 -0.022746000438928604
v 0.18018899857997894 0.008400999940931797 -0.030288999900221825
v 0.1797109991312027 0.010847000405192375 -0.027209000661969185
v 0.17823199927806854 0.004598999861627817 -0.03402499854564667
v 0.17886100709438324 0.0032850001007318497 -0.0341080017387867
v 0.17973999679088593 0.005386000033468008 -0.032715000212192535
v 0.16317300498485565 -0.002727000042796135 -0.02813199907541275
v 0.16041199862957 0.0008999999845400453 -0.027811000123620033
v 0.16515299677848816 -0.004370000213384628 -0.027969999238848686
v 0.16708500683307648 -0.005669999867677689 -0.0278680007904768
v 0.15228700637817383 0.005148999858647585 -0.027276000007987022
v 0.14334000647068024 0.00828499998897314 -0.027907999232411385
v 0.17069000005722046 -0.006016000173985958 -0.02973400056362152
v 0.17503100633621216 -0.0038759999442845583 -0.0320499986410141
v 0.17665599286556244 0.0007479999912902713 -0.034428998827934265
v 0.17645199596881866 -0.0028830000665038824 -0.03096500039100647
v 0.17806200683116913 0.0012240000069141388 -0.033702999353408813
v 0.1773180067539215 -0.0011739999754354358 -0.03268299996852875
v 0.13802500069141388 0.00963400024920702 -0.02755800075829029
v 0.13388299942016602 0.011129000224173069 -0.028578000143170357
v 0.12724000215530396 0.01685599982738495 -0.03389500081539154
v 0.13000699877738953 0.011540999636054039 -0.029260000213980675
v 0.12987500429153442 0.011039000004529953 -0.028589999303221703
v 0.12437000125646591 0.020181000232696533 -0.0334319993853569
v 0.13221800327301025 0.022944999858736992 -0.023814000189304352
v 0.13200800120830536 0.02111699990928173 -0.020719999447464943
v 0.12539400160312653 0.028026999905705452 -0.026419000700116158
v 0.12532800436019897 0.02795800007879734 -0.024390999227762222
v 0.12659600377082825 0.02646300010383129 -0.022470999509096146
v 0.12916000187397003 0.02519400045275688 -0.022949999198317528
v 0.12499599903821945 0.02653600089251995 -0.029582999646663666
v 0.1251859962940216 0.02735700085759163 -0.028149999678134918
v 0.12337099760770798 0.023638000711798668 -0.03159800171852112
v 0.13972699642181396 0.013987000100314617 -0.019367000088095665
v 0.1389780044555664 0.012609000317752361 -0.01912900060415268
v 0.14492300152778625 0.012054000049829483 -0.02012600004673004
v 0.1372089982032776 0.014209000393748283 -0.01854100078344345
v 0.13075600564479828 0.018226999789476395 -0.016392000019550323
v 0.13398300111293793 0.013154000043869019 -0.017261000350117683
v 0.13006100058555603 0.017092999070882797 -0.014992999844253063
v 0.15775099396705627 0.009774000383913517 -0.020143000409007072
v 0.1609400063753128 0.01203600037842989 -0.021299000829458237
v 0.15333999693393707 0.010436000302433968 -0.020685000345110893
v 0.1493539959192276 0.010944000445306301 -0.020687000826001167
v 0.17364299297332764 0.013326999731361866 -0.022578999400138855
v 0.17493100464344025 0.013120999559760094 -0.022892000153660774
v 0.17869499325752258 0.011741000227630138 -0.022944999858736992
v 0.17836099863052368 0.011628000065684319 -0.022437000647187233
v 0.17947399616241455 0.010897000320255756 -0.023137999698519707
v 0.1659570038318634 0.011664999648928642 -0.021331999450922012
v 0.1701669991016388 0.012590000405907631 -0.022004999220371246
v 0.18093900382518768 0.007133000064641237 -0.02885499969124794
v 0.18049100041389465 0.004712000023573637 -0.03138900175690651
v 0.18047499656677246 0.009049000218510628 -0.02589399926364422
v 0.17952199280261993 0.002655999967828393 -0.03253500163555145
v 0.16494199633598328 -0.004197999835014343 -0.02713399939239025
v 0.16467900574207306 -0.003309000050649047 -0.026683000847697258
v 0.16305600106716156 -0.00145800004247576 -0.02654300071299076
v 0.16029000282287598 0.0011230000527575612 -0.0259380005300045
v 0.1666409969329834 -0.005512999836355448 -0.026977000758051872
v 0.16964800655841827 -0.005946999881416559 -0.027792999520897865
v 0.16794100403785706 -0.005762000102549791 -0.026877999305725098
v 0.1484059989452362 0.007451000157743692 -0.02462499961256981
v 0.15470600128173828 0.0055610002018511295 -0.02386699989438057
v 0.16110700368881226 0.003066000062972307 -0.02254899963736534
v 0.14616000652313232 0.008125999942421913 -0.02439500018954277
v 0.17095500230789185 -0.006163000129163265 -0.02887899987399578
v 0.17398400604724884 -0.005278000142425299 -0.03064100071787834
v 0.1742590069770813 -0.005299000069499016 -0.028521999716758728
v 0.1771100014448166 -0.0025949999690055847 -0.02926800027489662
v 0.17844900488853455 -0.0009640000062063336 -0.02949099987745285
v 0.1339610069990158 0.010389000177383423 -0.023229999467730522
v 0.1410280019044876 0.009235000237822533 -0.023957999423146248
v 0.13386699557304382 0.0104160001501441 -0.02681400068104267
v 0.12240500003099442 0.0185100007802248 -0.032903000712394714
v 0.12255100160837173 0.016676999628543854 -0.03274000063538551
v 0.12726500630378723 0.011512000113725662 -0.029944999143481255
v 0.12475000321865082 0.014227000065147877 -0.03151699900627136
v 0.12635299563407898 0.009557999670505524 -0.028060000389814377
v 0.1292099952697754 0.010099000297486782 -0.026166999712586403
v 0.12235099822282791 0.02022700011730194 -0.032882001250982285
v 0.12860900163650513 0.022943999618291855 -0.020565999671816826
v 0.12725399434566498 0.0223229993134737 -0.017382999882102013
v 0.12695500254631042 0.02108200080692768 -0.015066999942064285
v 0.12474600225687027 0.02798599936068058 -0.026467999443411827
v 0.12465400248765945 0.02800700068473816 -0.02450600080192089
v 0.12451600283384323 0.027705999091267586 -0.022458000108599663
v 0.12487000226974487 0.024589000269770622 -0.020628999918699265
v 0.12437599897384644 0.02649500034749508 -0.029309000819921494
v 0.1245879977941513 0.02733599953353405 -0.027925999835133553
v 0.12160799652338028 0.020157000049948692 -0.032242998480796814
v 0.12267199903726578 0.023811999708414078 -0.030755000188946724
v 0.1363770067691803 0.012849000282585621 -0.0182499997317791
v 0.1385670006275177 0.011455999687314034 -0.019863000139594078
v 0.14423400163650513 0.009988999925553799 -0.021192999556660652
v 0.13617900013923645 0.011854000389575958 -0.01918400079011917
v 0.1490810066461563 0.008905000053346157 -0.021835999563336372
v 0.1275559961795807 0.02006799913942814 -0.01463400013744831
v 0.12917199730873108 0.012773999944329262 -0.01534700021147728
v 0.13378499448299408 0.012089000083506107 -0.01816299930214882
v 0.12716500461101532 0.01669899933040142 -0.013337000273168087
v 0.12706099450588226 0.014103000052273273 -0.01406800001859665
v 0.12813299894332886 0.01792999915778637 -0.014077000319957733
v 0.15377700328826904 0.008290999568998814 -0.021580999717116356
v 0.15791599452495575 0.007207000162452459 -0.02092600055038929
v 0.16189399361610413 0.008825000375509262 -0.018914999440312386
v 0.17182399332523346 0.011668999679386616 -0.020633000880479813
v 0.1741590052843094 0.01227600034326315 -0.02136800065636635
v 0.17573300004005432 0.011808999814093113 -0.021852999925613403
v 0.17955799400806427 0.00991399958729744 -0.021936999633908272
v 0.17949800193309784 0.009274999611079693 -0.02113799937069416
v 0.1775130033493042 0.010869000107049942 -0.021936999633908272
v 0.18020300567150116 0.00906199961900711 -0.022569000720977783
v 0.17982900142669678 0.009204000234603882 -0.021546000614762306
v 0.17005300521850586 0.010129000060260296 -0.01962999999523163
v 0.18087700009346008 0.007178999949246645 -0.02527499943971634
v 0.180976003408432 0.006413999944925308 -0.028293000534176826
v 0.1783760040998459 -0.0009629999985918403 -0.026796000078320503
v 0.180417999625206 0.00829199980944395 -0.022647999227046967
v 0.16656799614429474 -0.005342999938875437 -0.026260999962687492
v 0.16636399924755096 -0.0021349999587982893 -0.024109000340104103
v 0.16376100480556488 0.00046099998871795833 -0.023327000439167023
v 0.1688610017299652 -0.005665000062435865 -0.025978000834584236
v 0.1712390035390854 -0.006188000086694956 -0.02812499925494194
v 0.16446100175380707 0.0012120000319555402 -0.021598000079393387
v 0.16462500393390656 0.003000000026077032 -0.020305000245571136
v 0.17135700583457947 -0.005355999805033207 -0.025964999571442604
v 0.1747719943523407 -0.0036780000664293766 -0.026079000905156136
v 0.12947799265384674 0.010049000382423401 -0.022554000839591026
v 0.1382330060005188 0.010528000071644783 -0.020732000470161438
v 0.13359199464321136 0.011127999983727932 -0.019450999796390533
v 0.12078099697828293 0.016983000561594963 -0.03264499828219414
v 0.12152799963951111 0.01860100030899048 -0.03282200172543526
v 0.12214600294828415 0.015886999666690826 -0.03199800103902817
v 0.12481600046157837 0.011908999644219875 -0.030054999515414238
v 0.1225690022110939 0.014659999869763851 -0.031184999272227287
v 0.12258800119161606 0.01281999982893467 -0.028950000181794167
v 0.12429700046777725 0.007712999824434519 -0.026771999895572662
v 0.12330599874258041 0.008035000413656235 -0.027496999129652977
v 0.12583200633525848 0.008559999987483025 -0.02705799974501133
v 0.12531499564647675 0.007695999927818775 -0.025838999077677727
v 0.12390799820423126 0.023389000445604324 -0.01707400009036064
v 0.1251859962940216 0.021604999899864197 -0.015611999668180943
v 0.12497100234031677 0.020949000492691994 -0.014448000118136406
v 0.12512199580669403 0.02054000087082386 -0.014031999744474888
v 0.12420199811458588 0.027377000078558922 -0.02733599953353405
v 0.12426699697971344 0.027532000094652176 -0.02408199943602085
v 0.12416200339794159 0.027062999084591866 -0.022491000592708588
v 0.12415699660778046 0.02586200088262558 -0.021622000262141228
v 0.12430399656295776 0.024343999102711678 -0.020701000466942787
v 0.1224989965558052 0.02281700074672699 -0.017589999362826347
v 0.12399400025606155 0.026639999821782112 -0.02871200069785118
v 0.1209769994020462 0.018498999997973442 -0.03215499967336655
v 0.12102200090885162 0.01988299936056137 -0.03176200017333031
v 0.12362299859523773 0.026580000296235085 -0.02826699987053871
v 0.12192600220441818 0.023233000189065933 -0.029577000066637993
v 0.1263040006160736 0.018408000469207764 -0.013372999615967274
v 0.12891100347042084 0.010360999964177608 -0.018743999302387238
v 0.1250630021095276 0.010551000013947487 -0.01510199997574091
v 0.12540900707244873 0.009239000268280506 -0.01773799955844879
v 0.12420099973678589 0.015541999600827694 -0.01348000019788742
v 0.12473399937152863 0.012350000441074371 -0.014003000222146511
v 0.1648160070180893 0.004947000183165073 -0.01891699992120266
v 0.16925999522209167 0.005661999806761742 -0.015503999777138233
v 0.17077800631523132 0.005756999831646681 -0.015178999863564968
v 0.1699109971523285 0.007300000172108412 -0.01657100021839142
v 0.17450299859046936 0.009405000135302544 -0.019348999485373497
v 0.1792300045490265 0.008554999716579914 -0.020461000502109528
v 0.1779019981622696 0.00978699978441 -0.021271999925374985
v 0.1713789999485016 0.00808900035917759 -0.0179820004850626
v 0.17968499660491943 0.003828000044450164 -0.024035999551415443
v 0.17924000322818756 0.001964000053703785 -0.02443300001323223
v 0.17714400589466095 -0.0011699999449774623 -0.02456899918615818
v 0.17932699620723724 0.006587000098079443 -0.02165300026535988
v 0.17892900109291077 0.007532999850809574 -0.019895000383257866
v 0.16899999976158142 -0.005024999845772982 -0.02534399926662445
v 0.16978000104427338 -0.0028699999675154686 -0.023848000913858414
v 0.16804799437522888 -0.0025820001028478146 -0.023990999907255173
v 0.1682319939136505 -0.0023010000586509705 -0.023375999182462692
v 0.16820000112056732 -0.0019440000178292394 -0.021098000928759575
v 0.16683299839496613 -0.0016420000465586782 -0.02150299958884716
v 0.16856400668621063 -0.001259000040590763 -0.02002899907529354
v 0.1677979975938797 0.0020389999262988567 -0.019147999584674835
v 0.1729550063610077 -0.0026710000820457935 -0.024397000670433044
v 0.12385199964046478 0.0071390001103281975 -0.023466000333428383
v 0.12102799862623215 0.01621199958026409 -0.03176200017333031
v 0.12053100019693375 0.017000999301671982 -0.031856998801231384
v 0.1219329982995987 0.015193000435829163 -0.031119000166654587
v 0.12182199954986572 0.013921000063419342 -0.02853900007903576
v 0.12156400084495544 0.0148930000141263 -0.029593000188469887
v 0.12265200167894363 0.008609999902546406 -0.027374999597668648
v 0.12126199901103973 0.011508000083267689 -0.026512999087572098
v 0.12219399958848953 0.00913699995726347 -0.027191000059247017
v 0.12321700155735016 0.007391999941319227 -0.025973999872803688
v 0.12404599785804749 0.007247000001370907 -0.025189999490976334
v 0.12245599925518036 0.007770000025629997 -0.026201000437140465
v 0.12170299887657166 0.020741000771522522 -0.014844000339508057
v 0.12301699817180634 0.023006999865174294 -0.017194999381899834
v 0.12304499745368958 0.020603999495506287 -0.013957999646663666
v 0.12316100299358368 0.020167000591754913 -0.013504000380635262
v 0.12346599996089935 0.01978199928998947 -0.013220000080764294
v 0.12406399846076965 0.027098000049591064 -0.025770999491214752
v 0.12362699955701828 0.02535399980843067 -0.022644000127911568
v 0.12380799651145935 0.024024000391364098 -0.02094700001180172
v 0.12111099809408188 0.02057100087404251 -0.015289999544620514
v 0.12073499709367752 0.020002000033855438 -0.015275999903678894
v 0.12330099940299988 0.02336999960243702 -0.021069999784231186
v 0.12139800190925598 0.017292000353336334 -0.022631999105215073
v 0.12098100036382675 0.017105000093579292 -0.02966099977493286
v 0.12089399993419647 0.016087999567389488 -0.025848999619483948
v 0.12345000356435776 0.02611199952661991 -0.027984999120235443
v 0.1236720010638237 0.019044000655412674 -0.013093999586999416
v 0.12186399847269058 0.008864999748766422 -0.014255999587476254
v 0.12191800028085709 0.007350000087171793 -0.01668900065124035
v 0.11980599910020828 0.015196999534964561 -0.011609000153839588
v 0.11761000007390976 0.009984999895095825 -0.011501000262796879
v 0.11857999861240387 0.010905999690294266 -0.011531000025570393
v 0.1181740015745163 0.01309099979698658 -0.011026999913156033
v 0.1703539937734604 0.0015119999879971147 -0.018696000799536705
v 0.17202900350093842 0.004263000097125769 -0.01653899997472763
v 0.1721860021352768 0.005843999795615673 -0.015027999877929688
v 0.1728609949350357 0.00748499995097518 -0.016527999192476273
v 0.17770500481128693 0.008782999590039253 -0.020222000777721405
v 0.17718200385570526 0.008077000267803669 -0.019063999876379967
v 0.17474499344825745 0.007153000216931105 -0.016808999702334404
v 0.1766819953918457 0.007776999846100807 -0.01864599995315075
v 0.17836099863052368 0.00783700030297041 -0.019672000780701637
v 0.1771100014448166 0.0008699999889358878 -0.021338999271392822
v 0.17931999266147614 0.0053969998843967915 -0.022388000041246414
v 0.17688000202178955 -0.00009699999645818025 -0.022075999528169632
v 0.1749349981546402 -0.00145800004247576 -0.02331399917602539
v 0.17828500270843506 0.005884000100195408 -0.02071000076830387
v 0.178180992603302 0.00648199999704957 -0.019215000793337822
v 0.16973599791526794 -0.0025430000387132168 -0.023357000201940536
v 0.16983599960803986 -0.0023300000466406345 -0.022803999483585358
v 0.16962899267673492 -0.0020639998838305473 -0.020663000643253326
v 0.16968199610710144 -0.0017979999538511038 -0.02017199993133545
v 0.16829699277877808 -0.0016639999812468886 -0.020580999553203583
v 0.1701660007238388 -0.00048499999684281647 -0.01918100006878376
v 0.17277799546718597 -0.0021279999054968357 -0.02324100024998188
v 0.1227630004286766 0.006870000157505274 -0.022816000506281853
v 0.12243200093507767 0.006777999922633171 -0.02086300030350685
v 0.12123099714517593 0.015672000125050545 -0.030479999259114265
v 0.12122400104999542 0.015368999913334846 -0.029082000255584717
v 0.12089300155639648 0.012849999591708183 -0.025844000279903412
v 0.12147200107574463 0.01449500024318695 -0.02824299968779087
v 0.12065999954938889 0.010242000222206116 -0.024632999673485756
v 0.12165500223636627 0.007794999983161688 -0.0248429998755455
v 0.12121199816465378 0.018856000155210495 -0.01284599956125021
v 0.11956000328063965 0.017947999760508537 -0.012873999774456024
v 0.1238970011472702 0.025841999799013138 -0.025498999282717705
v 0.1173119992017746 0.009336999617516994 -0.014037000015377998
v 0.11682499945163727 0.010913999751210213 -0.011699000373482704
v 0.11847099661827087 0.008767999708652496 -0.017287999391555786
v 0.11739499866962433 0.012713000178337097 -0.011676999740302563
v 0.11803799867630005 0.014464999549090862 -0.011819000355899334
v 0.12108000367879868 0.014530000276863575 -0.023764999583363533
v 0.12099099904298782 0.014979000203311443 -0.024656999856233597
v 0.11959599703550339 0.01707799918949604 -0.011919000186026096
v 0.1180419996380806 0.0082609998062253 -0.01355000026524067
v 0.11779499799013138 0.009069000370800495 -0.012494999915361404
v 0.12063200026750565 0.007091999985277653 -0.016645999625325203
v 0.11883000284433365 0.01511400006711483 -0.01142599992454052
v 0.11767999827861786 0.011396000161767006 -0.011150999926030636
v 0.11706899851560593 0.010352999903261662 -0.011526999995112419
v 0.11799000203609467 0.013697000220417976 -0.011362000368535519
v 0.11736900359392166 0.011919000186026096 -0.011261999607086182
v 0.1739100068807602 0.0030819999519735575 -0.017792999744415283
v 0.17338000237941742 0.0017600000137463212 -0.01882999949157238
v 0.17340199649333954 0.005652000196278095 -0.015542999841272831
v 0.17466799914836884 0.0055149998515844345 -0.016157999634742737
v 0.174904003739357 0.004356999881565571 -0.01727299951016903
v 0.17366699874401093 0.0067980000749230385 -0.016121000051498413
v 0.17787499725818634 0.007170000113546848 -0.019021999090909958
v 0.17636699974536896 0.006945000030100346 -0.018125999718904495
v 0.1753470003604889 0.0019199999514967203 -0.019152000546455383
v 0.17600299417972565 0.003926999866962433 -0.018655000254511833
v 0.1765570044517517 0.005716999992728233 -0.018401000648736954
v 0.17490500211715698 -0.0006629999843426049 -0.02052599936723709
v 0.17724399268627167 0.006436000112444162 -0.018673000857234
v 0.17267100512981415 -0.0018189999973401427 -0.02091600000858307
v 0.17274799942970276 -0.0012029999634250998 -0.01981700025498867
v 0.12148600071668625 0.007062000222504139 -0.020952999591827393
v 0.12074699997901917 0.007526000030338764 -0.02105800062417984
v 0.12078599631786346 0.006816000211983919 -0.01868000067770481
v 0.12005700170993805 0.011075999587774277 -0.02201000042259693
v 0.11840199679136276 0.007852000184357166 -0.016614999622106552
v 0.12012399733066559 0.00835500005632639 -0.021466000005602837
v 0.11868300288915634 0.01610499992966652 -0.012179000303149223
v 0.11696100234985352 0.009844999760389328 -0.012628999538719654
v 0.11722499877214432 0.008941000327467918 -0.013664999976754189
v 0.11777999997138977 0.008329000324010849 -0.015058999881148338
v 0.11730500310659409 0.00944599974900484 -0.012563000433146954
v 0.11868000030517578 0.01565999910235405 -0.011780999600887299
v 0.1192770004272461 0.007046999875456095 -0.016443999484181404
v 0.1175839975476265 0.008546000346541405 -0.013616000302135944
v 0.11812599748373032 0.007907000370323658 -0.014987999573349953
v 0.17505300045013428 0.0032240001019090414 -0.018333999440073967
v 0.17558899521827698 0.00597799988463521 -0.017110999673604965
v 0.1199759989976883 0.0072200000286102295 -0.018750999122858047
v 0.11874599754810333 0.007424000184983015 -0.01653899997472763
f 1 2 3
f 1 3 4
f 2 1 5
f 1 4 5
f 6 2 7
f 2 6 8
f 2 8 3
f 7 2 9
f 2 5 9
f 3 10 11
f 10 3 8
f 12 4 3
f 11 12 3
f 13 4 14
f 15 5 4
f 12 14 4
f 4 13 16
f 4 16 15
f 17 9 5
f 17 5 18
f 18 5 15
f 6 19 20
f 6 21 19
f 20 10 6
f 10 8 6
f 7 22 6
f 22 21 6
f 23 22 7
f 9 23 7
f 9 24 23
f 25 24 9
f 26 25 9
f 26 9 17
f 27 10 20
f 10 27 28
f 10 28 11
f 29 30 11
f 29 11 28
f 12 11 31
f 31 11 32
f 11 33 32
f 34 33 11
f 30 34 11
f 31 35 12
f 35 36 12
f 12 36 14
f 37 38 13
f 39 13 14
f 13 38 16
f 40 37 13
f 40 13 39
f 41 14 42
f 36 42 14
f 39 14 41
f 18 15 16
f 16 43 18
f 43 16 38
f 44 17 45
f 45 17 18
f 44 46 17
f 46 26 17
f 45 18 43
f 47 48 19
f 49 20 19
f 50 19 21
f 50 51 19
f 51 47 19
f 52 49 19
f 52 19 48
f 49 53 20
f 27 20 53
f 54 21 24
f 21 54 55
f 55 50 21
f 21 22 24
f 24 22 23
f 24 56 57
f 24 57 54
f 24 25 56
f 46 25 26
f 25 46 58
f 56 25 59
f 25 58 59
f 29 28 27
f 60 61 27
f 27 61 29
f 27 53 60
f 62 30 29
f 63 29 61
f 63 62 29
f 64 34 30
f 30 62 64
f 35 31 65
f 31 32 65
f 32 33 66
f 67 32 66
f 65 32 67
f 33 34 68
f 68 69 33
f 69 66 33
f 34 64 70
f 70 68 34
f 65 71 35
f 36 35 72
f 73 35 74
f 73 72 35
f 74 35 71
f 75 42 36
f 75 36 76
f 76 36 72
f 37 77 38
f 78 79 37
f 80 77 37
f 80 37 79
f 37 40 78
f 77 43 38
f 41 81 39
f 81 82 39
f 40 39 82
f 82 78 40
f 42 81 41
f 81 42 75
f 43 83 45
f 83 43 84
f 77 84 43
f 45 85 44
f 86 58 44
f 58 46 44
f 86 44 85
f 87 85 45
f 87 45 83
f 51 88 47
f 88 89 47
f 89 48 47
f 89 52 48
f 52 53 49
f 50 90 88
f 55 91 50
f 91 90 50
f 88 51 50
f 92 52 89
f 92 53 52
f 93 53 92
f 60 53 93
f 94 91 54
f 55 54 91
f 54 57 95
f 54 95 94
f 57 56 59
f 57 59 96
f 95 57 97
f 57 96 98
f 57 98 99
f 97 57 99
f 59 58 96
f 96 58 98
f 86 98 58
f 60 93 61
f 100 61 93
f 101 63 61
f 101 61 100
f 62 102 64
f 62 63 103
f 103 102 62
f 63 101 104
f 63 104 103
f 64 102 105
f 105 70 64
f 67 106 65
f 106 107 65
f 71 65 107
f 108 109 66
f 66 69 108
f 109 110 66
f 111 66 110
f 66 111 67
f 106 67 111
f 112 113 68
f 69 68 113
f 68 70 112
f 69 113 108
f 105 114 70
f 70 114 112
f 71 107 74
f 72 115 116
f 72 117 76
f 116 117 72
f 73 115 72
f 118 115 73
f 73 74 118
f 74 107 119
f 74 120 118
f 121 120 74
f 119 121 74
f 122 123 75
f 124 122 75
f 81 75 123
f 76 124 75
f 125 124 76
f 117 125 76
f 84 77 80
f 126 127 78
f 127 79 78
f 126 78 82
f 79 128 80
f 127 129 79
f 129 128 79
f 84 80 130
f 130 80 128
f 131 81 123
f 81 131 82
f 132 126 82
f 131 132 82
f 84 133 83
f 87 83 134
f 83 133 134
f 135 133 84
f 130 135 84
f 86 85 87
f 86 136 98
f 86 87 134
f 136 86 134
f 137 138 88
f 90 137 88
f 88 139 89
f 139 88 138
f 140 92 89
f 140 89 139
f 91 141 90
f 141 137 90
f 91 94 142
f 91 142 143
f 91 143 141
f 144 92 145
f 145 92 146
f 146 92 140
f 144 93 92
f 93 147 100
f 144 147 93
f 148 142 94
f 148 94 149
f 149 94 95
f 149 95 97
f 150 149 97
f 150 97 151
f 152 151 97
f 99 152 97
f 99 98 136
f 152 99 136
f 153 100 154
f 100 147 154
f 155 100 153
f 155 101 100
f 101 155 104
f 156 102 157
f 158 102 103
f 105 102 156
f 102 158 159
f 157 102 159
f 103 104 158
f 160 158 104
f 161 160 104
f 104 155 161
f 162 105 156
f 162 114 105
f 111 163 106
f 107 106 163
f 107 163 164
f 107 164 165
f 165 119 107
f 108 113 166
f 166 167 108
f 167 109 108
f 110 109 168
f 167 168 109
f 168 169 110
f 110 169 163
f 110 163 111
f 112 114 170
f 170 171 112
f 171 113 112
f 171 166 113
f 114 162 172
f 170 114 173
f 114 172 173
f 174 116 115
f 174 115 118
f 175 176 116
f 174 177 116
f 116 176 117
f 175 116 177
f 117 176 178
f 117 178 125
f 120 174 118
f 179 121 119
f 165 179 119
f 120 180 181
f 120 181 174
f 180 120 121
f 182 183 121
f 179 184 121
f 180 121 183
f 182 121 184
f 124 185 122
f 186 122 185
f 122 186 187
f 122 187 123
f 187 131 123
f 178 124 125
f 185 124 178
f 188 189 126
f 127 126 189
f 126 132 188
f 129 127 190
f 190 127 189
f 128 191 130
f 129 192 128
f 192 191 128
f 190 193 129
f 192 129 193
f 130 194 135
f 130 195 194
f 195 130 191
f 187 196 131
f 196 132 131
f 196 188 132
f 197 198 133
f 134 133 198
f 133 135 197
f 134 152 136
f 199 134 198
f 152 134 199
f 135 194 200
f 200 197 135
f 201 202 137
f 202 138 137
f 141 201 137
f 138 202 139
f 139 203 146
f 139 202 203
f 139 146 140
f 143 201 141
f 143 142 204
f 205 204 142
f 205 142 148
f 143 204 201
f 144 178 147
f 144 185 178
f 185 144 145
f 186 185 145
f 186 145 146
f 206 207 146
f 146 207 186
f 146 203 206
f 154 147 178
f 205 148 149
f 149 150 205
f 208 205 150
f 150 209 208
f 209 150 151
f 152 199 151
f 209 151 199
f 210 161 153
f 154 211 153
f 212 153 211
f 153 212 210
f 155 153 161
f 211 154 176
f 176 154 178
f 156 157 213
f 162 156 214
f 156 213 214
f 215 157 159
f 215 213 157
f 216 159 158
f 158 160 216
f 217 159 218
f 216 218 159
f 159 217 215
f 160 219 220
f 216 160 220
f 221 160 161
f 221 219 160
f 161 210 222
f 221 161 222
f 214 172 162
f 164 163 169
f 223 224 164
f 225 165 164
f 225 164 224
f 223 164 169
f 226 179 165
f 165 225 226
f 166 171 227
f 166 227 167
f 167 228 168
f 227 228 167
f 229 230 168
f 231 169 168
f 231 168 230
f 229 168 228
f 169 232 223
f 231 232 169
f 173 233 170
f 171 170 233
f 171 233 227
f 234 172 214
f 173 172 235
f 234 235 172
f 173 236 233
f 235 237 173
f 236 173 237
f 181 177 174
f 211 176 175
f 175 177 211
f 211 177 212
f 181 212 177
f 179 238 184
f 226 238 179
f 239 181 180
f 180 183 240
f 239 180 241
f 240 241 180
f 212 181 239
f 182 184 238
f 182 238 242
f 183 182 242
f 243 240 183
f 242 243 183
f 244 187 186
f 207 244 186
f 187 244 245
f 187 245 246
f 247 187 246
f 247 196 187
f 196 248 188
f 189 188 248
f 189 248 190
f 193 190 248
f 195 191 192
f 249 192 250
f 249 195 192
f 250 192 193
f 193 248 250
f 195 200 194
f 195 249 200
f 196 251 248
f 247 251 196
f 252 198 197
f 197 200 252
f 253 198 252
f 253 199 198
f 254 199 253
f 209 199 254
f 252 200 255
f 249 256 200
f 256 255 200
f 204 257 201
f 258 201 257
f 201 258 259
f 201 259 202
f 260 261 202
f 202 262 203
f 262 202 261
f 260 202 259
f 206 203 262
f 208 257 204
f 205 208 204
f 206 262 207
f 263 264 207
f 262 263 207
f 244 207 264
f 208 209 265
f 265 257 208
f 209 254 265
f 210 239 266
f 239 210 212
f 266 222 210
f 213 234 214
f 267 213 215
f 234 213 268
f 267 268 213
f 215 217 269
f 269 267 215
f 220 218 216
f 217 218 270
f 271 269 217
f 271 217 270
f 272 218 220
f 273 270 218
f 274 218 272
f 218 274 273
f 219 275 220
f 222 276 219
f 276 275 219
f 221 222 219
f 277 220 275
f 220 277 272
f 276 222 266
f 278 223 279
f 280 224 223
f 280 223 278
f 223 232 279
f 280 225 224
f 225 280 281
f 225 281 226
f 226 281 282
f 226 282 238
f 227 233 236
f 236 283 227
f 227 283 228
f 229 228 283
f 284 230 229
f 284 229 283
f 285 231 230
f 284 285 230
f 231 285 232
f 286 279 232
f 286 232 287
f 232 285 288
f 289 232 288
f 287 232 289
f 234 290 235
f 234 268 290
f 290 291 235
f 237 235 291
f 237 292 236
f 283 236 292
f 292 237 291
f 293 238 282
f 293 242 238
f 266 239 241
f 240 243 294
f 241 240 295
f 295 240 294
f 295 266 241
f 242 293 296
f 242 296 243
f 294 243 297
f 298 297 243
f 296 299 243
f 298 243 299
f 264 245 244
f 300 246 245
f 264 300 245
f 301 302 246
f 301 246 300
f 302 247 246
f 247 302 303
f 303 251 247
f 304 248 305
f 306 248 303
f 251 303 248
f 306 307 248
f 305 248 307
f 250 248 304
f 249 308 256
f 308 249 304
f 250 304 249
f 309 252 310
f 309 253 252
f 255 310 252
f 254 253 311
f 309 311 253
f 265 254 312
f 311 312 254
f 310 255 313
f 314 313 255
f 256 314 255
f 308 314 256
f 258 257 265
f 315 259 258
f 315 258 265
f 260 259 315
f 316 317 260
f 317 261 260
f 316 260 315
f 318 261 317
f 319 262 261
f 319 261 318
f 319 263 262
f 264 263 300
f 300 263 320
f 320 263 318
f 319 318 263
f 316 265 321
f 321 265 312
f 315 265 316
f 322 266 323
f 323 266 295
f 276 266 322
f 267 269 324
f 267 324 268
f 268 324 325
f 325 290 268
f 271 324 269
f 326 327 270
f 271 270 327
f 270 273 326
f 324 271 325
f 271 327 325
f 277 274 272
f 273 274 328
f 273 328 326
f 277 329 274
f 274 329 328
f 329 275 322
f 277 275 329
f 276 322 275
f 330 278 331
f 331 278 286
f 278 279 286
f 280 278 330
f 330 281 280
f 330 282 281
f 330 293 282
f 332 283 292
f 284 283 332
f 284 288 285
f 284 332 291
f 288 284 291
f 331 286 287
f 287 333 334
f 335 333 287
f 336 337 287
f 334 336 287
f 337 331 287
f 335 287 338
f 287 289 338
f 288 291 289
f 291 338 289
f 290 325 291
f 339 291 327
f 332 292 291
f 325 327 291
f 291 339 338
f 340 296 293
f 340 293 330
f 295 294 341
f 297 342 294
f 342 341 294
f 295 341 343
f 295 343 323
f 344 299 296
f 344 296 340
f 297 298 345
f 342 297 346
f 346 297 345
f 298 299 345
f 347 348 299
f 348 345 299
f 347 299 344
f 349 301 300
f 349 300 350
f 300 320 350
f 351 301 352
f 353 352 301
f 302 301 351
f 349 353 301
f 302 351 354
f 303 302 354
f 306 303 354
f 304 305 355
f 355 308 304
f 356 355 305
f 307 356 305
f 351 352 306
f 351 306 354
f 307 306 352
f 352 356 307
f 308 355 314
f 357 309 358
f 309 310 313
f 309 313 359
f 311 309 360
f 359 358 309
f 309 357 360
f 311 360 312
f 312 360 321
f 359 313 314
f 359 314 361
f 361 314 355
f 362 316 321
f 316 362 317
f 362 363 317
f 317 363 318
f 318 363 320
f 350 320 363
f 321 360 362
f 364 365 322
f 323 364 322
f 329 322 365
f 364 323 366
f 343 366 323
f 326 328 367
f 338 326 367
f 338 339 326
f 327 326 339
f 328 368 335
f 369 328 329
f 369 368 328
f 328 335 367
f 365 369 329
f 330 331 340
f 331 370 340
f 337 370 331
f 371 333 372
f 373 372 333
f 333 335 373
f 334 333 371
f 374 346 334
f 334 371 374
f 336 334 348
f 334 346 348
f 335 368 373
f 367 335 338
f 337 336 347
f 336 348 347
f 337 347 375
f 370 337 375
f 375 344 340
f 370 375 340
f 343 341 376
f 374 377 341
f 341 342 374
f 376 341 378
f 341 377 378
f 342 346 374
f 343 376 366
f 347 344 375
f 346 345 348
f 379 353 349
f 379 349 350
f 357 350 363
f 357 379 350
f 359 352 353
f 352 359 380
f 356 352 380
f 358 359 353
f 353 379 358
f 355 356 361
f 380 359 356
f 356 359 361
f 363 360 357
f 358 379 357
f 362 360 363
f 365 364 381
f 364 366 381
f 382 369 365
f 365 381 382
f 381 366 376
f 373 368 382
f 368 369 382
f 371 372 377
f 371 377 374
f 378 377 372
f 372 373 378
f 373 382 378
f 378 382 376
f 381 376 382
