# Generated by Visualization Toolkit
v 0.01709200069308281 -0.05362600088119507 0.05863599851727486
v 0.015572999604046345 -0.05345200002193451 0.05887499824166298
v 0.016068000346422195 -0.054391998797655106 0.059477999806404114
v 0.018580999225378036 -0.05482500046491623 0.0585549995303154
v 0.017733000218868256 -0.05142499879002571 0.053651001304388046
v 0.014870000071823597 -0.05067700147628784 0.056703999638557434
v 0.017720000818371773 -0.055771999061107635 0.05973299965262413
v 0.016296999529004097 -0.04961799830198288 0.053279999643564224
v 0.015832999721169472 -0.0492670014500618 0.05457000061869621
v 0.01535400003194809 -0.04976499825716019 0.05575399845838547
v 0.015525000169873238 -0.05587000027298927 0.05947300046682358
v 0.013907999731600285 -0.05592000111937523 0.05829799920320511
v 0.020353000611066818 -0.05467800050973892 0.057534001767635345
v 0.020169999450445175 -0.05629799887537956 0.058115001767873764
v 0.020166000351309776 -0.05025700107216835 0.052955999970436096
v 0.01795399934053421 -0.049835000187158585 0.051398999989032745
v 0.016662999987602234 -0.04882900044322014 0.05128199979662895
v 0.011331000365316868 -0.04753199964761734 0.05292399972677231
v 0.014751000329852104 -0.057259999215602875 0.059466999024152756
v 0.01613200083374977 -0.057941000908613205 0.05922799929976463
v 0.015734000131487846 -0.05626099929213524 0.059721000492572784
v 0.015969999134540558 -0.048496998846530914 0.052090998739004135
v 0.015425000339746475 -0.04861700162291527 0.0536470003426075
v 0.013981999829411507 -0.05647899955511093 0.05897999927401543
v 0.012548999860882759 -0.05742799863219261 0.05764999985694885
v 0.012512999586760998 -0.057172998785972595 0.0570870004594326
v 0.010982000268995762 -0.05734400078654289 0.055316001176834106
v 0.02091900072991848 -0.05596499890089035 0.05735800042748451
v 0.022086000069975853 -0.05142800137400627 0.0522489994764328
v 0.0229909997433424 -0.054023001343011856 0.05315199866890907
v 0.02232700027525425 -0.056233000010252 0.05521399900317192
v 0.02011900022625923 -0.057906001806259155 0.05745900049805641
v 0.019985999912023544 -0.04965599998831749 0.05175799876451492
v 0.021733000874519348 -0.049865998327732086 0.050188999623060226
v 0.017704999074339867 -0.049710001796483994 0.04982699826359749
v 0.014911999925971031 -0.04741299897432327 0.05259700119495392
v 0.01665399968624115 -0.04948800057172775 0.04956600069999695
v 0.01504599954932928 -0.04633999988436699 0.051231998950242996
v 0.014891000464558601 -0.04562000185251236 0.04948500171303749
v 0.012985999695956707 -0.04706700146198273 0.05306300148367882
v 0.008906999602913857 -0.03924499824643135 0.04721200093626976
v 0.00649499986320734 -0.05112899839878082 0.04771000146865845
v 0.013166000135242939 -0.05811699852347374 0.05844999849796295
v 0.01384000014513731 -0.05892299860715866 0.0586559996008873
v 0.014245999976992607 -0.06140400096774101 0.056956999003887177
v 0.018343999981880188 -0.06095600128173828 0.05591199919581413
v 0.011129000224173069 -0.05821099877357483 0.056168001145124435
v 0.0071669998578727245 -0.055257998406887054 0.04949599876999855
v 0.008101999759674072 -0.05623200163245201 0.050939999520778656
v 0.008483000099658966 -0.058921001851558685 0.051784999668598175
v 0.010809999890625477 -0.05923200026154518 0.0550060011446476
v 0.02262900024652481 -0.051479000598192215 0.05118599906563759
v 0.021212000399827957 -0.05730700120329857 0.05063899978995323
v 0.02094000019133091 -0.052090998739004135 0.048253998160362244
v 0.02032100036740303 -0.059188999235630035 0.052949998527765274
v 0.01944899931550026 -0.06028600037097931 0.054708998650312424
v 0.019881000742316246 -0.049894001334905624 0.048886001110076904
v 0.02161099947988987 -0.0504859983921051 0.049049001187086105
v 0.016795000061392784 -0.050308000296354294 0.048691000789403915
v 0.018226999789476395 -0.05071600154042244 0.048523999750614166
v 0.013917000032961369 -0.04602000117301941 0.05203599855303764
v 0.014248000457882881 -0.04518499970436096 0.05056599900126457
v 0.014778000302612782 -0.0474339984357357 0.04678099974989891
v 0.013778000138700008 -0.04637699946761131 0.045010000467300415
v 0.009494000114500523 -0.0344570018351078 0.04300199821591377
v 0.011884000152349472 -0.03816499933600426 0.042155999690294266
v 0.011711000464856625 -0.037546999752521515 0.04329000040888786
v 0.005946999881416559 -0.031153999269008636 0.04149800166487694
v 0.002015999983996153 -0.042792998254299164 0.041356999427080154
v 0.0024419999681413174 -0.03224699944257736 0.04079499840736389
v 0.004821000155061483 -0.04784100130200386 0.04338400065898895
v 0.006446999963372946 -0.05181499943137169 0.045830998569726944
v 0.010770999826490879 -0.05971600115299225 0.05542200058698654
v 0.011881000362336636 -0.06137099862098694 0.05626099929213524
v 0.012845000252127647 -0.06215900182723999 0.055706001818180084
v 0.015553000383079052 -0.06333500146865845 0.053856998682022095
v 0.01859300024807453 -0.0613740012049675 0.05415600165724754
v 0.0075690001249313354 -0.05550500005483627 0.04812199994921684
v 0.00749000022187829 -0.05654300004243851 0.04924900084733963
v 0.007921000011265278 -0.057735998183488846 0.050418999046087265
v 0.007930999621748924 -0.05995099991559982 0.04963099956512451
v 0.008682000450789928 -0.060770999640226364 0.05099400132894516
v 0.009344999678432941 -0.0607450008392334 0.052528999745845795
v 0.007687999866902828 -0.058793000876903534 0.04978000000119209
v 0.010332000441849232 -0.060336001217365265 0.054409999400377274
v 0.019860999658703804 -0.05854300037026405 0.05009400099515915
v 0.019502000883221626 -0.05656500160694122 0.04803499951958656
v 0.019548999145627022 -0.059275999665260315 0.05122099816799164
v 0.018425000831484795 -0.05532899871468544 0.04742899909615517
v 0.018290000036358833 -0.05269100144505501 0.04752200096845627
v 0.019588999450206757 -0.06109499931335449 0.05316400155425072
v 0.016177000477910042 -0.05150999873876572 0.04809100180864334
v 0.01514500007033348 -0.04973699897527695 0.04706300050020218
v 0.013542000204324722 -0.0520859993994236 0.046858999878168106
v 0.0076870000921189785 -0.04392699897289276 0.0399169996380806
v 0.009763999842107296 -0.038061000406742096 0.03716399893164635
v 0.009943000040948391 -0.031036999076604843 0.04011699929833412
v 0.012589000165462494 -0.031060999259352684 0.03500699996948242
v 0.010928000323474407 -0.03098900057375431 0.03905000165104866
v 0.005452000070363283 -0.024253999814391136 0.03762400150299072
v 0.0017359999474138021 -0.025591999292373657 0.037852998822927475
v -0.0021379999816417694 -0.03323100134730339 0.03620300069451332
v -0.002067999914288521 -0.03484899923205376 0.0359640009701252
v -0.0008110000053420663 -0.036584001034498215 0.03599099814891815
v 0.001673000049777329 -0.04096699878573418 0.038068998605012894
v -0.001471000025048852 -0.03217900171875954 0.03714299947023392
v -0.0023010000586509705 -0.025728000327944756 0.03516500070691109
v 0.004389999900013208 -0.045285001397132874 0.041131000965833664
v 0.006591999903321266 -0.049545999616384506 0.04428799822926521
v 0.008357999846339226 -0.05589799955487251 0.0472479984164238
v 0.00989300012588501 -0.05358999967575073 0.045621998608112335
v 0.010847000405192375 -0.05492899939417839 0.04614900052547455
v 0.010502000339329243 -0.06095099821686745 0.05501699820160866
v 0.012374999932944775 -0.062483999878168106 0.054735999554395676
v 0.011304999701678753 -0.06186399981379509 0.05520499870181084
v 0.013914000242948532 -0.06291799992322922 0.05431099981069565
v 0.016713999211788177 -0.06298600137233734 0.052545998245477676
v 0.014646999537944794 -0.06348299980163574 0.05289499834179878
v 0.018581999465823174 -0.061319999396800995 0.05174100026488304
v 0.017719000577926636 -0.062490999698638916 0.051013000309467316
v 0.007782000117003918 -0.05857500061392784 0.0486299991607666
v 0.007650999817997217 -0.057718001306056976 0.04886600002646446
v 0.008036999963223934 -0.059838999062776566 0.04833199828863144
v 0.00860700011253357 -0.06081800162792206 0.049630001187324524
v 0.009475000202655792 -0.06133799999952316 0.050999000668525696
v 0.00990699976682663 -0.06131900101900101 0.05233199894428253
v 0.010332999750971794 -0.06145400181412697 0.05350799858570099
v 0.010785999707877636 -0.06151299923658371 0.05418900027871132
v 0.019207000732421875 -0.05969100072979927 0.04951300099492073
v 0.017204999923706055 -0.06221799924969673 0.0481639988720417
v 0.017501000314950943 -0.05925099924206734 0.04619399830698967
v 0.018775999546051025 -0.060412000864744186 0.05046800151467323
v 0.016592999920248985 -0.05750599876046181 0.04532499983906746
v 0.016316000372171402 -0.05566199868917465 0.046528998762369156
v 0.017185000702738762 -0.05423500016331673 0.047272998839616776
v 0.013550999574363232 -0.055098000913858414 0.04712300002574921
v 0.012232000008225441 -0.055208999663591385 0.046897999942302704
v 0.00634300010278821 -0.04786999896168709 0.042323999106884
v 0.007375999819487333 -0.0469679981470108 0.04261400178074837
v 0.006324999965727329 -0.04466800019145012 0.040539998561143875
v 0.002340999897569418 -0.03649500012397766 0.03302999958395958
v 0.00648100022226572 -0.034605998545885086 0.03092999942600727
v 0.010072999633848667 -0.03306400030851364 0.0328419990837574
v 0.011556999757885933 -0.027411000803112984 0.03650699928402901
v 0.012651000171899796 -0.029488999396562576 0.033268000930547714
v 0.00814099982380867 -0.03323199972510338 0.029443999752402306
v 0.004399999976158142 -0.022412000223994255 0.035854000598192215
v 0.006211999803781509 -0.022436000406742096 0.035353999584913254
v 0.008344000205397606 -0.023795999586582184 0.035815998911857605
v 0.011682000011205673 -0.024740999564528465 0.03442399948835373
v 0.0003640000068116933 -0.02304700016975403 0.03598500043153763
v -0.0013299999991431832 -0.02398099936544895 0.03543199971318245
v -0.002822000067681074 -0.032673001289367676 0.03564099967479706
v -0.0031679999083280563 -0.033590998500585556 0.03476100042462349
v -0.002549000084400177 -0.03392399847507477 0.03513899818062782
v -0.002329000039026141 -0.03461199998855591 0.03413800150156021
v -0.0006220000213943422 -0.03588499873876572 0.03427499905228615
v 0.005016000010073185 -0.045462001115083694 0.040543001145124435
v -0.00482900021597743 -0.0306209996342659 0.033052001148462296
v -0.004387000110000372 -0.02843800000846386 0.03123299963772297
v -0.002606000052765012 -0.02473600022494793 0.03430600091814995
v 0.010749000124633312 -0.056306999176740646 0.04668299853801727
v 0.00885200034826994 -0.056758999824523926 0.04732000082731247
v 0.013377999886870384 -0.05605100095272064 0.04670799896121025
v 0.011947999708354473 -0.05624400079250336 0.04623100161552429
v 0.011003999970853329 -0.061964001506567 0.05439800024032593
v 0.011939999647438526 -0.06240300089120865 0.054051000624895096
v 0.01317100040614605 -0.06281699985265732 0.05350499972701073
v 0.013659000396728516 -0.06383100152015686 0.05208799988031387
v 0.016195999458432198 -0.06282000243663788 0.047770000994205475
v 0.015305999666452408 -0.06370300054550171 0.05000999942421913
v 0.009565000422298908 -0.06070299819111824 0.04835899919271469
v 0.010724999941885471 -0.05946600064635277 0.047835998237133026
v 0.011760000139474869 -0.061820998787879944 0.05113200098276138
v 0.010513000190258026 -0.061629001051187515 0.0519229993224144
v 0.011103999800980091 -0.062261998653411865 0.05353499948978424
v 0.011274999938905239 -0.062112998217344284 0.05228300020098686
v 0.011184999719262123 -0.06234699860215187 0.05276000127196312
v 0.01566700078547001 -0.06097500026226044 0.04559300094842911
v 0.015541999600827694 -0.05816800147294998 0.044787999242544174
v 0.014433999545872211 -0.057197000831365585 0.04613500088453293
v 0.002392000053077936 -0.03531000018119812 0.03081499971449375
v 0.007829000242054462 -0.033383000642061234 0.027746999636292458
v 0.013477000407874584 -0.02432600036263466 0.03101300075650215
v 0.010804999619722366 -0.030236000195145607 0.027504999190568924
v 0.013062999583780766 -0.026246000081300735 0.027388999238610268
v 0.01408000010997057 -0.02552199922502041 0.02817700058221817
v 0.00027799999224953353 -0.022554000839591026 0.0341619998216629
v 0.0038799999747425318 -0.02234400063753128 0.030729999765753746
v 0.00570000009611249 -0.022064000368118286 0.03326199948787689
v 0.009897000156342983 -0.02382900007069111 0.034634001553058624
v -0.0013719999697059393 -0.023427000269293785 0.03446999937295914
v -0.004786000121384859 -0.03176200017333031 0.03246299922466278
v -0.0014220000011846423 -0.034584999084472656 0.03184099867939949
v -0.00030899999546818435 -0.03462500125169754 0.030578000470995903
v 0.000514000013936311 -0.03486400097608566 0.029791999608278275
v 0.003522000042721629 -0.03431300073862076 0.025906000286340714
v -0.0005409999866969883 -0.02898300066590309 0.02794799953699112
v -0.0008500000112690032 -0.02460700087249279 0.03001599945127964
v -0.001706999959424138 -0.03083699941635132 0.02900400012731552
v -0.0012639999622479081 -0.034237999469041824 0.03077000007033348
v 0.013350999914109707 -0.05744500085711479 0.04589800164103508
v 0.01155299972742796 -0.05694200098514557 0.0469760000705719
v 0.011370999738574028 -0.057916998863220215 0.04725399985909462
v 0.012636000290513039 -0.06296999752521515 0.0528700016438961
v 0.013113000430166721 -0.06328299641609192 0.05173400044441223
v 0.014635000377893448 -0.06286899745464325 0.048868000507354736
v 0.014743000268936157 -0.06195300072431564 0.04729500040411949
v 0.015464999713003635 -0.06194600090384483 0.047249000519514084
v 0.012901999987661839 -0.06309700012207031 0.05094499886035919
v 0.01422099955379963 -0.06338199973106384 0.04959600046277046
v 0.012338999658823013 -0.0611409991979599 0.04936299845576286
v 0.01273099984973669 -0.05945499986410141 0.04773499816656113
v 0.014156999997794628 -0.061618998646736145 0.04889100044965744
v 0.01207599975168705 -0.06254100054502487 0.05164400115609169
v 0.012209000065922737 -0.06265100091695786 0.05217700079083443
v 0.01445899996906519 -0.06123799830675125 0.04650700092315674
v 0.014462999999523163 -0.05960499867796898 0.045566998422145844
v 0.01459799986332655 -0.058924999088048935 0.044791001826524734
v 0.005865999963134527 -0.034398000687360764 0.026304999366402626
v 0.006146000232547522 -0.033938001841306686 0.025085000321269035
v 0.009123999625444412 -0.03207400068640709 0.02658200077712536
v 0.013035999611020088 -0.023581000044941902 0.0294599998742342
v 0.01329800020903349 -0.024366000667214394 0.027041999623179436
v 0.008108999580144882 -0.0298250000923872 0.023056000471115112
v 0.01183400023728609 -0.024744000285863876 0.02565399929881096
v 0.0003169999981764704 -0.02355399914085865 0.030702000483870506
v 0.0037589999847114086 -0.02271600067615509 0.03001200035214424
v 0.005791000090539455 -0.02203799970448017 0.03172500059008598
v 0.004910000134259462 -0.022312000393867493 0.030403999611735344
v 0.007172999903559685 -0.022189000621438026 0.031220000237226486
v 0.008592000231146812 -0.022714000195264816 0.03057200089097023
v 0.010544000193476677 -0.023175999522209167 0.03058600053191185
v -0.00024199999461416155 -0.0340769998729229 0.029735999181866646
v 0.0022040000185370445 -0.033796001225709915 0.026504000648856163
v 0.0037819999270141125 -0.03365100175142288 0.02521900087594986
v 0.005197999998927116 -0.0333780013024807 0.02485400065779686
v 0.005003000143915415 -0.034185998141765594 0.025433000177145004
v 0.0016280000563710928 -0.02924099937081337 0.02694300003349781
v 0.00022400000307243317 -0.026768000796437263 0.02804500050842762
v 0.0011249999515712261 -0.024001000449061394 0.02950900048017502
v -0.0005109999910928309 -0.031233999878168106 0.02815599925816059
v -0.00033099998836405575 -0.031828999519348145 0.028704000636935234
v 0.0006580000044777989 -0.031238000839948654 0.02746099978685379
v 0.013318000361323357 -0.057806000113487244 0.046477001160383224
v 0.012841000221669674 -0.05869700014591217 0.04673700034618378
v 0.013740000315010548 -0.06084899976849556 0.047915998846292496
v 0.013826999813318253 -0.05981700122356415 0.04600000008940697
v 0.006517999805510044 -0.033041998744010925 0.02416899986565113
v 0.007474999874830246 -0.03204299882054329 0.024457000195980072
v 0.011323999613523483 -0.023547999560832977 0.027935000136494637
v 0.011555000208318233 -0.023479999974370003 0.02965099923312664
v 0.0115769999101758 -0.023900000378489494 0.02556299977004528
v 0.011080999858677387 -0.024428000673651695 0.0250840000808239
v 0.0064650001004338264 -0.02963699959218502 0.022919999435544014
v 0.005791000090539455 -0.03028400056064129 0.023262999951839447
v 0.006341000087559223 -0.03152899816632271 0.023195000365376472
v 0.0072639998979866505 -0.028922999277710915 0.022708000615239143
v 0.006175000220537186 -0.030856000259518623 0.023343000560998917
v 0.00867099966853857 -0.028301000595092773 0.022975999861955643
v 0.01018499955534935 -0.0262410007417202 0.024275999516248703
v 0.010347000323235989 -0.025019999593496323 0.02462100051343441
v 0.005626999773085117 -0.02583800069987774 0.028031000867486
v 0.00660899979993701 -0.022227000445127487 0.030559999868273735
v 0.007965000346302986 -0.0227889996021986 0.03001599945127964
v 0.008516999892890453 -0.02359599992632866 0.029146000742912292
v 0.010108999907970428 -0.022890999913215637 0.029711000621318817
v 0.009588999673724174 -0.023010000586509705 0.029496999457478523
v 0.0008200000156648457 -0.03181000053882599 0.027838999405503273
v 0.0015879999846220016 -0.0322440005838871 0.026450999081134796
v 0.0026110000908374786 -0.03289499878883362 0.025662999600172043
v 0.00532200001180172 -0.03250499814748764 0.024622999131679535
v 0.006484000012278557 -0.032175999134778976 0.02384999953210354
v 0.003108999924734235 -0.030472999438643456 0.025443000718951225
v 0.0017269999952986836 -0.031122000887989998 0.02616799995303154
v 0.004116999916732311 -0.030004000291228294 0.025072000920772552
v 0.004892999771982431 -0.02902499958872795 0.025963999330997467
v 0.005113000050187111 -0.0283649992197752 0.02677600085735321
v 0.010863999836146832 -0.02332499995827675 0.028860999271273613
v 0.010433999821543694 -0.024617999792099 0.025273000821471214
v 0.009844000451266766 -0.023553000763058662 0.028741000220179558
v 0.008573999628424644 -0.02576100081205368 0.02432899922132492
v 0.00812899973243475 -0.02542000077664852 0.027313999831676483
v 0.00471699982881546 -0.03000500053167343 0.024145999923348427
v 0.007838999852538109 -0.027403000742197037 0.023006999865174294
v 0.004263000097125769 -0.030810000374913216 0.024243999272584915
v 0.004284000024199486 -0.03182400017976761 0.02434000000357628
v 0.008124000392854214 -0.027670999988913536 0.02266800031065941
v 0.008932000026106834 -0.026396000757813454 0.023009000346064568
v 0.009623999707400799 -0.025608999654650688 0.023823000490665436
v 0.006711999885737896 -0.02608500048518181 0.027458999305963516
v 0.0017659999430179596 -0.031748998910188675 0.026415999978780746
v 0.0028460000175982714 -0.03206799924373627 0.025067999958992004
v 0.0031500000040978193 -0.031065000221133232 0.025113999843597412
v 0.006126999855041504 -0.028137000277638435 0.026000000536441803
v 0.006657000165432692 -0.026846999302506447 0.026436999440193176
f 1 2 3
f 1 4 5
f 1 6 2
f 3 7 1
f 7 4 1
f 8 9 1
f 8 1 5
f 10 6 1
f 9 10 1
f 11 3 2
f 11 2 12
f 12 2 6
f 7 3 11
f 4 13 5
f 7 14 4
f 14 13 4
f 13 15 5
f 16 17 5
f 16 5 15
f 17 8 5
f 6 10 18
f 6 18 12
f 19 20 7
f 19 7 21
f 21 7 11
f 14 7 20
f 22 8 17
f 23 9 8
f 23 8 22
f 18 10 9
f 9 23 18
f 21 11 24
f 12 24 11
f 25 12 26
f 12 18 27
f 26 12 27
f 12 25 24
f 14 28 13
f 29 15 13
f 30 29 13
f 28 31 13
f 31 30 13
f 32 14 20
f 28 14 32
f 33 16 15
f 33 15 34
f 15 29 34
f 35 17 16
f 35 16 33
f 22 17 36
f 17 35 37
f 17 38 36
f 17 37 39
f 39 38 17
f 40 41 18
f 18 23 40
f 42 27 18
f 42 18 41
f 24 19 21
f 19 24 43
f 20 19 44
f 19 43 44
f 44 45 20
f 20 46 32
f 46 20 45
f 36 23 22
f 40 23 36
f 25 43 24
f 47 43 25
f 47 25 26
f 27 47 26
f 48 27 42
f 27 48 49
f 27 49 50
f 50 51 27
f 47 27 51
f 28 32 31
f 34 29 52
f 29 30 52
f 53 54 30
f 30 31 53
f 52 30 54
f 55 53 31
f 31 32 46
f 55 31 56
f 31 46 56
f 33 34 57
f 57 35 33
f 58 34 52
f 57 34 58
f 37 35 59
f 60 59 35
f 60 35 57
f 36 61 40
f 61 36 38
f 37 59 39
f 62 38 39
f 61 38 62
f 63 39 59
f 64 39 63
f 62 39 65
f 39 64 66
f 67 65 39
f 67 39 66
f 61 41 40
f 68 41 61
f 69 42 41
f 70 69 41
f 41 68 70
f 71 42 69
f 42 71 72
f 48 42 72
f 43 73 74
f 43 74 44
f 47 73 43
f 74 45 44
f 75 45 74
f 46 45 76
f 76 45 75
f 46 77 56
f 46 76 77
f 47 51 73
f 78 79 48
f 48 72 78
f 48 79 49
f 49 80 50
f 79 80 49
f 81 82 50
f 82 83 50
f 50 80 84
f 50 83 85
f 50 84 81
f 85 51 50
f 73 51 85
f 58 52 54
f 53 86 87
f 53 87 54
f 88 86 53
f 88 53 55
f 54 89 90
f 87 89 54
f 90 58 54
f 55 56 91
f 91 88 55
f 56 77 91
f 90 57 58
f 90 60 57
f 92 93 59
f 63 59 93
f 59 60 92
f 60 90 92
f 61 65 68
f 61 62 65
f 63 93 64
f 94 64 93
f 64 95 96
f 95 64 94
f 96 66 64
f 65 97 68
f 65 67 98
f 99 65 98
f 65 99 97
f 66 96 98
f 66 98 67
f 97 100 68
f 100 101 68
f 101 70 68
f 69 102 103
f 104 105 69
f 106 69 70
f 106 102 69
f 105 71 69
f 69 103 104
f 106 70 107
f 101 107 70
f 105 108 71
f 72 71 109
f 71 108 109
f 72 110 78
f 109 111 72
f 111 112 72
f 112 110 72
f 113 74 73
f 73 85 113
f 114 75 74
f 74 113 115
f 114 74 115
f 116 75 114
f 76 75 116
f 76 117 77
f 117 76 118
f 76 116 118
f 77 119 91
f 77 117 120
f 77 120 119
f 78 121 122
f 110 121 78
f 78 122 79
f 79 122 80
f 84 80 122
f 81 121 123
f 84 121 81
f 123 124 81
f 124 82 81
f 124 125 82
f 125 126 82
f 126 83 82
f 83 127 128
f 83 128 85
f 126 127 83
f 84 122 121
f 113 85 128
f 86 129 87
f 86 88 129
f 130 87 129
f 87 131 89
f 131 87 130
f 88 91 132
f 88 132 129
f 133 89 131
f 134 135 89
f 134 89 133
f 135 90 89
f 135 92 90
f 119 132 91
f 136 94 92
f 94 93 92
f 92 135 136
f 94 137 111
f 138 94 111
f 94 136 137
f 139 94 138
f 95 94 139
f 95 140 105
f 105 141 95
f 139 140 95
f 142 95 141
f 142 143 95
f 95 143 96
f 98 96 143
f 144 100 97
f 97 99 144
f 145 98 146
f 143 146 98
f 99 98 145
f 145 144 99
f 147 101 100
f 148 147 100
f 148 100 149
f 149 100 150
f 100 144 150
f 151 101 147
f 152 107 101
f 151 152 101
f 102 153 154
f 106 153 102
f 155 103 102
f 154 155 102
f 156 104 103
f 103 155 156
f 157 105 104
f 157 104 156
f 105 157 141
f 158 105 140
f 158 108 105
f 107 159 106
f 106 159 153
f 160 107 161
f 159 107 160
f 161 107 152
f 109 108 138
f 158 138 108
f 138 111 109
f 112 162 110
f 162 163 110
f 121 110 163
f 112 111 137
f 137 164 112
f 165 112 164
f 165 162 112
f 166 115 113
f 166 113 128
f 167 168 114
f 167 114 115
f 116 114 168
f 115 166 167
f 116 168 118
f 117 118 169
f 120 117 169
f 118 168 169
f 120 132 119
f 130 120 170
f 171 170 120
f 129 120 130
f 120 129 132
f 171 120 169
f 121 163 123
f 172 124 123
f 173 123 163
f 172 123 173
f 174 125 124
f 174 124 172
f 174 175 125
f 125 175 126
f 175 127 126
f 128 127 176
f 175 177 127
f 177 178 127
f 178 176 127
f 166 128 176
f 131 130 179
f 170 179 130
f 179 180 131
f 133 131 180
f 181 164 133
f 133 180 181
f 133 164 134
f 134 136 135
f 164 136 134
f 136 164 137
f 138 158 139
f 158 140 139
f 182 141 157
f 182 142 141
f 183 142 182
f 183 146 142
f 142 146 143
f 184 144 145
f 150 144 184
f 185 186 145
f 145 187 184
f 145 146 185
f 187 145 186
f 146 183 185
f 147 188 151
f 189 147 190
f 147 148 190
f 147 189 188
f 191 190 148
f 148 149 191
f 191 149 150
f 191 150 184
f 151 188 192
f 151 192 152
f 152 192 161
f 153 159 193
f 193 154 153
f 155 154 156
f 156 154 193
f 194 157 156
f 194 156 193
f 157 195 196
f 157 197 182
f 194 195 157
f 196 197 157
f 160 193 159
f 198 160 199
f 160 200 201
f 201 193 160
f 161 199 160
f 200 160 198
f 192 199 161
f 165 202 162
f 202 203 162
f 203 163 162
f 163 203 204
f 173 163 204
f 165 164 181
f 202 165 181
f 176 167 166
f 176 205 167
f 205 168 167
f 205 169 168
f 205 206 169
f 169 206 171
f 171 207 170
f 208 170 207
f 179 170 209
f 208 209 170
f 171 206 210
f 211 207 171
f 211 171 210
f 212 174 172
f 212 172 173
f 212 173 213
f 173 204 213
f 214 174 212
f 215 177 174
f 215 174 214
f 174 177 175
f 176 178 216
f 216 206 176
f 206 205 176
f 177 215 178
f 215 216 178
f 217 218 179
f 179 209 217
f 219 179 218
f 219 180 179
f 181 180 202
f 219 202 180
f 197 220 182
f 183 182 220
f 183 220 221
f 222 185 183
f 221 222 183
f 223 184 224
f 187 224 184
f 184 223 191
f 186 185 225
f 222 225 185
f 186 225 226
f 226 224 186
f 187 186 224
f 192 188 227
f 188 189 228
f 228 227 188
f 190 229 189
f 230 189 229
f 230 228 189
f 190 231 229
f 232 231 190
f 232 190 191
f 232 191 233
f 191 223 233
f 227 199 192
f 201 194 193
f 194 201 195
f 234 195 201
f 196 195 234
f 196 234 235
f 196 235 197
f 236 237 197
f 237 238 197
f 220 197 238
f 236 197 235
f 198 239 200
f 199 240 198
f 240 239 198
f 199 241 240
f 199 227 241
f 200 242 243
f 200 243 201
f 244 242 200
f 200 239 244
f 201 243 234
f 202 219 245
f 203 202 245
f 203 245 204
f 204 245 246
f 213 204 246
f 216 210 206
f 207 211 214
f 208 207 214
f 208 247 217
f 214 247 208
f 208 217 209
f 211 210 214
f 210 215 214
f 215 210 216
f 247 212 213
f 214 212 247
f 248 213 246
f 247 213 248
f 217 247 248
f 248 218 217
f 245 218 246
f 219 218 245
f 248 246 218
f 220 238 221
f 221 238 249
f 221 249 250
f 221 250 222
f 250 225 222
f 251 252 223
f 223 224 251
f 223 252 233
f 253 224 254
f 224 226 254
f 253 251 224
f 255 225 256
f 225 250 257
f 258 225 255
f 259 256 225
f 257 259 225
f 225 258 260
f 261 226 225
f 260 261 225
f 254 226 262
f 262 226 261
f 227 228 241
f 230 263 228
f 241 228 240
f 228 263 240
f 229 231 264
f 264 230 229
f 264 265 230
f 265 266 230
f 230 266 263
f 265 231 232
f 265 264 231
f 232 233 267
f 232 267 268
f 268 265 232
f 233 252 267
f 269 234 243
f 235 234 269
f 270 235 269
f 271 236 235
f 270 271 235
f 237 236 272
f 272 236 271
f 237 249 238
f 249 237 273
f 237 272 273
f 239 274 275
f 239 275 244
f 274 239 276
f 276 239 277
f 239 278 277
f 239 240 263
f 278 239 263
f 243 242 244
f 243 244 269
f 269 244 275
f 249 273 250
f 273 257 250
f 279 252 251
f 253 280 251
f 279 251 281
f 251 280 282
f 251 282 283
f 281 251 283
f 279 267 252
f 253 254 280
f 254 262 282
f 254 282 280
f 255 256 284
f 255 285 258
f 284 285 255
f 259 286 256
f 256 286 276
f 284 256 276
f 273 272 257
f 287 257 272
f 257 287 286
f 257 286 259
f 288 260 258
f 288 258 285
f 289 260 288
f 260 289 261
f 290 261 289
f 262 261 290
f 290 282 262
f 291 278 263
f 266 291 263
f 265 268 266
f 281 266 268
f 283 266 281
f 291 266 283
f 281 268 267
f 267 279 281
f 292 270 269
f 275 292 269
f 293 271 270
f 270 292 293
f 272 271 293
f 287 272 293
f 274 276 286
f 294 275 274
f 286 294 274
f 292 275 294
f 277 284 276
f 295 277 278
f 285 284 277
f 285 277 295
f 278 291 296
f 278 296 295
f 285 282 290
f 282 285 296
f 282 296 283
f 283 296 291
f 295 296 285
f 290 289 285
f 289 288 285
f 286 287 294
f 293 294 287
f 292 294 293
