# Generated by Visualization Toolkit
v 0.039319999516010284 -0.0034890000242739916 -0.020646000280976295
v 0.03648199886083603 -0.0017740000039339066 -0.02073800005018711
v 0.03886900097131729 -0.0037879999727010727 -0.02051199972629547
v 0.039976999163627625 -0.003524000057950616 -0.021245000883936882
v 0.03676600009202957 -0.0005810000002384186 -0.021304000169038773
v 0.03973900154232979 -0.001095999963581562 -0.022064000368118286
v 0.037689000368118286 -0.0029639999847859144 -0.020532000809907913
v 0.034616999328136444 -0.000881000014487654 -0.022616000846028328
v 0.03622199967503548 -0.002759000053629279 -0.021074000746011734
v 0.03669000044465065 -0.0026519999373704195 -0.02065099962055683
v 0.03451399877667427 -0.0022670000325888395 -0.021418999880552292
v 0.037039998918771744 -0.002867999952286482 -0.021025000140070915
v 0.03579099848866463 -0.003702000016346574 -0.02706499956548214
v 0.038554999977350235 -0.004333000164479017 -0.02406900003552437
v 0.039737001061439514 -0.0034030000679194927 -0.024620000272989273
v 0.0404059998691082 -0.002311999909579754 -0.022199999541044235
v 0.03548600152134895 -0.0016580000519752502 -0.026688000187277794
v 0.039329998195171356 -0.00145800004247576 -0.025225000455975533
v 0.031045999377965927 -0.0006189999985508621 -0.02471200004220009
v 0.03110400028526783 -0.0006820000126026571 -0.02236899919807911
v 0.03426399827003479 -0.0038169999606907368 -0.024057000875473022
v 0.035468000918626785 -0.003068000078201294 -0.021285999566316605
v 0.03161900117993355 -0.002119000069797039 -0.020692000165581703
v 0.03357800096273422 -0.0032470000442117453 -0.021190999075770378
v 0.03747899830341339 -0.004635999910533428 -0.0279300007969141
v 0.03177100047469139 -0.004292000085115433 -0.026364000514149666
v 0.03262399882078171 -0.002452000044286251 -0.026527000591158867
v 0.037133000791072845 -0.004220999777317047 -0.02783999964594841
v 0.038217999041080475 -0.00481100007891655 -0.027837000787258148
v 0.03928700089454651 -0.004433999769389629 -0.02594600059092045
v 0.04008600115776062 -0.002891999902203679 -0.026038000360131264
v 0.032648999243974686 -0.001353000057861209 -0.025995999574661255
v 0.0359870009124279 -0.0030239999759942293 -0.02771800011396408
v 0.03699599951505661 -0.001614999957382679 -0.027403999119997025
v 0.03606000170111656 -0.0019399999873712659 -0.027518000453710556
v 0.03949299827218056 -0.0021379999816417694 -0.02722500078380108
v 0.029443999752402306 -0.0007890000124461949 -0.025428999215364456
v 0.028706999495625496 -0.0003589999978430569 -0.021523000672459602
v 0.029881000518798828 -0.0010720000136643648 -0.01975099928677082
v 0.0342090018093586 -0.003510999958962202 -0.021587999537587166
v 0.03253699839115143 -0.00408599991351366 -0.021146999672055244
v 0.031062999740242958 -0.004470000043511391 -0.02644200064241886
v 0.0325700007379055 -0.003452999982982874 -0.020990999415516853
v 0.03139600157737732 -0.003531999886035919 -0.019399000331759453
v 0.032203998416662216 -0.0034799999557435513 -0.02058899961411953
v 0.03880799934267998 -0.004253999795764685 -0.027838999405503273
v 0.03768699988722801 -0.003777999896556139 -0.027657000347971916
v 0.03125999867916107 -0.0037010000087320805 -0.02639799937605858
v 0.032085999846458435 -0.0019499999471008778 -0.02630000002682209
v 0.03679100051522255 -0.0032339999452233315 -0.027761999517679214
v 0.03931799903512001 -0.00420599989593029 -0.02742999978363514
v 0.03954099863767624 -0.0036200000904500484 -0.027348000556230545
v 0.028082000091671944 -0.000818000000435859 -0.0263030007481575
v 0.0386199988424778 -0.002340999897569418 -0.02762099914252758
v 0.027963999658823013 -0.00045200000749900937 -0.02574400044977665
v 0.02782999910414219 -0.0008040000102482736 -0.021983999758958817
v 0.02735700085759163 -0.0005039999959990382 -0.023854000493884087
v 0.0284620001912117 -0.0015269999857991934 -0.020215999335050583
v 0.02931799925863743 -0.00279999990016222 -0.019000999629497528
v 0.030274000018835068 -0.0038159999530762434 -0.0188790000975132
v 0.03187999874353409 -0.004244999960064888 -0.02068600058555603
v 0.02967900037765503 -0.0055069997906684875 -0.026384999975562096
v 0.0292930006980896 -0.00507500022649765 -0.026926999911665916
v 0.029683999717235565 -0.0053460001945495605 -0.020656999200582504
v 0.03065500035881996 -0.004449000116437674 -0.019233999773859978
v 0.02782999910414219 -0.004277000203728676 -0.027110999450087547
v 0.02804199978709221 -0.001310999970883131 -0.02661599963903427
v 0.027674000710248947 -0.0018649999983608723 -0.026819000020623207
v 0.0277670007199049 -0.003409000113606453 -0.02725199982523918
v 0.027481000870466232 -0.000994000001810491 -0.0258760005235672
v 0.027000999078154564 -0.0012870000209659338 -0.025408999994397163
v 0.02709200046956539 -0.0013000000035390258 -0.024010999128222466
v 0.02829599939286709 -0.002365000080317259 -0.023262999951839447
v 0.028940999880433083 -0.004275000188499689 -0.02295600064098835
v 0.028829999268054962 -0.004858000203967094 -0.020375000312924385
v 0.02933100052177906 -0.0035210000351071358 -0.01897599920630455
v 0.028311999514698982 -0.0051020001992583275 -0.026799999177455902
v 0.028598999604582787 -0.0054870001040399075 -0.026101000607013702
v 0.028320999816060066 -0.005530999973416328 -0.0231890007853508
v 0.02846500091254711 -0.005386000033468008 -0.022161999717354774
v 0.027728000655770302 -0.0021569998934865 -0.025312000885605812
v 0.028832999989390373 -0.00446499977260828 -0.02357099950313568
v 0.028080999851226807 -0.005210000090301037 -0.026322999969124794
v 0.027307000011205673 -0.0016039999900385737 -0.02638999931514263
v 0.027627000585198402 -0.0027119999285787344 -0.027024000883102417
v 0.02873699925839901 -0.0038419999182224274 -0.023250000551342964
v 0.028269000351428986 -0.005313000176101923 -0.025005999952554703
f 1 2 3
f 3 4 1
f 2 1 5
f 1 6 5
f 1 4 6
f 3 2 7
f 2 5 8
f 2 9 10
f 7 2 10
f 8 11 2
f 9 2 11
f 7 12 3
f 3 13 14
f 3 12 13
f 14 4 3
f 4 14 15
f 15 16 4
f 16 6 4
f 17 8 5
f 17 5 18
f 18 5 6
f 6 16 18
f 10 12 7
f 8 17 19
f 8 20 11
f 19 20 8
f 10 9 12
f 12 9 21
f 22 9 11
f 22 21 9
f 11 23 24
f 20 23 11
f 11 24 22
f 21 13 12
f 13 25 14
f 21 26 13
f 26 27 13
f 28 25 13
f 27 28 13
f 25 29 14
f 14 29 30
f 30 15 14
f 31 18 15
f 16 15 18
f 15 30 31
f 32 17 27
f 17 33 27
f 19 17 32
f 17 18 34
f 17 35 33
f 34 35 17
f 18 36 34
f 31 36 18
f 19 32 37
f 20 19 38
f 19 37 38
f 23 20 39
f 38 39 20
f 40 21 22
f 41 42 21
f 42 26 21
f 21 40 41
f 22 24 40
f 23 43 24
f 39 44 23
f 23 44 45
f 23 45 43
f 24 41 40
f 41 24 43
f 25 46 29
f 28 47 25
f 25 47 46
f 48 26 42
f 26 48 27
f 27 48 49
f 32 27 49
f 27 33 28
f 28 33 50
f 28 50 47
f 30 29 51
f 29 46 51
f 52 31 30
f 52 30 51
f 52 36 31
f 37 32 53
f 53 32 49
f 35 54 33
f 50 33 54
f 35 34 54
f 34 36 54
f 52 54 36
f 55 38 37
f 55 37 53
f 56 38 57
f 56 58 38
f 39 38 58
f 38 55 57
f 39 58 59
f 39 60 44
f 39 59 60
f 42 41 61
f 61 41 45
f 45 41 43
f 42 62 63
f 63 48 42
f 42 61 64
f 62 42 64
f 45 44 61
f 65 44 60
f 65 61 44
f 52 51 46
f 47 54 46
f 54 52 46
f 50 54 47
f 66 48 63
f 49 48 66
f 49 67 53
f 49 68 67
f 68 49 69
f 66 69 49
f 55 53 70
f 70 53 67
f 71 57 55
f 71 55 70
f 72 56 57
f 72 73 56
f 74 58 56
f 73 74 56
f 71 72 57
f 75 58 74
f 59 58 75
f 76 60 59
f 76 59 75
f 65 60 76
f 64 61 65
f 77 63 62
f 78 77 62
f 62 79 78
f 79 62 64
f 66 63 77
f 65 75 64
f 64 80 79
f 64 75 80
f 75 65 76
f 81 66 73
f 66 82 73
f 77 83 66
f 78 66 83
f 69 66 84
f 78 82 66
f 84 66 81
f 67 68 84
f 84 70 67
f 84 68 85
f 85 68 69
f 85 69 84
f 71 70 84
f 81 72 71
f 84 81 71
f 72 81 73
f 86 74 73
f 86 73 82
f 75 74 80
f 82 80 74
f 86 82 74
f 77 78 83
f 87 78 79
f 82 78 87
f 79 80 87
f 82 87 80
