# Generated by Visualization Toolkit
v 0.05727799981832504 -0.0027920000720769167 -0.006990999914705753
v 0.05389299988746643 -0.0032909999135881662 -0.006645999848842621
v 0.05659100040793419 -0.005601999815553427 -0.006523000076413155
v 0.05761000141501427 -0.00458399998024106 -0.006574000231921673
v 0.05420299991965294 -0.002355000004172325 -0.007027000188827515
v 0.057075001299381256 -0.0020129999611526728 -0.00750300008803606
v 0.054590001702308655 -0.0020409999415278435 -0.007226999849081039
v 0.05816100165247917 -0.002503999974578619 -0.007335999980568886
v 0.054951999336481094 -0.004557999782264233 -0.006434000097215176
v 0.053895000368356705 -0.0042130001820623875 -0.006552999839186668
v 0.0533830001950264 -0.002644999884068966 -0.0073009999468922615
v 0.05546500161290169 -0.005636000074446201 -0.006461999844759703
v 0.055442001670598984 -0.005934999790042639 -0.009948999620974064
v 0.057659998536109924 -0.004939999897032976 -0.010510999709367752
v 0.057597000151872635 -0.005117000080645084 -0.006787000223994255
v 0.0586169995367527 -0.003785999957472086 -0.0075240000151097775
v 0.057833001017570496 -0.0028639999218285084 -0.01114100031554699
v 0.05813099816441536 -0.002400000113993883 -0.008662000298500061
v 0.05215299874544144 -0.0022929999977350235 -0.008564000017940998
v 0.048395998775959015 -0.002309999894350767 -0.012505999766290188
v 0.05415299907326698 -0.004255000036209822 -0.013650000095367432
v 0.057245999574661255 -0.00330700003542006 -0.01347300037741661
v 0.05426599830389023 -0.004441000055521727 -0.006928999908268452
v 0.053412001579999924 -0.004296000115573406 -0.0070779998786747456
v 0.05415099859237671 -0.004714000038802624 -0.007710000034421682
v 0.05164400115609169 -0.0027570000384002924 -0.007845999673008919
v 0.052712999284267426 -0.003287999890744686 -0.007313999813050032
v 0.04966399818658829 -0.005477000027894974 -0.012973999604582787
v 0.05413400009274483 -0.005514000076800585 -0.01285600010305643
v 0.05531400069594383 -0.0061690001748502254 -0.013425000011920929
v 0.056407999247312546 -0.00609199982136488 -0.013567999936640263
v 0.053369998931884766 -0.005107000004500151 -0.013268999755382538
v 0.0580499991774559 -0.005022000055760145 -0.011952999979257584
v 0.0582909993827343 -0.0033400000538676977 -0.012513999827206135
v 0.05041300132870674 -0.0021639999467879534 -0.009081999771296978
v 0.04667900130152702 -0.0013810000382363796 -0.008528999984264374
v 0.05019799992442131 -0.003696999978274107 -0.013100000098347664
v 0.04521099850535393 -0.0015439999988302588 -0.011668000370264053
v 0.04546999931335449 -0.0012390000047162175 -0.009863000363111496
v 0.05428000167012215 -0.005386999808251858 -0.013368000276386738
v 0.05743600055575371 -0.005555999930948019 -0.013559999875724316
v 0.05821700021624565 -0.0039820000529289246 -0.013306000269949436
v 0.05098700150847435 -0.005013999994844198 -0.0075079998932778835
v 0.05034000054001808 -0.0047160000540316105 -0.007108999881893396
v 0.05155399814248085 -0.0037589999847114086 -0.007282999809831381
v 0.05113000050187111 -0.0032420000061392784 -0.007373000029474497
v 0.04847399890422821 -0.0034620000515133142 -0.006624000146985054
v 0.04579799994826317 -0.006616999860852957 -0.01233999989926815
v 0.049042001366615295 -0.005526000168174505 -0.007075000088661909
v 0.046835001558065414 -0.00228899996727705 -0.00570000009611249
v 0.0450889989733696 -0.0014140000566840172 -0.008349999785423279
v 0.044996000826358795 -0.002901999978348613 -0.012697000056505203
v 0.04454899951815605 -0.004503999836742878 -0.01284599956125021
v 0.04457800090312958 -0.0015279999934136868 -0.009809999726712704
v 0.04402400180697441 -0.002326000016182661 -0.011075999587774277
v 0.044241998344659805 -0.0026940000243484974 -0.011943000368773937
v 0.04692399874329567 -0.005785000044852495 -0.005179000087082386
v 0.047527000308036804 -0.0035620001144707203 -0.005257000215351582
v 0.04436400160193443 -0.005781999789178371 -0.012264000251889229
v 0.04456600174307823 -0.006366000045090914 -0.011462000198662281
v 0.04456000030040741 -0.00648899981752038 -0.010614000260829926
v 0.047067999839782715 -0.0064199999906122684 -0.008849999867379665
v 0.0458189994096756 -0.006632000207901001 -0.00661400007084012
v 0.04530800133943558 -0.00266100000590086 -0.006188000086694956
v 0.045878998935222626 -0.004015000071376562 -0.004964000079780817
v 0.04520900174975395 -0.005841999780386686 -0.009882999584078789
v 0.04531100019812584 -0.004265999887138605 -0.009538999758660793
v 0.04496999830007553 -0.005741999950259924 -0.006012999918311834
v 0.04574999958276749 -0.004749000072479248 -0.004941000137478113
v 0.04664599895477295 -0.005113999824970961 -0.00482900021597743
v 0.04451199993491173 -0.00671500014141202 -0.009007999673485756
v 0.04451899975538254 -0.006372000090777874 -0.009929999709129333
v 0.0449879989027977 -0.005975000094622374 -0.009321000427007675
v 0.04464299976825714 -0.0065819998271763325 -0.008065000176429749
v 0.04533400014042854 -0.005497999954968691 -0.009337999857962132
v 0.04526200145483017 -0.005799999926239252 -0.00865700002759695
v 0.044541001319885254 -0.006459999829530716 -0.008566999807953835
f 1 2 3
f 4 1 3
f 2 1 5
f 6 7 1
f 1 8 6
f 1 4 8
f 1 7 5
f 3 2 9
f 9 2 10
f 2 5 11
f 10 2 11
f 12 13 3
f 13 14 3
f 15 3 14
f 12 3 9
f 3 15 4
f 8 4 16
f 16 4 15
f 11 5 7
f 6 17 7
f 8 18 6
f 17 6 18
f 11 7 19
f 20 19 7
f 20 7 21
f 22 21 7
f 7 17 22
f 18 8 16
f 10 23 9
f 9 23 12
f 11 24 10
f 10 24 25
f 10 25 23
f 26 27 11
f 26 11 19
f 24 11 27
f 25 13 12
f 25 12 23
f 25 28 13
f 13 29 30
f 13 30 31
f 32 29 13
f 13 28 32
f 14 13 31
f 14 31 33
f 14 16 15
f 33 17 14
f 16 14 17
f 18 16 17
f 34 17 33
f 17 34 22
f 35 26 19
f 35 19 20
f 36 35 20
f 20 21 37
f 20 38 39
f 38 20 37
f 20 39 36
f 21 32 28
f 28 37 21
f 21 31 30
f 21 30 40
f 31 21 41
f 21 40 32
f 21 22 41
f 34 42 22
f 42 41 22
f 24 43 28
f 25 24 28
f 44 24 27
f 43 24 44
f 26 45 27
f 26 46 45
f 47 26 36
f 26 47 46
f 35 36 26
f 44 27 45
f 28 48 37
f 28 49 48
f 28 43 49
f 29 40 30
f 29 32 40
f 33 31 41
f 42 33 41
f 42 34 33
f 47 36 50
f 36 39 51
f 50 36 51
f 37 52 38
f 52 37 53
f 53 37 48
f 54 39 38
f 55 54 38
f 55 38 56
f 56 38 52
f 51 39 54
f 44 49 43
f 47 49 44
f 46 47 44
f 44 45 46
f 47 57 49
f 58 57 47
f 50 58 47
f 53 48 59
f 60 59 48
f 48 61 60
f 62 61 48
f 48 49 62
f 49 63 62
f 63 49 57
f 64 50 51
f 50 64 65
f 50 65 58
f 51 54 64
f 56 52 53
f 53 55 56
f 53 59 60
f 60 66 53
f 67 55 53
f 53 66 67
f 55 64 54
f 55 67 64
f 57 68 63
f 68 57 69
f 57 70 69
f 58 70 57
f 58 65 70
f 66 60 61
f 61 62 71
f 72 61 71
f 72 73 61
f 66 61 73
f 63 71 62
f 74 71 63
f 63 68 74
f 67 75 64
f 65 64 68
f 68 64 75
f 69 65 68
f 69 70 65
f 66 75 67
f 75 66 73
f 74 68 76
f 76 68 75
f 71 77 72
f 77 71 74
f 77 73 72
f 75 73 76
f 73 77 76
f 76 77 74
