# Generated by Visualization Toolkit
v 0.05659100040793419 -0.005601999815553427 0.006523000076413155
v 0.05389299988746643 -0.0032909999135881662 0.006645999848842621
v 0.05727799981832504 -0.0027920000720769167 0.006990999914705753
v 0.05761000141501427 -0.00458399998024106 0.006574000231921673
v 0.054951999336481094 -0.004557999782264233 0.006434000097215176
v 0.055442001670598984 -0.005934999790042639 0.009948999620974064
v 0.05546500161290169 -0.005636000074446201 0.006461999844759703
v 0.057659998536109924 -0.004939999897032976 0.010510999709367752
v 0.057597000151872635 -0.005117000080645084 0.006787000223994255
v 0.053895000368356705 -0.0042130001820623875 0.006552999839186668
v 0.05420299991965294 -0.002355000004172325 0.007027000188827515
v 0.0533830001950264 -0.002644999884068966 0.0073009999468922615
v 0.054590001702308655 -0.0020409999415278435 0.007226999849081039
v 0.057075001299381256 -0.0020129999611526728 0.00750300008803606
v 0.05816100165247917 -0.002503999974578619 0.007335999980568886
v 0.0586169995367527 -0.003785999957472086 0.0075240000151097775
v 0.05426599830389023 -0.004441000055521727 0.006928999908268452
v 0.04966399818658829 -0.005477000027894974 0.012973999604582787
v 0.05415099859237671 -0.004714000038802624 0.007710000034421682
v 0.05531400069594383 -0.0061690001748502254 0.013425000011920929
v 0.05413400009274483 -0.005514000076800585 0.01285600010305643
v 0.056407999247312546 -0.00609199982136488 0.013567999936640263
v 0.053369998931884766 -0.005107000004500151 0.013268999755382538
v 0.0580499991774559 -0.005022000055760145 0.011952999979257584
v 0.057833001017570496 -0.0028639999218285084 0.01114100031554699
v 0.053412001579999924 -0.004296000115573406 0.0070779998786747456
v 0.052712999284267426 -0.003287999890744686 0.007313999813050032
v 0.05164400115609169 -0.0027570000384002924 0.007845999673008919
v 0.05215299874544144 -0.0022929999977350235 0.008564000017940998
v 0.048395998775959015 -0.002309999894350767 0.012505999766290188
v 0.05415299907326698 -0.004255000036209822 0.013650000095367432
v 0.057245999574661255 -0.00330700003542006 0.01347300037741661
v 0.05813099816441536 -0.002400000113993883 0.008662000298500061
v 0.05019799992442131 -0.003696999978274107 0.013100000098347664
v 0.04579799994826317 -0.006616999860852957 0.01233999989926815
v 0.049042001366615295 -0.005526000168174505 0.007075000088661909
v 0.05098700150847435 -0.005013999994844198 0.0075079998932778835
v 0.05428000167012215 -0.005386999808251858 0.013368000276386738
v 0.05743600055575371 -0.005555999930948019 0.013559999875724316
v 0.05821700021624565 -0.0039820000529289246 0.013306000269949436
v 0.0582909993827343 -0.0033400000538676977 0.012513999827206135
v 0.05034000054001808 -0.0047160000540316105 0.007108999881893396
v 0.05155399814248085 -0.0037589999847114086 0.007282999809831381
v 0.05041300132870674 -0.0021639999467879534 0.009081999771296978
v 0.05113000050187111 -0.0032420000061392784 0.007373000029474497
v 0.04667900130152702 -0.0013810000382363796 0.008528999984264374
v 0.04847399890422821 -0.0034620000515133142 0.006624000146985054
v 0.04546999931335449 -0.0012390000047162175 0.009863000363111496
v 0.04521099850535393 -0.0015439999988302588 0.011668000370264053
v 0.044996000826358795 -0.002901999978348613 0.012697000056505203
v 0.04454899951815605 -0.004503999836742878 0.01284599956125021
v 0.04436400160193443 -0.005781999789178371 0.012264000251889229
v 0.04456600174307823 -0.006366000045090914 0.011462000198662281
v 0.04456000030040741 -0.00648899981752038 0.010614000260829926
v 0.047067999839782715 -0.0064199999906122684 0.008849999867379665
v 0.0458189994096756 -0.006632000207901001 0.00661400007084012
v 0.04692399874329567 -0.005785000044852495 0.005179000087082386
v 0.046835001558065414 -0.00228899996727705 0.00570000009611249
v 0.0450889989733696 -0.0014140000566840172 0.008349999785423279
v 0.047527000308036804 -0.0035620001144707203 0.005257000215351582
v 0.04457800090312958 -0.0015279999934136868 0.009809999726712704
v 0.04402400180697441 -0.002326000016182661 0.011075999587774277
v 0.044241998344659805 -0.0026940000243484974 0.011943000368773937
v 0.04520900174975395 -0.005841999780386686 0.009882999584078789
v 0.04531100019812584 -0.004265999887138605 0.009538999758660793
v 0.04451199993491173 -0.00671500014141202 0.009007999673485756
v 0.04451899975538254 -0.006372000090777874 0.009929999709129333
v 0.0449879989027977 -0.005975000094622374 0.009321000427007675
v 0.04496999830007553 -0.005741999950259924 0.006012999918311834
v 0.04464299976825714 -0.0065819998271763325 0.008065000176429749
v 0.04574999958276749 -0.004749000072479248 0.004941000137478113
v 0.04664599895477295 -0.005113999824970961 0.00482900021597743
v 0.04530800133943558 -0.00266100000590086 0.006188000086694956
v 0.045878998935222626 -0.004015000071376562 0.004964000079780817
v 0.04533400014042854 -0.005497999954968691 0.009337999857962132
v 0.044541001319885254 -0.006459999829530716 0.008566999807953835
v 0.04526200145483017 -0.005799999926239252 0.00865700002759695
f 1 2 3
f 1 3 4
f 5 2 1
f 1 6 7
f 1 8 6
f 8 1 9
f 5 1 7
f 4 9 1
f 10 2 5
f 11 3 2
f 12 11 2
f 12 2 10
f 3 13 14
f 14 15 3
f 15 4 3
f 11 13 3
f 16 4 15
f 9 4 16
f 5 17 10
f 7 17 5
f 6 18 19
f 20 21 6
f 22 20 6
f 6 21 23
f 23 18 6
f 22 6 8
f 7 6 19
f 17 7 19
f 24 22 8
f 9 16 8
f 8 25 24
f 25 8 16
f 10 26 12
f 19 26 10
f 17 19 10
f 13 11 12
f 12 27 28
f 29 13 12
f 29 12 28
f 27 12 26
f 13 25 14
f 13 29 30
f 31 13 30
f 13 31 32
f 32 25 13
f 14 33 15
f 33 14 25
f 16 15 33
f 25 16 33
f 34 35 18
f 18 23 31
f 31 34 18
f 35 36 18
f 18 37 26
f 36 37 18
f 18 26 19
f 20 22 31
f 20 38 21
f 38 20 31
f 38 23 21
f 39 22 24
f 39 31 22
f 23 38 31
f 39 24 40
f 24 41 40
f 24 25 41
f 32 41 25
f 27 26 42
f 42 26 37
f 27 43 28
f 43 27 42
f 29 28 44
f 43 45 28
f 46 28 47
f 45 47 28
f 28 46 44
f 30 29 44
f 30 44 46
f 34 31 30
f 48 49 30
f 34 30 49
f 46 48 30
f 39 32 31
f 32 40 41
f 32 39 40
f 49 50 34
f 51 34 50
f 35 34 51
f 52 35 51
f 35 52 53
f 53 54 35
f 35 54 55
f 55 36 35
f 55 56 36
f 57 36 56
f 37 36 42
f 36 57 47
f 42 36 47
f 42 47 45
f 45 43 42
f 58 46 47
f 59 48 46
f 59 46 58
f 47 57 60
f 47 60 58
f 49 48 61
f 61 48 59
f 49 61 62
f 63 49 62
f 50 49 63
f 51 50 63
f 63 62 51
f 53 52 51
f 51 64 53
f 51 62 65
f 65 64 51
f 54 53 64
f 66 55 54
f 66 54 67
f 54 68 67
f 68 54 64
f 55 66 56
f 56 69 57
f 56 66 70
f 70 69 56
f 71 57 69
f 71 72 57
f 57 72 60
f 59 58 73
f 74 73 58
f 60 74 58
f 73 61 59
f 72 74 60
f 61 73 62
f 73 65 62
f 65 75 64
f 68 64 75
f 73 75 65
f 67 76 66
f 70 66 76
f 67 68 76
f 77 68 75
f 77 76 68
f 69 73 74
f 69 74 71
f 75 73 69
f 77 69 70
f 75 69 77
f 70 76 77
f 74 72 71
