# Generated by Visualization Toolkit
v 0.007977999746799469 -0.006039999891072512 -0.051523998379707336
v 0.009544000029563904 -0.002687999978661537 -0.04582900181412697
v 0.008887999691069126 -0.002976000076159835 -0.045598000288009644
v 0.008143000304698944 -0.0026459998916834593 -0.045520998537540436
v 0.009328000247478485 -0.004313999786973 -0.05002500116825104
v 0.008662000298500061 -0.0030690000858157873 -0.05196100100874901
v 0.006670000031590462 -0.003700000001117587 -0.05214900150895119
v 0.005923999939113855 -0.0056119998916983604 -0.05133200064301491
v 0.003229999914765358 -0.006238999776542187 -0.04982300102710724
v 0.0037070000544190407 -0.006295999977737665 -0.04953400045633316
v 0.0047969999723136425 -0.0039980001747608185 -0.04492200165987015
v 0.006895999889820814 -0.0031330001074820757 -0.04540799930691719
v 0.007660999894142151 -0.0029899999499320984 -0.04556199908256531
v 0.006018000189214945 -0.004273000173270702 -0.05195999890565872
v 0.009939000010490417 -0.002461999887600541 -0.04623999819159508
v 0.007333999965339899 0.00013499999477062374 -0.04719400033354759
v 0.009201000444591045 -0.0007409999961964786 -0.04806999862194061
v 0.007267999928444624 -0.0002300000051036477 -0.04684799909591675
v 0.005810000002384186 -0.0006040000007487833 -0.04704200103878975
v 0.008609999902546406 -0.002606000052765012 -0.05138599872589111
v 0.006051999982446432 -0.003258999902755022 -0.05183099955320358
v 0.002616999903693795 -0.0017969999462366104 -0.051715001463890076
v 0.005644000135362148 -0.0036379999946802855 -0.05171800032258034
v 0.0013689999468624592 -0.005034000147134066 -0.0506879985332489
v 0.002515000058338046 -0.006748999934643507 -0.04936999827623367
v 0.0017079999670386314 -0.0059460001066327095 -0.0500359982252121
v 0.0031210000161081553 -0.004482000134885311 -0.04472000151872635
v 0.003533999901264906 -0.0035979999229311943 -0.0442500002682209
v 0.004838999826461077 -0.0032279998995363712 -0.04509799927473068
v 0.006816999986767769 -0.00014400000509340316 -0.047453999519348145
v 0.006477000191807747 -0.0018149999668821692 -0.05036599934101105
v 0.0058109997771680355 -0.00020799999765586108 -0.04802500084042549
v 0.0039530000649392605 0.00046800001291558146 -0.047481998801231384
v 0.003619000082835555 -0.0010189999593421817 -0.04531100019812584
v 0.0034370000939816236 0.0003499999875202775 -0.04877899959683418
v 0.0027199999894946814 0.000037000001611886546 -0.04910999909043312
v 0.000754999986384064 -0.0011620000004768372 -0.051389001309871674
v 0.0008960000122897327 -0.0015269999857991934 -0.05175599828362465
v 0.0006290000164881349 -0.0021230001002550125 -0.05146300047636032
v 0.0013419999741017818 -0.0023529999889433384 -0.049598000943660736
v 0.0016449999529868364 -0.005735000129789114 -0.04917199909687042
v 0.0018560000462457538 -0.0051910001784563065 -0.048572998493909836
v 0.0018710000440478325 -0.004513000138103962 -0.047189000993967056
v 0.0023690001107752323 -0.0016370000084862113 -0.04500599950551987
v 0.0021089999936521053 -0.004075999837368727 -0.04570699855685234
v 0.0021069999784231186 0.0005200000014156103 -0.04826999828219414
v 0.0028460000175982714 0.0005239999736659229 -0.04606499895453453
v 0.0026730000972747803 0.0006639999919570982 -0.047029998153448105
v 0.0010239999974146485 -0.00023600000713486224 -0.04958900064229965
v 0.001373999984934926 0.0003870000073220581 -0.04737300053238869
v 0.002302000066265464 -0.003984000068157911 -0.04641300067305565
v 0.00216299993917346 0.000775999971665442 -0.047237999737262726
f 1 2 3
f 1 3 4
f 1 5 2
f 1 6 5
f 1 7 6
f 8 1 9
f 10 9 1
f 11 10 1
f 11 1 12
f 1 13 12
f 13 1 4
f 14 7 1
f 1 8 14
f 4 3 2
f 4 2 15
f 5 15 2
f 16 4 17
f 4 15 17
f 4 16 18
f 19 13 4
f 4 18 19
f 6 20 5
f 15 5 20
f 6 7 20
f 21 20 7
f 21 7 14
f 8 9 22
f 23 14 8
f 8 22 23
f 9 24 22
f 9 10 25
f 9 25 26
f 9 26 24
f 25 10 11
f 11 27 25
f 28 27 11
f 11 12 29
f 29 28 11
f 19 12 13
f 12 19 29
f 21 14 23
f 17 15 20
f 16 17 20
f 18 16 30
f 20 31 16
f 31 30 16
f 18 30 32
f 19 18 32
f 19 32 33
f 33 34 19
f 29 19 34
f 21 31 20
f 21 23 31
f 22 35 31
f 22 31 23
f 36 22 37
f 22 36 35
f 37 22 38
f 22 24 38
f 39 38 24
f 39 24 40
f 24 26 41
f 41 42 24
f 43 40 24
f 43 24 42
f 41 26 25
f 41 25 43
f 27 43 25
f 44 27 28
f 43 27 45
f 45 27 44
f 34 28 29
f 44 28 34
f 31 32 30
f 32 31 35
f 35 33 32
f 36 46 33
f 34 33 47
f 33 35 36
f 33 48 47
f 33 46 48
f 47 44 34
f 37 49 36
f 36 49 46
f 39 37 38
f 49 37 39
f 39 40 49
f 50 49 40
f 43 50 40
f 42 41 43
f 51 50 43
f 51 43 45
f 45 44 51
f 50 51 44
f 47 50 44
f 46 52 48
f 46 49 52
f 50 47 48
f 48 52 50
f 52 49 50
