# Generated by Visualization Toolkit
v 0.017653999850153923 -0.001382000045850873 -0.034474000334739685
v 0.020309999585151672 -0.0015160000184550881 -0.03467800095677376
v 0.018136000260710716 -0.00004400000034365803 -0.03615399822592735
v 0.01588200032711029 0.0004030000127386302 -0.03418099880218506
v 0.020137999206781387 -0.0029539999086409807 -0.034060999751091
v 0.016085000708699226 -0.0037589999847114086 -0.032836999744176865
v 0.016029000282287598 -0.004807999823242426 -0.03320999816060066
v 0.017389999702572823 -0.0037090000696480274 -0.03374499827623367
v 0.021252000704407692 0.000056000000768108293 -0.0355600006878376
v 0.020990999415516853 -0.003197999903932214 -0.03421600162982941
v 0.020003000274300575 -0.0013139999937266111 -0.03932899981737137
v 0.016627000644803047 0.0006910000229254365 -0.03698299825191498
v 0.01537299994379282 0.0007089999853633344 -0.03436899930238724
v 0.014498000033199787 -0.0021349999587982893 -0.03307899832725525
v 0.014026000164449215 0.0005590000073425472 -0.03530700132250786
v 0.021477999165654182 -0.0035429999697953463 -0.034311000257730484
v 0.015494000166654587 -0.005981000140309334 -0.03933800011873245
v 0.018302999436855316 -0.005563999991863966 -0.04083399847149849
v 0.015522999688982964 -0.0044200001284480095 -0.03271099925041199
v 0.013650000095367432 -0.006572999991476536 -0.03875900059938431
v 0.014945000410079956 -0.006384000182151794 -0.03840800002217293
v 0.014930999837815762 -0.0050559998489916325 -0.03328400105237961
v 0.02275099977850914 -0.0019859999883919954 -0.04129499942064285
v 0.02365799993276596 -0.0010100000072270632 -0.03671199828386307
v 0.02213199995458126 -0.0034719998948276043 -0.03441699966788292
v 0.015499000437557697 -0.00047599998652003706 -0.040084999054670334
v 0.01846499927341938 -0.003085999982431531 -0.04095900058746338
v 0.019902000203728676 -0.002553999889642 -0.041405998170375824
v 0.014507999643683434 0.0005849999724887311 -0.037372998893260956
v 0.014019999653100967 -0.0035830000415444374 -0.03387400135397911
v 0.013752000406384468 0.000577000027988106 -0.03610900044441223
v 0.01396199967712164 -0.004155999980866909 -0.03535100072622299
v 0.013346999883651733 0.00015100000018719584 -0.03647499904036522
v 0.012887000106275082 -0.00060299999313429 -0.03772199898958206
v 0.013772999867796898 -0.003659999929368496 -0.03625300154089928
v 0.012992000207304955 -0.0025430000387132168 -0.04027099907398224
v 0.012866999953985214 -0.00456500006839633 -0.03981399908661842
v 0.01522899977862835 -0.0018060000147670507 -0.04043800011277199
v 0.013004999607801437 -0.005594999995082617 -0.03930399939417839
v 0.021952999755740166 -0.004666999913752079 -0.04142799973487854
v 0.023832999169826508 -0.0025110000278800726 -0.036058999598026276
v 0.013659999705851078 -0.004503999836742878 -0.034678999334573746
v 0.012984000146389008 -0.0056420001201331615 -0.0385110005736351
v 0.013151999562978745 -0.004906999878585339 -0.03691500052809715
v 0.023854000493884087 -0.0015920000150799751 -0.03662699833512306
v 0.022460000589489937 -0.002392000053077936 -0.04171200096607208
v 0.013333999551832676 -0.0005360000068321824 -0.04035099968314171
v 0.013245999813079834 -0.00021499999274965376 -0.03988000005483627
v 0.013081000186502934 0.00011300000187475234 -0.037703998386859894
v 0.013491000048816204 -0.004480000119656324 -0.0352259986102581
v 0.013530000112950802 -0.004449999891221523 -0.03600500151515007
v 0.012668999843299389 -0.0007960000075399876 -0.03921499848365784
v 0.01291900034993887 -0.0016919999616220593 -0.04026100039482117
v 0.013363000005483627 -0.004807999823242426 -0.03798000141978264
v 0.013585999608039856 -0.00459699984639883 -0.03657300025224686
v 0.01300899963825941 -0.0010379999876022339 -0.04032900184392929
v 0.01271899975836277 -0.0009219999774359167 -0.039788998663425446
f 1 2 3
f 1 3 4
f 5 2 1
f 4 6 1
f 1 6 7
f 1 7 8
f 5 1 8
f 2 9 3
f 10 2 5
f 10 9 2
f 3 11 12
f 11 3 9
f 12 4 3
f 12 13 4
f 4 14 6
f 15 4 13
f 4 15 14
f 10 5 16
f 8 17 5
f 18 16 5
f 17 18 5
f 6 14 19
f 19 7 6
f 8 7 17
f 7 20 21
f 7 21 17
f 20 7 22
f 22 7 19
f 11 9 23
f 24 9 10
f 23 9 24
f 25 24 10
f 10 16 25
f 12 11 26
f 11 27 26
f 28 27 11
f 11 23 28
f 29 12 26
f 12 15 13
f 12 29 15
f 14 15 30
f 30 19 14
f 15 29 31
f 32 30 15
f 31 33 15
f 33 34 15
f 35 15 34
f 32 15 35
f 18 25 16
f 36 17 37
f 17 36 38
f 18 17 38
f 17 20 39
f 20 17 21
f 17 39 37
f 27 40 18
f 18 38 27
f 41 25 18
f 41 18 40
f 22 19 30
f 22 42 20
f 43 39 20
f 43 20 44
f 44 20 42
f 22 30 42
f 23 24 45
f 23 46 28
f 41 46 23
f 45 41 23
f 25 41 24
f 45 24 41
f 38 47 26
f 38 26 27
f 26 48 29
f 48 26 47
f 27 28 40
f 28 46 40
f 49 29 48
f 31 29 49
f 32 42 30
f 31 49 34
f 34 33 31
f 42 32 50
f 50 32 51
f 35 51 32
f 52 34 49
f 52 53 34
f 35 34 53
f 35 53 54
f 51 35 55
f 35 54 55
f 38 36 47
f 36 56 47
f 36 37 54
f 53 56 36
f 54 53 36
f 37 39 43
f 54 37 43
f 46 41 40
f 50 44 42
f 44 55 43
f 43 55 54
f 51 55 44
f 50 51 44
f 56 48 47
f 52 49 48
f 57 48 56
f 52 48 57
f 52 57 53
f 56 53 57
