# Generated by Visualization Toolkit
v 0.043568000197410583 -0.16834799945354462 0.006173000205308199
v 0.04386100172996521 -0.16840699315071106 0.0075530000030994415
v 0.0431860014796257 -0.1684419959783554 0.007579999975860119
v 0.042764998972415924 -0.16828499734401703 0.006732999812811613
v 0.04639900103211403 -0.16717499494552612 0.006632000207901001
v 0.04279699921607971 -0.1680459976196289 0.006157000083476305
v 0.03994499891996384 -0.16527099907398224 0.005239999853074551
v 0.045844998210668564 -0.16727900505065918 0.005537999793887138
v 0.043740998953580856 -0.16774199903011322 0.010286999866366386
v 0.04598499834537506 -0.16618600487709045 0.00979899987578392
v 0.04240800067782402 -0.16810299456119537 0.007511000148952007
v 0.04290499910712242 -0.16770100593566895 0.011203000321984291
v 0.0419670008122921 -0.16737699508666992 0.01003399956971407
v 0.04670500010251999 -0.16480199992656708 0.007600999902933836
v 0.046778999269008636 -0.16512799263000488 0.005504999775439501
v 0.03932600095868111 -0.16468900442123413 0.005594999995082617
v 0.039250001311302185 -0.16312800347805023 0.004550000187009573
v 0.046146001666784286 -0.16599300503730774 0.004749000072479248
v 0.04549099877476692 -0.16440999507904053 0.003926000092178583
v 0.0420369990170002 -0.1624079942703247 0.003432000055909157
v 0.04036799818277359 -0.1623380035161972 0.0038759999442845583
v 0.04429800063371658 -0.16742299497127533 0.013358999975025654
v 0.04601600021123886 -0.1666409969329834 0.011843999847769737
v 0.045885998755693436 -0.16383999586105347 0.009339000098407269
v 0.046675000339746475 -0.164450004696846 0.011683999560773373
v 0.0410350002348423 -0.16629399359226227 0.00992400012910366
v 0.039872001856565475 -0.16533899307250977 0.008364999666810036
v 0.04225299879908562 -0.16717199981212616 0.012168999761343002
v 0.043042998760938644 -0.167153000831604 0.013803999871015549
v 0.04031199961900711 -0.16551299393177032 0.010645000264048576
v 0.04619099944829941 -0.16323600709438324 0.006804000120609999
v 0.04603800177574158 -0.16350999474525452 0.004654999822378159
v 0.03890300169587135 -0.16387200355529785 0.006053999997675419
v 0.039781998842954636 -0.16469399631023407 0.009525000117719173
v 0.03877900168299675 -0.16245700418949127 0.004687999840825796
v 0.03948099911212921 -0.1622070074081421 0.004253000020980835
v 0.044022999703884125 -0.16191500425338745 0.003930999897420406
v 0.04117000102996826 -0.16096599400043488 0.004356999881565571
v 0.03965499997138977 -0.16119199991226196 0.004933000076562166
v 0.04420299828052521 -0.16719099879264832 0.013929000124335289
v 0.045593999326229095 -0.16620099544525146 0.01411799993366003
v 0.0457880012691021 -0.16244299709796906 0.011350000277161598
v 0.04385000094771385 -0.161640003323555 0.008782999590039253
v 0.04530800133943558 -0.16247600317001343 0.00661499984562397
v 0.045938000082969666 -0.16340699791908264 0.014027000404894352
v 0.046202998608350754 -0.16442599892616272 0.014090999960899353
v 0.04068399965763092 -0.16532400250434875 0.009812000207602978
v 0.041742999106645584 -0.16602599620819092 0.013555999845266342
v 0.04352099820971489 -0.16617600619792938 0.014495999552309513
v 0.03985600173473358 -0.1650010049343109 0.010564999654889107
v 0.03697099909186363 -0.16100400686264038 0.0047530001029372215
v 0.03622699901461601 -0.16201600432395935 0.0063680000603199005
v 0.027924999594688416 -0.1547500044107437 0.009038000367581844
v 0.038787998259067535 -0.16287000477313995 0.011451000347733498
v 0.03812199831008911 -0.1599069982767105 0.004530000034719706
v 0.03986499831080437 -0.1605069935321808 0.006382999941706657
v 0.04546299949288368 -0.16408999264240265 0.014680000022053719
v 0.04544200003147125 -0.16241900622844696 0.013918000273406506
v 0.04433799907565117 -0.1616089940071106 0.01372199971228838
v 0.0432949997484684 -0.1608400046825409 0.011106000281870365
v 0.04467000067234039 -0.16258400678634644 0.01460499968379736
v 0.03970099985599518 -0.16348899900913239 0.01304600015282631
v 0.03911900147795677 -0.16322100162506104 0.012271000072360039
v 0.04071199893951416 -0.1624089926481247 0.013868999667465687
v 0.030532000586390495 -0.15492300689220428 0.001563000027090311
v 0.03384099900722504 -0.15666499733924866 0.0028119999915361404
v 0.035767000168561935 -0.15846599638462067 0.003674000035971403
v 0.031106999143958092 -0.15569999814033508 0.010559000074863434
v 0.02853900007903576 -0.1535169929265976 0.010444999672472477
v 0.0230919998139143 -0.1524520069360733 0.007670999970287085
v 0.03731999918818474 -0.16077400743961334 0.012071999721229076
v 0.023912999778985977 -0.14920000731945038 0.011133000254631042
v 0.03894700109958649 -0.16234800219535828 0.012404000386595726
v 0.03851500153541565 -0.16203400492668152 0.011988000012934208
v 0.03813999891281128 -0.159061998128891 0.006955999881029129
v 0.036063000559806824 -0.15785099565982819 0.003978000022470951
v 0.039535000920295715 -0.15993699431419373 0.010289999656379223
v 0.04307499900460243 -0.16161000728607178 0.014279000461101532
v 0.0418660007417202 -0.16057099401950836 0.01312899962067604
v 0.03879699856042862 -0.16003699600696564 0.011668999679386616
v 0.03883900120854378 -0.16161300241947174 0.012675000354647636
v 0.03853100165724754 -0.160739004611969 0.012164000421762466
v 0.023634999990463257 -0.15235300362110138 0.0011709999525919557
v 0.023801999166607857 -0.15081800520420074 -0.0008970000199042261
v 0.025431999936699867 -0.14984600245952606 -0.002355000004172325
v 0.03079799935221672 -0.1533759981393814 0.0009699999936856329
v 0.03417599946260452 -0.15582099556922913 0.00344299990683794
v 0.030494999140501022 -0.1509619951248169 0.0009919999865815043
v 0.028341000899672508 -0.15123000741004944 0.011021999642252922
v 0.03737099841237068 -0.15904000401496887 0.011474999599158764
v 0.031888000667095184 -0.15408000349998474 0.010901999659836292
v 0.02623100019991398 -0.14951199293136597 0.011366000398993492
v 0.021515000611543655 -0.1501139998435974 0.009128999896347523
v 0.020898999646306038 -0.1511480063199997 0.007389000151306391
v 0.01950100064277649 -0.15015199780464172 0.004908000119030476
v 0.020762000232934952 -0.15085899829864502 0.0023189999628812075
v 0.03828899934887886 -0.1616860032081604 0.012315000407397747
v 0.02002899907529354 -0.1486700028181076 0.008360999636352062
v 0.022513000294566154 -0.14752699434757233 0.01083299983292818
v 0.02049900032579899 -0.14922299981117249 0.008756999857723713
v 0.032304998487234116 -0.15365199744701385 0.0086899995803833
v 0.02288299985229969 -0.15000799298286438 -0.0009319999953731894
v 0.02474600076675415 -0.1484909951686859 -0.0028019999153912067
v 0.025964999571442604 -0.14880700409412384 -0.002739999908953905
v 0.02805499918758869 -0.15008099377155304 -0.001547000021673739
v 0.027286000549793243 -0.14882999658584595 -0.002423000056296587
v 0.030882999300956726 -0.1514669954776764 0.004581000190228224
v 0.02745000086724758 -0.1451990008354187 0.0024949999060481787
v 0.028937000781297684 -0.14702999591827393 0.00016900000628083944
v 0.028505999594926834 -0.14826500415802002 -0.0016880000475794077
v 0.02889000065624714 -0.15081200003623962 0.010762999765574932
v 0.026235999539494514 -0.14684100449085236 0.010665000416338444
v 0.023205000907182693 -0.1461610049009323 0.010324000380933285
v 0.020054999738931656 -0.14964500069618225 0.007938000373542309
v 0.01954999938607216 -0.14886699616909027 0.007557000033557415
v 0.019238999113440514 -0.14881600439548492 0.0066280001774430275
v 0.01912499964237213 -0.1495939940214157 0.0036009999457746744
v 0.018900999799370766 -0.14910100400447845 0.004689999856054783
v 0.019979000091552734 -0.15000499784946442 0.0023380001075565815
v 0.021875999867916107 -0.15000900626182556 0.00023499999952036887
v 0.022792000323534012 -0.14677099883556366 0.010366999544203281
v 0.021183999255299568 -0.14827199280261993 0.008191999979317188
v 0.023614000529050827 -0.1487479954957962 -0.0013899999903514981
v 0.023617999628186226 -0.14867399632930756 0.0010019999463111162
v 0.02535399980843067 -0.1476230025291443 -0.0024840000551193953
v 0.025679999962449074 -0.14813299477100372 -0.00292899995110929
v 0.02518099918961525 -0.14729300141334534 -0.002076999982818961
v 0.026460999622941017 -0.14778800308704376 -0.0026360000483691692
v 0.026858000084757805 -0.14830900728702545 -0.0026839999482035637
v 0.027482999488711357 -0.1468220055103302 -0.0017300000181421638
v 0.027372999116778374 -0.14627400040626526 0.00938700046390295
v 0.027970999479293823 -0.14568200707435608 0.00015700000221841037
v 0.02550400048494339 -0.1442430019378662 0.00622999994084239
v 0.026305999606847763 -0.14464600384235382 0.0005719999899156392
v 0.02566000074148178 -0.1438630074262619 0.004102000035345554
v 0.024089999496936798 -0.14494700729846954 0.009430999867618084
v 0.02472200058400631 -0.14615799486637115 0.007464999798685312
v 0.022595999762415886 -0.14922399818897247 0.005472999997437
v 0.02254899963736534 -0.14888300001621246 0.006564000155776739
v 0.02046399936079979 -0.14956800639629364 0.0025289999321103096
v 0.021252000704407692 -0.14961500465869904 0.0015030000358819962
v 0.022599000483751297 -0.1492139995098114 0.0011390000581741333
v 0.024582000449299812 -0.14765499532222748 0.005654000211507082
v 0.025290999561548233 -0.1467979997396469 0.00011000000085914508
v 0.024455999955534935 -0.14830000698566437 0.002584999892860651
v 0.025783000513911247 -0.145796000957489 -0.0014319999609142542
v 0.02501400001347065 -0.1443910002708435 0.008348999544978142
v 0.026249999180436134 -0.1454329937696457 -0.0007389999809674919
v 0.0248819999396801 -0.1448889970779419 0.0076430002227425575
v 0.025110999122262 -0.1445769965648651 0.005764999892562628
v 0.025592999532818794 -0.14635199308395386 0.0034749999176710844
v 0.02583800069987774 -0.14653900265693665 0.002618999918922782
v 0.025232000276446342 -0.14603400230407715 0.004182999953627586
v 0.02483700029551983 -0.14486299455165863 0.008484000340104103
v 0.02528199926018715 -0.14610899984836578 0.0063240001909434795
v 0.021612999960780144 -0.1496720016002655 0.00279600010253489
v 0.023161999881267548 -0.149058997631073 0.005332999862730503
v 0.02298000082373619 -0.1491200029850006 0.004172000102698803
v 0.0218339990824461 -0.1494709998369217 0.001832999987527728
v 0.024615999311208725 -0.14753900468349457 0.004337000194936991
v 0.02519099973142147 -0.1469929963350296 0.004738999996334314
v 0.024303000420331955 -0.14826799929141998 0.004765999969094992
v 0.025325000286102295 -0.14701999723911285 0.0038640000857412815
v 0.024449000135064125 -0.14820900559425354 0.0038530000019818544
v 0.02496900036931038 -0.14672799408435822 0.00418600020930171
v 0.024039000272750854 -0.1481429934501648 0.0042420001700520515
f 1 2 3
f 3 4 1
f 2 1 5
f 6 7 1
f 7 8 1
f 4 6 1
f 1 8 5
f 2 9 3
f 2 10 9
f 5 10 2
f 4 3 11
f 3 12 13
f 3 9 12
f 13 11 3
f 11 7 4
f 7 6 4
f 14 10 5
f 5 8 15
f 5 15 14
f 11 16 7
f 17 7 16
f 7 18 8
f 7 19 18
f 7 20 19
f 7 21 20
f 7 17 21
f 8 18 15
f 9 22 12
f 23 9 10
f 22 9 23
f 24 10 14
f 24 25 10
f 10 25 23
f 26 27 11
f 27 16 11
f 13 26 11
f 13 12 28
f 29 12 22
f 29 28 12
f 13 28 30
f 30 26 13
f 24 14 31
f 15 31 14
f 31 15 32
f 19 15 18
f 19 32 15
f 16 33 17
f 34 33 16
f 27 34 16
f 33 35 17
f 36 17 35
f 36 21 17
f 37 32 19
f 37 19 20
f 20 21 38
f 20 38 37
f 36 39 21
f 38 21 39
f 22 40 29
f 22 41 40
f 41 22 23
f 41 23 25
f 24 42 25
f 43 42 24
f 44 24 31
f 44 43 24
f 25 45 46
f 42 45 25
f 41 25 46
f 26 47 27
f 30 47 26
f 47 34 27
f 48 28 29
f 30 28 48
f 48 29 49
f 29 40 49
f 50 30 48
f 47 30 50
f 31 32 44
f 44 32 37
f 35 33 51
f 51 33 52
f 34 52 33
f 53 52 34
f 34 54 53
f 34 47 50
f 50 54 34
f 35 55 39
f 35 39 36
f 55 35 51
f 38 44 37
f 43 38 56
f 38 43 44
f 56 38 39
f 55 56 39
f 41 49 40
f 41 57 49
f 41 46 57
f 58 45 42
f 42 59 58
f 42 60 59
f 42 43 60
f 60 43 56
f 45 57 46
f 57 45 61
f 61 45 58
f 49 62 48
f 48 62 63
f 50 48 63
f 64 62 49
f 64 49 57
f 50 63 54
f 51 52 65
f 51 66 67
f 51 65 66
f 51 67 55
f 65 52 53
f 53 68 69
f 65 53 70
f 53 71 68
f 71 53 54
f 72 70 53
f 72 53 69
f 54 63 73
f 54 74 71
f 73 74 54
f 56 55 75
f 76 75 55
f 55 67 76
f 56 77 60
f 77 56 75
f 61 78 57
f 78 64 57
f 58 59 61
f 78 59 79
f 59 78 61
f 60 79 59
f 80 60 77
f 60 80 79
f 73 62 64
f 73 63 62
f 64 81 73
f 81 64 82
f 82 64 78
f 70 83 65
f 65 83 84
f 65 84 85
f 85 86 65
f 65 86 66
f 66 76 67
f 76 66 87
f 88 66 86
f 66 88 87
f 68 89 69
f 82 90 68
f 71 82 68
f 91 89 68
f 68 90 91
f 92 72 69
f 89 92 69
f 93 94 70
f 70 72 93
f 95 70 94
f 95 96 70
f 83 70 96
f 97 82 71
f 74 97 71
f 98 72 99
f 100 72 98
f 100 93 72
f 92 99 72
f 73 81 74
f 81 97 74
f 77 75 101
f 101 75 76
f 87 101 76
f 77 90 80
f 77 101 90
f 82 78 79
f 82 79 80
f 82 80 90
f 97 81 82
f 84 83 96
f 84 102 103
f 96 102 84
f 103 85 84
f 85 103 104
f 105 85 106
f 105 86 85
f 104 106 85
f 86 105 88
f 87 107 101
f 107 87 88
f 108 88 109
f 108 107 88
f 109 88 110
f 105 110 88
f 92 89 111
f 89 91 111
f 101 91 90
f 91 101 111
f 111 112 92
f 99 92 113
f 92 112 113
f 94 93 114
f 100 114 93
f 95 94 114
f 115 116 95
f 117 96 95
f 116 118 95
f 95 114 115
f 95 118 117
f 117 119 96
f 96 120 102
f 96 119 120
f 99 121 98
f 115 98 122
f 100 98 115
f 121 122 98
f 113 121 99
f 115 114 100
f 107 111 101
f 123 103 102
f 123 102 124
f 124 102 120
f 125 126 103
f 103 123 127
f 125 103 127
f 104 103 126
f 128 129 104
f 104 129 106
f 104 126 128
f 110 105 106
f 106 130 110
f 130 106 129
f 131 111 107
f 107 108 131
f 132 108 109
f 108 133 131
f 132 134 108
f 133 108 135
f 134 135 108
f 110 130 109
f 130 132 109
f 111 131 112
f 112 131 136
f 113 112 136
f 121 113 137
f 113 136 137
f 116 115 122
f 138 118 116
f 139 116 122
f 139 138 116
f 118 140 117
f 140 119 117
f 118 138 140
f 119 141 120
f 140 141 119
f 120 142 124
f 120 141 142
f 139 122 121
f 139 121 143
f 121 137 143
f 127 123 124
f 127 124 144
f 145 124 142
f 144 124 145
f 125 146 126
f 125 127 146
f 146 128 126
f 146 127 144
f 130 129 128
f 146 130 128
f 146 132 130
f 147 136 131
f 133 147 131
f 132 148 134
f 132 146 148
f 149 147 133
f 133 150 149
f 150 133 135
f 151 134 152
f 152 134 144
f 148 144 134
f 134 153 135
f 153 134 151
f 153 150 135
f 154 136 147
f 137 136 154
f 137 154 149
f 137 155 143
f 155 137 149
f 140 138 156
f 157 138 139
f 157 158 138
f 158 156 138
f 139 143 157
f 159 141 140
f 140 156 159
f 141 159 142
f 142 159 156
f 145 142 156
f 160 143 161
f 162 157 143
f 161 143 155
f 160 162 143
f 144 148 146
f 144 145 152
f 163 152 145
f 158 145 156
f 164 145 158
f 145 164 163
f 147 149 154
f 150 155 149
f 150 153 155
f 163 151 152
f 165 153 151
f 165 151 163
f 161 155 153
f 153 165 161
f 157 162 166
f 166 158 157
f 158 166 164
f 160 161 165
f 160 166 162
f 160 164 166
f 160 163 164
f 160 165 163
