# Generated by Visualization Toolkit
v 0.015985000878572464 -0.1417980045080185 0.0037539999466389418
v 0.017121000215411186 -0.14495299756526947 0.0004529999860096723
v 0.017779000103473663 -0.14572100341320038 0.00038899999344721437
v 0.01684500090777874 -0.14416299760341644 0.003942999988794327
v 0.015065999701619148 -0.14036299288272858 0.001724999980069697
v 0.017396999523043633 -0.1431570053100586 0.007393000181764364
v 0.016304999589920044 -0.1412229984998703 0.006029999814927578
v 0.01781800016760826 -0.1452530026435852 0.0050409999676048756
v 0.01358800008893013 -0.1383959949016571 0.0015160000184550881
v 0.007036000024527311 -0.12818099558353424 0.0030580000020563602
v 0.008507000282406807 -0.1286730021238327 0.005096999928355217
v 0.017952000722289085 -0.14567899703979492 -0.00040499999886378646
v 0.016429999843239784 -0.14336000382900238 -0.0005740000051446259
v 0.019801000133156776 -0.14666800200939178 -0.0005740000051446259
v 0.01948300004005432 -0.14688000082969666 0.0012130000395700336
v 0.015812000259757042 -0.1416649967432022 -0.0004400000034365803
v 0.018668999895453453 -0.1453319936990738 0.007706999778747559
v 0.016824999824166298 -0.14049899578094482 0.007457000203430653
v 0.018296999856829643 -0.13907699286937714 0.008740999735891819
v 0.020041000097990036 -0.14516699314117432 0.00880999956279993
v 0.016467999666929245 -0.13782599568367004 0.007459000218659639
v 0.019664999097585678 -0.14630399644374847 0.00405400013551116
v 0.02011599950492382 -0.1467290073633194 0.006645999848842621
v 0.0201990008354187 -0.14640699326992035 0.008055999875068665
v 0.012632000260055065 -0.13617800176143646 0.0004920000210404396
v 0.005501000210642815 -0.12559400498867035 0.0023849999997764826
v 0.0027360001113265753 -0.11951900273561478 0.0025470000691711903
v 0.0030300000216811895 -0.11312200129032135 0.006876999977976084
v -0.001184999942779541 -0.11064799875020981 0.005109000019729137
v 0.022022999823093414 -0.1462710052728653 -0.0010319999419152737
v 0.0168869998306036 -0.14050699770450592 -0.0017140000127255917
v 0.02261199988424778 -0.14648699760437012 0.000155999994603917
v 0.01654299907386303 -0.13878099620342255 -0.0015190000412985682
v 0.01785999909043312 -0.13854199647903442 0.008407000452280045
v 0.023295000195503235 -0.14375799894332886 0.009506000205874443
v 0.020065000280737877 -0.13853999972343445 0.009158000349998474
v 0.023447999730706215 -0.14180199801921844 0.00964600034058094
v 0.018585000187158585 -0.13755600154399872 0.008170000277459621
v 0.0212629996240139 -0.14626699686050415 0.008138000033795834
v 0.01823499985039234 -0.1369210034608841 0.007155000232160091
v 0.017791999503970146 -0.1375270038843155 0.0076350001618266106
v 0.02223300002515316 -0.14566099643707275 0.0038250000216066837
v 0.021314000710844994 -0.14653900265693665 0.007379999849945307
v 0.022515999153256416 -0.14615699648857117 0.007046999875456095
v 0.010180000215768814 -0.1241530030965805 -0.003108999924734235
v 0.004253999795764685 -0.11889000236988068 -0.002662000013515353
v 0.002816000021994114 -0.1193389967083931 -0.00009999999747378752
v -0.00016799999866634607 -0.1148110032081604 -0.001487000030465424
v -0.002363000065088272 -0.11106500029563904 0.0021909999195486307
v 0.007965999655425549 -0.11483299732208252 0.007327000144869089
v 0.004523999989032745 -0.11122000217437744 0.007528999820351601
v 0.002351999981328845 -0.1078139990568161 0.008617999963462353
v -0.0014909999445080757 -0.10638000071048737 0.007048000115901232
v -0.0027580000460147858 -0.10566200315952301 0.004102999810129404
v 0.022777000442147255 -0.14139199256896973 -0.002730000065639615
v 0.023020999506115913 -0.14481300115585327 -0.0016919999616220593
v 0.019481999799609184 -0.1386840045452118 -0.0025080000050365925
v 0.02414499968290329 -0.14425399899482727 -0.0008730000117793679
v 0.02426600083708763 -0.14400799572467804 0.0015369999455288053
v 0.023057999089360237 -0.14478600025177002 0.003759999992325902
v 0.018386000767350197 -0.13818399608135223 -0.002090000081807375
v 0.018564000725746155 -0.1376499980688095 -0.0009459999855607748
v 0.0231929998844862 -0.14516200125217438 0.00850099977105856
v 0.024375999346375465 -0.14182600378990173 0.008887000381946564
v 0.023924000561237335 -0.1442520022392273 0.008763999678194523
v 0.02010500058531761 -0.1372310072183609 0.00823500007390976
v 0.02371699921786785 -0.14052900671958923 0.008806999772787094
v 0.02097499929368496 -0.13764099776744843 0.005969000048935413
v 0.019345000386238098 -0.13687700033187866 0.005588000174611807
v 0.009496999904513359 -0.11520899832248688 0.004433999769389629
v 0.024397000670433044 -0.14410699903964996 0.006184999831020832
v 0.007571999914944172 -0.11758600175380707 -0.004486999940127134
v 0.011378999799489975 -0.1237960010766983 -0.0030410001054406166
v 0.008549000136554241 -0.11717899888753891 -0.004410000052303076
v 0.00455200020223856 -0.11303599923849106 -0.00660899979993701
v 0.00026500000967644155 -0.11471299827098846 -0.002979000099003315
v -0.00101500004529953 -0.11315499991178513 -0.001905999961309135
v -0.003140999935567379 -0.1063309982419014 -0.0010519999777898192
v 0.006756999995559454 -0.11063399910926819 0.007280000019818544
v 0.005816000048071146 -0.10621999949216843 0.008185000158846378
v 0.001474000047892332 -0.1019349992275238 0.00867099966853857
v -0.00015100000018719584 -0.10339300334453583 0.008390000090003014
v -0.00215000007301569 -0.10419800132513046 0.005810000002384186
v -0.0008280000183731318 -0.10193300247192383 0.007135000079870224
v 0.003198999911546707 -0.10225299745798111 -0.0008789999992586672
v 0.02438800036907196 -0.1419290006160736 -0.0015310000162571669
v 0.0232900008559227 -0.13950300216674805 -0.002022000029683113
v 0.020721999928355217 -0.13777799904346466 -0.001521000056527555
v 0.024695999920368195 -0.14201700687408447 0.0009399999980814755
v 0.024078000336885452 -0.14193099737167358 0.0036140000447630882
v 0.019345000386238098 -0.13714900612831116 0.0009410000056959689
v 0.024748999625444412 -0.14162999391555786 0.006144999992102385
v 0.023128999397158623 -0.13905100524425507 0.00622900016605854
v 0.023211000487208366 -0.13981199264526367 0.0034729999024420977
v 0.008568000048398972 -0.10694000124931335 0.00004400000034365803
v 0.008948000147938728 -0.11122000217437744 -0.004395999945700169
v 0.007926000282168388 -0.1153549998998642 -0.005005999933928251
v 0.002937000012025237 -0.10878700017929077 -0.009368999861180782
v -0.000019999999494757503 -0.10756699740886688 -0.008050999604165554
v 0.0001289999927394092 -0.11271999776363373 -0.003851999994367361
v -0.0012880000285804272 -0.11026299744844437 -0.0050760000012815
v -0.0008219999726861715 -0.1047390028834343 -0.0067900000140070915
v -0.0005540000274777412 -0.1032629981637001 -0.005843999795615673
v 0.007313000038266182 -0.10417599976062775 0.0068870000541210175
v 0.006039999891072512 -0.10187900066375732 0.00685499981045723
v 0.003944000229239464 -0.10157900303602219 0.008375000208616257
v 0.0007890000124461949 -0.10073799639940262 0.007548999972641468
v 0.0019030000548809767 -0.10043500363826752 0.0074880002066493034
v 0.0012359999818727374 -0.10220900177955627 -0.006899999920278788
v 0.0039079999551177025 -0.10096199810504913 -0.006541000213474035
v 0.005748999770730734 -0.10068999975919724 -0.003734000027179718
v 0.004526999779045582 -0.10114800184965134 -0.004219000227749348
v 0.001614999957382679 -0.10046099871397018 0.006453999783843756
v 0.0036059999838471413 -0.10026499629020691 0.004772999789565802
v 0.02368300035595894 -0.13970300555229187 0.0007510000141337514
v 0.007805999834090471 -0.10212799906730652 -0.005022999830543995
v 0.006972000002861023 -0.10544899851083755 -0.007903000339865685
v 0.0053530000150203705 -0.10691200196743011 -0.009019000455737114
v 0.002128999913111329 -0.10640600323677063 -0.009569000452756882
v 0.003918000031262636 -0.10727900266647339 -0.009424000047147274
v 0.002391000045463443 -0.1022149994969368 -0.008005999960005283
v 0.004453999921679497 -0.100552998483181 0.005892000161111355
v 0.004834999796003103 -0.10048700124025345 0.0027699999045580626
v 0.00291600008495152 -0.10029900074005127 0.0072280000895261765
v 0.002701000077649951 -0.10025999695062637 0.006688000168651342
v 0.003406000090762973 -0.10116399824619293 -0.007453999947756529
v 0.005745999980717897 -0.10080599784851074 -0.004993000067770481
v 0.004284000024199486 -0.10092099756002426 -0.006926999893039465
v 0.006000000052154064 -0.10227199643850327 -0.00803999975323677
v 0.005481999833136797 -0.10142800211906433 -0.0072119999676942825
v 0.004974000155925751 -0.10245700180530548 -0.008733999915421009
v 0.00394799979403615 -0.10280299931764603 -0.009025000035762787
v 0.0046179997734725475 -0.10152000188827515 -0.007946999743580818
f 1 2 3
f 4 1 3
f 2 1 5
f 6 7 1
f 8 1 4
f 9 5 1
f 10 9 1
f 11 10 1
f 1 7 11
f 6 1 8
f 2 12 3
f 13 12 2
f 2 5 13
f 3 14 15
f 3 12 14
f 3 8 4
f 8 3 15
f 5 16 13
f 16 5 9
f 8 17 6
f 6 18 7
f 19 18 6
f 6 20 19
f 6 17 20
f 11 7 21
f 7 18 21
f 15 22 8
f 22 23 8
f 8 23 24
f 24 17 8
f 25 9 10
f 9 25 16
f 26 25 10
f 11 26 10
f 11 27 26
f 11 21 28
f 27 11 29
f 29 11 28
f 30 12 13
f 30 14 12
f 30 13 31
f 31 13 16
f 15 14 32
f 14 30 32
f 32 22 15
f 33 31 16
f 33 16 25
f 17 24 20
f 18 19 21
f 19 34 21
f 19 20 35
f 36 19 37
f 19 35 37
f 36 38 19
f 34 19 38
f 24 39 20
f 39 35 20
f 21 40 28
f 21 41 40
f 21 34 41
f 22 32 42
f 23 22 42
f 23 43 24
f 44 23 42
f 44 43 23
f 24 43 39
f 25 45 33
f 45 25 26
f 45 26 46
f 46 26 47
f 47 26 27
f 48 47 27
f 27 49 48
f 29 49 27
f 50 51 28
f 52 29 28
f 51 52 28
f 28 40 50
f 52 53 29
f 49 29 54
f 54 29 53
f 30 55 56
f 55 30 57
f 30 31 57
f 32 30 56
f 33 57 31
f 58 59 32
f 60 32 59
f 60 42 32
f 32 56 58
f 33 61 57
f 62 33 45
f 33 62 61
f 34 38 41
f 35 39 63
f 35 64 37
f 64 35 65
f 35 63 65
f 37 66 36
f 36 66 38
f 64 67 37
f 67 66 37
f 38 66 40
f 41 38 40
f 43 63 39
f 40 68 69
f 40 69 70
f 40 70 50
f 66 68 40
f 60 71 42
f 44 42 71
f 63 43 44
f 44 71 65
f 63 44 65
f 45 46 72
f 45 73 62
f 45 74 73
f 45 72 74
f 46 75 72
f 46 76 75
f 46 47 48
f 76 46 48
f 76 48 77
f 77 48 49
f 77 49 78
f 54 78 49
f 51 50 79
f 50 70 79
f 51 79 80
f 52 51 80
f 52 80 81
f 82 53 52
f 82 52 81
f 53 83 54
f 84 53 82
f 84 83 53
f 85 78 54
f 85 54 83
f 56 55 86
f 87 55 57
f 87 86 55
f 56 86 58
f 57 61 88
f 57 88 87
f 58 89 59
f 89 58 86
f 90 59 89
f 59 90 60
f 71 60 90
f 88 61 62
f 91 88 62
f 73 91 62
f 64 65 92
f 92 67 64
f 92 65 71
f 66 93 68
f 93 66 67
f 92 93 67
f 94 69 68
f 93 94 68
f 94 88 69
f 69 88 91
f 69 91 70
f 95 79 70
f 96 95 70
f 73 96 70
f 70 91 73
f 92 71 90
f 72 75 97
f 72 97 74
f 96 73 74
f 74 97 96
f 98 75 99
f 76 100 75
f 100 101 75
f 98 97 75
f 101 99 75
f 77 100 76
f 77 101 100
f 77 78 101
f 102 101 78
f 85 103 78
f 102 78 103
f 104 80 79
f 104 79 95
f 80 105 106
f 105 80 104
f 81 80 106
f 82 81 107
f 108 107 81
f 106 108 81
f 107 84 82
f 85 83 84
f 85 84 107
f 109 85 110
f 85 111 112
f 85 109 103
f 85 113 114
f 85 107 113
f 112 110 85
f 114 111 85
f 86 115 89
f 115 86 87
f 115 87 88
f 88 94 115
f 90 89 94
f 89 115 94
f 94 92 90
f 92 94 93
f 95 116 104
f 96 116 95
f 117 116 96
f 118 117 96
f 96 97 118
f 98 118 97
f 119 98 99
f 118 98 120
f 120 98 119
f 99 101 102
f 119 99 102
f 121 102 103
f 121 119 102
f 103 109 121
f 116 105 104
f 122 106 105
f 122 105 123
f 123 105 111
f 116 111 105
f 108 106 124
f 106 122 124
f 125 107 108
f 125 113 107
f 125 108 124
f 126 109 110
f 121 109 126
f 127 110 112
f 110 128 126
f 110 127 128
f 127 112 111
f 123 111 114
f 116 127 111
f 125 114 113
f 114 122 123
f 114 125 122
f 116 117 129
f 130 116 129
f 116 130 127
f 118 129 117
f 129 118 131
f 120 132 118
f 131 118 132
f 119 121 132
f 132 120 119
f 126 132 121
f 125 124 122
f 126 133 132
f 133 126 128
f 130 128 127
f 130 133 128
f 129 133 130
f 133 129 131
f 132 133 131
