# Generated by Visualization Toolkit
v 0.05899300053715706 -0.17026400566101074 0.009820000268518925
v 0.060256000608205795 -0.1702529937028885 0.01005799975246191
v 0.061452001333236694 -0.17077100276947021 0.012174000032246113
v 0.057861000299453735 -0.17077699303627014 0.012484000064432621
v 0.058681000024080276 -0.16942599415779114 0.009074999950826168
v 0.05709100142121315 -0.1702290028333664 0.010258999653160572
v 0.06159200146794319 -0.17076900601387024 0.010243000462651253
v 0.0606129989027977 -0.17005500197410583 0.0087890001013875
v 0.062247999012470245 -0.17090199887752533 0.011753999628126621
v 0.058003999292850494 -0.17059199512004852 0.013044999912381172
v 0.06241400167346001 -0.17059700191020966 0.013365999795496464
v 0.051141999661922455 -0.1693509966135025 0.010324999690055847
v 0.056758999824523926 -0.1702679991722107 0.012984000146389008
v 0.05449499934911728 -0.16976499557495117 0.012684999965131283
v 0.057645998895168304 -0.16843099892139435 0.007842999882996082
v 0.05714799836277962 -0.16863200068473816 0.008724000304937363
v 0.05676800012588501 -0.16830700635910034 0.008340000174939632
v 0.053677998483181 -0.16829100251197815 0.00810800027102232
v 0.05575399845838547 -0.16851499676704407 0.008471000008285046
v 0.06336700171232224 -0.17038600146770477 0.011962000280618668
v 0.062950000166893 -0.1701039969921112 0.01015899982303381
v 0.062077999114990234 -0.1701200008392334 0.009631999768316746
v 0.0598829984664917 -0.1685599982738495 0.007644999772310257
v 0.06194499880075455 -0.16947700083255768 0.00880299974232912
v 0.061802998185157776 -0.16982899606227875 0.009246000088751316
v 0.05776999890804291 -0.16783100366592407 0.0074339997954666615
v 0.061868999153375626 -0.17038099467754364 0.014310999773442745
v 0.06083099916577339 -0.16996300220489502 0.01497699972242117
v 0.05902799963951111 -0.1694979965686798 0.015193000435829163
v 0.05695800110697746 -0.1689939945936203 0.014266000129282475
v 0.06266099959611893 -0.17027199268341064 0.013931999914348125
v 0.06316500157117844 -0.17036199569702148 0.01296900026500225
v 0.04991000145673752 -0.1680939942598343 0.006320000160485506
v 0.04707000032067299 -0.16872699558734894 0.008464000187814236
v 0.05098700150847435 -0.16924400627613068 0.012005000375211239
v 0.056464001536369324 -0.16863100230693817 0.014217999763786793
v 0.055247001349925995 -0.169172003865242 0.013774000108242035
v 0.056033000349998474 -0.16899000108242035 0.014001999981701374
v 0.05291400104761124 -0.1684499979019165 0.014275999739766121
v 0.05725099891424179 -0.16773200035095215 0.007586999796330929
v 0.05682399868965149 -0.16776999831199646 0.007846999913454056
v 0.05655299872159958 -0.16791799664497375 0.008899999782443047
v 0.05050399899482727 -0.16740800440311432 0.006006999872624874
v 0.05176100134849548 -0.16718000173568726 0.006767000071704388
v 0.05390600115060806 -0.167153000831604 0.008830999955534935
v 0.05589799955487251 -0.16790400445461273 0.009196000173687935
v 0.06306400150060654 -0.1698250025510788 0.012450999580323696
v 0.0626479983329773 -0.16990800201892853 0.00964100006967783
v 0.0615679994225502 -0.1686519980430603 0.008880999870598316
v 0.059101998805999756 -0.16790999472141266 0.007734999991953373
v 0.059783998876810074 -0.16791200637817383 0.008186999708414078
v 0.05811399966478348 -0.16735200583934784 0.007987000048160553
v 0.057367999106645584 -0.1672399938106537 0.007925000041723251
v 0.06128700077533722 -0.1697929948568344 0.015204999595880508
v 0.06173599883913994 -0.16934700310230255 0.0143630001693964
v 0.06137099862098694 -0.16928599774837494 0.015053999610245228
v 0.05987799912691116 -0.169063001871109 0.01576700061559677
v 0.056373000144958496 -0.16833999752998352 0.015052000060677528
v 0.058490000665187836 -0.16858099400997162 0.015789000317454338
v 0.04960000142455101 -0.1677899956703186 0.005568999797105789
v 0.05001499876379967 -0.16721099615097046 0.005541999824345112
v 0.04807300120592117 -0.1685599982738495 0.005526999942958355
v 0.047589998692274094 -0.16881999373435974 0.006304999813437462
v 0.04613799974322319 -0.16872799396514893 0.0073449998162686825
v 0.04466500133275986 -0.1684039980173111 0.00979399960488081
v 0.051017001271247864 -0.1686059981584549 0.013538000173866749
v 0.04881900176405907 -0.1682409942150116 0.013679999858140945
v 0.04483800008893013 -0.16838400065898895 0.012032000347971916
v 0.04575299844145775 -0.16797800362110138 0.0136329997330904
v 0.05594300106167793 -0.1680230051279068 0.014570999890565872
v 0.05581099912524223 -0.16835300624370575 0.014210999943315983
v 0.055084001272916794 -0.16860100626945496 0.014124000445008278
v 0.050411999225616455 -0.16737399995326996 0.014340999536216259
v 0.054712001234292984 -0.1681949943304062 0.01398400031030178
v 0.05315300077199936 -0.16772599518299103 0.014193999581038952
v 0.05694099888205528 -0.1676730066537857 0.009615999646484852
v 0.04910700023174286 -0.16489100456237793 0.00495600001886487
v 0.04956600069999695 -0.16356100142002106 0.008379999548196793
v 0.054308000952005386 -0.167385995388031 0.01285600010305643
v 0.0486610010266304 -0.16368399560451508 0.006378000136464834
v 0.05617399886250496 -0.16757400333881378 0.011532999575138092
v 0.060006000101566315 -0.1685509979724884 0.015591000206768513
v 0.058476999402046204 -0.1676969975233078 0.01191799994558096
v 0.05575300008058548 -0.16803400218486786 0.015189000405371189
v 0.05704300105571747 -0.16808199882507324 0.015604999847710133
v 0.04791700094938278 -0.16727599501609802 0.004267999902367592
v 0.048271000385284424 -0.16575300693511963 0.004116999916732311
v 0.04699600115418434 -0.16813300549983978 0.005247999913990498
v 0.04766499996185303 -0.16785399615764618 0.004639000166207552
v 0.04641500115394592 -0.1683720052242279 0.00636299978941679
v 0.04506799951195717 -0.16844099760055542 0.008702999912202358
v 0.04559699818491936 -0.16841499507427216 0.007596000097692013
v 0.04681200161576271 -0.16677699983119965 0.010173999704420567
v 0.045086998492479324 -0.16810299456119537 0.011626999825239182
v 0.04597700014710426 -0.16729700565338135 0.013213999569416046
v 0.04742899909615517 -0.16627199947834015 0.015530000440776348
v 0.04600000008940697 -0.16708800196647644 0.014897000044584274
v 0.045935001224279404 -0.16756799817085266 0.014353999868035316
v 0.045823998749256134 -0.16741999983787537 0.013736000284552574
v 0.05644499883055687 -0.16739599406719208 0.015104999765753746
v 0.05534899979829788 -0.16801400482654572 0.01372000016272068
v 0.05648300051689148 -0.16779400408267975 0.013767999596893787
v 0.052319999784231186 -0.1666090041399002 0.01420500036329031
v 0.051336999982595444 -0.166020005941391 0.014395000413060188
v 0.05419100075960159 -0.16771200299263 0.013593999668955803
v 0.04863300174474716 -0.16470099985599518 0.004856000188738108
v 0.04910600185394287 -0.16334199905395508 0.014058000408113003
v 0.04892199859023094 -0.16328899562358856 0.00922400038689375
v 0.04902099817991257 -0.16325999796390533 0.008369999937713146
v 0.047630999237298965 -0.16381800174713135 0.0062049999833106995
v 0.04755600169301033 -0.16626399755477905 0.004240000154823065
v 0.04730699956417084 -0.1669439971446991 0.004288999829441309
v 0.0474650003015995 -0.16538099944591522 0.004569999873638153
v 0.04687799885869026 -0.1672939956188202 0.004896000027656555
v 0.04734800010919571 -0.16628000140190125 0.008652999997138977
v 0.04714199900627136 -0.16637399792671204 0.010753000155091286
v 0.04732099920511246 -0.16557499766349792 0.01016400009393692
v 0.04613199830055237 -0.16695399582386017 0.013628999702632427
v 0.045566000044345856 -0.1655150055885315 0.015386000275611877
v 0.046925999224185944 -0.16539700329303741 0.01571499928832054
v 0.04879000037908554 -0.16486799716949463 0.015405000187456608
v 0.0460209995508194 -0.16701699793338776 0.014255000278353691
v 0.045715998858213425 -0.16498799622058868 0.01487400010228157
v 0.048966001719236374 -0.16418899595737457 0.015123999677598476
v 0.0474729984998703 -0.16479000449180603 0.005028000101447105
v 0.04830799996852875 -0.16391000151634216 0.015169999562203884
v 0.04737100005149841 -0.16305500268936157 0.013748000375926495
v 0.04724400117993355 -0.16307300329208374 0.010900000110268593
v 0.04737100005149841 -0.16321200132369995 0.010001000016927719
v 0.04709500074386597 -0.16349400579929352 0.008768999949097633
v 0.047690000385046005 -0.1646990031003952 0.007953999564051628
v 0.04765100032091141 -0.1646140068769455 0.009046000428497791
v 0.04758000001311302 -0.16504399478435516 0.0096859997138381
v 0.04715200141072273 -0.1653680056333542 0.012365000322461128
v 0.0472479984164238 -0.16418400406837463 0.009995000436902046
v 0.047547001391649246 -0.16500599682331085 0.010828999802470207
v 0.045820001512765884 -0.16449399292469025 0.015181999653577805
v 0.04634200036525726 -0.1637129932641983 0.01368900015950203
v 0.04744499921798706 -0.1646289974451065 0.011784999631345272
v 0.04632499814033508 -0.16404299437999725 0.014986000023782253
v 0.046925000846385956 -0.1633410006761551 0.014240999706089497
v 0.04696200042963028 -0.16350600123405457 0.010081999935209751
f 1 2 3
f 1 3 4
f 1 5 2
f 6 1 4
f 6 5 1
f 3 2 7
f 2 5 8
f 2 8 7
f 3 7 9
f 3 10 4
f 3 11 10
f 11 3 9
f 6 4 12
f 4 10 13
f 4 13 14
f 12 4 14
f 8 5 15
f 16 5 6
f 5 17 15
f 5 16 17
f 18 6 12
f 19 6 18
f 6 17 16
f 6 19 17
f 9 7 20
f 20 7 21
f 7 8 22
f 7 22 21
f 8 23 24
f 25 8 24
f 23 8 26
f 26 8 15
f 22 8 25
f 9 20 11
f 10 27 28
f 10 28 29
f 30 10 29
f 30 13 10
f 10 11 27
f 31 11 32
f 27 11 31
f 32 11 20
f 33 18 12
f 34 33 12
f 12 14 35
f 34 12 35
f 36 13 30
f 37 14 13
f 13 36 38
f 13 38 37
f 39 35 14
f 14 37 39
f 15 40 26
f 15 41 40
f 17 41 15
f 17 40 41
f 40 17 42
f 19 42 17
f 18 33 43
f 18 43 44
f 45 18 44
f 19 18 45
f 46 19 45
f 19 46 42
f 47 20 21
f 47 32 20
f 21 22 48
f 49 47 21
f 49 21 48
f 48 22 25
f 49 24 23
f 23 26 50
f 51 49 23
f 50 51 23
f 48 25 24
f 48 24 49
f 50 26 52
f 40 53 26
f 52 26 53
f 27 54 28
f 31 55 27
f 55 56 27
f 27 56 54
f 28 54 57
f 28 57 29
f 29 58 30
f 57 59 29
f 59 58 29
f 36 30 58
f 47 31 32
f 31 47 55
f 33 60 61
f 62 60 33
f 61 43 33
f 63 62 33
f 34 63 33
f 63 34 64
f 34 35 65
f 64 34 65
f 35 39 66
f 35 66 67
f 35 68 65
f 35 69 68
f 35 67 69
f 70 71 36
f 36 58 70
f 38 36 71
f 72 37 38
f 72 39 37
f 72 38 71
f 73 66 39
f 74 39 72
f 75 73 39
f 74 75 39
f 53 40 42
f 53 42 76
f 46 76 42
f 61 44 43
f 45 44 77
f 77 44 61
f 45 78 79
f 80 45 77
f 80 78 45
f 45 81 46
f 45 79 81
f 76 46 81
f 55 47 49
f 82 55 49
f 49 51 83
f 82 49 83
f 52 51 50
f 83 51 52
f 83 52 53
f 53 76 83
f 54 82 57
f 82 54 56
f 55 82 56
f 82 59 57
f 84 58 85
f 59 85 58
f 70 58 84
f 85 59 82
f 61 60 86
f 86 60 62
f 61 86 87
f 61 87 77
f 62 88 89
f 88 62 63
f 62 89 86
f 90 63 64
f 90 88 63
f 65 91 64
f 64 92 90
f 91 92 64
f 65 93 91
f 65 68 94
f 95 65 94
f 65 95 93
f 73 67 66
f 96 97 67
f 67 98 69
f 67 97 98
f 96 67 73
f 68 69 94
f 95 94 69
f 99 95 69
f 98 99 69
f 100 71 70
f 70 84 100
f 71 101 72
f 101 71 102
f 100 102 71
f 74 72 101
f 73 75 103
f 104 96 73
f 103 104 73
f 105 75 74
f 101 105 74
f 75 105 103
f 81 83 76
f 106 80 77
f 87 106 77
f 79 78 107
f 108 107 78
f 109 108 78
f 80 109 78
f 79 103 105
f 79 104 103
f 104 79 107
f 81 79 105
f 110 109 80
f 80 106 110
f 83 81 102
f 101 102 81
f 105 101 81
f 82 83 85
f 83 100 85
f 102 100 83
f 85 100 84
f 111 87 86
f 86 112 111
f 112 86 89
f 113 87 111
f 87 113 106
f 114 89 88
f 88 90 114
f 114 112 89
f 115 114 90
f 115 90 92
f 115 92 91
f 91 93 115
f 95 116 93
f 117 115 93
f 117 93 116
f 118 95 99
f 95 118 116
f 96 119 97
f 120 119 96
f 96 104 121
f 120 96 121
f 98 97 122
f 123 122 97
f 123 97 119
f 99 98 122
f 99 122 118
f 121 104 124
f 104 107 124
f 106 125 110
f 106 113 125
f 124 107 126
f 127 126 107
f 107 128 127
f 128 107 108
f 109 129 108
f 128 108 129
f 130 109 110
f 129 109 130
f 113 110 125
f 131 110 113
f 130 110 131
f 112 113 111
f 112 114 113
f 113 114 131
f 115 131 114
f 132 115 133
f 115 132 131
f 117 133 115
f 118 134 116
f 134 117 116
f 117 135 133
f 136 135 117
f 117 134 136
f 123 118 122
f 118 123 134
f 119 137 123
f 119 120 137
f 120 121 126
f 120 126 137
f 126 121 124
f 137 138 123
f 123 138 139
f 134 123 139
f 140 137 126
f 126 141 140
f 127 141 126
f 141 127 137
f 137 127 138
f 138 127 128
f 128 142 138
f 129 142 128
f 129 130 142
f 131 132 130
f 130 132 135
f 130 135 142
f 133 135 132
f 134 139 136
f 139 142 135
f 136 139 135
f 137 140 141
f 138 142 139
