# Generated by Visualization Toolkit
v 0.0845009982585907 0.02295600064098835 0.03599200025200844
v 0.08278399705886841 0.023010000586509705 0.03627400100231171
v 0.0834909975528717 0.02505600079894066 0.036851998418569565
v 0.08620700240135193 0.026402000337839127 0.03532100096344948
v 0.08531200140714645 0.020824000239372253 0.03494099900126457
v 0.08363399654626846 0.021105000749230385 0.03541899845004082
v 0.08128099888563156 0.021932000294327736 0.036706000566482544
v 0.08164999634027481 0.02165300026535988 0.036173999309539795
v 0.08260300010442734 0.02011300064623356 0.03508700057864189
v 0.08168599754571915 0.02011599950492382 0.03510800004005432
v 0.08085200190544128 0.023329000920057297 0.03700700029730797
v 0.07944899797439575 0.028240999206900597 0.037004999816417694
v 0.08350399881601334 0.0267379991710186 0.036559998989105225
v 0.08798299729824066 0.03138799965381622 0.03133000060915947
v 0.08883500099182129 0.030848000198602676 0.031000999733805656
v 0.08672100305557251 0.0322830006480217 0.03210499882698059
v 0.08727599680423737 0.03183700144290924 0.03171699866652489
v 0.09127800166606903 0.028852000832557678 0.026910999789834023
v 0.0865819975733757 0.021784000098705292 0.033976998180150986
v 0.08364199846982956 0.028181999921798706 0.036107998341321945
v 0.08503899723291397 0.030981000512838364 0.034212999045848846
v 0.08482299745082855 0.029366999864578247 0.03503600135445595
v 0.08511800318956375 0.02048099972307682 0.03282900154590607
v 0.08424100279808044 0.019387999549508095 0.03360600024461746
v 0.0841199979186058 0.019794000312685966 0.0347680002450943
v 0.08128300309181213 0.02041799947619438 0.035652000457048416
v 0.08010999858379364 0.02069699950516224 0.035989999771118164
v 0.08013000339269638 0.02267099916934967 0.03666900098323822
v 0.0807029977440834 0.01978899911046028 0.035291001200675964
v 0.08222000300884247 0.017812000587582588 0.03319999948143959
v 0.0767349973320961 0.02595899999141693 0.03650100156664848
v 0.07563400268554688 0.02984200045466423 0.03519099950790405
v 0.07795400172472 0.030949000269174576 0.035711001604795456
v 0.07871600240468979 0.02295600064098835 0.03699899837374687
v 0.08848699927330017 0.032951001077890396 0.029596999287605286
v 0.08933000266551971 0.03242800012230873 0.029298000037670135
v 0.09023699909448624 0.03136900067329407 0.028913000598549843
v 0.09014099836349487 0.03185499832034111 0.02900099940598011
v 0.08734899759292603 0.033959001302719116 0.030141999945044518
v 0.08798500150442123 0.03340199962258339 0.029934000223875046
v 0.08482400327920914 0.020287999883294106 0.02472200058400631
v 0.09079200029373169 0.031286001205444336 0.026611000299453735
v 0.09116800129413605 0.031366001814603806 0.024508999660611153
v 0.09071200340986252 0.028140999376773834 0.022084999829530716
v 0.0859529972076416 0.03591100126504898 0.027884000912308693
v 0.08347299695014954 0.01897599920630455 0.029154999181628227
v 0.08385100215673447 0.019202999770641327 0.03145499899983406
v 0.08371400088071823 0.019262000918388367 0.02751000039279461
v 0.07992800325155258 0.020215999335050583 0.03567799925804138
v 0.07946199923753738 0.02181899920105934 0.036538999527692795
v 0.08113999664783478 0.01734899915754795 0.031957998871803284
v 0.07918400317430496 0.019039999693632126 0.03400300070643425
v 0.0812859982252121 0.01714400015771389 0.029621999710798264
v 0.0786060020327568 0.02201100066304207 0.03629999980330467
v 0.07532799988985062 0.0288309995085001 0.03466099873185158
v 0.07785800099372864 0.02245499938726425 0.03550399839878082
v 0.07667499780654907 0.024947000667452812 0.03543800115585327
v 0.0761910006403923 0.026095999404788017 0.03540100157260895
v 0.07621199637651443 0.0314750000834465 0.03296399861574173
v 0.07522699981927872 0.03053699992597103 0.033608000725507736
v 0.07498200237751007 0.029652999714016914 0.03321399912238121
v 0.0751190036535263 0.029397999867796898 0.03396400064229965
v 0.08430200070142746 0.037783000618219376 0.02553199976682663
v 0.0789719969034195 0.034205999225378036 0.029802000150084496
v 0.07725200057029724 0.03241200000047684 0.032134998589754105
v 0.09011299908161163 0.03340400010347366 0.02758299931883812
v 0.08994200080633163 0.03482099995017052 0.026141999289393425
v 0.08905500173568726 0.03524300083518028 0.025812000036239624
v 0.09056299924850464 0.031950000673532486 0.027298999950289726
v 0.08832500129938126 0.03551900014281273 0.025536999106407166
v 0.08745899796485901 0.035096000880002975 0.027504999190568924
v 0.08284900337457657 0.018547000363469124 0.023979999125003815
v 0.08409599959850311 0.019682999700307846 0.025861000642180443
v 0.08149400353431702 0.021462999284267426 0.014654000289738178
v 0.09047900140285492 0.032311998307704926 0.022856999188661575
v 0.09074299782514572 0.0314829982817173 0.022254999727010727
v 0.08535200357437134 0.031039999797940254 0.009839000180363655
v 0.08387699723243713 0.02848299965262413 0.008617999963462353
v 0.0836540013551712 0.024706000462174416 0.01145000010728836
v 0.08967000246047974 0.03199300169944763 0.017830999568104744
v 0.08671300113201141 0.03327000141143799 0.01143100019544363
v 0.08247800171375275 0.018118999898433685 0.025793999433517456
v 0.07914900034666061 0.02046399936079979 0.03553200140595436
v 0.08048699796199799 0.017486000433564186 0.03003299981355667
v 0.07856199890375137 0.02013299986720085 0.03445599973201752
v 0.07853099703788757 0.02107900008559227 0.03547399863600731
v 0.07800000160932541 0.020563999190926552 0.03290000185370445
v 0.07845599949359894 0.01996999979019165 0.031300000846385956
v 0.07891000062227249 0.019070999696850777 0.026386000216007233
v 0.08019199967384338 0.018207000568509102 0.028988000005483627
v 0.0810139998793602 0.018404999747872353 0.025913000106811523
v 0.07949600368738174 0.01904899999499321 0.02537599951028824
v 0.07572799921035767 0.027031000703573227 0.03476100042462349
v 0.07521899789571762 0.024261999875307083 0.027984000742435455
v 0.07719100266695023 0.023027999326586723 0.03390499949455261
v 0.07695599645376205 0.024157999083399773 0.03402800112962723
v 0.0764089971780777 0.0316459983587265 0.03193100169301033
v 0.0775810033082962 0.028919000178575516 0.02097499929368496
v 0.08679000288248062 0.03742700070142746 0.019648000597953796
v 0.0881349965929985 0.035801999270915985 0.02399500086903572
v 0.08018399775028229 0.039250001311302185 0.019231000915169716
v 0.08028499782085419 0.03878000006079674 0.02098900079727173
v 0.0794219970703125 0.03645399957895279 0.025702999904751778
v 0.07841800153255463 0.033918000757694244 0.028548000380396843
v 0.07796800136566162 0.03325600177049637 0.030717000365257263
v 0.07720799744129181 0.03246600180864334 0.03139699995517731
v 0.08933199942111969 0.03342499956488609 0.02218100056052208
v 0.08893200010061264 0.03548499941825867 0.024555999785661697
v 0.0807500034570694 0.01936200074851513 0.01959099993109703
v 0.07795900106430054 0.01830900087952614 0.014479000121355057
v 0.07782399654388428 0.020831000059843063 0.010848999954760075
v 0.07802499830722809 0.01940999925136566 0.013074000366032124
v 0.0779310017824173 0.02015100046992302 0.012186000123620033
v 0.08972399681806564 0.03260999917984009 0.021067000925540924
v 0.0852700024843216 0.03283499926328659 0.008914999663829803
v 0.07778800278902054 0.02827800065279007 0.005373000167310238
v 0.07622399926185608 0.02617499977350235 0.005497000180184841
v 0.07673700153827667 0.024460000917315483 0.007009999826550484
v 0.07731600105762482 0.02285500057041645 0.00861200038343668
v 0.0814250037074089 0.03195999935269356 0.005625999998301268
v 0.07948800176382065 0.03029800020158291 0.0053519997745752335
v 0.08352600038051605 0.03300200030207634 0.006328999996185303
v 0.07812199741601944 0.02195199951529503 0.010001000016927719
v 0.0875839963555336 0.034745000302791595 0.016321999952197075
v 0.08696900308132172 0.034984998404979706 0.01420500036329031
v 0.08769600093364716 0.03354400023818016 0.013683999888598919
v 0.0872649997472763 0.03440399840474129 0.013430999591946602
v 0.08818899840116501 0.03429599851369858 0.019657999277114868
v 0.08645699918270111 0.03417300060391426 0.011281000450253487
v 0.07819800078868866 0.020925000309944153 0.029044000431895256
v 0.07821500301361084 0.020766999572515488 0.03032599948346615
v 0.07775700092315674 0.018862999975681305 0.024136999621987343
v 0.07743100076913834 0.02057100087404251 0.02631399966776371
v 0.07765699923038483 0.01812100037932396 0.021712999790906906
v 0.07854899764060974 0.0178849995136261 0.02142000012099743
v 0.07728199660778046 0.022267000749707222 0.02938999980688095
v 0.07542199641466141 0.02263600006699562 0.027281999588012695
v 0.07501400262117386 0.02213199995458126 0.025477999821305275
v 0.073853999376297 0.023017000406980515 0.021243000403046608
v 0.07934200018644333 0.03618700057268143 0.02298099920153618
v 0.07904600352048874 0.03539400175213814 0.02485099993646145
v 0.07979899644851685 0.03783100098371506 0.021084999665617943
v 0.07869700342416763 0.034511998295784 0.026335999369621277
v 0.07832299917936325 0.033642999827861786 0.027744000777602196
v 0.07969799637794495 0.03830600157380104 0.01948999986052513
v 0.07946400344371796 0.03862300142645836 0.01797099970281124
v 0.07532499730587006 0.035677000880241394 0.010869000107049942
v 0.0773169994354248 0.037668000906705856 0.013043999671936035
v 0.07188700139522552 0.03028400056064129 0.009971999563276768
v 0.08708000183105469 0.036979999393224716 0.018933000043034554
v 0.08209399878978729 0.03923499956727028 0.015999000519514084
v 0.08099199831485748 0.039487000554800034 0.016673000529408455
v 0.0799110010266304 0.03958100080490112 0.01746699959039688
v 0.07787799835205078 0.033257998526096344 0.03000899963080883
v 0.0887949988245964 0.03377699851989746 0.020934000611305237
v 0.07806699723005295 0.017335999757051468 0.016462000086903572
v 0.07878100126981735 0.017743999138474464 0.019533000886440277
v 0.07814300060272217 0.017253000289201736 0.018207000568509102
v 0.07467100024223328 0.020759999752044678 0.007892999798059464
v 0.07713499665260315 0.017992999404668808 0.013895999640226364
v 0.08501800149679184 0.03376400098204613 0.008740000426769257
v 0.07603999972343445 0.027813000604510307 0.004707000218331814
v 0.07538200169801712 0.023854000493884087 0.006053999997675419
v 0.07475200295448303 0.027481000870466232 0.003959000110626221
v 0.07370100170373917 0.025617999956011772 0.004013000056147575
v 0.07420500367879868 0.023538999259471893 0.005359000060707331
v 0.08307600021362305 0.03348600119352341 0.006068000104278326
v 0.07878199964761734 0.03097599931061268 0.005177000071853399
v 0.07923799753189087 0.030741000548005104 0.0052269999869167805
v 0.08683999627828598 0.03573400154709816 0.01669600047171116
v 0.08536600321531296 0.03626000136137009 0.012609999626874924
v 0.08764500170946121 0.035691000521183014 0.019394999369978905
v 0.08692300319671631 0.03633899986743927 0.017619000747799873
v 0.07742399722337723 0.021391000598669052 0.027884000912308693
v 0.07662799954414368 0.01843000017106533 0.02191000059247017
v 0.07597199827432632 0.019631000235676765 0.024421000853180885
v 0.076384998857975 0.020997000858187675 0.02639099955558777
v 0.07716800272464752 0.01697699911892414 0.01899999938905239
v 0.07637099921703339 0.021918000653386116 0.027897000312805176
v 0.07540600001811981 0.021407999098300934 0.0263030007481575
v 0.07458499819040298 0.018616000190377235 0.022561000660061836
v 0.07405199855566025 0.01931699924170971 0.0208979994058609
v 0.07429099828004837 0.018843999132514 0.021771999076008797
v 0.07290499657392502 0.018953999504446983 0.01858600042760372
v 0.07197699695825577 0.02034199982881546 0.01720600016415119
v 0.0712440013885498 0.02428700029850006 0.014511999674141407
v 0.07732799649238586 0.03850800171494484 0.012112000025808811
v 0.07508400082588196 0.03621299937367439 0.009704000316560268
v 0.07457400113344193 0.034869998693466187 0.010147999972105026
v 0.07617399841547012 0.03737099841237068 0.01079300045967102
v 0.07113999873399734 0.03022100031375885 0.008875999599695206
v 0.07183100283145905 0.031192999333143234 0.008945999667048454
v 0.07265699654817581 0.03285299986600876 0.008534999564290047
v 0.07375700026750565 0.03402699902653694 0.009339000098407269
v 0.08050599694252014 0.0385110005736351 0.012823999859392643
v 0.07788299769163132 0.03860799968242645 0.0114139998331666
v 0.07922700047492981 0.03925799950957298 0.014638000167906284
v 0.07643900066614151 0.017954999580979347 0.013633999973535538
v 0.0754690021276474 0.017210999503731728 0.015461999922990799
v 0.07722000032663345 0.016964999958872795 0.017424000427126884
v 0.07232499867677689 0.023559000343084335 0.0059460001066327095
v 0.07237400114536285 0.01883300021290779 0.013753999955952168
v 0.07361000031232834 0.028720999136567116 0.002822000067681074
v 0.07589899748563766 0.02979700081050396 0.004075999837368727
v 0.07361999899148941 0.02736400067806244 0.0032939999364316463
v 0.07287000119686127 0.02546199969947338 0.004275999963283539
v 0.0728669986128807 0.027222000062465668 0.0034229999873787165
v 0.07834500074386597 0.03811800107359886 0.010592999868094921
v 0.0752979964017868 0.03646399825811386 0.008572000078856945
v 0.0800120010972023 0.03383199870586395 0.006419000215828419
v 0.08071000128984451 0.03295600041747093 0.005816000048071146
v 0.07862500101327896 0.03168699890375137 0.0054060001857578754
v 0.07293400168418884 0.031592998653650284 0.004461000207811594
v 0.07551199942827225 0.018501000478863716 0.02219099923968315
v 0.07352700084447861 0.017038999125361443 0.01846100017428398
v 0.07343199849128723 0.0171509999781847 0.016746999695897102
v 0.07265300303697586 0.017810000106692314 0.01742600090801716
v 0.07141999900341034 0.021243000403046608 0.015250000171363354
v 0.07032900303602219 0.0272390004247427 0.008868999779224396
v 0.0703120008111 0.029103999957442284 0.0073979999870061874
v 0.07090199738740921 0.030306000262498856 0.007965000346302986
v 0.07122299820184708 0.021886000409722328 0.013313000090420246
v 0.07041600346565247 0.025523999705910683 0.010390999726951122
v 0.07245299965143204 0.03334899991750717 0.007513000164180994
v 0.0715240016579628 0.031665999442338943 0.007772000040858984
v 0.07215899974107742 0.02704799920320511 0.003794000018388033
v 0.07080099731683731 0.02773600071668625 0.006211999803781509
v 0.07122399657964706 0.02244500070810318 0.009201000444591045
v 0.07215700298547745 0.02874699980020523 0.0030640000477433205
v 0.07142099738121033 0.032287001609802246 0.006302999798208475
v 0.07834000140428543 0.03239100053906441 0.005654000211507082
v 0.07066500186920166 0.02606000006198883 0.007737999781966209
v 0.07055100053548813 0.0305160004645586 0.005934000015258789
v 0.07108400017023087 0.022866999730467796 0.011989999562501907
v 0.07079599797725677 0.023649999871850014 0.010344999842345715
f 3 2 1
f 5 4 1
f 1 6 5
f 1 2 6
f 1 4 3
f 2 3 7
f 8 2 7
f 9 6 2
f 10 2 8
f 10 9 2
f 3 12 11
f 11 7 3
f 12 3 13
f 4 13 3
f 4 15 14
f 4 17 16
f 18 15 4
f 4 19 18
f 13 4 20
f 4 5 19
f 22 4 21
f 22 20 4
f 16 21 4
f 14 17 4
f 5 24 23
f 25 24 5
f 19 5 23
f 25 5 6
f 9 25 6
f 26 8 7
f 7 28 27
f 7 11 28
f 29 7 27
f 29 26 7
f 26 10 8
f 30 25 9
f 10 30 9
f 30 10 26
f 11 12 28
f 12 32 31
f 33 12 20
f 34 28 12
f 20 12 13
f 32 12 33
f 34 12 31
f 35 17 14
f 14 36 35
f 14 15 36
f 37 15 18
f 15 38 36
f 15 37 38
f 39 21 16
f 16 40 39
f 16 17 40
f 17 35 40
f 18 19 41
f 42 37 18
f 43 42 18
f 18 44 43
f 44 18 41
f 23 41 19
f 20 21 33
f 20 22 21
f 21 39 45
f 33 21 45
f 23 47 46
f 23 24 47
f 23 48 41
f 23 46 48
f 24 30 47
f 25 30 24
f 30 26 29
f 27 50 49
f 50 27 28
f 29 27 49
f 34 50 28
f 30 29 49
f 30 52 51
f 47 30 53
f 52 30 49
f 51 53 30
f 34 31 54
f 32 55 31
f 31 57 56
f 54 31 56
f 58 57 31
f 31 55 58
f 32 33 59
f 32 59 60
f 61 32 60
f 61 62 32
f 55 32 62
f 64 33 63
f 33 45 63
f 33 64 65
f 59 33 65
f 54 49 34
f 50 34 49
f 67 35 66
f 68 40 35
f 66 35 36
f 35 67 68
f 66 36 38
f 66 38 37
f 69 66 37
f 37 42 69
f 39 68 70
f 71 39 70
f 68 39 40
f 45 39 71
f 41 73 72
f 41 48 73
f 72 74 41
f 74 44 41
f 69 42 43
f 69 43 67
f 75 67 43
f 76 75 43
f 76 43 44
f 78 77 44
f 44 79 78
f 44 81 80
f 44 77 81
f 80 76 44
f 79 44 74
f 63 45 71
f 46 53 82
f 46 47 53
f 46 82 48
f 73 48 82
f 49 83 52
f 54 83 49
f 51 52 84
f 84 53 51
f 86 85 52
f 85 87 52
f 88 84 52
f 87 88 52
f 83 86 52
f 53 90 89
f 82 53 91
f 84 90 53
f 53 89 92
f 91 53 92
f 86 83 54
f 54 56 86
f 55 93 58
f 94 55 61
f 55 94 93
f 61 55 62
f 95 56 57
f 95 86 56
f 95 57 96
f 96 57 58
f 58 93 96
f 97 59 65
f 97 60 59
f 98 60 97
f 61 60 98
f 98 94 61
f 63 100 99
f 71 70 63
f 101 63 99
f 102 63 101
f 63 102 103
f 64 63 103
f 100 63 70
f 64 103 104
f 105 64 104
f 105 65 64
f 65 106 97
f 106 65 105
f 67 66 69
f 67 75 107
f 67 107 108
f 68 67 108
f 108 70 68
f 108 100 70
f 73 82 72
f 109 72 91
f 91 72 82
f 72 109 74
f 109 110 74
f 79 74 111
f 74 110 112
f 112 113 74
f 111 74 113
f 107 75 114
f 80 75 76
f 75 80 114
f 77 115 81
f 77 78 115
f 117 116 78
f 78 119 118
f 78 118 117
f 78 79 119
f 78 121 120
f 78 120 122
f 116 121 78
f 78 122 115
f 123 79 111
f 123 119 79
f 80 125 124
f 81 126 80
f 125 80 127
f 128 80 124
f 114 80 128
f 127 80 126
f 129 126 81
f 115 129 81
f 84 131 130
f 84 88 131
f 84 130 90
f 86 95 85
f 85 95 87
f 95 88 87
f 88 95 131
f 89 133 132
f 130 133 89
f 89 90 130
f 135 89 134
f 134 89 132
f 92 89 135
f 91 92 109
f 92 135 109
f 93 94 96
f 137 136 94
f 94 136 96
f 137 94 138
f 138 94 139
f 94 98 139
f 136 130 95
f 95 130 131
f 136 95 96
f 97 106 98
f 98 141 140
f 98 140 142
f 98 144 143
f 98 143 141
f 145 98 142
f 145 146 98
f 148 147 98
f 146 148 98
f 144 98 106
f 98 147 149
f 139 98 149
f 100 150 99
f 151 99 150
f 99 151 101
f 150 100 108
f 101 151 152
f 101 152 153
f 142 102 101
f 145 142 101
f 145 101 153
f 141 103 102
f 102 142 141
f 141 143 103
f 143 144 103
f 104 103 144
f 154 105 104
f 154 104 144
f 154 106 105
f 154 144 106
f 155 150 107
f 108 107 150
f 107 114 155
f 156 110 109
f 109 135 157
f 158 109 157
f 158 156 109
f 160 159 110
f 110 159 112
f 156 160 110
f 111 113 159
f 159 123 111
f 112 159 113
f 155 114 128
f 115 161 129
f 122 161 115
f 116 162 121
f 117 162 116
f 117 118 163
f 165 164 117
f 117 166 165
f 117 163 166
f 117 164 162
f 163 118 119
f 119 123 159
f 163 119 159
f 168 167 120
f 169 120 121
f 169 168 120
f 120 167 122
f 162 169 121
f 167 161 122
f 124 171 170
f 124 125 171
f 128 124 170
f 171 125 127
f 129 127 126
f 171 127 129
f 155 128 172
f 170 173 128
f 128 173 172
f 171 129 161
f 130 174 133
f 130 136 174
f 132 133 175
f 134 132 175
f 133 176 175
f 177 133 174
f 176 133 177
f 178 135 134
f 178 134 175
f 178 157 135
f 179 174 136
f 137 179 136
f 180 179 137
f 137 138 180
f 180 138 181
f 139 182 138
f 138 182 183
f 181 138 183
f 139 185 184
f 139 184 182
f 139 149 186
f 185 139 186
f 141 142 140
f 153 146 145
f 187 148 146
f 146 153 187
f 189 147 188
f 188 147 148
f 189 149 147
f 148 187 190
f 148 190 188
f 192 191 149
f 149 194 193
f 191 186 149
f 189 194 149
f 193 192 149
f 150 155 172
f 171 150 173
f 151 150 171
f 173 150 172
f 171 195 151
f 151 196 152
f 196 151 195
f 152 197 153
f 152 196 197
f 153 197 187
f 160 156 198
f 198 156 199
f 158 200 156
f 200 199 156
f 178 158 157
f 178 200 158
f 163 159 166
f 160 198 159
f 202 201 159
f 159 198 202
f 166 159 201
f 167 171 161
f 164 203 162
f 204 169 162
f 203 204 162
f 164 205 203
f 165 205 164
f 201 206 165
f 166 201 165
f 206 207 165
f 207 205 165
f 167 209 208
f 208 171 167
f 167 211 210
f 209 167 210
f 211 167 168
f 168 213 212
f 213 168 204
f 204 168 169
f 212 211 168
f 171 173 170
f 208 195 171
f 179 177 174
f 175 176 214
f 215 175 214
f 178 175 215
f 181 176 177
f 176 181 214
f 180 177 179
f 181 177 180
f 215 216 178
f 178 216 200
f 215 214 181
f 183 215 181
f 215 182 217
f 183 182 215
f 217 182 184
f 185 217 184
f 217 185 218
f 218 185 186
f 220 219 186
f 220 186 221
f 223 222 186
f 219 223 186
f 221 186 191
f 218 186 222
f 187 209 190
f 196 209 187
f 197 196 187
f 188 194 189
f 188 209 224
f 194 188 224
f 190 209 188
f 221 191 192
f 225 221 192
f 193 225 192
f 193 224 225
f 193 194 224
f 208 196 195
f 209 196 208
f 202 198 199
f 200 216 199
f 202 199 216
f 201 226 206
f 228 227 201
f 226 201 227
f 201 202 228
f 216 217 202
f 222 228 202
f 218 202 217
f 218 222 202
f 213 204 203
f 229 203 205
f 203 229 213
f 207 229 205
f 206 226 207
f 226 229 207
f 213 230 209
f 210 213 209
f 224 209 230
f 213 210 231
f 211 231 210
f 231 211 212
f 212 213 231
f 213 229 230
f 217 216 215
f 223 219 228
f 228 219 232
f 219 220 232
f 233 220 221
f 227 220 233
f 227 232 220
f 225 233 221
f 228 222 234
f 223 234 222
f 228 235 223
f 223 235 234
f 224 230 225
f 230 233 225
f 233 229 226
f 233 226 227
f 227 228 232
f 235 228 234
f 233 230 229
