# Generated by Visualization Toolkit
v -0.08385699987411499 -0.06652399897575378 0.05577100068330765
v -0.07925499975681305 -0.05954999849200249 0.06647799909114838
v -0.08642199635505676 -0.06442400068044662 0.05871399864554405
v -0.08654099702835083 -0.06814900040626526 0.05498100072145462
v -0.07761800289154053 -0.06787200272083282 0.054662998765707016
v -0.08678600192070007 -0.05920900031924248 0.06983400136232376
v -0.07143200188875198 -0.061278000473976135 0.06625500321388245
v -0.07942800223827362 -0.057034000754356384 0.07575400173664093
v -0.092009998857975 -0.06773500144481659 0.05952199921011925
v -0.09111200273036957 -0.06183600053191185 0.068122997879982
v -0.08536700159311295 -0.0798100009560585 0.049272000789642334
v -0.091218002140522 -0.07719500362873077 0.053346000611782074
v -0.07110799849033356 -0.06568200141191483 0.059863001108169556
v -0.07260099798440933 -0.07200700044631958 0.053693000227212906
v -0.07750000059604645 -0.07756199687719345 0.049619998782873154
v -0.09122999757528305 -0.060989998281002045 0.07144399732351303
v -0.08528900146484375 -0.05773099884390831 0.0770139992237091
v -0.06516599655151367 -0.06823399662971497 0.06314600259065628
v -0.06407500058412552 -0.06534600257873535 0.07114800065755844
v -0.06104400008916855 -0.06693100184202194 0.07715699821710587
v -0.07237199693918228 -0.0596579983830452 0.09066499769687653
v -0.0650779977440834 -0.06274600327014923 0.08433700352907181
v -0.08231200277805328 -0.059595998376607895 0.09236399829387665
v -0.09604600071907043 -0.06977500021457672 0.06298399716615677
v -0.09454099833965302 -0.06349799782037735 0.07242699712514877
v -0.0805630013346672 -0.09060300141572952 0.04748300090432167
v -0.07546799629926682 -0.08420100063085556 0.04927400127053261
v -0.09129299968481064 -0.08114899694919586 0.0551920011639595
v -0.07082399725914001 -0.08029100298881531 0.05176699906587601
v -0.06450600177049637 -0.0731780007481575 0.05986500158905983
v -0.09344399720430374 -0.06346199661493301 0.09199400246143341
v -0.08553300052881241 -0.06025899946689606 0.09213399887084961
v -0.059425998479127884 -0.07375899702310562 0.06888599693775177
v -0.059978000819683075 -0.06890500336885452 0.07445400208234787
v -0.0603410005569458 -0.06568799912929535 0.08079800009727478
v -0.06569699943065643 -0.06186699867248535 0.08721499890089035
v -0.07167799770832062 -0.059032000601291656 0.09235499799251556
v -0.06396300345659256 -0.06248600035905838 0.08591300249099731
v -0.07952900230884552 -0.05881800130009651 0.09444300085306168
v -0.09719599783420563 -0.07175800204277039 0.06704399734735489
v -0.09696800261735916 -0.06653299927711487 0.08668699860572815
v -0.07344099879264832 -0.08768200129270554 0.05044399946928024
v -0.07585900276899338 -0.09334299713373184 0.04811999946832657
v -0.07601100206375122 -0.09208299964666367 0.04909300059080124
v -0.08608599752187729 -0.09145499765872955 0.05997699871659279
v -0.08066800236701965 -0.09204600006341934 0.04643600061535835
v -0.08279699832201004 -0.09327200055122375 0.05221199989318848
v -0.09401199966669083 -0.08400800079107285 0.0681459978222847
v -0.09609100222587585 -0.07969000190496445 0.07091599702835083
v -0.08743800222873688 -0.09112600237131119 0.061925001442432404
v -0.05827999860048294 -0.08224300295114517 0.06501899659633636
v -0.06922700256109238 -0.09193799644708633 0.05422699823975563
v -0.06410299986600876 -0.09123100340366364 0.05933399870991707
v -0.06258299946784973 -0.08985999971628189 0.06074199825525284
v -0.05879899859428406 -0.07767599821090698 0.06671199947595596
v -0.08636800199747086 -0.06039600074291229 0.09478799998760223
v -0.09418100118637085 -0.06236900016665459 0.09285999834537506
v -0.09805800020694733 -0.06561599671840668 0.08764799684286118
v -0.05851899832487106 -0.06901799887418747 0.07475399971008301
v -0.05725599825382233 -0.07424800097942352 0.06958799809217453
v -0.06297499686479568 -0.060892000794410706 0.08644399791955948
v -0.05802600085735321 -0.06016699969768524 0.08211600035429001
v -0.06663200259208679 -0.06069200113415718 0.08931300044059753
v -0.0709260031580925 -0.05750799924135208 0.09315499663352966
v -0.0792120024561882 -0.057346001267433167 0.09599599987268448
v -0.06556099653244019 -0.05868300050497055 0.09010300040245056
v -0.08316700160503387 -0.058386001735925674 0.09619800001382828
v -0.09803999960422516 -0.07470600306987762 0.07538100332021713
v -0.09859199821949005 -0.07152900099754333 0.081325002014637
v -0.07299000024795532 -0.09313700348138809 0.051075998693704605
v -0.07265199720859528 -0.09383700042963028 0.05058399960398674
v -0.07708299905061722 -0.09410499781370163 0.04521699994802475
v -0.08512400090694427 -0.09351400285959244 0.05679500102996826
v -0.08861800283193588 -0.09351500123739243 0.06149499863386154
v -0.078916996717453 -0.09378399699926376 0.044349998235702515
v -0.0861390009522438 -0.09509599953889847 0.041064999997615814
v -0.08567400276660919 -0.09355399757623672 0.05066800117492676
v -0.08528299629688263 -0.09323900192975998 0.05386799946427345
v -0.0947519987821579 -0.08528000116348267 0.06898300349712372
v -0.0972450003027916 -0.08199799805879593 0.07195500284433365
v -0.09817100316286087 -0.07596399635076523 0.07676800340414047
v -0.0941300019621849 -0.09045399725437164 0.06594300270080566
v -0.05907300114631653 -0.08940500020980835 0.061608001589775085
v -0.05642800033092499 -0.08305399864912033 0.06491100043058395
v -0.05663999915122986 -0.07853800058364868 0.0671359971165657
v -0.0575530007481575 -0.07821600139141083 0.06721100211143494
v -0.06859400123357773 -0.09346599876880646 0.05319099873304367
v -0.06340000033378601 -0.09203100204467773 0.0589510016143322
v -0.08691000193357468 -0.05949600040912628 0.09590499848127365
v -0.09055899828672409 -0.06074199825525284 0.09457200020551682
v -0.09662599861621857 -0.06266099959611893 0.09015200287103653
v -0.09458799660205841 -0.06160299852490425 0.09239500015974045
v -0.09941399842500687 -0.06783299893140793 0.08461199700832367
v -0.09757699817419052 -0.06186800077557564 0.0893310010433197
v -0.09912899881601334 -0.06443700194358826 0.08701600134372711
v -0.05652499943971634 -0.07357300072908401 0.06915400177240372
v -0.056474000215530396 -0.05788600072264671 0.07466399669647217
v -0.0558909997344017 -0.0631679967045784 0.06725499778985977
v -0.06026899814605713 -0.05763600021600723 0.09076199680566788
v -0.05441899970173836 -0.057225000113248825 0.0821089968085289
v -0.05322600156068802 -0.05589200183749199 0.07931499928236008
v -0.05581999942660332 -0.057771001011133194 0.08491499722003937
v -0.07037799805402756 -0.0561399981379509 0.09380800276994705
v -0.07466299831867218 -0.056501999497413635 0.09507700055837631
v -0.07755299657583237 -0.05082700029015541 0.09468100219964981
v -0.08204799890518188 -0.05223499983549118 0.09474299848079681
v -0.07202400267124176 -0.04825099930167198 0.09400299936532974
v -0.06022299826145172 -0.056026000529527664 0.09202399849891663
v -0.06067800149321556 -0.05388600006699562 0.09287899732589722
v -0.06497900187969208 -0.05446000024676323 0.09323599934577942
v -0.10075300186872482 -0.07204599678516388 0.07927899807691574
v -0.10043700039386749 -0.07006700336933136 0.08165500313043594
v -0.10045699775218964 -0.07793399691581726 0.07447300106287003
v -0.07129599899053574 -0.094821996986866 0.04905499890446663
v -0.07358399778604507 -0.09396900236606598 0.044374000281095505
v -0.07825099676847458 -0.09255900233983994 0.04144600033760071
v -0.0863490030169487 -0.09334100037813187 0.05622199922800064
v -0.09008800238370895 -0.09311400353908539 0.05722000077366829
v -0.09580399841070175 -0.09079399704933167 0.06310900300741196
v -0.09493400156497955 -0.09088999778032303 0.0648140013217926
v -0.08416099846363068 -0.09122300148010254 0.03951599821448326
v -0.09292200207710266 -0.099542997777462 0.04058400169014931
v -0.09519799798727036 -0.09846799820661545 0.0372919999063015
v -0.09291200339794159 -0.09686700254678726 0.04571500048041344
v -0.09390600025653839 -0.09613099694252014 0.05440099909901619
v -0.09705100208520889 -0.08646800369024277 0.06880699843168259
v -0.09953799843788147 -0.08201300352811813 0.07176899909973145
v -0.05710599943995476 -0.09051000326871872 0.05928599834442139
v -0.061034999787807465 -0.09363800287246704 0.05655200034379959
v -0.05461699888110161 -0.08250799775123596 0.06313599646091461
v -0.09097900241613388 -0.05970500037074089 0.09394600242376328
v -0.08462700247764587 -0.05281800031661987 0.09446900337934494
v -0.09665200114250183 -0.05456800013780594 0.08965600281953812
v -0.1032399982213974 -0.06335999816656113 0.08223500102758408
v -0.1002269983291626 -0.06319999694824219 0.08635199815034866
v -0.10193999856710434 -0.06092299893498421 0.08509799838066101
v -0.10035199671983719 -0.05826399847865105 0.08776500076055527
v -0.0529480017721653 -0.06631900370121002 0.05580100044608116
v -0.05748999863862991 -0.05522200092673302 0.0704139992594719
v -0.056522998958826065 -0.05502299964427948 0.07380499690771103
v -0.05638600140810013 -0.05913500115275383 0.0606129989027977
v -0.05898300185799599 -0.05199100077152252 0.0663670003414154
v -0.05828100070357323 -0.05517499893903732 0.09193599969148636
v -0.05594100058078766 -0.05548600107431412 0.08908499777317047
v -0.05222800001502037 -0.05742400139570236 0.08619099855422974
v -0.05339999869465828 -0.052786000072956085 0.07801000028848648
v -0.04800200089812279 -0.05291900038719177 0.08215499669313431
v -0.06309899687767029 -0.04975400120019913 0.09331600368022919
v -0.0760359987616539 -0.0467660017311573 0.09397599846124649
v -0.0801289975643158 -0.04712500050663948 0.09368299692869186
v -0.08448400348424911 -0.04765599966049194 0.09209199994802475
v -0.0703430026769638 -0.04484400153160095 0.09400700032711029
v -0.056210000067949295 -0.051107000559568405 0.09317400306463242
v -0.10175199806690216 -0.07096599787473679 0.07891800254583359
v -0.10268600285053253 -0.07007800042629242 0.07819700241088867
v -0.10594599694013596 -0.06472299993038177 0.07778000086545944
v -0.10500500351190567 -0.06170399859547615 0.08067300170660019
v -0.10430700331926346 -0.06870599836111069 0.07676400244235992
v -0.10129900276660919 -0.08104799687862396 0.06959600001573563
v -0.06980399787425995 -0.09350299835205078 0.04513999819755554
v -0.07371500134468079 -0.09023000299930573 0.04399000108242035
v -0.08148699998855591 -0.0710500031709671 0.045572999864816666
v -0.09801200032234192 -0.08669000118970871 0.06759800016880035
v -0.09871400147676468 -0.08637399971485138 0.06657300144433975
v -0.1015390008687973 -0.09714700281620026 0.06072299927473068
v -0.09996200352907181 -0.10030700266361237 0.05536400154232979
v -0.09838499873876572 -0.09525900334119797 0.037620000541210175
v -0.10299800336360931 -0.07228200137615204 0.045885998755693436
v -0.0999390035867691 -0.10472399741411209 0.036166001111269
v -0.09774000197649002 -0.10478399693965912 0.04081200063228607
v -0.09954699873924255 -0.10177700221538544 0.050255000591278076
v -0.054632000625133514 -0.0925540030002594 0.046918999403715134
v -0.06304000318050385 -0.0940679982304573 0.04716400057077408
v -0.055277999490499496 -0.09465400129556656 0.04126400128006935
v -0.05179399996995926 -0.09056200087070465 0.04117799922823906
v -0.052528999745845795 -0.08506400138139725 0.035944998264312744
v -0.09131500124931335 -0.05043499916791916 0.09011200070381165
v -0.09306900203227997 -0.04235000163316727 0.08659899979829788
v -0.1016400009393692 -0.055146001279354095 0.08625999838113785
v -0.05554400011897087 -0.07613600045442581 0.03763100132346153
v -0.057799000293016434 -0.06369200348854065 0.045233000069856644
v -0.05840799957513809 -0.051646001636981964 0.06975799798965454
v -0.05704899877309799 -0.05207199975848198 0.07323499768972397
v -0.06431499868631363 -0.0490030013024807 0.054069001227617264
v -0.058605000376701355 -0.05549899861216545 0.060926999896764755
v -0.07635500282049179 -0.03660999983549118 0.05391699820756912
v -0.07826200127601624 -0.034285999834537506 0.05500999838113785
v -0.060878999531269073 -0.04707400128245354 0.06885699927806854
v -0.0508200004696846 -0.056630998849868774 0.08868099749088287
v -0.04798699915409088 -0.05504700168967247 0.08677799999713898
v -0.04954199865460396 -0.05586500093340874 0.08821900188922882
v -0.05358999967575073 -0.0490339994430542 0.07757599651813507
v -0.050099000334739685 -0.04611299932003021 0.08117400109767914
v -0.041940998286008835 -0.04777999967336655 0.0852229967713356
v -0.043136000633239746 -0.046535998582839966 0.0848110020160675
v -0.04444500058889389 -0.0518609993159771 0.08489800244569778
v -0.05701100081205368 -0.04608599841594696 0.09527499973773956
v -0.06201599910855293 -0.04347899928689003 0.09512999653816223
v -0.07420100271701813 -0.04350399971008301 0.09409400075674057
v -0.07812000066041946 -0.043400999158620834 0.09398599714040756
v -0.08506099879741669 -0.04323099926114082 0.09186799824237823
v -0.08957400172948837 -0.04504600167274475 0.0885550007224083
v -0.06663300096988678 -0.04242200031876564 0.09519600123167038
v -0.04866399988532066 -0.05505000054836273 0.0897269994020462
v -0.051913000643253326 -0.04920699819922447 0.0938669964671135
v -0.10579100251197815 -0.035610001534223557 0.06879299879074097
v -0.1100659966468811 -0.03678100183606148 0.06600499898195267
v -0.1153080016374588 -0.05843599885702133 0.0659710019826889
v -0.11292599886655807 -0.04361899942159653 0.06502900272607803
v -0.112015001475811 -0.06533599644899368 0.06848300248384476
v -0.09888699650764465 -0.036423999816179276 0.08040399849414825
v -0.1043820008635521 -0.08119700103998184 0.06762800365686417
v -0.10699599981307983 -0.08051799982786179 0.06541900336742401
v -0.10528799891471863 -0.08992899954319 0.06421799957752228
v -0.06559500098228455 -0.09257300198078156 0.042837999761104584
v -0.06429599970579147 -0.0935709998011589 0.044516000896692276
v -0.06945499777793884 -0.08805199712514877 0.042174000293016434
v -0.07063999772071838 -0.0817210003733635 0.04284000024199486
v -0.07250799983739853 -0.07539299875497818 0.04357500001788139
v -0.07971800118684769 -0.06656099855899811 0.04695099964737892
v -0.07480499893426895 -0.07003899663686752 0.04493600130081177
v -0.10522700101137161 -0.10145699977874756 0.06385800242424011
v -0.1058029979467392 -0.10524699836969376 0.06187700107693672
v -0.1125589981675148 -0.08428899943828583 0.04219600185751915
v -0.11544100195169449 -0.08128400146961212 0.0443900004029274
v -0.11433800309896469 -0.09219300001859665 0.043313998728990555
v -0.1257459968328476 -0.10850600153207779 0.04862599819898605
v -0.10341800004243851 -0.10562600195407867 0.034596998244524
v -0.117747001349926 -0.062283001840114594 0.05142299830913544
v -0.11375699937343597 -0.056141000241041183 0.05237000063061714
v -0.10671299695968628 -0.04004000127315521 0.05796299874782562
v -0.11907999962568283 -0.07490900158882141 0.044881001114845276
v -0.08985400199890137 -0.0412760004401207 0.05208100005984306
v -0.10076200217008591 -0.10700099915266037 0.035234998911619186
v -0.09872599691152573 -0.10981100052595139 0.03830699995160103
v -0.11063200235366821 -0.12221399694681168 0.04391999915242195
v -0.1163569986820221 -0.11927200108766556 0.06085500121116638
v -0.10045000165700912 -0.11094699800014496 0.04076499864459038
v -0.10784199833869934 -0.11932100355625153 0.04227900132536888
v -0.11049599945545197 -0.10994900017976761 0.061691999435424805
v -0.05418799817562103 -0.0936800017952919 0.03636299818754196
v -0.06319999694824219 -0.09280399978160858 0.04039499908685684
v -0.06297499686479568 -0.0939679965376854 0.03244199976325035
v -0.05299999937415123 -0.09210699796676636 0.03673800081014633
v -0.05037499964237213 -0.09052000194787979 0.030446000397205353
v -0.05549800023436546 -0.08095400035381317 0.03427499905228615
v -0.08181499689817429 -0.02891100011765957 0.08977700024843216
v -0.10048200190067291 -0.023583000525832176 0.0797950029373169
v -0.0911479964852333 -0.026247000321745872 0.08478599786758423
v -0.05805699899792671 -0.08317799866199493 0.03228500112891197
v -0.060851000249385834 -0.08183500170707703 0.03474399819970131
v -0.062164001166820526 -0.08604100346565247 0.03172700107097626
v -0.0652879998087883 -0.05178900063037872 0.050540998578071594
v -0.0663750022649765 -0.06556300073862076 0.04486199840903282
v -0.07409200072288513 -0.03974900022149086 0.05248900130391121
v -0.07984799891710281 -0.035319000482559204 0.05388600006699562
v -0.08435700088739395 -0.03116000071167946 0.05498100072145462
v -0.08040899783372879 -0.008987000212073326 0.07577399909496307
v -0.0682160034775734 -0.03178200125694275 0.07484100013971329
v -0.04037100076675415 -0.04993399977684021 0.08835600316524506
v -0.0588500015437603 -0.03246400132775307 0.0848350003361702
v -0.039650000631809235 -0.04472700133919716 0.08943500369787216
v -0.03992300108075142 -0.04121699929237366 0.09040500223636627
v -0.05254499986767769 -0.04455399885773659 0.09591300040483475
v -0.043063998222351074 -0.03649900108575821 0.09987299889326096
v -0.07210899889469147 -0.04098999872803688 0.09565100073814392
v -0.0763619989156723 -0.04058400169014931 0.09589599817991257
v -0.07096700370311737 -0.029373999685049057 0.09436099976301193
v -0.06379800289869308 -0.040004000067710876 0.09713000059127808
v -0.046831998974084854 -0.04871499910950661 0.09427899867296219
v -0.042270999401807785 -0.05031299963593483 0.09327100217342377
v -0.11370199918746948 -0.03127399832010269 0.06592100113630295
v -0.11145900189876556 -0.031328000128269196 0.06915000081062317
v -0.10863900184631348 -0.02723100036382675 0.07446900010108948
v -0.11090800166130066 -0.03710300102829933 0.06497400254011154
v -0.11583299934864044 -0.0635640025138855 0.06390800327062607
v -0.11654800176620483 -0.056901998817920685 0.06192699819803238
v -0.10943499952554703 -0.038607001304626465 0.06074199825525284
v -0.10904499888420105 -0.03676600009202957 0.0610710009932518
v -0.11795499920845032 -0.07878600060939789 0.05888500064611435
v -0.11689499765634537 -0.07016599923372269 0.06288299709558487
v -0.11619199812412262 -0.06681700050830841 0.06386999785900116
v -0.1086760014295578 -0.0846719965338707 0.06409399956464767
v -0.10695800185203552 -0.0914900004863739 0.06514400243759155
v -0.11277999728918076 -0.08990400284528732 0.06713499873876572
v -0.06533300131559372 -0.08576600253582001 0.03877200186252594
v -0.06916599720716476 -0.07703199982643127 0.04208799824118614
v -0.07139299809932709 -0.07155299931764603 0.04363099858164787
v -0.07811199873685837 -0.06372399628162384 0.04768100008368492
v -0.07317300140857697 -0.06747099757194519 0.0454539991915226
v -0.10965699702501297 -0.10334199666976929 0.06506899744272232
v -0.11366800218820572 -0.09639199823141098 0.06802800297737122
v -0.11590500175952911 -0.08324400335550308 0.04468899965286255
v -0.1172569990158081 -0.08491899818181992 0.0462069995701313
v -0.11746600270271301 -0.0872109979391098 0.04704799875617027
v -0.11935599893331528 -0.08163200318813324 0.04535900056362152
v -0.11925899982452393 -0.09632600098848343 0.047970000654459
v -0.12967699766159058 -0.10679300129413605 0.05698699876666069
v -0.1235790029168129 -0.09975100308656693 0.05178900063037872
v -0.12313000112771988 -0.11340899765491486 0.04559199884533882
v -0.12793900072574615 -0.11378700286149979 0.04843699932098389
v -0.10382600128650665 -0.10819599777460098 0.03318899869918823
v -0.123819999396801 -0.06724800169467926 0.046424999833106995
v -0.12471000105142593 -0.06672299653291702 0.05064300075173378
v -0.11882899701595306 -0.06243300065398216 0.05592799931764603
v -0.1158050000667572 -0.055417001247406006 0.05775799974799156
v -0.10578300058841705 -0.0342940017580986 0.05818299949169159
v -0.09769000113010406 -0.032832998782396317 0.055181000381708145
v -0.1255819946527481 -0.07260899990797043 0.04352099820971489
v -0.12683700025081635 -0.07581000030040741 0.04126400128006935
v -0.1238040030002594 -0.08073899894952774 0.04295000061392784
v -0.07728800177574158 -0.0442969985306263 0.05194700136780739
v -0.07668200135231018 -0.06095999851822853 0.04854400083422661
v -0.09990700334310532 -0.11388999968767166 0.031150000169873238
v -0.09653300046920776 -0.11703299731016159 0.03401400148868561
v -0.09906800091266632 -0.11706499755382538 0.035721998661756516
v -0.1117750033736229 -0.12740199267864227 0.04067600145936012
v -0.10863400250673294 -0.12374299764633179 0.038757000118494034
v -0.11443299800157547 -0.13312700390815735 0.039023999124765396
v -0.12354300171136856 -0.1298079937696457 0.056970998644828796
v -0.1230819970369339 -0.12590700387954712 0.06163899973034859
v -0.12441399693489075 -0.12126100063323975 0.0640840008854866
v -0.11869999766349792 -0.11658100038766861 0.06373199820518494
v -0.1150439977645874 -0.11028599739074707 0.06265299767255783
v -0.10421399772167206 -0.12284299731254578 0.033636000007390976
v -0.10331500321626663 -0.11944100260734558 0.03658200055360794
v -0.05150400102138519 -0.09715200215578079 0.02787799946963787
v -0.05148499831557274 -0.09307900071144104 0.031279999762773514
v -0.06354700028896332 -0.08997000008821487 0.035930998623371124
v -0.05657599866390228 -0.10069499909877777 0.02437100000679493
v -0.06464699655771255 -0.09759200364351273 0.028651999309659004
v -0.0657769963145256 -0.09680099785327911 0.028901999816298485
v -0.06403599679470062 -0.09213600307703018 0.03344900161027908
v -0.047961000353097916 -0.09536200016736984 0.027979999780654907
v -0.04663100093603134 -0.09371499717235565 0.026948999613523483
v -0.05130700021982193 -0.08841799944639206 0.028449000790715218
v -0.062105998396873474 -0.0028890001121908426 0.10342899709939957
v -0.07021400332450867 0.0017940000398084521 0.09859400242567062
v -0.09169699996709824 0.016094999387860298 0.08267199993133545
v -0.10825899988412857 -0.005402999930083752 0.07269400358200073
v -0.12652599811553955 -0.026298999786376953 0.07009699940681458
v -0.05505000054836273 -0.08925200253725052 0.027080999687314034
v -0.0592459999024868 -0.08587899804115295 0.030331000685691833
v -0.0649230033159256 -0.08299200236797333 0.035794999450445175
v -0.06649400293827057 -0.09544699639081955 0.029260000213980675
v -0.06709799915552139 -0.0752590000629425 0.04055500030517578
v -0.06614399701356888 -0.07098300009965897 0.042371999472379684
v -0.06364099681377411 -0.08908800035715103 0.031272999942302704
v -0.05924899876117706 -0.09419900178909302 0.023350000381469727
v -0.0645110011100769 -0.08928799629211426 0.029983000829815865
v -0.07055900245904922 -0.06327100098133087 0.04655599966645241
v -0.06868399679660797 -0.06700500100851059 0.04464399814605713
v -0.10400000214576721 -0.02871599979698658 0.05662500113248825
v -0.09530600160360336 -0.01985899917781353 0.054754000157117844
v -0.0675709992647171 -0.00722600007429719 0.08493799716234207
v -0.08542100340127945 0.009008999913930893 0.07623899728059769
v -0.07053499668836594 0.018182000145316124 0.09094999730587006
v -0.038766998797655106 -0.04542599990963936 0.09618300199508667
v -0.03783499822020531 -0.045228999108076096 0.09346800297498703
v -0.03274599835276604 -0.009681999683380127 0.10839200019836426
v -0.032823000103235245 -0.022944999858736992 0.10369200259447098
v -0.033573001623153687 -0.026504000648856163 0.10489100217819214
v -0.03609500080347061 -0.029947999864816666 0.09976600110530853
v -0.037457000464200974 -0.03297799825668335 0.09687700122594833
v -0.044502001255750656 -0.003607999999076128 0.09967199712991714
v -0.037622999399900436 -0.032997000962495804 0.09803000092506409
v -0.03793499991297722 -0.03220900148153305 0.09977799654006958
v -0.041554998606443405 -0.03166000172495842 0.10245099663734436
v -0.05201699957251549 -0.015428000129759312 0.10414499789476395
v -0.11659999936819077 -0.02900799922645092 0.06821099668741226
v -0.11787299811840057 -0.029506999999284744 0.06696300208568573
v -0.10971300303936005 -0.03351699933409691 0.06133100017905235
v -0.11167500168085098 -0.03087799996137619 0.061911001801490784
v -0.12363900244235992 -0.0693570002913475 0.05459300056099892
v -0.11951900273561478 -0.06820300221443176 0.0612730011343956
v -0.1194159984588623 -0.08989399671554565 0.06395799666643143
v -0.12125299870967865 -0.07811900228261948 0.05700099840760231
v -0.12034299969673157 -0.08448199927806854 0.05863099917769432
v -0.1198590025305748 -0.0711819976568222 0.06091500073671341
v -0.11663000285625458 -0.09149900078773499 0.06830199807882309
v -0.06430400162935257 -0.08881299942731857 0.03585699945688248
v -0.07023400068283081 -0.06842999905347824 0.04433299973607063
v -0.12443500012159348 -0.0993880033493042 0.06585899740457535
v -0.12160900235176086 -0.08233900368213654 0.04504900053143501
v -0.12045799940824509 -0.08399099856615067 0.048151999711990356
v -0.12311899662017822 -0.08242899924516678 0.04540799930691719
v -0.11992699652910233 -0.08594600111246109 0.049306001514196396
v -0.1221729964017868 -0.08540699630975723 0.05190199986100197
v -0.12201300263404846 -0.08953899890184402 0.057402998208999634
v -0.12139099836349487 -0.09563100337982178 0.050958000123500824
v -0.13363200426101685 -0.10920699685811996 0.057172998785972595
v -0.1298149973154068 -0.10406800359487534 0.06391599774360657
v -0.12706699967384338 -0.09916900098323822 0.06568499654531479
v -0.130390003323555 -0.1158289983868599 0.0454539991915226
v -0.12340500205755234 -0.12319499999284744 0.038885001093149185
v -0.10319799929857254 -0.11420799791812897 0.029356999322772026
v -0.12682700157165527 -0.06825800240039825 0.04612300172448158
v -0.12731799483299255 -0.06807299703359604 0.04814999923110008
v -0.12709100544452667 -0.07045000046491623 0.04982899874448776
v -0.1073089987039566 -0.03075600042939186 0.058139998465776443
v -0.12922100722789764 -0.06983199715614319 0.04612499848008156
v -0.12975400686264038 -0.07131700217723846 0.045726001262664795
v -0.12946300208568573 -0.07333000004291534 0.045579999685287476
v -0.1283240020275116 -0.07672899961471558 0.042465999722480774
v -0.1273909956216812 -0.07854899764060974 0.0418890006840229
v -0.12726600468158722 -0.080315001308918 0.04320399835705757
v -0.09576199948787689 -0.11737199872732162 0.028882000595331192
v -0.09989500045776367 -0.11797100305557251 0.025522999465465546
v -0.09733299911022186 -0.11790399998426437 0.034046001732349396
v -0.09501700103282928 -0.11833100020885468 0.0328189991414547
v -0.10073799639940262 -0.12087699770927429 0.03297699987888336
v -0.1073480024933815 -0.12610900402069092 0.03570900112390518
v -0.10955099761486053 -0.13999399542808533 0.02942200005054474
v -0.1064079999923706 -0.1368190050125122 0.031058000400662422
v -0.10322199761867523 -0.12814000248908997 0.030438000336289406
v -0.10576599836349487 -0.12779200077056885 0.03302200138568878
v -0.11715999990701675 -0.13747599720954895 0.03449700027704239
v -0.12175600230693817 -0.13723400235176086 0.04119100049138069
v -0.12612000107765198 -0.13475699722766876 0.04765300080180168
v -0.10719999670982361 -0.13349199295043945 0.032690998166799545
v -0.1269250065088272 -0.1287589967250824 0.05718899890780449
v -0.13156400620937347 -0.12155800312757492 0.060006000101566315
v -0.12921500205993652 -0.11634399741888046 0.06371500343084335
v -0.10233700275421143 -0.12473700195550919 0.031088000163435936
v -0.049258001148700714 -0.09915799647569656 0.025412999093532562
v -0.0465410016477108 -0.09812899678945541 0.025537999346852303
v -0.05417000129818916 -0.10480999946594238 0.01986199989914894
v -0.05620000138878822 -0.10607399791479111 0.019284000620245934
v -0.0631520003080368 -0.10654900223016739 0.020163999870419502
v -0.052115000784397125 -0.10180199891328812 0.02283100038766861
v -0.06818000227212906 -0.10571400076150894 0.024328000843524933
v -0.0646120011806488 -0.09138499945402145 0.03342200070619583
v -0.042876001447439194 -0.09802500158548355 0.02532700076699257
v -0.047217000275850296 -0.09294299781322479 0.026048000901937485
v -0.04228600114583969 -0.09766799956560135 0.024813000112771988
v -0.04954100027680397 -0.09180600196123123 0.025157000869512558
v -0.0494219996035099 0.01180300023406744 0.11480800062417984
v -0.05984099954366684 0.012788999825716019 0.10929100215435028
v -0.06927599757909775 0.01489999983459711 0.10257700085639954
v -0.12430000305175781 0.012536999769508839 0.059491999447345734
v -0.0904960036277771 0.04023599997162819 0.08388999849557877
v -0.12273000180721283 -0.028781000524759293 0.06888499855995178
v -0.14582599699497223 -0.026311999186873436 0.05867899954319
v -0.14422300457954407 -0.03122599981725216 0.056898001581430435
v -0.12740199267864227 -0.030324000865221024 0.06723199784755707
v -0.1310569941997528 -0.005115999840199947 0.06036999821662903
v -0.04998999834060669 -0.0955599993467331 0.013566999696195126
v -0.07027500122785568 -0.10369999706745148 0.02592100016772747
v -0.06874799728393555 -0.10326199978590012 0.02013400010764599
v -0.05872499942779541 -0.09928800165653229 0.012651000171899796
v -0.052928000688552856 -0.09679800271987915 0.013086000457406044
v -0.12026999890804291 -0.029214000329375267 0.05638600140810013
v -0.11372199654579163 -0.02370299957692623 0.053171999752521515
v -0.1096239984035492 -0.029884999617934227 0.058437999337911606
v -0.10867899656295776 -0.016050999984145164 0.05502599850296974
v -0.10148599743843079 -0.006200999952852726 0.052411999553442
v -0.09645500034093857 -0.01001800037920475 0.05602499842643738
v -0.09606000036001205 -0.0005409999866969883 0.06105500087141991
v -0.05663999915122986 0.025735000148415565 0.1025179997086525
v -0.0930669978260994 0.016481000930070877 0.07012999802827835
v -0.09341300278902054 0.032186999917030334 0.06878200173377991
v -0.06648100167512894 0.039468999952077866 0.09533900022506714
v -0.061817001551389694 0.03615700080990791 0.10078399628400803
v -0.024279000237584114 -0.013605000451207161 0.11824200302362442
v -0.027736999094486237 -0.02338000014424324 0.11560600250959396
v -0.02958800084888935 0.008870000019669533 0.11937899887561798
v -0.03446400165557861 -0.026398999616503716 0.10563600063323975
v -0.032340001314878464 -0.025772999972105026 0.11042799800634384
v -0.029969999566674232 -0.024630000814795494 0.11494400352239609
v -0.03635599836707115 -0.0299880001693964 0.1007390022277832
v -0.04967699944972992 0.025916000828146935 0.10722099989652634
v -0.04114999994635582 0.031252000480890274 0.11761900037527084
v -0.036789000034332275 -0.029596000909805298 0.1017640009522438
v -0.03623500093817711 -0.02300100028514862 0.11110000312328339
v -0.04093800112605095 -0.006661999970674515 0.11537999659776688
v -0.035057999193668365 -0.019372999668121338 0.11867199838161469
v -0.03981800004839897 0.007182000204920769 0.12072200328111649
v -0.11857199668884277 -0.028686000034213066 0.060763001441955566
v -0.1227869987487793 -0.07180800288915634 0.057133998721838
v -0.12183599919080734 -0.08357200026512146 0.056439999490976334
v -0.12257599830627441 -0.08141600340604782 0.052990999072790146
v -0.12535999715328217 -0.08125899732112885 0.048611000180244446
v -0.12483900040388107 -0.08212699741125107 0.04659799858927727
v -0.13431400060653687 -0.11860000342130661 0.05249100178480148
v -0.13273899257183075 -0.11179400235414505 0.06149600073695183
v -0.13325700163841248 -0.122980996966362 0.05038600042462349
v -0.12878499925136566 -0.13302099704742432 0.04420199990272522
v -0.13037000596523285 -0.13027800619602203 0.04634299874305725
v -0.1169620007276535 -0.12977400422096252 0.03013000078499317
v -0.12465199828147888 -0.13651500642299652 0.03934299945831299
v -0.10946299880743027 -0.13192999362945557 0.02329299971461296
v -0.12936800718307495 -0.07140299677848816 0.0473099984228611
v -0.1291169971227646 -0.0735509991645813 0.04866399988532066
v -0.12960200011730194 -0.07373599708080292 0.04697300121188164
v -0.12950000166893005 -0.07498999685049057 0.04467900097370148
v -0.12922899425029755 -0.07614000141620636 0.046114999800920486
v -0.1285180002450943 -0.0784510001540184 0.043209999799728394
v -0.127920001745224 -0.0798489972949028 0.04494199901819229
v -0.09161999821662903 -0.11943399906158447 0.03127700090408325
v -0.08852499723434448 -0.11917699873447418 0.025750000029802322
v -0.0922669991850853 -0.12248899787664413 0.02222900092601776
v -0.09478700160980225 -0.11918400228023529 0.03176400065422058
v -0.09532800316810608 -0.12306399643421173 0.02857399918138981
v -0.09906300157308578 -0.13650399446487427 0.026866000145673752
v -0.10525300353765488 -0.14032499492168427 0.02679000049829483
v -0.1133899986743927 -0.13579200208187103 0.02975500002503395
v -0.1098800003528595 -0.13930200040340424 0.028077000752091408
v -0.10486599802970886 -0.13378599286079407 0.030455000698566437
v -0.097850002348423 -0.1292569935321808 0.027011999860405922
v -0.09675700217485428 -0.12654300034046173 0.027442999184131622
v -0.13137400150299072 -0.12683899700641632 0.054003000259399414
v -0.12903599441051483 -0.131398007273674 0.0479619987308979
v -0.04598399996757507 -0.10042600333690643 0.024751000106334686
v -0.04943700134754181 -0.1011509969830513 0.023344000801444054
v -0.04336100071668625 -0.1003979966044426 0.024383999407291412
v -0.05379299819469452 -0.10889499634504318 0.01567699946463108
v -0.052000001072883606 -0.10738500207662582 0.016631999984383583
v -0.051530998200178146 -0.10426399856805801 0.020263999700546265
v -0.05627499893307686 -0.10998299717903137 0.015154000371694565
v -0.06644300371408463 -0.10860200226306915 0.018936999142169952
v -0.06312599778175354 -0.10983800143003464 0.017281999811530113
v -0.06630200147628784 -0.11820200085639954 0.008173000067472458
v -0.07009100168943405 -0.10945799946784973 0.02188500016927719
v -0.04083999991416931 -0.09944800287485123 0.02287600003182888
v -0.0455470010638237 -0.09549299627542496 0.02299799956381321
v -0.04236000031232834 -0.09615900367498398 0.010099999606609344
v -0.04632199928164482 0.033980999141931534 0.13055400550365448
v -0.03880700096487999 0.019152000546455383 0.1320279985666275
v -0.044082000851631165 0.029152000322937965 0.13112899661064148
v -0.050353001803159714 0.040605999529361725 0.1288820058107376
v -0.05823700129985809 0.053286001086235046 0.11769700050354004
v -0.05306499823927879 0.04548700153827667 0.1246739998459816
v -0.06854400038719177 0.05887899920344353 0.10870099812746048
v -0.0791810005903244 0.041322000324726105 0.0971279963850975
v -0.10775499790906906 0.040525998920202255 0.06952200084924698
v -0.12310300022363663 0.03449999913573265 0.06037899851799011
v -0.13652700185775757 0.017172999680042267 0.053268998861312866
v -0.08853299915790558 0.04646899923682213 0.08716300129890442
v -0.09032899886369705 0.04949700087308884 0.08430899679660797
v -0.0955279991030693 0.0488010011613369 0.08054900169372559
v -0.10662099719047546 0.04839299991726875 0.0723629966378212
v -0.1401350051164627 -0.004608000162988901 0.05436500161886215
v -0.15125800669193268 -0.029996000230312347 0.051837000995874405
v -0.15660600364208221 -0.01256799977272749 0.051277998834848404
v -0.15493400394916534 -0.023916000500321388 0.05379899963736534
v -0.1557130068540573 -0.026010999456048012 0.05061599984765053
v -0.14870400726795197 0.0018729999428614974 0.04913699999451637
v -0.14279499650001526 -0.031321000307798386 0.0535850003361702
v -0.04975099861621857 -0.09790600091218948 0.0029319999739527702
v -0.05626500025391579 -0.10104800015687943 0.0021470000501722097
v -0.07220800220966339 -0.11091600358486176 0.014131000265479088
v -0.07116600126028061 -0.10758200287818909 0.023705000057816505
v -0.06758999824523926 -0.11307699978351593 0.00025599999935366213
v -0.1290159970521927 -0.027233999222517014 0.049247998744249344
v -0.14023399353027344 -0.027628999203443527 0.04761999845504761
v -0.12225600332021713 -0.02691599912941456 0.05132099986076355
v -0.14824500679969788 -0.030417999252676964 0.050432998687028885
v -0.11557099968194962 -0.02163900062441826 0.054919999092817307
v -0.11309300363063812 -0.017938999459147453 0.05562499910593033
v -0.11083000153303146 -0.01321099977940321 0.056412000209093094
v -0.10750199854373932 -0.007763000205159187 0.05536400154232979
v -0.10034800320863724 -0.0008009999874047935 0.053661998361349106
v -0.10383299738168716 -0.004164999816566706 0.0539340004324913
v -0.09826800227165222 0.00817199982702732 0.05583300068974495
v -0.05090700089931488 0.03809899836778641 0.10780400037765503
v -0.055573999881744385 0.04753800109028816 0.10429300367832184
v -0.09975200146436691 0.017483999952673912 0.057666998356580734
v -0.10013200342655182 0.024776000529527664 0.0640999972820282
v -0.0989300012588501 0.013752000406384468 0.057130999863147736
v -0.10398100316524506 0.03529300168156624 0.05907699838280678
v -0.10501199960708618 0.03841499984264374 0.056099001318216324
v -0.0986580029129982 0.0528159998357296 0.06344199925661087
v -0.06356199830770493 0.05383799970149994 0.09618999809026718
v -0.025018999353051186 -0.000012000000424450263 0.12256799638271332
v -0.026263000443577766 -0.01714099943637848 0.12026599794626236
v -0.025157000869512558 -0.0031950001139193773 0.12389300018548965
v -0.03170999884605408 0.017280999571084976 0.12633800506591797
v -0.03497900068759918 -0.024623999372124672 0.11108499765396118
v -0.0343099981546402 -0.02331100031733513 0.11619599908590317
v -0.04781600087881088 0.03513500094413757 0.11067300289869308
v -0.037487998604774475 0.0319180004298687 0.12220499664545059
v -0.03551299870014191 -0.022027000784873962 0.11526799947023392
v -0.031582001596689224 0.0021349999587982893 0.12774799764156342
v -0.03212299942970276 -0.016551999375224113 0.1230510026216507
v -0.12813599407672882 -0.07868299633264542 0.047157999128103256
v -0.10139299929141998 -0.13264499604701996 0.01990699954330921
v -0.1084970012307167 -0.13968700170516968 0.02609900012612343
v -0.09651599824428558 -0.12660600244998932 0.020363999530673027
v -0.1289689987897873 -0.07781899720430374 0.04495399817824364
v -0.09104999899864197 -0.12021099776029587 0.02996000088751316
v -0.08770299702882767 -0.12011200189590454 0.029563000425696373
v -0.08202199637889862 -0.11715500056743622 0.023174000903964043
v -0.08803500235080719 -0.11991000175476074 0.01903899945318699
v -0.09062600135803223 -0.12049800157546997 0.02861100062727928
v -0.09184999763965607 -0.1237419992685318 0.02709300071001053
v -0.0850830003619194 -0.13282300531864166 0.022770000621676445
v -0.09300799667835236 -0.13752800226211548 0.021695999428629875
v -0.08677300065755844 -0.12523099780082703 0.02332399971783161
v -0.0852150022983551 -0.12457600235939026 0.022789999842643738
v -0.09375099837779999 -0.1297069936990738 0.025415999814867973
v -0.09286999702453613 -0.12699100375175476 0.025784999132156372
v -0.04351700097322464 -0.10157600045204163 0.023680999875068665
v -0.046250998973846436 -0.10210900008678436 0.023053999990224838
v -0.04964499920606613 -0.10318200290203094 0.021268999204039574
v -0.041492000222206116 -0.10155799984931946 0.022787999361753464
v -0.05350299924612045 -0.112574003636837 0.010912000201642513
v -0.05182399973273277 -0.11079800128936768 0.012128000147640705
v -0.05012400075793266 -0.10618700087070465 0.017680000513792038
v -0.05708400160074234 -0.11333800107240677 0.01208799984306097
v -0.06963499635457993 -0.12008299678564072 0.0007319999858736992
v -0.05910100042819977 -0.11909600347280502 0.006004999857395887
v -0.07036100327968597 -0.11520600318908691 0.015541000291705132
v -0.07085999846458435 -0.11930699646472931 0.012575999833643436
v -0.05983300134539604 -0.11852999776601791 0.007493000011891127
v -0.05528099834918976 -0.11525099724531174 0.009289000183343887
v -0.07116399705410004 -0.12062899768352509 0.005001000128686428
v -0.0725260004401207 -0.12154600024223328 0.010409999638795853
v -0.07060399651527405 -0.11407600343227386 0.017109999433159828
v -0.0723470002412796 -0.11196599900722504 0.02185700088739395
v -0.04032199829816818 -0.1010499969124794 0.01996600069105625
v -0.041095998138189316 -0.09755200147628784 0.010359999723732471
v -0.04431099817156792 -0.09814099967479706 0.003189000068232417
v -0.04348300024867058 0.03218400105834007 0.13162599503993988
v -0.04406899958848953 0.03770900145173073 0.1303669959306717
v -0.04836399853229523 0.04018599912524223 0.12969599664211273
v -0.0355909988284111 0.016733000054955482 0.13177399337291718
v -0.037370000034570694 0.025140000507235527 0.12899300456047058
v -0.03939500078558922 0.03117300011217594 0.12950299680233002
v -0.05083300173282623 0.0468050017952919 0.12483300268650055
v -0.055782001465559006 0.05593499913811684 0.1159529983997345
v -0.06562799960374832 0.06124899908900261 0.1077980026602745
v -0.07266499847173691 0.06297200173139572 0.10201100260019302
v -0.08233299851417542 0.05785899981856346 0.09580200165510178
v -0.08741500228643417 0.06403099745512009 0.08911100029945374
v -0.08582799881696701 0.05180300027132034 0.09048300236463547
v -0.13972599804401398 0.04211200028657913 0.05242700129747391
v -0.12836800515651703 0.050887998193502426 0.05837000161409378
v -0.14828599989414215 0.03435499966144562 0.04728800058364868
v -0.154556006193161 0.018849000334739685 0.04714300110936165
v -0.09588199853897095 0.054076001048088074 0.08085700124502182
v -0.09991499781608582 0.05268000066280365 0.07750000059604645
v -0.10158500075340271 0.06277000159025192 0.07684300094842911
v -0.11096499860286713 0.05903799831867218 0.07034099847078323
v -0.1544010043144226 -0.02741999924182892 0.04811999946832657
v -0.1581439971923828 -0.018914999440312386 0.05149700120091438
v -0.15848100185394287 -0.009662000462412834 0.04968800023198128
v -0.158610999584198 -0.0006549999816343188 0.04819599911570549
v -0.1582459956407547 -0.022763999179005623 0.04706500098109245
v -0.04325300082564354 -0.10137499868869781 0.000666000007186085
v -0.07419099658727646 -0.11211100220680237 0.022786999121308327
v -0.07252199947834015 -0.11419200152158737 0.009335000067949295
v -0.07355999946594238 -0.11376100033521652 0.01432000007480383
v -0.050939999520778656 -0.11273399740457535 0.000610999995842576
v -0.06193000078201294 -0.11943899840116501 0.0004400000034365803
v -0.07020899653434753 -0.11962500214576721 0.00006600000051548705
v -0.07214699685573578 -0.11817800253629684 0.0040790000930428505
v -0.13008899986743927 -0.024429000914096832 0.05096700042486191
v -0.1261579990386963 -0.024546999484300613 0.051961999386548996
v -0.1357010006904602 -0.024538999423384666 0.05002399906516075
v -0.14072799682617188 -0.024434000253677368 0.04908699914813042
v -0.14874400198459625 -0.027307000011205673 0.04721299931406975
v -0.12312600016593933 -0.02443300001323223 0.053022999316453934
v -0.11970099806785583 -0.023365000262856483 0.05404999852180481
v -0.1174279972910881 -0.01839499920606613 0.056662000715732574
v -0.11282599717378616 -0.010319000110030174 0.05772100016474724
v -0.10175299644470215 0.0020759999752044678 0.054294999688863754
v -0.10215199738740921 -0.0009500000160187483 0.053769998252391815
v -0.10426300019025803 0.0032510000746697187 0.05517999827861786
v -0.09926100075244904 0.01396000012755394 0.05528099834918976
v -0.10153800249099731 0.010892000049352646 0.05490199849009514
v -0.0460520014166832 0.045928001403808594 0.11125600337982178
v -0.062226999551057816 0.05742200091481209 0.09936600178480148
v -0.10010500252246857 0.01789099909365177 0.05603799968957901
v -0.10108000040054321 0.02252800017595291 0.05834899842739105
v -0.1052590012550354 0.032618001103401184 0.05761399865150452
v -0.10736600309610367 0.03385400027036667 0.056561000645160675
v -0.10993299633264542 0.046293001621961594 0.053369998931884766
v -0.10787700116634369 0.05381700024008751 0.05592799931764603
v -0.09974200278520584 0.058076001703739166 0.06334900110960007
v -0.09292999655008316 0.0602790005505085 0.07100799679756165
v -0.07307399809360504 0.059119999408721924 0.08822900056838989
v -0.03207800164818764 0.011656999588012695 0.12964700162410736
v -0.027495000511407852 -0.0014979999978095293 0.12591400742530823
v -0.035092998296022415 0.01843699999153614 0.13145799934864044
v -0.038137998431921005 0.031129000708460808 0.12863899767398834
v -0.043056000024080276 0.03993399813771248 0.11571499705314636
v -0.04159000143408775 0.039604999125003815 0.12734399735927582
v -0.10188499838113785 -0.1383489966392517 0.02247600071132183
v -0.08980599790811539 -0.12861399352550507 0.016544999554753304
v -0.08709000051021576 -0.12084999680519104 0.02697799913585186
v -0.08090800046920776 -0.11779499799013138 0.025940999388694763
v -0.07759500294923782 -0.11499900370836258 0.02229199931025505
v -0.07485699653625488 -0.11473199725151062 0.014488999731838703
v -0.07922100275754929 -0.12142500281333923 0.012167000211775303
v -0.08796600252389908 -0.12405099719762802 0.02550699934363365
v -0.07950600236654282 -0.12896999716758728 0.02092999964952469
v -0.07958599925041199 -0.12482699751853943 0.02082199975848198
v -0.08105000108480453 -0.13222700357437134 0.01773099973797798
v -0.08299999684095383 -0.12155800312757492 0.02339399978518486
v -0.08554299920797348 -0.12277700006961823 0.024302000179886818
v -0.08936700224876404 -0.12636199593544006 0.02429400011897087
v -0.07899300009012222 -0.12251699715852737 0.02077700011432171
v -0.07622499763965607 -0.11865600198507309 0.02001900039613247
v -0.07739099860191345 -0.11685100197792053 0.02374500036239624
v -0.04481000080704689 -0.10317999869585037 0.02164600044488907
v -0.042746998369693756 -0.10273200273513794 0.02185799926519394
v -0.048204001039266586 -0.10372500121593475 0.020052000880241394
v -0.04134700074791908 -0.10218799859285355 0.01876699924468994
v -0.050172001123428345 -0.11066699773073196 0.010716999880969524
v -0.04925199970602989 -0.11111599951982498 0.0051460000686347485
v -0.0465800017118454 -0.10682699829339981 0.014700000174343586
v -0.046640001237392426 -0.10464499890804291 0.018993999809026718
v -0.048464998602867126 -0.10913799703121185 0.011920999735593796
v -0.06250400096178055 -0.11999499797821045 0.0009689999860711396
v -0.05931900069117546 -0.11876200139522552 0.001032999949529767
v -0.07168000191450119 -0.11637900024652481 0.016123000532388687
v -0.07323399931192398 -0.1241220012307167 0.017350999638438225
v -0.07449900358915329 -0.11998499929904938 0.009960000403225422
v -0.03999999910593033 -0.09948299825191498 0.009491999633610249
v -0.03935699909925461 -0.10236699879169464 0.010730000212788582
v -0.041064999997615814 -0.10048600286245346 0.0017140000127255917
v -0.045239999890327454 0.04580499976873398 0.1234240010380745
v -0.05320100113749504 0.05648599937558174 0.11305099725723267
v -0.05709400027990341 0.05653899908065796 0.10521099716424942
v -0.0849120020866394 0.06536299735307693 0.09039299935102463
v -0.08150099962949753 0.06460700184106827 0.08853200078010559
v -0.07023400068283081 0.0624070018529892 0.09912999719381332
v -0.09104300290346146 0.06409300118684769 0.08571899682283401
v -0.13286300003528595 0.046831000596284866 0.053266000002622604
v -0.13941699266433716 0.041731998324394226 0.050050999969244
v -0.12611700594425201 0.05154399946331978 0.05724399909377098
v -0.12106399983167648 0.05485900118947029 0.05979499965906143
v -0.11351200193166733 0.0588890016078949 0.06728199869394302
v -0.15687699615955353 0.021273000165820122 0.042132001370191574
v -0.1488180011510849 0.03391899913549423 0.04411900043487549
v -0.15736499428749084 0.02007799968123436 0.04560200124979019
v -0.16007199883460999 0.01256600022315979 0.044610001146793365
v -0.16068199276924133 0.007116000168025494 0.04509599879384041
v -0.11069899797439575 0.059946998953819275 0.06893599778413773
v -0.10303399711847305 0.061170000582933426 0.06678500026464462
v -0.09198399633169174 0.06397999823093414 0.07942599803209305
v -0.09601099789142609 0.06282400339841843 0.07382400333881378
v -0.15330800414085388 -0.02307399921119213 0.045219000428915024
v -0.1596589982509613 -0.01669500023126602 0.04670900106430054
v -0.1591619998216629 -0.010130000300705433 0.04656200110912323
v -0.1593630015850067 -0.0055680000223219395 0.045556001365184784
v -0.15501399338245392 -0.01856599934399128 0.04580700024962425
v -0.15671899914741516 -0.013333000242710114 0.04635699838399887
v -0.040396999567747116 -0.1049560010433197 0.001353000057861209
v -0.07659199833869934 -0.11433900147676468 0.02372400090098381
v -0.13139599561691284 -0.021553000435233116 0.05266200006008148
v -0.12381599843502045 -0.02167700044810772 0.054701000452041626
v -0.14087200164794922 -0.020697999745607376 0.0506649985909462
v -0.1451060026884079 -0.02427699975669384 0.048948001116514206
v -0.14901100099086761 -0.023101000115275383 0.048900000751018524
v -0.15129700303077698 -0.021261999383568764 0.047894999384880066
v -0.11959200352430344 -0.009738000109791756 0.05207499861717224
v -0.1137399971485138 0.0026549999602138996 0.053227998316287994
v -0.1060430034995079 0.008648999966681004 0.05458499863743782
v -0.10182599723339081 0.01964399963617325 0.054806001484394073
v -0.10414300113916397 0.014450999908149242 0.054733000695705414
v -0.1056089997291565 0.01199399959295988 0.05461899936199188
v -0.04592999815940857 0.04752400144934654 0.11591500043869019
v -0.10936299711465836 0.030544999986886978 0.05426900088787079
v -0.10685700178146362 0.027730999514460564 0.055897001177072525
v -0.10637599974870682 0.030175000429153442 0.05565100163221359
v -0.11117199808359146 0.03428100049495697 0.05376100167632103
v -0.11028199642896652 0.03422600030899048 0.05359499901533127
v -0.11429499834775925 0.04546099901199341 0.052390001714229584
v -0.11202099919319153 0.035764001309871674 0.05326699838042259
v -0.11244100332260132 0.03874700143933296 0.05222700163722038
v -0.11342400312423706 0.042854998260736465 0.05203599855303764
v -0.11437699943780899 0.049531999975442886 0.05279000103473663
v -0.11614499986171722 0.05183799937367439 0.05490599945187569
v -0.10917200148105621 0.05889499932527542 0.06256700307130814
v -0.11196199804544449 0.05733500048518181 0.06056800112128258
v -0.10071100294589996 0.059523001313209534 0.06414400041103363
v -0.08416599780321121 -0.12068899720907211 0.025630999356508255
v -0.07690999656915665 -0.12080200016498566 0.019840000197291374
v -0.04490099847316742 -0.1046689972281456 0.018365999683737755
v -0.04266199842095375 -0.10345900058746338 0.016259999945759773
v -0.04539500176906586 -0.10755400359630585 0.008542000316083431
v -0.12974600493907928 0.04592499881982803 0.05112500116229057
v -0.12354400008916855 0.05039500072598457 0.05426099896430969
v -0.14015300571918488 0.03840100020170212 0.046362001448869705
v -0.13589799404144287 0.04162999987602234 0.0484049990773201
v -0.11894900351762772 0.053807999938726425 0.05706600099802017
v -0.15034499764442444 0.027134999632835388 0.04161199927330017
v -0.14619000256061554 0.0340300016105175 0.043877001851797104
v -0.1596820056438446 0.015444000251591206 0.04150399938225746
v -0.15350499749183655 0.02094300091266632 0.03943200036883354
v -0.1622619926929474 0.00827299989759922 0.04189400002360344
v -0.16234299540519714 0.007915999740362167 0.04281400144100189
v -0.1613450050354004 0.0041240002028644085 0.041416000574827194
v -0.1528870016336441 -0.02121799997985363 0.04634400084614754
v -0.1565829962491989 -0.00900499988347292 0.04445800185203552
v -0.15644800662994385 -0.005361999850720167 0.04259499907493591
v -0.1615999937057495 0.001986999996006489 0.03746600076556206
v -0.15459200739860535 -0.015985999256372452 0.046893998980522156
v -0.15425199270248413 -0.01003700029104948 0.046564001590013504
v -0.15479999780654907 -0.013697000220417976 0.048353999853134155
v -0.13273699581623077 -0.011242999695241451 0.0500820018351078
v -0.14191100001335144 -0.010377000086009502 0.04763000085949898
v -0.12539899349212646 -0.010479999706149101 0.05065000057220459
v -0.1494929939508438 -0.017393000423908234 0.05069499835371971
v -0.15246500074863434 -0.018637999892234802 0.04743000119924545
v -0.11878299713134766 0.0021410000044852495 0.05406399816274643
v -0.11079700291156769 0.009929000400006771 0.054267000406980515
v -0.11556199938058853 0.01776600070297718 0.056453000754117966
v -0.10764999687671661 0.022311000153422356 0.0560699999332428
v -0.10413800179958344 0.017311999574303627 0.05462000146508217
v -0.12043700367212296 0.0179469995200634 0.05099799856543541
v -0.11923199892044067 0.045118000358343124 0.0505170002579689
v -0.12180700153112411 0.040522001683712006 0.04737799987196922
v -0.128494992852211 0.03742799907922745 0.04408799856901169
v -0.13845300674438477 0.028752999380230904 0.03947699815034866
v -0.13178299367427826 0.01561100035905838 0.04431099817156792
v -0.13057999312877655 0.041005998849868774 0.046379998326301575
v -0.15443499386310577 0.016827000305056572 0.0374470017850399
v -0.15824399888515472 0.011231999844312668 0.03799299895763397
v -0.14903999865055084 0.012214000336825848 0.03315399959683418
v -0.15254199504852295 0.012505000457167625 0.03466000035405159
v -0.158269003033638 0.008488000370562077 0.03551600128412247
v -0.15403799712657928 -0.00609799986705184 0.04470000043511391
v -0.15293799340724945 -0.004484999924898148 0.043956998735666275
v -0.15741600096225739 0.002337000099942088 0.03558199852705002
v -0.15355899930000305 -0.0002209999947808683 0.039174001663923264
v -0.15251299738883972 -0.002919000107795 0.04192100092768669
v -0.15285100042819977 -0.0018220000201836228 0.04077399894595146
v -0.15627700090408325 0.005297000054270029 0.0344959981739521
v -0.15288099646568298 -0.01406100019812584 0.05035100132226944
v -0.15009500086307526 -0.004164999816566706 0.04525800049304962
v -0.13831700384616852 -0.006976000033318996 0.049111999571323395
v -0.13396699726581573 -0.005913999862968922 0.05090399831533432
v -0.13840100169181824 -0.00456599984318018 0.04938200116157532
v -0.1268640011548996 0.004985000006854534 0.045813001692295074
v -0.12725800275802612 0.03943200036883354 0.04500500112771988
v -0.14583800733089447 0.008108999580144882 0.03715600073337555
v -0.14935800433158875 0.0014669999945908785 0.03922199830412865
v -0.154680997133255 0.013499000109732151 0.03571400046348572
v -0.1519400030374527 0.009835000149905682 0.033904001116752625
v -0.15477800369262695 0.010789000429213047 0.034671999514102936
v -0.15510599315166473 0.008163999766111374 0.03409299999475479
v -0.15414899587631226 0.002518000081181526 0.0365849994122982
v -0.14230799674987793 -0.0035069999285042286 0.0480940006673336
f 1 2 3
f 4 1 3
f 5 2 1
f 1 4 5
f 2 6 3
f 7 8 2
f 6 2 8
f 5 7 2
f 4 3 9
f 9 3 10
f 10 3 6
f 11 4 12
f 4 9 12
f 11 5 4
f 7 5 13
f 14 13 5
f 15 14 5
f 15 5 11
f 10 6 16
f 6 17 16
f 17 6 8
f 13 18 7
f 19 20 7
f 19 7 18
f 7 21 8
f 20 22 7
f 21 7 22
f 23 8 21
f 23 17 8
f 9 24 12
f 9 10 24
f 24 10 25
f 25 10 16
f 26 27 11
f 27 15 11
f 12 26 11
f 28 12 24
f 26 12 28
f 13 14 18
f 14 15 29
f 18 14 30
f 14 29 30
f 29 15 27
f 16 31 25
f 17 31 16
f 23 32 17
f 17 32 31
f 18 30 33
f 33 19 18
f 34 19 33
f 19 34 20
f 20 35 22
f 20 34 35
f 22 36 21
f 21 37 23
f 36 37 21
f 38 36 22
f 38 22 35
f 23 39 32
f 37 39 23
f 28 24 40
f 24 25 40
f 25 31 41
f 40 25 41
f 42 27 26
f 26 43 44
f 26 28 45
f 44 42 26
f 46 26 47
f 45 47 26
f 26 46 43
f 42 29 27
f 48 28 49
f 50 45 28
f 40 49 28
f 50 28 48
f 30 29 51
f 42 52 29
f 52 53 29
f 53 54 29
f 54 51 29
f 55 33 30
f 51 55 30
f 32 56 31
f 31 56 57
f 57 58 31
f 41 31 58
f 56 32 39
f 33 59 34
f 60 59 33
f 33 55 60
f 59 35 34
f 35 61 38
f 62 61 35
f 59 62 35
f 36 63 37
f 63 36 38
f 64 65 37
f 39 37 65
f 37 63 66
f 37 66 64
f 38 66 63
f 61 66 38
f 65 67 39
f 39 67 56
f 40 68 49
f 68 40 41
f 69 68 41
f 58 69 41
f 42 44 70
f 70 52 42
f 71 70 43
f 44 43 70
f 43 72 71
f 46 72 43
f 47 45 73
f 73 45 74
f 50 74 45
f 75 46 76
f 76 46 77
f 77 46 47
f 46 75 72
f 73 78 47
f 77 47 78
f 48 79 50
f 49 80 48
f 80 79 48
f 81 49 68
f 80 49 81
f 82 74 50
f 82 50 79
f 51 54 83
f 84 85 51
f 85 86 51
f 55 51 86
f 83 84 51
f 87 88 52
f 53 52 88
f 87 52 71
f 52 70 71
f 88 54 53
f 83 54 88
f 55 86 60
f 56 67 89
f 90 57 56
f 89 90 56
f 57 91 58
f 92 91 57
f 57 90 92
f 93 69 58
f 91 94 58
f 58 95 93
f 95 58 94
f 96 59 60
f 62 59 97
f 59 96 98
f 98 97 59
f 85 60 86
f 60 85 96
f 61 99 66
f 99 61 62
f 100 62 101
f 102 99 62
f 102 62 100
f 101 62 97
f 64 66 103
f 104 65 64
f 103 104 64
f 105 106 65
f 67 65 106
f 107 105 65
f 107 65 104
f 66 108 109
f 66 110 103
f 99 108 66
f 66 109 110
f 67 106 89
f 81 68 69
f 111 69 112
f 113 81 69
f 113 69 111
f 112 69 93
f 71 114 87
f 72 114 71
f 72 115 114
f 115 72 116
f 75 116 72
f 117 78 73
f 117 73 74
f 118 74 119
f 118 117 74
f 120 119 74
f 82 120 74
f 116 75 121
f 121 75 76
f 122 123 76
f 76 77 124
f 122 76 124
f 76 123 121
f 124 77 78
f 117 118 78
f 118 125 78
f 124 78 125
f 82 79 80
f 80 126 82
f 81 113 80
f 127 126 80
f 127 80 113
f 82 126 120
f 83 128 84
f 128 83 129
f 88 129 83
f 85 84 130
f 130 84 128
f 85 130 96
f 87 129 88
f 129 87 114
f 90 89 131
f 89 106 132
f 132 131 89
f 90 131 92
f 92 94 91
f 92 131 133
f 92 133 94
f 93 134 112
f 95 135 93
f 135 136 93
f 136 134 93
f 94 137 135
f 135 95 94
f 133 137 94
f 138 96 130
f 138 98 96
f 97 98 139
f 97 139 140
f 97 140 101
f 141 142 98
f 98 138 141
f 98 142 139
f 143 108 99
f 144 99 102
f 143 99 144
f 100 101 145
f 102 100 145
f 146 101 140
f 101 146 147
f 145 101 147
f 144 102 145
f 103 107 104
f 148 103 110
f 103 148 107
f 149 150 105
f 149 105 107
f 105 150 106
f 106 151 132
f 150 151 106
f 152 107 148
f 149 107 152
f 153 109 108
f 153 108 143
f 148 110 109
f 109 153 148
f 111 154 113
f 112 154 111
f 155 154 112
f 156 112 157
f 112 134 157
f 112 156 158
f 112 158 155
f 155 158 113
f 113 158 159
f 159 127 113
f 113 154 155
f 160 114 115
f 160 129 114
f 160 115 161
f 116 161 115
f 162 116 121
f 116 162 161
f 118 119 125
f 120 163 119
f 164 119 163
f 119 164 165
f 119 165 166
f 119 166 125
f 126 163 120
f 167 168 121
f 121 168 162
f 167 121 123
f 123 122 169
f 122 124 170
f 170 169 122
f 123 169 167
f 171 124 166
f 171 170 124
f 125 166 124
f 126 127 163
f 159 164 127
f 164 163 127
f 128 172 130
f 172 128 129
f 129 160 173
f 174 129 173
f 172 129 174
f 130 172 175
f 176 130 175
f 130 176 138
f 131 132 177
f 131 177 133
f 177 132 151
f 133 177 178
f 133 178 137
f 136 157 134
f 136 135 137
f 157 136 179
f 136 137 179
f 179 137 178
f 176 180 138
f 180 181 138
f 138 181 141
f 139 142 182
f 139 182 140
f 140 182 183
f 146 140 183
f 184 141 181
f 141 184 185
f 142 141 185
f 186 187 142
f 185 186 142
f 142 187 188
f 142 188 182
f 153 143 144
f 189 144 145
f 153 144 189
f 145 147 190
f 145 190 191
f 145 191 189
f 192 146 183
f 146 192 147
f 193 147 192
f 194 147 195
f 195 147 193
f 190 147 196
f 147 194 196
f 197 148 153
f 198 148 197
f 148 198 152
f 199 200 149
f 200 150 149
f 199 149 152
f 200 201 150
f 150 201 151
f 177 151 202
f 202 151 201
f 198 203 152
f 152 203 199
f 204 153 189
f 205 153 204
f 205 197 153
f 157 206 156
f 207 156 206
f 208 156 209
f 156 210 158
f 156 208 210
f 209 156 207
f 179 211 157
f 206 157 211
f 159 158 212
f 158 213 212
f 158 210 213
f 159 212 214
f 164 159 214
f 215 216 160
f 160 216 173
f 161 217 160
f 217 215 160
f 161 162 218
f 161 218 217
f 162 219 218
f 220 221 162
f 220 162 168
f 221 219 162
f 164 214 165
f 222 165 214
f 166 165 222
f 166 222 223
f 166 223 171
f 224 225 167
f 168 167 225
f 224 167 226
f 167 227 226
f 228 227 167
f 228 167 169
f 168 229 230
f 231 168 230
f 229 168 232
f 231 233 168
f 168 225 232
f 233 220 168
f 234 228 169
f 169 170 234
f 171 235 170
f 235 234 170
f 236 171 237
f 171 238 235
f 236 239 171
f 238 171 239
f 223 240 171
f 237 171 240
f 172 174 241
f 172 241 175
f 173 216 174
f 242 243 174
f 242 174 216
f 243 241 174
f 244 175 241
f 244 176 175
f 245 246 176
f 176 244 245
f 180 176 246
f 178 177 202
f 178 201 247
f 179 178 211
f 201 178 202
f 211 178 248
f 249 248 178
f 249 178 247
f 180 246 250
f 180 251 181
f 250 252 180
f 252 251 180
f 184 181 253
f 254 253 181
f 254 181 251
f 182 188 183
f 192 183 188
f 186 185 184
f 186 184 255
f 255 184 253
f 256 186 255
f 187 186 256
f 187 256 257
f 257 258 187
f 259 188 187
f 259 187 258
f 259 192 188
f 189 191 204
f 190 196 260
f 260 204 190
f 191 190 204
f 193 192 261
f 261 192 259
f 195 193 261
f 194 262 260
f 196 194 260
f 195 263 194
f 263 262 194
f 195 261 263
f 264 265 197
f 265 198 197
f 264 197 205
f 198 265 203
f 199 266 200
f 266 199 203
f 266 267 200
f 200 267 201
f 268 247 201
f 201 267 268
f 269 203 265
f 266 203 269
f 270 204 271
f 270 205 204
f 260 271 204
f 270 264 205
f 272 206 273
f 206 272 207
f 206 274 273
f 274 206 211
f 275 209 207
f 272 275 207
f 276 210 208
f 277 276 208
f 208 209 277
f 278 209 279
f 275 279 209
f 277 209 278
f 280 213 210
f 281 280 210
f 282 281 210
f 276 282 210
f 211 248 274
f 214 212 213
f 283 214 213
f 280 283 213
f 284 214 285
f 283 285 214
f 214 284 222
f 242 216 215
f 217 286 215
f 242 215 286
f 287 217 218
f 286 217 287
f 287 218 219
f 288 219 221
f 287 219 288
f 220 233 289
f 221 220 290
f 220 289 290
f 290 288 221
f 291 223 222
f 291 222 292
f 284 292 222
f 240 223 291
f 225 224 293
f 294 293 224
f 295 294 224
f 224 226 295
f 296 225 293
f 232 225 296
f 227 297 226
f 295 226 297
f 298 299 227
f 227 300 301
f 301 298 227
f 227 299 297
f 227 228 300
f 302 300 228
f 302 228 234
f 303 304 229
f 303 229 232
f 229 305 230
f 305 229 304
f 306 230 305
f 306 278 230
f 231 230 278
f 231 279 307
f 279 231 278
f 307 308 231
f 233 231 308
f 309 303 232
f 309 232 310
f 232 311 310
f 311 232 296
f 312 233 256
f 257 233 308
f 233 257 256
f 313 289 233
f 312 313 233
f 314 302 234
f 234 235 314
f 315 235 316
f 238 316 235
f 315 314 235
f 317 236 237
f 317 318 236
f 318 239 236
f 237 319 317
f 320 319 237
f 320 237 321
f 322 237 323
f 324 323 237
f 324 237 240
f 321 237 322
f 238 239 316
f 318 325 239
f 326 316 239
f 326 239 325
f 240 291 324
f 327 241 243
f 244 241 328
f 328 241 327
f 242 329 243
f 286 329 242
f 330 243 331
f 332 331 243
f 330 327 243
f 333 243 329
f 243 333 332
f 244 328 245
f 328 334 245
f 334 335 245
f 336 246 245
f 336 245 335
f 246 336 250
f 268 337 247
f 338 247 337
f 249 247 339
f 247 338 339
f 340 341 248
f 274 248 341
f 340 248 339
f 249 339 248
f 342 250 336
f 252 250 343
f 342 343 250
f 344 251 345
f 346 251 344
f 251 347 254
f 348 345 251
f 252 348 251
f 347 251 346
f 252 343 349
f 349 350 252
f 348 252 350
f 351 312 253
f 255 253 312
f 253 254 351
f 254 352 351
f 347 352 254
f 312 256 255
f 257 308 353
f 257 354 258
f 257 353 354
f 258 355 259
f 354 356 258
f 355 258 357
f 258 356 357
f 259 355 261
f 271 260 358
f 358 260 359
f 260 262 359
f 360 361 261
f 361 362 261
f 363 261 362
f 261 363 364
f 364 263 261
f 365 360 261
f 365 261 355
f 359 262 263
f 364 366 263
f 359 263 366
f 264 270 265
f 265 367 368
f 358 367 265
f 358 265 271
f 270 271 265
f 268 269 265
f 368 369 265
f 369 268 265
f 266 269 267
f 268 267 269
f 337 268 369
f 370 371 272
f 370 272 273
f 272 372 275
f 373 372 272
f 371 373 272
f 370 273 274
f 370 274 341
f 279 275 372
f 305 276 277
f 276 304 374
f 276 374 375
f 305 304 276
f 282 276 375
f 277 306 305
f 306 277 278
f 372 307 279
f 280 376 283
f 377 378 280
f 378 376 280
f 280 281 377
f 281 379 377
f 281 282 379
f 282 375 379
f 376 380 283
f 285 283 380
f 284 285 292
f 380 292 285
f 381 329 286
f 286 344 381
f 344 286 346
f 346 286 287
f 346 287 288
f 382 288 290
f 382 346 288
f 290 289 351
f 313 351 289
f 351 382 290
f 324 291 292
f 324 292 383
f 292 380 383
f 384 296 293
f 294 385 293
f 386 384 293
f 385 386 293
f 295 387 294
f 387 385 294
f 388 295 389
f 387 295 388
f 295 390 389
f 295 297 390
f 311 296 384
f 390 297 299
f 298 391 392
f 389 298 393
f 392 393 298
f 389 299 298
f 391 298 394
f 301 394 298
f 390 299 389
f 395 301 300
f 302 396 300
f 395 300 396
f 395 394 301
f 396 302 314
f 303 309 397
f 303 397 304
f 397 398 304
f 398 399 304
f 304 399 374
f 372 400 307
f 307 400 308
f 353 308 400
f 397 309 401
f 402 401 309
f 403 402 309
f 310 403 309
f 404 403 310
f 311 405 310
f 404 310 405
f 311 406 405
f 406 311 386
f 311 384 386
f 313 312 351
f 314 315 407
f 396 314 408
f 407 408 314
f 315 409 410
f 316 409 315
f 410 407 315
f 411 316 326
f 316 411 409
f 412 317 319
f 318 317 412
f 318 412 325
f 319 413 414
f 415 416 319
f 417 413 319
f 418 417 319
f 418 319 419
f 419 319 320
f 319 416 412
f 415 319 420
f 319 414 420
f 321 421 320
f 320 421 419
f 321 422 421
f 322 422 321
f 422 322 423
f 423 322 323
f 392 323 324
f 392 423 323
f 324 383 393
f 324 393 392
f 325 412 424
f 424 411 325
f 411 326 325
f 327 330 425
f 327 425 426
f 328 327 334
f 327 426 334
f 333 329 381
f 427 330 428
f 331 429 330
f 429 428 330
f 430 425 330
f 427 430 330
f 431 429 331
f 331 332 431
f 332 345 431
f 333 345 332
f 432 333 381
f 333 432 345
f 334 426 433
f 334 433 335
f 434 335 435
f 336 335 434
f 433 435 335
f 434 436 336
f 336 436 342
f 437 438 337
f 437 337 369
f 338 337 438
f 338 439 339
f 338 438 439
f 340 339 440
f 441 440 339
f 441 339 439
f 340 440 341
f 341 442 370
f 341 443 444
f 341 444 445
f 445 442 341
f 446 341 440
f 446 443 341
f 447 342 436
f 342 349 343
f 447 349 342
f 345 432 344
f 344 432 381
f 448 431 345
f 348 350 345
f 448 345 350
f 382 352 346
f 347 346 352
f 449 349 450
f 349 449 350
f 451 450 349
f 451 349 447
f 449 448 350
f 351 352 382
f 452 453 353
f 454 452 353
f 453 455 353
f 455 354 353
f 454 353 400
f 456 354 455
f 354 456 457
f 457 458 354
f 356 354 458
f 459 365 355
f 355 357 459
f 356 460 461
f 356 458 460
f 356 461 462
f 356 462 357
f 463 357 462
f 357 463 459
f 358 359 367
f 359 366 367
f 360 464 465
f 464 360 466
f 360 465 361
f 365 466 360
f 361 465 362
f 362 467 363
f 467 362 468
f 465 469 362
f 469 468 362
f 363 470 364
f 470 363 467
f 470 366 364
f 471 472 365
f 466 365 472
f 471 365 459
f 367 366 473
f 470 473 366
f 473 368 367
f 467 368 473
f 474 368 467
f 368 474 369
f 475 369 476
f 369 474 476
f 477 437 369
f 477 369 475
f 371 370 442
f 371 442 445
f 478 373 371
f 445 478 371
f 373 400 372
f 400 373 454
f 478 454 373
f 375 374 479
f 399 479 374
f 379 375 479
f 376 393 380
f 389 393 376
f 389 376 378
f 480 378 377
f 480 377 481
f 377 482 481
f 377 479 482
f 479 377 379
f 480 389 378
f 393 383 380
f 387 388 385
f 388 483 385
f 483 386 385
f 483 406 386
f 481 482 388
f 389 480 388
f 480 481 388
f 483 388 482
f 484 485 391
f 484 391 394
f 392 391 485
f 423 392 485
f 484 394 486
f 487 394 395
f 487 488 394
f 488 486 394
f 489 395 396
f 490 487 395
f 395 489 490
f 408 491 396
f 489 396 491
f 397 401 398
f 401 492 398
f 492 399 398
f 492 493 399
f 399 493 479
f 401 402 492
f 402 403 494
f 402 494 492
f 495 496 403
f 494 403 496
f 495 403 404
f 495 404 497
f 404 405 497
f 497 405 406
f 406 483 498
f 497 406 498
f 407 499 500
f 408 407 501
f 500 501 407
f 410 499 407
f 408 501 491
f 502 410 409
f 411 424 409
f 503 502 409
f 503 409 424
f 410 502 499
f 416 424 412
f 414 413 504
f 413 505 504
f 417 506 413
f 507 413 506
f 413 507 505
f 504 508 414
f 508 420 414
f 415 508 509
f 509 510 415
f 415 510 424
f 415 420 508
f 415 424 416
f 418 490 417
f 489 417 490
f 417 489 506
f 490 418 487
f 418 419 487
f 421 511 419
f 511 512 419
f 487 419 488
f 419 512 488
f 421 422 511
f 484 511 422
f 485 484 422
f 485 422 423
f 510 503 424
f 513 426 425
f 513 425 514
f 430 514 425
f 515 433 426
f 515 426 513
f 428 516 427
f 427 517 518
f 517 427 516
f 427 518 430
f 429 519 428
f 519 516 428
f 429 431 520
f 519 429 521
f 520 521 429
f 518 514 430
f 520 431 522
f 431 448 523
f 522 431 523
f 515 524 433
f 433 524 435
f 435 525 434
f 525 436 434
f 524 525 435
f 436 525 526
f 526 447 436
f 527 438 437
f 528 529 437
f 529 527 437
f 477 528 437
f 527 530 438
f 530 439 438
f 531 439 532
f 533 534 439
f 530 532 439
f 533 439 531
f 441 439 534
f 535 536 440
f 440 536 537
f 535 440 441
f 446 440 537
f 441 538 539
f 534 538 441
f 441 539 540
f 540 541 441
f 535 441 541
f 542 443 446
f 444 443 543
f 443 544 545
f 543 443 546
f 443 545 546
f 443 547 544
f 542 547 443
f 548 444 543
f 444 548 445
f 478 445 548
f 542 446 537
f 447 526 549
f 451 447 550
f 550 447 549
f 448 551 552
f 552 523 448
f 449 551 448
f 449 450 551
f 553 551 450
f 553 450 550
f 450 451 550
f 554 452 555
f 556 452 554
f 452 556 453
f 555 452 557
f 452 454 478
f 548 452 478
f 452 548 557
f 556 558 453
f 453 558 559
f 453 559 455
f 560 561 455
f 559 560 455
f 456 455 561
f 456 562 457
f 562 456 563
f 456 561 563
f 457 562 458
f 460 458 564
f 564 458 562
f 471 459 565
f 463 566 459
f 459 566 565
f 460 567 568
f 569 460 564
f 568 461 460
f 460 569 567
f 570 571 461
f 461 568 570
f 571 572 461
f 461 572 462
f 572 573 462
f 463 462 566
f 573 566 462
f 466 574 464
f 464 575 465
f 575 464 576
f 574 576 464
f 469 465 575
f 466 472 577
f 466 577 574
f 467 578 474
f 473 470 467
f 467 468 578
f 578 468 469
f 575 579 469
f 579 578 469
f 472 471 580
f 565 580 471
f 472 580 581
f 577 472 581
f 474 578 582
f 582 476 474
f 475 476 583
f 477 475 583
f 476 584 583
f 476 579 584
f 476 582 579
f 477 583 528
f 493 585 479
f 585 482 479
f 498 482 585
f 483 482 498
f 486 511 484
f 488 512 486
f 511 486 512
f 491 506 489
f 586 587 491
f 491 501 588
f 587 506 491
f 491 588 586
f 492 494 493
f 493 494 585
f 494 496 585
f 495 497 589
f 589 496 495
f 589 585 496
f 497 498 589
f 589 498 585
f 499 590 591
f 502 590 499
f 591 500 499
f 592 501 500
f 500 591 592
f 593 501 592
f 593 588 501
f 594 590 502
f 502 503 594
f 503 595 594
f 503 510 595
f 596 504 597
f 597 504 505
f 598 504 599
f 504 598 600
f 504 509 508
f 509 504 600
f 596 599 504
f 507 587 505
f 597 505 587
f 587 507 506
f 510 509 601
f 509 600 601
f 601 595 510
f 602 513 603
f 602 515 513
f 513 514 603
f 603 514 604
f 518 604 514
f 602 605 515
f 605 524 515
f 519 606 516
f 517 516 607
f 607 516 606
f 517 607 608
f 517 608 518
f 518 608 604
f 519 609 606
f 609 519 522
f 519 521 522
f 520 522 521
f 522 610 611
f 522 612 613
f 614 615 522
f 615 609 522
f 616 610 522
f 616 522 617
f 613 617 522
f 614 522 611
f 523 612 522
f 618 612 523
f 523 552 619
f 523 619 618
f 620 524 605
f 620 525 524
f 620 526 525
f 526 621 622
f 620 621 526
f 622 549 526
f 529 623 527
f 624 527 623
f 527 624 625
f 530 527 625
f 528 583 626
f 627 528 626
f 628 623 528
f 628 528 627
f 623 529 528
f 629 530 625
f 532 530 629
f 629 531 532
f 630 531 629
f 631 533 531
f 531 630 631
f 632 533 631
f 633 534 533
f 634 633 533
f 632 634 533
f 635 538 534
f 534 633 635
f 535 541 536
f 537 536 636
f 536 541 637
f 536 637 636
f 542 537 547
f 636 638 537
f 639 547 537
f 639 537 638
f 635 539 538
f 634 640 539
f 634 539 635
f 540 539 640
f 540 641 541
f 540 640 641
f 641 642 541
f 643 637 541
f 642 643 541
f 557 543 644
f 543 557 548
f 546 644 543
f 544 645 545
f 646 645 544
f 646 544 647
f 544 547 647
f 545 645 546
f 645 648 546
f 648 644 546
f 639 647 547
f 649 549 622
f 649 550 549
f 553 550 649
f 552 551 650
f 651 551 553
f 650 551 652
f 551 651 652
f 650 619 552
f 553 653 654
f 553 649 653
f 654 655 553
f 651 553 656
f 655 656 553
f 554 657 658
f 554 658 556
f 554 555 659
f 554 659 657
f 660 659 555
f 660 555 661
f 557 661 555
f 658 662 556
f 556 662 663
f 663 558 556
f 644 661 557
f 663 664 558
f 558 664 665
f 558 665 559
f 559 665 560
f 665 561 560
f 563 561 665
f 562 666 564
f 562 563 667
f 667 666 562
f 667 563 665
f 668 564 666
f 569 564 669
f 668 670 564
f 670 669 564
f 565 671 580
f 565 566 671
f 671 566 672
f 573 672 566
f 567 673 674
f 569 669 567
f 669 673 567
f 674 568 567
f 674 675 568
f 568 675 570
f 571 570 675
f 676 571 675
f 677 571 676
f 677 678 571
f 571 678 572
f 679 572 678
f 572 679 680
f 680 573 572
f 672 573 681
f 680 681 573
f 577 682 574
f 576 574 682
f 575 584 579
f 683 584 575
f 576 683 575
f 576 682 683
f 684 682 577
f 684 577 685
f 581 685 577
f 579 582 578
f 686 580 671
f 686 581 580
f 685 581 687
f 686 687 581
f 682 626 583
f 584 683 583
f 683 682 583
f 688 587 586
f 688 586 597
f 689 597 586
f 588 593 586
f 586 593 689
f 688 597 587
f 591 590 594
f 690 591 594
f 591 690 691
f 691 592 591
f 592 691 692
f 592 692 593
f 593 692 650
f 693 593 650
f 694 689 593
f 593 693 694
f 594 595 690
f 695 690 595
f 695 595 601
f 696 697 596
f 596 597 698
f 596 698 696
f 599 596 697
f 597 689 698
f 699 700 598
f 598 701 600
f 598 700 701
f 599 699 598
f 599 702 703
f 699 599 704
f 703 704 599
f 599 697 702
f 601 600 701
f 701 695 601
f 602 603 705
f 706 605 602
f 706 602 705
f 603 604 707
f 603 707 705
f 707 604 608
f 706 708 605
f 620 605 708
f 607 606 709
f 710 709 606
f 710 606 615
f 615 606 609
f 607 711 712
f 607 709 713
f 712 707 607
f 707 608 607
f 713 711 607
f 714 611 610
f 610 655 714
f 616 656 610
f 655 610 656
f 611 715 615
f 614 611 615
f 714 715 611
f 716 613 612
f 716 612 618
f 613 716 717
f 617 613 698
f 717 698 613
f 710 615 653
f 653 615 715
f 617 718 616
f 656 616 718
f 698 694 617
f 718 617 694
f 618 619 716
f 716 619 703
f 619 650 704
f 619 704 703
f 719 621 620
f 620 708 720
f 620 720 719
f 622 621 719
f 721 622 719
f 622 721 649
f 624 623 687
f 623 628 687
f 722 625 624
f 624 687 722
f 722 629 625
f 684 626 682
f 626 684 627
f 627 685 628
f 684 685 627
f 687 628 685
f 722 630 629
f 630 723 631
f 723 630 722
f 631 724 632
f 724 631 723
f 725 634 632
f 632 726 725
f 726 632 727
f 724 727 632
f 633 634 635
f 725 728 634
f 728 642 634
f 634 642 640
f 637 729 636
f 636 730 638
f 730 636 729
f 731 729 637
f 731 637 732
f 733 732 637
f 643 733 637
f 734 638 735
f 736 638 734
f 735 638 730
f 736 639 638
f 737 639 736
f 738 639 737
f 639 738 647
f 641 640 642
f 739 643 642
f 740 739 642
f 728 741 642
f 742 740 642
f 742 642 741
f 739 733 643
f 648 743 644
f 644 743 661
f 645 646 744
f 648 645 744
f 744 646 745
f 746 745 646
f 746 646 647
f 738 746 647
f 747 648 748
f 748 648 744
f 743 648 747
f 653 649 749
f 721 749 649
f 750 704 650
f 693 650 652
f 692 750 650
f 651 656 693
f 651 693 652
f 710 653 749
f 654 653 715
f 715 714 654
f 655 654 714
f 718 693 656
f 657 659 751
f 657 751 752
f 657 752 658
f 658 752 662
f 753 751 659
f 753 659 660
f 660 661 754
f 753 660 754
f 754 661 755
f 743 756 661
f 756 755 661
f 662 752 664
f 662 664 663
f 757 664 752
f 664 757 665
f 668 666 665
f 667 665 666
f 668 665 758
f 758 665 757
f 668 759 670
f 668 758 759
f 669 670 673
f 760 673 670
f 761 760 670
f 761 670 762
f 759 762 670
f 763 671 724
f 763 687 671
f 686 671 687
f 672 724 671
f 724 672 727
f 681 726 672
f 726 727 672
f 674 673 760
f 674 760 675
f 675 764 676
f 760 765 675
f 766 764 675
f 766 675 765
f 676 767 677
f 768 767 676
f 768 676 764
f 769 678 677
f 770 771 677
f 769 677 772
f 677 771 772
f 770 677 767
f 773 774 678
f 678 775 679
f 776 775 678
f 776 678 774
f 773 678 769
f 679 775 777
f 679 777 680
f 680 726 681
f 741 726 680
f 742 741 680
f 742 680 740
f 740 680 777
f 722 687 763
f 694 698 689
f 778 691 690
f 690 695 778
f 691 778 750
f 750 692 691
f 694 693 718
f 695 701 700
f 695 700 778
f 696 698 717
f 697 696 779
f 717 779 696
f 702 697 779
f 699 778 700
f 699 704 778
f 702 779 703
f 716 703 779
f 704 750 778
f 705 712 780
f 705 780 706
f 705 707 712
f 706 780 781
f 706 781 708
f 708 781 720
f 710 782 709
f 713 709 782
f 749 782 710
f 781 711 782
f 780 711 781
f 713 782 711
f 780 712 711
f 717 716 779
f 720 721 719
f 749 720 781
f 720 749 721
f 722 763 723
f 724 723 763
f 741 728 725
f 741 725 726
f 729 783 730
f 731 784 729
f 784 783 729
f 730 785 735
f 786 785 730
f 786 730 783
f 784 731 732
f 787 732 776
f 784 732 787
f 733 776 732
f 739 775 733
f 775 776 733
f 788 734 789
f 734 790 736
f 734 791 790
f 791 734 788
f 735 789 734
f 789 735 785
f 790 737 736
f 790 792 737
f 793 737 792
f 793 738 737
f 746 738 794
f 793 794 738
f 740 775 739
f 740 777 775
f 747 795 743
f 756 743 795
f 744 745 748
f 748 745 796
f 745 746 796
f 796 746 797
f 746 794 798
f 746 798 797
f 748 799 747
f 799 795 747
f 800 801 748
f 748 801 799
f 748 796 800
f 782 749 781
f 751 802 752
f 753 803 751
f 802 751 803
f 804 757 752
f 804 752 802
f 753 755 805
f 803 753 805
f 754 755 753
f 756 805 755
f 805 756 806
f 756 795 806
f 758 757 807
f 804 807 757
f 759 758 808
f 807 809 758
f 758 809 808
f 759 808 762
f 810 765 760
f 811 760 761
f 760 811 810
f 811 761 808
f 761 762 808
f 812 764 809
f 768 764 812
f 766 809 764
f 766 765 809
f 810 809 765
f 770 767 812
f 768 812 767
f 813 773 769
f 813 769 814
f 769 772 814
f 815 771 770
f 816 815 770
f 817 770 812
f 817 816 770
f 814 772 771
f 814 771 815
f 813 784 773
f 784 774 773
f 787 774 784
f 776 774 787
f 784 813 783
f 818 786 783
f 818 783 813
f 786 815 785
f 789 785 815
f 786 818 815
f 789 816 788
f 791 788 816
f 816 789 815
f 819 790 791
f 820 792 790
f 820 790 819
f 821 791 816
f 791 821 822
f 791 822 819
f 798 793 792
f 823 792 820
f 798 792 823
f 793 798 794
f 799 806 795
f 796 797 824
f 796 824 800
f 825 824 797
f 826 827 797
f 825 797 828
f 829 828 797
f 829 797 827
f 826 797 798
f 823 830 798
f 826 798 830
f 799 831 806
f 801 831 799
f 800 824 832
f 832 831 800
f 831 801 800
f 803 833 802
f 834 802 835
f 802 833 835
f 802 834 804
f 832 803 831
f 832 833 803
f 805 831 803
f 834 807 804
f 805 806 831
f 836 812 807
f 807 812 809
f 807 834 836
f 811 808 809
f 809 810 811
f 812 836 817
f 837 818 813
f 814 837 813
f 837 814 815
f 818 837 815
f 816 817 838
f 821 816 838
f 817 839 838
f 836 839 817
f 840 820 819
f 819 822 840
f 823 820 840
f 841 822 821
f 838 841 821
f 842 840 822
f 842 822 841
f 823 842 843
f 840 842 823
f 823 843 830
f 832 824 825
f 825 828 832
f 844 827 826
f 844 826 830
f 839 827 844
f 829 827 839
f 832 828 839
f 829 839 828
f 838 830 843
f 844 830 838
f 832 845 833
f 832 839 845
f 835 833 845
f 836 834 835
f 835 845 836
f 839 836 845
f 844 838 839
f 838 843 841
f 843 842 841
