# Generated by Visualization Toolkit
v -0.08385699987411499 -0.06652399897575378 -0.05577100068330765
v -0.07925499975681305 -0.05954999849200249 -0.06647799909114838
v -0.08642199635505676 -0.06442400068044662 -0.05871399864554405
v -0.08654099702835083 -0.06814900040626526 -0.05498100072145462
v -0.07761800289154053 -0.06787200272083282 -0.054662998765707016
v -0.08678600192070007 -0.05920900031924248 -0.06983400136232376
v -0.07143200188875198 -0.061278000473976135 -0.06625500321388245
v -0.07942800223827362 -0.057034000754356384 -0.07575400173664093
v -0.092009998857975 -0.06773500144481659 -0.05952199921011925
v -0.09111200273036957 -0.06183600053191185 -0.068122997879982
v -0.08536700159311295 -0.0798100009560585 -0.049272000789642334
v -0.091218002140522 -0.07719500362873077 -0.053346000611782074
v -0.07110799849033356 -0.06568200141191483 -0.059863001108169556
v -0.07260099798440933 -0.07200700044631958 -0.053693000227212906
v -0.07750000059604645 -0.07756199687719345 -0.049619998782873154
v -0.09122999757528305 -0.060989998281002045 -0.07144399732351303
v -0.08528900146484375 -0.05773099884390831 -0.0770139992237091
v -0.06516599655151367 -0.06823399662971497 -0.06314600259065628
v -0.06407500058412552 -0.06534600257873535 -0.07114800065755844
v -0.06104400008916855 -0.06693100184202194 -0.07715699821710587
v -0.07237199693918228 -0.0596579983830452 -0.09066499769687653
v -0.0650779977440834 -0.06274600327014923 -0.08433700352907181
v -0.08231200277805328 -0.059595998376607895 -0.09236399829387665
v -0.09604600071907043 -0.06977500021457672 -0.06298399716615677
v -0.09454099833965302 -0.06349799782037735 -0.07242699712514877
v -0.0805630013346672 -0.09060300141572952 -0.04748300090432167
v -0.07546799629926682 -0.08420100063085556 -0.04927400127053261
v -0.09129299968481064 -0.08114899694919586 -0.0551920011639595
v -0.07082399725914001 -0.08029100298881531 -0.05176699906587601
v -0.06450600177049637 -0.0731780007481575 -0.05986500158905983
v -0.09344399720430374 -0.06346199661493301 -0.09199400246143341
v -0.08553300052881241 -0.06025899946689606 -0.09213399887084961
v -0.059425998479127884 -0.07375899702310562 -0.06888599693775177
v -0.059978000819683075 -0.06890500336885452 -0.07445400208234787
v -0.0603410005569458 -0.06568799912929535 -0.08079800009727478
v -0.06569699943065643 -0.06186699867248535 -0.08721499890089035
v -0.07167799770832062 -0.059032000601291656 -0.09235499799251556
v -0.06396300345659256 -0.06248600035905838 -0.08591300249099731
v -0.07952900230884552 -0.05881800130009651 -0.09444300085306168
v -0.09719599783420563 -0.07175800204277039 -0.06704399734735489
v -0.09696800261735916 -0.06653299927711487 -0.08668699860572815
v -0.07344099879264832 -0.08768200129270554 -0.05044399946928024
v -0.07585900276899338 -0.09334299713373184 -0.04811999946832657
v -0.07601100206375122 -0.09208299964666367 -0.04909300059080124
v -0.08608599752187729 -0.09145499765872955 -0.05997699871659279
v -0.08066800236701965 -0.09204600006341934 -0.04643600061535835
v -0.08279699832201004 -0.09327200055122375 -0.05221199989318848
v -0.09401199966669083 -0.08400800079107285 -0.0681459978222847
v -0.09609100222587585 -0.07969000190496445 -0.07091599702835083
v -0.08743800222873688 -0.09112600237131119 -0.061925001442432404
v -0.05827999860048294 -0.08224300295114517 -0.06501899659633636
v -0.06922700256109238 -0.09193799644708633 -0.05422699823975563
v -0.06410299986600876 -0.09123100340366364 -0.05933399870991707
v -0.06258299946784973 -0.08985999971628189 -0.06074199825525284
v -0.05879899859428406 -0.07767599821090698 -0.06671199947595596
v -0.08636800199747086 -0.06039600074291229 -0.09478799998760223
v -0.09418100118637085 -0.06236900016665459 -0.09285999834537506
v -0.09805800020694733 -0.06561599671840668 -0.08764799684286118
v -0.05851899832487106 -0.06901799887418747 -0.07475399971008301
v -0.05725599825382233 -0.07424800097942352 -0.06958799809217453
v -0.06297499686479568 -0.060892000794410706 -0.08644399791955948
v -0.05802600085735321 -0.06016699969768524 -0.08211600035429001
v -0.06663200259208679 -0.06069200113415718 -0.08931300044059753
v -0.0709260031580925 -0.05750799924135208 -0.09315499663352966
v -0.0792120024561882 -0.057346001267433167 -0.09599599987268448
v -0.06556099653244019 -0.05868300050497055 -0.09010300040245056
v -0.08316700160503387 -0.058386001735925674 -0.09619800001382828
v -0.09803999960422516 -0.07470600306987762 -0.07538100332021713
v -0.09859199821949005 -0.07152900099754333 -0.081325002014637
v -0.07299000024795532 -0.09313700348138809 -0.051075998693704605
v -0.07265199720859528 -0.09383700042963028 -0.05058399960398674
v -0.07708299905061722 -0.09410499781370163 -0.04521699994802475
v -0.08512400090694427 -0.09351400285959244 -0.05679500102996826
v -0.08861800283193588 -0.09351500123739243 -0.06149499863386154
v -0.078916996717453 -0.09378399699926376 -0.044349998235702515
v -0.0861390009522438 -0.09509599953889847 -0.041064999997615814
v -0.08567400276660919 -0.09355399757623672 -0.05066800117492676
v -0.08528299629688263 -0.09323900192975998 -0.05386799946427345
v -0.0947519987821579 -0.08528000116348267 -0.06898300349712372
v -0.0972450003027916 -0.08199799805879593 -0.07195500284433365
v -0.09817100316286087 -0.07596399635076523 -0.07676800340414047
v -0.0941300019621849 -0.09045399725437164 -0.06594300270080566
v -0.05907300114631653 -0.08940500020980835 -0.061608001589775085
v -0.05642800033092499 -0.08305399864912033 -0.06491100043058395
v -0.05663999915122986 -0.07853800058364868 -0.0671359971165657
v -0.0575530007481575 -0.07821600139141083 -0.06721100211143494
v -0.06859400123357773 -0.09346599876880646 -0.05319099873304367
v -0.06340000033378601 -0.09203100204467773 -0.0589510016143322
v -0.08691000193357468 -0.05949600040912628 -0.09590499848127365
v -0.09055899828672409 -0.06074199825525284 -0.09457200020551682
v -0.09662599861621857 -0.06266099959611893 -0.09015200287103653
v -0.09458799660205841 -0.06160299852490425 -0.09239500015974045
v -0.09941399842500687 -0.06783299893140793 -0.08461199700832367
v -0.09757699817419052 -0.06186800077557564 -0.0893310010433197
v -0.09912899881601334 -0.06443700194358826 -0.08701600134372711
v -0.05652499943971634 -0.07357300072908401 -0.06915400177240372
v -0.056474000215530396 -0.05788600072264671 -0.07466399669647217
v -0.0558909997344017 -0.0631679967045784 -0.06725499778985977
v -0.06026899814605713 -0.05763600021600723 -0.09076199680566788
v -0.05441899970173836 -0.057225000113248825 -0.0821089968085289
v -0.05322600156068802 -0.05589200183749199 -0.07931499928236008
v -0.05581999942660332 -0.057771001011133194 -0.08491499722003937
v -0.07037799805402756 -0.0561399981379509 -0.09380800276994705
v -0.07466299831867218 -0.056501999497413635 -0.09507700055837631
v -0.07755299657583237 -0.05082700029015541 -0.09468100219964981
v -0.08204799890518188 -0.05223499983549118 -0.09474299848079681
v -0.07202400267124176 -0.04825099930167198 -0.09400299936532974
v -0.06022299826145172 -0.056026000529527664 -0.09202399849891663
v -0.06067800149321556 -0.05388600006699562 -0.09287899732589722
v -0.06497900187969208 -0.05446000024676323 -0.09323599934577942
v -0.10075300186872482 -0.07204599678516388 -0.07927899807691574
v -0.10043700039386749 -0.07006700336933136 -0.08165500313043594
v -0.10045699775218964 -0.07793399691581726 -0.07447300106287003
v -0.07129599899053574 -0.094821996986866 -0.04905499890446663
v -0.07358399778604507 -0.09396900236606598 -0.044374000281095505
v -0.07825099676847458 -0.09255900233983994 -0.04144600033760071
v -0.0863490030169487 -0.09334100037813187 -0.05622199922800064
v -0.09008800238370895 -0.09311400353908539 -0.05722000077366829
v -0.09580399841070175 -0.09079399704933167 -0.06310900300741196
v -0.09493400156497955 -0.09088999778032303 -0.0648140013217926
v -0.08416099846363068 -0.09122300148010254 -0.03951599821448326
v -0.09292200207710266 -0.099542997777462 -0.04058400169014931
v -0.09519799798727036 -0.09846799820661545 -0.0372919999063015
v -0.09291200339794159 -0.09686700254678726 -0.04571500048041344
v -0.09390600025653839 -0.09613099694252014 -0.05440099909901619
v -0.09705100208520889 -0.08646800369024277 -0.06880699843168259
v -0.09953799843788147 -0.08201300352811813 -0.07176899909973145
v -0.05710599943995476 -0.09051000326871872 -0.05928599834442139
v -0.061034999787807465 -0.09363800287246704 -0.05655200034379959
v -0.05461699888110161 -0.08250799775123596 -0.06313599646091461
v -0.09097900241613388 -0.05970500037074089 -0.09394600242376328
v -0.08462700247764587 -0.05281800031661987 -0.09446900337934494
v -0.09665200114250183 -0.05456800013780594 -0.08965600281953812
v -0.1032399982213974 -0.06335999816656113 -0.08223500102758408
v -0.1002269983291626 -0.06319999694824219 -0.08635199815034866
v -0.10193999856710434 -0.06092299893498421 -0.08509799838066101
v -0.10035199671983719 -0.05826399847865105 -0.08776500076055527
v -0.0529480017721653 -0.06631900370121002 -0.05580100044608116
v -0.05748999863862991 -0.05522200092673302 -0.0704139992594719
v -0.056522998958826065 -0.05502299964427948 -0.07380499690771103
v -0.05638600140810013 -0.05913500115275383 -0.0606129989027977
v -0.05898300185799599 -0.05199100077152252 -0.0663670003414154
v -0.05828100070357323 -0.05517499893903732 -0.09193599969148636
v -0.05594100058078766 -0.05548600107431412 -0.08908499777317047
v -0.05222800001502037 -0.05742400139570236 -0.08619099855422974
v -0.05339999869465828 -0.052786000072956085 -0.07801000028848648
v -0.04800200089812279 -0.05291900038719177 -0.08215499669313431
v -0.06309899687767029 -0.04975400120019913 -0.09331600368022919
v -0.0760359987616539 -0.0467660017311573 -0.09397599846124649
v -0.0801289975643158 -0.04712500050663948 -0.09368299692869186
v -0.08448400348424911 -0.04765599966049194 -0.09209199994802475
v -0.0703430026769638 -0.04484400153160095 -0.09400700032711029
v -0.056210000067949295 -0.051107000559568405 -0.09317400306463242
v -0.10175199806690216 -0.07096599787473679 -0.07891800254583359
v -0.10268600285053253 -0.07007800042629242 -0.07819700241088867
v -0.10594599694013596 -0.06472299993038177 -0.07778000086545944
v -0.10500500351190567 -0.06170399859547615 -0.08067300170660019
v -0.10430700331926346 -0.06870599836111069 -0.07676400244235992
v -0.10129900276660919 -0.08104799687862396 -0.06959600001573563
v -0.06980399787425995 -0.09350299835205078 -0.04513999819755554
v -0.07371500134468079 -0.09023000299930573 -0.04399000108242035
v -0.08148699998855591 -0.0710500031709671 -0.045572999864816666
v -0.09801200032234192 -0.08669000118970871 -0.06759800016880035
v -0.09871400147676468 -0.08637399971485138 -0.06657300144433975
v -0.1015390008687973 -0.09714700281620026 -0.06072299927473068
v -0.09996200352907181 -0.10030700266361237 -0.05536400154232979
v -0.09838499873876572 -0.09525900334119797 -0.037620000541210175
v -0.10299800336360931 -0.07228200137615204 -0.045885998755693436
v -0.0999390035867691 -0.10472399741411209 -0.036166001111269
v -0.09774000197649002 -0.10478399693965912 -0.04081200063228607
v -0.09954699873924255 -0.10177700221538544 -0.050255000591278076
v -0.054632000625133514 -0.0925540030002594 -0.046918999403715134
v -0.06304000318050385 -0.0940679982304573 -0.04716400057077408
v -0.055277999490499496 -0.09465400129556656 -0.04126400128006935
v -0.05179399996995926 -0.09056200087070465 -0.04117799922823906
v -0.052528999745845795 -0.08506400138139725 -0.035944998264312744
v -0.09131500124931335 -0.05043499916791916 -0.09011200070381165
v -0.09306900203227997 -0.04235000163316727 -0.08659899979829788
v -0.1016400009393692 -0.055146001279354095 -0.08625999838113785
v -0.05554400011897087 -0.07613600045442581 -0.03763100132346153
v -0.057799000293016434 -0.06369200348854065 -0.045233000069856644
v -0.05840799957513809 -0.051646001636981964 -0.06975799798965454
v -0.05704899877309799 -0.05207199975848198 -0.07323499768972397
v -0.06431499868631363 -0.0490030013024807 -0.054069001227617264
v -0.058605000376701355 -0.05549899861216545 -0.060926999896764755
v -0.07635500282049179 -0.03660999983549118 -0.05391699820756912
v -0.07826200127601624 -0.034285999834537506 -0.05500999838113785
v -0.060878999531269073 -0.04707400128245354 -0.06885699927806854
v -0.0508200004696846 -0.056630998849868774 -0.08868099749088287
v -0.04798699915409088 -0.05504700168967247 -0.08677799999713898
v -0.04954199865460396 -0.05586500093340874 -0.08821900188922882
v -0.05358999967575073 -0.0490339994430542 -0.07757599651813507
v -0.050099000334739685 -0.04611299932003021 -0.08117400109767914
v -0.041940998286008835 -0.04777999967336655 -0.0852229967713356
v -0.043136000633239746 -0.046535998582839966 -0.0848110020160675
v -0.04444500058889389 -0.0518609993159771 -0.08489800244569778
v -0.05701100081205368 -0.04608599841594696 -0.09527499973773956
v -0.06201599910855293 -0.04347899928689003 -0.09512999653816223
v -0.07420100271701813 -0.04350399971008301 -0.09409400075674057
v -0.07812000066041946 -0.043400999158620834 -0.09398599714040756
v -0.08506099879741669 -0.04323099926114082 -0.09186799824237823
v -0.08957400172948837 -0.04504600167274475 -0.0885550007224083
v -0.06663300096988678 -0.04242200031876564 -0.09519600123167038
v -0.04866399988532066 -0.05505000054836273 -0.0897269994020462
v -0.051913000643253326 -0.04920699819922447 -0.0938669964671135
v -0.10579100251197815 -0.035610001534223557 -0.06879299879074097
v -0.1100659966468811 -0.03678100183606148 -0.06600499898195267
v -0.1153080016374588 -0.05843599885702133 -0.0659710019826889
v -0.11292599886655807 -0.04361899942159653 -0.06502900272607803
v -0.112015001475811 -0.06533599644899368 -0.06848300248384476
v -0.09888699650764465 -0.036423999816179276 -0.08040399849414825
v -0.1043820008635521 -0.08119700103998184 -0.06762800365686417
v -0.10699599981307983 -0.08051799982786179 -0.06541900336742401
v -0.10528799891471863 -0.08992899954319 -0.06421799957752228
v -0.06559500098228455 -0.09257300198078156 -0.042837999761104584
v -0.06429599970579147 -0.0935709998011589 -0.044516000896692276
v -0.06945499777793884 -0.08805199712514877 -0.042174000293016434
v -0.07063999772071838 -0.0817210003733635 -0.04284000024199486
v -0.07250799983739853 -0.07539299875497818 -0.04357500001788139
v -0.07971800118684769 -0.06656099855899811 -0.04695099964737892
v -0.07480499893426895 -0.07003899663686752 -0.04493600130081177
v -0.10522700101137161 -0.10145699977874756 -0.06385800242424011
v -0.1058029979467392 -0.10524699836969376 -0.06187700107693672
v -0.1125589981675148 -0.08428899943828583 -0.04219600185751915
v -0.11544100195169449 -0.08128400146961212 -0.0443900004029274
v -0.11433800309896469 -0.09219300001859665 -0.043313998728990555
v -0.1257459968328476 -0.10850600153207779 -0.04862599819898605
v -0.10341800004243851 -0.10562600195407867 -0.034596998244524
v -0.117747001349926 -0.062283001840114594 -0.05142299830913544
v -0.11375699937343597 -0.056141000241041183 -0.05237000063061714
v -0.10671299695968628 -0.04004000127315521 -0.05796299874782562
v -0.11907999962568283 -0.07490900158882141 -0.044881001114845276
v -0.08985400199890137 -0.0412760004401207 -0.05208100005984306
v -0.10076200217008591 -0.10700099915266037 -0.035234998911619186
v -0.09872599691152573 -0.10981100052595139 -0.03830699995160103
v -0.11063200235366821 -0.12221399694681168 -0.04391999915242195
v -0.1163569986820221 -0.11927200108766556 -0.06085500121116638
v -0.10045000165700912 -0.11094699800014496 -0.04076499864459038
v -0.10784199833869934 -0.11932100355625153 -0.04227900132536888
v -0.11049599945545197 -0.10994900017976761 -0.061691999435424805
v -0.05418799817562103 -0.0936800017952919 -0.03636299818754196
v -0.06319999694824219 -0.09280399978160858 -0.04039499908685684
v -0.06297499686479568 -0.0939679965376854 -0.03244199976325035
v -0.05299999937415123 -0.09210699796676636 -0.03673800081014633
v -0.05037499964237213 -0.09052000194787979 -0.030446000397205353
v -0.05549800023436546 -0.08095400035381317 -0.03427499905228615
v -0.08181499689817429 -0.02891100011765957 -0.08977700024843216
v -0.10048200190067291 -0.023583000525832176 -0.0797950029373169
v -0.0911479964852333 -0.026247000321745872 -0.08478599786758423
v -0.05805699899792671 -0.08317799866199493 -0.03228500112891197
v -0.060851000249385834 -0.08183500170707703 -0.03474399819970131
v -0.062164001166820526 -0.08604100346565247 -0.03172700107097626
v -0.0652879998087883 -0.05178900063037872 -0.050540998578071594
v -0.0663750022649765 -0.06556300073862076 -0.04486199840903282
v -0.07409200072288513 -0.03974900022149086 -0.05248900130391121
v -0.07984799891710281 -0.035319000482559204 -0.05388600006699562
v -0.08435700088739395 -0.03116000071167946 -0.05498100072145462
v -0.08040899783372879 -0.008987000212073326 -0.07577399909496307
v -0.0682160034775734 -0.03178200125694275 -0.07484100013971329
v -0.04037100076675415 -0.04993399977684021 -0.08835600316524506
v -0.0588500015437603 -0.03246400132775307 -0.0848350003361702
v -0.039650000631809235 -0.04472700133919716 -0.08943500369787216
v -0.03992300108075142 -0.04121699929237366 -0.09040500223636627
v -0.05254499986767769 -0.04455399885773659 -0.09591300040483475
v -0.043063998222351074 -0.03649900108575821 -0.09987299889326096
v -0.07210899889469147 -0.04098999872803688 -0.09565100073814392
v -0.0763619989156723 -0.04058400169014931 -0.09589599817991257
v -0.07096700370311737 -0.029373999685049057 -0.09436099976301193
v -0.06379800289869308 -0.040004000067710876 -0.09713000059127808
v -0.046831998974084854 -0.04871499910950661 -0.09427899867296219
v -0.042270999401807785 -0.05031299963593483 -0.09327100217342377
v -0.11370199918746948 -0.03127399832010269 -0.06592100113630295
v -0.11145900189876556 -0.031328000128269196 -0.06915000081062317
v -0.10863900184631348 -0.02723100036382675 -0.07446900010108948
v -0.11090800166130066 -0.03710300102829933 -0.06497400254011154
v -0.11583299934864044 -0.0635640025138855 -0.06390800327062607
v -0.11654800176620483 -0.056901998817920685 -0.06192699819803238
v -0.10943499952554703 -0.038607001304626465 -0.06074199825525284
v -0.10904499888420105 -0.03676600009202957 -0.0610710009932518
v -0.11795499920845032 -0.07878600060939789 -0.05888500064611435
v -0.11689499765634537 -0.07016599923372269 -0.06288299709558487
v -0.11619199812412262 -0.06681700050830841 -0.06386999785900116
v -0.1086760014295578 -0.0846719965338707 -0.06409399956464767
v -0.10695800185203552 -0.0914900004863739 -0.06514400243759155
v -0.11277999728918076 -0.08990400284528732 -0.06713499873876572
v -0.06533300131559372 -0.08576600253582001 -0.03877200186252594
v -0.06916599720716476 -0.07703199982643127 -0.04208799824118614
v -0.07139299809932709 -0.07155299931764603 -0.04363099858164787
v -0.07811199873685837 -0.06372399628162384 -0.04768100008368492
v -0.07317300140857697 -0.06747099757194519 -0.0454539991915226
v -0.10965699702501297 -0.10334199666976929 -0.06506899744272232
v -0.11366800218820572 -0.09639199823141098 -0.06802800297737122
v -0.11590500175952911 -0.08324400335550308 -0.04468899965286255
v -0.1172569990158081 -0.08491899818181992 -0.0462069995701313
v -0.11746600270271301 -0.0872109979391098 -0.04704799875617027
v -0.11935599893331528 -0.08163200318813324 -0.04535900056362152
v -0.11925899982452393 -0.09632600098848343 -0.047970000654459
v -0.12967699766159058 -0.10679300129413605 -0.05698699876666069
v -0.1235790029168129 -0.09975100308656693 -0.05178900063037872
v -0.12313000112771988 -0.11340899765491486 -0.04559199884533882
v -0.12793900072574615 -0.11378700286149979 -0.04843699932098389
v -0.10382600128650665 -0.10819599777460098 -0.03318899869918823
v -0.123819999396801 -0.06724800169467926 -0.046424999833106995
v -0.12471000105142593 -0.06672299653291702 -0.05064300075173378
v -0.11882899701595306 -0.06243300065398216 -0.05592799931764603
v -0.1158050000667572 -0.055417001247406006 -0.05775799974799156
v -0.10578300058841705 -0.0342940017580986 -0.05818299949169159
v -0.09769000113010406 -0.032832998782396317 -0.055181000381708145
v -0.1255819946527481 -0.07260899990797043 -0.04352099820971489
v -0.12683700025081635 -0.07581000030040741 -0.04126400128006935
v -0.1238040030002594 -0.08073899894952774 -0.04295000061392784
v -0.07728800177574158 -0.0442969985306263 -0.05194700136780739
v -0.07668200135231018 -0.06095999851822853 -0.04854400083422661
v -0.09990700334310532 -0.11388999968767166 -0.031150000169873238
v -0.09653300046920776 -0.11703299731016159 -0.03401400148868561
v -0.09906800091266632 -0.11706499755382538 -0.035721998661756516
v -0.1117750033736229 -0.12740199267864227 -0.04067600145936012
v -0.10863400250673294 -0.12374299764633179 -0.038757000118494034
v -0.11443299800157547 -0.13312700390815735 -0.039023999124765396
v -0.12354300171136856 -0.1298079937696457 -0.056970998644828796
v -0.1230819970369339 -0.12590700387954712 -0.06163899973034859
v -0.12441399693489075 -0.12126100063323975 -0.0640840008854866
v -0.11869999766349792 -0.11658100038766861 -0.06373199820518494
v -0.1150439977645874 -0.11028599739074707 -0.06265299767255783
v -0.10421399772167206 -0.12284299731254578 -0.033636000007390976
v -0.10331500321626663 -0.11944100260734558 -0.03658200055360794
v -0.05150400102138519 -0.09715200215578079 -0.02787799946963787
v -0.05148499831557274 -0.09307900071144104 -0.031279999762773514
v -0.06354700028896332 -0.08997000008821487 -0.035930998623371124
v -0.05657599866390228 -0.10069499909877777 -0.02437100000679493
v -0.06464699655771255 -0.09759200364351273 -0.028651999309659004
v -0.0657769963145256 -0.09680099785327911 -0.028901999816298485
v -0.06403599679470062 -0.09213600307703018 -0.03344900161027908
v -0.047961000353097916 -0.09536200016736984 -0.027979999780654907
v -0.04663100093603134 -0.09371499717235565 -0.026948999613523483
v -0.05130700021982193 -0.08841799944639206 -0.028449000790715218
v -0.062105998396873474 -0.0028890001121908426 -0.10342899709939957
v -0.07021400332450867 0.0017940000398084521 -0.09859400242567062
v -0.09169699996709824 0.016094999387860298 -0.08267199993133545
v -0.10825899988412857 -0.005402999930083752 -0.07269400358200073
v -0.12652599811553955 -0.026298999786376953 -0.07009699940681458
v -0.05505000054836273 -0.08925200253725052 -0.027080999687314034
v -0.0592459999024868 -0.08587899804115295 -0.030331000685691833
v -0.0649230033159256 -0.08299200236797333 -0.035794999450445175
v -0.06649400293827057 -0.09544699639081955 -0.029260000213980675
v -0.06709799915552139 -0.0752590000629425 -0.04055500030517578
v -0.06614399701356888 -0.07098300009965897 -0.042371999472379684
v -0.06364099681377411 -0.08908800035715103 -0.031272999942302704
v -0.05924899876117706 -0.09419900178909302 -0.023350000381469727
v -0.0645110011100769 -0.08928799629211426 -0.029983000829815865
v -0.07055900245904922 -0.06327100098133087 -0.04655599966645241
v -0.06868399679660797 -0.06700500100851059 -0.04464399814605713
v -0.10400000214576721 -0.02871599979698658 -0.05662500113248825
v -0.09530600160360336 -0.01985899917781353 -0.054754000157117844
v -0.0675709992647171 -0.00722600007429719 -0.08493799716234207
v -0.08542100340127945 0.009008999913930893 -0.07623899728059769
v -0.07053499668836594 0.018182000145316124 -0.09094999730587006
v -0.038766998797655106 -0.04542599990963936 -0.09618300199508667
v -0.03783499822020531 -0.045228999108076096 -0.09346800297498703
v -0.03274599835276604 -0.009681999683380127 -0.10839200019836426
v -0.032823000103235245 -0.022944999858736992 -0.10369200259447098
v -0.033573001623153687 -0.026504000648856163 -0.10489100217819214
v -0.03609500080347061 -0.029947999864816666 -0.09976600110530853
v -0.037457000464200974 -0.03297799825668335 -0.09687700122594833
v -0.044502001255750656 -0.003607999999076128 -0.09967199712991714
v -0.037622999399900436 -0.032997000962495804 -0.09803000092506409
v -0.03793499991297722 -0.03220900148153305 -0.09977799654006958
v -0.041554998606443405 -0.03166000172495842 -0.10245099663734436
v -0.05201699957251549 -0.015428000129759312 -0.10414499789476395
v -0.11659999936819077 -0.02900799922645092 -0.06821099668741226
v -0.11787299811840057 -0.029506999999284744 -0.06696300208568573
v -0.10971300303936005 -0.03351699933409691 -0.06133100017905235
v -0.11167500168085098 -0.03087799996137619 -0.061911001801490784
v -0.12363900244235992 -0.0693570002913475 -0.05459300056099892
v -0.11951900273561478 -0.06820300221443176 -0.0612730011343956
v -0.1194159984588623 -0.08989399671554565 -0.06395799666643143
v -0.12125299870967865 -0.07811900228261948 -0.05700099840760231
v -0.12034299969673157 -0.08448199927806854 -0.05863099917769432
v -0.1198590025305748 -0.0711819976568222 -0.06091500073671341
v -0.11663000285625458 -0.09149900078773499 -0.06830199807882309
v -0.06430400162935257 -0.08881299942731857 -0.03585699945688248
v -0.07023400068283081 -0.06842999905347824 -0.04433299973607063
v -0.12443500012159348 -0.0993880033493042 -0.06585899740457535
v -0.12160900235176086 -0.08233900368213654 -0.04504900053143501
v -0.12045799940824509 -0.08399099856615067 -0.048151999711990356
v -0.12311899662017822 -0.08242899924516678 -0.04540799930691719
v -0.11992699652910233 -0.08594600111246109 -0.049306001514196396
v -0.1221729964017868 -0.08540699630975723 -0.05190199986100197
v -0.12201300263404846 -0.08953899890184402 -0.057402998208999634
v -0.12139099836349487 -0.09563100337982178 -0.050958000123500824
v -0.13363200426101685 -0.10920699685811996 -0.057172998785972595
v -0.1298149973154068 -0.10406800359487534 -0.06391599774360657
v -0.12706699967384338 -0.09916900098323822 -0.06568499654531479
v -0.130390003323555 -0.1158289983868599 -0.0454539991915226
v -0.12340500205755234 -0.12319499999284744 -0.038885001093149185
v -0.10319799929857254 -0.11420799791812897 -0.029356999322772026
v -0.12682700157165527 -0.06825800240039825 -0.04612300172448158
v -0.12731799483299255 -0.06807299703359604 -0.04814999923110008
v -0.12709100544452667 -0.07045000046491623 -0.04982899874448776
v -0.1073089987039566 -0.03075600042939186 -0.058139998465776443
v -0.12922100722789764 -0.06983199715614319 -0.04612499848008156
v -0.12975400686264038 -0.07131700217723846 -0.045726001262664795
v -0.12946300208568573 -0.07333000004291534 -0.045579999685287476
v -0.1283240020275116 -0.07672899961471558 -0.042465999722480774
v -0.1273909956216812 -0.07854899764060974 -0.0418890006840229
v -0.12726600468158722 -0.080315001308918 -0.04320399835705757
v -0.09576199948787689 -0.11737199872732162 -0.028882000595331192
v -0.09989500045776367 -0.11797100305557251 -0.025522999465465546
v -0.09733299911022186 -0.11790399998426437 -0.034046001732349396
v -0.09501700103282928 -0.11833100020885468 -0.0328189991414547
v -0.10073799639940262 -0.12087699770927429 -0.03297699987888336
v -0.1073480024933815 -0.12610900402069092 -0.03570900112390518
v -0.10955099761486053 -0.13999399542808533 -0.02942200005054474
v -0.1064079999923706 -0.1368190050125122 -0.031058000400662422
v -0.10322199761867523 -0.12814000248908997 -0.030438000336289406
v -0.10576599836349487 -0.12779200077056885 -0.03302200138568878
v -0.11715999990701675 -0.13747599720954895 -0.03449700027704239
v -0.12175600230693817 -0.13723400235176086 -0.04119100049138069
v -0.12612000107765198 -0.13475699722766876 -0.04765300080180168
v -0.10719999670982361 -0.13349199295043945 -0.032690998166799545
v -0.1269250065088272 -0.1287589967250824 -0.05718899890780449
v -0.13156400620937347 -0.12155800312757492 -0.060006000101566315
v -0.12921500205993652 -0.11634399741888046 -0.06371500343084335
v -0.10233700275421143 -0.12473700195550919 -0.031088000163435936
v -0.049258001148700714 -0.09915799647569656 -0.025412999093532562
v -0.0465410016477108 -0.09812899678945541 -0.025537999346852303
v -0.05417000129818916 -0.10480999946594238 -0.01986199989914894
v -0.05620000138878822 -0.10607399791479111 -0.019284000620245934
v -0.0631520003080368 -0.10654900223016739 -0.020163999870419502
v -0.052115000784397125 -0.10180199891328812 -0.02283100038766861
v -0.06818000227212906 -0.10571400076150894 -0.024328000843524933
v -0.0646120011806488 -0.09138499945402145 -0.03342200070619583
v -0.042876001447439194 -0.09802500158548355 -0.02532700076699257
v -0.047217000275850296 -0.09294299781322479 -0.026048000901937485
v -0.04228600114583969 -0.09766799956560135 -0.024813000112771988
v -0.04954100027680397 -0.09180600196123123 -0.025157000869512558
v -0.0494219996035099 0.01180300023406744 -0.11480800062417984
v -0.05984099954366684 0.012788999825716019 -0.10929100215435028
v -0.06927599757909775 0.01489999983459711 -0.10257700085639954
v -0.12430000305175781 0.012536999769508839 -0.059491999447345734
v -0.0904960036277771 0.04023599997162819 -0.08388999849557877
v -0.12273000180721283 -0.028781000524759293 -0.06888499855995178
v -0.14582599699497223 -0.026311999186873436 -0.05867899954319
v -0.14422300457954407 -0.03122599981725216 -0.056898001581430435
v -0.12740199267864227 -0.030324000865221024 -0.06723199784755707
v -0.1310569941997528 -0.005115999840199947 -0.06036999821662903
v -0.04998999834060669 -0.0955599993467331 -0.013566999696195126
v -0.07027500122785568 -0.10369999706745148 -0.02592100016772747
v -0.06874799728393555 -0.10326199978590012 -0.02013400010764599
v -0.05872499942779541 -0.09928800165653229 -0.012651000171899796
v -0.052928000688552856 -0.09679800271987915 -0.013086000457406044
v -0.12026999890804291 -0.029214000329375267 -0.05638600140810013
v -0.11372199654579163 -0.02370299957692623 -0.053171999752521515
v -0.1096239984035492 -0.029884999617934227 -0.058437999337911606
v -0.10867899656295776 -0.016050999984145164 -0.05502599850296974
v -0.10148599743843079 -0.006200999952852726 -0.052411999553442
v -0.09645500034093857 -0.01001800037920475 -0.05602499842643738
v -0.09606000036001205 -0.0005409999866969883 -0.06105500087141991
v -0.05663999915122986 0.025735000148415565 -0.1025179997086525
v -0.0930669978260994 0.016481000930070877 -0.07012999802827835
v -0.09341300278902054 0.032186999917030334 -0.06878200173377991
v -0.06648100167512894 0.039468999952077866 -0.09533900022506714
v -0.061817001551389694 0.03615700080990791 -0.10078399628400803
v -0.024279000237584114 -0.013605000451207161 -0.11824200302362442
v -0.027736999094486237 -0.02338000014424324 -0.11560600250959396
v -0.02958800084888935 0.008870000019669533 -0.11937899887561798
v -0.03446400165557861 -0.026398999616503716 -0.10563600063323975
v -0.032340001314878464 -0.025772999972105026 -0.11042799800634384
v -0.029969999566674232 -0.024630000814795494 -0.11494400352239609
v -0.03635599836707115 -0.0299880001693964 -0.1007390022277832
v -0.04967699944972992 0.025916000828146935 -0.10722099989652634
v -0.04114999994635582 0.031252000480890274 -0.11761900037527084
v -0.036789000034332275 -0.029596000909805298 -0.1017640009522438
v -0.03623500093817711 -0.02300100028514862 -0.11110000312328339
v -0.04093800112605095 -0.006661999970674515 -0.11537999659776688
v -0.035057999193668365 -0.019372999668121338 -0.11867199838161469
v -0.03981800004839897 0.007182000204920769 -0.12072200328111649
v -0.11857199668884277 -0.028686000034213066 -0.060763001441955566
v -0.1227869987487793 -0.07180800288915634 -0.057133998721838
v -0.12183599919080734 -0.08357200026512146 -0.056439999490976334
v -0.12257599830627441 -0.08141600340604782 -0.052990999072790146
v -0.12535999715328217 -0.08125899732112885 -0.048611000180244446
v -0.12483900040388107 -0.08212699741125107 -0.04659799858927727
v -0.13431400060653687 -0.11860000342130661 -0.05249100178480148
v -0.13273899257183075 -0.11179400235414505 -0.06149600073695183
v -0.13325700163841248 -0.122980996966362 -0.05038600042462349
v -0.12878499925136566 -0.13302099704742432 -0.04420199990272522
v -0.13037000596523285 -0.13027800619602203 -0.04634299874305725
v -0.1169620007276535 -0.12977400422096252 -0.03013000078499317
v -0.12465199828147888 -0.13651500642299652 -0.03934299945831299
v -0.10946299880743027 -0.13192999362945557 -0.02329299971461296
v -0.12936800718307495 -0.07140299677848816 -0.0473099984228611
v -0.1291169971227646 -0.0735509991645813 -0.04866399988532066
v -0.12960200011730194 -0.07373599708080292 -0.04697300121188164
v -0.12950000166893005 -0.07498999685049057 -0.04467900097370148
v -0.12922899425029755 -0.07614000141620636 -0.046114999800920486
v -0.1285180002450943 -0.0784510001540184 -0.043209999799728394
v -0.127920001745224 -0.0798489972949028 -0.04494199901819229
v -0.09161999821662903 -0.11943399906158447 -0.03127700090408325
v -0.08852499723434448 -0.11917699873447418 -0.025750000029802322
v -0.0922669991850853 -0.12248899787664413 -0.02222900092601776
v -0.09478700160980225 -0.11918400228023529 -0.03176400065422058
v -0.09532800316810608 -0.12306399643421173 -0.02857399918138981
v -0.09906300157308578 -0.13650399446487427 -0.026866000145673752
v -0.10525300353765488 -0.14032499492168427 -0.02679000049829483
v -0.1133899986743927 -0.13579200208187103 -0.02975500002503395
v -0.1098800003528595 -0.13930200040340424 -0.028077000752091408
v -0.10486599802970886 -0.13378599286079407 -0.030455000698566437
v -0.097850002348423 -0.1292569935321808 -0.027011999860405922
v -0.09675700217485428 -0.12654300034046173 -0.027442999184131622
v -0.13137400150299072 -0.12683899700641632 -0.054003000259399414
v -0.12903599441051483 -0.131398007273674 -0.0479619987308979
v -0.04598399996757507 -0.10042600333690643 -0.024751000106334686
v -0.04943700134754181 -0.1011509969830513 -0.023344000801444054
v -0.04336100071668625 -0.1003979966044426 -0.024383999407291412
v -0.05379299819469452 -0.10889499634504318 -0.01567699946463108
v -0.052000001072883606 -0.10738500207662582 -0.016631999984383583
v -0.051530998200178146 -0.10426399856805801 -0.020263999700546265
v -0.05627499893307686 -0.10998299717903137 -0.015154000371694565
v -0.06644300371408463 -0.10860200226306915 -0.018936999142169952
v -0.06312599778175354 -0.10983800143003464 -0.017281999811530113
v -0.06630200147628784 -0.11820200085639954 -0.008173000067472458
v -0.07009100168943405 -0.10945799946784973 -0.02188500016927719
v -0.04083999991416931 -0.09944800287485123 -0.02287600003182888
v -0.0455470010638237 -0.09549299627542496 -0.02299799956381321
v -0.04236000031232834 -0.09615900367498398 -0.010099999606609344
v -0.04632199928164482 0.033980999141931534 -0.13055400550365448
v -0.03880700096487999 0.019152000546455383 -0.1320279985666275
v -0.044082000851631165 0.029152000322937965 -0.13112899661064148
v -0.050353001803159714 0.040605999529361725 -0.1288820058107376
v -0.05823700129985809 0.053286001086235046 -0.11769700050354004
v -0.05306499823927879 0.04548700153827667 -0.1246739998459816
v -0.06854400038719177 0.05887899920344353 -0.10870099812746048
v -0.0791810005903244 0.041322000324726105 -0.0971279963850975
v -0.10775499790906906 0.040525998920202255 -0.06952200084924698
v -0.12310300022363663 0.03449999913573265 -0.06037899851799011
v -0.13652700185775757 0.017172999680042267 -0.053268998861312866
v -0.08853299915790558 0.04646899923682213 -0.08716300129890442
v -0.09032899886369705 0.04949700087308884 -0.08430899679660797
v -0.0955279991030693 0.0488010011613369 -0.08054900169372559
v -0.10662099719047546 0.04839299991726875 -0.0723629966378212
v -0.1401350051164627 -0.004608000162988901 -0.05436500161886215
v -0.15125800669193268 -0.029996000230312347 -0.051837000995874405
v -0.15660600364208221 -0.01256799977272749 -0.051277998834848404
v -0.15493400394916534 -0.023916000500321388 -0.05379899963736534
v -0.1557130068540573 -0.026010999456048012 -0.05061599984765053
v -0.14870400726795197 0.0018729999428614974 -0.04913699999451637
v -0.14279499650001526 -0.031321000307798386 -0.0535850003361702
v -0.04975099861621857 -0.09790600091218948 -0.0029319999739527702
v -0.05626500025391579 -0.10104800015687943 -0.0021470000501722097
v -0.07220800220966339 -0.11091600358486176 -0.014131000265479088
v -0.07116600126028061 -0.10758200287818909 -0.023705000057816505
v -0.06758999824523926 -0.11307699978351593 -0.00025599999935366213
v -0.1290159970521927 -0.027233999222517014 -0.049247998744249344
v -0.14023399353027344 -0.027628999203443527 -0.04761999845504761
v -0.12225600332021713 -0.02691599912941456 -0.05132099986076355
v -0.14824500679969788 -0.030417999252676964 -0.050432998687028885
v -0.11557099968194962 -0.02163900062441826 -0.054919999092817307
v -0.11309300363063812 -0.017938999459147453 -0.05562499910593033
v -0.11083000153303146 -0.01321099977940321 -0.056412000209093094
v -0.10750199854373932 -0.007763000205159187 -0.05536400154232979
v -0.10034800320863724 -0.0008009999874047935 -0.053661998361349106
v -0.10383299738168716 -0.004164999816566706 -0.0539340004324913
v -0.09826800227165222 0.00817199982702732 -0.05583300068974495
v -0.05090700089931488 0.03809899836778641 -0.10780400037765503
v -0.055573999881744385 0.04753800109028816 -0.10429300367832184
v -0.09975200146436691 0.017483999952673912 -0.057666998356580734
v -0.10013200342655182 0.024776000529527664 -0.0640999972820282
v -0.0989300012588501 0.013752000406384468 -0.057130999863147736
v -0.10398100316524506 0.03529300168156624 -0.05907699838280678
v -0.10501199960708618 0.03841499984264374 -0.056099001318216324
v -0.0986580029129982 0.0528159998357296 -0.06344199925661087
v -0.06356199830770493 0.05383799970149994 -0.09618999809026718
v -0.025018999353051186 -0.000012000000424450263 -0.12256799638271332
v -0.026263000443577766 -0.01714099943637848 -0.12026599794626236
v -0.025157000869512558 -0.0031950001139193773 -0.12389300018548965
v -0.03170999884605408 0.017280999571084976 -0.12633800506591797
v -0.03497900068759918 -0.024623999372124672 -0.11108499765396118
v -0.0343099981546402 -0.02331100031733513 -0.11619599908590317
v -0.04781600087881088 0.03513500094413757 -0.11067300289869308
v -0.037487998604774475 0.0319180004298687 -0.12220499664545059
v -0.03551299870014191 -0.022027000784873962 -0.11526799947023392
v -0.031582001596689224 0.0021349999587982893 -0.12774799764156342
v -0.03212299942970276 -0.016551999375224113 -0.1230510026216507
v -0.12813599407672882 -0.07868299633264542 -0.047157999128103256
v -0.10139299929141998 -0.13264499604701996 -0.01990699954330921
v -0.1084970012307167 -0.13968700170516968 -0.02609900012612343
v -0.09651599824428558 -0.12660600244998932 -0.020363999530673027
v -0.1289689987897873 -0.07781899720430374 -0.04495399817824364
v -0.09104999899864197 -0.12021099776029587 -0.02996000088751316
v -0.08770299702882767 -0.12011200189590454 -0.029563000425696373
v -0.08202199637889862 -0.11715500056743622 -0.023174000903964043
v -0.08803500235080719 -0.11991000175476074 -0.01903899945318699
v -0.09062600135803223 -0.12049800157546997 -0.02861100062727928
v -0.09184999763965607 -0.1237419992685318 -0.02709300071001053
v -0.0850830003619194 -0.13282300531864166 -0.022770000621676445
v -0.09300799667835236 -0.13752800226211548 -0.021695999428629875
v -0.08677300065755844 -0.12523099780082703 -0.02332399971783161
v -0.0852150022983551 -0.12457600235939026 -0.022789999842643738
v -0.09375099837779999 -0.1297069936990738 -0.025415999814867973
v -0.09286999702453613 -0.12699100375175476 -0.025784999132156372
v -0.04351700097322464 -0.10157600045204163 -0.023680999875068665
v -0.046250998973846436 -0.10210900008678436 -0.023053999990224838
v -0.04964499920606613 -0.10318200290203094 -0.021268999204039574
v -0.041492000222206116 -0.10155799984931946 -0.022787999361753464
v -0.05350299924612045 -0.112574003636837 -0.010912000201642513
v -0.05182399973273277 -0.11079800128936768 -0.012128000147640705
v -0.05012400075793266 -0.10618700087070465 -0.017680000513792038
v -0.05708400160074234 -0.11333800107240677 -0.01208799984306097
v -0.06963499635457993 -0.12008299678564072 -0.0007319999858736992
v -0.05910100042819977 -0.11909600347280502 -0.006004999857395887
v -0.07036100327968597 -0.11520600318908691 -0.015541000291705132
v -0.07085999846458435 -0.11930699646472931 -0.012575999833643436
v -0.05983300134539604 -0.11852999776601791 -0.007493000011891127
v -0.05528099834918976 -0.11525099724531174 -0.009289000183343887
v -0.07116399705410004 -0.12062899768352509 -0.005001000128686428
v -0.0725260004401207 -0.12154600024223328 -0.010409999638795853
v -0.07060399651527405 -0.11407600343227386 -0.017109999433159828
v -0.0723470002412796 -0.11196599900722504 -0.02185700088739395
v -0.04032199829816818 -0.1010499969124794 -0.01996600069105625
v -0.041095998138189316 -0.09755200147628784 -0.010359999723732471
v -0.04431099817156792 -0.09814099967479706 -0.003189000068232417
v -0.04348300024867058 0.03218400105834007 -0.13162599503993988
v -0.04406899958848953 0.03770900145173073 -0.1303669959306717
v -0.04836399853229523 0.04018599912524223 -0.12969599664211273
v -0.0355909988284111 0.016733000054955482 -0.13177399337291718
v -0.037370000034570694 0.025140000507235527 -0.12899300456047058
v -0.03939500078558922 0.03117300011217594 -0.12950299680233002
v -0.05083300173282623 0.0468050017952919 -0.12483300268650055
v -0.055782001465559006 0.05593499913811684 -0.1159529983997345
v -0.06562799960374832 0.06124899908900261 -0.1077980026602745
v -0.07266499847173691 0.06297200173139572 -0.10201100260019302
v -0.08233299851417542 0.05785899981856346 -0.09580200165510178
v -0.08741500228643417 0.06403099745512009 -0.08911100029945374
v -0.08582799881696701 0.05180300027132034 -0.09048300236463547
v -0.13972599804401398 0.04211200028657913 -0.05242700129747391
v -0.12836800515651703 0.050887998193502426 -0.05837000161409378
v -0.14828599989414215 0.03435499966144562 -0.04728800058364868
v -0.154556006193161 0.018849000334739685 -0.04714300110936165
v -0.09588199853897095 0.054076001048088074 -0.08085700124502182
v -0.09991499781608582 0.05268000066280365 -0.07750000059604645
v -0.10158500075340271 0.06277000159025192 -0.07684300094842911
v -0.11096499860286713 0.05903799831867218 -0.07034099847078323
v -0.1544010043144226 -0.02741999924182892 -0.04811999946832657
v -0.1581439971923828 -0.018914999440312386 -0.05149700120091438
v -0.15848100185394287 -0.009662000462412834 -0.04968800023198128
v -0.158610999584198 -0.0006549999816343188 -0.04819599911570549
v -0.1582459956407547 -0.022763999179005623 -0.04706500098109245
v -0.04325300082564354 -0.10137499868869781 -0.000666000007186085
v -0.07419099658727646 -0.11211100220680237 -0.022786999121308327
v -0.07252199947834015 -0.11419200152158737 -0.009335000067949295
v -0.07355999946594238 -0.11376100033521652 -0.01432000007480383
v -0.050939999520778656 -0.11273399740457535 -0.000610999995842576
v -0.06193000078201294 -0.11943899840116501 -0.0004400000034365803
v -0.07020899653434753 -0.11962500214576721 -0.00006600000051548705
v -0.07214699685573578 -0.11817800253629684 -0.0040790000930428505
v -0.13008899986743927 -0.024429000914096832 -0.05096700042486191
v -0.1261579990386963 -0.024546999484300613 -0.051961999386548996
v -0.1357010006904602 -0.024538999423384666 -0.05002399906516075
v -0.14072799682617188 -0.024434000253677368 -0.04908699914813042
v -0.14874400198459625 -0.027307000011205673 -0.04721299931406975
v -0.12312600016593933 -0.02443300001323223 -0.053022999316453934
v -0.11970099806785583 -0.023365000262856483 -0.05404999852180481
v -0.1174279972910881 -0.01839499920606613 -0.056662000715732574
v -0.11282599717378616 -0.010319000110030174 -0.05772100016474724
v -0.10175299644470215 0.0020759999752044678 -0.054294999688863754
v -0.10215199738740921 -0.0009500000160187483 -0.053769998252391815
v -0.10426300019025803 0.0032510000746697187 -0.05517999827861786
v -0.09926100075244904 0.01396000012755394 -0.05528099834918976
v -0.10153800249099731 0.010892000049352646 -0.05490199849009514
v -0.0460520014166832 0.045928001403808594 -0.11125600337982178
v -0.062226999551057816 0.05742200091481209 -0.09936600178480148
v -0.10010500252246857 0.01789099909365177 -0.05603799968957901
v -0.10108000040054321 0.02252800017595291 -0.05834899842739105
v -0.1052590012550354 0.032618001103401184 -0.05761399865150452
v -0.10736600309610367 0.03385400027036667 -0.056561000645160675
v -0.10993299633264542 0.046293001621961594 -0.053369998931884766
v -0.10787700116634369 0.05381700024008751 -0.05592799931764603
v -0.09974200278520584 0.058076001703739166 -0.06334900110960007
v -0.09292999655008316 0.0602790005505085 -0.07100799679756165
v -0.07307399809360504 0.059119999408721924 -0.08822900056838989
v -0.03207800164818764 0.011656999588012695 -0.12964700162410736
v -0.027495000511407852 -0.0014979999978095293 -0.12591400742530823
v -0.035092998296022415 0.01843699999153614 -0.13145799934864044
v -0.038137998431921005 0.031129000708460808 -0.12863899767398834
v -0.043056000024080276 0.03993399813771248 -0.11571499705314636
v -0.04159000143408775 0.039604999125003815 -0.12734399735927582
v -0.10188499838113785 -0.1383489966392517 -0.02247600071132183
v -0.08980599790811539 -0.12861399352550507 -0.016544999554753304
v -0.08709000051021576 -0.12084999680519104 -0.02697799913585186
v -0.08090800046920776 -0.11779499799013138 -0.025940999388694763
v -0.07759500294923782 -0.11499900370836258 -0.02229199931025505
v -0.07485699653625488 -0.11473199725151062 -0.014488999731838703
v -0.07922100275754929 -0.12142500281333923 -0.012167000211775303
v -0.08796600252389908 -0.12405099719762802 -0.02550699934363365
v -0.07950600236654282 -0.12896999716758728 -0.02092999964952469
v -0.07958599925041199 -0.12482699751853943 -0.02082199975848198
v -0.08105000108480453 -0.13222700357437134 -0.01773099973797798
v -0.08299999684095383 -0.12155800312757492 -0.02339399978518486
v -0.08554299920797348 -0.12277700006961823 -0.024302000179886818
v -0.08936700224876404 -0.12636199593544006 -0.02429400011897087
v -0.07899300009012222 -0.12251699715852737 -0.02077700011432171
v -0.07622499763965607 -0.11865600198507309 -0.02001900039613247
v -0.07739099860191345 -0.11685100197792053 -0.02374500036239624
v -0.04481000080704689 -0.10317999869585037 -0.02164600044488907
v -0.042746998369693756 -0.10273200273513794 -0.02185799926519394
v -0.048204001039266586 -0.10372500121593475 -0.020052000880241394
v -0.04134700074791908 -0.10218799859285355 -0.01876699924468994
v -0.050172001123428345 -0.11066699773073196 -0.010716999880969524
v -0.04925199970602989 -0.11111599951982498 -0.0051460000686347485
v -0.0465800017118454 -0.10682699829339981 -0.014700000174343586
v -0.046640001237392426 -0.10464499890804291 -0.018993999809026718
v -0.048464998602867126 -0.10913799703121185 -0.011920999735593796
v -0.06250400096178055 -0.11999499797821045 -0.0009689999860711396
v -0.05931900069117546 -0.11876200139522552 -0.001032999949529767
v -0.07168000191450119 -0.11637900024652481 -0.016123000532388687
v -0.07323399931192398 -0.1241220012307167 -0.017350999638438225
v -0.07449900358915329 -0.11998499929904938 -0.009960000403225422
v -0.03999999910593033 -0.09948299825191498 -0.009491999633610249
v -0.03935699909925461 -0.10236699879169464 -0.010730000212788582
v -0.041064999997615814 -0.10048600286245346 -0.0017140000127255917
v -0.045239999890327454 0.04580499976873398 -0.1234240010380745
v -0.05320100113749504 0.05648599937558174 -0.11305099725723267
v -0.05709400027990341 0.05653899908065796 -0.10521099716424942
v -0.0849120020866394 0.06536299735307693 -0.09039299935102463
v -0.08150099962949753 0.06460700184106827 -0.08853200078010559
v -0.07023400068283081 0.0624070018529892 -0.09912999719381332
v -0.09104300290346146 0.06409300118684769 -0.08571899682283401
v -0.13286300003528595 0.046831000596284866 -0.053266000002622604
v -0.13941699266433716 0.041731998324394226 -0.050050999969244
v -0.12611700594425201 0.05154399946331978 -0.05724399909377098
v -0.12106399983167648 0.05485900118947029 -0.05979499965906143
v -0.11351200193166733 0.0588890016078949 -0.06728199869394302
v -0.15687699615955353 0.021273000165820122 -0.042132001370191574
v -0.1488180011510849 0.03391899913549423 -0.04411900043487549
v -0.15736499428749084 0.02007799968123436 -0.04560200124979019
v -0.16007199883460999 0.01256600022315979 -0.044610001146793365
v -0.16068199276924133 0.007116000168025494 -0.04509599879384041
v -0.11069899797439575 0.059946998953819275 -0.06893599778413773
v -0.10303399711847305 0.061170000582933426 -0.06678500026464462
v -0.09198399633169174 0.06397999823093414 -0.07942599803209305
v -0.09601099789142609 0.06282400339841843 -0.07382400333881378
v -0.15330800414085388 -0.02307399921119213 -0.045219000428915024
v -0.1596589982509613 -0.01669500023126602 -0.04670900106430054
v -0.1591619998216629 -0.010130000300705433 -0.04656200110912323
v -0.1593630015850067 -0.0055680000223219395 -0.045556001365184784
v -0.15501399338245392 -0.01856599934399128 -0.04580700024962425
v -0.15671899914741516 -0.013333000242710114 -0.04635699838399887
v -0.040396999567747116 -0.1049560010433197 -0.001353000057861209
v -0.07659199833869934 -0.11433900147676468 -0.02372400090098381
v -0.13139599561691284 -0.021553000435233116 -0.05266200006008148
v -0.12381599843502045 -0.02167700044810772 -0.054701000452041626
v -0.14087200164794922 -0.020697999745607376 -0.0506649985909462
v -0.1451060026884079 -0.02427699975669384 -0.048948001116514206
v -0.14901100099086761 -0.023101000115275383 -0.048900000751018524
v -0.15129700303077698 -0.021261999383568764 -0.047894999384880066
v -0.11959200352430344 -0.009738000109791756 -0.05207499861717224
v -0.1137399971485138 0.0026549999602138996 -0.053227998316287994
v -0.1060430034995079 0.008648999966681004 -0.05458499863743782
v -0.10182599723339081 0.01964399963617325 -0.054806001484394073
v -0.10414300113916397 0.014450999908149242 -0.054733000695705414
v -0.1056089997291565 0.01199399959295988 -0.05461899936199188
v -0.04592999815940857 0.04752400144934654 -0.11591500043869019
v -0.10936299711465836 0.030544999986886978 -0.05426900088787079
v -0.10685700178146362 0.027730999514460564 -0.055897001177072525
v -0.10637599974870682 0.030175000429153442 -0.05565100163221359
v -0.11117199808359146 0.03428100049495697 -0.05376100167632103
v -0.11028199642896652 0.03422600030899048 -0.05359499901533127
v -0.11429499834775925 0.04546099901199341 -0.052390001714229584
v -0.11202099919319153 0.035764001309871674 -0.05326699838042259
v -0.11244100332260132 0.03874700143933296 -0.05222700163722038
v -0.11342400312423706 0.042854998260736465 -0.05203599855303764
v -0.11437699943780899 0.049531999975442886 -0.05279000103473663
v -0.11614499986171722 0.05183799937367439 -0.05490599945187569
v -0.10917200148105621 0.05889499932527542 -0.06256700307130814
v -0.11196199804544449 0.05733500048518181 -0.06056800112128258
v -0.10071100294589996 0.059523001313209534 -0.06414400041103363
v -0.08416599780321121 -0.12068899720907211 -0.025630999356508255
v -0.07690999656915665 -0.12080200016498566 -0.019840000197291374
v -0.04490099847316742 -0.1046689972281456 -0.018365999683737755
v -0.04266199842095375 -0.10345900058746338 -0.016259999945759773
v -0.04539500176906586 -0.10755400359630585 -0.008542000316083431
v -0.12974600493907928 0.04592499881982803 -0.05112500116229057
v -0.12354400008916855 0.05039500072598457 -0.05426099896430969
v -0.14015300571918488 0.03840100020170212 -0.046362001448869705
v -0.13589799404144287 0.04162999987602234 -0.0484049990773201
v -0.11894900351762772 0.053807999938726425 -0.05706600099802017
v -0.15034499764442444 0.027134999632835388 -0.04161199927330017
v -0.14619000256061554 0.0340300016105175 -0.043877001851797104
v -0.1596820056438446 0.015444000251591206 -0.04150399938225746
v -0.15350499749183655 0.02094300091266632 -0.03943200036883354
v -0.1622619926929474 0.00827299989759922 -0.04189400002360344
v -0.16234299540519714 0.007915999740362167 -0.04281400144100189
v -0.1613450050354004 0.0041240002028644085 -0.041416000574827194
v -0.1528870016336441 -0.02121799997985363 -0.04634400084614754
v -0.1565829962491989 -0.00900499988347292 -0.04445800185203552
v -0.15644800662994385 -0.005361999850720167 -0.04259499907493591
v -0.1615999937057495 0.001986999996006489 -0.03746600076556206
v -0.15459200739860535 -0.015985999256372452 -0.046893998980522156
v -0.15425199270248413 -0.01003700029104948 -0.046564001590013504
v -0.15479999780654907 -0.013697000220417976 -0.048353999853134155
v -0.13273699581623077 -0.011242999695241451 -0.0500820018351078
v -0.14191100001335144 -0.010377000086009502 -0.04763000085949898
v -0.12539899349212646 -0.010479999706149101 -0.05065000057220459
v -0.1494929939508438 -0.017393000423908234 -0.05069499835371971
v -0.15246500074863434 -0.018637999892234802 -0.04743000119924545
v -0.11878299713134766 0.0021410000044852495 -0.05406399816274643
v -0.11079700291156769 0.009929000400006771 -0.054267000406980515
v -0.11556199938058853 0.01776600070297718 -0.056453000754117966
v -0.10764999687671661 0.022311000153422356 -0.0560699999332428
v -0.10413800179958344 0.017311999574303627 -0.05462000146508217
v -0.12043700367212296 0.0179469995200634 -0.05099799856543541
v -0.11923199892044067 0.045118000358343124 -0.0505170002579689
v -0.12180700153112411 0.040522001683712006 -0.04737799987196922
v -0.128494992852211 0.03742799907922745 -0.04408799856901169
v -0.13845300674438477 0.028752999380230904 -0.03947699815034866
v -0.13178299367427826 0.01561100035905838 -0.04431099817156792
v -0.13057999312877655 0.041005998849868774 -0.046379998326301575
v -0.15443499386310577 0.016827000305056572 -0.0374470017850399
v -0.15824399888515472 0.011231999844312668 -0.03799299895763397
v -0.14903999865055084 0.012214000336825848 -0.03315399959683418
v -0.15254199504852295 0.012505000457167625 -0.03466000035405159
v -0.158269003033638 0.008488000370562077 -0.03551600128412247
v -0.15403799712657928 -0.00609799986705184 -0.04470000043511391
v -0.15293799340724945 -0.004484999924898148 -0.043956998735666275
v -0.15741600096225739 0.002337000099942088 -0.03558199852705002
v -0.15355899930000305 -0.0002209999947808683 -0.039174001663923264
v -0.15251299738883972 -0.002919000107795 -0.04192100092768669
v -0.15285100042819977 -0.0018220000201836228 -0.04077399894595146
v -0.15627700090408325 0.005297000054270029 -0.0344959981739521
v -0.15288099646568298 -0.01406100019812584 -0.05035100132226944
v -0.15009500086307526 -0.004164999816566706 -0.04525800049304962
v -0.13831700384616852 -0.006976000033318996 -0.049111999571323395
v -0.13396699726581573 -0.005913999862968922 -0.05090399831533432
v -0.13840100169181824 -0.00456599984318018 -0.04938200116157532
v -0.1268640011548996 0.004985000006854534 -0.045813001692295074
v -0.12725800275802612 0.03943200036883354 -0.04500500112771988
v -0.14583800733089447 0.008108999580144882 -0.03715600073337555
v -0.14935800433158875 0.0014669999945908785 -0.03922199830412865
v -0.154680997133255 0.013499000109732151 -0.03571400046348572
v -0.1519400030374527 0.009835000149905682 -0.033904001116752625
v -0.15477800369262695 0.010789000429213047 -0.034671999514102936
v -0.15510599315166473 0.008163999766111374 -0.03409299999475479
v -0.15414899587631226 0.002518000081181526 -0.0365849994122982
v -0.14230799674987793 -0.0035069999285042286 -0.0480940006673336
f 3 2 1
f 3 1 4
f 1 2 5
f 5 4 1
f 3 6 2
f 2 8 7
f 8 2 6
f 2 7 5
f 9 3 4
f 10 3 9
f 6 3 10
f 12 4 11
f 12 9 4
f 4 5 11
f 13 5 7
f 5 13 14
f 5 14 15
f 11 5 15
f 16 6 10
f 16 17 6
f 8 6 17
f 7 18 13
f 7 20 19
f 18 7 19
f 8 21 7
f 7 22 20
f 22 7 21
f 21 8 23
f 8 17 23
f 12 24 9
f 24 10 9
f 25 10 24
f 16 10 25
f 11 27 26
f 11 15 27
f 11 26 12
f 24 12 28
f 28 12 26
f 18 14 13
f 29 15 14
f 30 14 18
f 30 29 14
f 27 15 29
f 25 31 16
f 16 31 17
f 17 32 23
f 31 32 17
f 33 30 18
f 18 19 33
f 33 19 34
f 20 34 19
f 22 35 20
f 35 34 20
f 21 36 22
f 23 37 21
f 21 37 36
f 22 36 38
f 35 22 38
f 32 39 23
f 23 39 37
f 40 24 28
f 40 25 24
f 41 31 25
f 41 25 40
f 26 27 42
f 44 43 26
f 45 28 26
f 26 42 44
f 47 26 46
f 26 47 45
f 43 46 26
f 27 29 42
f 49 28 48
f 28 45 50
f 28 49 40
f 48 28 50
f 51 29 30
f 29 52 42
f 29 53 52
f 29 54 53
f 29 51 54
f 30 33 55
f 30 55 51
f 31 56 32
f 57 56 31
f 31 58 57
f 58 31 41
f 39 32 56
f 34 59 33
f 33 59 60
f 60 55 33
f 34 35 59
f 38 61 35
f 35 61 62
f 35 62 59
f 37 63 36
f 38 36 63
f 37 65 64
f 65 37 39
f 66 63 37
f 64 66 37
f 63 66 38
f 38 66 61
f 39 67 65
f 56 67 39
f 49 68 40
f 41 40 68
f 41 68 69
f 41 69 58
f 70 44 42
f 42 52 70
f 43 70 71
f 70 43 44
f 71 72 43
f 43 72 46
f 73 45 47
f 74 45 73
f 45 74 50
f 76 46 75
f 77 46 76
f 47 46 77
f 72 75 46
f 47 78 73
f 78 47 77
f 50 79 48
f 48 80 49
f 48 79 80
f 68 49 81
f 81 49 80
f 50 74 82
f 79 50 82
f 83 54 51
f 51 85 84
f 51 86 85
f 86 51 55
f 51 84 83
f 52 88 87
f 88 52 53
f 71 52 87
f 71 70 52
f 53 54 88
f 88 54 83
f 60 86 55
f 89 67 56
f 56 57 90
f 56 90 89
f 58 91 57
f 57 91 92
f 92 90 57
f 58 69 93
f 58 94 91
f 93 95 58
f 94 58 95
f 60 59 96
f 97 59 62
f 98 96 59
f 59 97 98
f 86 60 85
f 96 85 60
f 66 99 61
f 62 61 99
f 101 62 100
f 62 99 102
f 100 62 102
f 97 62 101
f 103 66 64
f 64 65 104
f 64 104 103
f 65 106 105
f 106 65 67
f 65 105 107
f 104 65 107
f 109 108 66
f 103 110 66
f 66 108 99
f 110 109 66
f 89 106 67
f 69 68 81
f 112 69 111
f 69 81 113
f 111 69 113
f 93 69 112
f 87 114 71
f 71 114 72
f 114 115 72
f 116 72 115
f 72 116 75
f 73 78 117
f 74 73 117
f 119 74 118
f 74 117 118
f 74 119 120
f 74 120 82
f 121 75 116
f 76 75 121
f 76 123 122
f 124 77 76
f 124 76 122
f 121 123 76
f 78 77 124
f 78 118 117
f 78 125 118
f 125 78 124
f 80 79 82
f 82 126 80
f 80 113 81
f 80 126 127
f 113 80 127
f 120 126 82
f 84 128 83
f 129 83 128
f 83 129 88
f 130 84 85
f 128 84 130
f 96 130 85
f 88 129 87
f 114 87 129
f 131 89 90
f 132 106 89
f 89 131 132
f 92 131 90
f 91 94 92
f 133 131 92
f 94 133 92
f 112 134 93
f 93 135 95
f 93 136 135
f 93 134 136
f 135 137 94
f 94 95 135
f 94 137 133
f 130 96 138
f 96 98 138
f 139 98 97
f 140 139 97
f 101 140 97
f 98 142 141
f 141 138 98
f 139 142 98
f 99 108 143
f 102 99 144
f 144 99 143
f 145 101 100
f 145 100 102
f 140 101 146
f 147 146 101
f 147 101 145
f 145 102 144
f 104 107 103
f 110 103 148
f 107 148 103
f 105 150 149
f 107 105 149
f 106 150 105
f 132 151 106
f 106 151 150
f 148 107 152
f 152 107 149
f 108 109 153
f 143 108 153
f 109 110 148
f 148 153 109
f 113 154 111
f 111 154 112
f 112 154 155
f 157 112 156
f 157 134 112
f 158 156 112
f 155 158 112
f 113 158 155
f 159 158 113
f 113 127 159
f 155 154 113
f 115 114 160
f 114 129 160
f 161 115 160
f 115 161 116
f 121 116 162
f 161 162 116
f 125 119 118
f 119 163 120
f 163 119 164
f 165 164 119
f 166 165 119
f 125 166 119
f 120 163 126
f 121 168 167
f 162 168 121
f 123 121 167
f 169 122 123
f 170 124 122
f 122 169 170
f 167 169 123
f 166 124 171
f 124 170 171
f 124 166 125
f 163 127 126
f 127 164 159
f 127 163 164
f 130 172 128
f 129 128 172
f 173 160 129
f 173 129 174
f 174 129 172
f 175 172 130
f 175 130 176
f 138 176 130
f 177 132 131
f 133 177 131
f 151 132 177
f 178 177 133
f 137 178 133
f 134 157 136
f 137 135 136
f 179 136 157
f 179 137 136
f 178 137 179
f 138 180 176
f 138 181 180
f 141 181 138
f 182 142 139
f 140 182 139
f 183 182 140
f 183 140 146
f 181 141 184
f 185 184 141
f 185 141 142
f 142 187 186
f 142 186 185
f 188 187 142
f 182 188 142
f 144 143 153
f 145 144 189
f 189 144 153
f 190 147 145
f 191 190 145
f 189 191 145
f 183 146 192
f 147 192 146
f 192 147 193
f 195 147 194
f 193 147 195
f 196 147 190
f 196 194 147
f 153 148 197
f 197 148 198
f 152 198 148
f 149 200 199
f 149 150 200
f 152 149 199
f 150 201 200
f 151 201 150
f 202 151 177
f 201 151 202
f 152 203 198
f 199 203 152
f 189 153 204
f 204 153 205
f 153 197 205
f 156 206 157
f 206 156 207
f 209 156 208
f 158 210 156
f 210 208 156
f 207 156 209
f 157 211 179
f 211 157 206
f 212 158 159
f 212 213 158
f 213 210 158
f 214 212 159
f 214 159 164
f 160 216 215
f 173 216 160
f 160 217 161
f 160 215 217
f 218 162 161
f 217 218 161
f 218 219 162
f 162 221 220
f 168 162 220
f 162 219 221
f 165 214 164
f 214 165 222
f 222 165 166
f 223 222 166
f 171 223 166
f 167 225 224
f 225 167 168
f 226 167 224
f 226 227 167
f 167 227 228
f 169 167 228
f 230 229 168
f 230 168 231
f 232 168 229
f 168 233 231
f 232 225 168
f 168 220 233
f 169 228 234
f 234 170 169
f 170 235 171
f 170 234 235
f 237 171 236
f 235 238 171
f 171 239 236
f 239 171 238
f 171 240 223
f 240 171 237
f 241 174 172
f 175 241 172
f 174 216 173
f 174 243 242
f 216 174 242
f 174 241 243
f 241 175 244
f 175 176 244
f 176 246 245
f 245 244 176
f 246 176 180
f 202 177 178
f 247 201 178
f 211 178 179
f 202 178 201
f 248 178 211
f 178 248 249
f 247 178 249
f 250 246 180
f 181 251 180
f 180 252 250
f 180 251 252
f 253 181 184
f 181 253 254
f 251 181 254
f 183 188 182
f 188 183 192
f 184 185 186
f 255 184 186
f 253 184 255
f 255 186 256
f 256 186 187
f 257 256 187
f 187 258 257
f 187 188 259
f 258 187 259
f 188 192 259
f 204 191 189
f 260 196 190
f 190 204 260
f 204 190 191
f 261 192 193
f 259 192 261
f 261 193 195
f 260 262 194
f 260 194 196
f 194 263 195
f 194 262 263
f 263 261 195
f 197 265 264
f 197 198 265
f 205 197 264
f 203 265 198
f 200 266 199
f 203 199 266
f 200 267 266
f 201 267 200
f 201 247 268
f 268 267 201
f 265 203 269
f 269 203 266
f 271 204 270
f 204 205 270
f 204 271 260
f 205 264 270
f 273 206 272
f 207 272 206
f 273 274 206
f 211 206 274
f 207 209 275
f 207 275 272
f 208 210 276
f 208 276 277
f 277 209 208
f 279 209 278
f 209 279 275
f 278 209 277
f 210 213 280
f 210 280 281
f 210 281 282
f 210 282 276
f 274 248 211
f 213 212 214
f 213 214 283
f 213 283 280
f 285 214 284
f 214 285 283
f 222 284 214
f 215 216 242
f 215 286 217
f 286 215 242
f 218 217 287
f 287 217 286
f 219 218 287
f 221 219 288
f 288 219 287
f 289 233 220
f 290 220 221
f 290 289 220
f 221 288 290
f 222 223 291
f 292 222 291
f 222 292 284
f 291 223 240
f 293 224 225
f 224 293 294
f 224 294 295
f 295 226 224
f 293 225 296
f 296 225 232
f 226 297 227
f 297 226 295
f 227 299 298
f 301 300 227
f 227 298 301
f 297 299 227
f 300 228 227
f 228 300 302
f 234 228 302
f 229 304 303
f 232 229 303
f 230 305 229
f 304 229 305
f 305 230 306
f 230 278 306
f 278 230 231
f 307 279 231
f 278 231 279
f 231 308 307
f 308 231 233
f 232 303 309
f 310 232 309
f 310 311 232
f 296 232 311
f 256 233 312
f 308 233 257
f 256 257 233
f 233 289 313
f 233 313 312
f 234 302 314
f 314 235 234
f 316 235 315
f 235 316 238
f 235 314 315
f 237 236 317
f 236 318 317
f 236 239 318
f 317 319 237
f 237 319 320
f 321 237 320
f 323 237 322
f 237 323 324
f 240 237 324
f 322 237 321
f 316 239 238
f 239 325 318
f 239 316 326
f 325 239 326
f 324 291 240
f 243 241 327
f 328 241 244
f 327 241 328
f 243 329 242
f 242 329 286
f 331 243 330
f 243 331 332
f 243 327 330
f 329 243 333
f 332 333 243
f 245 328 244
f 245 334 328
f 245 335 334
f 245 246 336
f 335 245 336
f 250 336 246
f 247 337 268
f 337 247 338
f 339 247 249
f 339 338 247
f 248 341 340
f 341 248 274
f 339 248 340
f 248 339 249
f 336 250 342
f 343 250 252
f 250 343 342
f 345 251 344
f 344 251 346
f 254 347 251
f 251 345 348
f 251 348 252
f 346 251 347
f 349 343 252
f 252 350 349
f 350 252 348
f 253 312 351
f 312 253 255
f 351 254 253
f 351 352 254
f 254 352 347
f 255 256 312
f 353 308 257
f 258 354 257
f 354 353 257
f 259 355 258
f 258 356 354
f 357 258 355
f 357 356 258
f 261 355 259
f 358 260 271
f 359 260 358
f 359 262 260
f 261 361 360
f 261 362 361
f 362 261 363
f 364 363 261
f 261 263 364
f 261 360 365
f 355 261 365
f 263 262 359
f 263 366 364
f 366 263 359
f 265 270 264
f 368 367 265
f 265 367 358
f 271 265 358
f 265 271 270
f 265 269 268
f 265 369 368
f 265 268 369
f 267 269 266
f 269 267 268
f 369 268 337
f 272 371 370
f 273 272 370
f 275 372 272
f 272 372 373
f 272 373 371
f 274 273 370
f 341 274 370
f 372 275 279
f 277 276 305
f 374 304 276
f 375 374 276
f 276 304 305
f 375 276 282
f 305 306 277
f 278 277 306
f 279 307 372
f 283 376 280
f 280 378 377
f 280 376 378
f 377 281 280
f 377 379 281
f 379 282 281
f 379 375 282
f 283 380 376
f 380 283 285
f 292 285 284
f 285 292 380
f 286 329 381
f 381 344 286
f 346 286 344
f 287 286 346
f 288 287 346
f 290 288 382
f 288 346 382
f 351 289 290
f 289 351 313
f 290 382 351
f 292 291 324
f 383 292 324
f 383 380 292
f 293 296 384
f 293 385 294
f 293 384 386
f 293 386 385
f 294 387 295
f 294 385 387
f 389 295 388
f 388 295 387
f 389 390 295
f 390 297 295
f 384 296 311
f 299 297 390
f 392 391 298
f 393 298 389
f 298 393 392
f 298 299 389
f 394 298 391
f 298 394 301
f 389 299 390
f 300 301 395
f 300 396 302
f 396 300 395
f 301 394 395
f 314 302 396
f 397 309 303
f 304 397 303
f 304 398 397
f 304 399 398
f 374 399 304
f 307 400 372
f 308 400 307
f 400 308 353
f 401 309 397
f 309 401 402
f 309 402 403
f 309 403 310
f 310 403 404
f 310 405 311
f 405 310 404
f 405 406 311
f 386 311 406
f 386 384 311
f 351 312 313
f 407 315 314
f 408 314 396
f 314 408 407
f 410 409 315
f 315 409 316
f 315 407 410
f 326 316 411
f 409 411 316
f 319 317 412
f 412 317 318
f 325 412 318
f 414 413 319
f 319 416 415
f 319 413 417
f 319 417 418
f 419 319 418
f 320 319 419
f 412 416 319
f 420 319 415
f 420 414 319
f 320 421 321
f 419 421 320
f 421 422 321
f 321 422 322
f 423 322 422
f 323 322 423
f 324 323 392
f 323 423 392
f 393 383 324
f 392 393 324
f 424 412 325
f 325 411 424
f 325 326 411
f 425 330 327
f 426 425 327
f 334 327 328
f 334 426 327
f 381 329 333
f 428 330 427
f 330 429 331
f 330 428 429
f 330 425 430
f 330 430 427
f 331 429 431
f 431 332 331
f 431 345 332
f 332 345 333
f 381 333 432
f 345 432 333
f 433 426 334
f 335 433 334
f 435 335 434
f 434 335 336
f 335 435 433
f 336 436 434
f 342 436 336
f 337 438 437
f 369 337 437
f 438 337 338
f 339 439 338
f 439 438 338
f 440 339 340
f 339 440 441
f 439 339 441
f 341 440 340
f 370 442 341
f 444 443 341
f 445 444 341
f 341 442 445
f 440 341 446
f 341 443 446
f 436 342 447
f 343 349 342
f 342 349 447
f 344 432 345
f 381 432 344
f 345 431 448
f 345 350 348
f 350 345 448
f 346 352 382
f 352 346 347
f 450 349 449
f 350 449 349
f 349 450 451
f 447 349 451
f 350 448 449
f 382 352 351
f 353 453 452
f 353 452 454
f 353 455 453
f 353 354 455
f 400 353 454
f 455 354 456
f 457 456 354
f 354 458 457
f 458 354 356
f 355 365 459
f 459 357 355
f 461 460 356
f 460 458 356
f 462 461 356
f 357 462 356
f 462 357 463
f 459 463 357
f 367 359 358
f 367 366 359
f 465 464 360
f 466 360 464
f 361 465 360
f 360 466 365
f 362 465 361
f 363 467 362
f 468 362 467
f 362 469 465
f 362 468 469
f 364 470 363
f 467 363 470
f 364 366 470
f 365 472 471
f 472 365 466
f 459 365 471
f 473 366 367
f 366 473 470
f 367 368 473
f 473 368 467
f 467 368 474
f 369 474 368
f 476 369 475
f 476 474 369
f 369 437 477
f 475 369 477
f 442 370 371
f 445 442 371
f 371 373 478
f 371 478 445
f 372 400 373
f 454 373 400
f 373 454 478
f 479 374 375
f 374 479 399
f 479 375 379
f 380 393 376
f 376 393 389
f 378 376 389
f 377 378 480
f 481 377 480
f 481 482 377
f 482 479 377
f 379 377 479
f 378 389 480
f 380 383 393
f 385 388 387
f 385 483 388
f 385 386 483
f 386 406 483
f 388 482 481
f 388 480 389
f 388 481 480
f 482 388 483
f 391 485 484
f 394 391 484
f 485 391 392
f 485 392 423
f 486 394 484
f 395 394 487
f 394 488 487
f 394 486 488
f 396 395 489
f 395 487 490
f 490 489 395
f 396 491 408
f 491 396 489
f 398 401 397
f 398 492 401
f 398 399 492
f 399 493 492
f 479 493 399
f 492 402 401
f 494 403 402
f 492 494 402
f 403 496 495
f 496 403 494
f 404 403 495
f 497 404 495
f 497 405 404
f 406 405 497
f 498 483 406
f 498 406 497
f 500 499 407
f 501 407 408
f 407 501 500
f 407 499 410
f 491 501 408
f 409 410 502
f 409 424 411
f 409 502 503
f 424 409 503
f 499 502 410
f 412 424 416
f 504 413 414
f 504 505 413
f 413 506 417
f 506 413 507
f 505 507 413
f 414 508 504
f 414 420 508
f 509 508 415
f 415 510 509
f 424 510 415
f 508 420 415
f 416 424 415
f 417 490 418
f 490 417 489
f 506 489 417
f 487 418 490
f 487 419 418
f 419 511 421
f 419 512 511
f 488 419 487
f 488 512 419
f 511 422 421
f 422 511 484
f 422 484 485
f 423 422 485
f 424 503 510
f 425 426 513
f 514 425 513
f 425 514 430
f 426 433 515
f 513 426 515
f 427 516 428
f 518 517 427
f 516 427 517
f 430 518 427
f 428 519 429
f 428 516 519
f 520 431 429
f 521 429 519
f 429 521 520
f 430 514 518
f 522 431 520
f 523 448 431
f 523 431 522
f 433 524 515
f 435 524 433
f 434 525 435
f 434 436 525
f 435 525 524
f 526 525 436
f 436 447 526
f 437 438 527
f 437 529 528
f 437 527 529
f 437 528 477
f 438 530 527
f 438 439 530
f 532 439 531
f 439 534 533
f 439 532 530
f 531 439 533
f 534 439 441
f 440 536 535
f 537 536 440
f 441 440 535
f 537 440 446
f 539 538 441
f 441 538 534
f 540 539 441
f 441 541 540
f 541 441 535
f 446 443 542
f 543 443 444
f 545 544 443
f 546 443 543
f 546 545 443
f 544 547 443
f 443 547 542
f 543 444 548
f 445 548 444
f 548 445 478
f 537 446 542
f 549 526 447
f 550 447 451
f 549 447 550
f 552 551 448
f 448 523 552
f 448 551 449
f 551 450 449
f 450 551 553
f 550 450 553
f 550 451 450
f 555 452 554
f 554 452 556
f 453 556 452
f 557 452 555
f 478 454 452
f 478 452 548
f 557 548 452
f 453 558 556
f 559 558 453
f 455 559 453
f 455 561 560
f 455 560 559
f 561 455 456
f 457 562 456
f 563 456 562
f 563 561 456
f 458 562 457
f 564 458 460
f 562 458 564
f 565 459 471
f 459 566 463
f 565 566 459
f 568 567 460
f 564 460 569
f 460 461 568
f 567 569 460
f 461 571 570
f 570 568 461
f 461 572 571
f 462 572 461
f 462 573 572
f 566 462 463
f 462 566 573
f 464 574 466
f 465 575 464
f 576 464 575
f 464 576 574
f 575 465 469
f 577 472 466
f 574 577 466
f 474 578 467
f 467 470 473
f 578 468 467
f 469 468 578
f 469 579 575
f 469 578 579
f 580 471 472
f 471 580 565
f 581 580 472
f 581 472 577
f 582 578 474
f 474 476 582
f 583 476 475
f 583 475 477
f 583 584 476
f 584 579 476
f 579 582 476
f 528 583 477
f 479 585 493
f 479 482 585
f 585 482 498
f 498 482 483
f 484 511 486
f 486 512 488
f 512 486 511
f 489 506 491
f 491 587 586
f 588 501 491
f 491 506 587
f 586 588 491
f 493 494 492
f 585 494 493
f 585 496 494
f 589 497 495
f 495 496 589
f 496 585 589
f 589 498 497
f 585 498 589
f 591 590 499
f 499 590 502
f 499 500 591
f 500 501 592
f 592 591 500
f 592 501 593
f 501 588 593
f 502 590 594
f 594 503 502
f 594 595 503
f 595 510 503
f 597 504 596
f 505 504 597
f 599 504 598
f 600 598 504
f 508 509 504
f 600 504 509
f 504 599 596
f 505 587 507
f 587 505 597
f 506 507 587
f 601 509 510
f 601 600 509
f 510 595 601
f 603 513 602
f 513 515 602
f 603 514 513
f 604 514 603
f 514 604 518
f 515 605 602
f 515 524 605
f 516 606 519
f 607 516 517
f 606 516 607
f 608 607 517
f 518 608 517
f 604 608 518
f 606 609 519
f 522 519 609
f 522 521 519
f 521 522 520
f 611 610 522
f 613 612 522
f 522 615 614
f 522 609 615
f 522 610 616
f 617 522 616
f 522 617 613
f 611 522 614
f 522 612 523
f 523 612 618
f 619 552 523
f 618 619 523
f 605 524 620
f 524 525 620
f 525 526 620
f 622 621 526
f 526 621 620
f 526 549 622
f 527 623 529
f 623 527 624
f 625 624 527
f 625 527 530
f 626 583 528
f 626 528 627
f 528 623 628
f 627 528 628
f 528 529 623
f 625 530 629
f 629 530 532
f 532 531 629
f 629 531 630
f 531 533 631
f 631 630 531
f 631 533 632
f 533 534 633
f 533 633 634
f 533 634 632
f 534 538 635
f 635 633 534
f 536 541 535
f 636 536 537
f 637 541 536
f 636 637 536
f 547 537 542
f 537 638 636
f 537 547 639
f 638 537 639
f 538 539 635
f 539 640 634
f 635 539 634
f 640 539 540
f 541 641 540
f 641 640 540
f 541 642 641
f 541 637 643
f 541 643 642
f 644 543 557
f 548 557 543
f 543 644 546
f 545 645 544
f 544 645 646
f 647 544 646
f 647 547 544
f 546 645 545
f 546 648 645
f 546 644 648
f 547 647 639
f 622 549 649
f 549 550 649
f 649 550 553
f 650 551 552
f 553 551 651
f 652 551 650
f 652 651 551
f 552 619 650
f 654 653 553
f 653 649 553
f 553 655 654
f 656 553 651
f 553 656 655
f 658 657 554
f 556 658 554
f 659 555 554
f 657 659 554
f 555 659 660
f 661 555 660
f 555 661 557
f 556 662 658
f 663 662 556
f 556 558 663
f 557 661 644
f 558 664 663
f 665 664 558
f 559 665 558
f 560 665 559
f 560 561 665
f 665 561 563
f 564 666 562
f 667 563 562
f 562 666 667
f 665 563 667
f 666 564 668
f 669 564 569
f 564 670 668
f 564 669 670
f 580 671 565
f 671 566 565
f 672 566 671
f 566 672 573
f 674 673 567
f 567 669 569
f 567 673 669
f 567 568 674
f 568 675 674
f 570 675 568
f 675 570 571
f 675 571 676
f 676 571 677
f 571 678 677
f 572 678 571
f 678 572 679
f 680 679 572
f 572 573 680
f 681 573 672
f 573 681 680
f 574 682 577
f 682 574 576
f 579 584 575
f 575 584 683
f 575 683 576
f 683 682 576
f 577 682 684
f 685 577 684
f 577 685 581
f 578 582 579
f 671 580 686
f 580 581 686
f 687 581 685
f 581 687 686
f 583 626 682
f 583 683 584
f 583 682 683
f 586 587 688
f 597 586 688
f 586 597 689
f 586 593 588
f 689 593 586
f 587 597 688
f 594 590 591
f 594 591 690
f 691 690 591
f 591 592 691
f 692 691 592
f 593 692 592
f 650 692 593
f 650 593 693
f 593 689 694
f 694 693 593
f 690 595 594
f 595 690 695
f 601 595 695
f 596 697 696
f 698 597 596
f 696 698 596
f 697 596 599
f 698 689 597
f 598 700 699
f 600 701 598
f 701 700 598
f 598 699 599
f 703 702 599
f 704 599 699
f 599 704 703
f 702 697 599
f 701 600 601
f 601 695 701
f 705 603 602
f 602 605 706
f 705 602 706
f 707 604 603
f 705 707 603
f 608 604 707
f 605 708 706
f 708 605 620
f 709 606 607
f 606 709 710
f 615 606 710
f 609 606 615
f 712 711 607
f 713 709 607
f 607 707 712
f 607 608 707
f 607 711 713
f 610 611 714
f 714 655 610
f 610 656 616
f 656 610 655
f 615 715 611
f 615 611 614
f 611 715 714
f 612 613 716
f 618 612 716
f 717 716 613
f 698 613 617
f 613 698 717
f 653 615 710
f 715 615 653
f 616 718 617
f 718 616 656
f 617 694 698
f 694 617 718
f 716 619 618
f 703 619 716
f 704 650 619
f 703 704 619
f 620 621 719
f 720 708 620
f 719 720 620
f 719 621 622
f 719 622 721
f 649 721 622
f 687 623 624
f 687 628 623
f 624 625 722
f 722 687 624
f 625 629 722
f 682 626 684
f 627 684 626
f 628 685 627
f 627 685 684
f 685 628 687
f 629 630 722
f 631 723 630
f 722 630 723
f 632 724 631
f 723 631 724
f 632 634 725
f 725 726 632
f 727 632 726
f 632 727 724
f 635 634 633
f 634 728 725
f 634 642 728
f 640 642 634
f 636 729 637
f 638 730 636
f 729 636 730
f 637 729 731
f 732 637 731
f 637 732 733
f 637 733 643
f 735 638 734
f 734 638 736
f 730 638 735
f 638 639 736
f 736 639 737
f 737 639 738
f 647 738 639
f 642 640 641
f 642 643 739
f 642 739 740
f 642 741 728
f 642 740 742
f 741 642 742
f 643 733 739
f 644 743 648
f 661 743 644
f 744 646 645
f 744 645 648
f 745 646 744
f 646 745 746
f 647 646 746
f 647 746 738
f 748 648 747
f 744 648 748
f 747 648 743
f 749 649 653
f 649 749 721
f 650 704 750
f 652 650 693
f 650 750 692
f 693 656 651
f 652 693 651
f 749 653 710
f 715 653 654
f 654 714 715
f 714 654 655
f 656 693 718
f 751 659 657
f 752 751 657
f 658 752 657
f 662 752 658
f 659 751 753
f 660 659 753
f 754 661 660
f 754 660 753
f 755 661 754
f 661 756 743
f 661 755 756
f 664 752 662
f 663 664 662
f 752 664 757
f 665 757 664
f 665 666 668
f 666 665 667
f 758 665 668
f 757 665 758
f 670 759 668
f 759 758 668
f 673 670 669
f 670 673 760
f 670 760 761
f 762 670 761
f 670 762 759
f 724 671 763
f 671 687 763
f 687 671 686
f 671 724 672
f 727 672 724
f 672 726 681
f 672 727 726
f 760 673 674
f 675 760 674
f 676 764 675
f 675 765 760
f 675 764 766
f 765 675 766
f 677 767 676
f 676 767 768
f 764 676 768
f 677 678 769
f 677 771 770
f 772 677 769
f 772 771 677
f 767 677 770
f 678 774 773
f 679 775 678
f 678 775 776
f 774 678 776
f 769 678 773
f 777 775 679
f 680 777 679
f 681 726 680
f 680 726 741
f 680 741 742
f 740 680 742
f 777 680 740
f 763 687 722
f 689 698 694
f 690 691 778
f 778 695 690
f 750 778 691
f 691 692 750
f 718 693 694
f 700 701 695
f 778 700 695
f 717 698 696
f 779 696 697
f 696 779 717
f 779 697 702
f 700 778 699
f 778 704 699
f 703 779 702
f 779 703 716
f 778 750 704
f 780 712 705
f 706 780 705
f 712 707 705
f 781 780 706
f 708 781 706
f 720 781 708
f 709 782 710
f 782 709 713
f 710 782 749
f 782 711 781
f 781 711 780
f 711 782 713
f 711 712 780
f 779 716 717
f 719 721 720
f 781 720 749
f 721 749 720
f 723 763 722
f 763 723 724
f 725 728 741
f 726 725 741
f 730 783 729
f 729 784 731
f 729 783 784
f 735 785 730
f 730 785 786
f 783 730 786
f 732 731 784
f 776 732 787
f 787 732 784
f 732 776 733
f 733 775 739
f 733 776 775
f 789 734 788
f 736 790 734
f 790 791 734
f 788 734 791
f 734 789 735
f 785 735 789
f 736 737 790
f 737 792 790
f 792 737 793
f 737 738 793
f 794 738 746
f 738 794 793
f 739 775 740
f 775 777 740
f 743 795 747
f 795 743 756
f 748 745 744
f 796 745 748
f 796 746 745
f 797 746 796
f 798 794 746
f 797 798 746
f 747 799 748
f 747 795 799
f 748 801 800
f 799 801 748
f 800 796 748
f 781 749 782
f 752 802 751
f 751 803 753
f 803 751 802
f 752 757 804
f 802 752 804
f 805 755 753
f 805 753 803
f 753 755 754
f 755 805 756
f 806 756 805
f 806 795 756
f 807 757 758
f 757 807 804
f 808 758 759
f 758 809 807
f 808 809 758
f 762 808 759
f 760 765 810
f 761 760 811
f 810 811 760
f 808 761 811
f 808 762 761
f 809 764 812
f 812 764 768
f 764 809 766
f 809 765 766
f 765 809 810
f 812 767 770
f 767 812 768
f 769 773 813
f 814 769 813
f 814 772 769
f 770 771 815
f 770 815 816
f 812 770 817
f 770 816 817
f 771 772 814
f 815 771 814
f 773 784 813
f 773 774 784
f 784 774 787
f 787 774 776
f 783 813 784
f 783 786 818
f 813 783 818
f 785 815 786
f 815 785 789
f 815 818 786
f 788 816 789
f 816 788 791
f 815 789 816
f 791 790 819
f 790 792 820
f 819 790 820
f 816 791 821
f 822 821 791
f 819 822 791
f 792 793 798
f 820 792 823
f 823 792 798
f 794 798 793
f 795 806 799
f 824 797 796
f 800 824 796
f 797 824 825
f 797 827 826
f 828 797 825
f 797 828 829
f 827 797 829
f 798 797 826
f 798 830 823
f 830 798 826
f 806 831 799
f 799 831 801
f 832 824 800
f 800 831 832
f 800 801 831
f 802 833 803
f 835 802 834
f 835 833 802
f 804 834 802
f 831 803 832
f 803 833 832
f 803 831 805
f 804 807 834
f 831 806 805
f 807 812 836
f 809 812 807
f 836 834 807
f 809 808 811
f 811 810 809
f 817 836 812
f 813 818 837
f 813 837 814
f 815 814 837
f 815 837 818
f 838 817 816
f 838 816 821
f 838 839 817
f 817 839 836
f 819 820 840
f 840 822 819
f 840 820 823
f 821 822 841
f 821 841 838
f 822 840 842
f 841 822 842
f 843 842 823
f 823 842 840
f 830 843 823
f 825 824 832
f 832 828 825
f 826 827 844
f 830 826 844
f 844 827 839
f 839 827 829
f 839 828 832
f 828 839 829
f 843 830 838
f 838 830 844
f 833 845 832
f 845 839 832
f 845 833 835
f 835 834 836
f 836 845 835
f 845 836 839
f 839 838 844
f 841 843 838
f 841 842 843
