# Generated by Visualization Toolkit
v -0.049504999071359634 -0.06943999975919724 0.05577100068330765
v -0.04659000039100647 -0.06160899996757507 0.06647799909114838
v -0.052476998418569565 -0.06797099858522415 0.05871399864554405
v -0.05175499990582466 -0.07162699848413467 0.05498100072145462
v -0.043122999370098114 -0.06934899836778641 0.054662998765707016
v -0.0540039986371994 -0.06297100335359573 0.06983400136232376
v -0.03857899829745293 -0.06153300032019615 0.06625500321388245
v -0.04732400178909302 -0.05919700115919113 0.07575400173664093
v -0.057176001369953156 -0.07245399802923203 0.05952199921011925
v -0.05762900039553642 -0.06650400161743164 0.068122997879982
v -0.04798800125718117 -0.08272500336170197 0.049272000789642334
v -0.054276999086141586 -0.08149299770593643 0.053346000611782074
v -0.037271998822689056 -0.06575199961662292 0.059863001108169556
v -0.03730500116944313 -0.07225000113248825 0.053693000227212906
v -0.040828000754117966 -0.07876499742269516 0.049619998782873154
v -0.057934001088142395 -0.06570599973201752 0.07144399732351303
v -0.0528779998421669 -0.061195001006126404 0.0770139992237091
v -0.03090899996459484 -0.06690199673175812 0.06314600259065628
v -0.030494999140501022 -0.06384199857711792 0.07114800065755844
v -0.02718600071966648 -0.0647049993276596 0.07715699821710587
v -0.03985900059342384 -0.060166001319885254 0.09066499769687653
v -0.03205699846148491 -0.061535000801086426 0.08433700352907181
v -0.04955799877643585 -0.062341999262571335 0.09236399829387665
v -0.06064999848604202 -0.07534900307655334 0.06298399716615677
v -0.06059499830007553 -0.06889499723911285 0.07242699712514877
v -0.04087899997830391 -0.09216099977493286 0.04748300090432167
v -0.03735499829053879 -0.08477699756622314 0.04927400127053261
v -0.05346100032329559 -0.0853630006313324 0.0551920011639595
v -0.03370999917387962 -0.07992299646139145 0.05176699906587601
v -0.029153000563383102 -0.0715709999203682 0.05986500158905983
v -0.05953500047326088 -0.06861300021409988 0.09199400246143341
v -0.05254799872636795 -0.06371200084686279 0.09213399887084961
v -0.024072999134659767 -0.07099299877882004 0.06888599693775177
v -0.02570199966430664 -0.06638900190591812 0.07445400208234787
v -0.02677999995648861 -0.06333599984645844 0.08079800009727478
v -0.03285900130867958 -0.06081800162792206 0.08721499890089035
v -0.03932400047779083 -0.05939999967813492 0.09235499799251556
v -0.031029000878334045 -0.061030998826026917 0.08591300249099731
v -0.04702199995517731 -0.06095699965953827 0.09444300085306168
v -0.06132499873638153 -0.07754100114107132 0.06704399734735489
v -0.06227799877524376 -0.07239799946546555 0.08668699860572815
v -0.034596998244524 -0.08771199733018875 0.05044399946928024
v -0.035679999738931656 -0.09377200156450272 0.04811999946832657
v -0.036111000925302505 -0.09257899969816208 0.04909300059080124
v -0.04606899991631508 -0.09423399716615677 0.05997699871659279
v -0.04065699875354767 -0.09359099715948105 0.04643600061535835
v -0.0424560010433197 -0.0952640026807785 0.05221199989318848
v -0.05546699836850166 -0.08876000344753265 0.0681459978222847
v -0.05846399813890457 -0.0850209966301918 0.07091599702835083
v -0.04746000096201897 -0.09421700239181519 0.061925001442432404
v -0.02104800008237362 -0.0790029987692833 0.06501899659633636
v -0.029534000903367996 -0.09091100096702576 0.05422699823975563
v -0.024700000882148743 -0.08906999975442886 0.05933399870991707
v -0.023527000099420547 -0.08739200234413147 0.06074199825525284
v -0.02258099988102913 -0.07467000186443329 0.06671199947595596
v -0.05333000048995018 -0.06403400003910065 0.09478799998760223
v -0.060499001294374466 -0.06771399825811386 0.09285999834537506
v -0.06354600191116333 -0.07175000011920929 0.08764799684286118
v -0.02425600029528141 -0.06617099791765213 0.07475399971008301
v -0.021849000826478004 -0.07098200172185898 0.06958799809217453
v -0.03042599931359291 -0.059255000203847885 0.08644399791955948
v -0.025766000151634216 -0.05743499845266342 0.08211600035429001
v -0.034033000469207764 -0.05988200008869171 0.08931300044059753
v -0.038933999836444855 -0.057746000587940216 0.09315499663352966
v -0.04704400151968002 -0.05945200100541115 0.09599599987268448
v -0.03344200178980827 -0.0576849989593029 0.09010300040245056
v -0.05066300183534622 -0.06135600060224533 0.09619800001382828
v -0.06148400157690048 -0.0806019976735115 0.07538100332021713
v -0.06273700296878815 -0.07763099670410156 0.081325002014637
v -0.032930001616477966 -0.0929270014166832 0.051075998693704605
v -0.03244299814105034 -0.0935330018401146 0.05058399960398674
v -0.03670100122690201 -0.0947910025715828 0.04521699994802475
v -0.04466800019145012 -0.09602300077676773 0.05679500102996826
v -0.04807300120592117 -0.0968099981546402 0.06149499863386154
v -0.03855900093913078 -0.09488999843597412 0.044349998235702515
v -0.045301999896764755 -0.09779299795627594 0.041064999997615814
v -0.04519600048661232 -0.09618599712848663 0.05066800117492676
v -0.04488600045442581 -0.09579099714756012 0.05386799946427345
v -0.05590200051665306 -0.09016600251197815 0.06898300349712372
v -0.05906900018453598 -0.08752799779176712 0.07195500284433365
v -0.06132899969816208 -0.08185800164937973 0.07676800340414047
v -0.05413199961185455 -0.09506700187921524 0.06594300270080566
v -0.020208999514579773 -0.08615999668836594 0.061608001589775085
v -0.019060999155044556 -0.07937700301408768 0.06491100043058395
v -0.02028300054371357 -0.07502300292253494 0.0671359971165657
v -0.02124599926173687 -0.07491599768400192 0.06721100211143494
v -0.02857300080358982 -0.09225799888372421 0.05319099873304367
v -0.02383499965071678 -0.08969099819660187 0.0589510016143322
v -0.05406099930405617 -0.06327900290489197 0.09590499848127365
v -0.057335998862981796 -0.06531400233507156 0.09457200020551682
v -0.06281500309705734 -0.06854899972677231 0.09015200287103653
v -0.06106799840927124 -0.0670590028166771 0.09239500015974045
v -0.06436900049448013 -0.07421600073575974 0.08461199700832367
v -0.0639209970831871 -0.06798999756574631 0.0893310010433197
v -0.06485500186681747 -0.07084199786186218 0.08701600134372711
v -0.02128800004720688 -0.07016000151634216 0.06915400177240372
v -0.02476700022816658 -0.05486400052905083 0.07466399669647217
v -0.02301100082695484 -0.05987900123000145 0.06725499778985977
v -0.02852099947631359 -0.055472999811172485 0.09076199680566788
v -0.02291399985551834 -0.05375700071454048 0.0821089968085289
v -0.022050999104976654 -0.05218999832868576 0.07931499928236008
v -0.024156000465154648 -0.054604001343250275 0.08491499722003937
v -0.03870699927210808 -0.056290000677108765 0.09380800276994705
v -0.04280100017786026 -0.05760699883103371 0.09507700055837631
v -0.046893998980522156 -0.052726998925209045 0.09468100219964981
v -0.050957001745700836 -0.05511000007390976 0.09474299848079681
v -0.042086001485586166 -0.048973001539707184 0.09400299936532974
v -0.02883799932897091 -0.053895000368356705 0.09202399849891663
v -0.029763000085949898 -0.05191199854016304 0.09287899732589722
v -0.03382499888539314 -0.05343899875879288 0.09323599934577942
v -0.06472600251436234 -0.07862100005149841 0.07927899807691574
v -0.06486299633979797 -0.07662100344896317 0.08165500313043594
v -0.06311299651861191 -0.0842910036444664 0.07447300106287003
v -0.030900999903678894 -0.09418699890375137 0.04905499890446663
v -0.03332199901342392 -0.09387099742889404 0.044374000281095505
v -0.03818599879741669 -0.09354600310325623 0.04144600033760071
v -0.04590100049972534 -0.09612999856472015 0.05622199922800064
v -0.049594998359680176 -0.09674999862909317 0.05722000077366829
v -0.05568600073456764 -0.09577500075101852 0.06310900300741196
v -0.05481699854135513 -0.09567300230264664 0.0648140013217926
v -0.044245000928640366 -0.09357500076293945 0.03951599821448326
v -0.05090999975800514 -0.1036520004272461 0.04058400169014931
v -0.05336900055408478 -0.1031159982085228 0.0372919999063015
v -0.05150299891829491 -0.1010420024394989 0.04571500048041344
v -0.052636001259088516 -0.10054899752140045 0.05440099909901619
v -0.057874999940395355 -0.09184099733829498 0.06880699843168259
v -0.06129999831318855 -0.08805900067090988 0.07176899909973145
v -0.0180440004914999 -0.08679299801588058 0.05928599834442139
v -0.02116899937391281 -0.09072499722242355 0.05655200034379959
v -0.0174189992249012 -0.07843700051307678 0.06313599646091461
v -0.057978998869657516 -0.06439699977636337 0.09394600242376328
v -0.053339000791311264 -0.056258998811244965 0.09446900337934494
v -0.06466200202703476 -0.06066900119185448 0.08965600281953812
v -0.06910400092601776 -0.07071699947118759 0.08223500102758408
v -0.0662039965391159 -0.06988400220870972 0.08635199815034866
v -0.06838499754667282 -0.06804999709129333 0.08509799838066101
v -0.06743600219488144 -0.0651020035147667 0.08776500076055527
v -0.019433999434113503 -0.06228699907660484 0.05580100044608116
v -0.026357000693678856 -0.05249600112438202 0.0704139992594719
v -0.02545900084078312 -0.052083998918533325 0.07380499690771103
v -0.024399999529123306 -0.056060001254081726 0.0606129989027977
v -0.028537999838590622 -0.04968399927020073 0.0663670003414154
v -0.027137000113725662 -0.05262799933552742 0.09193599969148636
v -0.024786999449133873 -0.05240499973297119 0.08908499777317047
v -0.020733999088406563 -0.05345800146460533 0.08619099855422974
v -0.022918999195098877 -0.04920300096273422 0.07801000028848648
v -0.017629999667406082 -0.048117998987436295 0.08215499669313431
v -0.033052001148462296 -0.04842999950051308 0.09331600368022919
v -0.04632899910211563 -0.04842900112271309 0.09397599846124649
v -0.05023600161075592 -0.04969999939203262 0.09368299692869186
v -0.05435999855399132 -0.05119699984788895 0.09209199994802475
v -0.041214000433683395 -0.04527600109577179 0.09400700032711029
v -0.026034999638795853 -0.04819900169968605 0.09317400306463242
v -0.06594300270080566 -0.07779400050640106 0.07891800254583359
v -0.06705199927091599 -0.0771389976143837 0.07819700241088867
v -0.07143300026655197 -0.07265400141477585 0.07778000086545944
v -0.07119499891996384 -0.06950099766254425 0.08067300170660019
v -0.06894099712371826 -0.07616700232028961 0.07676400244235992
v -0.06323300302028656 -0.08751600235700607 0.06959600001573563
v -0.029743000864982605 -0.09256599843502045 0.04513999819755554
v -0.03429099917411804 -0.09025699645280838 0.04399000108242035
v -0.046177998185157776 -0.07331699877977371 0.045572999864816666
v -0.058761000633239746 -0.09227299690246582 0.06759800016880035
v -0.059516001492738724 -0.09212300181388855 0.06657300144433975
v -0.05984500050544739 -0.10325600206851959 0.06072299927473068
v -0.05759799852967262 -0.10598000138998032 0.05536400154232979
v -0.057197000831365585 -0.10070700198411942 0.037620000541210175
v -0.06686100363731384 -0.07935599982738495 0.045885998755693436
v -0.056582000106573105 -0.11027800291776657 0.036166001111269
v -0.05442599952220917 -0.10984300076961517 0.04081200063228607
v -0.05686299875378609 -0.10731899738311768 0.050255000591278076
v -0.015173999592661858 -0.08822900056838989 0.046918999403715134
v -0.0230260007083416 -0.09159500151872635 0.04716400057077408
v -0.015331000089645386 -0.09042000025510788 0.04126400128006935
v -0.012857000343501568 -0.08564899861812592 0.04117799922823906
v -0.014809999614953995 -0.08045700192451477 0.035944998264312744
v -0.06039100140333176 -0.0554409995675087 0.09011200070381165
v -0.06391900032758713 -0.047958001494407654 0.08659899979829788
v -0.06939200311899185 -0.06235399842262268 0.08625999838113785
v -0.019756000488996506 -0.07243700325489044 0.03763100132346153
v -0.024752000346779823 -0.060819000005722046 0.045233000069856644
v -0.02805499918758869 -0.04921799898147583 0.06975799798965454
v -0.026635000482201576 -0.049327999353408813 0.07323499768972397
v -0.034405000507831573 -0.047972001135349274 0.054069001227617264
v -0.027380000799894333 -0.05301700159907341 0.060926999896764755
v -0.048923999071121216 -0.03860500082373619 0.05391699820756912
v -0.05130600184202194 -0.03677000105381012 0.05500999838113785
v -0.031491998583078384 -0.04531899839639664 0.06885699927806854
v -0.019540000706911087 -0.052368998527526855 0.08868099749088287
v -0.017136000096797943 -0.05018800124526024 0.08677799999713898
v -0.018466999754309654 -0.05133499950170517 0.08821900188922882
v -0.023948999121785164 -0.04558999836444855 0.07757599651813507
v -0.02120400033891201 -0.041958998888731 0.08117400109767914
v -0.012880000285804272 -0.04174700006842613 0.0852229967713356
v -0.014324000105261803 -0.040803998708724976 0.0848110020160675
v -0.014402000233530998 -0.04628700017929077 0.08489800244569778
v -0.027945000678300858 -0.043487001210451126 0.09527499973773956
v -0.03340800106525421 -0.042072001844644547 0.09512999653816223
v -0.0452749989926815 -0.04483800008893013 0.09409400075674057
v -0.04911699891090393 -0.04561899974942207 0.09398599714040756
v -0.055918000638484955 -0.0470150001347065 0.09186799824237823
v -0.05990700051188469 -0.04979800060391426 0.0885550007224083
v -0.03814399987459183 -0.04208099842071533 0.09519600123167038
v -0.017796000465750694 -0.050342999398708344 0.0897269994020462
v -0.02227500081062317 -0.04538099840283394 0.0938669964671135
v -0.07783100008964539 -0.044252000749111176 0.06879299879074097
v -0.08173300325870514 -0.046355001628398895 0.06600499898195267
v -0.0819690003991127 -0.06863400340080261 0.0659710019826889
v -0.08298099786043167 -0.05366099998354912 0.06502900272607803
v -0.0772090032696724 -0.07461600005626678 0.06848300248384476
v -0.07092099636793137 -0.04349299892783165 0.08040399849414825
v -0.0662039965391159 -0.08835499733686447 0.06762800365686417
v -0.06890399754047394 -0.08827999979257584 0.06541900336742401
v -0.06512200087308884 -0.09706699848175049 0.06421799957752228
v -0.02585200034081936 -0.0907130017876625 0.042837999761104584
v -0.02436099946498871 -0.09139399975538254 0.044516000896692276
v -0.030629999935626984 -0.08717600256204605 0.042174000293016434
v -0.033208999782800674 -0.08127400279045105 0.04284000024199486
v -0.036451999098062515 -0.07552900165319443 0.04357500001788139
v -0.04546400159597397 -0.06854499876499176 0.04695099964737892
v -0.03989500179886818 -0.07082899659872055 0.04493600130081177
v -0.062470000237226486 -0.10828500241041183 0.06385800242424011
v -0.062178000807762146 -0.11210799962282181 0.06187700107693672
v -0.07347500324249268 -0.0932060033082962 0.04219600185751915
v -0.07695899903774261 -0.09092699736356735 0.0443900004029274
v -0.07343000173568726 -0.10130800306797028 0.043313998728990555
v -0.08087699860334396 -0.11976899951696396 0.04862599819898605
v -0.059769000858068466 -0.11193999648094177 0.034596998244524
v -0.08348099887371063 -0.07293199747800827 0.05142299830913544
v -0.08097399771213531 -0.0660490021109581 0.05237000063061714
v -0.07773300260305405 -0.04877699911594391 0.05796299874782562
v -0.08193899691104889 -0.08553300052881241 0.044881001114845276
v -0.061027999967336655 -0.04618699848651886 0.05208100005984306
v -0.05687199905514717 -0.11268199980258942 0.035234998911619186
v -0.054255999624729156 -0.11496199667453766 0.03830699995160103
v -0.0630669966340065 -0.12972499430179596 0.04391999915242195
v -0.06930699944496155 -0.12814800441265106 0.06085500121116638
v -0.05567999929189682 -0.116457000374794 0.04076499864459038
v -0.06099899858236313 -0.12627899646759033 0.04227900132536888
v -0.06569299846887589 -0.11774499714374542 0.061691999435424805
v -0.01448800042271614 -0.08922600001096725 0.03636299818754196
v -0.023465000092983246 -0.09040000289678574 0.04039499908685684
v -0.022985000163316727 -0.09148299694061279 0.03244199976325035
v -0.013683999888598919 -0.08742599934339523 0.03673800081014633
v -0.01148299966007471 -0.08528900146484375 0.030446000397205353
v -0.018626999109983444 -0.07711999863386154 0.03427499905228615
v -0.055977001786231995 -0.03233199939131737 0.08977700024843216
v -0.07536300271749496 -0.031339000910520554 0.0797950029373169
v -0.06566999852657318 -0.03183500096201897 0.08478599786758423
v -0.020620999857783318 -0.07986299693584442 0.03228500112891197
v -0.023645000532269478 -0.07918400317430496 0.03474399819970131
v -0.02397800050675869 -0.083576999604702 0.03172700107097626
v -0.03472699970006943 -0.050905000418424606 0.050540998578071594
v -0.03268799930810928 -0.06457100063562393 0.04486199840903282
v -0.04601399973034859 -0.04115400090813637 0.05248900130391121
v -0.052618999034166336 -0.03813299909234047 0.05388600006699562
v -0.05794699862599373 -0.03509499877691269 0.05498100072145462
v -0.05908900126814842 -0.012601999565958977 0.07577399909496307
v -0.042080000042915344 -0.03206999972462654 0.07484100013971329
v -0.010866000317037106 -0.04349299892783165 0.08835600316524506
v -0.03280099853873253 -0.030626999214291573 0.0848350003361702
v -0.011334000155329704 -0.03825800120830536 0.08943500369787216
v -0.012389999814331532 -0.03489900007843971 0.09040500223636627
v -0.023938000202178955 -0.04098999872803688 0.09591300040483475
v -0.01651199907064438 -0.031008999794721603 0.09987299889326096
v -0.04380200058221817 -0.04191799834370613 0.09565100073814392
v -0.04803700000047684 -0.042479000985622406 0.09589599817991257
v -0.045301999896764755 -0.03034299984574318 0.09436099976301193
v -0.03592599928379059 -0.03908799961209297 0.09713000059127808
v -0.017434999346733093 -0.043758999556303024 0.09427899867296219
v -0.012631000019609928 -0.04428999871015549 0.09327100217342377
v -0.08651400357484818 -0.04180699959397316 0.06592100113630295
v -0.08431699872016907 -0.04135499894618988 0.06915000081062317
v -0.08249100297689438 -0.03672799840569496 0.07446900010108948
v -0.08248099684715271 -0.04685800150036812 0.06497400254011154
v -0.08132799714803696 -0.07374899834394455 0.06390800327062607
v -0.08352299779653549 -0.06741899996995926 0.06192699819803238
v -0.08070799708366394 -0.04799199849367142 0.06074199825525284
v -0.0807420015335083 -0.04611099883913994 0.0610710009932518
v -0.07997100055217743 -0.08905799686908722 0.05888500064611435
v -0.08087699860334396 -0.08042000234127045 0.06288299709558487
v -0.08094500005245209 -0.0769990012049675 0.06386999785900116
v -0.0696059986948967 -0.09270600229501724 0.06409399956464767
v -0.0663980022072792 -0.09896200150251389 0.06514400243759155
v -0.07242699712514877 -0.09872700273990631 0.06713499873876572
v -0.02712699957191944 -0.08402200043201447 0.03877200186252594
v -0.03282700106501579 -0.07637400180101395 0.04208799824118614
v -0.03622899949550629 -0.07153700292110443 0.04363099858164787
v -0.044537000358104706 -0.06541900336742401 0.04768100008368492
v -0.038881998509168625 -0.0679590031504631 0.0454539991915226
v -0.06636200100183487 -0.11111799627542496 0.06506899744272232
v -0.07183299958705902 -0.10524900257587433 0.06802800297737122
v -0.07697100192308426 -0.09294100105762482 0.04468899965286255
v -0.07791099697351456 -0.09487699717283249 0.0462069995701313
v -0.07760000228881836 -0.09715700149536133 0.04704799875617027
v -0.0806950032711029 -0.09214700013399124 0.04535900056362152
v -0.07729600369930267 -0.10644099861383438 0.047970000654459
v -0.08509200066328049 -0.11898399889469147 0.05698699876666069
v -0.0807339996099472 -0.11075100302696228 0.05178900063037872
v -0.07722499966621399 -0.12395799905061722 0.04559199884533882
v -0.08182500302791595 -0.12540799379348755 0.04843699932098389
v -0.0595880001783371 -0.11453600227832794 0.03318899869918823
v -0.08828099817037582 -0.079135000705719 0.046424999833106995
v -0.08926600217819214 -0.0788239985704422 0.05064300075173378
v -0.0845009982585907 -0.07332099974155426 0.05592799931764603
v -0.08313299715518951 -0.06580500304698944 0.05775799974799156
v -0.07812000066041946 -0.04296899959445 0.05818299949169159
v -0.07056300342082977 -0.03972399979829788 0.055181000381708145
v -0.08879200369119644 -0.08475500345230103 0.04352099820971489
v -0.08929400146007538 -0.08815599977970123 0.04126400128006935
v -0.0852309986948967 -0.09227599948644638 0.04295000061392784
v -0.048103999346494675 -0.04630399867892265 0.05194700136780739
v -0.043765000998973846 -0.06240500137209892 0.04854400083422661
v -0.054489001631736755 -0.11920200288295746 0.031150000169873238
v -0.050494998693466187 -0.12150599807500839 0.03401400148868561
v -0.052956998348236084 -0.12210699915885925 0.035721998661756516
v -0.0630130022764206 -0.13503800332546234 0.04067600145936012
v -0.06077500060200691 -0.13076600432395935 0.038757000118494034
v -0.06431499868631363 -0.14121399819850922 0.039023999124765396
v -0.0739390030503273 -0.14002999663352966 0.056970998644828796
v -0.07436700165271759 -0.13612399995326996 0.06163899973034859
v -0.07670900225639343 -0.1318970024585724 0.0640840008854866
v -0.07219500094652176 -0.12605200707912445 0.06373199820518494
v -0.07004900276660919 -0.11909600347280502 0.06265299767255783
v -0.05667100101709366 -0.12889499962329865 0.033636000007390976
v -0.056561000645160675 -0.12537799775600433 0.03658200055360794
v -0.011091000400483608 -0.09200499951839447 0.02787799946963787
v -0.011989000253379345 -0.08803199976682663 0.031279999762773514
v -0.024441000074148178 -0.0877159982919693 0.035930998623371124
v -0.01523599959909916 -0.09659899771213531 0.02437100000679493
v -0.023799000307917595 -0.09538999944925308 0.028651999309659004
v -0.02507700026035309 -0.09487400203943253 0.028901999816298485
v -0.024430999532341957 -0.0899370014667511 0.03344900161027908
v -0.008042000234127045 -0.08946400135755539 0.027979999780654907
v -0.007116000168025494 -0.08755999803543091 0.026948999613523483
v -0.012864000163972378 -0.08345100283622742 0.028449000790715218
v -0.0426269993185997 -0.0025430000387132168 0.10342899709939957
v -0.051580000668764114 0.000195999993593432 0.09859400242567062
v -0.07573000341653824 0.009297999553382397 0.08267199993133545
v -0.08703099936246872 -0.015375000424683094 0.07269400358200073
v -0.10012900084257126 -0.03984399884939194 0.07009699940681458
v -0.01632400043308735 -0.0851060003042221 0.027080999687314034
v -0.021170999854803085 -0.08276200294494629 0.030331000685691833
v -0.027351999655365944 -0.08122699707746506 0.035794999450445175
v -0.02608099952340126 -0.09371600300073624 0.029260000213980675
v -0.031209999695420265 -0.07418099790811539 0.04055500030517578
v -0.03124300017952919 -0.0697999969124794 0.042371999472379684
v -0.02473199926316738 -0.08687800168991089 0.031272999942302704
v -0.019301999360322952 -0.09087000042200089 0.023350000381469727
v -0.025534000247716904 -0.08726800233125687 0.029983000829815865
v -0.03728000074625015 -0.06327900290489197 0.04655599966645241
v -0.034612998366355896 -0.06649500131607056 0.04464399814605713
v -0.07763700187206268 -0.03713199868798256 0.05662500113248825
v -0.07115799933671951 -0.02654699981212616 0.054754000157117844
v -0.0469760000705719 -0.007997999899089336 0.08493799716234207
v -0.06802000105381012 0.00380500010214746 0.07623899728059769
v -0.05557899922132492 0.016092000529170036 0.09094999730587006
v -0.0103169996291399 -0.03874000161886215 0.09618300199508667
v -0.00945299956947565 -0.03833800181746483 0.09346800297498703
v -0.012489999644458294 -0.0025569999124854803 0.10839200019836426
v -0.009583000093698502 -0.015496999956667423 0.10369200259447098
v -0.009513000026345253 -0.019133999943733215 0.10489100217819214
v -0.011195999570190907 -0.023057999089360237 0.09976600110530853
v -0.0118410000577569 -0.026316000148653984 0.09687700122594833
v -0.025312000885605812 0.0007169999880716205 0.09967199712991714
v -0.011997999623417854 -0.026372000575065613 0.09803000092506409
v -0.01247899979352951 -0.0256740003824234 0.09977799654006958
v -0.016130000352859497 -0.025953000411391258 0.10245099663734436
v -0.029975999146699905 -0.012490999884903431 0.10414499789476395
v -0.08984799683094025 -0.040251001715660095 0.06821099668741226
v -0.09097599983215332 -0.04102399945259094 0.06696300208568573
v -0.0821240022778511 -0.04309599846601486 0.06133100017905235
v -0.08462899923324585 -0.04096600040793419 0.061911001801490784
v -0.0876300036907196 -0.08115000277757645 0.05459300056099892
v -0.08387500047683716 -0.07909899950027466 0.0612730011343956
v -0.07889600098133087 -0.10021000355482101 0.06395799666643143
v -0.08333399891853333 -0.08914999663829803 0.05700099840760231
v -0.08101700246334076 -0.09514600038528442 0.05863099917769432
v -0.08353699743747711 -0.0820780023932457 0.06091500073671341
v -0.07581999897956848 -0.10114700347185135 0.06830199807882309
v -0.025438999757170677 -0.08675900101661682 0.03585699945688248
v -0.03580300137400627 -0.06823199987411499 0.04433299973607063
v -0.0816510021686554 -0.11059000343084335 0.06585899740457535
v -0.08273199945688248 -0.09334199875593185 0.04504900053143501
v -0.08123800158500671 -0.09469299763441086 0.048151999711990356
v -0.08418300002813339 -0.09376999735832214 0.04540799930691719
v -0.08028200268745422 -0.09647800028324127 0.049306001514196396
v -0.0825909972190857 -0.09645900130271912 0.05190199986100197
v -0.08150599896907806 -0.10044799745082855 0.057402998208999634
v -0.07953000068664551 -0.10624399781227112 0.050958000123500824
v -0.08840300142765045 -0.12222599983215332 0.057172998785972595
v -0.08584000170230865 -0.11636000126600266 0.06391599774360657
v -0.08426500111818314 -0.11096800118684769 0.06568499654531479
v -0.08375400304794312 -0.12794899940490723 0.0454539991915226
v -0.07529100030660629 -0.13355399668216705 0.038885001093149185
v -0.05762400105595589 -0.12025299668312073 0.029356999322772026
v -0.09098300337791443 -0.08079499751329422 0.04612300172448158
v -0.09150400012731552 -0.08072599768638611 0.04814999923110008
v -0.09074799716472626 -0.08299099653959274 0.04982899874448776
v -0.08040200173854828 -0.03986399993300438 0.058139998465776443
v -0.09296300262212753 -0.08286699652671814 0.04612499848008156
v -0.09314800053834915 -0.08443400263786316 0.045726001262664795
v -0.09241099655628204 -0.08632999658584595 0.045579999685287476
v -0.09053699672222137 -0.0893860012292862 0.042465999722480774
v -0.08921899646520615 -0.09094999730587006 0.0418890006840229
v -0.08869899809360504 -0.09264300018548965 0.04320399835705757
v -0.04966700077056885 -0.12166299670934677 0.028882000595331192
v -0.05355999991297722 -0.12317600101232529 0.025522999465465546
v -0.05107799917459488 -0.12253399938344955 0.034046001732349396
v -0.048725999891757965 -0.1224299967288971 0.0328189991414547
v -0.05372700095176697 -0.1261969953775406 0.03297699987888336
v -0.0589900016784668 -0.1327819973230362 0.03570900112390518
v -0.058014001697301865 -0.146807000041008 0.02942200005054474
v -0.0556659996509552 -0.14300699532032013 0.031058000400662422
v -0.05451299995183945 -0.13383300602436066 0.030438000336289406
v -0.05707100033760071 -0.13406600058078766 0.03302200138568878
v -0.06599400192499161 -0.14606499671936035 0.03449700027704239
v -0.07052599638700485 -0.14686299860477448 0.04119100049138069
v -0.07533600181341171 -0.14543099701404572 0.04765300080180168
v -0.05718600004911423 -0.13994200527668 0.032690998166799545
v -0.07746999710798264 -0.13976800441741943 0.05718899890780449
v -0.08360999822616577 -0.13379499316215515 0.060006000101566315
v -0.08249299973249435 -0.12818600237369537 0.06371500343084335
v -0.054416999220848083 -0.13031800091266632 0.031088000163435936
v -0.008452000096440315 -0.0934550017118454 0.025412999093532562
v -0.006035999860614538 -0.09184099733829498 0.025537999346852303
v -0.011966999620199203 -0.10006699711084366 0.01986199989914894
v -0.013660999946296215 -0.10175500065088272 0.019284000620245934
v -0.020326999947428703 -0.10378199815750122 0.020163999870419502
v -0.010641000233590603 -0.09667299687862396 0.02283100038766861
v -0.0254139993339777 -0.10409899801015854 0.024328000843524933
v -0.025160999968647957 -0.08933500200510025 0.03342200070619583
v -0.002489000093191862 -0.0909150019288063 0.02532700076699257
v -0.007860999554395676 -0.08693999797105789 0.026048000901937485
v -0.0019940000493079424 -0.0904339998960495 0.024813000112771988
v -0.010382000356912613 -0.08635500073432922 0.025157000869512558
v -0.033573001623153687 0.014624999836087227 0.11480800062417984
v -0.043946001678705215 0.013243000023066998 0.10929100215435028
v -0.05361400172114372 0.013176999986171722 0.10257700085639954
v -0.10669700056314468 -0.0015030000358819962 0.059491999447345734
v -0.07998999953269958 0.03308999910950661 0.08388999849557877
v -0.09587199985980988 -0.041409000754356384 0.06888499855995178
v -0.11893200129270554 -0.04419799894094467 0.05867899954319
v -0.11626400053501129 -0.04862599819898605 0.056898001581430435
v -0.10007700324058533 -0.043963998556137085 0.06723199784755707
v -0.10930900275707245 -0.020222999155521393 0.06036999821662903
v -0.009975000284612179 -0.09011299908161163 0.013566999696195126
v -0.027907999232411385 -0.10260800272226334 0.02592100016772747
v -0.02651900053024292 -0.10183800011873245 0.02013400010764599
v -0.017647000029683113 -0.09571100026369095 0.012651000171899796
v -0.01255900040268898 -0.09198100119829178 0.013086000457406044
v -0.09337799996137619 -0.04127800092101097 0.05638600140810013
v -0.08823800086975098 -0.0344339981675148 0.053171999752521515
v -0.0828540027141571 -0.03953700140118599 0.058437999337911606
v -0.08504500240087509 -0.025844000279903412 0.05502599850296974
v -0.08025199919939041 -0.0146289998665452 0.052411999553442
v -0.0744910016655922 -0.017216000705957413 0.05602499842643738
v -0.07623899728059769 -0.007892999798059464 0.06105500087141991
v -0.04373899847269058 0.026576999574899673 0.1025179997086525
v -0.07715100049972534 0.009364999830722809 0.07012999802827835
v -0.08102100342512131 0.024591999128460884 0.06878200173377991
v -0.056418001651763916 0.037744998931884766 0.09533900022506714
v -0.051128000020980835 0.03556700050830841 0.10078399628400803
v -0.0033579999580979347 -0.004474999848753214 0.11824200302362442
v -0.0045289997942745686 -0.014777000062167645 0.11560600250959396
v -0.013586999848484993 0.01623000018298626 0.11937899887561798
v -0.01040400005877018 -0.019231999292969704 0.10563600063323975
v -0.008475000038743019 -0.0181450005620718 0.11042799800634384
v -0.006424000021070242 -0.01649799942970276 0.11494400352239609
v -0.01143999956548214 -0.023155000060796738 0.1007390022277832
v -0.03699599951505661 0.02831999957561493 0.10722099989652634
v -0.029888000339269638 0.035436999052762985 0.11761900037527084
v -0.011951000429689884 -0.022870000451803207 0.1017640009522438
v -0.012895000167191029 -0.0163199994713068 0.11110000312328339
v -0.021152999252080917 -0.00145800004247576 0.11537999659776688
v -0.012563999742269516 -0.012520000338554382 0.11867199838161469
v -0.02317499928176403 0.01228300016373396 0.12072200328111649
v -0.09184200316667557 -0.04038099944591522 0.060763001441955566
v -0.08624900132417679 -0.08334600180387497 0.057133998721838
v -0.082676000893116 -0.09459400177001953 0.056439999490976334
v -0.08388199657201767 -0.09266000241041183 0.052990999072790146
v -0.08663000166416168 -0.09313300251960754 0.048611000180244446
v -0.08592700213193893 -0.09386199712753296 0.04659799858927727
v -0.0869550034403801 -0.1315310001373291 0.05249100178480148
v -0.08695100247859955 -0.12454599887132645 0.06149600073695183
v -0.08493900299072266 -0.135562002658844 0.05038600042462349
v -0.07832299917936325 -0.14433899521827698 0.04420199990272522
v -0.08048500120639801 -0.1420229971408844 0.04634299874305725
v -0.06753399968147278 -0.13851599395275116 0.03013000078499317
v -0.07350999861955643 -0.1468140035867691 0.03934299945831299
v -0.059741999953985214 -0.13892999291419983 0.02329299971461296
v -0.09275200217962265 -0.08443199843168259 0.0473099984228611
v -0.09202499687671661 -0.08646800369024277 0.04866399988532066
v -0.09245499968528748 -0.08675800263881683 0.04697300121188164
v -0.09207399934530258 -0.08795599639415741 0.04467900097370148
v -0.09155099838972092 -0.08901599794626236 0.046114999800920486
v -0.09033899754285812 -0.09110700339078903 0.043209999799728394
v -0.08944199979305267 -0.09233500063419342 0.04494199901819229
v -0.045166999101638794 -0.1227400004863739 0.03127700090408325
v -0.04221000149846077 -0.12179400026798248 0.025750000029802322
v -0.04510999843478203 -0.1258620023727417 0.02222900092601776
v -0.048308998346328735 -0.12320899963378906 0.03176400065422058
v -0.04796300083398819 -0.12711100280284882 0.02857399918138981
v -0.048579998314380646 -0.14104700088500977 0.026866000145673752
v -0.053752001374959946 -0.1461630016565323 0.02679000049829483
v -0.06270000338554382 -0.1435759961605072 0.02975500002503395
v -0.058490000665187836 -0.14620700478553772 0.028077000752091408
v -0.05484500154852867 -0.13970400393009186 0.030455000698566437
v -0.049028001725673676 -0.1337130069732666 0.027011999860405922
v -0.048572998493909836 -0.13082200288772583 0.027442999184131622
v -0.08223699778318405 -0.13889800012111664 0.054003000259399414
v -0.0789330005645752 -0.14281399548053741 0.0479619987308979
v -0.004976999945938587 -0.09395399689674377 0.024751000106334686
v -0.008178000338375568 -0.09543599933385849 0.023344000801444054
v -0.0024270000867545605 -0.09333600103855133 0.024383999407291412
v -0.010680999606847763 -0.1039619967341423 0.01567699946463108
v -0.009273000061511993 -0.10208799690008163 0.016631999984383583
v -0.009518000297248363 -0.09894099831581116 0.020263999700546265
v -0.012853999622166157 -0.10558100044727325 0.015154000371694565
v -0.023072000592947006 -0.10652200132608414 0.018936999142169952
v -0.019562000408768654 -0.10698100179433823 0.017281999811530113
v -0.020774999633431435 -0.1158439964056015 0.008173000067472458
v -0.026434000581502914 -0.10817600041627884 0.02188500016927719
v -0.0001849999971454963 -0.09184300154447556 0.02287600003182888
v -0.005659999791532755 -0.08904899656772614 0.02299799956381321
v -0.0024049999192357063 -0.08898100256919861 0.010099999606609344
v -0.035541001707315445 0.03693300113081932 0.13055400550365448
v -0.0248819999396801 0.024173999205231667 0.1320279985666275
v -0.03227199986577034 0.03273100033402443 0.13112899661064148
v -0.04095900058746338 0.04248100146651268 0.1288820058107376
v -0.051493000239133835 0.05306300148367882 0.11769700050354004
v -0.04469899833202362 0.04662699997425079 0.1246739998459816
v -0.06279399991035461 0.0561939999461174 0.10870099812746048
v -0.06920900195837021 0.0366940014064312 0.0971279963850975
v -0.09687100350856781 0.02949099987745285 0.06952200084924698
v -0.1104699969291687 0.020166000351309776 0.06037899851799011
v -0.11965300142765045 0.0002640000020619482 0.053268998861312866
v -0.07947900146245956 0.039604999125003815 0.08716300129890442
v -0.08191099762916565 0.04215100035071373 0.08430899679660797
v -0.08681900054216385 0.04030299931764603 0.08054900169372559
v -0.09753599762916565 0.037411000579595566 0.0723629966378212
v -0.11826899647712708 -0.02177100069820881 0.05436500161886215
v -0.12339500337839127 -0.04901000112295151 0.051837000995874405
v -0.13252699375152588 -0.03323199972510338 0.051277998834848404
v -0.12834599614143372 -0.04391299933195114 0.05379899963736534
v -0.12863300740718842 -0.046128999441862106 0.05061599984765053
v -0.1280760020017624 -0.017382999882102013 0.04913699999451637
v -0.11485099792480469 -0.04839799925684929 0.0535850003361702
v -0.009212999604642391 -0.09234599769115448 0.0029319999739527702
v -0.014853999949991703 -0.0968720018863678 0.0021470000501722097
v -0.028169000521302223 -0.1100739985704422 0.014131000265479088
v -0.027904000133275986 -0.10659100115299225 0.023705000057816505
v -0.023182999342679977 -0.11114100366830826 0.00025599999935366213
v -0.10234499722719193 -0.04131599888205528 0.049247998744249344
v -0.11318700015544891 -0.044224001467227936 0.04761999845504761
v -0.09583000093698502 -0.03948500007390976 0.05132099986076355
v -0.12036500126123428 -0.04874299839138985 0.050432998687028885
v -0.09050299972295761 -0.03283900022506714 0.054919999092817307
v -0.08892100304365158 -0.028676999732851982 0.05562499910593033
v -0.08777900040149689 -0.02356100082397461 0.056412000209093094
v -0.08576299995183945 -0.017503999173641205 0.05536400154232979
v -0.08035799860954285 -0.00911100022494793 0.053661998361349106
v -0.08299700170755386 -0.013172999955713749 0.0539340004324913
v -0.08034999668598175 0.00009999999747378752 0.05583300068974495
v -0.0409340001642704 0.039914000779390335 0.10780400037765503
v -0.04760599881410599 0.04806099832057953 0.10429300367832184
v -0.08388999849557877 0.008839000016450882 0.057666998356580734
v -0.08590099960565567 0.015859000384807587 0.0640999972820282
v -0.08224999904632568 0.005388000048696995 0.057130999863147736
v -0.09201700240373611 0.025241000577807426 0.05907699838280678
v -0.09372500330209732 0.028051000088453293 0.056099001318216324
v -0.09077300131320953 0.043512001633644104 0.06344199925661087
v -0.05680600181221962 0.05240299925208092 0.09618999809026718
v -0.007137000095099211 0.008603000082075596 0.12256799638271332
v -0.004495999775826931 -0.00836700014770031 0.12026599794626236
v -0.006554999854415655 0.0054709999822080135 0.12389300018548965
v -0.017545999959111214 0.023948000743985176 0.12633800506591797
v -0.011304999701678753 -0.017619000747799873 0.11108499765396118
v -0.010948999784886837 -0.016188999637961388 0.11619599908590317
v -0.03725599870085716 0.037721000611782074 0.11067300289869308
v -0.026468999683856964 0.03691000118851662 0.12220499664545059
v -0.012409999966621399 -0.01520800031721592 0.11526799947023392
v -0.014015000313520432 0.009219000115990639 0.12774799764156342
v -0.010338000021874905 -0.00911100022494793 0.1230510026216507
v -0.0899140015244484 -0.09124799817800522 0.047157999128103256
v -0.05171800032258034 -0.13781100511550903 0.01990699954330921
v -0.0570559985935688 -0.1462710052728653 0.02609900012612343
v -0.04832499846816063 -0.13083000481128693 0.020363999530673027
v -0.09092000126838684 -0.09059300273656845 0.04495399817824364
v -0.044436998665332794 -0.123369000852108 0.02996000088751316
v -0.0411980003118515 -0.12251999974250793 0.029563000425696373
v -0.03632799908518791 -0.11836100369691849 0.023174000903964043
v -0.04156700149178505 -0.12239699810743332 0.01903899945318699
v -0.043960001319646835 -0.12355300039052963 0.02861100062727928
v -0.044422000646591187 -0.12698900699615479 0.02709300071001053
v -0.03578599914908409 -0.13431599736213684 0.022770000621676445
v -0.04244900122284889 -0.14068199694156647 0.021695999428629875
v -0.03914099931716919 -0.1272979974746704 0.02332399971783161
v -0.037769999355077744 -0.12630900740623474 0.022789999842643738
v -0.04493200033903122 -0.13322900235652924 0.025415999814867973
v -0.044684998691082 -0.13038499653339386 0.025784999132156372
v -0.002314999932423234 -0.0945189967751503 0.023680999875068665
v -0.004858000203967094 -0.09565400332212448 0.023053999990224838
v -0.007923999801278114 -0.09746299684047699 0.021268999204039574
v -0.00034500000765547156 -0.09404599666595459 0.022787999361753464
v -0.009569999761879444 -0.10748100280761719 0.010912000201642513
v -0.008333999663591385 -0.10537400096654892 0.012128000147640705
v -0.0077149998396635056 -0.10049799829721451 0.017680000513792038
v -0.012888000346720219 -0.10903199762105942 0.01208799984306097
v -0.023600000888109207 -0.11842700093984604 0.0007319999858736992
v -0.013558000326156616 -0.11509600281715393 0.006004999857395887
v -0.025405000895261765 -0.11383800208568573 0.015541000291705132
v -0.024968000128865242 -0.11794599890708923 0.012575999833643436
v -0.014398000203073025 -0.11470899730920792 0.007493000011891127
v -0.01070099975913763 -0.11049000173807144 0.009289000183343887
v -0.024966999888420105 -0.11930300295352936 0.005001000128686428
v -0.02608799934387207 -0.1205030009150505 0.010409999638795853
v -0.025894999504089355 -0.1127920001745224 0.017109999433159828
v -0.028068000450730324 -0.11112800240516663 0.02185700088739395
v 0.0006810000049881637 -0.09328799694776535 0.01996600069105625
v -0.0008609999786131084 -0.0900529995560646 0.010359999723732471
v -0.0038610000628978014 -0.09135100245475769 0.003189000068232417
v -0.032370999455451965 0.03581999987363815 0.13162599503993988
v -0.03418499976396561 0.041071999818086624 0.1303669959306717
v -0.03892600163817406 0.04251899942755699 0.12969599664211273
v -0.021205000579357147 0.022539999336004257 0.13177399337291718
v -0.024829000234603882 0.03033200092613697 0.12899300456047058
v -0.02816000021994114 0.0357539989054203 0.12950299680233002
v -0.0428210012614727 0.048413001000881195 0.12483300268650055
v -0.04969700053334236 0.056196000427007675 0.1159529983997345
v -0.060486000031232834 0.05915899947285652 0.1077980026602745
v -0.06773000210523605 0.059255000203847885 0.10201100260019302
v -0.07599999755620956 0.052097998559474945 0.09580200165510178
v -0.08234100043773651 0.05696899816393852 0.08911100029945374
v -0.07804399728775024 0.045409999787807465 0.09048300236463547
v -0.12838000059127808 0.023843999952077866 0.05242700129747391
v -0.11928799748420715 0.034949999302625656 0.05837000161409378
v -0.13497599959373474 0.014360000379383564 0.04728800058364868
v -0.137596994638443 -0.0021589999087154865 0.04714300110936165
v -0.08835099637508392 0.04536399990320206 0.08085700124502182
v -0.09196700155735016 0.04309700056910515 0.07750000059604645
v -0.09586299955844879 0.0525519996881485 0.07684300094842911
v -0.1041639968752861 0.04680600017309189 0.07034099847078323
v -0.12703800201416016 -0.047207001596689224 0.04811999946832657
v -0.13259799778461456 -0.03976200148463249 0.05149700120091438
v -0.13500800728797913 -0.03082199953496456 0.04968800023198128
v -0.1371610015630722 -0.022074999287724495 0.04819599911570549
v -0.13183100521564484 -0.04353500157594681 0.04706500098109245
v -0.002102999947965145 -0.09426400065422058 0.000666000007186085
v -0.02983199991285801 -0.11168400198221207 0.022786999121308327
v -0.027737999334931374 -0.11333700269460678 0.009335000067949295
v -0.028845999389886856 -0.11315000057220459 0.01432000007480383
v -0.007036999799311161 -0.1070609986782074 0.000610999995842576
v -0.01623700000345707 -0.11606600135564804 0.0004400000034365803
v -0.024261999875307083 -0.11811000108718872 0.00006600000051548705
v -0.026474999263882637 -0.11713600158691406 0.0040790000930428505
v -0.10402200371026993 -0.03882399946451187 0.05096700042486191
v -0.1001650020480156 -0.038054000586271286 0.051961999386548996
v -0.10946500301361084 -0.04019400104880333 0.05002399906516075
v -0.11438699811697006 -0.04122199863195419 0.04908699914813042
v -0.12155099958181381 -0.045823998749256134 0.04721299931406975
v -0.0972369983792305 -0.037262000143527985 0.053022999316453934
v -0.09414000064134598 -0.03545000031590462 0.05404999852180481
v -0.0930429995059967 -0.03009600006043911 0.056662000715732574
v -0.09037499874830246 -0.021191999316215515 0.05772100016474724
v -0.08237399905920029 -0.006622999906539917 0.054294999688863754
v -0.08208300173282623 -0.009662000462412834 0.053769998252391815
v -0.08508399873971939 -0.0060430001467466354 0.05517999827861786
v -0.08262000232934952 0.0055149998515844345 0.05528099834918976
v -0.08414799720048904 0.002013999968767166 0.05490199849009514
v -0.03796600177884102 0.04863499850034714 0.11125600337982178
v -0.05631199851632118 0.05619499832391739 0.09936600178480148
v -0.08432599902153015 0.0091559998691082 0.05603799968957901
v -0.08631899952888489 0.01345600001513958 0.05834899842739105
v -0.09266000241041183 0.022346999496221542 0.05761399865150452
v -0.09499199688434601 0.023076999932527542 0.056561000645160675
v -0.10029099881649017 0.034619998186826706 0.053369998931884766
v -0.09997999668121338 0.042413000017404556 0.05592799931764603
v -0.09301300346851349 0.04839299991726875 0.06334900110960007
v -0.08687099814414978 0.05207199975848198 0.07100799679756165
v -0.06726200133562088 0.055410001426935196 0.08822900056838989
v -0.01664000004529953 0.01838500052690506 0.12964700162410736
v -0.009215000085532665 0.006599000189453363 0.12591400742530823
v -0.02110300026834011 0.024313999339938164 0.13145799934864044
v -0.026924999430775642 0.03599400073289871 0.12863899767398834
v -0.03369800001382828 0.04346799850463867 0.11571499705314636
v -0.03219500184059143 0.043476998805999756 0.12734399735927582
v -0.05091400071978569 -0.14348000288009644 0.02247600071132183
v -0.04133399948477745 -0.13127699494361877 0.016544999554753304
v -0.04043399915099144 -0.12310100346803665 0.02697799913585186
v -0.03509800136089325 -0.11873400211334229 0.025940999388694763
v -0.032499998807907104 -0.11526399850845337 0.02229199931025505
v -0.0298909991979599 -0.11438799649477005 0.014488999731838703
v -0.03263799846172333 -0.12189099937677383 0.012167000211775303
v -0.0405689999461174 -0.12641699612140656 0.02550699934363365
v -0.031217999756336212 -0.12930700182914734 0.02092999964952469
v -0.032228000462055206 -0.1252879947423935 0.02082199975848198
v -0.03198999911546707 -0.1328279972076416 0.01773099973797798
v -0.03629099950194359 -0.12287099659442902 0.02339399978518486
v -0.03849399834871292 -0.12463100254535675 0.024302000179886818
v -0.04141400009393692 -0.1289840042591095 0.02429400011897087
v -0.03217000141739845 -0.12290400266647339 0.02077700011432171
v -0.030341999605298042 -0.11851900070905685 0.02001900039613247
v -0.031883999705314636 -0.11702299863100052 0.02374500036239624
v -0.0032130000181496143 -0.09637200087308884 0.02164600044488907
v -0.0013040000339969993 -0.09547200053930283 0.02185799926519394
v -0.006397000048309565 -0.09766700118780136 0.020052000880241394
v -0.00006199999916134402 -0.0946270003914833 0.01876699924468994
v -0.0067540002055466175 -0.10487399995326996 0.010716999880969524
v -0.005756000056862831 -0.105103999376297 0.0051460000686347485
v -0.004116999916732311 -0.10032500326633453 0.014700000174343586
v -0.004666999913752079 -0.09821099787950516 0.018993999809026718
v -0.0054350001737475395 -0.10300000011920929 0.011920999735593796
v -0.01667100004851818 -0.116737000644207 0.0009689999860711396
v -0.01384500041604042 -0.11482000350952148 0.001032999949529767
v -0.026426000520586967 -0.11527799814939499 0.016123000532388687
v -0.026196999475359917 -0.12317200005054474 0.017350999638438225
v -0.0283610001206398 -0.11942599713802338 0.009960000403225422
v 0.0006419999990612268 -0.09168899804353714 0.009491999633610249
v 0.001917000045068562 -0.09435400366783142 0.010730000212788582
v -0.00017100000695791095 -0.09290499985218048 0.0017140000127255917
v -0.037147000432014465 0.04869699850678444 0.1234240010380745
v -0.04730600118637085 0.05731400102376938 0.11305099725723267
v -0.05111199989914894 0.056488998234272 0.10521099716424942
v -0.08020099997520447 0.05882899835705757 0.09039299935102463
v -0.07670799642801285 0.05886000022292137 0.08853200078010559
v -0.06523499637842178 0.05925099924206734 0.09912999719381332
v -0.08588899672031403 0.05621200054883957 0.08571899682283401
v -0.12275400012731552 0.02998499944806099 0.053266000002622604
v -0.12799300253391266 0.02354300022125244 0.050050999969244
v -0.1172420009970665 0.03609500080347061 0.05724399909377098
v -0.1130639985203743 0.04046199843287468 0.05979499965906143
v -0.10661199688911438 0.046087998896837234 0.06728199869394302
v -0.14040400087833405 -0.00031900001340545714 0.042132001370191574
v -0.13539600372314453 0.01381599996238947 0.04411900043487549
v -0.14061099290847778 -0.0015930000226944685 0.04560200124979019
v -0.14155800640583038 -0.009522000327706337 0.044610001146793365
v -0.14092600345611572 -0.014968999661505222 0.04509599879384041
v -0.10410899668931961 0.04775099828839302 0.06893599778413773
v -0.09691599756479263 0.05066800117492676 0.06678500026464462
v -0.08678100258111954 0.0558909997344017 0.07942599803209305
v -0.09044399857521057 0.05385800078511238 0.07382400333881378
v -0.1269499957561493 -0.042725998908281326 0.045219000428915024
v -0.13457399606704712 -0.037939999252557755 0.04670900106430054
v -0.13556599617004395 -0.03143199905753136 0.04656200110912323
v -0.1367879956960678 -0.027031000703573227 0.045556001365184784
v -0.12962600588798523 -0.038718000054359436 0.04580700024962425
v -0.13246500492095947 -0.03400300070643425 0.04635699838399887
v 0.0014860000228509307 -0.09711100161075592 0.001353000057861209
v -0.03167000040411949 -0.11439500004053116 0.02372400090098381
v -0.105942003428936 -0.036315999925136566 0.05266200006008148
v -0.09852900356054306 -0.034731000661849976 0.054701000452041626
v -0.11536700278520584 -0.03761399909853935 0.0506649985909462
v -0.11868800222873688 -0.04205400124192238 0.048948001116514206
v -0.12275800108909607 -0.04178600013256073 0.048900000751018524
v -0.12539799511432648 -0.04050799831748009 0.047894999384880066
v -0.09709800034761429 -0.022148000076413155 0.05207499861717224
v -0.09418399631977081 -0.008756999857723713 0.053227998316287994
v -0.08803299814462662 -0.001184999942779541 0.05458499863743782
v -0.08639699965715408 0.010478000156581402 0.054806001484394073
v -0.08748599886894226 0.004896000027656555 0.054733000695705414
v -0.08836200088262558 0.0021730000153183937 0.05461899936199188
v -0.03820599988102913 0.050216998904943466 0.11591500043869019
v -0.09619399905204773 0.01940399967133999 0.05426900088787079
v -0.09311799705028534 0.017225999385118484 0.055897001177072525
v -0.09319999814033508 0.019714999943971634 0.05565100163221359
v -0.09879600256681442 0.022637000307440758 0.05376100167632103
v -0.09791699796915054 0.022784000262618065 0.05359499901533127
v -0.10435499995946884 0.03282700106501579 0.052390001714229584
v -0.09995699673891068 0.023889999836683273 0.05326699838042259
v -0.10103700309991837 0.026701999828219414 0.05222700163722038
v -0.10291899740695953 0.030484000220894814 0.05203599855303764
v -0.10535000264644623 0.03677599877119064 0.05279000103473663
v -0.10759100317955017 0.03862600028514862 0.05490599945187569
v -0.10238499939441681 0.04707000032067299 0.06256700307130814
v -0.10475199669599533 0.04492200165987015 0.06056800112128258
v -0.09428100287914276 0.049584999680519104 0.06414400041103363
v -0.03762200102210045 -0.12228599935770035 0.025630999356508255
v -0.030525999143719673 -0.12076400220394135 0.019840000197291374
v -0.0029670000076293945 -0.09784399718046188 0.018365999683737755
v -0.001057000015862286 -0.09616100043058395 0.016259999945759773
v -0.0027989998925477266 -0.10076600313186646 0.008542000316083431
v -0.11951400339603424 0.02980400063097477 0.05112500116229057
v -0.11447600275278091 0.035555001348257065 0.05426099896430969
v -0.12796099483966827 0.020131999626755714 0.046362001448869705
v -0.1245419979095459 0.02423500083386898 0.0484049990773201
v -0.11076600104570389 0.039914000779390335 0.05706600099802017
v -0.13535800576210022 0.006862000096589327 0.04161199927330017
v -0.132860004901886 0.014515000395476818 0.043877001851797104
v -0.14182500541210175 -0.006628999952226877 0.04150399938225746
v -0.1370439976453781 0.00011800000356743112 0.03943200036883354
v -0.14272700250148773 -0.014197000302374363 0.04189400002360344
v -0.14272500574588776 -0.014562999829649925 0.04281400144100189
v -0.14089900255203247 -0.01803399994969368 0.041416000574827194
v -0.1269569993019104 -0.04082399979233742 0.04634400084614754
v -0.13330699503421783 -0.02975500002503395 0.04445800185203552
v -0.133993998169899 -0.02617499977350235 0.04259499907493591
v -0.14066700637340546 -0.020173000171780586 0.03746600076556206
v -0.12979599833488464 -0.03610900044441223 0.046893998980522156
v -0.13080300390720367 -0.030236000195145607 0.046564001590013504
v -0.130512997508049 -0.03392599895596504 0.048353999853134155
v -0.10956799983978271 -0.026570999994874 0.0500820018351078
v -0.1187020018696785 -0.02779100090265274 0.04763000085949898
v -0.10259000211954117 -0.024178000167012215 0.05065000057220459
v -0.1245110034942627 -0.03633299842476845 0.05069499835371971
v -0.127127006649971 -0.03821500018239021 0.04743000119924545
v -0.09898299723863602 -0.010390999726951122 0.05406399816274643
v -0.09295199811458588 -0.001006999984383583 0.054267000406980515
v -0.09935899823904037 0.005557000171393156 0.056453000754117966
v -0.09267199784517288 0.011765999719500542 0.0560699999332428
v -0.08812599629163742 0.007685000076889992 0.05462000146508217
v -0.10414999723434448 0.004637999925762415 0.05099799856543541
v -0.10908699780702591 0.03138300031423569 0.0505170002579689
v -0.1105630025267601 0.026326000690460205 0.04737799987196922
v -0.11638399958610535 0.02180599980056286 0.04408799856901169
v -0.12413399666547775 0.011113000102341175 0.03947699815034866
v -0.1146790012717247 -0.00019099999917671084 0.04431099817156792
v -0.11922000348567963 0.02482300065457821 0.046379998326301575
v -0.13702400028705597 -0.004102000035345554 0.0374470017850399
v -0.13947699964046478 -0.01041099987924099 0.03799299895763397
v -0.13073000311851501 -0.0073830001056194305 0.03315399959683418
v -0.13420799374580383 -0.007888000458478928 0.03466000035405159
v -0.13888399302959442 -0.01308900024741888 0.03551600128412247
v -0.13148100674152374 -0.026350000873208046 0.04470000043511391
v -0.13077199459075928 -0.02453099936246872 0.043956998735666275
v -0.13666899502277374 -0.018890999257564545 0.03558199852705002
v -0.13233600556850433 -0.02051600068807602 0.039174001663923264
v -0.13071000576019287 -0.022909000515937805 0.04192100092768669
v -0.13128599524497986 -0.02191700041294098 0.04077399894595146
v -0.13622500002384186 -0.015751000493764877 0.0344959981739521
v -0.12856100499629974 -0.03384799882769585 0.05035100132226944
v -0.12807300686836243 -0.023579999804496765 0.04525800049304962
v -0.11596500128507614 -0.02366900071501732 0.049111999571323395
v -0.11196599900722504 -0.021655000746250153 0.05090399831533432
v -0.1165890023112297 -0.02133999951183796 0.04938200116157532
v -0.1074960008263588 -0.009437999688088894 0.045813001692295074
v -0.11562900245189667 0.02403699979186058 0.04500500112771988
v -0.1266860067844391 -0.01066299993544817 0.03715600073337555
v -0.12862199544906616 -0.01792600005865097 0.03922199830412865
v -0.1365160048007965 -0.0073990002274513245 0.03571400046348572
v -0.13301999866962433 -0.010354000143706799 0.033904001116752625
v -0.13600000739097595 -0.01006300002336502 0.034671999514102936
v -0.13572899997234344 -0.01269300002604723 0.03409299999475479
v -0.1335269957780838 -0.017980000004172325 0.0365849994122982
v -0.12063399702310562 -0.02118699997663498 0.0480940006673336
f 1 2 3
f 4 1 3
f 5 2 1
f 1 4 5
f 2 6 3
f 7 8 2
f 6 2 8
f 5 7 2
f 4 3 9
f 9 3 10
f 10 3 6
f 11 4 12
f 4 9 12
f 11 5 4
f 7 5 13
f 14 13 5
f 15 14 5
f 15 5 11
f 10 6 16
f 6 17 16
f 17 6 8
f 13 18 7
f 19 20 7
f 19 7 18
f 7 21 8
f 20 22 7
f 21 7 22
f 23 8 21
f 23 17 8
f 9 24 12
f 9 10 24
f 24 10 25
f 25 10 16
f 26 27 11
f 27 15 11
f 12 26 11
f 28 12 24
f 26 12 28
f 13 14 18
f 14 15 29
f 18 14 30
f 14 29 30
f 29 15 27
f 16 31 25
f 17 31 16
f 23 32 17
f 17 32 31
f 18 30 33
f 33 19 18
f 34 19 33
f 19 34 20
f 20 35 22
f 20 34 35
f 22 36 21
f 21 37 23
f 36 37 21
f 38 36 22
f 38 22 35
f 23 39 32
f 37 39 23
f 28 24 40
f 24 25 40
f 25 31 41
f 40 25 41
f 42 27 26
f 26 43 44
f 26 28 45
f 44 42 26
f 46 26 47
f 45 47 26
f 26 46 43
f 42 29 27
f 48 28 49
f 50 45 28
f 40 49 28
f 50 28 48
f 30 29 51
f 42 52 29
f 52 53 29
f 53 54 29
f 54 51 29
f 55 33 30
f 51 55 30
f 32 56 31
f 31 56 57
f 57 58 31
f 41 31 58
f 56 32 39
f 33 59 34
f 60 59 33
f 33 55 60
f 59 35 34
f 35 61 38
f 62 61 35
f 59 62 35
f 36 63 37
f 63 36 38
f 64 65 37
f 39 37 65
f 37 63 66
f 37 66 64
f 38 66 63
f 61 66 38
f 65 67 39
f 39 67 56
f 40 68 49
f 68 40 41
f 69 68 41
f 58 69 41
f 42 44 70
f 70 52 42
f 71 70 43
f 44 43 70
f 43 72 71
f 46 72 43
f 47 45 73
f 73 45 74
f 50 74 45
f 75 46 76
f 76 46 77
f 77 46 47
f 46 75 72
f 73 78 47
f 77 47 78
f 48 79 50
f 49 80 48
f 80 79 48
f 81 49 68
f 80 49 81
f 82 74 50
f 82 50 79
f 51 54 83
f 84 85 51
f 85 86 51
f 55 51 86
f 83 84 51
f 87 88 52
f 53 52 88
f 87 52 71
f 52 70 71
f 88 54 53
f 83 54 88
f 55 86 60
f 56 67 89
f 90 57 56
f 89 90 56
f 57 91 58
f 92 91 57
f 57 90 92
f 93 69 58
f 91 94 58
f 58 95 93
f 95 58 94
f 96 59 60
f 62 59 97
f 59 96 98
f 98 97 59
f 85 60 86
f 60 85 96
f 61 99 66
f 99 61 62
f 100 62 101
f 102 99 62
f 102 62 100
f 101 62 97
f 64 66 103
f 104 65 64
f 103 104 64
f 105 106 65
f 67 65 106
f 107 105 65
f 107 65 104
f 66 108 109
f 66 110 103
f 99 108 66
f 66 109 110
f 67 106 89
f 81 68 69
f 111 69 112
f 113 81 69
f 113 69 111
f 112 69 93
f 71 114 87
f 72 114 71
f 72 115 114
f 115 72 116
f 75 116 72
f 117 78 73
f 117 73 74
f 118 74 119
f 118 117 74
f 120 119 74
f 82 120 74
f 116 75 121
f 121 75 76
f 122 123 76
f 76 77 124
f 122 76 124
f 76 123 121
f 124 77 78
f 117 118 78
f 118 125 78
f 124 78 125
f 82 79 80
f 80 126 82
f 81 113 80
f 127 126 80
f 127 80 113
f 82 126 120
f 83 128 84
f 128 83 129
f 88 129 83
f 85 84 130
f 130 84 128
f 85 130 96
f 87 129 88
f 129 87 114
f 90 89 131
f 89 106 132
f 132 131 89
f 90 131 92
f 92 94 91
f 92 131 133
f 92 133 94
f 93 134 112
f 95 135 93
f 135 136 93
f 136 134 93
f 94 137 135
f 135 95 94
f 133 137 94
f 138 96 130
f 138 98 96
f 97 98 139
f 97 139 140
f 97 140 101
f 141 142 98
f 98 138 141
f 98 142 139
f 143 108 99
f 144 99 102
f 143 99 144
f 100 101 145
f 102 100 145
f 146 101 140
f 101 146 147
f 145 101 147
f 144 102 145
f 103 107 104
f 148 103 110
f 103 148 107
f 149 150 105
f 149 105 107
f 105 150 106
f 106 151 132
f 150 151 106
f 152 107 148
f 149 107 152
f 153 109 108
f 153 108 143
f 148 110 109
f 109 153 148
f 111 154 113
f 112 154 111
f 155 154 112
f 156 112 157
f 112 134 157
f 112 156 158
f 112 158 155
f 155 158 113
f 113 158 159
f 159 127 113
f 113 154 155
f 160 114 115
f 160 129 114
f 160 115 161
f 116 161 115
f 162 116 121
f 116 162 161
f 118 119 125
f 120 163 119
f 164 119 163
f 119 164 165
f 119 165 166
f 119 166 125
f 126 163 120
f 167 168 121
f 121 168 162
f 167 121 123
f 123 122 169
f 122 124 170
f 170 169 122
f 123 169 167
f 171 124 166
f 171 170 124
f 125 166 124
f 126 127 163
f 159 164 127
f 164 163 127
f 128 172 130
f 172 128 129
f 129 160 173
f 174 129 173
f 172 129 174
f 130 172 175
f 176 130 175
f 130 176 138
f 131 132 177
f 131 177 133
f 177 132 151
f 133 177 178
f 133 178 137
f 136 157 134
f 136 135 137
f 157 136 179
f 136 137 179
f 179 137 178
f 176 180 138
f 180 181 138
f 138 181 141
f 139 142 182
f 139 182 140
f 140 182 183
f 146 140 183
f 184 141 181
f 141 184 185
f 142 141 185
f 186 187 142
f 185 186 142
f 142 187 188
f 142 188 182
f 153 143 144
f 189 144 145
f 153 144 189
f 145 147 190
f 145 190 191
f 145 191 189
f 192 146 183
f 146 192 147
f 193 147 192
f 194 147 195
f 195 147 193
f 190 147 196
f 147 194 196
f 197 148 153
f 198 148 197
f 148 198 152
f 199 200 149
f 200 150 149
f 199 149 152
f 200 201 150
f 150 201 151
f 177 151 202
f 202 151 201
f 198 203 152
f 152 203 199
f 204 153 189
f 205 153 204
f 205 197 153
f 157 206 156
f 207 156 206
f 208 156 209
f 156 210 158
f 156 208 210
f 209 156 207
f 179 211 157
f 206 157 211
f 159 158 212
f 158 213 212
f 158 210 213
f 159 212 214
f 164 159 214
f 215 216 160
f 160 216 173
f 161 217 160
f 217 215 160
f 161 162 218
f 161 218 217
f 162 219 218
f 220 221 162
f 220 162 168
f 221 219 162
f 164 214 165
f 222 165 214
f 166 165 222
f 166 222 223
f 166 223 171
f 224 225 167
f 168 167 225
f 224 167 226
f 167 227 226
f 228 227 167
f 228 167 169
f 168 229 230
f 231 168 230
f 229 168 232
f 231 233 168
f 168 225 232
f 233 220 168
f 234 228 169
f 169 170 234
f 171 235 170
f 235 234 170
f 236 171 237
f 171 238 235
f 236 239 171
f 238 171 239
f 223 240 171
f 237 171 240
f 172 174 241
f 172 241 175
f 173 216 174
f 242 243 174
f 242 174 216
f 243 241 174
f 244 175 241
f 244 176 175
f 245 246 176
f 176 244 245
f 180 176 246
f 178 177 202
f 178 201 247
f 179 178 211
f 201 178 202
f 211 178 248
f 249 248 178
f 249 178 247
f 180 246 250
f 180 251 181
f 250 252 180
f 252 251 180
f 184 181 253
f 254 253 181
f 254 181 251
f 182 188 183
f 192 183 188
f 186 185 184
f 186 184 255
f 255 184 253
f 256 186 255
f 187 186 256
f 187 256 257
f 257 258 187
f 259 188 187
f 259 187 258
f 259 192 188
f 189 191 204
f 190 196 260
f 260 204 190
f 191 190 204
f 193 192 261
f 261 192 259
f 195 193 261
f 194 262 260
f 196 194 260
f 195 263 194
f 263 262 194
f 195 261 263
f 264 265 197
f 265 198 197
f 264 197 205
f 198 265 203
f 199 266 200
f 266 199 203
f 266 267 200
f 200 267 201
f 268 247 201
f 201 267 268
f 269 203 265
f 266 203 269
f 270 204 271
f 270 205 204
f 260 271 204
f 270 264 205
f 272 206 273
f 206 272 207
f 206 274 273
f 274 206 211
f 275 209 207
f 272 275 207
f 276 210 208
f 277 276 208
f 208 209 277
f 278 209 279
f 275 279 209
f 277 209 278
f 280 213 210
f 281 280 210
f 282 281 210
f 276 282 210
f 211 248 274
f 214 212 213
f 283 214 213
f 280 283 213
f 284 214 285
f 283 285 214
f 214 284 222
f 242 216 215
f 217 286 215
f 242 215 286
f 287 217 218
f 286 217 287
f 287 218 219
f 288 219 221
f 287 219 288
f 220 233 289
f 221 220 290
f 220 289 290
f 290 288 221
f 291 223 222
f 291 222 292
f 284 292 222
f 240 223 291
f 225 224 293
f 294 293 224
f 295 294 224
f 224 226 295
f 296 225 293
f 232 225 296
f 227 297 226
f 295 226 297
f 298 299 227
f 227 300 301
f 301 298 227
f 227 299 297
f 227 228 300
f 302 300 228
f 302 228 234
f 303 304 229
f 303 229 232
f 229 305 230
f 305 229 304
f 306 230 305
f 306 278 230
f 231 230 278
f 231 279 307
f 279 231 278
f 307 308 231
f 233 231 308
f 309 303 232
f 309 232 310
f 232 311 310
f 311 232 296
f 312 233 256
f 257 233 308
f 233 257 256
f 313 289 233
f 312 313 233
f 314 302 234
f 234 235 314
f 315 235 316
f 238 316 235
f 315 314 235
f 317 236 237
f 317 318 236
f 318 239 236
f 237 319 317
f 320 319 237
f 320 237 321
f 322 237 323
f 324 323 237
f 324 237 240
f 321 237 322
f 238 239 316
f 318 325 239
f 326 316 239
f 326 239 325
f 240 291 324
f 327 241 243
f 244 241 328
f 328 241 327
f 242 329 243
f 286 329 242
f 330 243 331
f 332 331 243
f 330 327 243
f 333 243 329
f 243 333 332
f 244 328 245
f 328 334 245
f 334 335 245
f 336 246 245
f 336 245 335
f 246 336 250
f 268 337 247
f 338 247 337
f 249 247 339
f 247 338 339
f 340 341 248
f 274 248 341
f 340 248 339
f 249 339 248
f 342 250 336
f 252 250 343
f 342 343 250
f 344 251 345
f 346 251 344
f 251 347 254
f 348 345 251
f 252 348 251
f 347 251 346
f 252 343 349
f 349 350 252
f 348 252 350
f 351 312 253
f 255 253 312
f 253 254 351
f 254 352 351
f 347 352 254
f 312 256 255
f 257 308 353
f 257 354 258
f 257 353 354
f 258 355 259
f 354 356 258
f 355 258 357
f 258 356 357
f 259 355 261
f 271 260 358
f 358 260 359
f 260 262 359
f 360 361 261
f 361 362 261
f 363 261 362
f 261 363 364
f 364 263 261
f 365 360 261
f 365 261 355
f 359 262 263
f 364 366 263
f 359 263 366
f 264 270 265
f 265 367 368
f 358 367 265
f 358 265 271
f 270 271 265
f 268 269 265
f 368 369 265
f 369 268 265
f 266 269 267
f 268 267 269
f 337 268 369
f 370 371 272
f 370 272 273
f 272 372 275
f 373 372 272
f 371 373 272
f 370 273 274
f 370 274 341
f 279 275 372
f 305 276 277
f 276 304 374
f 276 374 375
f 305 304 276
f 282 276 375
f 277 306 305
f 306 277 278
f 372 307 279
f 280 376 283
f 377 378 280
f 378 376 280
f 280 281 377
f 281 379 377
f 281 282 379
f 282 375 379
f 376 380 283
f 285 283 380
f 284 285 292
f 380 292 285
f 381 329 286
f 286 344 381
f 344 286 346
f 346 286 287
f 346 287 288
f 382 288 290
f 382 346 288
f 290 289 351
f 313 351 289
f 351 382 290
f 324 291 292
f 324 292 383
f 292 380 383
f 384 296 293
f 294 385 293
f 386 384 293
f 385 386 293
f 295 387 294
f 387 385 294
f 388 295 389
f 387 295 388
f 295 390 389
f 295 297 390
f 311 296 384
f 390 297 299
f 298 391 392
f 389 298 393
f 392 393 298
f 389 299 298
f 391 298 394
f 301 394 298
f 390 299 389
f 395 301 300
f 302 396 300
f 395 300 396
f 395 394 301
f 396 302 314
f 303 309 397
f 303 397 304
f 397 398 304
f 398 399 304
f 304 399 374
f 372 400 307
f 307 400 308
f 353 308 400
f 397 309 401
f 402 401 309
f 403 402 309
f 310 403 309
f 404 403 310
f 311 405 310
f 404 310 405
f 311 406 405
f 406 311 386
f 311 384 386
f 313 312 351
f 314 315 407
f 396 314 408
f 407 408 314
f 315 409 410
f 316 409 315
f 410 407 315
f 411 316 326
f 316 411 409
f 412 317 319
f 318 317 412
f 318 412 325
f 319 413 414
f 415 416 319
f 417 413 319
f 418 417 319
f 418 319 419
f 419 319 320
f 319 416 412
f 415 319 420
f 319 414 420
f 321 421 320
f 320 421 419
f 321 422 421
f 322 422 321
f 422 322 423
f 423 322 323
f 392 323 324
f 392 423 323
f 324 383 393
f 324 393 392
f 325 412 424
f 424 411 325
f 411 326 325
f 327 330 425
f 327 425 426
f 328 327 334
f 327 426 334
f 333 329 381
f 427 330 428
f 331 429 330
f 429 428 330
f 430 425 330
f 427 430 330
f 431 429 331
f 331 332 431
f 332 345 431
f 333 345 332
f 432 333 381
f 333 432 345
f 334 426 433
f 334 433 335
f 434 335 435
f 336 335 434
f 433 435 335
f 434 436 336
f 336 436 342
f 437 438 337
f 437 337 369
f 338 337 438
f 338 439 339
f 338 438 439
f 340 339 440
f 441 440 339
f 441 339 439
f 340 440 341
f 341 442 370
f 341 443 444
f 341 444 445
f 445 442 341
f 446 341 440
f 446 443 341
f 447 342 436
f 342 349 343
f 447 349 342
f 345 432 344
f 344 432 381
f 448 431 345
f 348 350 345
f 448 345 350
f 382 352 346
f 347 346 352
f 449 349 450
f 349 449 350
f 451 450 349
f 451 349 447
f 449 448 350
f 351 352 382
f 452 453 353
f 454 452 353
f 453 455 353
f 455 354 353
f 454 353 400
f 456 354 455
f 354 456 457
f 457 458 354
f 356 354 458
f 459 365 355
f 355 357 459
f 356 460 461
f 356 458 460
f 356 461 462
f 356 462 357
f 463 357 462
f 357 463 459
f 358 359 367
f 359 366 367
f 360 464 465
f 464 360 466
f 360 465 361
f 365 466 360
f 361 465 362
f 362 467 363
f 467 362 468
f 465 469 362
f 469 468 362
f 363 470 364
f 470 363 467
f 470 366 364
f 471 472 365
f 466 365 472
f 471 365 459
f 367 366 473
f 470 473 366
f 473 368 367
f 467 368 473
f 474 368 467
f 368 474 369
f 475 369 476
f 369 474 476
f 477 437 369
f 477 369 475
f 371 370 442
f 371 442 445
f 478 373 371
f 445 478 371
f 373 400 372
f 400 373 454
f 478 454 373
f 375 374 479
f 399 479 374
f 379 375 479
f 376 393 380
f 389 393 376
f 389 376 378
f 480 378 377
f 480 377 481
f 377 482 481
f 377 479 482
f 479 377 379
f 480 389 378
f 393 383 380
f 387 388 385
f 388 483 385
f 483 386 385
f 483 406 386
f 481 482 388
f 389 480 388
f 480 481 388
f 483 388 482
f 484 485 391
f 484 391 394
f 392 391 485
f 423 392 485
f 484 394 486
f 487 394 395
f 487 488 394
f 488 486 394
f 489 395 396
f 490 487 395
f 395 489 490
f 408 491 396
f 489 396 491
f 397 401 398
f 401 492 398
f 492 399 398
f 492 493 399
f 399 493 479
f 401 402 492
f 402 403 494
f 402 494 492
f 495 496 403
f 494 403 496
f 495 403 404
f 495 404 497
f 404 405 497
f 497 405 406
f 406 483 498
f 497 406 498
f 407 499 500
f 408 407 501
f 500 501 407
f 410 499 407
f 408 501 491
f 502 410 409
f 411 424 409
f 503 502 409
f 503 409 424
f 410 502 499
f 416 424 412
f 414 413 504
f 413 505 504
f 417 506 413
f 507 413 506
f 413 507 505
f 504 508 414
f 508 420 414
f 415 508 509
f 509 510 415
f 415 510 424
f 415 420 508
f 415 424 416
f 418 490 417
f 489 417 490
f 417 489 506
f 490 418 487
f 418 419 487
f 421 511 419
f 511 512 419
f 487 419 488
f 419 512 488
f 421 422 511
f 484 511 422
f 485 484 422
f 485 422 423
f 510 503 424
f 513 426 425
f 513 425 514
f 430 514 425
f 515 433 426
f 515 426 513
f 428 516 427
f 427 517 518
f 517 427 516
f 427 518 430
f 429 519 428
f 519 516 428
f 429 431 520
f 519 429 521
f 520 521 429
f 518 514 430
f 520 431 522
f 431 448 523
f 522 431 523
f 515 524 433
f 433 524 435
f 435 525 434
f 525 436 434
f 524 525 435
f 436 525 526
f 526 447 436
f 527 438 437
f 528 529 437
f 529 527 437
f 477 528 437
f 527 530 438
f 530 439 438
f 531 439 532
f 533 534 439
f 530 532 439
f 533 439 531
f 441 439 534
f 535 536 440
f 440 536 537
f 535 440 441
f 446 440 537
f 441 538 539
f 534 538 441
f 441 539 540
f 540 541 441
f 535 441 541
f 542 443 446
f 444 443 543
f 443 544 545
f 543 443 546
f 443 545 546
f 443 547 544
f 542 547 443
f 548 444 543
f 444 548 445
f 478 445 548
f 542 446 537
f 447 526 549
f 451 447 550
f 550 447 549
f 448 551 552
f 552 523 448
f 449 551 448
f 449 450 551
f 553 551 450
f 553 450 550
f 450 451 550
f 554 452 555
f 556 452 554
f 452 556 453
f 555 452 557
f 452 454 478
f 548 452 478
f 452 548 557
f 556 558 453
f 453 558 559
f 453 559 455
f 560 561 455
f 559 560 455
f 456 455 561
f 456 562 457
f 562 456 563
f 456 561 563
f 457 562 458
f 460 458 564
f 564 458 562
f 471 459 565
f 463 566 459
f 459 566 565
f 460 567 568
f 569 460 564
f 568 461 460
f 460 569 567
f 570 571 461
f 461 568 570
f 571 572 461
f 461 572 462
f 572 573 462
f 463 462 566
f 573 566 462
f 466 574 464
f 464 575 465
f 575 464 576
f 574 576 464
f 469 465 575
f 466 472 577
f 466 577 574
f 467 578 474
f 473 470 467
f 467 468 578
f 578 468 469
f 575 579 469
f 579 578 469
f 472 471 580
f 565 580 471
f 472 580 581
f 577 472 581
f 474 578 582
f 582 476 474
f 475 476 583
f 477 475 583
f 476 584 583
f 476 579 584
f 476 582 579
f 477 583 528
f 493 585 479
f 585 482 479
f 498 482 585
f 483 482 498
f 486 511 484
f 488 512 486
f 511 486 512
f 491 506 489
f 586 587 491
f 491 501 588
f 587 506 491
f 491 588 586
f 492 494 493
f 493 494 585
f 494 496 585
f 495 497 589
f 589 496 495
f 589 585 496
f 497 498 589
f 589 498 585
f 499 590 591
f 502 590 499
f 591 500 499
f 592 501 500
f 500 591 592
f 593 501 592
f 593 588 501
f 594 590 502
f 502 503 594
f 503 595 594
f 503 510 595
f 596 504 597
f 597 504 505
f 598 504 599
f 504 598 600
f 504 509 508
f 509 504 600
f 596 599 504
f 507 587 505
f 597 505 587
f 587 507 506
f 510 509 601
f 509 600 601
f 601 595 510
f 602 513 603
f 602 515 513
f 513 514 603
f 603 514 604
f 518 604 514
f 602 605 515
f 605 524 515
f 519 606 516
f 517 516 607
f 607 516 606
f 517 607 608
f 517 608 518
f 518 608 604
f 519 609 606
f 609 519 522
f 519 521 522
f 520 522 521
f 522 610 611
f 522 612 613
f 614 615 522
f 615 609 522
f 616 610 522
f 616 522 617
f 613 617 522
f 614 522 611
f 523 612 522
f 618 612 523
f 523 552 619
f 523 619 618
f 620 524 605
f 620 525 524
f 620 526 525
f 526 621 622
f 620 621 526
f 622 549 526
f 529 623 527
f 624 527 623
f 527 624 625
f 530 527 625
f 528 583 626
f 627 528 626
f 628 623 528
f 628 528 627
f 623 529 528
f 629 530 625
f 532 530 629
f 629 531 532
f 630 531 629
f 631 533 531
f 531 630 631
f 632 533 631
f 633 534 533
f 634 633 533
f 632 634 533
f 635 538 534
f 534 633 635
f 535 541 536
f 537 536 636
f 536 541 637
f 536 637 636
f 542 537 547
f 636 638 537
f 639 547 537
f 639 537 638
f 635 539 538
f 634 640 539
f 634 539 635
f 540 539 640
f 540 641 541
f 540 640 641
f 641 642 541
f 643 637 541
f 642 643 541
f 557 543 644
f 543 557 548
f 546 644 543
f 544 645 545
f 646 645 544
f 646 544 647
f 544 547 647
f 545 645 546
f 645 648 546
f 648 644 546
f 639 647 547
f 649 549 622
f 649 550 549
f 553 550 649
f 552 551 650
f 651 551 553
f 650 551 652
f 551 651 652
f 650 619 552
f 553 653 654
f 553 649 653
f 654 655 553
f 651 553 656
f 655 656 553
f 554 657 658
f 554 658 556
f 554 555 659
f 554 659 657
f 660 659 555
f 660 555 661
f 557 661 555
f 658 662 556
f 556 662 663
f 663 558 556
f 644 661 557
f 663 664 558
f 558 664 665
f 558 665 559
f 559 665 560
f 665 561 560
f 563 561 665
f 562 666 564
f 562 563 667
f 667 666 562
f 667 563 665
f 668 564 666
f 569 564 669
f 668 670 564
f 670 669 564
f 565 671 580
f 565 566 671
f 671 566 672
f 573 672 566
f 567 673 674
f 569 669 567
f 669 673 567
f 674 568 567
f 674 675 568
f 568 675 570
f 571 570 675
f 676 571 675
f 677 571 676
f 677 678 571
f 571 678 572
f 679 572 678
f 572 679 680
f 680 573 572
f 672 573 681
f 680 681 573
f 577 682 574
f 576 574 682
f 575 584 579
f 683 584 575
f 576 683 575
f 576 682 683
f 684 682 577
f 684 577 685
f 581 685 577
f 579 582 578
f 686 580 671
f 686 581 580
f 685 581 687
f 686 687 581
f 682 626 583
f 584 683 583
f 683 682 583
f 688 587 586
f 688 586 597
f 689 597 586
f 588 593 586
f 586 593 689
f 688 597 587
f 591 590 594
f 690 591 594
f 591 690 691
f 691 592 591
f 592 691 692
f 592 692 593
f 593 692 650
f 693 593 650
f 694 689 593
f 593 693 694
f 594 595 690
f 695 690 595
f 695 595 601
f 696 697 596
f 596 597 698
f 596 698 696
f 599 596 697
f 597 689 698
f 699 700 598
f 598 701 600
f 598 700 701
f 599 699 598
f 599 702 703
f 699 599 704
f 703 704 599
f 599 697 702
f 601 600 701
f 701 695 601
f 602 603 705
f 706 605 602
f 706 602 705
f 603 604 707
f 603 707 705
f 707 604 608
f 706 708 605
f 620 605 708
f 607 606 709
f 710 709 606
f 710 606 615
f 615 606 609
f 607 711 712
f 607 709 713
f 712 707 607
f 707 608 607
f 713 711 607
f 714 611 610
f 610 655 714
f 616 656 610
f 655 610 656
f 611 715 615
f 614 611 615
f 714 715 611
f 716 613 612
f 716 612 618
f 613 716 717
f 617 613 698
f 717 698 613
f 710 615 653
f 653 615 715
f 617 718 616
f 656 616 718
f 698 694 617
f 718 617 694
f 618 619 716
f 716 619 703
f 619 650 704
f 619 704 703
f 719 621 620
f 620 708 720
f 620 720 719
f 622 621 719
f 721 622 719
f 622 721 649
f 624 623 687
f 623 628 687
f 722 625 624
f 624 687 722
f 722 629 625
f 684 626 682
f 626 684 627
f 627 685 628
f 684 685 627
f 687 628 685
f 722 630 629
f 630 723 631
f 723 630 722
f 631 724 632
f 724 631 723
f 725 634 632
f 632 726 725
f 726 632 727
f 724 727 632
f 633 634 635
f 725 728 634
f 728 642 634
f 634 642 640
f 637 729 636
f 636 730 638
f 730 636 729
f 731 729 637
f 731 637 732
f 733 732 637
f 643 733 637
f 734 638 735
f 736 638 734
f 735 638 730
f 736 639 638
f 737 639 736
f 738 639 737
f 639 738 647
f 641 640 642
f 739 643 642
f 740 739 642
f 728 741 642
f 742 740 642
f 742 642 741
f 739 733 643
f 648 743 644
f 644 743 661
f 645 646 744
f 648 645 744
f 744 646 745
f 746 745 646
f 746 646 647
f 738 746 647
f 747 648 748
f 748 648 744
f 743 648 747
f 653 649 749
f 721 749 649
f 750 704 650
f 693 650 652
f 692 750 650
f 651 656 693
f 651 693 652
f 710 653 749
f 654 653 715
f 715 714 654
f 655 654 714
f 718 693 656
f 657 659 751
f 657 751 752
f 657 752 658
f 658 752 662
f 753 751 659
f 753 659 660
f 660 661 754
f 753 660 754
f 754 661 755
f 743 756 661
f 756 755 661
f 662 752 664
f 662 664 663
f 757 664 752
f 664 757 665
f 668 666 665
f 667 665 666
f 668 665 758
f 758 665 757
f 668 759 670
f 668 758 759
f 669 670 673
f 760 673 670
f 761 760 670
f 761 670 762
f 759 762 670
f 763 671 724
f 763 687 671
f 686 671 687
f 672 724 671
f 724 672 727
f 681 726 672
f 726 727 672
f 674 673 760
f 674 760 675
f 675 764 676
f 760 765 675
f 766 764 675
f 766 675 765
f 676 767 677
f 768 767 676
f 768 676 764
f 769 678 677
f 770 771 677
f 769 677 772
f 677 771 772
f 770 677 767
f 773 774 678
f 678 775 679
f 776 775 678
f 776 678 774
f 773 678 769
f 679 775 777
f 679 777 680
f 680 726 681
f 741 726 680
f 742 741 680
f 742 680 740
f 740 680 777
f 722 687 763
f 694 698 689
f 778 691 690
f 690 695 778
f 691 778 750
f 750 692 691
f 694 693 718
f 695 701 700
f 695 700 778
f 696 698 717
f 697 696 779
f 717 779 696
f 702 697 779
f 699 778 700
f 699 704 778
f 702 779 703
f 716 703 779
f 704 750 778
f 705 712 780
f 705 780 706
f 705 707 712
f 706 780 781
f 706 781 708
f 708 781 720
f 710 782 709
f 713 709 782
f 749 782 710
f 781 711 782
f 780 711 781
f 713 782 711
f 780 712 711
f 717 716 779
f 720 721 719
f 749 720 781
f 720 749 721
f 722 763 723
f 724 723 763
f 741 728 725
f 741 725 726
f 729 783 730
f 731 784 729
f 784 783 729
f 730 785 735
f 786 785 730
f 786 730 783
f 784 731 732
f 787 732 776
f 784 732 787
f 733 776 732
f 739 775 733
f 775 776 733
f 788 734 789
f 734 790 736
f 734 791 790
f 791 734 788
f 735 789 734
f 789 735 785
f 790 737 736
f 790 792 737
f 793 737 792
f 793 738 737
f 746 738 794
f 793 794 738
f 740 775 739
f 740 777 775
f 747 795 743
f 756 743 795
f 744 745 748
f 748 745 796
f 745 746 796
f 796 746 797
f 746 794 798
f 746 798 797
f 748 799 747
f 799 795 747
f 800 801 748
f 748 801 799
f 748 796 800
f 782 749 781
f 751 802 752
f 753 803 751
f 802 751 803
f 804 757 752
f 804 752 802
f 753 755 805
f 803 753 805
f 754 755 753
f 756 805 755
f 805 756 806
f 756 795 806
f 758 757 807
f 804 807 757
f 759 758 808
f 807 809 758
f 758 809 808
f 759 808 762
f 810 765 760
f 811 760 761
f 760 811 810
f 811 761 808
f 761 762 808
f 812 764 809
f 768 764 812
f 766 809 764
f 766 765 809
f 810 809 765
f 770 767 812
f 768 812 767
f 813 773 769
f 813 769 814
f 769 772 814
f 815 771 770
f 816 815 770
f 817 770 812
f 817 816 770
f 814 772 771
f 814 771 815
f 813 784 773
f 784 774 773
f 787 774 784
f 776 774 787
f 784 813 783
f 818 786 783
f 818 783 813
f 786 815 785
f 789 785 815
f 786 818 815
f 789 816 788
f 791 788 816
f 816 789 815
f 819 790 791
f 820 792 790
f 820 790 819
f 821 791 816
f 791 821 822
f 791 822 819
f 798 793 792
f 823 792 820
f 798 792 823
f 793 798 794
f 799 806 795
f 796 797 824
f 796 824 800
f 825 824 797
f 826 827 797
f 825 797 828
f 829 828 797
f 829 797 827
f 826 797 798
f 823 830 798
f 826 798 830
f 799 831 806
f 801 831 799
f 800 824 832
f 832 831 800
f 831 801 800
f 803 833 802
f 834 802 835
f 802 833 835
f 802 834 804
f 832 803 831
f 832 833 803
f 805 831 803
f 834 807 804
f 805 806 831
f 836 812 807
f 807 812 809
f 807 834 836
f 811 808 809
f 809 810 811
f 812 836 817
f 837 818 813
f 814 837 813
f 837 814 815
f 818 837 815
f 816 817 838
f 821 816 838
f 817 839 838
f 836 839 817
f 840 820 819
f 819 822 840
f 823 820 840
f 841 822 821
f 838 841 821
f 842 840 822
f 842 822 841
f 823 842 843
f 840 842 823
f 823 843 830
f 832 824 825
f 825 828 832
f 844 827 826
f 844 826 830
f 839 827 844
f 829 827 839
f 832 828 839
f 829 839 828
f 838 830 843
f 844 830 838
f 832 845 833
f 832 839 845
f 835 833 845
f 836 834 835
f 835 845 836
f 839 836 845
f 844 838 839
f 838 843 841
f 843 842 841
