# Generated by Visualization Toolkit
v -0.052476998418569565 -0.06797099858522415 -0.05871399864554405
v -0.04659000039100647 -0.06160899996757507 -0.06647799909114838
v -0.049504999071359634 -0.06943999975919724 -0.05577100068330765
v -0.05175499990582466 -0.07162699848413467 -0.05498100072145462
v -0.0540039986371994 -0.06297100335359573 -0.06983400136232376
v -0.057176001369953156 -0.07245399802923203 -0.05952199921011925
v -0.05762900039553642 -0.06650400161743164 -0.068122997879982
v -0.043122999370098114 -0.06934899836778641 -0.054662998765707016
v -0.04732400178909302 -0.05919700115919113 -0.07575400173664093
v -0.03857899829745293 -0.06153300032019615 -0.06625500321388245
v -0.054276999086141586 -0.08149299770593643 -0.053346000611782074
v -0.04798800125718117 -0.08272500336170197 -0.049272000789642334
v -0.057934001088142395 -0.06570599973201752 -0.07144399732351303
v -0.0528779998421669 -0.061195001006126404 -0.0770139992237091
v -0.06064999848604202 -0.07534900307655334 -0.06298399716615677
v -0.06059499830007553 -0.06889499723911285 -0.07242699712514877
v -0.037271998822689056 -0.06575199961662292 -0.059863001108169556
v -0.03730500116944313 -0.07225000113248825 -0.053693000227212906
v -0.040828000754117966 -0.07876499742269516 -0.049619998782873154
v -0.03985900059342384 -0.060166001319885254 -0.09066499769687653
v -0.04955799877643585 -0.062341999262571335 -0.09236399829387665
v -0.03090899996459484 -0.06690199673175812 -0.06314600259065628
v -0.02718600071966648 -0.0647049993276596 -0.07715699821710587
v -0.030494999140501022 -0.06384199857711792 -0.07114800065755844
v -0.03205699846148491 -0.061535000801086426 -0.08433700352907181
v -0.04087899997830391 -0.09216099977493286 -0.04748300090432167
v -0.05346100032329559 -0.0853630006313324 -0.0551920011639595
v -0.03735499829053879 -0.08477699756622314 -0.04927400127053261
v -0.05953500047326088 -0.06861300021409988 -0.09199400246143341
v -0.05254799872636795 -0.06371200084686279 -0.09213399887084961
v -0.06132499873638153 -0.07754100114107132 -0.06704399734735489
v -0.06227799877524376 -0.07239799946546555 -0.08668699860572815
v -0.03370999917387962 -0.07992299646139145 -0.05176699906587601
v -0.029153000563383102 -0.0715709999203682 -0.05986500158905983
v -0.03285900130867958 -0.06081800162792206 -0.08721499890089035
v -0.03932400047779083 -0.05939999967813492 -0.09235499799251556
v -0.04702199995517731 -0.06095699965953827 -0.09444300085306168
v -0.024072999134659767 -0.07099299877882004 -0.06888599693775177
v -0.02570199966430664 -0.06638900190591812 -0.07445400208234787
v -0.02677999995648861 -0.06333599984645844 -0.08079800009727478
v -0.031029000878334045 -0.061030998826026917 -0.08591300249099731
v -0.034596998244524 -0.08771199733018875 -0.05044399946928024
v -0.036111000925302505 -0.09257899969816208 -0.04909300059080124
v -0.035679999738931656 -0.09377200156450272 -0.04811999946832657
v -0.04606899991631508 -0.09423399716615677 -0.05997699871659279
v -0.0424560010433197 -0.0952640026807785 -0.05221199989318848
v -0.04065699875354767 -0.09359099715948105 -0.04643600061535835
v -0.05846399813890457 -0.0850209966301918 -0.07091599702835083
v -0.05546699836850166 -0.08876000344753265 -0.0681459978222847
v -0.04746000096201897 -0.09421700239181519 -0.061925001442432404
v -0.05333000048995018 -0.06403400003910065 -0.09478799998760223
v -0.060499001294374466 -0.06771399825811386 -0.09285999834537506
v -0.06354600191116333 -0.07175000011920929 -0.08764799684286118
v -0.06148400157690048 -0.0806019976735115 -0.07538100332021713
v -0.06273700296878815 -0.07763099670410156 -0.081325002014637
v -0.02104800008237362 -0.0790029987692833 -0.06501899659633636
v -0.029534000903367996 -0.09091100096702576 -0.05422699823975563
v -0.024700000882148743 -0.08906999975442886 -0.05933399870991707
v -0.023527000099420547 -0.08739200234413147 -0.06074199825525284
v -0.02258099988102913 -0.07467000186443329 -0.06671199947595596
v -0.034033000469207764 -0.05988200008869171 -0.08931300044059753
v -0.04704400151968002 -0.05945200100541115 -0.09599599987268448
v -0.038933999836444855 -0.057746000587940216 -0.09315499663352966
v -0.03344200178980827 -0.0576849989593029 -0.09010300040245056
v -0.05066300183534622 -0.06135600060224533 -0.09619800001382828
v -0.02425600029528141 -0.06617099791765213 -0.07475399971008301
v -0.021849000826478004 -0.07098200172185898 -0.06958799809217453
v -0.03042599931359291 -0.059255000203847885 -0.08644399791955948
v -0.025766000151634216 -0.05743499845266342 -0.08211600035429001
v -0.032930001616477966 -0.0929270014166832 -0.051075998693704605
v -0.03244299814105034 -0.0935330018401146 -0.05058399960398674
v -0.03670100122690201 -0.0947910025715828 -0.04521699994802475
v -0.04466800019145012 -0.09602300077676773 -0.05679500102996826
v -0.04807300120592117 -0.0968099981546402 -0.06149499863386154
v -0.04519600048661232 -0.09618599712848663 -0.05066800117492676
v -0.04488600045442581 -0.09579099714756012 -0.05386799946427345
v -0.045301999896764755 -0.09779299795627594 -0.041064999997615814
v -0.03855900093913078 -0.09488999843597412 -0.044349998235702515
v -0.05906900018453598 -0.08752799779176712 -0.07195500284433365
v -0.06132899969816208 -0.08185800164937973 -0.07676800340414047
v -0.05590200051665306 -0.09016600251197815 -0.06898300349712372
v -0.05413199961185455 -0.09506700187921524 -0.06594300270080566
v -0.05406099930405617 -0.06327900290489197 -0.09590499848127365
v -0.057335998862981796 -0.06531400233507156 -0.09457200020551682
v -0.06281500309705734 -0.06854899972677231 -0.09015200287103653
v -0.06106799840927124 -0.0670590028166771 -0.09239500015974045
v -0.06436900049448013 -0.07421600073575974 -0.08461199700832367
v -0.0639209970831871 -0.06798999756574631 -0.0893310010433197
v -0.06485500186681747 -0.07084199786186218 -0.08701600134372711
v -0.06486299633979797 -0.07662100344896317 -0.08165500313043594
v -0.06472600251436234 -0.07862100005149841 -0.07927899807691574
v -0.06311299651861191 -0.0842910036444664 -0.07447300106287003
v -0.020208999514579773 -0.08615999668836594 -0.061608001589775085
v -0.02028300054371357 -0.07502300292253494 -0.0671359971165657
v -0.019060999155044556 -0.07937700301408768 -0.06491100043058395
v -0.02124599926173687 -0.07491599768400192 -0.06721100211143494
v -0.02383499965071678 -0.08969099819660187 -0.0589510016143322
v -0.02857300080358982 -0.09225799888372421 -0.05319099873304367
v -0.04280100017786026 -0.05760699883103371 -0.09507700055837631
v -0.050957001745700836 -0.05511000007390976 -0.09474299848079681
v -0.046893998980522156 -0.052726998925209045 -0.09468100219964981
v -0.042086001485586166 -0.048973001539707184 -0.09400299936532974
v -0.03870699927210808 -0.056290000677108765 -0.09380800276994705
v -0.02852099947631359 -0.055472999811172485 -0.09076199680566788
v -0.029763000085949898 -0.05191199854016304 -0.09287899732589722
v -0.02883799932897091 -0.053895000368356705 -0.09202399849891663
v -0.03382499888539314 -0.05343899875879288 -0.09323599934577942
v -0.02128800004720688 -0.07016000151634216 -0.06915400177240372
v -0.02476700022816658 -0.05486400052905083 -0.07466399669647217
v -0.02301100082695484 -0.05987900123000145 -0.06725499778985977
v -0.022050999104976654 -0.05218999832868576 -0.07931499928236008
v -0.02291399985551834 -0.05375700071454048 -0.0821089968085289
v -0.024156000465154648 -0.054604001343250275 -0.08491499722003937
v -0.030900999903678894 -0.09418699890375137 -0.04905499890446663
v -0.03332199901342392 -0.09387099742889404 -0.044374000281095505
v -0.03818599879741669 -0.09354600310325623 -0.04144600033760071
v -0.04590100049972534 -0.09612999856472015 -0.05622199922800064
v -0.05568600073456764 -0.09577500075101852 -0.06310900300741196
v -0.049594998359680176 -0.09674999862909317 -0.05722000077366829
v -0.05481699854135513 -0.09567300230264664 -0.0648140013217926
v -0.05150299891829491 -0.1010420024394989 -0.04571500048041344
v -0.052636001259088516 -0.10054899752140045 -0.05440099909901619
v -0.044245000928640366 -0.09357500076293945 -0.03951599821448326
v -0.05336900055408478 -0.1031159982085228 -0.0372919999063015
v -0.05090999975800514 -0.1036520004272461 -0.04058400169014931
v -0.057874999940395355 -0.09184099733829498 -0.06880699843168259
v -0.06129999831318855 -0.08805900067090988 -0.07176899909973145
v -0.057978998869657516 -0.06439699977636337 -0.09394600242376328
v -0.053339000791311264 -0.056258998811244965 -0.09446900337934494
v -0.06466200202703476 -0.06066900119185448 -0.08965600281953812
v -0.06910400092601776 -0.07071699947118759 -0.08223500102758408
v -0.0662039965391159 -0.06988400220870972 -0.08635199815034866
v -0.06838499754667282 -0.06804999709129333 -0.08509799838066101
v -0.06743600219488144 -0.0651020035147667 -0.08776500076055527
v -0.06594300270080566 -0.07779400050640106 -0.07891800254583359
v -0.06705199927091599 -0.0771389976143837 -0.07819700241088867
v -0.07119499891996384 -0.06950099766254425 -0.08067300170660019
v -0.07143300026655197 -0.07265400141477585 -0.07778000086545944
v -0.06894099712371826 -0.07616700232028961 -0.07676400244235992
v -0.06323300302028656 -0.08751600235700607 -0.06959600001573563
v -0.0180440004914999 -0.08679299801588058 -0.05928599834442139
v -0.02116899937391281 -0.09072499722242355 -0.05655200034379959
v -0.0174189992249012 -0.07843700051307678 -0.06313599646091461
v -0.05023600161075592 -0.04969999939203262 -0.09368299692869186
v -0.05435999855399132 -0.05119699984788895 -0.09209199994802475
v -0.04632899910211563 -0.04842900112271309 -0.09397599846124649
v -0.033052001148462296 -0.04842999950051308 -0.09331600368022919
v -0.041214000433683395 -0.04527600109577179 -0.09400700032711029
v -0.027137000113725662 -0.05262799933552742 -0.09193599969148636
v -0.024786999449133873 -0.05240499973297119 -0.08908499777317047
v -0.026034999638795853 -0.04819900169968605 -0.09317400306463242
v -0.019433999434113503 -0.06228699907660484 -0.05580100044608116
v -0.026357000693678856 -0.05249600112438202 -0.0704139992594719
v -0.02545900084078312 -0.052083998918533325 -0.07380499690771103
v -0.028537999838590622 -0.04968399927020073 -0.0663670003414154
v -0.024399999529123306 -0.056060001254081726 -0.0606129989027977
v -0.020733999088406563 -0.05345800146460533 -0.08619099855422974
v -0.022918999195098877 -0.04920300096273422 -0.07801000028848648
v -0.017629999667406082 -0.048117998987436295 -0.08215499669313431
v -0.029743000864982605 -0.09256599843502045 -0.04513999819755554
v -0.03429099917411804 -0.09025699645280838 -0.04399000108242035
v -0.046177998185157776 -0.07331699877977371 -0.045572999864816666
v -0.058761000633239746 -0.09227299690246582 -0.06759800016880035
v -0.059516001492738724 -0.09212300181388855 -0.06657300144433975
v -0.05984500050544739 -0.10325600206851959 -0.06072299927473068
v -0.05759799852967262 -0.10598000138998032 -0.05536400154232979
v -0.05442599952220917 -0.10984300076961517 -0.04081200063228607
v -0.05686299875378609 -0.10731899738311768 -0.050255000591278076
v -0.06686100363731384 -0.07935599982738495 -0.045885998755693436
v -0.057197000831365585 -0.10070700198411942 -0.037620000541210175
v -0.056582000106573105 -0.11027800291776657 -0.036166001111269
v -0.06039100140333176 -0.0554409995675087 -0.09011200070381165
v -0.06391900032758713 -0.047958001494407654 -0.08659899979829788
v -0.06939200311899185 -0.06235399842262268 -0.08625999838113785
v -0.07783100008964539 -0.044252000749111176 -0.06879299879074097
v -0.07092099636793137 -0.04349299892783165 -0.08040399849414825
v -0.08173300325870514 -0.046355001628398895 -0.06600499898195267
v -0.08298099786043167 -0.05366099998354912 -0.06502900272607803
v -0.0819690003991127 -0.06863400340080261 -0.0659710019826889
v -0.0772090032696724 -0.07461600005626678 -0.06848300248384476
v -0.0662039965391159 -0.08835499733686447 -0.06762800365686417
v -0.06890399754047394 -0.08827999979257584 -0.06541900336742401
v -0.06512200087308884 -0.09706699848175049 -0.06421799957752228
v -0.015173999592661858 -0.08822900056838989 -0.046918999403715134
v -0.0230260007083416 -0.09159500151872635 -0.04716400057077408
v -0.015331000089645386 -0.09042000025510788 -0.04126400128006935
v -0.012857000343501568 -0.08564899861812592 -0.04117799922823906
v -0.014809999614953995 -0.08045700192451477 -0.035944998264312744
v -0.04911699891090393 -0.04561899974942207 -0.09398599714040756
v -0.055918000638484955 -0.0470150001347065 -0.09186799824237823
v -0.05990700051188469 -0.04979800060391426 -0.0885550007224083
v -0.0452749989926815 -0.04483800008893013 -0.09409400075674057
v -0.027945000678300858 -0.043487001210451126 -0.09527499973773956
v -0.03340800106525421 -0.042072001844644547 -0.09512999653816223
v -0.03814399987459183 -0.04208099842071533 -0.09519600123167038
v -0.019540000706911087 -0.052368998527526855 -0.08868099749088287
v -0.017796000465750694 -0.050342999398708344 -0.0897269994020462
v -0.02227500081062317 -0.04538099840283394 -0.0938669964671135
v -0.019756000488996506 -0.07243700325489044 -0.03763100132346153
v -0.024752000346779823 -0.060819000005722046 -0.045233000069856644
v -0.02805499918758869 -0.04921799898147583 -0.06975799798965454
v -0.026635000482201576 -0.049327999353408813 -0.07323499768972397
v -0.027380000799894333 -0.05301700159907341 -0.060926999896764755
v -0.05130600184202194 -0.03677000105381012 -0.05500999838113785
v -0.048923999071121216 -0.03860500082373619 -0.05391699820756912
v -0.031491998583078384 -0.04531899839639664 -0.06885699927806854
v -0.034405000507831573 -0.047972001135349274 -0.054069001227617264
v -0.017136000096797943 -0.05018800124526024 -0.08677799999713898
v -0.018466999754309654 -0.05133499950170517 -0.08821900188922882
v -0.023948999121785164 -0.04558999836444855 -0.07757599651813507
v -0.02120400033891201 -0.041958998888731 -0.08117400109767914
v -0.014324000105261803 -0.040803998708724976 -0.0848110020160675
v -0.012880000285804272 -0.04174700006842613 -0.0852229967713356
v -0.014402000233530998 -0.04628700017929077 -0.08489800244569778
v -0.02436099946498871 -0.09139399975538254 -0.044516000896692276
v -0.02585200034081936 -0.0907130017876625 -0.042837999761104584
v -0.030629999935626984 -0.08717600256204605 -0.042174000293016434
v -0.033208999782800674 -0.08127400279045105 -0.04284000024199486
v -0.036451999098062515 -0.07552900165319443 -0.04357500001788139
v -0.03989500179886818 -0.07082899659872055 -0.04493600130081177
v -0.04546400159597397 -0.06854499876499176 -0.04695099964737892
v -0.062470000237226486 -0.10828500241041183 -0.06385800242424011
v -0.062178000807762146 -0.11210799962282181 -0.06187700107693672
v -0.05687199905514717 -0.11268199980258942 -0.035234998911619186
v -0.054255999624729156 -0.11496199667453766 -0.03830699995160103
v -0.06930699944496155 -0.12814800441265106 -0.06085500121116638
v -0.0630669966340065 -0.12972499430179596 -0.04391999915242195
v -0.05567999929189682 -0.116457000374794 -0.04076499864459038
v -0.06099899858236313 -0.12627899646759033 -0.04227900132536888
v -0.06569299846887589 -0.11774499714374542 -0.061691999435424805
v -0.07695899903774261 -0.09092699736356735 -0.0443900004029274
v -0.08097399771213531 -0.0660490021109581 -0.05237000063061714
v -0.08348099887371063 -0.07293199747800827 -0.05142299830913544
v -0.07773300260305405 -0.04877699911594391 -0.05796299874782562
v -0.08193899691104889 -0.08553300052881241 -0.044881001114845276
v -0.061027999967336655 -0.04618699848651886 -0.05208100005984306
v -0.07347500324249268 -0.0932060033082962 -0.04219600185751915
v -0.07343000173568726 -0.10130800306797028 -0.043313998728990555
v -0.08087699860334396 -0.11976899951696396 -0.04862599819898605
v -0.059769000858068466 -0.11193999648094177 -0.034596998244524
v -0.055977001786231995 -0.03233199939131737 -0.08977700024843216
v -0.07536300271749496 -0.031339000910520554 -0.0797950029373169
v -0.06566999852657318 -0.03183500096201897 -0.08478599786758423
v -0.08431699872016907 -0.04135499894618988 -0.06915000081062317
v -0.08651400357484818 -0.04180699959397316 -0.06592100113630295
v -0.08249100297689438 -0.03672799840569496 -0.07446900010108948
v -0.08248099684715271 -0.04685800150036812 -0.06497400254011154
v -0.08352299779653549 -0.06741899996995926 -0.06192699819803238
v -0.0807420015335083 -0.04611099883913994 -0.0610710009932518
v -0.08070799708366394 -0.04799199849367142 -0.06074199825525284
v -0.08132799714803696 -0.07374899834394455 -0.06390800327062607
v -0.07997100055217743 -0.08905799686908722 -0.05888500064611435
v -0.08087699860334396 -0.08042000234127045 -0.06288299709558487
v -0.08094500005245209 -0.0769990012049675 -0.06386999785900116
v -0.0696059986948967 -0.09270600229501724 -0.06409399956464767
v -0.07242699712514877 -0.09872700273990631 -0.06713499873876572
v -0.0663980022072792 -0.09896200150251389 -0.06514400243759155
v -0.01448800042271614 -0.08922600001096725 -0.03636299818754196
v -0.022985000163316727 -0.09148299694061279 -0.03244199976325035
v -0.023465000092983246 -0.09040000289678574 -0.04039499908685684
v -0.013683999888598919 -0.08742599934339523 -0.03673800081014633
v -0.018626999109983444 -0.07711999863386154 -0.03427499905228615
v -0.01148299966007471 -0.08528900146484375 -0.030446000397205353
v -0.04380200058221817 -0.04191799834370613 -0.09565100073814392
v -0.04803700000047684 -0.042479000985622406 -0.09589599817991257
v -0.045301999896764755 -0.03034299984574318 -0.09436099976301193
v -0.01651199907064438 -0.031008999794721603 -0.09987299889326096
v -0.023938000202178955 -0.04098999872803688 -0.09591300040483475
v -0.03592599928379059 -0.03908799961209297 -0.09713000059127808
v -0.010866000317037106 -0.04349299892783165 -0.08835600316524506
v -0.012631000019609928 -0.04428999871015549 -0.09327100217342377
v -0.017434999346733093 -0.043758999556303024 -0.09427899867296219
v -0.020620999857783318 -0.07986299693584442 -0.03228500112891197
v -0.023645000532269478 -0.07918400317430496 -0.03474399819970131
v -0.02397800050675869 -0.083576999604702 -0.03172700107097626
v -0.03472699970006943 -0.050905000418424606 -0.050540998578071594
v -0.03268799930810928 -0.06457100063562393 -0.04486199840903282
v -0.052618999034166336 -0.03813299909234047 -0.05388600006699562
v -0.05794699862599373 -0.03509499877691269 -0.05498100072145462
v -0.05908900126814842 -0.012601999565958977 -0.07577399909496307
v -0.042080000042915344 -0.03206999972462654 -0.07484100013971329
v -0.04601399973034859 -0.04115400090813637 -0.05248900130391121
v -0.03280099853873253 -0.030626999214291573 -0.0848350003361702
v -0.012389999814331532 -0.03489900007843971 -0.09040500223636627
v -0.011334000155329704 -0.03825800120830536 -0.08943500369787216
v -0.02712699957191944 -0.08402200043201447 -0.03877200186252594
v -0.03282700106501579 -0.07637400180101395 -0.04208799824118614
v -0.03622899949550629 -0.07153700292110443 -0.04363099858164787
v -0.038881998509168625 -0.0679590031504631 -0.0454539991915226
v -0.044537000358104706 -0.06541900336742401 -0.04768100008368492
v -0.06636200100183487 -0.11111799627542496 -0.06506899744272232
v -0.07183299958705902 -0.10524900257587433 -0.06802800297737122
v -0.0595880001783371 -0.11453600227832794 -0.03318899869918823
v -0.054489001631736755 -0.11920200288295746 -0.031150000169873238
v -0.052956998348236084 -0.12210699915885925 -0.035721998661756516
v -0.050494998693466187 -0.12150599807500839 -0.03401400148868561
v -0.0630130022764206 -0.13503800332546234 -0.04067600145936012
v -0.06431499868631363 -0.14121399819850922 -0.039023999124765396
v -0.0739390030503273 -0.14002999663352966 -0.056970998644828796
v -0.07436700165271759 -0.13612399995326996 -0.06163899973034859
v -0.07219500094652176 -0.12605200707912445 -0.06373199820518494
v -0.07670900225639343 -0.1318970024585724 -0.0640840008854866
v -0.07004900276660919 -0.11909600347280502 -0.06265299767255783
v -0.06077500060200691 -0.13076600432395935 -0.038757000118494034
v -0.05667100101709366 -0.12889499962329865 -0.033636000007390976
v -0.056561000645160675 -0.12537799775600433 -0.03658200055360794
v -0.07697100192308426 -0.09294100105762482 -0.04468899965286255
v -0.0806950032711029 -0.09214700013399124 -0.04535900056362152
v -0.0845009982585907 -0.07332099974155426 -0.05592799931764603
v -0.08313299715518951 -0.06580500304698944 -0.05775799974799156
v -0.08926600217819214 -0.0788239985704422 -0.05064300075173378
v -0.08828099817037582 -0.079135000705719 -0.046424999833106995
v -0.07812000066041946 -0.04296899959445 -0.05818299949169159
v -0.07056300342082977 -0.03972399979829788 -0.055181000381708145
v -0.08879200369119644 -0.08475500345230103 -0.04352099820971489
v -0.08929400146007538 -0.08815599977970123 -0.04126400128006935
v -0.0852309986948967 -0.09227599948644638 -0.04295000061392784
v -0.048103999346494675 -0.04630399867892265 -0.05194700136780739
v -0.043765000998973846 -0.06240500137209892 -0.04854400083422661
v -0.07791099697351456 -0.09487699717283249 -0.0462069995701313
v -0.07760000228881836 -0.09715700149536133 -0.04704799875617027
v -0.07729600369930267 -0.10644099861383438 -0.047970000654459
v -0.0807339996099472 -0.11075100302696228 -0.05178900063037872
v -0.08509200066328049 -0.11898399889469147 -0.05698699876666069
v -0.08182500302791595 -0.12540799379348755 -0.04843699932098389
v -0.07722499966621399 -0.12395799905061722 -0.04559199884533882
v -0.0426269993185997 -0.0025430000387132168 -0.10342899709939957
v -0.051580000668764114 0.000195999993593432 -0.09859400242567062
v -0.07573000341653824 0.009297999553382397 -0.08267199993133545
v -0.10012900084257126 -0.03984399884939194 -0.07009699940681458
v -0.08703099936246872 -0.015375000424683094 -0.07269400358200073
v -0.08984799683094025 -0.040251001715660095 -0.06821099668741226
v -0.09097599983215332 -0.04102399945259094 -0.06696300208568573
v -0.0821240022778511 -0.04309599846601486 -0.06133100017905235
v -0.08462899923324585 -0.04096600040793419 -0.061911001801490784
v -0.0876300036907196 -0.08115000277757645 -0.05459300056099892
v -0.08387500047683716 -0.07909899950027466 -0.0612730011343956
v -0.07889600098133087 -0.10021000355482101 -0.06395799666643143
v -0.08101700246334076 -0.09514600038528442 -0.05863099917769432
v -0.08333399891853333 -0.08914999663829803 -0.05700099840760231
v -0.08353699743747711 -0.0820780023932457 -0.06091500073671341
v -0.07581999897956848 -0.10114700347185135 -0.06830199807882309
v -0.011091000400483608 -0.09200499951839447 -0.02787799946963787
v -0.011989000253379345 -0.08803199976682663 -0.031279999762773514
v -0.024441000074148178 -0.0877159982919693 -0.035930998623371124
v -0.023799000307917595 -0.09538999944925308 -0.028651999309659004
v -0.01523599959909916 -0.09659899771213531 -0.02437100000679493
v -0.02507700026035309 -0.09487400203943253 -0.028901999816298485
v -0.024430999532341957 -0.0899370014667511 -0.03344900161027908
v -0.012864000163972378 -0.08345100283622742 -0.028449000790715218
v -0.008042000234127045 -0.08946400135755539 -0.027979999780654907
v -0.007116000168025494 -0.08755999803543091 -0.026948999613523483
v -0.029975999146699905 -0.012490999884903431 -0.10414499789476395
v -0.016130000352859497 -0.025953000411391258 -0.10245099663734436
v -0.01247899979352951 -0.0256740003824234 -0.09977799654006958
v -0.0103169996291399 -0.03874000161886215 -0.09618300199508667
v -0.00945299956947565 -0.03833800181746483 -0.09346800297498703
v -0.01632400043308735 -0.0851060003042221 -0.027080999687314034
v -0.021170999854803085 -0.08276200294494629 -0.030331000685691833
v -0.02608099952340126 -0.09371600300073624 -0.029260000213980675
v -0.027351999655365944 -0.08122699707746506 -0.035794999450445175
v -0.031209999695420265 -0.07418099790811539 -0.04055500030517578
v -0.03124300017952919 -0.0697999969124794 -0.042371999472379684
v -0.02473199926316738 -0.08687800168991089 -0.031272999942302704
v -0.019301999360322952 -0.09087000042200089 -0.023350000381469727
v -0.025534000247716904 -0.08726800233125687 -0.029983000829815865
v -0.03728000074625015 -0.06327900290489197 -0.04655599966645241
v -0.034612998366355896 -0.06649500131607056 -0.04464399814605713
v -0.07763700187206268 -0.03713199868798256 -0.05662500113248825
v -0.07115799933671951 -0.02654699981212616 -0.054754000157117844
v -0.0469760000705719 -0.007997999899089336 -0.08493799716234207
v -0.06802000105381012 0.00380500010214746 -0.07623899728059769
v -0.05557899922132492 0.016092000529170036 -0.09094999730587006
v -0.009583000093698502 -0.015496999956667423 -0.10369200259447098
v -0.012489999644458294 -0.0025569999124854803 -0.10839200019836426
v -0.009513000026345253 -0.019133999943733215 -0.10489100217819214
v -0.011195999570190907 -0.023057999089360237 -0.09976600110530853
v -0.0118410000577569 -0.026316000148653984 -0.09687700122594833
v -0.025312000885605812 0.0007169999880716205 -0.09967199712991714
v -0.011997999623417854 -0.026372000575065613 -0.09803000092506409
v -0.025438999757170677 -0.08675900101661682 -0.03585699945688248
v -0.03580300137400627 -0.06823199987411499 -0.04433299973607063
v -0.0816510021686554 -0.11059000343084335 -0.06585899740457535
v -0.05762400105595589 -0.12025299668312073 -0.029356999322772026
v -0.04966700077056885 -0.12166299670934677 -0.028882000595331192
v -0.05355999991297722 -0.12317600101232529 -0.025522999465465546
v -0.05107799917459488 -0.12253399938344955 -0.034046001732349396
v -0.05372700095176697 -0.1261969953775406 -0.03297699987888336
v -0.048725999891757965 -0.1224299967288971 -0.0328189991414547
v -0.0589900016784668 -0.1327819973230362 -0.03570900112390518
v -0.0556659996509552 -0.14300699532032013 -0.031058000400662422
v -0.058014001697301865 -0.146807000041008 -0.02942200005054474
v -0.05707100033760071 -0.13406600058078766 -0.03302200138568878
v -0.05451299995183945 -0.13383300602436066 -0.030438000336289406
v -0.06599400192499161 -0.14606499671936035 -0.03449700027704239
v -0.07052599638700485 -0.14686299860477448 -0.04119100049138069
v -0.07533600181341171 -0.14543099701404572 -0.04765300080180168
v -0.05718600004911423 -0.13994200527668 -0.032690998166799545
v -0.07746999710798264 -0.13976800441741943 -0.05718899890780449
v -0.08360999822616577 -0.13379499316215515 -0.060006000101566315
v -0.08249299973249435 -0.12818600237369537 -0.06371500343084335
v -0.08584000170230865 -0.11636000126600266 -0.06391599774360657
v -0.08426500111818314 -0.11096800118684769 -0.06568499654531479
v -0.054416999220848083 -0.13031800091266632 -0.031088000163435936
v -0.08273199945688248 -0.09334199875593185 -0.04504900053143501
v -0.08123800158500671 -0.09469299763441086 -0.048151999711990356
v -0.08418300002813339 -0.09376999735832214 -0.04540799930691719
v -0.09098300337791443 -0.08079499751329422 -0.04612300172448158
v -0.09150400012731552 -0.08072599768638611 -0.04814999923110008
v -0.09074799716472626 -0.08299099653959274 -0.04982899874448776
v -0.08040200173854828 -0.03986399993300438 -0.058139998465776443
v -0.09296300262212753 -0.08286699652671814 -0.04612499848008156
v -0.09314800053834915 -0.08443400263786316 -0.045726001262664795
v -0.09241099655628204 -0.08632999658584595 -0.045579999685287476
v -0.09053699672222137 -0.0893860012292862 -0.042465999722480774
v -0.08921899646520615 -0.09094999730587006 -0.0418890006840229
v -0.08869899809360504 -0.09264300018548965 -0.04320399835705757
v -0.08028200268745422 -0.09647800028324127 -0.049306001514196396
v -0.08150599896907806 -0.10044799745082855 -0.057402998208999634
v -0.0825909972190857 -0.09645900130271912 -0.05190199986100197
v -0.07953000068664551 -0.10624399781227112 -0.050958000123500824
v -0.08840300142765045 -0.12222599983215332 -0.057172998785972595
v -0.08375400304794312 -0.12794899940490723 -0.0454539991915226
v -0.07529100030660629 -0.13355399668216705 -0.038885001093149185
v -0.043946001678705215 0.013243000023066998 -0.10929100215435028
v -0.033573001623153687 0.014624999836087227 -0.11480800062417984
v -0.05361400172114372 0.013176999986171722 -0.10257700085639954
v -0.10669700056314468 -0.0015030000358819962 -0.059491999447345734
v -0.07998999953269958 0.03308999910950661 -0.08388999849557877
v -0.09587199985980988 -0.041409000754356384 -0.06888499855995178
v -0.11626400053501129 -0.04862599819898605 -0.056898001581430435
v -0.11893200129270554 -0.04419799894094467 -0.05867899954319
v -0.10007700324058533 -0.043963998556137085 -0.06723199784755707
v -0.10930900275707245 -0.020222999155521393 -0.06036999821662903
v -0.09184200316667557 -0.04038099944591522 -0.060763001441955566
v -0.0828540027141571 -0.03953700140118599 -0.058437999337911606
v -0.08624900132417679 -0.08334600180387497 -0.057133998721838
v -0.082676000893116 -0.09459400177001953 -0.056439999490976334
v -0.08388199657201767 -0.09266000241041183 -0.052990999072790146
v -0.08663000166416168 -0.09313300251960754 -0.048611000180244446
v -0.008452000096440315 -0.0934550017118454 -0.025412999093532562
v -0.006035999860614538 -0.09184099733829498 -0.025537999346852303
v -0.020326999947428703 -0.10378199815750122 -0.020163999870419502
v -0.0254139993339777 -0.10409899801015854 -0.024328000843524933
v -0.013660999946296215 -0.10175500065088272 -0.019284000620245934
v -0.011966999620199203 -0.10006699711084366 -0.01986199989914894
v -0.010641000233590603 -0.09667299687862396 -0.02283100038766861
v -0.025160999968647957 -0.08933500200510025 -0.03342200070619583
v -0.007860999554395676 -0.08693999797105789 -0.026048000901937485
v -0.010382000356912613 -0.08635500073432922 -0.025157000869512558
v -0.002489000093191862 -0.0909150019288063 -0.02532700076699257
v -0.0019940000493079424 -0.0904339998960495 -0.024813000112771988
v -0.012895000167191029 -0.0163199994713068 -0.11110000312328339
v -0.012563999742269516 -0.012520000338554382 -0.11867199838161469
v -0.021152999252080917 -0.00145800004247576 -0.11537999659776688
v -0.02317499928176403 0.01228300016373396 -0.12072200328111649
v -0.011951000429689884 -0.022870000451803207 -0.1017640009522438
v -0.01040400005877018 -0.019231999292969704 -0.10563600063323975
v -0.009975000284612179 -0.09011299908161163 -0.013566999696195126
v -0.027907999232411385 -0.10260800272226334 -0.02592100016772747
v -0.017647000029683113 -0.09571100026369095 -0.012651000171899796
v -0.02651900053024292 -0.10183800011873245 -0.02013400010764599
v -0.01255900040268898 -0.09198100119829178 -0.013086000457406044
v -0.08823800086975098 -0.0344339981675148 -0.053171999752521515
v -0.09337799996137619 -0.04127800092101097 -0.05638600140810013
v -0.08504500240087509 -0.025844000279903412 -0.05502599850296974
v -0.08025199919939041 -0.0146289998665452 -0.052411999553442
v -0.0744910016655922 -0.017216000705957413 -0.05602499842643738
v -0.07623899728059769 -0.007892999798059464 -0.06105500087141991
v -0.04373899847269058 0.026576999574899673 -0.1025179997086525
v -0.08102100342512131 0.024591999128460884 -0.06878200173377991
v -0.07715100049972534 0.009364999830722809 -0.07012999802827835
v -0.056418001651763916 0.037744998931884766 -0.09533900022506714
v -0.051128000020980835 0.03556700050830841 -0.10078399628400803
v -0.0045289997942745686 -0.014777000062167645 -0.11560600250959396
v -0.0033579999580979347 -0.004474999848753214 -0.11824200302362442
v -0.013586999848484993 0.01623000018298626 -0.11937899887561798
v -0.008475000038743019 -0.0181450005620718 -0.11042799800634384
v -0.006424000021070242 -0.01649799942970276 -0.11494400352239609
v -0.01143999956548214 -0.023155000060796738 -0.1007390022277832
v -0.029888000339269638 0.035436999052762985 -0.11761900037527084
v -0.03699599951505661 0.02831999957561493 -0.10722099989652634
v -0.06753399968147278 -0.13851599395275116 -0.03013000078499317
v -0.059741999953985214 -0.13892999291419983 -0.02329299971461296
v -0.04221000149846077 -0.12179400026798248 -0.025750000029802322
v -0.045166999101638794 -0.1227400004863739 -0.03127700090408325
v -0.04510999843478203 -0.1258620023727417 -0.02222900092601776
v -0.048308998346328735 -0.12320899963378906 -0.03176400065422058
v -0.04796300083398819 -0.12711100280284882 -0.02857399918138981
v -0.048579998314380646 -0.14104700088500977 -0.026866000145673752
v -0.05484500154852867 -0.13970400393009186 -0.030455000698566437
v -0.053752001374959946 -0.1461630016565323 -0.02679000049829483
v -0.06270000338554382 -0.1435759961605072 -0.02975500002503395
v -0.058490000665187836 -0.14620700478553772 -0.028077000752091408
v -0.049028001725673676 -0.1337130069732666 -0.027011999860405922
v -0.048572998493909836 -0.13082200288772583 -0.027442999184131622
v -0.07350999861955643 -0.1468140035867691 -0.03934299945831299
v -0.07832299917936325 -0.14433899521827698 -0.04420199990272522
v -0.08223699778318405 -0.13889800012111664 -0.054003000259399414
v -0.0789330005645752 -0.14281399548053741 -0.0479619987308979
v -0.08048500120639801 -0.1420229971408844 -0.04634299874305725
v -0.0869550034403801 -0.1315310001373291 -0.05249100178480148
v -0.08695100247859955 -0.12454599887132645 -0.06149600073695183
v -0.08592700213193893 -0.09386199712753296 -0.04659799858927727
v -0.09275200217962265 -0.08443199843168259 -0.0473099984228611
v -0.09202499687671661 -0.08646800369024277 -0.04866399988532066
v -0.09245499968528748 -0.08675800263881683 -0.04697300121188164
v -0.09155099838972092 -0.08901599794626236 -0.046114999800920486
v -0.09207399934530258 -0.08795599639415741 -0.04467900097370148
v -0.09033899754285812 -0.09110700339078903 -0.043209999799728394
v -0.08944199979305267 -0.09233500063419342 -0.04494199901819229
v -0.08493900299072266 -0.135562002658844 -0.05038600042462349
v -0.035541001707315445 0.03693300113081932 -0.13055400550365448
v -0.04095900058746338 0.04248100146651268 -0.1288820058107376
v -0.03227199986577034 0.03273100033402443 -0.13112899661064148
v -0.0248819999396801 0.024173999205231667 -0.1320279985666275
v -0.04469899833202362 0.04662699997425079 -0.1246739998459816
v -0.051493000239133835 0.05306300148367882 -0.11769700050354004
v -0.06920900195837021 0.0366940014064312 -0.0971279963850975
v -0.06279399991035461 0.0561939999461174 -0.10870099812746048
v -0.1104699969291687 0.020166000351309776 -0.06037899851799011
v -0.09687100350856781 0.02949099987745285 -0.06952200084924698
v -0.11965300142765045 0.0002640000020619482 -0.053268998861312866
v -0.08191099762916565 0.04215100035071373 -0.08430899679660797
v -0.07947900146245956 0.039604999125003815 -0.08716300129890442
v -0.08681900054216385 0.04030299931764603 -0.08054900169372559
v -0.09753599762916565 0.037411000579595566 -0.0723629966378212
v -0.12339500337839127 -0.04901000112295151 -0.051837000995874405
v -0.11485099792480469 -0.04839799925684929 -0.0535850003361702
v -0.11826899647712708 -0.02177100069820881 -0.05436500161886215
v -0.12834599614143372 -0.04391299933195114 -0.05379899963736534
v -0.13252699375152588 -0.03323199972510338 -0.051277998834848404
v -0.12863300740718842 -0.046128999441862106 -0.05061599984765053
v -0.1280760020017624 -0.017382999882102013 -0.04913699999451637
v -0.0899140015244484 -0.09124799817800522 -0.047157999128103256
v -0.004976999945938587 -0.09395399689674377 -0.024751000106334686
v -0.008178000338375568 -0.09543599933385849 -0.023344000801444054
v -0.0024270000867545605 -0.09333600103855133 -0.024383999407291412
v -0.012853999622166157 -0.10558100044727325 -0.015154000371694565
v -0.023072000592947006 -0.10652200132608414 -0.018936999142169952
v -0.019562000408768654 -0.10698100179433823 -0.017281999811530113
v -0.020774999633431435 -0.1158439964056015 -0.008173000067472458
v -0.026434000581502914 -0.10817600041627884 -0.02188500016927719
v -0.010680999606847763 -0.1039619967341423 -0.01567699946463108
v -0.009518000297248363 -0.09894099831581116 -0.020263999700546265
v -0.009273000061511993 -0.10208799690008163 -0.016631999984383583
v -0.005659999791532755 -0.08904899656772614 -0.02299799956381321
v -0.0024049999192357063 -0.08898100256919861 -0.010099999606609344
v -0.0001849999971454963 -0.09184300154447556 -0.02287600003182888
v -0.011304999701678753 -0.017619000747799873 -0.11108499765396118
v -0.012409999966621399 -0.01520800031721592 -0.11526799947023392
v -0.014015000313520432 0.009219000115990639 -0.12774799764156342
v -0.010338000021874905 -0.00911100022494793 -0.1230510026216507
v -0.010948999784886837 -0.016188999637961388 -0.11619599908590317
v -0.009212999604642391 -0.09234599769115448 -0.0029319999739527702
v -0.014853999949991703 -0.0968720018863678 -0.0021470000501722097
v -0.027904000133275986 -0.10659100115299225 -0.023705000057816505
v -0.028169000521302223 -0.1100739985704422 -0.014131000265479088
v -0.023182999342679977 -0.11114100366830826 -0.00025599999935366213
v -0.09583000093698502 -0.03948500007390976 -0.05132099986076355
v -0.09050299972295761 -0.03283900022506714 -0.054919999092817307
v -0.08892100304365158 -0.028676999732851982 -0.05562499910593033
v -0.11318700015544891 -0.044224001467227936 -0.04761999845504761
v -0.10234499722719193 -0.04131599888205528 -0.049247998744249344
v -0.12036500126123428 -0.04874299839138985 -0.050432998687028885
v -0.08576299995183945 -0.017503999173641205 -0.05536400154232979
v -0.08777900040149689 -0.02356100082397461 -0.056412000209093094
v -0.08035799860954285 -0.00911100022494793 -0.053661998361349106
v -0.08299700170755386 -0.013172999955713749 -0.0539340004324913
v -0.08034999668598175 0.00009999999747378752 -0.05583300068974495
v -0.0409340001642704 0.039914000779390335 -0.10780400037765503
v -0.04760599881410599 0.04806099832057953 -0.10429300367832184
v -0.08590099960565567 0.015859000384807587 -0.0640999972820282
v -0.09372500330209732 0.028051000088453293 -0.056099001318216324
v -0.09201700240373611 0.025241000577807426 -0.05907699838280678
v -0.09077300131320953 0.043512001633644104 -0.06344199925661087
v -0.08388999849557877 0.008839000016450882 -0.057666998356580734
v -0.08224999904632568 0.005388000048696995 -0.057130999863147736
v -0.05680600181221962 0.05240299925208092 -0.09618999809026718
v -0.004495999775826931 -0.00836700014770031 -0.12026599794626236
v -0.007137000095099211 0.008603000082075596 -0.12256799638271332
v -0.006554999854415655 0.0054709999822080135 -0.12389300018548965
v -0.017545999959111214 0.023948000743985176 -0.12633800506591797
v -0.03725599870085716 0.037721000611782074 -0.11067300289869308
v -0.026468999683856964 0.03691000118851662 -0.12220499664545059
v -0.0570559985935688 -0.1462710052728653 -0.02609900012612343
v -0.05171800032258034 -0.13781100511550903 -0.01990699954330921
v -0.04832499846816063 -0.13083000481128693 -0.020363999530673027
v -0.0411980003118515 -0.12251999974250793 -0.029563000425696373
v -0.03632799908518791 -0.11836100369691849 -0.023174000903964043
v -0.044436998665332794 -0.123369000852108 -0.02996000088751316
v -0.04156700149178505 -0.12239699810743332 -0.01903899945318699
v -0.043960001319646835 -0.12355300039052963 -0.02861100062727928
v -0.044422000646591187 -0.12698900699615479 -0.02709300071001053
v -0.04244900122284889 -0.14068199694156647 -0.021695999428629875
v -0.03578599914908409 -0.13431599736213684 -0.022770000621676445
v -0.037769999355077744 -0.12630900740623474 -0.022789999842643738
v -0.03914099931716919 -0.1272979974746704 -0.02332399971783161
v -0.04493200033903122 -0.13322900235652924 -0.025415999814867973
v -0.044684998691082 -0.13038499653339386 -0.025784999132156372
v -0.09092000126838684 -0.09059300273656845 -0.04495399817824364
v -0.032370999455451965 0.03581999987363815 -0.13162599503993988
v -0.03418499976396561 0.041071999818086624 -0.1303669959306717
v -0.03892600163817406 0.04251899942755699 -0.12969599664211273
v -0.0428210012614727 0.048413001000881195 -0.12483300268650055
v -0.021205000579357147 0.022539999336004257 -0.13177399337291718
v -0.024829000234603882 0.03033200092613697 -0.12899300456047058
v -0.02816000021994114 0.0357539989054203 -0.12950299680233002
v -0.04969700053334236 0.056196000427007675 -0.1159529983997345
v -0.060486000031232834 0.05915899947285652 -0.1077980026602745
v -0.07599999755620956 0.052097998559474945 -0.09580200165510178
v -0.07804399728775024 0.045409999787807465 -0.09048300236463547
v -0.06773000210523605 0.059255000203847885 -0.10201100260019302
v -0.08234100043773651 0.05696899816393852 -0.08911100029945374
v -0.12838000059127808 0.023843999952077866 -0.05242700129747391
v -0.11928799748420715 0.034949999302625656 -0.05837000161409378
v -0.13497599959373474 0.014360000379383564 -0.04728800058364868
v -0.137596994638443 -0.0021589999087154865 -0.04714300110936165
v -0.08835099637508392 0.04536399990320206 -0.08085700124502182
v -0.09196700155735016 0.04309700056910515 -0.07750000059604645
v -0.09586299955844879 0.0525519996881485 -0.07684300094842911
v -0.1041639968752861 0.04680600017309189 -0.07034099847078323
v -0.12703800201416016 -0.047207001596689224 -0.04811999946832657
v -0.13259799778461456 -0.03976200148463249 -0.05149700120091438
v -0.13500800728797913 -0.03082199953496456 -0.04968800023198128
v -0.1371610015630722 -0.022074999287724495 -0.04819599911570549
v -0.13183100521564484 -0.04353500157594681 -0.04706500098109245
v -0.004858000203967094 -0.09565400332212448 -0.023053999990224838
v -0.002314999932423234 -0.0945189967751503 -0.023680999875068665
v -0.007923999801278114 -0.09746299684047699 -0.021268999204039574
v -0.00034500000765547156 -0.09404599666595459 -0.022787999361753464
v -0.009569999761879444 -0.10748100280761719 -0.010912000201642513
v -0.012888000346720219 -0.10903199762105942 -0.01208799984306097
v -0.013558000326156616 -0.11509600281715393 -0.006004999857395887
v -0.023600000888109207 -0.11842700093984604 -0.0007319999858736992
v -0.024968000128865242 -0.11794599890708923 -0.012575999833643436
v -0.025405000895261765 -0.11383800208568573 -0.015541000291705132
v -0.01070099975913763 -0.11049000173807144 -0.009289000183343887
v -0.014398000203073025 -0.11470899730920792 -0.007493000011891127
v -0.024966999888420105 -0.11930300295352936 -0.005001000128686428
v -0.02608799934387207 -0.1205030009150505 -0.010409999638795853
v -0.025894999504089355 -0.1127920001745224 -0.017109999433159828
v -0.028068000450730324 -0.11112800240516663 -0.02185700088739395
v -0.008333999663591385 -0.10537400096654892 -0.012128000147640705
v -0.0077149998396635056 -0.10049799829721451 -0.017680000513792038
v 0.0006810000049881637 -0.09328799694776535 -0.01996600069105625
v -0.0038610000628978014 -0.09135100245475769 -0.003189000068232417
v -0.0008609999786131084 -0.0900529995560646 -0.010359999723732471
v -0.01664000004529953 0.01838500052690506 -0.12964700162410736
v -0.009215000085532665 0.006599000189453363 -0.12591400742530823
v -0.002102999947965145 -0.09426400065422058 -0.000666000007186085
v -0.02983199991285801 -0.11168400198221207 -0.022786999121308327
v -0.027737999334931374 -0.11333700269460678 -0.009335000067949295
v -0.028845999389886856 -0.11315000057220459 -0.01432000007480383
v -0.01623700000345707 -0.11606600135564804 -0.0004400000034365803
v -0.007036999799311161 -0.1070609986782074 -0.000610999995842576
v -0.024261999875307083 -0.11811000108718872 -0.00006600000051548705
v -0.026474999263882637 -0.11713600158691406 -0.0040790000930428505
v -0.1001650020480156 -0.038054000586271286 -0.051961999386548996
v -0.0972369983792305 -0.037262000143527985 -0.053022999316453934
v -0.09414000064134598 -0.03545000031590462 -0.05404999852180481
v -0.0930429995059967 -0.03009600006043911 -0.056662000715732574
v -0.09037499874830246 -0.021191999316215515 -0.05772100016474724
v -0.10946500301361084 -0.04019400104880333 -0.05002399906516075
v -0.11438699811697006 -0.04122199863195419 -0.04908699914813042
v -0.12155099958181381 -0.045823998749256134 -0.04721299931406975
v -0.10402200371026993 -0.03882399946451187 -0.05096700042486191
v -0.08237399905920029 -0.006622999906539917 -0.054294999688863754
v -0.08208300173282623 -0.009662000462412834 -0.053769998252391815
v -0.08508399873971939 -0.0060430001467466354 -0.05517999827861786
v -0.08262000232934952 0.0055149998515844345 -0.05528099834918976
v -0.08414799720048904 0.002013999968767166 -0.05490199849009514
v -0.03796600177884102 0.04863499850034714 -0.11125600337982178
v -0.05631199851632118 0.05619499832391739 -0.09936600178480148
v -0.08631899952888489 0.01345600001513958 -0.05834899842739105
v -0.09266000241041183 0.022346999496221542 -0.05761399865150452
v -0.09499199688434601 0.023076999932527542 -0.056561000645160675
v -0.10029099881649017 0.034619998186826706 -0.053369998931884766
v -0.09997999668121338 0.042413000017404556 -0.05592799931764603
v -0.09301300346851349 0.04839299991726875 -0.06334900110960007
v -0.08687099814414978 0.05207199975848198 -0.07100799679756165
v -0.08432599902153015 0.0091559998691082 -0.05603799968957901
v -0.06726200133562088 0.055410001426935196 -0.08822900056838989
v -0.02110300026834011 0.024313999339938164 -0.13145799934864044
v -0.026924999430775642 0.03599400073289871 -0.12863899767398834
v -0.03369800001382828 0.04346799850463867 -0.11571499705314636
v -0.03219500184059143 0.043476998805999756 -0.12734399735927582
v -0.05091400071978569 -0.14348000288009644 -0.02247600071132183
v -0.04133399948477745 -0.13127699494361877 -0.016544999554753304
v -0.04043399915099144 -0.12310100346803665 -0.02697799913585186
v -0.03509800136089325 -0.11873400211334229 -0.025940999388694763
v -0.032499998807907104 -0.11526399850845337 -0.02229199931025505
v -0.0298909991979599 -0.11438799649477005 -0.014488999731838703
v -0.03263799846172333 -0.12189099937677383 -0.012167000211775303
v -0.0405689999461174 -0.12641699612140656 -0.02550699934363365
v -0.03198999911546707 -0.1328279972076416 -0.01773099973797798
v -0.032228000462055206 -0.1252879947423935 -0.02082199975848198
v -0.031217999756336212 -0.12930700182914734 -0.02092999964952469
v -0.03629099950194359 -0.12287099659442902 -0.02339399978518486
v -0.030341999605298042 -0.11851900070905685 -0.02001900039613247
v -0.03217000141739845 -0.12290400266647339 -0.02077700011432171
v -0.031883999705314636 -0.11702299863100052 -0.02374500036239624
v -0.03849399834871292 -0.12463100254535675 -0.024302000179886818
v -0.04141400009393692 -0.1289840042591095 -0.02429400011897087
v -0.037147000432014465 0.04869699850678444 -0.1234240010380745
v -0.04730600118637085 0.05731400102376938 -0.11305099725723267
v -0.05111199989914894 0.056488998234272 -0.10521099716424942
v -0.08020099997520447 0.05882899835705757 -0.09039299935102463
v -0.07670799642801285 0.05886000022292137 -0.08853200078010559
v -0.06523499637842178 0.05925099924206734 -0.09912999719381332
v -0.08588899672031403 0.05621200054883957 -0.08571899682283401
v -0.12275400012731552 0.02998499944806099 -0.053266000002622604
v -0.12799300253391266 0.02354300022125244 -0.050050999969244
v -0.1172420009970665 0.03609500080347061 -0.05724399909377098
v -0.1130639985203743 0.04046199843287468 -0.05979499965906143
v -0.10661199688911438 0.046087998896837234 -0.06728199869394302
v -0.13539600372314453 0.01381599996238947 -0.04411900043487549
v -0.14040400087833405 -0.00031900001340545714 -0.042132001370191574
v -0.14061099290847778 -0.0015930000226944685 -0.04560200124979019
v -0.14155800640583038 -0.009522000327706337 -0.044610001146793365
v -0.14092600345611572 -0.014968999661505222 -0.04509599879384041
v -0.10410899668931961 0.04775099828839302 -0.06893599778413773
v -0.09691599756479263 0.05066800117492676 -0.06678500026464462
v -0.08678100258111954 0.0558909997344017 -0.07942599803209305
v -0.09044399857521057 0.05385800078511238 -0.07382400333881378
v -0.1269499957561493 -0.042725998908281326 -0.045219000428915024
v -0.13457399606704712 -0.037939999252557755 -0.04670900106430054
v -0.13556599617004395 -0.03143199905753136 -0.04656200110912323
v -0.1367879956960678 -0.027031000703573227 -0.045556001365184784
v -0.13246500492095947 -0.03400300070643425 -0.04635699838399887
v -0.12962600588798523 -0.038718000054359436 -0.04580700024962425
v -0.0032130000181496143 -0.09637200087308884 -0.02164600044488907
v -0.006397000048309565 -0.09766700118780136 -0.020052000880241394
v -0.0013040000339969993 -0.09547200053930283 -0.02185799926519394
v -0.00006199999916134402 -0.0946270003914833 -0.01876699924468994
v -0.0067540002055466175 -0.10487399995326996 -0.010716999880969524
v -0.005756000056862831 -0.105103999376297 -0.0051460000686347485
v -0.01667100004851818 -0.116737000644207 -0.0009689999860711396
v -0.01384500041604042 -0.11482000350952148 -0.001032999949529767
v -0.026426000520586967 -0.11527799814939499 -0.016123000532388687
v -0.026196999475359917 -0.12317200005054474 -0.017350999638438225
v -0.0283610001206398 -0.11942599713802338 -0.009960000403225422
v -0.004666999913752079 -0.09821099787950516 -0.018993999809026718
v -0.004116999916732311 -0.10032500326633453 -0.014700000174343586
v -0.0054350001737475395 -0.10300000011920929 -0.011920999735593796
v 0.0006419999990612268 -0.09168899804353714 -0.009491999633610249
v 0.001917000045068562 -0.09435400366783142 -0.010730000212788582
v -0.00017100000695791095 -0.09290499985218048 -0.0017140000127255917
v 0.0014860000228509307 -0.09711100161075592 -0.001353000057861209
v -0.03167000040411949 -0.11439500004053116 -0.02372400090098381
v -0.09852900356054306 -0.034731000661849976 -0.054701000452041626
v -0.09709800034761429 -0.022148000076413155 -0.05207499861717224
v -0.09418399631977081 -0.008756999857723713 -0.053227998316287994
v -0.105942003428936 -0.036315999925136566 -0.05266200006008148
v -0.11536700278520584 -0.03761399909853935 -0.0506649985909462
v -0.11868800222873688 -0.04205400124192238 -0.048948001116514206
v -0.12275800108909607 -0.04178600013256073 -0.048900000751018524
v -0.12539799511432648 -0.04050799831748009 -0.047894999384880066
v -0.08803299814462662 -0.001184999942779541 -0.05458499863743782
v -0.08639699965715408 0.010478000156581402 -0.054806001484394073
v -0.08748599886894226 0.004896000027656555 -0.054733000695705414
v -0.08836200088262558 0.0021730000153183937 -0.05461899936199188
v -0.03820599988102913 0.050216998904943466 -0.11591500043869019
v -0.09619399905204773 0.01940399967133999 -0.05426900088787079
v -0.09311799705028534 0.017225999385118484 -0.055897001177072525
v -0.09319999814033508 0.019714999943971634 -0.05565100163221359
v -0.09879600256681442 0.022637000307440758 -0.05376100167632103
v -0.09791699796915054 0.022784000262618065 -0.05359499901533127
v -0.10435499995946884 0.03282700106501579 -0.052390001714229584
v -0.10103700309991837 0.026701999828219414 -0.05222700163722038
v -0.09995699673891068 0.023889999836683273 -0.05326699838042259
v -0.10291899740695953 0.030484000220894814 -0.05203599855303764
v -0.10759100317955017 0.03862600028514862 -0.05490599945187569
v -0.10535000264644623 0.03677599877119064 -0.05279000103473663
v -0.10238499939441681 0.04707000032067299 -0.06256700307130814
v -0.10475199669599533 0.04492200165987015 -0.06056800112128258
v -0.09428100287914276 0.049584999680519104 -0.06414400041103363
v -0.03762200102210045 -0.12228599935770035 -0.025630999356508255
v -0.030525999143719673 -0.12076400220394135 -0.019840000197291374
v -0.11951400339603424 0.02980400063097477 -0.05112500116229057
v -0.11447600275278091 0.035555001348257065 -0.05426099896430969
v -0.12796099483966827 0.020131999626755714 -0.046362001448869705
v -0.1245419979095459 0.02423500083386898 -0.0484049990773201
v -0.11076600104570389 0.039914000779390335 -0.05706600099802017
v -0.132860004901886 0.014515000395476818 -0.043877001851797104
v -0.13535800576210022 0.006862000096589327 -0.04161199927330017
v -0.14182500541210175 -0.006628999952226877 -0.04150399938225746
v -0.1370439976453781 0.00011800000356743112 -0.03943200036883354
v -0.14272700250148773 -0.014197000302374363 -0.04189400002360344
v -0.14272500574588776 -0.014562999829649925 -0.04281400144100189
v -0.14089900255203247 -0.01803399994969368 -0.041416000574827194
v -0.1269569993019104 -0.04082399979233742 -0.04634400084614754
v -0.13330699503421783 -0.02975500002503395 -0.04445800185203552
v -0.133993998169899 -0.02617499977350235 -0.04259499907493591
v -0.14066700637340546 -0.020173000171780586 -0.03746600076556206
v -0.12979599833488464 -0.03610900044441223 -0.046893998980522156
v -0.130512997508049 -0.03392599895596504 -0.048353999853134155
v -0.13080300390720367 -0.030236000195145607 -0.046564001590013504
v -0.0029670000076293945 -0.09784399718046188 -0.018365999683737755
v -0.001057000015862286 -0.09616100043058395 -0.016259999945759773
v -0.0027989998925477266 -0.10076600313186646 -0.008542000316083431
v -0.10956799983978271 -0.026570999994874 -0.0500820018351078
v -0.10259000211954117 -0.024178000167012215 -0.05065000057220459
v -0.09898299723863602 -0.010390999726951122 -0.05406399816274643
v -0.09295199811458588 -0.001006999984383583 -0.054267000406980515
v -0.09935899823904037 0.005557000171393156 -0.056453000754117966
v -0.1187020018696785 -0.02779100090265274 -0.04763000085949898
v -0.1245110034942627 -0.03633299842476845 -0.05069499835371971
v -0.127127006649971 -0.03821500018239021 -0.04743000119924545
v -0.09267199784517288 0.011765999719500542 -0.0560699999332428
v -0.08812599629163742 0.007685000076889992 -0.05462000146508217
v -0.10414999723434448 0.004637999925762415 -0.05099799856543541
v -0.10908699780702591 0.03138300031423569 -0.0505170002579689
v -0.1105630025267601 0.026326000690460205 -0.04737799987196922
v -0.11638399958610535 0.02180599980056286 -0.04408799856901169
v -0.12413399666547775 0.011113000102341175 -0.03947699815034866
v -0.1146790012717247 -0.00019099999917671084 -0.04431099817156792
v -0.11922000348567963 0.02482300065457821 -0.046379998326301575
v -0.13702400028705597 -0.004102000035345554 -0.0374470017850399
v -0.13947699964046478 -0.01041099987924099 -0.03799299895763397
v -0.13073000311851501 -0.0073830001056194305 -0.03315399959683418
v -0.13420799374580383 -0.007888000458478928 -0.03466000035405159
v -0.13888399302959442 -0.01308900024741888 -0.03551600128412247
v -0.13148100674152374 -0.026350000873208046 -0.04470000043511391
v -0.13077199459075928 -0.02453099936246872 -0.043956998735666275
v -0.13233600556850433 -0.02051600068807602 -0.039174001663923264
v -0.13666899502277374 -0.018890999257564545 -0.03558199852705002
v -0.13071000576019287 -0.022909000515937805 -0.04192100092768669
v -0.13128599524497986 -0.02191700041294098 -0.04077399894595146
v -0.13622500002384186 -0.015751000493764877 -0.0344959981739521
v -0.12856100499629974 -0.03384799882769585 -0.05035100132226944
v -0.12807300686836243 -0.023579999804496765 -0.04525800049304962
v -0.11596500128507614 -0.02366900071501732 -0.049111999571323395
v -0.1165890023112297 -0.02133999951183796 -0.04938200116157532
v -0.11196599900722504 -0.021655000746250153 -0.05090399831533432
v -0.1074960008263588 -0.009437999688088894 -0.045813001692295074
v -0.11562900245189667 0.02403699979186058 -0.04500500112771988
v -0.1266860067844391 -0.01066299993544817 -0.03715600073337555
v -0.12862199544906616 -0.01792600005865097 -0.03922199830412865
v -0.1365160048007965 -0.0073990002274513245 -0.03571400046348572
v -0.13301999866962433 -0.010354000143706799 -0.033904001116752625
v -0.13600000739097595 -0.01006300002336502 -0.034671999514102936
v -0.13572899997234344 -0.01269300002604723 -0.03409299999475479
v -0.1335269957780838 -0.017980000004172325 -0.0365849994122982
v -0.12063399702310562 -0.02118699997663498 -0.0480940006673336
f 1 2 3
f 1 3 4
f 1 5 2
f 6 1 4
f 7 1 6
f 5 1 7
f 3 2 8
f 2 9 10
f 9 2 5
f 2 10 8
f 8 4 3
f 11 4 12
f 11 6 4
f 4 8 12
f 13 5 7
f 13 14 5
f 9 5 14
f 11 15 6
f 15 7 6
f 16 7 15
f 13 7 16
f 17 8 10
f 8 17 18
f 8 18 19
f 12 8 19
f 9 20 10
f 20 9 21
f 9 14 21
f 10 22 17
f 10 23 24
f 22 10 24
f 10 25 23
f 25 10 20
f 12 26 11
f 15 11 27
f 27 11 26
f 12 28 26
f 12 19 28
f 16 29 13
f 13 29 14
f 14 30 21
f 29 30 14
f 31 15 27
f 31 16 15
f 32 29 16
f 32 16 31
f 22 18 17
f 33 19 18
f 34 18 22
f 34 33 18
f 28 19 33
f 20 35 25
f 21 36 20
f 20 36 35
f 30 37 21
f 21 37 36
f 38 34 22
f 22 24 38
f 23 39 24
f 25 40 23
f 40 39 23
f 38 24 39
f 25 35 41
f 40 25 41
f 26 28 42
f 43 44 26
f 45 27 26
f 26 42 43
f 46 26 47
f 26 46 45
f 44 47 26
f 48 27 49
f 27 45 50
f 27 48 31
f 49 27 50
f 28 33 42
f 29 51 30
f 52 51 29
f 29 53 52
f 53 29 32
f 37 30 51
f 48 54 31
f 32 31 54
f 32 54 55
f 32 55 53
f 56 33 34
f 33 57 42
f 33 58 57
f 33 59 58
f 33 56 59
f 34 38 60
f 34 60 56
f 36 61 35
f 41 35 61
f 36 62 63
f 62 36 37
f 64 61 36
f 63 64 36
f 37 65 62
f 51 65 37
f 39 66 38
f 38 66 67
f 67 60 38
f 39 40 66
f 41 68 40
f 40 68 69
f 40 69 66
f 61 64 41
f 41 64 68
f 70 43 42
f 42 57 70
f 70 44 43
f 44 70 71
f 71 72 44
f 44 72 47
f 73 45 46
f 74 45 73
f 45 74 50
f 46 47 75
f 46 76 73
f 76 46 75
f 77 47 78
f 75 47 77
f 72 78 47
f 49 79 48
f 54 48 80
f 80 48 79
f 50 81 49
f 49 81 79
f 50 74 82
f 81 50 82
f 83 65 51
f 51 52 84
f 51 84 83
f 53 85 52
f 52 85 86
f 86 84 52
f 53 55 87
f 53 88 85
f 87 89 53
f 88 53 89
f 55 54 80
f 90 55 91
f 55 80 92
f 91 55 92
f 87 55 90
f 93 59 56
f 56 94 95
f 56 96 94
f 96 56 60
f 56 95 93
f 57 97 98
f 97 57 58
f 71 57 98
f 71 70 57
f 58 59 97
f 97 59 93
f 67 96 60
f 63 62 99
f 62 100 101
f 100 62 65
f 62 101 102
f 99 62 102
f 103 64 63
f 63 99 103
f 64 104 68
f 105 106 64
f 103 107 64
f 64 106 104
f 107 105 64
f 83 100 65
f 67 66 108
f 109 66 69
f 110 108 66
f 66 109 110
f 96 67 94
f 108 94 67
f 69 68 104
f 111 69 112
f 69 104 113
f 112 69 113
f 109 69 111
f 98 114 71
f 71 114 72
f 114 115 72
f 116 72 115
f 72 116 78
f 73 76 117
f 74 73 117
f 118 74 119
f 74 117 119
f 74 118 120
f 74 120 82
f 121 75 77
f 76 75 121
f 76 119 117
f 76 122 119
f 122 76 121
f 77 78 123
f 77 124 125
f 121 77 125
f 123 124 77
f 123 78 116
f 79 81 82
f 82 126 79
f 79 92 80
f 79 126 127
f 92 79 127
f 120 126 82
f 128 83 84
f 129 100 83
f 83 128 129
f 86 128 84
f 85 88 86
f 130 128 86
f 88 130 86
f 90 131 87
f 87 132 89
f 87 133 132
f 87 131 133
f 132 134 88
f 88 89 132
f 88 134 130
f 91 135 90
f 90 135 136
f 137 90 138
f 137 131 90
f 139 138 90
f 136 139 90
f 92 135 91
f 92 139 136
f 140 139 92
f 92 127 140
f 136 135 92
f 95 141 93
f 142 93 141
f 93 142 97
f 143 95 94
f 108 143 94
f 141 95 143
f 97 142 98
f 114 98 142
f 99 102 103
f 100 144 101
f 129 145 100
f 100 145 144
f 101 144 146
f 102 101 146
f 102 147 103
f 147 102 148
f 148 102 146
f 107 103 147
f 104 106 149
f 113 104 150
f 150 104 149
f 106 105 151
f 105 107 147
f 147 151 105
f 149 106 151
f 143 108 152
f 108 110 152
f 153 110 109
f 154 153 109
f 111 154 109
f 110 155 156
f 156 152 110
f 153 155 110
f 157 111 112
f 154 111 158
f 159 158 111
f 159 111 157
f 157 112 113
f 157 113 150
f 115 114 160
f 114 142 160
f 161 115 160
f 115 161 116
f 123 116 162
f 161 162 116
f 122 118 119
f 118 163 120
f 163 118 164
f 165 164 118
f 166 165 118
f 122 166 118
f 120 163 126
f 167 121 125
f 166 121 168
f 121 167 168
f 121 166 122
f 123 169 170
f 162 169 123
f 124 123 170
f 171 125 124
f 170 171 124
f 125 171 167
f 163 127 126
f 127 164 140
f 127 163 164
f 172 129 128
f 130 172 128
f 145 129 172
f 173 172 130
f 134 173 130
f 131 137 133
f 134 132 133
f 174 133 137
f 174 134 133
f 173 134 174
f 138 175 137
f 137 176 174
f 176 137 175
f 175 138 177
f 178 138 179
f 139 180 138
f 180 179 138
f 177 138 178
f 181 139 140
f 181 182 139
f 182 180 139
f 183 181 140
f 183 140 164
f 143 184 141
f 142 141 184
f 185 160 142
f 185 142 186
f 186 142 184
f 187 184 143
f 187 143 188
f 152 188 143
f 146 144 189
f 144 190 189
f 145 190 144
f 191 145 172
f 190 145 191
f 146 189 192
f 148 146 192
f 151 147 193
f 193 147 194
f 148 194 147
f 148 195 194
f 192 195 148
f 150 149 151
f 157 150 196
f 196 150 151
f 196 151 197
f 197 151 198
f 151 193 198
f 152 199 188
f 152 200 199
f 156 200 152
f 201 155 153
f 154 201 153
f 202 201 154
f 202 154 158
f 203 156 155
f 155 204 205
f 155 205 203
f 206 204 155
f 201 206 155
f 200 156 207
f 203 207 156
f 208 159 157
f 209 208 157
f 196 209 157
f 202 158 210
f 159 210 158
f 210 159 211
f 212 159 213
f 211 159 212
f 214 159 208
f 214 213 159
f 160 215 216
f 185 215 160
f 160 217 161
f 160 216 217
f 218 162 161
f 217 218 161
f 218 219 162
f 162 220 221
f 169 162 221
f 162 219 220
f 165 183 164
f 183 165 222
f 222 165 166
f 223 222 166
f 168 223 166
f 224 167 171
f 167 225 168
f 167 224 225
f 226 168 227
f 225 228 168
f 168 229 227
f 229 168 228
f 168 230 223
f 230 168 226
f 231 170 169
f 232 233 169
f 232 169 234
f 235 169 233
f 169 236 234
f 235 231 169
f 169 221 236
f 170 231 237
f 238 170 237
f 238 239 170
f 170 239 240
f 171 170 240
f 171 240 224
f 191 172 173
f 241 190 173
f 176 173 174
f 191 173 190
f 242 173 176
f 173 242 243
f 241 173 243
f 244 175 245
f 177 245 175
f 244 246 175
f 176 175 246
f 246 242 176
f 177 178 247
f 177 247 245
f 248 178 179
f 249 178 250
f 178 249 247
f 250 178 248
f 179 180 251
f 179 251 248
f 180 182 252
f 180 252 253
f 180 253 254
f 180 254 251
f 182 181 183
f 182 183 255
f 182 255 252
f 256 183 257
f 183 256 255
f 222 257 183
f 258 186 184
f 187 258 184
f 186 215 185
f 186 259 260
f 215 186 260
f 186 258 259
f 258 187 261
f 187 188 261
f 188 262 263
f 263 261 188
f 262 188 199
f 189 264 192
f 189 265 264
f 190 265 189
f 190 241 266
f 266 265 190
f 195 192 264
f 193 267 268
f 193 194 267
f 198 193 268
f 195 267 194
f 267 195 269
f 269 195 264
f 197 209 196
f 208 197 270
f 197 208 209
f 271 197 272
f 197 198 272
f 197 271 270
f 198 268 272
f 273 262 199
f 200 274 199
f 199 275 273
f 199 274 275
f 276 200 207
f 200 276 277
f 274 200 277
f 202 206 201
f 206 202 210
f 207 203 205
f 278 205 204
f 279 278 204
f 204 280 279
f 204 206 281
f 280 204 281
f 282 207 205
f 282 205 278
f 206 210 281
f 276 207 282
f 270 214 208
f 283 210 211
f 281 210 283
f 283 211 212
f 213 284 212
f 284 283 212
f 270 285 213
f 270 213 214
f 213 285 284
f 216 215 260
f 216 286 217
f 286 216 260
f 218 217 287
f 287 217 286
f 219 218 287
f 220 219 288
f 288 219 287
f 289 221 220
f 220 288 289
f 290 236 221
f 289 290 221
f 222 223 291
f 292 222 291
f 222 292 257
f 291 223 230
f 224 240 293
f 224 293 294
f 294 225 224
f 295 225 296
f 225 295 228
f 225 294 296
f 226 227 297
f 297 298 226
f 226 298 299
f 300 226 299
f 301 226 302
f 226 301 303
f 230 226 303
f 302 226 300
f 227 304 297
f 227 229 304
f 295 229 228
f 229 305 304
f 229 295 306
f 305 229 306
f 303 291 230
f 307 237 231
f 307 231 308
f 308 231 235
f 232 309 233
f 309 232 310
f 232 250 310
f 250 232 234
f 233 311 312
f 235 233 312
f 311 233 309
f 313 249 234
f 250 234 249
f 234 314 313
f 314 234 236
f 235 312 315
f 316 235 315
f 316 317 235
f 308 235 317
f 278 236 318
f 314 236 279
f 278 279 236
f 236 290 319
f 236 319 318
f 237 307 320
f 237 320 321
f 321 238 237
f 238 322 239
f 322 238 321
f 239 323 324
f 325 326 239
f 239 324 325
f 322 323 239
f 326 240 239
f 240 326 293
f 241 327 266
f 327 241 328
f 329 241 243
f 329 328 241
f 242 330 331
f 330 242 246
f 329 242 331
f 242 329 243
f 244 245 332
f 246 244 332
f 245 333 332
f 247 334 245
f 245 334 335
f 245 335 333
f 330 246 332
f 334 247 249
f 248 251 309
f 309 310 248
f 250 248 310
f 249 313 334
f 336 311 251
f 337 336 251
f 251 311 309
f 337 251 254
f 255 338 252
f 252 339 340
f 252 338 339
f 340 253 252
f 340 341 253
f 341 254 253
f 341 337 254
f 255 342 338
f 342 255 256
f 292 256 257
f 256 292 342
f 259 258 343
f 344 258 261
f 343 258 344
f 259 345 260
f 346 259 347
f 259 346 348
f 259 343 347
f 345 259 349
f 348 349 259
f 260 345 286
f 263 344 261
f 263 262 350
f 273 350 262
f 263 351 344
f 263 352 351
f 352 263 350
f 265 269 264
f 269 265 266
f 267 269 266
f 267 266 353
f 353 266 327
f 267 272 268
f 354 355 267
f 267 355 356
f 271 267 356
f 267 271 272
f 267 353 354
f 356 270 271
f 357 270 356
f 357 285 270
f 350 273 358
f 359 273 275
f 273 359 358
f 360 274 361
f 361 274 362
f 277 363 274
f 274 360 364
f 274 364 275
f 362 274 363
f 365 359 275
f 275 366 365
f 366 275 364
f 276 318 367
f 318 276 282
f 367 277 276
f 367 368 277
f 277 368 363
f 282 278 318
f 369 314 279
f 280 370 279
f 370 369 279
f 281 371 280
f 280 372 370
f 373 280 371
f 373 372 280
f 283 371 281
f 283 374 375
f 283 376 374
f 376 283 377
f 378 377 283
f 283 284 378
f 283 375 379
f 371 283 379
f 284 285 357
f 284 380 378
f 380 284 357
f 286 345 381
f 381 361 286
f 362 286 361
f 287 286 362
f 288 287 362
f 289 288 382
f 288 362 382
f 367 290 289
f 289 382 367
f 290 367 319
f 292 291 303
f 383 292 303
f 383 342 292
f 326 384 293
f 294 293 384
f 385 296 294
f 386 294 384
f 294 386 385
f 296 387 295
f 306 295 388
f 387 388 295
f 389 387 296
f 296 385 389
f 298 297 390
f 390 297 304
f 391 392 298
f 298 393 394
f 298 392 395
f 298 395 396
f 397 298 396
f 299 298 397
f 390 393 298
f 398 298 394
f 398 391 298
f 299 399 300
f 397 399 299
f 399 400 300
f 300 400 302
f 301 302 401
f 303 301 402
f 301 401 402
f 401 302 400
f 403 383 303
f 402 403 303
f 305 390 304
f 404 390 305
f 305 388 404
f 305 306 388
f 307 308 405
f 307 406 320
f 307 405 407
f 307 407 406
f 405 308 317
f 311 408 312
f 311 409 408
f 311 410 409
f 336 410 311
f 408 315 312
f 313 411 334
f 314 411 313
f 411 314 369
f 412 315 408
f 315 412 413
f 315 413 414
f 315 414 316
f 316 414 415
f 316 416 317
f 416 316 415
f 416 417 317
f 407 317 417
f 407 405 317
f 367 318 319
f 320 418 321
f 320 406 418
f 419 321 420
f 420 321 418
f 419 421 321
f 421 322 321
f 323 322 421
f 324 323 419
f 419 323 421
f 402 422 324
f 403 324 419
f 324 403 402
f 423 324 422
f 324 423 325
f 326 325 424
f 325 423 424
f 384 326 424
f 327 425 426
f 353 327 426
f 425 327 328
f 329 427 328
f 427 425 328
f 428 329 331
f 329 428 429
f 427 329 429
f 330 428 331
f 332 430 330
f 431 432 330
f 433 431 330
f 330 430 433
f 428 330 434
f 330 432 434
f 430 332 333
f 433 430 333
f 333 335 435
f 333 435 433
f 334 411 335
f 436 335 411
f 335 436 435
f 437 336 337
f 336 437 410
f 437 337 341
f 342 403 338
f 338 403 419
f 339 338 419
f 340 339 438
f 339 419 438
f 439 340 438
f 439 440 340
f 440 437 340
f 341 340 437
f 342 383 403
f 441 347 343
f 442 441 343
f 351 343 344
f 351 442 343
f 381 345 349
f 347 443 346
f 346 443 444
f 444 348 346
f 445 347 446
f 347 445 443
f 347 441 447
f 347 447 446
f 444 360 348
f 348 360 349
f 381 349 448
f 360 448 349
f 449 352 350
f 350 450 449
f 358 450 350
f 451 442 351
f 352 451 351
f 452 352 449
f 352 452 451
f 353 453 354
f 454 353 455
f 454 453 353
f 353 426 456
f 455 353 456
f 355 354 457
f 457 354 458
f 458 354 453
f 355 357 356
f 355 380 357
f 457 380 355
f 450 358 459
f 359 365 358
f 358 365 459
f 361 448 360
f 360 444 460
f 360 366 364
f 366 360 460
f 381 448 361
f 362 368 382
f 368 362 363
f 461 365 462
f 366 462 365
f 365 461 463
f 459 365 463
f 366 460 462
f 382 368 367
f 369 464 465
f 369 465 436
f 369 466 464
f 369 370 466
f 411 369 436
f 466 370 467
f 468 467 370
f 370 469 468
f 469 370 372
f 371 379 470
f 470 373 371
f 471 472 372
f 472 469 372
f 473 471 372
f 373 473 372
f 473 373 474
f 470 474 373
f 374 475 375
f 376 475 374
f 475 476 375
f 477 375 476
f 375 477 379
f 377 458 376
f 478 376 458
f 376 479 475
f 376 478 479
f 378 480 377
f 458 377 480
f 378 380 480
f 379 481 482
f 481 379 477
f 470 379 482
f 380 457 480
f 384 424 483
f 384 484 386
f 484 384 483
f 485 486 385
f 487 385 386
f 385 487 485
f 385 486 389
f 484 487 386
f 387 389 488
f 387 404 388
f 387 488 489
f 404 387 489
f 486 488 389
f 390 404 393
f 490 392 391
f 391 491 490
f 391 398 491
f 490 492 392
f 392 493 395
f 493 392 494
f 492 494 392
f 393 404 394
f 495 491 394
f 394 496 495
f 404 496 394
f 491 398 394
f 395 497 396
f 497 395 483
f 493 483 395
f 498 396 497
f 498 397 396
f 397 499 399
f 397 500 499
f 501 397 498
f 501 500 397
f 499 400 399
f 400 499 502
f 400 502 503
f 401 400 503
f 503 402 401
f 503 422 402
f 404 489 496
f 406 420 418
f 406 504 420
f 406 407 504
f 407 417 504
f 409 412 408
f 409 505 412
f 409 410 505
f 410 506 505
f 437 506 410
f 505 413 412
f 507 414 413
f 505 507 413
f 414 508 509
f 508 414 507
f 415 414 509
f 510 415 509
f 510 416 415
f 417 416 510
f 511 504 417
f 511 417 510
f 420 438 419
f 420 440 439
f 420 439 438
f 440 420 504
f 422 503 502
f 423 422 502
f 512 423 502
f 424 423 498
f 423 501 498
f 423 512 501
f 424 498 497
f 497 483 424
f 426 425 513
f 425 514 513
f 425 427 514
f 426 515 516
f 426 513 515
f 426 516 456
f 517 427 518
f 427 519 520
f 427 517 514
f 518 427 520
f 519 427 429
f 428 521 522
f 523 521 428
f 429 428 522
f 523 428 434
f 524 525 429
f 429 525 519
f 526 524 429
f 429 527 526
f 527 429 522
f 528 432 431
f 528 431 529
f 433 529 431
f 434 432 530
f 531 532 432
f 533 432 528
f 533 531 432
f 532 534 432
f 432 534 530
f 529 433 435
f 523 434 530
f 435 436 465
f 435 465 529
f 437 535 506
f 437 440 535
f 535 440 511
f 511 440 504
f 441 442 536
f 537 441 536
f 441 537 447
f 442 451 538
f 536 442 538
f 445 539 443
f 540 444 443
f 541 443 539
f 443 541 540
f 542 444 540
f 543 460 444
f 543 444 542
f 446 544 445
f 445 544 539
f 545 546 446
f 544 446 546
f 447 545 446
f 447 537 545
f 449 547 452
f 449 450 547
f 548 547 450
f 450 459 548
f 451 549 538
f 452 549 451
f 452 547 549
f 453 550 458
f 551 550 453
f 453 454 551
f 552 454 455
f 552 553 454
f 553 554 454
f 554 551 454
f 552 455 456
f 516 552 456
f 458 480 457
f 550 478 458
f 555 548 459
f 556 459 463
f 555 459 556
f 557 558 460
f 460 543 557
f 460 558 462
f 558 461 462
f 461 558 559
f 556 461 559
f 556 463 461
f 464 560 465
f 464 561 560
f 562 561 464
f 466 562 464
f 563 465 564
f 564 465 560
f 565 465 563
f 565 529 465
f 466 566 567
f 466 567 562
f 566 466 467
f 468 568 467
f 569 467 568
f 569 566 467
f 469 568 468
f 570 469 472
f 568 469 570
f 571 470 482
f 470 572 474
f 571 572 470
f 472 471 573
f 471 574 575
f 575 573 471
f 471 576 574
f 473 576 471
f 573 577 472
f 570 472 578
f 577 578 472
f 473 579 576
f 572 473 474
f 473 572 579
f 475 580 476
f 580 475 479
f 476 581 477
f 582 476 580
f 476 582 581
f 583 481 477
f 581 583 477
f 479 478 550
f 479 554 580
f 479 550 554
f 584 482 481
f 585 584 481
f 585 481 583
f 482 584 571
f 483 493 484
f 484 586 587
f 588 487 484
f 484 493 586
f 587 588 484
f 486 485 589
f 485 487 590
f 590 589 485
f 589 591 486
f 486 591 488
f 590 487 592
f 487 588 592
f 488 591 593
f 593 489 488
f 593 594 489
f 594 496 489
f 595 490 596
f 492 490 595
f 597 490 598
f 599 598 490
f 491 495 490
f 599 490 495
f 490 597 596
f 492 586 494
f 586 492 595
f 493 494 586
f 600 495 496
f 600 599 495
f 496 594 600
f 502 499 512
f 500 512 499
f 512 500 501
f 506 507 505
f 535 507 506
f 535 508 507
f 509 508 601
f 508 535 601
f 601 510 509
f 601 511 510
f 535 511 601
f 513 602 515
f 602 513 603
f 604 603 513
f 604 513 514
f 604 514 605
f 605 514 517
f 516 515 602
f 606 552 516
f 606 516 607
f 516 602 608
f 607 516 608
f 517 518 605
f 605 518 609
f 518 520 610
f 610 609 518
f 520 519 611
f 519 525 612
f 612 611 519
f 610 520 613
f 520 611 614
f 520 614 613
f 521 527 522
f 615 521 523
f 616 527 521
f 615 616 521
f 534 523 530
f 523 617 615
f 523 534 618
f 617 523 618
f 525 524 612
f 524 619 614
f 612 524 614
f 619 524 526
f 527 620 526
f 620 619 526
f 527 621 620
f 527 616 622
f 527 622 621
f 623 528 565
f 529 565 528
f 528 623 533
f 531 624 532
f 533 624 531
f 532 624 625
f 626 532 625
f 626 534 532
f 533 627 624
f 533 623 627
f 534 626 618
f 628 536 629
f 536 538 629
f 628 537 536
f 630 537 628
f 537 630 545
f 538 631 629
f 538 549 631
f 544 632 539
f 632 633 539
f 542 539 633
f 542 541 539
f 541 542 540
f 634 635 542
f 636 637 542
f 542 638 639
f 542 633 638
f 542 635 640
f 641 542 640
f 542 641 636
f 634 542 639
f 542 637 543
f 543 637 642
f 643 557 543
f 642 643 543
f 644 544 546
f 632 544 644
f 545 645 546
f 630 645 545
f 645 644 546
f 549 547 646
f 547 548 646
f 647 648 548
f 548 648 646
f 548 555 647
f 631 549 646
f 550 551 554
f 552 606 649
f 552 650 553
f 552 649 650
f 554 553 580
f 580 553 650
f 647 555 651
f 555 556 651
f 651 556 559
f 652 558 557
f 557 643 652
f 559 558 653
f 654 558 652
f 654 653 558
f 655 656 559
f 656 651 559
f 559 657 655
f 658 559 653
f 559 658 657
f 560 659 564
f 560 660 659
f 661 660 560
f 560 561 661
f 561 662 661
f 663 662 561
f 562 663 561
f 567 663 562
f 664 563 564
f 563 664 665
f 666 563 665
f 563 666 565
f 659 667 564
f 667 664 564
f 565 666 623
f 567 566 663
f 663 566 569
f 570 668 568
f 669 569 568
f 568 668 669
f 663 569 669
f 668 570 670
f 671 570 578
f 570 672 670
f 570 671 672
f 584 673 571
f 673 572 571
f 674 572 673
f 572 674 579
f 577 573 675
f 573 676 675
f 575 676 573
f 676 575 574
f 676 574 677
f 677 574 678
f 574 679 678
f 576 679 574
f 679 576 680
f 681 680 576
f 576 579 681
f 675 682 577
f 577 671 578
f 577 682 671
f 683 579 674
f 579 683 681
f 580 650 582
f 581 649 583
f 649 581 582
f 650 649 582
f 583 649 684
f 685 583 684
f 583 685 585
f 673 584 686
f 584 585 686
f 687 585 685
f 585 687 686
f 587 586 688
f 586 595 688
f 595 587 688
f 587 595 689
f 587 592 588
f 689 592 587
f 593 591 589
f 593 589 690
f 691 690 589
f 589 590 691
f 692 691 590
f 592 692 590
f 652 692 592
f 652 592 693
f 592 689 694
f 694 693 592
f 690 594 593
f 594 690 695
f 600 594 695
f 696 595 596
f 696 689 595
f 596 697 698
f 698 696 596
f 697 596 597
f 598 699 597
f 700 701 597
f 702 597 699
f 597 702 700
f 701 697 597
f 598 703 699
f 599 704 598
f 704 703 598
f 704 599 600
f 600 695 704
f 687 602 603
f 687 608 602
f 603 604 705
f 705 687 603
f 604 605 705
f 605 609 705
f 649 606 684
f 607 684 606
f 608 685 607
f 607 685 684
f 685 608 687
f 610 706 609
f 705 609 706
f 613 707 610
f 706 610 707
f 612 614 611
f 613 614 708
f 708 709 613
f 710 613 709
f 613 710 707
f 614 711 708
f 614 621 711
f 619 621 614
f 615 712 616
f 617 713 615
f 712 615 713
f 616 712 714
f 715 616 714
f 616 715 716
f 616 716 622
f 717 617 718
f 718 617 719
f 713 617 717
f 617 618 719
f 719 618 720
f 720 618 721
f 626 721 618
f 621 619 620
f 621 622 722
f 621 722 723
f 621 724 711
f 621 723 725
f 724 621 725
f 622 716 722
f 623 726 627
f 666 726 623
f 727 625 624
f 727 624 627
f 728 625 727
f 625 728 729
f 626 625 729
f 626 729 721
f 730 627 731
f 727 627 730
f 731 627 726
f 732 628 629
f 733 630 628
f 732 733 628
f 629 631 734
f 732 629 734
f 645 630 733
f 631 735 734
f 735 631 646
f 736 632 644
f 632 736 737
f 638 632 737
f 633 632 638
f 635 634 738
f 638 739 634
f 638 634 639
f 634 739 738
f 738 657 635
f 635 658 640
f 658 635 657
f 637 636 740
f 741 740 636
f 696 636 641
f 636 696 741
f 642 637 740
f 656 638 737
f 739 638 656
f 640 742 641
f 742 640 658
f 641 694 696
f 694 641 742
f 740 643 642
f 700 643 740
f 702 652 643
f 700 702 643
f 743 744 644
f 745 736 644
f 644 733 743
f 644 645 733
f 644 744 745
f 646 648 746
f 747 735 646
f 746 747 646
f 746 648 647
f 746 647 748
f 651 748 647
f 749 651 656
f 651 749 748
f 652 702 750
f 654 652 693
f 652 750 692
f 693 658 653
f 654 693 653
f 739 656 655
f 655 738 739
f 738 655 657
f 749 656 737
f 658 693 742
f 659 751 667
f 660 751 659
f 662 751 660
f 661 662 660
f 751 662 752
f 663 752 662
f 663 668 670
f 668 663 669
f 753 663 670
f 752 663 753
f 754 664 667
f 664 754 755
f 665 664 755
f 756 666 665
f 756 665 755
f 757 666 756
f 666 758 726
f 666 757 758
f 751 754 667
f 672 759 670
f 759 753 670
f 682 672 671
f 672 682 760
f 672 760 761
f 762 672 761
f 672 762 759
f 707 673 763
f 673 687 763
f 687 673 686
f 673 707 674
f 710 674 707
f 674 709 683
f 674 710 709
f 760 682 675
f 676 760 675
f 677 764 676
f 676 765 760
f 676 764 766
f 765 676 766
f 678 767 677
f 677 767 768
f 764 677 768
f 678 679 769
f 678 770 771
f 772 678 769
f 772 770 678
f 767 678 771
f 679 773 774
f 680 775 679
f 679 775 776
f 773 679 776
f 769 679 774
f 777 775 680
f 681 777 680
f 683 709 681
f 681 709 724
f 681 724 725
f 723 681 725
f 777 681 723
f 763 687 705
f 689 696 694
f 690 691 778
f 778 695 690
f 750 778 691
f 691 692 750
f 742 693 694
f 703 704 695
f 778 703 695
f 741 696 698
f 779 698 697
f 779 697 701
f 698 779 741
f 703 778 699
f 778 702 699
f 700 779 701
f 779 700 740
f 778 750 702
f 706 763 705
f 763 706 707
f 708 711 724
f 709 708 724
f 713 780 712
f 712 781 714
f 712 780 781
f 717 782 713
f 713 782 783
f 780 713 783
f 715 714 781
f 776 715 784
f 784 715 781
f 715 776 716
f 716 775 722
f 716 776 775
f 718 785 717
f 782 717 785
f 785 718 786
f 719 787 718
f 787 788 718
f 786 718 788
f 719 720 787
f 720 789 787
f 789 720 790
f 720 721 790
f 791 721 729
f 721 791 790
f 722 775 723
f 775 777 723
f 726 792 731
f 792 726 758
f 730 728 727
f 793 728 730
f 793 729 728
f 794 729 793
f 795 791 729
f 794 795 729
f 731 796 730
f 730 797 798
f 796 797 730
f 798 793 730
f 731 792 796
f 799 743 732
f 734 799 732
f 743 733 732
f 800 799 734
f 735 800 734
f 747 800 735
f 736 801 737
f 801 736 745
f 737 801 749
f 779 740 741
f 744 743 799
f 801 744 800
f 800 744 799
f 744 801 745
f 746 748 747
f 800 747 749
f 748 749 747
f 800 749 801
f 751 802 754
f 751 752 803
f 802 751 803
f 804 752 753
f 752 804 803
f 805 753 759
f 753 806 804
f 805 806 753
f 754 807 755
f 807 754 802
f 808 757 755
f 808 755 807
f 755 757 756
f 757 808 758
f 809 758 808
f 809 792 758
f 762 805 759
f 760 765 810
f 761 760 811
f 810 811 760
f 805 761 811
f 805 762 761
f 806 764 812
f 812 764 768
f 764 806 766
f 806 765 766
f 765 806 810
f 812 767 771
f 767 812 768
f 769 774 813
f 814 769 813
f 814 772 769
f 771 770 815
f 770 772 814
f 815 770 814
f 771 815 816
f 812 771 817
f 771 816 817
f 774 773 781
f 781 773 784
f 784 773 776
f 774 781 813
f 780 813 781
f 780 783 818
f 813 780 818
f 782 815 783
f 815 782 785
f 815 818 783
f 786 816 785
f 815 785 816
f 816 786 788
f 788 787 819
f 787 789 820
f 819 787 820
f 816 788 821
f 822 821 788
f 819 822 788
f 789 790 795
f 820 789 823
f 823 789 795
f 791 795 790
f 792 809 796
f 824 794 793
f 798 824 793
f 794 824 825
f 794 826 827
f 828 794 825
f 794 828 829
f 826 794 829
f 795 794 827
f 795 830 823
f 830 795 827
f 809 831 796
f 796 831 797
f 798 797 831
f 832 824 798
f 798 831 832
f 802 833 807
f 834 802 835
f 834 833 802
f 803 835 802
f 803 804 835
f 804 812 836
f 806 812 804
f 836 835 804
f 806 805 811
f 811 810 806
f 831 807 832
f 807 833 832
f 807 831 808
f 831 809 808
f 817 836 812
f 813 818 837
f 813 837 814
f 815 814 837
f 815 837 818
f 838 817 816
f 838 816 821
f 838 839 817
f 817 839 836
f 819 820 840
f 840 822 819
f 840 820 823
f 821 822 841
f 821 841 838
f 822 840 842
f 841 822 842
f 843 842 823
f 823 842 840
f 830 843 823
f 825 824 832
f 832 828 825
f 827 826 844
f 844 826 839
f 839 826 829
f 830 827 844
f 839 828 832
f 828 839 829
f 843 830 838
f 838 830 844
f 833 845 832
f 845 839 832
f 845 833 834
f 834 835 836
f 836 845 834
f 845 836 839
f 839 838 844
f 841 843 838
f 841 842 843
