# Generated by Visualization Toolkit
v -0.10000000149011612 0.014999999664723873 0
v 0.10000000149011612 0.014999999664723873 0
v -0.10000000149011612 0.007499999832361937 -0.012990380637347698
v 0.10000000149011612 0.007499999832361937 -0.012990380637347698
v -0.10000000149011612 -0.007499999832361937 -0.012990380637347698
v 0.10000000149011612 -0.007499999832361937 -0.012990380637347698
v -0.10000000149011612 -0.014999999664723873 6.153102766887075e-12
v 0.10000000149011612 -0.014999999664723873 6.153102766887075e-12
v -0.10000000149011612 -0.007499999832361937 0.012990380637347698
v 0.10000000149011612 -0.007499999832361937 0.012990380637347698
v -0.10000000149011612 0.007499999832361937 0.012990380637347698
v 0.10000000149011612 0.007499999832361937 0.012990380637347698
v -0.10000000149011612 0.014999999664723873 0
v -0.10000000149011612 0.007499999832361937 -0.012990380637347698
v -0.10000000149011612 -0.007499999832361937 -0.012990380637347698
v -0.10000000149011612 -0.014999999664723873 6.153102766887075e-12
v -0.10000000149011612 -0.007499999832361937 0.012990380637347698
v -0.10000000149011612 0.007499999832361937 0.012990380637347698
v 0.10000000149011612 0.007499999832361937 0.012990380637347698
v 0.10000000149011612 -0.007499999832361937 0.012990380637347698
v 0.10000000149011612 -0.014999999664723873 6.153102766887075e-12
v 0.10000000149011612 -0.007499999832361937 -0.012990380637347698
v 0.10000000149011612 0.007499999832361937 -0.012990380637347698
v 0.10000000149011612 0.014999999664723873 0
v 0.014999999664723873 2.2204460823375376e-17 0.10000000149011612
v 0.014999999664723873 -2.2204460823375376e-17 -0.10000000149011612
v 0.007499999832361937 0.012990380637347698 0.10000000149011612
v 0.007499999832361937 0.012990380637347698 -0.10000000149011612
v -0.007499999832361937 0.012990380637347698 0.10000000149011612
v -0.007499999832361937 0.012990380637347698 -0.10000000149011612
v -0.014999999664723873 -6.1530806491627565e-12 0.10000000149011612
v -0.014999999664723873 -6.153124884611394e-12 -0.10000000149011612
v -0.007499999832361937 -0.012990380637347698 0.10000000149011612
v -0.007499999832361937 -0.012990380637347698 -0.10000000149011612
v 0.007499999832361937 -0.012990380637347698 0.10000000149011612
v 0.007499999832361937 -0.012990380637347698 -0.10000000149011612
v 0.014999999664723873 2.2204460823375376e-17 0.10000000149011612
v 0.007499999832361937 0.012990380637347698 0.10000000149011612
v -0.007499999832361937 0.012990380637347698 0.10000000149011612
v -0.014999999664723873 -6.1530806491627565e-12 0.10000000149011612
v -0.007499999832361937 -0.012990380637347698 0.10000000149011612
v 0.007499999832361937 -0.012990380637347698 0.10000000149011612
v 0.007499999832361937 -0.012990380637347698 -0.10000000149011612
v -0.007499999832361937 -0.012990380637347698 -0.10000000149011612
v -0.014999999664723873 -6.153124884611394e-12 -0.10000000149011612
v -0.007499999832361937 0.012990380637347698 -0.10000000149011612
v 0.007499999832361937 0.012990380637347698 -0.10000000149011612
v 0.014999999664723873 -2.2204460823375376e-17 -0.10000000149011612
v 0.019999999552965164 0.5 0
v 0.019999999552965164 0 0
v 0.009999999776482582 0.5 -0.017320508137345314
v 0.009999999776482582 0 -0.017320508137345314
v -0.009999999776482582 0.5 -0.017320508137345314
v -0.009999999776482582 0 -0.017320508137345314
v -0.019999999552965164 0.5 8.2041370225161e-12
v -0.019999999552965164 0 8.2041370225161e-12
v -0.009999999776482582 0.5 0.017320508137345314
v -0.009999999776482582 0 0.017320508137345314
v 0.009999999776482582 0.5 0.017320508137345314
v 0.009999999776482582 0 0.017320508137345314
v 0.019999999552965164 0.5 0
v 0.009999999776482582 0.5 -0.017320508137345314
v -0.009999999776482582 0.5 -0.017320508137345314
v -0.019999999552965164 0.5 8.2041370225161e-12
v -0.009999999776482582 0.5 0.017320508137345314
v 0.009999999776482582 0.5 0.017320508137345314
v 0.009999999776482582 0 0.017320508137345314
v -0.009999999776482582 0 0.017320508137345314
v -0.019999999552965164 0 8.2041370225161e-12
v -0.009999999776482582 0 -0.017320508137345314
v 0.009999999776482582 0 -0.017320508137345314
v 0.019999999552965164 0 0
v 0 0 0.07500000298023224
v 0 0 -0.07500000298023224
v 0.03254128247499466 0 0.06757266819477081
v 0.058637361973524094 0 0.046761732548475266
v 0.07311959564685822 0 0.01668906770646572
v 0.07311959564685822 0 -0.01668907329440117
v 0.058637358248233795 0 -0.04676173999905586
v 0.03254127502441406 0 -0.06757266819477081
v 0.02632644958794117 0.019127285107970238 0.06757266819477081
v 0.047438621520996094 0.034466177225112915 0.046761732548475266
v 0.059154994785785675 0.042978618294000626 0.01668906770646572
v 0.05915499106049538 0.042978618294000626 -0.01668907329440117
v 0.047438617795705795 0.03446617349982262 -0.04676173999905586
v 0.026326444000005722 0.01912728138267994 -0.06757266819477081
v 0.010055807419121265 0.030948597937822342 0.06757266819477081
v 0.018119938671588898 0.055767446756362915 0.046761732548475266
v 0.022595195099711418 0.06954086571931839 0.01668906770646572
v 0.022595195099711418 0.06954086571931839 -0.01668907329440117
v 0.018119938671588898 0.05576744303107262 -0.04676173999905586
v 0.01005580648779869 0.030948592349886894 -0.06757266819477081
v -0.01005581021308899 0.030948597937822342 0.06757266819477081
v -0.018119944259524345 0.05576744303107262 0.046761732548475266
v -0.022595200687646866 0.06954086571931839 0.01668906770646572
v -0.022595200687646866 0.06954086571931839 -0.01668907329440117
v -0.018119942396879196 0.05576743930578232 -0.04676173999905586
v -0.01005580835044384 0.030948592349886894 -0.06757266819477081
v -0.02632645145058632 0.01912728324532509 0.06757266819477081
v -0.04743862524628639 0.03446617349982262 0.046761732548475266
v -0.059154998511075974 0.04297861456871033 0.01668906770646572
v -0.059154994785785675 0.04297861456871033 -0.01668907329440117
v -0.047438621520996094 0.03446616977453232 -0.04676173999905586
v -0.02632644586265087 0.01912727952003479 -0.06757266819477081
v -0.03254128247499466 -2.8448492450650065e-9 0.06757266819477081
v -0.058637361973524094 -5.1262412092967224e-9 0.046761732548475266
v -0.07311959564685822 -6.392318230297178e-9 0.01668906770646572
v -0.07311959564685822 -6.392318230297178e-9 -0.01668907329440117
v -0.058637358248233795 -5.126240765207513e-9 -0.04676173999905586
v -0.03254127502441406 -2.8448488009757966e-9 -0.06757266819477081
v -0.02632644772529602 -0.019127288833260536 0.06757266819477081
v -0.047438617795705795 -0.034466180950403214 0.046761732548475266
v -0.05915499106049538 -0.04297862574458122 0.01668906770646572
v -0.05915498733520508 -0.04297862574458122 -0.01668907329440117
v -0.0474386140704155 -0.034466180950403214 -0.04676173999905586
v -0.026326442137360573 -0.019127285107970238 -0.06757266819477081
v -0.010055805556476116 -0.030948597937822342 0.06757266819477081
v -0.0181199349462986 -0.055767446756362915 0.046761732548475266
v -0.02259518951177597 -0.06954086571931839 0.01668906770646572
v -0.02259518764913082 -0.06954086571931839 -0.01668907329440117
v -0.01811993308365345 -0.05576744303107262 -0.04676173999905586
v -0.010055803693830967 -0.030948592349886894 -0.06757266819477081
v 0.010055813007056713 -0.030948596075177193 0.06757266819477081
v 0.018119949847459793 -0.05576744303107262 0.046761732548475266
v 0.022595206275582314 -0.06954086571931839 0.01668906770646572
v 0.022595206275582314 -0.06954085826873779 -0.01668907329440117
v 0.018119947984814644 -0.05576743930578232 -0.04676173999905586
v 0.010055811144411564 -0.030948590487241745 -0.06757266819477081
v 0.026326453313231468 -0.01912728138267994 0.06757266819477081
v 0.04743862897157669 -0.03446616977453232 0.046761732548475266
v 0.05915500223636627 -0.04297861084342003 0.01668906770646572
v 0.059154998511075974 -0.04297860711812973 -0.01668907329440117
v 0.04743862524628639 -0.03446616604924202 -0.04676173999905586
v 0.02632644772529602 -0.01912727765738964 -0.06757266819477081
f 1 2 3
f 2 4 3
f 3 4 5
f 4 6 5
f 5 6 7
f 6 8 7
f 7 8 9
f 8 10 9
f 9 10 11
f 10 12 11
f 11 12 1
f 12 2 1
f 13 14 18
f 18 14 17
f 14 15 17
f 16 17 15
f 21 22 20
f 20 22 19
f 22 23 19
f 19 23 24
f 25 26 27
f 26 28 27
f 27 28 29
f 28 30 29
f 29 30 31
f 30 32 31
f 31 32 33
f 32 34 33
f 33 34 35
f 34 36 35
f 35 36 25
f 36 26 25
f 37 38 42
f 42 38 41
f 38 39 41
f 40 41 39
f 45 46 44
f 44 46 43
f 46 47 43
f 48 43 47
f 49 50 51
f 50 52 51
f 51 52 53
f 52 54 53
f 53 54 55
f 54 56 55
f 55 56 57
f 56 58 57
f 57 58 59
f 58 60 59
f 59 60 49
f 60 50 49
f 63 64 62
f 62 64 61
f 61 64 66
f 65 66 64
f 70 71 69
f 71 72 69
f 72 67 69
f 68 69 67
f 75 81 73
f 81 87 73
f 87 93 73
f 93 99 73
f 99 105 73
f 105 111 73
f 111 117 73
f 117 123 73
f 123 129 73
f 129 75 73
f 80 74 86
f 86 74 92
f 92 74 98
f 98 74 104
f 104 74 110
f 110 74 116
f 116 74 122
f 122 74 128
f 128 74 134
f 134 74 80
f 75 76 82
f 75 82 81
f 76 77 83
f 76 83 82
f 77 78 84
f 77 84 83
f 78 79 85
f 78 85 84
f 79 80 86
f 79 86 85
f 81 82 88
f 81 88 87
f 82 83 89
f 82 89 88
f 83 84 90
f 83 90 89
f 84 85 91
f 84 91 90
f 85 86 92
f 85 92 91
f 87 88 94
f 87 94 93
f 88 89 95
f 88 95 94
f 89 90 96
f 89 96 95
f 90 91 97
f 90 97 96
f 91 92 98
f 91 98 97
f 93 94 100
f 93 100 99
f 94 95 101
f 94 101 100
f 95 96 102
f 95 102 101
f 96 97 103
f 96 103 102
f 97 98 104
f 97 104 103
f 99 100 106
f 99 106 105
f 100 101 107
f 100 107 106
f 101 102 108
f 101 108 107
f 102 103 109
f 102 109 108
f 103 104 110
f 103 110 109
f 105 106 112
f 105 112 111
f 106 107 113
f 106 113 112
f 107 108 114
f 107 114 113
f 108 109 115
f 108 115 114
f 109 110 116
f 109 116 115
f 111 112 118
f 111 118 117
f 112 113 119
f 112 119 118
f 113 114 120
f 113 120 119
f 114 115 121
f 114 121 120
f 115 116 122
f 115 122 121
f 117 118 124
f 117 124 123
f 118 119 125
f 118 125 124
f 119 120 126
f 119 126 125
f 120 121 127
f 120 127 126
f 121 122 128
f 121 128 127
f 123 124 130
f 123 130 129
f 124 125 131
f 124 131 130
f 125 126 132
f 125 132 131
f 126 127 133
f 126 133 132
f 127 128 134
f 127 134 133
f 129 130 76
f 129 76 75
f 130 131 77
f 130 77 76
f 131 132 78
f 131 78 77
f 132 133 79
f 132 79 78
f 133 134 80
f 133 80 79
