# Generated by Visualization Toolkit
v 0.006562999915331602 -0.008431999944150448 0.02607399970293045
v 0.004025000147521496 -0.01082099974155426 0.025805000215768814
v 0.006025000009685755 -0.011087000370025635 0.02687700092792511
v 0.008372999727725983 -0.009840999729931355 0.026965999975800514
v 0.0021609999239444733 -0.009758000262081623 0.02531999908387661
v 0.0014400000218302011 -0.00737700005993247 0.023499000817537308
v 0.007672000210732222 -0.006837000139057636 0.02520499937236309
v 0.002976000076159835 -0.01278000045567751 0.025374000892043114
v 0.006856000050902367 -0.01329800020903349 0.026955999433994293
v 0.008917000144720078 -0.007861999794840813 0.025655999779701233
v 0.00967899989336729 -0.013578999787569046 0.026830999180674553
v 0.010479000397026539 -0.010565999895334244 0.026050999760627747
v 0.0037150001153349876 -0.015197999775409698 0.020397000014781952
v 0.006498999893665314 -0.005625999998301268 0.022297000512480736
v 0.001766999950632453 -0.006393999792635441 0.020584000274538994
v 0.008430000394582748 -0.0070489998906850815 0.025186000391840935
v 0.004647000227123499 -0.017994999885559082 0.024423999711871147
v 0.005400999914854765 -0.018710000440478325 0.024596000090241432
v 0.011129000224173069 -0.011699000373482704 0.023586999624967575
v 0.007193999830633402 -0.019644999876618385 0.023202000185847282
v 0.012078000232577324 -0.014728999696671963 0.024455999955534935
v 0.005384999793022871 -0.018719999119639397 0.022523999214172363
v 0.003536999924108386 -0.009196000173687935 0.018350999802350998
v 0.00595899997279048 -0.014569999650120735 0.017626000568270683
v 0.006031999830156565 -0.018177999183535576 0.020312000066041946
v 0.00911800004541874 -0.008541000075638294 0.021619999781250954
v 0.007385999895632267 -0.00873200036585331 0.01980300061404705
v 0.012292000465095043 -0.014973999932408333 0.022050000727176666
v 0.011253000237047672 -0.012745999731123447 0.021014999598264694
v 0.007782999891787767 -0.019070999696850777 0.0209330003708601
v 0.010719000361859798 -0.0173179991543293 0.021035000681877136
v 0.010037999600172043 -0.012272000312805176 0.020016999915242195
v 0.006930999923497438 -0.01627100072801113 0.018139999359846115
v 0.010497000068426132 -0.016840999945998192 0.02025499939918518
f 1 2 3
f 3 4 1
f 5 2 1
f 6 1 7
f 1 6 5
f 7 1 4
f 2 8 3
f 8 2 5
f 8 9 3
f 9 4 3
f 4 10 7
f 4 9 11
f 4 11 12
f 10 4 12
f 8 5 13
f 13 5 6
f 14 6 7
f 6 14 15
f 6 15 13
f 16 7 10
f 7 16 14
f 8 13 17
f 8 17 18
f 9 8 18
f 18 11 9
f 12 19 10
f 10 19 16
f 20 11 18
f 20 21 11
f 11 21 12
f 19 12 21
f 13 22 17
f 23 24 13
f 13 25 22
f 24 25 13
f 13 15 23
f 26 14 16
f 14 23 15
f 23 14 27
f 27 14 26
f 16 19 26
f 22 18 17
f 22 20 18
f 28 19 21
f 19 28 29
f 26 19 29
f 25 20 22
f 25 30 20
f 30 31 20
f 31 21 20
f 21 31 28
f 27 24 23
f 32 24 27
f 32 33 24
f 24 33 25
f 33 30 25
f 26 32 27
f 32 26 29
f 31 34 28
f 34 29 28
f 34 32 29
f 33 34 30
f 31 30 34
f 33 32 34
