# Generated by Visualization Toolkit
v 0.02088399976491928 -0.00002300000051036477 0.018417999148368835
v 0.021643999963998795 -0.000653000024612993 0.018681000918149948
v 0.021138999611139297 -0.002865999937057495 0.018303999677300453
v 0.01962199993431568 0.00026000000070780516 0.017757000401616096
v 0.019706999883055687 -0.0006270000012591481 0.02534100040793419
v 0.021616000682115555 -0.0005179999861866236 0.020781999453902245
v 0.011754999868571758 0.0012610000558197498 0.02126700058579445
v 0.017537999898195267 -0.0005460000247694552 0.02526099979877472
v 0.021990999579429626 -0.002211000071838498 0.02012299932539463
v 0.02167299948632717 -0.0025239998940378428 0.019060999155044556
v 0.020796999335289 -0.003826000029221177 0.018193000927567482
v 0.01904899999499321 -0.004381000064313412 0.01758500002324581
v 0.01771700009703636 -0.003891000058501959 0.017405999824404716
v 0.017470000311732292 -0.00008099999831756577 0.017945000901818275
v 0.017167000100016594 0.0004579999949783087 0.018378999084234238
v 0.0203660000115633 -0.0018420000560581684 0.02644599974155426
v 0.021017000079154968 -0.002259999979287386 0.023723000660538673
v 0.010950000025331974 0.00042600001324899495 0.01773199997842312
v 0.004900000058114529 0.0020779999904334545 0.02057100087404251
v 0.011068999767303467 -0.002483000047504902 0.022811999544501305
v 0.01451599970459938 -0.003464000066742301 0.02391899935901165
v 0.018180999904870987 -0.00254100002348423 0.026465000584721565
v 0.02178799919784069 -0.0029090000316500664 0.019797999411821365
v 0.020378999412059784 -0.004970999900251627 0.01909100078046322
v 0.018456000834703445 -0.005388000048696995 0.018303999677300453
v 0.017517000436782837 -0.005200000014156103 0.01806499995291233
v 0.016301000490784645 -0.0012369999894872308 0.017618000507354736
v 0.017023999243974686 -0.001091000041924417 0.017777999863028526
v 0.016961000859737396 -0.004606999922543764 0.01811799965798855
v 0.0157919991761446 -0.00023499999952036887 0.017743999138474464
v 0.02032800018787384 -0.003576999995857477 0.026288000866770744
v 0.020086999982595444 -0.005086999852210283 0.024464000016450882
v 0.018502000719308853 -0.0061519998125731945 0.02366200089454651
v 0.018888000398874283 -0.004488999955356121 0.02257700078189373
v 0.020865000784397125 -0.004602999892085791 0.020579999312758446
v 0.0029810001142323017 0.0015399999683722854 0.016315000131726265
v 0.011061999946832657 -0.00032500000088475645 0.017457999289035797
v 0.001184999942779541 0.002767999889329076 0.016985999420285225
v 0.0007450000266544521 0.002919000107795 0.018869999796152115
v -0.001534000039100647 -0.003837000112980604 0.018011000007390976
v 0.015426999889314175 -0.004015000071376562 0.022902000695466995
v 0.01822800002992153 -0.0045739999040961266 0.022312000393867493
v -0.0028639999218285084 -0.004224999807775021 0.014395000413060188
v 0.011225000023841858 -0.0015750000020489097 0.01782899908721447
v 0.016498999670147896 -0.0033889999613165855 0.02004300057888031
v 0.01629900000989437 -0.005392000079154968 0.023079000413417816
v 0.014961999841034412 -0.004645000211894512 0.023876000195741653
v 0.019764000549912453 -0.005330000072717667 0.025616999715566635
v 0.018074000254273415 -0.006275999825447798 0.024762999266386032
v 0.017045000568032265 -0.006132999900728464 0.024397000670433044
v 0.019457999616861343 -0.005549000110477209 0.01964399963617325
v 0.017726000398397446 -0.005390999838709831 0.018962999805808067
v 0.015706000849604607 -0.0013780000153928995 0.01802399940788746
v 0.016176000237464905 -0.002486000070348382 0.018281999975442886
v 0.01752699911594391 -0.00610999995842576 0.02338000014424324
v 0.018278000876307487 -0.004705999977886677 0.021333999931812286
v -0.0025949999690055847 0.003476999932900071 0.016651999205350876
v 0.0006639999919570982 -0.0013889999827370048 0.015112999826669693
v -0.0033100000582635403 0.003648000070825219 0.01801699958741665
v -0.0037070000544190407 0.0032339999452233315 0.018580999225378036
v -0.006275999825447798 -0.0007960000075399876 0.0193719994276762
v -0.006599000189453363 -0.003570999950170517 0.01895900070667267
v -0.007350000087171793 -0.004885000176727772 0.017983999103307724
v -0.005824000108987093 -0.004143999889492989 0.01834299974143505
v -0.00841199979186058 -0.00570600014179945 0.017472999170422554
v -0.005750999785959721 -0.005272999871522188 0.014705999754369259
v -0.005803000181913376 0.000645000021904707 0.0114120002835989
v -0.005758000072091818 -0.004052000120282173 0.011649000458419323
v -0.0035149999894201756 0.0005159999709576368 0.01368900015950203
v -0.005421999841928482 -0.005018000025302172 0.012666000053286552
v -0.005210000090301037 -0.004271000158041716 0.012306000106036663
v -0.005164000205695629 0.004648999776691198 0.01607399992644787
v -0.006016000173985958 0.004966000095009804 0.016068000346422195
v -0.007255000062286854 0.004459000192582607 0.018549000844359398
v -0.007753999903798103 0.003957999870181084 0.019363999366760254
v -0.007776999846100807 0.0006270000012591481 0.020323000848293304
v -0.007521000225096941 -0.0037690000608563423 0.01948300004005432
v -0.007691999897360802 -0.004743000026792288 0.018605999648571014
v -0.008159000426530838 -0.004939999897032976 0.018208999186754227
v -0.009824000298976898 -0.005016000010073185 0.01875399984419346
v -0.010381000116467476 -0.005179000087082386 0.016390999779105186
v -0.010162999853491783 -0.005423000082373619 0.017199000343680382
v -0.010400000028312206 -0.005357999820262194 0.017893999814987183
v -0.007962999865412712 -0.005626999773085117 0.014070999808609486
v -0.007801000028848648 -0.004910999909043312 0.013036999851465225
v -0.00814600009471178 -0.003650000086054206 0.01129399985074997
v -0.005594000220298767 0.0028409999795258045 0.012281999923288822
v -0.00646300008520484 0.002457000082358718 0.012357000261545181
v -0.006984999869018793 -0.004652000032365322 0.012303999625146389
v -0.00836899969726801 -0.004621999803930521 0.012268999591469765
v -0.005386000033468008 0.004459999967366457 0.014189999550580978
v -0.00623599998652935 0.004335000179708004 0.01385900005698204
v -0.00979200005531311 -0.0012919999426230788 0.0196090005338192
v -0.008585999719798565 0.0027650000993162394 0.020062999799847603
v -0.008906000293791294 0.0019910000264644623 0.020238999277353287
v -0.00949500035494566 -0.0040699997916817665 0.01945500075817108
v -0.010619999840855598 -0.00394799979403615 0.019047999754548073
v -0.01056700013577938 -0.004757999908179045 0.01851700060069561
v -0.010827000252902508 -0.0047519998624920845 0.016933999955654144
v -0.010463999584317207 -0.004728000145405531 0.014267000369727612
v -0.009699000045657158 -0.004939999897032976 0.01331700012087822
v -0.00841199979186058 -0.0055160000920295715 0.013199999928474426
v -0.00939099956303835 -0.004662000108510256 0.012745999731123447
f 1 2 3
f 3 4 1
f 5 6 1
f 2 1 6
f 4 7 1
f 8 5 1
f 7 8 1
f 9 10 2
f 10 3 2
f 9 2 6
f 11 12 3
f 10 11 3
f 12 13 3
f 13 4 3
f 13 14 4
f 14 15 4
f 7 4 15
f 5 16 6
f 8 16 5
f 17 9 6
f 16 17 6
f 7 15 18
f 18 19 7
f 20 7 19
f 8 7 20
f 21 22 8
f 20 21 8
f 22 16 8
f 23 9 17
f 10 9 23
f 10 24 11
f 24 10 23
f 11 24 25
f 25 12 11
f 13 12 26
f 12 25 26
f 13 27 28
f 14 13 28
f 13 29 27
f 13 26 29
f 28 15 14
f 18 15 30
f 15 28 30
f 22 31 16
f 31 17 16
f 32 33 17
f 33 34 17
f 17 34 35
f 23 17 35
f 32 17 31
f 18 36 19
f 18 30 37
f 18 37 36
f 19 36 38
f 19 38 39
f 39 20 19
f 40 20 39
f 21 20 41
f 41 20 42
f 20 40 43
f 20 43 44
f 42 20 45
f 20 44 45
f 41 46 21
f 21 46 47
f 22 21 47
f 48 31 22
f 49 48 22
f 50 22 47
f 50 49 22
f 24 23 35
f 35 51 24
f 25 24 51
f 26 25 52
f 25 51 52
f 52 29 26
f 27 53 30
f 28 27 30
f 54 53 27
f 29 54 27
f 54 29 45
f 52 45 29
f 44 37 30
f 44 30 53
f 32 31 48
f 48 33 32
f 49 50 33
f 50 55 33
f 48 49 33
f 34 33 55
f 34 55 42
f 42 56 34
f 35 34 56
f 35 56 51
f 57 36 58
f 38 36 57
f 37 58 36
f 43 37 44
f 58 37 43
f 57 39 38
f 59 39 57
f 39 59 60
f 39 60 61
f 39 61 40
f 62 40 61
f 63 40 64
f 40 62 64
f 40 63 65
f 66 40 65
f 43 40 66
f 46 41 42
f 42 55 46
f 45 56 42
f 67 43 68
f 43 67 69
f 70 43 66
f 71 43 70
f 69 58 43
f 68 43 71
f 54 45 44
f 54 44 53
f 45 52 56
f 46 55 50
f 50 47 46
f 51 56 52
f 57 69 72
f 59 57 72
f 58 69 57
f 59 72 73
f 59 74 60
f 73 74 59
f 75 60 74
f 60 75 61
f 61 75 76
f 77 62 61
f 76 77 61
f 77 78 62
f 78 64 62
f 78 63 64
f 79 65 63
f 79 63 78
f 79 80 65
f 81 65 82
f 82 65 83
f 65 80 83
f 84 66 65
f 84 65 81
f 70 66 85
f 66 84 85
f 68 86 67
f 87 67 88
f 67 86 88
f 69 67 87
f 68 71 89
f 89 90 68
f 90 86 68
f 69 91 72
f 69 87 91
f 85 89 70
f 71 70 89
f 91 73 72
f 92 73 91
f 73 75 74
f 88 73 92
f 93 73 88
f 75 73 93
f 75 94 76
f 94 75 93
f 94 95 76
f 95 93 76
f 76 93 77
f 77 93 96
f 96 78 77
f 96 79 78
f 96 80 79
f 80 97 98
f 83 80 98
f 80 96 97
f 82 99 81
f 81 100 84
f 99 100 81
f 99 82 98
f 82 83 98
f 101 102 84
f 85 84 102
f 84 100 101
f 90 89 85
f 85 102 90
f 90 103 86
f 86 103 88
f 92 87 88
f 92 91 87
f 100 88 103
f 88 100 93
f 90 102 103
f 94 93 95
f 97 96 93
f 98 97 93
f 93 99 98
f 100 99 93
f 103 101 100
f 101 103 102
