# Generated by Visualization Toolkit
v 0.03649099916219711 -0.0007919999770820141 -0.002177000045776367
v 0.03860799968242645 -0.0018980000168085098 -0.0032319999299943447
v 0.035569000989198685 -0.005690000019967556 -0.0018570000538602471
v 0.03748499974608421 -0.0007179999956861138 -0.003898999886587262
v 0.03342900052666664 -0.003932000137865543 -0.0017719999887049198
v 0.03379200026392937 -0.0005130000063218176 -0.0029800001066178083
v 0.03891399875283241 -0.0036180000752210617 -0.004832000005990267
v 0.03749600052833557 -0.005160000175237656 -0.002583000110462308
v 0.03861299902200699 -0.0018629999831318855 -0.005640000104904175
v 0.03380199894309044 -0.0066200001165270805 -0.0024339999072253704
v 0.03482099995017052 -0.006808999925851822 -0.0027020000852644444
v 0.03295399993658066 -0.0020099999383091927 -0.01090100035071373
v 0.03721199929714203 -0.001908999984152615 -0.009228999726474285
v 0.027470000088214874 0.000375000003259629 -0.00684100016951561
v 0.03248300030827522 -0.0036639999598264694 -0.0028059999458491802
v 0.03226099908351898 -0.0011709999525919557 -0.0022140000946819782
v 0.03322000056505203 -0.005987000185996294 -0.0025259999092668295
v 0.037932999432086945 -0.0037950000260025263 -0.008894000202417374
v 0.03695699945092201 -0.006397000048309565 -0.003607999999076128
v 0.0339680016040802 -0.00685499981045723 -0.0035039999056607485
v 0.03587999939918518 -0.007023000158369541 -0.004255000036209822
v 0.024581000208854675 -0.0019970000721514225 -0.008585000410676003
v 0.03143100067973137 -0.004288000054657459 -0.010966000147163868
v 0.03474399819970131 -0.004126000218093395 -0.012280999682843685
v 0.03732199966907501 -0.0034630000591278076 -0.01202400028705597
v 0.037675999104976654 -0.004906999878585339 -0.010978000238537788
v 0.010397999547421932 0.0033569999504834414 -0.00481100007891655
v 0.022576000541448593 0.0010860000038519502 -0.002331000054255128
v 0.032565001398324966 -0.0048790001310408115 -0.005872000008821487
v 0.02700899913907051 -0.0026149998884648085 -0.0024369999300688505
v 0.022064000368118286 -0.0015709999715909362 -0.0010489999549463391
v 0.03599800169467926 -0.005836000200361013 -0.007946999743580818
v 0.034717999398708344 -0.007821000181138515 -0.00889699999243021
v 0.036695998162031174 -0.006750000175088644 -0.009705999866127968
v 0.03446999937295914 -0.006095999851822853 -0.007416999898850918
v 0.015922000631690025 -0.003834000090137124 -0.005863000173121691
v 0.026427999138832092 -0.003894000081345439 -0.008717999793589115
v 0.030293000862002373 -0.004991000052541494 -0.00966500025242567
v 0.031237000599503517 -0.007009000051766634 -0.00950700044631958
v 0.03513500094413757 -0.0072929998859763145 -0.011144000105559826
v 0.03636400029063225 -0.007046999875456095 -0.011037999764084816
v 0.03717200085520744 -0.005266000051051378 -0.011796999722719193
v 0.008891000412404537 0.005121999885886908 -0.0015450000064447522
v 0.007379000075161457 0.0053079999051988125 -0.0018149999668821692
v 0.013485999777913094 0.0032919999212026596 -0.0025480000767856836
v 0.006444000173360109 0.004832000005990267 -0.005018000025302172
v 0.005872000008821487 0.004269000142812729 -0.006132000125944614
v 0.004875999875366688 0.0029899999499320984 -0.00710600009188056
v 0.005080000031739473 0.0015699999639764428 -0.007420000154525042
v 0.008750000037252903 -0.00016500000492669642 -0.005526999942958355
v 0.009813000448048115 0.0038850000128149986 -0.000048000001697801054
v 0.019703000783920288 0.0001990000018849969 -0.0006169999833218753
v 0.03240299969911575 -0.004972999915480614 -0.006829999852925539
v 0.015876999124884605 -0.004447000101208687 -0.00418699998408556
v 0.010955999605357647 -0.00392800010740757 0.0010499999625608325
v 0.03426799923181534 -0.007997999899089336 -0.010200999677181244
v 0.03305799886584282 -0.00785799976438284 -0.009882999584078789
v 0.03265500068664551 -0.007501000072807074 -0.008503000251948833
v 0.032228998839855194 -0.005568999797105789 -0.007797999773174524
v 0.009755999781191349 -0.0035620001144707203 -0.0047980002127587795
v 0.031252000480890274 -0.005545999854803085 -0.008341999724507332
v 0.03176100179553032 -0.006471999920904636 -0.008427999913692474
v 0.008721999824047089 0.0050760000012815 0.0009720000089146197
v 0.007447999902069569 0.0041600000113248825 0.002389000030234456
v 0.007718000095337629 0.005003000143915415 0.0013210000470280647
v 0.0048409998416900635 -0.0025859999004751444 0.0038040000945329666
v 0.0035359999164938927 -0.002650999929755926 -0.0012000000569969416
v 0.0020940001122653484 -0.00393400015309453 -0.005783999804407358
v 0.004466000013053417 0.00215999991632998 -0.00735800014808774
v 0.003621000098064542 -0.0005510000046342611 -0.007253000047057867
v 0.005805999971926212 -0.003708000062033534 -0.006250999867916107
v 0.006800999864935875 -0.0034370000939816236 -0.005495999939739704
v 0.010639999993145466 0.0006140000186860561 0.0019409999949857593
v 0.00850099977105856 0.0034910000395029783 0.0035459999926388264
v 0.010088999755680561 -0.0031369999051094055 0.0019529999699443579
v 0.007565000094473362 -0.003957999870181084 -0.004612000193446875
v 0.00889899954199791 -0.004226999823004007 0.002256999956443906
v 0.00814600009471178 0.0011129999766126275 0.004755999892950058
v 0.0050479997880756855 -0.0031510000117123127 0.004637999925762415
v 0.00430000014603138 -0.0036150000523775816 0.00395999988541007
v 0.003963999915868044 -0.003490000031888485 0.0032790000550448895
v 0.0033309999853372574 -0.0038950000889599323 0.0027979998849332333
v 0.002065999899059534 -0.004135000053793192 -0.0006339999963529408
v 0.0022539999336004257 -0.004253999795764685 0.0013849999522790313
v 0.0019020000472664833 -0.004683000035583973 -0.004989000037312508
v 0.0015069999499246478 -0.004495999775826931 -0.0011820000363513827
v 0.0027260000351816416 -0.004647000227123499 -0.005758000072091818
v 0.00533499987795949 -0.0047079999931156635 -0.0050200000405311584
v 0.008239000104367733 -0.002761000068858266 0.004705999977886677
v 0.003654999891296029 -0.005022000055760145 0.0022060000337660313
v 0.007841999642550945 -0.0035290000960230827 0.004437000025063753
v 0.007023000158369541 -0.0034229999873787165 0.004772999789565802
v 0.0018739999504759908 -0.004337000194936991 0.000547999981790781
f 3 2 1
f 1 2 4
f 3 1 5
f 1 6 5
f 6 1 4
f 2 8 7
f 2 3 8
f 9 4 2
f 9 2 7
f 10 3 5
f 10 11 3
f 8 3 11
f 13 12 4
f 9 13 4
f 14 6 4
f 4 12 14
f 16 15 5
f 16 5 6
f 5 15 17
f 5 17 10
f 16 6 14
f 7 18 9
f 19 18 7
f 7 8 19
f 11 19 8
f 9 18 13
f 10 17 20
f 20 11 10
f 21 19 11
f 20 21 11
f 22 14 12
f 12 24 23
f 12 23 22
f 13 25 12
f 12 25 24
f 26 13 18
f 25 13 26
f 28 14 27
f 27 14 22
f 16 14 28
f 30 29 15
f 29 17 15
f 15 16 30
f 31 30 16
f 28 31 16
f 17 29 20
f 33 18 32
f 18 33 34
f 19 32 18
f 26 18 34
f 19 21 32
f 35 20 29
f 20 32 21
f 20 35 32
f 37 36 22
f 22 23 37
f 36 27 22
f 23 38 37
f 40 39 23
f 23 39 38
f 40 23 24
f 24 42 41
f 24 41 40
f 25 42 24
f 42 25 26
f 42 26 41
f 26 34 41
f 44 43 27
f 27 45 28
f 27 43 45
f 27 46 44
f 47 46 27
f 27 48 47
f 27 49 48
f 49 27 50
f 36 50 27
f 52 28 51
f 45 51 28
f 31 28 52
f 37 29 30
f 29 37 53
f 29 53 35
f 37 30 54
f 55 54 30
f 30 31 55
f 55 31 52
f 35 33 32
f 56 41 33
f 33 57 56
f 33 58 57
f 33 41 34
f 59 58 33
f 35 59 33
f 59 35 53
f 54 60 36
f 37 54 36
f 36 60 50
f 61 59 37
f 61 37 38
f 37 59 53
f 38 62 61
f 39 62 38
f 40 57 39
f 39 58 62
f 58 39 57
f 56 40 41
f 56 57 40
f 43 51 45
f 43 63 51
f 43 44 63
f 46 47 44
f 65 44 64
f 63 44 65
f 66 44 47
f 66 64 44
f 68 67 47
f 47 48 68
f 67 66 47
f 49 69 48
f 48 69 70
f 68 48 70
f 69 49 70
f 71 70 49
f 50 71 49
f 50 72 71
f 60 72 50
f 51 73 52
f 51 74 73
f 51 63 74
f 75 52 73
f 75 55 52
f 60 54 76
f 55 76 54
f 77 55 75
f 76 55 77
f 58 59 62
f 59 61 62
f 60 76 72
f 74 63 65
f 66 78 64
f 64 74 65
f 64 78 74
f 78 66 79
f 66 80 79
f 66 81 80
f 81 66 82
f 84 66 83
f 66 84 82
f 67 83 66
f 67 68 85
f 85 86 67
f 67 86 83
f 70 71 68
f 71 87 68
f 85 68 87
f 71 88 87
f 72 88 71
f 72 76 88
f 78 73 74
f 89 73 78
f 75 73 89
f 77 75 89
f 77 88 76
f 85 77 90
f 77 85 88
f 80 90 77
f 91 80 77
f 77 89 91
f 79 89 78
f 80 92 79
f 79 92 89
f 82 90 80
f 80 91 92
f 81 82 80
f 90 82 84
f 83 93 84
f 86 93 83
f 84 93 90
f 87 88 85
f 86 85 90
f 86 90 93
f 89 92 91
