# Generated by Visualization Toolkit
v -0.0065020001493394375 0.0013889999827370048 0.044319998472929
v -0.0057680001482367516 0.0006680000224150717 0.04434699937701225
v -0.0065460000187158585 -0.0021150000393390656 0.04255500063300133
v -0.005913999862968922 -0.0000670000008540228 0.04663800075650215
v -0.008553000167012215 0.0020920000970363617 0.044916000217199326
v -0.007720999885350466 0.0019249999895691872 0.04380900040268898
v -0.005357999820262194 -0.0012339999666437507 0.044815998524427414
v -0.006945999804884195 -0.003441999899223447 0.042725998908281326
v -0.0078039998188614845 -0.003653000108897686 0.04216200113296509
v -0.00963400024920702 -0.0032130000181496143 0.04162700101733208
v -0.005733000114560127 -0.002428000094369054 0.04431400075554848
v -0.012070000171661377 -0.0006709999870508909 0.04952000081539154
v -0.009684000164270401 -0.0014990000054240227 0.05000999942421913
v -0.0069149998016655445 -0.0027830000035464764 0.04980599880218506
v -0.006238999776542187 -0.002887000096961856 0.048114001750946045
v -0.006027999799698591 -0.0021460000425577164 0.047196999192237854
v -0.005528000183403492 -0.0017790000420063734 0.045965999364852905
v -0.011270999908447266 0.0016499999910593033 0.04329700022935867
v -0.013330000452697277 0.002196999965235591 0.04464200139045715
v -0.010793999768793583 0.0007280000136233866 0.042805999517440796
v -0.007903000339865685 -0.004149999935179949 0.0428990013897419
v -0.006527999881654978 -0.0035989999305456877 0.044110000133514404
v -0.009499000385403633 -0.0037249999586492777 0.0423399992287159
v -0.01015700027346611 -0.002655999967828393 0.04189300164580345
v -0.016078000888228416 0.0024999999441206455 0.04675599932670593
v -0.01614600047469139 -0.0016080000204965472 0.045635998249053955
v -0.012556999921798706 -0.0037769998889416456 0.04772699996829033
v -0.011373000219464302 -0.006016999948769808 0.047157999128103256
v -0.009848999790847301 -0.006591999903321266 0.047352999448776245
v -0.0075079998932778835 -0.00532899983227253 0.0484669990837574
v -0.006940000224858522 -0.004368999972939491 0.04896499961614609
v -0.0064570000395178795 -0.0029100000392645597 0.04728899896144867
v -0.006345000118017197 -0.0026310000102967024 0.046737998723983765
v -0.011332999914884567 0.0004720000142697245 0.04307600110769272
v -0.023361999541521072 0.003476999932900071 0.041019998490810394
v -0.013736999593675137 0.00036100001307204366 0.04293400049209595
v -0.023434000089764595 0.004182000178843737 0.04569799825549126
v -0.021053999662399292 0.00407399982213974 0.044422999024391174
v -0.010897000320255756 -0.0006849999772384763 0.04287299886345863
v -0.008844000287353992 -0.004240000154823065 0.045910999178886414
v -0.009464000351727009 -0.004242999944835901 0.04569000005722046
v -0.007127999793738127 -0.00342399999499321 0.046831998974084854
v -0.010811000131070614 -0.0026740001048892736 0.044906001538038254
v -0.024362999945878983 -0.0008069999748840928 0.04387100040912628
v -0.012016000226140022 -0.004083000123500824 0.04682200029492378
v -0.024299999698996544 -0.0007440000190399587 0.042555999010801315
v -0.011071999557316303 -0.005903000012040138 0.046250998973846436
v -0.012276999652385712 -0.004910000134259462 0.047230999916791916
v -0.008744999766349792 -0.006432999856770039 0.047513000667095184
v -0.009461999870836735 -0.006289999932050705 0.04631200060248375
v -0.0075240000151097775 -0.005377000197768211 0.047136999666690826
v -0.028869999572634697 0.005915000103414059 0.041039999574422836
v -0.01942499913275242 0.0009660000214353204 0.041499000042676926
v -0.025169000029563904 0.0011399999493733048 0.03948900103569031
v -0.02833300083875656 -0.0004039999912492931 0.03794100135564804
v -0.02739500068128109 0.005243000108748674 0.04475200176239014
v -0.028224999085068703 0.006310999859124422 0.04327699914574623
v -0.029848000034689903 -0.0019280000124126673 0.04079199954867363
v -0.025429999455809593 0.00042799999937415123 0.03952199965715408
v -0.03136799857020378 0.008209999650716782 0.043441999703645706
v -0.031000999733805656 0.008462999947369099 0.041273001581430435
v -0.030691999942064285 0.00808900035917759 0.040119998157024384
v -0.030635999515652657 0.007393999956548214 0.038860999047756195
v -0.030799999833106995 0.000986000057309866 0.03550200164318085
v -0.03165299817919731 -0.001398000051267445 0.037675000727176666
v -0.030628999695181847 -0.0003549999964889139 0.036045998334884644
v -0.030364999547600746 0.0004830000107176602 0.03600800037384033
v -0.03256399929523468 0.006713000126183033 0.0455860011279583
v -0.03392200171947479 0.0035290000960230827 0.04617699980735779
v -0.033121999353170395 -0.0004959999932907522 0.044210001826286316
v -0.031975001096725464 -0.0014720000326633453 0.04258099943399429
v -0.03127399832010269 -0.001803999999538064 0.04174400120973587
v -0.032669998705387115 -0.0022780001163482666 0.04115299880504608
v -0.03363899886608124 -0.0027759999502450228 0.04038099944591522
v -0.03130900114774704 0.007788000162690878 0.03997600078582764
v -0.031223999336361885 0.007025999948382378 0.038892000913619995
v -0.03284899890422821 0.0016680000117048621 0.03543899953365326
v -0.03110400028526783 0.00044999999227002263 0.035739999264478683
v -0.033348001539707184 -0.0008510000188834965 0.03646500036120415
v -0.03465700149536133 0.0002300000051036477 0.044461000710725784
v -0.0328419990837574 -0.0018220000201836228 0.04302399978041649
v -0.03459800034761429 -0.0019710001070052385 0.042955998331308365
v -0.0330049991607666 -0.0023769999388605356 0.041808001697063446
v -0.034908000379800797 -0.002553999889642 0.0419280007481575
v -0.03537699952721596 -0.0024820000398904085 0.0410120002925396
v -0.03443099930882454 -0.0002640000020619482 0.03687399998307228
v -0.03551900014281273 -0.0021589999087154865 0.04184899851679802
f 1 2 3
f 4 1 5
f 6 5 1
f 3 6 1
f 2 1 4
f 7 3 2
f 7 2 4
f 3 8 9
f 10 6 3
f 3 9 10
f 3 7 11
f 8 3 11
f 12 4 5
f 4 12 13
f 14 4 13
f 14 15 4
f 15 16 4
f 4 16 17
f 4 17 7
f 18 5 6
f 5 18 19
f 5 19 12
f 10 20 6
f 20 18 6
f 11 7 17
f 9 8 21
f 8 22 21
f 8 11 22
f 21 23 9
f 10 9 23
f 24 10 23
f 20 10 24
f 11 17 22
f 12 25 26
f 12 19 25
f 26 27 12
f 13 12 27
f 13 28 29
f 29 30 13
f 30 14 13
f 13 27 28
f 30 31 14
f 14 31 15
f 30 15 31
f 16 15 32
f 32 15 30
f 22 17 16
f 22 16 33
f 16 32 33
f 20 34 18
f 18 35 19
f 36 35 18
f 36 18 34
f 37 25 19
f 38 19 35
f 19 38 37
f 39 34 20
f 24 39 20
f 40 41 21
f 40 21 22
f 21 41 23
f 22 33 42
f 42 40 22
f 24 23 41
f 43 24 41
f 39 24 43
f 44 25 37
f 26 25 44
f 41 26 43
f 27 26 45
f 44 46 26
f 45 26 41
f 26 46 36
f 26 36 43
f 45 47 27
f 48 27 47
f 27 48 28
f 28 48 47
f 29 28 47
f 29 49 30
f 29 47 50
f 50 49 29
f 51 32 30
f 49 51 30
f 33 32 42
f 32 51 42
f 39 36 34
f 38 35 52
f 53 35 36
f 35 53 54
f 54 55 35
f 55 52 35
f 46 53 36
f 39 43 36
f 56 37 38
f 56 44 37
f 38 52 57
f 38 57 56
f 40 50 41
f 40 42 50
f 41 50 47
f 47 45 41
f 51 50 42
f 58 44 56
f 44 58 46
f 59 46 58
f 53 46 59
f 51 49 50
f 57 52 60
f 52 61 60
f 62 61 52
f 62 52 63
f 64 63 52
f 64 52 55
f 54 53 59
f 59 55 54
f 65 55 58
f 55 59 58
f 66 55 65
f 67 55 66
f 64 55 67
f 56 60 68
f 56 69 70
f 57 60 56
f 69 56 68
f 71 56 70
f 58 56 71
f 72 58 71
f 73 58 72
f 58 73 74
f 58 74 65
f 68 60 61
f 61 62 75
f 75 68 61
f 62 63 76
f 62 76 75
f 77 76 63
f 64 77 63
f 78 77 64
f 64 67 78
f 65 74 79
f 66 65 77
f 65 79 77
f 67 66 78
f 66 77 78
f 69 68 80
f 68 75 76
f 76 80 68
f 69 80 70
f 81 70 82
f 81 71 70
f 80 82 70
f 81 83 71
f 83 72 71
f 83 73 72
f 83 74 73
f 83 84 74
f 74 84 85
f 74 85 79
f 76 77 80
f 86 77 79
f 77 86 80
f 86 79 85
f 87 82 80
f 80 86 87
f 82 83 81
f 84 82 87
f 82 84 83
f 84 87 85
f 87 86 85
