# Generated by Visualization Toolkit
v -0.017121000215411186 0.0038300000596791506 -0.02895900048315525
v -0.014654000289738178 0.0015849999617785215 -0.02837499976158142
v -0.016806000843644142 0.0005409999866969883 -0.026926999911665916
v -0.016405999660491943 0.004652999807149172 -0.03121500089764595
v -0.018974000588059425 0.006238999776542187 -0.03101000003516674
v -0.019435999915003777 0.0064929998479783535 -0.02879899926483631
v -0.019067000597715378 0.00495600001886487 -0.02645700052380562
v -0.019121000543236732 0.005903999786823988 -0.027652999386191368
v -0.011225000023841858 0.0013849999522790313 -0.029249999672174454
v -0.0068720001727342606 0.00216599996201694 -0.0314750000834465
v -0.013113999739289284 -0.001366000040434301 -0.0281009990721941
v -0.016462000086903572 -0.003317000111564994 -0.026822999119758606
v -0.018712999299168587 -0.0005849999724887311 -0.024209000170230865
v -0.01547400001436472 0.00381199992261827 -0.03292800113558769
v -0.011339000426232815 0.002529999939724803 -0.034306999295949936
v -0.019241999834775925 0.005055000074207783 -0.03305299952626228
v -0.019780000671744347 0.006604999769479036 -0.031120000407099724
v -0.019770000129938126 0.005551000125706196 -0.027567999437451363
v -0.020975999534130096 0.005396000109612942 -0.03365200012922287
v -0.021344000473618507 -0.0016830000095069408 -0.023938000202178955
v -0.01968199945986271 0.00456500006839633 -0.02656799927353859
v -0.011235999874770641 -0.001155999954789877 -0.02869899943470955
v -0.0036989999935030937 0.0014959999825805426 -0.03522700071334839
v -0.002824000082910061 0.00009999999747378752 -0.031362999230623245
v 0.0003980000037699938 0.0008609999786131084 -0.03437900170683861
v -0.01337399985641241 -0.0021100000012665987 -0.02826800011098385
v -0.019965000450611115 -0.004470000043511391 -0.026791999116539955
v -0.0179820004850626 -0.004435999784618616 -0.03010600060224533
v -0.018933000043034554 -0.003647000063210726 -0.0248819999396801
v -0.018672000616788864 -0.0027719999197870493 -0.024687999859452248
v -0.019153999164700508 -0.002343999920412898 -0.024080000817775726
v -0.017559999600052834 0.003926999866962433 -0.033225998282432556
v -0.016196999698877335 0.002449000021442771 -0.03337400034070015
v -0.01753699965775013 -0.0037320000119507313 -0.03144599869847298
v -0.012136000208556652 -0.0026110000908374786 -0.03300999850034714
v -0.0018840000266209245 -0.003860000055283308 -0.0365619994699955
v -0.01674799993634224 0.000012000000424450263 -0.03284600004553795
v -0.021712999790906906 0.003848999971523881 -0.03478199988603592
v -0.02011599950492382 0.0020200000144541264 -0.03392399847507477
v -0.023065000772476196 -0.0016250000335276127 -0.03366699814796448
v -0.019460000097751617 -0.0028689999599009752 -0.02442999929189682
v -0.021795999258756638 -0.004145999904721975 -0.02546600066125393
v -0.022950999438762665 -0.0034799999557435513 -0.025814000517129898
v -0.01209499966353178 -0.002776999957859516 -0.0316229984164238
v -0.0009389999904669821 -0.0013760000001639128 -0.031683001667261124
v 0.003082999959588051 -0.001883000019006431 -0.038809001445770264
v 0.00008299999899463728 -0.0012039999710395932 -0.03820300102233887
v 0.00164899998344481 0.000058000001445179805 -0.031870998442173004
v 0.006155999843031168 0.0004459999909158796 -0.03263000026345253
v 0.005805999971926212 0.00010900000052060932 -0.03529899939894676
v -0.02198999933898449 -0.0054709999822080135 -0.029908999800682068
v -0.01947999931871891 -0.0041669998317956924 -0.031112000346183777
v -0.020215999335050583 -0.0036849998869001865 -0.031943000853061676
v -0.02096099965274334 -0.004794000182300806 -0.03060699999332428
v 0.003625999903306365 -0.005568999797105789 -0.035078998655080795
v 0.00043799998820759356 -0.005253000184893608 -0.036100998520851135
v -0.0004990000161342323 -0.004794999957084656 -0.03689900040626526
v 0.002177000045776367 -0.004114000126719475 -0.03409099951386452
v -0.021425999701023102 -0.0023980000987648964 -0.03349899873137474
v -0.02233099937438965 0.0021440000273287296 -0.03486299887299538
v -0.021831000223755836 0.0015529999509453773 -0.03478600084781647
v -0.023972000926733017 -0.004602999892085791 -0.03137600049376488
v -0.02298000082373619 -0.004191000014543533 -0.03248099982738495
v -0.02382900007069111 -0.0050860000774264336 -0.0305550005286932
v 0.002094999887049198 -0.0024399999529123306 -0.03179199993610382
v 0.0016090000281110406 -0.0012069999938830733 -0.03182400017976761
v 0.007457000203430653 -0.000986000057309866 -0.03538300096988678
v 0.0064849997870624065 -0.0032629999332129955 -0.03911599889397621
v 0.0027779999654740095 -0.0031709999311715364 -0.03879600018262863
v 0.00216599996201694 -0.0009889999637380242 -0.03152500092983246
v 0.006744000129401684 -0.0038999998942017555 -0.031605999916791916
v 0.007544999942183495 -0.0006419999990612268 -0.032924000173807144
v 0.003470000112429261 -0.005284999962896109 -0.030928000807762146
v -0.021734999492764473 -0.004867999814450741 -0.03087100014090538
v -0.023313000798225403 -0.004989000037312508 -0.03151499852538109
v -0.02112000063061714 -0.0039900001138448715 -0.03248700127005577
v 0.005036999937146902 -0.0053369998931884766 -0.03556099906563759
v 0.0015770000172778964 -0.0072200000286102295 -0.03578300029039383
v 0.005359000060707331 -0.005979000125080347 -0.03229999914765358
v -0.00013699999544769526 -0.006053000222891569 -0.0365619994699955
v 0.0008370000286959112 -0.007319000083953142 -0.03640099987387657
v 0.006812999956309795 -0.004863000009208918 -0.038458000868558884
v 0.007395000196993351 -0.0030580000020563602 -0.0363209992647171
v 0.008042999543249607 -0.002520000096410513 -0.03367700055241585
v 0.0029700000304728746 -0.007879000157117844 -0.03670499846339226
v 0.0063299997709691525 -0.005919999908655882 -0.03800100088119507
v 0.00433199992403388 -0.0074720000848174095 -0.03713500127196312
v 0.006357999984174967 -0.005255000200122595 -0.031991999596357346
v 0.005437000188976526 -0.0056039998307824135 -0.03149000182747841
v 0.007660999894142151 -0.003868000116199255 -0.03338199853897095
v 0.006215000059455633 -0.004470000043511391 -0.036139000207185745
v 0.003541999962180853 -0.007569999899715185 -0.035937998443841934
v 0.00747800013050437 -0.003938000183552504 -0.03432599827647209
v 0.0068350001238286495 -0.0051460000686347485 -0.03339599817991257
v 0.005799999926239252 -0.006448000203818083 -0.03673499822616577
f 3 2 1
f 5 1 4
f 5 6 1
f 1 7 3
f 2 4 1
f 1 6 8
f 7 1 8
f 10 2 9
f 2 10 4
f 12 11 2
f 3 12 2
f 9 2 11
f 7 13 3
f 12 3 13
f 4 15 14
f 10 15 4
f 14 5 4
f 16 5 14
f 17 5 16
f 5 17 6
f 18 8 6
f 6 17 19
f 6 19 18
f 7 21 20
f 7 20 13
f 21 7 8
f 18 21 8
f 10 9 22
f 11 22 9
f 10 23 15
f 25 10 24
f 23 10 25
f 22 24 10
f 26 22 11
f 11 12 26
f 28 12 27
f 28 26 12
f 27 12 29
f 29 12 30
f 30 12 13
f 30 13 31
f 13 20 31
f 32 16 14
f 33 14 15
f 33 32 14
f 15 35 34
f 36 35 15
f 15 23 36
f 33 15 37
f 34 37 15
f 16 39 38
f 16 32 39
f 16 19 17
f 19 16 38
f 21 18 19
f 19 40 21
f 40 19 38
f 31 20 41
f 20 27 29
f 20 42 27
f 42 20 43
f 41 20 29
f 40 20 21
f 40 43 20
f 26 44 22
f 36 45 22
f 44 36 22
f 24 22 45
f 25 46 23
f 23 46 47
f 23 47 36
f 25 24 48
f 48 24 45
f 49 25 48
f 49 50 25
f 46 25 50
f 28 44 26
f 27 51 28
f 42 51 27
f 53 28 52
f 44 28 34
f 52 28 54
f 28 53 34
f 51 54 28
f 41 29 30
f 41 30 31
f 32 37 39
f 37 32 33
f 37 34 53
f 44 34 35
f 36 44 35
f 56 55 36
f 56 36 57
f 47 57 36
f 36 58 45
f 36 55 58
f 59 39 37
f 53 59 37
f 38 61 60
f 61 38 39
f 40 38 60
f 59 61 39
f 62 43 40
f 59 40 60
f 59 63 40
f 40 63 62
f 42 64 51
f 64 42 43
f 64 43 62
f 45 58 65
f 66 45 65
f 66 48 45
f 46 50 67
f 46 67 68
f 46 68 69
f 46 69 47
f 57 47 69
f 48 66 70
f 49 48 70
f 72 49 71
f 71 49 73
f 49 70 73
f 49 72 67
f 49 67 50
f 51 75 74
f 64 75 51
f 54 51 74
f 52 54 74
f 53 52 74
f 59 53 76
f 53 74 76
f 55 78 77
f 55 73 58
f 55 56 78
f 79 55 77
f 79 73 55
f 57 78 56
f 78 57 80
f 57 69 81
f 81 80 57
f 58 73 65
f 63 59 76
f 59 60 61
f 64 62 75
f 62 63 75
f 76 74 63
f 74 75 63
f 70 66 65
f 70 65 73
f 67 82 68
f 67 83 82
f 67 72 84
f 84 83 67
f 68 82 69
f 81 69 85
f 69 82 86
f 69 86 87
f 69 87 85
f 89 88 71
f 72 71 84
f 73 89 71
f 90 84 71
f 90 71 88
f 89 73 79
f 92 91 77
f 78 92 77
f 93 77 91
f 94 77 93
f 94 79 77
f 81 78 80
f 78 81 85
f 92 78 85
f 88 79 94
f 79 88 89
f 83 91 82
f 91 86 82
f 91 83 93
f 83 84 93
f 93 84 90
f 85 87 92
f 86 95 87
f 95 86 91
f 92 87 95
f 94 90 88
f 94 93 90
f 91 92 95
