# Generated by Visualization Toolkit
v 0.04069700092077255 -0.00023099999816622585 0.028596999123692513
v 0.04512700065970421 -0.0012199999764561653 0.026917999610304832
v 0.04300399869680405 0.0006290000164881349 0.026990000158548355
v 0.03861900046467781 0.0014140000566840172 0.02646300010383129
v 0.043570999056100845 -0.0061889998614788055 0.029231999069452286
v 0.039868999272584915 -0.0065009999088943005 0.0307180006057024
v 0.03856100142002106 -0.0048940000124275684 0.030386999249458313
v 0.03830999881029129 -0.0011060000397264957 0.028425000607967377
v 0.038957998156547546 0.0005239999736659229 0.02751999907195568
v 0.04196900129318237 0.0014639999717473984 0.024542000144720078
v 0.04560299962759018 -0.00506999995559454 0.026796000078320503
v 0.0455159991979599 -0.004230000078678131 0.02113799937069416
v 0.045295000076293945 -0.0037640000227838755 0.0165570005774498
v 0.0368489995598793 0.0006569999968633056 0.02909800037741661
v 0.02390200085937977 0.004468999803066254 0.01807600073516369
v 0.04305899888277054 -0.00808900035917759 0.02833300083875656
v 0.0401340015232563 -0.00841199979186058 0.029577000066637993
v 0.03884600102901459 -0.00801400002092123 0.029868999496102333
v 0.03717400133609772 -0.003493000054731965 0.028099000453948975
v 0.04417499899864197 -0.007782999891787767 0.02610200084745884
v 0.04246100038290024 -0.007414000108838081 0.02185799926519394
v 0.0438230000436306 -0.009096000343561172 0.01947000063955784
v 0.044109001755714417 -0.00853899959474802 0.01625099964439869
v 0.04147300124168396 -0.004788000136613846 0.014623000286519527
v 0.025537999346852303 0.0029670000076293945 0.028450999408960342
v 0.025678999722003937 -0.00003600000127335079 0.0291920006275177
v 0.023653000593185425 0.00013800000306218863 0.0171549990773201
v 0.02112399972975254 0.005229000002145767 0.01779099926352501
v 0.035950999706983566 -0.0037040000315755606 0.015085999853909016
v 0.02141599915921688 0.0063299997709691525 0.024431999772787094
v 0.021247999742627144 0.00596500001847744 0.01925699971616268
v 0.04171999916434288 -0.00902399979531765 0.027406999841332436
v 0.039174001663923264 -0.008554000407457352 0.0281360000371933
v 0.03767399862408638 -0.005628000013530254 0.023586999624967575
v 0.02583800069987774 -0.001879999996162951 0.02829200029373169
v 0.04029599949717522 -0.007747999858111143 0.02201800048351288
v 0.04084999859333038 -0.010731999762356281 0.019651999697089195
v 0.04357000067830086 -0.009720000438392162 0.016889000311493874
v 0.04175800085067749 -0.010120999999344349 0.015745999291539192
v 0.039000000804662704 -0.0102530000731349 0.015472999773919582
v 0.03724600002169609 -0.008948000147938728 0.015207000076770782
v 0.01826299913227558 0.004468000028282404 0.030534999445080757
v 0.017746999859809875 -0.0008919999818317592 0.03267800062894821
v 0.015969999134540558 0.00026199998683296144 0.015154999680817127
v 0.0310210008174181 -0.004273000173270702 0.016860000789165497
v 0.019953999668359756 -0.004449999891221523 0.017508000135421753
v 0.01856599934399128 0.005311000160872936 0.017998000606894493
v 0.035346999764442444 -0.006115000229328871 0.016245000064373016
v 0.016790999099612236 0.007187999784946442 0.027217000722885132
v 0.017083000391721725 0.006858999840915203 0.019353000447154045
v 0.038575999438762665 -0.006670000031590462 0.021877000108361244
v 0.016927000135183334 -0.004654000047594309 0.01860399916768074
v 0.01561999972909689 -0.0034280000254511833 0.03370999917387962
v 0.011137999594211578 -0.007091000210493803 0.03170499950647354
v 0.038116998970508575 -0.01013800036162138 0.019202999770641327
v 0.04040300101041794 -0.01118099968880415 0.016811000183224678
v 0.038759998977184296 -0.010905999690294266 0.016635000705718994
v 0.03644999861717224 -0.009464000351727009 0.016440000385046005
v 0.014615999534726143 -0.0015829999465495348 0.03654399886727333
v 0.01504599954932928 0.0038769999518990517 0.03547799959778786
v 0.012618999928236008 0.008441999554634094 0.033914998173713684
v 0.014189999550580978 0.006519000045955181 0.014719000086188316
v 0.015092999674379826 -0.005049999803304672 0.015809999778866768
v 0.007259000092744827 0.005361999850720167 0.013356000185012817
v 0.015699999406933784 0.009189999662339687 0.02515999972820282
v 0.013274000026285648 0.011013000272214413 0.02964399941265583
v 0.014891999773681164 0.00864300038665533 0.01875299960374832
v 0.01082600001245737 -0.0074970000423491 0.028663000091910362
v 0.009115999564528465 -0.008508999831974506 0.018042000010609627
v 0.010525000281631947 -0.0075599998235702515 0.024630999192595482
v 0.010834000073373318 -0.00519500020891428 0.03668700158596039
v 0.008882000111043453 -0.0067889997735619545 0.03414800018072128
v 0.01003399956971407 -0.006444999948143959 0.031321000307798386
v 0.012191000394523144 0.004170999862253666 0.036316998302936554
v 0.01053600013256073 0.009507999755442142 0.03168699890375137
v 0.010087000206112862 0.008995999582111835 0.015941999852657318
v 0.006295999977737665 0.0010420000180602074 0.013350999914109707
v 0.008709000423550606 -0.007565999869257212 0.01657699979841709
v 0.007751999888569117 0.007871000096201897 0.016279999166727066
v 0.004381999839097261 -0.002263000002130866 0.016311999410390854
v 0.01018499955534935 0.010745000094175339 0.02665100060403347
v 0.008694999851286411 -0.007155000232160091 0.02891699969768524
v 0.007184999994933605 -0.00749799981713295 0.01646599918603897
v 0.008836999535560608 -0.007145999930799007 0.026688000187277794
v 0.007958999834954739 -0.00798999983817339 0.01912900060415268
v 0.005373000167310238 -0.0052709998562932014 0.03443700075149536
v 0.006823999807238579 -0.007261999882757664 0.03205600008368492
v 0.004567999858409166 -0.004497999791055918 0.01941699907183647
v 0.005900000222027302 -0.006876999977976084 0.015607000328600407
v 0.0037769998889416456 -0.006010999903082848 0.01735600084066391
v 0.0036830001045018435 -0.005322999786585569 0.019507000222802162
v 0.004182000178843737 -0.009190999902784824 0.022192999720573425
v 0.007313000038266182 -0.009294000454246998 0.02324499934911728
v 0.001588999992236495 -0.0066559999249875546 0.028596999123692513
v 0.004844000097364187 -0.00860700011253357 0.018012000247836113
v 0.006459000054746866 -0.009544000029563904 0.02015499956905842
v 0.0030930000357329845 -0.006868000142276287 0.020519999787211418
v 0.0018129999516531825 -0.007025000173598528 0.024267999455332756
v 0.004213999956846237 -0.008243000134825706 0.018476000055670738
v 0.0035620001144707203 -0.00684700021520257 0.01981000043451786
v 0.005491999909281731 -0.008980999700725079 0.020687999203801155
v 0.0035470000002533197 -0.008677000179886818 0.0206300001591444
f 1 2 3
f 1 3 4
f 2 1 5
f 1 6 5
f 1 7 6
f 7 1 8
f 4 9 1
f 8 1 9
f 10 3 2
f 11 12 2
f 10 2 13
f 13 2 12
f 11 2 5
f 4 3 10
f 14 4 15
f 9 4 8
f 4 10 15
f 14 8 4
f 11 5 16
f 17 16 5
f 5 6 17
f 18 6 7
f 18 17 6
f 18 7 19
f 14 19 7
f 8 14 7
f 15 10 13
f 20 12 11
f 20 11 16
f 21 12 20
f 12 21 22
f 23 12 22
f 23 13 12
f 24 13 23
f 13 24 15
f 14 15 25
f 26 14 25
f 14 26 19
f 15 27 28
f 15 24 29
f 25 15 30
f 30 15 31
f 28 31 15
f 15 29 27
f 32 20 16
f 32 16 17
f 17 33 32
f 33 17 18
f 33 18 34
f 34 18 19
f 34 19 35
f 19 26 35
f 21 20 32
f 36 37 21
f 21 37 22
f 32 36 21
f 37 38 22
f 23 22 38
f 24 23 39
f 23 38 39
f 40 41 24
f 24 39 40
f 41 29 24
f 42 43 25
f 30 42 25
f 25 43 26
f 35 26 43
f 28 27 44
f 29 45 27
f 27 45 46
f 27 46 44
f 28 47 31
f 44 47 28
f 29 48 45
f 29 41 48
f 42 30 49
f 49 30 50
f 30 31 50
f 47 50 31
f 32 33 36
f 36 33 34
f 51 36 34
f 51 34 45
f 34 35 45
f 52 45 35
f 43 53 35
f 52 35 54
f 35 53 54
f 37 36 55
f 51 55 36
f 56 38 37
f 37 57 56
f 37 55 57
f 56 39 38
f 39 56 40
f 57 41 40
f 56 57 40
f 41 57 58
f 41 58 48
f 59 43 42
f 60 42 61
f 61 42 49
f 42 60 59
f 53 43 59
f 44 62 47
f 46 63 44
f 64 62 44
f 64 44 63
f 46 45 52
f 51 45 48
f 52 63 46
f 50 47 62
f 51 48 58
f 49 50 65
f 49 65 66
f 66 61 49
f 50 62 67
f 67 65 50
f 55 51 58
f 52 54 68
f 63 52 69
f 70 69 52
f 68 70 52
f 54 53 71
f 71 53 59
f 72 54 71
f 54 72 73
f 68 54 73
f 55 58 57
f 74 59 60
f 74 71 59
f 74 60 61
f 75 61 66
f 75 74 61
f 76 62 64
f 76 67 62
f 63 77 64
f 69 78 63
f 78 77 63
f 79 64 80
f 79 76 64
f 80 64 77
f 81 65 67
f 65 81 66
f 66 81 75
f 67 76 81
f 82 70 68
f 68 73 82
f 83 78 69
f 84 69 70
f 69 85 83
f 69 84 85
f 70 82 84
f 86 71 74
f 72 71 86
f 73 72 87
f 86 87 72
f 87 82 73
f 75 86 74
f 75 88 86
f 81 88 75
f 79 81 76
f 89 77 78
f 77 90 80
f 77 89 90
f 78 83 89
f 88 79 80
f 79 88 81
f 80 90 91
f 91 88 80
f 82 92 93
f 92 82 94
f 84 82 93
f 94 82 87
f 95 89 83
f 85 95 83
f 84 93 85
f 96 85 93
f 85 96 95
f 87 86 94
f 88 94 86
f 91 97 88
f 97 98 88
f 88 98 94
f 90 89 95
f 99 90 95
f 91 90 100
f 100 90 99
f 100 97 91
f 101 93 92
f 92 102 101
f 92 98 102
f 98 92 94
f 101 96 93
f 95 96 101
f 101 99 95
f 97 100 102
f 97 102 98
f 102 100 99
f 101 102 99
