# Generated by Visualization Toolkit
v -0.009329999797046185 0.011687000282108784 0.11383700370788574
v -0.00923100020736456 0.014484000392258167 0.12116900086402893
v -0.010501000098884106 0.015636000782251358 0.11393100023269653
v -0.0132039999589324 0.01839200034737587 0.11549700051546097
v -0.014840999618172646 0.015572999604046345 0.12330999970436096
v -0.018657000735402107 0.019548999145627022 0.12201400101184845
v -0.019524000585079193 0.016617000102996826 0.12457799911499023
v -0.01760599948465824 0.012152999639511108 0.12158100306987762
v -0.013232000172138214 0.011051000095903873 0.11771800369024277
v -0.017687000334262848 0.010323000140488148 0.10900799930095673
v -0.013376999646425247 0.011370999738574028 0.10793299973011017
v -0.01307000033557415 0.013632000423967838 0.10896400362253189
v -0.021040000021457672 0.01092199981212616 0.119718998670578
v -0.02452700026333332 0.01128000020980835 0.11022800207138062
v -0.019801000133156776 0.010453999973833561 0.10408099740743637
v -0.025791000574827194 0.01142400037497282 0.10491500049829483
v -0.02102999947965145 0.010102000087499619 0.09755700081586838
v -0.02757599949836731 0.010507999919354916 0.09813299775123596
v -0.021098000928759575 0.00923100020736456 0.09305399656295776
v -0.02930399961769581 0.00894199963659048 0.09066800028085709
v -0.025584999471902847 0.007511999923735857 0.08651299774646759
v -0.02110699936747551 0.008293000049889088 0.08805499970912933
v -0.020004000514745712 0.007275000214576721 0.08014799654483795
v -0.023430999368429184 0.006175000220537186 0.07751400023698807
v -0.01752999983727932 0.0069670001976192 0.08181100338697433
v -0.01486000046133995 0.0061900001019239426 0.08356399834156036
v -0.016397999599575996 0.00962700042873621 0.09058500081300735
v -0.016517000272870064 0.010506999678909779 0.09404300153255463
v -0.017000000923871994 0.01095299981534481 0.09750500321388245
v -0.015274999663233757 0.011009999550879002 0.10285700112581253
v -0.029767999425530434 0.010501000098884106 0.11779099702835083
v -0.03418299928307533 0.013004999607801437 0.11148200184106827
v -0.034644000232219696 0.0167239997535944 0.10427799820899963
v -0.02336999960243702 0.013683999888598919 0.1233920007944107
v -0.031137000769376755 0.012264000251889229 0.11840000003576279
v -0.0319879986345768 0.016040999442338943 0.09910299628973007
v -0.031115999445319176 0.011226999573409557 0.09063400328159332
v -0.030750999227166176 0.007019000127911568 0.08508100360631943
v -0.017636999487876892 0.005644000135362148 0.07352299988269806
v -0.01974800042808056 0.005797000136226416 0.07167699933052063
v -0.01305800024420023 0.0037620000075548887 0.06800399720668793
v -0.015297000296413898 0.004761999938637018 0.0665460005402565
v -0.007546999957412481 0.0009340000106021762 0.06273899972438812
v -0.010967999696731567 0.0035329998936504126 0.06064699962735176
v -0.004474999848753214 -0.001740999985486269 0.056345999240875244
v -0.007577000185847282 0.0007300000288523734 0.054315999150276184
v -0.0026740001048892736 -0.00419999985024333 0.03771800175309181
v 0.00005500000042957254 -0.007706999778747559 0.036504000425338745
v -0.00020300000323913991 -0.009487000294029713 0.029019000008702278
v -0.0024270000867545605 -0.005807000212371349 0.030029000714421272
v -0.0007280000136233866 -0.01104000024497509 0.02043900080025196
v -0.0032569998875260353 -0.006219999864697456 0.022288000211119652
v -0.005204999819397926 -0.005206999834626913 0.017271000891923904
v -0.002689999993890524 -0.007984999567270279 0.011580999940633774
v -0.007002000231295824 -0.007885999977588654 0.009948999620974064
v -0.004395999945700169 -0.010997000150382519 0.00815299991518259
v -0.0010849999962374568 -0.012027000077068806 0.01002699974924326
v -0.01448999997228384 0.004902999848127365 0.07585100084543228
v -0.01066100038588047 0.0023360000923275948 0.06980200111865997
v -0.012529999949038029 0.003114999970421195 0.07814700156450272
v -0.009068000130355358 -0.0009309999877586961 0.07095800340175629
v -0.004647000227123499 -0.002383999992161989 0.06511099636554718
v -0.0014029999729245901 -0.004631000105291605 0.057659998536109924
v 0.0013379999436438084 -0.006752000190317631 0.0490959994494915
v -0.0012610000558197498 -0.004995000082999468 0.048002999275922775
v 0.0036329999566078186 -0.008775000460445881 0.04199700057506561
v -0.0005310000269673765 -0.007164999842643738 0.040706001222133636
v 0.0048779998905956745 -0.010487000457942486 0.035992998629808426
v 0.004978000186383724 -0.011970999650657177 0.029294999316334724
v 0.005001999903470278 -0.013097000308334827 0.021764999255537987
v 0.005545999854803085 -0.014081999659538269 0.013775000348687172
v -0.012900000438094139 0.0071840002201497555 0.08448400348424911
v -0.009965999983251095 0.0046339998953044415 0.07907599955797195
v -0.005499999970197678 0.0038660001009702682 0.0723709985613823
v -0.001411000033840537 0.0007779999868944287 0.06592100113630295
v 0.0026140001136809587 -0.0019829999655485153 0.05839399993419647
v 0.00597199983894825 -0.0041959998197853565 0.04941299930214882
v 0.00804699957370758 -0.005597999785095453 0.04170000180602074
v 0.008280999958515167 -0.007938000373542309 0.03460799902677536
v 0.009108999744057655 -0.008701999671757221 0.028674999251961708
v -0.02470799908041954 0.011831000447273254 0.07660699635744095
v -0.015937000513076782 0.009436000138521194 0.06635899841785431
v -0.01116899959743023 0.006643000058829784 0.05996700003743172
v -0.007426000200212002 0.005018999800086021 0.05327099934220314
v -0.004743000026792288 -0.001614999957382679 0.045802999287843704
v -0.0043750000186264515 0.002643000101670623 0.04555800184607506
v -0.0018840000266209245 0.000514000013936311 0.030056999996304512
v -0.002887000096961856 -0.00045399999362416565 0.024157000705599785
v -0.004484999924898148 -0.0003279999946244061 0.019564999267458916
v -0.008515999652445316 -0.004523999989032745 0.010584999807178974
v -0.00710699986666441 0.0006539999740198255 0.01292600017040968
v 0.004145000129938126 0.00227600010111928 0.02452399954199791
v -0.0025239998940378428 0.0011419999646022916 0.03781700134277344
v 0.009522000327706337 -0.00955399964004755 0.021678000688552856
v 0.009566999971866608 -0.010266000404953957 0.014863000251352787
v 0.00850600004196167 -0.002882000058889389 0.04191900044679642
v -0.020390000194311142 0.010472999885678291 0.07150000333786011
v -0.03541500121355057 0.015545000322163105 0.11302799731492996
v -0.034595001488924026 0.020086999982595444 0.10589800029993057
v -0.032882001250982285 0.018713999539613724 0.09914900362491608
v -0.0313900001347065 0.016327999532222748 0.09045399725437164
v -0.030974000692367554 0.013989999890327454 0.08441399782896042
v -0.023706000298261642 0.018986999988555908 0.12291499972343445
v -0.02964800037443638 0.020287999883294106 0.11807899922132492
v -0.0336339995265007 0.022089000791311264 0.10705400258302689
v -0.032207999378442764 0.021399000659585 0.10017599910497665
v -0.029333999380469322 0.02033899910748005 0.09098999947309494
v -0.022112999111413956 0.016573000699281693 0.07687299698591232
v -0.017666999250650406 0.01539899967610836 0.07252500206232071
v -0.005237999837845564 0.008639000356197357 0.05439100041985512
v -0.0007259999983943999 0.00647599995136261 0.04454600065946579
v 0.004722000099718571 0.004718000069260597 0.00816699955612421
v 0.00431300001218915 0.005119999870657921 0.01420500036329031
v 0.0008520000264979899 0.005332000087946653 0.021625999361276627
v 0.00508299982175231 0.004468999803066254 0.02821199968457222
v 0.0016339999856427312 0.005162000190466642 0.026362000033259392
v 0.0049299998208880424 0.004327999893575907 0.030767999589443207
v 0.00229199999012053 0.0053889998234808445 0.030525999143719673
v 0.0041970000602304935 0.004749000072479248 0.04059800133109093
v 0.0013389999512583017 0.005849000066518784 0.03954299911856651
v 0.0022009999956935644 0.005311999935656786 0.045104000717401505
v -0.0025530001148581505 0.007697999943047762 0.05668000131845474
v -0.00989800039678812 0.0023759999312460423 0.007710000034421682
v -0.0035000001080334187 0.008772999979555607 0.00982499960809946
v -0.00022200000239536166 0.007216999772936106 0.014835000038146973
v -0.0087890001013875 0.010393000207841396 0.061347998678684235
v -0.024778999388217926 0.02201000042259693 0.11341699957847595
v -0.0328419990837574 0.021491000428795815 0.1139020025730133
v -0.021236000582575798 0.02097499929368496 0.11916399747133255
v -0.01715799979865551 0.018905000761151314 0.11078900098800659
v -0.02688799984753132 0.022407999262213707 0.10693500190973282
v -0.01957700029015541 0.01853499934077263 0.10537999868392944
v -0.025888999924063683 0.02148599922657013 0.09976699948310852
v -0.021623000502586365 0.01860399916768074 0.09996700286865234
v -0.0250450000166893 0.021446000784635544 0.09323900192975998
v -0.02219099923968315 0.01939000003039837 0.08622399717569351
v -0.027566999197006226 0.018633000552654266 0.0853089988231659
v -0.017153000459074974 0.016791999340057373 0.07881700247526169
v -0.014375999569892883 0.015131999738514423 0.07403600215911865
v -0.013558000326156616 0.013186999596655369 0.0677499994635582
v -0.010917999781668186 0.013170000165700912 0.06913799792528152
v -0.007063999772071838 0.009979000315070152 0.06266900151968002
v -0.021330999210476875 0.017250999808311462 0.09353099763393402
v -0.018959999084472656 0.01666099950671196 0.08804299682378769
v -0.014639999717473984 0.01425000000745058 0.0817909985780716
v -0.0112119996920228 0.01245999988168478 0.07636299729347229
v -0.008042000234127045 0.010600999929010868 0.07114899903535843
v -0.013962999917566776 0.01176500041037798 0.08323299884796143
v -0.01286299992352724 0.008785000070929527 0.08556400239467621
v -0.014727000147104263 0.010134000331163406 0.09101500362157822
v -0.01559900026768446 0.01182200014591217 0.09604699909687042
v -0.015305000357329845 0.012202000245451927 0.10039199888706207
v -0.014887000434100628 0.012776000425219536 0.10549499839544296
v -0.01165900006890297 0.009658999741077423 0.08305999636650085
v -0.01004599966108799 0.009424000047147274 0.07819599658250809
v -0.009696000255644321 0.008538000285625458 0.07861100137233734
v -0.009418999776244164 0.007135000079870224 0.0793439969420433
v -0.005654999986290932 0.005338000133633614 0.07318700104951859
v -0.0013650000328198075 0.003097000066190958 0.06639499962329865
v -0.0036720000207424164 0.007404000032693148 0.06500600278377533
v 0.0005200000014156103 0.0053969998843967915 0.05816999822854996
v 0.0025400000158697367 0.001184999942779541 0.05925599858164787
v 0.0029009999707341194 0.003916999790817499 0.053835999220609665
v 0.003965000156313181 0.0022319999989122152 0.04984699934720993
v 0.0054270001128315926 -0.0019470000406727195 0.05084099993109703
v 0.006936999969184399 0.0014009999576956034 0.041662998497486115
v 0.008950999937951565 0.0007520000217482448 0.030771000310778618
v 0.008150000125169754 0.0007489999989047647 0.020674999803304672
v 0.009902000427246094 -0.0038640000857412815 0.03354300186038017
v 0.010092999786138535 -0.0025949999690055847 0.028025999665260315
v 0.010343999601900578 -0.002443999983370304 0.02087699994444847
v 0.007879000157117844 0.0007670000195503235 0.013983000069856644
v 0.010517000220716 -0.004126999992877245 0.014467000029981136
v 0.0083600003272295 0.000881000014487654 0.007637000177055597
v 0.010297000408172607 -0.004896000027656555 0.00787500012665987
v -0.001905999961309135 0.004774999804794788 0.0009590000263415277
v -0.003338000038638711 0.01056199986487627 0.005266000051051378
v -0.010138999670743942 0.004852000158280134 0.0034749999176710844
v -0.014201999641954899 -0.002001000102609396 0.00025099999038502574
v -0.007366999983787537 0.00041599999531172216 -0.0008500000112690032
v -0.000018000000636675395 -0.00001700000029813964 -9.999999974752427e-7
v -0.006504000164568424 -0.006862999871373177 -0.0007919999770820141
v 0.0008149999775923789 -0.0047690002247691154 0.00017699999443721026
v -0.013663000427186489 -0.008960000239312649 -0.00023200000578071922
v -0.005892000161111355 -0.011568999849259853 0.0014149999478831887
v 0.0018749999580904841 -0.01220299955457449 0.0025969999842345715
v 0.006519000045955181 -0.01056199986487627 0.00002099999983329326
v 0.007534000091254711 -0.007460999768227339 -0.0015569999814033508
v 0.0064409999176859856 -0.002113000024110079 -0.0012209999840706587
v 0.006457999814301729 0.00266400002874434 -0.0005050000036135316
v 0.0027149999514222145 0.006525999866425991 0.0008079999824985862
v -0.0010920000495389104 -0.0132039999589324 0.006382999941706657
v 0.0055680000223219395 -0.012879000045359135 0.008581000380218029
v 0.008156999945640564 -0.009092999622225761 0.0076049999333918095
v 0.008589000441133976 -0.0012860000133514404 0.005900000222027302
v 0.0063749998807907104 0.004255999810993671 0.004461999982595444
v 0.003060000017285347 0.007969999685883522 0.00495699979364872
v -0.006473999936133623 -0.01208100002259016 0.004511000122874975
v -0.012147000059485435 -0.009190999902784824 0.003145999973639846
v -0.012575999833643436 -0.002887000096961856 0.004809000063687563
v -0.0049430001527071 -0.0017500000540167093 0.045531000941991806
v -0.004908999893814325 -0.0013180000241845846 0.0462459996342659
v -0.002742999931797385 -0.004135999828577042 0.038214001804590225
f 3 2 1
f 6 5 2
f 8 5 7
f 9 2 5
f 1 2 9
f 11 1 9
f 12 3 1
f 9 8 13
f 13 14 10
f 16 15 10
f 18 17 15
f 20 19 17
f 24 23 22
f 25 22 23
f 27 22 25
f 28 19 22
f 29 17 19
f 30 15 17
f 11 10 15
f 32 14 31
f 33 16 14
f 13 31 14
f 34 13 8
f 35 31 13
f 36 18 16
f 37 20 18
f 37 38 20
f 21 20 38
f 22 19 20
f 21 38 24
f 40 39 23
f 42 41 39
f 44 43 41
f 46 45 43
f 50 49 48
f 52 51 49
f 53 51 52
f 54 51 53
f 55 54 53
f 56 54 55
f 57 54 56
f 39 58 25
f 41 59 58
f 43 59 41
f 58 60 26
f 59 61 60
f 43 62 61
f 45 63 62
f 65 64 63
f 67 66 64
f 49 69 68
f 51 70 69
f 26 72 27
f 60 73 72
f 61 74 73
f 62 75 74
f 63 76 75
f 64 77 76
f 66 78 77
f 68 79 78
f 69 80 79
f 81 24 38
f 83 44 42
f 84 46 44
f 86 85 46
f 88 52 50
f 89 53 52
f 91 90 53
f 55 53 90
f 48 67 47
f 68 66 67
f 48 68 67
f 87 50 47
f 93 87 47
f 93 47 85
f 86 93 85
f 65 85 47
f 45 46 85
f 57 51 54
f 71 70 51
f 70 94 80
f 71 95 94
f 82 42 40
f 24 81 97
f 98 32 31
f 99 33 32
f 100 36 33
f 101 37 36
f 102 38 37
f 81 38 102
f 104 35 34
f 106 100 99
f 107 101 100
f 109 97 81
f 111 86 84
f 114 92 113
f 116 115 92
f 118 117 115
f 120 119 117
f 111 121 119
f 110 122 121
f 91 125 124
f 89 114 125
f 88 116 114
f 87 118 116
f 93 120 118
f 86 111 120
f 126 110 84
f 128 104 127
f 128 98 35
f 105 99 98
f 103 129 127
f 7 6 129
f 132 131 127
f 134 133 131
f 131 105 128
f 133 106 105
f 135 107 106
f 138 108 137
f 139 109 108
f 141 140 109
f 142 126 140
f 136 137 107
f 137 102 101
f 108 81 102
f 140 82 97
f 129 130 127
f 143 135 133
f 144 136 135
f 145 138 136
f 146 139 138
f 147 141 139
f 4 130 129
f 12 130 4
f 3 4 2
f 148 145 144
f 144 150 149
f 143 151 150
f 134 152 151
f 132 153 152
f 130 12 153
f 154 148 149
f 156 155 148
f 154 149 157
f 156 158 155
f 30 153 12
f 29 152 153
f 72 149 150
f 155 146 145
f 158 147 146
f 73 157 149
f 156 157 158
f 162 161 160
f 161 122 142
f 122 110 126
f 160 142 141
f 147 158 159
f 163 161 162
f 121 122 161
f 163 164 121
f 162 164 163
f 165 164 162
f 96 166 164
f 119 121 164
f 167 117 119
f 115 117 167
f 168 92 167
f 169 167 166
f 74 158 157
f 159 158 74
f 159 75 76
f 162 76 77
f 165 77 78
f 96 78 79
f 170 167 169
f 171 168 167
f 173 172 168
f 175 174 172
f 113 172 174
f 92 168 172
f 171 94 95
f 170 80 94
f 169 79 80
f 3 1 2
f 6 7 5
f 103 34 7
f 152 29 28
f 83 82 140
f 49 50 52
f 92 115 167
f 114 113 125
f 125 113 112
f 178 177 176
f 180 179 178
f 176 181 180
f 183 182 180
f 184 179 180
f 182 185 184
f 183 186 185
f 189 188 187
f 181 190 189
f 176 191 190
f 177 191 176
f 193 192 186
f 187 188 194
f 189 195 194
f 190 196 195
f 191 197 196
f 198 185 186
f 199 184 185
f 199 200 179
f 178 123 124
f 179 200 123
f 123 200 90
f 90 200 199
f 55 199 198
f 56 198 192
f 193 194 95
f 194 175 173
f 194 195 175
f 174 195 196
f 112 196 197
f 197 191 177
f 112 197 177
f 193 71 57
f 27 150 151
f 69 49 51
f 195 174 175
f 6 2 4
f 9 5 8
f 11 9 10
f 12 1 11
f 9 13 10
f 16 10 14
f 18 15 16
f 20 17 18
f 24 22 21
f 27 25 26
f 28 22 27
f 29 19 28
f 30 17 29
f 11 15 30
f 33 14 32
f 34 8 7
f 35 13 34
f 36 16 33
f 37 18 36
f 22 20 21
f 40 23 24
f 42 39 40
f 44 41 42
f 46 43 44
f 50 48 47
f 39 25 23
f 41 58 39
f 58 26 25
f 59 60 58
f 43 61 59
f 45 62 43
f 65 63 45
f 67 64 65
f 49 68 48
f 60 72 26
f 61 73 60
f 62 74 61
f 63 75 62
f 64 76 63
f 66 77 64
f 68 78 66
f 69 79 68
f 83 42 82
f 84 44 83
f 86 46 84
f 88 50 87
f 89 52 88
f 91 53 89
f 65 47 67
f 45 85 65
f 71 51 57
f 70 80 69
f 71 94 70
f 82 40 97
f 24 97 40
f 98 31 35
f 99 32 98
f 100 33 99
f 101 36 100
f 102 37 101
f 104 34 103
f 106 99 105
f 107 100 106
f 109 81 108
f 111 84 110
f 116 92 114
f 118 115 116
f 120 117 118
f 111 119 120
f 110 121 111
f 91 124 123
f 89 125 91
f 88 114 89
f 87 116 88
f 93 118 87
f 86 120 93
f 126 84 83
f 128 35 104
f 105 98 128
f 103 127 104
f 7 129 103
f 132 127 130
f 134 131 132
f 131 128 127
f 133 105 131
f 135 106 133
f 138 137 136
f 139 108 138
f 141 109 139
f 142 140 141
f 136 107 135
f 137 101 107
f 108 102 137
f 140 97 109
f 143 133 134
f 144 135 143
f 145 136 144
f 146 138 145
f 147 139 146
f 4 129 6
f 12 4 3
f 144 149 148
f 143 150 144
f 134 151 143
f 132 152 134
f 130 153 132
f 156 148 154
f 154 157 156
f 30 12 11
f 29 153 30
f 72 150 27
f 155 145 148
f 158 146 155
f 73 149 72
f 162 160 159
f 161 142 160
f 122 126 142
f 160 141 147
f 147 159 160
f 121 161 163
f 96 164 165
f 119 164 166
f 167 119 166
f 169 166 96
f 74 157 73
f 159 74 75
f 159 76 162
f 162 77 165
f 165 78 96
f 96 79 169
f 171 167 170
f 173 168 171
f 175 172 173
f 113 174 112
f 92 172 113
f 171 95 173
f 170 94 171
f 169 80 170
f 152 28 151
f 83 140 126
f 125 112 124
f 176 180 178
f 183 180 181
f 184 180 182
f 183 185 182
f 189 187 186
f 181 189 183
f 176 190 181
f 193 186 187
f 187 194 193
f 189 194 188
f 190 195 189
f 191 196 190
f 198 186 192
f 199 185 198
f 199 179 184
f 178 124 177
f 179 123 178
f 123 90 91
f 90 199 55
f 55 198 56
f 56 192 57
f 193 95 71
f 194 173 95
f 174 196 112
f 112 177 124
f 193 57 192
f 27 151 28
f 189 186 183
f 203 202 201
