# Generated by Visualization Toolkit
v 0.18349799513816833 0.0002849999873433262 -0.029395999386906624
v 0.18373900651931763 -0.00036800000816583633 -0.02044999971985817
v 0.1795939952135086 0.0008720000041648746 -0.01656999997794628
v 0.17385900020599365 0.002873999997973442 -0.01570899970829487
v 0.17110499739646912 0.004098999779671431 -0.01947700046002865
v 0.16539199650287628 0.006207999773323536 -0.020455999299883842
v 0.14939899742603302 0.011832999996840954 -0.018741000443696976
v 0.13037200272083282 0.018019000068306923 -0.008720999583601952
v 0.12705400586128235 0.0192050002515316 -0.00867099966853857
v 0.12385000288486481 0.020488999783992767 -0.010808000341057777
v 0.12556199729442596 0.02001200057566166 -0.012959999963641167
v 0.125108003616333 0.020521000027656555 -0.018449999392032623
v 0.12089099735021591 0.022526999935507774 -0.026280000805854797
v 0.18381699919700623 0.004484999924898148 -0.022895000874996185
v 0.1791439950466156 0.008156999945640564 -0.019625000655651093
v 0.17465800046920776 0.010010000318288803 -0.019009999930858612
v 0.1729010045528412 0.008946999907493591 -0.021470999345183372
v 0.16742199659347534 0.010277999565005302 -0.022128000855445862
v 0.15192599594593048 0.016076000407338142 -0.020914999768137932
v 0.1343429982662201 0.02576100081205368 -0.014845999889075756
v 0.12965799868106842 0.027556000277400017 -0.014417000114917755
v 0.12586699426174164 0.02786399982869625 -0.015796000137925148
v 0.12474600225687027 0.026283999904990196 -0.018729999661445618
v 0.12444599717855453 0.024217000231146812 -0.021997999399900436
v 0.18271499872207642 0.0067349998280406 -0.02695300057530403
v 0.17707699537277222 0.012106000445783138 -0.02536099962890148
v 0.17376700043678284 0.01361900009214878 -0.025064000859856606
v 0.17355599999427795 0.01167299970984459 -0.025840999558568
v 0.1684730052947998 0.012581000104546547 -0.0259380005300045
v 0.15332500636577606 0.01807500049471855 -0.025141000747680664
v 0.1358090043067932 0.027329999953508377 -0.023087000474333763
v 0.12980599701404572 0.03002299927175045 -0.02256999909877777
v 0.12574900686740875 0.030117999762296677 -0.02289300039410591
v 0.12187100201845169 0.02666899934411049 -0.0245789997279644
v 0.12254499644041061 0.024297000840306282 -0.025443000718951225
v 0.18220600485801697 0.007162999827414751 -0.030830999836325645
v 0.17629200220108032 0.012765999883413315 -0.03135399892926216
v 0.17295199632644653 0.014302999712526798 -0.03127000108361244
v 0.1729079931974411 0.012217000126838684 -0.03077699989080429
v 0.16790099442005157 0.013062999583780766 -0.030309999361634254
v 0.15274299681186676 0.018564999103546143 -0.02958199940621853
v 0.13497699797153473 0.028029000386595726 -0.029433000832796097
v 0.12892800569534302 0.030760999768972397 -0.02926900051534176
v 0.12498100101947784 0.03076300024986267 -0.028744999319314957
v 0.12150099873542786 0.026979999616742134 -0.027400000020861626
v 0.12234999984502792 0.02446099929511547 -0.026923999190330505
v 0.18175899982452393 0.0041589997708797455 -0.033041998744010925
v 0.1776770055294037 0.008136999793350697 -0.03573700040578842
v 0.17452600598335266 0.009871000424027443 -0.036281999200582504
v 0.17310500144958496 0.009646999649703503 -0.035378001630306244
v 0.16886800527572632 0.011075999587774277 -0.03507800027728081
v 0.15612299740314484 0.014147999696433544 -0.03277600184082985
v 0.1340319961309433 0.022724999114871025 -0.032510001212358475
v 0.12876500189304352 0.02520900033414364 -0.03294999897480011
v 0.12574300169944763 0.02639799937605858 -0.032930999994277954
v 0.1227559968829155 0.02538999915122986 -0.03041199967265129
v 0.12172500044107437 0.02449199929833412 -0.028912000358104706
v 0.18172599375247955 0.0011309999972581863 -0.03275299817323685
v 0.1792069971561432 0.0022869999520480633 -0.036761000752449036
v 0.1759759932756424 0.003530000103637576 -0.03809399902820587
v 0.17282000184059143 0.004643999971449375 -0.03782200068235397
v 0.1690319925546646 0.006033000070601702 -0.03832300007343292
v 0.15970799326896667 0.00906199961900711 -0.033378999680280685
v 0.13407400250434875 0.018112000077962875 -0.031184999272227287
v 0.1294180005788803 0.019845999777317047 -0.032214999198913574
v 0.12668299674987793 0.020927000790834427 -0.03380399942398071
v 0.12354599684476852 0.02196200005710125 -0.03238299861550331
v 0.12058699876070023 0.022911999374628067 -0.03062799945473671
v 0.18013399839401245 -0.000986000057309866 -0.032951999455690384
v 0.17511099576950073 -0.0014400000218302011 -0.036083001643419266
v 0.1713770031929016 -0.0007960000075399876 -0.03692600131034851
v 0.169295996427536 0.0004959999932907522 -0.035989001393318176
v 0.16260600090026855 0.003456000005826354 -0.03477400168776512
v 0.15264199674129486 0.00800199992954731 -0.032760001718997955
v 0.1305440068244934 0.014166000299155712 -0.03420700132846832
v 0.12482000142335892 0.014999999664723873 -0.03573499992489815
v 0.12064199894666672 0.015835000202059746 -0.03650699928402901
v 0.11892200261354446 0.0176790002733469 -0.03455900028347969
v 0.11892099678516388 0.019658999517560005 -0.03156999871134758
v 0.17883500456809998 -0.003223000094294548 -0.031175000593066216
v 0.17180299758911133 -0.004428999964147806 -0.03226900100708008
v 0.1677750051021576 -0.0038960000965744257 -0.03241699934005737
v 0.16684700548648834 -0.001769999973475933 -0.03167099878191948
v 0.15752899646759033 0.004234999883919954 -0.03015900030732155
v 0.1461070030927658 0.007395000196993351 -0.02993899956345558
v 0.12700200080871582 0.007447000127285719 -0.031610000878572464
v 0.12025699764490128 0.006926000118255615 -0.03241200000047684
v 0.11490000039339066 0.00826799962669611 -0.03236500173807144
v 0.11455599963665009 0.01142099965363741 -0.03116700053215027
v 0.11754000186920166 0.015636000782251358 -0.029260000213980675
v 0.1792609989643097 -0.0035800000187009573 -0.02793099917471409
v 0.17253300547599792 -0.005042000208050013 -0.026697000488638878
v 0.16858099400997162 -0.00457199988886714 -0.026281999424099922
v 0.16750399768352509 -0.0023219999857246876 -0.02666500024497509
v 0.15796400606632233 0.0038689998909831047 -0.026844000443816185
v 0.14661400020122528 0.0069670001976192 -0.026061000302433968
v 0.1280670017004013 0.006554000079631805 -0.02350199967622757
v 0.1215599998831749 0.005830000154674053 -0.02246900089085102
v 0.11625000089406967 0.007133000064641237 -0.022067999467253685
v 0.11565499752759933 0.010495999827980995 -0.022776000201702118
v 0.11820600181818008 0.01507600024342537 -0.02418299950659275
v 0.18100300431251526 -0.0035810000263154507 -0.023826999589800835
v 0.17551499605178833 -0.004120999947190285 -0.02070000022649765
v 0.17069199681282043 -0.0029060000088065863 -0.019888000562787056
v 0.16903600096702576 -0.0004020000051241368 -0.022002000361680984
v 0.16129399836063385 0.0036899999249726534 -0.0231539998203516
v 0.1476069986820221 0.007939999923110008 -0.021770000457763672
v 0.12845799326896667 0.009417000226676464 -0.014712000265717506
v 0.12383700162172318 0.010100999847054482 -0.013384000398218632
v 0.11988700181245804 0.012078999541699886 -0.01384699996560812
v 0.12038499861955643 0.01362599991261959 -0.01584699936211109
v 0.12154000252485275 0.016857000067830086 -0.020076999440789223
v 0.1774429976940155 -0.0001320000010309741 0.00020500000391621143
v 0.17571599781513214 0.0001939999929163605 0.00597700010985136
v 0.1701429933309555 0.002724000019952655 0.006345999892801046
v 0.16667799651622772 0.004333000164479017 0.006122000049799681
v 0.15963000059127808 0.007892999798059464 0.0021200000774115324
v 0.12701000273227692 0.023158999159932137 -0.0014130000490695238
v 0.11806400120258331 0.02707800082862377 0.0009120000177063048
v 0.1141040027141571 0.02893799915909767 0.00041099998634308577
v 0.10951200127601624 0.030962999910116196 0.001446999958716333
v 0.1048090010881424 0.03319700062274933 0.0005300000193528831
v 0.10262399911880493 0.034345999360084534 -0.0012829999905079603
v 0.10562200099229813 0.03313999995589256 -0.003389999968931079
v 0.10754500329494476 0.032519999891519547 -0.006630999967455864
v 0.17863699793815613 0.002280999906361103 0.004579000174999237
v 0.17409999668598175 0.005030000116676092 0.005034000147134066
v 0.17098499834537506 0.006351999938488007 0.004540999885648489
v 0.16590000689029694 0.00803299993276596 0.0030499999411404133
v 0.14797000586986542 0.015978999435901642 0.0006820000126026571
v 0.14281900227069855 0.019509000703692436 0.0017859999788925052
v 0.13793699443340302 0.021327000111341476 0.0006469999789260328
v 0.11749199777841568 0.03160500153899193 -0.0003110000106971711
v 0.11251799762248993 0.03419199958443642 -0.0004189999890513718
v 0.10883200168609619 0.035186998546123505 -0.001820000004954636
v 0.10887899994850159 0.034703999757766724 -0.0024770000018179417
v 0.1808439940214157 0.0026910000015050173 0.0020119999535381794
v 0.1773419976234436 0.0056050000712275505 0.002096999902278185
v 0.17444199323654175 0.006378999911248684 0.0016199999954551458
v 0.17234699428081512 0.008286000229418278 0.001724999980069697
v 0.16898000240325928 0.008697999641299248 0.0010079999919980764
v 0.16693000495433807 0.010351999662816525 0.001041000010445714
v 0.16087299585342407 0.011672000400722027 -0.000056000000768108293
v 0.12438599765300751 0.02976199984550476 -0.0032740000169724226
v 0.11951600015163422 0.03342900052666664 -0.0032840000931173563
v 0.11456900089979172 0.03481199964880943 -0.0040779998525977135
v 0.11243300139904022 0.036621998995542526 -0.004015000071376562
v 0.1810459941625595 0.002814000006765127 -0.0006510000093840063
v 0.17760099470615387 0.005762999877333641 -0.0013379999436438084
v 0.17467600107192993 0.006521000061184168 -0.0014659999869763851
v 0.17262400686740875 0.008453999646008015 -0.001918999943882227
v 0.1692029982805252 0.008833999745547771 -0.0019369999645277858
v 0.1671849936246872 0.010507999919354916 -0.0023240000009536743
v 0.16106100380420685 0.011784999631345272 -0.0025100000202655792
v 0.1246189996600151 0.029904000461101532 -0.006359000224620104
v 0.11981400102376938 0.033610999584198 -0.007209999952465296
v 0.11482500284910202 0.034967001527547836 -0.007443999871611595
v 0.11272700130939484 0.03680000081658363 -0.007872000336647034
v 0.17996999621391296 0.0014420000370591879 -0.002616999903693795
v 0.17683899402618408 0.0035119999665766954 -0.003601999953389168
v 0.17411500215530396 0.004257999826222658 -0.003281000070273876
v 0.17181000113487244 0.006225999910384417 -0.004499000031501055
v 0.16764600574970245 0.00711800018325448 -0.003734000027179718
v 0.16339099407196045 0.009185999631881714 -0.004238999914377928
v 0.1513569951057434 0.014808000065386295 -0.005415999796241522
v 0.12450700253248215 0.027876999229192734 -0.008627000264823437
v 0.11965099722146988 0.03136000037193298 -0.010456000454723835
v 0.11637499928474426 0.03345799818634987 -0.011408999562263489
v 0.11092200130224228 0.03568100184202194 -0.011579999700188637
v 0.17859700322151184 -0.00039400000241585076 -0.0031109999399632215
v 0.17581500113010406 0.0009430000209249556 -0.003840999910607934
v 0.173443004488945 0.001976999919861555 -0.0031580000650137663
v 0.17061899602413177 0.0034260000102221966 -0.005034999921917915
v 0.16599899530410767 0.005435999948531389 -0.003656999906525016
v 0.15969300270080566 0.008345000445842743 -0.00381799996830523
v 0.14124199748039246 0.017084000632166862 -0.00710699986666441
v 0.12399400025606155 0.025178000330924988 -0.00925000011920929
v 0.1187720000743866 0.02778499945998192 -0.011818000115454197
v 0.11652900278568268 0.02903600037097931 -0.014550999738276005
v 0.10820700228214264 0.032784998416900635 -0.013650000095367432
v 0.17632099986076355 -0.0021510000806301832 -0.0035490000154823065
v 0.17252999544143677 -0.0012379999971017241 -0.005150999873876572
v 0.16941200196743011 0.0006810000049881637 -0.004792999941855669
v 0.16709500551223755 0.0019290000200271606 -0.004782000090926886
v 0.16277599334716797 0.005067999940365553 -0.0035959999077022076
v 0.1536940038204193 0.009739999659359455 -0.0038689998909831047
v 0.1369200050830841 0.01655299961566925 -0.006976000033318996
v 0.12317799776792526 0.02181600034236908 -0.009975000284612179
v 0.11596400290727615 0.022809000685811043 -0.014088000170886517
v 0.11234000325202942 0.023972999304533005 -0.015197999775409698
v 0.10772000253200531 0.027716999873518944 -0.013379000127315521
v 0.17391900718212128 -0.003942000214010477 -0.001967000076547265
v 0.16876299679279327 -0.004087999928742647 -0.0033259999472647905
v 0.16479100286960602 -0.0015360000543296337 -0.0034809999633580446
v 0.16380399465560913 0.0011309999972581863 -0.0028389999642968178
v 0.15970000624656677 0.0051380000077188015 -0.0025400000158697367
v 0.14791999757289886 0.011686000041663647 -0.003343000076711178
v 0.1328199952840805 0.016649000346660614 -0.005518000107258558
v 0.1220339983701706 0.01808900013566017 -0.007776999846100807
v 0.11219500005245209 0.016414999961853027 -0.010838000103831291
v 0.1079690009355545 0.01908699981868267 -0.011017000302672386
v 0.10731799900531769 0.023221999406814575 -0.00979899987578392
v 0.1736689954996109 -0.004095000214874744 0.0013279999839141965
v 0.16839599609375 -0.004310999996960163 0.0015109999803826213
v 0.16445699334144592 -0.001740999985486269 0.0009360000258311629
v 0.16356900334358215 0.0009889999637380242 0.0002460000105202198
v 0.15956200659275055 0.005053000058978796 -0.0007190000033006072
v 0.14782999455928802 0.011630999855697155 -0.0021510000806301832
v 0.1326339989900589 0.01653599925339222 -0.003065000055357814
v 0.1216839998960495 0.017875000834465027 -0.003148999996483326
v 0.1115569993853569 0.016026999801397324 -0.0024240000639110804
v 0.10736200213432312 0.018717000260949135 -0.0030249999836087227
v 0.10688699781894684 0.02295999974012375 -0.004120999947190285
v 0.17431500554084778 -0.00267999991774559 0.004366000182926655
v 0.16892899572849274 -0.0013790000230073929 0.005191999953240156
v 0.16517400741577148 0.0005760000203736126 0.004600000102072954
v 0.16146400570869446 0.004253999795764685 0.0020719999447464943
v 0.14307400584220886 0.013694999739527702 -0.0006750000175088644
v 0.13231000304222107 0.01795399934053421 -0.0008689999813213944
v 0.12286199629306793 0.021679000928997993 -0.0010260000126436353
v 0.11512000113725662 0.023513000458478928 0.00020399999630171806
v 0.10810499638319016 0.024764999747276306 0.0017740000039339066
v 0.10506200045347214 0.026996999979019165 0.0005750000127591193
v 0.10638300329446793 0.028566999360919 -0.0017330000409856439
v 0.166934996843338 -0.0028039999306201935 0.015003000386059284
v 0.1664550006389618 -0.002828999888151884 0.018042000010609627
v 0.16401399672031403 -0.0017819999484345317 0.0189449992030859
v 0.1610729992389679 -0.000371000001905486 0.018200000748038292
v 0.1580680012702942 0.0008660000166855752 0.019964000210165977
v 0.15561699867248535 0.0020389999262988567 0.019381999969482422
v 0.1529110074043274 0.0034600000362843275 0.017173999920487404
v 0.12570899724960327 0.016232000663876534 0.013716000132262707
v 0.11183899641036987 0.022321999073028564 0.01715799979865551
v 0.10522499680519104 0.025495000183582306 0.015483999624848366
v 0.10233200341463089 0.02680099941790104 0.01577099971473217
v 0.09909799695014954 0.028432000428438187 0.013970999978482723
v 0.10162600129842758 0.027703000232577324 0.008617999963462353
v 0.16712500154972076 -0.0014619999565184116 0.01738099940121174
v 0.16515499353408813 0.00031599999056197703 0.01860399916768074
v 0.1623860001564026 0.0014659999869763851 0.01809599995613098
v 0.1598609983921051 0.0035039999056607485 0.01926499977707863
v 0.1566389948129654 0.004608000162988901 0.018290000036358833
v 0.14183099567890167 0.01132499985396862 0.01651199907064438
v 0.12677499651908875 0.018157999962568283 0.014709999784827232
v 0.11362499743700027 0.0256740003824234 0.015689000487327576
v 0.10729599744081497 0.02880300022661686 0.01535400003194809
v 0.10460499674081802 0.030175000429153442 0.01527899969369173
v 0.1012360006570816 0.030660999938845634 0.013155999593436718
v 0.16753600537776947 -0.0007430000114254653 0.01594500057399273
v 0.1661680042743683 0.0019330000504851341 0.01658100076019764
v 0.1636510044336319 0.0030060000717639923 0.016295000910758972
v 0.16136999428272247 0.005295000039041042 0.016533000394701958
v 0.1572449952363968 0.006101000122725964 0.01570799946784973
v 0.13097000122070312 0.01939300075173378 0.013523999601602554
v 0.12824399769306183 0.020665999501943588 0.013256000354886055
v 0.1148340031504631 0.027542000636458397 0.01217699982225895
v 0.10931599885225296 0.03164700046181679 0.01221300009638071
v 0.10667800158262253 0.032777998596429825 0.01191600039601326
v 0.10302700102329254 0.031936999410390854 0.010599000379443169
v 0.1676580011844635 -0.0006680000224150717 0.014333000406622887
v 0.16639499366283417 0.0020719999447464943 0.013565000146627426
v 0.1638759970664978 0.0031419999431818724 0.013350999914109707
v 0.16165600717067719 0.005468999966979027 0.012748000212013721
v 0.15747399628162384 0.006240000016987324 0.012691999785602093
v 0.1312520056962967 0.019564000889658928 0.009806999936699867
v 0.1285260021686554 0.020837999880313873 0.009541000239551067
v 0.11514899879693985 0.0277319997549057 0.00803999975323677
v 0.10971000045537949 0.03188600018620491 0.007025000173598528
v 0.10706499963998795 0.033013999462127686 0.0067980000749230385
v 0.10328199714422226 0.032092999666929245 0.007234999909996986
v 0.1675329953432083 -0.0015670000575482845 0.013159999623894691
v 0.16608400642871857 0.00033599999733269215 0.011479999870061874
v 0.16301700472831726 0.0018420000560581684 0.011090000160038471
v 0.16057300567626953 0.0036329999566078186 0.010034999810159206
v 0.15686599910259247 0.004534000065177679 0.010714000090956688
v 0.13665199279785156 0.01408500038087368 0.008600999601185322
v 0.1251170039176941 0.020304000005126 0.006432999856770039
v 0.11517799645662308 0.025885000824928284 0.0042860000394284725
v 0.1110759973526001 0.028199000284075737 0.003386999946087599
v 0.10754299908876419 0.029704000800848007 0.0032210000790655613
v 0.10403399914503098 0.030115999281406403 0.004416999872773886
v 0.1672230064868927 -0.0027630000840872526 0.012860000133514404
v 0.1654829978942871 -0.0018210000125691295 0.011090000160038471
v 0.16179099678993225 -0.00006800000119255856 0.010386000387370586
v 0.15911699831485748 0.0012369999894872308 0.009440000168979168
v 0.1560399979352951 0.0025629999581724405 0.010509000159800053
v 0.14209899306297302 0.00901000015437603 0.009945999830961227
v 0.12122999876737595 0.01897200010716915 0.005278999917209148
v 0.11433999985456467 0.02237600088119507 0.0023189999628812075
v 0.11182600259780884 0.023513000458478928 0.002529999939724803
v 0.10746199637651443 0.025522999465465546 0.0024470000062137842
v 0.1041639968752861 0.02698099985718727 0.003152000019326806
v 0.1649319976568222 -0.0037559999618679285 0.01169199962168932
v 0.16173900663852692 -0.00318100000731647 0.009871000424027443
v 0.15857799351215363 -0.0015030000358819962 0.009891999885439873
v 0.15641799569129944 -0.00006399999983841553 0.010389000177383423
v 0.15139499306678772 0.0030819999519735575 0.011219000443816185
v 0.1345680058002472 0.01102800015360117 0.009715000167489052
v 0.1186399981379509 0.017038999125361443 0.005799000151455402
v 0.11199799925088882 0.018681999295949936 0.002741999924182892
v 0.1083889976143837 0.019710000604391098 0.0013050000416114926
v 0.10281100124120712 0.02271600067615509 0.001420999993570149
v 0.10182300209999084 0.02480899915099144 0.004013000056147575
v 0.16222499310970306 -0.0053900000639259815 0.012736000120639801
v 0.1575939953327179 -0.005059000104665756 0.011593000032007694
v 0.15523600578308105 -0.002940000034868717 0.011745999567210674
v 0.15415500104427338 -0.00029600001289509237 0.01244600024074316
v 0.14718599617481232 0.0045889997854828835 0.012380000203847885
v 0.12721000611782074 0.013512999750673771 0.010273000225424767
v 0.11629900336265564 0.01586100086569786 0.008170999586582184
v 0.10982699692249298 0.015727000311017036 0.006345999892801046
v 0.10449100285768509 0.015469999983906746 0.004786000121384859
v 0.0978349968791008 0.019701000303030014 0.00455900002270937
v 0.09985499829053879 0.02364400029182434 0.00660100020468235
v 0.16197599470615387 -0.005541000049561262 0.01603100076317787
v 0.15725000202655792 -0.005268999841064215 0.016148999333381653
v 0.15494300425052643 -0.0031169999856501818 0.015600999817252159
v 0.1539739966392517 -0.00040499999886378646 0.014829999767243862
v 0.14709100127220154 0.004530999809503555 0.013642000034451485
v 0.12709300220012665 0.01344200037419796 0.011815999634563923
v 0.11603900045156479 0.01570199988782406 0.011603999882936478
v 0.10940100252628326 0.015468999743461609 0.011955000460147858
v 0.10392200201749802 0.015123000368475914 0.012288999743759632
v 0.09732399880886078 0.019388999789953232 0.011289999820291996
v 0.0995979979634285 0.023489000275731087 0.009964000433683395
v 0.16416099667549133 -0.004178000148385763 0.018081000074744225
v 0.1605609953403473 -0.003507999936118722 0.018996000289916992
v 0.15793000161647797 -0.0017740000039339066 0.018106000497937202
v 0.15562200546264648 -0.0005879999953322113 0.0177449993789196
v 0.15090100467205048 0.002303000073879957 0.016423000022768974
v 0.13976700603961945 0.007973999716341496 0.014746000058948994
v 0.12086500227451324 0.016081999987363815 0.013803999871015549
v 0.1102989986538887 0.018383000046014786 0.01607399992644787
v 0.10450199991464615 0.020440999418497086 0.016321999952197075
v 0.09963999688625336 0.022929999977350235 0.015576000325381756
v 0.09905000030994415 0.02540699951350689 0.01275699958205223
v 0.15400800108909607 0.0007099999929778278 0.02946699969470501
v 0.15185299515724182 0.001243000035174191 0.03324100002646446
v 0.14691700041294098 0.0029440000653266907 0.034331999719142914
v 0.14523999392986298 0.0036730000283569098 0.0323060005903244
v 0.1424659937620163 0.004741999786347151 0.031122999265789986
v 0.1382800042629242 0.006442000158131123 0.02796199917793274
v 0.11957400292158127 0.01334100030362606 0.024894999340176582
v 0.10660500079393387 0.017906999215483665 0.026186000555753708
v 0.09935600310564041 0.02057899907231331 0.025023000314831734
v 0.09566300362348557 0.021842999383807182 0.025987999513745308
v 0.08658500015735626 0.02529199980199337 0.0228860005736351
v 0.08440300077199936 0.026215000078082085 0.020656000822782516
v 0.0878869965672493 0.025147000327706337 0.01780799962580204
v 0.15347400307655334 0.0034489999525249004 0.0330130010843277
v 0.1491750031709671 0.0060800001956522465 0.03375000134110451
v 0.14653100073337555 0.00624299980700016 0.03211500123143196
v 0.14302900433540344 0.0073739998042583466 0.031266000121831894
v 0.13911600410938263 0.007809999864548445 0.02912900038063526
v 0.11615200340747833 0.016688000410795212 0.025638999417424202
v 0.10609199851751328 0.021678000688552856 0.025685999542474747
v 0.09865400195121765 0.024328000843524933 0.024234000593423843
v 0.09416499733924866 0.026443000882864 0.02409599907696247
v 0.08825699985027313 0.028040999546647072 0.022213999181985855
v 0.08616700023412704 0.027638999745249748 0.02016500011086464
v 0.15514899790287018 0.005022999830543995 0.031165000051259995
v 0.15139800310134888 0.00810100045055151 0.03103799931704998
v 0.147940993309021 0.00825200043618679 0.03007199987769127
v 0.1438950002193451 0.009859999641776085 0.029394999146461487
v 0.14056800305843353 0.009960999712347984 0.028450999408960342
v 0.11352899670600891 0.02108200080692768 0.02404000051319599
v 0.10575299710035324 0.02485799975693226 0.02295600064098835
v 0.09800799936056137 0.02727000042796135 0.021446000784635544
v 0.09235499799251556 0.029357999563217163 0.02044999971985817
v 0.08983699977397919 0.029725000262260437 0.01982700079679489
v 0.0877859964966774 0.028227999806404114 0.01875299960374832
v 0.15566100180149078 0.005022999830543995 0.028262000530958176
v 0.15209299325942993 0.00810100045055151 0.027096999809145927
v 0.1485140025615692 0.00825200043618679 0.026822000741958618
v 0.14448000490665436 0.009859999641776085 0.026074999943375587
v 0.14103099703788757 0.009960999712347984 0.02582399919629097
v 0.11411499977111816 0.02108200080692768 0.020719999447464943
v 0.10643500089645386 0.02485799975693226 0.019081000238656998
v 0.09864199906587601 0.02727000042796135 0.01785000041127205
v 0.09299000352621078 0.029357999563217163 0.016852999106049538
v 0.0904109999537468 0.029725000262260437 0.01657699979841709
v 0.08811599761247635 0.028227999806404114 0.01688399910926819
v 0.15495899319648743 0.0030519999563694 0.026367999613285065
v 0.15096400678157806 0.005607000086456537 0.024354999884963036
v 0.14812099933624268 0.00596500001847744 0.024692999199032784
v 0.14443199336528778 0.0067889997735619545 0.02469700016081333
v 0.13937599956989288 0.008271999657154083 0.02427300065755844
v 0.11886399984359741 0.016892999410629272 0.019394999369978905
v 0.10784299671649933 0.021273000165820122 0.01707799918949604
v 0.10149899870157242 0.02381099946796894 0.015727000311017036
v 0.09614700078964233 0.02586499974131584 0.014689999632537365
v 0.09228900074958801 0.027329999953508377 0.013964000158011913
v 0.0892459973692894 0.026838000863790512 0.01538699958473444
v 0.15390299260616302 0.0009519999730400741 0.026218000799417496
v 0.14929799735546112 0.002749999985098839 0.023903999477624893
v 0.14729900658130646 0.00343000004068017 0.024475999176502228
v 0.14424200356006622 0.004449999891221523 0.025668000802397728
v 0.13753700256347656 0.006928000133484602 0.02448599971830845
v 0.12315099686384201 0.012369000352919102 0.019985999912023544
v 0.10882200300693512 0.017664000391960144 0.01745999976992607
v 0.10374200344085693 0.01960800029337406 0.015526999719440937
v 0.09865400195121765 0.02150299958884716 0.014399000443518162
v 0.09338299930095673 0.02349499985575676 0.012776000425219536
v 0.08992499858140945 0.024612000212073326 0.014705999754369259
v 0.15376199781894684 -0.0009919999865815043 0.02685599960386753
v 0.149044007062912 -0.00042100000428035855 0.024343999102711678
v 0.14667199552059174 0.00039000000106170774 0.02383200079202652
v 0.14339099824428558 0.0029720000457018614 0.025213999673724174
v 0.13734599947929382 0.005888999905437231 0.025127999484539032
v 0.12234900146722794 0.010649999603629112 0.021362999454140663
v 0.10752499848604202 0.01511900033801794 0.017302999272942543
v 0.10267800092697144 0.015768999233841896 0.014813999645411968
v 0.09769900143146515 0.01711999997496605 0.013237999752163887
v 0.09283900260925293 0.018296999856829643 0.011491999961435795
v 0.09048300236463547 0.020570000633597374 0.013082999736070633
v 0.15371599793434143 -0.002225999953225255 0.028450999408960342
v 0.14868099987506866 -0.0029589999467134476 0.02674500085413456
v 0.14548499882221222 -0.0029060000088065863 0.02582399919629097
v 0.14222800731658936 0.0013409999664872885 0.02621299959719181
v 0.13734400272369385 0.0055149998515844345 0.026100000366568565
v 0.12201400101184845 0.010390999726951122 0.023148000240325928
v 0.10595899820327759 0.01283000037074089 0.019210999831557274
v 0.10096299648284912 0.011744000017642975 0.017402999103069305
v 0.09583800286054611 0.012172999791800976 0.01603499986231327
v 0.09123700112104416 0.012407000176608562 0.014762000180780888
v 0.08990199863910675 0.015267999842762947 0.015274999663233757
v 0.15338599681854248 -0.002225999953225255 0.030319999903440475
v 0.1480720043182373 -0.0029589999467134476 0.030202999711036682
v 0.14475299417972565 -0.0029060000088065863 0.029975000768899918
v 0.14182600378990173 0.0013409999664872885 0.028495000675320625
v 0.13719800114631653 0.0055149998515844345 0.026930000633001328
v 0.12178199738264084 0.010390999726951122 0.024461999535560608
v 0.10535000264644623 0.01283000037074089 0.022670000791549683
v 0.10003700107336044 0.011744000017642975 0.022659000009298325
v 0.09475299715995789 0.012172999791800976 0.02219099923968315
v 0.08999399840831757 0.012407000176608562 0.02181600034236908
v 0.08891499787569046 0.015267999842762947 0.02087699994444847
v 0.1523369997739792 -0.0010979999788105488 0.03211300075054169
v 0.14709800481796265 -0.0007019999902695417 0.033055998384952545
v 0.14476199448108673 0.0003549999964889139 0.03240999951958656
v 0.1419139951467514 0.0026779999025166035 0.030368000268936157
v 0.13765999674797058 0.005865999963134527 0.027658000588417053
v 0.12059500068426132 0.011826000176370144 0.02506900019943714
v 0.10566700249910355 0.014957999810576439 0.025330999866127968
v 0.09942899644374847 0.01622300036251545 0.025490999221801758
v 0.09483499825000763 0.016882000491023064 0.025940999388694763
v 0.08806400001049042 0.019385000690817833 0.024746999144554138
v 0.08654099702835083 0.02137099951505661 0.022753000259399414
v 0.14233100414276123 0.0018149999668821692 0.04193200170993805
v 0.13944999873638153 0.0024160000029951334 0.045368000864982605
v 0.137130007147789 0.0030159999150782824 0.04563099890947342
v 0.13541999459266663 0.0035099999513477087 0.044704001396894455
v 0.1335189938545227 0.00406600022688508 0.04354900121688843
v 0.1309320032596588 0.004730000160634518 0.04394200071692467
v 0.12817800045013428 0.005557999946177006 0.041760001331567764
v 0.10125300288200378 0.012928999960422516 0.03606100007891655
v 0.07788600027561188 0.01901799999177456 0.03770200163125992
v 0.06763900071382523 0.021880000829696655 0.034311000257730484
v 0.06975399702787399 0.021392999216914177 0.03278300166130066
v 0.07338599860668182 0.020419999957084656 0.03308099880814552
v 0.08026500046253204 0.01880500093102455 0.028797000646591187
v 0.14096499979496002 0.0037899999879300594 0.043949998915195465
v 0.13900800049304962 0.004850999917834997 0.04429199919104576
v 0.13666699826717377 0.005543999839574099 0.04387199878692627
v 0.13421200215816498 0.0062950002029538155 0.043466001749038696
v 0.1309089958667755 0.0070420000702142715 0.04253999888896942
v 0.1252630054950714 0.008534999564290047 0.041269998997449875
v 0.10193900018930435 0.014630000106990337 0.03591800108551979
v 0.08873900026082993 0.020632000640034676 0.036566998809576035
v 0.08167599886655807 0.02225000038743019 0.034616999328136444
v 0.07889000326395035 0.02275099977850914 0.033649999648332596
v 0.07935900241136551 0.022228000685572624 0.033181000500917435
v 0.14205600321292877 0.0034990001004189253 0.04238300025463104
v 0.1405400037765503 0.004985000006854534 0.042403001338243484
v 0.13782000541687012 0.006444000173360109 0.042052000761032104
v 0.13514499366283417 0.008158000186085701 0.041797999292612076
v 0.13066500425338745 0.00795700028538704 0.040396999567747116
v 0.1226940006017685 0.011478000320494175 0.039135001599788666
v 0.10277599841356277 0.01594799943268299 0.03460799902677536
v 0.09889800101518631 0.018883999437093735 0.03438099846243858
v 0.0952640026807785 0.019967999309301376 0.033640000969171524
v 0.08814200013875961 0.02290000021457672 0.03244499862194061
v 0.08535400032997131 0.022770000621676445 0.031571000814437866
v 0.14226900041103363 0.003488000016659498 0.041381001472473145
v 0.1408970057964325 0.00496899988502264 0.04073299840092659
v 0.13827000558376312 0.006424000021070242 0.03993900120258331
v 0.13572899997234344 0.008131000213325024 0.03907100111246109
v 0.13105499744415283 0.007938999682664871 0.03855999931693077
v 0.12326399981975555 0.011451000347733498 0.03646399825811386
v 0.10321500152349472 0.01592699997127056 0.03254900127649307
v 0.09958799928426743 0.018852999433875084 0.031153999269008636
v 0.09596399962902069 0.019936000928282738 0.030357999727129936
v 0.08897300064563751 0.02286200039088726 0.028550000861287117
v 0.08606600016355515 0.02273700013756752 0.028233999386429787
v 0.14269199967384338 0.003028000006452203 0.04032300040125847
v 0.14130499958992004 0.004182000178843737 0.03903299942612648
v 0.1390949934720993 0.00481700012460351 0.03852900117635727
v 0.137130007147789 0.005650999955832958 0.03772899881005287
v 0.13462099432945251 0.0063390000723302364 0.03719799965620041
v 0.12925300002098083 0.008492999710142612 0.03518100082874298
v 0.11738800257444382 0.010816999711096287 0.03385699912905693
v 0.10927899926900864 0.013364999555051327 0.031720999628305435
v 0.09924300014972687 0.016468999907374382 0.02913700044155121
v 0.09141600131988525 0.01986199989914894 0.025870999321341515
v 0.0879020020365715 0.02040800079703331 0.025662999600172043
v 0.1428309977054596 0.0017920000245794654 0.039590999484062195
v 0.14127500355243683 0.0022799998987466097 0.03794499859213829
v 0.13954199850559235 0.002724000019952655 0.03823700174689293
v 0.138154998421669 0.0030990000814199448 0.038036998361349106
v 0.13766400516033173 0.0033030000049620867 0.036428000777959824
v 0.13462300598621368 0.004170000087469816 0.0350320003926754
v 0.1311579942703247 0.005030999891459942 0.03618000075221062
v 0.11864300072193146 0.008414000272750854 0.03447199985384941
v 0.10208199918270111 0.012993999756872654 0.029934000223875046
v 0.09309499710798264 0.015589999966323376 0.025116000324487686
v 0.08902499824762344 0.016687000170350075 0.024630000814795494
v 0.14106500148773193 0.0007970000151544809 0.039698000997304916
v 0.1386439949274063 0.0005150000215508044 0.037824999541044235
v 0.13573400676250458 0.001310999970883131 0.03720799833536148
v 0.1341239959001541 0.0021460000425577164 0.03743400052189827
v 0.13366900384426117 0.002245000097900629 0.037300001829862595
v 0.12511500716209412 0.004480999894440174 0.035339001566171646
v 0.11490699648857117 0.007170000113546848 0.033027999103069305
v 0.1005999967455864 0.009038999676704407 0.02705099992454052
v 0.09029299765825272 0.011308999732136726 0.024075999855995178
v 0.08367300033569336 0.013172999955713749 0.022749999538064003
v 0.08268799632787704 0.013888999819755554 0.023183999583125114
v 0.1392810046672821 0.0003279999946244061 0.04055099934339523
v 0.1358409970998764 -0.0006949999951757491 0.03920099884271622
v 0.13150499761104584 -0.00013299999409355223 0.038086000829935074
v 0.1299079954624176 0.0015539999585598707 0.03814399987459183
v 0.1300400048494339 0.002858000108972192 0.03859499841928482
v 0.1161860004067421 0.007007000036537647 0.03577699884772301
v 0.09844999760389328 0.009717999957501888 0.03134400025010109
v 0.08058000355958939 0.006750000175088644 0.025074999779462814
v 0.07653699815273285 0.006963999941945076 0.023934999480843544
v 0.07342799752950668 0.010762999765574932 0.024210000410676003
v 0.0756940022110939 0.01130400039255619 0.025056999176740646
v 0.13897199928760529 0.0003420000139158219 0.0419979989528656
v 0.13526999950408936 -0.0006680000224150717 0.041871000081300735
v 0.13085100054740906 -0.00010299999848939478 0.041145000606775284
v 0.12941999733448029 0.001576000009663403 0.040424998849630356
v 0.12973099946975708 0.0028719999827444553 0.040043000131845474
v 0.11592499911785126 0.007019000127911568 0.037000998854637146
v 0.0979050025343895 0.009743000380694866 0.033904001116752625
v 0.07898800075054169 0.006823999807238579 0.03252900019288063
v 0.07482700049877167 0.007042999844998121 0.03194599971175194
v 0.07210800051689148 0.010823000222444534 0.030386000871658325
v 0.07452999800443649 0.011357000097632408 0.03051000088453293
v 0.13898000121116638 0.0006769999745301902 0.043866001069545746
v 0.13591499626636505 0.0006220000213943422 0.04436599835753441
v 0.13287800550460815 0.001424000016413629 0.043761998414993286
v 0.1312599927186966 0.0025229998864233494 0.042576998472213745
v 0.13007999956607819 0.0029949999880045652 0.04213400185108185
v 0.12188799679279327 0.005861999932676554 0.03959700092673302
v 0.09940099716186523 0.011301999911665916 0.03575799986720085
v 0.07785800099372864 0.012493000365793705 0.03725000098347664
v 0.07071399688720703 0.014538000337779522 0.035624001175165176
v 0.07053700089454651 0.01619499921798706 0.03351899981498718
v 0.07359600067138672 0.015893999487161636 0.03347599878907204
v 0.116348996758461 0.03618599846959114 -0.018170999363064766
v 0.11658799648284912 0.03305999934673309 -0.016668999567627907
v 0.11678300052881241 0.03306100144982338 -0.019936000928282738
v 0.11256100237369537 0.03306800127029419 -0.021188000217080116
v 0.10773199796676636 0.03307599946856499 -0.02222900092601776
v 0.11140300333499908 0.03306899964809418 -0.018218999728560448
v 0.11668899655342102 0.03305999934673309 -0.016524000093340874
v 0.1159299984574318 0.028686000034213066 -0.015135999768972397
v 0.11668799817562103 0.028687000274658203 -0.02268099971115589
v 0.10940100252628326 0.02869899943470955 -0.02453700080513954
v 0.10463999956846237 0.028706999495625496 -0.02632799930870533
v 0.10087399929761887 0.02871200069785118 -0.025849999859929085
v 0.10576499998569489 0.028703000396490097 -0.020481999963521957
v 0.10916300117969513 0.028697000816464424 -0.016711000353097916
v 0.11617100238800049 0.0236859992146492 -0.01655299961566925
v 0.11902700364589691 0.0236820001155138 -0.01979300007224083
v 0.11899799853563309 0.02368300035595894 -0.02430500090122223
v 0.1151299998164177 0.02369000017642975 -0.02720700018107891
v 0.11192599684000015 0.02369599975645542 -0.028471000492572784
v 0.1087149977684021 0.023700999096035957 -0.0278949998319149
v 0.10558599978685379 0.023706000298261642 -0.02958899922668934
v 0.09792199730873108 0.02371799945831299 -0.029671000316739082
v 0.0966079980134964 0.023718999698758125 -0.02761800028383732
v 0.10377699881792068 0.02370700053870678 -0.022926999256014824
v 0.1074490025639534 0.02370000071823597 -0.018915999680757523
v 0.11800900101661682 0.01743300072848797 -0.016228999942541122
v 0.12045200169086456 0.017430000007152557 -0.019287999719381332
v 0.12048900127410889 0.01743300072848797 -0.02886500023305416
v 0.11679700016975403 0.01743900030851364 -0.030594000592827797
v 0.10823500156402588 0.017450999468564987 -0.028106000274419785
v 0.10101799666881561 0.01746400073170662 -0.03217099979519844
v 0.09597499668598175 0.01747100055217743 -0.03236199915409088
v 0.09692399948835373 0.017470000311732292 -0.029465999454259872
v 0.09480199962854385 0.01747100055217743 -0.025714000687003136
v 0.09622199833393097 0.017470000311732292 -0.024765999987721443
v 0.09916900098323822 0.017464999109506607 -0.02564300037920475
v 0.10704100131988525 0.017450999468564987 -0.02133600041270256
v 0.1143990010023117 0.011188999749720097 -0.017054999247193336
v 0.11895699799060822 0.01118400041013956 -0.024184999987483025
v 0.11800400167703629 0.01118599995970726 -0.028859000653028488
v 0.11146499961614609 0.01119800005108118 -0.03388400003314018
v 0.10341999679803848 0.011211000382900238 -0.035048000514507294
v 0.09739500284194946 0.011219999752938747 -0.0357929989695549
v 0.09517800062894821 0.011223999783396721 -0.03510500118136406
v 0.09613200277090073 0.011220999993383884 -0.03043000027537346
v 0.09348099678754807 0.011223999783396721 -0.026201000437140465
v 0.09346099942922592 0.011222999542951584 -0.023919999599456787
v 0.09584400057792664 0.011219000443816185 -0.02267500013113022
v 0.09785500168800354 0.011215999722480774 -0.023653000593185425
v 0.10244700312614441 0.011208999902009964 -0.02341499924659729
v 0.10680700093507767 0.011200999841094017 -0.019346000626683235
v 0.11176899820566177 0.008070000447332859 -0.026277000084519386
v 0.1129089966416359 0.008070000447332859 -0.029503999277949333
v 0.10705699771642685 0.008080000057816505 -0.03339099884033203
v 0.10245899856090546 0.008086999878287315 -0.035027001053094864
v 0.09845799952745438 0.008093000389635563 -0.03357499837875366
v 0.09896299988031387 0.008090999908745289 -0.02923399955034256
v 0.10122500360012054 0.008086999878287315 -0.027310999110341072
v 0.10786599665880203 0.008077000267803669 -0.027536999434232712
v 0.10572200268507004 0.006517999805510044 -0.0305160004645586
v 0.10632000118494034 0.025885000824928284 -0.01382100023329258
v 0.1057170033454895 0.016328999772667885 -0.010297000408172607
v 0.10591399669647217 0.021828999742865562 -0.01145000010728836
v 0.10524000227451324 0.02794799953699112 -0.007519000209867954
v 0.10503199696540833 0.030973000451922417 -0.006298999767750502
v 0.10531000047922134 0.033998001366853714 -0.007926000282168388
v 0.10608799755573273 0.03324199840426445 -0.012466000393033028
v 0.10688900202512741 0.0324850007891655 -0.017141999676823616
v 0.10729599744081497 0.027055000886321068 -0.019512999802827835
v 0.1067970022559166 0.020935000851750374 -0.016598999500274658
v 0.10613500326871872 0.01619100011885166 -0.012737000361084938
v 0.10058800131082535 0.01935500092804432 -0.010897999629378319
v 0.10065700113773346 0.023754000663757324 -0.011304999701678753
v 0.09997200220823288 0.031178999692201614 -0.007306999992579222
v 0.09962300211191177 0.03289800137281418 -0.005274000111967325
v 0.09982100129127502 0.03784799948334694 -0.006424999795854092
v 0.10111100226640701 0.036472998559474945 -0.01394800003618002
v 0.10206300020217896 0.0357850007712841 -0.01950399950146675
v 0.10234300047159195 0.03172900155186653 -0.021129999309778214
v 0.10245800018310547 0.028842000290751457 -0.021807000041007996
v 0.10168000310659409 0.02450999990105629 -0.017266999930143356
v 0.10120300203561783 0.019766999408602715 -0.014488999731838703
v 0.09544800221920013 0.02079799957573414 -0.011428999714553356
v 0.09549500048160553 0.027192000299692154 -0.011700999923050404
v 0.09497100114822388 0.0320729985833168 -0.008651000447571278
v 0.09459999948740005 0.03413499891757965 -0.00648299977183342
v 0.09464599937200546 0.03736700117588043 -0.0067540002055466175
v 0.09520400315523148 0.03736700117588043 -0.010006999596953392
v 0.095830999314785 0.03784799948334694 -0.013666000217199326
v 0.09663300216197968 0.03606100007891655 -0.018341999500989914
v 0.09683000296354294 0.03262300044298172 -0.019494999200105667
v 0.09642300009727478 0.027055000886321068 -0.017121000215411186
v 0.09612099826335907 0.02230999991297722 -0.0153609998524189
v 0.09019099920988083 0.017978999763727188 -0.011284999549388885
v 0.09001699835062027 0.020661000162363052 -0.010267999954521656
v 0.0898900032043457 0.027466999366879463 -0.0095229996368289
v 0.08941300213336945 0.031867001205682755 -0.006744000129401684
v 0.08936700224876404 0.0348920002579689 -0.006473999936133623
v 0.0909229964017868 0.03544199839234352 -0.015553999692201614
v 0.09139999747276306 0.03145400062203407 -0.018332000821828842
v 0.09081800282001495 0.021278999745845795 -0.014944000169634819
v 0.09051699936389923 0.02794799953699112 -0.013182000257074833
v 0.08915500342845917 0.03244800120592117 0.000007000000096013537
v 0.09729799628257751 0.03182300180196762 0.008170000277459621
v 0.09469199925661087 0.03182300180196762 0.008917000144720078
v 0.08750899881124496 0.03182300180196762 0.004666999913752079
v 0.08096200227737427 0.03182300180196762 0.004718000069260597
v 0.07817800343036652 0.03182300180196762 0.00035700001171790063
v 0.07703299820423126 0.03182300180196762 -0.005747999995946884
v 0.0818910002708435 0.03182300180196762 -0.006666999775916338
v 0.0849749967455864 0.03182300180196762 -0.004726999904960394
v 0.09210799634456635 0.03182300180196762 -0.0059460001066327095
v 0.09742400050163269 0.03182300180196762 -0.005135000217705965
v 0.09936100244522095 0.03182300180196762 -0.0013670000480487943
v 0.09734900295734406 0.03182300180196762 0.003926999866962433
v 0.09848900139331818 0.026197999715805054 0.00825399998575449
v 0.09362799674272537 0.026197999715805054 0.007397000212222338
v 0.0891219973564148 0.026197999715805054 0.0023509999737143517
v 0.08427900075912476 0.026197999715805054 0.0039079999551177025
v 0.0808349996805191 0.026197999715805054 0.002919000107795
v 0.0800279974937439 0.026197999715805054 -0.0007779999868944287
v 0.07851699739694595 0.026197999715805054 -0.004089999943971634
v 0.08130499720573425 0.026197999715805054 -0.004422999918460846
v 0.08495400100946426 0.026197999715805054 -0.005683000199496746
v 0.09018699824810028 0.026197999715805054 -0.0036830001045018435
v 0.09656299650669098 0.026197999715805054 -0.003129000077024102
v 0.09825699776411057 0.026197999715805054 -0.0019420000026002526
v 0.09800100326538086 0.026197999715805054 0.003470999887213111
v 0.09852299839258194 0.019948000088334084 0.008067999966442585
v 0.09465199708938599 0.019948000088334084 0.007703999988734722
v 0.08895999938249588 0.019948000088334084 0.0032740000169724226
v 0.08611000329256058 0.019948000088334084 0.004674999974668026
v 0.08296100050210953 0.019948000088334084 0.0020240000449121
v 0.0799190029501915 0.019948000088334084 -0.0001610000035725534
v 0.07972700148820877 0.019948000088334084 -0.0037479999009519815
v 0.08366300165653229 0.019948000088334084 -0.0037529999390244484
v 0.08974099904298782 0.019948000088334084 -0.0011579999700188637
v 0.0961420014500618 0.019948000088334084 -0.000029999999242136255
v 0.09719700366258621 0.019948000088334084 0.002630000002682209
v 0.09328299760818481 0.013698000460863113 0.0035910001024603844
v 0.08815599977970123 0.013698000460863113 0.002432999899610877
v 0.08509700000286102 0.013698000460863113 0.003226999891921878
v 0.08169999718666077 0.013698000460863113 -0.0016240000259131193
v 0.0843610018491745 0.013698000460863113 -0.003756999969482422
v 0.08769100159406662 0.013698000460863113 -0.0028520000632852316
v 0.08959999680519104 0.013698000460863113 -0.00035799999022856355
v 0.0936259999871254 0.013698000460863113 0.0009219999774359167
v 0.08854000270366669 0.012134999968111515 0.0009769999887794256
v 0.05909400060772896 0.01840299926698208 0.021486999467015266
v 0.059275999665260315 0.015652000904083252 0.020450999960303307
v 0.06059499830007553 0.020748000591993332 0.021877000108361244
v 0.06024099886417389 0.017545999959111214 0.023887999355793
v 0.05986500158905983 0.015515999868512154 0.026020999997854233
v 0.06056300178170204 0.011320999823510647 0.022059999406337738
v 0.061239998787641525 0.01271899975836277 0.018221000209450722
v 0.06137999892234802 0.016598999500274658 0.01742899976670742
v 0.06588499993085861 0.02611600048840046 0.01860000006854534
v 0.06553000211715698 0.019485000520944595 0.020610999315977097
v 0.06494999676942825 0.016011999920010567 0.02390100061893463
v 0.06458500027656555 0.012404000386595726 0.02597299963235855
v 0.06511200219392776 0.009968000464141369 0.022987000644207
v 0.06578800082206726 0.010553999803960323 0.019147999584674835
v 0.06646499782800674 0.012041999958455563 0.015309999696910381
v 0.06741099804639816 0.009878000244498253 0.009948000311851501
v 0.0682699978351593 0.009968000464141369 0.005073000211268663
v 0.06850600242614746 0.016101999208331108 0.0037320000119507313
v 0.06780800223350525 0.02201100066304207 0.007691999897360802
v 0.06673400104045868 0.025529999285936356 0.013786000199615955
v 0.07232300192117691 0.029318999499082565 0.017722999677062035
v 0.07160300016403198 0.028958000242710114 0.021807000041007996
v 0.07125899940729141 0.025167999789118767 0.023757999762892723
v 0.07104399800300598 0.018223000690340996 0.024974999949336052
v 0.07111900299787521 0.012810000218451023 0.024548999965190887
v 0.07186000049114227 0.010374000295996666 0.02034500055015087
v 0.07294599711894989 0.010553999803960323 0.014190999791026115
v 0.07443899661302567 0.008117999881505966 0.005721000023186207
v 0.07490099966526031 0.009878000244498253 0.003100000089034438
v 0.07454700022935867 0.014252999797463417 0.005111999809741974
v 0.07482600212097168 0.02232700027525425 0.003527000080794096
v 0.07468599826097488 0.025349000468850136 0.004317999817430973
v 0.07362300157546997 0.029363999143242836 0.010351000353693962
v 0.07869499921798706 0.02611600048840046 0.01721400022506714
v 0.07785700261592865 0.023770000785589218 0.021966999396681786
v 0.07737299799919128 0.018042000010609627 0.024709999561309814
v 0.07737299799919128 0.013306000269949436 0.024709999561309814
v 0.07745999842882156 0.009968000464141369 0.02422099933028221
v 0.07811500132083893 0.00861399993300438 0.02050499990582466
v 0.07925300300121307 0.009607000276446342 0.014046000316739082
v 0.08047900348901749 0.007938000373542309 0.0071000000461936
v 0.08095099776983261 0.00685499981045723 0.004418000113219023
v 0.08105900138616562 0.00802799966186285 0.00380899989977479
v 0.08078999817371368 0.014252999797463417 0.005332000087946653
v 0.08091899752616882 0.021335000172257423 0.004600999876856804
v 0.08078999817371368 0.023499999195337296 0.005332000087946653
v 0.07961899787187576 0.026521999388933182 0.011974000371992588
v 0.08527299761772156 0.025709999725222588 0.015545999631285667
v 0.08474600315093994 0.02232700027525425 0.018533999100327492
v 0.08415500074625015 0.01641800068318844 0.021883999928832054
v 0.08386500179767609 0.01380200032144785 0.02352900058031082
v 0.0838330015540123 0.010192999616265297 0.023713000118732452
v 0.08501400053501129 0.010553999803960323 0.017009999603033066
v 0.08595000207424164 0.009607000276446342 0.011707999743521214
v 0.0865510031580925 0.009607000276446342 0.008295999839901924
v 0.08678799867630005 0.012539000250399113 0.006955000106245279
v 0.08643300086259842 0.017635999247431755 0.008965999819338322
v 0.08645399659872055 0.0240860003978014 0.008844999596476555
v 0.08604700118303299 0.025529999285936356 0.011158999986946583
v 0.08525100350379944 0.02575499936938286 0.015668999403715134
v 0.08611900359392166 0.017319999635219574 0.01431300025433302
v 0.08864600211381912 0.02649500034749508 -0.038047999143600464
v 0.09442800283432007 0.028315000236034393 -0.03345600143074989
v 0.09106799960136414 0.03364799916744232 -0.03502099961042404
v 0.08388300240039825 0.03131899982690811 -0.03837199881672859
v 0.08349700272083282 0.02777400054037571 -0.03855299949645996
v 0.08203300088644028 0.024845000356435776 -0.03923499956727028
v 0.0832889974117279 0.021699000149965286 -0.038649000227451324
v 0.08929800242185593 0.020535999909043312 -0.03584799915552139
v 0.09133300185203552 0.022004999220371246 -0.03489900007843971
v 0.09219399839639664 0.027807999402284622 -0.02880699932575226
v 0.09087400138378143 0.03252900019288063 -0.02942200005054474
v 0.08910500258207321 0.03719199821352959 -0.03024899959564209
v 0.0857049971818924 0.03740699961781502 -0.03183300048112869
v 0.0838410034775734 0.03571299836039543 -0.03270300105214119
v 0.0805639997124672 0.03311600163578987 -0.03423000127077103
v 0.08244699984788895 0.028790000826120377 -0.033351998776197433
v 0.08246999979019165 0.021927999332547188 -0.03334200009703636
v 0.08061400055885315 0.01792900077998638 -0.03420799970626831
v 0.08419200032949448 0.0145650003105402 -0.0325389988720417
v 0.08696600049734116 0.015192000195384026 -0.031245000660419464
v 0.0896650031208992 0.021275000646710396 -0.029986999928951263
v 0.09195200353860855 0.02708600088953972 -0.021333999931812286
v 0.09204799681901932 0.03259899839758873 -0.021289000287652016
v 0.09157399833202362 0.039122000336647034 -0.021510999649763107
v 0.08805999904870987 0.03995500132441521 -0.023149000480771065
v 0.08386900275945663 0.03971699997782707 -0.02510399930179119
v 0.08019199967384338 0.03824299946427345 -0.02681799978017807
v 0.07985900342464447 0.03604700043797493 -0.02697400003671646
v 0.08169399946928024 0.028797000646591187 -0.026117999106645584
v 0.08064000308513641 0.021988000720739365 -0.02660899981856346
v 0.07720399647951126 0.015957999974489212 -0.02821199968457222
v 0.07970499992370605 0.013659000396728516 -0.027046000584959984
v 0.08276399970054626 0.013106999918818474 -0.02561900019645691
v 0.08688899874687195 0.01649400033056736 -0.023694999516010284
v 0.08936800062656403 0.020045999437570572 -0.02253899909555912
v 0.08943799883127213 0.02854900062084198 -0.014921000227332115
v 0.0890209972858429 0.035241998732089996 -0.01511599961668253
v 0.08640599995851517 0.03827099874615669 -0.016334999352693558
v 0.08244799822568893 0.03595200181007385 -0.018182000145316124
v 0.07905100286006927 0.03549100086092949 -0.019765999168157578
v 0.07560600340366364 0.032499998807907104 -0.021371999755501747
v 0.07686900347471237 0.026934999972581863 -0.020781999453902245
v 0.07614400237798691 0.023445000872015953 -0.02112100087106228
v 0.07972799986600876 0.018563000485301018 -0.01944899931550026
v 0.08204899728298187 0.018570000305771828 -0.018365999683737755
v 0.08373700082302094 0.02234400063753128 -0.017580000683665276
v 0.08539800345897675 0.029164999723434448 -0.009219000115990639
v 0.08589500188827515 0.03327300027012825 -0.008988000452518463
v 0.0831110030412674 0.03596299886703491 -0.010286999866366386
v 0.0776199996471405 0.03487800061702728 -0.012846999801695347
v 0.07366099953651428 0.03323400020599365 -0.014692000113427639
v 0.0710040032863617 0.03153799846768379 -0.01593099907040596
v 0.07163500040769577 0.028783999383449554 -0.015637999400496483
v 0.0770300030708313 0.024243999272584915 -0.013120999559760094
v 0.07913199812173843 0.022451000288128853 -0.012140999548137188
v 0.08133599907159805 0.023920999839901924 -0.011113000102341175
v 0.07864300161600113 0.028927000239491463 -0.004784000106155872
v 0.07750499993562698 0.030274000018835068 -0.005313999950885773
v 0.07387600094079971 0.030937999486923218 -0.00700599979609251
v 0.06980200111865997 0.029968999326229095 -0.008906000293791294
v 0.07388699799776077 0.027674999088048935 -0.007000999990850687
v 0.07762899994850159 0.026843000203371048 -0.0052559999749064445
v 0.0751969963312149 0.02852500043809414 -0.0044929999858140945
v -0.009800000116229057 0.006446999963372946 -0.006333999801427126
v -0.008844999596476555 0.009352000430226326 -0.003246000036597252
v -0.007965999655425549 0.008534999564290047 -0.006963000167161226
v -0.005553000140935183 0.0035810000263154507 -0.013011000119149685
v -0.0045540002174675465 0.0017290000105276704 -0.015819000080227852
v -0.005791999865323305 0.002437999937683344 -0.009879999794065952
v -0.007385000120848417 0.0048870001919567585 -0.004639000166207552
v -0.008750000037252903 0.008045000024139881 -0.0017709999810904264
v -0.005386000033468008 0.018339000642299652 0.002248999895527959
v -0.004960999824106693 0.019644999876618385 -0.002182000083848834
v -0.00203000009059906 0.016106000170111656 -0.01334100030362606
v 0.00036899998667649925 0.010553999803960323 -0.018377000465989113
v 0.0034719998948276043 0.0012989999959245324 -0.02170100063085556
v 0.005396000109612942 -0.005125999916344881 -0.02269499935209751
v 0.006054999772459269 -0.008774000220000744 -0.02080100029706955
v 0.004765000194311142 -0.0076299998909235 -0.015254000201821327
v 0.002471999963745475 -0.0053980001248419285 -0.0056940000504255295
v 0.0012150000547990203 -0.002893999917432666 -0.0024250000715255737
v -0.0010939999483525753 0.0026050000451505184 0.002182000083848834
v -0.00430600019171834 0.01218700036406517 0.0056130001321434975
v -0.005200000014156103 0.015944000333547592 0.004885000176727772
v 0.0007740000146441162 0.028379999101161957 0.0037789999041706324
v 0.0009139999747276306 0.02990500070154667 0.0006319999811239541
v 0.002672000089660287 0.02990500070154667 -0.009340000338852406
v 0.004182999953627586 0.027181999757885933 -0.013705999590456486
v 0.005859999917447567 0.022717999294400215 -0.016330000013113022
v 0.00873900018632412 0.014442999847233295 -0.019883999601006508
v 0.011646999977529049 0.006711999885737896 -0.024447999894618988
v 0.013753999955952168 -0.00020199999562464654 -0.02572700008749962
v 0.014986000023782253 -0.006517000030726194 -0.022971000522375107
v 0.01484300009906292 -0.009839000180363655 -0.017031000927090645
v 0.013681000098586082 -0.009511999785900116 -0.010951999574899673
v 0.012404999695718288 -0.0077149998396635056 -0.00648199999704957
v 0.010273000225424767 -0.003959000110626221 -0.0001939999929163605
v 0.008775000460445881 -0.0019450000254437327 0.0051910001784563065
v 0.007818000391125679 0.00028700000257231295 0.007180999964475632
v 0.006331999786198139 0.006167999934405088 0.006535999942570925
v 0.004265999887138605 0.011775000020861626 0.009599000215530396
v 0.003186000045388937 0.014715000055730343 0.01118599995970726
v 0.001943000010214746 0.019505999982357025 0.010840999893844128
v 0.008239000104367733 0.033521998673677444 0.0054779998026788235
v 0.010963000357151031 0.033684998750686646 -0.010226000100374222
v 0.012109000235795975 0.031888000667095184 -0.013957999646663666
v 0.01628500036895275 0.018821999430656433 -0.017474999651312828
v 0.021395999938249588 0.0038499999791383743 -0.023364000022411346
v 0.023138999938964844 -0.0007769999792799354 -0.026102999225258827
v 0.024312999099493027 -0.0056779999285936356 -0.02519799955189228
v 0.024252999573946 -0.008781000040471554 -0.02006799913942814
v 0.023392999544739723 -0.007910000160336494 -0.016537999734282494
v 0.02028599940240383 -0.004153000190854073 -0.00471000000834465
v 0.017761999741196632 -0.0017030000453814864 0.005824000108987093
v 0.016829000785946846 -0.0013770000077784061 0.010608999989926815
v 0.01577400043606758 0.0010189999593421817 0.012899000197649002
v 0.014775999821722507 0.005700999870896339 0.011327000334858894
v 0.013005999848246574 0.012125000357627869 0.011458000168204308
v 0.011349000036716461 0.01778700016438961 0.012117999605834484
v 0.009770000353455544 0.02459299936890602 0.010569999925792217
v 0.016899000853300095 0.03577699884772301 0.004846000112593174
v 0.017004000023007393 0.037356000393629074 0.0018179999897256494
v 0.019300000742077827 0.03724699839949608 -0.011040999554097652
v 0.02044299989938736 0.03534200042486191 -0.01458400022238493
v 0.02179799973964691 0.0309859998524189 -0.015549999661743641
v 0.026402000337839127 0.015306999906897545 -0.017467999830842018
v 0.029823999851942062 0.0055069997906684875 -0.021750999614596367
v 0.030491000041365623 0.0028929999098181725 -0.02150600031018257
v 0.030199000611901283 0.0013699999544769526 -0.017495999112725258
v 0.026774000376462936 0.0014779999619349837 0.0017630000365898013
v 0.02589000016450882 0.0005520000122487545 0.008208000101149082
v 0.02519799955189228 0.0003349999897181988 0.012466000393033028
v 0.023705000057816505 0.004308999981731176 0.014804000034928322
v 0.023250000551342964 0.006812999956309795 0.013518000021576881
v 0.021740999072790146 0.01405400037765503 0.01090299990028143
v 0.018936000764369965 0.02439899928867817 0.010852999985218048
v 0.017395999282598495 0.031422000378370285 0.008743000216782093
v 0.0252470001578331 0.03781500086188316 0.006318000145256519
v 0.025696000084280968 0.03841400146484375 0.0028440000023692846
v 0.027298999950289726 0.03830600157380104 -0.006076999939978123
v 0.02769099920988083 0.039122000336647034 -0.009561000391840935
v 0.030129000544548035 0.03514799848198891 -0.01725500077009201
v 0.031376998871564865 0.03111799992620945 -0.01811400055885315
v 0.03435099869966507 0.01816200092434883 -0.01498700026422739
v 0.03680099919438362 0.01130099967122078 -0.018299000337719917
v 0.03765200078487396 0.007544999942183495 -0.017324000597000122
v 0.03715499863028526 0.007164000067859888 -0.013921000063419342
v 0.035829998552799225 0.004821999929845333 -0.002795000094920397
v 0.035186998546123505 0.0050409999676048756 0.0005189999938011169
v 0.03480000048875809 0.003298999974504113 0.005400999914854765
v 0.03374600037932396 0.004821999929845333 0.009022999554872513
v 0.031640999019145966 0.010212999768555164 0.012648999691009521
v 0.029072999954223633 0.017726000398397446 0.015623999759554863
v 0.027698000892996788 0.02371400035917759 0.014175999909639359
v 0.025654999539256096 0.033351000398397446 0.01089600007981062
v 0.03475699946284294 0.03598799929022789 0.007170999888330698
v 0.035030998289585114 0.03762099891901016 0.003092000028118491
v 0.03784000128507614 0.034790001809597015 -0.008469000458717346
v 0.03959999978542328 0.03408300131559372 -0.017361000180244446
v 0.039879001677036285 0.0358240008354187 -0.0216279998421669
v 0.04056699946522713 0.03457200154662132 -0.023600999265909195
v 0.041696999222040176 0.029836000874638557 -0.022702999413013458
v 0.042146001011133194 0.025263000279664993 -0.018182000145316124
v 0.0436910018324852 0.016279000788927078 -0.013086999766528606
v 0.04429300129413605 0.01399299968034029 -0.012980000115931034
v 0.044550999999046326 0.011869999580085278 -0.011157000437378883
v 0.04385700076818466 0.01268600020557642 -0.008488000370562077
v 0.04385700076818466 0.008330999873578548 -0.0017600000137463212
v 0.043345000594854355 0.007187000010162592 0.0029090000316500664
v 0.04224399849772453 0.00892999954521656 0.006459000054746866
v 0.04046500101685524 0.012958000414073467 0.010333999991416931
v 0.03796600177884102 0.017695000395178795 0.01719300076365471
v 0.03671399876475334 0.021124999970197678 0.019003000110387802
v 0.036277998238801956 0.02569900080561638 0.014419999904930592
v 0.03481400012969971 0.03408300131559372 0.009781000204384327
v 0.043873999267816544 0.033181000500917435 0.011761000379920006
v 0.045451998710632324 0.030566999688744545 0.0068339998833835125
v 0.04674699902534485 0.03034999966621399 -0.0001720000000204891
v 0.046620000153779984 0.033181000500917435 -0.00381199992261827
v 0.04752599820494652 0.034595999866724014 -0.01114100031554699
v 0.047276999801397324 0.0403130017220974 -0.018547000363469124
v 0.04730299860239029 0.04210900142788887 -0.0214610006660223
v 0.04825200140476227 0.04303500056266785 -0.02827499993145466
v 0.04912300035357475 0.04080300033092499 -0.029771000146865845
v 0.051378000527620316 0.029751000925898552 -0.025503000244498253
v 0.051968999207019806 0.0271380003541708 -0.024826999753713608
v 0.05178799852728844 0.024904999881982803 -0.020354000851511955
v 0.05133200064301491 0.021530000492930412 -0.012563000433146954
v 0.05241699889302254 0.015650000423192978 -0.00964299961924553
v 0.05251999944448471 0.012384000234305859 -0.0051830001175403595
v 0.05246900022029877 0.010478000156581402 -0.001955999992787838
v 0.05099400132894516 0.010967999696731567 0.005654999986290932
v 0.048850998282432556 0.015922000631690025 0.010162999853491783
v 0.04695799946784973 0.01951500028371811 0.015350000001490116
v 0.04563099890947342 0.021421000361442566 0.019941000267863274
v 0.044805001467466354 0.024468999356031418 0.01992099918425083
v 0.044280000030994415 0.029751000925898552 0.014752999879419804
v 0.05257200077176094 0.033312998712062836 0.014183999970555305
v 0.05270100012421608 0.03402100130915642 0.012365000322461128
v 0.05365699902176857 0.0348379984498024 0.005679000169038773
v 0.05378799885511398 0.03717799857258797 0.001323999953456223
v 0.055298998951911926 0.034129999577999115 -0.002535999985411763
v 0.057502999901771545 0.03244199976325035 -0.012427999638020992
v 0.05893399938941002 0.030100999400019646 -0.01693500019609928
v 0.059484999626874924 0.027434000745415688 -0.015949999913573265
v 0.05907300114631653 0.026944000273942947 -0.012849000282585621
v 0.05952699854969978 0.0220979992300272 -0.007946000434458256
v 0.06007099896669388 0.015673000365495682 -0.0011230000527575612
v 0.05959700047969818 0.011590000241994858 0.007868999615311623
v 0.05873899906873703 0.011590000241994858 0.012732000090181828
v 0.057996999472379684 0.013333000242710114 0.01425199955701828
v 0.05701899901032448 0.01806900091469288 0.012490999884903431
v 0.05537400022149086 0.022696999832987785 0.014677000232040882
v 0.053536999970674515 0.027434000745415688 0.017781000584363937
v 0.05302700027823448 0.03048199974000454 0.015977000817656517
v 0.06002800166606903 0.03299099951982498 0.011371999979019165
v 0.06010099872946739 0.036747999489307404 0.005164999980479479
v 0.06065800040960312 0.0370200015604496 0.0015829999465495348
v 0.06305599957704544 0.03299099951982498 -0.005801000166684389
v 0.06401100009679794 0.03097599931061268 -0.008105999790132046
v 0.0654589980840683 0.02569499984383583 -0.008167999796569347
v 0.0657379999756813 0.02406200021505356 -0.007230999879539013
v 0.06409700214862823 0.028635000810027122 -0.004982000216841698
v 0.06279700249433517 0.030268000438809395 -0.0001340000017080456
v 0.061771001666784286 0.029342999681830406 0.007110999897122383
v 0.061480000615119934 0.028145000338554382 0.010613000020384789
v 0.06095900014042854 0.02830900065600872 0.013313000090420246
v 0.06041400134563446 0.03005100041627884 0.01372500043362379
v 0.06265699863433838 0.033337000757455826 0.00891599990427494
v 0.06307599693536758 0.03611399978399277 0.002263000002130866
v 0.06436900049448013 0.03388100117444992 -0.0016339999856427312
f 14 2 1
f 14 15 3
f 14 3 2
f 15 16 4
f 15 4 3
f 16 17 5
f 16 5 4
f 17 18 5
f 18 6 5
f 18 19 6
f 19 7 6
f 19 20 7
f 20 8 7
f 20 21 8
f 21 9 8
f 21 22 10
f 21 10 9
f 22 23 11
f 22 11 10
f 23 24 12
f 23 12 11
f 24 13 12
f 25 14 1
f 25 26 15
f 25 15 14
f 26 27 16
f 26 16 15
f 27 28 17
f 27 17 16
f 28 29 17
f 29 18 17
f 29 30 18
f 30 19 18
f 30 31 19
f 31 20 19
f 31 32 20
f 32 21 20
f 32 33 22
f 32 22 21
f 33 34 23
f 33 23 22
f 34 35 24
f 34 24 23
f 35 13 24
f 36 25 1
f 36 37 26
f 36 26 25
f 37 38 27
f 37 27 26
f 38 39 27
f 39 28 27
f 39 40 29
f 39 29 28
f 40 41 30
f 40 30 29
f 41 42 31
f 41 31 30
f 42 43 32
f 42 32 31
f 43 44 33
f 43 33 32
f 44 45 34
f 44 34 33
f 45 46 34
f 46 35 34
f 46 13 35
f 47 36 1
f 47 48 36
f 48 37 36
f 48 49 37
f 49 38 37
f 49 50 39
f 49 39 38
f 50 51 39
f 51 40 39
f 51 52 40
f 52 41 40
f 52 53 41
f 53 42 41
f 53 54 42
f 54 43 42
f 54 55 43
f 55 44 43
f 55 56 44
f 56 45 44
f 56 57 45
f 57 46 45
f 57 13 46
f 58 47 1
f 58 59 47
f 59 48 47
f 59 60 48
f 60 49 48
f 60 61 49
f 61 50 49
f 61 62 50
f 62 51 50
f 62 63 51
f 63 52 51
f 63 64 52
f 64 53 52
f 64 65 53
f 65 54 53
f 65 66 54
f 66 55 54
f 66 67 55
f 67 56 55
f 67 68 56
f 68 57 56
f 68 13 57
f 69 58 1
f 69 70 59
f 69 59 58
f 70 71 60
f 70 60 59
f 71 72 61
f 71 61 60
f 72 73 62
f 72 62 61
f 73 74 63
f 73 63 62
f 74 75 64
f 74 64 63
f 75 76 65
f 75 65 64
f 76 77 66
f 76 66 65
f 77 78 67
f 77 67 66
f 78 79 67
f 79 68 67
f 79 13 68
f 80 69 1
f 80 81 70
f 80 70 69
f 81 82 71
f 81 71 70
f 82 83 72
f 82 72 71
f 83 84 73
f 83 73 72
f 84 85 74
f 84 74 73
f 85 86 75
f 85 75 74
f 86 87 76
f 86 76 75
f 87 88 77
f 87 77 76
f 88 89 77
f 89 78 77
f 89 90 78
f 90 79 78
f 90 13 79
f 91 80 1
f 91 92 80
f 92 81 80
f 92 93 81
f 93 82 81
f 93 94 82
f 94 83 82
f 94 95 83
f 95 84 83
f 95 96 84
f 96 85 84
f 96 97 85
f 97 86 85
f 97 98 86
f 98 87 86
f 98 99 87
f 99 88 87
f 99 100 88
f 100 89 88
f 100 101 90
f 100 90 89
f 101 13 90
f 102 91 1
f 102 103 91
f 103 92 91
f 103 104 92
f 104 93 92
f 104 105 93
f 105 94 93
f 105 106 94
f 106 95 94
f 106 107 95
f 107 96 95
f 107 108 97
f 107 97 96
f 108 109 98
f 108 98 97
f 109 110 98
f 110 99 98
f 110 111 99
f 111 100 99
f 111 112 101
f 111 101 100
f 112 13 101
f 2 102 1
f 2 3 102
f 3 103 102
f 3 4 103
f 4 104 103
f 4 5 104
f 5 105 104
f 5 6 105
f 6 106 105
f 6 7 106
f 7 107 106
f 7 8 108
f 7 108 107
f 8 9 109
f 8 109 108
f 9 10 109
f 10 110 109
f 10 11 111
f 10 111 110
f 11 12 111
f 12 112 111
f 12 13 112
f 126 114 113
f 126 127 114
f 127 115 114
f 127 128 115
f 128 116 115
f 128 129 116
f 129 117 116
f 129 130 117
f 130 118 117
f 130 131 118
f 131 119 118
f 131 132 119
f 132 120 119
f 132 133 120
f 133 121 120
f 133 134 121
f 134 122 121
f 134 135 122
f 135 123 122
f 135 136 124
f 135 124 123
f 136 125 124
f 137 126 113
f 137 138 126
f 138 127 126
f 138 139 127
f 139 128 127
f 139 140 128
f 140 129 128
f 140 141 129
f 141 130 129
f 141 142 130
f 142 131 130
f 142 143 131
f 143 132 131
f 143 144 132
f 144 133 132
f 144 145 133
f 145 134 133
f 145 146 134
f 146 135 134
f 147 136 146
f 135 146 136
f 147 125 136
f 148 137 113
f 148 149 138
f 148 138 137
f 149 150 139
f 149 139 138
f 150 151 140
f 150 140 139
f 151 152 141
f 151 141 140
f 152 153 142
f 152 142 141
f 153 154 143
f 153 143 142
f 154 155 144
f 154 144 143
f 155 156 145
f 155 145 144
f 156 157 146
f 156 146 145
f 157 158 147
f 157 147 146
f 158 125 147
f 159 148 113
f 159 160 149
f 159 149 148
f 160 161 149
f 161 150 149
f 161 162 150
f 162 151 150
f 162 163 152
f 162 152 151
f 163 164 153
f 163 153 152
f 164 165 154
f 164 154 153
f 165 166 155
f 165 155 154
f 166 167 155
f 167 156 155
f 167 168 156
f 168 157 156
f 168 169 157
f 169 158 157
f 169 125 158
f 170 159 113
f 170 171 160
f 170 160 159
f 171 172 160
f 172 161 160
f 172 173 161
f 173 162 161
f 173 174 163
f 173 163 162
f 174 175 164
f 174 164 163
f 175 176 165
f 175 165 164
f 176 177 166
f 176 166 165
f 177 178 166
f 178 167 166
f 178 179 167
f 179 168 167
f 179 180 168
f 180 169 168
f 180 125 169
f 181 170 113
f 181 182 171
f 181 171 170
f 182 183 172
f 182 172 171
f 183 184 173
f 183 173 172
f 184 185 174
f 184 174 173
f 185 186 175
f 185 175 174
f 186 187 176
f 186 176 175
f 187 188 177
f 187 177 176
f 188 189 178
f 188 178 177
f 189 190 179
f 189 179 178
f 190 191 179
f 191 180 179
f 191 125 180
f 192 181 113
f 192 193 182
f 192 182 181
f 193 194 183
f 193 183 182
f 194 195 184
f 194 184 183
f 195 196 185
f 195 185 184
f 196 197 186
f 196 186 185
f 197 198 187
f 197 187 186
f 198 199 188
f 198 188 187
f 199 200 189
f 199 189 188
f 200 201 190
f 200 190 189
f 201 202 190
f 202 191 190
f 202 125 191
f 203 192 113
f 203 204 192
f 204 193 192
f 204 205 193
f 205 194 193
f 205 206 194
f 206 195 194
f 206 207 195
f 207 196 195
f 207 208 196
f 208 197 196
f 208 209 197
f 209 198 197
f 209 210 198
f 210 199 198
f 210 211 199
f 211 200 199
f 211 212 200
f 212 201 200
f 212 213 201
f 213 202 201
f 213 125 202
f 214 203 113
f 214 215 203
f 215 204 203
f 215 216 205
f 215 205 204
f 216 217 206
f 216 206 205
f 217 218 207
f 217 207 206
f 218 219 208
f 218 208 207
f 219 220 209
f 219 209 208
f 220 221 210
f 220 210 209
f 221 222 211
f 221 211 210
f 222 223 212
f 222 212 211
f 223 224 213
f 223 213 212
f 224 125 213
f 114 214 113
f 114 115 215
f 114 215 214
f 115 116 216
f 115 216 215
f 116 117 217
f 116 217 216
f 117 118 218
f 117 218 217
f 118 119 219
f 118 219 218
f 119 120 220
f 119 220 219
f 120 121 221
f 120 221 220
f 121 122 222
f 121 222 221
f 122 123 223
f 122 223 222
f 123 124 224
f 123 224 223
f 124 125 224
f 238 226 225
f 238 239 226
f 239 227 226
f 239 240 227
f 240 228 227
f 240 241 228
f 241 229 228
f 241 242 229
f 242 230 229
f 242 243 231
f 242 231 230
f 243 244 232
f 243 232 231
f 244 245 232
f 245 233 232
f 245 246 233
f 246 234 233
f 246 247 234
f 247 235 234
f 247 248 235
f 248 236 235
f 248 237 236
f 249 238 225
f 249 250 238
f 250 239 238
f 250 251 239
f 251 240 239
f 251 252 240
f 252 241 240
f 252 253 242
f 252 242 241
f 253 254 243
f 253 243 242
f 254 255 244
f 254 244 243
f 255 256 244
f 256 245 244
f 256 257 245
f 257 246 245
f 257 258 246
f 258 247 246
f 258 259 247
f 259 248 247
f 259 237 248
f 260 249 225
f 260 261 250
f 260 250 249
f 261 262 251
f 261 251 250
f 262 263 252
f 262 252 251
f 263 264 253
f 263 253 252
f 264 265 254
f 264 254 253
f 265 266 255
f 265 255 254
f 266 267 256
f 266 256 255
f 267 268 257
f 267 257 256
f 268 269 258
f 268 258 257
f 269 270 259
f 269 259 258
f 270 237 259
f 271 260 225
f 271 272 260
f 272 261 260
f 272 273 262
f 272 262 261
f 273 274 263
f 273 263 262
f 274 275 264
f 274 264 263
f 275 276 264
f 276 265 264
f 276 277 265
f 277 266 265
f 277 278 267
f 277 267 266
f 278 279 267
f 279 268 267
f 279 280 268
f 280 269 268
f 280 281 269
f 281 270 269
f 281 237 270
f 282 271 225
f 282 283 271
f 283 272 271
f 283 284 273
f 283 273 272
f 284 285 274
f 284 274 273
f 285 286 275
f 285 275 274
f 286 287 275
f 287 276 275
f 287 288 276
f 288 277 276
f 288 289 278
f 288 278 277
f 289 290 278
f 290 279 278
f 290 291 279
f 291 280 279
f 291 292 280
f 292 281 280
f 292 237 281
f 293 282 225
f 293 294 283
f 293 283 282
f 294 295 284
f 294 284 283
f 295 296 285
f 295 285 284
f 296 297 286
f 296 286 285
f 297 298 287
f 297 287 286
f 298 299 288
f 298 288 287
f 299 300 289
f 299 289 288
f 300 301 290
f 300 290 289
f 301 302 291
f 301 291 290
f 302 303 292
f 302 292 291
f 303 237 292
f 304 293 225
f 304 305 294
f 304 294 293
f 305 306 295
f 305 295 294
f 306 307 296
f 306 296 295
f 307 308 297
f 307 297 296
f 308 309 298
f 308 298 297
f 309 310 299
f 309 299 298
f 310 311 300
f 310 300 299
f 311 312 301
f 311 301 300
f 312 313 302
f 312 302 301
f 313 314 302
f 314 303 302
f 314 237 303
f 315 304 225
f 315 316 304
f 316 305 304
f 316 317 305
f 317 306 305
f 317 318 306
f 318 307 306
f 318 319 307
f 319 308 307
f 319 320 308
f 320 309 308
f 320 321 309
f 321 310 309
f 321 322 310
f 322 311 310
f 322 323 311
f 323 312 311
f 323 324 312
f 324 313 312
f 324 325 314
f 324 314 313
f 325 237 314
f 326 315 225
f 326 327 315
f 327 316 315
f 327 328 316
f 328 317 316
f 328 329 317
f 329 318 317
f 329 330 318
f 330 319 318
f 330 331 319
f 331 320 319
f 331 332 320
f 332 321 320
f 332 333 321
f 333 322 321
f 333 334 323
f 333 323 322
f 334 335 324
f 334 324 323
f 335 336 325
f 335 325 324
f 336 237 325
f 226 326 225
f 226 227 326
f 227 327 326
f 227 228 327
f 228 328 327
f 228 229 328
f 229 329 328
f 229 230 329
f 230 330 329
f 230 231 330
f 231 331 330
f 231 232 331
f 232 332 331
f 232 233 332
f 233 333 332
f 233 234 334
f 233 334 333
f 234 235 335
f 234 335 334
f 235 236 336
f 235 336 335
f 236 237 336
f 350 338 337
f 350 351 338
f 351 339 338
f 351 352 339
f 352 340 339
f 352 353 340
f 353 341 340
f 353 354 341
f 354 342 341
f 354 355 343
f 354 343 342
f 355 356 344
f 355 344 343
f 356 357 345
f 356 345 344
f 357 358 346
f 357 346 345
f 358 359 347
f 358 347 346
f 359 360 347
f 360 348 347
f 360 349 348
f 361 350 337
f 361 362 350
f 362 351 350
f 362 363 351
f 363 352 351
f 363 364 353
f 363 353 352
f 364 365 353
f 365 354 353
f 365 366 355
f 365 355 354
f 366 367 356
f 366 356 355
f 367 368 357
f 367 357 356
f 368 369 358
f 368 358 357
f 369 370 359
f 369 359 358
f 370 371 359
f 371 360 359
f 371 349 360
f 372 361 337
f 372 373 362
f 372 362 361
f 373 374 363
f 373 363 362
f 374 375 363
f 375 364 363
f 375 376 365
f 375 365 364
f 376 377 365
f 377 366 365
f 377 378 366
f 378 367 366
f 378 379 368
f 378 368 367
f 379 380 368
f 380 369 368
f 380 381 369
f 381 370 369
f 381 382 370
f 382 371 370
f 382 349 371
f 383 372 337
f 383 384 373
f 383 373 372
f 384 385 374
f 384 374 373
f 385 386 374
f 386 375 374
f 386 387 376
f 386 376 375
f 387 388 376
f 388 377 376
f 388 389 377
f 389 378 377
f 389 390 378
f 390 379 378
f 390 391 379
f 391 380 379
f 391 392 380
f 392 381 380
f 392 393 381
f 393 382 381
f 393 349 382
f 394 383 337
f 394 395 384
f 394 384 383
f 395 396 385
f 395 385 384
f 396 397 385
f 397 386 385
f 397 398 387
f 397 387 386
f 398 399 387
f 399 388 387
f 399 400 388
f 400 389 388
f 400 401 389
f 401 390 389
f 401 402 390
f 402 391 390
f 402 403 391
f 403 392 391
f 403 404 392
f 404 393 392
f 404 349 393
f 405 394 337
f 405 406 394
f 406 395 394
f 406 407 395
f 407 396 395
f 407 408 396
f 408 397 396
f 408 409 397
f 409 398 397
f 409 410 398
f 410 399 398
f 410 411 400
f 410 400 399
f 411 412 401
f 411 401 400
f 412 413 401
f 413 402 401
f 413 414 402
f 414 403 402
f 414 415 403
f 415 404 403
f 415 349 404
f 416 405 337
f 416 417 405
f 417 406 405
f 417 418 406
f 418 407 406
f 418 419 407
f 419 408 407
f 419 420 408
f 420 409 408
f 420 421 409
f 421 410 409
f 421 422 411
f 421 411 410
f 422 423 412
f 422 412 411
f 423 424 413
f 423 413 412
f 424 425 413
f 425 414 413
f 425 426 414
f 426 415 414
f 426 349 415
f 427 416 337
f 427 428 417
f 427 417 416
f 428 429 417
f 429 418 417
f 429 430 418
f 430 419 418
f 430 431 419
f 431 420 419
f 431 432 421
f 431 421 420
f 432 433 421
f 433 422 421
f 433 434 422
f 434 423 422
f 434 435 423
f 435 424 423
f 435 436 425
f 435 425 424
f 436 437 425
f 437 426 425
f 437 349 426
f 438 427 337
f 438 439 428
f 438 428 427
f 439 440 429
f 439 429 428
f 440 441 430
f 440 430 429
f 441 442 430
f 442 431 430
f 442 443 432
f 442 432 431
f 443 444 433
f 443 433 432
f 444 445 434
f 444 434 433
f 445 446 435
f 445 435 434
f 446 447 436
f 446 436 435
f 447 448 437
f 447 437 436
f 448 349 437
f 338 438 337
f 338 339 439
f 338 439 438
f 339 340 440
f 339 440 439
f 340 341 441
f 340 441 440
f 341 342 441
f 342 442 441
f 342 343 443
f 342 443 442
f 343 344 444
f 343 444 443
f 344 345 445
f 344 445 444
f 345 346 446
f 345 446 445
f 346 347 447
f 346 447 446
f 347 348 448
f 347 448 447
f 348 349 448
f 462 450 449
f 462 463 450
f 463 451 450
f 463 464 451
f 464 452 451
f 464 465 452
f 465 453 452
f 465 466 454
f 465 454 453
f 466 467 455
f 466 455 454
f 467 468 456
f 467 456 455
f 468 469 456
f 469 457 456
f 469 470 457
f 470 458 457
f 470 471 458
f 471 459 458
f 471 472 460
f 471 460 459
f 472 461 460
f 473 462 449
f 473 474 462
f 474 463 462
f 474 475 463
f 475 464 463
f 475 476 464
f 476 465 464
f 476 477 466
f 476 466 465
f 477 478 467
f 477 467 466
f 478 479 468
f 478 468 467
f 479 480 468
f 480 469 468
f 480 481 469
f 481 470 469
f 481 482 470
f 482 471 470
f 482 483 471
f 483 472 471
f 483 461 472
f 484 473 449
f 484 485 473
f 485 474 473
f 485 486 474
f 486 475 474
f 486 487 475
f 487 476 475
f 487 488 476
f 488 477 476
f 488 489 477
f 489 478 477
f 489 490 478
f 490 479 478
f 490 491 479
f 491 480 479
f 491 492 480
f 492 481 480
f 492 493 481
f 493 482 481
f 493 494 482
f 494 483 482
f 494 461 483
f 495 484 449
f 495 496 484
f 496 485 484
f 496 497 485
f 497 486 485
f 497 498 486
f 498 487 486
f 498 499 487
f 499 488 487
f 499 500 488
f 500 489 488
f 500 501 489
f 501 490 489
f 501 502 490
f 502 491 490
f 502 503 491
f 503 492 491
f 503 504 492
f 504 493 492
f 504 505 493
f 505 494 493
f 505 461 494
f 506 495 449
f 506 507 495
f 507 496 495
f 507 508 496
f 508 497 496
f 508 509 497
f 509 498 497
f 509 510 498
f 510 499 498
f 510 511 499
f 511 500 499
f 511 512 500
f 512 501 500
f 512 513 501
f 513 502 501
f 513 514 502
f 514 503 502
f 514 515 503
f 515 504 503
f 515 516 504
f 516 505 504
f 516 461 505
f 517 506 449
f 517 518 507
f 517 507 506
f 518 519 508
f 518 508 507
f 519 520 509
f 519 509 508
f 520 521 510
f 520 510 509
f 521 522 511
f 521 511 510
f 522 523 512
f 522 512 511
f 523 524 513
f 523 513 512
f 524 525 514
f 524 514 513
f 525 526 515
f 525 515 514
f 526 527 516
f 526 516 515
f 527 461 516
f 528 517 449
f 528 529 518
f 528 518 517
f 529 530 519
f 529 519 518
f 530 531 520
f 530 520 519
f 531 532 521
f 531 521 520
f 532 533 522
f 532 522 521
f 533 534 523
f 533 523 522
f 534 535 524
f 534 524 523
f 535 536 525
f 535 525 524
f 536 537 526
f 536 526 525
f 537 538 526
f 538 527 526
f 538 461 527
f 539 528 449
f 539 540 529
f 539 529 528
f 540 541 530
f 540 530 529
f 541 542 531
f 541 531 530
f 542 543 531
f 543 532 531
f 543 544 533
f 543 533 532
f 544 545 534
f 544 534 533
f 545 546 535
f 545 535 534
f 546 547 536
f 546 536 535
f 547 548 537
f 547 537 536
f 548 549 537
f 549 538 537
f 549 461 538
f 550 539 449
f 550 551 539
f 551 540 539
f 551 552 540
f 552 541 540
f 552 553 541
f 553 542 541
f 553 554 542
f 554 543 542
f 554 555 543
f 555 544 543
f 555 556 544
f 556 545 544
f 556 557 545
f 557 546 545
f 557 558 547
f 557 547 546
f 558 559 548
f 558 548 547
f 559 560 548
f 560 549 548
f 560 461 549
f 450 550 449
f 450 451 550
f 451 551 550
f 451 452 551
f 452 552 551
f 452 453 552
f 453 553 552
f 453 454 553
f 454 554 553
f 454 455 554
f 455 555 554
f 455 456 555
f 456 556 555
f 456 457 556
f 457 557 556
f 457 458 558
f 457 558 557
f 458 459 559
f 458 559 558
f 459 460 559
f 460 560 559
f 460 461 560
f 562 563 561
f 563 564 561
f 564 565 561
f 565 566 561
f 566 567 561
f 567 562 561
f 568 569 562
f 569 563 562
f 569 570 563
f 570 564 563
f 570 571 564
f 571 565 564
f 571 572 565
f 572 573 565
f 573 566 565
f 573 574 566
f 574 567 566
f 574 568 567
f 568 562 567
f 575 576 568
f 576 569 568
f 576 577 569
f 577 578 569
f 578 570 569
f 578 579 570
f 579 580 570
f 580 581 570
f 581 571 570
f 581 582 571
f 582 572 571
f 582 583 572
f 583 573 572
f 583 584 573
f 584 585 573
f 585 574 573
f 585 575 574
f 575 568 574
f 586 587 575
f 587 576 575
f 587 577 576
f 587 588 577
f 588 578 577
f 588 589 578
f 589 579 578
f 589 580 579
f 589 590 580
f 590 581 580
f 590 591 581
f 591 582 581
f 591 592 582
f 592 583 582
f 592 593 583
f 593 594 583
f 594 584 583
f 594 595 584
f 595 596 584
f 596 597 584
f 597 585 584
f 597 586 585
f 586 575 585
f 598 587 586
f 598 599 587
f 599 588 587
f 599 600 588
f 600 589 588
f 600 601 589
f 601 590 589
f 601 602 590
f 602 591 590
f 602 603 591
f 603 592 591
f 603 604 592
f 604 593 592
f 604 605 593
f 605 594 593
f 605 606 594
f 606 595 594
f 606 607 595
f 607 608 595
f 608 609 595
f 609 596 595
f 609 610 596
f 610 597 596
f 610 611 597
f 611 586 597
f 611 598 586
f 612 599 598
f 612 613 599
f 613 600 599
f 613 614 600
f 614 601 600
f 614 602 601
f 614 615 602
f 615 603 602
f 615 616 603
f 616 604 603
f 616 605 604
f 616 606 605
f 616 617 606
f 617 607 606
f 617 608 607
f 617 609 608
f 617 618 609
f 618 610 609
f 618 611 610
f 618 619 611
f 619 598 611
f 619 612 598
f 620 613 612
f 620 614 613
f 620 615 614
f 620 616 615
f 620 617 616
f 620 618 617
f 620 619 618
f 620 612 619
f 621 623 622
f 621 624 623
f 621 625 624
f 621 626 625
f 621 627 626
f 621 628 627
f 621 629 628
f 621 630 629
f 621 631 630
f 621 622 631
f 622 633 632
f 622 623 633
f 623 634 633
f 623 624 634
f 624 635 634
f 624 625 635
f 625 636 635
f 625 626 636
f 626 627 636
f 627 637 636
f 627 628 637
f 628 638 637
f 628 639 638
f 628 629 639
f 629 640 639
f 629 630 640
f 630 641 640
f 630 642 641
f 630 631 642
f 631 632 642
f 631 622 632
f 632 633 643
f 633 644 643
f 633 634 644
f 634 645 644
f 634 635 645
f 635 646 645
f 635 636 646
f 636 647 646
f 636 648 647
f 636 637 648
f 637 649 648
f 637 638 649
f 638 650 649
f 638 639 650
f 639 651 650
f 639 640 651
f 640 652 651
f 640 641 652
f 641 653 652
f 641 642 653
f 642 643 653
f 642 632 643
f 643 655 654
f 643 644 655
f 644 656 655
f 644 645 656
f 645 657 656
f 645 646 657
f 646 647 657
f 647 658 657
f 647 648 658
f 648 659 658
f 648 649 659
f 649 650 659
f 650 660 659
f 650 651 660
f 651 652 660
f 652 661 660
f 652 653 661
f 653 654 661
f 653 643 654
f 654 655 662
f 655 656 662
f 656 657 662
f 657 658 662
f 658 659 662
f 659 660 662
f 660 661 662
f 661 654 662
f 663 665 664
f 663 666 665
f 663 667 666
f 663 668 667
f 663 669 668
f 663 670 669
f 663 671 670
f 663 672 671
f 663 673 672
f 663 674 673
f 663 675 674
f 663 664 675
f 664 665 676
f 665 677 676
f 665 666 677
f 666 678 677
f 666 679 678
f 666 667 679
f 667 680 679
f 667 668 680
f 668 681 680
f 668 669 681
f 669 682 681
f 669 683 682
f 669 670 683
f 670 684 683
f 670 671 684
f 671 685 684
f 671 672 685
f 672 686 685
f 672 673 686
f 673 687 686
f 673 674 687
f 674 688 687
f 674 675 688
f 675 664 688
f 664 676 688
f 676 690 689
f 676 677 690
f 677 691 690
f 677 678 691
f 678 692 691
f 678 679 692
f 679 680 692
f 680 693 692
f 680 681 693
f 681 694 693
f 681 682 694
f 682 695 694
f 682 683 695
f 683 696 695
f 683 684 696
f 684 697 696
f 684 685 697
f 685 698 697
f 685 686 698
f 686 687 698
f 687 699 698
f 687 688 699
f 688 689 699
f 688 676 689
f 689 690 700
f 690 701 700
f 690 691 701
f 691 692 701
f 692 702 701
f 692 693 702
f 693 703 702
f 693 694 703
f 694 695 703
f 695 704 703
f 695 696 704
f 696 705 704
f 696 697 705
f 697 706 705
f 697 698 706
f 698 699 706
f 699 707 706
f 699 700 707
f 699 689 700
f 700 701 708
f 701 702 708
f 702 703 708
f 703 704 708
f 704 705 708
f 705 706 708
f 706 707 708
f 707 700 708
f 709 712 711
f 709 713 712
f 709 710 713
f 710 714 713
f 710 715 714
f 710 716 715
f 710 709 716
f 709 711 716
f 711 712 717
f 712 718 717
f 712 713 718
f 713 719 718
f 713 720 719
f 713 721 720
f 713 714 721
f 714 722 721
f 714 723 722
f 714 724 723
f 714 715 724
f 715 725 724
f 715 726 725
f 715 716 726
f 716 727 726
f 716 711 727
f 711 728 727
f 711 717 728
f 717 730 729
f 717 731 730
f 717 718 731
f 718 732 731
f 718 719 732
f 719 733 732
f 719 720 733
f 720 734 733
f 720 721 734
f 721 722 734
f 722 735 734
f 722 723 735
f 723 724 735
f 724 736 735
f 724 725 736
f 725 737 736
f 725 738 737
f 725 726 738
f 726 739 738
f 726 727 739
f 727 740 739
f 727 741 740
f 727 728 741
f 728 729 741
f 728 717 729
f 729 730 742
f 730 743 742
f 730 731 743
f 731 744 743
f 731 732 744
f 732 745 744
f 732 733 745
f 733 746 745
f 733 734 746
f 734 747 746
f 734 735 747
f 735 748 747
f 735 749 748
f 735 736 749
f 736 750 749
f 736 737 750
f 737 751 750
f 737 738 751
f 738 752 751
f 738 739 752
f 739 753 752
f 739 740 753
f 740 754 753
f 740 741 754
f 741 755 754
f 741 729 755
f 729 742 755
f 742 757 756
f 742 743 757
f 743 744 757
f 744 758 757
f 744 745 758
f 745 759 758
f 745 746 759
f 746 760 759
f 746 747 760
f 747 761 760
f 747 748 761
f 748 762 761
f 748 749 762
f 749 763 762
f 749 750 763
f 750 751 763
f 751 764 763
f 751 752 764
f 752 765 764
f 752 753 765
f 753 766 765
f 753 754 766
f 754 767 766
f 754 755 767
f 755 768 767
f 755 756 768
f 755 742 756
f 756 757 769
f 757 758 769
f 758 759 769
f 759 760 769
f 760 761 769
f 761 762 769
f 762 763 769
f 763 764 769
f 764 765 769
f 765 766 769
f 766 767 769
f 767 768 769
f 768 756 769
f 770 772 771
f 770 773 772
f 770 774 773
f 770 775 774
f 770 776 775
f 770 777 776
f 770 778 777
f 770 771 778
f 771 780 779
f 771 772 780
f 772 781 780
f 772 782 781
f 772 773 782
f 773 783 782
f 773 784 783
f 773 785 784
f 773 774 785
f 774 786 785
f 774 775 786
f 775 787 786
f 775 776 787
f 776 788 787
f 776 777 788
f 777 789 788
f 777 778 789
f 778 790 789
f 778 771 790
f 771 779 790
f 779 792 791
f 779 780 792
f 780 793 792
f 780 781 793
f 781 794 793
f 781 795 794
f 781 782 795
f 782 783 795
f 783 796 795
f 783 797 796
f 783 784 797
f 784 785 797
f 785 798 797
f 785 786 798
f 786 799 798
f 786 800 799
f 786 787 800
f 787 801 800
f 787 788 801
f 788 802 801
f 788 789 802
f 789 803 802
f 789 790 803
f 790 804 803
f 790 791 804
f 790 779 791
f 791 792 805
f 792 806 805
f 792 793 806
f 793 807 806
f 793 794 807
f 794 808 807
f 794 795 808
f 795 809 808
f 795 796 809
f 796 797 809
f 797 810 809
f 797 798 810
f 798 811 810
f 798 799 811
f 799 812 811
f 799 800 812
f 800 801 812
f 801 813 812
f 801 802 813
f 802 814 813
f 802 803 814
f 803 815 814
f 803 804 815
f 804 805 815
f 804 791 805
f 805 817 816
f 805 806 817
f 806 818 817
f 806 807 818
f 807 808 818
f 808 819 818
f 808 809 819
f 809 820 819
f 809 810 820
f 810 821 820
f 810 822 821
f 810 811 822
f 811 812 822
f 812 823 822
f 812 813 823
f 813 814 823
f 814 824 823
f 814 815 824
f 815 825 824
f 815 816 825
f 815 805 816
f 816 817 826
f 817 827 826
f 817 818 827
f 818 828 827
f 818 819 828
f 819 820 828
f 820 829 828
f 820 821 829
f 821 822 829
f 822 830 829
f 822 823 830
f 823 824 830
f 824 825 830
f 825 831 830
f 825 816 831
f 816 826 831
f 826 827 832
f 827 828 832
f 828 829 832
f 829 830 832
f 830 831 832
f 831 826 832
f 834 835 833
f 835 836 833
f 836 837 833
f 837 838 833
f 838 839 833
f 839 840 833
f 840 834 833
f 841 842 834
f 842 835 834
f 842 843 835
f 843 844 835
f 844 836 835
f 844 845 836
f 845 846 836
f 846 837 836
f 846 847 837
f 847 848 837
f 848 838 837
f 848 849 838
f 849 850 838
f 850 839 838
f 850 851 839
f 851 852 839
f 852 840 839
f 852 853 840
f 853 834 840
f 853 841 834
f 854 842 841
f 854 855 842
f 855 856 842
f 856 843 842
f 856 857 843
f 857 858 843
f 858 844 843
f 858 859 844
f 859 845 844
f 859 860 845
f 860 861 845
f 861 846 845
f 861 862 846
f 862 847 846
f 862 863 847
f 863 848 847
f 863 864 848
f 864 849 848
f 864 865 849
f 865 866 849
f 866 850 849
f 866 867 850
f 867 868 850
f 868 851 850
f 868 869 851
f 869 870 851
f 870 852 851
f 870 871 852
f 871 872 852
f 872 853 852
f 872 854 853
f 854 841 853
f 873 855 854
f 873 874 855
f 874 856 855
f 874 857 856
f 874 875 857
f 875 858 857
f 875 876 858
f 876 859 858
f 876 860 859
f 876 877 860
f 877 861 860
f 877 878 861
f 878 862 861
f 878 879 862
f 879 880 862
f 880 863 862
f 880 881 863
f 881 864 863
f 881 882 864
f 882 865 864
f 882 866 865
f 882 883 866
f 883 867 866
f 883 868 867
f 883 884 868
f 884 885 868
f 885 886 868
f 886 869 868
f 886 887 869
f 887 870 869
f 887 888 870
f 888 871 870
f 888 872 871
f 888 889 872
f 889 854 872
f 889 873 854
f 890 891 873
f 891 874 873
f 891 892 874
f 892 875 874
f 892 893 875
f 893 894 875
f 894 876 875
f 894 895 876
f 895 877 876
f 895 896 877
f 896 878 877
f 896 879 878
f 896 897 879
f 897 898 879
f 898 880 879
f 898 881 880
f 898 899 881
f 899 882 881
f 899 883 882
f 899 900 883
f 900 901 883
f 901 884 883
f 901 902 884
f 902 903 884
f 903 885 884
f 903 886 885
f 903 904 886
f 904 887 886
f 904 905 887
f 905 888 887
f 905 889 888
f 905 906 889
f 906 873 889
f 906 890 873
f 907 891 890
f 907 908 891
f 908 909 891
f 909 892 891
f 909 910 892
f 910 893 892
f 910 911 893
f 911 894 893
f 911 912 894
f 912 895 894
f 912 913 895
f 913 914 895
f 914 896 895
f 914 915 896
f 915 897 896
f 915 916 897
f 916 898 897
f 916 917 898
f 917 899 898
f 917 918 899
f 918 919 899
f 919 900 899
f 919 920 900
f 920 901 900
f 920 921 901
f 921 902 901
f 921 903 902
f 921 904 903
f 921 922 904
f 922 923 904
f 923 905 904
f 923 924 905
f 924 906 905
f 924 890 906
f 924 907 890
f 925 908 907
f 925 926 908
f 926 909 908
f 926 927 909
f 927 910 909
f 927 928 910
f 928 911 910
f 928 929 911
f 929 930 911
f 930 912 911
f 930 931 912
f 931 932 912
f 932 913 912
f 932 933 913
f 933 934 913
f 934 914 913
f 934 915 914
f 934 916 915
f 934 935 916
f 935 917 916
f 935 936 917
f 936 937 917
f 937 918 917
f 937 938 918
f 938 919 918
f 938 939 919
f 939 920 919
f 939 940 920
f 940 921 920
f 940 941 921
f 941 922 921
f 941 942 922
f 942 923 922
f 942 943 923
f 943 924 923
f 943 944 924
f 944 907 924
f 944 925 907
f 945 946 925
f 946 947 925
f 947 948 925
f 948 926 925
f 948 927 926
f 948 949 927
f 949 950 927
f 950 928 927
f 950 951 928
f 951 929 928
f 951 952 929
f 952 953 929
f 953 930 929
f 953 931 930
f 953 954 931
f 954 932 931
f 954 955 932
f 955 956 932
f 956 933 932
f 956 957 933
f 957 934 933
f 957 958 934
f 958 935 934
f 958 936 935
f 958 937 936
f 958 959 937
f 959 960 937
f 960 938 937
f 960 961 938
f 961 939 938
f 961 962 939
f 962 940 939
f 962 963 940
f 963 941 940
f 963 964 941
f 964 965 941
f 965 942 941
f 965 966 942
f 966 943 942
f 966 945 943
f 945 944 943
f 945 925 944
f 967 968 945
f 968 969 945
f 969 946 945
f 969 947 946
f 969 948 947
f 969 970 948
f 970 971 948
f 971 949 948
f 971 950 949
f 971 972 950
f 972 951 950
f 972 952 951
f 972 953 952
f 972 973 953
f 973 954 953
f 973 974 954
f 974 975 954
f 975 955 954
f 975 956 955
f 975 976 956
f 976 957 956
f 976 977 957
f 977 958 957
f 977 959 958
f 977 960 959
f 977 978 960
f 978 961 960
f 978 979 961
f 979 962 961
f 979 980 962
f 980 981 962
f 981 963 962
f 981 982 963
f 982 964 963
f 982 965 964
f 982 966 965
f 982 983 966
f 983 984 966
f 984 945 966
f 984 967 945
f 985 968 967
f 985 986 968
f 986 969 968
f 986 970 969
f 986 987 970
f 987 971 970
f 987 988 971
f 988 972 971
f 988 973 972
f 988 974 973
f 988 989 974
f 989 975 974
f 989 976 975
f 989 990 976
f 990 977 976
f 990 991 977
f 991 992 977
f 992 993 977
f 993 994 977
f 994 978 977
f 994 995 978
f 995 979 978
f 995 980 979
f 995 981 980
f 995 982 981
f 995 996 982
f 996 997 982
f 997 983 982
f 997 985 983
f 985 984 983
f 985 967 984
f 998 999 985
f 999 986 985
f 999 987 986
f 999 988 987
f 999 1000 988
f 1000 989 988
f 1000 990 989
f 1000 991 990
f 1000 992 991
f 1000 993 992
f 1000 994 993
f 1000 998 994
f 998 995 994
f 998 996 995
f 998 997 996
f 998 985 997
