# Generated by Visualization Toolkit
v -0.004228999838232994 -0.00482900021597743 -0.005348999984562397
v -0.0028649999294430017 -0.007087999954819679 -0.0043739997781813145
v -0.006566000171005726 -0.006002999842166901 0.001572999986819923
v -0.006273000035434961 -0.003628999926149845 -0.0010969999711960554
v -0.0010819999733939767 -0.0007699999841861427 -0.008076000027358532
v 0.001133000012487173 -0.004455000162124634 -0.009774000383913517
v -0.00547399977222085 0.0010470000561326742 -0.003700000001117587
v 0.00661400007084012 -0.007031999994069338 -0.004327999893575907
v 0.004772999789565802 -0.005535999778658152 0.0032059999648481607
v 0.00710600009188056 -0.004000999964773655 -0.005876000039279461
v -0.0075610000640153885 -0.00596599979326129 0.005752999801188707
v -0.006930999923497438 -0.0018769999733194709 0.0002749999985098839
v 0.002732000080868602 -0.004935000091791153 0.007019999902695417
v -0.0015279999934136868 0.0035810000263154507 -0.006517999805510044
v 0.003826000029221177 0.00165200000628829 -0.006397000048309565
v 0.00788700021803379 0.0019490000559017062 -0.0053460001945495605
v -0.004954000003635883 0.002920999890193343 -0.0036949999630451202
v -0.006087999790906906 0.003720999928191304 -0.0012009999481961131
v -0.0067529999651014805 0.0025770000647753477 0.0014609999489039183
v -0.006897000130265951 0.0004360000020824373 0.0010509999701753259
v 0.009806999936699867 -0.005805999971926212 0.000598000013269484
v 0.008344000205397606 -0.0038419999182224274 0.0033579999580979347
v 0.010635999962687492 -0.0014100000262260437 -0.0029879999347031116
v 0.005245999898761511 -0.002067999914288521 0.007247000001370907
v 0.010476999916136265 0.003011000109836459 -0.002383999992161989
v -0.0075690001249313354 -0.0005879999953322113 0.007151000201702118
v 0.00215999991632998 0.004143999889492989 0.008957999758422375
v 0.005470000207424164 0.0011279999744147062 0.007857000455260277
v -0.004844999872148037 0.006916999816894531 -0.0022849999368190765
v 0.0065460000187158585 0.005541000049561262 -0.00040499999886378646
v 0.007782000117003918 0.005262000020593405 0.00060299999313429
v -0.004774999804794788 0.01053600013256073 0.008601999841630459
v -0.008120999671518803 0.004453999921679497 0.007296000141650438
v 0.013667000457644463 -0.0011360000353306532 -0.0014929999597370625
v 0.012192999944090843 -0.006238000001758337 0.00203999993391335
v 0.011770999990403652 -0.0052089998498559 0.002615999896079302
v 0.011350000277161598 -0.00418000016361475 0.0031930000986903906
v 0.01013999991118908 -0.0015750000020489097 0.0029529999010264874
v 0.014585999771952629 0.0026569999754428864 -0.00023600000713486224
v 0.009727000258862972 0.0003060000017285347 0.0030700000934302807
v 0.011796999722719193 0.0038189999759197235 0.00007699999696342275
v 0.0037700000684708357 0.00649499986320734 0.009073000401258469
v 0.006819999776780605 0.004151000175625086 0.007664999924600124
v 0.010088999755680561 0.0020580000709742308 0.002747999969869852
v 0.004563999827951193 0.012107999995350838 0.006198999937623739
v 0.007044000085443258 0.007240000180900097 0.004831000231206417
v 0.011672000400722027 0.0028989999555051327 0.0017679999582469463
v 0.017490999773144722 0.0002460000105202198 0.0029150000773370266
v 0.01742600090801716 -0.0026050000451505184 0.0026700000744313
v 0.017280999571084976 0.00004199999966658652 0.004455000162124634
v 0.016891000792384148 -0.0034809999633580446 0.0027209999971091747
v 0.016356000676751137 -0.004358000122010708 0.0027719999197870493
v 0.01548799965530634 -0.005206999834626913 0.003967999946326017
v 0.015637999400496483 -0.004557999782264233 0.004542000126093626
v 0.016712000593543053 -0.0013150000013411045 0.005508999805897474
v 0.015785999596118927 -0.003907000180333853 0.005117000080645084
v 0.01630299910902977 -0.002997000003233552 0.005534000229090452
v 0.016536999493837357 -0.002814000006765127 0.004019999876618385
f 1 2 4
f 2 3 4
f 5 6 1
f 6 2 1
f 1 4 7
f 5 1 7
f 2 8 9
f 2 9 3
f 6 10 8
f 6 8 2
f 4 3 12
f 3 11 12
f 3 9 13
f 3 13 11
f 4 12 7
f 14 15 5
f 15 6 5
f 14 5 7
f 15 16 10
f 15 10 6
f 17 14 7
f 18 17 7
f 19 18 7
f 20 19 7
f 12 20 7
f 8 21 9
f 21 22 9
f 10 23 8
f 23 21 8
f 9 22 24
f 9 24 13
f 16 25 23
f 16 23 10
f 12 11 26
f 12 26 20
f 11 13 26
f 13 27 26
f 13 24 28
f 13 28 27
f 17 29 14
f 29 15 14
f 29 30 15
f 30 16 15
f 30 31 25
f 30 25 16
f 18 32 29
f 18 29 17
f 19 33 18
f 33 32 18
f 20 26 19
f 26 33 19
f 23 34 21
f 34 35 21
f 22 21 37
f 35 36 21
f 37 21 36
f 22 37 38
f 22 38 24
f 25 39 34
f 25 34 23
f 24 38 40
f 24 40 28
f 31 41 25
f 41 39 25
f 26 27 33
f 27 42 33
f 27 28 43
f 27 43 42
f 28 40 43
f 40 44 43
f 32 45 29
f 45 30 29
f 45 46 30
f 46 31 30
f 46 47 31
f 47 41 31
f 33 42 32
f 42 45 32
f 34 48 49
f 34 49 35
f 39 50 48
f 39 48 34
f 37 52 53
f 37 53 38
f 38 53 54
f 38 54 40
f 41 55 39
f 55 50 39
f 40 54 56
f 40 56 44
f 47 57 55
f 47 55 41
f 42 43 46
f 42 46 45
f 43 44 46
f 44 47 46
f 44 56 57
f 44 57 47
f 58 49 48
f 58 48 50
f 58 51 49
f 58 50 55
f 58 52 51
f 58 53 52
f 58 54 53
f 58 56 54
f 58 55 57
f 58 57 56
