# Generated by Visualization Toolkit
v -0.009379000402987003 0.002406999934464693 0.016773000359535217
v -0.0044999998062849045 -0.006022999994456768 0.018136000260710716
v 0.0007489999989047647 0.004106000065803528 0.019853999838232994
v 0.00737100001424551 0.005628999788314104 0.018394000828266144
v 0.007294999901205301 -0.006732999812811613 0.018998000770807266
v 0.016930999234318733 0.004614999983459711 0.012195000424981117
v 0.014426000416278839 -0.005710999947041273 0.013798999600112438
v 0.016654999926686287 0.0030360000673681498 0.0058109997771680355
v 0.017002999782562256 -0.005493999924510717 0.006674999836832285
v 0.015248999930918217 -0.01593099907040596 0.0077749998308718204
v 0.013023000210523605 -0.014170000329613686 0.014642000198364258
v 0.006225000135600567 -0.013609999790787697 0.018366999924182892
v -0.003269999986514449 -0.012337000109255314 0.01692499965429306
v 0.01361399982124567 -0.02397499978542328 0.007814999669790268
v 0.01155299972742796 -0.023938000202178955 0.015155999921262264
v 0.012528999708592892 -0.03625800088047981 0.008647999726235867
v 0.011067000217735767 -0.034244000911712646 0.015742000192403793
v 0.005752000026404858 -0.023800000548362732 0.01792900077998638
v -0.001019999966956675 -0.023367999121546745 0.016847999766469002
v 0.0047969999723136425 -0.03338000178337097 0.01815900020301342
v -0.0022319999989122152 -0.033245999366045 0.016618000343441963
v 0.0039900001138448715 -0.05571499839425087 0.019804999232292175
v -0.0023010000586509705 -0.055806998163461685 0.018792999908328056
v 0.003837999887764454 -0.07496300339698792 0.022066999226808548
v -0.0019710001070052385 -0.07519300282001495 0.02209099940955639
v 0.004222999792546034 -0.10365600138902664 0.02606000006198883
v -0.0025869999080896378 -0.10401900112628937 0.0266100000590086
v 0.0037750001065433025 -0.12916399538516998 0.028877999633550644
v -0.0035600000992417336 -0.12987899780273438 0.02845500037074089
v 0.004290000069886446 -0.16096200048923492 0.030491000041365623
v -0.003341000061482191 -0.16250400245189667 0.0314439982175827
v 0.010540000163018703 -0.13008299469947815 0.026218000799417496
v 0.010397999547421932 -0.15988899767398834 0.027310999110341072
v 0.010738999582827091 -0.10488399863243103 0.022931000217795372
v 0.01107100024819374 -0.07666199654340744 0.019499000161886215
v 0.010812000371515751 -0.055677998811006546 0.016760999336838722
v 0.0012450000504031777 -0.1927659958600998 0.036664001643657684
v -0.004052999895066023 -0.1925950050354004 0.039942000061273575
v 0.0011690000537782907 -0.21482299268245697 0.044613998383283615
v -0.0021100000012665987 -0.21443800628185272 0.04836500063538551
v 0.0030670000705868006 -0.23194299638271332 0.05420700088143349
v -0.00022200000239536166 -0.23196600377559662 0.05674299970269203
v 0.00548599986359477 -0.24382199347019196 0.06134000048041344
v 0.0021720000077039003 -0.244378000497818 0.06368599832057953
v 0.009043999947607517 -0.25327301025390625 0.06611999869346619
v 0.007199999876320362 -0.2547299861907959 0.06783600151538849
v 0.013313000090420246 -0.258448988199234 0.06883600354194641
v 0.009076000191271305 -0.25737500190734863 0.06970100104808807
v 0.01595900021493435 -0.25648099184036255 0.063510000705719
v 0.011326000094413757 -0.25339800119400024 0.06208600103855133
v 0.006943999789655209 -0.24585400521755219 0.056026000529527664
v 0.005241000093519688 -0.23455999791622162 0.05049699917435646
v 0.0039079999551177025 -0.21600399911403656 0.040467001497745514
v 0.004778999835252762 -0.1929669976234436 0.03441699966788292
v 0.009324000217020512 -0.19304700195789337 0.031637001782655716
v 0.008675999939441681 -0.2169940024614334 0.03653699904680252
v 0.008767999708652496 -0.23563699424266815 0.04353199899196625
v 0.010486000217497349 -0.2465910017490387 0.04775900021195412
v 0.007956000044941902 -0.2459149956703186 0.05400799959897995
v 0.013577000238001347 -0.25126099586486816 0.04227999970316887
v 0.01281300000846386 -0.2363000065088272 0.03601500019431114
v 0.011416000314056873 -0.21830500662326813 0.0313900001347065
v 0.012621999718248844 -0.2533310055732727 0.05725599825382233
v 0.01193500030785799 -0.25286298990249634 0.05085400119423866
v 0.017294999212026596 -0.25974100828170776 0.06621299684047699
v 0.02105100080370903 -0.2603670060634613 0.06478100270032883
v 0.02290399931371212 -0.2635990083217621 0.06596300005912781
v 0.019029999151825905 -0.2656269967556 0.06647399812936783
v 0.022690000012516975 -0.2680490016937256 0.06679300218820572
v 0.0196710005402565 -0.27346500754356384 0.0669969990849495
v 0.01726599968969822 -0.27113500237464905 0.06643199920654297
v 0.011105000041425228 -0.2775369882583618 0.061430998146533966
v 0.010129000060260296 -0.2731179893016815 0.06617499887943268
v 0.009480999782681465 -0.27038100361824036 0.06937099993228912
v 0.011490999720990658 -0.26472198963165283 0.0706619992852211
v 0.011656000278890133 -0.2611750066280365 0.07070799916982651
v 0.007428999990224838 -0.2656629979610443 0.06977199763059616
v 0.005437999963760376 -0.25992900133132935 0.0682540014386177
v 0.0026100000832229853 -0.26718899607658386 0.06412699818611145
v 0.007641000207513571 -0.27256500720977783 0.06560099869966507
v -0.0003549999964889139 -0.25546398758888245 0.06336300075054169
v 0.0029170000925660133 -0.25498199462890625 0.06633800268173218
v -0.0006210000137798488 -0.24515700340270996 0.06251700222492218
v 0.01747800037264824 -0.25678500533103943 0.059748001396656036
v 0.022203000262379646 -0.2591249942779541 0.06005699932575226
v 0.02574400044977665 -0.2639729976654053 0.061191998422145844
v 0.025682000443339348 -0.270236998796463 0.06371700018644333
v 0.0020639998838305473 0.018310999497771263 -0.004110000096261501
v -0.0006300000241026282 0.018391000106930733 -0.005055000074207783
v -0.0025210001040250063 0.017823999747633934 -0.009345999918878078
v -0.0023419999051839113 0.016381999477744102 -0.01372500043362379
v 0.0008399999933317304 0.014686999842524529 -0.016906000673770905
v 0.0036379999946802855 0.015623999759554863 -0.014906000345945358
v 0.004865000024437904 0.016733000054955482 -0.01142400037497282
v 0.004395000170916319 0.017263000831007957 -0.007575999945402145
v 0.008400999940931797 0.01701200008392334 -0.0031270000617951155
v 0.003077999921515584 0.017906000837683678 0.0007890000124461949
v -0.007096999790519476 0.015286999754607677 -0.00007400000322377309
v -0.008526000194251537 0.014737999998033047 -0.008069000206887722
v -0.008345999754965305 0.01194899994879961 -0.016311999410390854
v -0.0033809999004006386 0.010033000260591507 -0.021247999742627144
v 0.0018279999494552612 0.010319000110030174 -0.022035999223589897
v 0.007488999981433153 0.012164999730885029 -0.01933700032532215
v 0.010115999728441238 0.015509000048041344 -0.010831000283360481
v 0.01130599994212389 0.015115000307559967 0.003659999929368496
v 0.002345999935641885 0.015368999913334846 0.008492999710142612
v -0.004100000020116568 0.013788999989628792 0.0073990002274513245
v -0.010936999693512917 0.007716000080108643 0.0071229999884963036
v -0.013003000058233738 0.008263000287115574 0.0020810000132769346
v -0.014506000094115734 0.008992999792098999 -0.0059369998052716255
v -0.013794999569654465 0.006461000069975853 -0.01561299990862608
v -0.007691999897360802 0.0015360000543296337 -0.024195000529289246
v 0.00035099999513477087 0.0014690000098198652 -0.02659600041806698
v 0.009743000380694866 0.005216000135987997 -0.02380100078880787
v 0.015776999294757843 0.012218999676406384 -0.01165900006890297
v 0.014155000448226929 0.013536999933421612 -0.000024000000848900527
v -0.013760999776422977 -0.00015199999324977398 0.004093999974429607
v -0.01776699908077717 0.0009869999485090375 -0.003413999918848276
v -0.017045000568032265 -0.0020910000894218683 -0.013224000111222267
v -0.008785000070929527 -0.006577000021934509 -0.02428399957716465
v -0.0007469999836757779 -0.008337999694049358 -0.02733599953353405
v 0.011699000373482704 -0.003005000064149499 -0.025590000674128532
v 0.013472000136971474 0.008452000096440315 -0.01984800025820732
v 0.01841600053012371 0.0019160000374540687 -0.01983099989593029
v 0.02091900072991848 0.006056999787688255 -0.013577999547123909
v 0.017349999397993088 0.010528000071644783 0.0015150000108405948
v 0.017549000680446625 0.011188000440597534 0.008108999580144882
v -0.01720299944281578 -0.0036909999325871468 -0.0013879999751225114
v -0.0177180003374815 -0.008228999562561512 -0.011483999900519848
v -0.009696000255644321 -0.014840999618172646 -0.02150600031018257
v -0.0007939999923110008 -0.015915000811219215 -0.025356000289320946
v 0.014278000220656395 -0.010773000307381153 -0.023152999579906464
v 0.019253000617027283 -0.0067889997735619545 -0.01745299994945526
v 0.022669000551104546 -0.00042600001324899495 -0.014430999755859375
v 0.027626000344753265 -0.006380999926477671 -0.005696999840438366
v 0.02643500082194805 0.0009169999975711107 -0.0025049999821931124
v 0.0007650000043213367 -0.01902800053358078 -0.021220000460743904
v 0.014074999839067459 -0.013183999806642532 -0.018674999475479126
v 0.0017099999822676182 -0.02279599942266941 -0.01633800007402897
v 0.01148299966007471 -0.021059999242424965 -0.013406000100076199
v 0.0027409999165683985 -0.027381999418139458 -0.012839999981224537
v 0.010859999805688858 -0.026715999469161034 -0.009436000138521194
v 0.004062000196427107 -0.038095999509096146 -0.007992999628186226
v 0.01017799973487854 -0.03953099995851517 -0.005135999992489815
v 0.007199000101536512 -0.059463001787662506 -0.0017630000365898013
v 0.010491999797523022 -0.05934099853038788 -0.00016799999866634607
v 0.01874000020325184 -0.012279000133275986 -0.01275699958205223
v 0.01425199955701828 -0.020054999738931656 -0.009848999790847301
v 0.02372400090098381 -0.012652000412344933 -0.006858999840915203
v 0.020677000284194946 -0.019298000261187553 -0.004151000175625086
v 0.017510000616312027 -0.025877000764012337 -0.002220999915152788
v 0.014252999797463417 -0.03936700150370598 -0.000012999999853491317
v -0.008991999551653862 -0.01760300062596798 -0.017853999510407448
v -0.005932999774813652 -0.022735999897122383 -0.01294500008225441
v -0.004495999775826931 -0.027998000383377075 -0.010395999997854233
v -0.0030380000825971365 -0.036761000752449036 -0.007311000023037195
v -0.0016759999562054873 -0.05912100151181221 -0.0013879999751225114
v -0.014856000430881977 -0.011107999831438065 -0.010440000332891941
v -0.00989499967545271 -0.01979300007224083 -0.006045999936759472
v -0.007954999804496765 -0.027267999947071075 -0.004354000091552734
v -0.007327999919652939 -0.03593200072646141 -0.0017000000225380063
v -0.00661400007084012 -0.05883599817752838 0.003135999897494912
v 0.024087000638246536 -0.009486000053584576 0.0017359999474138021
v 0.026393000036478043 -0.00291600008495152 0.0025279999244958162
v 0.025884000584483147 -0.0001610000035725534 0.003541999962180853
v 0.019756000488996506 -0.018619000911712646 0.0018050000071525574
v 0.017208000645041466 -0.025072000920772552 0.002841999987140298
v 0.014239000156521797 -0.03832700103521347 0.0036559998989105225
v 0.012370999902486801 -0.05890500172972679 0.0023300000466406345
v 0.013805000111460686 -0.057509999722242355 0.010665999725461006
v -0.014379000291228294 -0.007470000069588423 -0.00092299998505041
v -0.010339000262320042 -0.016610000282526016 0.0005879999953322113
v -0.009176000021398067 -0.01067699957638979 0.012090999633073807
v -0.012701000086963177 -0.0003809999907389283 0.011025000363588333
v -0.007608999963849783 -0.015675999224185944 0.012218000367283821
v -0.006442000158131123 -0.024461999535560608 0.011711999773979187
v -0.0085249999538064 -0.027254000306129456 0.0019600000232458115
v -0.008108999580144882 -0.03569899871945381 0.00330400001257658
v -0.00802099984139204 -0.057888999581336975 0.009355000220239162
v -0.005501000210642815 -0.034522999078035355 0.012559999711811543
v -0.005894000176340342 -0.05693500116467476 0.015348000451922417
v -0.007416999898850918 0.00875999964773655 0.010556000284850597
v -0.0013070000568404794 0.012865999713540077 0.010344999842345715
v 0.014213000424206257 -0.0786760002374649 0.014104999601840973
v 0.010777000337839127 -0.07908599823713303 0.006347000133246183
v 0.010080999694764614 -0.1063079982995987 0.012090000323951244
v 0.013019000180065632 -0.10520300269126892 0.018458999693393707
v 0.006457999814301729 -0.07998599857091904 0.002725000027567148
v 0.005319999996572733 -0.10670699924230576 0.0073819998651742935
v 0.00813599955290556 -0.1321610063314438 0.015104999765753746
v 0.012312999926507473 -0.13098999857902527 0.02127699926495552
v 0.0081599997356534 -0.16145500540733337 0.018093999475240707
v 0.01255900040268898 -0.16104699671268463 0.025452999398112297
v 0.007395999971777201 -0.19512400031089783 0.02270600013434887
v 0.011212999932467937 -0.19375699758529663 0.02993899956345558
v 0.00684799998998642 -0.22093099355697632 0.026551000773906708
v 0.00962899997830391 -0.23850299417972565 0.03014799952507019
v 0.002102999947965145 -0.240323007106781 0.02354300022125244
v 0.0012509999796748161 -0.22279700636863708 0.022546999156475067
v 0.002768999896943569 -0.1958409994840622 0.01882999949157238
v 0.0039969999343156815 -0.16221100091934204 0.013895000331103802
v 0.0037060000468045473 -0.13267900049686432 0.01088900025933981
v -0.0023070001043379307 -0.10684499889612198 0.007426000200212002
v -0.0025339999701827765 -0.13307400047779083 0.01158900000154972
v -0.002167999977245927 -0.16303400695323944 0.014937000349164009
v -0.0012969999806955457 -0.19538000226020813 0.019032999873161316
v -0.0023380001075565815 -0.2227800041437149 0.0240860003978014
v -0.0022589999716728926 -0.07865700125694275 0.0028540000785142183
v -0.007216999772936106 -0.07812999933958054 0.007325999904423952
v -0.007728999946266413 -0.10628999769687653 0.012222000397741795
v -0.007216999772936106 -0.13277600705623627 0.01607399992644787
v -0.006453000009059906 -0.16359500586986542 0.020083999261260033
v -0.005534000229090452 -0.19473899900913239 0.024934999644756317
v -0.005559000186622143 -0.22081300616264343 0.032148998230695724
v -0.0028429999947547913 -0.23938299715518951 0.038325998932123184
v -0.0011239999439567327 -0.240666002035141 0.02562600001692772
v -0.0030819999519735575 -0.2374279946088791 0.0475349985063076
v -0.005303000099956989 -0.2193329930305481 0.03776000067591667
v -0.007298999931663275 -0.1949869990348816 0.03174100071191788
v -0.008670000359416008 -0.1627970039844513 0.025937000289559364
v -0.008848000317811966 -0.132082998752594 0.02238200046122074
v -0.009603999555110931 -0.10561099648475647 0.01856599934399128
v -0.008581999689340591 -0.07711700350046158 0.013790999539196491
v -0.006264999974519014 -0.07595399767160416 0.019454000517725945
v -0.006756000220775604 -0.1043659970164299 0.024393999949097633
v -0.006167999934405088 -0.1311129927635193 0.026993999257683754
v -0.0023719999007880688 -0.23408100008964539 0.05683000013232231
v -0.00011500000255182385 -0.25027599930763245 0.023761000484228134
v 0.0024210000410676003 -0.25015100836753845 0.02208000048995018
v 0.00044999999227002263 -0.25835898518562317 0.01953200064599514
v 0.003449999960139394 -0.25911399722099304 0.01720700040459633
v -0.00010800000018207356 -0.2644850015640259 0.015270999632775784
v 0.0033209999091923237 -0.2653230130672455 0.012382999993860722
v 0.001088000019080937 -0.27316200733184814 0.011611999943852425
v 0.003341000061482191 -0.2717269957065582 0.01018499955534935
v -0.0010059999767690897 -0.26936599612236023 0.019361000508069992
v -0.0003809999907389283 -0.2640190124511719 0.027168000116944313
v -0.0002969999914057553 -0.25762298703193665 0.031700000166893005
v 0.00019200000679120421 -0.25468599796295166 0.034345999360084534
v -0.00015700000221841037 -0.25146201252937317 0.03990299999713898
v -0.00046400001156143844 -0.25235000252723694 0.04431600123643875
v -0.003046999918296933 -0.2501800060272217 0.056669000536203384
v -0.0014230000087991357 -0.25582098960876465 0.05017299950122833
v -0.0008720000041648746 -0.2450760006904602 0.06276000291109085
v -0.00227600010111928 -0.25900501012802124 0.05856199935078621
v -0.0022350000217556953 -0.26096299290657043 0.0530179999768734
v 0.0004900000058114529 -0.26976799964904785 0.057760000228881836
v -0.0011909999884665012 -0.2705540060997009 0.054781001061201096
v 0.0041809999383986 -0.2730970084667206 0.05792300030589104
v 0.0025029999669641256 -0.27660998702049255 0.05512800067663193
v 0.009364999830722809 -0.27715998888015747 0.05820300057530403
v 0.007323999889194965 -0.2799850106239319 0.055479999631643295
v 0.00585100008174777 -0.27247801423072815 0.062497999519109726
v 0.010374000295996666 -0.2801690101623535 0.048594001680612564
v 0.005563999991863966 -0.2764889895915985 0.048427000641822815
v 0.003705000039190054 -0.2724139988422394 0.04776199907064438
v 0.0036810000892728567 -0.26920801401138306 0.04703899845480919
v 0.007172999903559685 -0.2620429992675781 0.044151999056339264
v 0.007278999779373407 -0.2592949867248535 0.042468998581171036
v 0.00523399980738759 -0.25692999362945557 0.03988200053572655
v 0.004689999856054783 -0.25865599513053894 0.03565699979662895
v 0.005464999936521053 -0.26472198963165283 0.03354300186038017
v 0.00088900001719594 -0.26973000168800354 0.03010999970138073
v 0.0047079999931156635 -0.2700499892234802 0.03667899966239929
v 0.0003060000017285347 -0.27292200922966003 0.03351600095629692
v 0.002727000042796135 -0.2763650119304657 0.03812900185585022
v -0.0010089999996125698 -0.27804800868034363 0.03303699940443039
v 0.00533400010317564 -0.2823469936847687 0.038079001009464264
v 0.0028329999186098576 -0.2856470048427582 0.03214599937200546
v 0.006587000098079443 -0.2777259945869446 0.04466300085186958
v 0.004275000188499689 -0.27259498834609985 0.04304200038313866
v 0.008720999583601952 -0.2643370032310486 0.04003100097179413
v 0.010986000299453735 -0.28084200620651245 0.04397999867796898
v 0.0016919999616220593 -0.27760300040245056 0.029179999604821205
v 0.0014600000577047467 -0.2775940001010895 0.020882999524474144
v -0.00022400000307243317 -0.2739120125770569 0.019502999261021614
v 0.005626999773085117 -0.280690997838974 0.028812000527977943
v 0.005669999867677689 -0.281466007232666 0.02039800025522709
v 0.003020999953150749 -0.27924999594688416 0.013757999986410141
v 0.0014949999749660492 -0.27854299545288086 0.014076000079512596
v 0.00002700000004551839 -0.2764590084552765 0.013540999963879585
v 0.004621999803930521 -0.27768000960350037 0.013179999776184559
v 0.008334999904036522 -0.28253400325775146 0.027552999556064606
v 0.009170000441372395 -0.28900501132011414 0.030727000907063484
v 0.005268000066280365 -0.2503829896450043 0.022259000688791275
v 0.010769999586045742 -0.2540459930896759 0.027007000520825386
v 0.01169500034302473 -0.25857800245285034 0.024782000109553337
v 0.007286999840289354 -0.2586140036582947 0.019162999466061592
v 0.009499000385403633 -0.2658030092716217 0.016061000525951385
v 0.013794999569654465 -0.26584500074386597 0.02250099927186966
v 0.014077999629080296 -0.2596690058708191 0.028344999998807907
v 0.013261999934911728 -0.2553440034389496 0.029557999223470688
v 0.011195000261068344 -0.2715429961681366 0.01504599954932928
v 0.013520999811589718 -0.27110400795936584 0.02216299995779991
v 0.021184999495744705 -0.2711299955844879 0.027354000136256218
v 0.01722400076687336 -0.2664099931716919 0.02813499979674816
v 0.009584000334143639 -0.27708899974823 0.017562000080943108
v 0.01293100044131279 -0.27581700682640076 0.023313000798225403
v 0.021751999855041504 -0.27685999870300293 0.02570600062608719
v 0.012529999949038029 -0.2797729969024658 0.02426600083708763
v 0.020826000720262527 -0.2822880148887634 0.026030000299215317
v 0.008561999537050724 -0.2811630070209503 0.019404999911785126
v 0.010274999774992466 -0.2822369933128357 0.02696000039577484
v 0.015026000328361988 -0.28728699684143066 0.02796800062060356
v 0.014123000204563141 -0.2548849880695343 0.03376000002026558
v 0.013369999825954437 -0.253042995929718 0.03787099942564964
v 0.012183000333607197 -0.2609719932079315 0.03384099900722504
v 0.011160999536514282 -0.26045799255371094 0.039069999009370804
v 0.015873000025749207 -0.2592020034790039 0.045423999428749084
v 0.014298000372946262 -0.258870005607605 0.053630001842975616
v 0.019697999581694603 -0.26180899143218994 0.05459100008010864
v 0.017959000542759895 -0.2632420063018799 0.05098799988627434
v 0.01819000020623207 -0.262472003698349 0.04610000178217888
v 0.015665000304579735 -0.26565200090408325 0.03832099959254265
v 0.015769999474287033 -0.2658030092716217 0.03392599895596504
v 0.021017000079154968 -0.27095600962638855 0.03306499868631363
v 0.019740000367164612 -0.26990899443626404 0.03846399858593941
v 0.021919000893831253 -0.26690998673439026 0.04554399847984314
v 0.020184999331831932 -0.2672240138053894 0.05080400034785271
v 0.02362300083041191 -0.2650749981403351 0.05582199990749359
v 0.020893000066280365 -0.2811819911003113 0.03357600048184395
v 0.02214900031685829 -0.2759920060634613 0.03195900097489357
v 0.019816000014543533 -0.2741439938545227 0.03915699943900108
v 0.02286599949002266 -0.2718470096588135 0.044975001364946365
v 0.02040800079703331 -0.27021899819374084 0.05119499936699867
v 0.02365100011229515 -0.26995599269866943 0.05588899925351143
v 0.02095000073313713 -0.2752619981765747 0.06475000083446503
v 0.02168400026857853 -0.27513399720191956 0.0578479990363121
v 0.018842000514268875 -0.2746819853782654 0.05268000066280365
v 0.021546000614762306 -0.27630600333213806 0.04642400145530701
v 0.018629999831318855 -0.2776489853858948 0.040116000920534134
v 0.01610499992966652 -0.28552401065826416 0.03574699908494949
v 0.01520800031721592 -0.28044599294662476 0.04173700138926506
v 0.015538999810814857 -0.2804090082645416 0.048976000398397446
v 0.014677000232040882 -0.27805599570274353 0.05427899956703186
v 0.01641000062227249 -0.2786499857902527 0.06042100116610527
v 0.01611899957060814 -0.27838999032974243 0.0653500035405159
v 0.009626000188291073 -0.2873240113258362 0.03600899875164032
v 0.004858000203967094 0.012206999585032463 0.014898999594151974
v -0.00027799999224953353 0.010451000183820724 0.01484300009906292
f 3 1 2
f 5 4 3
f 7 6 4
f 9 8 6
f 7 11 10
f 5 12 11
f 2 13 12
f 15 14 10
f 17 16 14
f 12 18 15
f 13 19 18
f 21 20 18
f 23 22 20
f 25 24 22
f 27 26 24
f 29 28 26
f 31 30 28
f 33 32 28
f 34 26 28
f 35 24 26
f 36 22 24
f 17 20 22
f 15 18 20
f 38 37 30
f 40 39 37
f 42 41 39
f 44 43 41
f 46 45 43
f 48 47 45
f 50 45 47
f 51 43 45
f 52 41 43
f 53 39 41
f 54 37 39
f 30 37 54
f 54 55 33
f 53 56 55
f 57 56 53
f 59 58 57
f 52 51 59
f 61 57 58
f 62 56 57
f 51 50 63
f 64 58 59
f 60 58 64
f 66 49 65
f 68 67 66
f 69 67 68
f 71 70 69
f 72 70 71
f 71 73 72
f 74 73 71
f 71 75 74
f 68 75 71
f 65 75 68
f 47 76 75
f 48 76 47
f 78 77 76
f 75 76 77
f 77 74 75
f 77 78 79
f 79 74 77
f 80 74 79
f 77 79 78
f 82 81 79
f 83 81 82
f 82 46 44
f 78 46 82
f 48 46 78
f 84 63 50
f 49 66 85
f 67 86 85
f 69 87 86
f 47 65 49
f 74 80 73
f 59 63 64
f 95 94 93
f 88 97 96
f 89 98 97
f 90 99 98
f 91 100 99
f 92 101 100
f 102 101 92
f 93 103 102
f 94 104 103
f 95 96 104
f 97 106 105
f 98 107 106
f 109 108 107
f 99 110 109
f 100 111 110
f 101 112 111
f 102 113 112
f 103 114 113
f 96 116 115
f 105 116 96
f 109 117 108
f 110 118 117
f 111 119 118
f 112 120 119
f 113 121 120
f 114 122 121
f 123 114 103
f 104 115 123
f 125 124 123
f 122 114 123
f 125 115 116
f 118 128 117
f 119 129 128
f 120 130 129
f 121 131 130
f 122 132 131
f 124 133 132
f 125 134 133
f 136 135 134
f 125 126 136
f 138 137 131
f 140 139 137
f 142 141 139
f 144 143 141
f 146 145 143
f 148 140 138
f 142 140 148
f 133 147 138
f 138 132 133
f 134 147 133
f 135 149 147
f 150 148 147
f 151 142 148
f 152 144 142
f 137 153 130
f 139 154 153
f 141 155 154
f 143 156 155
f 145 157 156
f 153 158 129
f 154 159 158
f 155 160 159
f 156 161 160
f 157 162 161
f 136 165 164
f 149 135 163
f 163 166 150
f 167 151 150
f 168 152 151
f 169 152 168
f 146 144 152
f 168 16 170
f 165 136 126
f 172 171 158
f 171 128 129
f 173 117 128
f 174 117 173
f 175 173 171
f 172 177 176
f 159 160 177
f 178 177 160
f 161 162 179
f 176 177 178
f 182 108 117
f 183 107 108
f 106 107 183
f 187 186 185
f 169 170 184
f 185 146 169
f 188 145 146
f 185 186 189
f 191 190 186
f 193 192 190
f 195 194 192
f 62 196 194
f 61 197 196
f 199 196 197
f 200 194 196
f 201 192 194
f 202 190 192
f 189 186 190
f 202 204 203
f 201 205 204
f 200 206 205
f 199 207 206
f 208 188 189
f 157 145 188
f 208 209 162
f 203 210 209
f 205 212 211
f 206 213 212
f 207 214 213
f 216 215 214
f 218 214 215
f 219 213 214
f 220 212 213
f 221 211 212
f 222 210 211
f 223 209 210
f 179 162 209
f 179 181 180
f 223 224 181
f 222 225 224
f 221 226 225
f 219 38 31
f 218 40 38
f 211 210 203
f 199 198 216
f 229 228 216
f 231 230 228
f 233 232 230
f 235 234 232
f 232 234 236
f 237 230 232
f 238 228 230
f 239 216 228
f 240 215 216
f 241 217 215
f 243 242 217
f 244 227 217
f 246 245 242
f 248 247 245
f 250 249 247
f 252 251 249
f 253 249 251
f 79 247 249
f 81 245 247
f 83 242 245
f 250 255 254
f 248 256 255
f 246 257 256
f 258 257 246
f 243 258 246
f 241 259 258
f 240 260 259
f 239 261 260
f 238 261 239
f 237 262 261
f 263 262 237
f 265 264 262
f 267 266 264
f 269 268 266
f 271 266 268
f 272 264 266
f 262 264 272
f 272 261 262
f 259 260 261
f 258 259 272
f 271 257 258
f 273 254 255
f 267 265 263
f 263 274 267
f 276 275 274
f 263 237 236
f 275 278 277
f 280 279 278
f 276 281 280
f 236 234 281
f 282 279 280
f 283 277 278
f 284 269 277
f 267 274 277
f 257 271 256
f 255 256 271
f 285 229 198
f 197 286 285
f 288 285 286
f 231 229 285
f 288 289 233
f 287 290 289
f 286 292 291
f 197 61 292
f 233 289 293
f 290 294 293
f 296 295 294
f 290 287 291
f 293 297 282
f 294 298 297
f 295 299 298
f 301 300 298
f 302 297 298
f 279 282 297
f 304 303 300
f 278 302 300
f 283 278 303
f 303 304 284
f 279 302 278
f 305 292 61
f 61 306 305
f 60 306 61
f 291 292 305
f 307 291 305
f 305 308 307
f 306 308 305
f 60 309 308
f 64 310 309
f 310 64 63
f 311 310 84
f 312 310 311
f 313 309 310
f 314 308 309
f 315 307 308
f 296 291 307
f 315 316 295
f 314 317 316
f 313 318 317
f 312 319 318
f 311 320 319
f 85 86 320
f 322 321 301
f 299 295 316
f 317 323 322
f 318 324 323
f 319 325 324
f 320 326 325
f 86 87 326
f 328 326 87
f 329 325 326
f 330 324 325
f 331 323 324
f 321 322 323
f 321 332 304
f 331 333 332
f 330 334 333
f 329 335 334
f 328 336 335
f 327 337 336
f 338 268 269
f 273 270 268
f 284 304 332
f 338 332 333
f 273 333 334
f 254 334 335
f 252 335 336
f 251 336 337
f 56 62 195
f 55 195 193
f 33 193 191
f 32 191 187
f 34 187 184
f 35 184 170
f 36 170 16
f 221 220 31
f 226 31 29
f 225 226 29
f 225 27 25
f 224 25 23
f 181 23 21
f 42 227 83
f 42 40 227
f 40 218 217
f 70 327 87
f 80 253 72
f 79 253 80
f 337 327 70
f 72 337 70
f 16 168 167
f 14 167 166
f 10 166 163
f 9 163 164
f 164 165 9
f 8 9 165
f 180 21 19
f 13 175 176
f 175 13 2
f 173 2 1
f 8 165 126
f 8 126 127
f 174 1 182
f 183 340 339
f 105 106 339
f 127 339 4
f 340 3 4
f 340 183 182
f 340 182 1
f 116 126 125
f 116 105 127
f 135 164 163
f 5 3 2
f 7 4 5
f 9 6 7
f 7 10 9
f 5 11 7
f 2 12 5
f 15 10 11
f 17 14 15
f 12 15 11
f 13 18 12
f 21 18 19
f 23 20 21
f 25 22 23
f 27 24 25
f 29 26 27
f 31 28 29
f 33 28 30
f 34 28 32
f 35 26 34
f 36 24 35
f 17 22 36
f 15 20 17
f 38 30 31
f 40 37 38
f 42 39 40
f 44 41 42
f 46 43 44
f 48 45 46
f 50 47 49
f 51 45 50
f 52 43 51
f 53 41 52
f 54 39 53
f 54 33 30
f 53 55 54
f 57 53 52
f 59 57 52
f 61 58 60
f 62 57 61
f 51 63 59
f 68 66 65
f 71 69 68
f 47 75 65
f 78 76 48
f 82 79 78
f 82 44 83
f 84 50 49
f 49 85 84
f 67 85 66
f 69 86 67
f 95 93 92
f 88 96 95
f 89 97 88
f 90 98 89
f 91 99 90
f 92 100 91
f 93 102 92
f 94 103 93
f 95 104 94
f 97 105 96
f 98 106 97
f 109 107 98
f 99 109 98
f 100 110 99
f 101 111 100
f 102 112 101
f 103 113 102
f 96 115 104
f 110 117 109
f 111 118 110
f 112 119 111
f 113 120 112
f 114 121 113
f 104 123 103
f 125 123 115
f 122 123 124
f 119 128 118
f 120 129 119
f 121 130 120
f 122 131 121
f 124 132 122
f 125 133 124
f 136 134 125
f 138 131 132
f 140 137 138
f 142 139 140
f 144 141 142
f 146 143 144
f 148 138 147
f 135 147 134
f 150 147 149
f 151 148 150
f 152 142 151
f 137 130 131
f 139 153 137
f 141 154 139
f 143 155 141
f 145 156 143
f 153 129 130
f 154 158 153
f 155 159 154
f 156 160 155
f 157 161 156
f 136 164 135
f 163 150 149
f 167 150 166
f 168 151 167
f 146 152 169
f 168 170 169
f 172 158 159
f 171 129 158
f 173 128 171
f 175 171 172
f 172 176 175
f 159 177 172
f 178 160 161
f 161 179 178
f 176 178 180
f 182 117 174
f 183 108 182
f 187 185 184
f 169 184 185
f 188 146 185
f 185 189 188
f 191 186 187
f 193 190 191
f 195 192 193
f 62 194 195
f 61 196 62
f 199 197 198
f 200 196 199
f 201 194 200
f 202 192 201
f 189 190 202
f 202 203 189
f 201 204 202
f 200 205 201
f 199 206 200
f 208 189 203
f 157 188 208
f 208 162 157
f 203 209 208
f 205 211 204
f 206 212 205
f 207 213 206
f 216 214 207
f 218 215 217
f 219 214 218
f 220 213 219
f 221 212 220
f 222 211 221
f 223 210 222
f 179 209 223
f 179 180 178
f 223 181 179
f 222 224 223
f 221 225 222
f 219 31 220
f 218 38 219
f 211 203 204
f 199 216 207
f 229 216 198
f 231 228 229
f 233 230 231
f 235 232 233
f 237 232 236
f 238 230 237
f 239 228 238
f 240 216 239
f 241 215 240
f 243 217 241
f 244 217 242
f 246 242 243
f 248 245 246
f 250 247 248
f 252 249 250
f 253 251 72
f 79 249 253
f 81 247 79
f 83 245 81
f 250 254 252
f 248 255 250
f 246 256 248
f 241 258 243
f 240 259 241
f 239 260 240
f 237 261 238
f 265 262 263
f 267 264 265
f 269 266 267
f 271 268 270
f 272 266 271
f 259 261 272
f 271 258 272
f 273 255 270
f 276 274 263
f 263 236 276
f 275 277 274
f 280 278 275
f 276 280 275
f 236 281 276
f 282 280 281
f 284 277 283
f 267 277 269
f 255 271 270
f 197 285 198
f 288 286 287
f 231 285 288
f 288 233 231
f 287 289 288
f 286 291 287
f 197 292 286
f 233 293 235
f 290 293 289
f 296 294 290
f 290 291 296
f 293 282 235
f 294 297 293
f 295 298 294
f 301 298 299
f 302 298 300
f 279 297 302
f 304 300 301
f 278 300 303
f 303 284 283
f 60 308 306
f 64 309 60
f 310 63 84
f 311 84 85
f 313 310 312
f 314 309 313
f 315 308 314
f 296 307 315
f 315 295 296
f 314 316 315
f 313 317 314
f 312 318 313
f 311 319 312
f 85 320 311
f 322 301 299
f 299 316 322
f 317 322 316
f 318 323 317
f 319 324 318
f 320 325 319
f 86 326 320
f 328 87 327
f 329 326 328
f 330 325 329
f 331 324 330
f 321 323 331
f 321 304 301
f 331 332 321
f 330 333 331
f 329 334 330
f 328 335 329
f 327 336 328
f 338 269 284
f 273 268 338
f 284 332 338
f 338 333 273
f 273 334 254
f 254 335 252
f 252 336 251
f 251 337 72
f 56 195 55
f 55 193 33
f 33 191 32
f 32 187 34
f 34 184 35
f 35 170 36
f 36 16 17
f 221 31 226
f 225 29 27
f 225 25 224
f 224 23 181
f 181 21 180
f 42 83 44
f 40 217 227
f 70 87 69
f 80 72 73
f 16 167 14
f 14 166 10
f 10 163 9
f 180 19 176
f 13 176 19
f 175 2 173
f 173 1 174
f 8 127 6
f 183 339 106
f 105 339 127
f 127 4 6
f 340 4 339
f 340 1 3
f 116 127 126
f 95 92 91
f 282 281 234
f 95 91 90
f 282 234 235
f 95 90 89
f 95 89 88
