# Generated by Visualization Toolkit
v 0.006891000084578991 -0.0014730000402778387 0.0006600000197067857
v 0.0038900000508874655 -0.005518000107258558 0.0010420000180602074
v 0.00496299983933568 -0.0025390000082552433 -0.006517000030726194
v 0.006978000048547983 -0.00013899999612476677 -0.003091000020503998
v 0.005750000011175871 0.0009539999882690609 0.005475999787449837
v 0.004261000081896782 -0.0017030000453814864 0.007048000115901232
v 0.007133999839425087 0.00076299998909235 0.0024049999192357063
v 0.007075000088661909 0.0009399999980814755 0.0010300000431016088
v 0.007015000097453594 0.001339999958872795 0.002983999904245138
v -0.009871000424027443 -0.008856000378727913 0.002005999907851219
v -0.006399999838322401 -0.0060640000738203526 -0.004009999800473452
v -0.012155000120401382 -0.00443900004029274 0.005003000143915415
v 0.0013729999773204327 -0.002228999976068735 -0.01305100042372942
v 0.006504000164568424 0.0006549999816343188 -0.006020999979227781
v -0.0020469999872148037 -0.002706000115722418 -0.007592999842017889
v 0.00725100003182888 0.002019000006839633 0.00030700000934302807
v 0.005317999981343746 0.0036239998880773783 0.005716000217944384
v 0.0028260000981390476 0.004695999901741743 0.0070039997808635235
v 0.006897000130265951 0.001917000045068562 0.00356299988925457
v -0.011220999993383884 0.001353000057861209 0.0012110000243410468
v 0.0070569999516010284 0.002068999921903014 0.0020759999752044678
v -0.010293999686837196 -0.003840999910607934 -0.0019000000320374966
v -0.008812000043690205 -0.0025220001116394997 -0.00457700015977025
v -0.011567000299692154 -0.0035830000415444374 0.0001829999964684248
v -0.0072200000286102295 -0.0016949999844655395 -0.006723999977111816
v -0.011552000418305397 -0.0004799999878741801 -0.0013460000045597553
v 0.0015640000347048044 0.002099999925121665 -0.01308900024741888
v 0.005884999874979258 0.0022150001022964716 -0.006998000200837851
v -0.0037299999967217445 0.0008319999906234443 -0.004865999799221754
v 0.007315999828279018 0.0030330000445246696 0.0005709999823011458
v -0.007726999931037426 0.00007599999662488699 -0.006473999936133623
v 0.0049149999395012856 0.006043999921530485 0.003450999967753887
v 0.0031220000237226486 0.007898000068962574 0.0016410000389441848
v 0.006800999864935875 0.0030350000597536564 0.0034439999144524336
v -0.005394999869167805 0.005758000072091818 0.0009009999921545386
v -0.009971999563276768 0.00044299999717622995 -0.003212000010535121
v 0.006965000182390213 0.0035059999208897352 0.0023040000814944506
v -0.009487999603152275 -0.0013859999598935246 -0.0035620001144707203
v 0.0032629999332129955 0.00609100004658103 -0.00737700005993247
v 0.006087000016123056 0.004093000199645758 -0.0031659998930990696
v -0.004290000069886446 0.004267000127583742 -0.0026700000744313
v -0.00875800009816885 0.0005159999709576368 -0.004443999845534563
f 1 2 4
f 2 3 4
f 5 6 1
f 6 2 1
f 7 1 8
f 1 4 8
f 9 5 7
f 5 1 7
f 2 10 11
f 2 11 3
f 6 12 2
f 12 10 2
f 4 3 14
f 3 13 14
f 3 11 15
f 3 15 13
f 8 4 16
f 4 14 16
f 17 18 5
f 18 6 5
f 19 17 5
f 19 5 9
f 18 20 6
f 20 12 6
f 21 7 8
f 21 9 7
f 21 8 16
f 21 19 9
f 10 22 11
f 22 23 11
f 12 24 10
f 24 22 10
f 11 23 25
f 11 25 15
f 20 26 24
f 20 24 12
f 14 13 27
f 14 27 28
f 13 15 27
f 15 29 27
f 16 14 30
f 14 28 30
f 15 25 29
f 25 31 29
f 21 16 30
f 32 33 18
f 32 18 17
f 34 32 17
f 34 17 19
f 33 35 18
f 35 20 18
f 21 34 19
f 35 36 20
f 36 26 20
f 21 30 37
f 21 37 34
f 23 22 38
f 22 24 38
f 25 23 38
f 24 26 38
f 31 25 38
f 26 36 38
f 28 27 39
f 28 39 40
f 27 29 39
f 29 41 39
f 30 28 40
f 30 40 37
f 29 31 42
f 29 42 41
f 42 31 38
f 40 39 33
f 40 33 32
f 37 40 32
f 37 32 34
f 39 41 33
f 41 35 33
f 41 42 36
f 41 36 35
f 36 42 38
