# Generated by Visualization Toolkit
v -0.06244799867272377 -0.07190100103616714 0.057002000510692596
v -0.06241700053215027 -0.06295300275087357 0.05553999915719032
v -0.04591900110244751 -0.0700170025229454 0.06940799951553345
v -0.05768200010061264 -0.05388399958610535 0.0645349994301796
v -0.04741299897432327 -0.0508590005338192 0.0811920017004013
v -0.08474999666213989 -0.08135099709033966 0.070701003074646
v -0.08732900023460388 -0.06496699899435043 0.06591200083494186
v -0.08048299700021744 -0.07264400273561478 0.06224900111556053
v -0.07697699964046478 -0.06699900329113007 0.05576999858021736
v -0.09478399902582169 -0.07856400310993195 0.0807029977440834
v -0.0757249966263771 -0.050801001489162445 0.05926299840211868
v -0.0776899978518486 -0.04427500069141388 0.06588400155305862
v -0.0845090001821518 -0.04830000177025795 0.06462199985980988
v -0.07020200043916702 -0.04483100026845932 0.06514400243759155
v -0.08986199647188187 -0.05421699956059456 0.07283099740743637
v -0.0915910005569458 -0.05018499866127968 0.08978500217199326
v -0.08514200150966644 -0.05386500060558319 0.0602400004863739
v -0.07879500091075897 -0.05839800089597702 0.056620001792907715
v -0.07162400335073471 -0.05830100178718567 0.055727001279592514
v -0.06702599674463272 -0.05392400175333023 0.056784000247716904
v -0.09766100347042084 -0.06094000115990639 0.09240300208330154
v -0.04888100177049637 -0.04884200170636177 0.09623400121927261
v -0.06169800087809563 -0.040081001818180084 0.08911299705505371
v -0.061427999287843704 -0.0461059994995594 0.06941100209951401
v -0.06535100191831589 -0.04949000105261803 0.06138300150632858
v -0.07242800295352936 -0.040380001068115234 0.07777100056409836
v -0.08804400265216827 -0.0489329993724823 0.10026100277900696
v -0.01810700073838234 0.019491000100970268 0.13293500244617462
v -0.02826699987053871 -0.009664000011980534 0.11259099841117859
v -0.04506099969148636 0.04386400058865547 0.12358400225639343
v -0.06304799765348434 -0.006570000201463699 0.09977000206708908
v -0.008839000016450882 -0.013895999640226364 0.1217460036277771
v -0.0010730000212788582 0.011409999802708626 0.12809500098228455
v -0.016222000122070312 0.03847299888730049 0.13264499604701996
v -0.042118001729249954 0.0512240007519722 0.13258600234985352
v -0.04267499968409538 0.07201399654150009 0.11913999915122986
v -0.06582900136709213 0.08302199840545654 0.1034889966249466
v -0.07751400023698807 0.02703399956226349 0.07983099669218063
v -0.0637039989233017 0.08993099629878998 0.10071299970149994
v -0.08681000024080276 0.09383200109004974 0.07634499669075012
v -0.10511799901723862 0.08241300284862518 0.07360199838876724
v -0.09758000075817108 0.07212600111961365 0.0717409998178482
v -0.12706400454044342 0.04984400048851967 0.06825800240039825
v -0.10192500054836273 -0.005537999793887138 0.07328999787569046
v -0.14004500210285187 0.0478379987180233 0.05786899849772453
v -0.13218900561332703 0.020569000393152237 0.06378500163555145
v -0.1357090026140213 0.025433000177145004 0.056811001151800156
v -0.14275600016117096 0.037852998822927475 0.05598900094628334
v -0.1218309998512268 0.07479699701070786 0.061409998685121536
v -0.1340949982404709 0.010596999898552895 0.05587499961256981
v -0.12025900185108185 -0.006688000168651342 0.06321600079536438
v -0.13033899664878845 -0.000990999978967011 0.05714099854230881
v -0.05893699824810028 -0.031863000243902206 0.06212899833917618
v -0.08371199667453766 0.01170899998396635 0.06080099940299988
v -0.03601500019431114 -0.01819700002670288 0.09512700140476227
v -0.04560700058937073 -0.037891000509262085 0.07883299887180328
v -0.0952640026807785 -0.012132000178098679 0.07011999934911728
v -0.09717199951410294 0.024295000359416008 0.05511000007390976
v -0.10435900092124939 0.010080000385642052 0.05077100172638893
v -0.1341399997472763 0.009514999575912952 0.05585600063204765
v -0.1188960000872612 0.02169100008904934 0.059151001274585724
v -0.06860499829053879 0.09188699722290039 0.08519399911165237
v -0.05693899840116501 0.031116999685764313 0.09857600182294846
v -0.08251599967479706 0.04438000172376633 0.06627599895000458
v -0.02383499965071678 -0.00930000003427267 0.10686399787664413
v 0 0 0.11871799826622009
v -0.008365999907255173 0.02201000042259693 0.1227789968252182
v -0.0011840000515803695 0.011483999900519848 0.1277489960193634
v -0.02613000012934208 0.04682299867272377 0.12051799893379211
v -0.0842449963092804 0.06599000096321106 0.05955300107598305
v -0.08052100241184235 0.08927000313997269 0.07094699889421463
v -0.09993299841880798 0.08017099648714066 0.05890699848532677
v -0.11078300327062607 0.04148799926042557 0.052253998816013336
v -0.14028300344944 0.027056999504566193 0.051667001098394394
v -0.1425669938325882 0.03686000034213066 0.05053799971938133
v -0.13044199347496033 0.03609300032258034 0.043880999088287354
v -0.13776400685310364 0.05295500159263611 0.051670998334884644
v -0.13577699661254883 0.02518099918961525 0.05677900090813637
v -0.10118400305509567 0.08732900023460388 0.06762400269508362
v -0.12133000046014786 0.05518599972128868 0.04885299876332283
v -0.09630300104618073 -0.10280700027942657 0.04032500088214874
v -0.10671199858188629 -0.11179099977016449 0.03616100177168846
v -0.0650470033288002 -0.09588900208473206 0.019015999510884285
v -0.04687799885869026 -0.07289200276136398 0.002406999934464693
v -0.026301000267267227 -0.07163099944591522 0.004815000109374523
v -0.02506200037896633 -0.07902900129556656 0.002220999915152788
v -0.05566300079226494 -0.09783899784088135 -0.00035099999513477087
v -0.055378999561071396 -0.08285000175237656 0.0017989999614655972
v -0.06275700032711029 -0.09050700068473816 0.01924300007522106
v -0.05560100078582764 -0.06462500244379044 0.037257999181747437
v -0.07277099788188934 -0.11734700202941895 0.02522999979555607
v -0.09212899953126907 -0.12087000161409378 0.035677000880241394
v -0.1191909983754158 -0.10148999840021133 0.06947500258684158
v -0.13573800027370453 -0.09693100303411484 0.06025899946689606
v -0.1318179965019226 -0.07584399729967117 0.0691239982843399
v -0.13561099767684937 -0.08439700305461884 0.054166000336408615
v -0.09889800101518631 -0.09076999872922897 0.05012999847531319
v -0.11430799961090088 -0.11507699638605118 0.05203000083565712
v -0.11174599826335907 -0.08662399649620056 0.07247799634933472
v -0.11836200207471848 -0.06669600307941437 0.06776399910449982
v -0.12694400548934937 -0.07042799890041351 0.06155899912118912
v -0.12535299360752106 -0.05440500006079674 0.052960000932216644
v -0.11085499823093414 -0.059932999312877655 0.06760399788618088
v -0.08937299996614456 -0.030293000862002373 0.06689000129699707
v -0.10255700349807739 -0.07941199839115143 0.07167500257492065
v -0.10534399747848511 -0.06381499767303467 0.07554300129413605
v -0.08078800141811371 -0.07560399919748306 0.04991300031542778
v -0.10096900165081024 -0.048285000026226044 0.0840580016374588
v -0.0624920018017292 -0.05519000068306923 0.05286100134253502
v -0.0546410009264946 -0.07442700117826462 0.05175400152802467
v -0.05262500047683716 -0.06742600351572037 0.04425499960780144
v -0.04187700152397156 -0.045942001044750214 0.08883299678564072
v -0.05991600081324577 -0.02758999913930893 0.0989999994635582
v -0.029562000185251236 -0.031116999685764313 0.09683000296354294
v -0.08815799653530121 -0.031197000294923782 0.09258099645376205
v -0.07133299857378006 -0.042764000594615936 0.10457500070333481
v -0.03156299889087677 -0.08354999870061874 0.016874000430107117
v -0.043487001210451126 -0.04759899899363518 0.0647059977054596
v -0.041829999536275864 -0.06555899977684021 0.06029500067234039
v -0.052737001329660416 -0.07682300359010696 0.05998000130057335
v -0.02194100059568882 -0.07554099708795547 0.02386699989438057
v -0.04335800185799599 -0.05973900109529495 0.04173799976706505
v -0.05417700111865997 -0.10202600061893463 0.005630999803543091
v -0.03627600148320198 -0.07274899631738663 0.03644900023937225
v -0.059230998158454895 -0.03203999996185303 0.06198599934577942
f 3 2 1
f 5 4 3
f 8 7 6
f 9 7 8
f 6 7 10
f 11 12 13
f 12 11 14
f 12 15 13
f 15 12 16
f 1 2 9
f 17 15 7
f 18 17 7
f 18 7 9
f 19 11 18
f 20 19 2
f 7 21 10
f 15 16 7
f 7 16 21
f 3 22 5
f 23 5 22
f 24 4 5
f 24 5 23
f 25 11 20
f 25 20 4
f 26 23 27
f 26 24 23
f 20 2 4
f 25 4 24
f 14 25 24
f 14 24 26
f 19 9 2
f 19 18 9
f 17 11 13
f 18 11 17
f 16 12 26
f 26 27 16
f 16 27 21
f 20 11 19
f 14 11 25
f 13 15 17
f 30 29 28
f 31 29 30
f 32 28 29
f 33 28 32
f 28 33 34
f 35 28 34
f 35 30 28
f 35 34 36
f 37 38 30
f 35 37 30
f 37 35 36
f 37 36 39
f 41 37 40
f 41 42 37
f 40 37 39
f 42 43 38
f 37 42 38
f 31 30 38
f 44 31 38
f 44 38 43
f 45 46 43
f 47 46 48
f 74 47 48
f 48 46 45
f 49 43 41
f 41 43 42
f 49 45 43
f 50 46 47
f 50 51 46
f 52 51 50
f 51 44 43
f 43 46 51
f 53 54 55
f 55 114 56
f 55 56 53
f 57 54 53
f 59 58 54
f 59 54 51
f 59 51 52
f 60 59 52
f 59 61 58
f 44 54 57
f 51 54 44
f 62 63 64
f 63 54 64
f 114 55 65
f 66 32 65
f 68 66 67
f 32 66 68
f 54 63 55
f 55 63 65
f 65 63 66
f 67 63 69
f 69 63 62
f 68 67 34
f 34 67 69
f 36 34 69
f 36 69 62
f 36 62 39
f 64 70 62
f 71 70 72
f 73 70 64
f 58 73 64
f 58 61 73
f 74 75 76
f 77 75 45
f 75 77 76
f 73 61 76
f 76 61 78
f 78 74 76
f 76 74 78
f 61 60 78
f 79 49 41
f 79 72 49
f 40 71 79
f 40 79 41
f 39 62 40
f 71 40 62
f 77 45 49
f 72 70 80
f 73 80 70
f 80 77 49
f 76 77 80
f 60 61 59
f 76 80 73
f 58 64 54
f 62 70 71
f 79 71 72
f 67 66 63
f 83 82 81
f 84 85 86
f 87 84 86
f 84 87 88
f 87 89 90
f 88 87 90
f 90 84 88
f 82 91 92
f 95 94 93
f 96 94 95
f 82 94 96
f 82 96 81
f 96 97 81
f 94 82 98
f 94 98 93
f 100 95 99
f 100 101 95
f 100 103 102
f 104 102 57
f 100 99 103
f 103 99 105
f 106 103 105
f 107 101 102
f 21 106 10
f 108 106 21
f 104 107 102
f 110 107 109
f 110 109 111
f 111 109 90
f 114 113 112
f 65 113 114
f 31 113 65
f 115 113 31
f 113 116 112
f 115 31 57
f 31 44 57
f 108 21 27
f 115 108 27
f 115 27 116
f 108 115 57
f 108 57 103
f 10 105 6
f 97 96 101
f 107 97 101
f 86 117 87
f 119 118 112
f 90 122 121
f 90 121 85
f 90 85 84
f 123 91 87
f 82 87 91
f 98 97 93
f 81 97 98
f 81 98 92
f 92 91 81
f 121 124 117
f 117 124 119
f 119 120 117
f 90 117 111
f 111 117 110
f 110 117 120
f 121 117 86
f 121 86 85
f 93 97 99
f 97 107 6
f 97 6 105
f 99 97 105
f 83 91 123
f 89 83 123
f 83 81 91
f 89 123 117
f 123 87 117
f 109 107 125
f 122 118 119
f 122 119 124
f 122 124 121
f 112 118 56
f 56 118 125
f 109 122 90
f 112 56 114
f 57 125 104
f 125 107 104
f 109 125 122
f 125 118 122
f 90 89 117
f 98 82 92
f 87 82 83
f 95 93 99
f 103 57 102
f 95 101 96
f 106 105 10
f 113 115 116
f 14 26 12
f 3 4 2
f 1 8 6
f 8 1 9
f 22 116 23
f 27 23 116
f 112 116 22
f 3 112 22
f 112 3 119
f 1 120 3
f 3 120 119
f 107 120 6
f 110 120 107
f 102 101 100
f 106 108 103
f 65 32 29
f 31 65 29
f 49 72 80
f 89 87 83
f 45 75 48
f 48 75 74
