# Generated by Visualization Toolkit
v 0.0005440000095404685 -0.0047519998624920845 -0.002908000024035573
v -0.0034570000134408474 -0.007321000099182129 -0.0004820000031031668
v -0.006775999907404184 -0.0004030000127386302 -0.0021389999892562628
v 0.0016189999878406525 -0.004341000225394964 -0.003882999997586012
v 0.0011820000363513827 -0.007036999799311161 -0.0027099999133497477
v -0.0015810000477358699 -0.0075969998724758625 -0.0008650000090710819
v 0.003531999886035919 -0.0022060000337660313 -0.0025160000659525394
v -0.004505000077188015 -0.000977999996393919 0.0033760000951588154
v -0.005266999825835228 0.0017170000355690718 0.0032140000257641077
v -0.003459000028669834 -0.0033499998971819878 0.0035260000731796026
v -0.0030249999836087227 0.004058999940752983 -0.0007869999972172081
v 0.0017819999484345317 -0.0007220000261440873 -0.0035910001024603844
v -0.004021999891847372 0.00495699979364872 0.004081000108271837
v 0.005578000098466873 -0.004602999892085791 -0.0015040000434964895
v 0.00417400011792779 -0.00521400012075901 0.0008999999845400453
v -0.0005530000198632479 -0.002472999971359968 0.00430699996650219
v 0.0041600000113248825 0.0015180000336840749 -0.002357000019401312
v 0.005989000201225281 0.0027570000384002924 -0.0021520000882446766
v 0.007397000212222338 -0.00046400001156143844 -0.0010219999821856618
v -0.0020749999675899744 0.0014009999576956034 0.0039519998244941235
v 0.0019890000112354755 0.00622399989515543 0.0005089999758638442
v -0.0007970000151544809 0.008314999751746655 0.002988999942317605
v 0.007255000062286854 -0.0004780000017490238 0.0016289999475702643
v 0.0026310000102967024 0.00010900000052060932 0.0042409999296069145
v 0.0042849997989833355 0.005090000107884407 0.0016240000259131193
v 0.001803999999538064 0.005297000054270029 0.006457999814301729
f 2 3 1
f 4 1 3
f 5 6 1
f 6 2 1
f 7 1 4
f 7 5 1
f 2 8 3
f 8 9 3
f 6 10 2
f 10 8 2
f 4 3 12
f 3 11 12
f 3 9 11
f 9 13 11
f 7 4 12
f 14 15 5
f 15 6 5
f 7 14 5
f 15 16 6
f 16 10 6
f 7 12 17
f 7 17 18
f 7 18 19
f 7 19 14
f 20 8 10
f 20 9 8
f 20 13 9
f 20 10 16
f 12 11 17
f 11 21 17
f 11 13 22
f 11 22 21
f 20 22 13
f 19 23 14
f 23 15 14
f 23 24 15
f 24 16 15
f 20 16 24
f 17 21 25
f 17 25 18
f 18 25 23
f 18 23 19
f 20 24 26
f 20 26 22
f 21 22 26
f 21 26 25
f 25 26 24
f 25 24 23
