# Generated by Visualization Toolkit
v -0.002320999978110194 -0.20904399454593658 0.04546299949288368
v -0.0007469999836757779 -0.21545299887657166 0.04621800035238266
v 0.003459000028669834 -0.2152860015630722 0.04965699836611748
v 0.0029929999727755785 -0.21036100387573242 0.05096999928355217
v -0.000009999999747378752 -0.1942950040102005 0.05303899943828583
v -0.005086999852210283 -0.19732600450515747 0.04719199985265732
v -0.0007600000244565308 -0.18685099482536316 0.05310000106692314
v -0.005611000116914511 -0.18846499919891357 0.047575999051332474
v -0.0011709999525919557 -0.16808800399303436 0.050645001232624054
v -0.006302000023424625 -0.16871699690818787 0.04570399969816208
v -0.002196999965235591 -0.13571199774742126 0.0427669994533062
v -0.0036669999826699495 -0.1357560008764267 0.04115400090813637
v -0.001690999954007566 -0.11111100018024445 0.03715899959206581
v -0.0034030000679194927 -0.11164599657058716 0.033654000610113144
v -0.0006779999821446836 -0.07998699694871902 0.026399999856948853
v -0.0039889998733997345 -0.08105500042438507 0.022732000797986984
v 0.0009640000062063336 -0.06060599908232689 0.0169489998370409
v -0.0031530000269412994 -0.06151299923658371 0.01534199994057417
v 0.0033549999352544546 -0.044509001076221466 0.00885200034826994
v -0.0013340000296011567 -0.04424000158905983 0.007581000216305256
v 0.004645000211894512 -0.030466999858617783 0.002515000058338046
v -0.002076999982818961 -0.03478800132870674 0.002403999911621213
v -0.0013729999773204327 -0.030047999694943428 -0.00007400000322377309
v 0.003413999918848276 -0.024806000292301178 0.0002629999944474548
v -0.0009130000253207982 -0.024896999821066856 -0.00043899999582208693
v 0.0030980000738054514 -0.019169000908732414 -0.0003129999968223274
v -0.0005569999921135604 -0.019175000488758087 -0.0014990000054240227
v 0.00039599998854100704 0.00010199999815085903 -0.007199999876320362
v 0.004780000075697899 0.00003199999991920777 -0.006186000071465969
v 0.000011000000085914508 0.000028000000384054147 -0.000009000000318337698
v 0.005125000141561031 -0.2139900028705597 0.06049500033259392
v 0.0068720001727342606 -0.21042099595069885 0.06191200017929077
v 0.0026499999221414328 -0.19445499777793884 0.06107399985194206
v 0.0018779999809339643 -0.18572799861431122 0.05938500165939331
v 0.0013510000426322222 -0.16710199415683746 0.056457001715898514
v 0.001740999985486269 -0.13423499464988708 0.047775998711586
v 0.001762000028975308 -0.10941600054502487 0.04114000126719475
v 0.002111000008881092 -0.07838000357151031 0.030856000259518623
v 0.004999999888241291 -0.059773001819849014 0.021577000617980957
v 0.007992999628186226 -0.04422200098633766 0.011859999969601631
v 0.00951400026679039 -0.03861299902200699 0.008080000057816505
v 0.009465999901294708 -0.030348999425768852 0.004166000057011843
v 0.008698999881744385 -0.023460999131202698 0.003323999932035804
v 0.007573000155389309 -0.018063999712467194 0.002764000091701746
v 0.007102999836206436 -0.009604999795556068 0.0002629999944474548
v 0.003664999967440963 -0.01081900019198656 -0.003871999913826585
v 0.0095210000872612 -0.006415999960154295 -0.0019249999895691872
v 0.004964000079780817 -0.00815299991518259 -0.006142999976873398
v 0.011049999855458736 -0.002256999956443906 -0.002816000021994114
v 0.0065830000676214695 -0.003037000074982643 -0.008169000037014484
v 0.007876000367105007 0.0015960000455379486 -0.0026130001060664654
v 0.00686000008136034 0.0027979998849332333 0.003536999924108386
v 0.008175999857485294 0.002179000061005354 0.005013999994844198
v 0.008136999793350697 -0.0029490001033991575 0.007153000216931105
v 0.006359000224620104 -0.007395999971777201 0.00711800018325448
v 0.007741999812424183 -0.016109000891447067 0.008094999939203262
v 0.009362000040709972 -0.021007999777793884 0.009446999989449978
v 0.011827999725937843 -0.026618000119924545 0.006994999945163727
v 0.012703999876976013 -0.03198700025677681 0.007613999769091606
v 0.011366000398993492 -0.03777400031685829 0.010040000081062317
v 0.010116999968886375 -0.03622100129723549 0.01397200021892786
v 0.011518999934196472 -0.03036399930715561 0.011775000020861626
v 0.008905000053346157 -0.04217600077390671 0.01588200032711029
v 0.005766000133007765 -0.05843399837613106 0.024219999089837074
v 0.002618999918922782 -0.07741600275039673 0.0347759984433651
v 0.002394000068306923 -0.10854700207710266 0.04559199884533882
v 0.0020069999154657125 -0.13323800265789032 0.05174100026488304
v 0.001415999955497682 -0.166484996676445 0.060871999710798264
v 0.002245000097900629 -0.18546800315380096 0.06518899649381638
v 0.004120000172406435 -0.19383999705314636 0.06809700280427933
v 0.008054000325500965 -0.20928500592708588 0.06639999896287918
v 0.0076430002227425575 -0.2043049931526184 0.07121499627828598
v 0.007129000034183264 -0.21121199429035187 0.0710579976439476
v 0.0045819999650120735 -0.21530599892139435 0.06540600210428238
v 0.0043230000883340836 -0.21331599354743958 0.07328200340270996
v 0.003145999973639846 -0.2199079990386963 0.07238399982452393
v 0.0025110000278800726 -0.21856999397277832 0.0756710022687912
v 0.0004090000002179295 -0.18528300523757935 0.0672530010342598
v -0.0014009999576956034 -0.1666789948940277 0.06331799924373627
v -0.0013589999871328473 -0.1312139928340912 0.05528299883008003
v -0.0013470000121742487 -0.1066410019993782 0.048725999891757965
v -0.001383999944664538 -0.07620199769735336 0.03819600120186806
v 0.00041000000783242285 -0.05571899935603142 0.028896000236272812
v 0.0010140000376850367 -0.03622899949550629 0.020503999665379524
v 0.0024429999757558107 -0.027411000803112984 0.01602100022137165
v 0.0022249999456107616 -0.018814999610185623 0.012315000407397747
v 0.0010779999429360032 -0.014448000118136406 0.010999999940395355
v 0.0005990000208839774 -0.006225999910384417 0.008573000319302082
v 0.0012130000395700336 -0.0017379999626427889 0.010280000045895576
v 0.0009609999833628535 0.00381199992261827 0.007809000089764595
v -0.008905000053346157 0.0017900000093504786 -0.0011409999569877982
v -0.0028860000893473625 0.0008420000085607171 -0.006010999903082848
v -0.00936300028115511 -0.18712200224399567 0.04979600012302399
v -0.01218200009316206 -0.19769400358200073 0.05030899867415428
v -0.014550000429153442 -0.20552000403404236 0.05037999898195267
v -0.0029800001066178083 -0.2124989926815033 0.04535499960184097
v -0.007988999597728252 -0.2125370055437088 0.050526998937129974
v -0.011843999847769737 -0.21461699903011322 0.05275699868798256
v -0.0033730000723153353 -0.18527400493621826 0.06773199886083603
v -0.0002899999963119626 -0.010393000207841396 -0.005390999838709831
v -0.00026000000070780516 -0.007422999944537878 -0.007681999821215868
v -0.005659999791532755 -0.018151000142097473 -0.00044299999717622995
v -0.005410999990999699 -0.024027999490499496 0.0010379999876022339
v -0.0064409999176859856 -0.031605999916791916 0.004495000001043081
v -0.006035999860614538 -0.04231199994683266 0.009885000064969063
v -0.0071680000983178616 -0.06102599948644638 0.018991999328136444
v -0.007420999929308891 -0.08118099719285965 0.02696100063621998
v 0.00018699999782256782 -0.002901999978348613 -0.01001999992877245
v -0.004933000076562166 -0.21400900185108185 0.055330999195575714
v -0.003134000115096569 -0.21462200582027435 0.06100999936461449
v -0.0004910000134259462 -0.21580399572849274 0.06502199918031693
v 0.0018649999983608723 -0.22016799449920654 0.07144899666309357
v 0.00215999991632998 -0.21923600137233734 0.07514599710702896
v 0.0008670000243000686 -0.2208320051431656 0.0739390030503273
v -0.0012570000253617764 -0.22008900344371796 0.07354799658060074
v -0.00031800000579096377 -0.21810799837112427 0.07609199732542038
v 0.004031999967992306 -0.20547999441623688 0.0722619965672493
v 0.001766999950632453 -0.194472998380661 0.07023999840021133
v -0.0022730000782757998 -0.19635500013828278 0.07049299776554108
v -0.0009480000007897615 -0.2056480050086975 0.07387500256299973
v -0.005071000196039677 -0.21519100666046143 0.07191900163888931
v -0.004046000074595213 -0.20721200108528137 0.0725720003247261
v -0.0041519999504089355 -0.21705499291419983 0.07001999765634537
v -0.006674999836832285 -0.16681000590324402 0.06259600073099136
v -0.0085230004042387 -0.18656499683856964 0.06549300253391266
v -0.007515000179409981 -0.19766299426555634 0.06892599910497665
v -0.00814799964427948 -0.2092989981174469 0.0701880007982254
v -0.008771000429987907 -0.21435999870300293 0.06976500153541565
v -0.009886999614536762 -0.21601800620555878 0.06270600110292435
v -0.010928000323474407 -0.2136709988117218 0.06728799641132355
v -0.012388999573886395 -0.21152999997138977 0.0691550001502037
v -0.011750999838113785 -0.21151000261306763 0.07026799768209457
v -0.011226000264286995 -0.20723100006580353 0.06974899768829346
v -0.009957999922335148 -0.1974100023508072 0.0676560029387474
v -0.012121999636292458 -0.1969580054283142 0.06524500250816345
v -0.010633000172674656 -0.18694500625133514 0.062950998544693
v -0.01372199971228838 -0.20631299912929535 0.06712500005960464
v -0.011726000346243382 -0.209198996424675 0.06541699916124344
v -0.012284000404179096 -0.19770699739456177 0.06160400062799454
v -0.008330999873578548 -0.16717499494552612 0.05826900154352188
v -0.010629000142216682 -0.1870580017566681 0.05784200131893158
v -0.00826600007712841 -0.1678609997034073 0.052956998348236084
v -0.012323999777436256 -0.19734099507331848 0.05729199945926666
v -0.01285600010305643 -0.21095900237560272 0.05990700051188469
v -0.011033999733626842 -0.21524100005626678 0.06351400166749954
v -0.014945000410079956 -0.20871500670909882 0.05548600107431412
v -0.016092000529170036 -0.20635199546813965 0.051642999053001404
v -0.014895999804139137 -0.2142390012741089 0.0553629994392395
v -0.01735600084066391 -0.21210399270057678 0.05239100009202957
v -0.016370000317692757 -0.20969900488853455 0.05177000164985657
v -0.005367000121623278 -0.13505999743938446 0.045448001474142075
v -0.005367000121623278 -0.11067400127649307 0.03827400133013725
v -0.006552999839186668 -0.08131799846887589 0.026312999427318573
v -0.0038399999029934406 -0.06198500096797943 0.016339000314474106
v -0.006701999809592962 -0.06169100105762482 0.018939999863505363
v -0.0015480000292882323 -0.04339500144124031 0.007412999868392944
v -0.006401999853551388 -0.007002000231295824 -0.004087999928742647
v -0.007833000272512436 -0.0025579999200999737 -0.007060999982059002
v -0.0071760001592338085 0.00031999999191612005 -0.007908999919891357
v -0.010579999536275864 -0.0015109999803826213 0.00011300000187475234
v -0.008476000279188156 -0.005745000205934048 0.0011149999918416142
v -0.0073079997673630714 -0.01726599968969822 0.003963000141084194
v -0.00698099983856082 -0.021796999499201775 0.0055320002138614655
v -0.007215000223368406 -0.02964700013399124 0.00829199980944395
v -0.007317999843508005 -0.04004500061273575 0.013150000013411045
v -0.00760400015860796 -0.06089000031352043 0.02171199955046177
v -0.0072119999676942825 -0.08065599948167801 0.029577000066637993
v -0.006694000214338303 -0.10892099887132645 0.04257600009441376
v -0.006550999823957682 -0.13300499320030212 0.0498960018157959
v -0.005371999926865101 -0.1312510073184967 0.05445899814367294
v -0.006351000163704157 -0.10757700353860855 0.04838300123810768
v -0.0062060002237558365 -0.0781639963388443 0.03770500048995018
v -0.006227999925613403 -0.057815998792648315 0.028245000168681145
v -0.006298999767750502 -0.0378509983420372 0.018317999318242073
v -0.006107000168412924 -0.02755199931561947 0.013120999559760094
v -0.004966000095009804 -0.01923999935388565 0.010277999565005302
v -0.004854999948292971 -0.015030999667942524 0.00853000022470951
v -0.005437000188976526 -0.006390000227838755 0.006670000031590462
v -0.007269999943673611 0.0002739999908953905 0.007902000099420547
v -0.006147000007331371 0.004282000008970499 0.00647500017657876
f 4 3 2
f 6 5 4
f 8 7 5
f 10 9 7
f 12 11 9
f 14 13 11
f 16 15 13
f 18 17 15
f 20 19 17
f 22 21 19
f 23 21 22
f 25 27 26
f 30 29 28
f 32 31 3
f 5 33 32
f 7 34 33
f 9 35 34
f 11 36 35
f 13 37 36
f 15 38 37
f 17 39 38
f 19 40 39
f 41 40 19
f 21 42 41
f 24 43 42
f 26 44 43
f 46 45 44
f 48 47 45
f 50 49 47
f 29 51 49
f 30 51 29
f 53 49 51
f 54 47 49
f 55 45 47
f 56 44 45
f 57 43 44
f 58 43 57
f 59 42 43
f 60 41 42
f 40 41 60
f 60 61 40
f 59 62 61
f 58 57 62
f 63 40 61
f 64 39 40
f 65 38 39
f 66 37 38
f 67 36 37
f 68 35 36
f 69 34 35
f 70 33 34
f 72 71 32
f 31 32 71
f 71 72 73
f 75 74 31
f 77 76 74
f 68 79 78
f 67 80 79
f 66 81 80
f 65 82 81
f 64 83 82
f 61 84 63
f 62 85 84
f 57 86 85
f 56 87 86
f 55 88 87
f 54 89 88
f 53 90 89
f 52 90 53
f 30 90 52
f 92 91 30
f 92 28 29
f 8 93 10
f 6 94 93
f 1 95 94
f 2 96 1
f 96 97 95
f 2 97 96
f 98 95 97
f 99 78 79
f 23 25 21
f 25 103 102
f 23 104 103
f 22 104 23
f 20 105 104
f 18 106 105
f 16 107 106
f 100 46 26
f 101 48 46
f 108 50 48
f 28 29 50
f 110 3 31
f 2 3 110
f 74 111 31
f 112 111 74
f 97 2 109
f 97 109 98
f 30 52 51
f 21 25 24
f 116 115 114
f 120 117 118
f 122 121 116
f 123 115 116
f 119 122 120
f 125 99 79
f 127 122 119
f 128 121 122
f 123 121 128
f 130 129 123
f 128 132 131
f 127 133 132
f 126 134 133
f 125 134 126
f 136 135 134
f 137 133 134
f 131 132 133
f 138 130 131
f 137 139 138
f 135 139 137
f 124 140 136
f 142 141 136
f 139 135 136
f 143 139 141
f 144 138 139
f 145 130 138
f 146 144 143
f 148 145 144
f 147 150 148
f 98 148 149
f 129 145 148
f 152 14 12
f 153 16 14
f 155 154 16
f 105 156 154
f 157 100 27
f 158 101 100
f 108 101 158
f 158 159 108
f 160 91 159
f 157 161 160
f 102 162 161
f 103 163 162
f 104 164 163
f 105 165 164
f 155 166 165
f 153 167 166
f 151 169 168
f 142 140 169
f 170 169 140
f 171 168 169
f 172 167 168
f 173 166 167
f 174 165 166
f 175 164 165
f 176 163 164
f 177 162 163
f 178 161 162
f 180 91 160
f 179 89 90
f 178 88 89
f 177 87 88
f 176 86 87
f 175 85 86
f 173 83 84
f 172 82 83
f 124 79 80
f 63 84 83
f 153 152 168
f 81 171 170
f 172 171 81
f 175 174 84
f 180 90 30
f 91 180 30
f 28 92 159
f 92 159 91
f 178 179 160
f 10 142 151
f 93 94 143
f 94 147 146
f 95 147 94
f 98 150 147
f 149 150 98
f 93 141 142
f 70 69 78
f 118 78 99
f 119 99 125
f 70 118 117
f 75 73 72
f 75 117 120
f 120 116 77
f 77 116 115
f 77 114 112
f 110 129 98
f 111 123 129
f 112 114 115
f 129 130 145
f 150 149 148
f 4 2 1
f 6 4 1
f 8 5 6
f 10 7 8
f 12 9 10
f 14 11 12
f 16 13 14
f 18 15 16
f 20 17 18
f 22 19 20
f 25 26 24
f 32 3 4
f 5 32 4
f 7 33 5
f 9 34 7
f 11 35 9
f 13 36 11
f 15 37 13
f 17 38 15
f 19 39 17
f 21 41 19
f 24 42 21
f 26 43 24
f 46 44 26
f 48 45 46
f 50 47 48
f 29 49 50
f 53 51 52
f 54 49 53
f 55 47 54
f 56 45 55
f 57 44 56
f 59 43 58
f 60 42 59
f 59 61 60
f 58 62 59
f 64 40 63
f 65 39 64
f 66 38 65
f 67 37 66
f 68 36 67
f 69 35 68
f 70 34 69
f 72 32 33
f 71 73 31
f 75 31 73
f 77 74 75
f 68 78 69
f 67 79 68
f 66 80 67
f 65 81 66
f 64 82 65
f 62 84 61
f 57 85 62
f 56 86 57
f 55 87 56
f 54 88 55
f 53 89 54
f 30 92 29
f 6 93 8
f 1 94 6
f 96 95 1
f 25 102 27
f 23 103 25
f 20 104 22
f 18 105 20
f 16 106 18
f 100 26 27
f 101 46 100
f 108 48 101
f 28 50 108
f 110 31 111
f 2 110 109
f 112 74 77
f 116 114 113
f 120 118 119
f 122 116 120
f 123 116 121
f 125 79 124
f 127 119 126
f 128 122 127
f 130 123 128
f 128 131 130
f 127 132 128
f 126 133 127
f 136 134 125
f 137 134 135
f 131 133 137
f 138 131 137
f 124 136 125
f 142 136 140
f 139 136 141
f 144 139 143
f 145 138 144
f 148 144 146
f 147 148 146
f 129 148 98
f 152 12 151
f 153 14 152
f 155 16 153
f 105 154 155
f 157 27 102
f 158 100 157
f 160 159 158
f 157 160 158
f 102 161 157
f 103 162 102
f 104 163 103
f 105 164 104
f 155 165 105
f 153 166 155
f 151 168 152
f 142 169 151
f 170 140 124
f 171 169 170
f 172 168 171
f 173 167 172
f 174 166 173
f 175 165 174
f 176 164 175
f 177 163 176
f 178 162 177
f 180 160 179
f 179 90 180
f 178 89 179
f 177 88 178
f 176 87 177
f 175 86 176
f 173 84 174
f 172 83 173
f 124 80 170
f 63 83 64
f 153 168 167
f 81 170 80
f 172 81 82
f 175 84 85
f 108 28 159
f 178 160 161
f 10 151 12
f 93 143 141
f 94 146 143
f 98 147 95
f 93 142 10
f 70 78 118
f 118 99 119
f 119 125 126
f 70 117 72
f 75 72 117
f 120 77 75
f 77 115 114
f 77 112 76
f 110 98 109
f 111 129 110
f 112 115 123
f 72 33 70
f 112 77 76
f 112 123 111
f 112 123 111
