# Generated by Visualization Toolkit
v -0.005789999850094318 -0.0065449997782707214 -0.0007159999804571271
v -0.007296999916434288 -0.004561999812722206 0.0009239999926649034
v -0.008019999600946903 -0.0048489999026060104 -0.004494000226259232
v -0.006331999786198139 -0.0070779998786747456 -0.006182000041007996
v 0.0030400000978261232 -0.007052999921143055 0.0037990000564604998
v -0.005167999770492315 -0.0074640000239014626 0.0025319999549537897
v 0.005251999944448471 -0.0013470000121742487 -0.0005520000122487545
v 0.004145000129938126 -0.00009699999645818025 -0.0074800001457333565
v -0.00660100020468235 -0.004987000022083521 0.0039809998124837875
v -0.006891999859362841 -0.0037219999358057976 0.0030879999976605177
v -0.006936999969184399 -0.0011490000179037452 -0.00911100022494793
v -0.0003969999961555004 0.004540000110864639 -0.013813000172376633
v 0.004865000024437904 0.004728999920189381 -0.009352000430226326
v 0.004360999912023544 -0.007703999988734722 0.006535000167787075
v 0.0008759999764151871 -0.011402999982237816 0.005386999808251858
v 0.004925000015646219 -0.005255000200122595 0.006246999837458134
v 0.005404000170528889 0.00008399999933317304 0.0007440000190399587
v -0.004242999944835901 -0.011126000434160233 0.005111000034958124
v -0.006287999916821718 -0.006823000032454729 0.006663000211119652
v 0.005390999838709831 0.0016499999910593033 -0.0054060001857578754
v 0.005830000154674053 0.0032049999572336674 -0.005617999937385321
v -0.008018000051379204 0.00028700000257231295 -0.0029170000925660133
v -0.007608999963849783 0.0005810000002384186 0.005289999768137932
v -0.006816000211983919 -0.0037899999879300594 0.008934999816119671
v -0.005545999854803085 -0.0048409998416900635 0.01155600044876337
v -0.005793000105768442 -0.007089000195264816 0.0100509999319911
v -0.004887999966740608 0.006428999826312065 -0.003988000098615885
v 0.005940000060945749 0.004945999942719936 -0.0020649998914450407
v 0.005901999771595001 0.0030040000565350056 -0.0022410000674426556
v 0.004525000229477882 -0.007813000120222569 0.007770999800413847
v 0.002630000002682209 -0.012112000025808811 0.008136999793350697
v 0.0034459999296814203 -0.0013909999979659915 0.00834100041538477
v -0.0034600000362843275 -0.00995699968189001 0.012307999655604362
v 0.004182999953627586 0.0013200000394135714 0.0034570000134408474
v -0.007346999831497669 0.002633000025525689 0.005814999807626009
v -0.0035329998936504126 0.000539999979082495 0.012090000323951244
v 0.0008859999943524599 -0.003647000063210726 0.0175819993019104
v 0.0027099999133497477 0.0036510000936686993 0.005491999909281731
v 0.005528999958187342 -0.004251999780535698 0.011514999903738499
v 0.003819999983534217 -0.00278700003400445 0.01706000044941902
v 0.0019130000146105886 0.0005300000193528831 0.010270999744534492
f 1 2 3
f 1 3 4
f 5 6 1
f 5 1 7
f 7 1 8
f 1 4 8
f 6 9 2
f 6 2 1
f 2 9 10
f 3 2 10
f 4 3 11
f 4 11 12
f 11 3 10
f 8 4 12
f 8 12 13
f 14 15 5
f 14 5 16
f 16 5 7
f 16 7 17
f 15 18 6
f 15 6 5
f 18 19 6
f 19 9 6
f 17 7 20
f 7 8 20
f 20 8 21
f 8 13 21
f 9 19 10
f 22 11 10
f 23 22 10
f 24 23 10
f 25 24 10
f 26 25 10
f 19 26 10
f 12 11 27
f 11 22 27
f 13 12 27
f 13 27 28
f 21 13 28
f 21 28 29
f 30 31 14
f 31 15 14
f 32 14 16
f 30 14 32
f 31 33 18
f 31 18 15
f 16 17 34
f 32 16 34
f 17 20 29
f 34 17 29
f 33 26 18
f 26 19 18
f 29 20 21
f 27 22 35
f 22 23 35
f 35 23 24
f 35 24 36
f 36 24 25
f 36 25 37
f 37 25 33
f 25 26 33
f 28 27 38
f 27 35 38
f 29 28 34
f 28 38 34
f 39 40 31
f 39 31 30
f 39 30 32
f 40 37 33
f 40 33 31
f 34 38 32
f 38 41 32
f 32 41 39
f 41 40 39
f 38 35 36
f 38 36 41
f 41 36 37
f 41 37 40
