# Generated by Visualization Toolkit
v 0.013027999550104141 -0.361501008272171 -0.010207000188529491
v -0.01257999986410141 -0.37861499190330505 0.01083999965339899
v 0.01092199981212616 -0.3634360134601593 0.0022189998999238014
v 0.01486899983137846 -0.37428298592567444 -0.005665999837219715
v 0.013407000340521336 -0.3723909854888916 -0.01660900004208088
v -0.000307999987853691 -0.3604179918766022 -0.01635799929499626
v 0.010583000257611275 -0.34773901104927063 -0.007277000229805708
v 0.010621000081300735 -0.34775999188423157 0.0033050000201910734
v -0.009658999741077423 -0.3609299957752228 0.009914999827742577
v -0.02396100014448166 -0.3716740012168884 0.006635999772697687
v -0.02552800066769123 -0.38203001022338867 0.001151000033132732
v -0.011549999937415123 -0.3807789981365204 0.003172999946400523
v -0.005034999921917915 -0.37449100613594055 0.022569000720977783
v -0.005737000145018101 -0.3616499900817871 0.017028000205755234
v -0.000653000024612993 -0.3835909962654114 0.01922300085425377
v -0.006345999892801046 -0.37984099984169006 0.013175000436604023
v -0.0026279999874532223 -0.38109099864959717 -0.0013170000165700912
v 0.010068999603390694 -0.3778190016746521 0.003166999900713563
v 0.00368200009688735 -0.3614700138568878 0.01243400014936924
v 0.006593999918550253 -0.3828440010547638 -0.007331999950110912
v 0.010414999909698963 -0.3836610019207001 -0.014050999656319618
v 0.013275000266730785 -0.3813529908657074 -0.023056000471115112
v 0.004017000086605549 -0.3714529871940613 -0.02238599956035614
v -0.007978999987244606 -0.3582409918308258 -0.0143630001693964
v 0.00012199999764561653 -0.3468039929866791 -0.011943000368773937
v 0.009738000109791756 -0.31061598658561707 -0.0015849999617785215
v 0.012551999650895596 -0.31124499440193176 0.0030819999519735575
v 0.002597999991849065 -0.3480519950389862 0.01208299957215786
v -0.013929000124335289 -0.3592590093612671 0.0018019999843090773
v -0.009216999635100365 -0.34680798649787903 0.006273999810218811
v -0.004933999851346016 -0.3471490144729614 0.013062000274658203
v -0.025944000110030174 -0.3752950131893158 0.0026499999221414328
v -0.019548000767827034 -0.3823769986629486 -0.010301999747753143
v -0.022727999836206436 -0.3833799958229065 -0.003792000003159046
v -0.010412000119686127 -0.3822369873523712 -0.005919000133872032
v 0.0040799998678267 -0.3779880106449127 0.017878999933600426
v 0.005020999815315008 -0.3845059871673584 0.0031789999920874834
v 0.000813000020571053 -0.38033801317214966 -0.011055000126361847
v 0.009499000385403633 -0.3916639983654022 -0.0158929992467165
v 0.010065999813377857 -0.38881900906562805 -0.02322700060904026
v 0.004217999987304211 -0.38062000274658203 -0.026305999606847763
v -0.006341000087559223 -0.36821499466896057 -0.022415999323129654
v -0.015627000480890274 -0.370061993598938 -0.012609000317752361
v -0.01285099983215332 -0.35848599672317505 -0.005685000214725733
v -0.007395999971777201 -0.34681999683380127 -0.01140500046312809
v 0.0021550001110881567 -0.30980199575424194 -0.006051000207662582
v 0.005470000207424164 -0.2718749940395355 -0.002145000034943223
v 0.012186000123620033 -0.27281099557876587 0.003367000026628375
v 0.0063669998198747635 -0.3099749982357025 0.012645999900996685
v 0.01691100001335144 -0.2734920084476471 0.009696999564766884
v -0.020772000774741173 -0.37042099237442017 -0.005288999993354082
v -0.010906999930739403 -0.34630200266838074 -0.0012809999752789736
v -0.0046709999442100525 -0.3102790117263794 0.01231900043785572
v -0.006748999934643507 -0.31045401096343994 0.0035409999545663595
v -0.014418000355362892 -0.3814150094985962 -0.016293000429868698
v -0.0031419999431818724 -0.38971200585365295 -0.018479999154806137
v 0.002113000024110079 -0.3939709961414337 -0.018331000581383705
v 0.0065100002102553844 -0.38967299461364746 -0.025498999282717705
v -0.00457700015977025 -0.37882199883461 -0.026643000543117523
v -0.005797000136226416 -0.30970799922943115 -0.005621000193059444
v -0.0027089999057352543 -0.27264198660850525 -0.0032599999103695154
v 0.0018710000440478325 -0.2349269986152649 -0.0034149999264627695
v 0.009279999881982803 -0.23531000316143036 -0.0003769999893847853
v 0.0165570005774498 -0.23572400212287903 0.006424999795854092
v 0.009620999917387962 -0.273404985666275 0.014661000110208988
v 0.01837100088596344 -0.23623499274253845 0.014541000127792358
v -0.0023139999248087406 -0.27714401483535767 0.011127999983727932
v -0.004813000094145536 -0.2740199863910675 0.005348000209778547
v -0.010369000025093555 -0.38600799441337585 -0.022477999329566956
v 0.0010860000038519502 -0.38906699419021606 -0.02737800031900406
v -0.0022330000065267086 -0.23423999547958374 0.0034990001004189253
v 0.003287999890744686 -0.20111100375652313 -0.0030040000565350056
v -0.0016449999529868364 -0.2013089954853058 0.0024999999441206455
v 0.011878999881446362 -0.20037099719047546 -0.0010140000376850367
v 0.018174000084400177 -0.2016499936580658 0.0056570000015199184
v 0.009638999588787556 -0.23706600069999695 0.015518000349402428
v 0.021522000432014465 -0.20202499628067017 0.013577999547123909
v 0.012236000038683414 -0.20169299840927124 0.01547400001436472
v 0.002032000105828047 -0.23550599813461304 0.013489999808371067
v -0.0009050000226125121 -0.20194199681282043 0.011156000196933746
v 0.00850099977105856 -0.16286000609397888 -0.00456500006839633
v 0.0012440000427886844 -0.16311199963092804 -0.0019829999655485153
v -0.0022060000337660313 -0.16154399514198303 0.0009529999806545675
v 0.01382800005376339 -0.16350099444389343 -0.0004360000020824373
v 0.018498999997973442 -0.16380199790000916 0.0045540002174675465
v 0.00304899993352592 -0.20144400000572205 0.013638000003993511
v 0.02168400026857853 -0.16426800191402435 0.014613999985158443
v 0.009762999601662159 -0.16239100694656372 0.014612000435590744
v -0.0013289999915286899 -0.16244199872016907 0.007579000201076269
v 0.010219999589025974 -0.12742599844932556 -0.003470000112429261
v 0.004528000019490719 -0.12838999927043915 -0.005644999910145998
v -0.0045289997942745686 -0.1261029988527298 0.002710999920964241
v -0.002256999956443906 -0.12625500559806824 0.009909000247716904
v 0.01592000015079975 -0.12703099846839905 0.0017999999690800905
v 0.02241699956357479 -0.1272449940443039 0.008705000393092632
v 0.02234400063753128 -0.12625400722026825 0.013492000289261341
v 0.009422999806702137 -0.1256520003080368 0.014214999973773956
v 0.009278999641537666 -0.08654599636793137 -0.005402000155299902
v -0.0012199999764561653 -0.08739899843931198 -0.007903999648988247
v -0.007619999814778566 -0.08705999702215195 -0.0013510000426322222
v -0.006384000182151794 -0.08786100149154663 0.009349999949336052
v -0.002449000021442771 -0.08730299770832062 0.016793999820947647
v 0.021122999489307404 -0.08648400008678436 0.0050130002200603485
v 0.021862000226974487 -0.08702699840068817 0.015522999688982964
v 0.006990999914705753 -0.08707500249147415 0.01777699962258339
v -0.0014430000446736813 -0.07288400083780289 -0.011428999714553356
v 0.010727999731898308 -0.060527000576257706 -0.00686000008136034
v 0.01547200046479702 -0.07208699733018875 -0.0004689999914262444
v -0.012993000447750092 -0.05975399911403656 -0.005493999924510717
v -0.00837900023907423 -0.07236699759960175 0.006316000130027533
v -0.008932000026106834 -0.05865100026130676 0.017527999356389046
v -0.0041970000602304935 -0.05826300010085106 0.021763000637292862
v 0.02761399932205677 -0.06657800078392029 0.008546000346541405
v 0.023989999666810036 -0.06916999816894531 0.0030449999030679464
v 0.013465000316500664 -0.07604800164699554 0.01819000020623207
v 0.01627100072801113 -0.06857100129127502 0.020322000607848167
v 0.0238840002566576 -0.06899899989366531 0.016651000827550888
v 0.010486000217497349 -0.05576999858021736 0.023892000317573547
v -0.002443999983370304 -0.06235399842262268 -0.013969000428915024
v 0.008600999601185322 -0.05092199891805649 -0.010497000068426132
v 0.02070700004696846 -0.0588500015437603 -0.0005760000203736126
v -0.017280999571084976 -0.04639900103211403 0.012085000053048134
v -0.025219999253749847 -0.03959900140762329 0.012091999873518944
v -0.02431200072169304 -0.04735200107097626 -0.006659999955445528
v -0.02250099927186966 -0.047520000487565994 -0.013659000396728516
v -0.015444000251591206 -0.049644000828266144 -0.022141000255942345
v -0.01533500012010336 -0.04766499996185303 0.020145999267697334
v -0.011750999838113785 -0.045079998672008514 0.030202999711036682
v 0.024991000071167946 -0.059978000819683075 0.016784999519586563
v 0.027319999411702156 -0.05511299893260002 0.010888000018894672
v 0.02010600082576275 -0.0527539998292923 0.02450699917972088
v 0.00981799978762865 -0.036497000604867935 0.035847000777721405
v -0.0055669997818768024 -0.04846300184726715 -0.024632999673485756
v -0.005969000048935413 -0.020982999354600906 0.007567000109702349
v 0.0034910000395029783 -0.022902999073266983 0.01335499994456768
v 0.018730999901890755 -0.04165399819612503 -0.006256000138819218
v 0.02170800045132637 -0.04567199945449829 0.0033130000811070204
v -0.026132000610232353 -0.02980400063097477 0.013679999858140945
v -0.024591000750660896 -0.02675499953329563 0.009538000449538231
v -0.027334000915288925 -0.031321000307798386 0.020901000127196312
v -0.02593499980866909 -0.0422619991004467 0.0253090001642704
v -0.022255999967455864 -0.028325000777840614 0.0032110000029206276
v -0.02969300001859665 -0.03972499817609787 -0.001129999989643693
v -0.02989800088107586 -0.031000999733805656 -0.015541999600827694
v -0.024302000179886818 -0.03266099840402603 -0.027350999414920807
v -0.02930399961769581 -0.03229900076985359 -0.02121400088071823
v -0.0047240001149475574 -0.02722099982202053 -0.03064199909567833
v -0.01739099994301796 -0.0314829982817173 -0.030559999868273735
v -0.015780000016093254 -0.036722999066114426 0.03697500005364418
v -0.0007249999907799065 -0.028390999883413315 0.03822699934244156
v 0.021935999393463135 -0.050659000873565674 0.018686000257730484
v 0.017860999330878258 -0.031780000776052475 0.02550699934363365
v 0.012097000144422054 -0.02495099976658821 0.028332000598311424
v 0.011615999974310398 -0.03364599868655205 -0.018149999901652336
v -0.0007810000097379088 -0.022569000720977783 0.0008590000215917826
v -0.003705000039190054 -0.02320699952542782 0.02027300000190735
v -0.011229000054299831 -0.01799900084733963 0.006175999995321035
v -0.006783000193536282 -0.021302999928593636 -0.0001900000061141327
v 0.010804999619722366 -0.0217909999191761 -0.004011999815702438
v 0.014996999874711037 -0.02532700076699257 0.009314999915659428
v 0.008000999689102173 -0.023806000128388405 0.020111000165343285
v 0.017004000023007393 -0.023963000625371933 -0.005332999862730503
v -0.01587500050663948 -0.025530999526381493 0.02131599932909012
v -0.01958099938929081 -0.021935999393463135 0.00725100003182888
v -0.025700999423861504 -0.030119000002741814 0.027612999081611633
v -0.02181299962103367 -0.03512800112366676 0.03351199999451637
v -0.016964999958872795 -0.02696399949491024 -0.009693999774754047
v -0.018364999443292618 -0.02157299965620041 -0.002463999902829528
v -0.02676899917423725 -0.0322440005838871 -0.007493000011891127
v -0.024404000490903854 -0.029841000214219093 -0.01171599980443716
v -0.017869999632239342 -0.029830999672412872 -0.015995999798178673
v -0.007327999919652939 -0.028056999668478966 -0.016845999285578728
v 0.0010639999527484179 -0.02565000019967556 -0.025397000834345818
v -0.01992099918425083 -0.027247000485658646 0.034637998789548874
v -0.007720000110566616 -0.022540999576449394 0.034432001411914825
v -0.000770999991800636 -0.020941000431776047 0.03243099898099899
v 0.015653999522328377 -0.02689800038933754 0.016169000416994095
v 0.007350000087171793 -0.022268999367952347 0.02586599998176098
v 0.007234000135213137 -0.023226000368595123 -0.01910500042140484
v -0.004017000086605549 -0.01862199977040291 -0.005979000125080347
v -0.01271199993789196 -0.018279999494552612 -0.004089000169187784
v 0.002919000107795 -0.021066000685095787 -0.005078000016510487
v -0.01065799966454506 -0.02431900054216385 0.021209999918937683
v -0.011983999982476234 -0.017937999218702316 0.0019039999460801482
v 0.005049999803304672 -0.02130500040948391 -0.01232600025832653
v 0.010727999731898308 -0.02313300035893917 -0.00925000011920929
f 1 2 3
f 4 1 3
f 4 5 1
f 1 5 6
f 7 1 6
f 8 1 7
f 8 3 1
f 9 10 2
f 2 11 12
f 2 10 11
f 2 13 14
f 2 15 13
f 15 2 16
f 17 16 2
f 17 2 12
f 14 9 2
f 4 3 18
f 3 6 18
f 18 6 3
f 3 18 16
f 3 19 18
f 8 19 3
f 4 20 21
f 4 21 5
f 4 18 20
f 4 17 20
f 5 21 22
f 5 22 23
f 5 23 6
f 6 23 24
f 25 6 24
f 7 6 25
f 26 7 25
f 27 7 26
f 27 8 7
f 28 19 8
f 27 28 8
f 10 9 29
f 9 29 10
f 30 29 9
f 9 14 31
f 30 9 31
f 32 10 29
f 10 32 11
f 11 10 32
f 33 11 32
f 11 33 34
f 11 34 12
f 12 11 34
f 34 35 12
f 17 12 35
f 14 13 36
f 15 36 13
f 19 14 36
f 28 14 19
f 31 14 28
f 18 36 15
f 17 37 15
f 36 15 37
f 15 16 17
f 17 35 38
f 17 38 37
f 20 18 37
f 19 36 18
f 37 18 36
f 20 38 21
f 38 20 37
f 39 22 21
f 21 38 39
f 39 40 22
f 22 40 41
f 22 41 23
f 23 41 42
f 23 42 24
f 43 24 42
f 24 43 44
f 24 43 44
f 25 24 45
f 45 24 44
f 46 25 45
f 26 25 46
f 26 46 47
f 48 26 47
f 27 26 48
f 49 28 27
f 50 27 48
f 49 27 50
f 49 31 28
f 51 32 29
f 29 44 51
f 44 51 29
f 52 29 30
f 52 44 29
f 53 30 31
f 54 30 53
f 54 52 30
f 53 31 49
f 32 51 33
f 32 51 33
f 43 33 51
f 55 35 33
f 43 55 33
f 34 33 35
f 55 38 35
f 38 55 56
f 56 39 38
f 39 56 57
f 57 40 39
f 57 58 40
f 40 58 41
f 41 58 59
f 41 59 42
f 42 59 43
f 44 43 51
f 44 43 51
f 43 59 55
f 45 44 52
f 60 45 52
f 46 45 60
f 46 60 61
f 47 46 61
f 47 61 62
f 63 47 62
f 48 47 63
f 64 48 63
f 50 48 64
f 65 49 50
f 53 49 65
f 66 50 64
f 65 50 66
f 60 52 54
f 67 53 65
f 54 53 67
f 68 54 67
f 60 54 68
f 56 55 69
f 59 69 55
f 57 56 70
f 69 70 56
f 57 70 58
f 58 70 59
f 69 59 70
f 61 60 68
f 61 68 71
f 62 61 71
f 63 62 72
f 62 71 73
f 72 62 73
f 74 63 72
f 64 63 74
f 75 64 74
f 66 64 75
f 76 65 66
f 67 65 76
f 77 66 75
f 78 66 77
f 76 66 78
f 79 67 76
f 68 67 79
f 71 68 79
f 71 79 80
f 73 71 80
f 74 72 81
f 72 73 82
f 81 72 82
f 73 80 83
f 82 73 83
f 84 74 81
f 75 74 84
f 85 75 84
f 77 75 85
f 86 76 78
f 79 76 86
f 87 77 85
f 78 77 87
f 88 78 87
f 86 78 88
f 80 79 86
f 80 86 89
f 83 80 89
f 84 81 90
f 81 82 91
f 90 81 91
f 82 83 92
f 91 82 92
f 83 89 93
f 92 83 93
f 94 84 90
f 85 84 94
f 95 85 94
f 87 85 95
f 89 86 88
f 96 87 95
f 88 87 96
f 97 88 96
f 89 88 97
f 93 89 97
f 94 90 98
f 90 91 99
f 98 90 99
f 91 92 100
f 99 91 100
f 92 93 101
f 100 92 101
f 93 97 102
f 101 93 102
f 103 94 98
f 95 94 103
f 104 95 103
f 96 95 104
f 105 96 104
f 97 96 105
f 102 97 105
f 106 98 99
f 106 107 98
f 108 98 107
f 108 103 98
f 109 99 100
f 106 99 109
f 110 109 100
f 110 100 101
f 110 101 102
f 111 102 112
f 110 102 111
f 112 102 105
f 103 113 104
f 114 113 103
f 108 114 103
f 105 104 115
f 104 116 115
f 113 117 104
f 116 104 117
f 112 105 118
f 118 105 115
f 106 109 119
f 106 119 107
f 120 121 107
f 120 107 119
f 108 107 121
f 108 121 114
f 122 109 111
f 122 123 109
f 123 124 109
f 124 125 109
f 125 126 109
f 126 119 109
f 110 111 109
f 127 111 112
f 122 111 127
f 128 127 112
f 128 112 118
f 117 113 129
f 130 129 113
f 121 113 114
f 121 130 113
f 116 118 115
f 131 116 129
f 131 118 116
f 116 117 129
f 128 118 132
f 132 118 131
f 126 133 119
f 126 133 119
f 120 119 133
f 134 135 120
f 120 133 136
f 120 136 121
f 136 137 121
f 137 130 121
f 123 122 127
f 138 139 123
f 140 138 123
f 141 140 123
f 123 139 142
f 143 123 142
f 143 124 123
f 141 123 127
f 143 144 124
f 144 125 124
f 125 145 126
f 125 146 145
f 144 146 125
f 147 133 126
f 148 147 126
f 145 148 126
f 141 127 128
f 149 128 150
f 149 141 128
f 128 149 150
f 150 128 132
f 149 128 150
f 129 130 151
f 131 129 151
f 130 137 151
f 132 131 152
f 152 131 151
f 132 153 150
f 153 132 152
f 133 147 154
f 136 133 154
f 155 135 134
f 155 134 135
f 155 134 135
f 135 134 156
f 134 157 156
f 134 155 158
f 157 134 158
f 159 155 135
f 160 159 135
f 161 135 156
f 160 135 161
f 162 136 154
f 136 162 137
f 162 152 137
f 137 152 151
f 163 138 140
f 163 139 138
f 163 164 139
f 139 164 142
f 165 140 141
f 163 140 165
f 165 141 166
f 141 149 166
f 167 143 142
f 168 167 142
f 164 168 142
f 143 167 169
f 144 143 169
f 170 144 169
f 144 170 171
f 146 144 171
f 145 146 171
f 148 145 171
f 147 148 172
f 173 147 172
f 147 173 154
f 148 171 172
f 149 174 166
f 150 175 149
f 149 175 174
f 149 174 166
f 153 176 150
f 150 176 175
f 162 177 152
f 153 152 177
f 160 161 153
f 176 153 178
f 153 161 178
f 153 177 160
f 179 162 154
f 173 179 154
f 155 180 181
f 155 181 158
f 155 159 182
f 180 155 182
f 157 183 156
f 178 161 156
f 176 178 156
f 175 176 156
f 183 175 156
f 163 183 157
f 163 157 164
f 184 157 158
f 164 157 184
f 181 184 158
f 162 159 160
f 159 185 182
f 159 162 186
f 185 159 186
f 162 160 177
f 162 179 186
f 163 165 174
f 163 174 175
f 163 175 183
f 164 184 181
f 164 181 168
f 168 181 164
f 168 164 181
f 174 165 166
f 167 168 181
f 167 170 169
f 171 170 167
f 167 181 172
f 171 167 172
f 180 185 172
f 181 180 172
f 179 173 172
f 185 179 172
f 179 185 186
f 185 180 182
