# Generated by Visualization Toolkit
v 0.002205000026151538 -0.004038000013679266 -0.002225999953225255
v 0.004687000066041946 -0.003926999866962433 -0.0030129998922348022
v 0.0035880000796169043 -0.007447999902069569 -0.003111999947577715
v 0.0005169999785721302 -0.008840999566018581 -0.002962999977171421
v 0.0031109999399632215 -0.0005249999812804163 -0.002526999916881323
v 0.005282999947667122 0.0004299999854993075 -0.0026839999482035637
v -0.00025599999935366213 -0.0019020000472664833 -0.0034229999873787165
v -0.00032699998700991273 -0.00011100000119768083 -0.002942000050097704
v 0.00025400001322850585 0.0029869999270886183 -0.0021009999327361584
v 0.0046350001357495785 -0.0041160001419484615 0.0001340000017080456
v 0.0044109998270869255 -0.00902200024574995 -0.00014600000577047467
v 0.004892999771982431 -0.000750000006519258 0.0008880000095814466
v 0.002761000068858266 -0.010224999859929085 0.0004769999941345304
v -0.0016789999790489674 -0.009610000066459179 -0.0008759999764151871
v 0.004342999774962664 -0.00978699978441 0.0022950000129640102
v -0.0018159999744966626 -0.003046999918296933 -0.003567999927327037
v 0.0035910001024603844 0.004616999998688698 -0.00023400000645779073
v 0.007369999773800373 0.0047610001638531685 -0.002007999923080206
v -0.0030249999836087227 0.003659999929368496 -0.0011699999449774623
v 0.007439999841153622 0.003404000075533986 -0.0007259999983943999
v -0.00254400004632771 -0.0003169999981764704 -0.0025339999701827765
v 0.005561999976634979 -0.002601000014692545 0.0022589999716728926
v 0.00533400010317564 -0.004896000027656555 0.005049999803304672
v 0.0021470000501722097 -0.0042039998807013035 0.005698000080883503
v -0.006386999972164631 0.0030159999150782824 0.0062859999015927315
v -0.004910000134259462 -0.004854000173509121 -0.0017269999952986836
v -0.0033760000951588154 -0.004191999789327383 -0.003711000084877014
v -0.0003380000125616789 0.006947999820113182 0.0019440000178292394
v 0.007451999932527542 0.005249000154435635 0.004251000005751848
v -0.005950999911874533 0.0025679999962449074 -0.0006290000164881349
v 0.00762399984523654 0.0034890000242739916 0.0034910000395029783
v -0.005849000066518784 -0.002495999913662672 -0.0027280000504106283
v 0.005816999822854996 0.0008629999938420951 0.007083999924361706
v 0.003854000009596348 0.0016929999692365527 0.00877700001001358
f 1 2 3
f 1 3 4
f 5 6 2
f 5 2 1
f 4 7 1
f 7 8 1
f 1 8 5
f 8 9 5
f 2 10 3
f 10 11 3
f 6 12 2
f 12 10 2
f 4 3 13
f 4 13 14
f 3 11 13
f 11 15 13
f 14 16 4
f 16 7 4
f 17 18 6
f 17 6 5
f 5 9 17
f 9 19 17
f 18 20 6
f 20 12 6
f 8 7 21
f 7 16 21
f 9 8 21
f 19 9 21
f 22 11 10
f 22 10 12
f 22 15 11
f 22 12 20
f 13 15 24
f 15 23 24
f 14 13 24
f 14 24 25
f 26 27 16
f 26 16 14
f 14 25 26
f 22 23 15
f 16 27 21
f 28 29 17
f 29 18 17
f 17 19 28
f 19 30 28
f 29 31 20
f 29 20 18
f 30 19 21
f 22 20 31
f 32 30 21
f 27 32 21
f 22 31 33
f 22 33 23
f 24 23 33
f 24 33 34
f 34 25 24
f 25 34 28
f 34 29 28
f 28 30 25
f 30 32 25
f 25 32 26
f 32 27 26
f 34 33 29
f 33 31 29
