# Generated by Visualization Toolkit
v 0.006111999973654747 0.0007570000016130507 -0.004989999812096357
v 0.000048999998398358 -0.0008970000199042261 -0.0038040000945329666
v 0.0017379999626427889 0.0019229999743402004 -0.004982000216841698
v 0.00596599979326129 0.0025659999810159206 -0.005646000150591135
v 0.005179999861866236 -0.0000019999999949504854 -0.004641000181436539
v 0.0002530000056140125 -0.0016749999485909939 -0.0028009999077767134
v 0.007083999924361706 0.0038419999182224274 -0.0046190000139176846
v -0.005262000020593405 -0.007952000014483929 -0.0010319999419152737
v -0.0017239999724552035 -0.00165200000628829 -0.00520200002938509
v -0.003992000129073858 -0.00906199961900711 0.0018530000234022737
v 0.0023089998867362738 0.006029999814927578 -0.004736000206321478
v 0.006252000108361244 0.005973000079393387 -0.005894000176340342
v -0.0006500000017695129 0.005944000091403723 -0.007957999594509602
v 0.006971000228077173 0.00007000000186963007 -0.004145000129938126
v 0.004317999817430973 -0.001294999965466559 -0.00318100000731647
v 0.0031079999171197414 -0.0026990000624209642 -0.0026599999982863665
v 0.007753999903798103 0.009266000241041183 -0.005204999819397926
v 0.008841999806463718 0.009428000077605247 -0.0034860000014305115
v 0.008634000085294247 0.004747999832034111 -0.0036949999630451202
v 0.008049000054597855 0.0017750000115484 -0.0038759999442845583
v -0.011698000133037567 -0.00597199983894825 0.003154000034555793
v -0.0132039999589324 -0.0010649999603629112 0.001617999980226159
v -0.007327999919652939 -0.007546999957412481 0.004660000093281269
v -0.008570999838411808 0.006570999976247549 -0.00008399999933317304
v -0.002096999902278185 -0.0015899999998509884 0.0061690001748502254
v 0.004914000164717436 0.010336999781429768 -0.004683999810367823
v 0.004472000058740377 0.01177200023084879 -0.002739999908953905
v -0.0021550001110881567 0.010293999686837196 0.0026390000712126493
v 0.00700599979609251 0.0009449999779462814 -0.0005520000122487545
v 0.0068339998833835125 0.001841000048443675 0.005748999770730734
v 0.0027260000351816416 0.005162000190466642 0.009394999593496323
v 0.008311999961733818 0.010950000025331974 -0.0018119999440386891
v 0.00817199982702732 0.005733000114560127 -0.0009089999948628247
v -0.010222000069916248 -0.0008229999803006649 0.0054709999822080135
v -0.010502999648451805 0.0016629999736323953 0.004083999898284674
v -0.008294999599456787 0.00014400000509340316 0.0059079998172819614
v -0.007999000139534473 0.004385999869555235 0.0033009999897331
v -0.005162000190466642 0.002518000081181526 0.005812999792397022
v -0.004699000157415867 0.0066269999369978905 0.00442600017413497
v -0.0019809999503195286 0.0039049999322742224 0.007670999970287085
v 0.005867999978363514 0.011114000342786312 0.0009270000155083835
v -0.00021300000662449747 0.010960999876260757 0.005934999790042639
v -0.003515999997034669 0.008724999614059925 0.004798999987542629
v 0.00736499996855855 0.0066109998151659966 0.0009379999828524888
v -0.0008820000221021473 0.008400999940931797 0.008559999987483025
v -0.0031850000377744436 0.005640000104904175 0.006630999967455864
v -0.006173999980092049 0.0036430000327527523 0.0053449999541044235
f 1 2 3
f 1 3 4
f 5 6 2
f 5 2 1
f 7 1 4
f 7 5 1
f 2 8 9
f 2 9 3
f 6 10 8
f 6 8 2
f 4 3 11
f 4 11 12
f 3 9 13
f 3 13 11
f 7 4 12
f 14 15 5
f 15 6 5
f 7 14 5
f 15 16 6
f 16 10 6
f 7 12 17
f 7 17 18
f 7 18 19
f 7 19 20
f 7 20 14
f 8 21 22
f 8 22 9
f 10 23 8
f 23 21 8
f 9 22 24
f 9 24 13
f 16 25 10
f 25 23 10
f 12 11 26
f 12 26 17
f 11 13 27
f 11 27 26
f 13 24 28
f 13 28 27
f 20 29 14
f 29 15 14
f 29 30 16
f 29 16 15
f 30 31 25
f 30 25 16
f 17 26 32
f 17 32 18
f 18 32 33
f 18 33 19
f 19 33 20
f 33 29 20
f 21 34 22
f 34 35 22
f 23 36 34
f 23 34 21
f 22 35 24
f 35 37 24
f 25 38 36
f 25 36 23
f 24 37 39
f 24 39 28
f 31 40 25
f 40 38 25
f 26 27 32
f 27 41 32
f 27 28 41
f 28 42 41
f 28 39 43
f 28 43 42
f 33 44 29
f 44 30 29
f 44 45 31
f 44 31 30
f 45 46 40
f 45 40 31
f 32 41 44
f 32 44 33
f 35 34 47
f 34 36 47
f 37 35 47
f 36 38 47
f 39 37 47
f 38 40 47
f 43 39 47
f 40 46 47
f 41 42 44
f 42 45 44
f 42 43 45
f 43 46 45
f 46 43 47
