# Generated by Visualization Toolkit
v 0.0040699997916817665 -0.00023999999393709004 -0.003914999775588512
v 0.0026100000832229853 0.000039999998989515007 -0.006635999772697687
v 0.003579000011086464 0.0027469999622553587 -0.007584000006318092
v 0.004523999989032745 0.000775999971665442 -0.004075999837368727
v 0.003622000105679035 -0.0018279999494552612 -0.0028589998837560415
v 0.0021329999435693026 -0.004827999975532293 -0.003341000061482191
v 0.004064999986439943 -0.0008539999835193157 -0.001892999978736043
v -0.011734999716281891 -0.005727999843657017 -0.0025309999473392963
v -0.00948300026357174 0.0007939999923110008 -0.00558000011369586
v -0.00406000018119812 0.004838999826461077 -0.006146000232547522
v 0.0048940000124275684 0.0028329999186098576 -0.004222999792546034
v 0.004550000187009573 0.0010470000561326742 -0.0028669999446719885
v -0.005439999978989363 0.006399999838322401 -0.0026110000908374786
v 0.0039889998733997345 -0.0023219999857246876 -0.001104000024497509
v 0.0028510000556707382 -0.004792999941855669 -0.00021699999342672527
v -0.012431000359356403 -0.00469799991697073 0.0028880001045763493
v 0.003780999919399619 -0.001914000022225082 -0.00021499999274965376
v 0.004236999899148941 -0.0006089999806135893 -0.0008270000107586384
v 0.0037479999009519815 -0.001740999985486269 0.0007190000033006072
v -0.01268799975514412 -0.0016870000399649143 0.002128999913111329
v -0.012140000239014626 -0.00145800004247576 -0.0004189999890513718
v -0.011307000182569027 0.0007660000119358301 -0.0014730000402778387
v -0.010545000433921814 0.0023189999628812075 -0.0019160000374540687
v -0.008763999678194523 0.004424999933689833 0.0004799999878741801
v 0.006093000061810017 0.003010000102221966 -0.00030399998649954796
v -0.006399999838322401 0.007488999981433153 0.0036959999706596136
v -0.008050000295042992 0.0052999998442828655 0.00229199999012053
v 0.0019920000340789557 -0.003969000186771154 0.002997000003233552
v -0.010848999954760075 -0.002177000045776367 0.006167000159621239
v -0.011214000172913074 0.00046300000394694507 0.003932000137865543
v 0.0008740000193938613 -0.001711999997496605 0.0050760000012815
v -0.01053099986165762 0.001538999960757792 0.0012329999590292573
v -0.0071470001712441444 0.003218000056222081 0.007170000113546848
v -0.009537000209093094 0.0021860001143068075 0.0048420000821352005
f 1 2 4
f 2 3 4
f 5 6 2
f 5 2 1
f 7 5 1
f 7 1 4
f 6 8 9
f 6 9 2
f 2 9 10
f 2 10 3
f 4 3 11
f 4 11 12
f 3 10 11
f 10 13 11
f 7 4 12
f 14 15 6
f 14 6 5
f 7 14 5
f 15 16 8
f 15 8 6
f 7 17 14
f 7 12 18
f 7 18 19
f 7 19 17
f 16 20 21
f 16 21 8
f 8 21 9
f 21 22 9
f 9 22 23
f 9 23 10
f 10 23 13
f 23 24 13
f 12 11 25
f 12 25 18
f 11 13 25
f 13 26 25
f 13 24 26
f 24 27 26
f 17 28 15
f 17 15 14
f 28 29 16
f 28 16 15
f 29 30 20
f 29 20 16
f 19 31 28
f 19 28 17
f 18 25 19
f 25 31 19
f 20 30 32
f 21 20 32
f 22 21 32
f 23 22 32
f 24 23 32
f 27 24 32
f 25 26 31
f 26 33 31
f 26 27 33
f 27 34 33
f 34 27 32
f 31 33 29
f 31 29 28
f 33 34 29
f 34 30 29
f 30 34 32
