# Generated by Visualization Toolkit
v -0.0119420001283288 -0.21718299388885498 0.06674300134181976
v -0.013306999579071999 -0.22425200045108795 0.06863600015640259
v -0.018194999545812607 -0.22398699820041656 0.07167500257492065
v -0.01932300068438053 -0.21710200607776642 0.07021799683570862
v -0.012752000242471695 -0.2224320024251938 0.059672001749277115
v -0.012109999544918537 -0.22506199777126312 0.0622589997947216
v -0.02429799921810627 -0.21952800452709198 0.06592199951410294
v -0.022463999688625336 -0.22478899359703064 0.06660500168800354
v -0.02357099950313568 -0.22567500174045563 0.06455300003290176
v -0.025702999904751778 -0.22100700438022614 0.06274700164794922
v -0.0237869992852211 -0.23068800568580627 0.06447499990463257
v -0.02256999909877777 -0.22755099833011627 0.05902399867773056
v -0.017853999510407448 -0.22652499377727509 0.05771400034427643
v -0.025383999571204185 -0.21288299560546875 0.06007000058889389
v -0.02511800080537796 -0.2047239989042282 0.05659199878573418
v -0.02467699907720089 -0.19277000427246094 0.051725998520851135
v -0.02430500090122223 -0.17571599781513214 0.04640699923038483
v -0.02533400058746338 -0.1524679958820343 0.039055999368429184
v -0.026427999138832092 -0.12141499668359756 0.031509000808000565
v -0.027125999331474304 -0.10814099758863449 0.029447000473737717
v -0.023520000278949738 -0.2110459953546524 0.06259199976921082
v -0.021448999643325806 -0.2002120018005371 0.060075998306274414
v -0.021159999072551727 -0.19142700731754303 0.05693899840116501
v -0.02081499993801117 -0.17482399940490723 0.05096900090575218
v -0.02003300003707409 -0.15151700377464294 0.0445609986782074
v -0.019850999116897583 -0.21009600162506104 0.06554900109767914
v -0.019391000270843506 -0.19244399666786194 0.05689699947834015
v -0.015814999118447304 -0.17493300139904022 0.05023900046944618
v -0.016266999766230583 -0.15149100124835968 0.044374000281095505
v -0.019548999145627022 -0.11923199892044067 0.038412999361753464
v -0.016706999391317368 -0.12307699769735336 0.03941499814391136
v -0.01976200006902218 -0.10689099878072739 0.03581799939274788
v -0.01671300083398819 -0.10769599676132202 0.03643900156021118
v -0.014639000408351421 -0.2115280032157898 0.06388500332832336
v -0.015647999942302704 -0.20383000373840332 0.059815000742673874
v -0.015416000038385391 -0.19294899702072144 0.05580500140786171
v -0.014504999853670597 -0.15093199908733368 0.04439299926161766
v -0.01396199967712164 -0.12423299998044968 0.03883099928498268
v -0.014921000227332115 -0.2140980064868927 0.05783800035715103
v -0.015848999843001366 -0.20645800232887268 0.055355001240968704
v -0.015665000304579735 -0.19451600313186646 0.05050100013613701
v -0.01271899975836277 -0.10867399722337723 0.03548499941825867
v -0.01318500004708767 -0.09166300296783447 0.033629000186920166
v -0.01686199940741062 -0.07851199805736542 0.032281000167131424
v -0.01500600017607212 -0.07797499746084213 0.024160999804735184
v -0.027584999799728394 -0.0927949994802475 0.02729799970984459
v -0.028866000473499298 -0.07590600103139877 0.024204999208450317
v -0.03038799948990345 -0.05870100110769272 0.02128800004720688
v -0.031282998621463776 -0.03822999820113182 0.016064999625086784
v -0.03158799931406975 -0.024562999606132507 0.011777999810874462
v -0.03209700062870979 -0.011087000370025635 0.008604000322520733
v -0.02720700018107891 -0.07607199996709824 0.02705799974501133
v -0.028224000707268715 -0.05887399986386299 0.024119999259710312
v -0.0293589998036623 -0.03905399888753891 0.019367000088095665
v -0.029423000290989876 -0.02465200051665306 0.014853999949991703
v -0.029965000227093697 -0.011389999650418758 0.01095999963581562
v -0.020721999928355217 -0.013925000093877316 0.014155000448226929
v -0.022158000618219376 -0.025321999564766884 0.01916399970650673
v -0.02316799946129322 -0.040474001318216324 0.022119000554084778
v -0.022799000144004822 -0.060051001608371735 0.026837000623345375
v -0.022269999608397484 -0.0779850035905838 0.03001599945127964
v -0.02128100022673607 -0.0915990024805069 0.03268200159072876
v -0.016923999413847923 -0.0917930006980896 0.0343719981610775
v -0.019655000418424606 -0.07921899855136871 0.03183700144290924
v -0.020434999838471413 -0.06049700081348419 0.02869500033557415
v -0.021036000922322273 -0.04077700152993202 0.02447500079870224
v -0.014588000252842903 -0.060708001255989075 0.01956300064921379
v -0.017691999673843384 -0.060309998691082 0.02825300022959709
v -0.018035000190138817 -0.04193999990820885 0.023881999775767326
v -0.012885999865829945 -0.0434579998254776 0.015696000307798386
v -0.00877199973911047 -0.028271999210119247 0.014418999664485455
v -0.015263999812304974 -0.02622999995946884 0.02094300091266632
v -0.018519999459385872 -0.025387000292539597 0.021376999095082283
v -0.03229900076985359 -0.0016769999638199806 0.005834000185132027
v -0.030931999906897545 0.00407399982213974 -0.0014410000294446945
v -0.03153099864721298 0.00419999985024333 0.0016919999616220593
v -0.025906000286340714 0.006422999780625105 -0.006310000084340572
v -0.027793999761343002 0.006874999962747097 -0.003728999989107251
v -0.02274700067937374 0.010611999779939651 -0.002976000076159835
v -0.02668599970638752 0.008867999538779259 -0.0014890000456944108
v -0.023276999592781067 0.011165999807417393 0.0016090000281110406
v -0.027563000097870827 0.008852999657392502 0.001183000043965876
v -0.025412999093532562 0.010584999807178974 0.004246999975293875
v -0.02909800037741661 0.006705000065267086 0.005568999797105789
v -0.029777999967336655 0.006909999996423721 0.0018609999679028988
v -0.03006099909543991 -0.0021440000273287296 0.010327000170946121
v -0.01879199966788292 -0.007833999581634998 0.01331700012087822
v -0.02395699918270111 0.0024399999529123306 0.012095999903976917
v -0.027837000787258148 0.005818000063300133 0.010493000037968159
v -0.022244999185204506 0.013198000378906727 0.007521000225096941
v -0.024313999339938164 0.009960000403225422 0.010941999964416027
v -0.02193400077521801 0.002845000009983778 0.012407000176608562
v -0.02254199981689453 0.01066999975591898 0.011435000225901604
v -0.019195999950170517 0.014078999869525433 0.0031799999997019768
v -0.01154599990695715 0.012384000234305859 0.004887999966740608
v -0.018333999440073967 0.01371499989181757 0.0000940000027185306
v -0.011296000331640244 0.011613000184297562 -0.0004030000127386302
v -0.01854800060391426 0.012908999808132648 -0.004379999823868275
v -0.013842999935150146 0.011412999592721462 -0.006258000154048204
v -0.023020999506115913 0.005894999951124191 -0.009184000082314014
v -0.013938999734818935 -0.01856900006532669 0.018358999863266945
v -0.014135000295937061 -0.011858000420033932 0.015331000089645386
v -0.018725000321865082 -0.0007210000185295939 0.0054350001737475395
v -0.016652999445796013 -0.005495999939739704 0.005962000228464603
v -0.018438000231981277 0.004720999859273434 0.006963999941945076
v -0.01940399967133999 0.013395000249147415 0.008895999751985073
v -0.015207000076770782 0.0018550000386312604 0.0005699999746866524
v -0.008186999708414078 -0.010967000387609005 0.01347300037741661
v -0.002804999938234687 -0.014890000224113464 0.014906000345945358
v -0.006943000014871359 -0.019291000440716743 0.01718899980187416
v -0.005799999926239252 -0.021344000473618507 0.014588999561965466
v 0.0004910000134259462 -0.008615000173449516 0.011055000126361847
v -0.0036589999217540026 -0.01844700053334236 0.007338999770581722
v 0.0016110000433400273 -0.014274000190198421 0.002443999983370304
v -0.002831999910995364 -0.018480999395251274 0.0036299999337643385
v -0.009665999561548233 -0.028245000168681145 0.0065819998271763325
v -0.011376000009477139 -0.03167999908328056 0.0021589999087154865
v -0.026706000789999962 -0.22367499768733978 0.05790499970316887
v -0.02556999959051609 -0.23097699880599976 0.058788999915122986
v -0.02542800083756447 -0.2247460037469864 0.05523199960589409
v -0.022140000015497208 -0.22507600486278534 0.05409599840641022
v -0.022918999195098877 -0.2298790067434311 0.058295998722314835
v -0.02087399922311306 -0.2276490032672882 0.05693500116467476
v -0.016718000173568726 -0.22427399456501007 0.05652900040149689
v -0.021043000742793083 -0.21727299690246582 0.05222399905323982
v -0.02433300018310547 -0.21694299578666687 0.053360000252723694
v -0.0180479995906353 -0.20912200212478638 0.05116900056600571
v -0.022324999794363976 -0.2085449993610382 0.050762999802827835
v -0.015832999721169472 -0.195591002702713 0.0473329983651638
v -0.020819000899791718 -0.1955610066652298 0.046633001416921616
v -0.020548999309539795 -0.11085899919271469 0.02483700029551983
v -0.015768000856041908 -0.1111840009689331 0.02529199980199337
v -0.01635199971497059 -0.09604199975728989 0.022684000432491302
v -0.02102999947965145 -0.09581500291824341 0.021745000034570694
v -0.016940999776124954 -0.07960700243711472 0.018768999725580215
v -0.022193999961018562 -0.07878900319337845 0.018125999718904495
v -0.016457000747323036 -0.2076980024576187 0.05354100093245506
v -0.0167820006608963 -0.21603600680828094 0.055399999022483826
v -0.01374099962413311 -0.1762939989566803 0.04674899950623512
v -0.014694999903440475 -0.17737500369548798 0.04234600067138672
v -0.014004000462591648 -0.1543309986591339 0.0410120002925396
v -0.014600000344216824 -0.1565379947423935 0.036122001707553864
v -0.012667999602854252 -0.1260959953069687 0.03485399857163429
v -0.015034999698400497 -0.12623800337314606 0.02843499928712845
v -0.013166000135242939 -0.1112930029630661 0.031808000057935715
v -0.014121999964118004 -0.09423000365495682 0.028478000313043594
v -0.020138999447226524 -0.17788800597190857 0.041409000754356384
v -0.019507000222802162 -0.15557099878787994 0.03499399870634079
v -0.019540000706911087 -0.12516500055789948 0.027884000912308693
v -0.025825999677181244 -0.09494800120592117 0.024046000093221664
v -0.023876000195741653 -0.11048299819231033 0.026215000078082085
v -0.02333799935877323 -0.12381000071763992 0.028975000604987144
v -0.02274399995803833 -0.1550379991531372 0.035840000957250595
v -0.023024000227451324 -0.17745999991893768 0.04312499985098839
v -0.024087000638246536 -0.19498899579048157 0.049028001725673676
v -0.024783000349998474 -0.2072799950838089 0.052907999604940414
v -0.025450000539422035 -0.21681199967861176 0.05520600080490112
v -0.027888000011444092 -0.07699500024318695 0.02111000008881092
v -0.02887599915266037 -0.060416001826524734 0.01657800003886223
v -0.02181299962103367 -0.0610710009932518 0.013093999586999416
v -0.016535000875592232 -0.06139200180768967 0.013642000034451485
v -0.014944000169634819 -0.04543500021100044 0.0076419999822974205
v -0.022130999714136124 -0.043643999844789505 0.0077309999614953995
v -0.020517000928521156 -0.030261000618338585 0.003025999991223216
v -0.008415999822318554 -0.026399999856948853 -0.0014319999609142542
v -0.017544999718666077 -0.016466999426484108 -0.0020349998958408833
v -0.010381000116467476 -0.02081100083887577 -0.00735899992287159
v -0.017999999225139618 -0.0132020004093647 -0.005113999824970961
v -0.016575999557971954 -0.011865999549627304 -0.005888999905437231
v -0.004257999826222658 -0.021995000541210175 -0.0004799999878741801
v -0.002993999980390072 -0.02049499936401844 -0.004453000146895647
v -0.02855999954044819 -0.015085999853909016 -0.0020580000709742308
v -0.02995700016617775 -0.028176000341773033 0.00419999985024333
v -0.030294999480247498 -0.04185499995946884 0.010251999832689762
v -0.02699200063943863 -0.004453000146895647 -0.007792999967932701
v -0.022577999159693718 -0.0018609999679028988 -0.010858000256121159
v -0.01785000041127205 -0.0023900000378489494 -0.010116999968886375
v -0.01785999909043312 0.0017010000301524997 -0.010143999941647053
v -0.015964999794960022 0.0010509999701753259 -0.003924999851733446
v -0.016402000561356544 -0.0015709999715909362 -0.002957999939098954
v -0.015401000156998634 -0.009998000226914883 -0.0013429999817162752
v -0.010707000270485878 -0.01716100051999092 -0.008414999581873417
v -0.011234000325202942 -0.015317000448703766 -0.0002680000034160912
f 4 3 2
f 6 5 1
f 8 3 4
f 10 9 8
f 13 6 2
f 22 15 14
f 23 16 15
f 24 17 16
f 25 18 17
f 26 21 7
f 22 21 26
f 27 23 22
f 28 24 23
f 29 25 24
f 31 30 25
f 33 32 30
f 34 26 4
f 35 22 26
f 36 27 22
f 28 27 36
f 37 29 28
f 38 31 29
f 5 39 34
f 40 35 34
f 41 36 35
f 32 20 19
f 18 25 30
f 52 47 46
f 53 48 47
f 54 49 48
f 56 51 50
f 55 58 57
f 53 60 59
f 46 62 61
f 43 44 64
f 62 46 20
f 33 63 62
f 64 61 62
f 65 60 61
f 66 59 60
f 68 44 45
f 65 64 44
f 69 66 65
f 68 67 70
f 72 69 70
f 73 66 69
f 58 59 66
f 31 38 42
f 33 42 43
f 55 54 59
f 54 55 50
f 52 61 60
f 80 79 77
f 82 81 79
f 82 85 84
f 76 74 84
f 78 75 76
f 56 86 74
f 57 87 86
f 88 86 87
f 89 86 88
f 84 74 86
f 89 91 90
f 88 91 89
f 92 88 87
f 93 91 88
f 97 96 94
f 99 98 96
f 96 81 94
f 98 79 81
f 100 77 79
f 90 94 81
f 82 83 81
f 73 72 101
f 102 87 101
f 57 58 73
f 104 103 92
f 105 93 92
f 106 93 105
f 101 110 109
f 111 110 101
f 109 110 111
f 72 71 111
f 113 112 109
f 115 114 112
f 111 71 116
f 21 14 10
f 91 93 106
f 90 106 95
f 106 105 95
f 107 95 105
f 120 119 118
f 121 119 120
f 123 122 119
f 124 13 123
f 126 125 121
f 128 127 125
f 130 129 127
f 134 133 132
f 136 135 133
f 137 127 129
f 124 121 125
f 129 41 40
f 140 139 41
f 144 143 141
f 132 145 143
f 133 146 145
f 147 140 129
f 148 142 140
f 149 144 142
f 131 132 144
f 131 151 150
f 152 151 131
f 149 148 153
f 147 154 153
f 130 155 154
f 128 156 155
f 126 157 156
f 120 118 157
f 136 158 159
f 134 150 158
f 135 136 160
f 67 161 162
f 45 135 161
f 146 133 135
f 70 162 116
f 117 116 162
f 163 162 161
f 164 117 162
f 166 165 117
f 168 167 165
f 170 165 167
f 116 117 165
f 113 111 71
f 164 173 172
f 163 174 173
f 160 159 174
f 175 176 168
f 166 172 175
f 177 169 168
f 180 177 178
f 181 169 177
f 183 182 169
f 137 138 125
f 168 169 182
f 167 182 171
f 38 143 145
f 42 145 146
f 154 17 18
f 153 18 19
f 152 19 20
f 151 20 46
f 150 46 47
f 158 47 48
f 159 48 49
f 174 49 50
f 173 50 51
f 172 51 74
f 74 76 75
f 175 75 78
f 175 77 100
f 17 154 155
f 16 155 156
f 15 156 157
f 10 14 157
f 43 146 45
f 116 170 115
f 116 115 113
f 108 104 87
f 176 100 178
f 100 98 99
f 179 178 99
f 107 179 97
f 180 179 107
f 180 107 105
f 180 103 104
f 183 181 104
f 108 109 112
f 108 112 183
f 183 112 114
f 114 115 170
f 114 170 171
f 114 171 182
f 114 182 183
f 141 143 38
f 141 37 28
f 141 139 140
f 139 28 36
f 138 137 40
f 138 39 5
f 11 9 10
f 124 5 6
f 123 13 12
f 123 12 122
f 119 122 11
f 11 122 12
f 4 2 1
f 6 1 2
f 8 4 7
f 10 8 7
f 13 2 3
f 22 14 21
f 23 15 22
f 24 16 23
f 25 17 24
f 26 7 4
f 28 23 27
f 29 24 28
f 31 25 29
f 33 30 31
f 34 4 1
f 35 26 34
f 36 22 35
f 38 29 37
f 5 34 1
f 40 34 39
f 41 35 40
f 32 19 30
f 18 30 19
f 53 47 52
f 54 48 53
f 56 50 55
f 55 57 56
f 53 59 54
f 46 61 52
f 43 64 63
f 62 20 32
f 33 62 32
f 64 62 63
f 65 61 64
f 66 60 65
f 68 45 67
f 65 44 68
f 69 65 68
f 68 70 69
f 72 70 71
f 73 69 72
f 58 66 73
f 31 42 33
f 33 43 63
f 55 59 58
f 54 50 49
f 52 60 53
f 80 77 78
f 82 79 80
f 82 84 83
f 76 84 85
f 78 76 85
f 56 74 51
f 57 86 56
f 84 86 89
f 89 90 83
f 93 88 92
f 97 94 95
f 99 96 97
f 98 81 96
f 100 79 98
f 90 81 83
f 73 101 87
f 57 73 87
f 104 92 87
f 105 92 103
f 101 109 108
f 72 111 101
f 113 109 111
f 115 112 113
f 111 116 113
f 21 10 7
f 91 106 90
f 90 95 94
f 123 119 121
f 124 123 121
f 126 121 120
f 128 125 126
f 130 127 128
f 134 132 131
f 136 133 134
f 124 125 138
f 129 40 137
f 140 41 129
f 144 141 142
f 132 143 144
f 133 145 132
f 147 129 130
f 148 140 147
f 149 142 148
f 131 144 149
f 131 150 134
f 152 131 149
f 149 153 152
f 147 153 148
f 130 154 147
f 128 155 130
f 126 156 128
f 120 157 126
f 136 159 160
f 134 158 136
f 135 160 161
f 67 162 70
f 45 161 67
f 146 135 45
f 70 116 71
f 163 161 160
f 164 162 163
f 166 117 164
f 168 165 166
f 116 165 170
f 113 71 116
f 164 172 166
f 163 173 164
f 160 174 163
f 166 175 168
f 177 168 176
f 180 178 179
f 181 177 180
f 183 169 181
f 137 125 127
f 168 182 167
f 167 171 170
f 38 145 42
f 42 146 43
f 154 18 153
f 153 19 152
f 152 20 151
f 151 46 150
f 150 47 158
f 158 48 159
f 159 49 174
f 174 50 173
f 173 51 172
f 172 74 175
f 74 75 175
f 175 78 77
f 175 100 176
f 17 155 16
f 16 156 15
f 15 157 14
f 10 157 118
f 43 45 44
f 108 87 102
f 176 178 177
f 100 99 178
f 179 99 97
f 107 97 95
f 180 105 103
f 180 104 181
f 183 104 108
f 141 38 37
f 141 28 139
f 141 140 142
f 139 36 41
f 138 40 39
f 138 5 124
f 11 10 118
f 124 6 13
f 11 12 9
f 13 3 8
f 22 21 14
f 78 85 82
f 89 83 84
f 101 108 102
f 11 118 119
f 13 8 9
f 22 14 21
f 78 82 80
f 13 9 12
