# Generated by Visualization Toolkit
v 0.01955484226346016 -0.23434941470623016 0.016211949288845062
v 0.029320847243070602 -0.2345122992992401 0.015937253832817078
v 0.029951397329568863 -0.22794856131076813 0.014726690948009491
v 0.017436979338526726 -0.22900748252868652 0.01381520926952362
v 0.019985521212220192 -0.2332097738981247 0.022729966789484024
v 0.02867816761136055 -0.23451553285121918 0.02225523814558983
v 0.015688590705394745 -0.22985613346099854 0.023538248613476753
v 0.040571242570877075 -0.23543798923492432 0.01875278912484646
v 0.03654909506440163 -0.23634867370128632 0.022398754954338074
v 0.04211363568902016 -0.22608909010887146 0.016940731555223465
v 0.04074154794216156 -0.23919062316417694 0.022561069577932358
v 0.043586842715740204 -0.23932109773159027 0.02138429507613182
v 0.03705992177128792 -0.23719793558120728 0.026714861392974854
v 0.04127814993262291 -0.23995116353034973 0.025452129542827606
v 0.0446397066116333 -0.23944920301437378 0.02594725787639618
v 0.04186338931322098 -0.23422040045261383 0.02858702465891838
v 0.041835516691207886 -0.22499361634254456 0.027818579226732254
v 0.030864007771015167 -0.23245081305503845 0.03445717319846153
v 0.03212200105190277 -0.22447508573532104 0.03540091961622238
v 0.02896852418780327 -0.23613841831684113 0.028442446142435074
v 0.021347863599658012 -0.235257089138031 0.028717845678329468
v 0.019869286566972733 -0.23103322088718414 0.032218195497989655
v -0.0017657140269875526 0.0018345473799854517 -0.0009852773509919643
v -0.004530228208750486 0.002003302564844489 -0.004303201101720333
v 0.0020736069418489933 0.0022934216540306807 -0.006037903018295765
v 0.0019045681692659855 0.0009847346227616072 -0.00031433766707777977
v -0.002808772260323167 0.0026021066587418318 0.0022193538025021553
v -0.007228455506265163 0.0028828138019889593 0.003341289237141609
v 0.0008174218237400055 0.0020086592994630337 0.004443274810910225
v 0.0072984835132956505 0.0025045701768249273 -0.004173798020929098
v 0.010797759518027306 -0.001913219690322876 -0.006158927455544472
v 0.012677142396569252 -0.00026863848324865103 0.002565915696322918
v 0.0067934561520814896 0.001865176483988762 0.0009871921502053738
v 0.0025811800733208656 -0.0031288894824683666 -0.01050429418683052
v -0.0010680761188268661 0.002299928804859519 0.009530248120427132
v 0.005219048820436001 0.0024178815074265003 0.005114159546792507
v 0.007589748129248619 0.0012600054033100605 0.009182805195450783
v 0.010275766253471375 -0.007168304640799761 0.0022648214362561703
v 0.006328541785478592 -0.005872273351997137 0.008165528997778893
v -0.001455924240872264 -0.004848283715546131 0.009147344157099724
v -0.007834486663341522 -0.004261049907654524 0.0031059030443429947
v 0.0053378622978925705 -0.013194253668189049 0.006632880307734013
v -0.0010680819395929575 -0.012244499288499355 0.007480813190340996
v -0.005886804312467575 -0.011652025394141674 0.002625109162181616
v -0.0039580389857292175 -0.011160914786159992 -0.004424177575856447
v -0.006325916852802038 -0.003989087417721748 -0.006512317806482315
v -0.0009071072563529015 -0.02019030973315239 0.007509213872253895
v -0.005448107607662678 -0.019535647705197334 0.002680557779967785
v -0.0029365334194153547 -0.01848420314490795 -0.0036496268585324287
v 0.002638978883624077 -0.016750697046518326 -0.006485713645815849
v 0.002416954841464758 -0.009775380603969097 -0.006983916275203228
v -0.005683647468686104 -0.027655038982629776 0.0025255633518099785
v -0.0024451622739434242 -0.02647332102060318 -0.004339281935244799
v 0.003202565014362335 -0.024472907185554504 -0.008468707092106342
v 0.008826437406241894 -0.023144522681832314 -0.005604407750070095
v 0.008143190294504166 -0.01541929505765438 -0.004345235414803028
v -0.0017331474227830768 -0.034931425005197525 -0.004728413186967373
v 0.003983914386481047 -0.03343600779771805 -0.01057054940611124
v 0.00973562989383936 -0.031659647822380066 -0.006580481305718422
v 0.010880247689783573 -0.029719891026616096 0.0013564899563789368
v 0.009859599173069 -0.022062355652451515 0.001279519870877266
v 0.005093607120215893 -0.042720649391412735 -0.008508078753948212
v 0.010444830171763897 -0.04000189155340195 -0.004974288400262594
v 0.011978372931480408 -0.0370962917804718 0.002478613518178463
v 0.008381843566894531 -0.035331692546606064 0.00920618325471878
v 0.0071059055626392365 -0.02814668044447899 0.007983820512890816
v 0.011627375148236752 -0.0476461760699749 -0.002316930564120412
v 0.013321846723556519 -0.04441724717617035 0.004336757585406303
v 0.009706098586320877 -0.04270437732338905 0.010498102754354477
v 0.0022761221043765545 -0.04321163147687912 0.009646478109061718
v 0.0006066649220883846 -0.035637471824884415 0.008518710732460022
v 0.014740699902176857 -0.051959726959466934 0.006391685456037521
v 0.011062252335250378 -0.050369080156087875 0.011936606839299202
v 0.004026589449495077 -0.050848014652729034 0.01079835556447506
v -0.0006714232731610537 -0.051528315991163254 0.0057688867673277855
v -0.0029308879747986794 -0.043994586914777756 0.004104449413716793
v 0.012157976627349854 -0.05812492594122887 0.013479681685566902
v 0.0053843604400753975 -0.05850609391927719 0.011896496638655663
v 0.0007461076602339745 -0.059047799557447433 0.007456456311047077
v 0.0026607955805957317 -0.05909372866153717 0.0016908450052142143
v 0.0013682935386896133 -0.05138498172163963 -0.0007299217395484447
v 0.006450938992202282 -0.06618407368659973 0.01336078904569149
v 0.0018248599953949451 -0.066682830452919 0.009258007630705833
v 0.0037792171351611614 -0.06670936197042465 0.004028728231787682
v 0.00918770395219326 -0.06564473360776901 0.0010444000363349915
v 0.007988463155925274 -0.058133311569690704 -0.0018843738362193108
v 0.0028326930478215218 -0.07442943006753922 0.011118117719888687
v 0.00478474423289299 -0.07440235465765 0.00607458408921957
v 0.010285073891282082 -0.07313945889472961 0.003854988142848015
v 0.01610741950571537 -0.07051628828048706 0.00466557964682579
v 0.014648668467998505 -0.06285374611616135 0.0024299053475260735
v 0.006059557199478149 -0.08203557878732681 0.008195856586098671
v 0.0114967692643404 -0.08052844554185867 0.006537043489515781
v 0.017393818125128746 -0.07805157452821732 0.00703040137887001
v 0.018902145326137543 -0.07492532581090927 0.012694353237748146
v 0.017576390877366066 -0.0672902911901474 0.010600194334983826
v 0.012924041599035263 -0.0878467708826065 0.008925199508666992
v 0.018667973577976227 -0.08548285812139511 0.009221825748682022
v 0.020270785316824913 -0.08260077238082886 0.014597803354263306
v 0.015297247096896172 -0.0813511461019516 0.018530230969190598
v 0.014040974900126457 -0.07361836731433868 0.016715798527002335
v 0.020047565922141075 -0.0929635539650917 0.011116890236735344
v 0.02164669893682003 -0.09036421775817871 0.016324667260050774
v 0.016726665198802948 -0.08918371051549911 0.02021872252225876
v 0.010474231094121933 -0.08953829109668732 0.01810811273753643
v 0.008981424383819103 -0.08173365890979767 0.016463086009025574
v 0.023004844784736633 -0.09827493876218796 0.017879540100693703
v 0.018134498968720436 -0.09706734120845795 0.021785857155919075
v 0.011985762976109982 -0.09733752906322479 0.019691236317157745
v 0.007810167036950588 -0.09778636693954468 0.01561129093170166
v 0.005896685644984245 -0.09011895954608917 0.014354683458805084
v 0.019370099529623985 -0.10493911057710648 0.02329898439347744
v 0.013657743111252785 -0.10512140393257141 0.020976584404706955
v 0.009586617350578308 -0.1054345890879631 0.01682029291987419
v 0.010601622052490711 -0.10480113327503204 0.012949364259839058
v 0.00915102381259203 -0.09721211344003677 0.011510804295539856
v 0.015159236267209053 -0.11293849349021912 0.022308189421892166
v 0.01106521487236023 -0.11315601319074631 0.018138322979211807
v 0.011887235566973686 -0.11248468607664108 0.014264212921261787
v 0.017219696193933487 -0.11062327027320862 0.0130723025649786
v 0.0159242432564497 -0.10291000455617905 0.011917071416974068
v 0.012294698506593704 -0.12090828269720078 0.01947833225131035
v 0.013036336749792099 -0.12022946774959564 0.015504125505685806
v 0.01834869012236595 -0.11845805495977402 0.013987164944410324
v 0.023987222462892532 -0.11635571718215942 0.015057872980833054
v 0.02288084104657173 -0.10847677290439606 0.0137953981757164
v 0.014109600335359573 -0.12799477577209473 0.016562938690185547
v 0.019313331693410873 -0.12632831931114197 0.014778314158320427
v 0.02494196966290474 -0.12419796735048294 0.016410402953624725
v 0.025407280772924423 -0.1220250353217125 0.021947959437966347
v 0.024430161342024803 -0.11420751363039017 0.02057899534702301
v 0.020252536982297897 -0.1341792792081833 0.015601594001054764
v 0.02582620456814766 -0.13200287520885468 0.01769493892788887
v 0.026802193373441696 -0.12988734245300293 0.02326660230755806
v 0.022897668182849884 -0.12885767221450806 0.027247432619333267
v 0.02175637148320675 -0.12073830515146255 0.02630441263318062
v 0.02661009319126606 -0.139884352684021 0.018702074885368347
v 0.02792567014694214 -0.13794292509555817 0.024162696674466133
v 0.02384595386683941 -0.1370222419500351 0.027607236057519913
v 0.018751122057437897 -0.13667252659797668 0.025262348353862762
v 0.01784565858542919 -0.12873408198356628 0.02439260110259056
v 0.02881624922156334 -0.1460086703300476 0.024780146777629852
v 0.02461923472583294 -0.1450941413640976 0.02792045846581459
v 0.019412420690059662 -0.14459308981895447 0.02600841037929058
v 0.015229703858494759 -0.14424863457679749 0.022528674453496933
v 0.014478197321295738 -0.1364346742630005 0.02174212411046028
v 0.02529812604188919 -0.15308402478694916 0.028404034674167633
v 0.019975824281573296 -0.15251916646957397 0.026624832302331924
v 0.015849726274609566 -0.15211869776248932 0.023144718259572983
v 0.016808316111564636 -0.15136796236038208 0.018916446715593338
v 0.01585620641708374 -0.14356112480163574 0.01816972903907299
v 0.02042318880558014 -0.160470649600029 0.027278807014226913
v 0.0163368321955204 -0.1600058525800705 0.023615220561623573
v 0.01767248474061489 -0.1591789275407791 0.019507208839058876
v 0.022835448384284973 -0.15768834948539734 0.017965402454137802
v 0.021987993270158768 -0.1498408168554306 0.017283644527196884
v 0.016754379495978355 -0.1679401397705078 0.024037066847085953
v 0.018430110067129135 -0.16705167293548584 0.019924640655517578
v 0.02366536296904087 -0.1655382215976715 0.01868543215095997
v 0.028858888894319534 -0.16361679136753082 0.020575592294335365
v 0.028097771108150482 -0.15570546686649323 0.020047908648848534
v 0.019074726849794388 -0.17496374249458313 0.02022959664463997
v 0.024552643299102783 -0.17340858280658722 0.01910414919257164
v 0.029827501624822617 -0.1714535653591156 0.020890990272164345
v 0.03136477619409561 -0.16987551748752594 0.0260615237057209
v 0.030535712838172913 -0.16194584965705872 0.02573014795780182
v 0.02550971321761608 -0.18127886950969696 0.01953168585896492
v 0.03117728978395462 -0.17924776673316956 0.02095232531428337
v 0.032404784113168716 -0.17777231335639954 0.026360582560300827
v 0.027691911906003952 -0.1769888550043106 0.03026474639773369
v 0.026807542890310287 -0.16900016367435455 0.0296279639005661
v 0.0324975922703743 -0.18707650899887085 0.021080605685710907
v 0.03357192128896713 -0.18571007251739502 0.026651978492736816
v 0.02856491506099701 -0.18500427901744843 0.030776817351579666
v 0.022072356194257736 -0.18449094891548157 0.028743449598550797
v 0.02155783772468567 -0.17648731172084808 0.028292153030633926
v 0.034675728529691696 -0.1936732679605484 0.02688111737370491
v 0.029292486608028412 -0.19299128651618958 0.031287092715501785
v 0.022322485223412514 -0.19247841835021973 0.029452838003635406
v 0.017512938007712364 -0.1918887495994568 0.024937864392995834
v 0.01715276390314102 -0.18391363322734833 0.02475650981068611
v 0.03001967817544937 -0.2009478360414505 0.032051265239715576
v 0.022704623639583588 -0.20053091645240784 0.02990839257836342
v 0.017572255805134773 -0.19981704652309418 0.025128016248345375
v 0.02073047123849392 -0.19878143072128296 0.020208582282066345
v 0.0202158335596323 -0.19083485007286072 0.02033621072769165
v 0.022933458909392357 -0.2086491733789444 0.030153825879096985
v 0.01727948896586895 -0.20778976380825043 0.025268319994211197
v 0.02090165950357914 -0.20676380395889282 0.019960779696702957
v 0.02833666279911995 -0.20507898926734924 0.019263410940766335
v 0.02742159552872181 -0.19706599414348602 0.019608285278081894
v 0.016739755868911743 -0.2157612293958664 0.025242317467927933
v 0.020645711570978165 -0.2146577388048172 0.019406024366617203
v 0.029162947088479996 -0.21309754252433777 0.01879899576306343
v 0.03716028854250908 -0.21030381321907043 0.020322740077972412
v 0.03534955158829689 -0.2026883214712143 0.02072383277118206
v 0.0196890477091074 -0.22195641696453094 0.01759064383804798
v 0.029782231897115707 -0.22089223563671112 0.017798781394958496
v 0.03970220685005188 -0.21780650317668915 0.01901344582438469
v 0.03955860808491707 -0.21708273887634277 0.027166016399860382
v 0.03734859824180603 -0.20934896171092987 0.027212075889110565
v 0.030940163880586624 -0.20892171561717987 0.0329483263194561
v 0.035834331065416336 -0.20154574513435364 0.027093298733234406
v 0.031760092824697495 -0.21675938367843628 0.03387153521180153
v 0.02261144481599331 -0.21663393080234528 0.030670199543237686
v 0.021444963291287422 -0.22402095794677734 0.031824760138988495
v 0.016194172203540802 -0.22332893311977386 0.024724680930376053
v 0.03383392468094826 -0.194913849234581 0.02106182649731636
v 0.026445144787430763 -0.18914629518985748 0.019766338169574738
v 0.019792882725596428 -0.18288829922676086 0.020678196102380753
v 0.016927676275372505 -0.17591091990470886 0.024450022727251053
v 0.02098960615694523 -0.16847456991672516 0.02779300883412361
v 0.025957440957427025 -0.16103582084178925 0.028883498162031174
v 0.02970150113105774 -0.154000386595726 0.025306830182671547
v 0.027278926223516464 -0.1477866917848587 0.019516170024871826
v 0.02114724926650524 -0.14200465381145477 0.016477243974804878
v 0.01499718427658081 -0.1357722133398056 0.017434852197766304
v 0.013497427105903625 -0.12866565585136414 0.020754538476467133
v 0.01662403903901577 -0.1208067461848259 0.023400552570819855
v 0.02054397203028202 -0.11279921978712082 0.024827975779771805
v 0.02379630133509636 -0.1062815934419632 0.019249141216278076
v 0.021581074222922325 -0.10064864158630371 0.012516668066382408
v 0.014472227543592453 -0.0953250378370285 0.010526400059461594
v 0.007597281597554684 -0.0896407887339592 0.010077297687530518
v 0.004200982395559549 -0.0822916030883789 0.012788843363523483
v 0.007612813264131546 -0.07393035292625427 0.014902742579579353
v 0.013055466115474701 -0.06590995192527771 0.014983002096414566
v 0.016150066629052162 -0.059618301689624786 0.008490392006933689
v 0.013180680572986603 -0.05520730838179588 0.00011205719783902168
v 0.006552453152835369 -0.050565995275974274 -0.004815227352082729
v -0.0002745117526501417 -0.043382443487644196 -0.003200274659320712
v -0.005204489920288324 -0.03603111952543259 0.0028993505984544754
v -0.00039688427932560444 -0.028052296489477158 0.007662726566195488
v 0.005896199494600296 -0.02081356570124626 0.006921268999576569
v 0.009182879701256752 -0.014334788545966148 0.0016222004778683186
v 0.008464766666293144 -0.008668049238622189 -0.004159790463745594
vn 0.35011836886405945 0.8492659330368042 0.3951764702796936
vn -0.03106890432536602 0.7723308801651001 0.6344602704048157
vn -0.09802919626235962 -0.015923477709293365 0.9950560927391052
vn 0.6003305315971375 -0.14253175258636475 0.7869485020637512
vn 0.3963925540447235 0.9179775714874268 0.013788362964987755
vn 0.1349320113658905 0.9791448712348938 0.15188367664813995
vn 0.9125543832778931 0.37126392126083374 -0.1714865118265152
vn -0.23500394821166992 0.6242678761482239 0.7450253963470459
vn 0.3225391209125519 0.8885899186134338 0.32615405321121216
vn -0.8538481593132019 -0.04199995473027229 0.5188249349594116
vn 0.4186811149120331 0.8322833180427551 0.36333274841308594
vn -0.5574226975440979 0.6398512721061707 0.52902752161026
vn 0.2674424946308136 0.8574250936508179 -0.43965524435043335
vn 0.18075589835643768 0.9733812808990479 -0.1409119814634323
vn -0.3910258114337921 0.6283974051475525 -0.6724697947502136
vn -0.8045405745506287 0.19642764329910278 -0.560473620891571
vn -0.8841232061386108 -0.19470547139644623 -0.42475399374961853
vn 0.04798280820250511 0.48290103673934937 -0.8743593692779541
vn -0.2346925437450409 -0.041502416133880615 -0.9711833000183105
vn 0.06937692314386368 0.9741335511207581 -0.2150598168373108
vn 0.38448795676231384 0.9067773222923279 -0.17298489809036255
vn 0.6240192651748657 0.26559051871299744 -0.7348888516426086
vn -0.1346864402294159 -0.9895890951156616 0.050724565982818604
vn 0.3114073872566223 -0.8694374561309814 0.3835413157939911
vn 0.07247189432382584 -0.9239630699157715 0.37555304169654846
vn 0.012773700058460236 -0.9999176859855652 0.001320309704169631
vn -0.12126883864402771 -0.9886015057563782 0.08922392129898071
vn 0.65073162317276 -0.7458164691925049 -0.14249978959560394
vn -0.10557156801223755 -0.9868536591529846 0.12236998230218887
vn -0.23992876708507538 -0.9366744160652161 0.25509846210479736
vn -0.7671680450439453 -0.15940643846988678 0.6213233470916748
vn -0.8593368530273438 -0.509160041809082 -0.04791715368628502
vn -0.08119247853755951 -0.9965248107910156 -0.018599750474095345
vn -0.15969206392765045 -0.11041109263896942 0.9809728264808655
vn 0.09245216846466064 -0.8995374441146851 -0.426948606967926
vn -0.09575433284044266 -0.9946695566177368 0.038256049156188965
vn -0.50544273853302 -0.2815571129322052 -0.8156306147575378
vn -0.9236282706260681 0.2449434995651245 -0.2948111593723297
vn -0.5483191609382629 0.21686992049217224 -0.8076593279838562
vn 0.3392336070537567 0.14141829311847687 -0.9300115704536438
vn 0.9430323839187622 0.09809909015893936 -0.31790921092033386
vn -0.40854984521865845 0.11620683968067169 -0.905308187007904
vn 0.24427013099193573 0.0808621421456337 -0.9663299322128296
vn 0.951122522354126 0.18756608664989471 -0.2453259825706482
vn 0.690653383731842 0.2894992530345917 0.6627126336097717
vn 0.756346583366394 -0.005675519350916147 0.6541464924812317
vn 0.4412277340888977 0.011340928263962269 -0.897323489189148
vn 0.9482005834579468 0.019747713580727577 -0.31705811619758606
vn 0.7491644024848938 0.027973949909210205 0.661793053150177
vn -0.036121923476457596 -0.07096248865127563 0.9968247413635254
vn 0.09363572299480438 0.2720840871334076 0.9577069282531738
vn 0.9986629486083984 0.013725015334784985 -0.04983668029308319
vn 0.8019481897354126 0.025958795100450516 0.5968292951583862
vn 0.11255499720573425 -0.16509877145290375 0.9798335433006287
vn -0.843349039554596 -0.1485213339328766 0.516433835029602
vn -0.6936325430870056 -0.1198304146528244 0.7102919816970825
vn 0.7724073529243469 0.09121090918779373 0.6285440325737
vn 0.24919231235980988 0.06496721506118774 0.9662724137306213
vn -0.8259550333023071 -0.08063579350709915 0.5579392910003662
vn -0.9583033919334412 -0.16319260001182556 -0.23456913232803345
vn -0.9850552082061768 -0.1090526282787323 -0.13331875205039978
vn -0.13080982863903046 0.2841072380542755 0.9498273730278015
vn -0.7891581058502197 0.09394495189189911 0.6069627404212952
vn -0.9802456498146057 -0.1669267863035202 -0.10608495771884918
vn -0.3685693144798279 -0.20904530584812164 -0.9057906866073608
vn -0.5975126624107361 -0.21860913932323456 -0.7714847922325134
vn -0.8442692756652832 0.021244576200842857 0.5354978442192078
vn -0.9832295775413513 -0.182351753115654 0.0027007171884179115
vn -0.4461321532726288 -0.2376377135515213 -0.862841010093689
vn 0.5044320821762085 -0.00692283920943737 -0.8634235858917236
vn 0.35845139622688293 -0.06753285229206085 -0.9311025142669678
vn -0.9604279398918152 -0.21606308221817017 -0.17576943337917328
vn -0.505713701248169 -0.254133403301239 -0.8244208693504333
vn 0.46972358226776123 -0.054047953337430954 -0.8811575174331665
vn 0.9721091389656067 0.21179376542568207 -0.10073398053646088
vn 0.9241586327552795 0.20548510551452637 -0.32203519344329834
vn -0.224783793091774 -0.20122551918029785 -0.9534046649932861
vn 0.4331154525279999 -0.08860146254301071 -0.896973192691803
vn 0.9629061818122864 0.12083607912063599 -0.2412681132555008
vn 0.7065111398696899 0.3228131830692291 0.6297885179519653
vn 0.8070942163467407 0.3032284379005432 0.5066078901290894
vn 0.5173876881599426 -0.09771190583705902 -0.8501543402671814
vn 0.9223936796188354 0.04321878030896187 -0.38382551074028015
vn 0.7070629596710205 0.29946213960647583 0.6406126022338867
vn -0.08712282031774521 0.327575147151947 0.9407997131347656
vn 0.0900825560092926 0.35910120606422424 0.928941011428833
vn 0.9848453402519226 0.11999814957380295 -0.12522058188915253
vn 0.7222233414649963 0.2798404097557068 0.6325209140777588
vn 0.01524759829044342 0.3114052414894104 0.9501548409461975
vn -0.7728670239448547 0.04898332431912422 0.6326747536659241
vn -0.6463186740875244 0.11987482011318207 0.753592848777771
vn 0.543965220451355 0.3228330910205841 0.7745195627212524
vn 0.017311492934823036 0.31247565150260925 0.9497680068016052
vn -0.6752389669418335 0.1116955429315567 0.7290929555892944
vn -0.9119253158569336 -0.23478354513645172 -0.3365543484687805
vn -0.9760976433753967 -0.19650983810424805 -0.09282901138067245
vn -0.05020897462964058 0.2559586763381958 0.9653828740119934
vn -0.5507159233093262 0.11400633305311203 0.8268703818321228
vn -0.9474031329154968 -0.21691301465034485 -0.23532116413116455
vn -0.08410294353961945 -0.2272411435842514 -0.9702001214027405
vn -0.3169950246810913 -0.2630801200866699 -0.9112097024917603
vn -0.7318598628044128 0.011198491789400578 0.6813631653785706
vn -0.9731802344322205 -0.20091664791107178 -0.11203953623771667
vn -0.18230322003364563 -0.22916504740715027 -0.9561635851860046
vn 0.5142441987991333 -0.07358864694833755 -0.8544809222221375
vn 0.44213634729385376 -0.10388555377721786 -0.8909114003181458
vn -0.9024244546890259 -0.20096781849861145 -0.38110649585723877
vn -0.3066483736038208 -0.2180846631526947 -0.9265019297599792
vn 0.5238997936248779 -0.04458669573068619 -0.8506121039390564
vn 0.9724864959716797 0.2139381319284439 -0.09219704568386078
vn 0.9193408489227295 0.13700836896896362 -0.3688375651836395
vn -0.07297270745038986 -0.18890437483787537 -0.9792803525924683
vn 0.5316386222839355 -0.04301103204488754 -0.845878541469574
vn 0.9572296738624573 0.15205395221710205 -0.24615256488323212
vn 0.5210325121879578 0.2419625073671341 0.8185226321220398
vn 0.6888888478279114 0.2687736749649048 0.673196017742157
vn 0.6071645617485046 -0.009937271475791931 -0.7945138812065125
vn 0.9179496765136719 0.10207924246788025 -0.38333824276924133
vn 0.6607662439346313 0.21890965104103088 0.717960000038147
vn -0.032391659915447235 0.13253861665725708 0.9906483888626099
vn 0.016605868935585022 0.1676202267408371 0.9857118129730225
vn 0.9744643568992615 0.11835534125566483 -0.19081708788871765
vn 0.7819280028343201 0.2029523104429245 0.5894055962562561
vn -0.004516769200563431 0.13194718956947327 0.9912464618682861
vn -0.8233659863471985 -0.0013512817677110434 0.567509114742279
vn -0.5995138883590698 0.027503881603479385 0.7998916506767273
vn 0.6416534781455994 0.16826148331165314 0.7483106851577759
vn 0.053582146763801575 0.10986709594726562 0.9925009608268738
vn -0.7627089023590088 -0.00914354994893074 0.6466773748397827
vn -0.9231091737747192 -0.19827507436275482 -0.32947906851768494
vn -0.9705303311347961 -0.13744890689849854 -0.19793596863746643
vn -0.10116317123174667 0.10655491799116135 0.9891470670700073
vn -0.7022974491119385 0.02152770198881626 0.7115580439567566
vn -0.9528552293777466 -0.15546533465385437 -0.26057150959968567
vn 0.006762336473912001 -0.08548972755670547 -0.9963160753250122
vn -0.33504578471183777 -0.19635845720767975 -0.9215137362480164
vn -0.8234468698501587 -0.020906055346131325 0.5670081377029419
vn -0.9800930023193359 -0.12725411355495453 -0.15239471197128296
vn -0.14715342223644257 -0.08897653222084045 -0.9851036071777344
vn 0.5528625249862671 -0.030609579756855965 -0.8327100872993469
vn 0.5395514369010925 -0.015019169077277184 -0.8418186902999878
vn -0.9048133492469788 -0.12081228941679001 -0.40831008553504944
vn -0.2539132237434387 -0.07660730928182602 -0.9641883969306946
vn 0.5034010410308838 -0.024487202987074852 -0.8637058138847351
vn 0.9662415981292725 0.06751669198274612 -0.24863369762897491
vn 0.8840624690055847 0.044761430472135544 -0.46522030234336853
vn -0.04581012576818466 -0.06863367557525635 -0.9965896010398865
vn 0.4452936351299286 -0.0381200946867466 -0.8945728540420532
vn 0.9500057697296143 0.055816564708948135 -0.30720245838165283
vn 0.6248264908790588 0.14165259897708893 0.7678061723709106
vn 0.8063182830810547 0.13907112181186676 0.5749000906944275
vn 0.517086923122406 -0.027980344370007515 -0.8554754853248596
vn 0.9246479272842407 0.03225302696228027 -0.37945500016212463
vn 0.6753622889518738 0.11053093522787094 0.7291561365127563
vn -0.13693970441818237 0.06955301761627197 0.9881346225738525
vn -0.003163915127515793 0.090418241918087 0.9958988428115845
vn 0.9943251013755798 0.04509629309177399 -0.09635230898857117
vn 0.6982282400131226 0.08127818256616592 0.7112462520599365
vn -0.07040631771087646 0.05176186561584473 0.9961745738983154
vn -0.774968147277832 -0.05050097033381462 0.6299792528152466
vn -0.660731852054596 -0.011194020509719849 0.7505385279655457
vn 0.5139027237892151 0.08708050847053528 0.8534172177314758
vn -0.02318791300058365 0.05054188519716263 0.9984526634216309
vn -0.7038545608520508 -0.06679826974868774 0.7071964740753174
vn -0.8991312384605408 -0.13122378289699554 -0.4175443947315216
vn -0.9806232452392578 -0.11518613994121552 -0.15846237540245056
vn -0.09062058478593826 0.021562904119491577 0.9956520795822144
vn -0.5986855626106262 -0.08577108383178711 0.7963785529136658
vn -0.9431929588317871 -0.15532377362251282 -0.2937031090259552
vn -0.08784057199954987 -0.0815492570400238 -0.9927908778190613
vn -0.2950464189052582 -0.10905054211616516 -0.9492394924163818
vn -0.7715297341346741 -0.11974747478961945 0.6248218417167664
vn -0.966048538684845 -0.152705118060112 -0.2084018588066101
vn -0.20195898413658142 -0.09025293588638306 -0.9752265810966492
vn 0.505299985408783 -0.03550011292099953 -0.862213134765625
vn 0.4439888000488281 -0.021459361538290977 -0.895775318145752
vn -0.8850745558738708 -0.13758337497711182 -0.44465017318725586
vn -0.31942877173423767 -0.10335906594991684 -0.9419565200805664
vn 0.48149368166923523 -0.03625313937664032 -0.8756994009017944
vn 0.9992899894714355 0.024106023833155632 0.028952719643712044
vn 0.9501555562019348 0.012490066699683666 -0.3115259110927582
vn -0.22030439972877502 -0.11655163019895554 -0.9684429168701172
vn 0.46059250831604004 -0.03040090948343277 -0.8870909214019775
vn 0.9914889931678772 -0.002760411938652396 -0.13016070425510406
vn 0.4335460960865021 -0.0001473798620281741 0.9011313915252686
vn 0.6118557453155518 0.00900937244296074 0.7909180521965027
vn 0.5029864311218262 -0.04852494224905968 -0.8629310727119446
vn 0.952202320098877 -0.061476461589336395 -0.299218088388443
vn 0.5151069164276123 -0.04464196413755417 0.8559625148773193
vn -0.07117316871881485 -0.05973774567246437 0.9956735372543335
vn -0.023812362924218178 -0.03611832484602928 0.9990637898445129
vn 0.9901730418205261 -0.10655851662158966 -0.09056831151247025
vn 0.6185656785964966 -0.1578017920255661 0.7697240710258484
vn -0.029153818264603615 -0.12686286866664886 0.9914917945861816
vn -0.6947740316390991 -0.2746308445930481 0.6647306680679321
vn -0.7175116539001465 -0.17924751341342926 0.673088014125824
vn 0.43586575984954834 -0.35392770171165466 0.8274999856948853
vn -0.01521921344101429 -0.3118360638618469 0.9500139951705933
vn -0.6779106855392456 -0.35719045996665955 0.6425357460975647
vn -0.8773790001869202 -0.2667387127876282 -0.39881882071495056
vn -0.8979682922363281 -0.23022204637527466 -0.3750344216823578
vn -0.09134835749864578 -0.11180241405963898 -0.9895229339599609
vn -0.9198133945465088 -0.17104746401309967 -0.35310909152030945
vn -0.18347011506557465 -0.18375326693058014 -0.9656984806060791
vn 0.5338736772537231 -0.12341836839914322 -0.8365086913108826
vn 0.5654069185256958 -0.10771159082651138 -0.8177487850189209
vn 0.9861524105072021 -0.1592550277709961 0.04627373442053795
vn -0.707386314868927 -0.1290406882762909 0.6949482560157776
vn -0.04907746613025665 -0.0133267967030406 0.9987061023712158
vn 0.5566660761833191 0.05297301709651947 0.8290457129478455
vn 0.9805212616920471 0.03848887234926224 -0.19260480999946594
vn 0.48590609431266785 -0.027297042310237885 -0.8735845685005188
vn -0.16966335475444794 -0.0879419669508934 -0.9815704822540283
vn -0.9476114511489868 -0.11286268383264542 -0.2988218069076538
vn -0.7432461380958557 -0.017649240791797638 0.6687852740287781
vn -0.064099982380867 0.10071416944265366 0.99284827709198
vn 0.7453457117080688 0.15261460840702057 0.6489750742912292
vn 0.9362142086029053 0.08213455975055695 -0.34169691801071167
vn 0.579528272151947 -0.02506556175649166 -0.8145665526390076
vn -0.19912189245224 -0.18282388150691986 -0.9627699255943298
vn -0.9470354318618774 -0.16619521379470825 -0.27477848529815674
vn -0.6625047922134399 0.021382654085755348 0.7487523555755615
vn -0.02287747524678707 0.1930226981639862 0.980927586555481
vn 0.5847114324569702 0.30089688301086426 0.7533748149871826
vn 0.9561278223991394 0.13456487655639648 -0.26021480560302734
vn 0.4640730619430542 -0.11522215604782104 -0.8782710433006287
vn -0.2734202742576599 -0.2463257759809494 -0.9298198223114014
vn -0.9685749411582947 -0.19596229493618011 -0.15317091345787048
vn -0.7699210047721863 0.0660957619547844 0.6347070336341858
vn 0.00750086922198534 0.35204875469207764 0.9359515905380249
vn 0.7765024900436401 0.3096317648887634 0.5487915873527527
vn 0.9744938611984253 0.1265871673822403 -0.18530389666557312
vn 0.3921925723552704 -0.050803057849407196 -0.9184791445732117
vn -0.5028443932533264 -0.09337154030799866 -0.8593190312385559
vn -0.9747977256774902 0.03227120637893677 -0.2207442820072174
vn -0.7766426801681519 0.2405402958393097 0.5822082757949829
f 1//1 2//2 3//3
f 1//1 3//3 4//4
f 1//1 5//5 6//6
f 1//1 6//6 2//2
f 1//1 4//4 7//7
f 1//1 7//7 5//5
f 8//8 2//2 6//6
f 8//8 6//6 9//9
f 8//8 10//10 3//3
f 8//8 3//3 2//2
f 8//8 9//9 11//11
f 8//8 11//11 12//12
f 11//11 9//9 13//13
f 11//11 13//13 14//14
f 12//12 15//15 16//16
f 12//12 16//16 8//8
f 15//15 14//14 13//13
f 15//15 13//13 16//16
f 16//16 17//17 10//10
f 16//16 10//10 8//8
f 16//16 18//18 19//19
f 16//16 19//19 17//17
f 16//16 13//13 20//20
f 16//16 20//20 18//18
f 21//21 20//20 6//6
f 21//21 6//6 5//5
f 21//21 5//5 7//7
f 21//21 7//7 22//22
f 21//21 22//22 18//18
f 21//21 18//18 20//20
f 23//23 24//24 25//25
f 23//23 25//25 26//26
f 23//23 27//27 28//28
f 23//23 28//28 24//24
f 23//23 26//26 29//29
f 23//23 29//29 27//27
f 30//30 31//31 32//32
f 30//30 32//32 33//33
f 30//30 25//25 34//34
f 30//30 34//34 31//31
f 30//30 33//33 26//26
f 30//30 26//26 25//25
f 27//27 29//29 35//35
f 27//27 35//35 28//28
f 36//36 33//33 32//32
f 36//36 32//32 37//37
f 36//36 29//29 26//26
f 36//36 26//26 33//33
f 36//36 37//37 35//35
f 36//36 35//35 29//29
f 37//37 32//32 38//38
f 37//37 38//38 39//39
f 37//37 39//39 40//40
f 37//37 40//40 35//35
f 40//40 41//41 28//28
f 40//40 28//28 35//35
f 40//40 39//39 42//42
f 40//40 42//42 43//43
f 40//40 43//43 44//44
f 40//40 44//44 41//41
f 44//44 45//45 46//46
f 44//44 46//46 41//41
f 44//44 43//43 47//47
f 44//44 47//47 48//48
f 44//44 48//48 49//49
f 44//44 49//49 45//45
f 49//49 50//50 51//51
f 49//49 51//51 45//45
f 49//49 48//48 52//52
f 49//49 52//52 53//53
f 49//49 53//53 54//54
f 49//49 54//54 50//50
f 54//54 55//55 56//56
f 54//54 56//56 50//50
f 54//54 53//53 57//57
f 54//54 57//57 58//58
f 54//54 58//58 59//59
f 54//54 59//59 55//55
f 59//59 60//60 61//61
f 59//59 61//61 55//55
f 59//59 58//58 62//62
f 59//59 62//62 63//63
f 59//59 63//63 64//64
f 59//59 64//64 60//60
f 64//64 65//65 66//66
f 64//64 66//66 60//60
f 64//64 63//63 67//67
f 64//64 67//67 68//68
f 64//64 68//68 69//69
f 64//64 69//69 65//65
f 69//69 70//70 71//71
f 69//69 71//71 65//65
f 69//69 68//68 72//72
f 69//69 72//72 73//73
f 69//69 73//73 74//74
f 69//69 74//74 70//70
f 74//74 75//75 76//76
f 74//74 76//76 70//70
f 74//74 73//73 77//77
f 74//74 77//77 78//78
f 74//74 78//78 79//79
f 74//74 79//79 75//75
f 79//79 80//80 81//81
f 79//79 81//81 75//75
f 79//79 78//78 82//82
f 79//79 82//82 83//83
f 79//79 83//83 84//84
f 79//79 84//84 80//80
f 84//84 85//85 86//86
f 84//84 86//86 80//80
f 84//84 83//83 87//87
f 84//84 87//87 88//88
f 84//84 88//88 89//89
f 84//84 89//89 85//85
f 89//89 90//90 91//91
f 89//89 91//91 85//85
f 89//89 88//88 92//92
f 89//89 92//92 93//93
f 89//89 93//93 94//94
f 89//89 94//94 90//90
f 94//94 95//95 96//96
f 94//94 96//96 90//90
f 94//94 93//93 97//97
f 94//94 97//97 98//98
f 94//94 98//98 99//99
f 94//94 99//99 95//95
f 99//99 100//100 101//101
f 99//99 101//101 95//95
f 99//99 98//98 102//102
f 99//99 102//102 103//103
f 99//99 103//103 104//104
f 99//99 104//104 100//100
f 104//104 105//105 106//106
f 104//104 106//106 100//100
f 104//104 103//103 107//107
f 104//104 107//107 108//108
f 104//104 108//108 109//109
f 104//104 109//109 105//105
f 109//109 110//110 111//111
f 109//109 111//111 105//105
f 109//109 108//108 112//112
f 109//109 112//112 113//113
f 109//109 113//113 114//114
f 109//109 114//114 110//110
f 114//114 115//115 116//116
f 114//114 116//116 110//110
f 114//114 113//113 117//117
f 114//114 117//117 118//118
f 114//114 118//118 119//119
f 114//114 119//119 115//115
f 119//119 120//120 121//121
f 119//119 121//121 115//115
f 119//119 118//118 122//122
f 119//119 122//122 123//123
f 119//119 123//123 124//124
f 119//119 124//124 120//120
f 124//124 125//125 126//126
f 124//124 126//126 120//120
f 124//124 123//123 127//127
f 124//124 127//127 128//128
f 124//124 128//128 129//129
f 124//124 129//129 125//125
f 129//129 130//130 131//131
f 129//129 131//131 125//125
f 129//129 128//128 132//132
f 129//129 132//132 133//133
f 129//129 133//133 134//134
f 129//129 134//134 130//130
f 134//134 135//135 136//136
f 134//134 136//136 130//130
f 134//134 133//133 137//137
f 134//134 137//137 138//138
f 134//134 138//138 139//139
f 134//134 139//139 135//135
f 139//139 140//140 141//141
f 139//139 141//141 135//135
f 139//139 138//138 142//142
f 139//139 142//142 143//143
f 139//139 143//143 144//144
f 139//139 144//144 140//140
f 144//144 145//145 146//146
f 144//144 146//146 140//140
f 144//144 143//143 147//147
f 144//144 147//147 148//148
f 144//144 148//148 149//149
f 144//144 149//149 145//145
f 149//149 150//150 151//151
f 149//149 151//151 145//145
f 149//149 148//148 152//152
f 149//149 152//152 153//153
f 149//149 153//153 154//154
f 149//149 154//154 150//150
f 154//154 155//155 156//156
f 154//154 156//156 150//150
f 154//154 153//153 157//157
f 154//154 157//157 158//158
f 154//154 158//158 159//159
f 154//154 159//159 155//155
f 159//159 160//160 161//161
f 159//159 161//161 155//155
f 159//159 158//158 162//162
f 159//159 162//162 163//163
f 159//159 163//163 164//164
f 159//159 164//164 160//160
f 164//164 165//165 166//166
f 164//164 166//166 160//160
f 164//164 163//163 167//167
f 164//164 167//167 168//168
f 164//164 168//168 169//169
f 164//164 169//169 165//165
f 169//169 170//170 171//171
f 169//169 171//171 165//165
f 169//169 168//168 172//172
f 169//169 172//172 173//173
f 169//169 173//173 174//174
f 169//169 174//174 170//170
f 174//174 175//175 176//176
f 174//174 176//176 170//170
f 174//174 173//173 177//177
f 174//174 177//177 178//178
f 174//174 178//178 179//179
f 174//174 179//179 175//175
f 179//179 180//180 181//181
f 179//179 181//181 175//175
f 179//179 178//178 182//182
f 179//179 182//182 183//183
f 179//179 183//183 184//184
f 179//179 184//184 180//180
f 184//184 185//185 186//186
f 184//184 186//186 180//180
f 184//184 183//183 187//187
f 184//184 187//187 188//188
f 184//184 188//188 189//189
f 184//184 189//189 185//185
f 189//189 190//190 191//191
f 189//189 191//191 185//185
f 189//189 188//188 192//192
f 189//189 192//192 193//193
f 189//189 193//193 194//194
f 189//189 194//194 190//190
f 194//194 195//195 196//196
f 194//194 196//196 190//190
f 194//194 193//193 197//197
f 194//194 197//197 198//198
f 194//194 198//198 199//199
f 194//194 199//199 195//195
f 199//199 200//200 201//201
f 199//199 201//201 195//195
f 199//199 198//198 3//3
f 199//199 3//3 10//10
f 199//199 10//10 17//17
f 199//199 17//17 200//200
f 201//201 202//202 182//182
f 201//201 182//182 203//203
f 201//201 203//203 196//196
f 201//201 196//196 195//195
f 201//201 200//200 204//204
f 201//201 204//204 202//202
f 204//204 205//205 187//187
f 204//204 187//187 202//202
f 204//204 200//200 17//17
f 204//204 17//17 19//19
f 204//204 19//19 206//206
f 204//204 206//206 205//205
f 206//206 207//207 192//192
f 206//206 192//192 205//205
f 206//206 19//19 18//18
f 206//206 18//18 22//22
f 206//206 22//22 7//7
f 206//206 7//7 207//207
f 207//207 197//197 193//193
f 207//207 193//193 192//192
f 207//207 7//7 4//4
f 207//207 4//4 197//197
f 205//205 192//192 188//188
f 205//205 188//188 187//187
f 203//203 182//182 178//178
f 203//203 178//178 177//177
f 203//203 177//177 208//208
f 203//203 208//208 196//196
f 208//208 177//177 173//173
f 208//208 173//173 172//172
f 208//208 172//172 209//209
f 208//208 209//209 191//191
f 208//208 191//191 190//190
f 208//208 190//190 196//196
f 209//209 172//172 168//168
f 209//209 168//168 167//167
f 209//209 167//167 210//210
f 209//209 210//210 186//186
f 209//209 186//186 185//185
f 209//209 185//185 191//191
f 210//210 167//167 163//163
f 210//210 163//163 162//162
f 210//210 162//162 211//211
f 210//210 211//211 181//181
f 210//210 181//181 180//180
f 210//210 180//180 186//186
f 211//211 162//162 158//158
f 211//211 158//158 157//157
f 211//211 157//157 212//212
f 211//211 212//212 176//176
f 211//211 176//176 175//175
f 211//211 175//175 181//181
f 212//212 157//157 153//153
f 212//212 153//153 152//152
f 212//212 152//152 213//213
f 212//212 213//213 171//171
f 212//212 171//171 170//170
f 212//212 170//170 176//176
f 213//213 152//152 148//148
f 213//213 148//148 147//147
f 213//213 147//147 214//214
f 213//213 214//214 166//166
f 213//213 166//166 165//165
f 213//213 165//165 171//171
f 214//214 147//147 143//143
f 214//214 143//143 142//142
f 214//214 142//142 215//215
f 214//214 215//215 161//161
f 214//214 161//161 160//160
f 214//214 160//160 166//166
f 215//215 142//142 138//138
f 215//215 138//138 137//137
f 215//215 137//137 216//216
f 215//215 216//216 156//156
f 215//215 156//156 155//155
f 215//215 155//155 161//161
f 216//216 137//137 133//133
f 216//216 133//133 132//132
f 216//216 132//132 217//217
f 216//216 217//217 151//151
f 216//216 151//151 150//150
f 216//216 150//150 156//156
f 217//217 132//132 128//128
f 217//217 128//128 127//127
f 217//217 127//127 218//218
f 217//217 218//218 146//146
f 217//217 146//146 145//145
f 217//217 145//145 151//151
f 218//218 127//127 123//123
f 218//218 123//123 122//122
f 218//218 122//122 219//219
f 218//218 219//219 141//141
f 218//218 141//141 140//140
f 218//218 140//140 146//146
f 219//219 122//122 118//118
f 219//219 118//118 117//117
f 219//219 117//117 220//220
f 219//219 220//220 136//136
f 219//219 136//136 135//135
f 219//219 135//135 141//141
f 220//220 117//117 113//113
f 220//220 113//113 112//112
f 220//220 112//112 221//221
f 220//220 221//221 131//131
f 220//220 131//131 130//130
f 220//220 130//130 136//136
f 221//221 112//112 108//108
f 221//221 108//108 107//107
f 221//221 107//107 222//222
f 221//221 222//222 126//126
f 221//221 126//126 125//125
f 221//221 125//125 131//131
f 222//222 107//107 103//103
f 222//222 103//103 102//102
f 222//222 102//102 223//223
f 222//222 223//223 121//121
f 222//222 121//121 120//120
f 222//222 120//120 126//126
f 223//223 102//102 98//98
f 223//223 98//98 97//97
f 223//223 97//97 224//224
f 223//223 224//224 116//116
f 223//223 116//116 115//115
f 223//223 115//115 121//121
f 224//224 97//97 93//93
f 224//224 93//93 92//92
f 224//224 92//92 225//225
f 224//224 225//225 111//111
f 224//224 111//111 110//110
f 224//224 110//110 116//116
f 225//225 92//92 88//88
f 225//225 88//88 87//87
f 225//225 87//87 226//226
f 225//225 226//226 106//106
f 225//225 106//106 105//105
f 225//225 105//105 111//111
f 226//226 87//87 83//83
f 226//226 83//83 82//82
f 226//226 82//82 227//227
f 226//226 227//227 101//101
f 226//226 101//101 100//100
f 226//226 100//100 106//106
f 227//227 82//82 78//78
f 227//227 78//78 77//77
f 227//227 77//77 228//228
f 227//227 228//228 96//96
f 227//227 96//96 95//95
f 227//227 95//95 101//101
f 228//228 77//77 73//73
f 228//228 73//73 72//72
f 228//228 72//72 229//229
f 228//228 229//229 91//91
f 228//228 91//91 90//90
f 228//228 90//90 96//96
f 229//229 72//72 68//68
f 229//229 68//68 67//67
f 229//229 67//67 230//230
f 229//229 230//230 86//86
f 229//229 86//86 85//85
f 229//229 85//85 91//91
f 230//230 67//67 63//63
f 230//230 63//63 62//62
f 230//230 62//62 231//231
f 230//230 231//231 81//81
f 230//230 81//81 80//80
f 230//230 80//80 86//86
f 231//231 62//62 58//58
f 231//231 58//58 57//57
f 231//231 57//57 232//232
f 231//231 232//232 76//76
f 231//231 76//76 75//75
f 231//231 75//75 81//81
f 232//232 57//57 53//53
f 232//232 53//53 52//52
f 232//232 52//52 233//233
f 232//232 233//233 71//71
f 232//232 71//71 70//70
f 232//232 70//70 76//76
f 233//233 52//52 48//48
f 233//233 48//48 47//47
f 233//233 47//47 234//234
f 233//233 234//234 66//66
f 233//233 66//66 65//65
f 233//233 65//65 71//71
f 234//234 47//47 43//43
f 234//234 43//43 42//42
f 234//234 42//42 235//235
f 234//234 235//235 61//61
f 234//234 61//61 60//60
f 234//234 60//60 66//66
f 235//235 42//42 39//39
f 235//235 39//39 38//38
f 235//235 38//38 236//236
f 235//235 236//236 56//56
f 235//235 56//56 55//55
f 235//235 55//55 61//61
f 236//236 38//38 32//32
f 236//236 32//32 31//31
f 236//236 31//31 34//34
f 236//236 34//34 51//51
f 236//236 51//51 50//50
f 236//236 50//50 56//56
f 202//202 187//187 183//183
f 202//202 183//183 182//182
f 198//198 197//197 4//4
f 198//198 4//4 3//3
f 51//51 34//34 46//46
f 51//51 46//46 45//45
f 46//46 34//34 25//25
f 46//46 25//25 24//24
f 46//46 24//24 28//28
f 46//46 28//28 41//41
f 20//20 13//13 9//9
f 20//20 9//9 6//6
f 14//14 15//15 12//12
f 14//14 12//12 11//11
