# Generated by Visualization Toolkit
v -0.012807000428438187 -0.22762000560760498 0.011017000302672386
v -0.013906000182032585 -0.22937799990177155 0.014952999539673328
v -0.01879199966788292 -0.2293969988822937 0.015464999713003635
v -0.007830999791622162 -0.22772599756717682 0.008201999589800835
v -0.003959000110626221 -0.22841300070285797 0.009251000359654427
v -0.010300000198185444 -0.22289299964904785 0.008969999849796295
v -0.006924999877810478 -0.22418999671936035 0.0076489998027682304
v -0.016839999705553055 -0.23313699662685394 0.020368000492453575
v -0.0035699999425560236 -0.23248699307441711 0.02758299931883812
v -0.020873000845313072 -0.22680999338626862 0.01604600064456463
v -0.01998000033199787 -0.2298160046339035 0.016063999384641647
v -0.0034940000623464584 -0.22592200338840485 0.00913199968636036
v -0.0015069999499246478 -0.22958000004291534 0.011938000097870827
v -0.00045900000259280205 -0.2274159938097 0.012409999966621399
v -0.006535000167787075 -0.22037899494171143 0.013224000111222267
v -0.0114120002835989 -0.21866799890995026 0.012810000218451023
v -0.01269800029695034 -0.2186339944601059 0.013016000390052795
v -0.016801999881863594 -0.23160000145435333 0.0239499993622303
v -0.020037999376654625 -0.22924399375915527 0.017450999468564987
v -0.008888999931514263 -0.23411500453948975 0.02796100080013275
v -0.014344999566674232 -0.23384900391101837 0.023899000138044357
v -0.015652000904083252 -0.23295700550079346 0.023784000426530838
v 0.0022009999956935644 -0.23383499681949615 0.027080999687314034
v 0.0010819999733939767 -0.2369460016489029 0.03175700083374977
v 0.0011919999960809946 -0.23267899453639984 0.024164000526070595
v -0.004699000157415867 -0.23739199340343475 0.03266099840402603
v -0.007457999978214502 -0.23561599850654602 0.03122200071811676
v -0.016402000561356544 -0.21541500091552734 0.01750599965453148
v -0.018750999122858047 -0.22417199611663818 0.019161000847816467
v 0.0026110000908374786 -0.23252800107002258 0.025187000632286072
v 0.0026320000179111958 -0.2285279929637909 0.019733000546693802
v 0.0009599999757483602 -0.22482499480247498 0.023096000775694847
v -0.006479000207036734 -0.21436099708080292 0.01686299964785576
v -0.00521400012075901 -0.21940399706363678 0.015905000269412994
v -0.010011999867856503 -0.21444100141525269 0.015197999775409698
v -0.016276000067591667 -0.23148900270462036 0.02616100013256073
v -0.015603999607264996 -0.23290200531482697 0.025442000478506088
v -0.015320999547839165 -0.23282699286937714 0.02662999927997589
v -0.01017099991440773 -0.23462000489234924 0.02951899915933609
v -0.01459600031375885 -0.23364199697971344 0.0268389992415905
v 0.0019249999895691872 -0.23610299825668335 0.03305000066757202
v 0.003622000105679035 -0.23154300451278687 0.03141200169920921
v -0.0017600000137463212 -0.23849600553512573 0.033939000219106674
v 0.00017100000695791095 -0.23775699734687805 0.034630000591278076
v -0.007060000207275152 -0.2347330003976822 0.03273199871182442
v -0.004767999984323978 -0.2368990033864975 0.033883001655340195
v -0.012830999679863453 -0.2301809936761856 0.03143199905753136
v -0.01053099986165762 -0.20887599885463715 0.016641000285744667
v -0.014504999853670597 -0.20918400585651398 0.01818300038576126
v -0.016790999099612236 -0.22655199468135834 0.025854000821709633
v 0.004889000207185745 -0.22935600578784943 0.02725899964570999
v 0.00481700012460351 -0.2302210032939911 0.030299000442028046
v 0.004708999767899513 -0.22544999420642853 0.029131000861525536
v -0.0031059999018907547 -0.20923100411891937 0.021412000060081482
v 0.0016380000161007047 -0.21613800525665283 0.0320499986410141
v -0.01771399937570095 -0.22571200132369995 0.028610000386834145
v 0.0017059999518096447 -0.2355560064315796 0.03516000136733055
v 0.004170000087469816 -0.23051400482654572 0.03334999829530716
v -0.002655999967828393 -0.2368669956922531 0.035771001130342484
v -0.00133500003721565 -0.23544800281524658 0.036616001278162
v -0.004100000020116568 -0.2320770025253296 0.035333000123500824
v -0.01649099960923195 -0.22510600090026855 0.03022100031375885
v -0.0026199999265372753 -0.2305620014667511 0.036240000277757645
v -0.011754999868571758 -0.19492900371551514 0.017976000905036926
v -0.00786499958485365 -0.18782499432563782 0.017666999250650406
v -0.0038240000139921904 -0.18456700444221497 0.019536999985575676
v -0.015070999972522259 -0.20899100601673126 0.024858999997377396
v 0.004858999978750944 -0.22753700613975525 0.03219899907708168
v -0.0008789999992586672 -0.1874070018529892 0.025050999596714973
v -0.0011269999668002129 -0.19418199360370636 0.029374999925494194
v -0.0048489999026060104 -0.20829400420188904 0.032003000378608704
v -0.01634499989449978 -0.22265200316905975 0.029892999678850174
v -0.011010999791324139 -0.19662100076675415 0.03006099909543991
v -0.008743000216782093 -0.14678099751472473 0.016471000388264656
v -0.013016999699175358 -0.18780100345611572 0.024765999987721443
v 0.0012799999676644802 -0.14155399799346924 0.021405000239610672
v -0.0004879999905824661 -0.1700969934463501 0.02656799927353859
v -0.004050000105053186 -0.183105006814003 0.03004400059580803
v -0.010781999677419662 -0.18013499677181244 0.027759000658988953
v -0.0067090000957250595 -0.16998499631881714 0.0293940007686615
v -0.0069149998016655445 -0.1081480011343956 0.009186999872326851
v -0.009403999894857407 -0.15074600279331207 0.025523999705910683
v -0.007712999824434519 -0.10154099762439728 0.018654000014066696
v -0.00827299989759922 -0.1548289954662323 0.027434999123215675
v 0.004236999899148941 -0.07419399917125702 0.009913000278174877
v 0.0027439999394118786 -0.11202800273895264 0.020382000133395195
v -0.0026310000102967024 -0.13680399954319 0.02717299945652485
v 0.000514000013936311 -0.11155000329017639 0.023617999628186226
v -0.005384999793022871 -0.14558400213718414 0.028053000569343567
v -0.005446999799460173 -0.07709000259637833 0.004368999972939491
v -0.007081000134348869 -0.07701700180768967 0.004865000024437904
v -0.007344000041484833 -0.1369280070066452 0.026498999446630478
v -0.0027920000720769167 -0.07531700283288956 0.016380000859498978
v -0.004356999881565571 -0.0390160009264946 0.009127000346779823
v -0.006723999977111816 -0.046000998467206955 0.0022819999139755964
v -0.005179000087082386 -0.06182200089097023 0.00292299990542233
v -0.0010079999919980764 -0.1063620001077652 0.023414000868797302
v 0.0034600000362843275 -0.06654799729585648 0.00660800002515316
v 0.0036929999478161335 -0.07580900192260742 0.014132999815046787
v 0.0013299999991431832 -0.08474799990653992 0.0188400000333786
v -0.003914000000804663 -0.13199399411678314 0.02699499949812889
v 0.0010310000507161021 -0.0753839984536171 0.016240999102592468
v -0.0006319999811239541 -0.03244100138545036 0.008162000216543674
v -0.0032840000931173563 -0.02396799996495247 0.00520299980416894
v -0.006506000179797411 -0.03055099956691265 0.0043390002101659775
v -0.003636999987065792 -0.027094999328255653 -0.00482399994507432
v -0.006663000211119652 -0.026528000831604004 -0.0026390000712126493
v -0.00722600007429719 -0.027171000838279724 0.0007619999814778566
v 0.003415999934077263 -0.04857499897480011 0.0023690001107752323
v -0.000446999998530373 -0.04363999888300896 -0.0018029999919235706
v 0.0028099999763071537 -0.06144699826836586 0.011017999611794949
v 0.0029349999967962503 -0.018761999905109406 0.0036589999217540026
v -0.000056000000768108293 -0.018105000257492065 0.004701999947428703
v -0.006577999796718359 -0.01801699958741665 0.0023880000226199627
v -0.004395999945700169 -0.01399100013077259 0.004581000190228224
v -0.005425000097602606 -0.02355399914085865 -0.0031479999888688326
v -0.0012069999938830733 -0.024063000455498695 -0.004947999957948923
v 0.0008679999737069011 -0.035544998943805695 -0.0039369999431073666
v 0.0010470000561326742 -0.031617000699043274 -0.0047240001149475574
v -0.0065460000187158585 -0.018377000465989113 -0.002194999950006604
v -0.007400999777019024 -0.016016999259591103 0.00016599999798927456
v 0.003478999948129058 -0.044502999633550644 0.0013879999751225114
v 0.0027149999514222145 -0.04426800087094307 0.00034500000765547156
v 0.0023399998899549246 -0.040314000099897385 -0.0020639998838305473
v 0.004772000014781952 -0.024183999747037888 -0.0015310000162571669
v 0.00443299999460578 -0.01874700002372265 0.0006970000104047358
v 0.004550999961793423 -0.01004599966108799 -0.00024500000290572643
v 0.0038620000705122948 -0.010010999627411366 0.002736999886110425
v 0.002311999909579754 -0.009755999781191349 0.004922000225633383
v 0.000060999998822808266 -0.009266999550163746 0.006087999790906906
v -0.00279300007969141 -0.009484999813139439 0.00620400020852685
v -0.007544000167399645 -0.009580999612808228 0.002727000042796135
v -0.004422000143676996 -0.019166000187397003 -0.004021000117063522
v 0.002230999991297722 -0.01949400082230568 -0.0038870000280439854
v -0.0008379999781027436 -0.01154599990695715 -0.006632999982684851
v 0.002005999907851219 -0.015364999882876873 -0.0042940001003444195
v 0.0031900000758469105 -0.03185399994254112 -0.0035099999513477087
v 0.0036299999337643385 -0.02423200011253357 -0.0033970000222325325
v -0.006674000062048435 -0.01347300037741661 -0.003189000068232417
v -0.007898000068962574 -0.00952799990773201 0.0014049999881535769
v 0.0038880000356584787 -0.019425999373197556 -0.002119000069797039
v 0.0038109999150037766 -0.014798000454902649 -0.00216299993917346
v 0.0032550001051276922 -0.010963999666273594 -0.003994999919086695
v 0.005934999790042639 -0.007420999929308891 -0.006118999794125557
v 0.0062950002029538155 -0.007474000100046396 -0.000012000000424450263
v 0.007757999934256077 -0.005096000153571367 0.004224000032991171
v 0.005231999792158604 -0.004720999859273434 0.00762399984523654
v 0.000526999996509403 -0.004327000118792057 0.010147999972105026
v 0.003066000062972307 -0.00445100013166666 0.009379000402987003
v -0.008383999578654766 -0.004302999936044216 0.006957000121474266
v -0.0032949999440461397 -0.0044559999369084835 0.009921000339090824
v -0.010382999666035175 -0.004497000016272068 0.0023109999019652605
v -0.003922999836504459 -0.011274999938905239 -0.005973000079393387
v 0.0034920000471174717 -0.009097999893128872 -0.007207999937236309
v 0.0022090000566095114 -0.011467999778687954 -0.005278000142425299
v -0.000623999978415668 -0.009399999864399433 -0.008426999673247337
v -0.007046999875456095 -0.009991999715566635 -0.003083999967202544
v -0.010445999912917614 -0.004621999803930521 -0.0005890000029467046
v 0.003386999946087599 -0.005394000094383955 -0.008431999944150448
v 0.00558000011369586 -0.000391999987186864 -0.007261000107973814
v 0.007822000421583652 -0.006407999899238348 -0.003515999997034669
v 0.008658000268042088 -0.0057749999687075615 -0.0001740000006975606
v 0.00798800028860569 -0.002455000067129731 0.004044999834150076
v 0.0056329998187720776 -0.00164899998344481 0.0073090000078082085
v -0.001339999958872795 -0.0014690000098198652 0.010181999765336514
v 0.003438000101596117 0.0006960000027902424 0.00798800028860569
v -0.00660800002515316 -0.000037999998312443495 0.007872999645769596
v -0.003223000094294548 -0.0015310000162571669 0.010181999765336514
v -0.009383000433444977 -0.0011360000353306532 0.0054720002226531506
v -0.009975000284612179 -0.0011390000581741333 0.0039820000529289246
v -0.010169999673962593 0.0013549999566748738 0.0019460000330582261
v -0.01052900031208992 -0.0014319999609142542 -0.0011220000451430678
v -0.003776000114157796 -0.008705000393092632 -0.007860000245273113
v -0.008142000064253807 -0.0062489998526871204 -0.004253000020980835
v -0.003607999999076128 -0.0031950001139193773 -0.009031999856233597
v -0.001905999961309135 -0.004883999936282635 -0.009198999963700771
v 0.0003380000125616789 -0.0005680000176653266 -0.00964299961924553
v 0.007953999564051628 0.0004459999909158796 -0.0007580000092275441
v 0.004664999898523092 0.000666000007186085 -0.006120999809354544
v 0.00775599991902709 -0.00003400000059627928 0.003134000115096569
v 0.005621999967843294 0.00027200000477023423 0.006268000230193138
v -0.0025259999092668295 0.0009360000258311629 0.009178999811410904
v 0.0026730000972747803 0.0014189999783411622 0.00660899979993701
v -0.008684000000357628 0.0015559999737888575 0.004980000201612711
v -0.006184999831020832 0.001339999958872795 0.0073910001665353775
v -0.008503999561071396 0.001057000015862286 -0.004228999838232994
v -0.008496999740600586 0.002203000010922551 0.0014949999749660492
v -0.009200000204145908 -0.0018119999440386891 -0.004160999786108732
v -0.003292999928817153 -0.00006500000017695129 -0.009131000377237797
v -0.0027970001101493835 0.0010949999559670687 -0.007737999781966209
v 0.0070130000822246075 0.0004769999941345304 0.0030400000978261232
v 0.0016609999584034085 -0.0004030000127386302 -0.0011820000363513827
v -0.007280000019818544 0.0023129999171942472 0.0040420000441372395
v -0.007127000018954277 0.0020630001090466976 -0.00367600005120039
f 1 2 3
f 1 4 5
f 6 7 1
f 4 1 7
f 3 6 1
f 2 1 5
f 3 2 8
f 2 5 9
f 9 8 2
f 10 3 11
f 8 11 3
f 3 10 6
f 5 4 12
f 12 4 7
f 9 5 13
f 13 5 14
f 12 14 5
f 7 6 15
f 6 16 15
f 6 17 16
f 17 6 10
f 7 15 12
f 8 18 19
f 8 19 11
f 8 20 21
f 8 9 20
f 8 21 22
f 8 22 18
f 9 23 24
f 13 25 9
f 9 25 23
f 26 9 24
f 27 9 26
f 27 20 9
f 17 10 28
f 28 10 29
f 29 10 19
f 10 11 19
f 12 15 14
f 25 13 30
f 14 31 13
f 30 13 31
f 32 14 15
f 32 31 14
f 16 33 15
f 15 33 34
f 32 15 34
f 16 17 35
f 16 35 33
f 35 17 28
f 36 29 18
f 18 22 37
f 36 18 38
f 18 37 38
f 19 18 29
f 39 20 27
f 20 39 21
f 22 21 40
f 40 21 39
f 22 40 37
f 24 23 41
f 25 30 23
f 23 30 42
f 41 23 42
f 43 26 24
f 41 44 24
f 24 44 43
f 27 26 45
f 46 45 26
f 26 43 46
f 47 39 27
f 45 47 27
f 48 28 49
f 28 48 35
f 28 29 49
f 50 49 29
f 36 50 29
f 51 30 31
f 42 30 52
f 51 52 30
f 51 31 53
f 53 31 32
f 34 53 32
f 54 34 33
f 54 33 48
f 35 48 33
f 55 34 54
f 34 55 53
f 50 36 56
f 36 38 56
f 38 37 40
f 38 40 56
f 39 47 40
f 40 47 56
f 41 42 57
f 57 44 41
f 57 42 58
f 42 52 58
f 59 46 43
f 44 59 43
f 59 44 60
f 57 60 44
f 47 45 61
f 45 46 61
f 61 46 59
f 62 47 63
f 61 63 47
f 47 62 56
f 64 48 49
f 65 48 64
f 66 48 65
f 66 54 48
f 67 49 50
f 49 67 64
f 50 56 67
f 51 53 68
f 51 68 52
f 58 52 68
f 55 68 53
f 66 69 54
f 55 54 69
f 55 70 71
f 69 70 55
f 58 68 55
f 63 55 71
f 57 55 63
f 57 58 55
f 56 72 67
f 62 72 56
f 63 60 57
f 61 59 63
f 60 63 59
f 63 72 62
f 71 73 63
f 73 72 63
f 64 74 65
f 64 67 75
f 74 64 75
f 65 74 66
f 76 66 74
f 66 76 69
f 75 67 72
f 77 69 76
f 77 70 69
f 70 77 78
f 78 71 70
f 71 78 73
f 72 73 79
f 75 72 79
f 78 80 73
f 79 73 80
f 74 81 76
f 82 74 75
f 74 82 83
f 74 83 81
f 79 84 75
f 84 82 75
f 76 81 85
f 86 76 85
f 77 76 87
f 88 87 76
f 76 86 88
f 87 78 77
f 78 87 80
f 84 79 80
f 80 89 84
f 89 80 87
f 81 90 85
f 91 81 83
f 90 81 91
f 89 92 82
f 84 89 82
f 83 82 92
f 83 93 94
f 83 95 96
f 83 92 97
f 93 83 97
f 91 83 96
f 83 94 95
f 90 98 85
f 99 86 85
f 85 98 99
f 86 100 88
f 86 99 100
f 87 97 101
f 101 89 87
f 88 97 87
f 88 100 97
f 92 89 101
f 90 91 96
f 98 90 96
f 97 92 101
f 93 97 100
f 100 102 93
f 102 103 93
f 103 94 93
f 104 94 103
f 94 105 95
f 105 94 104
f 95 106 96
f 107 106 95
f 108 95 105
f 107 95 108
f 109 98 96
f 110 96 106
f 109 96 110
f 111 99 98
f 98 109 111
f 102 100 99
f 102 99 111
f 103 102 111
f 111 112 103
f 113 103 112
f 103 113 104
f 114 105 104
f 115 104 113
f 104 115 114
f 114 108 105
f 106 107 116
f 106 116 117
f 110 106 118
f 119 118 106
f 117 119 106
f 120 116 107
f 120 107 108
f 114 121 108
f 108 121 120
f 111 109 122
f 123 109 110
f 122 109 123
f 110 118 124
f 124 123 110
f 125 111 122
f 111 125 126
f 126 112 111
f 127 112 126
f 128 112 127
f 129 112 128
f 113 112 130
f 112 129 130
f 131 113 130
f 131 115 113
f 114 132 121
f 132 114 115
f 131 132 115
f 133 117 116
f 133 116 120
f 134 119 117
f 117 133 135
f 135 136 117
f 134 117 136
f 137 124 118
f 118 119 137
f 137 119 138
f 138 119 134
f 120 139 133
f 139 120 121
f 132 140 121
f 139 121 140
f 123 124 122
f 125 122 137
f 124 137 122
f 125 138 141
f 125 137 138
f 141 126 125
f 127 126 142
f 141 142 126
f 142 143 127
f 144 145 127
f 143 144 127
f 145 128 127
f 146 147 128
f 128 145 146
f 129 128 147
f 130 129 148
f 149 129 147
f 148 129 149
f 131 130 148
f 132 131 150
f 131 148 151
f 150 131 151
f 132 152 140
f 152 132 150
f 153 133 139
f 153 135 133
f 134 142 141
f 141 138 134
f 136 142 134
f 135 154 155
f 156 135 153
f 155 136 135
f 156 154 135
f 136 155 143
f 136 143 142
f 139 157 153
f 140 157 139
f 158 140 152
f 157 140 158
f 155 144 143
f 159 144 154
f 160 144 159
f 161 144 160
f 155 154 144
f 144 161 145
f 162 145 161
f 162 146 145
f 146 162 163
f 146 163 147
f 147 164 149
f 164 147 163
f 148 165 151
f 165 148 149
f 149 164 166
f 165 149 166
f 167 150 168
f 151 168 150
f 167 169 150
f 152 150 170
f 170 150 169
f 168 151 165
f 152 171 172
f 172 158 152
f 170 171 152
f 173 156 153
f 173 153 174
f 153 157 174
f 159 154 156
f 173 175 156
f 175 176 156
f 176 159 156
f 158 174 157
f 174 158 172
f 160 159 177
f 176 177 159
f 160 178 161
f 179 160 177
f 179 178 160
f 178 162 161
f 178 163 162
f 178 180 163
f 164 163 181
f 181 163 180
f 166 164 181
f 168 165 182
f 166 182 165
f 183 166 181
f 182 166 183
f 167 184 169
f 167 185 184
f 185 167 182
f 168 182 167
f 169 184 170
f 171 170 184
f 172 171 186
f 186 171 187
f 171 184 187
f 188 172 186
f 174 172 188
f 175 173 174
f 175 174 188
f 175 189 176
f 175 188 189
f 177 176 189
f 190 177 189
f 190 179 177
f 178 191 180
f 192 178 179
f 191 178 192
f 192 179 190
f 181 180 191
f 191 183 181
f 183 193 182
f 193 185 182
f 193 183 192
f 183 191 192
f 185 193 184
f 184 193 187
f 186 189 188
f 194 190 186
f 190 189 186
f 187 194 186
f 187 193 192
f 194 187 192
f 190 194 192
