# Generated by Visualization Toolkit
v 0.0181482695043087 -0.234770268201828 -0.01760026626288891
v 0.02791372314095497 -0.23499105870723724 -0.017347117885947227
v 0.028584890067577362 -0.22843706607818604 -0.016106000170111656
v 0.016066476702690125 -0.22942788898944855 -0.015173088759183884
v 0.018571889027953148 -0.233601376414299 -0.024113567546010017
v 0.02725778892636299 -0.23495978116989136 -0.02366366609930992
v 0.01429281011223793 -0.2302190065383911 -0.024896401911973953
v 0.03915262594819069 -0.2359681874513626 -0.020191021263599396
v 0.03511762246489525 -0.23683775961399078 -0.023832814767956734
v 0.04075304791331291 -0.2266373187303543 -0.018336813896894455
v 0.03929316624999046 -0.23970311880111694 -0.024017855525016785
v 0.042140115052461624 -0.2398557960987091 -0.022847777232527733
v 0.035614460706710815 -0.23766890168190002 -0.028154080733656883
v 0.03981928154826164 -0.24045266211032867 -0.0269137155264616
v 0.043182648718357086 -0.23996776342391968 -0.027413537725806236
v 0.040431197732686996 -0.23471015691757202 -0.030021945014595985
v 0.04045848920941353 -0.22548723220825195 -0.0292085912078619
v 0.029429983347654343 -0.23284830152988434 -0.035860031843185425
v 0.03073226660490036 -0.22487546503543854 -0.036767661571502686
v 0.027525747194886208 -0.2365541309118271 -0.02985929138958454
v 0.01990976743400097 -0.23562733829021454 -0.03011420927941799
v 0.018448395654559135 -0.231377974152565 -0.03359083831310272
v -0.0017650640802457929 0.001446592970751226 0.0007903487421572208
v -0.0045215897262096405 0.0016151872696354985 0.004114920273423195
v 0.0020874408073723316 0.0018585830694064498 0.005836975760757923
v 0.001898809801787138 0.0005788112757727504 0.00010748766362667084
v -0.0028103666845709085 0.0022357935085892677 -0.0024082898162305355
v -0.007230689283460379 0.0025475663132965565 -0.0035194531083106995
v 0.0008076517842710018 0.0016321948496624827 -0.004642769694328308
v 0.007309534586966038 0.0020485410932451487 0.003962821792811155
v 0.010787266306579113 -0.0023990701884031296 0.005919008515775204
v 0.01265786588191986 -0.0007228974718600512 -0.002801709808409214
v 0.006789985112845898 0.0014372478472068906 -0.001200131606310606
v 0.0025728982873260975 -0.0035882829688489437 0.01027586217969656
v -0.0010867854580283165 0.0019591746386140585 -0.009724249131977558
v 0.0052101630717515945 0.0020191743969917297 -0.0053210072219371796
v 0.007565566338598728 0.0008674286073073745 -0.00940026342868805
v 0.010217122733592987 -0.007609921041876078 -0.002529062796384096
v 0.006265123374760151 -0.006262296345084906 -0.008414999581873417
v -0.0015153101412579417 -0.005188451614230871 -0.009375281631946564
v -0.00787767581641674 -0.004593728110194206 -0.0033175153657794
v 0.0052351802587509155 -0.013585795648396015 -0.006915866397321224
v -0.0011669073719531298 -0.01259482279419899 -0.007745558395981789
v -0.005971918813884258 -0.011998116970062256 -0.00287680234760046
v -0.00402555987238884 -0.011552555486559868 0.004170674830675125
v -0.006347390823066235 -0.004377394914627075 0.0062986863777041435
v -0.0010521106887608767 -0.020541198551654816 -0.007812933064997196
v -0.005579100921750069 -0.019883783534169197 -0.002971513196825981
v -0.0030482003930956125 -0.018877776339650154 0.003358358284458518
v 0.0025432128459215164 -0.017190443351864815 0.00619098637253046
v 0.0023627211339771748 -0.01021647173911333 0.006723567843437195
v -0.005861434619873762 -0.028002332895994186 -0.0028554964810609818
v -0.002601759973913431 -0.026872871443629265 0.004008116200566292
v 0.0030661276541650295 -0.024925362318754196 0.008135208860039711
v 0.008691597729921341 -0.023615637794137 0.005265458952635527
v 0.008050559088587761 -0.015880534425377846 0.0040453155525028706
v -0.0019380318699404597 -0.03533675894141197 0.0043546054512262344
v 0.0037998496554791927 -0.033902980387210846 0.010191783308982849
v 0.009553398936986923 -0.032140545547008514 0.006198185496032238
v 0.010692613199353218 -0.03016878478229046 -0.0017316751182079315
v 0.009716587141156197 -0.022505933418869972 -0.0016153058968484402
v 0.0048513105139136314 -0.04318372905254364 0.008081840351223946
v 0.010210801847279072 -0.04047882556915283 0.004549948498606682
v 0.011745552532374859 -0.03754586726427078 -0.0028919801115989685
v 0.00814522709697485 -0.035727690905332565 -0.009603233076632023
v 0.006913577206432819 -0.028541451320052147 -0.008343243040144444
v 0.011343386024236679 -0.048116784542798996 0.0018529489170759916
v 0.013042615726590157 -0.04486533999443054 -0.00478854775428772
v 0.00942396093159914 -0.04310154169797897 -0.01093379408121109
v 0.001992966514080763 -0.04356988146901131 -0.010068860836327076
v 0.00036986381746828556 -0.035991769284009933 -0.008900735527276993
v 0.01441335678100586 -0.05240580812096596 -0.006883133202791214
v 0.010732588358223438 -0.05076686665415764 -0.012412426993250847
v 0.0036966651678085327 -0.05121057853102684 -0.01126156933605671
v -0.00099466135725379 -0.051888152956962585 -0.006225496530532837
v -0.003206869587302208 -0.04434966295957565 -0.00451965257525444
v 0.011780043132603168 -0.05852131545543671 -0.013995517045259476
v 0.005007661879062653 -0.05887094512581825 -0.012399815022945404
v 0.0003756629303097725 -0.05940740928053856 -0.0079526137560606
v 0.002302135806530714 -0.059492532163858414 -0.0021913759410381317
v 0.001059473492205143 -0.051788318902254105 0.00026958342641592026
v 0.006026589311659336 -0.06654773652553558 -0.013903681188821793
v 0.0014063050039112568 -0.06703966856002808 -0.009793553501367569
v 0.0033714347518980503 -0.06710302829742432 -0.004568629898130894
v 0.008792256005108356 -0.06608431041240692 -0.0015906598418951035
v 0.007642772980034351 -0.058580432087183 0.0013771415688097477
v 0.0023652594536542892 -0.0747828260064125 -0.011693444103002548
v 0.004328005947172642 -0.07479164004325867 -0.006653997115790844
v 0.009840213693678379 -0.07357147336006165 -0.004439979791641235
v 0.015675973147153854 -0.07097815722227097 -0.005250178277492523
v 0.01426640897989273 -0.06331828236579895 -0.0029741795733571053
v 0.005554044619202614 -0.08242170512676239 -0.008815061300992966
v 0.01100337877869606 -0.08095420151948929 -0.007160495966672897
v 0.016913656145334244 -0.07850915193557739 -0.0076543353497982025
v 0.018428221344947815 -0.0753641277551651 -0.013306213542819023
v 0.017151199281215668 -0.0677318349480629 -0.01117214560508728
v 0.012383142486214638 -0.0882689356803894 -0.009587233886122704
v 0.018140064552426338 -0.08593691885471344 -0.009884566999971867
v 0.019748300313949585 -0.08303801715373993 -0.015249863266944885
v 0.014773864299058914 -0.08174043148756027 -0.019165590405464172
v 0.01356629841029644 -0.07400944083929062 -0.017310917377471924
v 0.019472237676382065 -0.09341615438461304 -0.011818906292319298
v 0.02107550948858261 -0.09080077707767487 -0.01701737381517887
v 0.016154257580637932 -0.08957281708717346 -0.020895177498459816
v 0.009904308244585991 -0.08990145474672318 -0.018773037940263748
v 0.008460274897515774 -0.0820964127779007 -0.01708691567182541
v 0.022384455427527428 -0.09871156513690948 -0.018613571301102638
v 0.01751302368938923 -0.09745673835277557 -0.02250361256301403
v 0.01136722695082426 -0.09770150482654572 -0.02039727009832859
v 0.007197658531367779 -0.09814602881669998 -0.016310693696141243
v 0.00533134862780571 -0.09047387540340424 -0.015012755990028381
v 0.01869974285364151 -0.10532806068658829 -0.024057617411017418
v 0.012991303578019142 -0.10548858344554901 -0.021723996847867966
v 0.00892715249210596 -0.10579843074083328 -0.01756063662469387
v 0.009953930974006653 -0.105189748108387 -0.013688839972019196
v 0.008550421334803104 -0.09759954363107681 -0.012210318818688393
v 0.014444610103964806 -0.1133076474070549 -0.023096783086657524
v 0.010358144529163837 -0.1135217621922493 -0.018919331952929497
v 0.011192169040441513 -0.1128741055727005 -0.015043757855892181
v 0.016537830233573914 -0.11104945093393326 -0.013854146003723145
v 0.015289587900042534 -0.10333453863859177 -0.012658676132559776
v 0.011539804749190807 -0.12127441167831421 -0.020299626514315605
v 0.012293700128793716 -0.1206192895770073 -0.016323750838637352
v 0.017619414255023003 -0.11888609081506729 -0.014809487387537956
v 0.02326779253780842 -0.11681126803159714 -0.015881940722465515
v 0.022209810093045235 -0.10893230140209198 -0.014578824862837791
v 0.013319654390215874 -0.12838543951511383 -0.017422586679458618
v 0.018536699935793877 -0.12675786018371582 -0.01564094051718712
v 0.024174176156520844 -0.12465222179889679 -0.017274608835577965
v 0.024640478193759918 -0.12245506048202515 -0.022802509367465973
v 0.023711618036031723 -0.11463877558708191 -0.02139347977936268
v 0.019428597763180733 -0.13461001217365265 -0.016504375264048576
v 0.025010399520397186 -0.13245578110218048 -0.018598953261971474
v 0.025986967608332634 -0.1303187757730484 -0.024162326008081436
v 0.02208014763891697 -0.12924714386463165 -0.02812979556620121
v 0.020987970754504204 -0.12112598121166229 -0.027144888415932655
v 0.0257464200258255 -0.14033666253089905 -0.019646059721708298
v 0.027061793953180313 -0.13837628066539764 -0.02509996108710766
v 0.02298027276992798 -0.13741520047187805 -0.028531307354569435
v 0.017892485484480858 -0.1370474100112915 -0.026173925027251244
v 0.01703493483364582 -0.12910817563533783 -0.025263670831918716
v 0.027904249727725983 -0.1464439481496811 -0.02575851045548916
v 0.02370603382587433 -0.14548982679843903 -0.028885411098599434
v 0.018506238237023354 -0.1449679285287857 -0.026959894225001335
v 0.01433289423584938 -0.1446162462234497 -0.02346964366734028
v 0.013628402724862099 -0.13680195808410645 -0.022643517702817917
v 0.0243375301361084 -0.15348105132579803 -0.029409272596240044
v 0.019022338092327118 -0.1528940349817276 -0.027616040781140327
v 0.014905938878655434 -0.152486652135849 -0.02412525936961174
v 0.015877733007073402 -0.15176209807395935 -0.019895436242222786
v 0.014972515404224396 -0.1439536213874817 -0.01910874806344509
v 0.019422173500061035 -0.16084471344947815 -0.028309611603617668
v 0.01534627191722393 -0.16037411987781525 -0.024635137990117073
v 0.016695313155651093 -0.159574955701828 -0.02052600122988224
v 0.021870063617825508 -0.15812183916568756 -0.01898794062435627
v 0.021069597452878952 -0.15027295053005219 -0.018266236409544945
v 0.015716878697276115 -0.16830852627754211 -0.02509644441306591
v 0.01740635745227337 -0.16744983196258545 -0.020983314141631126
v 0.022652890533208847 -0.16597279906272888 -0.019747888669371605
v 0.027853507548570633 -0.16407230496406555 -0.021639717742800713
v 0.02713942527770996 -0.15615935623645782 -0.021071957424283028
v 0.0180044025182724 -0.1753639429807663 -0.02132810279726982
v 0.02349359728395939 -0.173846036195755 -0.02020675130188465
v 0.028775956481695175 -0.17191293835639954 -0.021995270624756813
v 0.030311517417430878 -0.1703186333179474 -0.027161328122019768
v 0.029529187828302383 -0.16238602995872498 -0.02678964100778103
v 0.024404076859354973 -0.181719571352005 -0.020674580708146095
v 0.03008035570383072 -0.17971442639827728 -0.02209736779332161
v 0.03130504861474037 -0.1782197803258896 -0.027500981464982033
v 0.02658862993121147 -0.1773899793624878 -0.03139127045869827
v 0.025751976296305656 -0.16939951479434967 -0.030713776126503944
v 0.03135492652654648 -0.18754996359348297 -0.022266516461968422
v 0.03242548182606697 -0.18616263568401337 -0.027833448722958565
v 0.027414020150899887 -0.18540774285793304 -0.031944163143634796
v 0.02092883177101612 -0.18486672639846802 -0.029894528910517693
v 0.02046171762049198 -0.17686253786087036 -0.029403233900666237
v 0.03348257392644882 -0.19413088262081146 -0.028103647753596306
v 0.028094157576560974 -0.19339625537395477 -0.03249480575323105
v 0.021131109446287155 -0.1928519457578659 -0.030643271282315254
v 0.016334541141986847 -0.19225643575191498 -0.026115277782082558
v 0.016021041199564934 -0.1842803657054901 -0.02589438669383526
v 0.02877354994416237 -0.2013530731201172 -0.03329920023679733
v 0.021465549245476723 -0.2009042352437973 -0.031138787046074867
v 0.016347447410225868 -0.2001839280128479 -0.026344100013375282
v 0.01952192559838295 -0.1991906315088272 -0.021426409482955933
v 0.019053149968385696 -0.19124066829681396 -0.021514305844902992
v 0.02164674922823906 -0.2090223878622055 -0.03142417222261429
v 0.01600811816751957 -0.20815405249595642 -0.026522545143961906
v 0.019647302106022835 -0.20717497169971466 -0.021217787638306618
v 0.02709340490400791 -0.20553667843341827 -0.020528031513094902
v 0.02622413821518421 -0.19751693308353424 -0.0208320003002882
v 0.015422184020280838 -0.21612226963043213 -0.026534153148531914
v 0.019346708431839943 -0.21506989002227783 -0.020700877532362938
v 0.027874108403921127 -0.21356205642223358 -0.020104367285966873
v 0.0358843132853508 -0.21080729365348816 -0.021631499752402306
v 0.034116972237825394 -0.20317956805229187 -0.021991712972521782
v 0.018351508304476738 -0.2223716825246811 -0.018918974325060844
v 0.028450239449739456 -0.22136497497558594 -0.019143380224704742
v 0.03838539123535156 -0.21833088994026184 -0.020364103838801384
v 0.03822890296578407 -0.217566579580307 -0.028512736782431602
v 0.03606371954083443 -0.2098199874162674 -0.02851649932563305
v 0.02964586392045021 -0.20932768285274506 -0.03423697501420975
v 0.03459502384066582 -0.20200881361961365 -0.028356561437249184
v 0.03041835129261017 -0.21716538071632385 -0.03520001471042633
v 0.02127731963992119 -0.2170025110244751 -0.03197867423295975
v 0.020065562799572945 -0.22437694668769836 -0.03316665440797806
v 0.014833778142929077 -0.22368912398815155 -0.02605215646326542
v 0.03264578804373741 -0.19539491832256317 -0.02228868193924427
v 0.025293339043855667 -0.18959105014801025 -0.0209494698792696
v 0.018675614148378372 -0.1832902431488037 -0.021816754713654518
v 0.015843048691749573 -0.17627806961536407 -0.025548512116074562
v 0.019941046833992004 -0.1688491702079773 -0.028863927349448204
v 0.024949675425887108 -0.1614340990781784 -0.029928790405392647
v 0.028741993010044098 -0.15443800389766693 -0.026325924322009087
v 0.0263676717877388 -0.1482386738061905 -0.02049998566508293
v 0.020276039838790894 -0.14243608713150024 -0.017419962212443352
v 0.01416025497019291 -0.13616351783275604 -0.01833418570458889
v 0.012694811448454857 -0.12903231382369995 -0.02161608450114727
v 0.015861423686146736 -0.12117883563041687 -0.02423049695789814
v 0.019824767485260963 -0.1131872907280922 -0.025627298280596733
v 0.02312655933201313 -0.10671588778495789 -0.020023763179779053
v 0.020958181470632553 -0.10110308229923248 -0.013259289786219597
v 0.013884538784623146 -0.09574814885854721 -0.011228060349822044
v 0.007043655961751938 -0.09002643078565598 -0.010736720636487007
v 0.0036843898706138134 -0.08264455199241638 -0.013405278325080872
v 0.007140250876545906 -0.07429300993680954 -0.015485744923353195
v 0.012629181146621704 -0.06630398333072662 -0.015538573265075684
v 0.015773851424455643 -0.060062095522880554 -0.009022040292620659
v 0.012847688049077988 -0.05567486584186554 -0.0006160675548017025
v 0.00625685416162014 -0.051019299775362015 0.004347797948867083
v -0.0005316755268722773 -0.04378853365778923 0.002782300813123584
v -0.0054316832683980465 -0.0363791324198246 -0.0032710209488868713
v -0.0005878487136214972 -0.028405167162418365 -0.00800575315952301
v 0.005748680792748928 -0.02120671607553959 -0.007242482155561447
v 0.009084011428058147 -0.014772997237741947 -0.0019189724698662758
v 0.0084109241142869 -0.009130443446338177 0.0038920152001082897
vn -0.35421210527420044 -0.8491393327713013 0.3917858898639679
vn 0.027916209772229195 -0.7755807638168335 0.6306307315826416
vn 0.10020614415407181 0.010504932142794132 0.994911253452301
vn -0.5978418588638306 0.1421704739332199 0.7889059782028198
vn -0.40168365836143494 -0.9157220721244812 0.010166698135435581
vn -0.1402936577796936 -0.97907555103302 0.14740687608718872
vn -0.9150511622428894 -0.36513084173202515 -0.17135006189346313
vn 0.23293879628181458 -0.6292433142662048 0.7414798140525818
vn -0.3270052373409271 -0.8882869482040405 0.32251185178756714
vn 0.8551633358001709 0.03452300280332565 0.5172076225280762
vn -0.42274051904678345 -0.8316055536270142 0.3601703941822052
vn 0.5548099875450134 -0.6456389427185059 0.524725079536438
vn -0.2733348608016968 -0.8537075519561768 -0.4432511031627655
vn -0.18669554591178894 -0.9716197848320007 -0.14525754749774933
vn 0.3859642744064331 -0.6273648738861084 -0.6763467788696289
vn 0.8022101521492004 -0.19835111498832703 -0.5631301999092102
vn 0.8843457698822021 0.19164833426475525 -0.4256799519062042
vn -0.05261728912591934 -0.4783478081226349 -0.8765926957130432
vn 0.2328924983739853 0.044875819236040115 -0.971466600894928
vn -0.07547907531261444 -0.9726553559303284 -0.2196464091539383
vn -0.3901054561138153 -0.9036810398101807 -0.1765739917755127
vn -0.6270894408226013 -0.2583863139152527 -0.7348437905311584
vn 0.14053355157375336 0.9885331988334656 0.05524907261133194
vn -0.3055512607097626 0.8693472743034363 0.388424813747406
vn -0.06632061302661896 0.9225258827209473 0.3801940679550171
vn -0.00696738064289093 0.999956488609314 0.006209090352058411
vn 0.1271911859512329 0.9874356389045715 0.09377159178256989
vn -0.6466894149780273 0.7502596378326416 -0.13748891651630402
vn 0.11155355721712112 0.9856172800064087 0.12694205343723297
vn 0.24589525163173676 0.9340141415596008 0.25913915038108826
vn 0.7693812847137451 0.15192891657352448 0.6204595565795898
vn 0.8621750473976135 0.5044006109237671 -0.047266896814107895
vn 0.08693552017211914 0.996116578578949 -0.01392681710422039
vn 0.16238659620285034 0.10470131039619446 0.9811565279960632
vn -0.08812486380338669 0.9021283388137817 -0.42237257957458496
vn 0.10160554200410843 0.9938998818397522 0.04288817197084427
vn 0.5053570866584778 0.2825963795185089 -0.8153241276741028
vn 0.9215708374977112 -0.24885053932666779 -0.297960489988327
vn 0.5453566908836365 -0.2161037176847458 -0.8098675012588501
vn -0.34199774265289307 -0.1349158138036728 -0.9299651384353638
vn -0.9442503452301025 -0.09108330309391022 -0.31637781858444214
vn 0.4059695601463318 -0.11415787041187286 -0.9067285656929016
vn -0.24676081538200378 -0.07473458349704742 -0.9661903381347656
vn -0.9527073502540588 -0.1808546483516693 -0.24421346187591553
vn -0.6909310221672058 -0.28871992230415344 0.6627632975578308
vn -0.7549276947975159 0.006868750788271427 0.6557719707489014
vn -0.44316649436950684 -0.004410572350025177 -0.8964284062385559
vn -0.9489617943763733 -0.012708332389593124 -0.3151348829269409
vn -0.7479250431060791 -0.026858624070882797 0.663239598274231
vn 0.03862299397587776 0.06589236110448837 0.9970789551734924
vn -0.09320509433746338 -0.27620190382003784 0.9565696120262146
vn -0.9988281726837158 -0.007695908658206463 -0.04778071865439415
vn -0.800832211971283 -0.02422102726995945 0.5983986854553223
vn -0.10954035818576813 0.16097015142440796 0.9808616042137146
vn 0.8452777862548828 0.14111383259296417 0.5153566598892212
vn 0.6958039999008179 0.11234620958566666 0.7093906402587891
vn -0.7716041207313538 -0.08979705721139908 0.6297329664230347
vn -0.24753867089748383 -0.06823160499334335 0.9664725065231323
vn 0.8275769948959351 0.07312869280576706 0.5565685033798218
vn 0.9587405920028687 0.15877938270568848 -0.23580870032310486
vn 0.985389769077301 0.10399243235588074 -0.13487978279590607
vn 0.13114990293979645 -0.2894866466522217 0.9481545686721802
vn 0.7898704409599304 -0.10147274285554886 0.6048205494880676
vn 0.9809733033180237 0.16175997257232666 -0.10735481232404709
vn 0.36787644028663635 0.2113189995288849 -0.9055447578430176
vn 0.5971524119377136 0.21890148520469666 -0.7716806530952454
vn 0.8452528119087219 -0.02874532714486122 0.5335929989814758
vn 0.9842749834060669 0.17663700878620148 0.0014979321276769042
vn 0.44569382071495056 0.23925194144248962 -0.8626213073730469
vn -0.5061925053596497 0.014053641818463802 -0.8623059988021851
vn -0.3600047528743744 0.07414599508047104 -0.9299994707107544
vn 0.9612951278686523 0.21134956181049347 -0.17675715684890747
vn 0.5054505467414856 0.2552148997783661 -0.824248194694519
vn -0.47124844789505005 0.061062801629304886 -0.8798841834068298
vn -0.9735310077667236 -0.2056647539138794 -0.0996968224644661
vn -0.9260087609291077 -0.19855549931526184 -0.32106608152389526
vn 0.2239484339952469 0.20456469058990479 -0.9528905749320984
vn -0.43447360396385193 0.09548026323318481 -0.8956093788146973
vn -0.9640949964523315 -0.11407805234193802 -0.23980632424354553
vn -0.7070507407188416 -0.3217807114124298 0.6297115087509155
vn -0.8077765107154846 -0.30101317167282104 0.5068414211273193
vn -0.5185931921005249 0.10485047847032547 -0.8485680222511292
vn -0.9234315752983093 -0.03600269556045532 -0.3820706307888031
vn -0.7074443697929382 -0.29847997426986694 0.6406498551368713
vn 0.08719267696142197 -0.3326563537120819 0.9390085935592651
vn -0.09021726250648499 -0.3630969524383545 0.9273734092712402
vn -0.9857854843139648 -0.11367873847484589 -0.12370969355106354
vn -0.7225077748298645 -0.2787312865257263 0.6326858997344971
vn -0.015062497928738594 -0.3159392774105072 0.9486598968505859
vn 0.7738943099975586 -0.05654332786798477 0.6307855248451233
vn 0.6471908092498779 -0.12728917598724365 0.7516259551048279
vn -0.5442051291465759 -0.3234473466873169 0.7740946412086487
vn -0.017133213579654694 -0.31699585914611816 0.9482721090316772
vn 0.6761066317558289 -0.1191580519080162 0.727104663848877
vn 0.9125649333000183 0.23113378882408142 -0.3373461365699768
vn 0.9770249724388123 0.1913015991449356 -0.0939464271068573
vn 0.050746768712997437 -0.26094797253608704 0.9640181064605713
vn 0.5517774820327759 -0.12122403085231781 0.8251341581344604
vn 0.9481505155563354 0.21256519854068756 -0.23627632856369019
vn 0.0833863690495491 0.2314765751361847 -0.9692601561546326
vn 0.31660541892051697 0.26567745208740234 -0.9105912446975708
vn 0.7332095503807068 -0.018759386613965034 0.6797439455986023
vn 0.9740928411483765 0.1958189755678177 -0.11312910914421082
vn 0.18162532150745392 0.23276303708553314 -0.9554232954978943
vn -0.5155987739562988 0.08073075860738754 -0.8530184030532837
vn -0.44339287281036377 0.11078675836324692 -0.8894543647766113
vn 0.9027745723724365 0.19759152829647064 -0.38204145431518555
vn 0.30596593022346497 0.22081810235977173 -0.9260799884796143
vn -0.5254144072532654 0.0517667718231678 -0.8492702841758728
vn -0.9739030599594116 -0.20784853398799896 -0.09116970002651215
vn -0.9208918213844299 -0.12988024950027466 -0.36754515767097473
vn 0.0720144659280777 0.19324958324432373 -0.9785032272338867
vn -0.5331525206565857 0.05021289363503456 -0.8445276618003845
vn -0.9586098790168762 -0.1453041434288025 -0.2448544204235077
vn -0.5207108855247498 -0.24292662739753723 0.8184417486190796
vn -0.6890240907669067 -0.2680562138557434 0.6733436584472656
vn -0.608761191368103 0.01732739619910717 -0.7931643724441528
vn -0.9193283915519714 -0.09488971531391144 -0.3818786144256592
vn -0.6605189442634583 -0.21857485175132751 0.7182894945144653
vn 0.03369884938001633 -0.1375512182712555 0.9899212121963501
vn -0.015511644072830677 -0.17232386767864227 0.9849181771278381
vn -0.9755328893661499 -0.11177627742290497 -0.18931928277015686
vn -0.7818554043769836 -0.20128916203975677 0.5900718569755554
vn 0.005829288624227047 -0.13680118322372437 0.9905813336372375
vn 0.8245478868484497 -0.0061851502396166325 0.5657584071159363
vn 0.6010197997093201 -0.03487543761730194 0.7984728217124939
vn -0.6410489082336426 -0.16818684339523315 0.7488455772399902
vn -0.05213778465986252 -0.11439130455255508 0.9920666813850403
vn 0.7641031742095947 0.0015725137200206518 0.6450921893119812
vn 0.9235514402389526 0.1945274919271469 -0.3304719030857086
vn 0.9708946347236633 0.13278703391551971 -0.19932673871517181
vn 0.10261670500040054 -0.11195936053991318 0.9884001612663269
vn 0.7036508917808533 -0.029064301401376724 0.7099512815475464
vn 0.953192949295044 0.15121066570281982 -0.2618367373943329
vn -0.0083549153059721 0.09038276225328445 -0.9958720207214355
vn 0.3342468738555908 0.19890332221984863 -0.9212581515312195
vn 0.8247410655021667 0.013371149078011513 0.5653524994850159
vn 0.9804933667182922 0.12231515347957611 -0.15385620296001434
vn 0.1456013023853302 0.09292301535606384 -0.9849697947502136
vn -0.5544201731681824 0.03787067532539368 -0.8313747644424438
vn -0.5412189960479736 0.02224777080118656 -0.840587317943573
vn 0.9046410918235779 0.117556631565094 -0.40964004397392273
vn 0.252331405878067 0.07983368635177612 -0.9643419981002808
vn -0.5050601959228516 0.03161289170384407 -0.8625050783157349
vn -0.9671363234519958 -0.060704946517944336 -0.2469051480293274
vn -0.8852807283401489 -0.03737051039934158 -0.46355316042900085
vn 0.04411855712532997 0.07322404533624649 -0.9963391423225403
vn -0.4469396471977234 0.04505883902311325 -0.8934286236763
vn -0.9509559273719788 -0.04881393164396286 -0.3054506778717041
vn -0.6240267753601074 -0.14177128672599792 0.768434464931488
vn -0.8059044480323792 -0.13719812035560608 0.5759295225143433
vn -0.5187082886695862 0.035145021975040436 -0.854228675365448
vn -0.9256129264831543 -0.025045394897460938 -0.37764179706573486
vn -0.6744620203971863 -0.11016908288002014 0.7300437092781067
vn 0.1386052817106247 -0.07516074180603027 0.9874915480613708
vn 0.004727094899863005 -0.09528829902410507 0.9954385161399841
vn -0.9947699904441833 -0.038864970207214355 -0.09445731341838837
vn -0.6971955299377441 -0.08069732785224915 0.7123246192932129
vn 0.07219324260950089 -0.05702376365661621 0.9957592487335205
vn 0.7765677571296692 0.04293902590870857 0.6285687685012817
vn 0.6623581051826477 0.0037073956336826086 0.7491782307624817
vn -0.5126091241836548 -0.08826056867837906 0.8540737628936768
vn 0.024987556040287018 -0.05554155632853508 0.9981436133384705
vn 0.7057117223739624 0.05927165597677231 0.706015408039093
vn 0.8990001678466797 0.12804611027240753 -0.4188110828399658
vn 0.9809407591819763 0.11027393490076065 -0.15998420119285583
vn 0.09258097410202026 -0.026940342038869858 0.9953407049179077
vn 0.6008418798446655 0.07841844856739044 0.7955120801925659
vn 0.9434607625007629 0.15128658711910248 -0.2949478328227997
vn 0.08623125404119492 0.08587749302387238 -0.9925670623779297
vn 0.2936837077140808 0.11196493357419968 -0.9493227601051331
vn 0.7735202312469482 0.1122286394238472 0.6237555742263794
vn 0.966479480266571 0.1481199562549591 -0.20970910787582397
vn 0.20043443143367767 0.093833789229393 -0.9752031564712524
vn -0.5068924427032471 0.042629092931747437 -0.8609545826911926
vn -0.44573429226875305 0.028397267684340477 -0.8947147727012634
vn 0.884924054145813 0.13461937010288239 -0.4458554685115814
vn 0.3180476427078247 0.10609667748212814 -0.9421195387840271
vn -0.48311012983322144 0.04331003129482269 -0.8744877576828003
vn -0.9993502497673035 -0.01845701038837433 0.030958250164985657
vn -0.9508630633354187 -0.005466356873512268 -0.30956342816352844
vn 0.21894606947898865 0.11999264359474182 -0.9683307409286499
vn -0.4622673988342285 0.03739245980978012 -0.885951817035675
vn -0.9917270541191101 0.009138928726315498 -0.1280389130115509
vn -0.43164756894111633 -0.001733369892463088 0.9020406603813171
vn -0.6102383136749268 -0.00931928213685751 0.7921631932258606
vn -0.5045045614242554 0.055643558502197266 -0.8616141676902771
vn -0.9524546265602112 0.06844991445541382 -0.296891987323761
vn -0.5130435228347778 0.043452732264995575 0.8572620749473572
vn 0.07360588014125824 0.05447058007121086 0.9957987070083618
vn 0.02611619234085083 0.031109701842069626 0.9991747140884399
vn -0.989725649356842 0.11273345351219177 -0.08794508129358292
vn -0.6160240173339844 0.1576288640499115 0.7717950344085693
vn 0.03196820989251137 0.12185743451118469 0.9920327067375183
vn 0.6977484226226807 0.2673574984073639 0.6645804643630981
vn 0.7199495434761047 0.1718044877052307 0.6724253296852112
vn -0.43206843733787537 0.3524095416069031 0.8301352262496948
vn 0.01902049034833908 0.30710840225219727 0.9514844417572021
vn 0.681317925453186 0.35012075304985046 0.6428229808807373
vn 0.8780739903450012 0.2635921835899353 -0.3993809223175049
vn 0.8985010385513306 0.226841002702713 -0.37581804394721985
vn 0.08992068469524384 0.11609292030334473 -0.9891595840454102
vn 0.9200482964515686 0.16743488609790802 -0.3542270064353943
vn 0.182508185505867 0.1873922049999237 -0.965181291103363
vn -0.5349006652832031 0.13058513402938843 -0.834762692451477
vn -0.5664855241775513 0.11497028172016144 -0.8160123229026794
vn -0.9851124286651611 0.16473816335201263 0.049143027514219284
vn 0.7095787525177002 0.12155170738697052 0.6940628290176392
vn 0.05124787613749504 0.008174150250852108 0.998652458190918
vn -0.5552248358726501 -0.05378742516040802 0.8299592733383179
vn -0.9811298251152039 -0.03186842054128647 -0.19070564210414886
vn -0.48757004737854004 0.03436960279941559 -0.872407078742981
vn 0.16811256110668182 0.09174087643623352 -0.9814895987510681
vn 0.9476219415664673 0.10882582515478134 -0.30028265714645386
vn 0.7447365522384644 0.010082799009978771 0.6672824621200562
vn 0.06559588015079498 -0.10592208057641983 0.9922085404396057
vn -0.7448564171791077 -0.151455357670784 0.6498077511787415
vn -0.9373895525932312 -0.07504281401634216 -0.3401021361351013
vn -0.5810796022415161 0.03239264711737633 -0.813201904296875
vn 0.19816070795059204 0.1863577514886856 -0.9622905850410461
vn 0.9474058151245117 0.16204310953617096 -0.2759785056114197
vn 0.6639379262924194 -0.02886984497308731 0.747230052947998
vn 0.023813409730792046 -0.19793102145195007 0.9799267053604126
vn -0.5848672389984131 -0.30117303133010864 0.7531435489654541
vn -0.957436203956604 -0.12775319814682007 -0.2588339149951935
vn -0.4652368426322937 0.12218847870826721 -0.876712441444397
vn 0.2728951573371887 0.2492668330669403 -0.9291901588439941
vn 0.9693726301193237 0.19109205901622772 -0.15427395701408386
vn 0.770853579044342 -0.07364805787801743 0.6327407360076904
vn -0.007581431418657303 -0.35655730962753296 0.9342427849769592
vn -0.7771340608596802 -0.30779922008514404 0.5489283204078674
vn -0.9755984544754028 -0.12003462761640549 -0.183846116065979
vn -0.3938159942626953 0.05755064636468887 -0.9173859357833862
vn 0.5015751123428345 0.09464417397975922 -0.8599214553833008
vn 0.9741289615631104 -0.036841895431280136 -0.2229694277048111
vn 0.7764525413513184 -0.2478707730770111 0.5793803334236145
f 1//1 2//2 3//3
f 1//1 3//3 4//4
f 1//1 5//5 6//6
f 1//1 6//6 2//2
f 1//1 4//4 7//7
f 1//1 7//7 5//5
f 8//8 2//2 6//6
f 8//8 6//6 9//9
f 8//8 10//10 3//3
f 8//8 3//3 2//2
f 8//8 9//9 11//11
f 8//8 11//11 12//12
f 11//11 9//9 13//13
f 11//11 13//13 14//14
f 12//12 15//15 16//16
f 12//12 16//16 8//8
f 15//15 14//14 13//13
f 15//15 13//13 16//16
f 16//16 17//17 10//10
f 16//16 10//10 8//8
f 16//16 18//18 19//19
f 16//16 19//19 17//17
f 16//16 13//13 20//20
f 16//16 20//20 18//18
f 21//21 20//20 6//6
f 21//21 6//6 5//5
f 21//21 5//5 7//7
f 21//21 7//7 22//22
f 21//21 22//22 18//18
f 21//21 18//18 20//20
f 23//23 24//24 25//25
f 23//23 25//25 26//26
f 23//23 27//27 28//28
f 23//23 28//28 24//24
f 23//23 26//26 29//29
f 23//23 29//29 27//27
f 30//30 31//31 32//32
f 30//30 32//32 33//33
f 30//30 25//25 34//34
f 30//30 34//34 31//31
f 30//30 33//33 26//26
f 30//30 26//26 25//25
f 27//27 29//29 35//35
f 27//27 35//35 28//28
f 36//36 33//33 32//32
f 36//36 32//32 37//37
f 36//36 29//29 26//26
f 36//36 26//26 33//33
f 36//36 37//37 35//35
f 36//36 35//35 29//29
f 37//37 32//32 38//38
f 37//37 38//38 39//39
f 37//37 39//39 40//40
f 37//37 40//40 35//35
f 40//40 41//41 28//28
f 40//40 28//28 35//35
f 40//40 39//39 42//42
f 40//40 42//42 43//43
f 40//40 43//43 44//44
f 40//40 44//44 41//41
f 44//44 45//45 46//46
f 44//44 46//46 41//41
f 44//44 43//43 47//47
f 44//44 47//47 48//48
f 44//44 48//48 49//49
f 44//44 49//49 45//45
f 49//49 50//50 51//51
f 49//49 51//51 45//45
f 49//49 48//48 52//52
f 49//49 52//52 53//53
f 49//49 53//53 54//54
f 49//49 54//54 50//50
f 54//54 55//55 56//56
f 54//54 56//56 50//50
f 54//54 53//53 57//57
f 54//54 57//57 58//58
f 54//54 58//58 59//59
f 54//54 59//59 55//55
f 59//59 60//60 61//61
f 59//59 61//61 55//55
f 59//59 58//58 62//62
f 59//59 62//62 63//63
f 59//59 63//63 64//64
f 59//59 64//64 60//60
f 64//64 65//65 66//66
f 64//64 66//66 60//60
f 64//64 63//63 67//67
f 64//64 67//67 68//68
f 64//64 68//68 69//69
f 64//64 69//69 65//65
f 69//69 70//70 71//71
f 69//69 71//71 65//65
f 69//69 68//68 72//72
f 69//69 72//72 73//73
f 69//69 73//73 74//74
f 69//69 74//74 70//70
f 74//74 75//75 76//76
f 74//74 76//76 70//70
f 74//74 73//73 77//77
f 74//74 77//77 78//78
f 74//74 78//78 79//79
f 74//74 79//79 75//75
f 79//79 80//80 81//81
f 79//79 81//81 75//75
f 79//79 78//78 82//82
f 79//79 82//82 83//83
f 79//79 83//83 84//84
f 79//79 84//84 80//80
f 84//84 85//85 86//86
f 84//84 86//86 80//80
f 84//84 83//83 87//87
f 84//84 87//87 88//88
f 84//84 88//88 89//89
f 84//84 89//89 85//85
f 89//89 90//90 91//91
f 89//89 91//91 85//85
f 89//89 88//88 92//92
f 89//89 92//92 93//93
f 89//89 93//93 94//94
f 89//89 94//94 90//90
f 94//94 95//95 96//96
f 94//94 96//96 90//90
f 94//94 93//93 97//97
f 94//94 97//97 98//98
f 94//94 98//98 99//99
f 94//94 99//99 95//95
f 99//99 100//100 101//101
f 99//99 101//101 95//95
f 99//99 98//98 102//102
f 99//99 102//102 103//103
f 99//99 103//103 104//104
f 99//99 104//104 100//100
f 104//104 105//105 106//106
f 104//104 106//106 100//100
f 104//104 103//103 107//107
f 104//104 107//107 108//108
f 104//104 108//108 109//109
f 104//104 109//109 105//105
f 109//109 110//110 111//111
f 109//109 111//111 105//105
f 109//109 108//108 112//112
f 109//109 112//112 113//113
f 109//109 113//113 114//114
f 109//109 114//114 110//110
f 114//114 115//115 116//116
f 114//114 116//116 110//110
f 114//114 113//113 117//117
f 114//114 117//117 118//118
f 114//114 118//118 119//119
f 114//114 119//119 115//115
f 119//119 120//120 121//121
f 119//119 121//121 115//115
f 119//119 118//118 122//122
f 119//119 122//122 123//123
f 119//119 123//123 124//124
f 119//119 124//124 120//120
f 124//124 125//125 126//126
f 124//124 126//126 120//120
f 124//124 123//123 127//127
f 124//124 127//127 128//128
f 124//124 128//128 129//129
f 124//124 129//129 125//125
f 129//129 130//130 131//131
f 129//129 131//131 125//125
f 129//129 128//128 132//132
f 129//129 132//132 133//133
f 129//129 133//133 134//134
f 129//129 134//134 130//130
f 134//134 135//135 136//136
f 134//134 136//136 130//130
f 134//134 133//133 137//137
f 134//134 137//137 138//138
f 134//134 138//138 139//139
f 134//134 139//139 135//135
f 139//139 140//140 141//141
f 139//139 141//141 135//135
f 139//139 138//138 142//142
f 139//139 142//142 143//143
f 139//139 143//143 144//144
f 139//139 144//144 140//140
f 144//144 145//145 146//146
f 144//144 146//146 140//140
f 144//144 143//143 147//147
f 144//144 147//147 148//148
f 144//144 148//148 149//149
f 144//144 149//149 145//145
f 149//149 150//150 151//151
f 149//149 151//151 145//145
f 149//149 148//148 152//152
f 149//149 152//152 153//153
f 149//149 153//153 154//154
f 149//149 154//154 150//150
f 154//154 155//155 156//156
f 154//154 156//156 150//150
f 154//154 153//153 157//157
f 154//154 157//157 158//158
f 154//154 158//158 159//159
f 154//154 159//159 155//155
f 159//159 160//160 161//161
f 159//159 161//161 155//155
f 159//159 158//158 162//162
f 159//159 162//162 163//163
f 159//159 163//163 164//164
f 159//159 164//164 160//160
f 164//164 165//165 166//166
f 164//164 166//166 160//160
f 164//164 163//163 167//167
f 164//164 167//167 168//168
f 164//164 168//168 169//169
f 164//164 169//169 165//165
f 169//169 170//170 171//171
f 169//169 171//171 165//165
f 169//169 168//168 172//172
f 169//169 172//172 173//173
f 169//169 173//173 174//174
f 169//169 174//174 170//170
f 174//174 175//175 176//176
f 174//174 176//176 170//170
f 174//174 173//173 177//177
f 174//174 177//177 178//178
f 174//174 178//178 179//179
f 174//174 179//179 175//175
f 179//179 180//180 181//181
f 179//179 181//181 175//175
f 179//179 178//178 182//182
f 179//179 182//182 183//183
f 179//179 183//183 184//184
f 179//179 184//184 180//180
f 184//184 185//185 186//186
f 184//184 186//186 180//180
f 184//184 183//183 187//187
f 184//184 187//187 188//188
f 184//184 188//188 189//189
f 184//184 189//189 185//185
f 189//189 190//190 191//191
f 189//189 191//191 185//185
f 189//189 188//188 192//192
f 189//189 192//192 193//193
f 189//189 193//193 194//194
f 189//189 194//194 190//190
f 194//194 195//195 196//196
f 194//194 196//196 190//190
f 194//194 193//193 197//197
f 194//194 197//197 198//198
f 194//194 198//198 199//199
f 194//194 199//199 195//195
f 199//199 200//200 201//201
f 199//199 201//201 195//195
f 199//199 198//198 3//3
f 199//199 3//3 10//10
f 199//199 10//10 17//17
f 199//199 17//17 200//200
f 201//201 202//202 182//182
f 201//201 182//182 203//203
f 201//201 203//203 196//196
f 201//201 196//196 195//195
f 201//201 200//200 204//204
f 201//201 204//204 202//202
f 204//204 205//205 187//187
f 204//204 187//187 202//202
f 204//204 200//200 17//17
f 204//204 17//17 19//19
f 204//204 19//19 206//206
f 204//204 206//206 205//205
f 206//206 207//207 192//192
f 206//206 192//192 205//205
f 206//206 19//19 18//18
f 206//206 18//18 22//22
f 206//206 22//22 7//7
f 206//206 7//7 207//207
f 207//207 197//197 193//193
f 207//207 193//193 192//192
f 207//207 7//7 4//4
f 207//207 4//4 197//197
f 205//205 192//192 188//188
f 205//205 188//188 187//187
f 203//203 182//182 178//178
f 203//203 178//178 177//177
f 203//203 177//177 208//208
f 203//203 208//208 196//196
f 208//208 177//177 173//173
f 208//208 173//173 172//172
f 208//208 172//172 209//209
f 208//208 209//209 191//191
f 208//208 191//191 190//190
f 208//208 190//190 196//196
f 209//209 172//172 168//168
f 209//209 168//168 167//167
f 209//209 167//167 210//210
f 209//209 210//210 186//186
f 209//209 186//186 185//185
f 209//209 185//185 191//191
f 210//210 167//167 163//163
f 210//210 163//163 162//162
f 210//210 162//162 211//211
f 210//210 211//211 181//181
f 210//210 181//181 180//180
f 210//210 180//180 186//186
f 211//211 162//162 158//158
f 211//211 158//158 157//157
f 211//211 157//157 212//212
f 211//211 212//212 176//176
f 211//211 176//176 175//175
f 211//211 175//175 181//181
f 212//212 157//157 153//153
f 212//212 153//153 152//152
f 212//212 152//152 213//213
f 212//212 213//213 171//171
f 212//212 171//171 170//170
f 212//212 170//170 176//176
f 213//213 152//152 148//148
f 213//213 148//148 147//147
f 213//213 147//147 214//214
f 213//213 214//214 166//166
f 213//213 166//166 165//165
f 213//213 165//165 171//171
f 214//214 147//147 143//143
f 214//214 143//143 142//142
f 214//214 142//142 215//215
f 214//214 215//215 161//161
f 214//214 161//161 160//160
f 214//214 160//160 166//166
f 215//215 142//142 138//138
f 215//215 138//138 137//137
f 215//215 137//137 216//216
f 215//215 216//216 156//156
f 215//215 156//156 155//155
f 215//215 155//155 161//161
f 216//216 137//137 133//133
f 216//216 133//133 132//132
f 216//216 132//132 217//217
f 216//216 217//217 151//151
f 216//216 151//151 150//150
f 216//216 150//150 156//156
f 217//217 132//132 128//128
f 217//217 128//128 127//127
f 217//217 127//127 218//218
f 217//217 218//218 146//146
f 217//217 146//146 145//145
f 217//217 145//145 151//151
f 218//218 127//127 123//123
f 218//218 123//123 122//122
f 218//218 122//122 219//219
f 218//218 219//219 141//141
f 218//218 141//141 140//140
f 218//218 140//140 146//146
f 219//219 122//122 118//118
f 219//219 118//118 117//117
f 219//219 117//117 220//220
f 219//219 220//220 136//136
f 219//219 136//136 135//135
f 219//219 135//135 141//141
f 220//220 117//117 113//113
f 220//220 113//113 112//112
f 220//220 112//112 221//221
f 220//220 221//221 131//131
f 220//220 131//131 130//130
f 220//220 130//130 136//136
f 221//221 112//112 108//108
f 221//221 108//108 107//107
f 221//221 107//107 222//222
f 221//221 222//222 126//126
f 221//221 126//126 125//125
f 221//221 125//125 131//131
f 222//222 107//107 103//103
f 222//222 103//103 102//102
f 222//222 102//102 223//223
f 222//222 223//223 121//121
f 222//222 121//121 120//120
f 222//222 120//120 126//126
f 223//223 102//102 98//98
f 223//223 98//98 97//97
f 223//223 97//97 224//224
f 223//223 224//224 116//116
f 223//223 116//116 115//115
f 223//223 115//115 121//121
f 224//224 97//97 93//93
f 224//224 93//93 92//92
f 224//224 92//92 225//225
f 224//224 225//225 111//111
f 224//224 111//111 110//110
f 224//224 110//110 116//116
f 225//225 92//92 88//88
f 225//225 88//88 87//87
f 225//225 87//87 226//226
f 225//225 226//226 106//106
f 225//225 106//106 105//105
f 225//225 105//105 111//111
f 226//226 87//87 83//83
f 226//226 83//83 82//82
f 226//226 82//82 227//227
f 226//226 227//227 101//101
f 226//226 101//101 100//100
f 226//226 100//100 106//106
f 227//227 82//82 78//78
f 227//227 78//78 77//77
f 227//227 77//77 228//228
f 227//227 228//228 96//96
f 227//227 96//96 95//95
f 227//227 95//95 101//101
f 228//228 77//77 73//73
f 228//228 73//73 72//72
f 228//228 72//72 229//229
f 228//228 229//229 91//91
f 228//228 91//91 90//90
f 228//228 90//90 96//96
f 229//229 72//72 68//68
f 229//229 68//68 67//67
f 229//229 67//67 230//230
f 229//229 230//230 86//86
f 229//229 86//86 85//85
f 229//229 85//85 91//91
f 230//230 67//67 63//63
f 230//230 63//63 62//62
f 230//230 62//62 231//231
f 230//230 231//231 81//81
f 230//230 81//81 80//80
f 230//230 80//80 86//86
f 231//231 62//62 58//58
f 231//231 58//58 57//57
f 231//231 57//57 232//232
f 231//231 232//232 76//76
f 231//231 76//76 75//75
f 231//231 75//75 81//81
f 232//232 57//57 53//53
f 232//232 53//53 52//52
f 232//232 52//52 233//233
f 232//232 233//233 71//71
f 232//232 71//71 70//70
f 232//232 70//70 76//76
f 233//233 52//52 48//48
f 233//233 48//48 47//47
f 233//233 47//47 234//234
f 233//233 234//234 66//66
f 233//233 66//66 65//65
f 233//233 65//65 71//71
f 234//234 47//47 43//43
f 234//234 43//43 42//42
f 234//234 42//42 235//235
f 234//234 235//235 61//61
f 234//234 61//61 60//60
f 234//234 60//60 66//66
f 235//235 42//42 39//39
f 235//235 39//39 38//38
f 235//235 38//38 236//236
f 235//235 236//236 56//56
f 235//235 56//56 55//55
f 235//235 55//55 61//61
f 236//236 38//38 32//32
f 236//236 32//32 31//31
f 236//236 31//31 34//34
f 236//236 34//34 51//51
f 236//236 51//51 50//50
f 236//236 50//50 56//56
f 202//202 187//187 183//183
f 202//202 183//183 182//182
f 198//198 197//197 4//4
f 198//198 4//4 3//3
f 51//51 34//34 46//46
f 51//51 46//46 45//45
f 46//46 34//34 25//25
f 46//46 25//25 24//24
f 46//46 24//24 28//28
f 46//46 28//28 41//41
f 20//20 13//13 9//9
f 20//20 9//9 6//6
f 14//14 15//15 12//12
f 14//14 12//12 11//11
