# Generated by Visualization Toolkit
v 0.04369800165295601 -0.1594270020723343 -0.026272999122738838
v 0.04482699930667877 -0.15960800647735596 -0.02617100067436695
v 0.04397699981927872 -0.15948599576950073 -0.02550099976360798
v 0.043473001569509506 -0.15895800292491913 -0.02869199961423874
v 0.04257600009441376 -0.158610001206398 -0.02632099948823452
v 0.045207999646663666 -0.15928800404071808 -0.024746999144554138
v 0.04463899880647659 -0.15940600633621216 -0.024901999160647392
v 0.04415600001811981 -0.15920700132846832 -0.028748000040650368
v 0.046925000846385956 -0.15741099417209625 -0.02830599993467331
v 0.04708699882030487 -0.15808899700641632 -0.025180000811815262
v 0.04254800081253052 -0.15851600468158722 -0.02490600012242794
v 0.043818000704050064 -0.15883299708366394 -0.030553000047802925
v 0.041345998644828796 -0.1569650024175644 -0.028551999479532242
v 0.04275299981236458 -0.1582150012254715 -0.029582999646663666
v 0.04084499925374985 -0.15649999678134918 -0.026830999180674553
v 0.045857999473810196 -0.1549769937992096 -0.02281999960541725
v 0.04655800014734268 -0.1582150012254715 -0.0242139995098114
v 0.04550199955701828 -0.15907999873161316 -0.030945999547839165
v 0.04698500037193298 -0.1579049974679947 -0.03026599995791912
v 0.047022998332977295 -0.15530499815940857 -0.028044000267982483
v 0.04773499816656113 -0.15583699941635132 -0.030233999714255333
v 0.047547999769449234 -0.15614700317382812 -0.02427699975669384
v 0.04745600000023842 -0.15523600578308105 -0.025962000712752342
v 0.041641999036073685 -0.15728899836540222 -0.024486999958753586
v 0.04055500030517578 -0.15615999698638916 -0.02549000084400177
v 0.0445609986782074 -0.1587740033864975 -0.03202600032091141
v 0.040098000317811966 -0.1562429964542389 -0.02824299968779087
v 0.03309699892997742 -0.15042300522327423 -0.029930999502539635
v 0.040929000824689865 -0.1557379961013794 -0.030628999695181847
v 0.04184199869632721 -0.15609599649906158 -0.031863998621702194
v 0.03965400159358978 -0.15609200298786163 -0.026712000370025635
v 0.04689899832010269 -0.15698100626468658 -0.023574000224471092
v 0.0464170016348362 -0.1555429995059967 -0.02297000028192997
v 0.044367000460624695 -0.15422199666500092 -0.022711999714374542
v 0.0435510016977787 -0.15411999821662903 -0.02275400049984455
v 0.041579000651836395 -0.15597300231456757 -0.023816000670194626
v 0.04530100151896477 -0.15398399531841278 -0.022856999188661575
v 0.04597799852490425 -0.15442200005054474 -0.023000000044703484
v 0.045448001474142075 -0.15877099335193634 -0.03216199949383736
v 0.04673999920487404 -0.15768000483512878 -0.03241800144314766
v 0.04542800039052963 -0.15362100303173065 -0.027814999222755432
v 0.04712799936532974 -0.15416200459003448 -0.03008200041949749
v 0.04741699993610382 -0.15599800646305084 -0.03249400109052658
v 0.047272998839616776 -0.15512500703334808 -0.03248399868607521
v 0.046925000846385956 -0.15431199967861176 -0.03245300054550171
v 0.0470069982111454 -0.15474200248718262 -0.02365100011229515
v 0.04079199954867363 -0.1549839973449707 -0.024098999798297882
v 0.03956599906086922 -0.15569999814033508 -0.02565000019967556
v 0.04533199965953827 -0.15827199816703796 -0.03244499862194061
v 0.03611600026488304 -0.1533149927854538 -0.026870999485254288
v 0.04076800122857094 -0.1550700068473816 -0.03128400072455406
v 0.03520600125193596 -0.15249399840831757 -0.026247000321745872
v 0.03063799999654293 -0.14851300418376923 -0.02974499948322773
v 0.029696999117732048 -0.14634500443935394 -0.03150400146842003
v 0.03412900120019913 -0.14960399270057678 -0.031036999076604843
v 0.03920400142669678 -0.15358999371528625 -0.03140300139784813
v 0.04125300049781799 -0.1551620066165924 -0.03157300129532814
v 0.041861001402139664 -0.15460899472236633 -0.03223799914121628
v 0.04284600168466568 -0.15632900595664978 -0.032308999449014664
v 0.0453450009226799 -0.15346600115299225 -0.02315099909901619
v 0.04299100115895271 -0.15313899517059326 -0.023729000240564346
v 0.046250998973846436 -0.15707099437713623 -0.03284800052642822
v 0.046828001737594604 -0.1558379977941513 -0.033048998564481735
v 0.041978999972343445 -0.1531209945678711 -0.025815000757575035
v 0.04509799927473068 -0.15309500694274902 -0.03013399988412857
v 0.0450269989669323 -0.15328699350357056 -0.032253000885248184
v 0.046268999576568604 -0.15460899472236633 -0.03308599814772606
v 0.04495999962091446 -0.15396499633789062 -0.03293599933385849
v 0.03922300040721893 -0.1541139930486679 -0.024351999163627625
v 0.04022800177335739 -0.15303799510002136 -0.024135999381542206
v 0.04163099825382233 -0.15376700460910797 -0.024369999766349792
v 0.04073299840092659 -0.1546649932861328 -0.031676001846790314
v 0.036295000463724136 -0.15124599635601044 -0.023634999990463257
v 0.034327998757362366 -0.14903900027275085 -0.022623000666499138
v 0.031122999265789986 -0.14824900031089783 -0.02322399988770485
v 0.024090999737381935 -0.14498299360275269 -0.029802000150084496
v 0.022450000047683716 -0.14448800683021545 -0.0251499991863966
v 0.024504000321030617 -0.1437010020017624 -0.030980000272393227
v 0.026698000729084015 -0.1433819979429245 -0.032451000064611435
v 0.031091000884771347 -0.1451530009508133 -0.0319410003721714
v 0.036942001432180405 -0.149850994348526 -0.031153999269008636
v 0.028999000787734985 -0.14358900487422943 -0.03252600133419037
v 0.03925500065088272 -0.15176500380039215 -0.031300999224185944
v 0.041016001254320145 -0.1537729948759079 -0.03162100166082382
v 0.040132999420166016 -0.1523970067501068 -0.03116299957036972
v 0.042833998799324036 -0.15502099692821503 -0.03263700008392334
v 0.043956998735666275 -0.15316399931907654 -0.03214100003242493
v 0.04129000008106232 -0.1530819982290268 -0.03117400035262108
v 0.03966600075364113 -0.15169300138950348 -0.026333000510931015
v 0.03945299983024597 -0.1523980051279068 -0.024178000167012215
v 0.0418890006840229 -0.15281899273395538 -0.029758000746369362
v 0.040490999817848206 -0.1521580070257187 -0.02841399982571602
v 0.038072001188993454 -0.1516689956188202 -0.02367500029504299
v 0.037516999989748 -0.15082399547100067 -0.023252999410033226
v 0.03502599895000458 -0.14877599477767944 -0.022415999323129654
v 0.025949999690055847 -0.14570799469947815 -0.02224699966609478
v 0.02789900079369545 -0.14371299743652344 -0.019763000309467316
v 0.02643200010061264 -0.14464999735355377 -0.020692000165581703
v 0.03069699928164482 -0.14503799378871918 -0.020555000752210617
v 0.023096000775694847 -0.14458200335502625 -0.02371699921786785
v 0.022763000801205635 -0.14383700489997864 -0.029493000358343124
v 0.022260000929236412 -0.14427399635314941 -0.026531999930739403
v 0.023190999403595924 -0.1434130072593689 -0.030282000079751015
v 0.0217250008136034 -0.14366500079631805 -0.02528100088238716
v 0.025265999138355255 -0.1417820006608963 -0.03234900161623955
v 0.023287000134587288 -0.14253899455070496 -0.03064900077879429
v 0.02284199930727482 -0.14299200475215912 -0.030042000114917755
v 0.031605999916791916 -0.14469599723815918 -0.03167999908328056
v 0.03539099916815758 -0.1474830061197281 -0.02775599993765354
v 0.025885000824928284 -0.14036500453948975 -0.031895000487565994
v 0.028901999816298485 -0.1409049928188324 -0.032010000199079514
v 0.03838000074028969 -0.15102000534534454 -0.024020999670028687
v 0.03549300134181976 -0.14844000339508057 -0.022523000836372375
v 0.024105999618768692 -0.14456500113010406 -0.022425999864935875
v 0.024848999455571175 -0.1433189958333969 -0.020702000707387924
v 0.027828000485897064 -0.14193899929523468 -0.01912900060415268
v 0.02659899927675724 -0.1416579931974411 -0.01913600042462349
v 0.02871299907565117 -0.14143900573253632 -0.019176999107003212
v 0.031036999076604843 -0.1435759961605072 -0.020793000236153603
v 0.03223700076341629 -0.14451399445533752 -0.021827999502420425
v 0.022307999432086945 -0.14377999305725098 -0.02384999953210354
v 0.022290000692009926 -0.14312699437141418 -0.029224999248981476
v 0.02168099954724312 -0.1433670073747635 -0.02643899992108345
v 0.022245999425649643 -0.14309200644493103 -0.02624800056219101
v 0.022871999070048332 -0.14341099560260773 -0.024109000340104103
v 0.025495000183582306 -0.1409900039434433 -0.03192000091075897
v 0.02356399968266487 -0.142426997423172 -0.03022100031375885
v 0.031018000096082687 -0.1430249959230423 -0.031098999083042145
v 0.032010000199079514 -0.14376400411128998 -0.025564000010490417
v 0.026673000305891037 -0.13906200230121613 -0.031036000698804855
v 0.027201000601053238 -0.14009100198745728 -0.02895599976181984
v 0.029928000643849373 -0.14020100235939026 -0.030709000304341316
v 0.02317900024354458 -0.14372099936008453 -0.022799000144004822
v 0.024764999747276306 -0.14291299879550934 -0.021105000749230385
v 0.023956000804901123 -0.14330899715423584 -0.02195899933576584
v 0.028334999457001686 -0.1409360021352768 -0.01930299960076809
v 0.02752400003373623 -0.14126700162887573 -0.019029000774025917
v 0.02723100036382675 -0.14081600308418274 -0.01951500028371811
v 0.025141000747680664 -0.1427440047264099 -0.02153399959206581
v 0.027101999148726463 -0.14054100215435028 -0.019937999546527863
v 0.0257750004529953 -0.142193004488945 -0.02258400060236454
v 0.03026299923658371 -0.1415330022573471 -0.01988000050187111
v 0.029363999143242836 -0.140066996216774 -0.02005700021982193
v 0.03167499974370003 -0.14348599314689636 -0.02191999927163124
v 0.030486999079585075 -0.1410199999809265 -0.020748000591993332
v 0.02432899922132492 -0.1429940015077591 -0.022362999618053436
v 0.0224629994481802 -0.14285600185394287 -0.02818799950182438
v 0.023142000660300255 -0.14268900454044342 -0.028721999377012253
v 0.023934999480843544 -0.14339900016784668 -0.024226000532507896
v 0.025608999654650688 -0.14289499819278717 -0.02672399953007698
v 0.02698500081896782 -0.14145199954509735 -0.027055999264121056
v 0.02813900075852871 -0.1379680037498474 -0.025805000215768814
v 0.03064800053834915 -0.14056499302387238 -0.02158699929714203
v 0.02979299984872341 -0.13921299576759338 -0.021726999431848526
v 0.0275030005723238 -0.13839200139045715 -0.02994300052523613
v 0.027348000556230545 -0.13887600600719452 -0.030054999515414238
v 0.027341000735759735 -0.13884299993515015 -0.029211999848484993
v 0.027685999870300293 -0.13994400203227997 -0.027790000662207603
v 0.027786999940872192 -0.1391340047121048 -0.0205329991877079
v 0.027638999745249748 -0.13961000740528107 -0.021418999880552292
v 0.025357000529766083 -0.14288300275802612 -0.025558000430464745
v 0.026757000014185905 -0.1418839991092682 -0.025218000635504723
v 0.0279959999024868 -0.14017100632190704 -0.024095000699162483
v 0.027695000171661377 -0.14073899388313293 -0.0248429998755455
v 0.0282639991492033 -0.138824000954628 -0.021097000688314438
v 0.02637599967420101 -0.14186599850654602 -0.025634000077843666
v 0.026669999584555626 -0.14201100170612335 -0.026133999228477478
v 0.027525000274181366 -0.1407189965248108 -0.026151999831199646
v 0.026936000213027 -0.1412470042705536 -0.0257399994879961
v 0.02842400036752224 -0.13818499445915222 -0.022272000089287758
v 0.027410000562667847 -0.1386220008134842 -0.028317000716924667
v 0.027567999437451363 -0.13983400166034698 -0.025671999901533127
v 0.027852000668644905 -0.140051007270813 -0.02493000030517578
v 0.027274999767541885 -0.14044499397277832 -0.025631999596953392
f 1 2 3
f 2 1 4
f 1 5 4
f 3 5 1
f 6 7 2
f 7 3 2
f 4 8 2
f 8 9 2
f 9 10 2
f 10 6 2
f 3 7 11
f 3 11 5
f 12 8 4
f 5 13 4
f 4 13 14
f 14 12 4
f 5 15 13
f 11 15 5
f 7 6 16
f 6 17 16
f 10 17 6
f 16 11 7
f 8 12 18
f 9 8 19
f 19 8 18
f 10 9 20
f 9 21 20
f 19 21 9
f 22 17 10
f 22 10 23
f 23 10 20
f 16 24 11
f 24 25 11
f 11 25 15
f 26 18 12
f 26 12 14
f 27 13 15
f 13 27 28
f 29 13 28
f 13 29 14
f 30 26 14
f 29 30 14
f 31 15 25
f 27 15 31
f 17 32 16
f 32 33 16
f 34 35 16
f 35 36 16
f 36 24 16
f 34 16 37
f 16 33 38
f 16 38 37
f 22 32 17
f 26 39 18
f 19 18 40
f 18 39 40
f 21 19 40
f 41 23 20
f 21 42 20
f 20 42 41
f 43 44 21
f 42 21 45
f 21 44 45
f 43 21 40
f 46 22 23
f 22 46 32
f 23 41 46
f 47 24 36
f 25 24 47
f 48 25 47
f 25 48 31
f 49 39 26
f 49 26 30
f 31 50 27
f 28 27 50
f 28 51 29
f 50 52 28
f 53 28 52
f 54 55 28
f 54 28 53
f 55 56 28
f 56 51 28
f 29 51 57
f 30 29 57
f 58 59 30
f 59 49 30
f 58 30 57
f 48 50 31
f 46 33 32
f 33 46 38
f 34 37 35
f 35 37 60
f 61 47 35
f 36 35 47
f 35 60 61
f 37 38 60
f 38 46 60
f 39 62 40
f 62 39 49
f 63 43 40
f 63 40 62
f 64 41 65
f 65 41 42
f 64 61 41
f 60 46 41
f 61 60 41
f 65 42 66
f 66 42 45
f 43 63 44
f 67 45 44
f 67 44 63
f 67 68 45
f 66 45 68
f 69 47 70
f 47 69 48
f 70 47 71
f 47 61 71
f 50 48 69
f 59 62 49
f 52 50 69
f 56 72 51
f 51 72 58
f 51 58 57
f 52 69 73
f 52 73 74
f 75 52 74
f 53 52 75
f 76 53 77
f 53 75 77
f 76 78 53
f 79 53 78
f 54 53 79
f 80 81 54
f 54 79 82
f 54 82 80
f 55 54 81
f 81 83 55
f 83 56 55
f 56 84 72
f 85 84 56
f 83 85 56
f 68 86 58
f 87 68 58
f 84 58 72
f 88 87 58
f 88 58 84
f 59 58 86
f 63 62 59
f 67 63 59
f 67 59 68
f 86 68 59
f 71 61 64
f 89 90 64
f 91 92 64
f 64 92 89
f 65 91 64
f 70 64 90
f 71 64 70
f 91 65 88
f 66 87 65
f 87 88 65
f 87 66 68
f 73 69 93
f 90 93 69
f 70 90 69
f 93 94 73
f 74 73 94
f 94 95 74
f 74 96 75
f 74 97 98
f 74 99 97
f 74 95 99
f 74 98 96
f 96 100 75
f 100 77 75
f 101 76 102
f 76 77 102
f 78 76 103
f 76 101 103
f 102 77 104
f 104 77 100
f 105 78 106
f 107 106 78
f 107 78 103
f 105 79 78
f 79 105 82
f 108 81 80
f 108 80 82
f 109 92 81
f 83 81 92
f 108 109 81
f 110 82 105
f 111 108 82
f 110 111 82
f 85 83 92
f 85 88 84
f 91 85 92
f 88 85 91
f 109 112 89
f 109 89 92
f 89 112 90
f 112 93 90
f 93 112 94
f 112 113 94
f 113 95 94
f 113 99 95
f 114 96 115
f 115 96 98
f 114 100 96
f 116 117 97
f 115 97 117
f 97 118 116
f 97 115 98
f 99 118 97
f 119 99 120
f 118 99 119
f 99 113 120
f 100 121 104
f 114 121 100
f 103 101 122
f 122 101 102
f 102 123 122
f 104 123 102
f 122 107 103
f 124 123 104
f 104 125 124
f 104 121 125
f 105 126 110
f 106 126 105
f 127 106 107
f 126 106 127
f 127 107 122
f 128 109 108
f 111 128 108
f 128 129 109
f 109 129 120
f 120 112 109
f 130 111 110
f 131 110 126
f 131 130 110
f 128 111 132
f 130 132 111
f 112 120 113
f 114 133 121
f 115 133 114
f 117 134 115
f 135 133 115
f 134 135 115
f 116 118 136
f 136 137 116
f 137 117 116
f 117 137 138
f 117 139 134
f 140 117 138
f 140 141 117
f 141 139 117
f 142 143 118
f 136 118 143
f 119 142 118
f 119 120 144
f 119 144 145
f 142 119 145
f 144 120 129
f 121 133 146
f 121 146 125
f 147 122 123
f 122 148 127
f 148 122 147
f 123 124 147
f 147 124 148
f 125 149 124
f 124 149 150
f 148 124 150
f 146 149 125
f 150 126 127
f 150 151 126
f 151 131 126
f 127 148 150
f 129 128 132
f 132 152 129
f 153 144 129
f 152 154 129
f 153 129 154
f 132 130 155
f 155 130 156
f 156 130 131
f 157 156 131
f 131 158 157
f 151 158 131
f 132 155 152
f 133 135 146
f 135 134 139
f 135 139 146
f 137 136 159
f 136 143 159
f 137 159 138
f 159 140 138
f 146 139 141
f 160 140 159
f 140 160 141
f 146 141 161
f 141 162 161
f 163 164 141
f 160 163 141
f 164 162 141
f 143 142 154
f 142 145 154
f 165 143 154
f 165 159 143
f 144 153 145
f 153 154 145
f 149 146 161
f 150 149 161
f 166 167 150
f 151 150 167
f 150 161 166
f 168 151 169
f 151 168 158
f 151 167 169
f 170 154 152
f 171 170 152
f 152 155 171
f 170 165 154
f 171 155 157
f 156 157 155
f 171 157 158
f 158 172 171
f 172 158 168
f 159 165 160
f 160 165 170
f 163 160 170
f 162 166 161
f 166 162 169
f 164 169 162
f 163 170 173
f 163 173 164
f 164 174 169
f 174 164 173
f 167 166 169
f 174 172 168
f 174 168 169
f 172 170 171
f 172 173 170
f 173 172 174
