# Generated by Visualization Toolkit
v 0.021265000104904175 -0.1415189951658249 -0.022206999361515045
v 0.025033999234437943 -0.1391250044107437 -0.020639000460505486
v 0.022458000108599663 -0.13851700723171234 -0.021595999598503113
v 0.01928200013935566 -0.1395290046930313 -0.022141000255942345
v 0.02214900031685829 -0.14191600680351257 -0.022123999893665314
v 0.02463800087571144 -0.14097900688648224 -0.021391000598669052
v 0.020106999203562737 -0.14101000130176544 -0.023919999599456787
v 0.021880000829696655 -0.14214399456977844 -0.02380399964749813
v 0.026131000369787216 -0.13868600130081177 -0.02147199958562851
v 0.026101000607013702 -0.13757899403572083 -0.021157000213861465
v 0.021486999467015266 -0.13438500463962555 -0.02017899975180626
v 0.024622000753879547 -0.13704000413417816 -0.020013000816106796
v 0.01923700049519539 -0.13607899844646454 -0.020937999710440636
v 0.01974100060760975 -0.13419100642204285 -0.020685000345110893
v 0.01802000030875206 -0.1362760066986084 -0.022306999191641808
v 0.017849000170826912 -0.13505899906158447 -0.028387999162077904
v 0.024661000818014145 -0.1417659968137741 -0.02282699942588806
v 0.025438999757170677 -0.1408499926328659 -0.022311000153422356
v 0.02095099911093712 -0.14051300287246704 -0.02983199991285801
v 0.021984999999403954 -0.1415719985961914 -0.02645000070333481
v 0.024671999737620354 -0.14169999957084656 -0.02371099963784218
v 0.02607100084424019 -0.13953299820423126 -0.024088000878691673
v 0.026345999911427498 -0.13762600719928741 -0.023486999794840813
v 0.024960000067949295 -0.1352120041847229 -0.02065899968147278
v 0.02047399990260601 -0.13390399515628815 -0.020560000091791153
v 0.02254899963736534 -0.13353599607944489 -0.021098999306559563
v 0.018857000395655632 -0.13444100320339203 -0.021095000207424164
v 0.016814999282360077 -0.13086600601673126 -0.020820999518036842
v 0.013779000379145145 -0.12947900593280792 -0.025319000706076622
v 0.012740000151097775 -0.12723399698734283 -0.02232000045478344
v 0.014817999675869942 -0.12588700652122498 -0.028232000768184662
v 0.018592000007629395 -0.13317500054836273 -0.02948799915611744
v 0.013226999901235104 -0.12716799974441528 -0.026861000806093216
v 0.02001900039613247 -0.1343419998884201 -0.030412999913096428
v 0.020080000162124634 -0.13666099309921265 -0.030334999784827232
v 0.02049499936401844 -0.13495700061321259 -0.03073200024664402
v 0.02242100052535534 -0.14162400364875793 -0.03020399995148182
v 0.022374000400304794 -0.14193500578403473 -0.028883999213576317
v 0.022151000797748566 -0.14033299684524536 -0.03086400032043457
v 0.02429099939763546 -0.14103899896144867 -0.026249000802636147
v 0.02442000061273575 -0.14137400686740875 -0.03039100021123886
v 0.02498600073158741 -0.1402139961719513 -0.02617800049483776
v 0.025728000327944756 -0.13745899498462677 -0.025992000475525856
v 0.024846000596880913 -0.135452002286911 -0.025824999436736107
v 0.020600000396370888 -0.13339699804782867 -0.021626999601721764
v 0.021263999864459038 -0.13292500376701355 -0.02339399978518486
v 0.009960999712347984 -0.11732300370931625 -0.018845999613404274
v 0.0021039999555796385 -0.10993599891662598 -0.020569000393152237
v 0.013470999896526337 -0.12027300149202347 -0.019564000889658928
v 0.016795000061392784 -0.12535299360752106 -0.02098100073635578
v 0.007031999994069338 -0.11881399899721146 -0.024935999885201454
v 0.008414000272750854 -0.1143139973282814 -0.02714800089597702
v 0.007329999934881926 -0.11864600330591202 -0.025989999994635582
v 0.0187740009278059 -0.12959299981594086 -0.028922000899910927
v 0.00949000008404255 -0.11116699874401093 -0.02744000032544136
v 0.020114999264478683 -0.13244900107383728 -0.029180999845266342
v 0.019790999591350555 -0.1331070065498352 -0.02965099923312664
v 0.020576000213623047 -0.13332599401474 -0.030153000727295876
v 0.0250410009175539 -0.13910099864006042 -0.03153099864721298
v 0.02445800043642521 -0.13623599708080292 -0.03151100128889084
v 0.02205199934542179 -0.13445299863815308 -0.03108000010251999
v 0.025043999776244164 -0.1371850073337555 -0.031612999737262726
v 0.02566000074148178 -0.13962100446224213 -0.030856000259518623
v 0.026096999645233154 -0.13949799537658691 -0.028435999527573586
v 0.026295000687241554 -0.13716700673103333 -0.028365999460220337
v 0.022634999826550484 -0.1332309991121292 -0.028087999671697617
v 0.02555900067090988 -0.13586899638175964 -0.028410999104380608
v 0.020632000640034676 -0.13242000341415405 -0.02848700061440468
v 0.007294000126421452 -0.11124999821186066 -0.017456000670790672
v 0.009329999797046185 -0.11087299883365631 -0.01756400056183338
v 0.005532999988645315 -0.11608199775218964 -0.024517999961972237
v 0.0026859999634325504 -0.11095699667930603 -0.025104999542236328
v -0.00003400000059627928 -0.10585100203752518 -0.02077599987387657
v 0.0005569999921135604 -0.10548099875450134 -0.026280999183654785
v 0.0013559999642893672 -0.10734599828720093 -0.018257999792695045
v 0.014386000111699104 -0.11962399631738663 -0.020603999495506287
v 0.010823000222444534 -0.11073499917984009 -0.0189410001039505
v 0.00598399993032217 -0.11571899801492691 -0.02544499933719635
v 0.0026599999982863665 -0.10257700085639954 -0.02884499914944172
v 0.011003999970853329 -0.1123490035533905 -0.025443000718951225
v 0.008275999687612057 -0.1083419993519783 -0.027473999187350273
v 0.008510000072419643 -0.10743899643421173 -0.026743000373244286
v 0.010002999566495419 -0.11077599972486496 -0.026308000087738037
v 0.020955000072717667 -0.1326490044593811 -0.02969999983906746
v 0.025929000228643417 -0.1373019963502884 -0.030930999666452408
v 0.023118000477552414 -0.133774995803833 -0.030435999855399132
v 0.02434300072491169 -0.13475200533866882 -0.030646000057458878
v 0.008170000277459621 -0.10727400332689285 -0.015829000622034073
v 0.004401000216603279 -0.10401000082492828 -0.014096000231802464
v 0.0010160000529140234 -0.10364100337028503 -0.027753999456763268
v -0.00040099999750964344 -0.10355900228023529 -0.022298000752925873
v 0.0008870000019669533 -0.10306300222873688 -0.016860000789165497
v -0.00020700000459328294 -0.10287699848413467 -0.02542000077664852
v 0.0016120000509545207 -0.10224000364542007 -0.01584799960255623
v 0.00974700041115284 -0.10543300211429596 -0.017170000821352005
v 0.008803999982774258 -0.10329599678516388 -0.015314999967813492
v 0.009724999777972698 -0.10990899801254272 -0.02552199922502041
v 0.0024429999757558107 -0.10150200128555298 -0.02877799980342388
v 0.003836000105366111 -0.10011299699544907 -0.02873699925839901
v 0.007888000458478928 -0.10570099949836731 -0.027876999229192734
v 0.007946999743580818 -0.10192500054836273 -0.028293000534176826
v 0.00481799989938736 -0.09970799833536148 -0.028635000810027122
v 0.009138000197708607 -0.10583700239658356 -0.026441000401973724
v 0.009573999792337418 -0.1060120016336441 -0.025088999420404434
v 0.00930000003427267 -0.10768400132656097 -0.025275999680161476
v 0.006173999980092049 -0.10118900239467621 -0.01444500032812357
v 0.003765000030398369 -0.101453997194767 -0.01477499958127737
v 0.0015279999934136868 -0.09971299767494202 -0.027892999351024628
v 0.0004729999927803874 -0.10137200355529785 -0.0264699999243021
v 0.00107999995816499 -0.10145600140094757 -0.017847999930381775
v 0.000826000003144145 -0.10213100165128708 -0.024598000571131706
v 0.0006689999718219042 -0.10267200320959091 -0.021366000175476074
v 0.0032470000442117453 -0.09966699779033661 -0.015444000251591206
v 0.009456999599933624 -0.10604699701070786 -0.024064000695943832
v 0.00916299968957901 -0.10309399664402008 -0.02399899996817112
v 0.009298999793827534 -0.0999549999833107 -0.017378000542521477
v 0.007153000216931105 -0.10102099925279617 -0.01482400018721819
v 0.0031030001118779182 -0.0988989993929863 -0.027981000021100044
v 0.0035989999305456877 -0.09968999773263931 -0.02829499915242195
v 0.008599000051617622 -0.1017019972205162 -0.027830999344587326
v 0.005919999908655882 -0.09956599771976471 -0.02837900072336197
v 0.0076790000312030315 -0.09967000037431717 -0.027560999616980553
v 0.004505000077188015 -0.09915799647569656 -0.028164999559521675
v 0.00468500005081296 -0.10051000118255615 -0.015285000205039978
v 0.005468999966979027 -0.0993570014834404 -0.0155239999294281
v 0.0021299999207258224 -0.10078399628400803 -0.025880999863147736
v 0.007706999778747559 -0.09845700114965439 -0.01827099919319153
v 0.004736999981105328 -0.09991099685430527 -0.023548999801278114
v 0.006281000096350908 -0.09855400025844574 -0.02656099945306778
v 0.006560000125318766 -0.09825199842453003 -0.02332800067961216
v 0.005022000055760145 -0.09851700067520142 -0.027428999543190002
v 0.00456599984318018 -0.09854400157928467 -0.026739999651908875
f 1 2 3
f 3 4 1
f 5 6 1
f 6 2 1
f 7 1 4
f 5 1 8
f 1 7 8
f 2 9 10
f 11 3 2
f 11 2 12
f 10 12 2
f 6 9 2
f 13 4 3
f 11 14 3
f 14 13 3
f 15 4 13
f 16 7 4
f 4 15 16
f 17 5 8
f 17 6 5
f 6 17 18
f 9 6 18
f 19 7 16
f 20 7 19
f 8 7 20
f 21 8 20
f 8 21 17
f 22 23 9
f 10 9 23
f 9 18 22
f 23 24 10
f 12 10 24
f 11 25 14
f 26 25 11
f 24 26 11
f 11 12 24
f 13 27 15
f 27 13 14
f 25 27 14
f 28 15 27
f 29 16 15
f 30 15 28
f 15 30 29
f 31 32 16
f 16 29 33
f 16 33 31
f 16 32 34
f 35 19 16
f 35 16 36
f 16 34 36
f 18 17 21
f 22 18 21
f 19 37 38
f 20 19 38
f 35 39 19
f 39 37 19
f 40 20 41
f 41 20 38
f 20 40 21
f 21 42 22
f 21 40 42
f 23 22 43
f 42 43 22
f 44 23 43
f 44 24 23
f 24 44 26
f 45 25 26
f 25 45 27
f 46 26 44
f 45 26 46
f 45 28 27
f 28 47 48
f 48 30 28
f 49 47 28
f 50 49 28
f 45 50 28
f 30 48 29
f 29 48 51
f 29 51 33
f 52 31 53
f 31 33 53
f 31 54 32
f 55 54 31
f 31 52 55
f 54 56 32
f 56 57 32
f 57 34 32
f 53 33 51
f 57 58 34
f 58 36 34
f 59 39 35
f 60 35 61
f 62 35 60
f 62 59 35
f 36 61 35
f 36 58 61
f 37 59 41
f 37 41 38
f 39 59 37
f 40 41 42
f 63 41 59
f 41 64 42
f 63 64 41
f 64 43 42
f 43 65 44
f 64 65 43
f 66 44 67
f 67 44 65
f 66 46 44
f 50 45 46
f 68 54 46
f 54 50 46
f 66 68 46
f 69 47 70
f 47 69 48
f 49 70 47
f 71 51 48
f 72 71 48
f 73 74 48
f 74 72 48
f 69 75 48
f 75 73 48
f 76 49 50
f 76 77 49
f 70 49 77
f 54 76 50
f 51 71 78
f 51 78 53
f 52 79 55
f 53 78 52
f 79 52 78
f 80 54 55
f 56 54 68
f 76 54 80
f 81 82 55
f 82 83 55
f 81 55 79
f 55 83 80
f 68 66 56
f 84 56 66
f 56 84 57
f 84 58 57
f 58 84 61
f 62 85 59
f 63 59 85
f 60 86 87
f 87 85 60
f 60 85 62
f 61 86 60
f 84 86 61
f 65 63 85
f 64 63 65
f 85 67 65
f 86 84 66
f 86 66 67
f 87 86 67
f 85 87 67
f 69 70 88
f 75 69 89
f 88 89 69
f 77 88 70
f 71 72 78
f 79 72 90
f 79 78 72
f 74 90 72
f 74 73 91
f 73 92 91
f 92 73 75
f 74 91 93
f 74 93 90
f 75 94 92
f 89 94 75
f 77 76 80
f 95 96 77
f 97 95 77
f 97 77 80
f 88 77 96
f 90 98 79
f 99 79 98
f 100 81 79
f 101 100 79
f 102 101 79
f 99 102 79
f 97 80 83
f 100 82 81
f 103 104 82
f 82 100 103
f 97 83 82
f 105 82 104
f 97 82 105
f 88 96 89
f 106 107 89
f 94 89 107
f 89 96 106
f 108 90 109
f 93 109 90
f 98 90 108
f 92 110 91
f 93 91 111
f 91 112 111
f 110 112 91
f 110 92 94
f 109 93 111
f 107 113 94
f 113 110 94
f 95 114 115
f 105 114 95
f 105 95 97
f 95 115 116
f 95 116 96
f 116 117 96
f 106 96 117
f 98 108 118
f 119 99 98
f 118 119 98
f 99 119 102
f 101 120 100
f 103 100 120
f 121 122 101
f 120 101 122
f 121 101 102
f 102 123 121
f 119 123 102
f 120 104 103
f 104 114 105
f 120 115 104
f 115 114 104
f 107 106 124
f 106 125 124
f 106 117 125
f 124 113 107
f 108 109 126
f 118 108 126
f 111 126 109
f 113 127 110
f 112 110 127
f 127 128 111
f 127 111 112
f 128 126 111
f 125 113 124
f 113 125 127
f 120 116 115
f 122 129 116
f 120 122 116
f 116 129 130
f 127 116 130
f 117 116 127
f 127 125 117
f 131 123 118
f 119 118 123
f 118 126 132
f 132 131 118
f 121 123 131
f 122 121 131
f 122 131 129
f 132 126 128
f 127 130 128
f 128 130 132
f 129 131 132
f 132 130 129
