# Generated by Visualization Toolkit
v 0.060662999749183655 -0.16241799294948578 -0.028044000267982483
v 0.06262499839067459 -0.1625870019197464 -0.029903000220656395
v 0.061751000583171844 -0.1617719978094101 -0.026194000616669655
v 0.056046999990940094 -0.16127599775791168 -0.027506999671459198
v 0.0589740015566349 -0.16244499385356903 -0.02897300012409687
v 0.06045899912714958 -0.16112400591373444 -0.025728000327944756
v 0.05714099854230881 -0.16039900481700897 -0.02638299949467182
v 0.0577859990298748 -0.1602959930896759 -0.026170000433921814
v 0.06333599984645844 -0.16271300613880157 -0.028202999383211136
v 0.0641850009560585 -0.16252200305461884 -0.029572999104857445
v 0.06031699851155281 -0.16181999444961548 -0.03093699924647808
v 0.059537000954151154 -0.16230100393295288 -0.03005100041627884
v 0.06343399733304977 -0.1623309999704361 -0.030820000916719437
v 0.06242400035262108 -0.16193300485610962 -0.03142999857664108
v 0.06215500086545944 -0.16090600192546844 -0.02566399984061718
v 0.06416299939155579 -0.16199499368667603 -0.027274999767541885
v 0.05288900062441826 -0.16014300286769867 -0.025950999930500984
v 0.05539900064468384 -0.1604440063238144 -0.026590999215841293
v 0.048893000930547714 -0.1598220020532608 -0.030861999839544296
v 0.056644998490810394 -0.1617179960012436 -0.02950499951839447
v 0.05940999835729599 -0.1597840040922165 -0.024979999288916588
v 0.05812299996614456 -0.1594109982252121 -0.024991000071167946
v 0.05751200020313263 -0.15932400524616241 -0.025102000683546066
v 0.057812999933958054 -0.1596670001745224 -0.025376999750733376
v 0.05591699853539467 -0.1598310023546219 -0.026272999122738838
v 0.05692699924111366 -0.15987800061702728 -0.02647699974477291
v 0.05772700160741806 -0.1596660017967224 -0.02653999999165535
v 0.06473000347614288 -0.16233199834823608 -0.028769999742507935
v 0.06419400125741959 -0.1622689962387085 -0.03047100082039833
v 0.06445900350809097 -0.16185200214385986 -0.02921699918806553
v 0.05806000158190727 -0.16051000356674194 -0.03138099983334541
v 0.061524998396635056 -0.16112199425697327 -0.03221900016069412
v 0.058681998401880264 -0.16058200597763062 -0.03217700123786926
v 0.056682001799345016 -0.16043299436569214 -0.03130299970507622
v 0.05726400017738342 -0.1605830043554306 -0.03125400096178055
v 0.05513099953532219 -0.1607310026884079 -0.030866000801324844
v 0.06289199739694595 -0.1618189960718155 -0.031599000096321106
v 0.06327000260353088 -0.16142700612545013 -0.03089199960231781
v 0.06266800314188004 -0.16059599816799164 -0.02627200074493885
v 0.06308399885892868 -0.16072100400924683 -0.028432000428438187
v 0.05356600135564804 -0.15991100668907166 -0.025797000154852867
v 0.05097699910402298 -0.15955600142478943 -0.024430999532341957
v 0.050276998430490494 -0.15998099744319916 -0.02536799944937229
v 0.05335500091314316 -0.15891000628471375 -0.025270000100135803
v 0.05091499909758568 -0.15999799966812134 -0.03133099898695946
v 0.04708800092339516 -0.16008399426937103 -0.03007199987769127
v 0.04930099844932556 -0.15964500606060028 -0.03169599920511246
v 0.04846600070595741 -0.16017000377178192 -0.024385999888181686
v 0.058208998292684555 -0.15898899734020233 -0.02539299987256527
v 0.05816899985074997 -0.15949100255966187 -0.027155999094247818
v 0.0570949986577034 -0.1596290022134781 -0.02689399942755699
v 0.05602499842643738 -0.15925900638103485 -0.027052000164985657
v 0.055073998868465424 -0.158827006816864 -0.02672000043094158
v 0.057659998536109924 -0.16012699902057648 -0.031996000558137894
v 0.059431999921798706 -0.16033299267292023 -0.03256300091743469
v 0.05952399969100952 -0.1597999930381775 -0.03235600143671036
v 0.059866998344659805 -0.15968500077724457 -0.029121000319719315
v 0.056908998638391495 -0.1598850041627884 -0.03099299967288971
v 0.05764399841427803 -0.1599379926919937 -0.03135000169277191
v 0.05628800019621849 -0.16003799438476562 -0.03119800053536892
v 0.05564400181174278 -0.16022300720214844 -0.031116999685764313
v 0.053752001374959946 -0.15965600311756134 -0.0314130000770092
v 0.0516199991106987 -0.15827499330043793 -0.023730000481009483
v 0.04884599894285202 -0.15990999341011047 -0.02338399924337864
v 0.04956100136041641 -0.1589210033416748 -0.022314999252557755
v 0.04913400113582611 -0.15942500531673431 -0.022691000252962112
v 0.05289600044488907 -0.1581919938325882 -0.025064000859856606
v 0.05350600183010101 -0.15799100697040558 -0.02597000077366829
v 0.051681999117136 -0.15859100222587585 -0.032356999814510345
v 0.04999599978327751 -0.15904900431632996 -0.03271599858999252
v 0.046943001449108124 -0.1595280021429062 -0.03187299892306328
v 0.04593300074338913 -0.1598930060863495 -0.030274000018835068
v 0.04603800177574158 -0.15986500680446625 -0.02695400081574917
v 0.04770499840378761 -0.15994399785995483 -0.02437100000679493
v 0.057565998286008835 -0.15943999588489532 -0.02893799915909767
v 0.055723000317811966 -0.15892399847507477 -0.029557999223470688
v 0.05391300097107887 -0.157927006483078 -0.03024899959564209
v 0.05020799860358238 -0.15531599521636963 -0.02660300023853779
v 0.05804000049829483 -0.1598999947309494 -0.032620999962091446
v 0.05809900164604187 -0.15941399335861206 -0.032294999808073044
v 0.05720899999141693 -0.15970100462436676 -0.03242599964141846
v 0.058809999376535416 -0.15982399880886078 -0.032604001462459564
v 0.05803700163960457 -0.15973199903964996 -0.0310210008174181
v 0.05572900176048279 -0.1595579981803894 -0.030858999118208885
v 0.05479099974036217 -0.15903900563716888 -0.030995000153779984
v 0.05153400078415871 -0.15737399458885193 -0.0328029990196228
v 0.05052600055932999 -0.15765799582004547 -0.02245599962770939
v 0.05153999850153923 -0.15706400573253632 -0.023667000234127045
v 0.048340000212192535 -0.15964899957180023 -0.02333500050008297
v 0.04980500042438507 -0.15740300714969635 -0.022221999242901802
v 0.048836998641490936 -0.15772099792957306 -0.02255300059914589
v 0.04799500107765198 -0.1593330055475235 -0.023587999865412712
v 0.049125999212265015 -0.15790300071239471 -0.034008000046014786
v 0.047919001430273056 -0.15886500477790833 -0.03339000046253204
v 0.047463998198509216 -0.15842700004577637 -0.028324000537395477
v 0.048987001180648804 -0.1562660038471222 -0.02974499948322773
v 0.04812299832701683 -0.1576160043478012 -0.028291000053286552
v 0.04818800091743469 -0.1576170027256012 -0.0328500010073185
v 0.04828000068664551 -0.1582310050725937 -0.025144999846816063
v 0.05066100135445595 -0.15548300743103027 -0.03294700011610985
v 0.05087599903345108 -0.15528300404548645 -0.032207001000642776
v 0.048719000071287155 -0.15491299331188202 -0.029205000028014183
v 0.04904799908399582 -0.1553869992494583 -0.02482599951326847
v 0.05037999898195267 -0.1561100035905838 -0.023832999169826508
v 0.0503540001809597 -0.15581999719142914 -0.03350700065493584
v 0.05105099827051163 -0.1568470001220703 -0.023228000849485397
v 0.04992299899458885 -0.1563819944858551 -0.023034999147057533
v 0.048799000680446625 -0.15705400705337524 -0.022718999534845352
v 0.048489999026060104 -0.1576099991798401 -0.023933999240398407
v 0.048399001359939575 -0.15645000338554382 -0.03382699936628342
v 0.048266999423503876 -0.1575309932231903 -0.03389900177717209
v 0.04870200157165527 -0.1559399962425232 -0.03368400037288666
v 0.048478998243808746 -0.15708300471305847 -0.02833399921655655
v 0.048367999494075775 -0.1554969996213913 -0.0322519987821579
v 0.04879099875688553 -0.15659099817276 -0.028656000271439552
v 0.04862099885940552 -0.1559309959411621 -0.028263000771403313
v 0.048902999609708786 -0.1563660055398941 -0.027285000309348106
v 0.04882099851965904 -0.15665499866008759 -0.027883000671863556
v 0.05009699985384941 -0.15530699491500854 -0.032947998493909836
v 0.04930099844932556 -0.15489600598812103 -0.03215700015425682
v 0.04838399961590767 -0.15529200434684753 -0.02709599956870079
v 0.04977500066161156 -0.15590499341487885 -0.023725999519228935
v 0.048409998416900635 -0.1560090035200119 -0.023879000917077065
v 0.04825099930167198 -0.1555429995059967 -0.025508999824523926
v 0.04913900047540665 -0.15549300611019135 -0.03339099884033203
f 1 2 3
f 4 5 1
f 1 3 6
f 4 1 7
f 8 7 1
f 5 2 1
f 8 1 6
f 3 2 9
f 2 10 9
f 11 2 12
f 2 5 12
f 10 2 13
f 11 14 2
f 14 13 2
f 6 3 15
f 16 3 9
f 15 3 16
f 17 4 18
f 19 4 17
f 7 18 4
f 20 5 4
f 19 20 4
f 5 20 12
f 6 15 21
f 22 23 6
f 23 24 6
f 6 21 22
f 6 24 8
f 18 7 25
f 7 26 25
f 26 7 8
f 8 27 26
f 8 24 27
f 9 28 16
f 10 28 9
f 10 13 29
f 10 29 30
f 28 10 30
f 11 12 31
f 32 14 11
f 33 32 11
f 31 33 11
f 34 35 12
f 20 36 12
f 12 36 34
f 31 12 35
f 14 37 13
f 13 37 38
f 13 38 29
f 32 37 14
f 15 39 21
f 39 15 16
f 16 28 30
f 16 40 39
f 30 40 16
f 18 41 17
f 41 42 17
f 43 17 42
f 17 43 19
f 25 44 18
f 41 18 44
f 45 20 19
f 19 46 47
f 47 45 19
f 48 46 19
f 48 19 43
f 36 20 45
f 21 49 22
f 49 21 39
f 22 49 23
f 23 49 24
f 50 24 49
f 27 24 50
f 26 51 25
f 52 25 51
f 52 53 25
f 53 44 25
f 27 51 26
f 27 50 51
f 38 30 29
f 40 30 38
f 31 54 33
f 31 35 54
f 55 32 33
f 37 32 40
f 32 55 56
f 56 57 32
f 32 57 40
f 33 54 55
f 34 58 59
f 34 59 35
f 58 34 60
f 34 36 61
f 60 34 61
f 54 35 59
f 45 62 36
f 62 61 36
f 40 38 37
f 57 39 40
f 49 39 57
f 63 42 41
f 44 63 41
f 48 43 42
f 64 48 42
f 65 66 42
f 66 64 42
f 65 42 63
f 67 44 68
f 63 44 67
f 68 44 53
f 69 62 45
f 70 69 45
f 70 45 47
f 71 47 46
f 46 72 71
f 72 46 73
f 73 46 74
f 46 48 74
f 70 47 71
f 74 48 64
f 49 57 50
f 75 51 50
f 50 57 75
f 51 76 77
f 51 77 52
f 51 75 76
f 77 53 52
f 78 53 77
f 68 53 78
f 54 79 55
f 54 59 80
f 79 54 81
f 81 54 80
f 82 56 55
f 79 82 55
f 56 80 57
f 82 80 56
f 57 83 75
f 57 80 83
f 75 58 84
f 83 59 58
f 75 83 58
f 61 84 58
f 61 58 60
f 59 83 80
f 62 85 61
f 61 85 84
f 62 86 85
f 69 86 62
f 87 65 63
f 88 63 67
f 87 63 88
f 66 89 64
f 74 64 89
f 65 87 90
f 66 65 91
f 91 65 90
f 92 89 66
f 91 92 66
f 88 67 68
f 88 68 78
f 69 70 86
f 93 70 94
f 71 94 70
f 86 70 93
f 72 95 71
f 96 71 97
f 94 71 98
f 96 98 71
f 71 95 97
f 73 95 72
f 92 73 74
f 92 99 73
f 95 73 97
f 73 99 97
f 92 74 89
f 84 76 75
f 77 76 85
f 84 85 76
f 100 77 85
f 77 100 101
f 77 101 78
f 102 78 101
f 78 102 103
f 78 103 104
f 78 104 88
f 79 81 82
f 81 80 82
f 86 105 85
f 105 100 85
f 86 93 105
f 87 88 106
f 106 107 87
f 90 87 107
f 88 104 106
f 90 107 108
f 108 91 90
f 92 91 109
f 91 108 109
f 109 99 92
f 110 93 111
f 94 111 93
f 112 93 110
f 112 105 93
f 111 94 98
f 96 97 113
f 102 114 96
f 115 96 113
f 98 96 114
f 116 102 96
f 96 115 116
f 97 99 117
f 118 97 117
f 97 118 113
f 111 98 110
f 114 110 98
f 117 99 109
f 100 105 119
f 101 100 120
f 100 119 120
f 120 102 101
f 102 120 114
f 121 103 102
f 102 116 121
f 122 104 103
f 123 122 103
f 123 103 124
f 121 124 103
f 106 104 122
f 125 119 105
f 125 105 112
f 107 106 122
f 107 122 123
f 123 108 107
f 123 109 108
f 124 109 123
f 109 124 117
f 125 112 110
f 114 120 110
f 110 120 125
f 118 115 113
f 115 118 116
f 116 117 121
f 117 116 118
f 117 124 121
f 119 125 120
