# Generated by Visualization Toolkit
v 0.04397699981927872 -0.15948599576950073 0.02550099976360798
v 0.04482699930667877 -0.15960800647735596 0.02617100067436695
v 0.04369800165295601 -0.1594270020723343 0.026272999122738838
v 0.04257600009441376 -0.158610001206398 0.02632099948823452
v 0.04463899880647659 -0.15940600633621216 0.024901999160647392
v 0.04254800081253052 -0.15851600468158722 0.02490600012242794
v 0.043473001569509506 -0.15895800292491913 0.02869199961423874
v 0.045207999646663666 -0.15928800404071808 0.024746999144554138
v 0.04415600001811981 -0.15920700132846832 0.028748000040650368
v 0.046925000846385956 -0.15741099417209625 0.02830599993467331
v 0.04708699882030487 -0.15808899700641632 0.025180000811815262
v 0.041345998644828796 -0.1569650024175644 0.028551999479532242
v 0.04084499925374985 -0.15649999678134918 0.026830999180674553
v 0.045857999473810196 -0.1549769937992096 0.02281999960541725
v 0.041641999036073685 -0.15728899836540222 0.024486999958753586
v 0.04055500030517578 -0.15615999698638916 0.02549000084400177
v 0.043818000704050064 -0.15883299708366394 0.030553000047802925
v 0.04275299981236458 -0.1582150012254715 0.029582999646663666
v 0.04655800014734268 -0.1582150012254715 0.0242139995098114
v 0.04550199955701828 -0.15907999873161316 0.030945999547839165
v 0.04698500037193298 -0.1579049974679947 0.03026599995791912
v 0.047022998332977295 -0.15530499815940857 0.028044000267982483
v 0.04773499816656113 -0.15583699941635132 0.030233999714255333
v 0.047547999769449234 -0.15614700317382812 0.02427699975669384
v 0.04745600000023842 -0.15523600578308105 0.025962000712752342
v 0.040098000317811966 -0.1562429964542389 0.02824299968779087
v 0.03309699892997742 -0.15042300522327423 0.029930999502539635
v 0.040929000824689865 -0.1557379961013794 0.030628999695181847
v 0.03965400159358978 -0.15609200298786163 0.026712000370025635
v 0.04689899832010269 -0.15698100626468658 0.023574000224471092
v 0.0464170016348362 -0.1555429995059967 0.02297000028192997
v 0.0435510016977787 -0.15411999821662903 0.02275400049984455
v 0.044367000460624695 -0.15422199666500092 0.022711999714374542
v 0.041579000651836395 -0.15597300231456757 0.023816000670194626
v 0.04530100151896477 -0.15398399531841278 0.022856999188661575
v 0.04597799852490425 -0.15442200005054474 0.023000000044703484
v 0.04079199954867363 -0.1549839973449707 0.024098999798297882
v 0.03956599906086922 -0.15569999814033508 0.02565000019967556
v 0.0445609986782074 -0.1587740033864975 0.03202600032091141
v 0.04184199869632721 -0.15609599649906158 0.031863998621702194
v 0.045448001474142075 -0.15877099335193634 0.03216199949383736
v 0.04673999920487404 -0.15768000483512878 0.03241800144314766
v 0.04542800039052963 -0.15362100303173065 0.027814999222755432
v 0.04712799936532974 -0.15416200459003448 0.03008200041949749
v 0.047272998839616776 -0.15512500703334808 0.03248399868607521
v 0.04741699993610382 -0.15599800646305084 0.03249400109052658
v 0.046925000846385956 -0.15431199967861176 0.03245300054550171
v 0.0470069982111454 -0.15474200248718262 0.02365100011229515
v 0.03611600026488304 -0.1533149927854538 0.026870999485254288
v 0.04076800122857094 -0.1550700068473816 0.03128400072455406
v 0.03520600125193596 -0.15249399840831757 0.026247000321745872
v 0.03063799999654293 -0.14851300418376923 0.02974499948322773
v 0.03412900120019913 -0.14960399270057678 0.031036999076604843
v 0.029696999117732048 -0.14634500443935394 0.03150400146842003
v 0.03920400142669678 -0.15358999371528625 0.03140300139784813
v 0.04125300049781799 -0.1551620066165924 0.03157300129532814
v 0.0453450009226799 -0.15346600115299225 0.02315099909901619
v 0.04299100115895271 -0.15313899517059326 0.023729000240564346
v 0.04022800177335739 -0.15303799510002136 0.024135999381542206
v 0.03922300040721893 -0.1541139930486679 0.024351999163627625
v 0.04163099825382233 -0.15376700460910797 0.024369999766349792
v 0.04533199965953827 -0.15827199816703796 0.03244499862194061
v 0.04284600168466568 -0.15632900595664978 0.032308999449014664
v 0.041861001402139664 -0.15460899472236633 0.03223799914121628
v 0.046250998973846436 -0.15707099437713623 0.03284800052642822
v 0.046828001737594604 -0.1558379977941513 0.033048998564481735
v 0.04509799927473068 -0.15309500694274902 0.03013399988412857
v 0.041978999972343445 -0.1531209945678711 0.025815000757575035
v 0.0450269989669323 -0.15328699350357056 0.032253000885248184
v 0.046268999576568604 -0.15460899472236633 0.03308599814772606
v 0.04495999962091446 -0.15396499633789062 0.03293599933385849
v 0.04073299840092659 -0.1546649932861328 0.031676001846790314
v 0.036295000463724136 -0.15124599635601044 0.023634999990463257
v 0.034327998757362366 -0.14903900027275085 0.022623000666499138
v 0.031122999265789986 -0.14824900031089783 0.02322399988770485
v 0.022450000047683716 -0.14448800683021545 0.0251499991863966
v 0.024090999737381935 -0.14498299360275269 0.029802000150084496
v 0.024504000321030617 -0.1437010020017624 0.030980000272393227
v 0.026698000729084015 -0.1433819979429245 0.032451000064611435
v 0.036942001432180405 -0.149850994348526 0.031153999269008636
v 0.03925500065088272 -0.15176500380039215 0.031300999224185944
v 0.031091000884771347 -0.1451530009508133 0.0319410003721714
v 0.028999000787734985 -0.14358900487422943 0.03252600133419037
v 0.041016001254320145 -0.1537729948759079 0.03162100166082382
v 0.040132999420166016 -0.1523970067501068 0.03116299957036972
v 0.03945299983024597 -0.1523980051279068 0.024178000167012215
v 0.038072001188993454 -0.1516689956188202 0.02367500029504299
v 0.042833998799324036 -0.15502099692821503 0.03263700008392334
v 0.043956998735666275 -0.15316399931907654 0.03214100003242493
v 0.04129000008106232 -0.1530819982290268 0.03117400035262108
v 0.0418890006840229 -0.15281899273395538 0.029758000746369362
v 0.03966600075364113 -0.15169300138950348 0.026333000510931015
v 0.040490999817848206 -0.1521580070257187 0.02841399982571602
v 0.037516999989748 -0.15082399547100067 0.023252999410033226
v 0.03502599895000458 -0.14877599477767944 0.022415999323129654
v 0.025949999690055847 -0.14570799469947815 0.02224699966609478
v 0.02643200010061264 -0.14464999735355377 0.020692000165581703
v 0.02789900079369545 -0.14371299743652344 0.019763000309467316
v 0.03069699928164482 -0.14503799378871918 0.020555000752210617
v 0.023096000775694847 -0.14458200335502625 0.02371699921786785
v 0.022260000929236412 -0.14427399635314941 0.026531999930739403
v 0.0217250008136034 -0.14366500079631805 0.02528100088238716
v 0.022763000801205635 -0.14383700489997864 0.029493000358343124
v 0.023190999403595924 -0.1434130072593689 0.030282000079751015
v 0.023287000134587288 -0.14253899455070496 0.03064900077879429
v 0.025265999138355255 -0.1417820006608963 0.03234900161623955
v 0.02284199930727482 -0.14299200475215912 0.030042000114917755
v 0.031605999916791916 -0.14469599723815918 0.03167999908328056
v 0.03539099916815758 -0.1474830061197281 0.02775599993765354
v 0.025885000824928284 -0.14036500453948975 0.031895000487565994
v 0.028901999816298485 -0.1409049928188324 0.032010000199079514
v 0.03838000074028969 -0.15102000534534454 0.024020999670028687
v 0.03549300134181976 -0.14844000339508057 0.022523000836372375
v 0.024848999455571175 -0.1433189958333969 0.020702000707387924
v 0.024105999618768692 -0.14456500113010406 0.022425999864935875
v 0.02659899927675724 -0.1416579931974411 0.01913600042462349
v 0.027828000485897064 -0.14193899929523468 0.01912900060415268
v 0.02871299907565117 -0.14143900573253632 0.019176999107003212
v 0.03223700076341629 -0.14451399445533752 0.021827999502420425
v 0.031036999076604843 -0.1435759961605072 0.020793000236153603
v 0.022307999432086945 -0.14377999305725098 0.02384999953210354
v 0.022290000692009926 -0.14312699437141418 0.029224999248981476
v 0.02168099954724312 -0.1433670073747635 0.02643899992108345
v 0.022245999425649643 -0.14309200644493103 0.02624800056219101
v 0.022871999070048332 -0.14341099560260773 0.024109000340104103
v 0.025495000183582306 -0.1409900039434433 0.03192000091075897
v 0.02356399968266487 -0.142426997423172 0.03022100031375885
v 0.031018000096082687 -0.1430249959230423 0.031098999083042145
v 0.032010000199079514 -0.14376400411128998 0.025564000010490417
v 0.026673000305891037 -0.13906200230121613 0.031036000698804855
v 0.027201000601053238 -0.14009100198745728 0.02895599976181984
v 0.029928000643849373 -0.14020100235939026 0.030709000304341316
v 0.02317900024354458 -0.14372099936008453 0.022799000144004822
v 0.024764999747276306 -0.14291299879550934 0.021105000749230385
v 0.023956000804901123 -0.14330899715423584 0.02195899933576584
v 0.02752400003373623 -0.14126700162887573 0.019029000774025917
v 0.02723100036382675 -0.14081600308418274 0.01951500028371811
v 0.025141000747680664 -0.1427440047264099 0.02153399959206581
v 0.027101999148726463 -0.14054100215435028 0.019937999546527863
v 0.0257750004529953 -0.142193004488945 0.02258400060236454
v 0.028334999457001686 -0.1409360021352768 0.01930299960076809
v 0.029363999143242836 -0.140066996216774 0.02005700021982193
v 0.03026299923658371 -0.1415330022573471 0.01988000050187111
v 0.03167499974370003 -0.14348599314689636 0.02191999927163124
v 0.030486999079585075 -0.1410199999809265 0.020748000591993332
v 0.02432899922132492 -0.1429940015077591 0.022362999618053436
v 0.0224629994481802 -0.14285600185394287 0.02818799950182438
v 0.023142000660300255 -0.14268900454044342 0.028721999377012253
v 0.023934999480843544 -0.14339900016784668 0.024226000532507896
v 0.025608999654650688 -0.14289499819278717 0.02672399953007698
v 0.02698500081896782 -0.14145199954509735 0.027055999264121056
v 0.02813900075852871 -0.1379680037498474 0.025805000215768814
v 0.03064800053834915 -0.14056499302387238 0.02158699929714203
v 0.02979299984872341 -0.13921299576759338 0.021726999431848526
v 0.0275030005723238 -0.13839200139045715 0.02994300052523613
v 0.027348000556230545 -0.13887600600719452 0.030054999515414238
v 0.027341000735759735 -0.13884299993515015 0.029211999848484993
v 0.027685999870300293 -0.13994400203227997 0.027790000662207603
v 0.027786999940872192 -0.1391340047121048 0.0205329991877079
v 0.027638999745249748 -0.13961000740528107 0.021418999880552292
v 0.025357000529766083 -0.14288300275802612 0.025558000430464745
v 0.026757000014185905 -0.1418839991092682 0.025218000635504723
v 0.027695000171661377 -0.14073899388313293 0.0248429998755455
v 0.0279959999024868 -0.14017100632190704 0.024095000699162483
v 0.0282639991492033 -0.138824000954628 0.021097000688314438
v 0.026669999584555626 -0.14201100170612335 0.026133999228477478
v 0.02637599967420101 -0.14186599850654602 0.025634000077843666
v 0.026936000213027 -0.1412470042705536 0.0257399994879961
v 0.027525000274181366 -0.1407189965248108 0.026151999831199646
v 0.02842400036752224 -0.13818499445915222 0.022272000089287758
v 0.027410000562667847 -0.1386220008134842 0.028317000716924667
v 0.027567999437451363 -0.13983400166034698 0.025671999901533127
v 0.027852000668644905 -0.140051007270813 0.02493000030517578
v 0.027274999767541885 -0.14044499397277832 0.025631999596953392
f 1 2 3
f 3 4 1
f 2 1 5
f 6 5 1
f 4 6 1
f 7 3 2
f 2 5 8
f 2 9 7
f 2 10 9
f 2 11 10
f 2 8 11
f 7 4 3
f 7 12 4
f 12 13 4
f 4 13 6
f 14 8 5
f 5 6 14
f 6 15 14
f 6 16 15
f 13 16 6
f 7 9 17
f 18 12 7
f 7 17 18
f 14 19 8
f 8 19 11
f 20 17 9
f 21 9 10
f 20 9 21
f 22 10 11
f 22 23 10
f 10 23 21
f 11 19 24
f 25 11 24
f 22 11 25
f 13 12 26
f 27 26 12
f 27 12 28
f 18 28 12
f 16 13 29
f 29 13 26
f 14 30 19
f 14 31 30
f 14 32 33
f 14 34 32
f 14 15 34
f 35 14 33
f 36 31 14
f 35 36 14
f 34 15 37
f 37 15 16
f 37 16 38
f 29 38 16
f 17 20 39
f 18 17 39
f 18 39 40
f 18 40 28
f 19 30 24
f 20 41 39
f 42 20 21
f 42 41 20
f 42 21 23
f 22 25 43
f 22 44 23
f 43 44 22
f 23 45 46
f 47 23 44
f 47 45 23
f 42 23 46
f 25 24 48
f 30 48 24
f 48 43 25
f 26 49 29
f 49 26 27
f 28 50 27
f 27 51 49
f 51 27 52
f 27 53 54
f 52 27 54
f 27 55 53
f 27 50 55
f 56 50 28
f 56 28 40
f 29 49 38
f 30 31 48
f 36 48 31
f 32 35 33
f 57 35 32
f 32 37 58
f 37 32 34
f 58 57 32
f 57 36 35
f 57 48 36
f 59 37 60
f 38 60 37
f 61 37 59
f 61 58 37
f 60 38 49
f 39 41 62
f 40 39 62
f 40 63 64
f 40 62 63
f 56 40 64
f 42 65 41
f 62 41 65
f 42 46 66
f 65 42 66
f 67 43 68
f 44 43 67
f 43 58 68
f 43 48 57
f 43 57 58
f 69 44 67
f 47 44 69
f 45 66 46
f 45 47 70
f 66 45 70
f 47 71 70
f 71 47 69
f 60 49 51
f 50 72 55
f 64 72 50
f 56 64 50
f 73 60 51
f 74 73 51
f 74 51 75
f 75 51 52
f 76 52 77
f 76 75 52
f 52 78 77
f 78 52 79
f 79 52 54
f 80 54 53
f 53 81 80
f 53 55 81
f 54 80 82
f 83 79 54
f 82 83 54
f 72 84 55
f 55 84 85
f 55 85 81
f 68 58 61
f 86 68 59
f 59 68 61
f 60 86 59
f 87 60 73
f 60 87 86
f 62 65 63
f 88 64 63
f 63 65 66
f 63 66 70
f 71 63 70
f 63 71 88
f 64 88 71
f 64 71 89
f 72 64 84
f 64 89 90
f 84 64 90
f 68 91 67
f 90 67 91
f 67 89 69
f 67 90 89
f 68 86 92
f 68 93 91
f 92 93 68
f 71 69 89
f 73 94 87
f 94 73 74
f 74 95 94
f 75 96 74
f 97 98 74
f 98 99 74
f 99 95 74
f 96 97 74
f 75 100 96
f 75 76 100
f 101 76 77
f 102 76 101
f 100 76 102
f 101 77 103
f 104 77 78
f 104 103 77
f 105 78 106
f 78 105 107
f 104 78 107
f 78 79 106
f 83 106 79
f 82 80 108
f 80 93 109
f 93 80 81
f 80 109 108
f 93 81 85
f 83 82 108
f 106 83 110
f 83 108 111
f 83 111 110
f 84 90 85
f 93 85 91
f 91 85 90
f 86 112 92
f 86 87 112
f 94 112 87
f 92 112 109
f 93 92 109
f 94 113 112
f 94 95 113
f 95 99 113
f 114 96 115
f 97 96 114
f 96 100 115
f 97 114 98
f 98 116 117
f 116 98 114
f 117 118 98
f 98 118 99
f 119 99 120
f 120 99 118
f 119 113 99
f 102 121 100
f 100 121 115
f 101 103 122
f 122 123 101
f 101 123 102
f 102 123 124
f 124 125 102
f 125 121 102
f 122 103 104
f 104 107 122
f 106 126 105
f 107 105 127
f 127 105 126
f 110 126 106
f 122 107 127
f 108 109 128
f 108 128 111
f 109 129 128
f 119 129 109
f 109 112 119
f 110 111 130
f 126 110 131
f 110 130 131
f 132 111 128
f 111 132 130
f 113 119 112
f 115 133 114
f 114 134 116
f 114 133 135
f 114 135 134
f 121 133 115
f 117 116 136
f 137 136 116
f 134 138 116
f 137 116 139
f 116 140 139
f 116 138 140
f 141 118 117
f 117 136 141
f 118 142 143
f 142 118 141
f 118 143 120
f 144 119 120
f 129 119 144
f 145 144 120
f 145 120 143
f 146 133 121
f 125 146 121
f 123 122 147
f 127 148 122
f 147 122 148
f 147 124 123
f 148 124 147
f 124 149 125
f 150 149 124
f 150 124 148
f 125 149 146
f 127 126 150
f 126 151 150
f 126 131 151
f 150 148 127
f 132 128 129
f 129 152 132
f 129 144 153
f 129 154 152
f 154 129 153
f 155 130 132
f 156 130 155
f 131 130 156
f 131 156 157
f 157 158 131
f 131 158 151
f 152 155 132
f 146 135 133
f 138 134 135
f 146 138 135
f 159 141 136
f 137 159 136
f 137 139 159
f 140 138 146
f 159 139 160
f 140 160 139
f 161 140 146
f 161 162 140
f 140 163 164
f 140 164 160
f 140 162 163
f 159 142 141
f 154 143 142
f 154 142 165
f 142 159 165
f 154 145 143
f 145 153 144
f 145 154 153
f 161 146 149
f 161 149 150
f 150 166 167
f 166 150 151
f 167 161 150
f 168 151 169
f 158 169 151
f 168 166 151
f 152 154 170
f 152 170 171
f 171 155 152
f 154 165 170
f 157 155 171
f 155 157 156
f 158 157 171
f 171 172 158
f 169 158 172
f 160 165 159
f 170 165 160
f 170 160 164
f 161 167 162
f 168 162 167
f 162 168 163
f 163 173 164
f 168 174 163
f 173 163 174
f 173 170 164
f 168 167 166
f 168 169 174
f 169 172 174
f 171 170 172
f 170 173 172
f 174 172 173
