# Generated by Visualization Toolkit
v -0.009491000324487686 -0.009290000423789024 -0.008409000001847744
v -0.01003200002014637 -0.01143999956548214 -0.017199000343680382
v -0.0076790000312030315 -0.01488799974322319 -0.012198000214993954
v -0.006256000138819218 -0.014409000054001808 -0.008465000428259373
v -0.010304000228643417 -0.006041999906301498 -0.008476000279188156
v -0.005646999925374985 -0.01119299978017807 -0.0073379999957978725
v -0.0062489998526871204 -0.009197000414133072 -0.006477000191807747
v -0.007792000193148851 -0.00673400005325675 -0.006118000019341707
v -0.009208999574184418 -0.012773999944329262 -0.01899000070989132
v -0.009607999585568905 -0.0032190000638365746 -0.008522000163793564
v -0.00902200024574995 -0.004904000088572502 -0.014871000312268734
v -0.008558999747037888 -0.010603000409901142 -0.019509999081492424
v -0.004358000122010708 -0.016986999660730362 -0.010230000130832195
v -0.007631000131368637 -0.015033000148832798 -0.017904000356793404
v -0.005570000037550926 -0.01690099947154522 -0.012706000357866287
v -0.004585000220686197 -0.017121000215411186 -0.011246000416576862
v -0.004005999770015478 -0.01535400003194809 -0.008170000277459621
v -0.0034129999112337828 -0.01629200018942356 -0.008565000258386135
v -0.007675000000745058 -0.001981999957934022 -0.00304200011305511
v -0.0074269999749958515 -0.005553999915719032 -0.0031759999692440033
v -0.007926000282168388 -0.004350999835878611 -0.002873999997973442
v -0.0016659999964758754 -0.01382800005376339 -0.00955200009047985
v -0.00006500000017695129 -0.005867000203579664 -0.012949000112712383
v -0.006053000222891569 -0.007829000242054462 -0.005423999857157469
v -0.005677000153809786 -0.006548999808728695 -0.0031349998898804188
v -0.004718000069260597 -0.01421399973332882 -0.02161400020122528
v -0.005206000059843063 -0.015742000192403793 -0.019711999222636223
v -0.005404000170528889 0.00003899999865097925 -0.012474999763071537
v -0.007501999847590923 0.000058000001445179805 -0.006207999773323536
v -0.00685499981045723 0.000610999995842576 -0.00418000016361475
v -0.005270000081509352 -0.010847000405192375 -0.02130799926817417
v -0.0008829999715089798 0.0008009999874047935 -0.013187999837100506
v -0.004430999979376793 -0.010212000459432602 -0.020754000172019005
v -0.003306000027805567 -0.004761999938637018 -0.01623000018298626
v -0.0046640001237392426 -0.012864000163972378 -0.021758999675512314
v -0.0032949999440461397 -0.01759300008416176 -0.012943999841809273
v -0.00215000007301569 -0.017488999292254448 -0.011006000451743603
v -0.00145800004247576 -0.0164560005068779 -0.009368999861180782
v -0.004656999837607145 -0.017254000529646873 -0.01423100009560585
v -0.004604000132530928 -0.0008169999928213656 0.0008069999748840928
v -0.00381799996830523 0.0017470000311732292 -0.0007929999846965075
v -0.004188000224530697 -0.003894000081345439 0.000610999995842576
v -0.004778999835252762 -0.006339999847114086 -0.0013099999632686377
v 0.00003899999865097925 -0.015469999983906746 -0.010812000371515751
v -0.00015199999324977398 -0.012892000377178192 -0.012256000190973282
v -0.0008379999781027436 -0.007877999916672707 -0.01590700075030327
v 0.0010509999701753259 -0.0013200000394135714 -0.010576000437140465
v 0.00009999999747378752 -0.015190999954938889 -0.013798999600112438
v -0.003845999948680401 -0.005330000072717667 -0.0048870001919567585
v -0.0033839999232441187 -0.014449000358581543 -0.02063100039958954
v -0.0041809999383986 -0.01244099996984005 -0.021803999319672585
v -0.003759999992325902 -0.013172999955713749 -0.021654000505805016
v -0.003487000009045005 -0.017108000814914703 -0.014411999844014645
v -0.004120000172406435 0.003263999940827489 -0.006936999969184399
v 0.001044000033289194 0.0036539998836815357 -0.0087890001013875
v -0.0008839999791234732 0.004358000122010708 -0.007096999790519476
v -0.0022529999259859324 0.004019000101834536 -0.005104999989271164
v -0.004592000041157007 -0.01152000017464161 -0.02171500027179718
v -0.00045900000259280205 -0.0014680000022053719 -0.013818999752402306
v -0.0022090000566095114 -0.006868999917060137 -0.017263000831007957
v -0.003169999923557043 -0.011630999855697155 -0.020975999534130096
v -0.0008580000139772892 -0.016548000276088715 -0.01243900042027235
v -0.0026400000788271427 -0.002191999927163124 0.001303000026382506
v -0.001943000010214746 0.00042600001324899495 0.0014609999489039183
v -0.0007570000016130507 0.002340999897569418 0.0003020000003743917
v -0.00024199999461416155 0.0041809999383986 -0.0038819999899715185
v -0.0032399999909102917 -0.005748999770730734 -0.0007409999961964786
v -0.0015920000150799751 -0.012171999551355839 -0.019068999215960503
v 0.0026519999373704195 0.0004239999980200082 -0.006136999931186438
v 0.0020039998926222324 0.003845999948680401 -0.0062489998526871204
v 0.0019490000559017062 0.0004490000137593597 -0.002623999956995249
v -0.000039999998989515007 0.003240999998524785 -0.0015399999683722854
v 0.0019460000330582261 0.0021089999936521053 -0.004869000054895878
f 1 2 3
f 3 4 1
f 5 2 1
f 6 1 4
f 1 6 7
f 7 8 1
f 1 8 5
f 9 3 2
f 2 10 11
f 5 10 2
f 2 11 12
f 12 9 2
f 13 4 3
f 14 15 3
f 14 3 9
f 3 16 13
f 3 15 16
f 4 17 6
f 4 18 17
f 18 4 13
f 5 19 10
f 8 20 5
f 21 5 20
f 5 21 19
f 22 6 17
f 23 7 6
f 23 6 22
f 8 7 24
f 23 24 7
f 25 8 24
f 20 8 25
f 26 27 9
f 9 12 26
f 9 27 14
f 28 11 10
f 29 28 10
f 10 30 29
f 30 10 19
f 12 11 31
f 32 11 28
f 31 11 33
f 34 33 11
f 11 32 34
f 12 35 26
f 12 31 35
f 13 36 37
f 13 16 36
f 38 18 13
f 13 37 38
f 14 39 15
f 39 14 27
f 15 39 16
f 39 36 16
f 22 17 18
f 22 18 38
f 21 40 19
f 19 41 30
f 40 41 19
f 42 20 43
f 43 20 25
f 20 42 21
f 40 21 42
f 44 22 38
f 44 45 22
f 22 45 23
f 46 47 23
f 48 46 23
f 48 23 45
f 24 23 49
f 23 47 49
f 49 25 24
f 49 43 25
f 26 50 27
f 51 52 26
f 35 51 26
f 26 52 50
f 50 53 27
f 39 27 53
f 29 54 28
f 55 32 28
f 55 28 56
f 56 28 54
f 30 54 29
f 57 54 30
f 30 41 57
f 31 58 35
f 33 58 31
f 59 34 32
f 59 32 55
f 34 60 33
f 33 60 61
f 61 58 33
f 34 59 60
f 58 51 35
f 36 62 37
f 39 53 36
f 36 53 62
f 38 37 62
f 38 62 44
f 40 42 63
f 63 64 40
f 40 64 41
f 65 66 41
f 66 57 41
f 41 64 65
f 42 43 67
f 67 63 42
f 49 67 43
f 44 62 48
f 48 45 44
f 46 60 59
f 59 47 46
f 60 46 68
f 68 46 48
f 47 59 55
f 55 69 47
f 47 69 49
f 53 48 62
f 48 53 50
f 50 68 48
f 49 69 67
f 68 50 52
f 52 51 61
f 51 58 61
f 52 61 68
f 57 56 54
f 69 55 70
f 56 70 55
f 56 66 70
f 66 56 57
f 61 60 68
f 71 64 63
f 71 63 67
f 71 65 64
f 65 72 66
f 72 65 71
f 66 72 70
f 71 67 69
f 73 69 70
f 71 69 73
f 73 70 72
f 71 73 72
