# Generated by Visualization Toolkit
v -0.012556999921798706 -0.018862999975681305 -0.03745200112462044
v -0.015468000434339046 -0.01967800036072731 -0.03649500012397766
v -0.014104999601840973 -0.017846999689936638 -0.036090001463890076
v -0.010577999986708164 -0.02126000076532364 -0.039177000522613525
v -0.013035000301897526 -0.02260899916291237 -0.03920599818229675
v -0.012225000187754631 -0.015484999865293503 -0.03516099974513054
v -0.007992000319063663 -0.02009899914264679 -0.03889299929141998
v -0.015891000628471375 -0.019084999337792397 -0.03533799946308136
v -0.014930999837815762 -0.024515999481081963 -0.0388449989259243
v -0.016240999102592468 -0.02137099951505661 -0.036483000963926315
v -0.01351999957114458 -0.014662999659776688 -0.03269999846816063
v -0.008364000357687473 -0.024348000064492226 -0.03799999877810478
v -0.010742000304162502 -0.02798300050199032 -0.03755699843168259
v -0.0055680000223219395 -0.01889299973845482 -0.03825699910521507
v -0.00747800013050437 -0.01294500008225441 -0.03323199972510338
v -0.00937699992209673 -0.012330000288784504 -0.030737999826669693
v -0.005950999911874533 -0.02356800064444542 -0.03714599832892418
v -0.016956999897956848 -0.02088399976491928 -0.03501399978995323
v -0.015603999607264996 -0.016342999413609505 -0.0322749987244606
v -0.016610000282526016 -0.026635000482201576 -0.03834500163793564
v -0.012875000014901161 -0.027493000030517578 -0.03784399852156639
v -0.017180999740958214 -0.02227500081062317 -0.035705000162124634
v -0.01450399961322546 -0.014456000179052353 -0.030855000019073486
v -0.012993999756872654 -0.013144999742507935 -0.02966099977493286
v -0.006597000174224377 -0.027452999725937843 -0.03630099818110466
v -0.011621000245213509 -0.03376000002026558 -0.03320400044322014
v -0.018825000151991844 -0.03693100064992905 -0.03326300159096718
v -0.008038000203669071 -0.02970699965953827 -0.03583599999547005
v -0.014159999787807465 -0.028209000825881958 -0.03787999972701073
v -0.0035639998968690634 -0.02232000045478344 -0.03632400184869766
v -0.0029990000184625387 -0.01758600026369095 -0.03734299913048744
v -0.002133999951183796 -0.01395300030708313 -0.03371800109744072
v -0.0012969999806955457 -0.01118599995970726 -0.030062999576330185
v -0.006227999925613403 -0.011475999839603901 -0.02814899943768978
v -0.0028830000665038824 -0.010766999796032906 -0.026670999825000763
v -0.01100200042128563 -0.012112000025808811 -0.02811400033533573
v -0.008055999875068665 -0.011327999643981457 -0.02537200041115284
v -0.0011050000321120024 -0.024752000346779823 -0.03417399898171425
v -0.017594000324606895 -0.022817999124526978 -0.033865999430418015
v -0.018292000517249107 -0.025318000465631485 -0.03473600000143051
v -0.016912000253796577 -0.02043999917805195 -0.032058000564575195
v -0.015886999666690826 -0.018198000267148018 -0.030257999897003174
v -0.017694000154733658 -0.03177899867296219 -0.03616999834775925
v -0.019511999562382698 -0.03246700018644333 -0.03598799929022789
v -0.019276000559329987 -0.029989000409841537 -0.03712200000882149
v -0.018790999427437782 -0.026866000145673752 -0.0359020009636879
v -0.018492000177502632 -0.0279690008610487 -0.03696800023317337
v -0.019860999658703804 -0.027783000841736794 -0.03376699984073639
v -0.014417000114917755 -0.0159549992531538 -0.028196999803185463
v -0.013984999619424343 -0.017052000388503075 -0.025144999846816063
v -0.009518999606370926 -0.014423999935388565 -0.02150700055062771
v -0.011827999725937843 -0.015576999634504318 -0.02341100014746189
v -0.005758999846875668 -0.02922699972987175 -0.034690000116825104
v -0.014694999903440475 -0.03693800047039986 -0.031137000769376755
v -0.007280000019818544 -0.03143100067973137 -0.03358500078320503
v -0.009336000308394432 -0.034157998859882355 -0.03148699924349785
v -0.025457000359892845 -0.04507799819111824 -0.0293940007686615
v -0.022007999941706657 -0.03822999820113182 -0.033201999962329865
v -0.016902999952435493 -0.03988900035619736 -0.02879999950528145
v -0.018154999241232872 -0.033861998468637466 -0.03520200029015541
v -0.02062300033867359 -0.03522900119423866 -0.03474000096321106
v 0.002486000070348382 -0.019088000059127808 -0.03403099998831749
v 0.0032099999953061342 -0.015037000179290771 -0.03428199887275696
v 0.0008859999943524599 -0.012834000401198864 -0.032030001282691956
v -0.0012799999676644802 -0.01093399990350008 -0.02389400079846382
v 0.0017049999441951513 -0.011633999645709991 -0.025750000029802322
v 0.0130390003323555 -0.01668900065124035 -0.024320999160408974
v -0.004997999873012304 -0.01244799979031086 -0.018882999196648598
v -0.0010140000376850367 -0.01190400030463934 -0.01592399924993515
v 0.0009480000007897615 -0.01067699957638979 -0.01790899969637394
v -0.007360000163316727 -0.012574000284075737 -0.02201000042259693
v 0.001630999962799251 -0.023128999397158623 -0.03325999900698662
v 0.003945999778807163 -0.02466999925673008 -0.03049200028181076
v -0.0006019999855197966 -0.02673500031232834 -0.032363999634981155
v -0.017983999103307724 -0.024303000420331955 -0.03187299892306328
v -0.020221000537276268 -0.028627000749111176 -0.03226500004529953
v -0.017114000394940376 -0.02185700088739395 -0.02977599948644638
v -0.016536999493837357 -0.02112800069153309 -0.025980999693274498
v -0.02180599980056286 -0.0328500010073185 -0.03623000159859657
v -0.020824000239372253 -0.031007999554276466 -0.03590700030326843
v -0.020024999976158142 -0.029194999486207962 -0.035718001425266266
v -0.02115599997341633 -0.03011300042271614 -0.03357899934053421
v -0.022249000146985054 -0.03111400082707405 -0.03047100082039833
v -0.017791999503970146 -0.0219969991594553 -0.019565999507904053
v -0.015946000814437866 -0.020124999806284904 -0.01695599965751171
v -0.01569399982690811 -0.022931000217795372 -0.0009850000496953726
v -0.007269000168889761 -0.017100999131798744 -0.01001300010830164
v -0.014658999629318714 -0.042934998869895935 -0.023632999509572983
v -0.007211000192910433 -0.03385299816727638 -0.02942200005054474
v 0.00016999999934341758 -0.02910500019788742 -0.02821500040590763
v 0.003094000043347478 -0.02901099994778633 -0.02485099993646145
v -0.0001900000061141327 -0.02786399982869625 -0.030626999214291573
v -0.009177000261843204 -0.03654700145125389 -0.02721799910068512
v -0.02699900045990944 -0.05204499885439873 -0.02524000033736229
v -0.028085000813007355 -0.048608001321554184 -0.028094999492168427
v -0.027823999524116516 -0.04401199892163277 -0.03215000033378601
v -0.023163000121712685 -0.04931100085377693 -0.024358000606298447
v -0.02589300088584423 -0.034961000084877014 -0.03720200061798096
v 0.004860999993979931 -0.022043999284505844 -0.03206299990415573
v 0.00570600014179945 -0.018178999423980713 -0.03257700055837631
v 0.0012179999612271786 -0.011040999554097652 -0.02179200015962124
v 0.0034620000515133142 -0.01105900015681982 -0.020078999921679497
v 0.005626999773085117 -0.011157999746501446 -0.018487999215722084
v 0.015665000304579735 -0.012230999767780304 -0.014897000044584274
v 0.011382999829947948 -0.01925400085747242 -0.026920000091195107
v 0.01568100042641163 -0.01689700037240982 -0.022352000698447227
v -0.00494399992749095 -0.01621199958026409 -0.010892000049352646
v -0.00304599991068244 -0.012846999801695347 -0.01600099913775921
v 0.0003760000108741224 -0.012613000348210335 -0.013926000334322453
v 0.005671000108122826 -0.010978000238537788 -0.014445999637246132
v 0.003978000022470951 -0.012183000333607197 -0.01305299997329712
v 0.0016799999866634607 -0.011920999735593796 -0.014767000451683998
v 0.002308000111952424 -0.02657400071620941 -0.029750000685453415
v 0.0039980001747608185 -0.026308000087738037 -0.028589000925421715
v 0.00891099963337183 -0.023749999701976776 -0.028031000867486
v 0.005758999846875668 -0.02609900012612343 -0.02751299925148487
v -0.020930999889969826 -0.028818000108003616 -0.028528999537229538
v -0.017680000513792038 -0.022895000874996185 -0.024258999153971672
v -0.034269001334905624 -0.03898800164461136 -0.03174600005149841
v -0.02442299947142601 -0.03378000110387802 -0.033247001469135284
v -0.02281299978494644 -0.03083699941635132 -0.0256120003759861
v -0.018167000263929367 -0.02209700085222721 -0.01510199997574091
v -0.022684000432491302 -0.02762800082564354 -0.013918999582529068
v -0.019370999187231064 -0.022933000698685646 -0.009631999768316746
v -0.01789800077676773 -0.021966999396681786 -0.007422999944537878
v -0.018852999433875084 -0.022489000111818314 -0.012167000211775303
v -0.017431000247597694 -0.022714000195264816 -0.0038389998953789473
v -0.010623999871313572 -0.020495999604463577 -0.0036349999718368053
v -0.012602999806404114 -0.023941999301314354 -0.00009600000339560211
v -0.01616000011563301 -0.024341000244021416 0.00039999998989515007
v -0.018705999478697777 -0.02499699965119362 0.0010740000288933516
v -0.003261999925598502 -0.022777000442147255 -0.010588999837636948
v -0.0018609999679028988 -0.02163200080394745 -0.011983999982476234
v 0.001538999960757792 -0.01942499913275242 -0.012761999852955341
v -0.0067159999161958694 -0.021188000217080116 -0.007977999746799469
v -0.018254000693559647 -0.04778299853205681 -0.022048000246286392
v -0.012230999767780304 -0.04510800167918205 -0.018644999712705612
v -0.015345999971032143 -0.04742100089788437 -0.019903000444173813
v -0.00876499991863966 -0.037967998534440994 -0.02325199916958809
v -0.004273000173270702 -0.03318699821829796 -0.026180999353528023
v 0.00279600010253489 -0.027767999097704887 -0.02739799953997135
v 0.00035799999022856355 -0.030007999390363693 -0.021399000659585
v 0.007949000224471092 -0.028085999190807343 -0.020674999803304672
v -0.024771999567747116 -0.05577300116419792 -0.021177999675273895
v -0.029350999742746353 -0.05492499843239784 -0.02463899925351143
v -0.029539000242948532 -0.04674899950623512 -0.03082999959588051
v -0.033906999975442886 -0.03624900057911873 -0.048222001641988754
v -0.034563999623060226 -0.03302999958395958 -0.047481998801231384
v -0.03234200179576874 -0.0317550003528595 -0.048330001533031464
v 0.008077000267803669 -0.021146999672055244 -0.030580999329686165
v 0.008457999676465988 -0.011304999701678753 -0.01256099995225668
v 0.01134399976581335 -0.011649000458419323 -0.010684999637305737
v 0.013673000037670135 -0.0118429996073246 -0.012942999601364136
v 0.01795700006186962 -0.014716999605298042 -0.017319999635219574
v 0.01765500009059906 -0.012670000083744526 -0.013996999710798264
v 0.018247000873088837 -0.01246500015258789 -0.009941999800503254
v 0.0123070003464818 -0.021900000050663948 -0.026847999542951584
v 0.014944000169634819 -0.022055000066757202 -0.024368999525904655
v 0.019404999911785126 -0.01996999979019165 -0.020309999585151672
v 0.021240999922156334 -0.01714799925684929 -0.01859400048851967
v 0.020512999966740608 -0.015046999789774418 -0.015611999668180943
v -0.00014600000577047467 -0.014453000389039516 -0.01143299974501133
v 0.007240000180900097 -0.012323999777436256 -0.011479999870061874
v 0.005601000040769577 -0.013592000119388103 -0.009991999715566635
v 0.014065000228583813 -0.023677000775933266 -0.02407900057733059
v 0.009801000356674194 -0.025767000392079353 -0.024921000003814697
v 0.007734000217169523 -0.025884000584483147 -0.026311999186873436
v 0.006978000048547983 -0.027347000315785408 -0.024265000596642494
v -0.023042000830173492 -0.03017299994826317 -0.021035000681877136
v -0.034304000437259674 -0.03971099853515625 -0.022936999797821045
v -0.07503899931907654 -0.04709799960255623 -0.060061000287532806
v -0.027641000226140022 -0.03702300041913986 -0.010305999778211117
v -0.023930000141263008 -0.030729999765753746 -0.0152580002322793
v -0.02333199977874756 -0.02782999910414219 -0.011502999812364578
v -0.022376999258995056 -0.026057999581098557 -0.009544000029563904
v -0.0234570000320673 -0.030395999550819397 -0.01787799969315529
v -0.018835000693798065 -0.02323400042951107 -0.005735999904572964
v -0.022415999323129654 -0.02682100050151348 -0.0035470000002533197
v -0.02164899930357933 -0.02686000056564808 0.0002469999890308827
v -0.00468500005081296 -0.02455800026655197 -0.005185999907553196
v -0.004898999817669392 -0.024934999644756317 -0.003531999886035919
v -0.011560999788343906 -0.023242000490427017 -0.0006079999729990959
v -0.007393999956548214 -0.02357500046491623 -0.0026740001048892736
v -0.0071390001103281975 -0.02190599963068962 -0.006630999967455864
v -0.017481999471783638 -0.025821000337600708 0.0016039999900385737
v -0.015890000388026237 -0.02681799978017807 0.0017089999746531248
v -0.010580999776721 -0.023997999727725983 -0.0005929999751970172
v -0.012279000133275986 -0.02651900053024292 0.00042799999937415123
v -0.011528999544680119 -0.025113999843597412 0.000025999999706982635
v -0.0204050000756979 -0.026712000370025635 0.0023070001043379307
v -0.02094700001180172 -0.026789000257849693 0.0016850000247359276
v -0.004071999806910753 -0.023631999269127846 -0.009247999638319016
v -0.0014619999565184116 -0.02535099908709526 -0.012086000293493271
v -0.002357000019401312 -0.02653699927031994 -0.010689999908208847
v 0.0028899998869746923 -0.023545999079942703 -0.014790999703109264
v -0.00016900000628083944 -0.026551000773906708 -0.013423999771475792
v 0.0015010000206530094 -0.02602900005877018 -0.015281000174582005
v 0.0034920000471174717 -0.02129499986767769 -0.013956000097095966
v 0.0071319998241961 -0.022825999185442924 -0.014600999653339386
v 0.007571999914944172 -0.02076599933207035 -0.01286299992352724
v -0.019221000373363495 -0.06135699898004532 -0.01548099983483553
v -0.016479000449180603 -0.05889099836349487 -0.014166999608278275
v -0.021767999976873398 -0.058862000703811646 -0.018170999363064766
v -0.012821000069379807 -0.049320999532938004 -0.015573999844491482
v -0.012110999785363674 -0.05338900163769722 -0.013256000354886055
v -0.01209499966353178 -0.05721599981188774 -0.011587000451982021
v -0.010003999806940556 -0.046907998621463776 -0.014116000384092331
v -0.00792699959129095 -0.04196900129318237 -0.014915999956429005
v -0.008117999881505966 -0.038805000483989716 -0.018888000398874283
v -0.003527000080794096 -0.03328000009059906 -0.01838099956512451
v -0.004081000108271837 -0.03337299823760986 -0.022678999230265617
v -0.0013170000165700912 -0.03088800050318241 -0.020368000492453575
v 0.0003539999888744205 -0.029076000675559044 -0.018357999622821808
v 0.0021059999708086252 -0.02866699919104576 -0.01961600035429001
v 0.004910000134259462 -0.027796000242233276 -0.018799999728798866
v 0.009115999564528465 -0.027171000838279724 -0.02284199930727482
v 0.014468000270426273 -0.02773899957537651 -0.017006000503897667
v 0.00978699978441 -0.026984000578522682 -0.01765899918973446
v 0.007267000153660774 -0.026975000277161598 -0.01822499930858612
v -0.02889700047671795 -0.08796700090169907 -0.01805100031197071
v -0.05251599848270416 -0.059992000460624695 -0.04469199851155281
v -0.05116499960422516 -0.021529000252485275 -0.07557599991559982
v -0.04037100076675415 -0.026461999863386154 -0.05975300073623657
v -0.03635599836707115 -0.02910899929702282 -0.05404200032353401
v -0.04247799888253212 -0.02658100053668022 -0.060263000428676605
v -0.077844999730587 -0.04267700016498566 -0.07720299810171127
v -0.03841700032353401 -0.027668999508023262 -0.056752000004053116
v -0.03440200164914131 -0.030316000804305077 -0.05104000121355057
v 0.00892999954521656 -0.013640999794006348 -0.008458999916911125
v 0.015699999406933784 -0.01420500036329031 -0.003409000113606453
v 0.014028999954462051 -0.011920000426471233 -0.00901500042527914
v 0.01969500072300434 -0.013101000338792801 -0.012648000381886959
v 0.01640399917960167 -0.012276999652385712 -0.007397000212222338
v 0.018154000863432884 -0.012981000356376171 -0.0057219997979700565
v 0.01978199928998947 -0.013946999795734882 -0.004095999989658594
v 0.021573999896645546 -0.013984999619424343 -0.010979999788105488
v 0.021654000505805016 -0.014328000135719776 -0.0066709998063743114
v 0.02017199993133545 -0.023072000592947006 -0.019574999809265137
v 0.02237600088119507 -0.020665999501943588 -0.017837999388575554
v 0.023388000205159187 -0.015018000267446041 -0.009317999705672264
v 0.023615000769495964 -0.01729400083422661 -0.01680699922144413
v 0.010134999640285969 -0.01754700019955635 -0.009589999914169312
v 0.01603499986231327 -0.024953000247478485 -0.020976999774575233
v 0.015526999719440937 -0.026412999257445335 -0.01912900060415268
v -0.042142000049352646 -0.03466099873185158 -0.01579499989748001
v -0.07028999924659729 -0.04391400143504143 -0.045244000852108
v -0.030278999358415604 -0.03802099823951721 -0.01344399992376566
v -0.08399300277233124 -0.04976300150156021 -0.059459999203681946
v -0.08504299819469452 -0.051297999918460846 -0.06360799819231033
v -0.029611999168992043 -0.037831999361515045 -0.01055699959397316
v -0.03034299984574318 -0.040605999529361725 -0.006037999875843525
v -0.02322000078856945 -0.027084000408649445 -0.007385999895632267
v -0.027963999658823013 -0.03832099959254265 -0.004914000164717436
v -0.025937000289559364 -0.031099999323487282 -0.000661000027321279
v -0.02440500073134899 -0.030182000249624252 0.00076299998909235
v -0.00456500006839633 -0.024197999387979507 -0.006521999835968018
v -0.0028280001133680344 -0.026758000254631042 -0.008748999796807766
v -0.004108000081032515 -0.02769399993121624 -0.0029750000685453415
v -0.006562000140547752 -0.025143999606370926 -0.0021810000762343407
v -0.0033599999733269215 -0.027528999373316765 -0.003664999967440963
v -0.008941000327467918 -0.023800000548362732 -0.0015460000140592456
v -0.004428999964147806 -0.024001000449061394 -0.007722000125795603
v -0.020921999588608742 -0.030066000297665596 0.00380200007930398
v -0.009934999980032444 -0.02787500061094761 -0.00032699998700991273
v -0.017340999096632004 -0.028588000684976578 0.0025229998864233494
v -0.022306999191641808 -0.029242999851703644 0.003621000098064542
v -0.0014250000240281224 -0.030143000185489655 -0.012323999777436256
v -0.0016599999507889152 -0.02994599938392639 -0.009685000404715538
v 0.003602999961003661 -0.024995999410748482 -0.01560600008815527
v 0.005104000214487314 -0.022972000762820244 -0.015134000219404697
v 0.006240000016987324 -0.025769999250769615 -0.016707999631762505
v 0.00021800000104121864 -0.028387999162077904 -0.014924000017344952
v 0.001996000064536929 -0.027455000206828117 -0.016923999413847923
v 0.004234000109136105 -0.02647400088608265 -0.016826000064611435
v 0.0091540003195405 -0.022877000272274017 -0.013818999752402306
v 0.010015999898314476 -0.024310000240802765 -0.01450399961322546
v 0.011656000278890133 -0.023416999727487564 -0.012424999848008156
v 0.015502000227570534 -0.023382000625133514 -0.008379999548196793
v -0.018479999154806137 -0.06466100364923477 -0.013659999705851078
v -0.01940299943089485 -0.0729139968752861 -0.010792000219225883
v -0.007693000137805939 -0.05538000166416168 -0.00903099961578846
v -0.00672199996188283 -0.0508820004761219 -0.009565000422298908
v -0.007914000190794468 -0.046514999121427536 -0.011985000222921371
v -0.005969000048935413 -0.040525998920202255 -0.013175000436604023
v -0.0034910000395029783 -0.033962998539209366 -0.01435299962759018
v -0.0012880000285804272 -0.03060000017285347 -0.016377000138163567
v 0.012341000139713287 -0.02698799967765808 -0.016088999807834625
v 0.01895499974489212 -0.026458000764250755 -0.016697000712156296
v 0.017892999574542046 -0.02775000035762787 -0.014545000158250332
v 0.014267999678850174 -0.027173999696969986 -0.014851000159978867
v 0.010576000437140465 -0.02563999965786934 -0.015329999849200249
v -0.034825000911951065 -0.10003700107336044 -0.017568999901413918
v -0.03414899855852127 -0.09840899705886841 -0.02097400091588497
v -0.07712200284004211 -0.11504799872636795 -0.05750599876046181
v -0.02728700079023838 -0.08736199885606766 -0.0035280000884085894
v -0.03247499838471413 -0.09410099685192108 -0.012577000074088573
v -0.019847000017762184 -0.07786799967288971 -0.000025999999706982635
v -0.09198900312185287 -0.06659699976444244 -0.0934239998459816
v -0.06893900036811829 -0.027008000761270523 -0.08815599977970123
v -0.05778700113296509 -0.02064099907875061 -0.08121900260448456
v -0.05126899853348732 -0.019581999629735947 -0.07509700208902359
v -0.05163399875164032 -0.01857900060713291 -0.07413599640130997
v -0.052418000996112823 -0.018272999674081802 -0.0722699984908104
v -0.055442001670598984 -0.0180479995906353 -0.07468800246715546
v -0.06197800114750862 -0.019169999286532402 -0.07922899723052979
v -0.06530799716711044 -0.020594999194145203 -0.08120299875736237
v -0.06867299973964691 -0.023113999515771866 -0.08296500146389008
v -0.07681500166654587 -0.03233100101351738 -0.0892919972538948
v -0.08593399822711945 -0.044874999672174454 -0.09206199645996094
v -0.09043700248003006 -0.05578099936246872 -0.08328600227832794
v 0.02071700058877468 -0.016881000250577927 -0.0004920000210404396
v 0.019169000908732414 -0.020920999348163605 -0.002429000101983547
v 0.012911999598145485 -0.017504999414086342 -0.006682999897748232
v 0.0216669999063015 -0.015320000238716602 -0.002710999920964241
v 0.022842999547719955 -0.024233000352978706 -0.016790999099612236
v 0.019220000132918358 -0.024890000000596046 -0.018880000337958336
v 0.024723999202251434 -0.020966999232769012 -0.015905000269412994
v 0.027538999915122986 -0.018605999648571014 -0.013178999535739422
v 0.024939000606536865 -0.01634100079536438 -0.007765000220388174
v 0.013279999606311321 -0.02022399939596653 -0.00812899973243475
v -0.03933899849653244 -0.03167400136590004 -0.008522000163793564
v -0.036350999027490616 -0.036072999238967896 -0.012021999806165695
v -0.06558199971914291 -0.023584000766277313 -0.018112000077962875
v -0.08220800012350082 -0.041978999972343445 -0.04325300082564354
v -0.0842059999704361 -0.046434998512268066 -0.04996500164270401
v -0.0329350009560585 -0.03722500056028366 -0.010684000328183174
v -0.08673299849033356 -0.054395999759435654 -0.06089499965310097
v -0.08557300269603729 -0.05350999906659126 -0.06260800361633301
v -0.08714500069618225 -0.0579960010945797 -0.06317300349473953
v -0.08742299675941467 -0.058428000658750534 -0.07086300104856491
v -0.03174100071191788 -0.040414001792669296 -0.0066269999369978905
v -0.032113999128341675 -0.04255999997258186 -0.006409999914467335
v -0.02848299965262413 -0.040150001645088196 -0.003969000186771154
v -0.031397998332977295 -0.043946001678705215 -0.005522000137716532
v -0.028676999732851982 -0.038100000470876694 0.0018439999548718333
v -0.027418000623583794 -0.034157998859882355 -0.00015300000086426735
v -0.028957000002264977 -0.042121000587940216 -0.0011439999798312783
v -0.029503999277949333 -0.041437000036239624 0.0034119999036192894
v -0.02728400006890297 -0.03324199840426445 0.001610000035725534
v -0.025930000469088554 -0.03266799822449684 0.0029810001142323017
v -0.02424599975347519 -0.03242599964141846 0.005090000107884407
v -0.0010930000571534038 -0.03280099853873253 -0.007997999899089336
v -0.000653000024612993 -0.034095000475645065 -0.005963000003248453
v -0.0006799999973736703 -0.034536998718976974 -0.004038999788463116
v -0.0036989999935030937 -0.030949000269174576 -0.0026660000439733267
v -0.007017999887466431 -0.029069000855088234 -0.0014319999609142542
v -0.022957999259233475 -0.032930001616477966 0.005241000093519688
v -0.004251000005751848 -0.033911000937223434 -0.002578000072389841
v -0.007654999848455191 -0.03449900075793266 -0.0015910000074654818
v -0.015948999673128128 -0.03292600065469742 0.002225999953225255
v -0.021183999255299568 -0.03382899984717369 0.005073999986052513
v -0.0014900000533089042 -0.03339200094342232 -0.00999400019645691
v -0.003700000001117587 -0.03748299926519394 -0.011463000439107418
v 0.011672000400722027 -0.02465599961578846 -0.01361399982124567
v 0.012148999609053135 -0.025867000222206116 -0.014445999637246132
v 0.01845500059425831 -0.026030000299215317 -0.00786499958485365
v 0.015969999134540558 -0.022414999082684517 -0.006593999918550253
v 0.01795000024139881 -0.0265089999884367 -0.010955999605357647
v -0.014716999605298042 -0.06948599964380264 -0.004403000231832266
v -0.0035880000796169043 -0.057022999972105026 -0.005106000229716301
v -0.004207999911159277 -0.060148000717163086 -0.003338000038638711
v -0.015747999772429466 -0.07103399932384491 -0.00267699989490211
v -0.005152999889105558 -0.0548969991505146 -0.007379000075161457
v -0.00535399978980422 -0.0454230010509491 -0.009928000159561634
v -0.00446499977260828 -0.05111299827694893 -0.00787699967622757
v 0.028212999925017357 -0.02558699995279312 -0.01185499969869852
v 0.023460999131202698 -0.028363000601530075 -0.010401999577879906
v 0.026158999651670456 -0.02716900035738945 -0.011416999623179436
v -0.03719399869441986 -0.10458599776029587 -0.018735000863671303
v -0.03517000004649162 -0.09925200045108795 -0.013787999749183655
v -0.03761100023984909 -0.10416000336408615 -0.014852999709546566
v -0.04320500046014786 -0.11638300120830536 -0.02502799965441227
v -0.041790999472141266 -0.1135450005531311 -0.02073800005018711
v -0.05092399939894676 -0.13314199447631836 -0.02761100046336651
v -0.06089000031352043 -0.1547130048274994 -0.03031500056385994
v -0.08624599874019623 -0.19078600406646729 -0.04291800037026405
v -0.08160699903964996 -0.18924899399280548 -0.03843799978494644
v -0.10088399797677994 -0.10322000086307526 -0.08662199974060059
v -0.09891600161790848 -0.16546300053596497 -0.059932999312877655
v -0.09476300328969955 -0.18069499731063843 -0.053383998572826385
v -0.10241000354290009 -0.1449729949235916 -0.06909900158643723
v -0.10270100086927414 -0.13472099602222443 -0.0733020007610321
v -0.0992719978094101 -0.12117899954319 -0.07838699966669083
v -0.02271299995481968 -0.0787620022892952 0.0020910000894218683
v -0.029461000114679337 -0.08560299873352051 -0.003392999991774559
v -0.03859899938106537 -0.09424500167369843 -0.008262000046670437
v -0.03543100133538246 -0.09591799974441528 -0.007280999794602394
v -0.03376299887895584 -0.09662099927663803 -0.0071310000494122505
v -0.026983000338077545 -0.0817440003156662 -0.0014509999891743064
v -0.029973000288009644 -0.09150999784469604 -0.006045000161975622
v -0.03334600105881691 -0.09578800201416016 -0.009908000007271767
v -0.014809999614953995 -0.07025700062513351 0.002956999931484461
v -0.018348999321460724 -0.06963600218296051 0.00774300005286932
v -0.08359000086784363 -0.04500000178813934 -0.0933459997177124
v -0.0948529988527298 -0.06513000279664993 -0.09335599839687347
v -0.07841700315475464 -0.03537299856543541 -0.09086500108242035
v -0.07325299829244614 -0.029872000217437744 -0.08903899788856506
v -0.06708700209856033 -0.024010999128222466 -0.08654899895191193
v -0.06396999955177307 -0.02204499952495098 -0.08515200018882751
v -0.061225999146699905 -0.020535999909043312 -0.08297400176525116
v -0.057996999472379684 -0.01934099942445755 -0.08023799955844879
v -0.05458800122141838 -0.01923000067472458 -0.0778060033917427
v -0.054854001849889755 -0.018366999924182892 -0.0766879990696907
v -0.05823799967765808 -0.018581999465823174 -0.07903199642896652
v -0.06845899671316147 -0.0239850003272295 -0.08593399822711945
v -0.06502699851989746 -0.02130899950861931 -0.08437400311231613
v -0.09101700037717819 -0.06430699676275253 -0.08088500052690506
v -0.08829499781131744 -0.05990799888968468 -0.07536099851131439
v -0.09464599937200546 -0.07218299806118011 -0.08464600145816803
v 0.024619000032544136 -0.019401000812649727 -0.00027099999715574086
v 0.025086000561714172 -0.02167999930679798 0.00047400000039488077
v 0.02161099947988987 -0.025141000747680664 -0.0017810000572353601
v 0.024159999564290047 -0.02497600018978119 -0.0003279999946244061
v 0.023586999624967575 -0.016990000382065773 -0.001617999980226159
v 0.025071000680327415 -0.017364999279379845 -0.003963999915868044
v 0.026399999856948853 -0.0178849995136261 -0.006370000075548887
v 0.030131999403238297 -0.02109299972653389 -0.009383000433444977
v -0.035645999014377594 -0.036444999277591705 -0.010200000368058681
v -0.03617500141263008 -0.0388760007917881 -0.0065379999577999115
v -0.03863000124692917 -0.03355700150132179 -0.006297999992966652
v -0.03814199939370155 -0.024011999368667603 -0.003092000028118491
v -0.04394900053739548 -0.019670000299811363 -0.005956000182777643
v -0.08034399896860123 -0.041416000574827194 -0.03435000032186508
v -0.0696370005607605 -0.02869899943470955 -0.02080399915575981
v -0.056386999785900116 -0.017501000314950943 -0.0008159999852068722
v -0.05449699983000755 -0.01420500036329031 -0.005630000028759241
v -0.04636399820446968 -0.014955000020563602 -0.0045010000467300415
v -0.08470100164413452 -0.049479998648166656 -0.04242800176143646
v -0.08727700263261795 -0.05617399886250496 -0.06030099838972092
v -0.08678899705410004 -0.05342299863696098 -0.05159100145101547
v -0.08023899793624878 -0.057013001292943954 -0.06395400315523148
v -0.08702000230550766 -0.058021001517772675 -0.06091099977493286
v -0.03554200008511543 -0.04171700030565262 -0.006876000203192234
v -0.03457200154662132 -0.044861000031232834 -0.007412000093609095
v -0.02991499938070774 -0.04551300033926964 -0.004133000038564205
v -0.03237200155854225 -0.04666300117969513 -0.006639999803155661
v -0.02958199940621853 -0.04091300070285797 0.005778999999165535
v -0.030577000230550766 -0.0486610010266304 -0.005284000188112259
v -0.03017299994826317 -0.04788200184702873 0.007675999775528908
v -0.029993999749422073 -0.04435399919748306 0.0069240001030266285
v -0.026444999501109123 -0.0412059985101223 0.009263000451028347
v -0.000015999999959603883 -0.03648800030350685 -0.006428999826312065
v -0.0009009999921545386 -0.035328999161720276 -0.00826600007712841
v 0.0007120000082068145 -0.038736000657081604 -0.004023000132292509
v -0.00019099999917671084 -0.03861299902200699 -0.003341000061482191
v -0.0019259999971836805 -0.03514299914240837 -0.0028750000055879354
v -0.00532899983227253 -0.03984199836850166 -0.0019180000526830554
v -0.0029639999847859144 -0.037386998534202576 -0.002630000002682209
v -0.011664999648928642 -0.035735998302698135 0.00024399999529123306
v -0.00828499998897314 -0.03796999901533127 -0.0010529999854043126
v -0.017124999314546585 -0.03644099831581116 0.0033009999897331
v -0.019231000915169716 -0.04023899883031845 0.005537000019103289
v -0.024914000183343887 -0.04171000048518181 0.00936300028115511
v 0.021841999143362045 -0.02736400067806244 -0.004846999887377024
v 0.02132599987089634 -0.027862999588251114 -0.008572000078856945
v -0.00889899954199791 -0.06596700102090836 -0.001155999954789877
v -0.0034729999024420977 -0.0545010007917881 -0.006374000106006861
v 0.0019369999645277858 -0.052831001579761505 -0.0014319999609142542
v -0.0018980000168085098 -0.059167999774217606 -0.0006990000256337225
v -0.0019759999122470617 -0.04980900138616562 -0.0061079999431967735
v -0.0013670000480487943 -0.046532001346349716 -0.006639999803155661
v 0.00021699999342672527 -0.040189001709222794 -0.006291999947279692
v 0.0008370000286959112 -0.04328199848532677 -0.0054350001737475395
v -0.00044999999227002263 -0.038065001368522644 -0.007240000180900097
v 0.02946699969470501 -0.02810700051486492 -0.008787999860942364
v 0.027546999976038933 -0.02785399928689003 -0.010080000385642052
v 0.030240999534726143 -0.026969999074935913 -0.008902999572455883
v 0.027814000844955444 -0.02903899922966957 -0.007968000136315823
v 0.026332000270485878 -0.028975000604987144 -0.006395999807864428
v -0.039997998625040054 -0.10874699801206589 -0.015917999669909477
v -0.03610000014305115 -0.1007469967007637 -0.01107999961823225
v -0.038759998977184296 -0.10528899729251862 -0.01235399954020977
v -0.0452129989862442 -0.12140999734401703 -0.022599000483751297
v -0.04346900060772896 -0.11751700192689896 -0.021842999383807182
v -0.03940099850296974 -0.10552400350570679 -0.00989999994635582
v -0.0439319983124733 -0.11721500009298325 -0.01808599941432476
v -0.04973199963569641 -0.12856200337409973 -0.018681999295949936
v -0.05958300083875656 -0.14717300236225128 -0.020952999591827393
v -0.05920900031924248 -0.15337899327278137 -0.027070000767707825
v -0.06331899762153625 -0.16734999418258667 -0.027425000444054604
v -0.06540899723768234 -0.17099599540233612 -0.028589999303221703
v -0.08773799985647202 -0.19204600155353546 -0.04292700067162514
v -0.09235300123691559 -0.18794900178909302 -0.04895000159740448
v -0.08766999840736389 -0.1925009936094284 -0.0381929986178875
v -0.07797600328922272 -0.1848589926958084 -0.031289998441934586
v -0.08405700325965881 -0.1905599981546402 -0.035204000771045685
v -0.07039199769496918 -0.1770939975976944 -0.029379000887274742
v -0.10251700133085251 -0.10757099837064743 -0.08341500163078308
v -0.10086899995803833 -0.11681900173425674 -0.08083099871873856
v -0.10170300304889679 -0.10816700011491776 -0.08504900336265564
v -0.09865099936723709 -0.1698479950428009 -0.05803399905562401
v -0.10027100145816803 -0.1652739942073822 -0.05948600172996521
v -0.09810099750757217 -0.1800680011510849 -0.052218999713659286
v -0.09510499984025955 -0.18596699833869934 -0.04975299909710884
v -0.10289400070905685 -0.13398300111293793 -0.07185299694538116
v -0.10232999920845032 -0.14939700067043304 -0.06532400101423264
v -0.10155300050973892 -0.12145700305700302 -0.07949600368738174
v -0.1023240014910698 -0.11214800179004669 -0.08056999742984772
v -0.10249900072813034 -0.12156800180673599 -0.07877899706363678
v -0.023003000766038895 -0.07003500312566757 0.0058639999479055405
v -0.028920000419020653 -0.08007100224494934 -0.0016410000389441848
v -0.03697099909186363 -0.08167000114917755 -0.019998999312520027
v -0.06249900162220001 -0.12756599485874176 -0.03570700064301491
v -0.04608700051903725 -0.10800100117921829 -0.014163999818265438
v -0.03961800038814545 -0.09999699890613556 -0.0092569999396801
v -0.0302910003811121 -0.07223299890756607 -0.0033939999993890524
v -0.040782999247312546 -0.10512600094079971 -0.01033599954098463
v -0.007980999536812305 -0.06469400227069855 0.008937999606132507
v -0.025981999933719635 -0.06128000095486641 0.010630999691784382
v -0.013043999671936035 -0.06437300145626068 0.012493000365793705
v -0.09947200119495392 -0.09397699683904648 -0.083296999335289
v -0.08923199772834778 -0.06621800363063812 -0.07968699932098389
v -0.0724169984459877 -0.05829299986362457 -0.06281299889087677
v -0.08274099975824356 -0.062143001705408096 -0.0741640031337738
v -0.08501599729061127 -0.07336399704217911 -0.07786300033330917
v 0.02610599994659424 -0.020176999270915985 -0.0009389999904669821
v 0.02603599987924099 -0.02166599966585636 -0.00009600000339560211
v 0.025628000497817993 -0.02401600033044815 0.00019700000120792538
v 0.023504000157117844 -0.02607100084424019 -0.001184999942779541
v 0.025895999744534492 -0.026342999190092087 -0.000582000007852912
v 0.026635000482201576 -0.019437000155448914 -0.003384999930858612
v 0.027904000133275986 -0.019700000062584877 -0.005495000164955854
v 0.029152000322937965 -0.021599000319838524 -0.004730000160634518
v 0.03074200078845024 -0.022545000538229942 -0.007464999798685312
v 0.030628999695181847 -0.027425000444054604 -0.007418000139296055
v 0.030122000724077225 -0.022082999348640442 -0.006304000038653612
v -0.03943900018930435 -0.03970300033688545 -0.005098999943584204
v -0.038989000022411346 -0.03558399900794029 -0.003898999886587262
v -0.037748999893665314 -0.025050999596714973 -0.0011990000493824482
v -0.03355199843645096 -0.014922999776899815 0.00018099999579135329
v -0.0387520007789135 -0.01088900025933981 -0.0012610000558197498
v -0.08218599855899811 -0.0535850003361702 -0.040387000888586044
v -0.07833799719810486 -0.046167001128196716 -0.032864999026060104
v -0.06842999905347824 -0.0298909991979599 -0.018011000007390976
v -0.06426200270652771 -0.03714299947023392 -0.02334200032055378
v -0.04913400113582611 -0.013983000069856644 0.009832000359892845
v -0.04424599930644035 -0.03975600004196167 -0.003522000042721629
v -0.04627399891614914 -0.019408000633120537 0.012001000344753265
v -0.04427200183272362 -0.03169500082731247 0.0029929999727755785
v -0.03969400003552437 -0.006914000026881695 0.009405000135302544
v -0.04042299836874008 -0.0071840002201497555 0.006599999964237213
v -0.0406000018119812 -0.010300000198185444 0.024320000782608986
v -0.043497998267412186 -0.009557000361382961 -0.0005380000220611691
v -0.03827299922704697 -0.0069599999114871025 0.004226999823004007
v -0.08447600156068802 -0.05739299952983856 -0.04773399978876114
v -0.0724869966506958 -0.05437999963760376 -0.057714998722076416
v -0.07385300099849701 -0.05267300084233284 -0.05183999985456467
v -0.03740600124001503 -0.0438539981842041 -0.0071669998578727245
v -0.03753099963068962 -0.056488998234272 -0.01720700040459633
v -0.03435499966144562 -0.05864499881863594 -0.015521000139415264
v -0.02764499932527542 -0.044555000960826874 0.01018300000578165
v -0.029642000794410706 -0.06867100298404694 -0.0017640000442042947
v -0.029481999576091766 -0.058959998190402985 0.008167999796569347
v -0.027883000671863556 -0.05203099921345711 0.010510999709367752
v -0.028811000287532806 -0.047915998846292496 0.009770000353455544
v -0.02672000043094158 -0.04467500001192093 0.0106800002977252
v 0.0016499999910593033 -0.04313100129365921 -0.00420599989593029
v 0.001639000023715198 -0.04266199842095375 -0.0034749999176710844
v -0.0007769999792799354 -0.042080000042915344 -0.0026579999830573797
v -0.012625999748706818 -0.03965400159358978 0.0013070000568404794
v -0.005758999846875668 -0.047394998371601105 -0.00011300000187475234
v -0.00039900001138448715 -0.04619000107049942 -0.0022849999368190765
v -0.02196500077843666 -0.04307299852371216 0.00822800025343895
v -0.01625099964439869 -0.04244599863886833 0.004453999921679497
v -0.02538600005209446 -0.044985998421907425 0.010545999743044376
v 0.024955999106168747 -0.028308000415563583 -0.004222000017762184
v -0.0039059999398887157 -0.0633779987692833 0.003771000076085329
v 0.0014349999837577343 -0.049501001834869385 -0.00368899991735816
v 0.002090000081807375 -0.052629001438617706 -0.0009289999725297093
v 0.0011739999754354358 -0.0553629994392395 0.0002629999944474548
v 0.0023610000498592854 -0.04959600046277046 -0.0018690000288188457
v 0.0021510000806301832 -0.049814000725746155 -0.002478000009432435
v 0.00011999999696854502 -0.057704001665115356 0.0017509999452158809
v 0.002242000075057149 -0.04674199968576431 -0.003355999942868948
v 0.029642000794410706 -0.029028000310063362 -0.007199000101536512
v 0.027518000453710556 -0.02857399918138981 -0.0042119999416172504
v -0.04738600179553032 -0.12451499700546265 -0.019408000633120537
v -0.0455470010638237 -0.12101399898529053 -0.019135000184178352
v -0.04986799880862236 -0.12102200090885162 -0.013682999648153782
v -0.04825099930167198 -0.12159000337123871 -0.013704000040888786
v -0.04475099965929985 -0.10872399806976318 -0.01229500025510788
v -0.05206200107932091 -0.1283009946346283 -0.017325999215245247
v -0.04908600077033043 -0.12512700259685516 -0.01621999964118004
v -0.06777799874544144 -0.15160299837589264 -0.025645000860095024
v -0.06994300335645676 -0.17244000732898712 -0.026768000796437263
v -0.05467899888753891 -0.12813700735569 -0.016711000353097916
v -0.0629270002245903 -0.16415700316429138 -0.02427699975669384
v -0.06548000127077103 -0.17080099880695343 -0.026916999369859695
v -0.09055300056934357 -0.19303500652313232 -0.04069900140166283
v -0.09250400215387344 -0.19172599911689758 -0.043313998728990555
v -0.09443199634552002 -0.1898760050535202 -0.04589200019836426
v -0.09051399677991867 -0.1920820027589798 -0.039170000702142715
v -0.08776400238275528 -0.1912509948015213 -0.03661299869418144
v -0.09106700122356415 -0.1878259927034378 -0.03770200163125992
v -0.08531700074672699 -0.1629749983549118 -0.0414079986512661
v -0.07034599781036377 -0.17620599269866943 -0.027789000421762466
v -0.08607199788093567 -0.18924500048160553 -0.03485799953341484
v -0.1022619977593422 -0.11704500019550323 -0.0811379998922348
v -0.09948699921369553 -0.17313499748706818 -0.05353099852800369
v -0.0970269963145256 -0.18495599925518036 -0.0472790002822876
v -0.09662099927663803 -0.18563300371170044 -0.04893900081515312
v -0.10236000269651413 -0.1382710039615631 -0.0680759996175766
v -0.0444599986076355 -0.06717699766159058 -0.028766000643372536
v -0.03553000092506409 -0.06955599784851074 -0.01984100043773651
v -0.09816200286149979 -0.17702199518680573 -0.048337001353502274
v -0.06578300148248672 -0.07344000041484833 -0.05050300061702728
v -0.05451500043272972 -0.12348499894142151 -0.018028000369668007
v -0.05120199918746948 -0.12035000324249268 -0.01464099995791912
v -0.042066000401973724 -0.10467100143432617 -0.010893000289797783
v -0.001550000044517219 -0.06025499850511551 0.005816000048071146
v -0.004780000075697899 -0.06166600063443184 0.008723000064492226
v -0.022586999461054802 -0.056157998740673065 0.013213000260293484
v -0.01634100079536438 -0.05963600054383278 0.012958000414073467
v -0.012501000426709652 -0.06174499914050102 0.012609999626874924
v -0.081106998026371 -0.0663290023803711 -0.07505100220441818
v -0.05111899971961975 -0.05585100129246712 -0.03382999822497368
v 0.026559000834822655 -0.02401600033044815 -0.00039400000241585076
v 0.027962999418377876 -0.02523699961602688 -0.0012260000221431255
v 0.027972999960184097 -0.021449999883770943 -0.002862999914214015
v 0.02665800042450428 -0.027689000591635704 -0.002337000099942088
v 0.02725999988615513 -0.025805000215768814 -0.0007999999797903001
v 0.027970999479293823 -0.026626000180840492 -0.002005999907851219
v 0.02858700044453144 -0.023607000708580017 -0.0026400000788271427
v 0.030578000470995903 -0.024222999811172485 -0.005692000035196543
v 0.029399000108242035 -0.028156999498605728 -0.005704999901354313
v 0.03029699996113777 -0.026726000010967255 -0.00570600014179945
v -0.04143499955534935 -0.03825899958610535 -0.0033839999232441187
v -0.0386199988424778 -0.03144099935889244 -0.0013859999598935246
v -0.03987399861216545 -0.030590999871492386 0.0026859999634325504
v -0.031658001244068146 -0.017683999612927437 0.003056999994441867
v -0.03742000088095665 -0.026294000446796417 0.0012700000079348683
v -0.0304579995572567 -0.012884000316262245 0.0016449999529868364
v -0.030122999101877213 -0.014785000123083591 0.00254100002348423
v -0.028849000111222267 -0.007338999770581722 0.0007939999923110008
v -0.024886999279260635 -0.010448000393807888 0.003148999996483326
v -0.06963799893856049 -0.0460829995572567 -0.03745099902153015
v -0.07167399674654007 -0.03735800087451935 -0.025242000818252563
v -0.043189000338315964 -0.01792299933731556 0.01800999976694584
v -0.042187999933958054 -0.031633999198675156 0.0029929999727755785
v -0.04207000136375427 -0.023427000269293785 0.012137999758124352
v -0.03743299841880798 -0.007586000021547079 0.027654999867081642
v -0.03374100103974342 -0.004982000216841698 0.014360999688506126
v -0.035353999584913254 -0.005400000140070915 0.012005999684333801
v -0.03200099989771843 -0.004526000004261732 0.028852000832557678
v -0.03649099916219711 -0.005816999822854996 0.0076779997907578945
v -0.0382549986243248 -0.011145999655127525 0.026659000664949417
v -0.029837999492883682 -0.0047519998624920845 0.002234000014141202
v -0.033705998212099075 -0.005338999908417463 0.005379000212997198
v -0.03626500070095062 -0.06358899921178818 -0.020248999819159508
v -0.027223000302910805 -0.04812400043010712 0.011435000225901604
v -0.025849999859929085 -0.05214099958539009 0.012436999939382076
v 0.002237000036984682 -0.04633300006389618 -0.0027129999361932278
v -0.008737999945878983 -0.0455549992620945 0.0008459999808110297
v -0.0029559999238699675 -0.048657000064849854 -0.0007459999760612845
v -0.005756000056862831 -0.051072001457214355 0.0011680000461637974
v -0.011583000421524048 -0.047230999916791916 0.0029899999499320984
v -0.000311999989207834 -0.04988199844956398 -0.001069999998435378
v 0.0011149999918416142 -0.04947900027036667 -0.0017000000225380063
v -0.019036000594496727 -0.04504400119185448 0.007234999909996986
v -0.014991999603807926 -0.04612699896097183 0.004887999966740608
v -0.025169000029563904 -0.048333000391721725 0.011452999897301197
v -0.019927000626921654 -0.04781800135970116 0.009008999913930893
v -0.02103699930012226 -0.05254099890589714 0.011513999663293362
v -0.002225999953225255 -0.054691001772880554 0.0021430000197142363
v -0.002701000077649951 -0.05192599818110466 0.0005430000019259751
v -0.0021379999816417694 -0.05705999955534935 0.0038330000825226307
v -0.0002899999963119626 -0.05718500167131424 0.003103999886661768
v 0.00008800000068731606 -0.057475000619888306 0.002319999970495701
v 0.028734000399708748 -0.027481000870466232 -0.0037849999498575926
v -0.051405999809503555 -0.1247510015964508 -0.014953999780118465
v -0.05295100063085556 -0.12415999919176102 -0.015536000020802021
v -0.06554500013589859 -0.16958099603652954 -0.025683000683784485
v -0.0968170017004013 -0.18438099324703217 -0.04535999894142151
v -0.09059000015258789 -0.19076600670814514 -0.03793499991297722
v -0.004486999940127134 -0.05904499813914299 0.006564999930560589
v -0.007992999628186226 -0.060430001467466354 0.00952799990773201
v -0.02080499939620495 -0.056127000600099564 0.012869000434875488
v -0.023687999695539474 -0.052156001329422 0.01241500023752451
v -0.01604199968278408 -0.058090999722480774 0.011711000464856625
v -0.011517999693751335 -0.059473998844623566 0.010401000268757343
v 0.02873699925839901 -0.025621000677347183 -0.00228299992159009
v 0.030333999544382095 -0.0252470001578331 -0.004687000066041946
v -0.039312999695539474 -0.024163000285625458 0.010679000057280064
v -0.025282999500632286 -0.013917000032961369 0.0053460001945495605
v -0.023817000910639763 -0.013504000380635262 0.012407000176608562
v -0.031557999551296234 -0.018231000751256943 0.005809000227600336
v -0.024779999628663063 -0.012195000424981117 0.004352999851107597
v -0.019363999366760254 -0.005415000021457672 0.0004239999980200082
v -0.022350000217556953 -0.009649000130593777 0.0034660000819712877
v -0.03894700109958649 -0.022343000397086143 0.014162000268697739
v -0.03745799884200096 -0.01337399985641241 0.026057999581098557
v -0.03413600102066994 -0.010617000050842762 0.02879600040614605
v -0.027893999591469765 -0.002891999902203679 0.019530000165104866
v -0.03194599971175194 -0.004275999963283539 0.01331700012087822
v -0.02948099933564663 -0.0036929999478161335 0.016253000125288963
v -0.029910000041127205 -0.0037120000924915075 0.009291999973356724
v -0.02175300009548664 -0.003495000069960952 0.029503999277949333
v -0.01907300017774105 -0.00036700000055134296 0.02877799980342388
v -0.025097999721765518 -0.0019519999623298645 0.018417000770568848
v -0.031304001808166504 -0.004368999972939491 0.0065379999577999115
v -0.027546999976038933 -0.0032059999648481607 0.0087909996509552
v -0.024900000542402267 -0.003309000050649047 0.0023240000009536743
v -0.008945999667048454 -0.052974000573158264 0.0036539998836815357
v -0.012187999673187733 -0.05056300014257431 0.004554999992251396
v -0.016011999920010567 -0.0494609996676445 0.0067969998344779015
v -0.0128370001912117 -0.054246000945568085 0.0065449997782707214
v -0.004726999904960394 -0.05676800012588501 0.0045819999650120735
v -0.008104999549686909 -0.05837300047278404 0.007619000039994717
v -0.012265999801456928 -0.05729399994015694 0.008639000356197357
v -0.02180200070142746 -0.012047999538481236 0.007029999978840351
v -0.02109299972653389 -0.011992000043392181 0.012261000461876392
v -0.02589000016450882 -0.01460800040513277 0.01592699997127056
v -0.020755000412464142 -0.01054100040346384 0.006006999872624874
v -0.007402999792248011 -0.0048340000212192535 -0.00034500000765547156
v -0.020069999620318413 -0.001978999935090542 0.0021349999587982893
v -0.016054999083280563 -0.002445999998599291 0.0008769999840296805
v -0.013057000003755093 -0.0037040000315755606 -0.0005799999926239252
v -0.010591000318527222 -0.004466999787837267 -0.00048600000445730984
v -0.01091499999165535 -0.00776199996471405 0.005900000222027302
v -0.028901999816298485 -0.012768999673426151 0.02352599985897541
v -0.017991000786423683 -0.008666000328958035 0.022557999938726425
v -0.026405999436974525 -0.0027620000764727592 0.01511400006711483
v -0.027103999629616737 -0.0029879999347031116 0.011605000123381615
v -0.014907999895513058 -0.007546000182628632 0.02213199995458126
v -0.006705000065267086 -0.000506000011228025 0.025942999869585037
v -0.011978999711573124 0.0024129999801516533 0.013395000249147415
v -0.012245000340044498 0.002274000085890293 0.02415500022470951
v -0.01984800025820732 -0.00027799999224953353 0.010607999749481678
v -0.007980999536812305 0.002392000053077936 0.025673000141978264
v -0.024265000596642494 -0.002638000063598156 0.005625999998301268
v -0.023958999663591385 -0.0019950000569224358 0.00849399995058775
v -0.008503000251948833 -0.05592299997806549 0.005468999966979027
v -0.02000500075519085 -0.011381000280380249 0.008926000446081161
v -0.018533000722527504 -0.01083999965339899 0.0118410000577569
v -0.02542099915444851 -0.012741999700665474 0.019650999456644058
v -0.01902499981224537 -0.010157999582588673 0.01895100064575672
v -0.017328999936580658 -0.010348999872803688 0.014956999570131302
v -0.02182699926197529 -0.011272000148892403 0.019272999837994576
v -0.014096999540925026 -0.008767000399529934 0.007009999826550484
v -0.00494900019839406 -0.004263000097125769 -0.0004569999873638153
v -0.0076339999213814735 -0.006666999775916338 0.004395000170916319
v -0.017813000828027725 -0.001547000021673739 0.0023010000586509705
v -0.015863999724388123 0.0013490000274032354 0.007366999983787537
v -0.01945899985730648 -0.00038899999344721437 0.0068709999322891235
v -0.017875999212265015 0.0004839999892283231 0.007338999770581722
v -0.004497999791055918 -0.0017109999898821115 -0.0005760000203736126
v -0.013942999765276909 -0.0008670000243000686 0.0019199999514967203
v -0.00912300031632185 -0.007304999977350235 0.008623000234365463
v -0.016095999628305435 -0.00901500042527914 0.018610000610351562
v -0.00038300000596791506 -0.0017770000267773867 0.019255999475717545
v -0.0017760000191628933 -0.0030529999639838934 0.01624700054526329
v -0.014282000251114368 -0.00914900004863739 0.014097999781370163
v -0.010971000418066978 -0.00787699967622757 0.012907999567687511
v -0.0073979999870061874 -0.006572000216692686 0.01118400041013956
v -0.0028210000600665808 -0.004209000151604414 0.012808999978005886
v 0.0008140000281855464 0.0005559999844990671 0.02202500030398369
v 0.0011279999744147062 -0.0005189999938011169 0.021324999630451202
v -0.011698000133037567 0.0025839998852461576 0.010808000341057777
v -0.008836000226438046 0.003215000033378601 0.01119100023061037
v 0.00456500006839633 0.005007000174373388 0.011776000261306763
v -0.004776000045239925 0.0037980000488460064 0.007612000219523907
v 0.002839999971911311 0.004110000096261501 0.020117999985814095
v -0.013690000399947166 0.002125999890267849 0.0077309999614953995
v -0.01553099974989891 -0.009575000032782555 0.01093900017440319
v 0.0021230001002550125 -0.0011980000417679548 0.0009850000496953726
v -0.002822000067681074 -0.004081000108271837 0.00039500001003034413
v -0.004143999889492989 -0.0053530000150203705 0.0032049999572336674
v -0.0039369999431073666 -0.005404000170528889 0.00937699992209673
v -0.0023880000226199627 -0.0048340000212192535 0.00547399977222085
v -0.014007999561727047 0.000674000009894371 0.004162999801337719
v -0.011435999535024166 0.002707999898120761 0.0071000000461936
v 0.001998000079765916 0.0017979999538511038 0.002549000084400177
v -0.01147099956870079 0.001057000015862286 0.0038399999029934406
v -0.00897900015115738 0.0027890000492334366 0.005762999877333641
v -0.004912999924272299 0.003585000056773424 0.006537000183016062
v 0.0023799999617040157 -0.0011490000179037452 0.01757499948143959
v -0.0011899999808520079 -0.004681000020354986 0.007933000102639198
v 0.006645999848842621 0.0020230000372976065 0.018022999167442322
v -0.011266999877989292 0.0028379999566823244 0.008112000301480293
v 0.002736999886110425 0.002584999892860651 0.0039900001138448715
v 0.004734999965876341 0.004052999895066023 0.01932400092482567
v 0.008539999835193157 0.0028379999566823244 0.009783999994397163
v 0.008063999935984612 0.0027360001113265753 0.013953999616205692
v -0.00834100041538477 0.0032530000898987055 0.00698600010946393
v 0.006386000197380781 0.0032889998983591795 0.017914000898599625
v 0.004310000222176313 0.0013559999642893672 0.002876000013202429
v 0.00531500019133091 -0.0018070000223815441 0.004408000037074089
v 0.00572500005364418 -0.000029000000722589903 0.0035840000491589308
v 0.004348999820649624 -0.000012999999853491317 0.00228599994443357
v 0.0002699999895412475 -0.004346999805420637 0.0071669998578727245
v 0.008363000117242336 0.0015109999803826213 0.014121999964118004
v 0.0035250000655651093 -0.0018710000440478325 0.013048999942839146
v 0.009123999625444412 0.0008689999813213944 0.00995699968189001
v 0.0023849999997764826 -0.003003000048920512 0.009871000424027443
v 0.005661000031977892 0.0009660000214353204 0.0036879999097436666
v 0.007751999888569117 0.001167000038549304 0.006574000231921673
v 0.004600000102072954 -0.0022509999107569456 0.00863800011575222
v 0.007664000149816275 -0.00040099999750964344 0.006850000005215406
f 1 2 3
f 1 4 5
f 1 3 6
f 6 7 1
f 1 7 4
f 5 2 1
f 2 8 3
f 9 2 5
f 2 10 8
f 2 8 10
f 9 10 2
f 11 6 3
f 3 8 11
f 12 4 7
f 13 5 4
f 12 13 4
f 9 5 13
f 14 6 15
f 6 11 16
f 16 15 6
f 14 7 6
f 7 17 12
f 17 7 14
f 18 8 10
f 8 18 19
f 8 19 11
f 8 19 18
f 11 19 8
f 20 9 21
f 20 22 9
f 22 10 9
f 21 9 13
f 10 22 18
f 19 23 11
f 11 23 24
f 16 11 24
f 12 17 25
f 12 25 13
f 26 27 13
f 28 26 13
f 21 13 29
f 29 13 27
f 13 25 28
f 30 14 31
f 15 31 14
f 30 17 14
f 32 15 33
f 15 16 34
f 35 33 15
f 34 35 15
f 32 31 15
f 16 24 36
f 34 16 37
f 16 36 37
f 38 17 30
f 17 38 25
f 19 18 39
f 18 22 40
f 39 18 40
f 39 41 19
f 23 19 42
f 42 19 41
f 20 29 43
f 43 44 20
f 20 44 45
f 46 22 20
f 47 46 20
f 47 20 45
f 21 29 20
f 48 40 22
f 22 46 48
f 42 49 23
f 23 49 24
f 49 50 24
f 36 24 51
f 24 50 52
f 51 24 52
f 28 25 53
f 25 38 53
f 26 54 27
f 26 55 56
f 55 26 28
f 56 54 26
f 57 58 27
f 59 57 27
f 60 29 27
f 61 60 27
f 27 54 59
f 27 58 61
f 28 53 55
f 43 29 60
f 31 62 30
f 30 62 38
f 32 63 31
f 62 31 63
f 33 64 32
f 32 64 63
f 33 65 66
f 67 33 66
f 33 35 65
f 67 64 33
f 37 35 34
f 35 37 65
f 51 37 36
f 68 69 37
f 69 70 37
f 51 71 37
f 37 71 68
f 65 37 70
f 38 72 73
f 74 38 73
f 38 74 53
f 62 72 38
f 39 75 41
f 40 75 39
f 40 76 75
f 48 76 40
f 75 77 41
f 42 41 77
f 77 78 42
f 42 78 49
f 44 43 60
f 44 79 45
f 79 44 61
f 61 44 60
f 80 45 79
f 80 47 45
f 46 81 82
f 48 46 82
f 81 46 47
f 81 47 80
f 48 82 83
f 83 76 48
f 78 50 49
f 50 84 85
f 52 50 85
f 84 50 78
f 52 85 51
f 51 85 86
f 87 51 86
f 68 51 87
f 71 51 68
f 53 74 55
f 54 56 88
f 59 54 88
f 89 56 55
f 90 91 55
f 55 92 90
f 55 91 89
f 92 55 74
f 89 93 56
f 93 88 56
f 94 95 57
f 96 57 95
f 97 57 88
f 59 88 57
f 96 98 57
f 57 98 79
f 58 57 79
f 57 97 94
f 61 58 79
f 62 99 72
f 62 100 99
f 63 100 62
f 67 100 63
f 63 64 67
f 66 65 101
f 101 65 70
f 101 102 66
f 66 102 103
f 103 104 66
f 104 67 66
f 67 105 100
f 104 106 67
f 105 67 106
f 87 107 68
f 107 108 68
f 68 108 69
f 107 109 69
f 69 108 107
f 70 69 109
f 103 70 110
f 111 110 70
f 112 111 70
f 112 70 109
f 70 102 101
f 103 102 70
f 72 99 73
f 74 73 113
f 114 113 73
f 73 115 116
f 116 114 73
f 73 99 115
f 113 92 74
f 117 77 75
f 75 76 117
f 76 83 117
f 77 117 118
f 78 77 118
f 78 118 84
f 119 79 98
f 80 79 120
f 119 120 79
f 81 80 120
f 120 82 81
f 120 83 82
f 121 117 83
f 83 120 121
f 85 84 122
f 123 84 118
f 84 123 122
f 124 125 85
f 126 124 85
f 85 122 126
f 85 125 86
f 127 86 125
f 128 86 129
f 130 129 86
f 128 87 86
f 86 127 131
f 130 86 131
f 87 132 133
f 87 133 134
f 107 87 134
f 128 135 87
f 87 135 132
f 136 97 88
f 137 138 88
f 88 138 136
f 93 139 88
f 88 139 137
f 140 93 89
f 89 91 140
f 90 92 141
f 90 141 91
f 140 91 142
f 142 91 143
f 143 91 141
f 92 113 141
f 93 140 139
f 144 145 94
f 94 145 95
f 94 97 144
f 146 95 145
f 146 96 95
f 147 96 146
f 98 96 147
f 97 136 144
f 148 98 149
f 148 119 98
f 98 147 149
f 100 150 99
f 99 150 115
f 105 150 100
f 103 151 152
f 103 110 151
f 152 153 103
f 103 153 104
f 154 104 155
f 104 154 106
f 156 155 104
f 104 153 156
f 105 157 150
f 105 158 157
f 106 158 105
f 159 106 160
f 159 158 106
f 161 160 106
f 154 161 106
f 134 162 107
f 107 162 109
f 112 109 162
f 163 151 110
f 110 111 163
f 162 111 112
f 111 162 164
f 163 111 164
f 113 114 141
f 114 116 141
f 115 165 166
f 115 150 165
f 166 167 115
f 167 116 115
f 116 167 168
f 168 141 116
f 169 117 121
f 118 117 169
f 118 169 123
f 170 119 171
f 119 170 120
f 119 148 171
f 170 172 120
f 121 120 172
f 169 121 172
f 126 122 123
f 123 173 172
f 174 123 172
f 126 123 175
f 123 169 176
f 173 123 176
f 175 123 174
f 177 125 124
f 178 124 175
f 175 124 126
f 178 177 124
f 125 177 127
f 177 178 127
f 127 178 179
f 131 127 179
f 180 128 181
f 129 182 128
f 182 183 128
f 184 135 128
f 180 184 128
f 181 128 183
f 185 186 129
f 129 130 185
f 187 182 129
f 129 188 189
f 188 129 186
f 189 187 129
f 185 130 131
f 185 131 190
f 179 191 131
f 191 190 131
f 135 192 132
f 133 132 193
f 132 192 194
f 193 132 194
f 195 134 133
f 196 197 133
f 193 196 133
f 133 197 195
f 164 162 134
f 195 198 134
f 134 198 199
f 200 164 134
f 199 200 134
f 192 135 184
f 201 136 202
f 144 136 203
f 201 203 136
f 204 136 138
f 136 204 205
f 206 202 136
f 205 206 136
f 207 204 137
f 137 204 138
f 207 137 208
f 137 139 209
f 208 137 209
f 139 210 209
f 140 211 139
f 139 211 210
f 140 142 212
f 212 211 140
f 168 143 141
f 213 212 142
f 214 213 142
f 143 215 142
f 142 215 214
f 168 216 143
f 217 143 216
f 218 143 217
f 143 218 219
f 215 143 219
f 145 144 220
f 220 144 203
f 145 220 221
f 221 146 145
f 221 147 146
f 222 147 221
f 222 223 147
f 149 147 224
f 224 147 223
f 225 226 148
f 227 225 148
f 149 228 148
f 171 148 226
f 148 228 227
f 228 149 224
f 150 157 165
f 229 152 151
f 163 229 151
f 230 231 152
f 152 229 230
f 153 152 231
f 156 153 231
f 154 155 232
f 232 161 154
f 156 232 155
f 156 231 233
f 156 234 235
f 156 236 232
f 156 233 234
f 235 237 156
f 156 237 236
f 157 158 165
f 159 238 158
f 165 158 238
f 159 239 238
f 160 239 159
f 240 241 160
f 160 161 240
f 241 239 160
f 161 232 236
f 240 161 236
f 163 164 229
f 242 229 164
f 200 242 164
f 243 166 165
f 165 238 243
f 166 243 244
f 216 166 244
f 167 166 216
f 168 167 216
f 172 176 169
f 245 170 246
f 246 170 171
f 247 170 245
f 172 170 247
f 246 171 248
f 226 249 171
f 249 248 171
f 172 247 250
f 251 172 250
f 172 173 176
f 172 252 174
f 253 172 251
f 172 253 252
f 174 252 175
f 175 252 178
f 178 254 179
f 178 252 254
f 255 179 254
f 179 255 191
f 256 184 180
f 257 180 181
f 257 256 180
f 258 181 259
f 258 260 181
f 259 181 183
f 181 260 257
f 183 182 261
f 261 182 187
f 261 259 183
f 184 256 262
f 184 262 192
f 190 263 185
f 185 263 186
f 264 186 265
f 264 188 186
f 263 265 186
f 261 187 259
f 259 187 189
f 188 264 259
f 189 188 259
f 191 266 190
f 263 190 266
f 191 255 266
f 257 194 192
f 192 262 257
f 267 196 193
f 193 194 267
f 268 267 194
f 257 268 194
f 269 195 197
f 270 198 195
f 271 270 195
f 269 271 195
f 267 272 196
f 196 272 197
f 197 273 274
f 269 197 274
f 272 273 197
f 198 270 199
f 275 200 199
f 271 199 270
f 276 275 199
f 271 276 199
f 200 277 278
f 278 242 200
f 200 275 277
f 201 279 203
f 201 202 279
f 202 206 279
f 203 280 220
f 280 203 279
f 204 207 205
f 281 205 282
f 205 207 283
f 282 205 283
f 281 206 205
f 206 281 279
f 208 283 207
f 209 284 208
f 208 284 283
f 285 209 210
f 284 209 285
f 286 210 212
f 211 212 210
f 286 285 210
f 212 213 286
f 286 213 272
f 213 273 272
f 273 213 214
f 215 273 214
f 273 215 274
f 274 215 219
f 216 244 217
f 287 218 217
f 288 289 217
f 217 244 288
f 290 217 289
f 217 290 287
f 291 218 287
f 218 291 271
f 219 218 271
f 274 219 271
f 292 293 220
f 220 294 221
f 295 296 220
f 295 220 297
f 297 220 280
f 296 292 220
f 294 220 293
f 298 221 294
f 221 299 222
f 298 299 221
f 299 300 222
f 223 222 301
f 301 222 300
f 223 301 302
f 227 224 223
f 225 227 223
f 223 303 225
f 223 302 303
f 227 228 224
f 225 303 226
f 304 226 303
f 226 304 305
f 305 306 226
f 226 306 307
f 307 308 226
f 226 308 309
f 226 309 310
f 249 226 310
f 230 229 242
f 230 233 231
f 233 230 234
f 230 235 234
f 235 230 311
f 230 312 311
f 242 313 230
f 313 312 230
f 311 314 235
f 237 235 314
f 237 240 236
f 240 237 314
f 315 316 238
f 239 315 238
f 316 243 238
f 317 315 239
f 241 317 239
f 318 240 319
f 240 318 241
f 314 319 240
f 318 317 241
f 320 242 278
f 320 313 242
f 244 243 316
f 288 244 316
f 321 322 245
f 322 247 245
f 323 245 324
f 245 246 324
f 323 321 245
f 248 325 246
f 325 324 246
f 326 250 247
f 322 326 247
f 327 325 248
f 328 327 248
f 248 249 328
f 328 249 329
f 249 310 330
f 329 249 330
f 251 250 326
f 331 332 251
f 253 251 333
f 333 251 334
f 334 251 332
f 331 251 326
f 254 252 253
f 335 336 253
f 337 338 253
f 337 253 333
f 335 253 338
f 253 336 254
f 336 339 254
f 255 254 340
f 254 339 340
f 255 341 266
f 255 340 341
f 262 256 257
f 342 268 257
f 343 342 257
f 343 257 344
f 260 344 257
f 345 258 259
f 345 344 258
f 258 344 260
f 259 346 345
f 259 264 346
f 263 266 341
f 341 347 263
f 263 347 265
f 348 264 349
f 265 349 264
f 348 346 264
f 350 265 351
f 347 351 265
f 349 265 350
f 286 272 267
f 352 267 268
f 353 285 267
f 267 285 286
f 267 352 353
f 342 352 268
f 269 274 271
f 291 276 271
f 354 277 275
f 275 276 354
f 276 291 355
f 354 276 355
f 354 278 277
f 354 355 278
f 278 356 357
f 356 278 358
f 278 290 358
f 290 278 355
f 320 278 357
f 279 359 280
f 360 279 281
f 359 279 361
f 360 361 279
f 362 297 280
f 362 280 359
f 281 363 360
f 282 363 281
f 282 283 364
f 364 365 282
f 282 365 363
f 284 364 283
f 353 284 285
f 364 284 353
f 287 355 291
f 287 290 355
f 288 315 366
f 288 367 289
f 366 368 288
f 288 368 367
f 288 316 315
f 358 289 367
f 358 290 289
f 292 369 293
f 292 296 370
f 292 370 371
f 371 369 292
f 294 293 372
f 373 372 293
f 293 369 373
f 294 372 374
f 294 374 375
f 376 294 377
f 375 377 294
f 378 298 294
f 379 294 380
f 294 379 381
f 294 381 382
f 294 382 383
f 383 378 294
f 380 294 376
f 384 295 297
f 295 385 386
f 386 387 295
f 387 388 295
f 389 295 384
f 390 296 295
f 388 390 295
f 389 385 295
f 391 296 390
f 391 370 296
f 392 297 362
f 297 393 384
f 393 297 392
f 298 394 299
f 378 395 298
f 309 394 298
f 395 309 298
f 299 396 397
f 299 397 398
f 398 399 299
f 299 399 300
f 396 299 394
f 400 401 300
f 400 300 399
f 300 401 402
f 402 301 300
f 302 301 402
f 402 403 302
f 303 302 403
f 403 304 303
f 403 404 304
f 305 304 404
f 404 400 305
f 305 400 306
f 405 306 406
f 400 406 306
f 405 307 306
f 405 308 307
f 396 309 308
f 397 396 308
f 397 308 405
f 310 309 395
f 394 309 396
f 310 407 408
f 310 408 330
f 310 395 409
f 409 407 310
f 410 311 411
f 412 413 311
f 311 414 314
f 410 414 311
f 411 311 413
f 311 312 412
f 356 412 312
f 312 357 356
f 357 312 320
f 320 312 313
f 414 415 314
f 314 415 319
f 366 315 317
f 317 318 366
f 318 319 416
f 318 417 366
f 416 417 318
f 415 416 319
f 418 321 419
f 419 321 420
f 321 418 322
f 420 321 421
f 323 422 321
f 422 421 321
f 418 326 322
f 323 423 424
f 423 323 324
f 424 425 323
f 323 425 426
f 422 323 427
f 323 426 427
f 428 324 325
f 324 428 423
f 429 430 325
f 325 327 429
f 325 430 428
f 326 419 331
f 418 419 326
f 329 327 328
f 327 329 429
f 431 432 329
f 431 329 330
f 329 432 429
f 408 431 330
f 433 331 419
f 331 433 332
f 334 332 434
f 433 434 332
f 334 435 333
f 333 435 337
f 434 436 334
f 334 436 435
f 335 338 437
f 335 437 336
f 437 339 336
f 337 438 439
f 439 338 337
f 337 435 438
f 440 338 439
f 440 437 338
f 437 340 339
f 437 341 340
f 347 341 441
f 441 341 437
f 442 443 342
f 343 442 342
f 443 352 342
f 343 344 444
f 444 442 343
f 344 445 444
f 345 446 344
f 344 446 445
f 345 346 348
f 348 446 345
f 347 441 351
f 349 447 348
f 447 448 348
f 348 448 446
f 350 449 349
f 447 349 450
f 450 349 449
f 350 451 449
f 351 451 350
f 452 351 453
f 441 453 351
f 452 451 351
f 353 352 443
f 353 443 364
f 454 412 356
f 454 356 455
f 455 356 358
f 455 358 367
f 362 359 456
f 456 359 361
f 363 457 360
f 360 457 458
f 361 360 458
f 456 361 459
f 458 459 361
f 362 456 392
f 365 457 363
f 460 365 364
f 364 461 460
f 364 462 463
f 461 364 463
f 462 364 464
f 464 364 443
f 458 457 365
f 460 458 365
f 465 466 366
f 417 467 366
f 366 467 465
f 466 368 366
f 367 368 466
f 468 367 466
f 367 468 469
f 367 469 455
f 373 369 470
f 369 371 470
f 471 371 370
f 391 471 370
f 472 470 371
f 472 371 471
f 372 473 374
f 474 473 372
f 372 373 474
f 373 470 475
f 373 475 476
f 474 373 476
f 374 477 478
f 478 479 374
f 374 473 477
f 375 374 479
f 375 479 480
f 375 481 377
f 375 480 481
f 482 376 377
f 376 483 380
f 482 483 376
f 377 484 482
f 377 485 486
f 377 486 484
f 485 377 487
f 487 377 481
f 378 488 395
f 489 378 383
f 378 490 488
f 378 489 490
f 379 491 492
f 379 380 491
f 381 379 492
f 493 491 380
f 380 483 494
f 493 380 494
f 495 382 381
f 496 495 381
f 496 381 492
f 497 383 382
f 498 499 382
f 382 495 498
f 382 499 497
f 497 489 383
f 389 384 500
f 384 393 500
f 385 501 386
f 389 501 385
f 386 502 503
f 503 504 386
f 386 504 505
f 387 386 505
f 506 386 501
f 506 502 386
f 388 387 505
f 507 475 388
f 505 507 388
f 475 472 388
f 388 472 471
f 388 471 391
f 388 391 390
f 500 501 389
f 456 508 392
f 393 392 508
f 393 509 500
f 509 393 510
f 393 508 510
f 395 511 409
f 511 395 488
f 398 397 405
f 398 405 406
f 406 399 398
f 400 399 406
f 400 404 401
f 401 404 403
f 402 401 403
f 512 407 409
f 408 407 512
f 513 431 408
f 514 513 408
f 512 514 408
f 512 409 515
f 515 409 511
f 410 516 414
f 411 517 410
f 410 517 516
f 413 518 411
f 517 411 518
f 519 412 454
f 413 412 519
f 413 519 520
f 413 520 518
f 415 414 516
f 521 415 516
f 416 415 521
f 417 416 522
f 416 521 522
f 417 522 523
f 524 525 417
f 417 525 467
f 523 526 417
f 526 524 417
f 527 419 528
f 419 420 528
f 419 527 433
f 528 420 529
f 529 420 421
f 530 529 421
f 530 421 531
f 422 531 421
f 427 531 422
f 532 423 428
f 423 532 533
f 424 423 534
f 423 533 534
f 534 425 424
f 535 425 534
f 425 536 426
f 537 425 535
f 538 425 539
f 425 537 539
f 538 536 425
f 540 541 426
f 426 536 542
f 542 540 426
f 426 543 427
f 543 426 544
f 544 426 541
f 427 543 531
f 428 545 532
f 428 430 545
f 429 432 430
f 545 430 432
f 546 547 431
f 431 513 546
f 432 431 547
f 547 545 432
f 433 548 434
f 433 527 548
f 436 434 549
f 434 548 549
f 436 438 435
f 438 436 550
f 550 436 549
f 551 441 437
f 437 440 551
f 550 552 438
f 439 438 553
f 438 552 553
f 554 555 439
f 439 553 554
f 440 439 555
f 551 440 555
f 453 441 556
f 556 441 551
f 443 442 464
f 442 444 557
f 464 442 557
f 557 444 558
f 444 445 558
f 558 445 559
f 446 559 445
f 448 559 446
f 560 561 447
f 450 560 447
f 561 562 447
f 447 562 559
f 559 448 447
f 451 560 449
f 450 449 560
f 560 451 452
f 453 563 452
f 452 563 564
f 452 564 560
f 556 565 453
f 563 453 565
f 454 566 519
f 455 566 454
f 455 469 566
f 456 567 508
f 567 456 459
f 460 568 458
f 569 570 458
f 458 570 459
f 571 569 458
f 572 571 458
f 572 458 568
f 567 459 573
f 570 573 459
f 460 461 568
f 461 463 574
f 461 574 568
f 464 557 462
f 463 462 557
f 574 463 557
f 465 467 575
f 575 468 465
f 465 468 466
f 467 525 575
f 468 575 576
f 469 468 576
f 469 576 566
f 472 475 470
f 473 577 477
f 578 473 474
f 473 578 577
f 474 476 578
f 579 580 475
f 581 579 475
f 475 507 581
f 580 578 475
f 475 578 476
f 477 582 478
f 582 477 583
f 583 477 577
f 478 584 585
f 584 478 586
f 585 587 478
f 582 586 478
f 479 478 587
f 587 480 479
f 588 481 480
f 480 587 588
f 588 487 481
f 589 590 482
f 482 484 589
f 483 482 591
f 591 482 590
f 591 494 483
f 484 592 589
f 486 593 484
f 484 593 592
f 594 485 595
f 487 596 485
f 485 585 595
f 485 596 585
f 485 594 597
f 486 485 597
f 597 593 486
f 596 487 588
f 498 488 598
f 511 488 498
f 598 488 490
f 598 489 497
f 490 489 598
f 493 492 491
f 599 496 492
f 599 492 493
f 600 599 493
f 600 493 601
f 601 493 494
f 591 601 494
f 498 495 602
f 602 495 496
f 602 496 599
f 499 598 497
f 498 602 511
f 498 598 499
f 552 501 500
f 509 552 500
f 552 506 501
f 503 502 603
f 603 502 604
f 502 506 604
f 503 605 595
f 503 511 602
f 605 503 602
f 595 584 503
f 606 511 503
f 503 603 606
f 586 503 584
f 503 586 607
f 607 504 503
f 608 504 607
f 504 608 581
f 504 609 505
f 504 581 609
f 609 507 505
f 552 604 506
f 507 609 581
f 610 611 508
f 510 508 611
f 508 567 610
f 553 552 509
f 612 554 509
f 509 554 553
f 509 510 613
f 612 509 613
f 611 614 510
f 510 614 613
f 606 515 511
f 515 615 512
f 512 615 514
f 513 615 606
f 615 513 514
f 606 603 513
f 513 616 546
f 513 603 616
f 606 615 515
f 617 618 516
f 516 517 617
f 521 516 619
f 619 516 618
f 617 517 518
f 617 518 520
f 620 520 519
f 566 620 519
f 520 621 617
f 621 520 622
f 622 520 620
f 522 521 619
f 522 619 523
f 523 619 623
f 526 523 623
f 624 525 524
f 524 526 624
f 625 575 525
f 624 626 525
f 525 626 625
f 624 526 623
f 527 537 548
f 528 627 527
f 527 627 537
f 528 628 629
f 627 528 629
f 528 529 628
f 530 630 529
f 630 631 529
f 628 529 631
f 632 530 531
f 633 530 632
f 633 630 530
f 543 634 531
f 531 634 635
f 635 632 531
f 636 532 545
f 636 533 532
f 637 534 533
f 533 636 637
f 534 637 535
f 535 636 616
f 636 535 637
f 535 616 537
f 538 638 536
f 638 542 536
f 549 548 537
f 616 549 537
f 639 539 537
f 537 627 639
f 538 539 640
f 538 640 638
f 640 539 639
f 540 542 641
f 540 642 643
f 644 642 540
f 641 644 540
f 540 643 541
f 544 541 645
f 643 645 541
f 646 641 542
f 638 646 542
f 647 543 544
f 543 647 634
f 648 647 544
f 648 544 645
f 547 636 545
f 547 546 636
f 636 546 616
f 549 616 603
f 603 649 549
f 549 649 550
f 552 550 604
f 604 550 649
f 551 555 650
f 556 551 650
f 612 651 554
f 554 651 555
f 651 650 555
f 556 650 565
f 574 557 558
f 574 558 652
f 558 559 562
f 562 652 558
f 561 560 653
f 653 560 564
f 654 561 655
f 656 655 561
f 653 656 561
f 654 562 561
f 654 657 562
f 658 652 562
f 562 657 658
f 563 659 564
f 659 563 565
f 653 564 656
f 659 660 564
f 660 656 564
f 650 661 565
f 565 662 659
f 661 663 565
f 565 663 662
f 576 620 566
f 567 573 610
f 574 572 568
f 664 569 665
f 666 667 569
f 664 666 569
f 569 571 658
f 665 569 658
f 667 668 569
f 569 668 570
f 668 573 570
f 658 571 652
f 652 571 572
f 652 572 574
f 668 610 573
f 625 576 575
f 669 620 576
f 625 669 576
f 580 577 578
f 580 583 577
f 580 579 670
f 670 579 671
f 608 579 581
f 579 608 671
f 670 583 580
f 586 582 670
f 670 582 583
f 595 585 584
f 596 672 585
f 672 587 585
f 670 671 586
f 607 586 671
f 588 587 672
f 588 672 596
f 589 592 590
f 673 591 590
f 590 592 673
f 600 601 591
f 600 591 673
f 592 674 673
f 593 674 592
f 597 674 593
f 594 673 674
f 594 595 605
f 673 594 605
f 594 674 597
f 599 605 602
f 605 599 600
f 600 673 605
f 649 603 604
f 607 671 608
f 611 610 675
f 610 667 666
f 675 610 666
f 667 610 668
f 676 611 675
f 611 676 614
f 677 612 613
f 612 677 678
f 651 612 678
f 679 677 613
f 614 679 613
f 680 679 614
f 676 680 614
f 617 621 618
f 623 619 618
f 618 681 623
f 618 621 681
f 669 622 620
f 681 621 622
f 681 622 682
f 682 622 669
f 624 623 682
f 681 682 623
f 682 626 624
f 625 626 669
f 626 682 669
f 639 627 629
f 629 628 631
f 631 683 629
f 683 639 629
f 630 684 685
f 630 685 686
f 686 631 630
f 630 633 684
f 686 683 631
f 633 632 635
f 633 635 687
f 684 633 687
f 688 634 647
f 689 634 688
f 689 635 634
f 689 687 635
f 640 690 638
f 691 646 638
f 690 691 638
f 683 640 639
f 640 683 690
f 641 646 692
f 692 644 641
f 693 642 644
f 694 642 695
f 693 695 642
f 643 642 696
f 696 642 694
f 696 645 643
f 692 697 644
f 644 698 699
f 693 644 699
f 698 644 697
f 645 696 700
f 648 645 700
f 692 646 691
f 648 700 647
f 701 647 700
f 702 647 701
f 647 702 688
f 661 650 651
f 651 678 661
f 655 665 654
f 654 665 657
f 655 656 703
f 665 655 703
f 703 656 704
f 704 656 660
f 657 665 658
f 705 660 659
f 659 662 705
f 705 704 660
f 663 661 678
f 662 663 705
f 663 678 677
f 706 663 677
f 706 705 663
f 707 666 664
f 664 703 707
f 664 665 703
f 675 666 707
f 708 675 707
f 708 676 675
f 680 676 708
f 677 679 706
f 679 680 709
f 706 679 709
f 708 709 680
f 683 686 690
f 687 710 684
f 684 711 685
f 684 710 711
f 712 690 685
f 690 686 685
f 712 685 711
f 689 713 687
f 687 713 710
f 689 688 714
f 715 716 688
f 716 717 688
f 702 715 688
f 717 718 688
f 718 714 688
f 714 719 689
f 689 719 713
f 690 720 691
f 690 712 720
f 720 692 691
f 692 720 721
f 721 697 692
f 693 699 722
f 722 695 693
f 696 694 695
f 722 723 695
f 695 723 696
f 696 701 700
f 723 701 696
f 724 725 697
f 721 724 697
f 725 698 697
f 726 698 727
f 728 699 698
f 726 728 698
f 698 729 727
f 729 698 725
f 722 699 728
f 730 702 701
f 731 701 723
f 701 731 730
f 715 702 730
f 703 704 706
f 706 732 703
f 732 707 703
f 706 704 705
f 732 706 709
f 707 732 708
f 708 732 709
f 713 733 710
f 710 733 711
f 733 734 711
f 711 734 712
f 735 720 712
f 736 712 737
f 712 738 735
f 736 738 712
f 734 737 712
f 713 739 733
f 719 739 713
f 714 718 740
f 741 714 740
f 714 741 719
f 742 716 715
f 743 742 715
f 731 744 715
f 730 731 715
f 744 745 715
f 715 745 743
f 716 746 717
f 716 747 746
f 716 742 747
f 746 718 717
f 746 740 718
f 748 719 741
f 748 739 719
f 736 721 720
f 735 738 720
f 720 738 736
f 749 724 721
f 736 749 721
f 728 723 722
f 728 731 723
f 750 724 751
f 724 752 753
f 725 724 750
f 724 749 752
f 724 753 754
f 755 751 724
f 754 755 724
f 756 725 757
f 750 757 725
f 729 725 756
f 728 726 758
f 727 759 726
f 726 759 758
f 760 761 727
f 762 760 727
f 761 759 727
f 727 729 762
f 744 731 728
f 763 743 728
f 758 763 728
f 728 743 745
f 728 745 744
f 756 762 729
f 734 733 739
f 737 734 764
f 764 734 739
f 737 749 736
f 764 752 737
f 749 737 752
f 739 753 752
f 764 739 752
f 753 739 748
f 740 746 765
f 766 740 765
f 741 740 767
f 767 740 766
f 741 768 754
f 748 741 754
f 768 741 769
f 769 741 767
f 770 747 742
f 742 743 770
f 771 770 743
f 763 771 743
f 765 746 772
f 773 746 747
f 746 773 774
f 775 746 774
f 775 772 746
f 770 773 747
f 748 754 753
f 757 750 776
f 750 751 776
f 777 776 751
f 751 755 777
f 768 755 754
f 755 768 777
f 778 756 757
f 762 756 778
f 776 778 757
f 779 763 758
f 758 761 779
f 758 759 761
f 760 780 761
f 762 781 760
f 782 760 783
f 783 760 781
f 782 780 760
f 780 775 761
f 779 761 784
f 784 761 775
f 762 785 781
f 762 778 785
f 779 771 763
f 786 765 772
f 766 765 787
f 788 787 765
f 789 788 765
f 786 789 765
f 769 767 766
f 766 790 769
f 790 766 787
f 769 777 768
f 769 790 777
f 774 770 771
f 773 770 774
f 784 771 779
f 784 774 771
f 780 772 775
f 786 772 780
f 775 774 784
f 778 776 791
f 776 792 793
f 791 776 793
f 794 792 776
f 777 794 776
f 790 794 777
f 785 778 791
f 782 786 780
f 781 785 783
f 795 786 782
f 783 793 782
f 793 796 782
f 796 795 782
f 783 791 793
f 783 785 791
f 795 789 786
f 794 790 787
f 797 794 787
f 787 798 797
f 787 788 798
f 788 795 796
f 798 788 796
f 795 788 789
f 797 793 792
f 792 794 797
f 798 796 793
f 797 798 793
