# Generated by Visualization Toolkit
v -0.047175001353025436 0.4335139989852905 -0.13294200599193573
v -0.0485370010137558 0.4316830039024353 -0.13253599405288696
v -0.04562700167298317 0.4324989914894104 -0.13157899677753448
v -0.04529400169849396 0.4358769953250885 -0.13387000560760498
v -0.04896099865436554 0.43227699398994446 -0.13369299471378326
v -0.04659000039100647 0.4366990029811859 -0.1363310068845749
v -0.046105001121759415 0.42875298857688904 -0.12982599437236786
v -0.04800000041723251 0.4268459975719452 -0.13018600642681122
v -0.049309998750686646 0.4299910068511963 -0.1325480043888092
v -0.04364699870347977 0.43010199069976807 -0.12985500693321228
v -0.041060999035835266 0.4312629997730255 -0.13013899326324463
v -0.04054800048470497 0.438416987657547 -0.13579900562763214
v -0.038637999445199966 0.4324690103530884 -0.13077400624752045
v -0.04244599863886833 0.4390319883823395 -0.13829299807548523
v -0.050025999546051025 0.43047699332237244 -0.1340170055627823
v -0.048673998564481735 0.43501898646354675 -0.1367570012807846
v -0.0475739985704422 0.43690600991249084 -0.13817700743675232
v -0.04606400057673454 0.43821701407432556 -0.13936999440193176
v -0.04381199926137924 0.42337900400161743 -0.13147400319576263
v -0.04594400152564049 0.4238690137863159 -0.13118800520896912
v -0.04967999830842018 0.4247269928455353 -0.13068699836730957
v -0.05025099962949753 0.4290870130062103 -0.13332599401474
v -0.041432999074459076 0.42701399326324463 -0.13103200495243073
v -0.03901999816298485 0.4277929961681366 -0.13188500702381134
v -0.03606899827718735 0.43377599120140076 -0.13168799877166748
v -0.034366998821496964 0.44017601013183594 -0.13896800577640533
v -0.0352029986679554 0.43740901350975037 -0.1353130042552948
v -0.03929800167679787 0.4398860037326813 -0.1408820003271103
v -0.03595200181007385 0.44059500098228455 -0.14236000180244446
v -0.03663399815559387 0.4290420114994049 -0.13270699977874756
v -0.044071000069379807 0.43924999237060547 -0.14091800153255463
v -0.04112499952316284 0.4400329887866974 -0.14365899562835693
v -0.05066400021314621 0.4285440146923065 -0.1351650059223175
v -0.051360998302698135 0.4260439872741699 -0.1342950016260147
v -0.04998200014233589 0.4309209883213043 -0.13697299361228943
v -0.04895700141787529 0.43316298723220825 -0.13877299427986145
v -0.04748699814081192 0.43540599942207336 -0.1408340036869049
v -0.047054000198841095 0.4343099892139435 -0.143886998295784
v -0.0425879992544651 0.43693700432777405 -0.14752399921417236
v -0.04489700123667717 0.4357849955558777 -0.14562100172042847
v -0.03966600075364113 0.4239090085029602 -0.13273000717163086
v -0.05189400166273117 0.41442999243736267 -0.13576899468898773
v -0.044690001755952835 0.41760098934173584 -0.13582800328731537
v -0.041106998920440674 0.42165499925613403 -0.13319499790668488
v -0.04723000153899193 0.42315199971199036 -0.1311510056257248
v -0.050762999802827835 0.4195829927921295 -0.13286200165748596
v -0.05258199945092201 0.41889500617980957 -0.13304300606250763
v -0.05234599858522415 0.4213719964027405 -0.13190899789333344
v -0.05186000093817711 0.42449599504470825 -0.13312900066375732
v -0.051562000066041946 0.42339301109313965 -0.13206300139427185
v -0.05293000116944313 0.42357900738716125 -0.13526499271392822
v -0.034175001084804535 0.42660900950431824 -0.13485799729824066
v -0.03058299981057644 0.4322740137577057 -0.13500000536441803
v -0.02985999919474125 0.4363250136375427 -0.13474899530410767
v -0.03218400105834007 0.43852800130844116 -0.13700200617313385
v -0.03136400133371353 0.4397279918193817 -0.1432809978723526
v -0.034348998218774796 0.4404279887676239 -0.1451369971036911
v -0.020029999315738678 0.434673011302948 -0.1447100043296814
v -0.03408300131559372 0.4394580125808716 -0.15310700237751007
v -0.03806700184941292 0.4389140009880066 -0.15014800429344177
v -0.03212200105190277 0.4406850039958954 -0.15112200379371643
v -0.04042999818921089 0.4387879967689514 -0.14702099561691284
v -0.0510529987514019 0.42705899477005005 -0.13715800642967224
v -0.053289998322725296 0.4227350056171417 -0.1367660015821457
v -0.050182998180389404 0.42950400710105896 -0.13925500214099884
v -0.04960700124502182 0.4302330017089844 -0.14305000007152557
v -0.04901599884033203 0.43123701214790344 -0.15207499265670776
v -0.05086100101470947 0.42936500906944275 -0.14946499466896057
v -0.04876299947500229 0.4284310042858124 -0.1680459976196289
v -0.040337998420000076 0.4342609941959381 -0.15901799499988556
v -0.03882899880409241 0.42213499546051025 -0.1343419998884201
v -0.04776399955153465 0.41442400217056274 -0.13789400458335876
v -0.055077001452445984 0.4131320118904114 -0.13582900166511536
v -0.05852700024843216 0.4062829911708832 -0.1396380066871643
v -0.04997299984097481 0.41147300601005554 -0.14023099839687347
v -0.051224999129772186 0.41749900579452515 -0.1338289976119995
v -0.053693000227212906 0.41613298654556274 -0.13429200649261475
v -0.04240500181913376 0.41720399260520935 -0.13754400610923767
v -0.04035000130534172 0.41993099451065063 -0.13544699549674988
v -0.054875001311302185 0.4185110032558441 -0.13280099630355835
v -0.05389399826526642 0.4203529953956604 -0.13312500715255737
v -0.05422599986195564 0.42124900221824646 -0.135453000664711
v -0.05309399962425232 0.42216598987579346 -0.13331300020217896
v -0.05531900003552437 0.42024800181388855 -0.13856099545955658
v -0.029123999178409576 0.42669200897216797 -0.13853999972343445
v -0.03143800050020218 0.42823299765586853 -0.1357710063457489
v -0.033670999109745026 0.42462700605392456 -0.13666799664497375
v -0.028209000825881958 0.42931801080703735 -0.1369680017232895
v -0.027363000437617302 0.4331820011138916 -0.1364549994468689
v -0.03185100108385086 0.4403209984302521 -0.14723899960517883
v -0.029608000069856644 0.4403020143508911 -0.14895200729370117
v -0.027442999184131622 0.440203994512558 -0.1505430042743683
v -0.017403999343514442 0.4391309916973114 -0.15413500368595123
v -0.02168699912726879 0.4321080148220062 -0.14211100339889526
v -0.01738799922168255 0.4344640076160431 -0.14667999744415283
v -0.03611600026488304 0.4385150074958801 -0.15302999317646027
v -0.03269299864768982 0.43874800205230713 -0.15510599315166473
v -0.038013000041246414 0.43514999747276306 -0.15813900530338287
v -0.02739899978041649 0.44038400053977966 -0.15458600223064423
v -0.0290910005569458 0.439179003238678 -0.1559789925813675
v -0.03138900175690651 0.4394409954547882 -0.15426400303840637
v -0.05400099977850914 0.422544002532959 -0.14050200581550598
v -0.0507499985396862 0.4284670054912567 -0.14477300643920898
v -0.051235999912023544 0.42926499247550964 -0.15392999351024628
v -0.050967998802661896 0.42939499020576477 -0.1616079956293106
v -0.05243999883532524 0.4284290075302124 -0.15940000116825104
v -0.05192200094461441 0.4288730025291443 -0.1568640023469925
v -0.05575399845838547 0.42373400926589966 -0.15511199831962585
v -0.05050100013613701 0.4286479949951172 -0.16519199311733246
v -0.04567199945449829 0.4274199903011322 -0.16893500089645386
v -0.043692998588085175 0.430866003036499 -0.16539600491523743
v -0.04922899976372719 0.42702099680900574 -0.16943100094795227
v -0.0517750009894371 0.4263649880886078 -0.1701049953699112
v -0.0349310003221035 0.42972999811172485 -0.15704700350761414
v -0.03633200004696846 0.4285849928855896 -0.15844200551509857
v -0.031530000269412994 0.43193700909614563 -0.15626999735832214
v -0.039785999804735184 0.43017399311065674 -0.16105300188064575
v -0.0477290004491806 0.4084259867668152 -0.14539900422096252
v -0.06115400046110153 0.40275299549102783 -0.1409360021352768
v -0.060068000108003616 0.3993160128593445 -0.14379200339317322
v -0.06089299917221069 0.40734899044036865 -0.1368809938430786
v -0.05623200163245201 0.40205100178718567 -0.14467300474643707
v -0.05896199867129326 0.4164009988307953 -0.13182899355888367
v -0.04028100147843361 0.417508989572525 -0.13960899412631989
v -0.04224700108170509 0.4148150086402893 -0.1418129950761795
v -0.029975999146699905 0.42235100269317627 -0.1441809982061386
v -0.03290000185370445 0.4222570061683655 -0.14081700146198273
v -0.03325999900698662 0.4234980046749115 -0.1384049952030182
v -0.0673379972577095 0.41237398982048035 -0.1372860074043274
v -0.05749199911952019 0.4175820052623749 -0.13578400015830994
v -0.05588199943304062 0.420524001121521 -0.14341899752616882
v -0.030762000009417534 0.4247870147228241 -0.1392820030450821
v -0.029071999713778496 0.42505401372909546 -0.14044199883937836
v -0.027310000732541084 0.4252620041370392 -0.1415189951658249
v -0.024157999083399773 0.4276120066642761 -0.14100000262260437
v -0.024992000311613083 0.4302150011062622 -0.1384509950876236
v -0.0217250008136034 0.4397119879722595 -0.1583459973335266
v -0.02461099997162819 0.4400559961795807 -0.15647000074386597
v -0.019395999610424042 0.439518004655838 -0.1560879945755005
v -0.015414999797940254 0.43869200348854065 -0.15503500401973724
v -0.015112999826669693 0.4366450011730194 -0.15171200037002563
v -0.014821999706327915 0.4388970136642456 -0.15908899903297424
v -0.020762000232934952 0.4294619858264923 -0.14218300580978394
v -0.018125999718904495 0.4293070137500763 -0.144663006067276
v -0.01182899996638298 0.4342139959335327 -0.15043799579143524
v -0.013663999736309052 0.43139201402664185 -0.14872099459171295
v -0.012556999921798706 0.43631500005722046 -0.15341900289058685
v -0.0332150012254715 0.4369080066680908 -0.15759800374507904
v -0.025829000398516655 0.4390380084514618 -0.15755100548267365
v -0.0274679996073246 0.4377700090408325 -0.15903900563716888
v -0.05611199885606766 0.42118901014328003 -0.1479959934949875
v -0.05190400034189224 0.4281280040740967 -0.16329500079154968
v -0.05544599890708923 0.42530399560928345 -0.15948699414730072
v -0.05548499897122383 0.42454099655151367 -0.1654839962720871
v -0.06071000173687935 0.41433900594711304 -0.15872499346733093
v -0.056999001652002335 0.420632004737854 -0.1537729948759079
v -0.056400999426841736 0.42353200912475586 -0.15752799808979034
v -0.05652699992060661 0.4209659993648529 -0.15115299820899963
v -0.05471799895167351 0.4245010018348694 -0.16927899420261383
v -0.04462999850511551 0.4281190037727356 -0.16842299699783325
v -0.04896000027656555 0.42454299330711365 -0.17073999345302582
v -0.050551000982522964 0.4255410134792328 -0.17063499987125397
v -0.04365000128746033 0.42736300826072693 -0.16843800246715546
v -0.04459799826145172 0.4262480139732361 -0.1690569967031479
v -0.04534799978137016 0.4248430132865906 -0.1694590002298355
v -0.037967998534440994 0.4264270067214966 -0.1654990017414093
v -0.03775399923324585 0.4268040060997009 -0.1638450026512146
v -0.040463000535964966 0.42778700590133667 -0.16635699570178986
v -0.04020899906754494 0.4294559955596924 -0.1624000072479248
v -0.05347499996423721 0.42465001344680786 -0.1713380068540573
v -0.054016999900341034 0.42457300424575806 -0.17071600258350372
v -0.03453199937939644 0.42601099610328674 -0.15694600343704224
v -0.03017999976873398 0.4278149902820587 -0.15424099564552307
v -0.03156900033354759 0.4253329932689667 -0.15375100076198578
v -0.03323899954557419 0.4248110055923462 -0.15560799837112427
v -0.03714200109243393 0.427729994058609 -0.1597830057144165
v -0.03542700037360191 0.4248239994049072 -0.15834200382232666
v -0.02957800030708313 0.4300670027732849 -0.15507499873638153
v -0.025937000289559364 0.42853599786758423 -0.15443000197410583
v -0.025498000904917717 0.4305959939956665 -0.15616799890995026
v -0.05132399871945381 0.4035789966583252 -0.14698399603366852
v -0.04841599985957146 0.40394100546836853 -0.1491290032863617
v -0.04530100151896477 0.40625399351119995 -0.1503860056400299
v -0.04183400049805641 0.4133940041065216 -0.14577899873256683
v -0.06242100149393082 0.39643600583076477 -0.14439299702644348
v -0.062609001994133 0.4046129882335663 -0.1382019966840744
v -0.05784099921584129 0.3955880105495453 -0.14785300195217133
v -0.06697700172662735 0.41511300206184387 -0.12081000208854675
v -0.06541100144386292 0.419607013463974 -0.12070100009441376
v -0.0676330029964447 0.4183320105075836 -0.12154900282621384
v -0.037342000752687454 0.41817501187324524 -0.14284999668598175
v -0.030274000018835068 0.42359399795532227 -0.14163300395011902
v -0.03271099925041199 0.4213539958000183 -0.14763300120830536
v -0.025119999423623085 0.4232749938964844 -0.14835600554943085
v -0.10810799896717072 0.40426400303840637 -0.10897000133991241
v -0.06737300008535385 0.41165098547935486 -0.14609399437904358
v -0.025335000827908516 0.4254780113697052 -0.14271900057792664
v -0.02609100006520748 0.42401498556137085 -0.14476600289344788
v -0.023267999291419983 0.4255940020084381 -0.14411099255084991
v -0.01900400035083294 0.4276849925518036 -0.14495299756526947
v -0.024139000102877617 0.43772101402282715 -0.16057300567626953
v -0.019039999693632126 0.4394420087337494 -0.1600160002708435
v -0.01737000048160553 0.43715700507164 -0.16562199592590332
v -0.01337399985641241 0.4382610023021698 -0.15638400614261627
v -0.016666000708937645 0.4390850067138672 -0.16163399815559387
v -0.013287000358104706 0.4374150037765503 -0.16493499279022217
v -0.014914999715983868 0.43838098645210266 -0.1633089929819107
v -0.011495999991893768 0.437377005815506 -0.158050999045372
v -0.011416000314056873 0.437034010887146 -0.16235999763011932
v -0.012896999716758728 0.4282900094985962 -0.1494559943675995
v -0.01069399993866682 0.4306960105895996 -0.1511940062046051
v -0.009453999809920788 0.4340679943561554 -0.15222400426864624
v -0.009681000374257565 0.4363439977169037 -0.1597130000591278
v -0.02293499931693077 0.43381500244140625 -0.1594409942626953
v -0.05628899857401848 0.42427799105644226 -0.16164599359035492
v -0.05900600180029869 0.42026200890541077 -0.16837100684642792
v -0.06334900110960007 0.4133409857749939 -0.15558700263500214
v -0.06268200278282166 0.41352999210357666 -0.15847399830818176
v -0.06341200321912766 0.41075599193573 -0.16299399733543396
v -0.06103400141000748 0.41304001212120056 -0.1641169935464859
v -0.05747399851679802 0.42118000984191895 -0.1697939932346344
v -0.04201100021600723 0.4275610148906708 -0.16748499870300293
v -0.05399100109934807 0.42129600048065186 -0.17283299565315247
v -0.05041100084781647 0.42277300357818604 -0.17155499756336212
v -0.04300500079989433 0.42348700761795044 -0.16870500147342682
v -0.03963200002908707 0.4262180030345917 -0.1668500006198883
v -0.03589700162410736 0.42460399866104126 -0.16028200089931488
v -0.03717799857258797 0.4236679971218109 -0.16605600714683533
v -0.03642899915575981 0.4238330125808716 -0.1653670072555542
v -0.037634000182151794 0.4271639883518219 -0.1625099927186966
v -0.037498001009225845 0.42736101150512695 -0.16130900382995605
v -0.05537699908018112 0.42211899161338806 -0.172652006149292
v -0.03449400141835213 0.42121899127960205 -0.1567070037126541
v -0.029465999454259872 0.42636600136756897 -0.15342499315738678
v -0.02796499989926815 0.4283890128135681 -0.1538970023393631
v -0.026830000802874565 0.42559200525283813 -0.15232400596141815
v -0.032850999385118484 0.42297300696372986 -0.154107004404068
v -0.028835000470280647 0.4248870015144348 -0.15220500528812408
v -0.031074000522494316 0.42390701174736023 -0.15210700035095215
v -0.0347290001809597 0.4214160144329071 -0.15934699773788452
v -0.02391500025987625 0.4284839928150177 -0.15521299839019775
v -0.0230529997497797 0.42705100774765015 -0.1545269936323166
v -0.017566999420523643 0.4279800057411194 -0.16065099835395813
v -0.02141300030052662 0.42794498801231384 -0.15660600364208221
v -0.04954800009727478 0.39247000217437744 -0.15486399829387665
v -0.05229000002145767 0.3900049924850464 -0.15354999899864197
v -0.054836999624967575 0.39250001311302185 -0.150859996676445
v -0.045889999717473984 0.4020409882068634 -0.15345700085163116
v -0.045180998742580414 0.3979730010032654 -0.1557759940624237
v -0.04516499862074852 0.39414599537849426 -0.1574449986219406
v -0.04307299852371216 0.40445300936698914 -0.1549150049686432
v -0.0409960001707077 0.40939199924468994 -0.1541150063276291
v -0.04118699952960014 0.4125570058822632 -0.15014299750328064
v -0.03659600019454956 0.41808199882507324 -0.1506499946117401
v -0.03714999929070473 0.41798898577690125 -0.14635199308395386
v -0.06196599826216698 0.36339500546455383 -0.15098099410533905
v -0.08558499813079834 0.3913689851760864 -0.12433899939060211
v -0.08423499763011932 0.42983299493789673 -0.0934550017118454
v -0.07344099879264832 0.42489901185035706 -0.10927899926900864
v -0.06942600011825562 0.4222530126571655 -0.1149900034070015
v -0.06747200340032578 0.4210459887981415 -0.11799100041389465
v -0.11091399937868118 0.40868499875068665 -0.09182900190353394
v -0.0755470022559166 0.4247809946537018 -0.1087689995765686
v -0.07148600369691849 0.4236930012702942 -0.1122799962759018
v -0.034386999905109406 0.42047399282455444 -0.14866399765014648
v -0.032715000212192535 0.4222849905490875 -0.1506740003824234
v -0.030962999910116196 0.42269501090049744 -0.1494159996509552
v -0.028158999979496002 0.4235660135746002 -0.1502320021390915
v -0.023953000083565712 0.4241909980773926 -0.14618900418281555
v -0.01860100030899048 0.4236229956150055 -0.1520259976387024
v -0.023282000795006752 0.42437800765037537 -0.1513720005750656
v -0.025801999494433403 0.42438599467277527 -0.1508069932460785
v -0.10335999727249146 0.4074479937553406 -0.12378700077533722
v -0.11706200242042542 0.4015989899635315 -0.10957100242376328
v -0.1181119978427887 0.40006399154663086 -0.10542400181293488
v -0.07521200180053711 0.41670098900794983 -0.1532370001077652
v -0.017033999785780907 0.4264090061187744 -0.14805400371551514
v -0.017542000859975815 0.4249489903450012 -0.14990299940109253
v -0.012353000231087208 0.4344809949398041 -0.16853900253772736
v -0.013899999670684338 0.4304400086402893 -0.1666020005941391
v -0.020157000049948692 0.4338569939136505 -0.16234800219535828
v -0.011402999982237816 0.43604201078414917 -0.16631999611854553
v -0.013849000446498394 0.426472008228302 -0.15015199780464172
v -0.010226000100374222 0.42712900042533875 -0.15224100649356842
v -0.008345000445842743 0.4303950071334839 -0.15312600135803223
v -0.005530000198632479 0.4327560067176819 -0.15585200488567352
v -0.008129999972879887 0.4350210130214691 -0.1612669974565506
v -0.01978899911046028 0.4311380088329315 -0.1609019935131073
v -0.06048699840903282 0.41720300912857056 -0.1688780039548874
v -0.06035400182008743 0.41811999678611755 -0.1706410050392151
v -0.05899899825453758 0.41869398951530457 -0.17201200127601624
v -0.06942000240087509 0.4152890145778656 -0.15700900554656982
v -0.06600400060415268 0.41413700580596924 -0.1583479940891266
v -0.06518299877643585 0.40880200266838074 -0.16262100636959076
v -0.06481099873781204 0.4109469950199127 -0.16240499913692474
v -0.061553001403808594 0.4112110137939453 -0.16506299376487732
v -0.06446799635887146 0.4074150025844574 -0.16350999474525452
v -0.06174600124359131 0.4132609963417053 -0.17087499797344208
v -0.06257300078868866 0.40992501378059387 -0.17244300246238708
v -0.0620260015130043 0.4092409908771515 -0.16788800060749054
v -0.057314999401569366 0.41893500089645386 -0.17412200570106506
v -0.05602699890732765 0.41843199729919434 -0.17427200078964233
v -0.040724001824855804 0.41686299443244934 -0.1674399971961975
v -0.054253000766038895 0.4175330102443695 -0.17410500347614288
v -0.04901900142431259 0.4184359908103943 -0.17125700414180756
v -0.04008699953556061 0.42229199409484863 -0.16759899258613586
v -0.037321001291275024 0.41745099425315857 -0.16645300388336182
v -0.036768000572919846 0.42041298747062683 -0.16636499762535095
v -0.0341619998216629 0.4185599982738495 -0.1610340029001236
v -0.033723000437021255 0.41726699471473694 -0.1630679965019226
v -0.03374899923801422 0.41682499647140503 -0.16499200463294983
v -0.03435700014233589 0.42076098918914795 -0.1526550054550171
v -0.03455900028347969 0.4179689884185791 -0.15903699398040771
v -0.036559998989105225 0.41739898920059204 -0.15467900037765503
v -0.03677000105381012 0.41387900710105896 -0.15756799280643463
v -0.022492999210953712 0.4257209897041321 -0.1537020057439804
v -0.021397000178694725 0.426705002784729 -0.15541699528694153
v -0.020919999107718468 0.4254949986934662 -0.15458600223064423
v -0.01709900051355362 0.42894700169563293 -0.16243800520896912
v -0.014613999985158443 0.4253320097923279 -0.1611659973859787
v -0.01511900033801794 0.42485299706459045 -0.1580750048160553
v -0.01880200020968914 0.4241879880428314 -0.15418100357055664
v -0.051548998802900314 0.38670098781585693 -0.1553719937801361
v -0.05247199907898903 0.3784480094909668 -0.15823900699615479
v -0.03979099914431572 0.4004800021648407 -0.15946699678897858
v -0.040762998163700104 0.3959810137748718 -0.1599999964237213
v -0.04098400101065636 0.40484699606895447 -0.15704600512981415
v -0.039037998765707016 0.41083601117134094 -0.15585599839687347
v -0.06721899658441544 0.3529529869556427 -0.1480579972267151
v -0.06789399683475494 0.35132500529289246 -0.15146300196647644
v -0.11019100248813629 0.33631300926208496 -0.1115259975194931
v -0.0655440017580986 0.3572610020637512 -0.15645399689674377
v -0.06035599857568741 0.36399999260902405 -0.16550299525260925
v -0.05291600152850151 0.3734929859638214 -0.16900500655174255
v -0.12505799531936646 0.38476499915122986 -0.07560700178146362
v -0.10200800001621246 0.4243530035018921 -0.08087500184774399
v -0.09085600078105927 0.4307210147380829 -0.08781199902296066
v -0.08433900028467178 0.43177899718284607 -0.09393399953842163
v -0.0847029983997345 0.43278300762176514 -0.09489499777555466
v -0.085487000644207 0.4330889880657196 -0.09676200151443481
v -0.08851099759340286 0.4333139955997467 -0.09434299916028976
v -0.0950469970703125 0.43219199776649475 -0.08980199694633484
v -0.0983780026435852 0.4307659864425659 -0.08782800287008286
v -0.10174199938774109 0.42824798822402954 -0.08606600016355515
v -0.10988499969244003 0.4190309941768646 -0.0797400027513504
v -0.11900400370359421 0.40648698806762695 -0.07696899771690369
v -0.12350700050592422 0.3955810070037842 -0.08574499934911728
v -0.020728999748826027 0.4243740141391754 -0.15294300019741058
v -0.015176000073552132 0.42361199855804443 -0.15448600053787231
v -0.014113999903202057 0.4249039888381958 -0.15233400464057922
v -0.115276999771595 0.40938299894332886 -0.12577800452709198
v -0.11727599799633026 0.40492698550224304 -0.11906599998474121
v -0.11980199813842773 0.39696601033210754 -0.10813599824905396
v -0.11864300072193146 0.39785200357437134 -0.10642299801111221
v -0.12021400034427643 0.3933649957180023 -0.10585799813270569
v -0.12049199640750885 0.39293399453163147 -0.09816800057888031
v -0.0724089965224266 0.4196870028972626 -0.16051000356674194
v -0.09865099936723709 0.4277780055999756 -0.15091900527477264
v -0.007984000258147717 0.4296810030937195 -0.1695059984922409
v -0.008449999615550041 0.4319609999656677 -0.1687600016593933
v -0.008910000324249268 0.4263859987258911 -0.16870300471782684
v -0.011458000168204308 0.42621999979019165 -0.16725000739097595
v -0.009482000023126602 0.4343720078468323 -0.16741299629211426
v -0.007999000139534473 0.4339970052242279 -0.16506700217723846
v -0.004856000188738108 0.4257749915122986 -0.15717600286006927
v -0.006668999791145325 0.4334770143032074 -0.16266100108623505
v -0.0029380000196397305 0.4302690029144287 -0.15964899957180023
v -0.06265100091695786 0.41044899821281433 -0.1748100072145462
v -0.06871499866247177 0.4149169921875 -0.15883100032806396
v -0.06924500316381454 0.4124859869480133 -0.1624930053949356
v -0.06861100345849991 0.4096449911594391 -0.16215500235557556
v -0.06764200329780579 0.4065000116825104 -0.16161899268627167
v -0.06298399716615677 0.40584900975227356 -0.16489900648593903
v -0.06544099748134613 0.4046980142593384 -0.16239100694656372
v -0.06324200332164764 0.40347999334335327 -0.17670799791812897
v -0.06306300312280655 0.40700799226760864 -0.17595599591732025
v -0.06364600360393524 0.4027009904384613 -0.16374699771404266
v -0.05951400101184845 0.4101560115814209 -0.17829400300979614
v -0.038398001343011856 0.41152000427246094 -0.16711300611495972
v -0.04473499953746796 0.4156250059604645 -0.16927500069141388
v -0.04135400056838989 0.41339099407196045 -0.16797800362110138
v -0.05019399896264076 0.41492000222206116 -0.1723330020904541
v -0.05798399820923805 0.4096519947052002 -0.17839500308036804
v -0.05230100080370903 0.41112300753593445 -0.17456799745559692
v -0.034995999187231064 0.41621801257133484 -0.16615599393844604
v -0.0360339991748333 0.41397398710250854 -0.1664009988307953
v -0.03397100046277046 0.416032999753952 -0.16076500713825226
v -0.03308499976992607 0.41487398743629456 -0.1626020073890686
v -0.032356999814510345 0.4126259982585907 -0.16500799357891083
v -0.033261001110076904 0.4127489924430847 -0.16569000482559204
v -0.038423001766204834 0.4059390127658844 -0.15910300612449646
v -0.011226999573409557 0.42399799823760986 -0.16418500244617462
v -0.011744000017642975 0.4234989881515503 -0.1604589968919754
v -0.009608999826014042 0.42299899458885193 -0.15862999856472015
v -0.04778699949383736 0.38187599182128906 -0.1646289974451065
v -0.036657001823186874 0.394338995218277 -0.16392500698566437
v -0.03727699816226959 0.3912140130996704 -0.165693998336792
v -0.04881700128316879 0.3803279995918274 -0.1663540005683899
v -0.03822299838066101 0.396465003490448 -0.16165199875831604
v -0.03753500059247017 0.40024900436401367 -0.16115500032901764
v -0.07026299834251404 0.34677600860595703 -0.15029700100421906
v -0.07627499848604202 0.33497899770736694 -0.1440030038356781
v -0.07485999912023544 0.3378170132637024 -0.14829300343990326
v -0.0682390034198761 0.35210999846458435 -0.15524299442768097
v -0.07068099826574326 0.34720200300216675 -0.15417900681495667
v -0.08399400115013123 0.31821900606155396 -0.14142000675201416
v -0.09395900368690491 0.2966490089893341 -0.13871599733829498
v -0.11467599868774414 0.26211199164390564 -0.13059300184249878
v -0.1193149983882904 0.26057499647140503 -0.12611299753189087
v -0.1339530050754547 0.34814199805259705 -0.08240900188684464
v -0.12783199548721313 0.2706660032272339 -0.11564800143241882
v -0.13198499381542206 0.28589901328086853 -0.10909800231456757
v -0.13548000156879425 0.3063890039920807 -0.099932000041008
v -0.13576999306678772 0.3166410028934479 -0.0957299992442131
v -0.13234099745750427 0.3301819860935211 -0.0906440019607544
v -0.06304299831390381 0.35985198616981506 -0.16298699378967285
v -0.06641600281000137 0.35557401180267334 -0.1591240018606186
v -0.055782999843358994 0.3725999891757965 -0.1711219996213913
v -0.07166899740695953 0.3571169972419739 -0.1607690006494522
v -0.06253000348806381 0.3657589852809906 -0.1656379997730255
v -0.06850100308656693 0.3554440140724182 -0.16175000369548798
v -0.06683299690485 0.35474100708961487 -0.16189999878406525
v -0.06005199998617172 0.3696169853210449 -0.1675799936056137
v -0.04787899926304817 0.3811050057411194 -0.17198799550533295
v -0.05141900107264519 0.3817259967327118 -0.17677399516105652
v -0.11665999889373779 0.40636101365089417 -0.07568500190973282
v -0.12792199850082397 0.3862319886684418 -0.07567500323057175
v -0.10632199794054031 0.42149001359939575 -0.07999199628829956
v -0.1114870011806488 0.4159879982471466 -0.07816600054502487
v -0.1001570001244545 0.4273509979248047 -0.0824820026755333
v -0.09703999757766724 0.42931699752807617 -0.0838799998164177
v -0.09106700122356415 0.43202000856399536 -0.08879300206899643
v -0.09429600089788437 0.43082600831985474 -0.08605799823999405
v -0.08765699714422226 0.4321320056915283 -0.0912259966135025
v -0.08792299777269363 0.4329949915409088 -0.0923440009355545
v -0.09130699932575226 0.432779997587204 -0.09000000357627869
v -0.09809599816799164 0.4300529956817627 -0.08465699851512909
v -0.10152900218963623 0.42737698554992676 -0.08309700340032578
v -0.12136399745941162 0.39145299792289734 -0.09367000311613083
v -0.12408600002527237 0.38705500960350037 -0.08814699947834015
v -0.12771500647068024 0.3791790008544922 -0.08438500016927719
v -0.006909999996423721 0.42419299483299255 -0.15761399269104004
v -0.11341399699449539 0.4099459946155548 -0.13468100130558014
v -0.11777099967002869 0.40188199281692505 -0.12660400569438934
v -0.11985799670219421 0.3979380130767822 -0.11744000017642975
v -0.12034700065851212 0.39518800377845764 -0.10873100161552429
v -0.12008900195360184 0.3933410048484802 -0.10812000185251236
v -0.11330799758434296 0.39434900879859924 -0.10507699847221375
v -0.07169900089502335 0.4178049862384796 -0.1627340018749237
v -0.07121100276708603 0.4273490011692047 -0.16594000160694122
v -0.07701899856328964 0.4316920042037964 -0.16307500004768372
v -0.10270699858665466 0.42266300320625305 -0.1482270061969757
v -0.08945699781179428 0.43386098742485046 -0.16821600496768951
v -0.08756700158119202 0.43715700507164 -0.16340099275112152
v -0.07943300157785416 0.4364069998264313 -0.16452999413013458
v -0.0070329997688531876 0.4296959936618805 -0.16893500089645386
v -0.007441000081598759 0.42734599113464355 -0.16922800242900848
v -0.006963000167161226 0.4311850070953369 -0.16809199750423431
v -0.009565000422298908 0.4252910017967224 -0.16784599423408508
v -0.007174000144004822 0.4250189960002899 -0.16844899952411652
v -0.006434000097215176 0.4319239854812622 -0.1656460016965866
v -0.0055229999125003815 0.4235079884529114 -0.158951997756958
v -0.003602999961003661 0.42325401306152344 -0.16024300456047058
v -0.002828999888151884 0.4243920147418976 -0.16012799739837646
v -0.005166000220924616 0.431661993265152 -0.16353599727153778
v -0.003918000031262636 0.42976298928260803 -0.16430099308490753
v -0.0024399999529123306 0.42393699288368225 -0.16161400079727173
v -0.0023270000237971544 0.4288170039653778 -0.16156600415706635
v -0.002948000095784664 0.42927899956703186 -0.16272799670696259
v -0.060715001076459885 0.406807005405426 -0.1792140007019043
v -0.07205799967050552 0.4157780110836029 -0.16513200104236603
v -0.07250899821519852 0.41165798902511597 -0.16393299400806427
v -0.07047499716281891 0.407507985830307 -0.1618649959564209
v -0.07060100138187408 0.3948729932308197 -0.1518239974975586
v -0.0674239993095398 0.39271700382232666 -0.15351100265979767
v -0.06255199760198593 0.3924019932746887 -0.17720000445842743
v -0.06188099831342697 0.4034459888935089 -0.17880100011825562
v -0.06095200031995773 0.3993310034275055 -0.17954200506210327
v -0.06271100044250488 0.38269099593162537 -0.16726699471473694
v -0.05978899821639061 0.406686007976532 -0.1797109991312027
v -0.03882800042629242 0.4039669930934906 -0.16891799867153168
v -0.04569600149989128 0.4117079973220825 -0.1703380048274994
v -0.03346800059080124 0.4051719903945923 -0.16674600541591644
v -0.03384599834680557 0.40928199887275696 -0.16637299954891205
v -0.05503400042653084 0.40828898549079895 -0.17725899815559387
v -0.058455001562833786 0.406374990940094 -0.1795780062675476
v -0.049320001155138016 0.40891599655151367 -0.17348499596118927
v -0.03351899981498718 0.41329699754714966 -0.16179099678993225
v -0.03141900151968002 0.4082309901714325 -0.16482500731945038
v -0.03143100067973137 0.40869998931884766 -0.16555599868297577
v -0.03504600003361702 0.4015530049800873 -0.16292299330234528
v -0.034435998648405075 0.4048300087451935 -0.1623920053243637
v -0.032232001423835754 0.40808001160621643 -0.1635960042476654
v -0.03285200148820877 0.4111720025539398 -0.16273899376392365
v -0.008112999610602856 0.4230540096759796 -0.16481000185012817
v -0.0067369998432695866 0.4223870038986206 -0.16263499855995178
v -0.005255000200122595 0.42232200503349304 -0.16106300055980682
v -0.04196799919009209 0.38539400696754456 -0.1678760051727295
v -0.03654199838638306 0.3968609869480133 -0.16265800595283508
v -0.031132999807596207 0.3985309898853302 -0.16760000586509705
v -0.034967001527547836 0.392194002866745 -0.16833199560642242
v -0.07306800037622452 0.342615008354187 -0.15311299264431
v -0.07828199863433838 0.3299520015716553 -0.14643199741840363
v -0.07653900235891342 0.33384498953819275 -0.1471879929304123
v -0.07247000187635422 0.3458380103111267 -0.1591310054063797
v -0.07700099796056747 0.33414700627326965 -0.1509460061788559
v -0.06916899979114532 0.350614994764328 -0.1579509973526001
v -0.07182899862527847 0.3460730016231537 -0.1566769927740097
v -0.09265200048685074 0.304188996553421 -0.14807899296283722
v -0.08280099928379059 0.32280001044273376 -0.15034900605678558
v -0.09227900207042694 0.29798299074172974 -0.1419609934091568
v -0.09638799726963043 0.28401198983192444 -0.14160700142383575
v -0.09847799688577652 0.2803660035133362 -0.14044199883937836
v -0.12080699950456619 0.25931599736213684 -0.12610499560832977
v -0.12073899805545807 0.2588610053062439 -0.130839005112648
v -0.11712700128555298 0.2608020007610321 -0.13382700085639954
v -0.1110450029373169 0.2665030062198639 -0.13774099946022034
v -0.10346200317144394 0.2742680013179779 -0.13965199887752533
v -0.12542200088500977 0.2634119987487793 -0.12008100003004074
v -0.13558700680732727 0.34379100799560547 -0.08561599999666214
v -0.1339379996061325 0.33454298973083496 -0.08820000290870667
v -0.13477200269699097 0.34319499135017395 -0.08398199826478958
v -0.13172000646591187 0.2815139889717102 -0.1109979972243309
v -0.13117100298404694 0.2712939977645874 -0.11681299656629562
v -0.12817400693893433 0.26539498567581177 -0.11927899718284607
v -0.1333400011062622 0.2860870063304901 -0.10954499989748001
v -0.13596299290657043 0.3173789978027344 -0.09717799723148346
v -0.13539999723434448 0.30196499824523926 -0.10370700061321259
v -0.13462300598621368 0.3299039900302887 -0.08953499794006348
v -0.13556799292564392 0.3297939896583557 -0.09025199711322784
v -0.13539400696754456 0.3392139971256256 -0.08846200257539749
v -0.05607200041413307 0.3813270032405853 -0.1748950034379959
v -0.06199000030755997 0.37129101157188416 -0.16739100217819214
v -0.09556800127029419 0.32379600405693054 -0.13332499563694
v -0.07004000246524811 0.36969199776649475 -0.14903199672698975
v -0.07915599644184113 0.3433609902858734 -0.1548669934272766
v -0.07268700003623962 0.35136500000953674 -0.15977400541305542
v -0.06335999816656113 0.37912899255752563 -0.16563700139522552
v -0.07385300099849701 0.346235990524292 -0.1586959958076477
v -0.04104999825358391 0.38666799664497375 -0.17796899378299713
v -0.0590520016849041 0.3900820016860962 -0.17966200411319733
v -0.0461140014231205 0.3869889974594116 -0.18152500689029694
v -0.13254199922084808 0.35738399624824524 -0.08573400229215622
v -0.12230099737644196 0.3851439952850342 -0.08934400230646133
v -0.10548699647188187 0.39306899905204773 -0.10621900111436844
v -0.11581099778413773 0.3892189860343933 -0.09486699849367142
v -0.11808499693870544 0.3779979944229126 -0.09116800129413605
v -0.11525599658489227 0.3977760076522827 -0.12864500284194946
v -0.11140800267457962 0.4051949977874756 -0.13616600632667542
v -0.10149899870157242 0.4214709997177124 -0.15102100372314453
v -0.1175450012087822 0.39396899938583374 -0.12129700183868408
v -0.10692299902439117 0.3986879885196686 -0.11719100177288055
v -0.10555599629878998 0.39698100090026855 -0.1113160029053688
v -0.07081799954175949 0.4263109862804413 -0.16783200204372406
v -0.06662199646234512 0.43643900752067566 -0.1692119985818863
v -0.07182099670171738 0.4404729902744293 -0.16776999831199646
v -0.09733100235462189 0.4142189919948578 -0.14568999409675598
v -0.08220300078392029 0.43737900257110596 -0.17886300384998322
v -0.07731600105762482 0.4116060137748718 -0.16550900042057037
v -0.0773409977555275 0.41966700553894043 -0.17202399671077728
v -0.0793439969420433 0.4319530129432678 -0.1810320019721985
v -0.07349199801683426 0.4441770017147064 -0.17563100159168243
v -0.07276400178670883 0.44444799423217773 -0.1784369945526123
v -0.07366999983787537 0.44106200337409973 -0.19335199892520905
v -0.07656700164079666 0.44180500507354736 -0.16849400103092194
v -0.07134199887514114 0.4444020092487335 -0.1732580065727234
v -0.0065100002102553844 0.42734500765800476 -0.1686369925737381
v -0.005106000229716301 0.4261249899864197 -0.1678050011396408
v -0.005096999928355217 0.4299120008945465 -0.1661680042743683
v -0.006411000154912472 0.42367300391197205 -0.1666949987411499
v -0.005809000227600336 0.4255560040473938 -0.1682319939136505
v -0.005098999943584204 0.42473500967025757 -0.16702499985694885
v -0.0034280000254511833 0.4223330020904541 -0.16183200478553772
v -0.004482000134885311 0.4277540147304535 -0.16639100015163422
v -0.002492000116035342 0.42713800072669983 -0.16333900392055511
v -0.0036700000055134296 0.4232049882411957 -0.16332599520683289
v -0.0027729999274015427 0.42463600635528564 -0.1633249968290329
v -0.06029200181365013 0.4032379984855652 -0.18046599626541138
v -0.07450400292873383 0.41310200095176697 -0.1656470000743866
v -0.07294300198554993 0.4207710027694702 -0.17171800136566162
v -0.07168900221586227 0.4199199974536896 -0.16764600574970245
v -0.08418799936771393 0.3955110013484955 -0.13520100712776184
v -0.07752899825572968 0.38418498635292053 -0.14026500284671783
v -0.06933499872684479 0.38777199387550354 -0.14878199994564056
v -0.06859900057315826 0.3818050026893616 -0.1491910070180893
v -0.05891900137066841 0.3992210030555725 -0.18146799504756927
v -0.055656999349594116 0.39520400762557983 -0.18224400281906128
v -0.04180699959397316 0.4058069884777069 -0.16987699270248413
v -0.03882500156760216 0.40029001235961914 -0.17020000517368317
v -0.036024998873472214 0.40270501375198364 -0.16828599572181702
v -0.04465299844741821 0.4041309952735901 -0.17202100157737732
v -0.03083300031721592 0.4050289988517761 -0.16631799936294556
v -0.03338100016117096 0.4014799892902374 -0.1679610013961792
v -0.031954001635313034 0.40188300609588623 -0.16733099520206451
v -0.052104998379945755 0.4063180088996887 -0.17626599967479706
v -0.05823799967765808 0.4030289947986603 -0.18048399686813354
v -0.05299700051546097 0.40354400873184204 -0.17803999781608582
v -0.05410600081086159 0.39882099628448486 -0.18054500222206116
v -0.04806099832057953 0.4052349925041199 -0.17392000555992126
v -0.030827999114990234 0.4046199917793274 -0.16567599773406982
v -0.031633999198675156 0.4018610119819641 -0.16534200310707092
v -0.005551000125706196 0.42278701066970825 -0.16481900215148926
v -0.03697500005364418 0.3879840075969696 -0.17280200123786926
v -0.03189599886536598 0.395999014377594 -0.16929399967193604
v -0.03097900003194809 0.398732990026474 -0.16810199618339539
v -0.030709000304341316 0.40176600217819214 -0.1671620011329651
v -0.030918000265955925 0.40154701471328735 -0.16655300557613373
v -0.03294900059700012 0.39365801215171814 -0.17078199982643127
v -0.08045600354671478 0.32684698700904846 -0.14962400496006012
v -0.07861600071191788 0.33034801483154297 -0.14989599585533142
v -0.08132100105285645 0.3297719955444336 -0.15532800555229187
v -0.08293700218200684 0.3303399980068207 -0.155349001288414
v -0.07782000303268433 0.3426379859447479 -0.15673699975013733
v -0.08513200283050537 0.3230609893798828 -0.15170499682426453
v -0.10301300138235092 0.2789219915866852 -0.1422629952430725
v -0.1008479967713356 0.29975900053977966 -0.14338700473308563
v -0.08774899691343307 0.3232249915599823 -0.152319997549057
v -0.09599599987268448 0.2872050106525421 -0.14475500583648682
v -0.08215499669313431 0.32623499631881714 -0.15281200408935547
v -0.0985490009188652 0.2805599868297577 -0.14211499691009521
v -0.12557299435138702 0.2596360146999359 -0.12571799755096436
v -0.12362200021743774 0.25832700729370117 -0.1283320039510727
v -0.1275009959936142 0.2614850103855133 -0.12313999980688095
v -0.12358400225639343 0.2592799961566925 -0.1298609972000122
v -0.12083400040864944 0.260111004114151 -0.13241800665855408
v -0.11914099752902985 0.2621169984340668 -0.13417300581932068
v -0.11838600039482117 0.2883870005607605 -0.1276240050792694
v -0.12413699924945831 0.2635360062122345 -0.1313289999961853
v -0.10341600328683853 0.2751550078392029 -0.14124199748039246
v -0.13533200323581696 0.33431699872016907 -0.0878940001130104
v -0.1325560063123703 0.2782270014286041 -0.11550000309944153
v -0.13009700179100037 0.26640599966049194 -0.12175200134515762
v -0.1296900063753128 0.26572901010513306 -0.1200919970870018
v -0.1354299932718277 0.3130899965763092 -0.10095600038766861
v -0.13123099505901337 0.2743400037288666 -0.12069399654865265
v -0.0988520011305809 0.377921998500824 -0.11852800101041794
v -0.0875839963555336 0.3278760015964508 -0.15100300312042236
v -0.08427099883556366 0.3310120105743408 -0.15439000725746155
v -0.0751350000500679 0.3466910123825073 -0.15813800692558289
v -0.037849001586437225 0.3896949887275696 -0.1777539998292923
v -0.034619998186826706 0.3911069929599762 -0.17484700679779053
v -0.04941000044345856 0.39172598719596863 -0.18198899924755096
v -0.045570001006126404 0.3896160125732422 -0.18164099752902985
v -0.11417700350284576 0.3850330114364624 -0.09397999942302704
v -0.10270799696445465 0.4052790105342865 -0.13157999515533447
v -0.10474299639463425 0.41400399804115295 -0.14379000663757324
v -0.06472700089216232 0.43367800116539 -0.17208799719810486
v -0.07049000263214111 0.4250679910182953 -0.17030200362205505
v -0.06352800130844116 0.4384779930114746 -0.17067599296569824
v -0.06319200247526169 0.4365760087966919 -0.1715729981660843
v -0.06191899999976158 0.444021999835968 -0.1698250025510788
v -0.0579570010304451 0.44091400504112244 -0.17217999696731567
v -0.07625900208950043 0.4334389865398407 -0.1870409995317459
v -0.07525800168514252 0.41972801089286804 -0.17202399671077728
v -0.07513900101184845 0.42793500423431396 -0.18116900324821472
v -0.06842400133609772 0.44596201181411743 -0.18103699386119843
v -0.06955999881029129 0.4455440044403076 -0.17670899629592896
v -0.07050199806690216 0.4437749981880188 -0.1966869980096817
v -0.06681100279092789 0.44637900590896606 -0.1833920031785965
v -0.0650710016489029 0.4468350112438202 -0.1978829950094223
v -0.07132399827241898 0.4402160048484802 -0.19569000601768494
v -0.06290700286626816 0.4466100037097931 -0.17126600444316864
v -0.06677500158548355 0.44602200388908386 -0.17441099882125854
v -0.00433199992403388 0.4257409870624542 -0.16674800217151642
v -0.004335999954491854 0.42388099431991577 -0.16524599492549896
v -0.0027360001113265753 0.4261150062084198 -0.16434399783611298
v -0.07238300144672394 0.42719900608062744 -0.1797100007534027
v -0.05675800144672394 0.3992049992084503 -0.18144600093364716
v -0.053874000906944275 0.39523500204086304 -0.1818999946117401
v -0.0357699990272522 0.39943501353263855 -0.16957400739192963
v -0.04201500117778778 0.39838701486587524 -0.17268499732017517
v -0.04525800049304962 0.4007979929447174 -0.17358599603176117
v -0.04908100143074989 0.4019010066986084 -0.1758279949426651
v -0.04590599983930588 0.3971160054206848 -0.17557600140571594
v -0.03298100084066391 0.3938870131969452 -0.17135100066661835
v -0.0352960005402565 0.39667099714279175 -0.1711750030517578
v -0.03335899859666824 0.39417698979377747 -0.17213599383831024
v -0.03520699962973595 0.39430201053619385 -0.17286400496959686
v -0.08447500318288803 0.3266110122203827 -0.15407800674438477
v -0.08602000027894974 0.3272010087966919 -0.15349499881267548
v -0.09861399978399277 0.28178098797798157 -0.14334799349308014
v -0.12988600134849548 0.26698100566864014 -0.12367100268602371
v -0.12365899980068207 0.2605949938297272 -0.1310970038175583
v -0.03755699843168259 0.3923160135746002 -0.17559599876403809
v -0.04106299951672554 0.39093101024627686 -0.17855900526046753
v -0.049111999571323395 0.39327099919319153 -0.18074199557304382
v -0.04458799958229065 0.39188799262046814 -0.1794320046901703
v -0.05688700079917908 0.437857985496521 -0.18143899738788605
v -0.05835200101137161 0.4374450147151947 -0.17437699437141418
v -0.0646279975771904 0.43313100934028625 -0.17484000325202942
v -0.05784999951720238 0.43916699290275574 -0.17338399589061737
v -0.05243299901485443 0.44594699144363403 -0.16945500671863556
v -0.05541900172829628 0.44171199202537537 -0.1724970042705536
v -0.07201600074768066 0.4290190041065216 -0.18319299817085266
v -0.07052800059318542 0.4379880130290985 -0.19508999586105347
v -0.06297899782657623 0.4476499855518341 -0.17832300066947937
v -0.06437399983406067 0.44699299335479736 -0.17556999623775482
v -0.0672060027718544 0.440744012594223 -0.1978279948234558
v -0.06096300110220909 0.44846999645233154 -0.18856200575828552
v -0.06255099922418594 0.44766899943351746 -0.18528400361537933
v -0.0650160014629364 0.4470849931240082 -0.18234799802303314
v -0.054822999984025955 0.4478670060634613 -0.1985359936952591
v -0.058166999369859695 0.44940999150276184 -0.18744799494743347
v -0.05214200168848038 0.45099499821662903 -0.19780999422073364
v -0.06061600148677826 0.4481559991836548 -0.17782199382781982
v -0.057969000190496445 0.4480530023574829 -0.1713549941778183
v -0.03779599815607071 0.3945940136909485 -0.17361299693584442
v -0.041572000831365585 0.3954389989376068 -0.17450100183486938
v -0.04533600062131882 0.39406800270080566 -0.17767000198364258
v -0.04117399826645851 0.39298900961875916 -0.1766500025987625
v -0.05416199937462807 0.4393700063228607 -0.18129299581050873
v -0.058959998190402985 0.4367539882659912 -0.18495799601078033
v -0.054871998727321625 0.43931400775909424 -0.1760610044002533
v -0.05382400006055832 0.44082099199295044 -0.17503799498081207
v -0.04047200083732605 0.44652798771858215 -0.16868600249290466
v -0.04912399873137474 0.4489159882068634 -0.16990800201892853
v -0.05313900113105774 0.4493829905986786 -0.17116600275039673
v -0.046126000583171844 0.4476580023765564 -0.1684509962797165
v -0.0436599999666214 0.4468950033187866 -0.16854499280452728
v -0.04398500174283981 0.44359999895095825 -0.17493100464344025
v -0.0619719997048378 0.4385930001735687 -0.19255700707435608
v -0.06017399951815605 0.4483740031719208 -0.18063600361347198
v -0.05105999857187271 0.4426960051059723 -0.19158999621868134
v -0.05947500094771385 0.4485990107059479 -0.1841450035572052
v -0.03977400064468384 0.4508560001850128 -0.19497400522232056
v -0.0479779988527298 0.4438149929046631 -0.19116400182247162
v -0.0529169999063015 0.4510839879512787 -0.17963899672031403
v -0.0453139990568161 0.4536359906196594 -0.19318599998950958
v -0.04504900053143501 0.45377498865127563 -0.18242700397968292
v -0.041051000356674194 0.4537540078163147 -0.19470499455928802
v -0.05733399838209152 0.44872400164604187 -0.17465800046920776
v -0.05702900141477585 0.4493669867515564 -0.17752499878406525
v -0.05307399854063988 0.43998000025749207 -0.17795799672603607
v -0.05160300061106682 0.4405210018157959 -0.18087199330329895
v -0.058490000665187836 0.438620001077652 -0.18868200480937958
v -0.05039900168776512 0.44101300835609436 -0.1839890033006668
v -0.052094001322984695 0.4412029981613159 -0.18798300623893738
v -0.054896000772714615 0.44009000062942505 -0.18830400705337524
v -0.04716600105166435 0.4425950050354004 -0.17604100704193115
v -0.03801799938082695 0.4470979869365692 -0.1685750037431717
v -0.040702998638153076 0.44469401240348816 -0.17342600226402283
v -0.0508820004761219 0.4498150050640106 -0.1713320016860962
v -0.037567999213933945 0.44965100288391113 -0.16845500469207764
v -0.04701299965381622 0.45049500465393066 -0.17095200717449188
v -0.0489329993724823 0.45271098613739014 -0.17639900743961334
v -0.05252800136804581 0.4509730041027069 -0.17590300738811493
v -0.05094499886035919 0.45184600353240967 -0.1763709932565689
v -0.04219299927353859 0.44405698776245117 -0.17765399813652039
v -0.0491660013794899 0.44234699010849 -0.1876409947872162
v -0.03345299884676933 0.4495849907398224 -0.18828700482845306
v -0.03194199874997139 0.4508430063724518 -0.1903569996356964
v -0.03225500136613846 0.45191800594329834 -0.1910559982061386
v -0.03484499827027321 0.4483090043067932 -0.1852779984474182
v -0.04404100030660629 0.44348499178886414 -0.1819390058517456
v -0.04735099896788597 0.4422129988670349 -0.18312899768352509
v -0.0404679998755455 0.4447900056838989 -0.1802159994840622
v -0.03589000180363655 0.4471530020236969 -0.18184000253677368
v -0.04476799815893173 0.45394599437713623 -0.17983900010585785
v -0.046758998185396194 0.45348799228668213 -0.17676199972629547
v -0.0419050008058548 0.4545769989490509 -0.1802230030298233
v -0.03784500062465668 0.4551590085029602 -0.1766439974308014
v -0.028504999354481697 0.456369012594223 -0.1808069944381714
v -0.030229000374674797 0.4554719924926758 -0.18915000557899475
v -0.04859999939799309 0.4417870044708252 -0.17997099459171295
v -0.030946999788284302 0.45016300678253174 -0.17001700401306152
v -0.03589100018143654 0.44728100299835205 -0.16942700743675232
v -0.037213001400232315 0.44600799679756165 -0.17223599553108215
v -0.03700700029730797 0.4459579885005951 -0.17840899527072906
v -0.03545700013637543 0.44652798771858215 -0.17450499534606934
v -0.04707799851894379 0.4520359933376312 -0.1731940060853958
v -0.031070999801158905 0.45315900444984436 -0.1715800017118454
v -0.04453999921679497 0.4524190127849579 -0.17287099361419678
v -0.042048998177051544 0.4541510045528412 -0.174794003367424
v -0.037981998175382614 0.45494601130485535 -0.17556899785995483
v -0.044505998492240906 0.45407000184059143 -0.1761319935321808
v -0.030688999220728874 0.4502129852771759 -0.1866060048341751
v -0.026422999799251556 0.45338499546051025 -0.18705399334430695
v -0.034258998930454254 0.4466800093650818 -0.17696399986743927
v -0.044335998594760895 0.45419999957084656 -0.17714299261569977
v -0.03033299930393696 0.4539470076560974 -0.17302200198173523
v -0.04141100123524666 0.4546140134334564 -0.17601700127124786
v -0.028334999457001686 0.4554150104522705 -0.1883549988269806
v -0.025004999712109566 0.4540970027446747 -0.18298499286174774
v -0.024529999122023582 0.45419999957084656 -0.17881500720977783
v -0.026683999225497246 0.45465099811553955 -0.18694600462913513
v -0.028759999200701714 0.45271798968315125 -0.1719069927930832
v -0.027753999456763268 0.4495539963245392 -0.17343899607658386
v -0.027344999834895134 0.4513320028781891 -0.17261500656604767
v -0.028720000758767128 0.4513489902019501 -0.17131799459457397
v -0.03279900178313255 0.4470140039920807 -0.17619800567626953
v -0.024707000702619553 0.45287200808525085 -0.18315400183200836
v -0.023946000263094902 0.4522309899330139 -0.1789879947900772
v -0.029543999582529068 0.4494909942150116 -0.1820800006389618
v -0.030685000121593475 0.44835901260375977 -0.17890200018882751
v -0.02740900032222271 0.45232799649238586 -0.17271900177001953
v -0.025317000225186348 0.45252901315689087 -0.17560599744319916
v -0.02846900001168251 0.4491110146045685 -0.1776690036058426
v -0.025405999273061752 0.45096099376678467 -0.17588099837303162
f 1 2 3
f 4 1 3
f 1 5 2
f 1 4 6
f 6 5 1
f 3 2 7
f 7 2 8
f 5 9 2
f 9 5 2
f 2 9 8
f 7 10 3
f 3 11 4
f 10 11 3
f 12 4 13
f 14 6 4
f 4 12 14
f 4 11 13
f 9 5 15
f 16 15 5
f 6 16 5
f 15 16 5
f 5 16 6
f 6 17 16
f 18 17 6
f 18 6 14
f 10 7 19
f 19 7 8
f 20 8 21
f 8 22 21
f 8 9 22
f 19 8 20
f 15 22 9
f 11 10 23
f 10 19 23
f 23 24 11
f 13 11 24
f 13 25 12
f 26 12 27
f 28 14 12
f 12 26 29
f 12 29 28
f 12 25 27
f 25 13 30
f 13 24 30
f 31 18 14
f 32 14 28
f 32 31 14
f 33 15 16
f 34 22 15
f 34 15 33
f 16 35 33
f 36 16 17
f 35 16 36
f 17 37 36
f 18 37 17
f 18 38 37
f 39 18 31
f 40 38 18
f 40 18 39
f 19 41 23
f 19 42 43
f 19 43 44
f 45 19 20
f 42 19 45
f 44 41 19
f 21 45 20
f 46 45 21
f 21 47 46
f 48 47 21
f 21 22 49
f 21 49 50
f 48 21 50
f 22 34 51
f 51 49 22
f 41 24 23
f 30 24 52
f 41 52 24
f 30 53 25
f 25 54 27
f 54 25 53
f 27 55 26
f 56 57 26
f 56 26 58
f 57 29 26
f 26 55 58
f 54 55 27
f 28 29 32
f 57 32 29
f 52 53 30
f 31 32 39
f 32 59 60
f 32 61 59
f 32 62 39
f 60 62 32
f 61 32 57
f 35 63 33
f 33 63 34
f 63 64 34
f 34 64 51
f 35 65 63
f 65 35 36
f 36 66 65
f 37 66 36
f 37 38 66
f 67 68 38
f 67 38 40
f 66 38 68
f 39 67 40
f 69 67 39
f 69 39 70
f 70 39 60
f 60 39 62
f 71 41 44
f 71 52 41
f 42 72 43
f 42 73 74
f 42 74 75
f 42 45 76
f 42 76 77
f 75 72 42
f 77 73 42
f 78 79 43
f 44 43 79
f 43 72 78
f 79 71 44
f 76 45 46
f 76 46 47
f 48 80 47
f 77 47 80
f 76 47 77
f 80 48 81
f 48 50 81
f 82 83 49
f 82 49 51
f 50 49 83
f 81 50 83
f 84 82 51
f 51 64 84
f 85 86 52
f 85 52 87
f 71 87 52
f 52 86 53
f 86 88 53
f 88 89 53
f 53 89 54
f 54 89 58
f 58 55 54
f 90 57 56
f 56 91 90
f 92 91 56
f 56 93 92
f 56 58 93
f 61 57 90
f 89 94 58
f 58 95 93
f 95 58 94
f 59 96 60
f 59 97 98
f 98 96 59
f 97 59 61
f 60 98 70
f 60 96 98
f 99 61 92
f 61 99 100
f 61 100 101
f 97 61 101
f 90 91 61
f 61 91 92
f 63 65 102
f 102 64 63
f 102 84 64
f 103 102 65
f 103 65 66
f 68 103 66
f 104 68 67
f 67 105 106
f 67 106 107
f 107 104 67
f 69 105 67
f 103 68 108
f 104 108 68
f 105 69 109
f 110 69 111
f 69 110 112
f 69 70 111
f 113 109 69
f 113 69 112
f 114 115 70
f 116 114 70
f 116 70 98
f 70 117 111
f 115 117 70
f 79 87 71
f 118 78 72
f 118 72 75
f 80 74 73
f 80 73 77
f 74 119 120
f 119 74 121
f 118 74 122
f 74 118 75
f 74 123 121
f 80 123 74
f 120 122 74
f 79 78 124
f 78 125 124
f 78 118 125
f 79 126 127
f 127 128 79
f 124 126 79
f 87 79 128
f 123 80 129
f 130 80 81
f 80 130 129
f 130 81 83
f 83 82 130
f 82 84 130
f 84 102 131
f 131 130 84
f 85 88 86
f 132 85 87
f 85 132 133
f 134 135 85
f 85 133 134
f 135 88 85
f 87 128 132
f 88 136 89
f 135 136 88
f 89 136 94
f 137 138 92
f 138 99 92
f 92 139 137
f 93 139 92
f 140 93 141
f 95 141 93
f 93 140 142
f 142 139 93
f 136 143 94
f 143 144 94
f 94 144 95
f 145 95 146
f 95 144 146
f 95 145 147
f 95 147 141
f 97 148 98
f 148 97 101
f 98 148 116
f 99 138 149
f 149 100 99
f 101 100 148
f 150 148 100
f 150 100 149
f 131 102 151
f 151 102 103
f 108 151 103
f 108 104 107
f 106 105 152
f 109 152 105
f 153 106 154
f 107 106 153
f 106 152 154
f 153 108 107
f 155 156 108
f 155 108 157
f 158 151 108
f 158 108 156
f 157 108 153
f 109 154 152
f 159 154 109
f 159 109 113
f 111 160 110
f 110 161 162
f 162 112 110
f 110 160 163
f 164 165 110
f 161 110 165
f 110 163 164
f 166 111 167
f 111 168 160
f 111 117 169
f 111 169 167
f 168 111 166
f 113 112 162
f 170 113 162
f 113 171 159
f 113 170 171
f 172 115 114
f 114 116 173
f 114 174 175
f 114 175 172
f 173 174 114
f 115 176 117
f 177 176 115
f 177 115 172
f 116 148 150
f 116 178 173
f 179 178 116
f 116 150 180
f 116 180 179
f 169 117 176
f 118 122 181
f 118 182 183
f 181 182 118
f 118 184 125
f 183 184 118
f 119 185 120
f 185 119 186
f 119 121 186
f 120 185 187
f 187 122 120
f 186 121 188
f 188 121 123
f 187 181 122
f 189 123 190
f 123 129 190
f 189 188 123
f 124 125 191
f 191 126 124
f 184 191 125
f 126 192 127
f 193 126 191
f 194 126 193
f 192 126 194
f 192 128 127
f 192 132 128
f 195 129 196
f 130 196 129
f 195 190 129
f 130 155 196
f 155 130 131
f 155 131 151
f 192 133 132
f 192 134 133
f 135 134 197
f 198 197 134
f 134 192 198
f 199 200 135
f 200 136 135
f 135 197 199
f 200 143 136
f 138 137 201
f 137 202 203
f 203 201 137
f 202 137 139
f 138 201 149
f 202 139 142
f 204 140 141
f 140 204 142
f 141 147 204
f 205 202 142
f 206 207 142
f 204 208 142
f 207 205 142
f 142 209 206
f 208 209 142
f 200 144 143
f 144 210 146
f 210 144 200
f 146 211 145
f 145 212 213
f 213 147 145
f 145 211 212
f 210 211 146
f 208 204 147
f 208 147 213
f 201 150 149
f 150 201 214
f 150 214 180
f 151 158 155
f 153 215 157
f 154 215 153
f 159 216 154
f 216 215 154
f 217 196 155
f 218 217 155
f 218 155 219
f 158 156 155
f 157 215 155
f 219 155 220
f 215 220 155
f 216 159 221
f 171 221 159
f 222 160 168
f 163 160 222
f 161 223 162
f 224 161 225
f 161 165 225
f 161 224 223
f 162 223 170
f 226 163 222
f 164 163 226
f 226 165 164
f 226 225 165
f 166 167 227
f 226 166 228
f 166 229 228
f 168 166 226
f 227 229 166
f 167 169 230
f 167 230 227
f 168 226 222
f 231 230 169
f 176 231 169
f 170 232 171
f 232 170 223
f 232 221 171
f 172 175 233
f 233 177 172
f 174 173 234
f 173 178 235
f 173 235 236
f 173 236 234
f 174 237 175
f 238 239 174
f 238 174 234
f 174 239 237
f 175 237 233
f 176 177 227
f 227 231 176
f 177 233 240
f 177 240 227
f 179 235 178
f 179 180 241
f 235 179 236
f 179 241 242
f 179 242 236
f 243 244 180
f 180 214 243
f 244 241 180
f 245 181 246
f 247 181 187
f 181 247 246
f 182 181 248
f 249 248 181
f 181 245 250
f 181 250 249
f 182 248 183
f 183 248 251
f 252 183 251
f 253 184 183
f 253 183 252
f 253 254 184
f 184 255 191
f 254 255 184
f 256 187 185
f 257 256 185
f 185 186 257
f 186 188 257
f 247 187 256
f 257 188 258
f 188 259 258
f 260 188 189
f 259 188 260
f 190 261 189
f 260 189 261
f 190 262 263
f 190 263 264
f 262 190 195
f 264 261 190
f 265 193 191
f 191 255 265
f 192 194 198
f 193 265 266
f 193 266 267
f 193 268 194
f 267 268 193
f 194 269 198
f 269 194 270
f 270 194 271
f 272 271 194
f 272 194 268
f 195 196 273
f 274 195 273
f 195 275 262
f 195 274 275
f 273 196 276
f 276 196 217
f 269 199 197
f 269 197 198
f 200 199 277
f 278 277 199
f 278 199 269
f 277 210 200
f 214 201 203
f 202 205 203
f 207 203 205
f 207 206 203
f 279 203 206
f 279 280 203
f 203 281 214
f 203 280 281
f 206 282 279
f 282 206 209
f 208 213 209
f 282 209 213
f 210 283 284
f 210 284 211
f 210 277 283
f 211 284 285
f 211 285 212
f 212 286 213
f 212 285 286
f 287 213 286
f 213 287 282
f 243 214 288
f 214 281 288
f 220 215 216
f 216 289 220
f 216 290 289
f 291 216 221
f 291 290 216
f 276 217 292
f 217 218 293
f 217 293 292
f 293 218 219
f 219 294 295
f 296 219 220
f 297 219 296
f 294 219 297
f 293 219 295
f 220 289 298
f 220 299 300
f 296 220 300
f 299 220 298
f 232 301 221
f 301 291 221
f 301 232 223
f 223 302 301
f 224 302 223
f 225 303 224
f 304 224 305
f 224 304 302
f 305 224 303
f 306 225 226
f 303 225 307
f 225 306 307
f 226 228 308
f 308 306 226
f 227 230 231
f 227 240 309
f 227 309 310
f 311 227 310
f 227 311 229
f 228 311 308
f 229 311 228
f 233 237 312
f 240 233 313
f 233 314 315
f 312 314 233
f 315 313 233
f 236 238 234
f 236 316 271
f 236 271 272
f 236 272 238
f 236 242 316
f 237 266 312
f 237 239 266
f 238 268 239
f 272 268 238
f 267 266 239
f 267 239 268
f 240 313 309
f 241 244 317
f 317 242 241
f 318 316 242
f 318 242 317
f 244 243 317
f 243 318 317
f 319 320 243
f 321 243 320
f 321 322 243
f 318 243 322
f 319 243 288
f 323 245 246
f 323 250 245
f 247 323 246
f 256 324 247
f 323 247 324
f 249 251 248
f 325 249 326
f 327 251 249
f 327 249 325
f 249 250 326
f 323 326 250
f 251 327 252
f 252 328 253
f 327 328 252
f 254 253 314
f 314 253 328
f 265 254 312
f 254 265 255
f 254 314 312
f 256 329 330
f 257 331 256
f 256 332 333
f 334 256 333
f 324 256 334
f 256 330 332
f 329 256 331
f 331 257 335
f 258 336 257
f 257 336 335
f 258 337 336
f 338 258 259
f 337 258 338
f 339 338 259
f 259 260 264
f 259 264 263
f 263 340 259
f 340 339 259
f 260 261 264
f 262 340 263
f 340 262 341
f 342 341 262
f 262 343 342
f 344 343 262
f 262 345 344
f 346 345 262
f 347 346 262
f 347 262 275
f 312 266 265
f 270 278 269
f 270 271 348
f 270 349 350
f 350 278 270
f 349 270 322
f 348 322 270
f 348 271 316
f 351 273 276
f 273 352 274
f 273 351 352
f 274 352 353
f 274 353 354
f 354 275 274
f 355 275 354
f 356 347 275
f 356 275 355
f 276 292 357
f 351 276 358
f 276 357 358
f 283 277 278
f 283 278 350
f 359 279 360
f 279 361 362
f 282 363 279
f 279 363 360
f 361 279 359
f 362 280 279
f 280 362 320
f 320 319 280
f 288 280 319
f 281 280 288
f 282 364 363
f 287 364 282
f 284 283 350
f 365 284 350
f 285 284 365
f 365 286 285
f 366 287 286
f 365 367 286
f 286 367 366
f 287 366 364
f 289 368 298
f 289 290 368
f 290 291 368
f 291 301 368
f 292 369 357
f 292 293 369
f 295 370 293
f 293 370 369
f 294 371 295
f 372 294 297
f 294 372 371
f 370 295 371
f 296 373 297
f 300 373 296
f 297 374 372
f 373 374 297
f 368 299 298
f 300 299 375
f 375 299 376
f 299 368 376
f 375 377 300
f 377 373 300
f 378 301 302
f 368 301 378
f 304 378 302
f 307 379 303
f 303 380 305
f 381 303 379
f 380 303 381
f 305 382 304
f 383 304 384
f 304 383 378
f 304 382 384
f 380 382 305
f 307 306 308
f 308 385 307
f 307 386 379
f 385 386 307
f 311 385 308
f 309 387 388
f 309 388 310
f 309 313 387
f 389 311 310
f 310 388 389
f 389 390 311
f 390 385 311
f 387 313 315
f 314 328 315
f 315 328 391
f 391 387 315
f 316 318 348
f 318 322 348
f 320 362 392
f 393 320 392
f 321 320 393
f 394 349 321
f 349 322 321
f 394 321 393
f 324 395 323
f 326 323 396
f 397 323 395
f 323 397 396
f 324 334 398
f 395 324 398
f 326 399 325
f 391 327 325
f 325 400 391
f 399 400 325
f 396 399 326
f 327 391 328
f 329 401 330
f 402 329 331
f 329 402 403
f 403 401 329
f 404 332 330
f 405 404 330
f 330 401 405
f 406 402 331
f 407 406 331
f 408 331 409
f 331 408 407
f 331 335 410
f 411 331 412
f 413 412 331
f 414 413 331
f 415 414 331
f 331 410 415
f 409 331 411
f 333 332 416
f 416 332 417
f 332 404 417
f 334 333 418
f 419 420 333
f 333 421 419
f 333 422 421
f 418 333 423
f 333 416 422
f 333 420 423
f 398 334 424
f 418 425 334
f 424 334 425
f 336 426 335
f 335 427 410
f 335 426 346
f 335 346 427
f 428 429 336
f 430 428 336
f 336 431 430
f 337 431 336
f 426 336 429
f 337 432 433
f 431 337 433
f 434 432 337
f 337 338 434
f 434 338 339
f 339 435 434
f 435 339 340
f 340 341 435
f 341 436 435
f 436 341 342
f 342 433 436
f 343 433 342
f 437 343 438
f 343 437 433
f 343 344 438
f 344 345 438
f 345 346 429
f 345 429 428
f 438 345 428
f 427 346 347
f 429 346 426
f 439 440 347
f 356 439 347
f 441 427 347
f 347 440 441
f 349 394 350
f 350 442 365
f 394 442 350
f 351 358 443
f 352 351 444
f 443 444 351
f 352 445 446
f 446 353 352
f 444 445 352
f 354 353 355
f 446 355 353
f 355 447 448
f 356 355 448
f 446 447 355
f 356 448 439
f 370 357 369
f 449 357 370
f 450 357 449
f 357 451 358
f 357 450 451
f 452 443 358
f 358 453 452
f 454 453 358
f 455 358 451
f 455 454 358
f 360 456 359
f 359 457 361
f 457 359 456
f 363 458 360
f 458 456 360
f 459 362 361
f 460 459 361
f 457 460 361
f 392 362 459
f 458 363 364
f 458 364 461
f 461 364 366
f 365 462 463
f 365 464 367
f 463 464 365
f 365 442 462
f 465 366 367
f 465 461 366
f 466 465 367
f 367 467 468
f 464 467 367
f 367 469 466
f 367 468 469
f 368 378 470
f 470 376 368
f 471 370 472
f 471 449 370
f 371 472 370
f 372 473 371
f 473 472 371
f 474 372 374
f 474 473 372
f 373 377 374
f 475 374 377
f 474 374 475
f 476 377 375
f 375 477 478
f 478 476 375
f 477 375 376
f 477 376 470
f 377 479 475
f 476 479 377
f 480 378 383
f 470 378 480
f 379 481 482
f 379 482 381
f 379 483 481
f 484 483 379
f 379 386 484
f 380 482 382
f 482 380 381
f 384 382 482
f 384 485 383
f 383 486 480
f 486 383 485
f 487 485 384
f 482 487 384
f 390 484 385
f 385 484 386
f 387 391 488
f 488 388 387
f 489 389 388
f 489 388 488
f 490 389 489
f 490 390 389
f 484 390 490
f 391 400 491
f 491 492 391
f 493 494 391
f 493 391 492
f 488 391 494
f 459 495 392
f 392 495 393
f 393 496 394
f 495 496 393
f 462 442 394
f 462 394 497
f 496 497 394
f 498 395 398
f 397 395 498
f 396 499 399
f 500 499 396
f 500 396 397
f 501 397 498
f 397 501 500
f 424 498 398
f 399 499 400
f 400 499 500
f 400 500 491
f 502 401 403
f 502 405 401
f 406 503 402
f 402 503 504
f 504 403 402
f 505 502 403
f 506 505 403
f 506 403 504
f 404 405 507
f 404 507 417
f 405 502 508
f 507 405 508
f 509 510 406
f 406 511 509
f 510 503 406
f 511 406 407
f 512 511 407
f 408 513 407
f 513 512 407
f 408 409 514
f 514 515 408
f 516 517 408
f 515 516 408
f 518 408 517
f 513 408 518
f 411 519 409
f 409 519 514
f 427 520 410
f 415 410 521
f 520 522 410
f 522 521 410
f 523 411 412
f 411 523 524
f 525 519 411
f 525 411 524
f 526 523 412
f 526 412 413
f 413 414 527
f 413 527 528
f 526 413 528
f 414 415 529
f 414 530 531
f 531 527 414
f 529 530 414
f 415 521 529
f 416 417 422
f 417 507 422
f 532 418 423
f 532 425 418
f 419 533 420
f 534 535 419
f 419 536 534
f 537 536 419
f 537 419 421
f 533 419 538
f 419 535 538
f 420 533 423
f 537 421 422
f 422 505 539
f 422 539 537
f 422 508 505
f 507 508 422
f 423 533 532
f 424 540 498
f 540 424 425
f 532 541 425
f 542 425 541
f 542 540 425
f 441 543 427
f 520 427 543
f 438 428 430
f 437 438 430
f 430 431 437
f 437 431 433
f 432 436 433
f 435 436 432
f 435 432 434
f 544 440 439
f 439 448 545
f 439 545 546
f 439 546 544
f 441 440 544
f 547 441 544
f 543 441 547
f 444 443 548
f 549 548 443
f 550 443 452
f 550 549 443
f 548 551 444
f 551 445 444
f 445 447 446
f 447 445 551
f 552 448 447
f 447 551 552
f 448 552 553
f 553 545 448
f 554 449 471
f 450 449 554
f 450 554 555
f 556 450 555
f 450 556 451
f 451 556 455
f 452 453 550
f 550 453 557
f 454 558 453
f 557 453 559
f 560 453 561
f 560 559 453
f 453 558 561
f 454 562 563
f 564 558 454
f 454 563 564
f 455 565 454
f 566 454 565
f 562 454 566
f 556 565 455
f 567 456 458
f 457 456 567
f 460 457 567
f 458 568 567
f 569 458 461
f 568 458 569
f 459 460 570
f 459 570 495
f 567 571 460
f 572 460 571
f 570 460 572
f 569 461 465
f 462 497 463
f 573 464 463
f 463 497 573
f 573 467 464
f 466 569 465
f 574 569 466
f 574 466 469
f 468 467 575
f 467 573 576
f 467 577 575
f 576 577 467
f 575 469 468
f 574 469 575
f 578 477 470
f 578 470 480
f 472 579 471
f 580 581 471
f 580 471 579
f 581 554 471
f 473 559 472
f 559 579 472
f 559 473 474
f 559 474 582
f 583 582 474
f 474 584 583
f 475 584 474
f 585 475 479
f 584 475 585
f 541 479 476
f 476 478 541
f 477 586 478
f 477 578 586
f 541 478 587
f 478 586 587
f 532 533 479
f 532 479 541
f 533 538 479
f 538 585 479
f 486 578 480
f 588 482 481
f 589 481 590
f 481 589 591
f 481 591 588
f 481 483 590
f 487 482 588
f 483 484 490
f 490 592 483
f 483 593 590
f 483 592 594
f 594 593 483
f 487 595 485
f 486 485 595
f 486 596 578
f 595 597 486
f 486 598 596
f 597 598 486
f 591 487 588
f 487 599 595
f 487 591 599
f 494 489 488
f 489 494 493
f 489 493 600
f 490 489 600
f 592 490 600
f 500 601 491
f 601 492 491
f 600 493 492
f 601 600 492
f 495 602 496
f 495 570 602
f 602 497 496
f 602 573 497
f 540 603 498
f 501 498 603
f 500 604 605
f 501 604 500
f 500 605 606
f 500 606 607
f 601 500 607
f 608 501 603
f 501 608 604
f 502 505 508
f 510 609 503
f 504 503 610
f 609 610 503
f 610 506 504
f 505 611 612
f 505 612 613
f 613 539 505
f 505 610 611
f 506 610 505
f 509 614 510
f 615 616 509
f 617 509 616
f 509 618 615
f 509 617 614
f 618 509 511
f 619 510 614
f 609 510 619
f 511 512 618
f 512 513 620
f 620 618 512
f 513 518 620
f 514 621 622
f 622 515 514
f 623 514 519
f 621 514 623
f 622 624 515
f 515 625 516
f 624 625 515
f 626 517 516
f 516 625 626
f 627 517 628
f 517 629 518
f 627 615 517
f 615 629 517
f 626 628 517
f 620 518 629
f 519 525 623
f 630 520 531
f 531 520 543
f 522 520 630
f 529 521 630
f 630 521 522
f 523 526 524
f 524 526 631
f 524 631 632
f 633 524 632
f 525 524 633
f 525 633 623
f 526 528 631
f 634 527 531
f 528 527 634
f 631 528 634
f 529 630 530
f 530 630 531
f 543 634 531
f 583 535 534
f 627 635 534
f 634 543 534
f 634 534 635
f 534 616 627
f 534 543 636
f 636 583 534
f 616 534 617
f 637 617 534
f 534 536 637
f 585 535 583
f 585 538 535
f 637 536 638
f 613 638 536
f 537 639 536
f 639 613 536
f 537 539 639
f 613 639 539
f 540 640 641
f 640 540 542
f 641 603 540
f 642 542 541
f 642 541 587
f 542 643 640
f 642 643 542
f 543 547 636
f 544 644 547
f 546 644 544
f 636 644 545
f 546 545 644
f 545 583 636
f 553 582 545
f 582 583 545
f 547 644 636
f 551 548 645
f 548 549 645
f 549 550 646
f 646 645 549
f 557 646 550
f 551 645 552
f 645 553 552
f 582 553 645
f 554 647 555
f 554 648 647
f 648 554 581
f 556 555 649
f 649 555 650
f 555 647 650
f 556 651 565
f 652 651 556
f 556 649 652
f 582 645 557
f 646 557 645
f 559 582 557
f 558 653 561
f 558 564 653
f 559 560 654
f 654 579 559
f 655 560 561
f 654 560 655
f 653 655 561
f 562 656 563
f 657 562 566
f 562 657 656
f 658 564 563
f 656 659 563
f 563 659 660
f 563 660 658
f 564 658 661
f 564 661 653
f 566 565 662
f 651 662 565
f 566 662 663
f 657 566 663
f 568 571 567
f 568 569 574
f 574 664 568
f 664 571 568
f 602 570 665
f 570 572 665
f 572 571 664
f 666 572 664
f 665 572 666
f 573 602 576
f 666 574 575
f 574 666 664
f 575 577 666
f 602 665 576
f 665 577 576
f 665 666 577
f 586 578 596
f 580 579 654
f 648 581 580
f 580 667 648
f 580 654 667
f 585 583 584
f 668 587 586
f 596 668 586
f 642 587 669
f 668 669 587
f 590 670 589
f 671 591 589
f 671 589 670
f 593 670 590
f 672 591 671
f 599 591 672
f 592 606 594
f 607 606 592
f 600 607 592
f 594 670 593
f 594 606 605
f 594 605 670
f 595 599 673
f 673 597 595
f 668 596 598
f 673 598 597
f 669 668 598
f 669 598 674
f 598 673 674
f 599 672 673
f 601 607 600
f 641 608 603
f 604 675 605
f 604 608 675
f 670 605 676
f 605 677 678
f 605 678 676
f 605 675 677
f 608 641 675
f 610 609 611
f 609 619 611
f 679 612 611
f 611 619 679
f 680 612 679
f 613 612 638
f 680 638 612
f 679 614 617
f 619 614 679
f 616 615 627
f 615 681 629
f 615 618 681
f 617 680 679
f 680 617 637
f 681 618 620
f 629 681 620
f 621 624 622
f 621 623 682
f 682 624 621
f 623 633 632
f 682 623 632
f 682 683 624
f 624 683 625
f 625 683 626
f 626 683 628
f 635 627 628
f 683 682 628
f 635 628 682
f 634 635 631
f 632 631 635
f 635 682 632
f 638 680 637
f 684 641 640
f 684 640 685
f 643 685 640
f 678 677 641
f 678 641 684
f 675 641 677
f 642 669 686
f 642 686 643
f 643 686 687
f 643 687 685
f 688 689 647
f 690 688 647
f 647 648 690
f 689 650 647
f 648 667 690
f 652 649 650
f 691 652 650
f 691 650 689
f 662 651 692
f 692 651 693
f 651 652 693
f 652 691 693
f 653 694 655
f 653 661 695
f 653 695 694
f 654 655 667
f 694 667 655
f 696 659 656
f 656 657 696
f 697 696 657
f 697 657 663
f 698 661 658
f 658 660 698
f 660 659 699
f 700 659 701
f 659 700 699
f 701 659 696
f 660 702 698
f 703 704 660
f 703 660 699
f 702 660 704
f 695 661 698
f 662 697 663
f 697 662 705
f 705 662 706
f 692 706 662
f 694 690 667
f 674 686 669
f 671 670 676
f 707 671 676
f 674 672 671
f 671 708 674
f 671 707 708
f 673 672 674
f 709 686 674
f 709 674 708
f 676 678 707
f 707 678 684
f 707 684 710
f 684 685 710
f 710 685 687
f 709 687 686
f 687 709 710
f 688 711 689
f 688 694 712
f 688 690 694
f 711 688 712
f 689 713 691
f 711 713 689
f 691 714 693
f 713 714 691
f 715 692 693
f 692 716 717
f 692 718 716
f 692 717 706
f 692 719 718
f 692 715 719
f 693 720 715
f 714 720 693
f 695 721 694
f 721 712 694
f 695 698 721
f 700 701 696
f 696 722 700
f 697 705 696
f 696 705 722
f 723 721 698
f 698 702 723
f 724 703 699
f 699 700 724
f 700 722 724
f 702 725 726
f 702 726 723
f 702 704 725
f 704 703 727
f 727 703 724
f 728 704 729
f 704 727 729
f 728 730 704
f 725 704 730
f 705 706 731
f 722 705 732
f 731 732 705
f 731 706 717
f 710 708 707
f 709 708 710
f 711 733 713
f 711 734 733
f 712 734 711
f 712 721 735
f 736 712 737
f 735 738 712
f 712 738 737
f 712 736 734
f 713 733 714
f 733 739 714
f 714 739 720
f 740 719 715
f 740 715 741
f 720 741 715
f 717 716 742
f 718 743 716
f 743 744 716
f 744 742 716
f 717 742 745
f 717 746 732
f 717 732 731
f 717 747 746
f 745 747 717
f 718 719 743
f 719 740 743
f 741 720 748
f 720 739 748
f 721 723 737
f 721 738 735
f 737 738 721
f 724 722 727
f 722 732 727
f 723 726 749
f 723 749 737
f 750 726 725
f 751 725 752
f 725 751 750
f 752 725 730
f 753 726 750
f 754 755 726
f 755 749 726
f 756 754 726
f 726 753 757
f 726 757 756
f 758 729 727
f 727 732 746
f 727 745 759
f 727 759 758
f 747 745 727
f 746 747 727
f 729 760 728
f 728 761 762
f 728 762 763
f 728 760 761
f 763 730 728
f 758 760 729
f 730 763 752
f 739 733 734
f 764 734 736
f 739 734 764
f 737 749 736
f 736 755 764
f 755 736 749
f 755 754 739
f 755 739 764
f 748 739 754
f 765 743 740
f 765 740 766
f 767 740 741
f 766 740 767
f 756 768 741
f 756 741 748
f 769 741 768
f 767 741 769
f 742 744 770
f 770 745 742
f 771 743 765
f 744 743 772
f 773 772 743
f 773 743 774
f 743 771 774
f 744 772 770
f 745 770 775
f 745 775 759
f 754 756 748
f 776 750 751
f 776 753 750
f 751 752 777
f 751 777 776
f 777 752 763
f 753 776 778
f 778 757 753
f 756 757 768
f 778 768 757
f 758 759 779
f 779 761 758
f 761 760 758
f 759 775 779
f 761 780 762
f 761 774 780
f 781 761 779
f 774 761 781
f 762 782 763
f 783 762 784
f 782 762 783
f 762 780 784
f 782 785 763
f 785 777 763
f 771 765 786
f 787 765 766
f 765 787 788
f 765 788 789
f 765 789 786
f 766 767 769
f 769 790 766
f 787 766 790
f 768 778 769
f 778 790 769
f 775 770 773
f 773 770 772
f 774 771 780
f 780 771 786
f 775 773 781
f 781 773 774
f 779 775 781
f 791 776 777
f 792 793 776
f 792 776 791
f 776 793 794
f 776 794 778
f 791 777 785
f 778 794 790
f 780 786 784
f 783 785 782
f 784 792 783
f 792 791 783
f 791 785 783
f 784 786 795
f 784 796 792
f 784 795 796
f 786 789 795
f 787 790 794
f 787 794 797
f 797 798 787
f 798 788 787
f 796 795 788
f 796 788 798
f 789 788 795
f 793 792 797
f 792 796 798
f 792 798 797
f 797 794 793
