# Generated by Visualization Toolkit
v -0.04562700167298317 0.4324989914894104 0.13157899677753448
v -0.0485370010137558 0.4316830039024353 0.13253599405288696
v -0.047175001353025436 0.4335139989852905 0.13294200599193573
v -0.04364699870347977 0.43010199069976807 0.12985500693321228
v -0.046105001121759415 0.42875298857688904 0.12982599437236786
v -0.04529400169849396 0.4358769953250885 0.13387000560760498
v -0.041060999035835266 0.4312629997730255 0.13013899326324463
v -0.04896099865436554 0.43227699398994446 0.13369299471378326
v -0.04800000041723251 0.4268459975719452 0.13018600642681122
v -0.049309998750686646 0.4299910068511963 0.1325480043888092
v -0.04659000039100647 0.4366990029811859 0.1363310068845749
v -0.041432999074459076 0.42701399326324463 0.13103200495243073
v -0.04381199926137924 0.42337900400161743 0.13147400319576263
v -0.038637999445199966 0.4324690103530884 0.13077400624752045
v -0.04054800048470497 0.438416987657547 0.13579900562763214
v -0.04244599863886833 0.4390319883823395 0.13829299807548523
v -0.03901999816298485 0.4277929961681366 0.13188500702381134
v -0.050025999546051025 0.43047699332237244 0.1340170055627823
v -0.048673998564481735 0.43501898646354675 0.1367570012807846
v -0.04967999830842018 0.4247269928455353 0.13068699836730957
v -0.04594400152564049 0.4238690137863159 0.13118800520896912
v -0.05025099962949753 0.4290870130062103 0.13332599401474
v -0.0475739985704422 0.43690600991249084 0.13817700743675232
v -0.04606400057673454 0.43821701407432556 0.13936999440193176
v -0.03966600075364113 0.4239090085029602 0.13273000717163086
v -0.044690001755952835 0.41760098934173584 0.13582800328731537
v -0.05189400166273117 0.41442999243736267 0.13576899468898773
v -0.041106998920440674 0.42165499925613403 0.13319499790668488
v -0.04723000153899193 0.42315199971199036 0.1311510056257248
v -0.03663399815559387 0.4290420114994049 0.13270699977874756
v -0.03606899827718735 0.43377599120140076 0.13168799877166748
v -0.0352029986679554 0.43740901350975037 0.1353130042552948
v -0.034366998821496964 0.44017601013183594 0.13896800577640533
v -0.03929800167679787 0.4398860037326813 0.1408820003271103
v -0.03595200181007385 0.44059500098228455 0.14236000180244446
v -0.044071000069379807 0.43924999237060547 0.14091800153255463
v -0.04112499952316284 0.4400329887866974 0.14365899562835693
v -0.034175001084804535 0.42660900950431824 0.13485799729824066
v -0.05066400021314621 0.4285440146923065 0.1351650059223175
v -0.051360998302698135 0.4260439872741699 0.1342950016260147
v -0.04998200014233589 0.4309209883213043 0.13697299361228943
v -0.04895700141787529 0.43316298723220825 0.13877299427986145
v -0.050762999802827835 0.4195829927921295 0.13286200165748596
v -0.05258199945092201 0.41889500617980957 0.13304300606250763
v -0.05234599858522415 0.4213719964027405 0.13190899789333344
v -0.05186000093817711 0.42449599504470825 0.13312900066375732
v -0.051562000066041946 0.42339301109313965 0.13206300139427185
v -0.05293000116944313 0.42357900738716125 0.13526499271392822
v -0.04748699814081192 0.43540599942207336 0.1408340036869049
v -0.047054000198841095 0.4343099892139435 0.143886998295784
v -0.0425879992544651 0.43693700432777405 0.14752399921417236
v -0.04489700123667717 0.4357849955558777 0.14562100172042847
v -0.03882899880409241 0.42213499546051025 0.1343419998884201
v -0.04776399955153465 0.41442400217056274 0.13789400458335876
v -0.04035000130534172 0.41993099451065063 0.13544699549674988
v -0.04240500181913376 0.41720399260520935 0.13754400610923767
v -0.05852700024843216 0.4062829911708832 0.1396380066871643
v -0.055077001452445984 0.4131320118904114 0.13582900166511536
v -0.04997299984097481 0.41147300601005554 0.14023099839687347
v -0.051224999129772186 0.41749900579452515 0.1338289976119995
v -0.053693000227212906 0.41613298654556274 0.13429200649261475
v -0.03058299981057644 0.4322740137577057 0.13500000536441803
v -0.02985999919474125 0.4363250136375427 0.13474899530410767
v -0.03218400105834007 0.43852800130844116 0.13700200617313385
v -0.034348998218774796 0.4404279887676239 0.1451369971036911
v -0.03136400133371353 0.4397279918193817 0.1432809978723526
v -0.020029999315738678 0.434673011302948 0.1447100043296814
v -0.03806700184941292 0.4389140009880066 0.15014800429344177
v -0.03408300131559372 0.4394580125808716 0.15310700237751007
v -0.03212200105190277 0.4406850039958954 0.15112200379371643
v -0.04042999818921089 0.4387879967689514 0.14702099561691284
v -0.03143800050020218 0.42823299765586853 0.1357710063457489
v -0.029123999178409576 0.42669200897216797 0.13853999972343445
v -0.033670999109745026 0.42462700605392456 0.13666799664497375
v -0.0510529987514019 0.42705899477005005 0.13715800642967224
v -0.053289998322725296 0.4227350056171417 0.1367660015821457
v -0.050182998180389404 0.42950400710105896 0.13925500214099884
v -0.04960700124502182 0.4302330017089844 0.14305000007152557
v -0.054875001311302185 0.4185110032558441 0.13280099630355835
v -0.05389399826526642 0.4203529953956604 0.13312500715255737
v -0.05309399962425232 0.42216598987579346 0.13331300020217896
v -0.05422599986195564 0.42124900221824646 0.135453000664711
v -0.05531900003552437 0.42024800181388855 0.13856099545955658
v -0.05086100101470947 0.42936500906944275 0.14946499466896057
v -0.04901599884033203 0.43123701214790344 0.15207499265670776
v -0.04876299947500229 0.4284310042858124 0.1680459976196289
v -0.040337998420000076 0.4342609941959381 0.15901799499988556
v -0.0477290004491806 0.4084259867668152 0.14539900422096252
v -0.04028100147843361 0.417508989572525 0.13960899412631989
v -0.03290000185370445 0.4222570061683655 0.14081700146198273
v -0.029975999146699905 0.42235100269317627 0.1441809982061386
v -0.03325999900698662 0.4234980046749115 0.1384049952030182
v -0.04224700108170509 0.4148150086402893 0.1418129950761795
v -0.060068000108003616 0.3993160128593445 0.14379200339317322
v -0.06115400046110153 0.40275299549102783 0.1409360021352768
v -0.06089299917221069 0.40734899044036865 0.1368809938430786
v -0.05623200163245201 0.40205100178718567 0.14467300474643707
v -0.05896199867129326 0.4164009988307953 0.13182899355888367
v -0.028209000825881958 0.42931801080703735 0.1369680017232895
v -0.027363000437617302 0.4331820011138916 0.1364549994468689
v -0.03185100108385086 0.4403209984302521 0.14723899960517883
v -0.029608000069856644 0.4403020143508911 0.14895200729370117
v -0.027442999184131622 0.440203994512558 0.1505430042743683
v -0.017403999343514442 0.4391309916973114 0.15413500368595123
v -0.02168699912726879 0.4321080148220062 0.14211100339889526
v -0.01738799922168255 0.4344640076160431 0.14667999744415283
v -0.038013000041246414 0.43514999747276306 0.15813900530338287
v -0.03611600026488304 0.4385150074958801 0.15302999317646027
v -0.03269299864768982 0.43874800205230713 0.15510599315166473
v -0.02739899978041649 0.44038400053977966 0.15458600223064423
v -0.0290910005569458 0.439179003238678 0.1559789925813675
v -0.03138900175690651 0.4394409954547882 0.15426400303840637
v -0.030762000009417534 0.4247870147228241 0.1392820030450821
v -0.029071999713778496 0.42505401372909546 0.14044199883937836
v -0.024157999083399773 0.4276120066642761 0.14100000262260437
v -0.027310000732541084 0.4252620041370392 0.1415189951658249
v -0.05400099977850914 0.422544002532959 0.14050200581550598
v -0.0507499985396862 0.4284670054912567 0.14477300643920898
v -0.0673379972577095 0.41237398982048035 0.1372860074043274
v -0.05749199911952019 0.4175820052623749 0.13578400015830994
v -0.05588199943304062 0.420524001121521 0.14341899752616882
v -0.051235999912023544 0.42926499247550964 0.15392999351024628
v -0.05575399845838547 0.42373400926589966 0.15511199831962585
v -0.05243999883532524 0.4284290075302124 0.15940000116825104
v -0.050967998802661896 0.42939499020576477 0.1616079956293106
v -0.05192200094461441 0.4288730025291443 0.1568640023469925
v -0.05050100013613701 0.4286479949951172 0.16519199311733246
v -0.043692998588085175 0.430866003036499 0.16539600491523743
v -0.04567199945449829 0.4274199903011322 0.16893500089645386
v -0.04922899976372719 0.42702099680900574 0.16943100094795227
v -0.0517750009894371 0.4263649880886078 0.1701049953699112
v -0.03633200004696846 0.4285849928855896 0.15844200551509857
v -0.0349310003221035 0.42972999811172485 0.15704700350761414
v -0.031530000269412994 0.43193700909614563 0.15626999735832214
v -0.039785999804735184 0.43017399311065674 0.16105300188064575
v -0.05132399871945381 0.4035789966583252 0.14698399603366852
v -0.04530100151896477 0.40625399351119995 0.1503860056400299
v -0.04841599985957146 0.40394100546836853 0.1491290032863617
v -0.04183400049805641 0.4133940041065216 0.14577899873256683
v -0.037342000752687454 0.41817501187324524 0.14284999668598175
v -0.030274000018835068 0.42359399795532227 0.14163300395011902
v -0.03271099925041199 0.4213539958000183 0.14763300120830536
v -0.025119999423623085 0.4232749938964844 0.14835600554943085
v -0.05784099921584129 0.3955880105495453 0.14785300195217133
v -0.06242100149393082 0.39643600583076477 0.14439299702644348
v -0.062609001994133 0.4046129882335663 0.1382019966840744
v -0.06697700172662735 0.41511300206184387 0.12081000208854675
v -0.0676330029964447 0.4183320105075836 0.12154900282621384
v -0.06541100144386292 0.419607013463974 0.12070100009441376
v -0.024992000311613083 0.4302150011062622 0.1384509950876236
v -0.02461099997162819 0.4400559961795807 0.15647000074386597
v -0.0217250008136034 0.4397119879722595 0.1583459973335266
v -0.019395999610424042 0.439518004655838 0.1560879945755005
v -0.015112999826669693 0.4366450011730194 0.15171200037002563
v -0.015414999797940254 0.43869200348854065 0.15503500401973724
v -0.014821999706327915 0.4388970136642456 0.15908899903297424
v -0.020762000232934952 0.4294619858264923 0.14218300580978394
v -0.018125999718904495 0.4293070137500763 0.144663006067276
v -0.013663999736309052 0.43139201402664185 0.14872099459171295
v -0.01182899996638298 0.4342139959335327 0.15043799579143524
v -0.012556999921798706 0.43631500005722046 0.15341900289058685
v -0.0332150012254715 0.4369080066680908 0.15759800374507904
v -0.025829000398516655 0.4390380084514618 0.15755100548267365
v -0.0274679996073246 0.4377700090408325 0.15903900563716888
v -0.01900400035083294 0.4276849925518036 0.14495299756526947
v -0.023267999291419983 0.4255940020084381 0.14411099255084991
v -0.025335000827908516 0.4254780113697052 0.14271900057792664
v -0.02609100006520748 0.42401498556137085 0.14476600289344788
v -0.05611199885606766 0.42118901014328003 0.1479959934949875
v -0.06737300008535385 0.41165098547935486 0.14609399437904358
v -0.10810799896717072 0.40426400303840637 0.10897000133991241
v -0.06071000173687935 0.41433900594711304 0.15872499346733093
v -0.056999001652002335 0.420632004737854 0.1537729948759079
v -0.056400999426841736 0.42353200912475586 0.15752799808979034
v -0.05544599890708923 0.42530399560928345 0.15948699414730072
v -0.05652699992060661 0.4209659993648529 0.15115299820899963
v -0.05190400034189224 0.4281280040740967 0.16329500079154968
v -0.05548499897122383 0.42454099655151367 0.1654839962720871
v -0.05471799895167351 0.4245010018348694 0.16927899420261383
v -0.03775399923324585 0.4268040060997009 0.1638450026512146
v -0.037967998534440994 0.4264270067214966 0.1654990017414093
v -0.04462999850511551 0.4281190037727356 0.16842299699783325
v -0.040463000535964966 0.42778700590133667 0.16635699570178986
v -0.04020899906754494 0.4294559955596924 0.1624000072479248
v -0.050551000982522964 0.4255410134792328 0.17063499987125397
v -0.04896000027656555 0.42454299330711365 0.17073999345302582
v -0.04365000128746033 0.42736300826072693 0.16843800246715546
v -0.04534799978137016 0.4248430132865906 0.1694590002298355
v -0.04459799826145172 0.4262480139732361 0.1690569967031479
v -0.05347499996423721 0.42465001344680786 0.1713380068540573
v -0.054016999900341034 0.42457300424575806 0.17071600258350372
v -0.03714200109243393 0.427729994058609 0.1597830057144165
v -0.03453199937939644 0.42601099610328674 0.15694600343704224
v -0.03542700037360191 0.4248239994049072 0.15834200382232666
v -0.03017999976873398 0.4278149902820587 0.15424099564552307
v -0.03323899954557419 0.4248110055923462 0.15560799837112427
v -0.03156900033354759 0.4253329932689667 0.15375100076198578
v -0.02957800030708313 0.4300670027732849 0.15507499873638153
v -0.025937000289559364 0.42853599786758423 0.15443000197410583
v -0.025498000904917717 0.4305959939956665 0.15616799890995026
v -0.05229000002145767 0.3900049924850464 0.15354999899864197
v -0.04954800009727478 0.39247000217437744 0.15486399829387665
v -0.054836999624967575 0.39250001311302185 0.150859996676445
v -0.045889999717473984 0.4020409882068634 0.15345700085163116
v -0.045180998742580414 0.3979730010032654 0.1557759940624237
v -0.04516499862074852 0.39414599537849426 0.1574449986219406
v -0.04307299852371216 0.40445300936698914 0.1549150049686432
v -0.0409960001707077 0.40939199924468994 0.1541150063276291
v -0.04118699952960014 0.4125570058822632 0.15014299750328064
v -0.03659600019454956 0.41808199882507324 0.1506499946117401
v -0.03714999929070473 0.41798898577690125 0.14635199308395386
v -0.034386999905109406 0.42047399282455444 0.14866399765014648
v -0.032715000212192535 0.4222849905490875 0.1506740003824234
v -0.030962999910116196 0.42269501090049744 0.1494159996509552
v -0.028158999979496002 0.4235660135746002 0.1502320021390915
v -0.023953000083565712 0.4241909980773926 0.14618900418281555
v -0.01860100030899048 0.4236229956150055 0.1520259976387024
v -0.023282000795006752 0.42437800765037537 0.1513720005750656
v -0.025801999494433403 0.42438599467277527 0.1508069932460785
v -0.06196599826216698 0.36339500546455383 0.15098099410533905
v -0.08558499813079834 0.3913689851760864 0.12433899939060211
v -0.08423499763011932 0.42983299493789673 0.0934550017118454
v -0.07344099879264832 0.42489901185035706 0.10927899926900864
v -0.06942600011825562 0.4222530126571655 0.1149900034070015
v -0.0755470022559166 0.4247809946537018 0.1087689995765686
v -0.11091399937868118 0.40868499875068665 0.09182900190353394
v -0.07148600369691849 0.4236930012702942 0.1122799962759018
v -0.06747200340032578 0.4210459887981415 0.11799100041389465
v -0.024139000102877617 0.43772101402282715 0.16057300567626953
v -0.01737000048160553 0.43715700507164 0.16562199592590332
v -0.019039999693632126 0.4394420087337494 0.1600160002708435
v -0.01337399985641241 0.4382610023021698 0.15638400614261627
v -0.016666000708937645 0.4390850067138672 0.16163399815559387
v -0.014914999715983868 0.43838098645210266 0.1633089929819107
v -0.013287000358104706 0.4374150037765503 0.16493499279022217
v -0.011495999991893768 0.437377005815506 0.158050999045372
v -0.011416000314056873 0.437034010887146 0.16235999763011932
v -0.012896999716758728 0.4282900094985962 0.1494559943675995
v -0.01069399993866682 0.4306960105895996 0.1511940062046051
v -0.009681000374257565 0.4363439977169037 0.1597130000591278
v -0.009453999809920788 0.4340679943561554 0.15222400426864624
v -0.02293499931693077 0.43381500244140625 0.1594409942626953
v -0.017033999785780907 0.4264090061187744 0.14805400371551514
v -0.017542000859975815 0.4249489903450012 0.14990299940109253
v -0.07521200180053711 0.41670098900794983 0.1532370001077652
v -0.10335999727249146 0.4074479937553406 0.12378700077533722
v -0.06334900110960007 0.4133409857749939 0.15558700263500214
v -0.11706200242042542 0.4015989899635315 0.10957100242376328
v -0.1181119978427887 0.40006399154663086 0.10542400181293488
v -0.06268200278282166 0.41352999210357666 0.15847399830818176
v -0.06341200321912766 0.41075599193573 0.16299399733543396
v -0.05628899857401848 0.42427799105644226 0.16164599359035492
v -0.06103400141000748 0.41304001212120056 0.1641169935464859
v -0.05900600180029869 0.42026200890541077 0.16837100684642792
v -0.05747399851679802 0.42118000984191895 0.1697939932346344
v -0.037634000182151794 0.4271639883518219 0.1625099927186966
v -0.03589700162410736 0.42460399866104126 0.16028200089931488
v -0.03717799857258797 0.4236679971218109 0.16605600714683533
v -0.03963200002908707 0.4262180030345917 0.1668500006198883
v -0.03642899915575981 0.4238330125808716 0.1653670072555542
v -0.04201100021600723 0.4275610148906708 0.16748499870300293
v -0.037498001009225845 0.42736101150512695 0.16130900382995605
v -0.05399100109934807 0.42129600048065186 0.17283299565315247
v -0.04300500079989433 0.42348700761795044 0.16870500147342682
v -0.05041100084781647 0.42277300357818604 0.17155499756336212
v -0.05537699908018112 0.42211899161338806 0.172652006149292
v -0.03449400141835213 0.42121899127960205 0.1567070037126541
v -0.0347290001809597 0.4214160144329071 0.15934699773788452
v -0.029465999454259872 0.42636600136756897 0.15342499315738678
v -0.02796499989926815 0.4283890128135681 0.1538970023393631
v -0.026830000802874565 0.42559200525283813 0.15232400596141815
v -0.032850999385118484 0.42297300696372986 0.154107004404068
v -0.031074000522494316 0.42390701174736023 0.15210700035095215
v -0.028835000470280647 0.4248870015144348 0.15220500528812408
v -0.02391500025987625 0.4284839928150177 0.15521299839019775
v -0.0230529997497797 0.42705100774765015 0.1545269936323166
v -0.02141300030052662 0.42794498801231384 0.15660600364208221
v -0.017566999420523643 0.4279800057411194 0.16065099835395813
v -0.051548998802900314 0.38670098781585693 0.1553719937801361
v -0.05247199907898903 0.3784480094909668 0.15823900699615479
v -0.040762998163700104 0.3959810137748718 0.1599999964237213
v -0.03979099914431572 0.4004800021648407 0.15946699678897858
v -0.04098400101065636 0.40484699606895447 0.15704600512981415
v -0.039037998765707016 0.41083601117134094 0.15585599839687347
v -0.036559998989105225 0.41739898920059204 0.15467900037765503
v -0.03435700014233589 0.42076098918914795 0.1526550054550171
v -0.020728999748826027 0.4243740141391754 0.15294300019741058
v -0.014113999903202057 0.4249039888381958 0.15233400464057922
v -0.015176000073552132 0.42361199855804443 0.15448600053787231
v -0.01880200020968914 0.4241879880428314 0.15418100357055664
v -0.022492999210953712 0.4257209897041321 0.1537020057439804
v -0.06789399683475494 0.35132500529289246 0.15146300196647644
v -0.06721899658441544 0.3529529869556427 0.1480579972267151
v -0.11019100248813629 0.33631300926208496 0.1115259975194931
v -0.06035599857568741 0.36399999260902405 0.16550299525260925
v -0.0655440017580986 0.3572610020637512 0.15645399689674377
v -0.05291600152850151 0.3734929859638214 0.16900500655174255
v -0.12505799531936646 0.38476499915122986 0.07560700178146362
v -0.10200800001621246 0.4243530035018921 0.08087500184774399
v -0.09085600078105927 0.4307210147380829 0.08781199902296066
v -0.08433900028467178 0.43177899718284607 0.09393399953842163
v -0.0847029983997345 0.43278300762176514 0.09489499777555466
v -0.085487000644207 0.4330889880657196 0.09676200151443481
v -0.08851099759340286 0.4333139955997467 0.09434299916028976
v -0.0950469970703125 0.43219199776649475 0.08980199694633484
v -0.0983780026435852 0.4307659864425659 0.08782800287008286
v -0.10174199938774109 0.42824798822402954 0.08606600016355515
v -0.10988499969244003 0.4190309941768646 0.0797400027513504
v -0.11900400370359421 0.40648698806762695 0.07696899771690369
v -0.12350700050592422 0.3955810070037842 0.08574499934911728
v -0.012353000231087208 0.4344809949398041 0.16853900253772736
v -0.013899999670684338 0.4304400086402893 0.1666020005941391
v -0.020157000049948692 0.4338569939136505 0.16234800219535828
v -0.011402999982237816 0.43604201078414917 0.16631999611854553
v -0.010226000100374222 0.42712900042533875 0.15224100649356842
v -0.013849000446498394 0.426472008228302 0.15015199780464172
v -0.008345000445842743 0.4303950071334839 0.15312600135803223
v -0.005530000198632479 0.4327560067176819 0.15585200488567352
v -0.008129999972879887 0.4350210130214691 0.1612669974565506
v -0.01978899911046028 0.4311380088329315 0.1609019935131073
v -0.0724089965224266 0.4196870028972626 0.16051000356674194
v -0.06942000240087509 0.4152890145778656 0.15700900554656982
v -0.09865099936723709 0.4277780055999756 0.15091900527477264
v -0.115276999771595 0.40938299894332886 0.12577800452709198
v -0.11727599799633026 0.40492698550224304 0.11906599998474121
v -0.06600400060415268 0.41413700580596924 0.1583479940891266
v -0.11980199813842773 0.39696601033210754 0.10813599824905396
v -0.11864300072193146 0.39785200357437134 0.10642299801111221
v -0.12021400034427643 0.3933649957180023 0.10585799813270569
v -0.12049199640750885 0.39293399453163147 0.09816800057888031
v -0.06481099873781204 0.4109469950199127 0.16240499913692474
v -0.06518299877643585 0.40880200266838074 0.16262100636959076
v -0.061553001403808594 0.4112110137939453 0.16506299376487732
v -0.06446799635887146 0.4074150025844574 0.16350999474525452
v -0.06174600124359131 0.4132609963417053 0.17087499797344208
v -0.06048699840903282 0.41720300912857056 0.1688780039548874
v -0.0620260015130043 0.4092409908771515 0.16788800060749054
v -0.06257300078868866 0.40992501378059387 0.17244300246238708
v -0.06035400182008743 0.41811999678611755 0.1706410050392151
v -0.05899899825453758 0.41869398951530457 0.17201200127601624
v -0.057314999401569366 0.41893500089645386 0.17412200570106506
v -0.0341619998216629 0.4185599982738495 0.1610340029001236
v -0.033723000437021255 0.41726699471473694 0.1630679965019226
v -0.03374899923801422 0.41682499647140503 0.16499200463294983
v -0.036768000572919846 0.42041298747062683 0.16636499762535095
v -0.04008699953556061 0.42229199409484863 0.16759899258613586
v -0.05602699890732765 0.41843199729919434 0.17427200078964233
v -0.037321001291275024 0.41745099425315857 0.16645300388336182
v -0.040724001824855804 0.41686299443244934 0.1674399971961975
v -0.04901900142431259 0.4184359908103943 0.17125700414180756
v -0.054253000766038895 0.4175330102443695 0.17410500347614288
v -0.03455900028347969 0.4179689884185791 0.15903699398040771
v -0.03677000105381012 0.41387900710105896 0.15756799280643463
v -0.021397000178694725 0.426705002784729 0.15541699528694153
v -0.020919999107718468 0.4254949986934662 0.15458600223064423
v -0.014613999985158443 0.4253320097923279 0.1611659973859787
v -0.01709900051355362 0.42894700169563293 0.16243800520896912
v -0.01511900033801794 0.42485299706459045 0.1580750048160553
v -0.04778699949383736 0.38187599182128906 0.1646289974451065
v -0.036657001823186874 0.394338995218277 0.16392500698566437
v -0.03727699816226959 0.3912140130996704 0.165693998336792
v -0.04881700128316879 0.3803279995918274 0.1663540005683899
v -0.03822299838066101 0.396465003490448 0.16165199875831604
v -0.038423001766204834 0.4059390127658844 0.15910300612449646
v -0.03753500059247017 0.40024900436401367 0.16115500032901764
v -0.004856000188738108 0.4257749915122986 0.15717600286006927
v -0.009608999826014042 0.42299899458885193 0.15862999856472015
v -0.006909999996423721 0.42419299483299255 0.15761399269104004
v -0.07026299834251404 0.34677600860595703 0.15029700100421906
v -0.0682390034198761 0.35210999846458435 0.15524299442768097
v -0.07068099826574326 0.34720200300216675 0.15417900681495667
v -0.07627499848604202 0.33497899770736694 0.1440030038356781
v -0.07485999912023544 0.3378170132637024 0.14829300343990326
v -0.08399400115013123 0.31821900606155396 0.14142000675201416
v -0.09395900368690491 0.2966490089893341 0.13871599733829498
v -0.1193149983882904 0.26057499647140503 0.12611299753189087
v -0.11467599868774414 0.26211199164390564 0.13059300184249878
v -0.1339530050754547 0.34814199805259705 0.08240900188684464
v -0.13198499381542206 0.28589901328086853 0.10909800231456757
v -0.12783199548721313 0.2706660032272339 0.11564800143241882
v -0.13548000156879425 0.3063890039920807 0.099932000041008
v -0.13576999306678772 0.3166410028934479 0.0957299992442131
v -0.13234099745750427 0.3301819860935211 0.0906440019607544
v -0.055782999843358994 0.3725999891757965 0.1711219996213913
v -0.06253000348806381 0.3657589852809906 0.1656379997730255
v -0.07166899740695953 0.3571169972419739 0.1607690006494522
v -0.06850100308656693 0.3554440140724182 0.16175000369548798
v -0.06683299690485 0.35474100708961487 0.16189999878406525
v -0.06005199998617172 0.3696169853210449 0.1675799936056137
v -0.06304299831390381 0.35985198616981506 0.16298699378967285
v -0.06641600281000137 0.35557401180267334 0.1591240018606186
v -0.04787899926304817 0.3811050057411194 0.17198799550533295
v -0.05141900107264519 0.3817259967327118 0.17677399516105652
v -0.11665999889373779 0.40636101365089417 0.07568500190973282
v -0.12792199850082397 0.3862319886684418 0.07567500323057175
v -0.1114870011806488 0.4159879982471466 0.07816600054502487
v -0.10632199794054031 0.42149001359939575 0.07999199628829956
v -0.1001570001244545 0.4273509979248047 0.0824820026755333
v -0.09703999757766724 0.42931699752807617 0.0838799998164177
v -0.09429600089788437 0.43082600831985474 0.08605799823999405
v -0.09106700122356415 0.43202000856399536 0.08879300206899643
v -0.08765699714422226 0.4321320056915283 0.0912259966135025
v -0.08792299777269363 0.4329949915409088 0.0923440009355545
v -0.09130699932575226 0.432779997587204 0.09000000357627869
v -0.10152900218963623 0.42737698554992676 0.08309700340032578
v -0.09809599816799164 0.4300529956817627 0.08465699851512909
v -0.12408600002527237 0.38705500960350037 0.08814699947834015
v -0.12136399745941162 0.39145299792289734 0.09367000311613083
v -0.12771500647068024 0.3791790008544922 0.08438500016927719
v -0.008449999615550041 0.4319609999656677 0.1687600016593933
v -0.007984000258147717 0.4296810030937195 0.1695059984922409
v -0.011458000168204308 0.42621999979019165 0.16725000739097595
v -0.008910000324249268 0.4263859987258911 0.16870300471782684
v -0.009482000023126602 0.4343720078468323 0.16741299629211426
v -0.007999000139534473 0.4339970052242279 0.16506700217723846
v -0.006668999791145325 0.4334770143032074 0.16266100108623505
v -0.0029380000196397305 0.4302690029144287 0.15964899957180023
v -0.06871499866247177 0.4149169921875 0.15883100032806396
v -0.06924500316381454 0.4124859869480133 0.1624930053949356
v -0.07169900089502335 0.4178049862384796 0.1627340018749237
v -0.07121100276708603 0.4273490011692047 0.16594000160694122
v -0.07701899856328964 0.4316920042037964 0.16307500004768372
v -0.11341399699449539 0.4099459946155548 0.13468100130558014
v -0.10270699858665466 0.42266300320625305 0.1482270061969757
v -0.08945699781179428 0.43386098742485046 0.16821600496768951
v -0.08756700158119202 0.43715700507164 0.16340099275112152
v -0.07943300157785416 0.4364069998264313 0.16452999413013458
v -0.11777099967002869 0.40188199281692505 0.12660400569438934
v -0.12034700065851212 0.39518800377845764 0.10873100161552429
v -0.11985799670219421 0.3979380130767822 0.11744000017642975
v -0.11330799758434296 0.39434900879859924 0.10507699847221375
v -0.12008900195360184 0.3933410048484802 0.10812000185251236
v -0.06861100345849991 0.4096449911594391 0.16215500235557556
v -0.06764200329780579 0.4065000116825104 0.16161899268627167
v -0.06298399716615677 0.40584900975227356 0.16489900648593903
v -0.06544099748134613 0.4046980142593384 0.16239100694656372
v -0.06265100091695786 0.41044899821281433 0.1748100072145462
v -0.06364600360393524 0.4027009904384613 0.16374699771404266
v -0.06324200332164764 0.40347999334335327 0.17670799791812897
v -0.06306300312280655 0.40700799226760864 0.17595599591732025
v -0.05951400101184845 0.4101560115814209 0.17829400300979614
v -0.03308499976992607 0.41487398743629456 0.1626020073890686
v -0.03397100046277046 0.416032999753952 0.16076500713825226
v -0.032356999814510345 0.4126259982585907 0.16500799357891083
v -0.033261001110076904 0.4127489924430847 0.16569000482559204
v -0.034995999187231064 0.41621801257133484 0.16615599393844604
v -0.038398001343011856 0.41152000427246094 0.16711300611495972
v -0.0360339991748333 0.41397398710250854 0.1664009988307953
v -0.04473499953746796 0.4156250059604645 0.16927500069141388
v -0.04135400056838989 0.41339099407196045 0.16797800362110138
v -0.05019399896264076 0.41492000222206116 0.1723330020904541
v -0.05230100080370903 0.41112300753593445 0.17456799745559692
v -0.05798399820923805 0.4096519947052002 0.17839500308036804
v -0.011226999573409557 0.42399799823760986 0.16418500244617462
v -0.011744000017642975 0.4234989881515503 0.1604589968919754
v -0.04196799919009209 0.38539400696754456 0.1678760051727295
v -0.03654199838638306 0.3968609869480133 0.16265800595283508
v -0.031132999807596207 0.3985309898853302 0.16760000586509705
v -0.034967001527547836 0.392194002866745 0.16833199560642242
v -0.03504600003361702 0.4015530049800873 0.16292299330234528
v -0.034435998648405075 0.4048300087451935 0.1623920053243637
v -0.03285200148820877 0.4111720025539398 0.16273899376392365
v -0.032232001423835754 0.40808001160621643 0.1635960042476654
v -0.03351899981498718 0.41329699754714966 0.16179099678993225
v -0.003602999961003661 0.42325401306152344 0.16024300456047058
v -0.0055229999125003815 0.4235079884529114 0.158951997756958
v -0.002828999888151884 0.4243920147418976 0.16012799739837646
v -0.005255000200122595 0.42232200503349304 0.16106300055980682
v -0.0067369998432695866 0.4223870038986206 0.16263499855995178
v -0.07306800037622452 0.342615008354187 0.15311299264431
v -0.06916899979114532 0.350614994764328 0.1579509973526001
v -0.07182899862527847 0.3460730016231537 0.1566769927740097
v -0.07828199863433838 0.3299520015716553 0.14643199741840363
v -0.07653900235891342 0.33384498953819275 0.1471879929304123
v -0.07247000187635422 0.3458380103111267 0.1591310054063797
v -0.07700099796056747 0.33414700627326965 0.1509460061788559
v -0.08280099928379059 0.32280001044273376 0.15034900605678558
v -0.09265200048685074 0.304188996553421 0.14807899296283722
v -0.09227900207042694 0.29798299074172974 0.1419609934091568
v -0.09638799726963043 0.28401198983192444 0.14160700142383575
v -0.09847799688577652 0.2803660035133362 0.14044199883937836
v -0.12080699950456619 0.25931599736213684 0.12610499560832977
v -0.12542200088500977 0.2634119987487793 0.12008100003004074
v -0.12073899805545807 0.2588610053062439 0.130839005112648
v -0.1110450029373169 0.2665030062198639 0.13774099946022034
v -0.11712700128555298 0.2608020007610321 0.13382700085639954
v -0.10346200317144394 0.2742680013179779 0.13965199887752533
v -0.13558700680732727 0.34379100799560547 0.08561599999666214
v -0.1339379996061325 0.33454298973083496 0.08820000290870667
v -0.13477200269699097 0.34319499135017395 0.08398199826478958
v -0.13172000646591187 0.2815139889717102 0.1109979972243309
v -0.1333400011062622 0.2860870063304901 0.10954499989748001
v -0.13117100298404694 0.2712939977645874 0.11681299656629562
v -0.12817400693893433 0.26539498567581177 0.11927899718284607
v -0.13596299290657043 0.3173789978027344 0.09717799723148346
v -0.13539999723434448 0.30196499824523926 0.10370700061321259
v -0.13462300598621368 0.3299039900302887 0.08953499794006348
v -0.13539400696754456 0.3392139971256256 0.08846200257539749
v -0.13556799292564392 0.3297939896583557 0.09025199711322784
v -0.05607200041413307 0.3813270032405853 0.1748950034379959
v -0.06199000030755997 0.37129101157188416 0.16739100217819214
v -0.07004000246524811 0.36969199776649475 0.14903199672698975
v -0.09556800127029419 0.32379600405693054 0.13332499563694
v -0.07915599644184113 0.3433609902858734 0.1548669934272766
v -0.07268700003623962 0.35136500000953674 0.15977400541305542
v -0.06335999816656113 0.37912899255752563 0.16563700139522552
v -0.07385300099849701 0.346235990524292 0.1586959958076477
v -0.04104999825358391 0.38666799664497375 0.17796899378299713
v -0.0590520016849041 0.3900820016860962 0.17966200411319733
v -0.0461140014231205 0.3869889974594116 0.18152500689029694
v -0.13254199922084808 0.35738399624824524 0.08573400229215622
v -0.12230099737644196 0.3851439952850342 0.08934400230646133
v -0.10548699647188187 0.39306899905204773 0.10621900111436844
v -0.11581099778413773 0.3892189860343933 0.09486699849367142
v -0.11808499693870544 0.3779979944229126 0.09116800129413605
v -0.006963000167161226 0.4311850070953369 0.16809199750423431
v -0.0070329997688531876 0.4296959936618805 0.16893500089645386
v -0.007441000081598759 0.42734599113464355 0.16922800242900848
v -0.009565000422298908 0.4252910017967224 0.16784599423408508
v -0.007174000144004822 0.4250189960002899 0.16844899952411652
v -0.006434000097215176 0.4319239854812622 0.1656460016965866
v -0.005166000220924616 0.431661993265152 0.16353599727153778
v -0.003918000031262636 0.42976298928260803 0.16430099308490753
v -0.0023270000237971544 0.4288170039653778 0.16156600415706635
v -0.0024399999529123306 0.42393699288368225 0.16161400079727173
v -0.002948000095784664 0.42927899956703186 0.16272799670696259
v -0.07250899821519852 0.41165798902511597 0.16393299400806427
v -0.07205799967050552 0.4157780110836029 0.16513200104236603
v -0.07081799954175949 0.4263109862804413 0.16783200204372406
v -0.06662199646234512 0.43643900752067566 0.1692119985818863
v -0.07182099670171738 0.4404729902744293 0.16776999831199646
v -0.11525599658489227 0.3977760076522827 0.12864500284194946
v -0.11140800267457962 0.4051949977874756 0.13616600632667542
v -0.10149899870157242 0.4214709997177124 0.15102100372314453
v -0.09733100235462189 0.4142189919948578 0.14568999409675598
v -0.08220300078392029 0.43737900257110596 0.17886300384998322
v -0.07731600105762482 0.4116060137748718 0.16550900042057037
v -0.0793439969420433 0.4319530129432678 0.1810320019721985
v -0.0773409977555275 0.41966700553894043 0.17202399671077728
v -0.07276400178670883 0.44444799423217773 0.1784369945526123
v -0.07349199801683426 0.4441770017147064 0.17563100159168243
v -0.07366999983787537 0.44106200337409973 0.19335199892520905
v -0.07656700164079666 0.44180500507354736 0.16849400103092194
v -0.07134199887514114 0.4444020092487335 0.1732580065727234
v -0.1175450012087822 0.39396899938583374 0.12129700183868408
v -0.10555599629878998 0.39698100090026855 0.1113160029053688
v -0.10692299902439117 0.3986879885196686 0.11719100177288055
v -0.07047499716281891 0.407507985830307 0.1618649959564209
v -0.07060100138187408 0.3948729932308197 0.1518239974975586
v -0.0674239993095398 0.39271700382232666 0.15351100265979767
v -0.060715001076459885 0.406807005405426 0.1792140007019043
v -0.06271100044250488 0.38269099593162537 0.16726699471473694
v -0.06255199760198593 0.3924019932746887 0.17720000445842743
v -0.06095200031995773 0.3993310034275055 0.17954200506210327
v -0.06188099831342697 0.4034459888935089 0.17880100011825562
v -0.05978899821639061 0.406686007976532 0.1797109991312027
v -0.03141900151968002 0.4082309901714325 0.16482500731945038
v -0.03143100067973137 0.40869998931884766 0.16555599868297577
v -0.03384599834680557 0.40928199887275696 0.16637299954891205
v -0.04569600149989128 0.4117079973220825 0.1703380048274994
v -0.03882800042629242 0.4039669930934906 0.16891799867153168
v -0.03346800059080124 0.4051719903945923 0.16674600541591644
v -0.05503400042653084 0.40828898549079895 0.17725899815559387
v -0.049320001155138016 0.40891599655151367 0.17348499596118927
v -0.058455001562833786 0.406374990940094 0.1795780062675476
v -0.008112999610602856 0.4230540096759796 0.16481000185012817
v -0.03697500005364418 0.3879840075969696 0.17280200123786926
v -0.031633999198675156 0.4018610119819641 0.16534200310707092
v -0.03097900003194809 0.398732990026474 0.16810199618339539
v -0.03189599886536598 0.395999014377594 0.16929399967193604
v -0.030709000304341316 0.40176600217819214 0.1671620011329651
v -0.030918000265955925 0.40154701471328735 0.16655300557613373
v -0.03294900059700012 0.39365801215171814 0.17078199982643127
v -0.030827999114990234 0.4046199917793274 0.16567599773406982
v -0.0034280000254511833 0.4223330020904541 0.16183200478553772
v -0.005551000125706196 0.42278701066970825 0.16481900215148926
v -0.08045600354671478 0.32684698700904846 0.14962400496006012
v -0.07861600071191788 0.33034801483154297 0.14989599585533142
v -0.08293700218200684 0.3303399980068207 0.155349001288414
v -0.08132100105285645 0.3297719955444336 0.15532800555229187
v -0.07782000303268433 0.3426379859447479 0.15673699975013733
v -0.08513200283050537 0.3230609893798828 0.15170499682426453
v -0.08215499669313431 0.32623499631881714 0.15281200408935547
v -0.1008479967713356 0.29975900053977966 0.14338700473308563
v -0.10301300138235092 0.2789219915866852 0.1422629952430725
v -0.08774899691343307 0.3232249915599823 0.152319997549057
v -0.09599599987268448 0.2872050106525421 0.14475500583648682
v -0.0985490009188652 0.2805599868297577 0.14211499691009521
v -0.12362200021743774 0.25832700729370117 0.1283320039510727
v -0.12557299435138702 0.2596360146999359 0.12571799755096436
v -0.1275009959936142 0.2614850103855133 0.12313999980688095
v -0.12358400225639343 0.2592799961566925 0.1298609972000122
v -0.12083400040864944 0.260111004114151 0.13241800665855408
v -0.12413699924945831 0.2635360062122345 0.1313289999961853
v -0.11838600039482117 0.2883870005607605 0.1276240050792694
v -0.10341600328683853 0.2751550078392029 0.14124199748039246
v -0.11914099752902985 0.2621169984340668 0.13417300581932068
v -0.13533200323581696 0.33431699872016907 0.0878940001130104
v -0.1325560063123703 0.2782270014286041 0.11550000309944153
v -0.13009700179100037 0.26640599966049194 0.12175200134515762
v -0.1296900063753128 0.26572901010513306 0.1200919970870018
v -0.1354299932718277 0.3130899965763092 0.10095600038766861
v -0.07752899825572968 0.38418498635292053 0.14026500284671783
v -0.06859900057315826 0.3818050026893616 0.1491910070180893
v -0.13123099505901337 0.2743400037288666 0.12069399654865265
v -0.0988520011305809 0.377921998500824 0.11852800101041794
v -0.0875839963555336 0.3278760015964508 0.15100300312042236
v -0.08427099883556366 0.3310120105743408 0.15439000725746155
v -0.0751350000500679 0.3466910123825073 0.15813800692558289
v -0.034619998186826706 0.3911069929599762 0.17484700679779053
v -0.037849001586437225 0.3896949887275696 0.1777539998292923
v -0.055656999349594116 0.39520400762557983 0.18224400281906128
v -0.04941000044345856 0.39172598719596863 0.18198899924755096
v -0.045570001006126404 0.3896160125732422 0.18164099752902985
v -0.11417700350284576 0.3850330114364624 0.09397999942302704
v -0.08418799936771393 0.3955110013484955 0.13520100712776184
v -0.0065100002102553844 0.42734500765800476 0.1686369925737381
v -0.005106000229716301 0.4261249899864197 0.1678050011396408
v -0.005096999928355217 0.4299120008945465 0.1661680042743683
v -0.006411000154912472 0.42367300391197205 0.1666949987411499
v -0.005809000227600336 0.4255560040473938 0.1682319939136505
v -0.005098999943584204 0.42473500967025757 0.16702499985694885
v -0.004482000134885311 0.4277540147304535 0.16639100015163422
v -0.002492000116035342 0.42713800072669983 0.16333900392055511
v -0.0036700000055134296 0.4232049882411957 0.16332599520683289
v -0.0027729999274015427 0.42463600635528564 0.1633249968290329
v -0.07450400292873383 0.41310200095176697 0.1656470000743866
v -0.07168900221586227 0.4199199974536896 0.16764600574970245
v -0.07294300198554993 0.4207710027694702 0.17171800136566162
v -0.06472700089216232 0.43367800116539 0.17208799719810486
v -0.07049000263214111 0.4250679910182953 0.17030200362205505
v -0.06352800130844116 0.4384779930114746 0.17067599296569824
v -0.06319200247526169 0.4365760087966919 0.1715729981660843
v -0.06191899999976158 0.444021999835968 0.1698250025510788
v -0.0579570010304451 0.44091400504112244 0.17217999696731567
v -0.10270799696445465 0.4052790105342865 0.13157999515533447
v -0.10474299639463425 0.41400399804115295 0.14379000663757324
v -0.07625900208950043 0.4334389865398407 0.1870409995317459
v -0.07525800168514252 0.41972801089286804 0.17202399671077728
v -0.07513900101184845 0.42793500423431396 0.18116900324821472
v -0.07050199806690216 0.4437749981880188 0.1966869980096817
v -0.06681100279092789 0.44637900590896606 0.1833920031785965
v -0.06842400133609772 0.44596201181411743 0.18103699386119843
v -0.0650710016489029 0.4468350112438202 0.1978829950094223
v -0.06955999881029129 0.4455440044403076 0.17670899629592896
v -0.07132399827241898 0.4402160048484802 0.19569000601768494
v -0.06290700286626816 0.4466100037097931 0.17126600444316864
v -0.06677500158548355 0.44602200388908386 0.17441099882125854
v -0.06933499872684479 0.38777199387550354 0.14878199994564056
v -0.06029200181365013 0.4032379984855652 0.18046599626541138
v -0.05891900137066841 0.3992210030555725 0.18146799504756927
v -0.03083300031721592 0.4050289988517761 0.16631799936294556
v -0.04180699959397316 0.4058069884777069 0.16987699270248413
v -0.036024998873472214 0.40270501375198364 0.16828599572181702
v -0.03882500156760216 0.40029001235961914 0.17020000517368317
v -0.04465299844741821 0.4041309952735901 0.17202100157737732
v -0.03338100016117096 0.4014799892902374 0.1679610013961792
v -0.031954001635313034 0.40188300609588623 0.16733099520206451
v -0.052104998379945755 0.4063180088996887 0.17626599967479706
v -0.04806099832057953 0.4052349925041199 0.17392000555992126
v -0.05823799967765808 0.4030289947986603 0.18048399686813354
v -0.05299700051546097 0.40354400873184204 0.17803999781608582
v -0.05410600081086159 0.39882099628448486 0.18054500222206116
v -0.0352960005402565 0.39667099714279175 0.1711750030517578
v -0.0357699990272522 0.39943501353263855 0.16957400739192963
v -0.03520699962973595 0.39430201053619385 0.17286400496959686
v -0.03335899859666824 0.39417698979377747 0.17213599383831024
v -0.03298100084066391 0.3938870131969452 0.17135100066661835
v -0.004335999954491854 0.42388099431991577 0.16524599492549896
v -0.08447500318288803 0.3266110122203827 0.15407800674438477
v -0.08602000027894974 0.3272010087966919 0.15349499881267548
v -0.09861399978399277 0.28178098797798157 0.14334799349308014
v -0.12988600134849548 0.26698100566864014 0.12367100268602371
v -0.12365899980068207 0.2605949938297272 0.1310970038175583
v -0.03755699843168259 0.3923160135746002 0.17559599876403809
v -0.04106299951672554 0.39093101024627686 0.17855900526046753
v -0.053874000906944275 0.39523500204086304 0.1818999946117401
v -0.05675800144672394 0.3992049992084503 0.18144600093364716
v -0.049111999571323395 0.39327099919319153 0.18074199557304382
v -0.04458799958229065 0.39188799262046814 0.1794320046901703
v -0.00433199992403388 0.4257409870624542 0.16674800217151642
v -0.0027360001113265753 0.4261150062084198 0.16434399783611298
v -0.07238300144672394 0.42719900608062744 0.1797100007534027
v -0.05835200101137161 0.4374450147151947 0.17437699437141418
v -0.05688700079917908 0.437857985496521 0.18143899738788605
v -0.0646279975771904 0.43313100934028625 0.17484000325202942
v -0.05784999951720238 0.43916699290275574 0.17338399589061737
v -0.05243299901485443 0.44594699144363403 0.16945500671863556
v -0.05541900172829628 0.44171199202537537 0.1724970042705536
v -0.07201600074768066 0.4290190041065216 0.18319299817085266
v -0.07052800059318542 0.4379880130290985 0.19508999586105347
v -0.0672060027718544 0.440744012594223 0.1978279948234558
v -0.06096300110220909 0.44846999645233154 0.18856200575828552
v -0.0650160014629364 0.4470849931240082 0.18234799802303314
v -0.06255099922418594 0.44766899943351746 0.18528400361537933
v -0.06297899782657623 0.4476499855518341 0.17832300066947937
v -0.054822999984025955 0.4478670060634613 0.1985359936952591
v -0.05214200168848038 0.45099499821662903 0.19780999422073364
v -0.058166999369859695 0.44940999150276184 0.18744799494743347
v -0.06437399983406067 0.44699299335479736 0.17556999623775482
v -0.06061600148677826 0.4481559991836548 0.17782199382781982
v -0.057969000190496445 0.4480530023574829 0.1713549941778183
v -0.04201500117778778 0.39838701486587524 0.17268499732017517
v -0.04525800049304962 0.4007979929447174 0.17358599603176117
v -0.04908100143074989 0.4019010066986084 0.1758279949426651
v -0.04590599983930588 0.3971160054206848 0.17557600140571594
v -0.03779599815607071 0.3945940136909485 0.17361299693584442
v -0.04117399826645851 0.39298900961875916 0.1766500025987625
v -0.04533600062131882 0.39406800270080566 0.17767000198364258
v -0.054871998727321625 0.43931400775909424 0.1760610044002533
v -0.05416199937462807 0.4393700063228607 0.18129299581050873
v -0.058959998190402985 0.4367539882659912 0.18495799601078033
v -0.05382400006055832 0.44082099199295044 0.17503799498081207
v -0.04047200083732605 0.44652798771858215 0.16868600249290466
v -0.05313900113105774 0.4493829905986786 0.17116600275039673
v -0.04912399873137474 0.4489159882068634 0.16990800201892853
v -0.046126000583171844 0.4476580023765564 0.1684509962797165
v -0.0436599999666214 0.4468950033187866 0.16854499280452728
v -0.04398500174283981 0.44359999895095825 0.17493100464344025
v -0.0619719997048378 0.4385930001735687 0.19255700707435608
v -0.05105999857187271 0.4426960051059723 0.19158999621868134
v -0.05947500094771385 0.4485990107059479 0.1841450035572052
v -0.06017399951815605 0.4483740031719208 0.18063600361347198
v -0.0479779988527298 0.4438149929046631 0.19116400182247162
v -0.03977400064468384 0.4508560001850128 0.19497400522232056
v -0.04504900053143501 0.45377498865127563 0.18242700397968292
v -0.0453139990568161 0.4536359906196594 0.19318599998950958
v -0.0529169999063015 0.4510839879512787 0.17963899672031403
v -0.041051000356674194 0.4537540078163147 0.19470499455928802
v -0.05733399838209152 0.44872400164604187 0.17465800046920776
v -0.05702900141477585 0.4493669867515564 0.17752499878406525
v -0.041572000831365585 0.3954389989376068 0.17450100183486938
v -0.05307399854063988 0.43998000025749207 0.17795799672603607
v -0.05160300061106682 0.4405210018157959 0.18087199330329895
v -0.058490000665187836 0.438620001077652 0.18868200480937958
v -0.052094001322984695 0.4412029981613159 0.18798300623893738
v -0.05039900168776512 0.44101300835609436 0.1839890033006668
v -0.054896000772714615 0.44009000062942505 0.18830400705337524
v -0.04716600105166435 0.4425950050354004 0.17604100704193115
v -0.03801799938082695 0.4470979869365692 0.1685750037431717
v -0.040702998638153076 0.44469401240348816 0.17342600226402283
v -0.0508820004761219 0.4498150050640106 0.1713320016860962
v -0.0489329993724823 0.45271098613739014 0.17639900743961334
v -0.05252800136804581 0.4509730041027069 0.17590300738811493
v -0.05094499886035919 0.45184600353240967 0.1763709932565689
v -0.037567999213933945 0.44965100288391113 0.16845500469207764
v -0.04701299965381622 0.45049500465393066 0.17095200717449188
v -0.04219299927353859 0.44405698776245117 0.17765399813652039
v -0.0491660013794899 0.44234699010849 0.1876409947872162
v -0.03345299884676933 0.4495849907398224 0.18828700482845306
v -0.03484499827027321 0.4483090043067932 0.1852779984474182
v -0.04735099896788597 0.4422129988670349 0.18312899768352509
v -0.04404100030660629 0.44348499178886414 0.1819390058517456
v -0.0404679998755455 0.4447900056838989 0.1802159994840622
v -0.03589000180363655 0.4471530020236969 0.18184000253677368
v -0.03225500136613846 0.45191800594329834 0.1910559982061386
v -0.03194199874997139 0.4508430063724518 0.1903569996356964
v -0.04476799815893173 0.45394599437713623 0.17983900010585785
v -0.0419050008058548 0.4545769989490509 0.1802230030298233
v -0.028504999354481697 0.456369012594223 0.1808069944381714
v -0.03784500062465668 0.4551590085029602 0.1766439974308014
v -0.030229000374674797 0.4554719924926758 0.18915000557899475
v -0.046758998185396194 0.45348799228668213 0.17676199972629547
v -0.04859999939799309 0.4417870044708252 0.17997099459171295
v -0.030946999788284302 0.45016300678253174 0.17001700401306152
v -0.03589100018143654 0.44728100299835205 0.16942700743675232
v -0.037213001400232315 0.44600799679756165 0.17223599553108215
v -0.03700700029730797 0.4459579885005951 0.17840899527072906
v -0.03545700013637543 0.44652798771858215 0.17450499534606934
v -0.04707799851894379 0.4520359933376312 0.1731940060853958
v -0.044505998492240906 0.45407000184059143 0.1761319935321808
v -0.031070999801158905 0.45315900444984436 0.1715800017118454
v -0.04453999921679497 0.4524190127849579 0.17287099361419678
v -0.042048998177051544 0.4541510045528412 0.174794003367424
v -0.037981998175382614 0.45494601130485535 0.17556899785995483
v -0.030688999220728874 0.4502129852771759 0.1866060048341751
v -0.034258998930454254 0.4466800093650818 0.17696399986743927
v -0.026422999799251556 0.45338499546051025 0.18705399334430695
v -0.044335998594760895 0.45419999957084656 0.17714299261569977
v -0.03033299930393696 0.4539470076560974 0.17302200198173523
v -0.028334999457001686 0.4554150104522705 0.1883549988269806
v -0.024529999122023582 0.45419999957084656 0.17881500720977783
v -0.025004999712109566 0.4540970027446747 0.18298499286174774
v -0.04141100123524666 0.4546140134334564 0.17601700127124786
v -0.026683999225497246 0.45465099811553955 0.18694600462913513
v -0.028759999200701714 0.45271798968315125 0.1719069927930832
v -0.027753999456763268 0.4495539963245392 0.17343899607658386
v -0.027344999834895134 0.4513320028781891 0.17261500656604767
v -0.028720000758767128 0.4513489902019501 0.17131799459457397
v -0.03279900178313255 0.4470140039920807 0.17619800567626953
v -0.024707000702619553 0.45287200808525085 0.18315400183200836
v -0.029543999582529068 0.4494909942150116 0.1820800006389618
v -0.023946000263094902 0.4522309899330139 0.1789879947900772
v -0.030685000121593475 0.44835901260375977 0.17890200018882751
v -0.02740900032222271 0.45232799649238586 0.17271900177001953
v -0.025317000225186348 0.45252901315689087 0.17560599744319916
v -0.02846900001168251 0.4491110146045685 0.1776690036058426
v -0.025405999273061752 0.45096099376678467 0.17588099837303162
f 1 2 3
f 1 4 5
f 1 3 6
f 6 7 1
f 1 7 4
f 5 2 1
f 2 8 3
f 9 2 5
f 2 10 8
f 2 8 10
f 9 10 2
f 11 6 3
f 3 8 11
f 12 4 7
f 13 5 4
f 12 13 4
f 9 5 13
f 14 6 15
f 6 11 16
f 16 15 6
f 14 7 6
f 7 17 12
f 17 7 14
f 18 8 10
f 8 18 19
f 8 19 11
f 8 19 18
f 11 19 8
f 20 9 21
f 20 22 9
f 22 10 9
f 21 9 13
f 10 22 18
f 19 23 11
f 11 23 24
f 16 11 24
f 12 17 25
f 12 25 13
f 26 27 13
f 28 26 13
f 21 13 29
f 29 13 27
f 13 25 28
f 30 14 31
f 15 31 14
f 30 17 14
f 32 15 33
f 15 16 34
f 35 33 15
f 34 35 15
f 32 31 15
f 16 24 36
f 34 16 37
f 16 36 37
f 38 17 30
f 17 38 25
f 19 18 39
f 18 22 40
f 39 18 40
f 39 41 19
f 23 19 42
f 42 19 41
f 20 29 43
f 43 44 20
f 20 44 45
f 46 22 20
f 47 46 20
f 47 20 45
f 21 29 20
f 48 40 22
f 22 46 48
f 42 49 23
f 23 49 24
f 49 50 24
f 36 24 51
f 24 50 52
f 51 24 52
f 28 25 53
f 25 38 53
f 26 54 27
f 26 55 56
f 55 26 28
f 56 54 26
f 57 58 27
f 59 57 27
f 60 29 27
f 61 60 27
f 27 54 59
f 27 58 61
f 28 53 55
f 43 29 60
f 31 62 30
f 30 62 38
f 32 63 31
f 62 31 63
f 33 64 32
f 32 64 63
f 33 65 66
f 67 33 66
f 33 35 65
f 67 64 33
f 37 35 34
f 35 37 65
f 51 37 36
f 68 69 37
f 69 70 37
f 51 71 37
f 37 71 68
f 65 37 70
f 38 72 73
f 74 38 73
f 38 74 53
f 62 72 38
f 39 75 41
f 40 75 39
f 40 76 75
f 48 76 40
f 75 77 41
f 42 41 77
f 77 78 42
f 42 78 49
f 44 43 60
f 44 79 45
f 79 44 61
f 61 44 60
f 80 45 79
f 80 47 45
f 46 81 82
f 48 46 82
f 81 46 47
f 81 47 80
f 48 82 83
f 83 76 48
f 78 50 49
f 50 84 85
f 52 50 85
f 84 50 78
f 52 85 51
f 51 85 86
f 87 51 86
f 68 51 87
f 71 51 68
f 53 74 55
f 54 56 88
f 59 54 88
f 89 56 55
f 90 91 55
f 55 92 90
f 55 91 89
f 92 55 74
f 89 93 56
f 93 88 56
f 94 95 57
f 96 57 95
f 97 57 88
f 59 88 57
f 96 98 57
f 57 98 79
f 58 57 79
f 57 97 94
f 61 58 79
f 62 99 72
f 62 100 99
f 63 100 62
f 67 100 63
f 63 64 67
f 66 65 101
f 101 65 70
f 101 102 66
f 66 102 103
f 103 104 66
f 104 67 66
f 67 105 100
f 104 106 67
f 105 67 106
f 87 107 68
f 107 108 68
f 68 108 69
f 107 109 69
f 69 108 107
f 70 69 109
f 103 70 110
f 111 110 70
f 112 111 70
f 112 70 109
f 70 102 101
f 103 102 70
f 72 99 73
f 74 73 113
f 114 113 73
f 73 115 116
f 116 114 73
f 73 99 115
f 113 92 74
f 117 77 75
f 75 76 117
f 76 83 117
f 77 117 118
f 78 77 118
f 78 118 84
f 119 79 98
f 80 79 120
f 119 120 79
f 81 80 120
f 120 82 81
f 120 83 82
f 121 117 83
f 83 120 121
f 85 84 122
f 123 84 118
f 84 123 122
f 124 125 85
f 126 124 85
f 85 122 126
f 85 125 86
f 127 86 125
f 128 86 129
f 130 129 86
f 128 87 86
f 86 127 131
f 130 86 131
f 87 132 133
f 87 133 134
f 107 87 134
f 128 135 87
f 87 135 132
f 136 97 88
f 137 138 88
f 88 138 136
f 93 139 88
f 88 139 137
f 140 93 89
f 89 91 140
f 90 92 141
f 90 141 91
f 140 91 142
f 142 91 143
f 143 91 141
f 92 113 141
f 93 140 139
f 144 145 94
f 94 145 95
f 94 97 144
f 146 95 145
f 146 96 95
f 147 96 146
f 98 96 147
f 97 136 144
f 148 98 149
f 148 119 98
f 98 147 149
f 100 150 99
f 99 150 115
f 105 150 100
f 103 151 152
f 103 110 151
f 152 153 103
f 103 153 104
f 154 104 155
f 104 154 106
f 156 155 104
f 104 153 156
f 105 157 150
f 105 158 157
f 106 158 105
f 159 106 160
f 159 158 106
f 161 160 106
f 154 161 106
f 134 162 107
f 107 162 109
f 112 109 162
f 163 151 110
f 110 111 163
f 162 111 112
f 111 162 164
f 163 111 164
f 113 114 141
f 114 116 141
f 115 165 166
f 115 150 165
f 166 167 115
f 167 116 115
f 116 167 168
f 168 141 116
f 169 117 121
f 118 117 169
f 118 169 123
f 170 119 171
f 119 170 120
f 119 148 171
f 170 172 120
f 121 120 172
f 169 121 172
f 126 122 123
f 123 173 172
f 174 123 172
f 126 123 175
f 123 169 176
f 173 123 176
f 175 123 174
f 177 125 124
f 178 124 175
f 175 124 126
f 178 177 124
f 125 177 127
f 177 178 127
f 127 178 179
f 131 127 179
f 180 128 181
f 129 182 128
f 182 183 128
f 184 135 128
f 180 184 128
f 181 128 183
f 185 186 129
f 129 130 185
f 187 182 129
f 129 188 189
f 188 129 186
f 189 187 129
f 185 130 131
f 185 131 190
f 179 191 131
f 191 190 131
f 135 192 132
f 133 132 193
f 132 192 194
f 193 132 194
f 195 134 133
f 196 197 133
f 193 196 133
f 133 197 195
f 164 162 134
f 195 198 134
f 134 198 199
f 200 164 134
f 199 200 134
f 192 135 184
f 201 136 202
f 144 136 203
f 201 203 136
f 204 136 138
f 136 204 205
f 206 202 136
f 205 206 136
f 207 204 137
f 137 204 138
f 207 137 208
f 137 139 209
f 208 137 209
f 139 210 209
f 140 211 139
f 139 211 210
f 140 142 212
f 212 211 140
f 168 143 141
f 213 212 142
f 214 213 142
f 143 215 142
f 142 215 214
f 168 216 143
f 217 143 216
f 218 143 217
f 143 218 219
f 215 143 219
f 145 144 220
f 220 144 203
f 145 220 221
f 221 146 145
f 221 147 146
f 222 147 221
f 222 223 147
f 149 147 224
f 224 147 223
f 225 226 148
f 227 225 148
f 149 228 148
f 171 148 226
f 148 228 227
f 228 149 224
f 150 157 165
f 229 152 151
f 163 229 151
f 230 231 152
f 152 229 230
f 153 152 231
f 156 153 231
f 154 155 232
f 232 161 154
f 156 232 155
f 156 231 233
f 156 234 235
f 156 236 232
f 156 233 234
f 235 237 156
f 156 237 236
f 157 158 165
f 159 238 158
f 165 158 238
f 159 239 238
f 160 239 159
f 240 241 160
f 160 161 240
f 241 239 160
f 161 232 236
f 240 161 236
f 163 164 229
f 242 229 164
f 200 242 164
f 243 166 165
f 165 238 243
f 166 243 244
f 216 166 244
f 167 166 216
f 168 167 216
f 172 176 169
f 245 170 246
f 246 170 171
f 247 170 245
f 172 170 247
f 246 171 248
f 226 249 171
f 249 248 171
f 172 247 250
f 251 172 250
f 172 173 176
f 172 252 174
f 253 172 251
f 172 253 252
f 174 252 175
f 175 252 178
f 178 254 179
f 178 252 254
f 255 179 254
f 179 255 191
f 256 184 180
f 257 180 181
f 257 256 180
f 258 181 259
f 258 260 181
f 259 181 183
f 181 260 257
f 183 182 261
f 261 182 187
f 261 259 183
f 184 256 262
f 184 262 192
f 190 263 185
f 185 263 186
f 264 186 265
f 264 188 186
f 263 265 186
f 261 187 259
f 259 187 189
f 188 264 259
f 189 188 259
f 191 266 190
f 263 190 266
f 191 255 266
f 257 194 192
f 192 262 257
f 267 196 193
f 193 194 267
f 268 267 194
f 257 268 194
f 269 195 197
f 270 198 195
f 271 270 195
f 269 271 195
f 267 272 196
f 196 272 197
f 197 273 274
f 269 197 274
f 272 273 197
f 198 270 199
f 275 200 199
f 271 199 270
f 276 275 199
f 271 276 199
f 200 277 278
f 278 242 200
f 200 275 277
f 201 279 203
f 201 202 279
f 202 206 279
f 203 280 220
f 280 203 279
f 204 207 205
f 281 205 282
f 205 207 283
f 282 205 283
f 281 206 205
f 206 281 279
f 208 283 207
f 209 284 208
f 208 284 283
f 285 209 210
f 284 209 285
f 286 210 212
f 211 212 210
f 286 285 210
f 212 213 286
f 286 213 272
f 213 273 272
f 273 213 214
f 215 273 214
f 273 215 274
f 274 215 219
f 216 244 217
f 287 218 217
f 288 289 217
f 217 244 288
f 290 217 289
f 217 290 287
f 291 218 287
f 218 291 271
f 219 218 271
f 274 219 271
f 292 293 220
f 220 294 221
f 295 296 220
f 295 220 297
f 297 220 280
f 296 292 220
f 294 220 293
f 298 221 294
f 221 299 222
f 298 299 221
f 299 300 222
f 223 222 301
f 301 222 300
f 223 301 302
f 227 224 223
f 225 227 223
f 223 303 225
f 223 302 303
f 227 228 224
f 225 303 226
f 304 226 303
f 226 304 305
f 305 306 226
f 226 306 307
f 307 308 226
f 226 308 309
f 226 309 310
f 249 226 310
f 230 229 242
f 230 233 231
f 233 230 234
f 230 235 234
f 235 230 311
f 230 312 311
f 242 313 230
f 313 312 230
f 311 314 235
f 237 235 314
f 237 240 236
f 240 237 314
f 315 316 238
f 239 315 238
f 316 243 238
f 317 315 239
f 241 317 239
f 318 240 319
f 240 318 241
f 314 319 240
f 318 317 241
f 320 242 278
f 320 313 242
f 244 243 316
f 288 244 316
f 321 322 245
f 322 247 245
f 323 245 324
f 245 246 324
f 323 321 245
f 248 325 246
f 325 324 246
f 326 250 247
f 322 326 247
f 327 325 248
f 328 327 248
f 248 249 328
f 328 249 329
f 249 310 330
f 329 249 330
f 251 250 326
f 331 332 251
f 253 251 333
f 333 251 334
f 334 251 332
f 331 251 326
f 254 252 253
f 335 336 253
f 337 338 253
f 337 253 333
f 335 253 338
f 253 336 254
f 336 339 254
f 255 254 340
f 254 339 340
f 255 341 266
f 255 340 341
f 262 256 257
f 342 268 257
f 343 342 257
f 343 257 344
f 260 344 257
f 345 258 259
f 345 344 258
f 258 344 260
f 259 346 345
f 259 264 346
f 263 266 341
f 341 347 263
f 263 347 265
f 348 264 349
f 265 349 264
f 348 346 264
f 350 265 351
f 347 351 265
f 349 265 350
f 286 272 267
f 352 267 268
f 353 285 267
f 267 285 286
f 267 352 353
f 342 352 268
f 269 274 271
f 291 276 271
f 354 277 275
f 275 276 354
f 276 291 355
f 354 276 355
f 354 278 277
f 354 355 278
f 278 356 357
f 356 278 358
f 278 290 358
f 290 278 355
f 320 278 357
f 279 359 280
f 360 279 281
f 359 279 361
f 360 361 279
f 362 297 280
f 362 280 359
f 281 363 360
f 282 363 281
f 282 283 364
f 364 365 282
f 282 365 363
f 284 364 283
f 353 284 285
f 364 284 353
f 287 355 291
f 287 290 355
f 288 315 366
f 288 367 289
f 366 368 288
f 288 368 367
f 288 316 315
f 358 289 367
f 358 290 289
f 292 369 293
f 292 296 370
f 292 370 371
f 371 369 292
f 294 293 372
f 373 372 293
f 293 369 373
f 294 372 374
f 294 374 375
f 376 294 377
f 375 377 294
f 378 298 294
f 379 294 380
f 294 379 381
f 294 381 382
f 294 382 383
f 383 378 294
f 380 294 376
f 384 295 297
f 295 385 386
f 386 387 295
f 387 388 295
f 389 295 384
f 390 296 295
f 388 390 295
f 389 385 295
f 391 296 390
f 391 370 296
f 392 297 362
f 297 393 384
f 393 297 392
f 298 394 299
f 378 395 298
f 309 394 298
f 395 309 298
f 299 396 397
f 299 397 398
f 398 399 299
f 299 399 300
f 396 299 394
f 400 401 300
f 400 300 399
f 300 401 402
f 402 301 300
f 302 301 402
f 402 403 302
f 303 302 403
f 403 304 303
f 403 404 304
f 305 304 404
f 404 400 305
f 305 400 306
f 405 306 406
f 400 406 306
f 405 307 306
f 405 308 307
f 396 309 308
f 397 396 308
f 397 308 405
f 310 309 395
f 394 309 396
f 310 407 408
f 310 408 330
f 310 395 409
f 409 407 310
f 410 311 411
f 412 413 311
f 311 414 314
f 410 414 311
f 411 311 413
f 311 312 412
f 356 412 312
f 312 357 356
f 357 312 320
f 320 312 313
f 414 415 314
f 314 415 319
f 366 315 317
f 317 318 366
f 318 319 416
f 318 417 366
f 416 417 318
f 415 416 319
f 418 321 419
f 419 321 420
f 321 418 322
f 420 321 421
f 323 422 321
f 422 421 321
f 418 326 322
f 323 423 424
f 423 323 324
f 424 425 323
f 323 425 426
f 422 323 427
f 323 426 427
f 428 324 325
f 324 428 423
f 429 430 325
f 325 327 429
f 325 430 428
f 326 419 331
f 418 419 326
f 329 327 328
f 327 329 429
f 431 432 329
f 431 329 330
f 329 432 429
f 408 431 330
f 433 331 419
f 331 433 332
f 334 332 434
f 433 434 332
f 334 435 333
f 333 435 337
f 434 436 334
f 334 436 435
f 335 338 437
f 335 437 336
f 437 339 336
f 337 438 439
f 439 338 337
f 337 435 438
f 440 338 439
f 440 437 338
f 437 340 339
f 437 341 340
f 347 341 441
f 441 341 437
f 442 443 342
f 343 442 342
f 443 352 342
f 343 344 444
f 444 442 343
f 344 445 444
f 345 446 344
f 344 446 445
f 345 346 348
f 348 446 345
f 347 441 351
f 349 447 348
f 447 448 348
f 348 448 446
f 350 449 349
f 447 349 450
f 450 349 449
f 350 451 449
f 351 451 350
f 452 351 453
f 441 453 351
f 452 451 351
f 353 352 443
f 353 443 364
f 454 412 356
f 454 356 455
f 455 356 358
f 455 358 367
f 362 359 456
f 456 359 361
f 363 457 360
f 360 457 458
f 361 360 458
f 456 361 459
f 458 459 361
f 362 456 392
f 365 457 363
f 460 365 364
f 364 461 460
f 364 462 463
f 461 364 463
f 462 364 464
f 464 364 443
f 458 457 365
f 460 458 365
f 465 466 366
f 417 467 366
f 366 467 465
f 466 368 366
f 367 368 466
f 468 367 466
f 367 468 469
f 367 469 455
f 373 369 470
f 369 371 470
f 471 371 370
f 391 471 370
f 472 470 371
f 472 371 471
f 372 473 374
f 474 473 372
f 372 373 474
f 373 470 475
f 373 475 476
f 474 373 476
f 374 477 478
f 478 479 374
f 374 473 477
f 375 374 479
f 375 479 480
f 375 481 377
f 375 480 481
f 482 376 377
f 376 483 380
f 482 483 376
f 377 484 482
f 377 485 486
f 377 486 484
f 485 377 487
f 487 377 481
f 378 488 395
f 489 378 383
f 378 490 488
f 378 489 490
f 379 491 492
f 379 380 491
f 381 379 492
f 493 491 380
f 380 483 494
f 493 380 494
f 495 382 381
f 496 495 381
f 496 381 492
f 497 383 382
f 498 499 382
f 382 495 498
f 382 499 497
f 497 489 383
f 389 384 500
f 384 393 500
f 385 501 386
f 389 501 385
f 386 502 503
f 503 504 386
f 386 504 505
f 387 386 505
f 506 386 501
f 506 502 386
f 388 387 505
f 507 475 388
f 505 507 388
f 475 472 388
f 388 472 471
f 388 471 391
f 388 391 390
f 500 501 389
f 456 508 392
f 393 392 508
f 393 509 500
f 509 393 510
f 393 508 510
f 395 511 409
f 511 395 488
f 398 397 405
f 398 405 406
f 406 399 398
f 400 399 406
f 400 404 401
f 401 404 403
f 402 401 403
f 512 407 409
f 408 407 512
f 513 431 408
f 514 513 408
f 512 514 408
f 512 409 515
f 515 409 511
f 410 516 414
f 411 517 410
f 410 517 516
f 413 518 411
f 517 411 518
f 519 412 454
f 413 412 519
f 413 519 520
f 413 520 518
f 415 414 516
f 521 415 516
f 416 415 521
f 417 416 522
f 416 521 522
f 417 522 523
f 524 525 417
f 417 525 467
f 523 526 417
f 526 524 417
f 527 419 528
f 419 420 528
f 419 527 433
f 528 420 529
f 529 420 421
f 530 529 421
f 530 421 531
f 422 531 421
f 427 531 422
f 532 423 428
f 423 532 533
f 424 423 534
f 423 533 534
f 534 425 424
f 535 425 534
f 425 536 426
f 537 425 535
f 538 425 539
f 425 537 539
f 538 536 425
f 540 541 426
f 426 536 542
f 542 540 426
f 426 543 427
f 543 426 544
f 544 426 541
f 427 543 531
f 428 545 532
f 428 430 545
f 429 432 430
f 545 430 432
f 546 547 431
f 431 513 546
f 432 431 547
f 547 545 432
f 433 548 434
f 433 527 548
f 436 434 549
f 434 548 549
f 436 438 435
f 438 436 550
f 550 436 549
f 551 441 437
f 437 440 551
f 550 552 438
f 439 438 553
f 438 552 553
f 554 555 439
f 439 553 554
f 440 439 555
f 551 440 555
f 453 441 556
f 556 441 551
f 443 442 464
f 442 444 557
f 464 442 557
f 557 444 558
f 444 445 558
f 558 445 559
f 446 559 445
f 448 559 446
f 560 561 447
f 450 560 447
f 561 562 447
f 447 562 559
f 559 448 447
f 451 560 449
f 450 449 560
f 560 451 452
f 453 563 452
f 452 563 564
f 452 564 560
f 556 565 453
f 563 453 565
f 454 566 519
f 455 566 454
f 455 469 566
f 456 567 508
f 567 456 459
f 460 568 458
f 569 570 458
f 458 570 459
f 571 569 458
f 572 571 458
f 572 458 568
f 567 459 573
f 570 573 459
f 460 461 568
f 461 463 574
f 461 574 568
f 464 557 462
f 463 462 557
f 574 463 557
f 465 467 575
f 575 468 465
f 465 468 466
f 467 525 575
f 468 575 576
f 469 468 576
f 469 576 566
f 472 475 470
f 473 577 477
f 578 473 474
f 473 578 577
f 474 476 578
f 579 580 475
f 581 579 475
f 475 507 581
f 580 578 475
f 475 578 476
f 477 582 478
f 582 477 583
f 583 477 577
f 478 584 585
f 584 478 586
f 585 587 478
f 582 586 478
f 479 478 587
f 587 480 479
f 588 481 480
f 480 587 588
f 588 487 481
f 589 590 482
f 482 484 589
f 483 482 591
f 591 482 590
f 591 494 483
f 484 592 589
f 486 593 484
f 484 593 592
f 594 485 595
f 487 596 485
f 485 585 595
f 485 596 585
f 485 594 597
f 486 485 597
f 597 593 486
f 596 487 588
f 498 488 598
f 511 488 498
f 598 488 490
f 598 489 497
f 490 489 598
f 493 492 491
f 599 496 492
f 599 492 493
f 600 599 493
f 600 493 601
f 601 493 494
f 591 601 494
f 498 495 602
f 602 495 496
f 602 496 599
f 499 598 497
f 498 602 511
f 498 598 499
f 552 501 500
f 509 552 500
f 552 506 501
f 503 502 603
f 603 502 604
f 502 506 604
f 503 605 595
f 503 511 602
f 605 503 602
f 595 584 503
f 606 511 503
f 503 603 606
f 586 503 584
f 503 586 607
f 607 504 503
f 608 504 607
f 504 608 581
f 504 609 505
f 504 581 609
f 609 507 505
f 552 604 506
f 507 609 581
f 610 611 508
f 510 508 611
f 508 567 610
f 553 552 509
f 612 554 509
f 509 554 553
f 509 510 613
f 612 509 613
f 611 614 510
f 510 614 613
f 606 515 511
f 515 615 512
f 512 615 514
f 513 615 606
f 615 513 514
f 606 603 513
f 513 616 546
f 513 603 616
f 606 615 515
f 617 618 516
f 516 517 617
f 521 516 619
f 619 516 618
f 617 517 518
f 617 518 520
f 620 520 519
f 566 620 519
f 520 621 617
f 621 520 622
f 622 520 620
f 522 521 619
f 522 619 523
f 523 619 623
f 526 523 623
f 624 525 524
f 524 526 624
f 625 575 525
f 624 626 525
f 525 626 625
f 624 526 623
f 527 537 548
f 528 627 527
f 527 627 537
f 528 628 629
f 627 528 629
f 528 529 628
f 530 630 529
f 630 631 529
f 628 529 631
f 632 530 531
f 633 530 632
f 633 630 530
f 543 634 531
f 531 634 635
f 635 632 531
f 636 532 545
f 636 533 532
f 637 534 533
f 533 636 637
f 534 637 535
f 535 636 616
f 636 535 637
f 535 616 537
f 538 638 536
f 638 542 536
f 549 548 537
f 616 549 537
f 639 539 537
f 537 627 639
f 538 539 640
f 538 640 638
f 640 539 639
f 540 542 641
f 540 642 643
f 644 642 540
f 641 644 540
f 540 643 541
f 544 541 645
f 643 645 541
f 646 641 542
f 638 646 542
f 647 543 544
f 543 647 634
f 648 647 544
f 648 544 645
f 547 636 545
f 547 546 636
f 636 546 616
f 549 616 603
f 603 649 549
f 549 649 550
f 552 550 604
f 604 550 649
f 551 555 650
f 556 551 650
f 612 651 554
f 554 651 555
f 651 650 555
f 556 650 565
f 574 557 558
f 574 558 652
f 558 559 562
f 562 652 558
f 561 560 653
f 653 560 564
f 654 561 655
f 656 655 561
f 653 656 561
f 654 562 561
f 654 657 562
f 658 652 562
f 562 657 658
f 563 659 564
f 659 563 565
f 653 564 656
f 659 660 564
f 660 656 564
f 650 661 565
f 565 662 659
f 661 663 565
f 565 663 662
f 576 620 566
f 567 573 610
f 574 572 568
f 664 569 665
f 666 667 569
f 664 666 569
f 569 571 658
f 665 569 658
f 667 668 569
f 569 668 570
f 668 573 570
f 658 571 652
f 652 571 572
f 652 572 574
f 668 610 573
f 625 576 575
f 669 620 576
f 625 669 576
f 580 577 578
f 580 583 577
f 580 579 670
f 670 579 671
f 608 579 581
f 579 608 671
f 670 583 580
f 586 582 670
f 670 582 583
f 595 585 584
f 596 672 585
f 672 587 585
f 670 671 586
f 607 586 671
f 588 587 672
f 588 672 596
f 589 592 590
f 673 591 590
f 590 592 673
f 600 601 591
f 600 591 673
f 592 674 673
f 593 674 592
f 597 674 593
f 594 673 674
f 594 595 605
f 673 594 605
f 594 674 597
f 599 605 602
f 605 599 600
f 600 673 605
f 649 603 604
f 607 671 608
f 611 610 675
f 610 667 666
f 675 610 666
f 667 610 668
f 676 611 675
f 611 676 614
f 677 612 613
f 612 677 678
f 651 612 678
f 679 677 613
f 614 679 613
f 680 679 614
f 676 680 614
f 617 621 618
f 623 619 618
f 618 681 623
f 618 621 681
f 669 622 620
f 681 621 622
f 681 622 682
f 682 622 669
f 624 623 682
f 681 682 623
f 682 626 624
f 625 626 669
f 626 682 669
f 639 627 629
f 629 628 631
f 631 683 629
f 683 639 629
f 630 684 685
f 630 685 686
f 686 631 630
f 630 633 684
f 686 683 631
f 633 632 635
f 633 635 687
f 684 633 687
f 688 634 647
f 689 634 688
f 689 635 634
f 689 687 635
f 640 690 638
f 691 646 638
f 690 691 638
f 683 640 639
f 640 683 690
f 641 646 692
f 692 644 641
f 693 642 644
f 694 642 695
f 693 695 642
f 643 642 696
f 696 642 694
f 696 645 643
f 692 697 644
f 644 698 699
f 693 644 699
f 698 644 697
f 645 696 700
f 648 645 700
f 692 646 691
f 648 700 647
f 701 647 700
f 702 647 701
f 647 702 688
f 661 650 651
f 651 678 661
f 655 665 654
f 654 665 657
f 655 656 703
f 665 655 703
f 703 656 704
f 704 656 660
f 657 665 658
f 705 660 659
f 659 662 705
f 705 704 660
f 663 661 678
f 662 663 705
f 663 678 677
f 706 663 677
f 706 705 663
f 707 666 664
f 664 703 707
f 664 665 703
f 675 666 707
f 708 675 707
f 708 676 675
f 680 676 708
f 677 679 706
f 679 680 709
f 706 679 709
f 708 709 680
f 683 686 690
f 687 710 684
f 684 711 685
f 684 710 711
f 712 690 685
f 690 686 685
f 712 685 711
f 689 713 687
f 687 713 710
f 689 688 714
f 715 716 688
f 716 717 688
f 702 715 688
f 717 718 688
f 718 714 688
f 714 719 689
f 689 719 713
f 690 720 691
f 690 712 720
f 720 692 691
f 692 720 721
f 721 697 692
f 693 699 722
f 722 695 693
f 696 694 695
f 722 723 695
f 695 723 696
f 696 701 700
f 723 701 696
f 724 725 697
f 721 724 697
f 725 698 697
f 726 698 727
f 728 699 698
f 726 728 698
f 698 729 727
f 729 698 725
f 722 699 728
f 730 702 701
f 731 701 723
f 701 731 730
f 715 702 730
f 703 704 706
f 706 732 703
f 732 707 703
f 706 704 705
f 732 706 709
f 707 732 708
f 708 732 709
f 713 733 710
f 710 733 711
f 733 734 711
f 711 734 712
f 735 720 712
f 736 712 737
f 712 738 735
f 736 738 712
f 734 737 712
f 713 739 733
f 719 739 713
f 714 718 740
f 741 714 740
f 714 741 719
f 742 716 715
f 743 742 715
f 731 744 715
f 730 731 715
f 744 745 715
f 715 745 743
f 716 746 717
f 716 747 746
f 716 742 747
f 746 718 717
f 746 740 718
f 748 719 741
f 748 739 719
f 736 721 720
f 735 738 720
f 720 738 736
f 749 724 721
f 736 749 721
f 728 723 722
f 728 731 723
f 750 724 751
f 724 752 753
f 725 724 750
f 724 749 752
f 724 753 754
f 755 751 724
f 754 755 724
f 756 725 757
f 750 757 725
f 729 725 756
f 728 726 758
f 727 759 726
f 726 759 758
f 760 761 727
f 762 760 727
f 761 759 727
f 727 729 762
f 744 731 728
f 763 743 728
f 758 763 728
f 728 743 745
f 728 745 744
f 756 762 729
f 734 733 739
f 737 734 764
f 764 734 739
f 737 749 736
f 764 752 737
f 749 737 752
f 739 753 752
f 764 739 752
f 753 739 748
f 740 746 765
f 766 740 765
f 741 740 767
f 767 740 766
f 741 768 754
f 748 741 754
f 768 741 769
f 769 741 767
f 770 747 742
f 742 743 770
f 771 770 743
f 763 771 743
f 765 746 772
f 773 746 747
f 746 773 774
f 775 746 774
f 775 772 746
f 770 773 747
f 748 754 753
f 757 750 776
f 750 751 776
f 777 776 751
f 751 755 777
f 768 755 754
f 755 768 777
f 778 756 757
f 762 756 778
f 776 778 757
f 779 763 758
f 758 761 779
f 758 759 761
f 760 780 761
f 762 781 760
f 782 760 783
f 783 760 781
f 782 780 760
f 780 775 761
f 779 761 784
f 784 761 775
f 762 785 781
f 762 778 785
f 779 771 763
f 786 765 772
f 766 765 787
f 788 787 765
f 789 788 765
f 786 789 765
f 769 767 766
f 766 790 769
f 790 766 787
f 769 777 768
f 769 790 777
f 774 770 771
f 773 770 774
f 784 771 779
f 784 774 771
f 780 772 775
f 786 772 780
f 775 774 784
f 778 776 791
f 776 792 793
f 791 776 793
f 794 792 776
f 777 794 776
f 790 794 777
f 785 778 791
f 782 786 780
f 781 785 783
f 795 786 782
f 783 793 782
f 793 796 782
f 796 795 782
f 783 791 793
f 783 785 791
f 795 789 786
f 794 790 787
f 797 794 787
f 787 798 797
f 787 788 798
f 788 795 796
f 798 788 796
f 795 788 789
f 797 793 792
f 792 794 797
f 798 796 793
f 797 798 793
