# Generated by Visualization Toolkit
v 0.10420600324869156 0.03172500059008598 0.005107000004500151
v 0.09425400197505951 0.03243400156497955 0.008425000123679638
v 0.09928900003433228 0.030900999903678894 0.0050760000012815
v 0.10493099689483643 0.03245899826288223 0.005840000230818987
v 0.10328400135040283 0.030232999473810196 0.0041589997708797455
v 0.10476399958133698 0.031082000583410263 0.004819000139832497
v 0.09081900119781494 0.032655999064445496 0.009147999808192253
v 0.09098599851131439 0.03362800180912018 0.01042299997061491
v 0.10316800326108932 0.034745000302791595 0.011723999865353107
v 0.09365499764680862 0.03434399887919426 0.016304999589920044
v 0.10549599677324295 0.03411100059747696 0.010510999709367752
v 0.09172099828720093 0.03422499820590019 0.01310999970883131
v 0.09393499791622162 0.031780000776052475 0.008156999945640564
v 0.09542399644851685 0.03125400096178055 0.007127000018954277
v 0.09830299764871597 0.02889700047671795 0.005652999971061945
v 0.10095100104808807 0.028829000890254974 0.004730999935418367
v 0.09926699846982956 0.02879899926483631 0.0051020001992583275
v 0.10553800314664841 0.03307399898767471 0.007934999652206898
v 0.10547299683094025 0.031821999698877335 0.005576000083237886
v 0.1042490005493164 0.029179999604821205 0.0048050000332295895
v 0.10247600078582764 0.02890400029718876 0.00456599984318018
v 0.10331100225448608 0.02899800054728985 0.004648999776691198
v 0.10500399768352509 0.029875999316573143 0.005319000221788883
v 0.0901779979467392 0.0320109985768795 0.009479999542236328
v 0.09064900130033493 0.03219300135970116 0.008938999846577644
v 0.0907910019159317 0.03349699825048447 0.013387000188231468
v 0.0902860015630722 0.032735999673604965 0.011641000397503376
v 0.10688599944114685 0.033264998346567154 0.013747000135481358
v 0.10637199878692627 0.032409001141786575 0.016954999417066574
v 0.10737600177526474 0.03218499943614006 0.015960000455379486
v 0.10268300026655197 0.03198299929499626 0.018942000344395638
v 0.094759002327919 0.032687000930309296 0.018510999158024788
v 0.0934469997882843 0.03140399977564812 0.019061999395489693
v 0.0926010012626648 0.03295399993658066 0.016527000814676285
v 0.09170299768447876 0.033323999494314194 0.0149940000846982
v 0.09305699914693832 0.03221600130200386 0.017810000106692314
v 0.10604500025510788 0.033337000757455826 0.010370999574661255
v 0.10670799762010574 0.03296399861574173 0.012159000150859356
v 0.09066999703645706 0.03101000003516674 0.009208000265061855
v 0.0922980010509491 0.030713999643921852 0.008849999867379665
v 0.09564600139856339 0.029844999313354492 0.007327000144869089
v 0.09716600179672241 0.029234999790787697 0.006326000206172466
v 0.09751799702644348 0.027667000889778137 0.006659000180661678
v 0.09623000025749207 0.019392000511288643 0.009107000194489956
v 0.10726200044155121 0.03184700012207031 0.014000999741256237
v 0.10442499816417694 0.027898000553250313 0.005384999793022871
v 0.09791699796915054 0.019096000120043755 0.008654000237584114
v 0.09961599856615067 0.01893400028347969 0.00834100041538477
v 0.10179799795150757 0.019666999578475952 0.007797999773174524
v 0.10252299904823303 0.0196749996393919 0.007883000187575817
v 0.10391300171613693 0.020452000200748444 0.008511999621987343
v 0.10641799867153168 0.02584500052034855 0.0154600003734231
v 0.10496500134468079 0.022249000146985054 0.012237999588251114
v 0.09008999913930893 0.0308810006827116 0.010577999986708164
v 0.09024400264024734 0.030764000490307808 0.009823000058531761
v 0.10739800333976746 0.0321200005710125 0.014825999736785889
v 0.1071380004286766 0.03261600062251091 0.013875000178813934
v 0.10745599865913391 0.03201499953866005 0.016467999666929245
v 0.10793299973011017 0.030347999185323715 0.017173999920487404
v 0.10767199844121933 0.03143899887800217 0.015831999480724335
v 0.10775099694728851 0.031230999156832695 0.016409000381827354
v 0.09478099644184113 0.030365999788045883 0.021491000428795815
v 0.09454300254583359 0.030964000150561333 0.021067000925540924
v 0.10398200154304504 0.02980099990963936 0.018619999289512634
v 0.10207200050354004 0.029836999252438545 0.019349999725818634
v 0.0998150035738945 0.02967499941587448 0.019998999312520027
v 0.09362900257110596 0.030579999089241028 0.02012299932539463
v 0.09348200261592865 0.029055999591946602 0.019856000319123268
v 0.09331099689006805 0.021423999220132828 0.016662999987602234
v 0.09254399687051773 0.02043999917805195 0.01042800024151802
v 0.09513299912214279 0.018828999251127243 0.009813000448048115
v 0.09833899885416031 0.018332000821828842 0.008926000446081161
v 0.09292100369930267 0.019574999809265137 0.010459999553859234
v 0.09395600110292435 0.019200000911951065 0.010143999941647053
v 0.1078369989991188 0.030432000756263733 0.016186000779271126
v 0.1008789986371994 0.019037999212741852 0.008158000186085701
v 0.10144899785518646 0.01876699924468994 0.00851999968290329
v 0.10228099673986435 0.019252000376582146 0.008194999769330025
v 0.10296499729156494 0.019620999693870544 0.008460000157356262
v 0.10353100299835205 0.019953999668359756 0.008717999793589115
v 0.10397700220346451 0.020566999912261963 0.009267999790608883
v 0.10053800046443939 0.02057499997317791 0.015507999807596207
v 0.10682400315999985 0.029438000172376633 0.017416000366210938
v 0.1044749990105629 0.021624000743031502 0.014004000462591648
v 0.10754899680614471 0.029177000746130943 0.01706399954855442
v 0.1036669984459877 0.020390000194311142 0.009732999838888645
v 0.10409899801015854 0.0212009996175766 0.013116000220179558
v 0.10369200259447098 0.02081199921667576 0.012258999980986118
v 0.10378599911928177 0.020654000341892242 0.010456000454723835
v 0.1039000004529953 0.02090499922633171 0.011153999716043472
v 0.10379599779844284 0.02085600048303604 0.011699999682605267
v 0.09214399755001068 0.022444000467658043 0.01323499996215105
v 0.0928409993648529 0.020961999893188477 0.015941999852657318
v 0.10583800077438354 0.02962700091302395 0.01787099987268448
v 0.09481299668550491 0.028996000066399574 0.021105999127030373
v 0.09424100071191788 0.030177999287843704 0.021268000826239586
v 0.09764699637889862 0.029458999633789062 0.020401999354362488
v 0.09600800275802612 0.029201000928878784 0.02079400047659874
v 0.09383200109004974 0.029975999146699905 0.020958999171853065
v 0.09370700269937515 0.02844800055027008 0.020729999989271164
v 0.09360899776220322 0.026763999834656715 0.020459000021219254
v 0.09339699894189835 0.021789999678730965 0.017597999423742294
v 0.09358499944210052 0.01962300017476082 0.01618500053882599
v 0.09319999814033508 0.02027300000190735 0.01611500047147274
v 0.09262300282716751 0.02010899968445301 0.010928000323474407
v 0.09408999979496002 0.018918000161647797 0.010629000142216682
v 0.09958700090646744 0.01788399927318096 0.011668999679386616
v 0.0930979996919632 0.019334999844431877 0.01093200035393238
v 0.10342299938201904 0.019985999912023544 0.00927099958062172
v 0.10116700083017349 0.020089000463485718 0.01460800040513277
v 0.10028699785470963 0.01979300007224083 0.01484300009906292
v 0.09859099984169006 0.019525999203324318 0.015035999938845634
v 0.0968799963593483 0.019286999478936195 0.015150999650359154
v 0.10206600278615952 0.020363999530673027 0.014340000227093697
v 0.09479399770498276 0.019770000129938126 0.01616000011563301
v 0.09570000320672989 0.019166000187397003 0.015283999964594841
v 0.10263500362634659 0.020526999607682228 0.01410599984228611
v 0.10354000329971313 0.020891999825835228 0.013601000420749187
v 0.09278199821710587 0.02037299983203411 0.01522700022906065
v 0.09277600049972534 0.019903000444173813 0.014535999856889248
v 0.09288699924945831 0.01981399953365326 0.011397999711334705
v 0.09255000203847885 0.02064099907875061 0.013151000253856182
v 0.09267599880695343 0.02026900090277195 0.01387100014835596
v 0.09414499998092651 0.01964000053703785 0.016186999157071114
v 0.09560099989175797 0.018616000190377235 0.014134000055491924
v 0.09336599707603455 0.019202999770641327 0.014825999736785889
v 0.09366100281476974 0.01888200081884861 0.012330000288784504
v 0.09303800016641617 0.01974399946630001 0.011915000155568123
v 0.09309700131416321 0.019725000485777855 0.01271199993789196
v 0.09420999884605408 0.018825000151991844 0.013546999543905258
f 3 2 1
f 1 2 4
f 1 5 3
f 1 6 5
f 1 4 6
f 8 2 7
f 2 10 9
f 11 4 2
f 9 11 2
f 12 2 8
f 10 2 12
f 2 14 13
f 2 3 14
f 2 13 7
f 14 3 15
f 3 5 16
f 17 3 16
f 15 3 17
f 19 4 18
f 4 19 6
f 18 4 11
f 5 6 20
f 16 5 21
f 21 5 22
f 22 5 20
f 20 6 23
f 6 19 23
f 25 24 7
f 24 8 7
f 13 25 7
f 26 12 8
f 8 27 26
f 8 24 27
f 11 9 28
f 30 9 29
f 29 9 31
f 32 9 10
f 31 9 32
f 9 30 28
f 33 32 10
f 10 35 34
f 10 12 35
f 10 36 33
f 10 34 36
f 11 37 18
f 38 11 28
f 38 37 11
f 12 26 35
f 25 13 39
f 39 13 40
f 13 14 41
f 40 13 41
f 42 14 15
f 41 14 42
f 42 15 43
f 43 15 17
f 21 44 16
f 17 16 44
f 43 17 44
f 18 37 19
f 19 37 38
f 38 45 19
f 23 19 45
f 20 23 46
f 22 20 46
f 21 47 44
f 21 22 46
f 21 48 47
f 49 48 21
f 50 49 21
f 46 50 21
f 51 46 23
f 23 45 52
f 53 51 23
f 23 52 53
f 25 39 24
f 24 54 27
f 24 39 55
f 55 54 24
f 35 26 54
f 27 54 26
f 56 28 30
f 56 57 28
f 28 57 38
f 30 29 58
f 31 59 29
f 59 58 29
f 30 60 56
f 61 30 58
f 61 60 30
f 63 62 31
f 31 32 63
f 59 31 64
f 64 31 65
f 31 62 66
f 65 31 66
f 33 63 32
f 33 67 63
f 67 33 68
f 33 36 69
f 68 33 69
f 34 35 54
f 36 34 54
f 54 69 36
f 38 57 45
f 39 70 55
f 39 40 70
f 70 40 41
f 70 41 44
f 44 41 43
f 43 41 42
f 44 72 71
f 44 47 72
f 73 70 44
f 44 71 74
f 44 74 73
f 45 57 56
f 60 75 45
f 56 60 45
f 45 75 52
f 51 50 46
f 72 47 48
f 48 76 72
f 76 48 49
f 77 49 50
f 77 76 49
f 78 77 50
f 79 50 51
f 79 78 50
f 80 79 51
f 81 80 51
f 81 51 53
f 52 83 82
f 82 84 52
f 52 59 85
f 85 83 52
f 75 59 52
f 52 84 53
f 86 81 53
f 88 53 87
f 53 90 89
f 53 89 86
f 53 88 91
f 90 53 91
f 87 53 84
f 70 92 54
f 54 93 69
f 54 92 93
f 55 70 54
f 59 61 58
f 94 59 64
f 83 59 94
f 85 59 83
f 59 75 61
f 75 60 61
f 62 96 95
f 63 96 62
f 66 62 97
f 97 62 98
f 98 62 95
f 67 99 63
f 63 99 96
f 94 64 82
f 82 64 65
f 65 66 82
f 82 66 97
f 99 67 100
f 100 67 68
f 102 101 68
f 102 68 69
f 100 68 101
f 102 69 103
f 104 103 69
f 93 104 69
f 70 73 105
f 92 70 105
f 71 106 74
f 72 106 71
f 76 77 72
f 107 72 77
f 72 107 106
f 73 108 105
f 106 108 73
f 74 106 73
f 77 78 79
f 79 107 77
f 80 107 79
f 81 109 80
f 107 80 109
f 81 86 109
f 82 111 110
f 82 113 112
f 97 98 82
f 102 82 101
f 114 84 82
f 110 114 82
f 112 111 82
f 116 82 115
f 116 113 82
f 82 83 94
f 82 95 101
f 82 98 95
f 102 115 82
f 84 114 117
f 118 87 84
f 117 118 84
f 89 107 86
f 107 109 86
f 88 87 118
f 91 88 89
f 88 118 89
f 118 107 89
f 89 90 91
f 120 119 92
f 92 105 121
f 92 121 122
f 92 119 93
f 92 122 123
f 92 123 120
f 119 104 93
f 96 99 95
f 95 99 100
f 101 95 100
f 124 115 102
f 103 124 102
f 125 116 103
f 126 103 104
f 103 116 124
f 103 126 125
f 119 126 104
f 105 108 121
f 107 125 106
f 127 106 125
f 127 108 106
f 107 114 110
f 107 111 112
f 110 111 107
f 112 113 107
f 117 107 118
f 117 114 107
f 107 113 125
f 128 108 127
f 128 121 108
f 116 125 113
f 116 115 124
f 119 120 126
f 120 123 126
f 122 121 128
f 130 122 129
f 123 122 130
f 129 122 128
f 126 123 130
f 127 125 130
f 125 126 130
f 127 130 129
f 129 128 127
