# Generated by Visualization Toolkit
v 0.0021609999239444733 0.007412000093609095 -0.014116000384092331
v 0.003212000010535121 0.007849999703466892 -0.014134000055491924
v 0.002001000102609396 0.008351000025868416 -0.014012999832630157
v 0.002583000110462308 0.004964000079780817 -0.014171999879181385
v 0.0039610001258552074 0.004614999983459711 -0.01424300018697977
v 0.005167999770492315 0.004482999909669161 -0.014410000294446945
v 0.0008459999808110297 0.006785999983549118 -0.01406800001859665
v 0.0005489999894052744 0.007962999865412712 -0.013929000124335289
v -0.0012450000504031777 0.009391999803483486 -0.013596000149846077
v 0.00433199992403388 0.007385999895632267 -0.01419300027191639
v 0.0032909999135881662 0.008549000136554241 -0.013482999987900257
v 0.003877999959513545 0.009065999649465084 -0.011903000064194202
v 0.00420599989593029 0.0032550001051276922 -0.014197000302374363
v -0.002435999922454357 0.0038670001085847616 -0.013047999702394009
v 0.005541999824345112 0.003019999945536256 -0.01421900000423193
v 0.008379999548196793 0.003728999989107251 -0.012799999676644802
v 0.007333999965339899 0.004794000182300806 -0.013426000252366066
v 0.007052000146359205 0.006393999792635441 -0.013485999777913094
v -0.002830999903380871 0.009812000207602978 -0.012923000380396843
v -0.0005440000095404685 0.011094000190496445 -0.0096859997138381
v -0.0024679999332875013 0.008528999984264374 -0.013116000220179558
v 0.006945000030100346 0.006984999869018793 -0.013174000196158886
v 0.006922000087797642 0.007406000047922134 -0.012799999676644802
v 0.0066639999859035015 0.007840000092983246 -0.012432999908924103
v 0.0053369998931884766 0.00824700016528368 -0.012756000272929668
v -0.0037620000075548887 0.012263000011444092 -0.00022400000307243317
v 0.0061240000650286674 0.001016999944113195 -0.013938999734818935
v 0.005872000008821487 0.001972000114619732 -0.014042999595403671
v -0.004906999878585339 0.007397000212222338 -0.012010999955236912
v -0.007942000404000282 0.004271999932825565 -0.010540000163018703
v -0.00762300007045269 0.0028929999098181725 -0.010838000103831291
v -0.0065460000187158585 0.0016060000052675605 -0.01143800001591444
v -0.003447999944910407 -0.0037249999586492777 -0.014585000462830067
v 0.00006600000051548705 -0.002816000021994114 -0.016008000820875168
v -0.005251000169664621 -0.0011320000048726797 -0.01235399954020977
v 0.004129999782890081 -0.0038590000476688147 -0.016131000593304634
v 0.01011900044977665 0.0018629999831318855 -0.012237000279128551
v 0.008829999715089798 0.002841999987140298 -0.012745000422000885
v 0.010149000212550163 0.0035359999164938927 -0.012010999955236912
v 0.010971000418066978 0.005778999999165535 -0.010499999858438969
v -0.004004999995231628 0.008801000192761421 -0.01242700032889843
v -0.004362999927252531 0.010491999797523022 -0.011861000210046768
v -0.009948999620974064 0.009078999981284142 -0.008177000097930431
v 0.009438999928534031 0.01360199972987175 0.008452000096440315
v 0.005243000108748674 0.015212999656796455 0.00762300007045269
v 0.01372000016272068 0.006424000021070242 -0.00291300006210804
v 0.012178000062704086 0.009297000244259834 0.002409999957308173
v 0.0016789999790489674 0.014619999565184116 0.0038920000661164522
v 0.0030090000946074724 0.015401000156998634 0.005694999825209379
v -0.003868000116199255 0.013535000383853912 0.01028900034725666
v 0.00018899999849963933 0.015401000156998634 0.005799000151455402
v -0.0019379999721422791 0.01504599954932928 0.0079950001090765
v 0.00684700021520257 0.0003499999875202775 -0.013807999901473522
v 0.006271999794989824 -0.0007740000146441162 -0.014396999962627888
v -0.005367000121623278 0.008840999566018581 -0.011806000024080276
v -0.008999000303447247 0.006585000082850456 -0.009580999612808228
v -0.008497999981045723 0.0044479998759925365 -0.010227999649941921
v -0.008202999830245972 0.0053530000150203705 -0.010203000158071518
v -0.007650999817997217 0.006984999869018793 -0.010494000278413296
v -0.011262999847531319 0.0046270000748336315 -0.006415000185370445
v -0.006113000214099884 0.0003020000003743917 -0.011777999810874462
v -0.004226999823004007 -0.004987000022083521 -0.015297999605536461
v -0.0021730000153183937 -0.0063240001909434795 -0.016126999631524086
v -0.0010089999996125698 -0.005084000062197447 -0.017194999381899834
v -0.006969999987632036 -0.00039900001138448715 -0.010846000164747238
v -0.005442999769002199 -0.004699999932199717 -0.014108000323176384
v -0.007199999876320362 -0.0009759999811649323 -0.010959000326693058
v 0.006823999807238579 -0.0010870000114664435 -0.014084000140428543
v 0.005338999908417463 -0.0047240001149475574 -0.01563199982047081
v 0.0015920000150799751 -0.0091540003195405 -0.01689000055193901
v 0.012240000069141388 0.002454000059515238 -0.010808000341057777
v 0.011219999752938747 0.003713000100106001 -0.011521000415086746
v 0.013075999915599823 0.001888000057078898 -0.00841899961233139
v 0.011560999788343906 -0.0005290000117383897 -0.008094999939203262
v 0.012144999578595161 0.000999000039882958 -0.008751999586820602
v 0.011753000319004059 0.004621000029146671 -0.010941999964416027
v 0.011633999645709991 0.00558000011369586 -0.00955899991095066
v -0.010115000419318676 0.006876999977976084 -0.008595000021159649
v -0.011206000111997128 0.007191999815404415 -0.00735899992287159
v -0.012303000316023827 0.006269000004976988 -0.0030529999639838934
v 0.01024600025266409 0.013156999833881855 0.008599000051617622
v 0.01182200014591217 0.012145999819040298 0.00812700018286705
v 0.006279999855905771 0.014461999759078026 0.008564000017940998
v 0.011082000099122524 0.012544999830424786 0.008421000093221664
v 0.01235899981111288 0.011625000275671482 0.009108999744057655
v 0.006529000122100115 0.012578999623656273 0.008736000396311283
v 0.006357000209391117 0.013640999794006348 0.008673000149428844
v 0.006624000146985054 0.011335999704897404 0.008805000223219395
v 0.0031429999507963657 0.01549999974668026 0.007007000036537647
v 0.004348000045865774 0.015123999677598476 0.008297000080347061
v 0.0032709999941289425 0.015463000163435936 0.008038000203669071
v 0.005363999865949154 0.014727000147104263 0.008585999719798565
v 0.012782000005245209 0.0047889999113976955 -0.009778999723494053
v 0.014144999906420708 0.004521000199019909 -0.00949000008404255
v 0.014756999909877777 0.0061160000041127205 -0.0004299999854993075
v 0.012153999879956245 0.005365999881178141 -0.009169000200927258
v 0.015968000516295433 0.00596500001847744 -0.006310000084340572
v 0.014096999540925026 0.0071669998578727245 0.0008430000161752105
v 0.014143000356853008 0.008190999738872051 0.003918999806046486
v 0.013907999731600285 0.00785600021481514 0.002196999965235591
v 0.0015750000020489097 0.01541099976748228 0.00570600014179945
v 0.0008779999916441739 0.015103000216186047 0.009316000156104565
v -0.003536999924108386 0.013252000324428082 0.011006999760866165
v -0.0027409999165683985 0.01435100007802248 0.010002999566495419
v -0.012860000133514404 0.004896999802440405 0.000029999999242136255
v -0.012291000224649906 0.004530000034719706 0.005096000153571367
v -0.010083000175654888 0.0045819999650120735 0.012552999891340733
v -0.004282000008970499 0.011895000003278255 0.011748000048100948
v -0.0007479999912902713 0.01533500012010336 0.007784999907016754
v -0.0016039999900385737 0.015064000152051449 0.009703000076115131
v 0.007323000114411116 -0.0013289999915286899 -0.013509999960660934
v -0.009934999980032444 0.005884000100195408 -0.008802000433206558
v -0.011225000023841858 -0.00003600000127335079 -0.007102999836206436
v -0.01248599961400032 0.0005810000002384186 -0.005303999874740839
v -0.012082000263035297 0.006012999918311834 -0.004720999859273434
v -0.013264999724924564 0.0006050000083632767 -0.0033970000222325325
v -0.00891599990427494 0.0003389999910723418 -0.009112000465393066
v -0.011251999996602535 0.005882000084966421 -0.006874999962747097
v -0.004647000227123499 -0.005727999843657017 -0.01472300011664629
v -0.0032289999071508646 -0.0058639999479055405 -0.015643000602722168
v -0.002136999974027276 -0.00684100016951561 -0.015406999737024307
v -0.007840000092983246 -0.0045779999345541 -0.013047999702394009
v -0.009523999877274036 -0.0005719999899156392 -0.00910400040447712
v 0.006895000115036964 -0.0023139999248087406 -0.013822999782860279
v 0.006593000143766403 -0.009352000430226326 -0.009948999620974064
v 0.00725100003182888 -0.004269000142812729 -0.013325000181794167
v 0.007648000027984381 -0.002604000037536025 -0.01286999974399805
v 0.014813999645411968 0.003700000001117587 -0.010125000029802322
v 0.01450200006365776 0.004141000099480152 -0.010005000047385693
v 0.01395499985665083 0.0018909999635070562 -0.009898999705910683
v 0.013163999654352665 0.0017079999670386314 -0.00977300014346838
v 0.014267999678850174 0.0023640000727027655 -0.010046999901533127
v 0.013709000311791897 0.002905000001192093 -0.010463000275194645
v 0.014574999921023846 0.00046499999007210135 -0.0092569999396801
v 0.013429000042378902 0.0015269999857991934 -0.0075090001337230206
v 0.012396999634802341 0.0006559999892488122 -0.007937000133097172
v 0.012641999870538712 0.00036199999158270657 -0.007278000004589558
v 0.01033599954098463 -0.002612000098451972 -0.008744999766349792
v 0.011389000341296196 -0.001867000013589859 -0.007619000039994717
v 0.011935999616980553 -0.0008789999992586672 -0.007414000108838081
v 0.014344999566674232 -0.000018000000636675395 -0.005197000224143267
v -0.01321799959987402 0.003911000210791826 0.00023400000645779073
v 0.014805999584496021 0.009194999933242798 0.004939999897032976
v 0.013892999850213528 0.010568000376224518 0.00837900023907423
v 0.014506000094115734 0.010525999590754509 0.007366999983787537
v 0.01488099992275238 0.009669999592006207 0.008899999782443047
v 0.014667999930679798 0.00926200021058321 0.010243000462651253
v 0.013775999657809734 0.007853000424802303 0.012048999778926373
v 0.005549999885261059 0.010622999630868435 0.008911999873816967
v 0.004308999981731176 0.014003000222146511 0.00890399981290102
v 0.018055999651551247 0.004447000101208687 -0.01091300044208765
v 0.014670000411570072 0.006730000022798777 0.00088900001719594
v 0.01574300043284893 0.005756000056862831 -0.0035059999208897352
v 0.015166000463068485 0.006178000010550022 0
v 0.019456999376416206 0.005150000099092722 -0.010227999649941921
v 0.02071000076830387 0.005745000205934048 -0.009549999609589577
v 0.021407999098300934 0.006275999825447798 -0.008305000141263008
v 0.018693000078201294 0.006971000228077173 -0.006031999830156565
v 0.021815000101923943 0.008704000152647495 -0.0005869999877177179
v 0.017537999898195267 0.006515000015497208 -0.0012049999786540866
v 0.015576999634504318 0.008054999634623528 0.003783999942243099
v 0.014558999799191952 0.00737199978902936 0.002196999965235591
v 0.014782000333070755 0.007552000228315592 0.0028150000143796206
v 0.014991999603807926 0.0076950001530349255 0.0033050000201910734
v -0.0010239999974146485 0.01424300018697977 0.011063000187277794
v 0.0018739999504759908 0.011163000017404556 0.010432000271975994
v -0.0031590000726282597 0.012881999835371971 0.01157000008970499
v -0.013094999827444553 0.0041669998317956924 0.0020550000481307507
v -0.013961000367999077 -0.0009120000177063048 0.005814000032842159
v -0.013353000394999981 0.0030869999900460243 0.003017999930307269
v -0.013009999878704548 0.003869999898597598 0.0030269999988377094
v -0.0051299999468028545 0.0020179999992251396 0.014135000295937061
v -0.003914000000804663 0.009576000273227692 0.01266700029373169
v -0.010706000030040741 0.0016550000291317701 0.011601000092923641
v -0.003587000072002411 0.011312000453472137 0.012167000211775303
v -0.014010000042617321 -0.0017219999572262168 -0.0049669998697936535
v -0.014534000307321548 -0.0029410000424832106 -0.004813999868929386
v -0.014174999669194221 -0.0006750000175088644 -0.003398000029847026
v -0.015483000315725803 -0.00215000007301569 -0.0016840000171214342
v -0.01457200013101101 0.00046400001156143844 0.00029600001289509237
v 0.0009069999796338379 -0.006006999872624874 -0.007319999858736992
v -0.013518000021576881 -0.004050000105053186 -0.004422000143676996
v -0.004738000221550465 -0.00445199990645051 -0.0073020001873373985
v -0.006130999885499477 -0.00406000018119812 -0.006606000009924173
v 0.004627999849617481 -0.009619999676942825 0.0007730000070296228
v 0.009584999643266201 -0.005679999943822622 -0.004900000058114529
v 0.00953300017863512 -0.003490000031888485 -0.009814999997615814
v 0.00827299989759922 -0.0035649999044835567 -0.01184799987822771
v 0.015122000128030777 0.003217000048607588 -0.010160000063478947
v 0.017393000423908234 0.0037879999727010727 -0.011021999642252922
v 0.014425000175833702 0.0011810000287368894 -0.009585999883711338
v 0.016188999637961388 0.0018350000027567148 -0.009456999599933624
v 0.014032999984920025 0.0008900000248104334 -0.007861999794840813
v 0.014631999656558037 -0.00016700000560376793 -0.008410999551415443
v 0.01653200015425682 -0.001769999973475933 -0.008022000081837177
v 0.017681000754237175 -0.001547000021673739 -0.007544999942183495
v 0.014360000379383564 0.00021300000662449747 -0.007143000140786171
v 0.010483000427484512 -0.003010000102221966 -0.007544999942183495
v 0.012707999907433987 -0.0044450000859797 -0.0011660000309348106
v 0.016157999634742737 -0.003441999899223447 -0.00203699991106987
v 0.014763999730348587 -0.0036689999978989363 -0.0006130000110715628
v 0.01629599928855896 -0.0035290000960230827 -0.0061690001748502254
v 0.017532000318169594 -0.0044280001893639565 -0.0023789999540895224
v 0.015080999583005905 0.00991200003772974 0.006326999980956316
v 0.016311999410390854 0.009610000066459179 0.006771999876946211
v 0.01773099973797798 0.0088919997215271 0.004871999844908714
v 0.015468000434339046 0.00916299968957901 0.009221999906003475
v 0.016426999121904373 0.0077749998308718204 0.0107829999178648
v 0.01603100076317787 0.008581000380218029 0.009728999808430672
v 0.014615999534726143 0.0076779997907578945 0.012276999652385712
v 0.006707000080496073 0.005663000047206879 0.010559000074863434
v 0.013330000452697277 0.005913999862968922 0.013186000287532806
v 0.011988000012934208 0.006142000202089548 0.01246699970215559
v 0.011316999793052673 0.006008999887853861 0.012199999764561653
v 0.010660000145435333 0.005847000051289797 0.011979999952018261
v 0.0037040000315755606 0.010894999839365482 0.009592000395059586
v 0.0025080000050365925 0.007914000190794468 0.009819000028073788
v 0.003720999928191304 0.0075090001337230206 0.009986000135540962
v 0.004540000110864639 0.006757999770343304 0.010360999964177608
v 0.019076000899076462 0.0019570000004023314 -0.011075999587774277
v 0.01763400062918663 0.001702000037766993 -0.010994999669492245
v 0.018314000219106674 0.0017920000245794654 -0.011122000403702259
v 0.01675100065767765 0.006144999992102385 -0.0009889999637380242
v 0.016008000820875168 0.0061900001019239426 -0.0002390000008745119
v 0.0172520000487566 0.007613999769091606 0.0025599999353289604
v 0.02117599919438362 0.004933000076562166 -0.009967000223696232
v 0.022603999823331833 0.006599000189453363 -0.007259999867528677
v 0.022926000878214836 0.006275999825447798 -0.0077680000104010105
v 0.024135999381542206 0.0075980001129209995 -0.004953000228852034
v 0.023300999775528908 0.00711200013756752 -0.006047000177204609
v 0.02437799982726574 0.00788199994713068 -0.003924000076949596
v 0.024007000029087067 0.00803299993276596 -0.002512000035494566
v 0.018807999789714813 0.007615000009536743 0.001231999951414764
v 0.018616000190377235 0.007385999895632267 0.0005910000181756914
v 0.022210000082850456 0.008217999711632729 0.00216599996201694
v 0.020534999668598175 0.008554999716579914 0.0022279999684542418
v 0.02329999953508377 0.00773600023239851 0.0019970000721514225
v 0.024414999410510063 0.008105999790132046 -0.0005760000203736126
v 0.024217000231146812 0.007526000030338764 0.0020550000481307507
v 0.017765000462532043 0.006901999935507774 0.000299000006634742
v 0.017309000715613365 0.006510999985039234 -0.00021800000104121864
v 0.01614600047469139 0.00798999983817339 0.0034519999753683805
v -0.001572999986819923 0.011750999838113785 0.012268000282347202
v 0.00010900000052060932 0.011432000435888767 0.011416000314056873
v -0.0007529999711550772 0.010707000270485878 0.011985000222921371
v -0.002681999932974577 0.010780000127851963 0.01247899979352951
v -0.013817000202834606 0.0024709999561309814 0.0019310000352561474
v -0.014220000244677067 0.0016039999900385737 0.001740999985486269
v -0.01486700028181076 -0.0008360000210814178 0.0006830000202171504
v -0.012001000344753265 -0.006467000115662813 0.013055000454187393
v -0.014281000010669231 -0.005398999899625778 0.005791000090539455
v -0.015406999737024307 -0.0044570001773536205 0.00008600000001024455
v -0.015318999998271465 -0.001973999897018075 0.00004099999932805076
v 0.0002280000044265762 0.007261999882757664 0.010932999663054943
v -0.004484999924898148 -0.002893999917432666 0.01447100006043911
v -0.011172999627888203 -0.005987000185996294 0.014719000086188316
v 0.0005789999850094318 0.003484999993816018 0.012133000418543816
v -0.00015700000221841037 0.0024429999757558107 0.012853999622166157
v -0.0026499999221414328 0.0004070000140927732 0.01434599980711937
v -0.014845999889075756 -0.0019049999536946416 -0.0031159999780356884
v -0.015924999490380287 -0.0032569998875260353 -0.0018789999885484576
v -0.001344999996945262 -0.004676000215113163 -0.004220000002533197
v 0.0003220000071451068 -0.00558000011369586 -0.004575000144541264
v -0.0053400001488626 -0.0037700000684708357 -0.004708999767899513
v -0.00017600000137463212 -0.005394000094383955 -0.0016449999529868364
v 0.0006600000197067857 -0.009898999705910683 0.007437999825924635
v -0.0022690000478178263 -0.004304999951273203 -0.001281999982893467
v 0.004441000055521727 -0.005305000115185976 0.005477000027894974
v 0.016882000491023064 0.003155000042170286 -0.010947000235319138
v 0.01650100015103817 0.002478000009432435 -0.010223000310361385
v 0.016891999170184135 0.0017450000159442425 -0.010184000246226788
v 0.019307000562548637 -0.00834100041538477 -0.002300000051036477
v 0.019147999584674835 0.00006500000017695129 -0.010645999573171139
v 0.011079000309109688 -0.004782000090926886 0.006936999969184399
v 0.018346000462770462 -0.00647599995136261 -0.00044800000614486635
v 0.016194000840187073 -0.004232000093907118 -0.001193000003695488
v 0.015534999780356884 -0.005504000000655651 0.0016980000073090196
v 0.01595900021493435 -0.005243999883532524 0.0006350000039674342
v 0.016222000122070312 -0.004798999987542629 -0.0005109999910928309
v 0.018225999549031258 -0.0063310000114142895 -0.002638000063598156
v 0.017558999359607697 -0.005090000107884407 -0.0035439999774098396
v 0.022748999297618866 0.005948999896645546 0.007172000128775835
v 0.01789899915456772 0.008957000449299812 0.0055740000680089
v 0.019221000373363495 0.008337000384926796 0.004428999964147806
v 0.018278000876307487 0.0077749998308718204 0.00254100002348423
v 0.017326999455690384 0.007957999594509602 0.0033360000234097242
v 0.017299000173807144 0.006697000004351139 0.011355999857187271
v 0.01432000007480383 0.006463999859988689 0.01318500004708767
v 0.015290999785065651 0.006140000186860561 0.013563999906182289
v 0.006637000013142824 0.004765999969094992 0.010480999946594238
v 0.009623999707400799 0.0053980001248419285 0.011989000253379345
v 0.008492999710142612 0.0050039999186992645 0.011901999823749065
v 0.007379000075161457 0.004251000005751848 0.01089600007981062
v 0.008162000216543674 0.0042409999296069145 0.011363999918103218
v 0.01437199953943491 0.005565000232309103 0.013651999644935131
v 0.013399999588727951 0.004594999831169844 0.013574999757111073
v 0.012600000016391277 0.005530000198632479 0.01306500006467104
v 0.009712000377476215 0.004654999822378159 0.012407000176608562
v 0.012110999785363674 0.004269000142812729 0.013190999627113342
v 0.0020729999523609877 0.007400000002235174 0.009964000433683395
v 0.0042779999785125256 0.0064650001004338264 0.010002000257372856
v 0.020865000784397125 0.0016210000030696392 -0.010298999957740307
v 0.01949400082230568 0.0011080000549554825 -0.010866999626159668
v 0.016648000106215477 0.006347000133246183 -0.0002229999954579398
v 0.018511999398469925 0.007672000210732222 0.0019519999623298645
v 0.02212199941277504 0.002070999937132001 -0.009585999883711338
v 0.024542000144720078 0.0033309999853372574 -0.007034999784082174
v 0.02334499917924404 0.002621999941766262 -0.008364999666810036
v 0.025421999394893646 0.007170000113546848 -0.004641999956220388
v 0.025634000077843666 0.005822999868541956 -0.005413999781012535
v 0.025479000061750412 0.007646000012755394 -0.0036979999858886003
v 0.026267999783158302 0.00798999983817339 -0.0004560000088531524
v 0.021424999460577965 0.00798800028860569 0.0039470000192523
v 0.019742999225854874 0.008298000320792198 0.004877000115811825
v 0.020702999085187912 0.008364999666810036 0.003990999888628721
v 0.02477400004863739 0.006341000087559223 0.005793999880552292
v 0.024814000353217125 0.007763000205159187 0.000826000003144145
v -0.009305000305175781 -0.007921000011265278 0.012703999876976013
v -0.006347000133246183 -0.003674000035971403 -0.002019000006839633
v 0.0015899999998509884 0.006089000031352043 0.01063000038266182
v 0.0012540000025182962 0.004616000223904848 0.011385999619960785
v -0.007933000102639198 -0.006692000199109316 0.01434400025755167
v 0.0004490000137593597 -0.00101500004529953 0.01384000014513731
v -0.0016680000117048621 -0.003836000105366111 0.011397999711334705
v 0.0018050000071525574 0.0035099999513477087 0.011845000088214874
v 0.0026499999221414328 0.0025730000343173742 0.01194700039923191
v 0.0003129999968223274 0.0020550000481307507 0.013013999909162521
v 0.0004569999873638153 0.00013800000306218863 0.014197000302374363
v -0.003766000038012862 -0.003965000156313181 -0.0029319999739527702
v -0.0028359999414533377 -0.008015000261366367 0.010274999774992466
v 0.0064849997870624065 -0.0021869998890906572 0.009956000372767448
v 0.008623999543488026 -0.003441999899223447 0.008558000437915325
v 0.010143999941647053 -0.004370999988168478 0.008093999698758125
v 0.02499699965119362 -0.004184999968856573 -0.00446499977260828
v 0.022154999896883965 -0.005369000136852264 -0.006300999782979488
v 0.019116999581456184 -0.007664000149816275 -0.0013879999751225114
v 0.02027199976146221 -0.008568000048398972 0.0023070001043379307
v 0.0213600005954504 -0.008817000314593315 0.0017399999778717756
v 0.01992099918425083 0.00022600000374950469 -0.010599000379443169
v 0.012238999828696251 -0.005133999977260828 0.00802099984139204
v 0.01488799974322319 -0.006653999909758568 0.007375000044703484
v 0.016377000138163567 -0.007143000140786171 0.005948000121861696
v 0.013650000095367432 -0.005944000091403723 0.007734999991953373
v 0.01656400039792061 -0.007027000188827515 0.004778999835252762
v 0.019595999270677567 -0.007813000120222569 0.0009710000013001263
v 0.01870100013911724 -0.008205999620258808 0.0027199999894946814
v 0.019395999610424042 -0.00814600009471178 0.00229199999012053
v 0.01653200015425682 -0.006682000122964382 0.0028460000175982714
v 0.02041199989616871 0.005617999937385321 0.009685000404715538
v 0.023497000336647034 0.0057669999077916145 0.007319999858736992
v 0.02180900052189827 0.0016629999736323953 0.013109000399708748
v 0.019763000309467316 0.005198999773710966 0.010897999629378319
v 0.018561000004410744 0.004904999863356352 0.01168300025165081
v 0.0178459994494915 0.005229000002145767 0.012008000165224075
v 0.017134999856352806 0.005936000030487776 0.012276999652385712
v 0.01608400046825409 0.005727000068873167 0.013399999588727951
v 0.006616000086069107 0.0020280000753700733 0.01135099958628416
v 0.006134000141173601 0.0045819999650120735 0.010280000045895576
v 0.00532800005748868 0.005504000000655651 0.010022999718785286
v 0.009472999721765518 0.004135999828577042 0.01206899993121624
v 0.009421000257134438 0.003496000077575445 0.011653999797999859
v 0.00747800013050437 0.0011439999798312783 0.011359999887645245
v 0.009492999874055386 0.0025919999461621046 0.01142599992454052
v 0.00826799962669611 0.001962000038474798 0.011265000328421593
v 0.014879000373184681 0.004966000095009804 0.013488000258803368
v 0.013902000151574612 0.0037819999270141125 0.013244000263512135
v 0.018580999225378036 0.0037189999129623175 0.012291000224649906
v 0.010862000286579132 0.0031109999399632215 0.012121000327169895
v 0.012474000453948975 0.003507999936118722 0.01285600010305643
v 0.004050999879837036 0.006124999839812517 0.009620999917387962
v 0.0023900000378489494 0.006773999892175198 0.009933000430464745
v 0.02370000071823597 0.0018660000059753656 -0.007916999980807304
v 0.02539299987256527 0.003831000067293644 -0.005830000154674053
v 0.02640499919652939 0.006479999981820583 -0.0032709999941289425
v 0.026048999279737473 0.006186000071465969 -0.004315999802201986
v 0.026179999113082886 0.004362999927252531 -0.004482999909669161
v 0.02641800045967102 0.005367999896407127 -0.0036510000936686993
v 0.026638999581336975 0.006775999907404184 -0.0023870000150054693
v 0.02685599960386753 0.007027999963611364 -0.0014039999805390835
v 0.025741999968886375 0.0071749999187886715 0.001841000048443675
v 0.026348000392317772 0.006940999999642372 0.0014130000490695238
v 0.027060000225901604 0.006558999884873629 -0.0007820000173524022
v 0.024149000644683838 0.005688000004738569 0.007306999992579222
v 0.025577999651432037 0.005967999808490276 0.005119000095874071
v 0.025622999295592308 0.0066559999249875546 0.0035920001100748777
v 0.0020069999154657125 0.005539000034332275 0.010622000321745872
v 0.0034370000939816236 0.0026229999493807554 0.010955999605357647
v 0.002492000116035342 0.004885000176727772 0.010293000377714634
v 0.0015940000303089619 -0.00120900000911206 0.013119000010192394
v 0.0010369999799877405 -0.0006520000169984996 0.013964000158011913
v 0.0029430000577121973 -0.0014100000262260437 0.012164000421762466
v 0.0038930000737309456 0.0011889999732375145 0.012048999778926373
v 0.0033370000310242176 0.0010100000072270632 0.01324899960309267
v 0.0012700000079348683 0.0014909999445080757 0.013650000095367432
v 0.0026710000820457935 0.0007529999711550772 0.013679999858140945
v 0.0008980000275187194 0.0008820000221021473 0.013919999822974205
v 0.001521000056527555 -0.00008299999899463728 0.013973000459372997
v 0.00970499962568283 -0.0010710000060498714 0.01143299974501133
v 0.007747000083327293 -0.0008360000210814178 0.011370000429451466
v 0.009844999760389328 -0.0015899999998509884 0.011122999712824821
v 0.008766000159084797 -0.0023169999476522207 0.010219000279903412
v 0.0058120000176131725 -0.0010730000212788582 0.011622999794781208
v 0.0034469999372959137 -0.0009040000149980187 0.01255400013178587
v 0.004627999849617481 -0.0010260000126436353 0.012032000347971916
v 0.00773700000718236 -0.0026289999950677156 0.009403999894857407
v 0.008170000277459621 -0.0024850000627338886 0.009835000149905682
v 0.009119999594986439 -0.0031449999660253525 0.0088900001719594
v 0.026971999555826187 0.0003440000000409782 0.00686699990183115
v 0.025097999721765518 -0.007207999937236309 0.004633000120520592
v 0.018912000581622124 -0.008654000237584114 0.003229999914765358
v 0.022537000477313995 -0.008725999854505062 0.005150999873876572
v 0.023847000673413277 -0.008182000368833542 0.005954999942332506
v 0.019899999722838402 -0.00890399981290102 0.0037360000424087048
v 0.012822000309824944 -0.004916999954730272 0.008844999596476555
v 0.014270000159740448 -0.005750999785959721 0.008677000179886818
v 0.016712000593543053 -0.007213999982923269 0.0073529998771846294
v 0.016085000708699226 -0.007141999900341034 0.006831999868154526
v 0.017249999567866325 -0.00761799979954958 0.006180000025779009
v 0.016724999994039536 -0.006934000179171562 0.003823000006377697
v 0.020774999633431435 -0.002561999950557947 0.013766000047326088
v 0.0250489991158247 0.005257999990135431 0.006544000003486872
v 0.017688000574707985 -0.0006389999762177467 0.014485999941825867
v 0.016787000000476837 0.005115999840199947 0.01304600015282631
v 0.004896000027656555 0.0014959999825805426 0.011615999974310398
v 0.004178999923169613 0.002225999953225255 0.010823000222444534
v 0.006639999803155661 0.001534000039100647 0.011599999852478504
v 0.005342000164091587 0.004426999948918819 0.010003999806940556
v 0.004538999870419502 0.0052559999749064445 0.009727999567985535
v 0.01095299981534481 0.002320999978110194 0.011846999637782574
v 0.007961999624967575 0.00009999999747378752 0.011501999571919441
v 0.015894999727606773 0.0010359999723732471 0.012536999769508839
v 0.004377000033855438 0.004126999992877245 0.009833999909460545
v 0.026830000802874565 0.006513000000268221 0.0006539999740198255
v 0.02639799937605858 0.006256999913603067 0.002831999910995364
v 0.02642199955880642 0.005512999836355448 0.004267999902367592
v 0.005154999904334545 0.00045399999362416565 0.012190000154078007
v 0.002971000038087368 -0.0000019999999949504854 0.01358999963849783
v 0.004408999811857939 -0.0001429999974789098 0.012397999875247478
v 0.006961999926716089 0.000014000000192027073 0.011926000006496906
v 0.012265999801456928 -0.0016880000475794077 0.012006999924778938
v 0.011160999536514282 -0.0025259999092668295 0.011068999767303467
v 0.01333099976181984 -0.004664999898523092 0.009639999829232693
v 0.005024999845772982 -0.0006000000284984708 0.012072999961674213
v 0.005472999997437 -0.00031800000579096377 0.011975999921560287
v 0.005888999905437231 0.0006339999963529408 0.01247899979352951
v 0.024292999878525734 -0.004676999989897013 0.010232999920845032
v 0.025110000744462013 -0.006785999983549118 0.006405999884009361
v 0.022971000522375107 -0.00796900037676096 0.0073990002274513245
v 0.019872000440955162 -0.008438000455498695 0.005911000072956085
v 0.019096000120043755 -0.008399000391364098 0.005282999947667122
v 0.014809000305831432 -0.005444999784231186 0.009600000455975533
v 0.018946999683976173 -0.0055069997906684875 0.01220299955457449
v 0.018890000879764557 -0.006771999876946211 0.009712000377476215
v 0.018629999831318855 -0.00773000018671155 0.007323000114411116
v 0.01484800036996603 -0.0015180000336840749 0.013363000005483627
v 0.01485699974000454 -0.00092299998505041 0.013155999593436718
v 0.01742500066757202 -0.004674000199884176 0.012485000304877758
v 0.014058999717235565 -0.0029269999358803034 0.01242200005799532
v 0.01574699953198433 -0.003951000049710274 0.012446999549865723
v 0.02039100043475628 -0.007745999842882156 0.008057000115513802
f 3 2 1
f 1 5 4
f 1 2 6
f 5 1 6
f 8 1 7
f 7 1 4
f 9 3 1
f 8 9 1
f 2 10 6
f 11 2 3
f 11 10 2
f 12 3 9
f 12 11 3
f 4 5 13
f 4 13 14
f 7 4 14
f 15 5 6
f 5 15 13
f 15 6 16
f 17 16 6
f 18 17 6
f 10 18 6
f 9 7 14
f 9 8 7
f 20 9 19
f 20 12 9
f 21 9 14
f 21 19 9
f 18 10 22
f 12 10 11
f 24 23 10
f 25 24 10
f 12 25 10
f 22 10 23
f 26 12 20
f 26 24 12
f 12 24 25
f 27 14 13
f 28 13 15
f 28 27 13
f 29 21 14
f 14 30 29
f 14 32 31
f 14 31 30
f 34 33 14
f 33 35 14
f 35 32 14
f 36 34 14
f 14 27 36
f 28 15 37
f 38 37 15
f 16 38 15
f 38 16 39
f 16 17 18
f 39 16 40
f 40 16 18
f 22 40 18
f 21 41 19
f 42 20 19
f 41 42 19
f 26 20 43
f 42 43 20
f 29 41 21
f 22 23 40
f 23 24 40
f 45 44 24
f 40 24 46
f 24 44 47
f 24 47 46
f 26 48 24
f 49 24 48
f 49 45 24
f 43 50 26
f 48 26 51
f 52 26 50
f 51 26 52
f 28 37 27
f 37 53 27
f 27 54 36
f 27 53 54
f 29 55 41
f 30 55 29
f 30 57 56
f 58 30 56
f 57 30 31
f 59 55 30
f 58 59 30
f 31 32 60
f 57 31 60
f 35 61 32
f 61 60 32
f 33 63 62
f 64 63 33
f 35 33 62
f 34 64 33
f 64 34 36
f 35 60 61
f 60 35 65
f 35 62 66
f 35 66 67
f 67 65 35
f 68 36 54
f 36 68 69
f 36 69 70
f 64 36 70
f 37 38 39
f 72 71 37
f 39 72 37
f 73 37 71
f 53 37 74
f 37 75 74
f 37 73 75
f 39 76 72
f 76 39 40
f 40 46 77
f 76 40 77
f 55 42 41
f 55 43 42
f 79 43 78
f 80 43 79
f 43 80 50
f 78 43 56
f 59 43 55
f 59 56 43
f 82 44 81
f 44 82 47
f 45 83 44
f 84 81 44
f 84 44 85
f 87 86 44
f 85 44 88
f 44 86 88
f 83 87 44
f 49 89 45
f 45 91 90
f 45 92 83
f 90 92 45
f 45 89 91
f 94 93 46
f 47 95 46
f 96 77 46
f 46 93 96
f 97 94 46
f 46 95 97
f 95 47 98
f 82 99 47
f 100 47 99
f 98 47 100
f 101 48 51
f 101 49 48
f 49 101 102
f 102 89 49
f 104 50 103
f 50 104 52
f 80 105 50
f 106 50 105
f 106 107 50
f 108 103 50
f 108 50 107
f 109 102 51
f 101 51 102
f 109 51 52
f 109 52 110
f 104 110 52
f 54 53 68
f 111 53 74
f 111 68 53
f 56 59 58
f 56 57 112
f 78 56 112
f 60 112 57
f 114 60 113
f 60 116 115
f 113 60 117
f 112 60 118
f 115 118 60
f 116 60 114
f 60 65 117
f 119 66 62
f 63 120 62
f 119 62 120
f 63 121 120
f 63 70 121
f 70 63 64
f 117 65 67
f 67 66 122
f 66 119 122
f 67 123 117
f 67 122 123
f 68 111 124
f 68 124 69
f 126 125 69
f 69 125 70
f 126 69 127
f 124 127 69
f 125 121 70
f 76 71 72
f 129 128 71
f 71 76 129
f 131 71 130
f 71 132 130
f 71 128 133
f 73 71 131
f 133 132 71
f 134 73 131
f 134 135 73
f 75 73 135
f 74 75 136
f 111 74 127
f 74 136 137
f 139 138 74
f 140 139 74
f 127 74 138
f 137 141 74
f 141 140 74
f 136 75 135
f 76 77 96
f 93 76 96
f 129 76 93
f 78 112 79
f 112 118 79
f 79 115 80
f 115 79 118
f 142 105 80
f 115 116 80
f 116 142 80
f 84 82 81
f 82 84 85
f 99 82 143
f 85 144 82
f 144 145 82
f 145 143 82
f 83 92 87
f 85 147 146
f 85 146 144
f 147 85 148
f 148 85 88
f 149 86 87
f 149 88 86
f 92 149 87
f 148 88 149
f 102 91 89
f 150 92 90
f 102 90 91
f 102 150 90
f 92 150 149
f 94 129 93
f 129 94 151
f 151 94 97
f 95 98 152
f 97 95 153
f 153 95 154
f 154 95 152
f 151 97 155
f 97 157 156
f 155 97 156
f 159 158 97
f 97 153 160
f 97 160 159
f 97 158 157
f 152 98 100
f 143 161 99
f 100 99 162
f 99 164 163
f 99 163 162
f 99 161 164
f 152 100 162
f 110 102 109
f 102 110 165
f 102 166 150
f 165 166 102
f 167 104 103
f 108 167 103
f 110 104 167
f 168 106 105
f 142 168 105
f 106 169 107
f 106 171 170
f 168 171 106
f 169 106 170
f 173 107 172
f 174 172 107
f 174 107 169
f 108 107 173
f 167 108 175
f 175 108 173
f 167 165 110
f 124 111 127
f 113 177 176
f 177 113 122
f 113 117 123
f 113 123 122
f 113 176 114
f 178 114 176
f 178 116 114
f 179 116 178
f 179 180 116
f 116 180 142
f 119 121 122
f 119 120 121
f 121 125 181
f 121 181 122
f 122 182 177
f 181 183 122
f 122 184 182
f 122 183 184
f 181 125 185
f 185 125 186
f 187 125 126
f 187 186 125
f 127 188 126
f 188 187 126
f 138 188 127
f 129 151 128
f 128 190 189
f 128 151 190
f 128 189 133
f 191 131 130
f 132 191 130
f 191 134 131
f 189 132 133
f 192 191 132
f 192 132 189
f 194 193 134
f 193 135 134
f 195 194 134
f 134 196 195
f 192 134 191
f 192 196 134
f 197 141 135
f 136 135 137
f 137 135 141
f 197 135 193
f 138 198 187
f 138 187 188
f 198 138 139
f 199 139 141
f 198 139 199
f 141 139 140
f 201 141 200
f 194 202 141
f 197 194 141
f 201 199 141
f 200 141 203
f 202 203 141
f 180 168 142
f 143 145 204
f 205 143 204
f 206 143 205
f 143 206 161
f 146 205 144
f 144 205 145
f 145 205 204
f 205 146 207
f 146 147 207
f 209 147 208
f 208 147 210
f 147 209 207
f 210 147 148
f 149 211 148
f 210 148 212
f 212 148 213
f 148 214 213
f 148 215 214
f 215 148 211
f 216 149 150
f 218 149 217
f 218 219 149
f 217 149 216
f 219 211 149
f 166 216 150
f 151 155 220
f 151 221 190
f 151 220 222
f 151 222 221
f 162 154 152
f 160 153 223
f 223 153 154
f 223 154 224
f 225 154 162
f 225 224 154
f 155 156 226
f 155 226 220
f 157 226 156
f 158 227 157
f 157 228 226
f 157 227 228
f 230 158 229
f 232 231 158
f 232 158 159
f 231 229 158
f 230 227 158
f 159 234 233
f 159 236 235
f 159 235 237
f 238 232 159
f 236 159 233
f 160 234 159
f 239 159 237
f 239 238 159
f 241 240 160
f 160 223 241
f 160 240 234
f 206 242 161
f 225 164 161
f 225 161 242
f 225 162 163
f 225 163 164
f 167 243 165
f 165 243 244
f 165 244 166
f 166 217 216
f 166 245 217
f 244 245 166
f 246 243 167
f 175 246 167
f 168 180 247
f 171 168 170
f 247 170 168
f 248 180 169
f 169 180 249
f 169 250 174
f 248 169 247
f 169 251 250
f 169 253 252
f 252 251 169
f 247 169 170
f 249 253 169
f 173 172 254
f 256 255 172
f 172 258 257
f 258 172 259
f 254 172 257
f 172 255 259
f 172 174 256
f 173 246 175
f 173 245 246
f 245 173 254
f 250 256 174
f 176 260 178
f 177 260 176
f 260 177 261
f 261 177 182
f 260 179 178
f 179 253 249
f 180 179 249
f 179 260 261
f 261 253 179
f 247 180 248
f 181 263 262
f 183 181 264
f 264 181 262
f 185 263 181
f 261 182 252
f 184 264 182
f 252 182 264
f 183 264 184
f 185 265 263
f 267 185 266
f 267 265 185
f 266 185 268
f 185 186 268
f 199 186 187
f 186 199 268
f 187 198 199
f 270 189 269
f 270 192 189
f 189 190 269
f 221 269 190
f 270 271 192
f 196 192 271
f 194 197 193
f 194 195 202
f 202 195 272
f 196 272 195
f 221 273 196
f 196 271 221
f 196 273 272
f 199 201 274
f 274 268 199
f 275 200 203
f 275 276 200
f 276 201 200
f 274 201 277
f 277 201 278
f 278 201 279
f 279 201 276
f 280 202 272
f 281 203 202
f 281 202 280
f 203 281 275
f 209 282 205
f 209 205 207
f 282 283 205
f 283 206 205
f 284 206 283
f 284 285 206
f 206 286 242
f 206 285 286
f 208 287 282
f 209 208 282
f 208 210 287
f 289 210 288
f 288 210 212
f 287 210 289
f 211 219 290
f 211 292 291
f 211 291 215
f 293 211 290
f 293 294 211
f 292 211 294
f 212 296 295
f 288 212 295
f 297 296 212
f 213 297 212
f 299 213 298
f 299 297 213
f 214 298 213
f 215 298 214
f 291 298 215
f 217 300 219
f 218 217 219
f 300 217 245
f 300 301 219
f 301 290 219
f 220 226 302
f 303 220 302
f 303 222 220
f 269 221 270
f 270 221 271
f 273 221 222
f 303 273 222
f 223 304 241
f 223 224 304
f 225 304 224
f 225 234 240
f 225 305 234
f 225 240 241
f 225 241 304
f 225 242 286
f 225 285 305
f 225 286 285
f 306 302 226
f 308 226 307
f 308 306 226
f 307 226 228
f 228 227 230
f 228 229 309
f 228 230 229
f 310 307 228
f 309 310 228
f 311 229 231
f 309 229 311
f 232 311 231
f 311 232 312
f 312 232 238
f 233 234 305
f 236 233 305
f 235 282 237
f 235 313 282
f 236 313 235
f 284 314 236
f 313 236 315
f 236 314 315
f 285 284 236
f 236 305 285
f 237 282 316
f 239 237 316
f 317 312 238
f 239 317 238
f 239 316 317
f 243 245 244
f 246 245 243
f 245 254 300
f 250 251 318
f 256 250 318
f 319 251 252
f 251 267 318
f 319 267 251
f 261 252 253
f 319 252 264
f 300 254 320
f 320 254 321
f 257 321 254
f 256 322 255
f 323 259 255
f 323 255 324
f 324 255 322
f 322 256 318
f 257 326 325
f 257 258 327
f 326 257 327
f 257 325 321
f 259 327 258
f 327 259 328
f 328 259 323
f 263 267 262
f 329 262 267
f 329 264 262
f 265 267 263
f 319 264 329
f 330 318 266
f 266 318 267
f 266 268 330
f 319 329 267
f 268 332 331
f 324 330 268
f 268 274 333
f 268 333 332
f 331 324 268
f 272 335 334
f 337 336 272
f 338 272 334
f 273 335 272
f 336 280 272
f 338 337 272
f 339 273 303
f 273 339 335
f 340 333 274
f 274 342 341
f 274 341 343
f 274 343 340
f 342 274 344
f 344 274 277
f 275 280 336
f 345 275 336
f 347 346 275
f 345 347 275
f 275 346 348
f 275 281 280
f 348 279 275
f 279 276 275
f 277 278 348
f 348 344 277
f 348 278 279
f 282 287 349
f 282 350 316
f 282 315 314
f 282 313 315
f 282 314 283
f 351 282 349
f 350 282 351
f 283 314 284
f 287 353 352
f 352 349 287
f 353 287 354
f 354 287 355
f 287 356 355
f 287 289 356
f 288 295 289
f 295 356 289
f 290 357 293
f 357 290 358
f 359 358 290
f 301 359 290
f 292 298 291
f 294 298 292
f 293 357 294
f 294 360 298
f 360 294 361
f 362 294 357
f 294 363 361
f 363 294 364
f 362 364 294
f 356 295 365
f 365 295 296
f 296 297 299
f 296 299 366
f 296 367 365
f 367 296 366
f 299 298 368
f 360 368 298
f 299 368 369
f 366 299 369
f 370 301 300
f 370 300 371
f 371 300 320
f 370 359 301
f 339 303 302
f 306 339 302
f 306 308 372
f 335 339 306
f 335 306 334
f 372 334 306
f 307 310 373
f 372 308 307
f 307 373 334
f 372 307 334
f 374 309 311
f 375 310 309
f 374 375 309
f 310 376 373
f 377 376 310
f 375 377 310
f 379 378 311
f 312 379 311
f 311 378 374
f 312 317 380
f 381 312 380
f 382 379 312
f 381 382 312
f 316 350 383
f 383 384 316
f 385 316 384
f 316 380 317
f 316 385 380
f 318 330 322
f 386 371 320
f 386 320 321
f 325 326 321
f 321 326 387
f 321 388 386
f 388 321 387
f 322 330 324
f 324 389 323
f 323 389 390
f 323 390 328
f 324 331 391
f 324 391 389
f 326 393 392
f 392 387 326
f 327 394 326
f 395 393 326
f 395 326 394
f 396 327 328
f 394 327 396
f 397 328 390
f 397 396 328
f 399 331 398
f 398 331 400
f 400 331 401
f 402 331 399
f 391 331 403
f 404 403 331
f 402 404 331
f 332 405 331
f 405 406 331
f 406 401 331
f 332 333 407
f 407 405 332
f 333 340 407
f 373 376 334
f 334 382 408
f 338 334 409
f 334 408 409
f 334 376 382
f 337 345 336
f 337 347 345
f 347 337 410
f 410 337 338
f 412 411 338
f 412 338 409
f 411 413 338
f 338 413 410
f 407 340 414
f 415 340 343
f 415 414 340
f 415 343 341
f 415 341 416
f 341 417 416
f 342 417 341
f 342 418 417
f 342 344 418
f 344 419 418
f 419 344 348
f 348 346 419
f 419 346 410
f 346 347 410
f 352 351 349
f 383 350 351
f 351 420 408
f 351 421 383
f 422 420 351
f 422 351 367
f 408 421 351
f 353 367 351
f 352 353 351
f 367 353 354
f 367 354 423
f 423 354 355
f 423 355 356
f 365 423 356
f 357 425 424
f 357 358 425
f 426 357 424
f 357 426 362
f 358 359 427
f 358 427 425
f 359 370 428
f 427 359 428
f 368 360 361
f 361 429 368
f 361 363 429
f 430 364 362
f 362 426 430
f 363 398 429
f 398 363 364
f 398 364 430
f 365 367 423
f 367 366 431
f 369 431 366
f 367 431 422
f 368 431 369
f 431 368 429
f 370 432 428
f 432 370 371
f 388 371 386
f 388 432 371
f 374 378 382
f 374 382 377
f 375 374 377
f 376 377 382
f 378 379 382
f 385 381 380
f 434 433 381
f 382 381 433
f 381 385 434
f 382 433 408
f 383 421 384
f 421 435 384
f 434 384 435
f 434 385 384
f 392 436 387
f 436 424 387
f 425 387 424
f 388 387 425
f 388 425 432
f 389 391 403
f 389 403 437
f 389 437 390
f 437 397 390
f 438 392 393
f 436 392 438
f 393 403 438
f 393 437 403
f 395 437 393
f 397 395 394
f 397 394 396
f 437 395 397
f 399 398 430
f 398 400 431
f 398 431 429
f 399 430 439
f 402 399 439
f 440 431 400
f 441 400 401
f 440 400 441
f 441 401 442
f 407 401 406
f 401 407 442
f 443 404 402
f 444 443 402
f 444 402 436
f 436 402 445
f 439 445 402
f 443 403 404
f 438 403 443
f 405 407 406
f 407 414 442
f 408 420 446
f 408 446 447
f 433 435 408
f 435 421 408
f 447 409 408
f 447 412 409
f 419 410 418
f 418 410 413
f 448 411 412
f 448 449 411
f 449 450 411
f 450 413 411
f 448 412 447
f 450 418 413
f 451 442 414
f 415 451 414
f 451 415 452
f 453 452 415
f 453 415 416
f 454 416 449
f 453 416 454
f 417 418 416
f 416 418 450
f 449 416 450
f 422 452 420
f 446 420 452
f 422 456 455
f 457 422 455
f 422 457 452
f 431 456 422
f 424 445 426
f 424 436 445
f 432 425 427
f 430 426 439
f 439 426 445
f 432 427 428
f 456 431 440
f 435 433 434
f 436 438 443
f 444 436 443
f 455 456 440
f 441 458 440
f 455 440 458
f 451 441 442
f 441 459 458
f 451 459 441
f 448 446 452
f 446 448 447
f 452 453 448
f 448 453 460
f 449 448 460
f 449 460 454
f 459 451 457
f 457 451 452
f 453 454 460
f 455 458 459
f 457 455 459
