# Generated by Visualization Toolkit
v -0.017534000799059868 -0.005772999953478575 -0.0016720000421628356
v -0.015336000360548496 -0.0017089999746531248 -0.0050200000405311584
v -0.014888999983668327 -0.004263000097125769 -0.007677000015974045
v -0.015134000219404697 -0.009391999803483486 -0.0064690001308918
v -0.016145000234246254 -0.01116000022739172 -0.000750000006519258
v -0.01689399965107441 -0.008736999705433846 0.0036319999489933252
v -0.017212999984622 -0.00430600019171834 0.005621000193059444
v -0.016408000141382217 -0.0009159999899566174 0.0011399999493733048
v -0.009812000207602978 0.008402000181376934 -0.00903400033712387
v -0.008588000200688839 0.00036299999919719994 -0.016332000494003296
v -0.008108999580144882 -0.002377999946475029 -0.019176000729203224
v -0.008155999705195427 -0.0103150000795722 -0.019209999591112137
v -0.00950899999588728 -0.01384000014513731 -0.01159099955111742
v -0.011753000319004059 -0.011068999767303467 0.0013500000350177288
v -0.012790000066161156 -0.0044639999978244305 0.007534999866038561
v -0.013199999928474426 0.0009030000073835254 0.010083000175654888
v -0.01183400023728609 0.00648899981752038 0.002471999963745475
v -0.0024029999040067196 0.009072000160813332 -0.015097999945282936
v -0.0018189999973401427 0.00595800019800663 -0.018557999283075333
v -0.0018489999929443002 0.0007089999853633344 -0.01858000084757805
v -0.00145800004247576 -0.00790799967944622 -0.02114100009202957
v -0.002951999893411994 -0.009809999726712704 -0.012652999721467495
v -0.003984000068157911 -0.009891999885439873 -0.006742999888956547
v -0.005342999938875437 -0.00635500019416213 0.0011530000483617187
v -0.006901999935507774 -0.002759000053629279 0.010219000279903412
v -0.007451000157743692 -0.000893999997060746 0.013429000042378902
v -0.007311999797821045 0.002795000094920397 0.012765999883413315
v -0.006053000222891569 0.006568000186234713 0.005702999886125326
v -0.004040000028908253 0.008542000316083431 -0.005741000175476074
v 0.004224000032991171 0.01054100040346384 -0.016662999987602234
v 0.004404000006616116 0.008107000030577183 -0.017781000584363937
v 0.004364999942481518 0.0013569999719038606 -0.017810000106692314
v 0.004701000172644854 -0.003949000034481287 -0.01992500014603138
v 0.004377000033855438 -0.007953999564051628 -0.018218999728560448
v 0.0024900001008063555 -0.006676000077277422 -0.00737700005993247
v 0.001319000031799078 -0.004635999910533428 -0.0005959999980404973
v 0.000019999999494757503 -0.008159000426530838 0.0067159999161958694
v -0.00108299998100847 -0.009116999804973602 0.012990999966859818
v -0.0013200000394135714 -0.007122000213712454 0.014415999874472618
v -0.0008789999992586672 -0.0016139999497681856 0.01209999993443489
v -0.0011129999766126275 0.006380999926477671 0.0137339998036623
v -0.0009640000062063336 0.011757999658584595 0.013079999946057796
v -0.0002840000088326633 0.0122079998254776 0.009202999994158745
v 0.0010969999711960554 0.009358000010251999 0.0011859999503940344
v 0.0027860000263899565 0.00926399976015091 -0.00848000030964613
v 0.010816000401973724 0.01319700013846159 -0.017976999282836914
v 0.011067000217735767 0.008326999843120575 -0.019596999511122704
v 0.010820000432431698 0.0010110000148415565 -0.018458999693393707
v 0.009789999574422836 -0.0007580000092275441 -0.012617000378668308
v 0.008875000290572643 -0.006587000098079443 -0.007592999842017889
v 0.00812199991196394 -0.008225999772548676 -0.0033519999124109745
v 0.006424999795854092 -0.009819000028073788 0.006306999828666449
v 0.004807999823242426 -0.016224000602960587 0.015331000089645386
v 0.0040270001627504826 -0.013425000011920929 0.019897999241948128
v 0.003969000186771154 -0.008551999926567078 0.020409999415278435
v 0.004586999770253897 -0.00216599996201694 0.017111999914050102
v 0.004393000155687332 0.005266000051051378 0.018498999997973442
v 0.00455900002270937 0.013894000090658665 0.01785999909043312
v 0.006297000218182802 0.013113000430166721 0.007880999706685543
v 0.00784400012344122 0.010954000055789948 -0.001053999993018806
v 0.009371999651193619 0.012608000077307224 -0.009728999808430672
v 0.016814999282360077 0.00990500021725893 -0.01611500047147274
v 0.0173530001193285 0.006289999932050705 -0.01933100074529648
v 0.017450999468564987 -0.0008950000046752393 -0.020161999389529228
v 0.01613599993288517 -0.00710600009188056 -0.012861000373959541
v 0.015589999966323376 -0.010240999981760979 -0.009858000092208385
v 0.014124000445008278 -0.007267999928444624 -0.0013500000350177288
v 0.012082000263035297 -0.006680999882519245 0.010351999662816525
v 0.011013999581336975 -0.007763000205159187 0.016441000625491142
v 0.011146999895572662 -0.005011000204831362 0.015775000676512718
v 0.01143100019544363 -0.002193999942392111 0.014248999767005444
v 0.011222999542951584 0.0008650000090710819 0.015553999692201614
v 0.01097899954766035 0.007108999881893396 0.01718199998140335
v 0.011171000078320503 0.012550000101327896 0.016280999407172203
v 0.011494000442326069 0.012555000372231007 0.014433999545872211
v 0.013559999875724316 0.01065600011497736 0.0025430000387132168
v 0.02274399995803833 0.006111000198870897 -0.01388499978929758
v 0.023483000695705414 -0.002124000107869506 -0.018414000049233437
v 0.02341499924659729 -0.006312999874353409 -0.018185999244451523
v 0.022779999300837517 -0.00838600005954504 -0.01462399959564209
v 0.022242000326514244 -0.008646000176668167 -0.011547000147402287
v 0.021712999790906906 -0.0107810003682971 -0.00860000029206276
v 0.020847000181674957 -0.009610000066459179 -0.003607999999076128
v 0.01854100078344345 -0.006527000106871128 0.009704000316560268
v 0.018139999359846115 -0.007222000043839216 0.011978999711573124
v 0.017952000722289085 -0.004538999870419502 0.013159000314772129
v 0.018188999965786934 -0.002471999963745475 0.011876000091433525
v 0.018252000212669373 0.0031530000269412994 0.011714999563992023
v 0.018275000154972076 0.006965000182390213 0.011730000376701355
v 0.01888200081884861 0.007664999924600124 0.00828499998897314
v 0.020858999341726303 0.007387999910861254 -0.003043999895453453
v 0.022406000643968582 0.0071669998578727245 -0.01191100012511015
v 0.02856599912047386 0.003877999959513545 -0.01097199972718954
v 0.027208000421524048 -0.004271000158041716 -0.003496000077575445
v 0.024664999917149544 -0.0010689999908208847 0.01117200031876564
v 0.025728000327944756 0.0024510000366717577 0.00521400012075901
v 0.0263069998472929 0.005710000172257423 0.0020260000601410866
v 0.028606999665498734 -0.002346999943256378 -0.0023560000117868185
v 0.02717299945652485 -0.0009360000258311629 0.005898999981582165
f 2 3 1
f 3 4 1
f 4 5 1
f 5 6 1
f 6 7 1
f 7 8 1
f 8 2 1
f 9 10 2
f 10 3 2
f 10 11 3
f 11 4 3
f 11 12 4
f 12 13 4
f 13 5 4
f 13 14 5
f 14 6 5
f 14 15 6
f 15 7 6
f 15 16 7
f 16 17 7
f 17 8 7
f 17 9 8
f 9 2 8
f 18 19 9
f 19 10 9
f 19 20 10
f 20 11 10
f 20 12 11
f 20 21 12
f 21 13 12
f 21 22 13
f 22 23 13
f 23 14 13
f 23 24 14
f 24 25 14
f 25 15 14
f 25 26 15
f 26 16 15
f 26 27 16
f 27 28 16
f 28 17 16
f 28 29 17
f 29 9 17
f 29 18 9
f 30 19 18
f 30 31 19
f 31 20 19
f 31 32 20
f 32 33 20
f 33 21 20
f 33 34 21
f 34 22 21
f 34 35 22
f 35 23 22
f 35 36 23
f 36 24 23
f 36 37 24
f 37 25 24
f 37 38 25
f 38 39 25
f 39 40 25
f 40 26 25
f 40 41 26
f 41 27 26
f 41 28 27
f 41 42 28
f 42 43 28
f 43 44 28
f 44 29 28
f 44 45 29
f 45 18 29
f 45 30 18
f 46 47 30
f 47 31 30
f 47 48 31
f 48 32 31
f 48 49 32
f 49 50 32
f 50 33 32
f 50 34 33
f 50 35 34
f 50 51 35
f 51 36 35
f 51 52 36
f 52 37 36
f 52 53 37
f 53 38 37
f 53 54 38
f 54 39 38
f 54 55 39
f 55 40 39
f 55 56 40
f 56 41 40
f 56 57 41
f 57 42 41
f 57 58 42
f 58 43 42
f 58 59 43
f 59 44 43
f 59 60 44
f 60 45 44
f 60 61 45
f 61 30 45
f 61 46 30
f 62 47 46
f 62 63 47
f 63 48 47
f 63 64 48
f 64 49 48
f 64 50 49
f 64 65 50
f 65 51 50
f 65 66 51
f 66 67 51
f 67 52 51
f 67 68 52
f 68 53 52
f 68 69 53
f 69 54 53
f 69 70 54
f 70 55 54
f 70 71 55
f 71 56 55
f 71 72 56
f 72 57 56
f 72 73 57
f 73 58 57
f 73 74 58
f 74 75 58
f 75 59 58
f 75 76 59
f 76 60 59
f 76 62 60
f 62 61 60
f 62 46 61
f 77 63 62
f 77 78 63
f 78 64 63
f 78 79 64
f 79 65 64
f 79 80 65
f 80 81 65
f 81 66 65
f 81 82 66
f 82 83 66
f 83 67 66
f 83 68 67
f 83 84 68
f 84 85 68
f 85 69 68
f 85 70 69
f 85 86 70
f 86 71 70
f 86 87 71
f 87 72 71
f 87 88 72
f 88 73 72
f 88 89 73
f 89 74 73
f 89 75 74
f 89 90 75
f 90 76 75
f 90 91 76
f 91 62 76
f 91 92 62
f 92 77 62
f 93 78 77
f 93 79 78
f 93 94 79
f 94 80 79
f 94 81 80
f 94 82 81
f 94 83 82
f 94 95 83
f 95 84 83
f 95 85 84
f 95 86 85
f 95 87 86
f 95 96 87
f 96 88 87
f 96 89 88
f 96 90 89
f 96 97 90
f 97 91 90
f 97 92 91
f 97 93 92
f 93 77 92
f 98 94 93
f 98 95 94
f 98 99 95
f 99 96 95
f 99 97 96
f 99 93 97
f 99 98 93
