# Generated by Visualization Toolkit
v 0.09788099676370621 0.028891000896692276 0.004987000022083521
v 0.09624800086021423 0.028286000713706017 0.0051750000566244125
v 0.09669899940490723 0.026870999485254288 0.00747800013050437
v 0.09740699827671051 0.027728000655770302 0.006364999804645777
v 0.09869199991226196 0.02980400063097477 0.0028379999566823244
v 0.0956140011548996 0.02718699909746647 0.006630000192672014
v 0.09677299857139587 0.02943499945104122 -0.0006900000153109431
v 0.09514600038528442 0.02818099968135357 0.004652999807149172
v 0.09372500330209732 0.02972700074315071 -0.0011109999613836408
v 0.09583000093698502 0.025887999683618546 0.008275999687612057
v 0.09585999697446823 0.025359999388456345 0.008496000431478024
v 0.09673099964857101 0.026298999786376953 0.007675999775528908
v 0.0981760025024414 0.027915000915527344 0.005055000074207783
v 0.09865199774503708 0.028429999947547913 0.003548000007867813
v 0.09869100153446198 0.03002000041306019 0.0008200000156648457
v 0.0990459993481636 0.02885499969124794 0.002050000010058284
v 0.09906399995088577 0.02895200066268444 0.0009580000187270343
v 0.08957300335168839 0.028362000361084938 0.0022090000566095114
v 0.09519600123167038 0.029299000278115273 -0.0010979999788105488
v 0.09790199995040894 0.02922699972987175 -0.00035700001171790063
v 0.09539800137281418 0.01727600023150444 -0.00072900002123788
v 0.08977700024843216 0.01982799917459488 -0.002824000082910061
v 0.09036800265312195 0.02932400070130825 0.0012809999752789736
v 0.09067799896001816 0.030810000374913216 -0.0015450000064447522
v 0.09258399903774261 0.029903000220656395 -0.0028250000905245543
v 0.09316500276327133 0.029570000246167183 -0.002199999988079071
v 0.09368900209665298 0.029131999239325523 -0.001601999974809587
v 0.08597999811172485 0.02403300069272518 0.006448000203818083
v 0.09324199706315994 0.02180200070142746 0.009158999659121037
v 0.09498000144958496 0.024372000247240067 0.009192000143229961
v 0.09468299895524979 0.023090999573469162 0.008520999923348427
v 0.09433499723672867 0.02163200080394745 0.007675000000745058
v 0.09889700263738632 0.029023999348282814 0.00002099999983329326
v 0.08499900251626968 0.031631000339984894 -0.0016929999692365527
v 0.08850599825382233 0.029776999726891518 0.0006290000164881349
v 0.09401299804449081 0.01998399943113327 0.006657000165432692
v 0.09376200288534164 0.014090999960899353 -0.00007200000254670158
v 0.09373699873685837 0.015282000415027142 -0.002638000063598156
v 0.09424199908971786 0.014751000329852104 -0.0010779999429360032
v 0.09427999705076218 0.014968999661505222 -0.0022219999227672815
v 0.0904180034995079 0.01574300043284893 -0.0037950000260025263
v 0.08928199857473373 0.016922999173402786 -0.004246999975293875
v 0.0931439995765686 0.015514000318944454 -0.002788000041618943
v 0.09231600165367126 0.01582000032067299 -0.0029800001066178083
v 0.08782800287008286 0.020684000104665756 -0.005243000108748674
v 0.09093599766492844 0.030003000050783157 -0.0052640000358223915
v 0.09267199784517288 0.02958899922668934 -0.0033289999701082706
v 0.08574000000953674 0.03293599933385849 -0.0065379999577999115
v 0.09111600369215012 0.030722999945282936 -0.0041229999624192715
v 0.08923400193452835 0.03143399953842163 -0.006182999815791845
v 0.08855699747800827 0.02181199938058853 0.006907999981194735
v 0.09130199998617172 0.021031999960541725 0.007829000242054462
v 0.08229000121355057 0.026311000809073448 0.004569000098854303
v 0.09231500327587128 0.020910000428557396 0.008330999873578548
v 0.08564499765634537 0.02177100069820881 0.0053079999051988125
v 0.08399400115013123 0.022756999358534813 0.004339999984949827
v 0.09311699867248535 0.02112000063061714 0.008754000067710876
v 0.092958003282547 0.020301999524235725 0.008165000006556511
v 0.09365200251340866 0.020952999591827393 0.00798300001770258
v 0.09343399852514267 0.019627999514341354 0.006825000047683716
v 0.07699599862098694 0.02723800018429756 0.00026699999580159783
v 0.08055199682712555 0.0310479998588562 -0.003834000090137124
v 0.08412499725818634 0.03248399868607521 -0.006500000134110451
v 0.09290099889039993 0.01394800003618002 0.0023789999540895224
v 0.09307300299406052 0.013722999952733517 0.0015160000184550881
v 0.09118200093507767 0.013372999615967274 0.0032850001007318497
v 0.09256599843502045 0.01779399998486042 0.0058280001394450665
v 0.09240200370550156 0.01371499989181757 0.00291600008495152
v 0.09387599676847458 0.014294000342488289 -0.0012619999470189214
v 0.09343799948692322 0.01375299971550703 -0.00027799999224953353
v 0.09312000125646591 0.013546000234782696 0.0004450000124052167
v 0.09395299851894379 0.01448300015181303 -0.0023070001043379307
v 0.09313300251960754 0.014096999540925026 -0.002985999919474125
v 0.09196499735116959 0.015244999900460243 -0.0032130000181496143
v 0.0916069969534874 0.014770000241696835 -0.003298999974504113
v 0.09020499885082245 0.014042999595403671 -0.0028150000143796206
v 0.08961799740791321 0.015429999679327011 -0.0036720000207424164
v 0.08853299915790558 0.016188999637961388 -0.0042489999905228615
v 0.08444499969482422 0.017457999289035797 -0.006502999924123287
v 0.08782599866390228 0.018038000911474228 -0.005799999926239252
v 0.08404699712991714 0.027608999982476234 -0.006422999780625105
v 0.08577500283718109 0.028439000248908997 -0.006887999828904867
v 0.08900900185108185 0.030981000512838364 -0.006690999958664179
v 0.09112299978733063 0.03045699931681156 -0.004747000057250261
v 0.08707399666309357 0.03170299902558327 -0.007207999937236309
v 0.08524899929761887 0.032283999025821686 -0.007447999902069569
v 0.09216900169849396 0.020121999084949493 0.007757000159472227
v 0.08272799849510193 0.022290999069809914 0.0024170000106096268
v 0.08010400086641312 0.023486999794840813 0.001025000005029142
v 0.08715199679136276 0.015607999637722969 -0.001243000035174191
v 0.08588799834251404 0.015633000060915947 -0.0025790000800043344
v 0.08470100164413452 0.015704000368714333 -0.00369199994020164
v 0.09054400026798248 0.015703000128269196 0.003103999886661768
v 0.08184300363063812 0.016693999990820885 -0.004863000009208918
v 0.07631800323724747 0.027135999873280525 -0.0010400000028312206
v 0.07798600196838379 0.024330999702215195 -0.0004180000105407089
v 0.07776100188493729 0.024406999349594116 -0.0013749999925494194
v 0.08017300069332123 0.030834000557661057 -0.004317000042647123
v 0.07754500210285187 0.028881000354886055 -0.003131000092253089
v 0.08144400268793106 0.03150000050663948 -0.005053000058978796
v 0.08250000327825546 0.03169900178909302 -0.006047999951988459
v 0.08385500311851501 0.032047998160123825 -0.006785999983549118
v 0.091669000685215 0.01308399997651577 0.0026519999373704195
v 0.09267599880695343 0.013505999930202961 0.0019809999503195286
v 0.09278000146150589 0.01335499994456768 0.0011749999830499291
v 0.0910160019993782 0.012586000375449657 0.002314999932423234
v 0.08983399718999863 0.013822999782860279 0.002491000108420849
v 0.09203899651765823 0.012981999665498734 -0.0016509999986737967
v 0.09148699790239334 0.012741000391542912 0.0022070000413805246
v 0.08838199824094772 0.014426999725401402 -0.00228899996727705
v 0.0886949971318245 0.014608999714255333 -0.0027020000852644444
v 0.08916199952363968 0.014879999682307243 -0.0034030000679194927
v 0.08380100131034851 0.016256000846624374 -0.0044570001773536205
v 0.08731500059366226 0.015003999695181847 -0.0028639999218285084
v 0.08101700246334076 0.017361000180244446 -0.006337999831885099
v 0.08241099864244461 0.019456999376416206 -0.007841000333428383
v 0.08362899720668793 0.019026000052690506 -0.007627000100910664
v 0.07744999974966049 0.02545499987900257 -0.003713000100106001
v 0.07965900003910065 0.027960000559687614 -0.0045380000956356525
v 0.07979899644851685 0.029252000153064728 -0.004567999858409166
v 0.077844999730587 0.02321299910545349 -0.0021520000882446766
v 0.07895199954509735 0.02092299982905388 -0.004925999790430069
v 0.07945899665355682 0.018059000372886658 -0.006246000062674284
v 0.07910600304603577 0.019213000312447548 -0.005683000199496746
v 0.08717700093984604 0.01512799970805645 -0.0018179999897256494
v 0.08855299651622772 0.01472300011664629 0.0006259999936446548
v 0.08596599847078323 0.015262000262737274 -0.0030960000585764647
v 0.0771780014038086 0.024305999279022217 -0.002560999942943454
v 0.07687000185251236 0.02477099932730198 -0.003235999960452318
v 0.07766000181436539 0.026660999283194542 -0.0032840000931173563
v 0.07758700102567673 0.02780899964272976 -0.00318100000731647
v 0.07788000255823135 0.02323799952864647 -0.0029589999467134476
v 0.07993000000715256 0.030445000156760216 -0.0045900000259280205
v 0.07857900112867355 0.02850699983537197 -0.0038739999290555716
v 0.09002099931240082 0.012555000372231007 0.0015109999803826213
v 0.09062100201845169 0.012481999583542347 0.0018159999744966626
v 0.08920300006866455 0.013508999720215797 0.0009970000246539712
v 0.08811700344085693 0.014275000430643559 -0.0018779999809339643
v 0.08802399784326553 0.014063999988138676 -0.0013539999490603805
v 0.08937899768352509 0.01295899972319603 0.0008699999889358878
v 0.08720000088214874 0.014790999703109264 -0.0024059999268501997
v 0.0811460018157959 0.017867999151349068 -0.006670000031590462
v 0.07730399817228317 0.024212000891566277 -0.004162000026553869
v 0.07938399910926819 0.019665999338030815 -0.006231000181287527
v 0.07966099679470062 0.01869799941778183 -0.006157999858260155
v 0.07834000140428543 0.021341999992728233 -0.005446999799460173
f 1 2 3
f 1 3 4
f 1 5 2
f 6 3 2
f 7 2 5
f 8 2 9
f 7 9 2
f 6 2 8
f 3 6 10
f 11 12 3
f 11 3 10
f 4 3 12
f 12 1 4
f 13 14 1
f 14 5 1
f 12 13 1
f 7 5 15
f 5 16 17
f 5 17 15
f 14 16 5
f 6 18 10
f 18 6 8
f 19 9 7
f 15 20 7
f 21 22 7
f 22 19 7
f 7 20 21
f 9 23 8
f 23 18 8
f 24 23 9
f 9 25 24
f 25 9 26
f 26 9 27
f 19 27 9
f 10 18 28
f 28 29 10
f 29 30 10
f 30 11 10
f 31 11 30
f 32 12 11
f 32 11 31
f 13 12 32
f 32 14 13
f 32 16 14
f 15 17 33
f 15 33 20
f 21 17 16
f 21 16 32
f 21 33 17
f 18 34 28
f 34 18 35
f 23 35 18
f 22 27 19
f 20 33 21
f 36 37 21
f 21 32 36
f 21 38 22
f 21 39 40
f 37 39 21
f 40 38 21
f 22 41 42
f 22 43 44
f 45 46 22
f 44 41 22
f 22 42 45
f 22 47 27
f 46 47 22
f 38 43 22
f 23 24 35
f 34 35 24
f 48 34 24
f 49 50 24
f 25 49 24
f 24 50 48
f 26 47 25
f 49 25 47
f 27 47 26
f 51 52 28
f 53 28 34
f 54 29 28
f 54 28 52
f 55 51 28
f 56 55 28
f 53 56 28
f 57 30 29
f 57 29 54
f 58 30 57
f 58 59 30
f 59 31 30
f 59 32 31
f 32 60 36
f 32 59 60
f 61 53 34
f 62 61 34
f 62 34 63
f 63 34 48
f 36 64 65
f 66 36 67
f 60 67 36
f 36 68 64
f 36 65 37
f 36 66 68
f 69 37 70
f 71 70 37
f 71 37 65
f 39 37 69
f 38 72 73
f 43 38 73
f 40 39 69
f 69 72 40
f 38 40 72
f 74 75 41
f 41 75 76
f 41 76 77
f 44 74 41
f 42 41 77
f 77 78 42
f 79 80 42
f 79 42 78
f 45 42 80
f 44 43 73
f 44 73 74
f 80 81 45
f 46 45 82
f 81 82 45
f 46 83 50
f 47 46 84
f 46 50 84
f 82 83 46
f 49 47 84
f 85 86 48
f 48 86 63
f 48 50 85
f 50 49 84
f 85 50 83
f 55 87 51
f 87 52 51
f 87 54 52
f 56 53 88
f 53 89 88
f 61 89 53
f 57 54 87
f 90 55 91
f 55 92 91
f 87 55 93
f 93 55 90
f 55 56 88
f 55 94 92
f 55 88 94
f 58 57 87
f 59 58 67
f 58 87 67
f 59 67 60
f 95 61 62
f 89 61 96
f 61 97 96
f 61 95 97
f 98 99 62
f 62 99 95
f 62 63 100
f 100 98 62
f 100 63 101
f 102 101 63
f 86 102 63
f 64 68 103
f 64 103 104
f 65 64 104
f 105 65 104
f 105 71 65
f 103 66 106
f 66 67 93
f 66 107 106
f 68 66 103
f 107 66 93
f 87 93 67
f 70 72 69
f 70 71 108
f 72 70 108
f 71 105 109
f 71 109 108
f 72 108 73
f 76 73 108
f 76 75 73
f 73 75 74
f 76 110 111
f 76 111 112
f 110 76 108
f 76 112 77
f 112 78 77
f 112 79 78
f 112 111 79
f 113 94 79
f 92 79 114
f 115 79 94
f 79 116 117
f 115 116 79
f 110 114 79
f 110 79 111
f 113 79 92
f 117 80 79
f 117 81 80
f 116 118 81
f 102 82 81
f 119 120 81
f 119 81 118
f 120 102 81
f 81 117 116
f 82 102 86
f 82 86 85
f 82 85 83
f 88 121 122
f 88 123 94
f 88 124 123
f 89 121 88
f 122 124 88
f 89 96 121
f 91 125 90
f 126 90 125
f 90 126 93
f 92 127 91
f 127 125 91
f 92 94 113
f 93 126 107
f 123 115 94
f 95 128 97
f 95 129 128
f 95 130 118
f 95 118 129
f 130 95 131
f 95 99 131
f 97 121 96
f 97 128 132
f 97 132 121
f 133 99 98
f 133 98 100
f 134 131 99
f 134 99 133
f 101 133 100
f 120 133 101
f 102 120 101
f 104 103 109
f 106 109 103
f 109 105 104
f 107 135 106
f 106 136 109
f 135 136 106
f 137 107 126
f 135 107 137
f 135 108 109
f 135 110 108
f 136 135 109
f 138 110 139
f 139 110 140
f 140 110 135
f 138 114 110
f 127 92 114
f 114 139 141
f 138 139 114
f 141 127 114
f 115 142 116
f 115 123 142
f 116 143 118
f 144 116 145
f 142 145 116
f 143 116 146
f 146 116 144
f 129 118 143
f 130 119 118
f 119 134 120
f 119 130 134
f 134 133 120
f 122 121 132
f 122 146 144
f 122 132 146
f 122 144 124
f 145 123 124
f 142 123 145
f 124 144 145
f 126 125 141
f 127 141 125
f 139 126 141
f 137 126 139
f 128 143 132
f 129 143 128
f 130 131 134
f 146 132 143
f 135 137 140
f 140 137 139
