# Generated by Visualization Toolkit
v -0.03967300057411194 0.33364400267601013 0.00002300000051036477
v -0.04028899967670441 0.3340330123901367 0.0076430002227425575
v -0.052014999091625214 0.3358420133590698 0.000003000000106112566
v -0.038642000406980515 0.33741000294685364 0.00916799996048212
v -0.038736000657081604 0.3348950147628784 0.00002499999936844688
v -0.04028899967670441 0.3340330123901367 -0.0076430002227425575
v -0.038642000406980515 0.33741000294685364 -0.00916799996048212
v -0.04394400119781494 0.3351989984512329 0.015572000294923782
v -0.04988899827003479 0.33647701144218445 0.019429000094532967
v -0.06314700096845627 0.3370699882507324 0.004596000071614981
v -0.06323199719190598 0.33734598755836487 0.000003000000106112566
v -0.06344600021839142 0.33735400438308716 0.013527999632060528
v -0.059386998414993286 0.3378629982471466 0.019533000886440277
v -0.04394400119781494 0.3351989984512329 -0.015572000294923782
v -0.04988899827003479 0.33647701144218445 -0.019429000094532967
v -0.06314700096845627 0.3370699882507324 -0.004596000071614981
v -0.06344600021839142 0.33735400438308716 -0.013527999632060528
v -0.059386998414993286 0.3378629982471466 -0.019533000886440277
v -0.03878200054168701 0.3391219973564148 0.00002499999936844688
v -0.039907000958919525 0.3397670090198517 0.009816000238060951
v -0.043196000158786774 0.3390350043773651 0.01654299907386303
v -0.039907000958919525 0.3397670090198517 -0.009816000238060951
v -0.043196000158786774 0.3390350043773651 -0.01654299907386303
v -0.05026699975132942 0.34105899930000305 0.020093999803066254
v -0.06616900116205215 0.34075498580932617 0.004730000160634518
v -0.06615299731492996 0.3406350016593933 0.000003000000106112566
v -0.06616900116205215 0.34075498580932617 -0.004730000160634518
v -0.059891000390052795 0.34284600615501404 0.020237000659108162
v -0.06600300222635269 0.33838900923728943 0.015192000195384026
v -0.06684199720621109 0.34220099449157715 0.008988999761641026
v -0.05026699975132942 0.34105899930000305 -0.020093999803066254
v -0.06600300222635269 0.33838900923728943 -0.015192000195384026
v -0.059891000390052795 0.34284600615501404 -0.020237000659108162
v -0.06684199720621109 0.34220099449157715 -0.008988999761641026
v -0.03741699829697609 0.34769898653030396 0.000028000000384054147
v -0.03879899904131889 0.34700900316238403 0.009472999721765518
v -0.044527001678943634 0.3419150114059448 0.016131000593304634
v -0.03879899904131889 0.34700900316238403 -0.009472999721765518
v -0.044527001678943634 0.3419150114059448 -0.016131000593304634
v -0.04986099898815155 0.34483298659324646 0.018279999494552612
v -0.06510800123214722 0.34714800119400024 0.0060640000738203526
v -0.06466300040483475 0.34707701206207275 0.000004999999873689376
v -0.06510800123214722 0.34714800119400024 -0.0060640000738203526
v -0.05935699865221977 0.346109002828598 0.01915300078690052
v -0.06422699987888336 0.3457300066947937 0.0181099995970726
v -0.0666939988732338 0.34800899028778076 0.009274999611079693
v -0.04986099898815155 0.34483298659324646 -0.018279999494552612
v -0.06422699987888336 0.3457300066947937 -0.0181099995970726
v -0.05935699865221977 0.346109002828598 -0.01915300078690052
v -0.0666939988732338 0.34800899028778076 -0.009274999611079693
v -0.03646999970078468 0.3510049879550934 0.000029000000722589903
v -0.037066999822854996 0.35078200697898865 0.010479000397026539
v -0.04394000023603439 0.3486410081386566 0.01675100065767765
v -0.037066999822854996 0.35078200697898865 -0.010479000397026539
v -0.04394000023603439 0.3486410081386566 -0.01675100065767765
v -0.04829400032758713 0.34973999857902527 0.01836399920284748
v -0.06494700163602829 0.35620999336242676 0.006266999989748001
v -0.06406500190496445 0.3552060127258301 0.009697999805212021
v -0.06428699940443039 0.35615500807762146 0.000007000000096013537
v -0.06494700163602829 0.35620999336242676 -0.006266999989748001
v -0.06406500190496445 0.3552060127258301 -0.009697999805212021
v -0.057245999574661255 0.35211101174354553 0.019291000440716743
v -0.06136099994182587 0.35392698645591736 0.019665999338030815
v -0.06970000267028809 0.3465830087661743 0.016315000131726265
v -0.0668409988284111 0.348457008600235 0.020003000274300575
v -0.06717900186777115 0.35509899258613586 0.023917999118566513
v -0.07391700148582458 0.3512040078639984 0.0035600000992417336
v -0.04829400032758713 0.34973999857902527 -0.01836399920284748
v -0.06136099994182587 0.35392698645591736 -0.019665999338030815
v -0.057245999574661255 0.35211101174354553 -0.019291000440716743
v -0.0668409988284111 0.348457008600235 -0.020003000274300575
v -0.06970000267028809 0.3465830087661743 -0.016315000131726265
v -0.06717900186777115 0.35509899258613586 -0.023917999118566513
v -0.07391700148582458 0.3512040078639984 -0.0035600000992417336
v -0.0360650010406971 0.3548470139503479 0.000029000000722589903
v -0.03683700039982796 0.3548089861869812 0.010672000236809254
v -0.04175199940800667 0.3514940142631531 0.01773099973797798
v -0.03683700039982796 0.3548089861869812 -0.010672000236809254
v -0.04175199940800667 0.3514940142631531 -0.01773099973797798
v -0.04727400094270706 0.3522840142250061 0.020305000245571136
v -0.06195199862122536 0.36076799035072327 0.007988999597728252
v -0.0628340020775795 0.35944101214408875 0.010413000360131264
v -0.06058799847960472 0.3596409857273102 0.000009000000318337698
v -0.06195199862122536 0.36076799035072327 -0.007988999597728252
v -0.0628340020775795 0.35944101214408875 -0.010413000360131264
v -0.054763998836278915 0.3553510010242462 0.02128399908542633
v -0.061723001301288605 0.3578900098800659 0.01900400035083294
v -0.06458500027656555 0.3584589958190918 0.01904899999499321
v -0.07632800191640854 0.3549480140209198 0.022079000249505043
v -0.07521799951791763 0.3510020077228546 0.016409000381827354
v -0.07337699830532074 0.34522899985313416 0.02361699938774109
v -0.07178600132465363 0.3446730077266693 0.01005600020289421
v -0.07172299921512604 0.35301101207733154 0.022714000195264816
v -0.07405500113964081 0.34727999567985535 0.020648999139666557
v -0.07510700076818466 0.34661200642585754 0.000003000000106112566
v -0.07949499785900116 0.33684098720550537 0.004883000161498785
v -0.08140499889850616 0.35379698872566223 0.000004999999873689376
v -0.07520700246095657 0.3567480146884918 0.007368999999016523
v -0.04727400094270706 0.3522840142250061 -0.020305000245571136
v -0.061723001301288605 0.3578900098800659 -0.01900400035083294
v -0.054763998836278915 0.3553510010242462 -0.02128399908542633
v -0.06458500027656555 0.3584589958190918 -0.01904899999499321
v -0.07521799951791763 0.3510020077228546 -0.016409000381827354
v -0.07632800191640854 0.3549480140209198 -0.022079000249505043
v -0.07337699830532074 0.34522899985313416 -0.02361699938774109
v -0.07178600132465363 0.3446730077266693 -0.01005600020289421
v -0.07405500113964081 0.34727999567985535 -0.020648999139666557
v -0.07172299921512604 0.35301101207733154 -0.022714000195264816
v -0.07949499785900116 0.33684098720550537 -0.004883000161498785
v -0.07520700246095657 0.3567480146884918 -0.007368999999016523
v -0.04962100088596344 0.3581329882144928 0.000009000000318337698
v -0.04132499918341637 0.355663001537323 0.017976000905036926
v -0.04749299958348274 0.35725098848342896 0.021285999566316605
v -0.04132499918341637 0.355663001537323 -0.017976000905036926
v -0.04749299958348274 0.35725098848342896 -0.021285999566316605
v -0.055553000420331955 0.35872599482536316 0.02141599915921688
v -0.07312999665737152 0.3643679916858673 0.015275999903678894
v -0.06410499662160873 0.3599579930305481 0.013465999625623226
v -0.07322800159454346 0.3620240092277527 0.009607999585568905
v -0.06032500043511391 0.35996198654174805 0.01634399965405464
v -0.06410499662160873 0.3599579930305481 -0.013465999625623226
v -0.07312999665737152 0.3643679916858673 -0.015275999903678894
v -0.07322800159454346 0.3620240092277527 -0.009607999585568905
v -0.06032500043511391 0.35996198654174805 -0.01634399965405464
v -0.07314399629831314 0.35809001326560974 0.020274000242352486
v -0.0719200000166893 0.3605720102787018 0.017562000080943108
v -0.08483400195837021 0.36600300669670105 0.03321100026369095
v -0.0808349996805191 0.3571600019931793 0.0201370008289814
v -0.07555600255727768 0.359935998916626 0.020312000066041946
v -0.0864579975605011 0.34411999583244324 0.012070000171661377
v -0.08239199966192245 0.34468400478363037 0.014775999821722507
v -0.08649999648332596 0.35777899622917175 0.024181999266147614
v -0.07960700243711472 0.3545930087566376 0.012105000205338001
v -0.07248999923467636 0.34300899505615234 0.011455999687314034
v -0.08676999807357788 0.3406600058078766 0.01627499982714653
v -0.07510299980640411 0.3539679944515228 0.025123000144958496
v -0.07678200304508209 0.3523840010166168 0.02291099913418293
v -0.07690300047397614 0.35858601331710815 0.02323400042951107
v -0.08129099756479263 0.3416599929332733 0.000003000000106112566
v -0.07936699688434601 0.33592501282691956 0.006399000063538551
v -0.09227299690246582 0.3449400067329407 0.000003999999989900971
v -0.08275499939918518 0.3509710133075714 0.004732999950647354
v -0.07943200320005417 0.34939101338386536 0.007925000041723251
v -0.07891300320625305 0.3530539870262146 0.009933000430464745
v -0.08275499939918518 0.3509710133075714 -0.004732999950647354
v -0.07943200320005417 0.34939101338386536 -0.007925000041723251
v -0.07891300320625305 0.3530539870262146 -0.009933000430464745
v -0.07611099630594254 0.3573789894580841 0.010838000103831291
v -0.055553000420331955 0.35872599482536316 -0.02141599915921688
v -0.07314399629831314 0.35809001326560974 -0.020274000242352486
v -0.0719200000166893 0.3605720102787018 -0.017562000080943108
v -0.08239199966192245 0.34468400478363037 -0.014775999821722507
v -0.0864579975605011 0.34411999583244324 -0.012070000171661377
v -0.0808349996805191 0.3571600019931793 -0.0201370008289814
v -0.08649999648332596 0.35777899622917175 -0.024181999266147614
v -0.07960700243711472 0.3545930087566376 -0.012105000205338001
v -0.08483400195837021 0.36600300669670105 -0.03321100026369095
v -0.07555600255727768 0.359935998916626 -0.020312000066041946
v -0.07248999923467636 0.34300899505615234 -0.011455999687314034
v -0.08676999807357788 0.3406600058078766 -0.01627499982714653
v -0.07678200304508209 0.3523840010166168 -0.02291099913418293
v -0.07510299980640411 0.3539679944515228 -0.025123000144958496
v -0.07690300047397614 0.35858601331710815 -0.02323400042951107
v -0.07936699688434601 0.33592501282691956 -0.006399000063538551
v -0.07611099630594254 0.3573789894580841 -0.010838000103831291
v -0.09014099836349487 0.3643200099468231 0.027837000787258148
v -0.07939299941062927 0.359605997800827 0.013292999938130379
v -0.09014099836349487 0.3643200099468231 -0.027837000787258148
v -0.07939299941062927 0.359605997800827 -0.013292999938130379
v -0.0886939987540245 0.3627519905567169 0.03679800033569336
v -0.09053999930620193 0.3611319959163666 0.02859400026500225
v -0.08891300112009048 0.34216201305389404 0.009797999635338783
v -0.08959200233221054 0.3383910059928894 0.00927099958062172
v -0.08746899664402008 0.33508700132369995 0.016042999923229218
v -0.08609399944543839 0.34584298729896545 0.008449999615550041
v -0.08065900206565857 0.3342309892177582 0.01271700020879507
v -0.08113700151443481 0.3389889895915985 0.00508899986743927
v -0.08419699966907501 0.33772599697113037 9.999999974752427e-7
v -0.08113700151443481 0.3389889895915985 -0.00508899986743927
v -0.09060700237751007 0.3467719852924347 0.0039969999343156815
v -0.09983000159263611 0.33577200770378113 -0.000014999999621068127
v -0.0908380001783371 0.342943012714386 0.003889000043272972
v -0.09060700237751007 0.3467719852924347 -0.0039969999343156815
v -0.0908380001783371 0.342943012714386 -0.003889000043272972
v -0.08609399944543839 0.34584298729896545 -0.008449999615550041
v -0.08959200233221054 0.3383910059928894 -0.00927099958062172
v -0.08891300112009048 0.34216201305389404 -0.009797999635338783
v -0.08746899664402008 0.33508700132369995 -0.016042999923229218
v -0.0886939987540245 0.3627519905567169 -0.03679800033569336
v -0.09053999930620193 0.3611319959163666 -0.02859400026500225
v -0.08065900206565857 0.3342309892177582 -0.01271700020879507
v -0.09149499982595444 0.3393639922142029 0.004056999925523996
v -0.09088099747896194 0.3374130129814148 0.004755999892950058
v -0.08651100099086761 0.3354009985923767 0.0072929998859763145
v -0.09130500257015228 0.33324599266052246 0
v -0.08651100099086761 0.3354009985923767 -0.0072929998859763145
v -0.09088099747896194 0.3374130129814148 -0.004755999892950058
v -0.10662899911403656 0.33054500818252563 -0.000018999999156221747
v -0.09149499982595444 0.3393639922142029 -0.004056999925523996
v -0.10074900090694427 0.328902006149292 0.002876000013202429
v -0.09413500130176544 0.33164098858833313 0.004430000204592943
v -0.10232199728488922 0.321603000164032 0.002242000075057149
v -0.10298799723386765 0.32143500447273254 -0.000003000000106112566
v -0.10232199728488922 0.321603000164032 -0.002242000075057149
v -0.09413500130176544 0.33164098858833313 -0.004430000204592943
v -0.10925900191068649 0.3278129994869232 0.002908000024035573
v -0.11018700152635574 0.326772004365921 -0.000014000000192027073
v -0.10074900090694427 0.328902006149292 -0.002876000013202429
v -0.10925900191068649 0.3278129994869232 -0.002908000024035573
v -0.10809600353240967 0.32453298568725586 0.003386999946087599
v -0.10642699897289276 0.32284998893737793 -0.000019999999494757503
v -0.10809600353240967 0.32453298568725586 -0.003386999946087599
f 1 2 3
f 4 2 1
f 4 1 5
f 3 6 1
f 1 6 7
f 5 1 7
f 2 8 3
f 8 2 4
f 8 9 3
f 10 11 3
f 3 12 10
f 13 12 3
f 3 9 13
f 3 14 6
f 3 15 14
f 3 11 16
f 16 17 3
f 3 17 18
f 18 15 3
f 19 20 4
f 19 4 5
f 21 4 20
f 8 4 21
f 5 7 19
f 7 6 14
f 7 22 19
f 22 7 23
f 23 7 14
f 9 8 21
f 9 21 24
f 13 9 24
f 11 10 25
f 12 25 10
f 11 25 26
f 27 16 11
f 26 27 11
f 28 29 12
f 28 12 13
f 12 29 30
f 12 30 25
f 13 24 28
f 23 14 15
f 31 23 15
f 31 15 18
f 16 27 17
f 17 32 33
f 18 17 33
f 34 32 17
f 27 34 17
f 33 31 18
f 35 20 19
f 19 22 35
f 35 36 20
f 37 20 36
f 21 20 37
f 24 21 37
f 22 38 35
f 38 22 39
f 39 22 23
f 39 23 31
f 24 37 40
f 28 24 40
f 41 26 25
f 41 25 30
f 26 41 42
f 42 43 26
f 27 26 43
f 34 27 43
f 28 40 44
f 44 29 28
f 44 45 29
f 30 29 46
f 29 45 46
f 41 30 46
f 47 39 31
f 47 31 33
f 32 48 49
f 33 32 49
f 50 32 34
f 50 48 32
f 49 47 33
f 50 34 43
f 51 36 35
f 35 38 51
f 51 52 36
f 53 36 52
f 37 36 53
f 40 37 53
f 38 54 51
f 54 38 55
f 55 38 39
f 55 39 47
f 40 53 56
f 44 40 56
f 42 41 57
f 41 58 57
f 41 46 58
f 42 57 59
f 60 43 42
f 59 60 42
f 60 61 43
f 61 50 43
f 44 56 62
f 62 45 44
f 62 63 45
f 64 45 65
f 66 65 45
f 66 45 63
f 45 64 46
f 58 46 67
f 67 46 64
f 68 55 47
f 68 47 49
f 48 69 70
f 49 48 70
f 71 48 72
f 48 71 73
f 69 48 73
f 50 72 48
f 70 68 49
f 74 50 61
f 72 50 74
f 75 52 51
f 51 54 75
f 75 76 52
f 77 52 76
f 53 52 77
f 56 53 77
f 54 78 75
f 78 54 79
f 79 54 55
f 79 55 68
f 56 77 80
f 62 56 80
f 59 57 81
f 57 58 82
f 57 82 81
f 67 82 58
f 59 81 83
f 84 60 59
f 83 84 59
f 85 61 60
f 84 85 60
f 61 85 74
f 62 80 86
f 86 63 62
f 86 87 63
f 88 66 63
f 88 63 87
f 89 90 64
f 89 64 91
f 64 65 66
f 64 66 91
f 64 90 92
f 64 92 67
f 66 93 94
f 66 94 91
f 88 93 66
f 95 67 96
f 67 95 97
f 67 97 98
f 92 96 67
f 67 98 82
f 99 79 68
f 99 68 70
f 69 100 101
f 70 69 101
f 69 73 102
f 100 69 102
f 101 99 70
f 73 71 72
f 72 103 104
f 105 72 104
f 105 73 72
f 106 103 72
f 74 106 72
f 107 108 73
f 105 107 73
f 73 108 102
f 109 74 95
f 97 95 74
f 110 97 74
f 74 109 106
f 85 110 74
f 76 75 111
f 111 75 78
f 77 76 112
f 112 76 111
f 113 80 77
f 113 77 112
f 114 78 79
f 111 78 114
f 79 99 115
f 114 79 115
f 116 86 80
f 116 80 113
f 117 118 81
f 81 119 117
f 81 98 119
f 98 81 82
f 83 81 111
f 81 120 111
f 118 120 81
f 111 84 83
f 84 121 122
f 122 123 84
f 123 110 84
f 85 84 110
f 111 124 84
f 84 124 121
f 116 87 86
f 120 88 87
f 116 120 87
f 120 118 88
f 88 125 93
f 125 88 126
f 126 88 118
f 127 128 89
f 128 90 89
f 89 91 125
f 129 89 125
f 127 89 129
f 130 131 90
f 128 132 90
f 90 131 92
f 90 133 130
f 90 132 133
f 91 94 125
f 96 92 134
f 135 134 92
f 135 92 131
f 125 136 93
f 136 94 93
f 136 137 94
f 137 138 94
f 94 138 125
f 95 96 139
f 139 109 95
f 139 96 140
f 96 134 140
f 141 142 97
f 97 142 143
f 97 143 144
f 144 98 97
f 97 145 141
f 146 145 97
f 147 146 97
f 97 110 147
f 144 148 98
f 98 148 119
f 99 101 149
f 115 99 149
f 101 100 149
f 100 102 124
f 100 124 149
f 102 121 124
f 108 150 102
f 151 102 150
f 121 102 151
f 103 152 153
f 104 103 154
f 103 155 154
f 106 152 103
f 153 156 103
f 156 155 103
f 104 154 157
f 150 105 104
f 150 104 158
f 158 104 157
f 150 107 105
f 159 106 109
f 106 159 160
f 152 106 160
f 107 161 162
f 108 107 162
f 107 163 161
f 150 163 107
f 108 162 150
f 164 109 139
f 164 159 109
f 110 165 147
f 123 165 110
f 113 112 111
f 116 113 111
f 120 116 111
f 111 114 115
f 111 115 149
f 111 149 124
f 118 117 126
f 127 126 117
f 166 127 117
f 166 117 167
f 117 148 167
f 148 117 119
f 151 122 121
f 122 151 157
f 122 157 168
f 169 122 168
f 169 165 122
f 123 122 165
f 125 138 136
f 125 126 129
f 127 129 126
f 127 170 128
f 170 127 166
f 128 170 171
f 132 128 171
f 135 131 130
f 130 172 173
f 130 173 174
f 130 174 135
f 172 130 175
f 133 175 130
f 132 171 166
f 132 166 167
f 148 133 132
f 148 132 167
f 144 133 148
f 175 133 143
f 143 133 144
f 135 176 134
f 134 176 140
f 135 174 176
f 136 138 137
f 139 140 177
f 139 177 178
f 179 164 139
f 178 179 139
f 140 176 177
f 180 142 141
f 141 181 182
f 141 182 180
f 141 145 183
f 184 181 141
f 183 184 141
f 180 143 142
f 180 175 143
f 145 146 183
f 146 185 183
f 146 156 185
f 147 156 146
f 165 156 147
f 162 163 150
f 158 151 150
f 151 158 157
f 153 152 160
f 186 187 153
f 188 186 153
f 160 188 153
f 185 153 187
f 153 185 156
f 154 189 157
f 190 189 154
f 190 154 155
f 168 190 155
f 169 168 155
f 155 156 165
f 169 155 165
f 168 157 189
f 159 191 160
f 164 191 159
f 191 188 160
f 161 163 162
f 179 191 164
f 170 166 171
f 190 168 189
f 182 172 175
f 192 173 172
f 192 172 182
f 193 194 173
f 193 173 192
f 194 174 173
f 194 176 174
f 182 175 180
f 177 176 194
f 177 194 193
f 177 193 195
f 178 177 195
f 195 179 178
f 196 191 179
f 197 196 179
f 195 197 179
f 181 198 192
f 181 192 182
f 199 198 181
f 184 199 181
f 183 185 184
f 185 187 184
f 184 187 199
f 187 186 199
f 186 196 197
f 199 186 197
f 186 188 196
f 188 191 196
f 198 200 192
f 201 193 192
f 201 192 200
f 202 195 193
f 202 193 201
f 195 202 203
f 203 204 195
f 197 195 204
f 199 197 205
f 205 197 204
f 198 206 200
f 207 206 198
f 208 209 198
f 199 208 198
f 198 209 207
f 208 199 205
f 202 201 200
f 202 200 210
f 206 210 200
f 203 202 210
f 203 210 211
f 212 204 203
f 211 212 203
f 208 205 204
f 212 208 204
f 211 210 206
f 211 206 207
f 207 209 211
f 208 212 209
f 209 212 211
