# Generated by Visualization Toolkit
v -0.03602999821305275 0.3582780063152313 0.0015219999477267265
v -0.03663000091910362 0.35869500041007996 0.00914200022816658
v -0.04827199876308441 0.3610360026359558 0.0015020000282675028
v -0.03484300151467323 0.3619930148124695 0.010666999965906143
v -0.03504199907183647 0.3594839870929718 0.0015239999629557133
v -0.03663000091910362 0.35869500041007996 -0.006144000217318535
v -0.03484300151467323 0.3619930148124695 -0.007670000195503235
v -0.04023300111293793 0.3600260019302368 0.01707099936902523
v -0.04612100124359131 0.3615730106830597 0.020927999168634415
v -0.059344999492168427 0.3627699911594391 0.006095000077039003
v -0.059418000280857086 0.36305001378059387 0.0015020000282675028
v -0.05963199958205223 0.36306801438331604 0.01502699963748455
v -0.05555399879813194 0.3633910119533539 0.021031999960541725
v -0.04023300111293793 0.3600260019302368 -0.01407300028949976
v -0.04612100124359131 0.3615730106830597 -0.01792999915778637
v -0.059344999492168427 0.3627699911594391 -0.003097000066190958
v -0.05963199958205223 0.36306801438331604 -0.012028999626636505
v -0.05555399879813194 0.3633910119533539 -0.01803399994969368
v -0.03491299971938133 0.3637079894542694 0.0015239999629557133
v -0.036010999232530594 0.36440399289131165 0.011315000243484974
v -0.039326999336481094 0.3638240098953247 0.018042000010609627
v -0.036010999232530594 0.36440399289131165 -0.008317000232636929
v -0.039326999336481094 0.3638240098953247 -0.015045000240206718
v -0.04630900174379349 0.36616700887680054 0.02159300073981285
v -0.06221200153231621 0.3665890097618103 0.00622900016605854
v -0.06220100075006485 0.36646801233291626 0.0015020000282675028
v -0.06221200153231621 0.3665890097618103 -0.0032309999223798513
v -0.055851999670267105 0.3683910071849823 0.02173599973320961
v -0.062144000083208084 0.36421799659729004 0.016690999269485474
v -0.06282500177621841 0.3680639863014221 0.010487999767065048
v -0.04630900174379349 0.36616700887680054 -0.018595000728964806
v -0.062144000083208084 0.36421799659729004 -0.013693000189960003
v -0.055851999670267105 0.3683910071849823 -0.018737999722361565
v -0.06282500177621841 0.3680639863014221 -0.00749000022187829
v -0.03319400176405907 0.3722139894962311 0.0015259999781847
v -0.034602999687194824 0.37158799171447754 0.01097199972718954
v -0.0405380018055439 0.3667609989643097 0.017628999426960945
v -0.034602999687194824 0.37158799171447754 -0.007974999956786633
v -0.0405380018055439 0.3667609989643097 -0.014631999656558037
v -0.045747000724077225 0.36991798877716064 0.01977900043129921
v -0.06088700145483017 0.3729259967803955 0.007563000079244375
v -0.06044499948620796 0.3728350102901459 0.0015030000358819962
v -0.06088700145483017 0.3729259967803955 -0.00456599984318018
v -0.05518300086259842 0.37162598967552185 0.02065199986100197
v -0.06006599962711334 0.37146899104118347 0.0196090005338192
v -0.062435999512672424 0.3738580048084259 0.010773999616503716
v -0.045747000724077225 0.36991798877716064 -0.016781000420451164
v -0.06006599962711334 0.37146899104118347 -0.01661200076341629
v -0.05518300086259842 0.37162598967552185 -0.017653999850153923
v -0.062435999512672424 0.3738580048084259 -0.007776999846100807
v -0.03210999816656113 0.3754720091819763 0.0015279999934136868
v -0.03271599858999252 0.37527701258659363 0.011978000402450562
v -0.03967300057411194 0.37345200777053833 0.01824899949133396
v -0.03271599858999252 0.37527701258659363 -0.008980000391602516
v -0.03967300057411194 0.37345200777053833 -0.015251999720931053
v -0.04397900030016899 0.37474900484085083 0.019863000139594078
v -0.0577629990875721 0.38019201159477234 0.007765000220388174
v -0.059436000883579254 0.3810429871082306 0.011196999810636044
v -0.05710599943995476 0.38010698556900024 0.0015059999423101544
v -0.0577629990875721 0.38019201159477234 -0.004767999984323978
v -0.059436000883579254 0.3810429871082306 -0.008198999799787998
v -0.05282599851489067 0.3775250017642975 0.02078999951481819
v -0.05686299875378609 0.3795270025730133 0.021165000274777412
v -0.06549999862909317 0.3725709915161133 0.017813999205827713
v -0.06256400048732758 0.37431201338768005 0.021501999348402023
v -0.06003899872303009 0.3791849911212921 0.02541700005531311
v -0.06952200084924698 0.37737900018692017 0.005059000104665756
v -0.04397900030016899 0.37474900484085083 -0.016865000128746033
v -0.05686299875378609 0.3795270025730133 -0.018167000263929367
v -0.05282599851489067 0.3775250017642975 -0.017791999503970146
v -0.06256400048732758 0.37431201338768005 -0.018503999337553978
v -0.06549999862909317 0.3725709915161133 -0.014816000126302242
v -0.06003899872303009 0.3791849911212921 -0.022419000044465065
v -0.06952200084924698 0.37737900018692017 -0.002061000093817711
v -0.031546998769044876 0.37929201126098633 0.0015279999934136868
v -0.03232000023126602 0.37928900122642517 0.01217000000178814
v -0.03736799955368042 0.3762019872665405 0.01923000067472458
v -0.03232000023126602 0.37928900122642517 -0.009173000231385231
v -0.03736799955368042 0.3762019872665405 -0.016232000663876534
v -0.04285399988293648 0.3772430121898651 0.021803999319672585
v -0.05709400027990341 0.3865030109882355 0.009487999603152275
v -0.058031000196933746 0.3852179944515228 0.011912000365555286
v -0.05577800050377846 0.3853139877319336 0.0015069999499246478
v -0.05709400027990341 0.3865030109882355 -0.006490000057965517
v -0.058031000196933746 0.3852179944515228 -0.008914000354707241
v -0.05021100118756294 0.3806479871273041 0.022783000022172928
v -0.054471999406814575 0.3817239999771118 0.020502999424934387
v -0.0598209984600544 0.384317010641098 0.020547999069094658
v -0.07177600264549255 0.3812290132045746 0.02357799932360649
v -0.07083100080490112 0.3772369921207428 0.017907999455928802
v -0.06922899931669235 0.3713870048522949 0.025116000324487686
v -0.06766299903392792 0.3707579970359802 0.011555000208318233
v -0.06725499778985977 0.3790839910507202 0.024212999269366264
v -0.06982199847698212 0.37346601486206055 0.022148000076413155
v -0.07090099900960922 0.3728469908237457 0.0015020000282675028
v -0.07569000124931335 0.3632870018482208 0.006382000166922808
v -0.07689700275659561 0.3803110122680664 0.0015040000434964895
v -0.07058099657297134 0.3829759955406189 0.008867999538779259
v -0.04285399988293648 0.3772430121898651 -0.01880599930882454
v -0.054471999406814575 0.3817239999771118 -0.01750599965453148
v -0.05021100118756294 0.3806479871273041 -0.019785000011324883
v -0.0598209984600544 0.384317010641098 -0.017550000920891762
v -0.07083100080490112 0.3772369921207428 -0.014910000376403332
v -0.07177600264549255 0.3812290132045746 -0.020579999312758446
v -0.06922899931669235 0.3713870048522949 -0.02211800031363964
v -0.06766299903392792 0.3707579970359802 -0.008557000197470188
v -0.06982199847698212 0.37346601486206055 -0.019151000306010246
v -0.06725499778985977 0.3790839910507202 -0.02121499925851822
v -0.07569000124931335 0.3632870018482208 -0.0033839999232441187
v -0.07058099657297134 0.3829759955406189 -0.005869999993592501
v -0.0449570007622242 0.3831920027732849 0.0015079999575391412
v -0.03676899895071983 0.38034600019454956 0.019474999979138374
v -0.04286700114607811 0.3822140097618103 0.022785000503063202
v -0.03676899895071983 0.38034600019454956 -0.01647699996829033
v -0.04286700114607811 0.3822140097618103 -0.019787000492215157
v -0.050859998911619186 0.3840549886226654 0.022915000095963478
v -0.06819000095129013 0.3904930055141449 0.01677500084042549
v -0.05927899852395058 0.38579198718070984 0.014964999631047249
v -0.0683860033750534 0.388155996799469 0.011106999590992928
v -0.05550200119614601 0.3856230080127716 0.01784300059080124
v -0.05927899852395058 0.38579198718070984 -0.011966999620199203
v -0.06819000095129013 0.3904930055141449 -0.013776999898254871
v -0.0683860033750534 0.388155996799469 -0.008108999580144882
v -0.05550200119614601 0.3856230080127716 -0.014844999648630619
v -0.0684640035033226 0.38422200083732605 0.021772999316453934
v -0.06713899970054626 0.38664600253105164 0.019060999155044556
v -0.07981900125741959 0.3926590085029602 0.034710001200437546
v -0.07618799805641174 0.3836440145969391 0.021635999903082848
v -0.07079800218343735 0.3861770033836365 0.021810000762343407
v -0.08234699815511703 0.3708760142326355 0.0135690001770854
v -0.07825999706983566 0.37125399708747864 0.01627499982714653
v -0.08182299882173538 0.3845210075378418 0.02568100020289421
v -0.07506699860095978 0.38102400302886963 0.013604000210762024
v -0.06843499839305878 0.3691290020942688 0.012954000383615494
v -0.08280199766159058 0.36743399500846863 0.017774000763893127
v -0.07059299945831299 0.3801940083503723 0.026621999219059944
v -0.07233600318431854 0.3786889910697937 0.024410000070929527
v -0.0722000002861023 0.38488900661468506 0.02473299950361252
v -0.07728499919176102 0.3681829869747162 0.0015010000206530094
v -0.07559999823570251 0.36236700415611267 0.007898000068962574
v -0.08812399953603745 0.37195900082588196 0.0015030000358819962
v -0.07836300134658813 0.37755000591278076 0.006231999956071377
v -0.07510799914598465 0.37582001090049744 0.009424000047147274
v -0.07443799823522568 0.37945500016212463 0.01143100019544363
v -0.07836300134658813 0.37755000591278076 -0.003234999952837825
v -0.07510799914598465 0.37582001090049744 -0.006426000036299229
v -0.07443799823522568 0.37945500016212463 -0.008434000425040722
v -0.07145900279283524 0.38364699482917786 0.012337000109255314
v -0.050859998911619186 0.3840549886226654 -0.019917000085115433
v -0.0684640035033226 0.38422200083732605 -0.018775999546051025
v -0.06713899970054626 0.38664600253105164 -0.01606299914419651
v -0.07825999706983566 0.37125399708747864 -0.013276999816298485
v -0.08234699815511703 0.3708760142326355 -0.010571000166237354
v -0.07618799805641174 0.3836440145969391 -0.01863900013267994
v -0.08182299882173538 0.3845210075378418 -0.022683000192046165
v -0.07506699860095978 0.38102400302886963 -0.010607000440359116
v -0.07981900125741959 0.3926590085029602 -0.03171199932694435
v -0.07079800218343735 0.3861770033836365 -0.01881299912929535
v -0.06843499839305878 0.3691290020942688 -0.00995699968189001
v -0.08280199766159058 0.36743399500846863 -0.014777000062167645
v -0.07233600318431854 0.3786889910697937 -0.021412000060081482
v -0.07059299945831299 0.3801940083503723 -0.0236239992082119
v -0.0722000002861023 0.38488900661468506 -0.021734999492764473
v -0.07559999823570251 0.36236700415611267 -0.004900000058114529
v -0.07145900279283524 0.38364699482917786 -0.009339000098407269
v -0.08519099652767181 0.39122000336647034 0.029335999861359596
v -0.0746460035443306 0.3860209882259369 0.014791999943554401
v -0.08519099652767181 0.39122000336647034 -0.02633799985051155
v -0.0746460035443306 0.3860209882259369 -0.011793999932706356
v -0.0838100016117096 0.38958799839019775 0.03829700127243996
v -0.08572100102901459 0.3880540132522583 0.0300929993391037
v -0.0848810002207756 0.36903101205825806 0.011296999640762806
v -0.08571500331163406 0.36529600620269775 0.010769999586045742
v -0.08373100310564041 0.3618989884853363 0.017542000859975815
v -0.08191200345754623 0.37257999181747437 0.009948999620974064
v -0.07696200162172318 0.3607330024242401 0.014216000214219093
v -0.07724200189113617 0.36550700664520264 0.006587999872863293
v -0.08035200089216232 0.3643859922885895 0.001500000013038516
v -0.07724200189113617 0.36550700664520264 -0.003590000094845891
v -0.08638300001621246 0.3737129867076874 0.005495999939739704
v -0.09605400264263153 0.3631480038166046 0.001484000007621944
v -0.08677200227975845 0.3698990046977997 0.005386999808251858
v -0.08638300001621246 0.3737129867076874 -0.0024979999288916588
v -0.08677200227975845 0.3698990046977997 -0.0023900000378489494
v -0.08191200345754623 0.37257999181747437 -0.006951000075787306
v -0.08571500331163406 0.36529600620269775 -0.007772000040858984
v -0.0848810002207756 0.36903101205825806 -0.00829899962991476
v -0.08373100310564041 0.3618989884853363 -0.014543999917805195
v -0.0838100016117096 0.38958799839019775 -0.03530000150203705
v -0.08572199940681458 0.3880540132522583 -0.027094999328255653
v -0.07696200162172318 0.3607330024242401 -0.011218000203371048
v -0.08757700026035309 0.36635398864746094 0.005555000156164169
v -0.08704400062561035 0.3643780052661896 0.006254999898374081
v -0.0827609971165657 0.3621689975261688 0.008791999891400337
v -0.08764000236988068 0.3602350056171417 0.0014979999978095293
v -0.0827609971165657 0.3621689975261688 -0.005795000120997429
v -0.08704400062561035 0.3643780052661896 -0.0032569998875260353
v -0.10284099727869034 0.354636013507843 0.001478999969549477
v -0.08757700026035309 0.36635398864746094 -0.0025579999200999737
v -0.09755299985408783 0.35270100831985474 0.0043750000186264515
v -0.09053400158882141 0.3587610125541687 0.005929000210016966
v -0.09926299750804901 0.34627801179885864 0.0037410000804811716
v -0.09987399727106094 0.3461439907550812 0.0014959999825805426
v -0.09926299750804901 0.34627801179885864 -0.0007430000114254653
v -0.09053400158882141 0.3587610125541687 -0.002930999966338277
v -0.10532200336456299 0.35203999280929565 0.004406999796628952
v -0.10620000213384628 0.35104700922966003 0.0014850000152364373
v -0.09755299985408783 0.35270100831985474 -0.0013770000077784061
v -0.10532200336456299 0.35203999280929565 -0.0014090000186115503
v -0.104373998939991 0.348706990480423 0.004885000176727772
v -0.102913998067379 0.3469420075416565 0.001478999969549477
v -0.104373998939991 0.348706990480423 -0.001888000057078898
f 1 2 3
f 4 2 1
f 4 1 5
f 3 6 1
f 1 6 7
f 5 1 7
f 2 8 3
f 8 2 4
f 8 9 3
f 10 11 3
f 3 12 10
f 13 12 3
f 3 9 13
f 3 14 6
f 3 15 14
f 3 11 16
f 16 17 3
f 3 17 18
f 18 15 3
f 19 20 4
f 19 4 5
f 21 4 20
f 8 4 21
f 5 7 19
f 7 6 14
f 7 22 19
f 22 7 23
f 23 7 14
f 9 8 21
f 9 21 24
f 13 9 24
f 11 10 25
f 12 25 10
f 11 25 26
f 27 16 11
f 26 27 11
f 28 29 12
f 28 12 13
f 12 29 30
f 12 30 25
f 13 24 28
f 23 14 15
f 31 23 15
f 31 15 18
f 16 27 17
f 17 32 33
f 18 17 33
f 34 32 17
f 27 34 17
f 33 31 18
f 35 20 19
f 19 22 35
f 35 36 20
f 37 20 36
f 21 20 37
f 24 21 37
f 22 38 35
f 38 22 39
f 39 22 23
f 39 23 31
f 24 37 40
f 28 24 40
f 41 26 25
f 41 25 30
f 26 41 42
f 42 43 26
f 27 26 43
f 34 27 43
f 28 40 44
f 44 29 28
f 44 45 29
f 30 29 46
f 29 45 46
f 41 30 46
f 47 39 31
f 47 31 33
f 32 48 49
f 33 32 49
f 50 32 34
f 50 48 32
f 49 47 33
f 50 34 43
f 51 36 35
f 35 38 51
f 51 52 36
f 53 36 52
f 37 36 53
f 40 37 53
f 38 54 51
f 54 38 55
f 55 38 39
f 55 39 47
f 40 53 56
f 44 40 56
f 42 41 57
f 41 58 57
f 41 46 58
f 42 57 59
f 60 43 42
f 59 60 42
f 60 61 43
f 61 50 43
f 44 56 62
f 62 45 44
f 62 63 45
f 64 45 65
f 66 65 45
f 66 45 63
f 45 64 46
f 58 46 67
f 67 46 64
f 68 55 47
f 68 47 49
f 48 69 70
f 49 48 70
f 71 48 72
f 48 71 73
f 69 48 73
f 50 72 48
f 70 68 49
f 74 50 61
f 72 50 74
f 75 52 51
f 51 54 75
f 75 76 52
f 77 52 76
f 53 52 77
f 56 53 77
f 54 78 75
f 78 54 79
f 79 54 55
f 79 55 68
f 56 77 80
f 62 56 80
f 59 57 81
f 57 58 82
f 57 82 81
f 67 82 58
f 59 81 83
f 84 60 59
f 83 84 59
f 85 61 60
f 84 85 60
f 61 85 74
f 62 80 86
f 86 63 62
f 86 87 63
f 88 66 63
f 88 63 87
f 89 90 64
f 89 64 91
f 64 65 66
f 64 66 91
f 64 90 92
f 64 92 67
f 66 93 94
f 66 94 91
f 88 93 66
f 95 67 96
f 67 95 97
f 67 97 98
f 92 96 67
f 67 98 82
f 99 79 68
f 99 68 70
f 69 100 101
f 70 69 101
f 69 73 102
f 100 69 102
f 101 99 70
f 73 71 72
f 72 103 104
f 105 72 104
f 105 73 72
f 106 103 72
f 74 106 72
f 107 108 73
f 105 107 73
f 73 108 102
f 109 74 95
f 97 95 74
f 110 97 74
f 74 109 106
f 85 110 74
f 76 75 111
f 111 75 78
f 77 76 112
f 112 76 111
f 113 80 77
f 113 77 112
f 114 78 79
f 111 78 114
f 79 99 115
f 114 79 115
f 116 86 80
f 116 80 113
f 117 118 81
f 81 119 117
f 81 98 119
f 98 81 82
f 83 81 111
f 81 120 111
f 118 120 81
f 111 84 83
f 84 121 122
f 122 123 84
f 123 110 84
f 85 84 110
f 111 124 84
f 84 124 121
f 116 87 86
f 120 88 87
f 116 120 87
f 120 118 88
f 88 125 93
f 125 88 126
f 126 88 118
f 127 128 89
f 128 90 89
f 89 91 125
f 129 89 125
f 127 89 129
f 130 131 90
f 128 132 90
f 90 131 92
f 90 133 130
f 90 132 133
f 91 94 125
f 96 92 134
f 135 134 92
f 135 92 131
f 125 136 93
f 136 94 93
f 136 137 94
f 137 138 94
f 94 138 125
f 95 96 139
f 139 109 95
f 139 96 140
f 96 134 140
f 141 142 97
f 97 142 143
f 97 143 144
f 144 98 97
f 97 145 141
f 146 145 97
f 147 146 97
f 97 110 147
f 144 148 98
f 98 148 119
f 99 101 149
f 115 99 149
f 101 100 149
f 100 102 124
f 100 124 149
f 102 121 124
f 108 150 102
f 151 102 150
f 121 102 151
f 103 152 153
f 104 103 154
f 103 155 154
f 106 152 103
f 153 156 103
f 156 155 103
f 104 154 157
f 150 105 104
f 150 104 158
f 158 104 157
f 150 107 105
f 159 106 109
f 106 159 160
f 152 106 160
f 107 161 162
f 108 107 162
f 107 163 161
f 150 163 107
f 108 162 150
f 164 109 139
f 164 159 109
f 110 165 147
f 123 165 110
f 113 112 111
f 116 113 111
f 120 116 111
f 111 114 115
f 111 115 149
f 111 149 124
f 118 117 126
f 127 126 117
f 166 127 117
f 166 117 167
f 117 148 167
f 148 117 119
f 151 122 121
f 122 151 157
f 122 157 168
f 169 122 168
f 169 165 122
f 123 122 165
f 125 138 136
f 125 126 129
f 127 129 126
f 127 170 128
f 170 127 166
f 128 170 171
f 132 128 171
f 135 131 130
f 130 172 173
f 130 173 174
f 130 174 135
f 172 130 175
f 133 175 130
f 132 171 166
f 132 166 167
f 148 133 132
f 148 132 167
f 144 133 148
f 175 133 143
f 143 133 144
f 135 176 134
f 134 176 140
f 135 174 176
f 136 138 137
f 139 140 177
f 139 177 178
f 179 164 139
f 178 179 139
f 140 176 177
f 180 142 141
f 141 181 182
f 141 182 180
f 141 145 183
f 184 181 141
f 183 184 141
f 180 143 142
f 180 175 143
f 145 146 183
f 146 185 183
f 146 156 185
f 147 156 146
f 165 156 147
f 162 163 150
f 158 151 150
f 151 158 157
f 153 152 160
f 186 187 153
f 188 186 153
f 160 188 153
f 185 153 187
f 153 185 156
f 154 189 157
f 190 189 154
f 190 154 155
f 168 190 155
f 169 168 155
f 155 156 165
f 169 155 165
f 168 157 189
f 159 191 160
f 164 191 159
f 191 188 160
f 161 163 162
f 179 191 164
f 170 166 171
f 190 168 189
f 182 172 175
f 192 173 172
f 192 172 182
f 193 194 173
f 193 173 192
f 194 174 173
f 194 176 174
f 182 175 180
f 177 176 194
f 177 194 193
f 177 193 195
f 178 177 195
f 195 179 178
f 196 191 179
f 197 196 179
f 195 197 179
f 181 198 192
f 181 192 182
f 199 198 181
f 184 199 181
f 183 185 184
f 185 187 184
f 184 187 199
f 187 186 199
f 186 196 197
f 199 186 197
f 186 188 196
f 188 191 196
f 198 200 192
f 201 193 192
f 201 192 200
f 202 195 193
f 202 193 201
f 195 202 203
f 203 204 195
f 197 195 204
f 199 197 205
f 205 197 204
f 198 206 200
f 207 206 198
f 208 209 198
f 199 208 198
f 198 209 207
f 208 199 205
f 202 201 200
f 202 200 210
f 206 210 200
f 203 202 210
f 203 210 211
f 212 204 203
f 211 212 203
f 208 205 204
f 212 208 204
f 211 210 206
f 211 206 207
f 207 209 211
f 208 212 209
f 209 212 211
