# Generated by Visualization Toolkit
v -0.04223199933767319 0.3389489948749542 0.00010599999950500205
v -0.04270799830555916 0.339370995759964 0.0072570000775158405
v -0.05249499902129173 0.34262800216674805 0.0000870000003487803
v -0.04085100069642067 0.34201401472091675 0.008689000271260738
v -0.04126499965786934 0.33987998962402344 0.00010800000018207356
v -0.04270799830555916 0.339370995759964 -0.007087999954819679
v -0.04085100069642067 0.34201401472091675 -0.00851999968290329
v -0.04567800089716911 0.3409009873867035 0.014697999693453312
v -0.050592001527547836 0.34286001324653625 0.018317999318242073
v -0.06185099855065346 0.3453029990196228 0.004397000186145306
v -0.061886001378297806 0.3455510139465332 0.0000870000003487803
v -0.06206899881362915 0.3455899953842163 0.01278000045567751
v -0.05852999910712242 0.34543099999427795 0.01841600053012371
v -0.04567800089716911 0.3409009873867035 -0.014529000036418438
v -0.050592001527547836 0.34286001324653625 -0.0181489996612072
v -0.06185099855065346 0.3453029990196228 -0.004228000063449144
v -0.06206899881362915 0.3455899953842163 -0.01261099986732006
v -0.05852999910712242 0.34543099999427795 -0.018247000873088837
v -0.04074399918317795 0.3434959948062897 0.00010800000018207356
v -0.041620999574661255 0.34421101212501526 0.009296000003814697
v -0.044530000537633896 0.3440670073032379 0.015610000118613243
v -0.041620999574661255 0.34421101212501526 -0.009127000346779823
v -0.044530000537633896 0.3440670073032379 -0.01544100046157837
v -0.050308000296354294 0.3468270003795624 0.018942000344395638
v -0.06394600123167038 0.3488909900188446 0.004523000214248896
v -0.06394799798727036 0.34878599643707275 0.0000870000003487803
v -0.06394600123167038 0.3488909900188446 -0.004354000091552734
v -0.05829999968409538 0.3497590124607086 0.019076000899076462
v -0.06411699950695038 0.3468469977378845 0.014341999776661396
v -0.06432999670505524 0.35022398829460144 0.00851999968290329
v -0.050308000296354294 0.3468270003795624 -0.018773000687360764
v -0.06411699950695038 0.3468469977378845 -0.014173000119626522
v -0.05829999968409538 0.3497590124607086 -0.01890699937939644
v -0.06432999670505524 0.35022398829460144 -0.008351000025868416
v -0.038440000265836716 0.35061898827552795 0.00011000000085914508
v -0.039712000638246536 0.35023200511932373 0.008975000120699406
v -0.04528599977493286 0.34672001004219055 0.015223000198602676
v -0.039712000638246536 0.35023200511932373 -0.008806000463664532
v -0.04528599977493286 0.34672001004219055 -0.015053000301122665
v -0.04946000128984451 0.34999001026153564 0.017240000888705254
v -0.06219099834561348 0.3541939854621887 0.0057760002091526985
v -0.061820000410079956 0.3540689945220947 0.00008900000102585182
v -0.06219099834561348 0.3541939854621887 -0.005607000086456537
v -0.05741100013256073 0.35246700048446655 0.018059000372886658
v -0.061625998467206955 0.35285499691963196 0.017079999670386314
v -0.06343299895524979 0.35516101121902466 0.0087890001013875
v -0.04946000128984451 0.34999001026153564 -0.01707099936902523
v -0.061625998467206955 0.35285499691963196 -0.01691100001335144
v -0.05741100013256073 0.35246700048446655 -0.017890000715851784
v -0.06343299895524979 0.35516101121902466 -0.008620000444352627
v -0.0371909998357296 0.3533029854297638 0.00011100000119768083
v -0.03773200139403343 0.3531999886035919 0.00991899985820055
v -0.0438929982483387 0.3523760139942169 0.015804000198841095
v -0.03773200139403343 0.3531999886035919 -0.009750000201165676
v -0.0438929982483387 0.3523760139942169 -0.01563500054180622
v -0.04746999964118004 0.35395100712776184 0.017318999394774437
v -0.05879899859428406 0.3601030111312866 0.00596500001847744
v -0.060155000537633896 0.3610129952430725 0.009185999631881714
v -0.05824200063943863 0.35995998978614807 0.00009100000170292333
v -0.05879899859428406 0.3601030111312866 -0.005795999895781279
v -0.060155000537633896 0.3610129952430725 -0.00901699997484684
v -0.05481100082397461 0.35728299617767334 0.018187999725341797
v -0.05808800086379051 0.35943499207496643 0.018540000542998314
v -0.06551700085401535 0.3540259897708893 0.015395999886095524
v -0.06349900364875793 0.35556501150131226 0.018856000155210495
v -0.060853999108076096 0.35948100686073303 0.022531000897288322
v -0.06826899945735931 0.35859501361846924 0.003425000002607703
v -0.04746999964118004 0.35395100712776184 -0.017149999737739563
v -0.05808800086379051 0.35943499207496643 -0.01837100088596344
v -0.05481100082397461 0.35728299617767334 -0.018019000068306923
v -0.06349900364875793 0.35556501150131226 -0.01868700049817562
v -0.06551700085401535 0.3540259897708893 -0.01522700022906065
v -0.060853999108076096 0.35948100686073303 -0.0223619993776083
v -0.06826899945735931 0.35859501361846924 -0.0032560001127421856
v -0.03633600100874901 0.3565250039100647 0.00011200000153621659
v -0.037000998854637146 0.3566040098667145 0.010099000297486782
v -0.04164300113916397 0.3544920086860657 0.0167239997535944
v -0.037000998854637146 0.3566040098667145 -0.009929999709129333
v -0.04164300113916397 0.3544920086860657 -0.016555000096559525
v -0.046261001378297806 0.3559739887714386 0.019139999523758888
v -0.05761000141501427 0.36545300483703613 0.007581999991089106
v -0.05854099988937378 0.36444899439811707 0.009856999851763248
v -0.05659399926662445 0.3642910122871399 0.00009300000237999484
v -0.05761000141501427 0.36545300483703613 -0.007412999868392944
v -0.05854099988937378 0.36444899439811707 -0.009688000194728374
v -0.052257999777793884 0.3596870005130768 0.020059000700712204
v -0.05581900104880333 0.361066997051239 0.01791900023818016
v -0.06016800180077553 0.36386701464653015 0.01796099916100502
v -0.06983499974012375 0.36214399337768555 0.02080499939620495
v -0.06940899789333344 0.3586130142211914 0.015483000315725803
v -0.06883999705314636 0.35340699553489685 0.022247999906539917
v -0.06755399703979492 0.35269999504089355 0.009522000327706337
v -0.06615400314331055 0.3598180115222931 0.021400999277830124
v -0.0689070001244545 0.3552660048007965 0.01946300081908703
v -0.07013700157403946 0.3548409938812256 0.00008800000068731606
v -0.07518400251865387 0.34714001417160034 0.004666999913752079
v -0.0743279978632927 0.36190399527549744 0.00008900000102585182
v -0.06863699853420258 0.36351698637008667 0.007000000216066837
v -0.046261001378297806 0.3559739887714386 -0.018970999866724014
v -0.05581900104880333 0.361066997051239 -0.017750000581145287
v -0.052257999777793884 0.3596870005130768 -0.01988999918103218
v -0.06016800180077553 0.36386701464653015 -0.017791999503970146
v -0.06940899789333344 0.3586130142211914 -0.015313999727368355
v -0.06983499974012375 0.36214399337768555 -0.020635999739170074
v -0.06883999705314636 0.35340699553489685 -0.022079000249505043
v -0.06755399703979492 0.35269999504089355 -0.009352999739348888
v -0.0689070001244545 0.3552660048007965 -0.019293999299407005
v -0.06615400314331055 0.3598180115222931 -0.02123199962079525
v -0.07518400251865387 0.34714001417160034 -0.004497999791055918
v -0.06863699853420258 0.36351698637008667 -0.006831000093370676
v -0.04749099910259247 0.3613100051879883 0.00009300000237999484
v -0.04072599858045578 0.35798901319503784 0.016953999176621437
v -0.045788999646902084 0.3602469861507416 0.020059999078512192
v -0.04072599858045578 0.35798901319503784 -0.016784999519586563
v -0.045788999646902084 0.3602469861507416 -0.019890999421477318
v -0.05248500034213066 0.3626829981803894 0.020183000713586807
v -0.06585100293159485 0.3697200119495392 0.014419999904930592
v -0.05955899879336357 0.3650769889354706 0.012721999548375607
v -0.06624499708414078 0.3677330017089844 0.009101999923586845
v -0.0563259981572628 0.36452698707580566 0.015422999858856201
v -0.05955899879336357 0.3650769889354706 -0.012552999891340733
v -0.06585100293159485 0.3697200119495392 -0.01425199955701828
v -0.06624499708414078 0.3677330017089844 -0.008932000026106834
v -0.0563259981572628 0.36452698707580566 -0.015254000201821327
v -0.06669499725103378 0.3643620014190674 0.01911100000143051
v -0.0653190016746521 0.3663020133972168 0.016566000878810883
v -0.0806329995393753 0.3779830038547516 0.04137500002980232
v -0.07339499890804291 0.36469200253486633 0.01898300088942051
v -0.06851299852132797 0.36629098653793335 0.01914599910378456
v -0.07991199940443039 0.35381099581718445 0.0114120002835989
v -0.07662100344896317 0.35425901412963867 0.013950999826192856
v -0.07814399898052216 0.36737701296806335 0.02277900092303753
v -0.07268500328063965 0.3623200058937073 0.01144499983638525
v -0.06837599724531174 0.35138198733329773 0.010835000313818455
v -0.08063799887895584 0.3509019911289215 0.015358000062406063
v -0.06891699880361557 0.3611289858818054 0.023661000654101372
v -0.07056300342082977 0.36002200841903687 0.021585000678896904
v -0.06984400004148483 0.36533400416374207 0.02188899926841259
v -0.07608100026845932 0.351516991853714 0.0000870000003487803
v -0.07519499957561493 0.34633898735046387 0.006089999806135893
v -0.08477599918842316 0.3553600013256073 0.00008800000068731606
v -0.0758569985628128 0.35968801379203796 0.004526999779045582
v -0.0732249990105629 0.3578540086746216 0.007521999999880791
v -0.07229600101709366 0.3609049916267395 0.00940600037574768
v -0.0758569985628128 0.35968801379203796 -0.004358000122010708
v -0.0732249990105629 0.3578540086746216 -0.0073529998771846294
v -0.07229600101709366 0.3609049916267395 -0.009236999787390232
v -0.06932699680328369 0.36418798565864563 0.010255999863147736
v -0.05248500034213066 0.3626829981803894 -0.020013999193906784
v -0.06669499725103378 0.3643620014190674 -0.018942000344395638
v -0.0653190016746521 0.3663020133972168 -0.01639699935913086
v -0.07662100344896317 0.35425901412963867 -0.013782000169157982
v -0.07991199940443039 0.35381099581718445 -0.011242999695241451
v -0.07339499890804291 0.36469200253486633 -0.018813999369740486
v -0.07814399898052216 0.36737701296806335 -0.022609999403357506
v -0.07268500328063965 0.3623200058937073 -0.011276000179350376
v -0.0806329995393753 0.3779830038547516 -0.04106000065803528
v -0.06851299852132797 0.36629098653793335 -0.018976999446749687
v -0.06837599724531174 0.35138198733329773 -0.010665999725461006
v -0.08063799887895584 0.3509019911289215 -0.015189000405371189
v -0.07056300342082977 0.36002200841903687 -0.02141599915921688
v -0.06891699880361557 0.3611289858818054 -0.02349199913442135
v -0.06984400004148483 0.36533400416374207 -0.021719999611377716
v -0.07519499957561493 0.34633898735046387 -0.005921000149101019
v -0.06932699680328369 0.36418798565864563 -0.010087000206112862
v -0.08539299666881561 0.3773210048675537 0.03470500186085701
v -0.07183799892663956 0.36656901240348816 0.012559999711811543
v -0.08539299666881561 0.3773210048675537 -0.03438999876379967
v -0.07183799892663956 0.36656901240348816 -0.012391000054776669
v -0.08436399698257446 0.3757709860801697 0.045827001333236694
v -0.08615700155496597 0.3746579885482788 0.035645000636577606
v -0.08227100223302841 0.35249701142311096 0.009279999881982803
v -0.0833510011434555 0.34937700629234314 0.008785000070929527
v -0.08197399973869324 0.34624600410461426 0.01513999979943037
v -0.07937300205230713 0.355228990316391 0.008015000261366367
v -0.07652600109577179 0.34508100152015686 0.012019000016152859
v -0.07630299776792526 0.34921300411224365 0.004860000219196081
v -0.07882600277662277 0.348021000623703 0.00008600000001024455
v -0.07630299776792526 0.34921300411224365 -0.00469100009649992
v -0.08310899883508682 0.3566809892654419 0.003836000105366111
v -0.0924530029296875 0.34863701462745667 0.00007000000186963007
v -0.08381299674510956 0.35344499349594116 0.003734000027179718
v -0.08310899883508682 0.3566809892654419 -0.0036669999826699495
v -0.08381299674510956 0.35344499349594116 -0.0035649999044835567
v -0.07937300205230713 0.355228990316391 -0.007845999673008919
v -0.0833510011434555 0.34937700629234314 -0.008616000413894653
v -0.08227100223302841 0.35249701142311096 -0.00911100022494793
v -0.08197399973869324 0.34624600410461426 -0.014972000382840633
v -0.08436399698257446 0.3757709860801697 -0.04551199823617935
v -0.08615700155496597 0.3746579885482788 -0.03533000126481056
v -0.07652600109577179 0.34508100152015686 -0.011850000359117985
v -0.0848499983549118 0.35048601031303406 0.0038920000661164522
v -0.08458399772644043 0.3487299978733063 0.004548000171780586
v -0.08111300319433212 0.3463740050792694 0.006928999908268452
v -0.08549900352954865 0.3452349901199341 0.00008399999933317304
v -0.08111300319433212 0.3463740050792694 -0.00675999978557229
v -0.08458399772644043 0.3487299978733063 -0.004379000049084425
v -0.09853500127792358 0.3428089916706085 0.00010800000018207356
v -0.0848499983549118 0.35048601031303406 -0.003722999943420291
v -0.09417399764060974 0.3405809998512268 0.003010000102221966
v -0.08813100308179855 0.3442780077457428 0.0042420001700520515
v -0.09626899659633636 0.3352459967136383 0.0023739999160170555
v -0.09680700302124023 0.33519598841667175 0.00012399999832268804
v -0.09626899659633636 0.3352459967136383 -0.0021200000774115324
v -0.08813100308179855 0.3442780077457428 -0.00407300004735589
v -0.10091999918222427 0.340844988822937 0.00304200011305511
v -0.1017720028758049 0.3400860130786896 0.00011300000187475234
v -0.09417399764060974 0.3405809998512268 -0.002756000030785799
v -0.10091999918222427 0.340844988822937 -0.002788000041618943
v -0.1004289984703064 0.3378799855709076 0.0035210000351071358
v -0.09934400022029877 0.33620700240135193 0.00010800000018207356
v -0.1004289984703064 0.3378799855709076 -0.003266999963670969
f 1 2 3
f 4 2 1
f 4 1 5
f 3 6 1
f 1 6 7
f 5 1 7
f 2 8 3
f 8 2 4
f 8 9 3
f 10 11 3
f 3 12 10
f 13 12 3
f 3 9 13
f 3 14 6
f 3 15 14
f 3 11 16
f 16 17 3
f 3 17 18
f 18 15 3
f 19 20 4
f 19 4 5
f 21 4 20
f 8 4 21
f 5 7 19
f 7 6 14
f 7 22 19
f 22 7 23
f 23 7 14
f 9 8 21
f 9 21 24
f 13 9 24
f 11 10 25
f 12 25 10
f 11 25 26
f 27 16 11
f 26 27 11
f 28 29 12
f 28 12 13
f 12 29 30
f 12 30 25
f 13 24 28
f 23 14 15
f 31 23 15
f 31 15 18
f 16 27 17
f 17 32 33
f 18 17 33
f 34 32 17
f 27 34 17
f 33 31 18
f 35 20 19
f 19 22 35
f 35 36 20
f 37 20 36
f 21 20 37
f 24 21 37
f 22 38 35
f 38 22 39
f 39 22 23
f 39 23 31
f 24 37 40
f 28 24 40
f 41 26 25
f 41 25 30
f 26 41 42
f 42 43 26
f 27 26 43
f 34 27 43
f 28 40 44
f 44 29 28
f 44 45 29
f 30 29 46
f 29 45 46
f 41 30 46
f 47 39 31
f 47 31 33
f 32 48 49
f 33 32 49
f 50 32 34
f 50 48 32
f 49 47 33
f 50 34 43
f 51 36 35
f 35 38 51
f 51 52 36
f 53 36 52
f 37 36 53
f 40 37 53
f 38 54 51
f 54 38 55
f 55 38 39
f 55 39 47
f 40 53 56
f 44 40 56
f 42 41 57
f 41 58 57
f 41 46 58
f 42 57 59
f 60 43 42
f 59 60 42
f 60 61 43
f 61 50 43
f 44 56 62
f 62 45 44
f 62 63 45
f 64 45 65
f 66 65 45
f 66 45 63
f 45 64 46
f 58 46 67
f 67 46 64
f 68 55 47
f 68 47 49
f 48 69 70
f 49 48 70
f 71 48 72
f 48 71 73
f 69 48 73
f 50 72 48
f 70 68 49
f 74 50 61
f 72 50 74
f 75 52 51
f 51 54 75
f 75 76 52
f 77 52 76
f 53 52 77
f 56 53 77
f 54 78 75
f 78 54 79
f 79 54 55
f 79 55 68
f 56 77 80
f 62 56 80
f 59 57 81
f 57 58 82
f 57 82 81
f 67 82 58
f 59 81 83
f 84 60 59
f 83 84 59
f 85 61 60
f 84 85 60
f 61 85 74
f 62 80 86
f 86 63 62
f 86 87 63
f 88 66 63
f 88 63 87
f 89 90 64
f 89 64 91
f 64 65 66
f 64 66 91
f 64 90 92
f 64 92 67
f 66 93 94
f 66 94 91
f 88 93 66
f 95 67 96
f 67 95 97
f 67 97 98
f 92 96 67
f 67 98 82
f 99 79 68
f 99 68 70
f 69 100 101
f 70 69 101
f 69 73 102
f 100 69 102
f 101 99 70
f 73 71 72
f 72 103 104
f 105 72 104
f 105 73 72
f 106 103 72
f 74 106 72
f 107 108 73
f 105 107 73
f 73 108 102
f 109 74 95
f 97 95 74
f 110 97 74
f 74 109 106
f 85 110 74
f 76 75 111
f 111 75 78
f 77 76 112
f 112 76 111
f 113 80 77
f 113 77 112
f 114 78 79
f 111 78 114
f 79 99 115
f 114 79 115
f 116 86 80
f 116 80 113
f 117 118 81
f 81 119 117
f 81 98 119
f 98 81 82
f 83 81 111
f 81 120 111
f 118 120 81
f 111 84 83
f 84 121 122
f 122 123 84
f 123 110 84
f 85 84 110
f 111 124 84
f 84 124 121
f 116 87 86
f 120 88 87
f 116 120 87
f 120 118 88
f 88 125 93
f 125 88 126
f 126 88 118
f 127 128 89
f 128 90 89
f 89 91 125
f 129 89 125
f 127 89 129
f 130 131 90
f 128 132 90
f 90 131 92
f 90 133 130
f 90 132 133
f 91 94 125
f 96 92 134
f 135 134 92
f 135 92 131
f 125 136 93
f 136 94 93
f 136 137 94
f 137 138 94
f 94 138 125
f 95 96 139
f 139 109 95
f 139 96 140
f 96 134 140
f 141 142 97
f 97 142 143
f 97 143 144
f 144 98 97
f 97 145 141
f 146 145 97
f 147 146 97
f 97 110 147
f 144 148 98
f 98 148 119
f 99 101 149
f 115 99 149
f 101 100 149
f 100 102 124
f 100 124 149
f 102 121 124
f 108 150 102
f 151 102 150
f 121 102 151
f 103 152 153
f 104 103 154
f 103 155 154
f 106 152 103
f 153 156 103
f 156 155 103
f 104 154 157
f 150 105 104
f 150 104 158
f 158 104 157
f 150 107 105
f 159 106 109
f 106 159 160
f 152 106 160
f 107 161 162
f 108 107 162
f 107 163 161
f 150 163 107
f 108 162 150
f 164 109 139
f 164 159 109
f 110 165 147
f 123 165 110
f 113 112 111
f 116 113 111
f 120 116 111
f 111 114 115
f 111 115 149
f 111 149 124
f 118 117 126
f 127 126 117
f 166 127 117
f 166 117 167
f 117 148 167
f 148 117 119
f 151 122 121
f 122 151 157
f 122 157 168
f 169 122 168
f 169 165 122
f 123 122 165
f 125 138 136
f 125 126 129
f 127 129 126
f 127 170 128
f 170 127 166
f 128 170 171
f 132 128 171
f 135 131 130
f 130 172 173
f 130 173 174
f 130 174 135
f 172 130 175
f 133 175 130
f 132 171 166
f 132 166 167
f 148 133 132
f 148 132 167
f 144 133 148
f 175 133 143
f 143 133 144
f 135 176 134
f 134 176 140
f 135 174 176
f 136 138 137
f 139 140 177
f 139 177 178
f 179 164 139
f 178 179 139
f 140 176 177
f 180 142 141
f 141 181 182
f 141 182 180
f 141 145 183
f 184 181 141
f 183 184 141
f 180 143 142
f 180 175 143
f 145 146 183
f 146 185 183
f 146 156 185
f 147 156 146
f 165 156 147
f 162 163 150
f 158 151 150
f 151 158 157
f 153 152 160
f 186 187 153
f 188 186 153
f 160 188 153
f 185 153 187
f 153 185 156
f 154 189 157
f 190 189 154
f 190 154 155
f 168 190 155
f 169 168 155
f 155 156 165
f 169 155 165
f 168 157 189
f 159 191 160
f 164 191 159
f 191 188 160
f 161 163 162
f 179 191 164
f 170 166 171
f 190 168 189
f 182 172 175
f 192 173 172
f 192 172 182
f 193 194 173
f 193 173 192
f 194 174 173
f 194 176 174
f 182 175 180
f 177 176 194
f 177 194 193
f 177 193 195
f 178 177 195
f 195 179 178
f 196 191 179
f 197 196 179
f 195 197 179
f 181 198 192
f 181 192 182
f 199 198 181
f 184 199 181
f 183 185 184
f 185 187 184
f 184 187 199
f 187 186 199
f 186 196 197
f 199 186 197
f 186 188 196
f 188 191 196
f 198 200 192
f 201 193 192
f 201 192 200
f 202 195 193
f 202 193 201
f 195 202 203
f 203 204 195
f 197 195 204
f 199 197 205
f 205 197 204
f 198 206 200
f 207 206 198
f 208 209 198
f 199 208 198
f 198 209 207
f 208 199 205
f 202 201 200
f 202 200 210
f 206 210 200
f 203 202 210
f 203 210 211
f 212 204 203
f 211 212 203
f 208 205 204
f 212 208 204
f 211 210 206
f 211 206 207
f 207 209 211
f 208 212 209
f 209 212 211
