# Generated by Visualization Toolkit
v -0.05170400068163872 0.14776299893856049 0.00002499999936844688
v -0.052583999931812286 0.14788499474525452 0.00812199991196394
v -0.06717000156641006 0.14462999999523163 0.000003000000106112566
v -0.051934998482465744 0.1519470065832138 0.009743999689817429
v -0.051075998693704605 0.1494089961051941 0.000025999999706982635
v -0.052583999931812286 0.14788499474525452 -0.00812199991196394
v -0.051934998482465744 0.1519470065832138 -0.009743999689817429
v -0.05736299976706505 0.14746899902820587 0.01654900051653385
v -0.06489700078964233 0.14617599546909332 0.02064800076186657
v -0.08082900196313858 0.14105500280857086 0.004883999936282635
v -0.08103600144386292 0.141293004155159 0.000003000000106112566
v -0.0812930017709732 0.14120900630950928 0.01437699981033802
v -0.07668100297451019 0.14346300065517426 0.02075899951159954
v -0.05736299976706505 0.14746899902820587 -0.01654900051653385
v -0.06489700078964233 0.14617599546909332 -0.02064800076186657
v -0.08082900196313858 0.14105500280857086 -0.004883999936282635
v -0.0812930017709732 0.14120900630950928 -0.01437699981033802
v -0.07668100297451019 0.14346300065517426 -0.02075899951159954
v -0.05276099964976311 0.1535860002040863 0.00002700000004551839
v -0.05434200167655945 0.1537420004606247 0.010432000271975994
v -0.057955000549554825 0.15160000324249268 0.0175819993019104
v -0.05434200167655945 0.1537420004606247 -0.010432000271975994
v -0.057955000549554825 0.15160000324249268 -0.0175819993019104
v -0.06711100041866302 0.15056300163269043 0.021354999393224716
v -0.08344300091266632 0.14453299343585968 0.005026000086218119
v -0.08576399832963943 0.14330099523067474 0.000003000000106112566
v -0.08344300091266632 0.14453299343585968 -0.005026000086218119
v -0.07919900119304657 0.14819300174713135 0.02150600031018257
v -0.08472000062465668 0.14113600552082062 0.016145000234246254
v -0.08463100343942642 0.1457509994506836 0.009553000330924988
v -0.06711100041866302 0.15056300163269043 -0.021354999393224716
v -0.08472000062465668 0.14113600552082062 -0.016145000234246254
v -0.07919900119304657 0.14819300174713135 -0.02150600031018257
v -0.08463100343942642 0.1457509994506836 -0.009553000330924988
v -0.05418499931693077 0.1620510071516037 0.000029000000722589903
v -0.05547900125384331 0.16084900498390198 0.010068000294268131
v -0.06064299866557121 0.15388600528240204 0.017142999917268753
v -0.05547900125384331 0.16084900498390198 -0.010068000294268131
v -0.06064299866557121 0.15388600528240204 -0.017142999917268753
v -0.06808499991893768 0.15448500216007233 0.019426999613642693
v -0.08428700268268585 0.15139099955558777 0.006444999948143959
v -0.0837780013680458 0.1514820009469986 0.000004999999873689376
v -0.08428700268268585 0.15139099955558777 -0.006444999948143959
v -0.077674001455307 0.1524379998445511 0.020354999229311943
v -0.08287899941205978 0.1502770036458969 0.01924699917435646
v -0.08629100024700165 0.1516840010881424 0.009856999851763248
v -0.06808499991893768 0.15448500216007233 -0.019426999613642693
v -0.08287899941205978 0.1502770036458969 -0.01924699917435646
v -0.077674001455307 0.1524379998445511 -0.020354999229311943
v -0.08629100024700165 0.1516840010881424 -0.009856999851763248
v -0.05418600142002106 0.16574299335479736 0.000029999999242136255
v -0.05476899817585945 0.16529899835586548 0.011137000285089016
v -0.06161300092935562 0.16062499582767487 0.017802000045776367
v -0.05476899817585945 0.16529899835586548 -0.011137000285089016
v -0.06161300092935562 0.16062499582767487 -0.017802000045776367
v -0.0667169988155365 0.16015000641345978 0.019516000524163246
v -0.08695299923419952 0.1606229990720749 0.006659999955445528
v -0.08906099945306778 0.16078400611877441 0.010307000018656254
v -0.08621399849653244 0.1608079969882965 0.000007999999979801942
v -0.08695299923419952 0.1606229990720749 -0.006659999955445528
v -0.08906099945306778 0.16078400611877441 -0.010307000018656254
v -0.0772479996085167 0.15928299725055695 0.020501000806689262
v -0.08231599628925323 0.159621000289917 0.020899999886751175
v -0.08912999927997589 0.1491439938545227 0.01733900047838688
v -0.08659099787473679 0.15208399295806885 0.021258000284433365
v -0.0890439972281456 0.15868499875068665 0.025419000536203384
v -0.09590599685907364 0.15562699735164642 0.003782999934628606
v -0.0667169988155365 0.16015000641345978 -0.019516000524163246
v -0.08231599628925323 0.159621000289917 -0.020899999886751175
v -0.0772479996085167 0.15928299725055695 -0.020501000806689262
v -0.08659099787473679 0.15208399295806885 -0.021258000284433365
v -0.08912999927997589 0.1491439938545227 -0.01733900047838688
v -0.0890439972281456 0.15868499875068665 -0.025419000536203384
v -0.09590599685907364 0.15562699735164642 -0.003782999934628606
v -0.054947998374700546 0.16978099942207336 0.00003099999958067201
v -0.05578000098466873 0.1694599986076355 0.011340999975800514
v -0.060113999992609024 0.16431200504302979 0.018843000754714012
v -0.05578000098466873 0.1694599986076355 -0.011340999975800514
v -0.060113999992609024 0.16431200504302979 -0.018843000754714012
v -0.06639999896287918 0.16309599578380585 0.021578999236226082
v -0.08849400281906128 0.16718600690364838 0.008489999920129776
v -0.08904299885034561 0.16551999747753143 0.01106599997729063
v -0.08664999902248383 0.16654199361801147 0.000009000000318337698
v -0.08849400281906128 0.16718600690364838 -0.008489999920129776
v -0.08904299885034561 0.16551999747753143 -0.01106599997729063
v -0.07554999738931656 0.16346900165081024 0.02261899970471859
v -0.08395399898290634 0.16349999606609344 0.020197000354528427
v -0.09064900130033493 0.16388800740242004 0.020244000479578972
v -0.09964700043201447 0.1586350053548813 0.02346399985253811
v -0.09728199988603592 0.15498299896717072 0.017438000068068504
v -0.09358199685811996 0.14971399307250977 0.025098999962210655
v -0.09081199765205383 0.1464489996433258 0.01068700011819601
v -0.09401299804449081 0.1582069993019104 0.024139000102877617
v -0.0949229970574379 0.15157799422740936 0.02194499969482422
v -0.09588900208473206 0.1505430042743683 0.000003999999989900971
v -0.09364499896764755 0.1367270052433014 0.005189999938011169
v -0.10498099774122238 0.15726199746131897 0.000004999999873689376
v -0.09893299639225006 0.160848006606102 0.007830999791622162
v -0.06639999896287918 0.16309599578380585 -0.021578999236226082
v -0.08395399898290634 0.16349999606609344 -0.020197000354528427
v -0.07554999738931656 0.16346900165081024 -0.02261899970471859
v -0.09064900130033493 0.16388800740242004 -0.020244000479578972
v -0.09728199988603592 0.15498299896717072 -0.017438000068068504
v -0.09964700043201447 0.1586350053548813 -0.02346399985253811
v -0.09358199685811996 0.14971399307250977 -0.025097999721765518
v -0.09081199765205383 0.1464489996433258 -0.01068700011819601
v -0.0949229970574379 0.15157799422740936 -0.02194499969482422
v -0.09401299804449081 0.1582069993019104 -0.024139000102877617
v -0.09364499896764755 0.1367270052433014 -0.005189999938011169
v -0.09893299639225006 0.160848006606102 -0.007830999791622162
v -0.07079900056123734 0.16816100478172302 0.000009000000318337698
v -0.060954999178647995 0.16868700087070465 0.0191040001809597
v -0.06819599866867065 0.16804499924182892 0.022621000185608864
v -0.060954999178647995 0.16868700087070465 -0.0191040001809597
v -0.06819599866867065 0.16804499924182892 -0.022621000185608864
v -0.07747100293636322 0.16659699380397797 0.022760000079870224
v -0.09885100275278091 0.1693190038204193 0.016234999522566795
v -0.09059400111436844 0.16558000445365906 0.014310999773442745
v -0.09827999770641327 0.16689500212669373 0.010211000218987465
v -0.08646299690008163 0.16696199774742126 0.01737000048160553
v -0.09059400111436844 0.16558000445365906 -0.014310999773442745
v -0.09885100275278091 0.1693190038204193 -0.016234999522566795
v -0.09827999770641327 0.16689500212669373 -0.010211000218987465
v -0.08646299690008163 0.16696199774742126 -0.01737000048160553
v -0.09704799950122833 0.16290999948978424 0.021546000614762306
v -0.09641899913549423 0.16585400700569153 0.018664000555872917
v -0.1072319969534874 0.1686280071735382 0.029041999951004982
v -0.10707300156354904 0.16079799830913544 0.021400999277830124
v -0.10024099797010422 0.16398300230503082 0.02158600091934204
v -0.10367000102996826 0.14685499668121338 0.01282699964940548
v -0.09935300052165985 0.14879700541496277 0.015703000128269196
v -0.11349300295114517 0.15952500700950623 0.025699999183416367
v -0.10322999954223633 0.15867699682712555 0.012865000404417515
v -0.09196200221776962 0.14774799346923828 0.012174000032246113
v -0.10301300138235092 0.14322100579738617 0.01729699969291687
v -0.0980139970779419 0.15804700553417206 0.026698999106884003
v -0.09940499812364578 0.15586699545383453 0.024348000064492226
v -0.10133399814367294 0.16215300559997559 0.024692000821232796
v -0.0970190018415451 0.14103899896144867 0.000003000000106112566
v -0.09323800355195999 0.13583600521087646 0.006800999864935875
v -0.11031399667263031 0.1457359939813614 0.000003999999989900971
v -0.10557600110769272 0.15241800248622894 0.005030999891459942
v -0.10145799815654755 0.1519239991903305 0.008422000333666801
v -0.10202000290155411 0.15734100341796875 0.010556000284850597
v -0.10557600110769272 0.15241800248622894 -0.005030999891459942
v -0.10145799815654755 0.1519239991903305 -0.008422000333666801
v -0.10202000290155411 0.15734100341796875 -0.010556000284850597
v -0.10011199861764908 0.161188006401062 0.011517999693751335
v -0.07747100293636322 0.16659699380397797 -0.022760000079870224
v -0.09704799950122833 0.16290999948978424 -0.021546000614762306
v -0.09641899913549423 0.16585400700569153 -0.018664000555872917
v -0.09935300052165985 0.14879700541496277 -0.015703000128269196
v -0.10367000102996826 0.14685499668121338 -0.01282699964940548
v -0.10707300156354904 0.16079799830913544 -0.021400999277830124
v -0.11349300295114517 0.15952500700950623 -0.025699999183416367
v -0.10322999954223633 0.15867699682712555 -0.012865000404417515
v -0.1072319969534874 0.1686280071735382 -0.029041999951004982
v -0.10024099797010422 0.16398300230503082 -0.02158600091934204
v -0.09196200221776962 0.14774799346923828 -0.012174000032246113
v -0.10301300138235092 0.14322100579738617 -0.01729699969291687
v -0.09940499812364578 0.15586699545383453 -0.024348000064492226
v -0.0980139970779419 0.15804700553417206 -0.026698999106884003
v -0.10133399814367294 0.16215300559997559 -0.024692000821232796
v -0.09323800355195999 0.13583600521087646 -0.006800999864935875
v -0.10011199861764908 0.161188006401062 -0.011517999693751335
v -0.11259199678897858 0.16512799263000488 0.024342000484466553
v -0.10444600135087967 0.16386300325393677 0.014127000235021114
v -0.11259199678897858 0.16512799263000488 -0.024342000484466553
v -0.10444600135087967 0.16386300325393677 -0.014127000235021114
v -0.11054400354623795 0.164014995098114 0.03217900171875954
v -0.11210799962282181 0.16174200177192688 0.025004999712109566
v -0.10580699890851974 0.14403200149536133 0.010413000360131264
v -0.10546299815177917 0.139956995844841 0.009852999821305275
v -0.1021680012345314 0.1373009979724884 0.0170499999076128
v -0.1037679985165596 0.14873400330543518 0.008980000391602516
v -0.09417200088500977 0.13367299735546112 0.013515000231564045
v -0.09607499837875366 0.1383659988641739 0.005408000200986862
v -0.09932799637317657 0.14109300076961517 9.999999974752427e-7
v -0.09607499837875366 0.1383659988641739 -0.005408000200986862
v -0.10900899767875671 0.14816400408744812 0.004248000215739012
v -0.11413399875164032 0.14015300571918488 -0.000015999999959603883
v -0.10815399885177612 0.1441809982061386 0.004131999798119068
v -0.10900899767875671 0.14816400408744812 -0.004248000215739012
v -0.10815399885177612 0.1441809982061386 -0.004131999798119068
v -0.1037679985165596 0.14873400330543518 -0.008980000391602516
v -0.10546299815177917 0.139956995844841 -0.009852999821305275
v -0.10580699890851974 0.14403200149536133 -0.010413000360131264
v -0.1021680012345314 0.1373009979724884 -0.0170499999076128
v -0.11054400354623795 0.164014995098114 -0.03217900171875954
v -0.11210799962282181 0.16174200177192688 -0.025004999712109566
v -0.09417200088500977 0.13367299735546112 -0.013515000231564045
v -0.10784199833869934 0.14031000435352325 0.004310999996960163
v -0.10660099983215332 0.13852599263191223 0.005053999833762646
v -0.10120400041341782 0.13794399797916412 0.007751000113785267
v -0.10586199909448624 0.1341329962015152 0
v -0.10120400041341782 0.13794399797916412 -0.007751000113785267
v -0.10660099983215332 0.13852599263191223 -0.005053999833762646
v -0.12011100351810455 0.13253499567508698 -0.00002099999983329326
v -0.10784199833869934 0.14031000435352325 -0.004310999996960163
v -0.11207199841737747 0.13322100043296814 0.004689999856054783
v -0.10851500183343887 0.1315460056066513 0.0047079999931156635
v -0.11169199645519257 0.12524700164794922 0.0036559998989105225
v -0.11346200108528137 0.12446700036525726 -0.000003000000106112566
v -0.11169199645519257 0.12524700164794922 -0.0036559998989105225
v -0.10851500183343887 0.1315460056066513 -0.0047079999931156635
v -0.1211320012807846 0.12925100326538086 0.004741999786347151
v -0.12185399979352951 0.12787699699401855 -0.000022000000171829015
v -0.11207199841737747 0.13322100043296814 -0.004689999856054783
v -0.1211320012807846 0.12925100326538086 -0.004741999786347151
v -0.11890199780464172 0.1262959986925125 0.0055229999125003815
v -0.1176609992980957 0.12475399672985077 -0.00002099999983329326
v -0.11890199780464172 0.1262959986925125 -0.0055229999125003815
f 1 2 3
f 4 2 1
f 4 1 5
f 3 6 1
f 1 6 7
f 5 1 7
f 2 8 3
f 8 2 4
f 8 9 3
f 10 11 3
f 3 12 10
f 13 12 3
f 3 9 13
f 3 14 6
f 3 15 14
f 3 11 16
f 16 17 3
f 3 17 18
f 18 15 3
f 19 20 4
f 19 4 5
f 21 4 20
f 8 4 21
f 5 7 19
f 7 6 14
f 7 22 19
f 22 7 23
f 23 7 14
f 9 8 21
f 9 21 24
f 13 9 24
f 11 10 25
f 12 25 10
f 11 25 26
f 27 16 11
f 26 27 11
f 28 29 12
f 28 12 13
f 12 29 30
f 12 30 25
f 13 24 28
f 23 14 15
f 31 23 15
f 31 15 18
f 16 27 17
f 17 32 33
f 18 17 33
f 34 32 17
f 27 34 17
f 33 31 18
f 35 20 19
f 19 22 35
f 35 36 20
f 37 20 36
f 21 20 37
f 24 21 37
f 22 38 35
f 38 22 39
f 39 22 23
f 39 23 31
f 24 37 40
f 28 24 40
f 41 26 25
f 41 25 30
f 26 41 42
f 42 43 26
f 27 26 43
f 34 27 43
f 28 40 44
f 44 29 28
f 44 45 29
f 30 29 46
f 29 45 46
f 41 30 46
f 47 39 31
f 47 31 33
f 32 48 49
f 33 32 49
f 50 32 34
f 50 48 32
f 49 47 33
f 50 34 43
f 51 36 35
f 35 38 51
f 51 52 36
f 53 36 52
f 37 36 53
f 40 37 53
f 38 54 51
f 54 38 55
f 55 38 39
f 55 39 47
f 40 53 56
f 44 40 56
f 42 41 57
f 41 58 57
f 41 46 58
f 42 57 59
f 60 43 42
f 59 60 42
f 60 61 43
f 61 50 43
f 44 56 62
f 62 45 44
f 62 63 45
f 64 45 65
f 66 65 45
f 66 45 63
f 45 64 46
f 58 46 67
f 67 46 64
f 68 55 47
f 68 47 49
f 48 69 70
f 49 48 70
f 71 48 72
f 48 71 73
f 69 48 73
f 50 72 48
f 70 68 49
f 74 50 61
f 72 50 74
f 75 52 51
f 51 54 75
f 75 76 52
f 77 52 76
f 53 52 77
f 56 53 77
f 54 78 75
f 78 54 79
f 79 54 55
f 79 55 68
f 56 77 80
f 62 56 80
f 59 57 81
f 57 58 82
f 57 82 81
f 67 82 58
f 59 81 83
f 84 60 59
f 83 84 59
f 85 61 60
f 84 85 60
f 61 85 74
f 62 80 86
f 86 63 62
f 86 87 63
f 88 66 63
f 88 63 87
f 89 90 64
f 89 64 91
f 64 65 66
f 64 66 91
f 64 90 92
f 64 92 67
f 66 93 94
f 66 94 91
f 88 93 66
f 95 67 96
f 67 95 97
f 67 97 98
f 92 96 67
f 67 98 82
f 99 79 68
f 99 68 70
f 69 100 101
f 70 69 101
f 69 73 102
f 100 69 102
f 101 99 70
f 73 71 72
f 72 103 104
f 105 72 104
f 105 73 72
f 106 103 72
f 74 106 72
f 107 108 73
f 105 107 73
f 73 108 102
f 109 74 95
f 97 95 74
f 110 97 74
f 74 109 106
f 85 110 74
f 76 75 111
f 111 75 78
f 77 76 112
f 112 76 111
f 113 80 77
f 113 77 112
f 114 78 79
f 111 78 114
f 79 99 115
f 114 79 115
f 116 86 80
f 116 80 113
f 117 118 81
f 81 119 117
f 81 98 119
f 98 81 82
f 83 81 111
f 81 120 111
f 118 120 81
f 111 84 83
f 84 121 122
f 122 123 84
f 123 110 84
f 85 84 110
f 111 124 84
f 84 124 121
f 116 87 86
f 120 88 87
f 116 120 87
f 120 118 88
f 88 125 93
f 125 88 126
f 126 88 118
f 127 128 89
f 128 90 89
f 89 91 125
f 129 89 125
f 127 89 129
f 130 131 90
f 128 132 90
f 90 131 92
f 90 133 130
f 90 132 133
f 91 94 125
f 96 92 134
f 135 134 92
f 135 92 131
f 125 136 93
f 136 94 93
f 136 137 94
f 137 138 94
f 94 138 125
f 95 96 139
f 139 109 95
f 139 96 140
f 96 134 140
f 141 142 97
f 97 142 143
f 97 143 144
f 144 98 97
f 97 145 141
f 146 145 97
f 147 146 97
f 97 110 147
f 144 148 98
f 98 148 119
f 99 101 149
f 115 99 149
f 101 100 149
f 100 102 124
f 100 124 149
f 102 121 124
f 108 150 102
f 151 102 150
f 121 102 151
f 103 152 153
f 104 103 154
f 103 155 154
f 106 152 103
f 153 156 103
f 156 155 103
f 104 154 157
f 150 105 104
f 150 104 158
f 158 104 157
f 150 107 105
f 159 106 109
f 106 159 160
f 152 106 160
f 107 161 162
f 108 107 162
f 107 163 161
f 150 163 107
f 108 162 150
f 164 109 139
f 164 159 109
f 110 165 147
f 123 165 110
f 113 112 111
f 116 113 111
f 120 116 111
f 111 114 115
f 111 115 149
f 111 149 124
f 118 117 126
f 127 126 117
f 166 127 117
f 166 117 167
f 117 148 167
f 148 117 119
f 151 122 121
f 122 151 157
f 122 157 168
f 169 122 168
f 169 165 122
f 123 122 165
f 125 138 136
f 125 126 129
f 127 129 126
f 127 170 128
f 170 127 166
f 128 170 171
f 132 128 171
f 135 131 130
f 130 172 173
f 130 173 174
f 130 174 135
f 172 130 175
f 133 175 130
f 132 171 166
f 132 166 167
f 148 133 132
f 148 132 167
f 144 133 148
f 175 133 143
f 143 133 144
f 135 176 134
f 134 176 140
f 135 174 176
f 136 138 137
f 139 140 177
f 139 177 178
f 179 164 139
f 178 179 139
f 140 176 177
f 180 142 141
f 141 181 182
f 141 182 180
f 141 145 183
f 184 181 141
f 183 184 141
f 180 143 142
f 180 175 143
f 145 146 183
f 146 185 183
f 146 156 185
f 147 156 146
f 165 156 147
f 162 163 150
f 158 151 150
f 151 158 157
f 153 152 160
f 186 187 153
f 188 186 153
f 160 188 153
f 185 153 187
f 153 185 156
f 154 189 157
f 190 189 154
f 190 154 155
f 168 190 155
f 169 168 155
f 155 156 165
f 169 155 165
f 168 157 189
f 159 191 160
f 164 191 159
f 191 188 160
f 161 163 162
f 179 191 164
f 170 166 171
f 190 168 189
f 182 172 175
f 192 173 172
f 192 172 182
f 193 194 173
f 193 173 192
f 194 174 173
f 194 176 174
f 182 175 180
f 177 176 194
f 177 194 193
f 177 193 195
f 178 177 195
f 195 179 178
f 196 191 179
f 197 196 179
f 195 197 179
f 181 198 192
f 181 192 182
f 199 198 181
f 184 199 181
f 183 185 184
f 185 187 184
f 184 187 199
f 187 186 199
f 186 196 197
f 199 186 197
f 186 188 196
f 188 191 196
f 198 200 192
f 201 193 192
f 201 192 200
f 202 195 193
f 202 193 201
f 195 202 203
f 203 204 195
f 197 195 204
f 199 197 205
f 205 197 204
f 198 206 200
f 207 206 198
f 208 209 198
f 199 208 198
f 198 209 207
f 208 199 205
f 202 201 200
f 202 200 210
f 206 210 200
f 203 202 210
f 203 210 211
f 212 204 203
f 211 212 203
f 208 205 204
f 212 208 204
f 211 210 206
f 211 206 207
f 207 209 211
f 208 212 209
f 209 212 211
