# Generated by Visualization Toolkit
v -0.05823000147938728 0.2706280052661896 0.0015219999477267265
v -0.05883000046014786 0.2710449993610382 0.00914200022816658
v -0.07047200202941895 0.27338600158691406 0.0015020000282675028
v -0.05704300105571747 0.27434301376342773 0.010666999965906143
v -0.05724199861288071 0.27183398604393005 0.0015239999629557133
v -0.05883000046014786 0.2710449993610382 -0.006144000217318535
v -0.05704300105571747 0.27434301376342773 -0.007670000195503235
v -0.06243399903178215 0.27237600088119507 0.01707099936902523
v -0.06832099705934525 0.27392300963401794 0.020927999168634415
v -0.08154500275850296 0.27511999011039734 0.006095000077039003
v -0.08161800354719162 0.2754000127315521 0.0015020000282675028
v -0.08183199912309647 0.2754180133342743 0.01502699963748455
v -0.07775399833917618 0.27574101090431213 0.021031999960541725
v -0.06243399903178215 0.27237600088119507 -0.01407300028949976
v -0.06832099705934525 0.27392300963401794 -0.01792999915778637
v -0.08154500275850296 0.27511999011039734 -0.003097000066190958
v -0.08183199912309647 0.2754180133342743 -0.012028999626636505
v -0.07775399833917618 0.27574101090431213 -0.01803399994969368
v -0.05711299926042557 0.27605798840522766 0.0015239999629557133
v -0.05821099877357483 0.2767539918422699 0.011315000243484974
v -0.06152699887752533 0.27617400884628296 0.018042000010609627
v -0.05821099877357483 0.2767539918422699 -0.008317000232636929
v -0.06152699887752533 0.27617400884628296 -0.015045000240206718
v -0.06850899755954742 0.2785170078277588 0.02159300073981285
v -0.08441200107336044 0.27893900871276855 0.00622900016605854
v -0.08440099656581879 0.2788180112838745 0.0015020000282675028
v -0.08441200107336044 0.27893900871276855 -0.0032309999223798513
v -0.07805199921131134 0.28074100613594055 0.02173599973320961
v -0.08434399962425232 0.2765679955482483 0.016690999269485474
v -0.08502499759197235 0.28041398525238037 0.010487999767065048
v -0.06850899755954742 0.2785170078277588 -0.018595000728964806
v -0.08434399962425232 0.2765679955482483 -0.013693000189960003
v -0.07805199921131134 0.28074100613594055 -0.018737999722361565
v -0.08502499759197235 0.28041398525238037 -0.00749000022187829
v -0.0553940013051033 0.28456398844718933 0.0015259999781847
v -0.05680299922823906 0.2839379906654358 0.01097199972718954
v -0.06273800134658813 0.27911099791526794 0.017628999426960945
v -0.05680299922823906 0.2839379906654358 -0.007974999956786633
v -0.06273800134658813 0.27911099791526794 -0.014631999656558037
v -0.06794700026512146 0.2822679877281189 0.01977900043129921
v -0.0830869972705841 0.28527599573135376 0.007563000079244375
v -0.0826449990272522 0.2851850092411041 0.0015030000358819962
v -0.0830869972705841 0.28527599573135376 -0.00456599984318018
v -0.07738299667835236 0.2839759886264801 0.02065199986100197
v -0.08226600289344788 0.2838189899921417 0.0196090005338192
v -0.08463600277900696 0.28620800375938416 0.010773999616503716
v -0.06794700026512146 0.2822679877281189 -0.016781000420451164
v -0.08226600289344788 0.2838189899921417 -0.01661200076341629
v -0.07738299667835236 0.2839759886264801 -0.017653999850153923
v -0.08463600277900696 0.28620800375938416 -0.007776999846100807
v -0.05431000143289566 0.28782200813293457 0.0015279999934136868
v -0.05491600185632706 0.2876270115375519 0.011978000402450562
v -0.061873000115156174 0.2858020067214966 0.01824899949133396
v -0.05491600185632706 0.2876270115375519 -0.008980000391602516
v -0.061873000115156174 0.2858020067214966 -0.015251999720931053
v -0.06617899984121323 0.2870990037918091 0.019863000139594078
v -0.07996299862861633 0.2925420105457306 0.007765000220388174
v -0.08163599669933319 0.29339298605918884 0.011196999810636044
v -0.07930599898099899 0.2924570143222809 0.0015059999423101544
v -0.07996299862861633 0.2925420105457306 -0.004767999984323978
v -0.08163599669933319 0.29339298605918884 -0.008198999799787998
v -0.0750259980559349 0.28987500071525574 0.02078999951481819
v -0.07906299829483032 0.29187700152397156 0.021165000274777412
v -0.0877000018954277 0.28492099046707153 0.017813999205827713
v -0.08476399630308151 0.2866620123386383 0.021501999348402023
v -0.08223900198936462 0.29153499007225037 0.02541700005531311
v -0.09172099828720093 0.2897289991378784 0.005059000104665756
v -0.06617899984121323 0.2870990037918091 -0.016865000128746033
v -0.07906299829483032 0.29187700152397156 -0.018167000263929367
v -0.0750259980559349 0.28987500071525574 -0.017791999503970146
v -0.08476399630308151 0.2866620123386383 -0.018503999337553978
v -0.0877000018954277 0.28492099046707153 -0.014816000126302242
v -0.08223900198936462 0.29153499007225037 -0.022419000044465065
v -0.09172099828720093 0.2897289991378784 -0.002061000093817711
v -0.05374699831008911 0.2916420102119446 0.0015279999934136868
v -0.05451999977231026 0.2916390001773834 0.01217000000178814
v -0.059567999094724655 0.2885519862174988 0.01923000067472458
v -0.05451999977231026 0.2916390001773834 -0.009173000231385231
v -0.059567999094724655 0.2885519862174988 -0.016232000663876534
v -0.06505399942398071 0.28959301114082336 0.021803999319672585
v -0.07929400354623795 0.2988530099391937 0.009487999603152275
v -0.08023100346326828 0.2975679934024811 0.011912000365555286
v -0.07797800004482269 0.29766398668289185 0.0015069999499246478
v -0.07929400354623795 0.2988530099391937 -0.006490000057965517
v -0.08023100346326828 0.2975679934024811 -0.008914000354707241
v -0.07241100072860718 0.29299798607826233 0.022783000022172928
v -0.07667200267314911 0.29407399892807007 0.020502999424934387
v -0.08202099800109863 0.2966670095920563 0.020547999069094658
v -0.09397699683904648 0.29357901215553284 0.02357799932360649
v -0.09303099662065506 0.28958699107170105 0.017907999455928802
v -0.09142900258302689 0.2837370038032532 0.025116000324487686
v -0.08986300230026245 0.2831079959869385 0.011555000208318233
v -0.0894550010561943 0.29143399000167847 0.024212999269366264
v -0.09202200174331665 0.2858160138130188 0.022148000076413155
v -0.09310100227594376 0.285196989774704 0.0015020000282675028
v -0.09788999706506729 0.2756370007991791 0.006382000166922808
v -0.09909699857234955 0.29266101121902466 0.0015040000434964895
v -0.09278099983930588 0.29532599449157715 0.008867999538779259
v -0.06505399942398071 0.28959301114082336 -0.01880599930882454
v -0.07667200267314911 0.29407399892807007 -0.01750599965453148
v -0.07241100072860718 0.29299798607826233 -0.019785000011324883
v -0.08202099800109863 0.2966670095920563 -0.017550000920891762
v -0.09303099662065506 0.28958699107170105 -0.014910000376403332
v -0.09397699683904648 0.29357901215553284 -0.020579999312758446
v -0.09142900258302689 0.2837370038032532 -0.02211800031363964
v -0.08986300230026245 0.2831079959869385 -0.008557000197470188
v -0.09202200174331665 0.2858160138130188 -0.019151000306010246
v -0.0894550010561943 0.29143399000167847 -0.02121499925851822
v -0.09788999706506729 0.2756370007991791 -0.0033839999232441187
v -0.09278099983930588 0.29532599449157715 -0.005869999993592501
v -0.06715600192546844 0.29554200172424316 0.0015079999575391412
v -0.058970000594854355 0.2926959991455078 0.019474999979138374
v -0.06506700068712234 0.29456400871276855 0.022785000503063202
v -0.058970000594854355 0.2926959991455078 -0.01647699996829033
v -0.06506700068712234 0.29456400871276855 -0.019787000492215157
v -0.07305999845266342 0.29640498757362366 0.022915000095963478
v -0.09038999676704407 0.30284300446510315 0.01677500084042549
v -0.08147899806499481 0.2981419861316681 0.014964999631047249
v -0.09058599919080734 0.30050599575042725 0.011106999590992928
v -0.07770200073719025 0.29797300696372986 0.01784300059080124
v -0.08147899806499481 0.2981419861316681 -0.011966999620199203
v -0.09038999676704407 0.30284300446510315 -0.013776999898254871
v -0.09058599919080734 0.30050599575042725 -0.008108999580144882
v -0.07770200073719025 0.29797300696372986 -0.014844999648630619
v -0.09066399931907654 0.2965719997882843 0.021772999316453934
v -0.0893390029668808 0.2989960014820099 0.019060999155044556
v -0.10201899707317352 0.30500900745391846 0.034710001200437546
v -0.09838800132274628 0.29599401354789734 0.021635999903082848
v -0.09299799799919128 0.2985270023345947 0.021810000762343407
v -0.10454700142145157 0.28322601318359375 0.0135690001770854
v -0.1004600003361702 0.2836039960384369 0.01627499982714653
v -0.10402300208806992 0.29687100648880005 0.02568100020289421
v -0.09726700186729431 0.2933740019798279 0.013604000210762024
v -0.09063500165939331 0.28147900104522705 0.012954000383615494
v -0.10500200092792511 0.2797839939594269 0.017774000763893127
v -0.09279300272464752 0.29254400730133057 0.026621999219059944
v -0.09453599900007248 0.29103899002075195 0.024410000070929527
v -0.09440000355243683 0.2972390055656433 0.02473299950361252
v -0.09948500245809555 0.28053298592567444 0.0015010000206530094
v -0.09780000150203705 0.2747170031070709 0.007898000068962574
v -0.11032400280237198 0.2843089997768402 0.0015030000358819962
v -0.10056299716234207 0.289900004863739 0.006231999956071377
v -0.09730800241231918 0.2881700098514557 0.009424000047147274
v -0.09663800150156021 0.2918049991130829 0.01143100019544363
v -0.10056299716234207 0.289900004863739 -0.003234999952837825
v -0.09730800241231918 0.2881700098514557 -0.006426000036299229
v -0.09663800150156021 0.2918049991130829 -0.008434000425040722
v -0.09365899860858917 0.2959980070590973 0.012337000109255314
v -0.07305999845266342 0.29640498757362366 -0.019917000085115433
v -0.09066399931907654 0.2965719997882843 -0.018775999546051025
v -0.0893390029668808 0.2989960014820099 -0.01606299914419651
v -0.1004600003361702 0.2836039960384369 -0.013276999816298485
v -0.10454700142145157 0.28322601318359375 -0.010571000166237354
v -0.09838800132274628 0.29599401354789734 -0.01863900013267994
v -0.10402300208806992 0.29687100648880005 -0.022683000192046165
v -0.09726700186729431 0.2933740019798279 -0.010607000440359116
v -0.10201899707317352 0.30500900745391846 -0.03171199932694435
v -0.09299799799919128 0.2985270023345947 -0.01881299912929535
v -0.09063500165939331 0.28147900104522705 -0.00995699968189001
v -0.10500200092792511 0.2797839939594269 -0.014777000062167645
v -0.09453599900007248 0.29103899002075195 -0.021412000060081482
v -0.09279300272464752 0.29254400730133057 -0.0236239992082119
v -0.09440000355243683 0.2972390055656433 -0.021734999492764473
v -0.09780000150203705 0.2747170031070709 -0.004900000058114529
v -0.09365899860858917 0.2959980070590973 -0.009339000098407269
v -0.10739099979400635 0.3035700023174286 0.029335999861359596
v -0.09684599936008453 0.29837098717689514 0.014791999943554401
v -0.10739099979400635 0.3035700023174286 -0.02633799985051155
v -0.09684599936008453 0.29837098717689514 -0.011793999932706356
v -0.10600999742746353 0.301937997341156 0.03829700127243996
v -0.10792099684476852 0.30040401220321655 0.0300929993391037
v -0.10708100348711014 0.2813810110092163 0.011296999640762806
v -0.107914999127388 0.277646005153656 0.010769999586045742
v -0.10593099892139435 0.27424898743629456 0.017542000859975815
v -0.10411199927330017 0.2849299907684326 0.009948999620974064
v -0.09916199743747711 0.27308300137519836 0.014216000214219093
v -0.0994419977068901 0.2778570055961609 0.006587999872863293
v -0.10255199670791626 0.27673599123954773 0.001500000013038516
v -0.0994419977068901 0.2778570055961609 -0.003590000094845891
v -0.108583003282547 0.28606298565864563 0.005495999939739704
v -0.11825399845838547 0.27549800276756287 0.001484000007621944
v -0.10897199809551239 0.28224900364875793 0.005386999808251858
v -0.108583003282547 0.28606298565864563 -0.0024979999288916588
v -0.10897199809551239 0.28224900364875793 -0.0023900000378489494
v -0.10411199927330017 0.2849299907684326 -0.006951000075787306
v -0.107914999127388 0.277646005153656 -0.007772000040858984
v -0.10708100348711014 0.2813810110092163 -0.00829899962991476
v -0.10593099892139435 0.27424898743629456 -0.014543999917805195
v -0.10600999742746353 0.301937997341156 -0.03530000150203705
v -0.10792200267314911 0.30040401220321655 -0.027094999328255653
v -0.09916199743747711 0.27308300137519836 -0.011218000203371048
v -0.10977700352668762 0.2787039875984192 0.005555000156164169
v -0.10924399644136429 0.2767280042171478 0.006254999898374081
v -0.10496100038290024 0.2745189964771271 0.008791999891400337
v -0.10983999818563461 0.2725850045681 0.0014979999978095293
v -0.10496100038290024 0.2745189964771271 -0.005795000120997429
v -0.10924399644136429 0.2767280042171478 -0.0032569998875260353
v -0.12504099309444427 0.26698601245880127 0.001478999969549477
v -0.10977700352668762 0.2787039875984192 -0.0025579999200999737
v -0.11975300312042236 0.265051007270813 0.0043750000186264515
v -0.11273399740457535 0.27111101150512695 0.005929000210016966
v -0.12146300077438354 0.2586280107498169 0.0037410000804811716
v -0.12207400053739548 0.25849398970603943 0.0014959999825805426
v -0.12146300077438354 0.2586280107498169 -0.0007430000114254653
v -0.11273399740457535 0.27111101150512695 -0.002930999966338277
v -0.12752200663089752 0.2643899917602539 0.004406999796628952
v -0.12839999794960022 0.2633970081806183 0.0014850000152364373
v -0.11975300312042236 0.265051007270813 -0.0013770000077784061
v -0.12752200663089752 0.2643899917602539 -0.0014090000186115503
v -0.12657399475574493 0.2610569894313812 0.004885000176727772
v -0.12511299550533295 0.25929200649261475 0.001478999969549477
v -0.12657399475574493 0.2610569894313812 -0.001888000057078898
f 1 2 3
f 4 2 1
f 4 1 5
f 3 6 1
f 1 6 7
f 5 1 7
f 2 8 3
f 8 2 4
f 8 9 3
f 10 11 3
f 3 12 10
f 13 12 3
f 3 9 13
f 3 14 6
f 3 15 14
f 3 11 16
f 16 17 3
f 3 17 18
f 18 15 3
f 19 20 4
f 19 4 5
f 21 4 20
f 8 4 21
f 5 7 19
f 7 6 14
f 7 22 19
f 22 7 23
f 23 7 14
f 9 8 21
f 9 21 24
f 13 9 24
f 11 10 25
f 12 25 10
f 11 25 26
f 27 16 11
f 26 27 11
f 28 29 12
f 28 12 13
f 12 29 30
f 12 30 25
f 13 24 28
f 23 14 15
f 31 23 15
f 31 15 18
f 16 27 17
f 17 32 33
f 18 17 33
f 34 32 17
f 27 34 17
f 33 31 18
f 35 20 19
f 19 22 35
f 35 36 20
f 37 20 36
f 21 20 37
f 24 21 37
f 22 38 35
f 38 22 39
f 39 22 23
f 39 23 31
f 24 37 40
f 28 24 40
f 41 26 25
f 41 25 30
f 26 41 42
f 42 43 26
f 27 26 43
f 34 27 43
f 28 40 44
f 44 29 28
f 44 45 29
f 30 29 46
f 29 45 46
f 41 30 46
f 47 39 31
f 47 31 33
f 32 48 49
f 33 32 49
f 50 32 34
f 50 48 32
f 49 47 33
f 50 34 43
f 51 36 35
f 35 38 51
f 51 52 36
f 53 36 52
f 37 36 53
f 40 37 53
f 38 54 51
f 54 38 55
f 55 38 39
f 55 39 47
f 40 53 56
f 44 40 56
f 42 41 57
f 41 58 57
f 41 46 58
f 42 57 59
f 60 43 42
f 59 60 42
f 60 61 43
f 61 50 43
f 44 56 62
f 62 45 44
f 62 63 45
f 64 45 65
f 66 65 45
f 66 45 63
f 45 64 46
f 58 46 67
f 67 46 64
f 68 55 47
f 68 47 49
f 48 69 70
f 49 48 70
f 71 48 72
f 48 71 73
f 69 48 73
f 50 72 48
f 70 68 49
f 74 50 61
f 72 50 74
f 75 52 51
f 51 54 75
f 75 76 52
f 77 52 76
f 53 52 77
f 56 53 77
f 54 78 75
f 78 54 79
f 79 54 55
f 79 55 68
f 56 77 80
f 62 56 80
f 59 57 81
f 57 58 82
f 57 82 81
f 67 82 58
f 59 81 83
f 84 60 59
f 83 84 59
f 85 61 60
f 84 85 60
f 61 85 74
f 62 80 86
f 86 63 62
f 86 87 63
f 88 66 63
f 88 63 87
f 89 90 64
f 89 64 91
f 64 65 66
f 64 66 91
f 64 90 92
f 64 92 67
f 66 93 94
f 66 94 91
f 88 93 66
f 95 67 96
f 67 95 97
f 67 97 98
f 92 96 67
f 67 98 82
f 99 79 68
f 99 68 70
f 69 100 101
f 70 69 101
f 69 73 102
f 100 69 102
f 101 99 70
f 73 71 72
f 72 103 104
f 105 72 104
f 105 73 72
f 106 103 72
f 74 106 72
f 107 108 73
f 105 107 73
f 73 108 102
f 109 74 95
f 97 95 74
f 110 97 74
f 74 109 106
f 85 110 74
f 76 75 111
f 111 75 78
f 77 76 112
f 112 76 111
f 113 80 77
f 113 77 112
f 114 78 79
f 111 78 114
f 79 99 115
f 114 79 115
f 116 86 80
f 116 80 113
f 117 118 81
f 81 119 117
f 81 98 119
f 98 81 82
f 83 81 111
f 81 120 111
f 118 120 81
f 111 84 83
f 84 121 122
f 122 123 84
f 123 110 84
f 85 84 110
f 111 124 84
f 84 124 121
f 116 87 86
f 120 88 87
f 116 120 87
f 120 118 88
f 88 125 93
f 125 88 126
f 126 88 118
f 127 128 89
f 128 90 89
f 89 91 125
f 129 89 125
f 127 89 129
f 130 131 90
f 128 132 90
f 90 131 92
f 90 133 130
f 90 132 133
f 91 94 125
f 96 92 134
f 135 134 92
f 135 92 131
f 125 136 93
f 136 94 93
f 136 137 94
f 137 138 94
f 94 138 125
f 95 96 139
f 139 109 95
f 139 96 140
f 96 134 140
f 141 142 97
f 97 142 143
f 97 143 144
f 144 98 97
f 97 145 141
f 146 145 97
f 147 146 97
f 97 110 147
f 144 148 98
f 98 148 119
f 99 101 149
f 115 99 149
f 101 100 149
f 100 102 124
f 100 124 149
f 102 121 124
f 108 150 102
f 151 102 150
f 121 102 151
f 103 152 153
f 104 103 154
f 103 155 154
f 106 152 103
f 153 156 103
f 156 155 103
f 104 154 157
f 150 105 104
f 150 104 158
f 158 104 157
f 150 107 105
f 159 106 109
f 106 159 160
f 152 106 160
f 107 161 162
f 108 107 162
f 107 163 161
f 150 163 107
f 108 162 150
f 164 109 139
f 164 159 109
f 110 165 147
f 123 165 110
f 113 112 111
f 116 113 111
f 120 116 111
f 111 114 115
f 111 115 149
f 111 149 124
f 118 117 126
f 127 126 117
f 166 127 117
f 166 117 167
f 117 148 167
f 148 117 119
f 151 122 121
f 122 151 157
f 122 157 168
f 169 122 168
f 169 165 122
f 123 122 165
f 125 138 136
f 125 126 129
f 127 129 126
f 127 170 128
f 170 127 166
f 128 170 171
f 132 128 171
f 135 131 130
f 130 172 173
f 130 173 174
f 130 174 135
f 172 130 175
f 133 175 130
f 132 171 166
f 132 166 167
f 148 133 132
f 148 132 167
f 144 133 148
f 175 133 143
f 143 133 144
f 135 176 134
f 134 176 140
f 135 174 176
f 136 138 137
f 139 140 177
f 139 177 178
f 179 164 139
f 178 179 139
f 140 176 177
f 180 142 141
f 141 181 182
f 141 182 180
f 141 145 183
f 184 181 141
f 183 184 141
f 180 143 142
f 180 175 143
f 145 146 183
f 146 185 183
f 146 156 185
f 147 156 146
f 165 156 147
f 162 163 150
f 158 151 150
f 151 158 157
f 153 152 160
f 186 187 153
f 188 186 153
f 160 188 153
f 185 153 187
f 153 185 156
f 154 189 157
f 190 189 154
f 190 154 155
f 168 190 155
f 169 168 155
f 155 156 165
f 169 155 165
f 168 157 189
f 159 191 160
f 164 191 159
f 191 188 160
f 161 163 162
f 179 191 164
f 170 166 171
f 190 168 189
f 182 172 175
f 192 173 172
f 192 172 182
f 193 194 173
f 193 173 192
f 194 174 173
f 194 176 174
f 182 175 180
f 177 176 194
f 177 194 193
f 177 193 195
f 178 177 195
f 195 179 178
f 196 191 179
f 197 196 179
f 195 197 179
f 181 198 192
f 181 192 182
f 199 198 181
f 184 199 181
f 183 185 184
f 185 187 184
f 184 187 199
f 187 186 199
f 186 196 197
f 199 186 197
f 186 188 196
f 188 191 196
f 198 200 192
f 201 193 192
f 201 192 200
f 202 195 193
f 202 193 201
f 195 202 203
f 203 204 195
f 197 195 204
f 199 197 205
f 205 197 204
f 198 206 200
f 207 206 198
f 208 209 198
f 199 208 198
f 198 209 207
f 208 199 205
f 202 201 200
f 202 200 210
f 206 210 200
f 203 202 210
f 203 210 211
f 212 204 203
f 211 212 203
f 208 205 204
f 212 208 204
f 211 210 206
f 211 206 207
f 207 209 211
f 208 212 209
f 209 212 211
