# Generated by Visualization Toolkit
v -0.029503999277949333 0.23541299998760223 0.00002499999936844688
v -0.03038400039076805 0.23553499579429626 0.00812199991196394
v -0.04496999830007553 0.23228000104427338 0.000003000000106112566
v -0.029735000804066658 0.23959699273109436 0.009743999689817429
v -0.02887599915266037 0.23705899715423584 0.000025999999706982635
v -0.03038400039076805 0.23553499579429626 -0.00812199991196394
v -0.029735000804066658 0.23959699273109436 -0.009743999689817429
v -0.03516300022602081 0.23511900007724762 0.01654900051653385
v -0.0426970012485981 0.23382599651813507 0.02064800076186657
v -0.05863000079989433 0.2287050038576126 0.004883999936282635
v -0.05883599817752838 0.22894300520420074 0.000003000000106112566
v -0.05909299850463867 0.22885900735855103 0.01437699981033802
v -0.05448099970817566 0.231113001704216 0.02075899951159954
v -0.03516300022602081 0.23511900007724762 -0.01654900051653385
v -0.0426970012485981 0.23382599651813507 -0.02064800076186657
v -0.05863000079989433 0.2287050038576126 -0.004883999936282635
v -0.05909299850463867 0.22885900735855103 -0.01437699981033802
v -0.05448099970817566 0.231113001704216 -0.02075899951159954
v -0.030561000108718872 0.24123600125312805 0.00002700000004551839
v -0.032141998410224915 0.24139200150966644 0.010432000271975994
v -0.03575500100851059 0.23925000429153442 0.0175819993019104
v -0.032141998410224915 0.24139200150966644 -0.010432000271975994
v -0.03575500100851059 0.23925000429153442 -0.0175819993019104
v -0.04491100087761879 0.23821300268173218 0.021354999393224716
v -0.061243001371622086 0.23218299448490143 0.005026000086218119
v -0.0635640025138855 0.2309509962797165 0.000003000000106112566
v -0.061243001371622086 0.23218299448490143 -0.005026000086218119
v -0.056999001652002335 0.2358430027961731 0.02150600031018257
v -0.06251999735832214 0.22878600656986237 0.016145000234246254
v -0.062431998550891876 0.23340100049972534 0.009553000330924988
v -0.04491100087761879 0.23821300268173218 -0.021354999393224716
v -0.06251999735832214 0.22878600656986237 -0.016145000234246254
v -0.056999001652002335 0.2358430027961731 -0.02150600031018257
v -0.062431998550891876 0.23340100049972534 -0.009553000330924988
v -0.031984999775886536 0.24970099329948425 0.000029000000722589903
v -0.03327900171279907 0.24849900603294373 0.010068000294268131
v -0.03844299912452698 0.2415349930524826 0.017142999917268753
v -0.03327900171279907 0.24849900603294373 -0.010068000294268131
v -0.03844299912452698 0.2415349930524826 -0.017142999917268753
v -0.04588500037789345 0.24213500320911407 0.019426999613642693
v -0.06208699941635132 0.23904100060462952 0.006444999948143959
v -0.06157800182700157 0.23913200199604034 0.000004999999873689376
v -0.06208699941635132 0.23904100060462952 -0.006444999948143959
v -0.05547399818897247 0.24008800089359283 0.020354999229311943
v -0.06067899987101555 0.23792700469493866 0.01924699917435646
v -0.06408999860286713 0.23933400213718414 0.009856999851763248
v -0.04588500037789345 0.24213500320911407 -0.019426999613642693
v -0.06067899987101555 0.23792700469493866 -0.01924699917435646
v -0.05547399818897247 0.24008800089359283 -0.020354999229311943
v -0.06408999860286713 0.23933400213718414 -0.009856999851763248
v -0.03198599815368652 0.2533929944038391 0.000029999999242136255
v -0.032568998634815216 0.2529489994049072 0.011137000285089016
v -0.039413001388311386 0.2482749968767166 0.017802000045776367
v -0.032568998634815216 0.2529489994049072 -0.011137000285089016
v -0.039413001388311386 0.2482749968767166 -0.017802000045776367
v -0.04451800137758255 0.24779999256134033 0.019516000524163246
v -0.06475300341844559 0.24827300012111664 0.006659999955445528
v -0.06686100363731384 0.24843400716781616 0.010307000018656254
v -0.0640140026807785 0.24845799803733826 0.000007999999979801942
v -0.06475300341844559 0.24827300012111664 -0.006659999955445528
v -0.06686100363731384 0.24843400716781616 -0.010307000018656254
v -0.05504800006747246 0.2469329982995987 0.020501000806689262
v -0.0601160004734993 0.24727100133895874 0.020899999886751175
v -0.06693000346422195 0.23679399490356445 0.01733900047838688
v -0.06439100205898285 0.2397339940071106 0.021258000284433365
v -0.06684400141239166 0.2463349997997284 0.025419000536203384
v -0.0737060010433197 0.24327699840068817 0.003782999934628606
v -0.04451800137758255 0.24779999256134033 -0.019516000524163246
v -0.0601160004734993 0.24727100133895874 -0.020899999886751175
v -0.05504800006747246 0.2469329982995987 -0.020501000806689262
v -0.06439100205898285 0.2397339940071106 -0.021258000284433365
v -0.06693000346422195 0.23679399490356445 -0.01733900047838688
v -0.06684400141239166 0.2463349997997284 -0.025419000536203384
v -0.0737060010433197 0.24327699840068817 -0.003782999934628606
v -0.03274799883365631 0.2574310004711151 0.00003099999958067201
v -0.033580001443624496 0.25710999965667725 0.011340999975800514
v -0.03791400045156479 0.25196200609207153 0.018843000754714012
v -0.033580001443624496 0.25710999965667725 -0.011340999975800514
v -0.03791400045156479 0.25196200609207153 -0.018843000754714012
v -0.044199999421834946 0.2507460117340088 0.021578999236226082
v -0.06629399955272675 0.25483599305152893 0.008489999920129776
v -0.06684300303459167 0.2531700134277344 0.01106599997729063
v -0.06445000320672989 0.2541919946670532 0.000009000000318337698
v -0.06629399955272675 0.25483599305152893 -0.008489999920129776
v -0.06684300303459167 0.2531700134277344 -0.01106599997729063
v -0.05335000157356262 0.2511189877986908 0.02261899970471859
v -0.061753999441862106 0.2511500120162964 0.020197000354528427
v -0.0684489980340004 0.2515380084514618 0.020244000479578972
v -0.07744699716567993 0.24628500640392303 0.02346399985253811
v -0.07508199661970139 0.24263300001621246 0.017438000068068504
v -0.07138200104236603 0.2373639941215515 0.025098999962210655
v -0.0686120018362999 0.23409900069236755 0.01068700011819601
v -0.07181300222873688 0.24585700035095215 0.024139000102877617
v -0.07272300124168396 0.2392279952764511 0.02194499969482422
v -0.07368899881839752 0.23819300532341003 0.000003999999989900971
v -0.07144500315189362 0.22437700629234314 0.005189999938011169
v -0.08278100192546844 0.24491199851036072 0.000004999999873689376
v -0.07673300057649612 0.24849799275398254 0.007830999791622162
v -0.044199999421834946 0.2507460117340088 -0.021578999236226082
v -0.061753999441862106 0.2511500120162964 -0.020197000354528427
v -0.05335000157356262 0.2511189877986908 -0.02261899970471859
v -0.0684489980340004 0.2515380084514618 -0.020244000479578972
v -0.07508199661970139 0.24263300001621246 -0.017438000068068504
v -0.07744699716567993 0.24628500640392303 -0.02346399985253811
v -0.07138200104236603 0.2373639941215515 -0.025097999721765518
v -0.0686120018362999 0.23409900069236755 -0.01068700011819601
v -0.07272300124168396 0.2392279952764511 -0.02194499969482422
v -0.07181300222873688 0.24585700035095215 -0.024139000102877617
v -0.07144500315189362 0.22437700629234314 -0.005189999938011169
v -0.07673300057649612 0.24849799275398254 -0.007830999791622162
v -0.0485990010201931 0.25581100583076477 0.000009000000318337698
v -0.03875499963760376 0.2563369870185852 0.0191040001809597
v -0.04599599912762642 0.2556949853897095 0.022621000185608864
v -0.03875499963760376 0.2563369870185852 -0.0191040001809597
v -0.04599599912762642 0.2556949853897095 -0.022621000185608864
v -0.055270999670028687 0.2542470097541809 0.022760000079870224
v -0.07665099948644638 0.25696900486946106 0.016234999522566795
v -0.0683939978480339 0.2532300055027008 0.014310999773442745
v -0.07608000189065933 0.2545450031757355 0.010211000218987465
v -0.0642630010843277 0.254611998796463 0.01737000048160553
v -0.0683939978480339 0.2532300055027008 -0.014310999773442745
v -0.07665099948644638 0.25696900486946106 -0.016234999522566795
v -0.07608000189065933 0.2545450031757355 -0.010211000218987465
v -0.0642630010843277 0.254611998796463 -0.01737000048160553
v -0.0748480036854744 0.2505599856376648 0.021546000614762306
v -0.0742190033197403 0.2535040080547333 0.018664000555872917
v -0.08503200113773346 0.25627800822257996 0.029041999951004982
v -0.08487299829721451 0.24844799935817719 0.021400999277830124
v -0.07804100215435028 0.2516329884529114 0.02158600091934204
v -0.08146999776363373 0.23450499773025513 0.01282699964940548
v -0.0771540030837059 0.23644700646400452 0.015703000128269196
v -0.09129299968481064 0.24717499315738678 0.025699999183416367
v -0.0810299962759018 0.2463269978761673 0.012865000404417515
v -0.06976199895143509 0.23539799451828003 0.012174000032246113
v -0.0808119997382164 0.23087100684642792 0.01729699969291687
v -0.07581400126218796 0.2456970065832138 0.026698999106884003
v -0.07720500230789185 0.24351699650287628 0.024348000064492226
v -0.079134002327919 0.24980300664901733 0.024692000821232796
v -0.07481899857521057 0.22868900001049042 0.000003000000106112566
v -0.07103800028562546 0.2234860062599182 0.006800999864935875
v -0.08811400085687637 0.23338599503040314 0.000003999999989900971
v -0.08337599784135818 0.2400680035352707 0.005030999891459942
v -0.07925800234079361 0.23957400023937225 0.008422000333666801
v -0.07981999963521957 0.2449910044670105 0.010556000284850597
v -0.08337599784135818 0.2400680035352707 -0.005030999891459942
v -0.07925800234079361 0.23957400023937225 -0.008422000333666801
v -0.07981999963521957 0.2449910044670105 -0.010556000284850597
v -0.07791200280189514 0.24883800745010376 0.011517999693751335
v -0.055270999670028687 0.2542470097541809 -0.022760000079870224
v -0.0748480036854744 0.2505599856376648 -0.021546000614762306
v -0.0742190033197403 0.2535040080547333 -0.018664000555872917
v -0.0771540030837059 0.23644700646400452 -0.015703000128269196
v -0.08146999776363373 0.23450499773025513 -0.01282699964940548
v -0.08487299829721451 0.24844799935817719 -0.021400999277830124
v -0.09129299968481064 0.24717499315738678 -0.025699999183416367
v -0.0810299962759018 0.2463269978761673 -0.012865000404417515
v -0.08503200113773346 0.25627800822257996 -0.029041999951004982
v -0.07804100215435028 0.2516329884529114 -0.02158600091934204
v -0.06976199895143509 0.23539799451828003 -0.012174000032246113
v -0.0808119997382164 0.23087100684642792 -0.01729699969291687
v -0.07720500230789185 0.24351699650287628 -0.024348000064492226
v -0.07581400126218796 0.2456970065832138 -0.026698999106884003
v -0.079134002327919 0.24980300664901733 -0.024692000821232796
v -0.07103800028562546 0.2234860062599182 -0.006800999864935875
v -0.07791200280189514 0.24883800745010376 -0.011517999693751335
v -0.09039200097322464 0.25277799367904663 0.024342000484466553
v -0.08224599808454514 0.2515130043029785 0.014127000235021114
v -0.09039200097322464 0.25277799367904663 -0.024342000484466553
v -0.08224599808454514 0.2515130043029785 -0.014127000235021114
v -0.08834400027990341 0.25166499614715576 0.03217900171875954
v -0.08990799635648727 0.24939200282096863 0.025004999712109566
v -0.08360700309276581 0.23168200254440308 0.010413000360131264
v -0.08326300233602524 0.22760699689388275 0.009852999821305275
v -0.07996799796819687 0.22495099902153015 0.0170499999076128
v -0.08156800270080566 0.23638500273227692 0.008980000391602516
v -0.07197199761867523 0.22132299840450287 0.013515000231564045
v -0.07387500256299973 0.22601599991321564 0.005408000200986862
v -0.07712800055742264 0.22874300181865692 9.999999974752427e-7
v -0.07387500256299973 0.22601599991321564 -0.005408000200986862
v -0.08680900186300278 0.23581400513648987 0.004248000215739012
v -0.09193400293588638 0.22780300676822662 -0.000015999999959603883
v -0.08595400303602219 0.23183099925518036 0.004131999798119068
v -0.08680900186300278 0.23581400513648987 -0.004248000215739012
v -0.08595400303602219 0.23183099925518036 -0.004131999798119068
v -0.08156800270080566 0.23638500273227692 -0.008980000391602516
v -0.08326300233602524 0.22760699689388275 -0.009852999821305275
v -0.08360700309276581 0.23168200254440308 -0.010413000360131264
v -0.07996799796819687 0.22495099902153015 -0.0170499999076128
v -0.08834400027990341 0.25166499614715576 -0.03217900171875954
v -0.08990799635648727 0.24939200282096863 -0.025004999712109566
v -0.07197199761867523 0.22132299840450287 -0.013515000231564045
v -0.0856420025229454 0.227960005402565 0.004310999996960163
v -0.08440099656581879 0.22617599368095398 0.005053999833762646
v -0.07900399714708328 0.22559399902820587 0.007751000113785267
v -0.0836620032787323 0.22178299725055695 0
v -0.07900399714708328 0.22559399902820587 -0.007751000113785267
v -0.08440099656581879 0.22617599368095398 -0.005053999833762646
v -0.09791100025177002 0.22018499672412872 -0.00002099999983329326
v -0.0856420025229454 0.227960005402565 -0.004310999996960163
v -0.08987200260162354 0.2208710014820099 0.004689999856054783
v -0.08631499856710434 0.21919600665569305 0.0047079999931156635
v -0.08949200063943863 0.21289700269699097 0.0036559998989105225
v -0.09126199781894684 0.212117001414299 -0.000003000000106112566
v -0.08949200063943863 0.21289700269699097 -0.0036559998989105225
v -0.08631499856710434 0.21919600665569305 -0.0047079999931156635
v -0.09893199801445007 0.2169010043144226 0.004741999786347151
v -0.09965399652719498 0.2155269980430603 -0.000022000000171829015
v -0.08987200260162354 0.2208710014820099 -0.004689999856054783
v -0.09893199801445007 0.2169010043144226 -0.004741999786347151
v -0.09670200198888779 0.21394599974155426 0.0055229999125003815
v -0.09546100348234177 0.21240399777889252 -0.00002099999983329326
v -0.09670200198888779 0.21394599974155426 -0.0055229999125003815
f 1 2 3
f 4 2 1
f 4 1 5
f 3 6 1
f 1 6 7
f 5 1 7
f 2 8 3
f 8 2 4
f 8 9 3
f 10 11 3
f 3 12 10
f 13 12 3
f 3 9 13
f 3 14 6
f 3 15 14
f 3 11 16
f 16 17 3
f 3 17 18
f 18 15 3
f 19 20 4
f 19 4 5
f 21 4 20
f 8 4 21
f 5 7 19
f 7 6 14
f 7 22 19
f 22 7 23
f 23 7 14
f 9 8 21
f 9 21 24
f 13 9 24
f 11 10 25
f 12 25 10
f 11 25 26
f 27 16 11
f 26 27 11
f 28 29 12
f 28 12 13
f 12 29 30
f 12 30 25
f 13 24 28
f 23 14 15
f 31 23 15
f 31 15 18
f 16 27 17
f 17 32 33
f 18 17 33
f 34 32 17
f 27 34 17
f 33 31 18
f 35 20 19
f 19 22 35
f 35 36 20
f 37 20 36
f 21 20 37
f 24 21 37
f 22 38 35
f 38 22 39
f 39 22 23
f 39 23 31
f 24 37 40
f 28 24 40
f 41 26 25
f 41 25 30
f 26 41 42
f 42 43 26
f 27 26 43
f 34 27 43
f 28 40 44
f 44 29 28
f 44 45 29
f 30 29 46
f 29 45 46
f 41 30 46
f 47 39 31
f 47 31 33
f 32 48 49
f 33 32 49
f 50 32 34
f 50 48 32
f 49 47 33
f 50 34 43
f 51 36 35
f 35 38 51
f 51 52 36
f 53 36 52
f 37 36 53
f 40 37 53
f 38 54 51
f 54 38 55
f 55 38 39
f 55 39 47
f 40 53 56
f 44 40 56
f 42 41 57
f 41 58 57
f 41 46 58
f 42 57 59
f 60 43 42
f 59 60 42
f 60 61 43
f 61 50 43
f 44 56 62
f 62 45 44
f 62 63 45
f 64 45 65
f 66 65 45
f 66 45 63
f 45 64 46
f 58 46 67
f 67 46 64
f 68 55 47
f 68 47 49
f 48 69 70
f 49 48 70
f 71 48 72
f 48 71 73
f 69 48 73
f 50 72 48
f 70 68 49
f 74 50 61
f 72 50 74
f 75 52 51
f 51 54 75
f 75 76 52
f 77 52 76
f 53 52 77
f 56 53 77
f 54 78 75
f 78 54 79
f 79 54 55
f 79 55 68
f 56 77 80
f 62 56 80
f 59 57 81
f 57 58 82
f 57 82 81
f 67 82 58
f 59 81 83
f 84 60 59
f 83 84 59
f 85 61 60
f 84 85 60
f 61 85 74
f 62 80 86
f 86 63 62
f 86 87 63
f 88 66 63
f 88 63 87
f 89 90 64
f 89 64 91
f 64 65 66
f 64 66 91
f 64 90 92
f 64 92 67
f 66 93 94
f 66 94 91
f 88 93 66
f 95 67 96
f 67 95 97
f 67 97 98
f 92 96 67
f 67 98 82
f 99 79 68
f 99 68 70
f 69 100 101
f 70 69 101
f 69 73 102
f 100 69 102
f 101 99 70
f 73 71 72
f 72 103 104
f 105 72 104
f 105 73 72
f 106 103 72
f 74 106 72
f 107 108 73
f 105 107 73
f 73 108 102
f 109 74 95
f 97 95 74
f 110 97 74
f 74 109 106
f 85 110 74
f 76 75 111
f 111 75 78
f 77 76 112
f 112 76 111
f 113 80 77
f 113 77 112
f 114 78 79
f 111 78 114
f 79 99 115
f 114 79 115
f 116 86 80
f 116 80 113
f 117 118 81
f 81 119 117
f 81 98 119
f 98 81 82
f 83 81 111
f 81 120 111
f 118 120 81
f 111 84 83
f 84 121 122
f 122 123 84
f 123 110 84
f 85 84 110
f 111 124 84
f 84 124 121
f 116 87 86
f 120 88 87
f 116 120 87
f 120 118 88
f 88 125 93
f 125 88 126
f 126 88 118
f 127 128 89
f 128 90 89
f 89 91 125
f 129 89 125
f 127 89 129
f 130 131 90
f 128 132 90
f 90 131 92
f 90 133 130
f 90 132 133
f 91 94 125
f 96 92 134
f 135 134 92
f 135 92 131
f 125 136 93
f 136 94 93
f 136 137 94
f 137 138 94
f 94 138 125
f 95 96 139
f 139 109 95
f 139 96 140
f 96 134 140
f 141 142 97
f 97 142 143
f 97 143 144
f 144 98 97
f 97 145 141
f 146 145 97
f 147 146 97
f 97 110 147
f 144 148 98
f 98 148 119
f 99 101 149
f 115 99 149
f 101 100 149
f 100 102 124
f 100 124 149
f 102 121 124
f 108 150 102
f 151 102 150
f 121 102 151
f 103 152 153
f 104 103 154
f 103 155 154
f 106 152 103
f 153 156 103
f 156 155 103
f 104 154 157
f 150 105 104
f 150 104 158
f 158 104 157
f 150 107 105
f 159 106 109
f 106 159 160
f 152 106 160
f 107 161 162
f 108 107 162
f 107 163 161
f 150 163 107
f 108 162 150
f 164 109 139
f 164 159 109
f 110 165 147
f 123 165 110
f 113 112 111
f 116 113 111
f 120 116 111
f 111 114 115
f 111 115 149
f 111 149 124
f 118 117 126
f 127 126 117
f 166 127 117
f 166 117 167
f 117 148 167
f 148 117 119
f 151 122 121
f 122 151 157
f 122 157 168
f 169 122 168
f 169 165 122
f 123 122 165
f 125 138 136
f 125 126 129
f 127 129 126
f 127 170 128
f 170 127 166
f 128 170 171
f 132 128 171
f 135 131 130
f 130 172 173
f 130 173 174
f 130 174 135
f 172 130 175
f 133 175 130
f 132 171 166
f 132 166 167
f 148 133 132
f 148 132 167
f 144 133 148
f 175 133 143
f 143 133 144
f 135 176 134
f 134 176 140
f 135 174 176
f 136 138 137
f 139 140 177
f 139 177 178
f 179 164 139
f 178 179 139
f 140 176 177
f 180 142 141
f 141 181 182
f 141 182 180
f 141 145 183
f 184 181 141
f 183 184 141
f 180 143 142
f 180 175 143
f 145 146 183
f 146 185 183
f 146 156 185
f 147 156 146
f 165 156 147
f 162 163 150
f 158 151 150
f 151 158 157
f 153 152 160
f 186 187 153
f 188 186 153
f 160 188 153
f 185 153 187
f 153 185 156
f 154 189 157
f 190 189 154
f 190 154 155
f 168 190 155
f 169 168 155
f 155 156 165
f 169 155 165
f 168 157 189
f 159 191 160
f 164 191 159
f 191 188 160
f 161 163 162
f 179 191 164
f 170 166 171
f 190 168 189
f 182 172 175
f 192 173 172
f 192 172 182
f 193 194 173
f 193 173 192
f 194 174 173
f 194 176 174
f 182 175 180
f 177 176 194
f 177 194 193
f 177 193 195
f 178 177 195
f 195 179 178
f 196 191 179
f 197 196 179
f 195 197 179
f 181 198 192
f 181 192 182
f 199 198 181
f 184 199 181
f 183 185 184
f 185 187 184
f 184 187 199
f 187 186 199
f 186 196 197
f 199 186 197
f 186 188 196
f 188 191 196
f 198 200 192
f 201 193 192
f 201 192 200
f 202 195 193
f 202 193 201
f 195 202 203
f 203 204 195
f 197 195 204
f 199 197 205
f 205 197 204
f 198 206 200
f 207 206 198
f 208 209 198
f 199 208 198
f 198 209 207
f 208 199 205
f 202 201 200
f 202 200 210
f 206 210 200
f 203 202 210
f 203 210 211
f 212 204 203
f 211 212 203
f 208 205 204
f 212 208 204
f 211 210 206
f 211 206 207
f 207 209 211
f 208 212 209
f 209 212 211
