# Generated by Visualization Toolkit
v -0.061873000115156174 0.24599400162696838 0.00002300000051036477
v -0.06248899921774864 0.24638399481773376 0.0076430002227425575
v -0.07421500235795975 0.24819199740886688 0.000003000000106112566
v -0.06084199994802475 0.2497600018978119 0.00916799996048212
v -0.06093600019812584 0.24724499881267548 0.00002499999936844688
v -0.06248899921774864 0.24638399481773376 -0.0076430002227425575
v -0.06084199994802475 0.2497600018978119 -0.00916799996048212
v -0.06614399701356888 0.24754899740219116 0.015572000294923782
v -0.07208900153636932 0.2488269954919815 0.019429000094532967
v -0.0853469967842102 0.24941900372505188 0.004596000071614981
v -0.08543200045824051 0.24969600141048431 0.000003000000106112566
v -0.08564600348472595 0.2497040033340454 0.013527999632060528
v -0.08158700168132782 0.25021299719810486 0.019533000886440277
v -0.06614399701356888 0.24754899740219116 -0.015572000294923782
v -0.07208900153636932 0.2488269954919815 -0.019429000094532967
v -0.0853469967842102 0.24941900372505188 -0.004596000071614981
v -0.08564600348472595 0.2497040033340454 -0.013527999632060528
v -0.08158700168132782 0.25021299719810486 -0.019533000886440277
v -0.060982998460531235 0.25147199630737305 0.00002499999936844688
v -0.06210799887776375 0.25211700797080994 0.009816000238060951
v -0.06539600342512131 0.25138500332832336 0.01654299907386303
v -0.06210799887776375 0.25211700797080994 -0.009816000238060951
v -0.06539600342512131 0.25138500332832336 -0.01654299907386303
v -0.07246699929237366 0.2534089982509613 0.020093999803066254
v -0.08836899697780609 0.2531050145626068 0.004730000160634518
v -0.0883530005812645 0.25298500061035156 0.000003000000106112566
v -0.08836899697780609 0.2531050145626068 -0.004730000160634518
v -0.08209100365638733 0.2551960051059723 0.020237000659108162
v -0.08820299804210663 0.2507390081882477 0.015192000195384026
v -0.08904200047254562 0.2545509934425354 0.008988999761641026
v -0.07246699929237366 0.2534089982509613 -0.020093999803066254
v -0.08820299804210663 0.2507390081882477 -0.015192000195384026
v -0.08209100365638733 0.2551960051059723 -0.020237000659108162
v -0.08904200047254562 0.2545509934425354 -0.008988999761641026
v -0.05961700156331062 0.2600489854812622 0.000028000000384054147
v -0.06099899858236313 0.2593590021133423 0.009472999721765518
v -0.06672699749469757 0.2542650103569031 0.016131000593304634
v -0.06099899858236313 0.2593590021133423 -0.009472999721765518
v -0.06672699749469757 0.2542650103569031 -0.016131000593304634
v -0.07206100225448608 0.2571829855442047 0.018279999494552612
v -0.08730799704790115 0.2594980001449585 0.0060640000738203526
v -0.08686300367116928 0.259427011013031 0.000004999999873689376
v -0.08730799704790115 0.2594980001449585 -0.0060640000738203526
v -0.08155699819326401 0.2584590017795563 0.01915300078690052
v -0.0864270031452179 0.25808000564575195 0.0181099995970726
v -0.08889400213956833 0.260358989238739 0.009274999611079693
v -0.07206100225448608 0.2571829855442047 -0.018279999494552612
v -0.0864270031452179 0.25808000564575195 -0.0181099995970726
v -0.08155699819326401 0.2584590017795563 -0.01915300078690052
v -0.08889400213956833 0.260358989238739 -0.009274999611079693
v -0.05866999924182892 0.26335400342941284 0.000029000000722589903
v -0.05926699936389923 0.2631320059299469 0.010479000397026539
v -0.06614000350236893 0.26099100708961487 0.01675100065767765
v -0.05926699936389923 0.2631320059299469 -0.010479000397026539
v -0.06614000350236893 0.26099100708961487 -0.01675100065767765
v -0.07049400359392166 0.2620899975299835 0.01836399920284748
v -0.08714699745178223 0.268559992313385 0.006266999989748001
v -0.08626499772071838 0.26755601167678833 0.009697999805212021
v -0.08648700267076492 0.2685050070285797 0.000007000000096013537
v -0.08714699745178223 0.268559992313385 -0.006266999989748001
v -0.08626499772071838 0.26755601167678833 -0.009697999805212021
v -0.07944600284099579 0.2644610106945038 0.019291000440716743
v -0.0835610032081604 0.2662769854068756 0.019665999338030815
v -0.09189999848604202 0.25893300771713257 0.016315000131726265
v -0.08904100209474564 0.26080700755119324 0.020003000274300575
v -0.08937899768352509 0.2674489915370941 0.023917999118566513
v -0.09611699730157852 0.26355400681495667 0.0035600000992417336
v -0.07049400359392166 0.2620899975299835 -0.01836399920284748
v -0.0835610032081604 0.2662769854068756 -0.019665999338030815
v -0.07944600284099579 0.2644610106945038 -0.019291000440716743
v -0.08904100209474564 0.26080700755119324 -0.020003000274300575
v -0.09189999848604202 0.25893300771713257 -0.016315000131726265
v -0.08937899768352509 0.2674489915370941 -0.023917999118566513
v -0.09611699730157852 0.26355400681495667 -0.0035600000992417336
v -0.05826500058174133 0.26719701290130615 0.000029000000722589903
v -0.05903699994087219 0.26715898513793945 0.010672000236809254
v -0.0639519989490509 0.26384401321411133 0.01773099973797798
v -0.05903699994087219 0.26715898513793945 -0.010672000236809254
v -0.0639519989490509 0.26384401321411133 -0.01773099973797798
v -0.069473996758461 0.26463401317596436 0.020305000245571136
v -0.08415199816226959 0.2731179893016815 0.007988999597728252
v -0.08503399789333344 0.271791011095047 0.010413000360131264
v -0.08278799802064896 0.2719910144805908 0.000009000000318337698
v -0.08415199816226959 0.2731179893016815 -0.007988999597728252
v -0.08503399789333344 0.271791011095047 -0.010413000360131264
v -0.07696399837732315 0.26770099997520447 0.02128399908542633
v -0.08392299711704254 0.27024000883102417 0.01900400035083294
v -0.08678500354290009 0.27080899477005005 0.01904899999499321
v -0.09852900356054306 0.26729801297187805 0.022079000249505043
v -0.09741800278425217 0.26335200667381287 0.016409000381827354
v -0.09557700157165527 0.2575789988040924 0.02361699938774109
v -0.09398599714040756 0.25702300667762756 0.01005600020289421
v -0.09392300248146057 0.2653610110282898 0.022714000195264816
v -0.09625499695539474 0.2596299946308136 0.020648999139666557
v -0.0973069965839386 0.2589620053768158 0.000003000000106112566
v -0.1016950011253357 0.24919100105762482 0.004883000161498785
v -0.1036050021648407 0.2661469876766205 0.000004999999873689376
v -0.09740699827671051 0.2690980136394501 0.007368999999016523
v -0.069473996758461 0.26463401317596436 -0.020305000245571136
v -0.08392299711704254 0.27024000883102417 -0.01900400035083294
v -0.07696399837732315 0.26770099997520447 -0.02128399908542633
v -0.08678500354290009 0.27080899477005005 -0.01904899999499321
v -0.09741800278425217 0.26335200667381287 -0.016409000381827354
v -0.09852900356054306 0.26729801297187805 -0.022079000249505043
v -0.09557700157165527 0.2575789988040924 -0.02361699938774109
v -0.09398599714040756 0.25702300667762756 -0.01005600020289421
v -0.09625499695539474 0.2596299946308136 -0.020648999139666557
v -0.09392300248146057 0.2653610110282898 -0.022714000195264816
v -0.1016950011253357 0.24919100105762482 -0.004883000161498785
v -0.09740699827671051 0.2690980136394501 -0.007368999999016523
v -0.07182099670171738 0.27048298716545105 0.000009000000318337698
v -0.0635249987244606 0.26801300048828125 0.017976000905036926
v -0.06969299912452698 0.2696009874343872 0.021285999566316605
v -0.0635249987244606 0.26801300048828125 -0.017976000905036926
v -0.06969299912452698 0.2696009874343872 -0.021285999566316605
v -0.07775299996137619 0.2710759937763214 0.02141599915921688
v -0.09532999992370605 0.27671799063682556 0.015275999903678894
v -0.08630499988794327 0.27230799198150635 0.013465999625623226
v -0.0954279974102974 0.27437400817871094 0.009607999585568905
v -0.08252499997615814 0.2723119854927063 0.01634399965405464
v -0.08630499988794327 0.27230799198150635 -0.013465999625623226
v -0.09532999992370605 0.27671799063682556 -0.015275999903678894
v -0.0954279974102974 0.27437400817871094 -0.009607999585568905
v -0.08252499997615814 0.2723119854927063 -0.01634399965405464
v -0.09534399956464767 0.270440012216568 0.020274000242352486
v -0.09412000328302383 0.27292200922966003 0.017562000080943108
v -0.10703399777412415 0.2783530056476593 0.03321100026369095
v -0.10303500294685364 0.2695100009441376 0.0201370008289814
v -0.09775599837303162 0.27228599786758423 0.020312000066041946
v -0.10865800082683563 0.2564699947834015 0.012070000171661377
v -0.10459200292825699 0.2570340037345886 0.014775999821722507
v -0.10869999974966049 0.27012899518013 0.024181999266147614
v -0.10180699825286865 0.2669430077075958 0.012105000205338001
v -0.0946900025010109 0.2553589940071106 0.011455999687314034
v -0.10897000133991241 0.25301000475883484 0.01627499982714653
v -0.09730300307273865 0.2663179934024811 0.025123000144958496
v -0.09898199886083603 0.2647339999675751 0.02291099913418293
v -0.09910299628973007 0.2709360122680664 0.02323400042951107
v -0.10349100083112717 0.25400999188423157 0.000003000000106112566
v -0.10156700015068054 0.2482749968767166 0.006399000063538551
v -0.11447300016880035 0.2572900056838989 0.000003999999989900971
v -0.10495500266551971 0.26332101225852966 0.004732999950647354
v -0.1016319990158081 0.2617410123348236 0.007925000041723251
v -0.10111299902200699 0.26540398597717285 0.009933000430464745
v -0.10495500266551971 0.26332101225852966 -0.004732999950647354
v -0.1016319990158081 0.2617410123348236 -0.007925000041723251
v -0.10111299902200699 0.26540398597717285 -0.009933000430464745
v -0.09831099957227707 0.26972898840904236 0.010838000103831291
v -0.07775299996137619 0.2710759937763214 -0.02141599915921688
v -0.09534399956464767 0.270440012216568 -0.020274000242352486
v -0.09412000328302383 0.27292200922966003 -0.017562000080943108
v -0.10459200292825699 0.2570340037345886 -0.014775999821722507
v -0.10865800082683563 0.2564699947834015 -0.012070000171661377
v -0.10303500294685364 0.2695100009441376 -0.0201370008289814
v -0.10869999974966049 0.27012899518013 -0.024181999266147614
v -0.10180699825286865 0.2669430077075958 -0.012105000205338001
v -0.10703399777412415 0.2783530056476593 -0.03321100026369095
v -0.09775599837303162 0.27228599786758423 -0.020312000066041946
v -0.0946900025010109 0.2553589940071106 -0.011455999687314034
v -0.10897000133991241 0.25301000475883484 -0.01627499982714653
v -0.09898199886083603 0.2647339999675751 -0.02291099913418293
v -0.09730300307273865 0.2663179934024811 -0.025123000144958496
v -0.09910299628973007 0.2709360122680664 -0.02323400042951107
v -0.10156700015068054 0.2482749968767166 -0.006399000063538551
v -0.09831099957227707 0.26972898840904236 -0.010838000103831291
v -0.1123410016298294 0.27667000889778137 0.027837000787258148
v -0.1015930026769638 0.2719559967517853 0.013292999938130379
v -0.1123410016298294 0.27667000889778137 -0.027837000787258148
v -0.1015930026769638 0.2719559967517853 -0.013292999938130379
v -0.11089400202035904 0.27510198950767517 0.03679800033569336
v -0.11274000257253647 0.27348199486732483 0.02859400026500225
v -0.11111299693584442 0.2545120120048523 0.009797999635338783
v -0.11179199814796448 0.25074100494384766 0.00927099958062172
v -0.10966899991035461 0.2474370002746582 0.016042999923229218
v -0.10829400271177292 0.2581929862499237 0.008449999615550041
v -0.1028589978814125 0.24658100306987762 0.01271700020879507
v -0.10333699733018875 0.25133898854255676 0.00508899986743927
v -0.10639700293540955 0.2500759959220886 9.999999974752427e-7
v -0.10333699733018875 0.25133898854255676 -0.00508899986743927
v -0.11280699819326401 0.25912201404571533 0.0039969999343156815
v -0.12202999740839005 0.24812300503253937 -0.000014999999621068127
v -0.11303800344467163 0.25529301166534424 0.003889000043272972
v -0.11280699819326401 0.25912201404571533 -0.0039969999343156815
v -0.11303800344467163 0.25529301166534424 -0.003889000043272972
v -0.10829400271177292 0.2581929862499237 -0.008449999615550041
v -0.11179199814796448 0.25074100494384766 -0.00927099958062172
v -0.11111299693584442 0.2545120120048523 -0.009797999635338783
v -0.10966899991035461 0.2474370002746582 -0.016042999923229218
v -0.11089400202035904 0.27510198950767517 -0.03679800033569336
v -0.11274000257253647 0.27348199486732483 -0.02859400026500225
v -0.1028589978814125 0.24658100306987762 -0.01271700020879507
v -0.11369500309228897 0.25171399116516113 0.004056999925523996
v -0.11308100074529648 0.24976299703121185 0.004755999892950058
v -0.10871099680662155 0.24775099754333496 0.0072929998859763145
v -0.11350499838590622 0.2455960065126419 0
v -0.10871099680662155 0.24775099754333496 -0.0072929998859763145
v -0.11308100074529648 0.24976299703121185 -0.004755999892950058
v -0.1288290023803711 0.2428950071334839 -0.000018999999156221747
v -0.11369500309228897 0.25171399116516113 -0.004056999925523996
v -0.12294899672269821 0.24125200510025024 0.002876000013202429
v -0.11633499711751938 0.24399100244045258 0.004430000204592943
v -0.12452200055122375 0.23395299911499023 0.002242000075057149
v -0.12518799304962158 0.2337850034236908 -0.000003000000106112566
v -0.12452200055122375 0.23395299911499023 -0.002242000075057149
v -0.11633499711751938 0.24399100244045258 -0.004430000204592943
v -0.13145899772644043 0.24016399681568146 0.002908000024035573
v -0.13238699734210968 0.23912200331687927 -0.000014000000192027073
v -0.12294899672269821 0.24125200510025024 -0.002876000013202429
v -0.13145899772644043 0.24016399681568146 -0.002908000024035573
v -0.1302960067987442 0.2368839979171753 0.003386999946087599
v -0.1286270022392273 0.23520000278949738 -0.000019999999494757503
v -0.1302960067987442 0.2368839979171753 -0.003386999946087599
f 1 2 3
f 4 2 1
f 4 1 5
f 3 6 1
f 1 6 7
f 5 1 7
f 2 8 3
f 8 2 4
f 8 9 3
f 10 11 3
f 3 12 10
f 13 12 3
f 3 9 13
f 3 14 6
f 3 15 14
f 3 11 16
f 16 17 3
f 3 17 18
f 18 15 3
f 19 20 4
f 19 4 5
f 21 4 20
f 8 4 21
f 5 7 19
f 7 6 14
f 7 22 19
f 22 7 23
f 23 7 14
f 9 8 21
f 9 21 24
f 13 9 24
f 11 10 25
f 12 25 10
f 11 25 26
f 27 16 11
f 26 27 11
f 28 29 12
f 28 12 13
f 12 29 30
f 12 30 25
f 13 24 28
f 23 14 15
f 31 23 15
f 31 15 18
f 16 27 17
f 17 32 33
f 18 17 33
f 34 32 17
f 27 34 17
f 33 31 18
f 35 20 19
f 19 22 35
f 35 36 20
f 37 20 36
f 21 20 37
f 24 21 37
f 22 38 35
f 38 22 39
f 39 22 23
f 39 23 31
f 24 37 40
f 28 24 40
f 41 26 25
f 41 25 30
f 26 41 42
f 42 43 26
f 27 26 43
f 34 27 43
f 28 40 44
f 44 29 28
f 44 45 29
f 30 29 46
f 29 45 46
f 41 30 46
f 47 39 31
f 47 31 33
f 32 48 49
f 33 32 49
f 50 32 34
f 50 48 32
f 49 47 33
f 50 34 43
f 51 36 35
f 35 38 51
f 51 52 36
f 53 36 52
f 37 36 53
f 40 37 53
f 38 54 51
f 54 38 55
f 55 38 39
f 55 39 47
f 40 53 56
f 44 40 56
f 42 41 57
f 41 58 57
f 41 46 58
f 42 57 59
f 60 43 42
f 59 60 42
f 60 61 43
f 61 50 43
f 44 56 62
f 62 45 44
f 62 63 45
f 64 45 65
f 66 65 45
f 66 45 63
f 45 64 46
f 58 46 67
f 67 46 64
f 68 55 47
f 68 47 49
f 48 69 70
f 49 48 70
f 71 48 72
f 48 71 73
f 69 48 73
f 50 72 48
f 70 68 49
f 74 50 61
f 72 50 74
f 75 52 51
f 51 54 75
f 75 76 52
f 77 52 76
f 53 52 77
f 56 53 77
f 54 78 75
f 78 54 79
f 79 54 55
f 79 55 68
f 56 77 80
f 62 56 80
f 59 57 81
f 57 58 82
f 57 82 81
f 67 82 58
f 59 81 83
f 84 60 59
f 83 84 59
f 85 61 60
f 84 85 60
f 61 85 74
f 62 80 86
f 86 63 62
f 86 87 63
f 88 66 63
f 88 63 87
f 89 90 64
f 89 64 91
f 64 65 66
f 64 66 91
f 64 90 92
f 64 92 67
f 66 93 94
f 66 94 91
f 88 93 66
f 95 67 96
f 67 95 97
f 67 97 98
f 92 96 67
f 67 98 82
f 99 79 68
f 99 68 70
f 69 100 101
f 70 69 101
f 69 73 102
f 100 69 102
f 101 99 70
f 73 71 72
f 72 103 104
f 105 72 104
f 105 73 72
f 106 103 72
f 74 106 72
f 107 108 73
f 105 107 73
f 73 108 102
f 109 74 95
f 97 95 74
f 110 97 74
f 74 109 106
f 85 110 74
f 76 75 111
f 111 75 78
f 77 76 112
f 112 76 111
f 113 80 77
f 113 77 112
f 114 78 79
f 111 78 114
f 79 99 115
f 114 79 115
f 116 86 80
f 116 80 113
f 117 118 81
f 81 119 117
f 81 98 119
f 98 81 82
f 83 81 111
f 81 120 111
f 118 120 81
f 111 84 83
f 84 121 122
f 122 123 84
f 123 110 84
f 85 84 110
f 111 124 84
f 84 124 121
f 116 87 86
f 120 88 87
f 116 120 87
f 120 118 88
f 88 125 93
f 125 88 126
f 126 88 118
f 127 128 89
f 128 90 89
f 89 91 125
f 129 89 125
f 127 89 129
f 130 131 90
f 128 132 90
f 90 131 92
f 90 133 130
f 90 132 133
f 91 94 125
f 96 92 134
f 135 134 92
f 135 92 131
f 125 136 93
f 136 94 93
f 136 137 94
f 137 138 94
f 94 138 125
f 95 96 139
f 139 109 95
f 139 96 140
f 96 134 140
f 141 142 97
f 97 142 143
f 97 143 144
f 144 98 97
f 97 145 141
f 146 145 97
f 147 146 97
f 97 110 147
f 144 148 98
f 98 148 119
f 99 101 149
f 115 99 149
f 101 100 149
f 100 102 124
f 100 124 149
f 102 121 124
f 108 150 102
f 151 102 150
f 121 102 151
f 103 152 153
f 104 103 154
f 103 155 154
f 106 152 103
f 153 156 103
f 156 155 103
f 104 154 157
f 150 105 104
f 150 104 158
f 158 104 157
f 150 107 105
f 159 106 109
f 106 159 160
f 152 106 160
f 107 161 162
f 108 107 162
f 107 163 161
f 150 163 107
f 108 162 150
f 164 109 139
f 164 159 109
f 110 165 147
f 123 165 110
f 113 112 111
f 116 113 111
f 120 116 111
f 111 114 115
f 111 115 149
f 111 149 124
f 118 117 126
f 127 126 117
f 166 127 117
f 166 117 167
f 117 148 167
f 148 117 119
f 151 122 121
f 122 151 157
f 122 157 168
f 169 122 168
f 169 165 122
f 123 122 165
f 125 138 136
f 125 126 129
f 127 129 126
f 127 170 128
f 170 127 166
f 128 170 171
f 132 128 171
f 135 131 130
f 130 172 173
f 130 173 174
f 130 174 135
f 172 130 175
f 133 175 130
f 132 171 166
f 132 166 167
f 148 133 132
f 148 132 167
f 144 133 148
f 175 133 143
f 143 133 144
f 135 176 134
f 134 176 140
f 135 174 176
f 136 138 137
f 139 140 177
f 139 177 178
f 179 164 139
f 178 179 139
f 140 176 177
f 180 142 141
f 141 181 182
f 141 182 180
f 141 145 183
f 184 181 141
f 183 184 141
f 180 143 142
f 180 175 143
f 145 146 183
f 146 185 183
f 146 156 185
f 147 156 146
f 165 156 147
f 162 163 150
f 158 151 150
f 151 158 157
f 153 152 160
f 186 187 153
f 188 186 153
f 160 188 153
f 185 153 187
f 153 185 156
f 154 189 157
f 190 189 154
f 190 154 155
f 168 190 155
f 169 168 155
f 155 156 165
f 169 155 165
f 168 157 189
f 159 191 160
f 164 191 159
f 191 188 160
f 161 163 162
f 179 191 164
f 170 166 171
f 190 168 189
f 182 172 175
f 192 173 172
f 192 172 182
f 193 194 173
f 193 173 192
f 194 174 173
f 194 176 174
f 182 175 180
f 177 176 194
f 177 194 193
f 177 193 195
f 178 177 195
f 195 179 178
f 196 191 179
f 197 196 179
f 195 197 179
f 181 198 192
f 181 192 182
f 199 198 181
f 184 199 181
f 183 185 184
f 185 187 184
f 184 187 199
f 187 186 199
f 186 196 197
f 199 186 197
f 186 188 196
f 188 191 196
f 198 200 192
f 201 193 192
f 201 192 200
f 202 195 193
f 202 193 201
f 195 202 203
f 203 204 195
f 197 195 204
f 199 197 205
f 205 197 204
f 198 206 200
f 207 206 198
f 208 209 198
f 199 208 198
f 198 209 207
f 208 199 205
f 202 201 200
f 202 200 210
f 206 210 200
f 203 202 210
f 203 210 211
f 212 204 203
f 211 212 203
f 208 205 204
f 212 208 204
f 211 210 206
f 211 206 207
f 207 209 211
f 208 212 209
f 209 212 211
