# Generated by Visualization Toolkit
v -0.06245899945497513 0.22216400504112244 0.00002300000051036477
v -0.06315899640321732 0.2224860042333603 0.0076430002227425575
v -0.07594700157642365 0.22304600477218628 0.000003000000106112566
v -0.06171099841594696 0.22602300345897675 0.00916799996048212
v -0.06157099828124046 0.22350800037384033 0.00002499999936844688
v -0.06315899640321732 0.2224860042333603 -0.0076430002227425575
v -0.06171099841594696 0.22602300345897675 -0.00916799996048212
v -0.06720300018787384 0.2232609987258911 0.015572000294923782
v -0.07372099906206131 0.22390300035476685 0.019429000094532967
v -0.08804100006818771 0.2230910062789917 0.004596000071614981
v -0.08815799653530121 0.22335700690746307 0.000003000000106112566
v -0.08838900178670883 0.22334299981594086 0.013527999632060528
v -0.08407100290060043 0.2242790013551712 0.019533000886440277
v -0.06720300018787384 0.2232609987258911 -0.015572000294923782
v -0.07372099906206131 0.22390300035476685 -0.019429000094532967
v -0.08804100006818771 0.2230910062789917 -0.004596000071614981
v -0.08838900178670883 0.22334299981594086 -0.013527999632060528
v -0.08407100290060043 0.2242790013551712 -0.019533000886440277
v -0.0620260015130043 0.2277120053768158 0.00002499999936844688
v -0.06329800188541412 0.22823500633239746 0.009816000238060951
v -0.06676600128412247 0.22715899348258972 0.01654299907386303
v -0.06329800188541412 0.22823500633239746 -0.009816000238060951
v -0.06676600128412247 0.22715899348258972 -0.01654299907386303
v -0.07456699758768082 0.22842499613761902 0.020093999803066254
v -0.0916450023651123 0.22644099593162537 0.004730000160634518
v -0.09161599725484848 0.2263229936361313 0.000003000000106112566
v -0.0916450023651123 0.22644099593162537 -0.004730000160634518
v -0.0850910022854805 0.22918599843978882 0.020237000659108162
v -0.09123899787664413 0.22410300374031067 0.015192000195384026
v -0.09250699728727341 0.22780899703502655 0.008988999761641026
v -0.07456699758768082 0.22842499613761902 -0.020093999803066254
v -0.09123899787664413 0.22410300374031067 -0.015192000195384026
v -0.0850910022854805 0.22918599843978882 -0.020237000659108162
v -0.09250699728727341 0.22780899703502655 -0.008988999761641026
v -0.06137999892234802 0.236395001411438 0.000028000000384054147
v -0.06279999762773514 0.2355629950761795 0.009472999721765518
v -0.06847400218248367 0.22988499701023102 0.016131000593304634
v -0.06279999762773514 0.2355629950761795 -0.009472999721765518
v -0.06847400218248367 0.22988499701023102 -0.016131000593304634
v -0.07449200004339218 0.23222500085830688 0.018279999494552612
v -0.0911170020699501 0.23291799426078796 0.0060640000738203526
v -0.09063100069761276 0.23289500176906586 0.000004999999873689376
v -0.0911170020699501 0.23291799426078796 -0.0060640000738203526
v -0.08483000099658966 0.23249199986457825 0.01915300078690052
v -0.09003300219774246 0.23159900307655334 0.0181099995970726
v -0.09290499985218048 0.2336069941520691 0.009274999611079693
v -0.07449200004339218 0.23222500085830688 -0.018279999494552612
v -0.09003300219774246 0.23159900307655334 -0.0181099995970726
v -0.08483000099658966 0.23249199986457825 -0.01915300078690052
v -0.09290499985218048 0.2336069941520691 -0.009274999611079693
v -0.06067800149321556 0.23978599905967712 0.000029000000722589903
v -0.061298999935388565 0.2395009994506836 0.010479000397026539
v -0.06848800182342529 0.2366430014371872 0.01675100065767765
v -0.061298999935388565 0.2395009994506836 -0.010479000397026539
v -0.06848800182342529 0.2366430014371872 -0.01675100065767765
v -0.07327800244092941 0.23727700114250183 0.01836399920284748
v -0.08922500163316727 0.24017900228500366 0.006266999989748001
v -0.09113399684429169 0.24076899886131287 0.009697999805212021
v -0.08850999921560287 0.24019399285316467 0.000007000000096013537
v -0.08922500163316727 0.24017900228500366 -0.006266999989748001
v -0.09113500267267227 0.24076899886131287 -0.009697999805212021
v -0.08313500136137009 0.23869000375270844 0.019291000440716743
v -0.08773600310087204 0.24006399512290955 0.019665999338030815
v -0.09600300341844559 0.23186999559402466 0.016315000131726265
v -0.09310600161552429 0.23403699696063995 0.020003000274300575
v -0.09151899814605713 0.23883700370788574 0.023917999118566513
v -0.10098200291395187 0.23602400720119476 0.0035600000992417336
v -0.07327800244092941 0.23727700114250183 -0.01836399920284748
v -0.08773600310087204 0.24006399512290955 -0.019665999338030815
v -0.08313500136137009 0.23869000375270844 -0.019291000440716743
v -0.09310600161552429 0.23403699696063995 -0.020003000274300575
v -0.09600300341844559 0.23186999559402466 -0.016315000131726265
v -0.09151899814605713 0.23883700370788574 -0.023917999118566513
v -0.10098200291395187 0.23602400720119476 -0.0035600000992417336
v -0.060610998421907425 0.2436549961566925 0.000029000000722589903
v -0.061438001692295074 0.24353499710559845 0.010672000236809254
v -0.06640700250864029 0.23971499502658844 0.01773099973797798
v -0.061438001692295074 0.24353499710559845 -0.010672000236809254
v -0.06640700250864029 0.23971499502658844 -0.01773099973797798
v -0.07242400199174881 0.23991699516773224 0.020305000245571136
v -0.08939400315284729 0.24652999639511108 0.007988999597728252
v -0.0902160033583641 0.2451159954071045 0.010413000360131264
v -0.08781900256872177 0.24555200338363647 0.000009000000318337698
v -0.08939400315284729 0.24652999639511108 -0.007988999597728252
v -0.0902160033583641 0.2451159954071045 -0.010413000360131264
v -0.08077500015497208 0.2421790063381195 0.02128399908542633
v -0.08591700345277786 0.24219299852848053 0.01900400035083294
v -0.09459300339221954 0.24573099613189697 0.01904899999499321
v -0.10393500328063965 0.23949599266052246 0.022079000249505043
v -0.10236299782991409 0.23568500578403473 0.016409000381827354
v -0.09982799738645554 0.23013299703598022 0.02361699938774109
v -0.09806299954652786 0.2297469973564148 0.01005600020289421
v -0.09879600256681442 0.2380550056695938 0.022714000195264816
v -0.10075400024652481 0.23210300505161285 0.020648999139666557
v -0.10182200372219086 0.23132699728012085 0.000003000000106112566
v -0.10560499876737595 0.2211350053548813 0.004883000161498785
v -0.10928600281476974 0.23781399428844452 0.000004999999873689376
v -0.10290099680423737 0.24140700697898865 0.007368999999016523
v -0.07242400199174881 0.23991699516773224 -0.020305000245571136
v -0.08591700345277786 0.24219299852848053 -0.01900400035083294
v -0.08077500015497208 0.2421790063381195 -0.02128399908542633
v -0.09459300339221954 0.24573099613189697 -0.01904899999499321
v -0.10236299782991409 0.23568500578403473 -0.016409000381827354
v -0.10393500328063965 0.23949599266052246 -0.022079000249505043
v -0.09982799738645554 0.23013299703598022 -0.02361699938774109
v -0.09806299954652786 0.2297469973564148 -0.01005600020289421
v -0.10075400024652481 0.23210300505161285 -0.020648999139666557
v -0.09879600256681442 0.2380550056695938 -0.022714000195264816
v -0.10560499876737595 0.2211350053548813 -0.004883000161498785
v -0.10290099680423737 0.24140700697898865 -0.007368999999016523
v -0.07550899684429169 0.24549199640750885 0.000009000000318337698
v -0.06634899973869324 0.24390999972820282 0.017976000905036926
v -0.07313600182533264 0.24483899772167206 0.021285999566316605
v -0.06634899973869324 0.24390999972820282 -0.017976000905036926
v -0.07313600182533264 0.24483899772167206 -0.021285999566316605
v -0.08194799721240997 0.24545499682426453 0.02141599915921688
v -0.10139799863100052 0.24921399354934692 0.015275999903678894
v -0.09163299947977066 0.24549600481987 0.013465999625623226
v -0.10127899795770645 0.24686899781227112 0.009607999585568905
v -0.08756700158119202 0.2458990067243576 0.01634399965405464
v -0.09163299947977066 0.24549600481987 -0.013465999625623226
v -0.10139799863100052 0.24921399354934692 -0.015275999903678894
v -0.10127899795770645 0.24686899781227112 -0.009607999585568905
v -0.08756700158119202 0.2458990067243576 -0.01634399965405464
v -0.10081099718809128 0.24296100437641144 0.020274000242352486
v -0.09973199665546417 0.24556200206279755 0.017562000080943108
v -0.11414600163698196 0.2496030032634735 0.03321100026369095
v -0.1089949980378151 0.24122199416160583 0.0201370008289814
v -0.10358300060033798 0.24454499781131744 0.020312000066041946
v -0.1137939989566803 0.22764499485492706 0.012070000171661377
v -0.10947400331497192 0.2286369949579239 0.014775999821722507
v -0.11514899879693985 0.24123899638652802 0.024181999266147614
v -0.10742799937725067 0.23879599571228027 0.012105000205338001
v -0.09866099804639816 0.22801700234413147 0.011455999687314034
v -0.11379799991846085 0.22416800260543823 0.01627499982714653
v -0.10252299904823303 0.23864999413490295 0.025123000144958496
v -0.10417799651622772 0.23689599335193634 0.02291099913418293
v -0.10490299761295319 0.2430579960346222 0.02323400042951107
v -0.10799899697303772 0.22574299573898315 0.000003000000106112566
v -0.10537900030612946 0.22023700177669525 0.006399000063538551
v -0.12012799829244614 0.22784599661827087 0.000003999999989900971
v -0.11046700179576874 0.2348569929599762 0.004732999950647354
v -0.10674100369215012 0.2336360067129135 0.007925000041723251
v -0.10653399676084518 0.23733800649642944 0.009933000430464745
v -0.11046700179576874 0.2348569929599762 -0.004732999950647354
v -0.10674100369215012 0.2336360067129135 -0.007925000041723251
v -0.10653399676084518 0.23733800649642944 -0.009933000430464745
v -0.10393500328063965 0.24194000661373138 0.010838000103831291
v -0.08194799721240997 0.24545499682426453 -0.02141599915921688
v -0.10081099718809128 0.24296100437641144 -0.020274000242352486
v -0.09973199665546417 0.24556200206279755 -0.017562000080943108
v -0.10947400331497192 0.2286369949579239 -0.014775999821722507
v -0.1137939989566803 0.22764499485492706 -0.012070000171661377
v -0.1089949980378151 0.24122199416160583 -0.0201370008289814
v -0.11514899879693985 0.24123899638652802 -0.024181999266147614
v -0.10742799937725067 0.23879599571228027 -0.012105000205338001
v -0.11414600163698196 0.2496030032634735 -0.03321100026369095
v -0.10358300060033798 0.24454499781131744 -0.020312000066041946
v -0.09866099804639816 0.22801700234413147 -0.011455999687314034
v -0.11379799991846085 0.22416800260543823 -0.01627499982714653
v -0.10417799651622772 0.23689599335193634 -0.02291099913418293
v -0.10252299904823303 0.23864999413490295 -0.025123000144958496
v -0.10490299761295319 0.2430579960346222 -0.02323400042951107
v -0.10537900030612946 0.22023700177669525 -0.006399000063538551
v -0.10393500328063965 0.24194000661373138 -0.010838000103831291
v -0.11969300359487534 0.24736599624156952 0.027837000787258148
v -0.10767900198698044 0.2438099980354309 0.013292999938130379
v -0.11969300359487534 0.24736599624156952 -0.027837000787258148
v -0.10767900198698044 0.2438099980354309 -0.013292999938130379
v -0.11798600107431412 0.24595800042152405 0.03679800033569336
v -0.11981700360774994 0.24414999783039093 0.02859400026500225
v -0.11624699831008911 0.2254360020160675 0.009797999635338783
v -0.11661499738693237 0.22160999476909637 0.00927099958062172
v -0.11401499807834625 0.21854500472545624 0.016042999923229218
v -0.11356800049543381 0.22939899563789368 0.008449999615550041
v -0.10660699754953384 0.21841299533843994 0.01271700020879507
v -0.10757700353860855 0.2230989933013916 0.00508899986743927
v -0.11074800044298172 0.22151899337768555 9.999999974752427e-7
v -0.10757700353860855 0.2230989933013916 -0.00508899986743927
v -0.11851199716329575 0.22984600067138672 0.0039969999343156815
v -0.12737800180912018 0.21792000532150269 -0.000014999999621068127
v -0.11839299649000168 0.22600999474525452 0.003889000043272972
v -0.11851199716329575 0.22984600067138672 -0.0039969999343156815
v -0.11839299649000168 0.22600999474525452 -0.003889000043272972
v -0.11356800049543381 0.22939899563789368 -0.008449999615550041
v -0.11661499738693237 0.22160999476909637 -0.00927099958062172
v -0.11624699831008911 0.2254360020160675 -0.009797999635338783
v -0.11401499807834625 0.21854500472545624 -0.016042999923229218
v -0.11798600107431412 0.24595800042152405 -0.03679800033569336
v -0.11981700360774994 0.24414999783039093 -0.02859400026500225
v -0.10660699754953384 0.21841299533843994 -0.01271700020879507
v -0.118756003677845 0.2223770022392273 0.004056999925523996
v -0.11790899932384491 0.22049899399280548 0.004755999892950058
v -0.11301399767398834 0.2189600020647049 0.0072929998859763145
v -0.11796499788761139 0.21630600094795227 0
v -0.11301399767398834 0.2189600020647049 -0.0072929998859763145
v -0.11790899932384491 0.22049899399280548 -0.004755999892950058
v -0.13419100642204285 0.21199600398540497 -0.000018999999156221747
v -0.118756003677845 0.2223770022392273 -0.004056999925523996
v -0.1266389936208725 0.21113699674606323 0.004412999842315912
v -0.12085500359535217 0.21441000699996948 0.004430000204592943
v -0.12763099372386932 0.20370399951934814 0.00343999988399446
v -0.12939999997615814 0.2033119946718216 -0.000003000000106112566
v -0.12763099372386932 0.20370399951934814 -0.00343999988399446
v -0.12085500359535217 0.21441000699996948 -0.004430000204592943
v -0.13568900525569916 0.20915299654006958 0.004461999982595444
v -0.13658800721168518 0.20801900327205658 -0.00002099999983329326
v -0.1266389936208725 0.21113699674606323 -0.004412999842315912
v -0.13568900525569916 0.20915299654006958 -0.004461999982595444
v -0.1341239959001541 0.20601099729537964 0.00519599998369813
v -0.13323600590229034 0.20435699820518494 -0.000019999999494757503
v -0.1341239959001541 0.20601099729537964 -0.00519599998369813
f 1 2 3
f 4 2 1
f 4 1 5
f 3 6 1
f 1 6 7
f 5 1 7
f 2 8 3
f 8 2 4
f 8 9 3
f 10 11 3
f 3 12 10
f 13 12 3
f 3 9 13
f 3 14 6
f 3 15 14
f 3 11 16
f 16 17 3
f 3 17 18
f 18 15 3
f 19 20 4
f 19 4 5
f 21 4 20
f 8 4 21
f 5 7 19
f 7 6 14
f 7 22 19
f 22 7 23
f 23 7 14
f 9 8 21
f 9 21 24
f 13 9 24
f 11 10 25
f 12 25 10
f 11 25 26
f 27 16 11
f 26 27 11
f 28 29 12
f 28 12 13
f 12 29 30
f 12 30 25
f 13 24 28
f 23 14 15
f 31 23 15
f 31 15 18
f 16 27 17
f 17 32 33
f 18 17 33
f 34 32 17
f 27 34 17
f 33 31 18
f 35 20 19
f 19 22 35
f 35 36 20
f 37 20 36
f 21 20 37
f 24 21 37
f 22 38 35
f 38 22 39
f 39 22 23
f 39 23 31
f 24 37 40
f 28 24 40
f 41 26 25
f 41 25 30
f 26 41 42
f 42 43 26
f 27 26 43
f 34 27 43
f 28 40 44
f 44 29 28
f 44 45 29
f 30 29 46
f 29 45 46
f 41 30 46
f 47 39 31
f 47 31 33
f 32 48 49
f 33 32 49
f 50 32 34
f 50 48 32
f 49 47 33
f 50 34 43
f 51 36 35
f 35 38 51
f 51 52 36
f 53 36 52
f 37 36 53
f 40 37 53
f 38 54 51
f 54 38 55
f 55 38 39
f 55 39 47
f 40 53 56
f 44 40 56
f 42 41 57
f 41 58 57
f 41 46 58
f 42 57 59
f 60 43 42
f 59 60 42
f 60 61 43
f 61 50 43
f 44 56 62
f 62 45 44
f 62 63 45
f 64 45 65
f 66 65 45
f 66 45 63
f 45 64 46
f 58 46 67
f 67 46 64
f 68 55 47
f 68 47 49
f 48 69 70
f 49 48 70
f 71 48 72
f 48 71 73
f 69 48 73
f 50 72 48
f 70 68 49
f 74 50 61
f 72 50 74
f 75 52 51
f 51 54 75
f 75 76 52
f 77 52 76
f 53 52 77
f 56 53 77
f 54 78 75
f 78 54 79
f 79 54 55
f 79 55 68
f 56 77 80
f 62 56 80
f 59 57 81
f 57 58 82
f 57 82 81
f 67 82 58
f 59 81 83
f 84 60 59
f 83 84 59
f 85 61 60
f 84 85 60
f 61 85 74
f 62 80 86
f 86 63 62
f 86 87 63
f 88 66 63
f 88 63 87
f 89 90 64
f 89 64 91
f 64 65 66
f 64 66 91
f 64 90 92
f 64 92 67
f 66 93 94
f 66 94 91
f 88 93 66
f 95 67 96
f 67 95 97
f 67 97 98
f 92 96 67
f 67 98 82
f 99 79 68
f 99 68 70
f 69 100 101
f 70 69 101
f 69 73 102
f 100 69 102
f 101 99 70
f 73 71 72
f 72 103 104
f 105 72 104
f 105 73 72
f 106 103 72
f 74 106 72
f 107 108 73
f 105 107 73
f 73 108 102
f 109 74 95
f 97 95 74
f 110 97 74
f 74 109 106
f 85 110 74
f 76 75 111
f 111 75 78
f 77 76 112
f 112 76 111
f 113 80 77
f 113 77 112
f 114 78 79
f 111 78 114
f 79 99 115
f 114 79 115
f 116 86 80
f 116 80 113
f 117 118 81
f 81 119 117
f 81 98 119
f 98 81 82
f 83 81 111
f 81 120 111
f 118 120 81
f 111 84 83
f 84 121 122
f 122 123 84
f 123 110 84
f 85 84 110
f 111 124 84
f 84 124 121
f 116 87 86
f 120 88 87
f 116 120 87
f 120 118 88
f 88 125 93
f 125 88 126
f 126 88 118
f 127 128 89
f 128 90 89
f 89 91 125
f 129 89 125
f 127 89 129
f 130 131 90
f 128 132 90
f 90 131 92
f 90 133 130
f 90 132 133
f 91 94 125
f 96 92 134
f 135 134 92
f 135 92 131
f 125 136 93
f 136 94 93
f 136 137 94
f 137 138 94
f 94 138 125
f 95 96 139
f 139 109 95
f 139 96 140
f 96 134 140
f 141 142 97
f 97 142 143
f 97 143 144
f 144 98 97
f 97 145 141
f 146 145 97
f 147 146 97
f 97 110 147
f 144 148 98
f 98 148 119
f 99 101 149
f 115 99 149
f 101 100 149
f 100 102 124
f 100 124 149
f 102 121 124
f 108 150 102
f 151 102 150
f 121 102 151
f 103 152 153
f 104 103 154
f 103 155 154
f 106 152 103
f 153 156 103
f 156 155 103
f 104 154 157
f 150 105 104
f 150 104 158
f 158 104 157
f 150 107 105
f 159 106 109
f 106 159 160
f 152 106 160
f 107 161 162
f 108 107 162
f 107 163 161
f 150 163 107
f 108 162 150
f 164 109 139
f 164 159 109
f 110 165 147
f 123 165 110
f 113 112 111
f 116 113 111
f 120 116 111
f 111 114 115
f 111 115 149
f 111 149 124
f 118 117 126
f 127 126 117
f 166 127 117
f 166 117 167
f 117 148 167
f 148 117 119
f 151 122 121
f 122 151 157
f 122 157 168
f 169 122 168
f 169 165 122
f 123 122 165
f 125 138 136
f 125 126 129
f 127 129 126
f 127 170 128
f 170 127 166
f 128 170 171
f 132 128 171
f 135 131 130
f 130 172 173
f 130 173 174
f 130 174 135
f 172 130 175
f 133 175 130
f 132 171 166
f 132 166 167
f 148 133 132
f 148 132 167
f 144 133 148
f 175 133 143
f 143 133 144
f 135 176 134
f 134 176 140
f 135 174 176
f 136 138 137
f 139 140 177
f 139 177 178
f 179 164 139
f 178 179 139
f 140 176 177
f 180 142 141
f 141 181 182
f 141 182 180
f 141 145 183
f 184 181 141
f 183 184 141
f 180 143 142
f 180 175 143
f 145 146 183
f 146 185 183
f 146 156 185
f 147 156 146
f 165 156 147
f 162 163 150
f 158 151 150
f 151 158 157
f 153 152 160
f 186 187 153
f 188 186 153
f 160 188 153
f 185 153 187
f 153 185 156
f 154 189 157
f 190 189 154
f 190 154 155
f 168 190 155
f 169 168 155
f 155 156 165
f 169 155 165
f 168 157 189
f 159 191 160
f 164 191 159
f 191 188 160
f 161 163 162
f 179 191 164
f 170 166 171
f 190 168 189
f 182 172 175
f 192 173 172
f 192 172 182
f 193 194 173
f 193 173 192
f 194 174 173
f 194 176 174
f 182 175 180
f 177 176 194
f 177 194 193
f 177 193 195
f 178 177 195
f 195 179 178
f 196 191 179
f 197 196 179
f 195 197 179
f 181 198 192
f 181 192 182
f 199 198 181
f 184 199 181
f 183 185 184
f 185 187 184
f 184 187 199
f 187 186 199
f 186 196 197
f 199 186 197
f 186 188 196
f 188 191 196
f 198 200 192
f 201 193 192
f 201 192 200
f 202 195 193
f 202 193 201
f 195 202 203
f 203 204 195
f 197 195 204
f 199 197 205
f 205 197 204
f 198 206 200
f 207 206 198
f 208 209 198
f 199 208 198
f 198 209 207
f 208 199 205
f 202 201 200
f 202 200 210
f 206 210 200
f 203 202 210
f 203 210 211
f 212 204 203
f 211 212 203
f 208 205 204
f 212 208 204
f 211 210 206
f 211 206 207
f 207 209 211
f 208 212 209
f 209 212 211
