# Generated by Visualization Toolkit
v -0.031074000522494316 0.38223201036453247 0.0006580000044777989
v -0.03162800148129463 0.382656991481781 0.007915999740362167
v -0.04261000081896782 0.3854199945926666 0.0006380000268109143
v -0.029789999127388 0.38571199774742126 0.009368999861180782
v -0.030083000659942627 0.3833349943161011 0.0006590000120922923
v -0.03162800148129463 0.382656991481781 -0.006645000074058771
v -0.029789999127388 0.38571199774742126 -0.008097999729216099
v -0.035002000629901886 0.38408899307250977 0.015468999743461609
v -0.04054100066423416 0.3858320116996765 0.0191430002450943
v -0.05307599902153015 0.387580007314682 0.0050130002200603485
v -0.0531340017914772 0.38784998655319214 0.0006380000268109143
v -0.05333700031042099 0.3878769874572754 0.013520999811589718
v -0.049442000687122345 0.38799700140953064 0.019241999834775925
v -0.035002000629901886 0.38408899307250977 -0.014197999611496925
v -0.04054100066423416 0.3858320116996765 -0.01787099987268448
v -0.05307599902153015 0.387580007314682 -0.003742000088095665
v -0.05333700031042099 0.3878769874572754 -0.012249999679625034
v -0.049442000687122345 0.38799700140953064 -0.01797099970281124
v -0.029783999547362328 0.387347012758255 0.0006600000197067857
v -0.030799999833106995 0.3880600035190582 0.009984999895095825
v -0.033980000764131546 0.3876599967479706 0.016394000500440598
v -0.030799999833106995 0.3880600035190582 -0.008713999763131142
v -0.033980000764131546 0.3876599967479706 -0.015123000368475914
v -0.04052799940109253 0.39021098613739014 0.0197759997099638
v -0.05564500018954277 0.39134499430656433 0.005140999797731638
v -0.05563899874687195 0.3912299871444702 0.0006380000268109143
v -0.05564500018954277 0.39134499430656433 -0.003869999898597598
v -0.04951599985361099 0.3927670121192932 0.019912000745534897
v -0.05567900091409683 0.3890869915485382 0.01510700024664402
v -0.05616600066423416 0.3927769958972931 0.009197999723255634
v -0.04052799940109253 0.39021098613739014 -0.018504999577999115
v -0.05567900091409683 0.3890869915485382 -0.013836000114679337
v -0.04951599985361099 0.3927670121192932 -0.018641000613570213
v -0.05616600066423416 0.3927769958972931 -0.00792699959129095
v -0.02779199928045273 0.39535900950431824 0.0006619999767281115
v -0.029159000143408775 0.39482900500297546 0.009658999741077423
v -0.035009998828172684 0.3905099928379059 0.01600099913775921
v -0.029159000143408775 0.39482900500297546 -0.00838799960911274
v -0.035009998828172684 0.3905099928379059 -0.0147299999371171
v -0.03983499854803085 0.3937540054321289 0.0180479995906353
v -0.05411899834871292 0.3973129987716675 0.0064119999296963215
v -0.05370299890637398 0.39720699191093445 0.0006399999838322401
v -0.05411899834871292 0.3973129987716675 -0.005140999797731638
v -0.04874499887228012 0.3958140015602112 0.0188790000975132
v -0.053397998213768005 0.395889014005661 0.017885999754071236
v -0.05555399879813194 0.39827099442481995 0.009471000172197819
v -0.03983499854803085 0.3937540054321289 -0.016776999458670616
v -0.053397998213768005 0.395889014005661 -0.016614999622106552
v -0.04874499887228012 0.3958140015602112 -0.017607999965548515
v -0.05555399879813194 0.39827099442481995 -0.008200000040233135
v -0.026624999940395355 0.39840900897979736 0.0006629999843426049
v -0.027210000902414322 0.3982509970664978 0.010617000050842762
v -0.033906999975442886 0.3968360126018524 0.01659099943935871
v -0.027210000902414322 0.3982509970664978 -0.009345999918878078
v -0.033906999975442886 0.3968360126018524 -0.015320000238716602
v -0.037950001657009125 0.3982680141925812 0.01812800019979477
v -0.05084199830889702 0.4040820002555847 0.006604999769479036
v -0.05239899829030037 0.4049679934978485 0.009872999973595142
v -0.050220001488924026 0.40397098660469055 0.0006419999990612268
v -0.05084199830889702 0.4040820002555847 -0.00533400010317564
v -0.05239899829030037 0.4049679934978485 -0.008601999841630459
v -0.046254999935626984 0.40131598711013794 0.01901100017130375
v -0.05001299828290939 0.4034070074558258 0.019368000328540802
v -0.0585240013897419 0.3971880078315735 0.016176000237464905
v -0.055656999349594116 0.3987089991569519 0.01968899928033352
v -0.053050000220537186 0.4032280147075653 0.0234179999679327
v -0.062150001525878906 0.4019469916820526 0.0040259999223053455
v -0.037950001657009125 0.3982680141925812 -0.016857000067830086
v -0.05001299828290939 0.4034070074558258 -0.01809700019657612
v -0.046254999935626984 0.40131598711013794 -0.017740000039339066
v -0.055656999349594116 0.3987089991569519 -0.018417999148368835
v -0.0585240013897419 0.3971880078315735 -0.014905000105500221
v -0.053050000220537186 0.4032280147075653 -0.022146999835968018
v -0.062150001525878906 0.4019469916820526 -0.002756000030785799
v -0.025929000228643417 0.4020169973373413 0.0006639999919570982
v -0.026664000004529953 0.4020499885082245 0.01080000028014183
v -0.03159800171852112 0.3993459939956665 0.017525000497698784
v -0.026664000004529953 0.4020499885082245 -0.009529000148177147
v -0.03159800171852112 0.3993459939956665 -0.0162540003657341
v -0.03677599877119064 0.4005889892578125 0.01997699961066246
v -0.04994099959731102 0.4100539982318878 0.008244999684393406
v -0.05088699981570244 0.4088749885559082 0.010553999803960323
v -0.04873799905180931 0.40886300802230835 0.0006440000142902136
v -0.04994099959731102 0.4100539982318878 -0.00697400001809001
v -0.05088699981570244 0.4088749885559082 -0.00928299967199564
v -0.04363499954342842 0.4041669964790344 0.02090900018811226
v -0.04764600098133087 0.4053870141506195 0.018737999722361565
v -0.05262799933552742 0.4081000089645386 0.018780000507831573
v -0.06413599848747253 0.4057140052318573 0.02166599966585636
v -0.06340199708938599 0.40187200903892517 0.01626499928534031
v -0.062123000621795654 0.3962329924106598 0.023130999878048897
v -0.06065800040960312 0.395563006401062 0.010214000009000301
v -0.0599219985306263 0.40346500277519226 0.022272000089287758
v -0.06260000169277191 0.39823898673057556 0.020305000245571136
v -0.06365299969911575 0.3977000117301941 0.0006389999762177467
v -0.06861100345849991 0.38882601261138916 0.005286999978125095
v -0.0690469965338707 0.4050770103931427 0.0006399999838322401
v -0.06292500346899033 0.4073199927806854 0.007654999848455191
v -0.03677599877119064 0.4005889892578125 -0.018705999478697777
v -0.04764600098133087 0.4053870141506195 -0.01746699959039688
v -0.04363499954342842 0.4041669964790344 -0.019638000056147575
v -0.05262799933552742 0.4081000089645386 -0.017510000616312027
v -0.06340199708938599 0.40187200903892517 -0.0149940000846982
v -0.06413599848747253 0.4057140052318573 -0.020394999533891678
v -0.062123000621795654 0.3962329924106598 -0.021859999746084213
v -0.06065800040960312 0.395563006401062 -0.008942999877035618
v -0.06260000169277191 0.39823898673057556 -0.019034000113606453
v -0.0599219985306263 0.40346500277519226 -0.020999999716877937
v -0.06861100345849991 0.38882601261138916 -0.004015999846160412
v -0.06292500346899033 0.4073199927806854 -0.006384000182151794
v -0.03852799907326698 0.406345009803772 0.0006440000142902136
v -0.030855000019073486 0.4032610058784485 0.017758000642061234
v -0.03658000007271767 0.4053190052509308 0.020911000669002533
v -0.030855000019073486 0.4032610058784485 -0.01648700051009655
v -0.03658000007271767 0.4053190052509308 -0.01964000053703785
v -0.044110000133514404 0.4074380099773407 0.021035000681877136
v -0.06033499911427498 0.41436100006103516 0.015186999924480915
v -0.05205100029706955 0.4094789922237396 0.01346299983561039
v -0.06061900034546852 0.41214698553085327 0.009788000024855137
v -0.04846300184726715 0.40914401412010193 0.016203999519348145
v -0.05205100029706955 0.4094789922237396 -0.012191999703645706
v -0.06033499911427498 0.41436100006103516 -0.013915999792516232
v -0.06061900034546852 0.41214698553085327 -0.008516999892890453
v -0.04846300184726715 0.40914401412010193 -0.014933000318706036
v -0.060858000069856644 0.408407986164093 0.019948000088334084
v -0.059494998306035995 0.4106529951095581 0.017364000901579857
v -0.07131099700927734 0.4169580042362213 0.03446599841117859
v -0.06823299825191498 0.4082149863243103 0.01981700025498867
v -0.06299799680709839 0.4103749990463257 0.019982999190688133
v -0.07462900131940842 0.39635199308395386 0.012133000418543816
v -0.07072299718856812 0.39652299880981445 0.014709999784827232
v -0.07355999946594238 0.40930798649787903 0.023669999092817307
v -0.0672760009765625 0.4056699872016907 0.012165999971330166
v -0.06146100163459778 0.3940489888191223 0.011547000147402287
v -0.07520599663257599 0.39309900999069214 0.016138000413775444
v -0.06305199861526489 0.4046750068664551 0.02456600032746792
v -0.06477399915456772 0.4033229947090149 0.0224590003490448
v -0.06438600271940231 0.4092150032520294 0.022766999900341034
v -0.069923996925354 0.39355701208114624 0.0006380000268109143
v -0.06856299936771393 0.3879460096359253 0.006730999797582626
v -0.0800819993019104 0.39764899015426636 0.0006389999762177467
v -0.07055799663066864 0.4025169909000397 0.005144000053405762
v -0.0675320029258728 0.4007219970226288 0.008185000158846378
v -0.06674200296401978 0.40414899587631226 0.010096999816596508
v -0.07055799663066864 0.4025169909000397 -0.003872999921441078
v -0.0675320029258728 0.4007219970226288 -0.006914000026881695
v -0.06674200296401978 0.40414899587631226 -0.008825999684631824
v -0.06373199820518494 0.40799999237060547 0.010959000326693058
v -0.044110000133514404 0.4074380099773407 -0.019764000549912453
v -0.060858000069856644 0.408407986164093 -0.0186769999563694
v -0.059494998306035995 0.4106529951095581 -0.016093000769615173
v -0.07072299718856812 0.39652299880981445 -0.013438999652862549
v -0.07462900131940842 0.39635199308395386 -0.010862000286579132
v -0.06823299825191498 0.4082149863243103 -0.018546000123023987
v -0.07355999946594238 0.40930798649787903 -0.022399000823497772
v -0.0672760009765625 0.4056699872016907 -0.010894999839365482
v -0.07131099700927734 0.4169580042362213 -0.033107999712228775
v -0.06299799680709839 0.4103749990463257 -0.0187120009213686
v -0.06146100163459778 0.3940489888191223 -0.010276000015437603
v -0.07520599663257599 0.39309900999069214 -0.01486700028181076
v -0.06477399915456772 0.4033229947090149 -0.021188000217080116
v -0.06305199861526489 0.4046750068664551 -0.023295000195503235
v -0.06438600271940231 0.4092150032520294 -0.02149599976837635
v -0.06856299936771393 0.3879460096359253 -0.00546000013127923
v -0.06373199820518494 0.40799999237060547 -0.009688000194728374
v -0.07648500055074692 0.41583698987960815 0.028999000787734985
v -0.06666599959135056 0.4104050099849701 0.01329800020903349
v -0.07648500055074692 0.41583698987960815 -0.027641000226140022
v -0.06666599959135056 0.4104050099849701 -0.012027000077068806
v -0.07523900270462036 0.41422000527381897 0.03811600059270859
v -0.07712200284004211 0.4128490090370178 0.02976899966597557
v -0.07711700350046158 0.39471399784088135 0.009968000464141369
v -0.07806800305843353 0.3911980092525482 0.009465999901294708
v -0.07632099837064743 0.3878760039806366 0.01591699942946434
v -0.07414399832487106 0.39795300364494324 0.008684000000357628
v -0.06992799788713455 0.3864539861679077 0.012749000452458858
v -0.0699940025806427 0.39100900292396545 0.005483000073581934
v -0.07300200313329697 0.39008599519729614 0.0006370000191964209
v -0.0699940025806427 0.39100900292396545 -0.0042119999416172504
v -0.07835199683904648 0.3992370069026947 0.004443000070750713
v -0.08799800276756287 0.3896310031414032 0.0006210000137798488
v -0.07888100296258926 0.3956269919872284 0.0043390002101659775
v -0.07835199683904648 0.3992370069026947 -0.00317199993878603
v -0.07888100296258926 0.3956269919872284 -0.0030690000858157873
v -0.07414399832487106 0.39795300364494324 -0.007412999868392944
v -0.07806800305843353 0.3911980092525482 -0.008194999769330025
v -0.07711700350046158 0.39471399784088135 -0.008697999641299248
v -0.07632099837064743 0.3878760039806366 -0.014646000228822231
v -0.07523900270462036 0.41422000527381897 -0.036757998168468475
v -0.07712200284004211 0.4128490090370178 -0.028411999344825745
v -0.06992799788713455 0.3864539861679077 -0.011478000320494175
v -0.0797950029373169 0.39229100942611694 0.0044999998062849045
v -0.07937099784612656 0.3903859853744507 0.005166000220924616
v -0.07538600265979767 0.3880879878997803 0.007583000231534243
v -0.08011200278997421 0.38647300004959106 0.0006350000039674342
v -0.07538600265979767 0.3880879878997803 -0.006312000099569559
v -0.07937099784612656 0.3903859853744507 -0.0038950000889599323
v -0.0942310020327568 0.3827289938926697 0.0006590000120922923
v -0.0797950029373169 0.39229100942611694 -0.0032289999071508646
v -0.08927900344133377 0.3806439936161041 0.003604999976232648
v -0.08292800188064575 0.3852039873600006 0.004854999948292971
v -0.09117499738931656 0.3746129870414734 0.0029589999467134476
v -0.0917619988322258 0.37451300024986267 0.0006760000251233578
v -0.09117499738931656 0.3746129870414734 -0.001601999974809587
v -0.08292800188064575 0.3852039873600006 -0.0035840000491589308
v -0.09669999778270721 0.380374014377594 0.003636999987065792
v -0.09757799655199051 0.37946999073028564 0.0006649999995715916
v -0.08927900344133377 0.3806439936161041 -0.002247000113129616
v -0.09669999778270721 0.380374014377594 -0.0022799998987466097
v -0.09593799710273743 0.3771589994430542 0.0041240002028644085
v -0.09462100267410278 0.3754130005836487 0.0006590000120922923
v -0.09593799710273743 0.3771589994430542 -0.0027660001069307327
f 1 2 3
f 4 2 1
f 4 1 5
f 3 6 1
f 1 6 7
f 5 1 7
f 2 8 3
f 8 2 4
f 8 9 3
f 10 11 3
f 3 12 10
f 13 12 3
f 3 9 13
f 3 14 6
f 3 15 14
f 3 11 16
f 16 17 3
f 3 17 18
f 18 15 3
f 19 20 4
f 19 4 5
f 21 4 20
f 8 4 21
f 5 7 19
f 7 6 14
f 7 22 19
f 22 7 23
f 23 7 14
f 9 8 21
f 9 21 24
f 13 9 24
f 11 10 25
f 12 25 10
f 11 25 26
f 27 16 11
f 26 27 11
f 28 29 12
f 28 12 13
f 12 29 30
f 12 30 25
f 13 24 28
f 23 14 15
f 31 23 15
f 31 15 18
f 16 27 17
f 17 32 33
f 18 17 33
f 34 32 17
f 27 34 17
f 33 31 18
f 35 20 19
f 19 22 35
f 35 36 20
f 37 20 36
f 21 20 37
f 24 21 37
f 22 38 35
f 38 22 39
f 39 22 23
f 39 23 31
f 24 37 40
f 28 24 40
f 41 26 25
f 41 25 30
f 26 41 42
f 42 43 26
f 27 26 43
f 34 27 43
f 28 40 44
f 44 29 28
f 44 45 29
f 30 29 46
f 29 45 46
f 41 30 46
f 47 39 31
f 47 31 33
f 32 48 49
f 33 32 49
f 50 32 34
f 50 48 32
f 49 47 33
f 50 34 43
f 51 36 35
f 35 38 51
f 51 52 36
f 53 36 52
f 37 36 53
f 40 37 53
f 38 54 51
f 54 38 55
f 55 38 39
f 55 39 47
f 40 53 56
f 44 40 56
f 42 41 57
f 41 58 57
f 41 46 58
f 42 57 59
f 60 43 42
f 59 60 42
f 60 61 43
f 61 50 43
f 44 56 62
f 62 45 44
f 62 63 45
f 64 45 65
f 66 65 45
f 66 45 63
f 45 64 46
f 58 46 67
f 67 46 64
f 68 55 47
f 68 47 49
f 48 69 70
f 49 48 70
f 71 48 72
f 48 71 73
f 69 48 73
f 50 72 48
f 70 68 49
f 74 50 61
f 72 50 74
f 75 52 51
f 51 54 75
f 75 76 52
f 77 52 76
f 53 52 77
f 56 53 77
f 54 78 75
f 78 54 79
f 79 54 55
f 79 55 68
f 56 77 80
f 62 56 80
f 59 57 81
f 57 58 82
f 57 82 81
f 67 82 58
f 59 81 83
f 84 60 59
f 83 84 59
f 85 61 60
f 84 85 60
f 61 85 74
f 62 80 86
f 86 63 62
f 86 87 63
f 88 66 63
f 88 63 87
f 89 90 64
f 89 64 91
f 64 65 66
f 64 66 91
f 64 90 92
f 64 92 67
f 66 93 94
f 66 94 91
f 88 93 66
f 95 67 96
f 67 95 97
f 67 97 98
f 92 96 67
f 67 98 82
f 99 79 68
f 99 68 70
f 69 100 101
f 70 69 101
f 69 73 102
f 100 69 102
f 101 99 70
f 73 71 72
f 72 103 104
f 105 72 104
f 105 73 72
f 106 103 72
f 74 106 72
f 107 108 73
f 105 107 73
f 73 108 102
f 109 74 95
f 97 95 74
f 110 97 74
f 74 109 106
f 85 110 74
f 76 75 111
f 111 75 78
f 77 76 112
f 112 76 111
f 113 80 77
f 113 77 112
f 114 78 79
f 111 78 114
f 79 99 115
f 114 79 115
f 116 86 80
f 116 80 113
f 117 118 81
f 81 119 117
f 81 98 119
f 98 81 82
f 83 81 111
f 81 120 111
f 118 120 81
f 111 84 83
f 84 121 122
f 122 123 84
f 123 110 84
f 85 84 110
f 111 124 84
f 84 124 121
f 116 87 86
f 120 88 87
f 116 120 87
f 120 118 88
f 88 125 93
f 125 88 126
f 126 88 118
f 127 128 89
f 128 90 89
f 89 91 125
f 129 89 125
f 127 89 129
f 130 131 90
f 128 132 90
f 90 131 92
f 90 133 130
f 90 132 133
f 91 94 125
f 96 92 134
f 135 134 92
f 135 92 131
f 125 136 93
f 136 94 93
f 136 137 94
f 137 138 94
f 94 138 125
f 95 96 139
f 139 109 95
f 139 96 140
f 96 134 140
f 141 142 97
f 97 142 143
f 97 143 144
f 144 98 97
f 97 145 141
f 146 145 97
f 147 146 97
f 97 110 147
f 144 148 98
f 98 148 119
f 99 101 149
f 115 99 149
f 101 100 149
f 100 102 124
f 100 124 149
f 102 121 124
f 108 150 102
f 151 102 150
f 121 102 151
f 103 152 153
f 104 103 154
f 103 155 154
f 106 152 103
f 153 156 103
f 156 155 103
f 104 154 157
f 150 105 104
f 150 104 158
f 158 104 157
f 150 107 105
f 159 106 109
f 106 159 160
f 152 106 160
f 107 161 162
f 108 107 162
f 107 163 161
f 150 163 107
f 108 162 150
f 164 109 139
f 164 159 109
f 110 165 147
f 123 165 110
f 113 112 111
f 116 113 111
f 120 116 111
f 111 114 115
f 111 115 149
f 111 149 124
f 118 117 126
f 127 126 117
f 166 127 117
f 166 117 167
f 117 148 167
f 148 117 119
f 151 122 121
f 122 151 157
f 122 157 168
f 169 122 168
f 169 165 122
f 123 122 165
f 125 138 136
f 125 126 129
f 127 129 126
f 127 170 128
f 170 127 166
f 128 170 171
f 132 128 171
f 135 131 130
f 130 172 173
f 130 173 174
f 130 174 135
f 172 130 175
f 133 175 130
f 132 171 166
f 132 166 167
f 148 133 132
f 148 132 167
f 144 133 148
f 175 133 143
f 143 133 144
f 135 176 134
f 134 176 140
f 135 174 176
f 136 138 137
f 139 140 177
f 139 177 178
f 179 164 139
f 178 179 139
f 140 176 177
f 180 142 141
f 141 181 182
f 141 182 180
f 141 145 183
f 184 181 141
f 183 184 141
f 180 143 142
f 180 175 143
f 145 146 183
f 146 185 183
f 146 156 185
f 147 156 146
f 165 156 147
f 162 163 150
f 158 151 150
f 151 158 157
f 153 152 160
f 186 187 153
f 188 186 153
f 160 188 153
f 185 153 187
f 153 185 156
f 154 189 157
f 190 189 154
f 190 154 155
f 168 190 155
f 169 168 155
f 155 156 165
f 169 155 165
f 168 157 189
f 159 191 160
f 164 191 159
f 191 188 160
f 161 163 162
f 179 191 164
f 170 166 171
f 190 168 189
f 182 172 175
f 192 173 172
f 192 172 182
f 193 194 173
f 193 173 192
f 194 174 173
f 194 176 174
f 182 175 180
f 177 176 194
f 177 194 193
f 177 193 195
f 178 177 195
f 195 179 178
f 196 191 179
f 197 196 179
f 195 197 179
f 181 198 192
f 181 192 182
f 199 198 181
f 184 199 181
f 183 185 184
f 185 187 184
f 184 187 199
f 187 186 199
f 186 196 197
f 199 186 197
f 186 188 196
f 188 191 196
f 198 200 192
f 201 193 192
f 201 192 200
f 202 195 193
f 202 193 201
f 195 202 203
f 203 204 195
f 197 195 204
f 199 197 205
f 205 197 204
f 198 206 200
f 207 206 198
f 208 209 198
f 199 208 198
f 198 209 207
f 208 199 205
f 202 201 200
f 202 200 210
f 206 210 200
f 203 202 210
f 203 210 211
f 212 204 203
f 211 212 203
f 208 205 204
f 212 208 204
f 211 210 206
f 211 206 207
f 207 209 211
f 208 212 209
f 209 212 211
