# Generated by Visualization Toolkit
v -0.03827900066971779 0.2857320010662079 0.00002300000051036477
v -0.039007000625133514 0.28597700595855713 0.0076430002227425575
v -0.0517750009894371 0.28514599800109863 0.000003000000106112566
v -0.03791499882936478 0.2896530032157898 0.00916799996048212
v -0.03752800077199936 0.2871659994125366 0.00002499999936844688
v -0.039007000625133514 0.28597700595855713 -0.0076430002227425575
v -0.03791499882936478 0.2896530032157898 -0.00916799996048212
v -0.04310299828648567 0.2863079905509949 0.015572000294923782
v -0.04964600130915642 0.28624099493026733 0.019429000094532967
v -0.06380199640989304 0.28387799859046936 0.004596000071614981
v -0.06394500285387039 0.2841300070285797 0.000003000000106112566
v -0.06417399644851685 0.2840909957885742 0.013527999632060528
v -0.05997300148010254 0.2854909896850586 0.019533000886440277
v -0.04310299828648567 0.2863079905509949 -0.015572000294923782
v -0.04964600130915642 0.28624099493026733 -0.019429000094532967
v -0.06380199640989304 0.28387799859046936 -0.004596000071614981
v -0.06417399644851685 0.2840909957885742 -0.013527999632060528
v -0.05997300148010254 0.2854909896850586 -0.019533000886440277
v -0.038394998759031296 0.2912989854812622 0.00002499999936844688
v -0.039712000638246536 0.29168200492858887 0.009816000238060951
v -0.043053001165390015 0.2902350127696991 0.01654299907386303
v -0.039712000638246536 0.29168200492858887 -0.009816000238060951
v -0.043053001165390015 0.2902350127696991 -0.01654299907386303
v -0.050932999700307846 0.2906489968299866 0.020093999803066254
v -0.06771499663591385 0.2868199944496155 0.004730000160634518
v -0.06767500191926956 0.28670600056648254 0.000003000000106112566
v -0.06771499663591385 0.2868199944496155 -0.004730000160634518
v -0.061469998210668564 0.2902640104293823 0.020237000659108162
v -0.06708099693059921 0.28453800082206726 0.015192000195384026
v -0.06870800256729126 0.28808799386024475 0.008988999761641026
v -0.050932999700307846 0.2906489968299866 -0.020093999803066254
v -0.06708099693059921 0.28453800082206726 -0.015192000195384026
v -0.061469998210668564 0.2902640104293823 -0.020237000659108162
v -0.06870800256729126 0.28808799386024475 -0.008988999761641026
v -0.03860799968242645 0.30001100897789 0.000028000000384054147
v -0.03993799909949303 0.2990280091762543 0.009472999721765518
v -0.04501999914646149 0.29276299476623535 0.016131000593304634
v -0.03993799909949303 0.2990280091762543 -0.009472999721765518
v -0.04501999914646149 0.29276299476623535 -0.016131000593304634
v -0.051231998950242996 0.2944380044937134 0.018279999494552612
v -0.06782799959182739 0.29332301020622253 0.0060640000738203526
v -0.06734299659729004 0.29335299134254456 0.000004999999873689376
v -0.06782799959182739 0.29332301020622253 -0.0060640000738203526
v -0.0615370012819767 0.2935810089111328 0.01915300078690052
v -0.06662099808454514 0.2921279966831207 0.0181099995970726
v -0.06967400014400482 0.2938149869441986 0.009274999611079693
v -0.051231998950242996 0.2944380044937134 -0.018279999494552612
v -0.06662099808454514 0.2921279966831207 -0.0181099995970726
v -0.0615370012819767 0.2935810089111328 -0.01915300078690052
v -0.06967400014400482 0.2938149869441986 -0.009274999611079693
v -0.03824400156736374 0.3034619987010956 0.000029000000722589903
v -0.03883399814367294 0.3031109869480133 0.010479000397026539
v -0.04569900035858154 0.2994860112667084 0.01675100065767765
v -0.03883399814367294 0.3031109869480133 -0.010479000397026539
v -0.04569900035858154 0.2994860112667084 -0.01675100065767765
v -0.050523001700639725 0.29959699511528015 0.01836399920284748
v -0.06941100209951401 0.3022420108318329 0.006266999989748001
v -0.07136700302362442 0.302621990442276 0.009697999805212021
v -0.06870099902153015 0.3023349940776825 0.000007000000096013537
v -0.06941100209951401 0.3022420108318329 -0.006266999989748001
v -0.07136700302362442 0.302621990442276 -0.009697999805212021
v -0.06046200171113014 0.2999339997768402 0.019291000440716743
v -0.0651710033416748 0.30080100893974304 0.019665999338030815
v -0.07258199900388718 0.2917500138282776 0.016315000131726265
v -0.0699160024523735 0.29422101378440857 0.020003000274300575
v -0.07155899703502655 0.3006579875946045 0.023917999118566513
v -0.07794100046157837 0.2953430116176605 0.0035600000992417336
v -0.050523001700639725 0.29959699511528015 -0.01836399920284748
v -0.0651710033416748 0.30080100893974304 -0.019665999338030815
v -0.06046200171113014 0.2999339997768402 -0.019291000440716743
v -0.0699160024523735 0.29422101378440857 -0.020003000274300575
v -0.07258199900388718 0.2917500138282776 -0.016315000131726265
v -0.07155899703502655 0.3006579875946045 -0.023917999118566513
v -0.07794100046157837 0.2953430116176605 -0.0035600000992417336
v -0.03855900093913078 0.3073189854621887 0.000029000000722589903
v -0.039368998259305954 0.3071100115776062 0.010672000236809254
v -0.04393300041556358 0.3027690052986145 0.01773099973797798
v -0.039368998259305954 0.3071100115776062 -0.010672000236809254
v -0.04393300041556358 0.3027690052986145 -0.01773099973797798
v -0.0499349981546402 0.3023169934749603 0.020305000245571136
v -0.070203997194767 0.30854499340057373 0.007988999597728252
v -0.07088299840688705 0.3070479929447174 0.010413000360131264
v -0.0685420036315918 0.30774199962615967 0.000009000000318337698
v -0.070203997194767 0.30854499340057373 -0.007988999597728252
v -0.07088299840688705 0.3070479929447174 -0.010413000360131264
v -0.05846000090241432 0.3036609888076782 0.02128399908542633
v -0.06632100045681 0.30460599064826965 0.01900400035083294
v -0.07254700362682343 0.3056960105895996 0.01904899999499321
v -0.08122000098228455 0.29847800731658936 0.022079000249505043
v -0.07928100228309631 0.2948560118675232 0.016409000381827354
v -0.07621400058269501 0.2896060049533844 0.02361699938774109
v -0.07442200183868408 0.2894139885902405 0.01005600020289421
v -0.07596799731254578 0.29760199785232544 0.022714000195264816
v -0.07732900232076645 0.29146599769592285 0.020648999139666557
v -0.07831399887800217 0.2905780076980591 0.000003000000106112566
v -0.08107099682092667 0.28002500534057617 0.004883000161498785
v -0.08637399971485138 0.2962230145931244 0.000004999999873689376
v -0.08038000017404556 0.30049198865890503 0.007368999999016523
v -0.0499349981546402 0.3023169934749603 -0.020305000245571136
v -0.06632100045681 0.30460599064826965 -0.01900400035083294
v -0.05846000090241432 0.3036609888076782 -0.02128399908542633
v -0.07254700362682343 0.3056960105895996 -0.01904899999499321
v -0.07928100228309631 0.2948560118675232 -0.016409000381827354
v -0.08122000098228455 0.29847800731658936 -0.022079000249505043
v -0.07621400058269501 0.2896060049533844 -0.02361699938774109
v -0.07442200183868408 0.2894139885902405 -0.01005600020289421
v -0.07732900232076645 0.29146599769592285 -0.020648999139666557
v -0.07596799731254578 0.29760199785232544 -0.022714000195264816
v -0.08107099682092667 0.28002500534057617 -0.004883000161498785
v -0.08038000017404556 0.30049198865890503 -0.007368999999016523
v -0.053550999611616135 0.3075299859046936 0.000009000000318337698
v -0.04428799822926521 0.30695000290870667 0.017976000905036926
v -0.05112700164318085 0.30713799595832825 0.021285999566316605
v -0.04428799822926521 0.30695000290870667 -0.017976000905036926
v -0.05112700164318085 0.30713799595832825 -0.021285999566316605
v -0.05994800105690956 0.30679500102996826 0.02141599915921688
v -0.07965400069952011 0.3084239959716797 0.015275999903678894
v -0.07232899963855743 0.3072719871997833 0.013465999625623226
v -0.079305000603199 0.30610400438308716 0.009607999585568905
v -0.06832599639892578 0.30811500549316406 0.01634399965405464
v -0.07232899963855743 0.3072719871997833 -0.013465999625623226
v -0.07965400069952011 0.3084239959716797 -0.015275999903678894
v -0.079305000603199 0.30610400438308716 -0.009607999585568905
v -0.06832599639892578 0.30811500549316406 -0.01634399965405464
v -0.07845500111579895 0.302266001701355 0.020274000242352486
v -0.07763899862766266 0.30497100949287415 0.017562000080943108
v -0.09236600250005722 0.30742698907852173 0.03321100026369095
v -0.08641999959945679 0.2996470034122467 0.0201370008289814
v -0.08136700093746185 0.3035399913787842 0.020312000066041946
v -0.08985300362110138 0.2856149971485138 0.012070000171661377
v -0.08565600216388702 0.28707098960876465 0.014775999821722507
v -0.09254000335931778 0.2989960014820099 0.024181999266147614
v -0.08462300151586533 0.2974030077457428 0.012105000205338001
v -0.07484500110149384 0.2876270115375519 0.011455999687314034
v -0.08951500058174133 0.28215399384498596 0.01627499982714653
v -0.0797329992055893 0.297789990901947 0.025123000144958496
v -0.08120500296354294 0.2958639860153198 0.02291099913418293
v -0.08253200352191925 0.3019169867038727 0.02323400042951107
v -0.08390499651432037 0.2843509912490845 0.000003000000106112566
v -0.0807579979300499 0.27915599942207336 0.006399000063538551
v -0.09617099910974503 0.28512701392173767 0.000003999999989900971
v -0.08725699782371521 0.29315298795700073 0.004732999950647354
v -0.08343199640512466 0.29234200716018677 0.007925000041723251
v -0.08359099924564362 0.29604798555374146 0.009933000430464745
v -0.08725699782371521 0.29315298795700073 -0.004732999950647354
v -0.08343199640512466 0.29234200716018677 -0.007925000041723251
v -0.08359099924564362 0.29604798555374146 -0.009933000430464745
v -0.08145999908447266 0.30090999603271484 0.010838000103831291
v -0.05994800105690956 0.30679500102996826 -0.02141599915921688
v -0.07845500111579895 0.302266001701355 -0.020274000242352486
v -0.07763899862766266 0.30497100949287415 -0.017562000080943108
v -0.08565600216388702 0.28707098960876465 -0.014775999821722507
v -0.08985300362110138 0.2856149971485138 -0.012070000171661377
v -0.08641999959945679 0.2996470034122467 -0.0201370008289814
v -0.09254000335931778 0.2989960014820099 -0.024181999266147614
v -0.08462300151586533 0.2974030077457428 -0.012105000205338001
v -0.09236600250005722 0.30742698907852173 -0.03321100026369095
v -0.08136700093746185 0.3035399913787842 -0.020312000066041946
v -0.07484500110149384 0.2876270115375519 -0.011455999687314034
v -0.08951500058174133 0.28215399384498596 -0.01627499982714653
v -0.08120500296354294 0.2958639860153198 -0.02291099913418293
v -0.0797329992055893 0.297789990901947 -0.025123000144958496
v -0.08253200352191925 0.3019169867038727 -0.02323400042951107
v -0.0807579979300499 0.27915599942207336 -0.006399000063538551
v -0.08145999908447266 0.30090999603271484 -0.010838000103831291
v -0.09766100347042084 0.30459898710250854 0.027837000787258148
v -0.08536600321531296 0.3023639917373657 0.013292999938130379
v -0.09766100347042084 0.30459898710250854 -0.027837000787258148
v -0.08536600321531296 0.3023639917373657 -0.013292999938130379
v -0.09582500159740448 0.3033829927444458 0.03679800033569336
v -0.09746699780225754 0.3013859987258911 0.02859400026500225
v -0.09207399934530258 0.28314998745918274 0.009797999635338783
v -0.09206400066614151 0.2793020009994507 0.00927099958062172
v -0.08917699754238129 0.2765350043773651 0.016042999923229218
v -0.08980199694633484 0.2873849868774414 0.008449999615550041
v -0.08179900050163269 0.27720698714256287 0.01271700020879507
v -0.08322499692440033 0.28176599740982056 0.00508899986743927
v -0.08622200042009354 0.27984899282455444 9.999999974752427e-7
v -0.08322499692440033 0.28176599740982056 -0.00508899986743927
v -0.094760000705719 0.2872929871082306 0.0039969999343156815
v -0.10239999741315842 0.2744629979133606 -0.000014999999621068127
v -0.09426400065422058 0.283488005399704 0.003889000043272972
v -0.094760000705719 0.2872929871082306 -0.0039969999343156815
v -0.09426400065422058 0.283488005399704 -0.003889000043272972
v -0.08980199694633484 0.2873849868774414 -0.008449999615550041
v -0.09206400066614151 0.2793020009994507 -0.00927099958062172
v -0.09207399934530258 0.28314998745918274 -0.009797999635338783
v -0.08917699754238129 0.2765350043773651 -0.016042999923229218
v -0.09582500159740448 0.3033829927444458 -0.03679800033569336
v -0.09746699780225754 0.3013859987258911 -0.02859400026500225
v -0.08179900050163269 0.27720698714256287 -0.01271700020879507
v -0.09426800161600113 0.27983400225639343 0.004056999925523996
v -0.09324000030755997 0.2780570089817047 0.004755999892950058
v -0.08822300285100937 0.2770560085773468 0.0072929998859763145
v -0.09288299828767776 0.2738780081272125 0
v -0.08822300285100937 0.2770560085773468 -0.0072929998859763145
v -0.09324000030755997 0.2780570089817047 -0.004755999892950058
v -0.10858999937772751 0.26782798767089844 -0.000018999999156221747
v -0.09426800161600113 0.27983400225639343 -0.004056999925523996
v -0.10099799931049347 0.2677919864654541 0.004412999842315912
v -0.09556999802589417 0.2716769874095917 0.004430000204592943
v -0.1012519970536232 0.2602880001068115 0.00343999988399446
v -0.10297200083732605 0.2597059905529022 -0.000003000000106112566
v -0.1012519970536232 0.2602880001068115 -0.00343999988399446
v -0.09556999802589417 0.2716769874095917 -0.004430000204592943
v -0.10979899764060974 0.26483699679374695 0.004461999982595444
v -0.11058100312948227 0.26361000537872314 -0.00002099999983329326
v -0.10099799931049347 0.2677919864654541 -0.004412999842315912
v -0.10979899764060974 0.26483699679374695 -0.004461999982595444
v -0.10793299973011017 0.26187899708747864 0.00519599998369813
v -0.10688800364732742 0.260329008102417 -0.000019999999494757503
v -0.10793299973011017 0.26187899708747864 -0.00519599998369813
f 1 2 3
f 4 2 1
f 4 1 5
f 3 6 1
f 1 6 7
f 5 1 7
f 2 8 3
f 8 2 4
f 8 9 3
f 10 11 3
f 3 12 10
f 13 12 3
f 3 9 13
f 3 14 6
f 3 15 14
f 3 11 16
f 16 17 3
f 3 17 18
f 18 15 3
f 19 20 4
f 19 4 5
f 21 4 20
f 8 4 21
f 5 7 19
f 7 6 14
f 7 22 19
f 22 7 23
f 23 7 14
f 9 8 21
f 9 21 24
f 13 9 24
f 11 10 25
f 12 25 10
f 11 25 26
f 27 16 11
f 26 27 11
f 28 29 12
f 28 12 13
f 12 29 30
f 12 30 25
f 13 24 28
f 23 14 15
f 31 23 15
f 31 15 18
f 16 27 17
f 17 32 33
f 18 17 33
f 34 32 17
f 27 34 17
f 33 31 18
f 35 20 19
f 19 22 35
f 35 36 20
f 37 20 36
f 21 20 37
f 24 21 37
f 22 38 35
f 38 22 39
f 39 22 23
f 39 23 31
f 24 37 40
f 28 24 40
f 41 26 25
f 41 25 30
f 26 41 42
f 42 43 26
f 27 26 43
f 34 27 43
f 28 40 44
f 44 29 28
f 44 45 29
f 30 29 46
f 29 45 46
f 41 30 46
f 47 39 31
f 47 31 33
f 32 48 49
f 33 32 49
f 50 32 34
f 50 48 32
f 49 47 33
f 50 34 43
f 51 36 35
f 35 38 51
f 51 52 36
f 53 36 52
f 37 36 53
f 40 37 53
f 38 54 51
f 54 38 55
f 55 38 39
f 55 39 47
f 40 53 56
f 44 40 56
f 42 41 57
f 41 58 57
f 41 46 58
f 42 57 59
f 60 43 42
f 59 60 42
f 60 61 43
f 61 50 43
f 44 56 62
f 62 45 44
f 62 63 45
f 64 45 65
f 66 65 45
f 66 45 63
f 45 64 46
f 58 46 67
f 67 46 64
f 68 55 47
f 68 47 49
f 48 69 70
f 49 48 70
f 71 48 72
f 48 71 73
f 69 48 73
f 50 72 48
f 70 68 49
f 74 50 61
f 72 50 74
f 75 52 51
f 51 54 75
f 75 76 52
f 77 52 76
f 53 52 77
f 56 53 77
f 54 78 75
f 78 54 79
f 79 54 55
f 79 55 68
f 56 77 80
f 62 56 80
f 59 57 81
f 57 58 82
f 57 82 81
f 67 82 58
f 59 81 83
f 84 60 59
f 83 84 59
f 85 61 60
f 84 85 60
f 61 85 74
f 62 80 86
f 86 63 62
f 86 87 63
f 88 66 63
f 88 63 87
f 89 90 64
f 89 64 91
f 64 65 66
f 64 66 91
f 64 90 92
f 64 92 67
f 66 93 94
f 66 94 91
f 88 93 66
f 95 67 96
f 67 95 97
f 67 97 98
f 92 96 67
f 67 98 82
f 99 79 68
f 99 68 70
f 69 100 101
f 70 69 101
f 69 73 102
f 100 69 102
f 101 99 70
f 73 71 72
f 72 103 104
f 105 72 104
f 105 73 72
f 106 103 72
f 74 106 72
f 107 108 73
f 105 107 73
f 73 108 102
f 109 74 95
f 97 95 74
f 110 97 74
f 74 109 106
f 85 110 74
f 76 75 111
f 111 75 78
f 77 76 112
f 112 76 111
f 113 80 77
f 113 77 112
f 114 78 79
f 111 78 114
f 79 99 115
f 114 79 115
f 116 86 80
f 116 80 113
f 117 118 81
f 81 119 117
f 81 98 119
f 98 81 82
f 83 81 111
f 81 120 111
f 118 120 81
f 111 84 83
f 84 121 122
f 122 123 84
f 123 110 84
f 85 84 110
f 111 124 84
f 84 124 121
f 116 87 86
f 120 88 87
f 116 120 87
f 120 118 88
f 88 125 93
f 125 88 126
f 126 88 118
f 127 128 89
f 128 90 89
f 89 91 125
f 129 89 125
f 127 89 129
f 130 131 90
f 128 132 90
f 90 131 92
f 90 133 130
f 90 132 133
f 91 94 125
f 96 92 134
f 135 134 92
f 135 92 131
f 125 136 93
f 136 94 93
f 136 137 94
f 137 138 94
f 94 138 125
f 95 96 139
f 139 109 95
f 139 96 140
f 96 134 140
f 141 142 97
f 97 142 143
f 97 143 144
f 144 98 97
f 97 145 141
f 146 145 97
f 147 146 97
f 97 110 147
f 144 148 98
f 98 148 119
f 99 101 149
f 115 99 149
f 101 100 149
f 100 102 124
f 100 124 149
f 102 121 124
f 108 150 102
f 151 102 150
f 121 102 151
f 103 152 153
f 104 103 154
f 103 155 154
f 106 152 103
f 153 156 103
f 156 155 103
f 104 154 157
f 150 105 104
f 150 104 158
f 158 104 157
f 150 107 105
f 159 106 109
f 106 159 160
f 152 106 160
f 107 161 162
f 108 107 162
f 107 163 161
f 150 163 107
f 108 162 150
f 164 109 139
f 164 159 109
f 110 165 147
f 123 165 110
f 113 112 111
f 116 113 111
f 120 116 111
f 111 114 115
f 111 115 149
f 111 149 124
f 118 117 126
f 127 126 117
f 166 127 117
f 166 117 167
f 117 148 167
f 148 117 119
f 151 122 121
f 122 151 157
f 122 157 168
f 169 122 168
f 169 165 122
f 123 122 165
f 125 138 136
f 125 126 129
f 127 129 126
f 127 170 128
f 170 127 166
f 128 170 171
f 132 128 171
f 135 131 130
f 130 172 173
f 130 173 174
f 130 174 135
f 172 130 175
f 133 175 130
f 132 171 166
f 132 166 167
f 148 133 132
f 148 132 167
f 144 133 148
f 175 133 143
f 143 133 144
f 135 176 134
f 134 176 140
f 135 174 176
f 136 138 137
f 139 140 177
f 139 177 178
f 179 164 139
f 178 179 139
f 140 176 177
f 180 142 141
f 141 181 182
f 141 182 180
f 141 145 183
f 184 181 141
f 183 184 141
f 180 143 142
f 180 175 143
f 145 146 183
f 146 185 183
f 146 156 185
f 147 156 146
f 165 156 147
f 162 163 150
f 158 151 150
f 151 158 157
f 153 152 160
f 186 187 153
f 188 186 153
f 160 188 153
f 185 153 187
f 153 185 156
f 154 189 157
f 190 189 154
f 190 154 155
f 168 190 155
f 169 168 155
f 155 156 165
f 169 155 165
f 168 157 189
f 159 191 160
f 164 191 159
f 191 188 160
f 161 163 162
f 179 191 164
f 170 166 171
f 190 168 189
f 182 172 175
f 192 173 172
f 192 172 182
f 193 194 173
f 193 173 192
f 194 174 173
f 194 176 174
f 182 175 180
f 177 176 194
f 177 194 193
f 177 193 195
f 178 177 195
f 195 179 178
f 196 191 179
f 197 196 179
f 195 197 179
f 181 198 192
f 181 192 182
f 199 198 181
f 184 199 181
f 183 185 184
f 185 187 184
f 184 187 199
f 187 186 199
f 186 196 197
f 199 186 197
f 186 188 196
f 188 191 196
f 198 200 192
f 201 193 192
f 201 192 200
f 202 195 193
f 202 193 201
f 195 202 203
f 203 204 195
f 197 195 204
f 199 197 205
f 205 197 204
f 198 206 200
f 207 206 198
f 208 209 198
f 199 208 198
f 198 209 207
f 208 199 205
f 202 201 200
f 202 200 210
f 206 210 200
f 203 202 210
f 203 210 211
f 212 204 203
f 211 212 203
f 208 205 204
f 212 208 204
f 211 210 206
f 211 206 207
f 207 209 211
f 208 212 209
f 209 212 211
