# Generated by Visualization Toolkit
v -0.02128800004720688 0.20668600499629974 0.00002499999936844688
v -0.02219099923968315 0.20671799778938293 0.008244000375270844
v -0.03633999824523926 0.20100900530815125 0.000003000000106112566
v -0.022166000679135323 0.21161100268363953 0.009890000335872173
v -0.02091200090944767 0.20871500670909882 0.00002700000004551839
v -0.02219099923968315 0.20671799778938293 -0.008244000375270844
v -0.022166000679135323 0.21161100268363953 -0.009890000335872173
v -0.026926999911665916 0.2056169956922531 0.016798000782728195
v -0.03429500013589859 0.20312899351119995 0.020958000794053078
v -0.04950900003314018 0.19503800570964813 0.00495699979364872
v -0.04975299909710884 0.19529299437999725 0.000003000000106112566
v -0.049998000264167786 0.19516099989414215 0.014592000283300877
v -0.04571299999952316 0.19841599464416504 0.021071000024676323
v -0.026926999911665916 0.2056169956922531 -0.016798000782728195
v -0.03429500013589859 0.20312899351119995 -0.020958000794053078
v -0.04950900003314018 0.19503800570964813 -0.00495699979364872
v -0.049998000264167786 0.19516099989414215 -0.014592000283300877
v -0.04571299999952316 0.19841599464416504 -0.021071000024676323
v -0.023249000310897827 0.2134460061788559 0.00002700000004551839
v -0.024862000718712807 0.2134300023317337 0.01058799959719181
v -0.02816000021994114 0.2104330062866211 0.0178459994494915
v -0.024862000718712807 0.2134300023317337 -0.01058799959719181
v -0.02816000021994114 0.2104330062866211 -0.0178459994494915
v -0.03719799965620041 0.2080409973859787 0.021676000207662582
v -0.052671000361442566 0.1988220065832138 0.0051020001992583275
v -0.05481300130486488 0.19706900417804718 0.000003000000106112566
v -0.052671000361442566 0.1988220065832138 -0.0051020001992583275
v -0.04897399991750717 0.20369599759578705 0.021828999742865562
v -0.053429000079631805 0.19463799893856049 0.016388000920414925
v -0.05405399948358536 0.20011399686336517 0.009696000255644321
v -0.03719799965620041 0.2080409973859787 -0.021676000207662582
v -0.053429000079631805 0.19463799893856049 -0.016388000920414925
v -0.04897399991750717 0.20369599759578705 -0.021828999742865562
v -0.05405399948358536 0.20011399686336517 -0.009696000255644321
v -0.025988999754190445 0.22328899800777435 0.000029999999242136255
v -0.0271029993891716 0.22169999778270721 0.010219000279903412
v -0.031213000416755676 0.21279799938201904 0.017400000244379044
v -0.0271029993891716 0.22169999778270721 -0.010219000279903412
v -0.031213000416755676 0.21279799938201904 -0.017400000244379044
v -0.038780998438596725 0.2125609964132309 0.019719000905752182
v -0.0545790009200573 0.20683600008487701 0.006541999988257885
v -0.0540819987654686 0.2070080041885376 0.000004999999873689376
v -0.0545790009200573 0.20683600008487701 -0.006541999988257885
v -0.04809800162911415 0.20891700685024261 0.020659999921917915
v -0.05299299955368042 0.2056960016489029 0.01953599974513054
v -0.0566370002925396 0.20692799985408783 0.010005000047385693
v -0.038780998438596725 0.2125609964132309 -0.019719000905752182
v -0.05299299955368042 0.2056960016489029 -0.01953599974513054
v -0.04809800162911415 0.20891700685024261 -0.020659999921917915
v -0.0566370002925396 0.20692799985408783 -0.010005000047385693
v -0.026559999212622643 0.22766000032424927 0.00003099999958067201
v -0.027077000588178635 0.227060005068779 0.01130400039255619
v -0.033229000866413116 0.22065499424934387 0.01806900091469288
v -0.027077000588178635 0.227060005068779 -0.01130400039255619
v -0.033229000866413116 0.22065499424934387 -0.01806900091469288
v -0.038284000009298325 0.2194419950246811 0.019809000194072723
v -0.05868399888277054 0.21742799878120422 0.00675999978557229
v -0.060825999826192856 0.21735000610351562 0.010460999794304371
v -0.05796999856829643 0.217740997672081 0.000007999999979801942
v -0.05868399888277054 0.21742799878120422 -0.00675999978557229
v -0.060825999826192856 0.21735000610351562 -0.010460999794304371
v -0.04872800037264824 0.21707600355148315 0.020809000357985497
v -0.053870998322963715 0.2168309986591339 0.02121400088071823
v -0.05909699946641922 0.2035589963197708 0.01759899966418743
v -0.05700099840760231 0.20736299455165863 0.021577000617980957
v -0.060485001653432846 0.2148669958114624 0.025800000876188278
v -0.06690599769353867 0.21037200093269348 0.0038399999029934406
v -0.038284000009298325 0.2194419950246811 -0.019809000194072723
v -0.053870998322963715 0.2168309986591339 -0.02121400088071823
v -0.04872800037264824 0.21707600355148315 -0.020809000357985497
v -0.05700099840760231 0.20736299455165863 -0.021577000617980957
v -0.05909699946641922 0.2035589963197708 -0.01759899966418743
v -0.060485001653432846 0.2148669958114624 -0.025800000876188278
v -0.06690599769353867 0.21037200093269348 -0.0038399999029934406
v -0.027950000017881393 0.23234300315380096 0.00003199999991920777
v -0.028736000880599022 0.2318580001592636 0.011510999873280525
v -0.032294001430273056 0.22520999610424042 0.01912599988281727
v -0.028736000880599022 0.2318580001592636 -0.011510999873280525
v -0.032294001430273056 0.22520999610424042 -0.01912599988281727
v -0.038419999182224274 0.22297100722789764 0.02190300077199936
v -0.06124600023031235 0.2250020056962967 0.008617999963462353
v -0.06154000014066696 0.2229599952697754 0.011233000084757805
v -0.05929400026798248 0.2244739979505539 0.000009000000318337698
v -0.06124600023031235 0.2250020056962967 -0.008617999963462353
v -0.06154000014066696 0.2229599952697754 -0.011233000084757805
v -0.047669000923633575 0.22224800288677216 0.022958999499678612
v -0.05611699819564819 0.22121599316596985 0.020500000566244125
v -0.06290099769830704 0.2208230048418045 0.020547999069094658
v -0.07112900167703629 0.21345800161361694 0.023816000670194626
v -0.06818799674510956 0.20943500101566315 0.01769999973475933
v -0.0636570006608963 0.20366699993610382 0.025474999099969864
v -0.06036999821662903 0.20015400648117065 0.010847999714314938
v -0.06540299952030182 0.21366900205612183 0.024501999840140343
v -0.06529200077056885 0.205704003572464 0.022274000570178032
v -0.066102996468544 0.20435599982738495 0.000003999999989900971
v -0.061712998896837234 0.18828199803829193 0.005268000066280365
v -0.07627400010824203 0.2111539989709854 0.000004999999873689376
v -0.07075300067663193 0.21616999804973602 0.007949000224471092
v -0.038419999182224274 0.22297100722789764 -0.02190300077199936
v -0.05611699819564819 0.22121599316596985 -0.020500000566244125
v -0.047669000923633575 0.22224800288677216 -0.022958999499678612
v -0.06290099769830704 0.2208230048418045 -0.020547999069094658
v -0.06818799674510956 0.20943500101566315 -0.01769999973475933
v -0.07112900167703629 0.21345800161361694 -0.023816000670194626
v -0.0636570006608963 0.20366699993610382 -0.025474999099969864
v -0.06036999821662903 0.20015400648117065 -0.010847999714314938
v -0.06529200077056885 0.205704003572464 -0.022274000570178032
v -0.06540299952030182 0.21366900205612183 -0.024501999840140343
v -0.061712998896837234 0.18828199803829193 -0.005268000066280365
v -0.07075300067663193 0.21616999804973602 -0.007949000224471092
v -0.04362199828028679 0.22840900719165802 0.000009999999747378752
v -0.03381400182843208 0.23028400540351868 0.01939000003039837
v -0.04098900035023689 0.22860200703144073 0.022960999980568886
v -0.03381400182843208 0.23028400540351868 -0.01939000003039837
v -0.04098900035023689 0.22860200703144073 -0.022960999980568886
v -0.0500820018351078 0.2257079929113388 0.023101000115275383
v -0.07197999954223633 0.22621099650859833 0.016478000208735466
v -0.06310799717903137 0.2228340059518814 0.014526000246405602
v -0.07103200256824493 0.22341300547122955 0.010363999754190445
v -0.05917099863290787 0.22499600052833557 0.01763099990785122
v -0.06310799717903137 0.2228340059518814 -0.014526000246405602
v -0.07197999954223633 0.22621099650859833 -0.016478000208735466
v -0.07103200256824493 0.22341300547122955 -0.010363999754190445
v -0.05917099863290787 0.22499600052833557 -0.01763099990785122
v -0.0691789984703064 0.2188510000705719 0.021870000287890434
v -0.06900099664926529 0.22241699695587158 0.01894400082528591
v -0.07810399681329727 0.22443200647830963 0.01984499953687191
v -0.07673399895429611 0.21518200635910034 0.014623000286519527
v -0.07255099713802338 0.21971499919891357 0.02191000059247017
v -0.0733489990234375 0.19899800419807434 0.013020000420510769
v -0.06931299716234207 0.20184700191020966 0.015938999131321907
v -0.08298700302839279 0.21285699307918549 0.01756099984049797
v -0.07473400235176086 0.21305300295352936 0.01305800024420023
v -0.06172600015997887 0.20154500007629395 0.012357000261545181
v -0.07212699949741364 0.19477899372577667 0.017556000500917435
v -0.06939700245857239 0.21297100186347961 0.02710000053048134
v -0.07045800238847733 0.21021200716495514 0.024714000523090363
v -0.07336699962615967 0.21740899980068207 0.02506200037896633
v -0.0657690018415451 0.19295799732208252 0.000003000000106112566
v -0.061167001724243164 0.18727900087833405 0.006903000175952911
v -0.07985100150108337 0.1968279927968979 0.000003999999989900971
v -0.07612399756908417 0.20534299314022064 0.005106000229716301
v -0.07191000133752823 0.20528200268745422 0.008549000136554241
v -0.07331299781799316 0.21162399649620056 0.010714000090956688
v -0.07612399756908417 0.20534299314022064 -0.005106000229716301
v -0.07191000133752823 0.20528200268745422 -0.008549000136554241
v -0.07331299781799316 0.21162399649620056 -0.010714000090956688
v -0.0719899982213974 0.21642200648784637 0.011691000312566757
v -0.0500820018351078 0.2257079929113388 -0.023101000115275383
v -0.0691789984703064 0.2188510000705719 -0.021870000287890434
v -0.06900099664926529 0.22241699695587158 -0.01894400082528591
v -0.06931299716234207 0.20184700191020966 -0.015938999131321907
v -0.0733489990234375 0.19899800419807434 -0.013020000420510769
v -0.07673399895429611 0.21518200635910034 -0.014623000286519527
v -0.08298700302839279 0.21285699307918549 -0.01756099984049797
v -0.07473400235176086 0.21305300295352936 -0.01305800024420023
v -0.07810399681329727 0.22443200647830963 -0.019843999296426773
v -0.07255099713802338 0.21971499919891357 -0.02191000059247017
v -0.06172600015997887 0.20154500007629395 -0.012357000261545181
v -0.07212699949741364 0.19477899372577667 -0.017556000500917435
v -0.07045800238847733 0.21021200716495514 -0.024714000523090363
v -0.06939700245857239 0.21297100186347961 -0.02710000053048134
v -0.07336699962615967 0.21740899980068207 -0.02506200037896633
v -0.061167001724243164 0.18727900087833405 -0.006903000175952911
v -0.0719899982213974 0.21642200648784637 -0.011691000312566757
v -0.08294700086116791 0.21960599720478058 0.01663300022482872
v -0.07675699889659882 0.2190379947423935 0.01433899998664856
v -0.08294700086116791 0.21960599720478058 -0.01663300022482872
v -0.07675699889659882 0.2190379947423935 -0.01433899998664856
v -0.08071800321340561 0.2185489982366562 0.021988000720739365
v -0.0819379985332489 0.2156590074300766 0.017085999250411987
v -0.07506000250577927 0.19538399577140808 0.01056899968534708
v -0.07408499717712402 0.19060300290584564 0.010001000016927719
v -0.07036399841308594 0.18787699937820435 0.017305999994277954
v -0.07373800128698349 0.20121100544929504 0.009115000255405903
v -0.061771001666784286 0.18459899723529816 0.013717999681830406
v -0.06440799683332443 0.18991300463676453 0.005489000119268894
v -0.06809700280427933 0.19272799789905548 9.999999974752427e-7
v -0.06440799683332443 0.18991300463676453 -0.005489000119268894
v -0.07891499996185303 0.19986900687217712 0.004311999771744013
v -0.08282499760389328 0.18973200023174286 -0.000015999999959603883
v -0.07744099944829941 0.19526199996471405 0.004195000045001507
v -0.07891499996185303 0.19986900687217712 -0.004311999771744013
v -0.07744099944829941 0.19526199996471405 -0.004195000045001507
v -0.07373800128698349 0.20121100544929504 -0.009115000255405903
v -0.07408499717712402 0.19060300290584564 -0.010001000016927719
v -0.07506000250577927 0.19538399577140808 -0.01056899968534708
v -0.07036399841308594 0.18787699937820435 -0.017305999994277954
v -0.08071800321340561 0.2185489982366562 -0.021988000720739365
v -0.0819379985332489 0.2156590074300766 -0.017085999250411987
v -0.061771001666784286 0.18459899723529816 -0.013717999681830406
v -0.07652900367975235 0.19071799516677856 0.004375999793410301
v -0.07500600069761276 0.18876400589942932 0.0051299999468028545
v -0.06949499994516373 0.18876099586486816 0.007867000065743923
v -0.07358500361442566 0.1836560070514679 0
v -0.06949499994516373 0.18876099586486816 -0.007867000065743923
v -0.07500600069761276 0.18876400589942932 -0.0051299999468028545
v -0.08765199780464172 0.1799509972333908 -0.00002099999983329326
v -0.07652900367975235 0.19071799516677856 -0.004375999793410301
v -0.07968199998140335 0.18178600072860718 0.0047610001638531685
v -0.0758500024676323 0.1802549958229065 0.004778999835252762
v -0.07806800305843353 0.17239299416542053 0.003711000084877014
v -0.07972600311040878 0.17124399542808533 -0.000003000000106112566
v -0.07806800305843353 0.17239299416542053 -0.003711000084877014
v -0.0758500024676323 0.1802549958229065 -0.004778999835252762
v -0.08816999942064285 0.17593200504779816 0.004813999868929386
v -0.08868300169706345 0.1742130070924759 -0.00002300000051036477
v -0.07968199998140335 0.18178600072860718 -0.0047610001638531685
v -0.08816999942064285 0.17593200504779816 -0.004813999868929386
v -0.08547300100326538 0.17271700501441956 0.0056059998460114
v -0.0839880034327507 0.17104899883270264 -0.00002099999983329326
v -0.08547300100326538 0.17271700501441956 -0.0056059998460114
f 1 2 3
f 4 2 1
f 4 1 5
f 3 6 1
f 1 6 7
f 5 1 7
f 2 8 3
f 8 2 4
f 8 9 3
f 10 11 3
f 3 12 10
f 13 12 3
f 3 9 13
f 3 14 6
f 3 15 14
f 3 11 16
f 16 17 3
f 3 17 18
f 18 15 3
f 19 20 4
f 19 4 5
f 21 4 20
f 8 4 21
f 5 7 19
f 7 6 14
f 7 22 19
f 22 7 23
f 23 7 14
f 9 8 21
f 9 21 24
f 13 9 24
f 11 10 25
f 12 25 10
f 11 25 26
f 27 16 11
f 26 27 11
f 28 29 12
f 28 12 13
f 12 29 30
f 12 30 25
f 13 24 28
f 23 14 15
f 31 23 15
f 31 15 18
f 16 27 17
f 17 32 33
f 18 17 33
f 34 32 17
f 27 34 17
f 33 31 18
f 35 20 19
f 19 22 35
f 35 36 20
f 37 20 36
f 21 20 37
f 24 21 37
f 22 38 35
f 38 22 39
f 39 22 23
f 39 23 31
f 24 37 40
f 28 24 40
f 41 26 25
f 41 25 30
f 26 41 42
f 42 43 26
f 27 26 43
f 34 27 43
f 28 40 44
f 44 29 28
f 44 45 29
f 30 29 46
f 29 45 46
f 41 30 46
f 47 39 31
f 47 31 33
f 32 48 49
f 33 32 49
f 50 32 34
f 50 48 32
f 49 47 33
f 50 34 43
f 51 36 35
f 35 38 51
f 51 52 36
f 53 36 52
f 37 36 53
f 40 37 53
f 38 54 51
f 54 38 55
f 55 38 39
f 55 39 47
f 40 53 56
f 44 40 56
f 42 41 57
f 41 58 57
f 41 46 58
f 42 57 59
f 60 43 42
f 59 60 42
f 60 61 43
f 61 50 43
f 44 56 62
f 62 45 44
f 62 63 45
f 64 45 65
f 66 65 45
f 66 45 63
f 45 64 46
f 58 46 67
f 67 46 64
f 68 55 47
f 68 47 49
f 48 69 70
f 49 48 70
f 71 48 72
f 48 71 73
f 69 48 73
f 50 72 48
f 70 68 49
f 74 50 61
f 72 50 74
f 75 52 51
f 51 54 75
f 75 76 52
f 77 52 76
f 53 52 77
f 56 53 77
f 54 78 75
f 78 54 79
f 79 54 55
f 79 55 68
f 56 77 80
f 62 56 80
f 59 57 81
f 57 58 82
f 57 82 81
f 67 82 58
f 59 81 83
f 84 60 59
f 83 84 59
f 85 61 60
f 84 85 60
f 61 85 74
f 62 80 86
f 86 63 62
f 86 87 63
f 88 66 63
f 88 63 87
f 89 90 64
f 89 64 91
f 64 65 66
f 64 66 91
f 64 90 92
f 64 92 67
f 66 93 94
f 66 94 91
f 88 93 66
f 95 67 96
f 67 95 97
f 67 97 98
f 92 96 67
f 67 98 82
f 99 79 68
f 99 68 70
f 69 100 101
f 70 69 101
f 69 73 102
f 100 69 102
f 101 99 70
f 73 71 72
f 72 103 104
f 105 72 104
f 105 73 72
f 106 103 72
f 74 106 72
f 107 108 73
f 105 107 73
f 73 108 102
f 109 74 95
f 97 95 74
f 110 97 74
f 74 109 106
f 85 110 74
f 76 75 111
f 111 75 78
f 77 76 112
f 112 76 111
f 113 80 77
f 113 77 112
f 114 78 79
f 111 78 114
f 79 99 115
f 114 79 115
f 116 86 80
f 116 80 113
f 117 118 81
f 81 119 117
f 81 98 119
f 98 81 82
f 83 81 111
f 81 120 111
f 118 120 81
f 111 84 83
f 84 121 122
f 122 123 84
f 123 110 84
f 85 84 110
f 111 124 84
f 84 124 121
f 116 87 86
f 120 88 87
f 116 120 87
f 120 118 88
f 88 125 93
f 125 88 126
f 126 88 118
f 127 128 89
f 128 90 89
f 89 91 125
f 129 89 125
f 127 89 129
f 130 131 90
f 128 132 90
f 90 131 92
f 90 133 130
f 90 132 133
f 91 94 125
f 96 92 134
f 135 134 92
f 135 92 131
f 125 136 93
f 136 94 93
f 136 137 94
f 137 138 94
f 94 138 125
f 95 96 139
f 139 109 95
f 139 96 140
f 96 134 140
f 141 142 97
f 97 142 143
f 97 143 144
f 144 98 97
f 97 145 141
f 146 145 97
f 147 146 97
f 97 110 147
f 144 148 98
f 98 148 119
f 99 101 149
f 115 99 149
f 101 100 149
f 100 102 124
f 100 124 149
f 102 121 124
f 108 150 102
f 151 102 150
f 121 102 151
f 103 152 153
f 104 103 154
f 103 155 154
f 106 152 103
f 153 156 103
f 156 155 103
f 104 154 157
f 150 105 104
f 150 104 158
f 158 104 157
f 150 107 105
f 159 106 109
f 106 159 160
f 152 106 160
f 107 161 162
f 108 107 162
f 107 163 161
f 150 163 107
f 108 162 150
f 164 109 139
f 164 159 109
f 110 165 147
f 123 165 110
f 113 112 111
f 116 113 111
f 120 116 111
f 111 114 115
f 111 115 149
f 111 149 124
f 118 117 126
f 127 126 117
f 166 127 117
f 166 117 167
f 117 148 167
f 148 117 119
f 151 122 121
f 122 151 157
f 122 157 168
f 169 122 168
f 169 165 122
f 123 122 165
f 125 138 136
f 125 126 129
f 127 129 126
f 127 170 128
f 170 127 166
f 128 170 171
f 132 128 171
f 135 131 130
f 130 172 173
f 130 173 174
f 130 174 135
f 172 130 175
f 133 175 130
f 132 171 166
f 132 166 167
f 148 133 132
f 148 132 167
f 144 133 148
f 175 133 143
f 143 133 144
f 135 176 134
f 134 176 140
f 135 174 176
f 136 138 137
f 139 140 177
f 139 177 178
f 179 164 139
f 178 179 139
f 140 176 177
f 180 142 141
f 141 181 182
f 141 182 180
f 141 145 183
f 184 181 141
f 183 184 141
f 180 143 142
f 180 175 143
f 145 146 183
f 146 185 183
f 146 156 185
f 147 156 146
f 165 156 147
f 162 163 150
f 158 151 150
f 151 158 157
f 153 152 160
f 186 187 153
f 188 186 153
f 160 188 153
f 185 153 187
f 153 185 156
f 154 189 157
f 190 189 154
f 190 154 155
f 168 190 155
f 169 168 155
f 155 156 165
f 169 155 165
f 168 157 189
f 159 191 160
f 164 191 159
f 191 188 160
f 161 163 162
f 179 191 164
f 170 166 171
f 190 168 189
f 182 172 175
f 192 173 172
f 192 172 182
f 193 194 173
f 193 173 192
f 194 174 173
f 194 176 174
f 182 175 180
f 177 176 194
f 177 194 193
f 177 193 195
f 178 177 195
f 195 179 178
f 196 191 179
f 197 196 179
f 195 197 179
f 181 198 192
f 181 192 182
f 199 198 181
f 184 199 181
f 183 185 184
f 185 187 184
f 184 187 199
f 187 186 199
f 186 196 197
f 199 186 197
f 186 188 196
f 188 191 196
f 198 200 192
f 201 193 192
f 201 192 200
f 202 195 193
f 202 193 201
f 195 202 203
f 203 204 195
f 197 195 204
f 199 197 205
f 205 197 204
f 198 206 200
f 207 206 198
f 208 209 198
f 199 208 198
f 198 209 207
f 208 199 205
f 202 201 200
f 202 200 210
f 206 210 200
f 203 202 210
f 203 210 211
f 212 204 203
f 211 212 203
f 208 205 204
f 212 208 204
f 211 210 206
f 211 206 207
f 207 209 211
f 208 212 209
f 209 212 211
