# Generated by Visualization Toolkit
v -0.02003300003707409 0.42659899592399597 0.00010599999950500205
v -0.020508000627160072 0.42702099680900574 0.0072570000775158405
v -0.030294999480247498 0.4302780032157898 0.0000870000003487803
v -0.018650999292731285 0.4296639859676361 0.008689000271260738
v -0.019065000116825104 0.4275299906730652 0.00010800000018207356
v -0.020508000627160072 0.42702099680900574 -0.007087999954819679
v -0.018650999292731285 0.4296639859676361 -0.00851999968290329
v -0.02347799949347973 0.42855098843574524 0.014697999693453312
v -0.028392000123858452 0.430510014295578 0.018317999318242073
v -0.03965099900960922 0.43295300006866455 0.004397000186145306
v -0.03968600183725357 0.43320098519325256 0.0000870000003487803
v -0.039868999272584915 0.43323999643325806 0.01278000045567751
v -0.036329999566078186 0.4330810010433197 0.01841600053012371
v -0.02347799949347973 0.42855098843574524 -0.014529000036418438
v -0.028392000123858452 0.430510014295578 -0.0181489996612072
v -0.03965099900960922 0.43295300006866455 -0.004228000063449144
v -0.039868999272584915 0.43323999643325806 -0.01261099986732006
v -0.036329999566078186 0.4330810010433197 -0.018247000873088837
v -0.018543999642133713 0.4311459958553314 0.00010800000018207356
v -0.01942100003361702 0.431861013174057 0.009296000003814697
v -0.02232999913394451 0.43171700835227966 0.015610000118613243
v -0.01942100003361702 0.431861013174057 -0.009127000346779823
v -0.02232999913394451 0.43171700835227966 -0.01544100046157837
v -0.02810800075531006 0.4344770014286041 0.018942000344395638
v -0.041746001690626144 0.43654099106788635 0.004523000214248896
v -0.04174799844622612 0.4364359974861145 0.0000870000003487803
v -0.041746001690626144 0.43654099106788635 -0.004354000091552734
v -0.03610000014305115 0.43740901350975037 0.019076000899076462
v -0.04191699996590614 0.43449699878692627 0.014341999776661396
v -0.0421300008893013 0.4378739893436432 0.00851999968290329
v -0.02810800075531006 0.4344770014286041 -0.018773000687360764
v -0.04191699996590614 0.43449699878692627 -0.014173000119626522
v -0.03610000014305115 0.43740901350975037 -0.01890699937939644
v -0.0421300008893013 0.4378739893436432 -0.008351000025868416
v -0.01624000072479248 0.4382689893245697 0.00011000000085914508
v -0.017511999234557152 0.4378820061683655 0.008975000120699406
v -0.023086000233888626 0.4343700110912323 0.015223000198602676
v -0.017511999234557152 0.4378820061683655 -0.008806000463664532
v -0.023086000233888626 0.4343700110912323 -0.015053000301122665
v -0.02725999988615513 0.4376400113105774 0.017240000888705254
v -0.039990998804569244 0.44184398651123047 0.0057760002091526985
v -0.03962000086903572 0.4417189955711365 0.00008900000102585182
v -0.039990998804569244 0.44184398651123047 -0.005607000086456537
v -0.035211000591516495 0.4401170015335083 0.018059000372886658
v -0.03942599892616272 0.4405049979686737 0.017079999670386314
v -0.04123299941420555 0.4428110122680664 0.0087890001013875
v -0.02725999988615513 0.4376400113105774 -0.01707099936902523
v -0.03942599892616272 0.4405049979686737 -0.01691100001335144
v -0.035211000591516495 0.4401170015335083 -0.017890000715851784
v -0.04123299941420555 0.4428110122680664 -0.008620000444352627
v -0.014991000294685364 0.44095298647880554 0.00011100000119768083
v -0.015531999990344048 0.44084998965263367 0.00991899985820055
v -0.021693000569939613 0.4400259852409363 0.015804000198841095
v -0.015531999990344048 0.44084998965263367 -0.009750000201165676
v -0.021693000569939613 0.4400259852409363 -0.01563500054180622
v -0.025270000100135803 0.4416010081768036 0.017318999394774437
v -0.03659899905323982 0.44775301218032837 0.00596500001847744
v -0.03795500099658966 0.44866299629211426 0.009185999631881714
v -0.036042001098394394 0.4476099908351898 0.00009100000170292333
v -0.03659899905323982 0.44775301218032837 -0.005795999895781279
v -0.03795500099658966 0.44866299629211426 -0.00901699997484684
v -0.032611001282930374 0.4449329972267151 0.018187999725341797
v -0.03588800132274628 0.4470849931240082 0.018540000542998314
v -0.043317001312971115 0.44167599081993103 0.015395999886095524
v -0.0412990003824234 0.443215012550354 0.018856000155210495
v -0.03865399956703186 0.4471310079097748 0.022531000897288322
v -0.04606899991631508 0.446245014667511 0.003425000002607703
v -0.025270000100135803 0.4416010081768036 -0.017149999737739563
v -0.03588800132274628 0.4470849931240082 -0.01837100088596344
v -0.032611001282930374 0.4449329972267151 -0.018019000068306923
v -0.0412990003824234 0.443215012550354 -0.01868700049817562
v -0.043317001312971115 0.44167599081993103 -0.01522700022906065
v -0.03865399956703186 0.4471310079097748 -0.0223619993776083
v -0.04606899991631508 0.446245014667511 -0.0032560001127421856
v -0.014135999605059624 0.44417500495910645 0.00011200000153621659
v -0.014801000244915485 0.4442540109157562 0.010099000297486782
v -0.019442999735474586 0.4421420097351074 0.0167239997535944
v -0.014801000244915485 0.4442540109157562 -0.009929999709129333
v -0.019442999735474586 0.4421420097351074 -0.016555000096559525
v -0.02406099997460842 0.44362398982048035 0.019139999523758888
v -0.03540999814867973 0.4531030058860779 0.007581999991089106
v -0.036341000348329544 0.4520989954471588 0.009856999851763248
v -0.034393999725580215 0.45194199681282043 0.00009300000237999484
v -0.03540999814867973 0.4531030058860779 -0.007412999868392944
v -0.036341000348329544 0.4520989954471588 -0.009688000194728374
v -0.03005800023674965 0.44733700156211853 0.020059000700712204
v -0.033619001507759094 0.44871699810028076 0.01791900023818016
v -0.037967998534440994 0.4515169858932495 0.01796099916100502
v -0.047635000199079514 0.4497939944267273 0.02080499939620495
v -0.0472089983522892 0.44626298546791077 0.015483000315725803
v -0.046640001237392426 0.4410569965839386 0.022247999906539917
v -0.045354001224040985 0.4403499960899353 0.009522000327706337
v -0.04395399987697601 0.44746801257133484 0.021400999277830124
v -0.04670700058341026 0.44291600584983826 0.01946300081908703
v -0.047936998307704926 0.44249099493026733 0.00008800000068731606
v -0.052983999252319336 0.4347899854183197 0.004666999913752079
v -0.05212799832224846 0.4495539963245392 0.00008900000102585182
v -0.04643699899315834 0.4511669874191284 0.007000000216066837
v -0.02406099997460842 0.44362398982048035 -0.018970999866724014
v -0.033619001507759094 0.44871699810028076 -0.017750000581145287
v -0.03005800023674965 0.44733700156211853 -0.01988999918103218
v -0.037967998534440994 0.4515169858932495 -0.017791999503970146
v -0.0472089983522892 0.44626298546791077 -0.015313999727368355
v -0.047635000199079514 0.4497939944267273 -0.020635999739170074
v -0.046640001237392426 0.4410569965839386 -0.022079000249505043
v -0.045354001224040985 0.4403499960899353 -0.009352999739348888
v -0.04670700058341026 0.44291600584983826 -0.019293999299407005
v -0.04395399987697601 0.44746801257133484 -0.02123199962079525
v -0.052983999252319336 0.4347899854183197 -0.004497999791055918
v -0.04643699899315834 0.4511669874191284 -0.006831000093370676
v -0.025290999561548233 0.44896000623703003 0.00009300000237999484
v -0.018526000902056694 0.4456390142440796 0.016953999176621437
v -0.02358900010585785 0.44789600372314453 0.020059999078512192
v -0.018526000902056694 0.4456390142440796 -0.016784999519586563
v -0.02358900010585785 0.44789600372314453 -0.019890999421477318
v -0.030285000801086426 0.45033299922943115 0.020183000713586807
v -0.043650999665260315 0.45737001299858093 0.014419999904930592
v -0.037358999252319336 0.45272698998451233 0.012721999548375607
v -0.04404599964618683 0.4553830027580261 0.009101999923586845
v -0.03412599861621857 0.4521769881248474 0.015422999858856201
v -0.037358999252319336 0.45272698998451233 -0.012552999891340733
v -0.043650999665260315 0.45737001299858093 -0.01425199955701828
v -0.04404599964618683 0.4553830027580261 -0.008932000026106834
v -0.03412599861621857 0.4521769881248474 -0.015254000201821327
v -0.044495001435279846 0.45201200246810913 0.01911100000143051
v -0.043118998408317566 0.45395201444625854 0.016566000878810883
v -0.05843299999833107 0.46563300490379333 0.04137500002980232
v -0.05119499936699867 0.4523420035839081 0.01898300088942051
v -0.04631299898028374 0.4539409875869751 0.01914599910378456
v -0.057711999863386154 0.4414609968662262 0.0114120002835989
v -0.05442100018262863 0.44190898537635803 0.013950999826192856
v -0.05594399943947792 0.4550270140171051 0.02277900092303753
v -0.050485000014305115 0.449970006942749 0.01144499983638525
v -0.0461760014295578 0.4390319883823395 0.010835000313818455
v -0.058437999337911606 0.43855199217796326 0.015358000062406063
v -0.046716999262571335 0.44877898693084717 0.023661000654101372
v -0.04836300015449524 0.4476720094680786 0.021585000678896904
v -0.0476440005004406 0.4529840052127838 0.02188899926841259
v -0.053881000727415085 0.43916699290275574 0.0000870000003487803
v -0.05299599841237068 0.4339889883995056 0.006089999806135893
v -0.06257600337266922 0.44301000237464905 0.00008800000068731606
v -0.05365699902176857 0.4473380148410797 0.004526999779045582
v -0.05102499946951866 0.44550400972366333 0.007521999999880791
v -0.05009600147604942 0.44855499267578125 0.00940600037574768
v -0.05365699902176857 0.4473380148410797 -0.004358000122010708
v -0.05102499946951866 0.44550400972366333 -0.0073529998771846294
v -0.05009600147604942 0.44855499267578125 -0.009236999787390232
v -0.047127000987529755 0.4518379867076874 0.010255999863147736
v -0.030285000801086426 0.45033299922943115 -0.020013999193906784
v -0.044495001435279846 0.45201200246810913 -0.018942000344395638
v -0.043118998408317566 0.45395201444625854 -0.01639699935913086
v -0.05442100018262863 0.44190898537635803 -0.013782000169157982
v -0.057711999863386154 0.4414609968662262 -0.011242999695241451
v -0.05119499936699867 0.4523420035839081 -0.018813999369740486
v -0.05594399943947792 0.4550270140171051 -0.022609999403357506
v -0.050485000014305115 0.449970006942749 -0.011276000179350376
v -0.05843299999833107 0.46563300490379333 -0.04106000065803528
v -0.04631299898028374 0.4539409875869751 -0.018976999446749687
v -0.0461760014295578 0.4390319883823395 -0.010665999725461006
v -0.058437999337911606 0.43855199217796326 -0.015189000405371189
v -0.04836300015449524 0.4476720094680786 -0.02141599915921688
v -0.046716999262571335 0.44877898693084717 -0.02349199913442135
v -0.0476440005004406 0.4529840052127838 -0.021719999611377716
v -0.05299599841237068 0.4339889883995056 -0.005921000149101019
v -0.047127000987529755 0.4518379867076874 -0.010087000206112862
v -0.06319399923086166 0.46497100591659546 0.03470500186085701
v -0.04963799938559532 0.4542190134525299 0.012559999711811543
v -0.06319399923086166 0.46497100591659546 -0.03438999876379967
v -0.04963799938559532 0.4542190134525299 -0.012391000054776669
v -0.062164001166820526 0.4634209871292114 0.045827001333236694
v -0.06395699828863144 0.46230798959732056 0.035645000636577606
v -0.06007099896669388 0.4401470124721527 0.009279999881982803
v -0.06115100160241127 0.4370270073413849 0.008785000070929527
v -0.059774000197649 0.433896005153656 0.01513999979943037
v -0.057172998785972595 0.44287899136543274 0.008015000261366367
v -0.054326001554727554 0.4327310025691986 0.012019000016152859
v -0.05410299822688103 0.4368630051612854 0.004860000219196081
v -0.056627001613378525 0.43567100167274475 0.00008600000001024455
v -0.05410299822688103 0.4368630051612854 -0.00469100009649992
v -0.0609080009162426 0.44433099031448364 0.003836000105366111
v -0.07025299966335297 0.436286985874176 0.00007000000186963007
v -0.06161300092935562 0.4410949945449829 0.003734000027179718
v -0.0609080009162426 0.44433099031448364 -0.0036669999826699495
v -0.06161300092935562 0.4410949945449829 -0.0035649999044835567
v -0.057172998785972595 0.44287899136543274 -0.007845999673008919
v -0.06115100160241127 0.4370270073413849 -0.008616000413894653
v -0.06007099896669388 0.4401470124721527 -0.00911100022494793
v -0.059774000197649 0.433896005153656 -0.014972000382840633
v -0.062164001166820526 0.4634209871292114 -0.04551199823617935
v -0.06395699828863144 0.46230798959732056 -0.03533000126481056
v -0.054326001554727554 0.4327310025691986 -0.011850000359117985
v -0.06265000253915787 0.4381360113620758 0.0038920000661164522
v -0.062383998185396194 0.436379998922348 0.004548000171780586
v -0.05891299992799759 0.43402400612831116 0.006928999908268452
v -0.06329900026321411 0.43288499116897583 0.00008399999933317304
v -0.05891299992799759 0.43402400612831116 -0.00675999978557229
v -0.062383998185396194 0.436379998922348 -0.004379000049084425
v -0.07633499801158905 0.43045899271965027 0.00010800000018207356
v -0.06265000253915787 0.4381360113620758 -0.003722999943420291
v -0.0719740018248558 0.42823100090026855 0.003010000102221966
v -0.06593099981546402 0.43192800879478455 0.0042420001700520515
v -0.07406900078058243 0.42289599776268005 0.0023739999160170555
v -0.0746069997549057 0.4228459894657135 0.00012399999832268804
v -0.07406900078058243 0.42289599776268005 -0.0021200000774115324
v -0.06593099981546402 0.43192800879478455 -0.00407300004735589
v -0.07872000336647034 0.42849498987197876 0.00304200011305511
v -0.07957199960947037 0.4277360141277313 0.00011300000187475234
v -0.0719740018248558 0.42823100090026855 -0.002756000030785799
v -0.07872000336647034 0.42849498987197876 -0.002788000041618943
v -0.07822900265455246 0.42552998661994934 0.0035210000351071358
v -0.07714399695396423 0.4238570034503937 0.00010800000018207356
v -0.07822900265455246 0.42552998661994934 -0.003266999963670969
f 1 2 3
f 4 2 1
f 4 1 5
f 3 6 1
f 1 6 7
f 5 1 7
f 2 8 3
f 8 2 4
f 8 9 3
f 10 11 3
f 3 12 10
f 13 12 3
f 3 9 13
f 3 14 6
f 3 15 14
f 3 11 16
f 16 17 3
f 3 17 18
f 18 15 3
f 19 20 4
f 19 4 5
f 21 4 20
f 8 4 21
f 5 7 19
f 7 6 14
f 7 22 19
f 22 7 23
f 23 7 14
f 9 8 21
f 9 21 24
f 13 9 24
f 11 10 25
f 12 25 10
f 11 25 26
f 27 16 11
f 26 27 11
f 28 29 12
f 28 12 13
f 12 29 30
f 12 30 25
f 13 24 28
f 23 14 15
f 31 23 15
f 31 15 18
f 16 27 17
f 17 32 33
f 18 17 33
f 34 32 17
f 27 34 17
f 33 31 18
f 35 20 19
f 19 22 35
f 35 36 20
f 37 20 36
f 21 20 37
f 24 21 37
f 22 38 35
f 38 22 39
f 39 22 23
f 39 23 31
f 24 37 40
f 28 24 40
f 41 26 25
f 41 25 30
f 26 41 42
f 42 43 26
f 27 26 43
f 34 27 43
f 28 40 44
f 44 29 28
f 44 45 29
f 30 29 46
f 29 45 46
f 41 30 46
f 47 39 31
f 47 31 33
f 32 48 49
f 33 32 49
f 50 32 34
f 50 48 32
f 49 47 33
f 50 34 43
f 51 36 35
f 35 38 51
f 51 52 36
f 53 36 52
f 37 36 53
f 40 37 53
f 38 54 51
f 54 38 55
f 55 38 39
f 55 39 47
f 40 53 56
f 44 40 56
f 42 41 57
f 41 58 57
f 41 46 58
f 42 57 59
f 60 43 42
f 59 60 42
f 60 61 43
f 61 50 43
f 44 56 62
f 62 45 44
f 62 63 45
f 64 45 65
f 66 65 45
f 66 45 63
f 45 64 46
f 58 46 67
f 67 46 64
f 68 55 47
f 68 47 49
f 48 69 70
f 49 48 70
f 71 48 72
f 48 71 73
f 69 48 73
f 50 72 48
f 70 68 49
f 74 50 61
f 72 50 74
f 75 52 51
f 51 54 75
f 75 76 52
f 77 52 76
f 53 52 77
f 56 53 77
f 54 78 75
f 78 54 79
f 79 54 55
f 79 55 68
f 56 77 80
f 62 56 80
f 59 57 81
f 57 58 82
f 57 82 81
f 67 82 58
f 59 81 83
f 84 60 59
f 83 84 59
f 85 61 60
f 84 85 60
f 61 85 74
f 62 80 86
f 86 63 62
f 86 87 63
f 88 66 63
f 88 63 87
f 89 90 64
f 89 64 91
f 64 65 66
f 64 66 91
f 64 90 92
f 64 92 67
f 66 93 94
f 66 94 91
f 88 93 66
f 95 67 96
f 67 95 97
f 67 97 98
f 92 96 67
f 67 98 82
f 99 79 68
f 99 68 70
f 69 100 101
f 70 69 101
f 69 73 102
f 100 69 102
f 101 99 70
f 73 71 72
f 72 103 104
f 105 72 104
f 105 73 72
f 106 103 72
f 74 106 72
f 107 108 73
f 105 107 73
f 73 108 102
f 109 74 95
f 97 95 74
f 110 97 74
f 74 109 106
f 85 110 74
f 76 75 111
f 111 75 78
f 77 76 112
f 112 76 111
f 113 80 77
f 113 77 112
f 114 78 79
f 111 78 114
f 79 99 115
f 114 79 115
f 116 86 80
f 116 80 113
f 117 118 81
f 81 119 117
f 81 98 119
f 98 81 82
f 83 81 111
f 81 120 111
f 118 120 81
f 111 84 83
f 84 121 122
f 122 123 84
f 123 110 84
f 85 84 110
f 111 124 84
f 84 124 121
f 116 87 86
f 120 88 87
f 116 120 87
f 120 118 88
f 88 125 93
f 125 88 126
f 126 88 118
f 127 128 89
f 128 90 89
f 89 91 125
f 129 89 125
f 127 89 129
f 130 131 90
f 128 132 90
f 90 131 92
f 90 133 130
f 90 132 133
f 91 94 125
f 96 92 134
f 135 134 92
f 135 92 131
f 125 136 93
f 136 94 93
f 136 137 94
f 137 138 94
f 94 138 125
f 95 96 139
f 139 109 95
f 139 96 140
f 96 134 140
f 141 142 97
f 97 142 143
f 97 143 144
f 144 98 97
f 97 145 141
f 146 145 97
f 147 146 97
f 97 110 147
f 144 148 98
f 98 148 119
f 99 101 149
f 115 99 149
f 101 100 149
f 100 102 124
f 100 124 149
f 102 121 124
f 108 150 102
f 151 102 150
f 121 102 151
f 103 152 153
f 104 103 154
f 103 155 154
f 106 152 103
f 153 156 103
f 156 155 103
f 104 154 157
f 150 105 104
f 150 104 158
f 158 104 157
f 150 107 105
f 159 106 109
f 106 159 160
f 152 106 160
f 107 161 162
f 108 107 162
f 107 163 161
f 150 163 107
f 108 162 150
f 164 109 139
f 164 159 109
f 110 165 147
f 123 165 110
f 113 112 111
f 116 113 111
f 120 116 111
f 111 114 115
f 111 115 149
f 111 149 124
f 118 117 126
f 127 126 117
f 166 127 117
f 166 117 167
f 117 148 167
f 148 117 119
f 151 122 121
f 122 151 157
f 122 157 168
f 169 122 168
f 169 165 122
f 123 122 165
f 125 138 136
f 125 126 129
f 127 129 126
f 127 170 128
f 170 127 166
f 128 170 171
f 132 128 171
f 135 131 130
f 130 172 173
f 130 173 174
f 130 174 135
f 172 130 175
f 133 175 130
f 132 171 166
f 132 166 167
f 148 133 132
f 148 132 167
f 144 133 148
f 175 133 143
f 143 133 144
f 135 176 134
f 134 176 140
f 135 174 176
f 136 138 137
f 139 140 177
f 139 177 178
f 179 164 139
f 178 179 139
f 140 176 177
f 180 142 141
f 141 181 182
f 141 182 180
f 141 145 183
f 184 181 141
f 183 184 141
f 180 143 142
f 180 175 143
f 145 146 183
f 146 185 183
f 146 156 185
f 147 156 146
f 165 156 147
f 162 163 150
f 158 151 150
f 151 158 157
f 153 152 160
f 186 187 153
f 188 186 153
f 160 188 153
f 185 153 187
f 153 185 156
f 154 189 157
f 190 189 154
f 190 154 155
f 168 190 155
f 169 168 155
f 155 156 165
f 169 155 165
f 168 157 189
f 159 191 160
f 164 191 159
f 191 188 160
f 161 163 162
f 179 191 164
f 170 166 171
f 190 168 189
f 182 172 175
f 192 173 172
f 192 172 182
f 193 194 173
f 193 173 192
f 194 174 173
f 194 176 174
f 182 175 180
f 177 176 194
f 177 194 193
f 177 193 195
f 178 177 195
f 195 179 178
f 196 191 179
f 197 196 179
f 195 197 179
f 181 198 192
f 181 192 182
f 199 198 181
f 184 199 181
f 183 185 184
f 185 187 184
f 184 187 199
f 187 186 199
f 186 196 197
f 199 186 197
f 186 188 196
f 188 191 196
f 198 200 192
f 201 193 192
f 201 192 200
f 202 195 193
f 202 193 201
f 195 202 203
f 203 204 195
f 197 195 204
f 199 197 205
f 205 197 204
f 198 206 200
f 207 206 198
f 208 209 198
f 199 208 198
f 198 209 207
f 208 199 205
f 202 201 200
f 202 200 210
f 206 210 200
f 203 202 210
f 203 210 211
f 212 204 203
f 211 212 203
f 208 205 204
f 212 208 204
f 211 210 206
f 211 206 207
f 207 209 211
f 208 212 209
f 209 212 211
