# Generated by Visualization Toolkit
v -0.02292799949645996 0.060343001037836075 0.00002499999936844688
v -0.02382799983024597 0.06026399880647659 0.008244000375270844
v -0.03723800182342529 0.05285700038075447 0.000003000000106112566
v -0.02434699982404709 0.06512899696826935 0.009890000335872173
v -0.022779999300837517 0.06240500137209892 0.00002700000004551839
v -0.02382799983024597 0.06026399880647659 -0.008244000375270844
v -0.02434699982404709 0.06512899696826935 -0.009890000335872173
v -0.02840599976480007 0.05858999863266945 0.016798000782728195
v -0.035443998873233795 0.05521399900317192 0.020958000794053078
v -0.049125999212265015 0.04660400003194809 0.00495699979364872
v -0.04939600080251694 0.046828001737594604 0.000003000000106112566
v -0.04962500184774399 0.04666699841618538 0.014592000283300877
v -0.046254001557826996 0.04913200065493584 0.021071000024676323
v -0.02840599976480007 0.05858999863266945 -0.016798000782728195
v -0.035443998873233795 0.05521399900317192 -0.020958000794053078
v -0.049125999212265015 0.04660400003194809 -0.00495699979364872
v -0.04962500184774399 0.04666699841618538 -0.014592000283300877
v -0.046254001557826996 0.04913200065493584 -0.021071000024676323
v -0.025627000257372856 0.06682000309228897 0.00002700000004551839
v -0.027225999161601067 0.06660600006580353 0.01058799959719181
v -0.03016600012779236 0.06322400271892548 0.0178459994494915
v -0.027225999161601067 0.06660600006580353 -0.01058799959719181
v -0.03016600012779236 0.06322400271892548 -0.0178459994494915
v -0.038871001452207565 0.05973999947309494 0.021676000207662582
v -0.052685000002384186 0.049977999180555344 0.0051020001992583275
v -0.05461600050330162 0.04797299951314926 0.000003000000106112566
v -0.052685000002384186 0.049977999180555344 -0.0051020001992583275
v -0.05007699877023697 0.053978998214006424 0.021828999742865562
v -0.05297299847006798 0.04572699964046478 0.016388000920414925
v -0.054200999438762665 0.0510919988155365 0.009696000255644321
v -0.038871001452207565 0.05973999947309494 -0.021676000207662582
v -0.05297299847006798 0.04572699964046478 -0.016388000920414925
v -0.05007699877023697 0.053978998214006424 -0.021828999742865562
v -0.054200999438762665 0.0510919988155365 -0.009696000255644321
v -0.029482999816536903 0.07678800076246262 0.000029999999242136255
v -0.03041199967265129 0.0750729963183403 0.010219000279903412
v -0.03345999866724014 0.06520000100135803 0.017400000244379044
v -0.03041199967265129 0.0750729963183403 -0.010219000279903412
v -0.03345999866724014 0.06520000100135803 -0.017400000244379044
v -0.04094599932432175 0.06403700262308121 0.019719000905752182
v -0.057523999363183975 0.057530999183654785 0.006541999988257885
v -0.05705000087618828 0.0577629990875721 0.000004999999873689376
v -0.057523999363183975 0.057530999183654785 -0.006541999988257885
v -0.049267999827861786 0.060568999499082565 0.020659999921917915
v -0.05582199990749359 0.05659199878573418 0.01953599974513054
v -0.05957699939608574 0.05736999958753586 0.010005000047385693
v -0.04094599932432175 0.06403700262308121 -0.019719000905752182
v -0.05582199990749359 0.05659199878573418 -0.01953599974513054
v -0.049267999827861786 0.060568999499082565 -0.020659999921917915
v -0.05957699939608574 0.05736999958753586 -0.010005000047385693
v -0.030535999685525894 0.0810609981417656 0.00003099999958067201
v -0.03098299913108349 0.08040200173854828 0.01130400039255619
v -0.03637700155377388 0.07328300178050995 0.01806900091469288
v -0.03098299913108349 0.08040200173854828 -0.01130400039255619
v -0.03637700155377388 0.07328300178050995 -0.01806900091469288
v -0.0412600003182888 0.07145900279283524 0.019809000194072723
v -0.0612419992685318 0.06643500179052353 0.00675999978557229
v -0.06335999816656113 0.06609500199556351 0.010460999794304371
v -0.06056800112128258 0.06683400273323059 0.000007999999979801942
v -0.0612419992685318 0.06643500179052353 -0.00675999978557229
v -0.06335999816656113 0.06609500199556351 -0.010460999794304371
v -0.05132099986076355 0.06730499863624573 0.020809000357985497
v -0.05639899894595146 0.06643100082874298 0.02121400088071823
v -0.06164399906992912 0.053720999509096146 0.01759899966418743
v -0.05998599901795387 0.05775799974799156 0.021577000617980957
v -0.06274499744176865 0.06366900354623795 0.025800000876188278
v -0.0680989995598793 0.05971100181341171 0.0038399999029934406
v -0.0412600003182888 0.07145900279283524 -0.019809000194072723
v -0.05639899894595146 0.06643100082874298 -0.02121400088071823
v -0.05132099986076355 0.06730499863624573 -0.020809000357985497
v -0.05998599901795387 0.05775799974799156 -0.021577000617980957
v -0.06164399906992912 0.053720999509096146 -0.01759899966418743
v -0.06274499744176865 0.06366900354623795 -0.025800000876188278
v -0.0680989995598793 0.05971100181341171 -0.0038399999029934406
v -0.032437000423669815 0.08554500341415405 0.00003199999991920777
v -0.03316299989819527 0.0849670022726059 0.011510999873280525
v -0.035955000668764114 0.07792499661445618 0.01912599988281727
v -0.03316299989819527 0.0849670022726059 -0.011510999873280525
v -0.035955000668764114 0.07792499661445618 -0.01912599988281727
v -0.04178699851036072 0.0749489963054657 0.02190300077199936
v -0.06462699919939041 0.07364799827337265 0.008617999963462353
v -0.06469199806451797 0.07158300280570984 0.011233000084757805
v -0.06263100355863571 0.07336200028657913 0.000009000000318337698
v -0.06462699919939041 0.07364799827337265 -0.008617999963462353
v -0.06469199806451797 0.07158300280570984 -0.011233000084757805
v -0.05084399878978729 0.07257500290870667 0.022958999499678612
v -0.05911500006914139 0.0705140009522438 0.020500000566244125
v -0.06580600142478943 0.06929200142621994 0.020547999069094658
v -0.07263399660587311 0.06225999817252159 0.023816000670194626
v -0.06926800310611725 0.05862300097942352 0.01769999973475933
v -0.06618200242519379 0.05327000096440315 0.025474999099969864
v -0.06193599849939346 0.05023299902677536 0.010847999714314938
v -0.06697399914264679 0.06317099928855896 0.024501999840140343
v -0.06803199648857117 0.05509300157427788 0.022274000570178032
v -0.06868600100278854 0.05365400016307831 0.000003999999989900971
v -0.061907000839710236 0.03662800043821335 0.005268000066280365
v -0.07748500257730484 0.05934000015258789 0.000004999999873689376
v -0.07256200164556503 0.0650010034441948 0.007949000224471092
v -0.04178699851036072 0.0749489963054657 -0.02190300077199936
v -0.05911500006914139 0.0705140009522438 -0.020500000566244125
v -0.05084399878978729 0.07257500290870667 -0.022958999499678612
v -0.06580600142478943 0.06929200142621994 -0.020547999069094658
v -0.06926800310611725 0.05862300097942352 -0.01769999973475933
v -0.07263399660587311 0.06225999817252159 -0.023816000670194626
v -0.06618200242519379 0.05327000096440315 -0.025474999099969864
v -0.06193599849939346 0.05023299902677536 -0.010847999714314938
v -0.06803199648857117 0.05509300157427788 -0.022274000570178032
v -0.06697399914264679 0.06317099928855896 -0.024501999840140343
v -0.061907000839710236 0.03662800043821335 -0.005268000066280365
v -0.07256200164556503 0.0650010034441948 -0.007949000224471092
v -0.047554999589920044 0.07971499860286713 0.000009999999747378752
v -0.03802900016307831 0.08278000354766846 0.01939000003039837
v -0.04496400058269501 0.0802299976348877 0.022960999980568886
v -0.03802900016307831 0.08278000354766846 -0.01939000003039837
v -0.04496400058269501 0.0802299976348877 -0.022960999980568886
v -0.053624000400304794 0.0757170021533966 0.023101000115275383
v -0.07489600032567978 0.07482799887657166 0.016478000208735466
v -0.0662349984049797 0.07126499712467194 0.014526000246405602
v -0.07364500313997269 0.07216399908065796 0.010363999754190445
v -0.06256700307130814 0.07389599829912186 0.01763099990785122
v -0.0662349984049797 0.07126499712467194 -0.014526000246405602
v -0.07489600032567978 0.07482799887657166 -0.016478000208735466
v -0.07364500313997269 0.07216399908065796 -0.010363999754190445
v -0.06256700307130814 0.07389599829912186 -0.01763099990785122
v -0.07129800319671631 0.0678580030798912 0.021870000287890434
v -0.07151799649000168 0.0714230015873909 0.01894400082528591
v -0.08077800273895264 0.07231099903583527 0.01984499953687191
v -0.07839000225067139 0.06328599900007248 0.014623000286519527
v -0.07474199682474136 0.06830400228500366 0.02191000059247017
v -0.07588999718427658 0.04738999903202057 0.013020000420510769
v -0.071834996342659 0.05074699968099594 0.015938999131321907
v -0.0843380019068718 0.06021000072360039 0.01756099984049797
v -0.0761680006980896 0.06141500174999237 0.01305800024420023
v -0.06356599926948547 0.05143800005316734 0.012357000261545181
v -0.07408300042152405 0.04335800185799599 0.017556000500917435
v -0.07086099684238434 0.06198799982666969 0.02710000053048134
v -0.07160700112581253 0.05911700055003166 0.024714000523090363
v -0.07529400289058685 0.06591200083494186 0.02506200037896633
v -0.06697600334882736 0.042378999292850494 0.000003000000106112566
v -0.06120000034570694 0.03570299968123436 0.006903000175952911
v -0.0826990008354187 0.04438599944114685 0.000003999999989900971
v -0.07874300330877304 0.053408000618219376 0.005106000229716301
v -0.07455399632453918 0.05386300012469292 0.008549000136554241
v -0.07459799945354462 0.06017100065946579 0.010714000090956688
v -0.07874300330877304 0.053408000618219376 -0.005106000229716301
v -0.07455399632453918 0.05386300012469292 -0.008549000136554241
v -0.07459799945354462 0.06017100065946579 -0.010714000090956688
v -0.07381799817085266 0.06509999930858612 0.011691000312566757
v -0.053624000400304794 0.0757170021533966 -0.023101000115275383
v -0.07129800319671631 0.0678580030798912 -0.021870000287890434
v -0.07151799649000168 0.0714230015873909 -0.01894400082528591
v -0.071834996342659 0.05074699968099594 -0.015938999131321907
v -0.07588999718427658 0.04738999903202057 -0.013020000420510769
v -0.07839000225067139 0.06328599900007248 -0.014623000286519527
v -0.0843380019068718 0.06021000072360039 -0.01756099984049797
v -0.0761680006980896 0.06141500174999237 -0.01305800024420023
v -0.08077800273895264 0.07231099903583527 -0.019843999296426773
v -0.07474199682474136 0.06830400228500366 -0.02191000059247017
v -0.06356599926948547 0.05143800005316734 -0.012357000261545181
v -0.07408300042152405 0.04335800185799599 -0.017556000500917435
v -0.07160700112581253 0.05911700055003166 -0.024714000523090363
v -0.07086099684238434 0.06198799982666969 -0.02710000053048134
v -0.07529400289058685 0.06591200083494186 -0.02506200037896633
v -0.06120000034570694 0.03570299968123436 -0.006903000175952911
v -0.07381799817085266 0.06509999930858612 -0.011691000312566757
v -0.08504900336265564 0.06692100316286087 0.01663300022482872
v -0.07884100079536438 0.06711500138044357 0.01433899998664856
v -0.08504900336265564 0.06692100316286087 -0.01663300022482872
v -0.07884100079536438 0.06711500138044357 -0.01433899998664856
v -0.08271799981594086 0.06614399701356888 0.021988000720739365
v -0.08360899984836578 0.06312300264835358 0.017085999250411987
v -0.07733500003814697 0.04357599839568138 0.01056899968534708
v -0.07689099758863449 0.037801001220941544 0.010001000016927719
v -0.07042700052261353 0.03576099872589111 0.017305999994277954
v -0.07656499743461609 0.04953800141811371 0.009115000255405903
v -0.06154999881982803 0.032962001860141754 0.013717999681830406
v -0.06501699984073639 0.03789699822664261 0.005489000119268894
v -0.06947600096464157 0.04184599965810776 9.999999974752427e-7
v -0.06501699984073639 0.03789699822664261 -0.005489000119268894
v -0.08202999830245972 0.047529999166727066 0.004311999771744013
v -0.08627700060606003 0.035794999450445175 -0.000015999999959603883
v -0.07990500330924988 0.04314500093460083 0.004195000045001507
v -0.08202999830245972 0.047529999166727066 -0.004311999771744013
v -0.07990500330924988 0.04314500093460083 -0.004195000045001507
v -0.07656499743461609 0.04953800141811371 -0.009115000255405903
v -0.07689099758863449 0.037801001220941544 -0.010001000016927719
v -0.07733500003814697 0.04357599839568138 -0.01056899968534708
v -0.07042700052261353 0.03576099872589111 -0.017305999994277954
v -0.08271799981594086 0.06614399701356888 -0.021988000720739365
v -0.08360899984836578 0.06312300264835358 -0.017085999250411987
v -0.06154999881982803 0.032962001860141754 -0.013717999681830406
v -0.07955600321292877 0.037595998495817184 0.004375999793410301
v -0.0776820033788681 0.035854000598192215 0.0051299999468028545
v -0.06958500295877457 0.03675200045108795 0.007867000065743923
v -0.0734419971704483 0.031146999448537827 0
v -0.06958500295877457 0.03675200045108795 -0.007867000065743923
v -0.0776820033788681 0.035854000598192215 -0.0051299999468028545
v -0.09161300212144852 0.029489999637007713 -0.00002099999983329326
v -0.07955600321292877 0.037595998495817184 -0.004375999793410301
v -0.0831729993224144 0.0323529988527298 0.0047610001638531685
v -0.07883899658918381 0.031332001090049744 0.004778999835252762
v -0.08035100251436234 0.023231999948620796 0.003711000084877014
v -0.08201999962329865 0.021873999387025833 -0.000003000000106112566
v -0.08035100251436234 0.023231999948620796 -0.003711000084877014
v -0.07883899658918381 0.031332001090049744 -0.004778999835252762
v -0.09171699732542038 0.025429999455809593 0.004813999868929386
v -0.09207800030708313 0.02365499921143055 -0.00002300000051036477
v -0.0831729993224144 0.0323529988527298 -0.0047610001638531685
v -0.09171699732542038 0.025429999455809593 -0.004813999868929386
v -0.08842399716377258 0.02258799970149994 0.0056059998460114
v -0.08662299811840057 0.021124999970197678 -0.00002099999983329326
v -0.08842399716377258 0.02258799970149994 -0.0056059998460114
f 1 2 3
f 4 2 1
f 4 1 5
f 3 6 1
f 1 6 7
f 5 1 7
f 2 8 3
f 8 2 4
f 8 9 3
f 10 11 3
f 3 12 10
f 13 12 3
f 3 9 13
f 3 14 6
f 3 15 14
f 3 11 16
f 16 17 3
f 3 17 18
f 18 15 3
f 19 20 4
f 19 4 5
f 21 4 20
f 8 4 21
f 5 7 19
f 7 6 14
f 7 22 19
f 22 7 23
f 23 7 14
f 9 8 21
f 9 21 24
f 13 9 24
f 11 10 25
f 12 25 10
f 11 25 26
f 27 16 11
f 26 27 11
f 28 29 12
f 28 12 13
f 12 29 30
f 12 30 25
f 13 24 28
f 23 14 15
f 31 23 15
f 31 15 18
f 16 27 17
f 17 32 33
f 18 17 33
f 34 32 17
f 27 34 17
f 33 31 18
f 35 20 19
f 19 22 35
f 35 36 20
f 37 20 36
f 21 20 37
f 24 21 37
f 22 38 35
f 38 22 39
f 39 22 23
f 39 23 31
f 24 37 40
f 28 24 40
f 41 26 25
f 41 25 30
f 26 41 42
f 42 43 26
f 27 26 43
f 34 27 43
f 28 40 44
f 44 29 28
f 44 45 29
f 30 29 46
f 29 45 46
f 41 30 46
f 47 39 31
f 47 31 33
f 32 48 49
f 33 32 49
f 50 32 34
f 50 48 32
f 49 47 33
f 50 34 43
f 51 36 35
f 35 38 51
f 51 52 36
f 53 36 52
f 37 36 53
f 40 37 53
f 38 54 51
f 54 38 55
f 55 38 39
f 55 39 47
f 40 53 56
f 44 40 56
f 42 41 57
f 41 58 57
f 41 46 58
f 42 57 59
f 60 43 42
f 59 60 42
f 60 61 43
f 61 50 43
f 44 56 62
f 62 45 44
f 62 63 45
f 64 45 65
f 66 65 45
f 66 45 63
f 45 64 46
f 58 46 67
f 67 46 64
f 68 55 47
f 68 47 49
f 48 69 70
f 49 48 70
f 71 48 72
f 48 71 73
f 69 48 73
f 50 72 48
f 70 68 49
f 74 50 61
f 72 50 74
f 75 52 51
f 51 54 75
f 75 76 52
f 77 52 76
f 53 52 77
f 56 53 77
f 54 78 75
f 78 54 79
f 79 54 55
f 79 55 68
f 56 77 80
f 62 56 80
f 59 57 81
f 57 58 82
f 57 82 81
f 67 82 58
f 59 81 83
f 84 60 59
f 83 84 59
f 85 61 60
f 84 85 60
f 61 85 74
f 62 80 86
f 86 63 62
f 86 87 63
f 88 66 63
f 88 63 87
f 89 90 64
f 89 64 91
f 64 65 66
f 64 66 91
f 64 90 92
f 64 92 67
f 66 93 94
f 66 94 91
f 88 93 66
f 95 67 96
f 67 95 97
f 67 97 98
f 92 96 67
f 67 98 82
f 99 79 68
f 99 68 70
f 69 100 101
f 70 69 101
f 69 73 102
f 100 69 102
f 101 99 70
f 73 71 72
f 72 103 104
f 105 72 104
f 105 73 72
f 106 103 72
f 74 106 72
f 107 108 73
f 105 107 73
f 73 108 102
f 109 74 95
f 97 95 74
f 110 97 74
f 74 109 106
f 85 110 74
f 76 75 111
f 111 75 78
f 77 76 112
f 112 76 111
f 113 80 77
f 113 77 112
f 114 78 79
f 111 78 114
f 79 99 115
f 114 79 115
f 116 86 80
f 116 80 113
f 117 118 81
f 81 119 117
f 81 98 119
f 98 81 82
f 83 81 111
f 81 120 111
f 118 120 81
f 111 84 83
f 84 121 122
f 122 123 84
f 123 110 84
f 85 84 110
f 111 124 84
f 84 124 121
f 116 87 86
f 120 88 87
f 116 120 87
f 120 118 88
f 88 125 93
f 125 88 126
f 126 88 118
f 127 128 89
f 128 90 89
f 89 91 125
f 129 89 125
f 127 89 129
f 130 131 90
f 128 132 90
f 90 131 92
f 90 133 130
f 90 132 133
f 91 94 125
f 96 92 134
f 135 134 92
f 135 92 131
f 125 136 93
f 136 94 93
f 136 137 94
f 137 138 94
f 94 138 125
f 95 96 139
f 139 109 95
f 139 96 140
f 96 134 140
f 141 142 97
f 97 142 143
f 97 143 144
f 144 98 97
f 97 145 141
f 146 145 97
f 147 146 97
f 97 110 147
f 144 148 98
f 98 148 119
f 99 101 149
f 115 99 149
f 101 100 149
f 100 102 124
f 100 124 149
f 102 121 124
f 108 150 102
f 151 102 150
f 121 102 151
f 103 152 153
f 104 103 154
f 103 155 154
f 106 152 103
f 153 156 103
f 156 155 103
f 104 154 157
f 150 105 104
f 150 104 158
f 158 104 157
f 150 107 105
f 159 106 109
f 106 159 160
f 152 106 160
f 107 161 162
f 108 107 162
f 107 163 161
f 150 163 107
f 108 162 150
f 164 109 139
f 164 159 109
f 110 165 147
f 123 165 110
f 113 112 111
f 116 113 111
f 120 116 111
f 111 114 115
f 111 115 149
f 111 149 124
f 118 117 126
f 127 126 117
f 166 127 117
f 166 117 167
f 117 148 167
f 148 117 119
f 151 122 121
f 122 151 157
f 122 157 168
f 169 122 168
f 169 165 122
f 123 122 165
f 125 138 136
f 125 126 129
f 127 129 126
f 127 170 128
f 170 127 166
f 128 170 171
f 132 128 171
f 135 131 130
f 130 172 173
f 130 173 174
f 130 174 135
f 172 130 175
f 133 175 130
f 132 171 166
f 132 166 167
f 148 133 132
f 148 132 167
f 144 133 148
f 175 133 143
f 143 133 144
f 135 176 134
f 134 176 140
f 135 174 176
f 136 138 137
f 139 140 177
f 139 177 178
f 179 164 139
f 178 179 139
f 140 176 177
f 180 142 141
f 141 181 182
f 141 182 180
f 141 145 183
f 184 181 141
f 183 184 141
f 180 143 142
f 180 175 143
f 145 146 183
f 146 185 183
f 146 156 185
f 147 156 146
f 165 156 147
f 162 163 150
f 158 151 150
f 151 158 157
f 153 152 160
f 186 187 153
f 188 186 153
f 160 188 153
f 185 153 187
f 153 185 156
f 154 189 157
f 190 189 154
f 190 154 155
f 168 190 155
f 169 168 155
f 155 156 165
f 169 155 165
f 168 157 189
f 159 191 160
f 164 191 159
f 191 188 160
f 161 163 162
f 179 191 164
f 170 166 171
f 190 168 189
f 182 172 175
f 192 173 172
f 192 172 182
f 193 194 173
f 193 173 192
f 194 174 173
f 194 176 174
f 182 175 180
f 177 176 194
f 177 194 193
f 177 193 195
f 178 177 195
f 195 179 178
f 196 191 179
f 197 196 179
f 195 197 179
f 181 198 192
f 181 192 182
f 199 198 181
f 184 199 181
f 183 185 184
f 185 187 184
f 184 187 199
f 187 186 199
f 186 196 197
f 199 186 197
f 186 188 196
f 188 191 196
f 198 200 192
f 201 193 192
f 201 192 200
f 202 195 193
f 202 193 201
f 195 202 203
f 203 204 195
f 197 195 204
f 199 197 205
f 205 197 204
f 198 206 200
f 207 206 198
f 208 209 198
f 199 208 198
f 198 209 207
f 208 199 205
f 202 201 200
f 202 200 210
f 206 210 200
f 203 202 210
f 203 210 211
f 212 204 203
f 211 212 203
f 208 205 204
f 212 208 204
f 211 210 206
f 211 206 207
f 207 209 211
f 208 212 209
f 209 212 211
