# Generated by Visualization Toolkit
v -0.04841599985957146 0.3173980116844177 0.0006200000061653554
v -0.048914000391960144 0.3178290128707886 0.007455000188201666
v -0.05910100042819977 0.32105201482772827 0.0006009999779053032
v -0.04702800139784813 0.32059600949287415 0.008824000135064125
v -0.04742699861526489 0.3183780014514923 0.0006210000137798488
v -0.048914000391960144 0.3178290128707886 -0.006258000154048204
v -0.04702800139784813 0.32059600949287415 -0.007627000100910664
v -0.052014000713825226 0.319366991519928 0.014569000340998173
v -0.05713300034403801 0.3213210105895996 0.018029000610113144
v -0.06883300095796585 0.32367798686027527 0.004720999859273434
v -0.06887300312519073 0.32393398880958557 0.0006009999779053032
v -0.06906300038099289 0.3239719867706299 0.012733999639749527
v -0.06539399921894073 0.3238619863986969 0.018122000619769096
v -0.052014000713825226 0.319366991519928 -0.013372000306844711
v -0.05713300034403801 0.3213210105895996 -0.016831999644637108
v -0.06883300095796585 0.32367798686027527 -0.003524000057950616
v -0.06906300038099289 0.3239719867706299 -0.011536999605596066
v -0.06539399921894073 0.3238619863986969 -0.01692499965429306
v -0.04693799838423729 0.32213300466537476 0.0006210000137798488
v -0.047857001423835754 0.3228600025177002 0.009403999894857407
v -0.05086800083518028 0.3226659893989563 0.015440000221133232
v -0.047857001423835754 0.3228600025177002 -0.008206999860703945
v -0.05086800083518028 0.3226659893989563 -0.01424300018697977
v -0.056894998997449875 0.3254370093345642 0.01862500049173832
v -0.07105500251054764 0.3273630142211914 0.0048420000821352005
v -0.07105500251054764 0.3272550106048584 0.0006009999779053032
v -0.07105500251054764 0.3273630142211914 -0.003645000047981739
v -0.06521700322628021 0.3283500075340271 0.01875299960374832
v -0.07120300084352493 0.3252420127391815 0.014228000305593014
v -0.07147099822759628 0.3287380039691925 0.008662999607622623
v -0.056894998997449875 0.3254370093345642 -0.017427999526262283
v -0.07120300084352493 0.3252420127391815 -0.013031000271439552
v -0.06521700322628021 0.3283500075340271 -0.017556000500917435
v -0.07147099822759628 0.3287380039691925 -0.007466000039130449
v -0.04465100169181824 0.32954999804496765 0.0006230000290088356
v -0.04596399888396263 0.32912999391555786 0.009096999652683735
v -0.0516900010406971 0.32540398836135864 0.015069999732077122
v -0.04596399888396263 0.32912999391555786 -0.007899999618530273
v -0.0516900010406971 0.32540398836135864 -0.01387299969792366
v -0.056060001254081726 0.32872700691223145 0.01699800044298172
v -0.0693110004067421 0.3328860104084015 0.006039000116288662
v -0.06892500072717667 0.3327620029449463 0.0006019999855197966
v -0.0693110004067421 0.3328860104084015 -0.0048420000821352005
v -0.06433399766683578 0.3311710059642792 0.017781000584363937
v -0.06870599836111069 0.33150699734687805 0.016845999285578728
v -0.07061100006103516 0.33386901021003723 0.008919999934732914
v -0.056060999631881714 0.32872700691223145 -0.015800999477505684
v -0.06870599836111069 0.33150699734687805 -0.01564900018274784
v -0.06433399766683578 0.3311710059642792 -0.0165839996188879
v -0.07061100006103516 0.33386901021003723 -0.0077229999005794525
v -0.04339500144124031 0.3323509991168976 0.000623999978415668
v -0.04395399987697601 0.33223599195480347 0.009998999536037445
v -0.05032600089907646 0.3312869966030121 0.015626000240445137
v -0.04395399987697601 0.33223599195480347 -0.008802000433206558
v -0.05032600089907646 0.3312869966030121 -0.014429000206291676
v -0.054055001586675644 0.3328630030155182 0.017072999849915504
v -0.06587900221347809 0.33906200528144836 0.006219999864697456
v -0.06729699671268463 0.3399839997291565 0.009298999793827534
v -0.06530000269412994 0.33892199397087097 0.0006050000083632767
v -0.06587900221347809 0.33906200528144836 -0.005022999830543995
v -0.06729699671268463 0.3399839997291565 -0.008101999759674072
v -0.06170700117945671 0.336201012134552 0.01790500059723854
v -0.06513399630784988 0.33838099241256714 0.018240999430418015
v -0.07275500148534775 0.3326599895954132 0.015235000289976597
v -0.0706849992275238 0.33428600430488586 0.018542999401688576
v -0.06800000369548798 0.3383849859237671 0.02205600030720234
v -0.07566999644041061 0.3373520076274872 0.003792000003159046
v -0.054055001586675644 0.3328630030155182 -0.015876000747084618
v -0.06513399630784988 0.33838099241256714 -0.017044000327587128
v -0.06170700117945671 0.336201012134552 -0.016707999631762505
v -0.0706849992275238 0.33428600430488586 -0.01734600029885769
v -0.07275500148534775 0.3326599895954132 -0.014038000255823135
v -0.06800000369548798 0.3383849859237671 -0.020858999341726303
v -0.07566999644041061 0.3373520076274872 -0.0025949999690055847
v -0.04255399852991104 0.3357029855251312 0.0006249999860301614
v -0.04324499890208244 0.3357749879360199 0.010172000154852867
v -0.04802500084042549 0.333514004945755 0.01650499925017357
v -0.04324499890208244 0.3357749879360199 -0.008975000120699406
v -0.04802500084042549 0.333514004945755 -0.015308000147342682
v -0.05282999947667122 0.33497801423072815 0.018813999369740486
v -0.06472299993038177 0.34462499618530273 0.007765999995172024
v -0.06567300111055374 0.3435699939727783 0.009940000250935555
v -0.06365399807691574 0.34343600273132324 0.0006060000159777701
v -0.06472299993038177 0.34462499618530273 -0.006568999961018562
v -0.06567300111055374 0.3435699939727783 -0.008743000216782093
v -0.05909699946641922 0.3387320041656494 0.019693000242114067
v -0.06280499696731567 0.3401069939136505 0.01764800027012825
v -0.06735099852085114 0.3429409861564636 0.017688000574707985
v -0.07734300196170807 0.34100601077079773 0.020406000316143036
v -0.07685200124979019 0.337352991104126 0.015318999998271465
v -0.07618899643421173 0.33196699619293213 0.021786000579595566
v -0.07484599947929382 0.3312540054321289 0.009619999676942825
v -0.07349599897861481 0.33865201473236084 0.020975999534130096
v -0.0762849971652031 0.33389198780059814 0.019122999161481857
v -0.07755299657583237 0.33343300223350525 0.0006019999855197966
v -0.08267399668693542 0.3253740072250366 0.004980000201612711
v -0.08199500292539597 0.34068599343299866 0.00060299999313429
v -0.0761210024356842 0.3424470126628876 0.007209000177681446
v -0.05282999947667122 0.33497801423072815 -0.0176170002669096
v -0.06280499696731567 0.3401069939136505 -0.016450999304652214
v -0.05909699946641922 0.3387320041656494 -0.01849599927663803
v -0.06735099852085114 0.3429409861564636 -0.01649099960923195
v -0.07685200124979019 0.337352991104126 -0.014121999964118004
v -0.07734300196170807 0.34100601077079773 -0.019208999350667
v -0.07618899643421173 0.33196699619293213 -0.020587999373674393
v -0.07484599947929382 0.3312540054321289 -0.008422999642789364
v -0.0762849971652031 0.33389198780059814 -0.01792600005865097
v -0.07349599897861481 0.33865201473236084 -0.01977900043129921
v -0.08267399668693542 0.3253740072250366 -0.0037819999270141125
v -0.0761210024356842 0.3424470126628876 -0.006012000143527985
v -0.05418099835515022 0.340489000082016 0.0006070000235922635
v -0.04712300002574921 0.33715200424194336 0.016724999994039536
v -0.05240200087428093 0.33941298723220825 0.019694000482559204
v -0.04712300002574921 0.33715200424194336 -0.015527999959886074
v -0.05240200087428093 0.33941298723220825 -0.018496999517083168
v -0.05937400087714195 0.34183400869369507 0.019811000674962997
v -0.07332199811935425 0.34891799092292786 0.014302999712526798
v -0.06673700362443924 0.34420400857925415 0.01267900038510561
v -0.07370299845933914 0.34685298800468445 0.009217999875545502
v -0.06338000297546387 0.34368500113487244 0.015261000022292137
v -0.06673700362443924 0.34420400857925415 -0.011482000350952148
v -0.07332199811935425 0.34891799092292786 -0.013105999678373337
v -0.07370299845933914 0.34685298800468445 -0.00802099984139204
v -0.06338000297546387 0.34368500113487244 -0.014063999988138676
v -0.07412099838256836 0.34335198998451233 0.018787000328302383
v -0.07272300124168396 0.34538400173187256 0.016354000195860863
v -0.08351600170135498 0.35336199402809143 0.03246099874377251
v -0.08106700330972672 0.34358999133110046 0.018664000555872917
v -0.07603199779987335 0.34532299637794495 0.01882000081241131
v -0.08766700327396393 0.33221301436424255 0.011427000164985657
v -0.08426299691200256 0.3327290117740631 0.01385399978607893
v -0.08602599799633026 0.3462989926338196 0.022292999550700188
v -0.0802989974617958 0.34114301204681396 0.011459000408649445
v -0.07568000257015228 0.32987600564956665 0.010874999687075615
v -0.08837699890136719 0.3291879892349243 0.015199000015854836
v -0.0763780027627945 0.3399670124053955 0.02313699945807457
v -0.07806699723005295 0.338795006275177 0.02115200087428093
v -0.07739699631929398 0.344310998916626 0.021441999822854996
v -0.08366499841213226 0.3298960030078888 0.0006009999779053032
v -0.08267399668693542 0.3245440125465393 0.0063390000723302364
v -0.09272799640893936 0.33374300599098206 0.0006019999855197966
v -0.08354800194501877 0.33836600184440613 0.004844999872148037
v -0.08079499751329422 0.33650699257850647 0.007708000019192696
v -0.07987499982118607 0.33968299627304077 0.00950899999588728
v -0.08354800194501877 0.33836600184440613 -0.003648000070825219
v -0.08079499751329422 0.33650699257850647 -0.006510999985039234
v -0.07987499982118607 0.33968299627304077 -0.008311999961733818
v -0.07684499770402908 0.34313198924064636 0.010320999659597874
v -0.05937400087714195 0.34183400869369507 -0.01861399970948696
v -0.07412099838256836 0.34335198998451233 -0.017589999362826347
v -0.07272300124168396 0.34538400173187256 -0.015157000161707401
v -0.08426299691200256 0.3327290117740631 -0.012656999751925468
v -0.08766700327396393 0.33221301436424255 -0.010230000130832195
v -0.08106700330972672 0.34358999133110046 -0.01746699959039688
v -0.08602599799633026 0.3462989926338196 -0.0210960004478693
v -0.0802989974617958 0.34114301204681396 -0.010262000374495983
v -0.08351600170135498 0.35336199402809143 -0.031182000413537025
v -0.07603199779987335 0.34532299637794495 -0.017622999846935272
v -0.07568000257015228 0.32987600564956665 -0.009677999652922153
v -0.08837699890136719 0.3291879892349243 -0.014001999981701374
v -0.07806699723005295 0.338795006275177 -0.019954999908804893
v -0.0763780027627945 0.3399670124053955 -0.021940000355243683
v -0.07739699631929398 0.344310998916626 -0.02024500072002411
v -0.08267399668693542 0.3245440125465393 -0.005142000038176775
v -0.07684499770402908 0.34313198924064636 -0.009123999625444412
v -0.08843900263309479 0.3526020050048828 0.027310999110341072
v -0.07947999984025955 0.3455600142478943 0.012524000369012356
v -0.08843900263309479 0.3526020050048828 -0.02603299915790558
v -0.07947999984025955 0.3455600142478943 -0.011327000334858894
v -0.0873510017991066 0.3510119915008545 0.03589800000190735
v -0.08919300138950348 0.3498310148715973 0.028037000447511673
v -0.0900920033454895 0.33081498742103577 0.009387999773025513
v -0.09116700291633606 0.3275650143623352 0.00891599990427494
v -0.0896959975361824 0.3243420124053955 0.014991000294685364
v -0.08712799847126007 0.3336910009384155 0.00817899964749813
v -0.0840350016951561 0.3232190012931824 0.012008000165224075
v -0.08386199921369553 0.3275049924850464 0.005164000205695629
v -0.08646000176668167 0.326229989528656 0.0006000000284984708
v -0.08386199921369553 0.3275049924850464 -0.003967000171542168
v -0.09101899713277817 0.3351370096206665 0.004184000194072723
v -0.10058800131082535 0.3266569972038269 0.0005849999724887311
v -0.09170400351285934 0.3317739963531494 0.0040870001539587975
v -0.09101899713277817 0.3351370096206665 -0.0029869999270886183
v -0.09170400351285934 0.3317739963531494 -0.0028899998869746923
v -0.08712799847126007 0.3336910009384155 -0.006982000079005957
v -0.09116700291633606 0.3275650143623352 -0.007718999870121479
v -0.0900920033454895 0.33081498742103577 -0.008191999979317188
v -0.0896959975361824 0.3243420124053955 -0.013794000260531902
v -0.0873510017991066 0.3510119915008545 -0.034619998186826706
v -0.08919300138950348 0.3498310148715973 -0.02675900049507618
v -0.0840350016951561 0.3232190012931824 -0.010811000131070614
v -0.09273499995470047 0.3286910057067871 0.004238000139594078
v -0.09243500232696533 0.3268760144710541 0.004865000024437904
v -0.08880600333213806 0.3244889974594116 0.007141999900341034
v -0.09333399683237076 0.3232389986515045 0.000598000013269484
v -0.08880600333213806 0.3244889974594116 -0.0059449998661875725
v -0.09243500232696533 0.3268760144710541 -0.003667999990284443
v -0.10680700093507767 0.3205229938030243 0.0006210000137798488
v -0.09273499995470047 0.3286910057067871 -0.0030410001054406166
v -0.10225699841976166 0.31828200817108154 0.0033950000070035458
v -0.09604799747467041 0.3222070038318634 0.004573000129312277
v -0.10435199737548828 0.31272000074386597 0.00278700003400445
v -0.1049090027809143 0.31266099214553833 0.0006360000115819275
v -0.10435199737548828 0.31272000074386597 -0.0015089999651536345
v -0.09604799747467041 0.3222070038318634 -0.0033760000951588154
v -0.1092509999871254 0.3184509873390198 0.0034260000102221966
v -0.11012300103902817 0.31765100359916687 0.0006259999936446548
v -0.10225699841976166 0.31828200817108154 -0.002116000046953559
v -0.1092509999871254 0.3184509873390198 -0.0021470000501722097
v -0.10869999974966049 0.31538501381874084 0.0038840000052005053
v -0.10755199939012527 0.31366899609565735 0.0006200000061653554
v -0.10869999974966049 0.31538501381874084 -0.002606000052765012
f 1 2 3
f 4 2 1
f 4 1 5
f 3 6 1
f 1 6 7
f 5 1 7
f 2 8 3
f 8 2 4
f 8 9 3
f 10 11 3
f 3 12 10
f 13 12 3
f 3 9 13
f 3 14 6
f 3 15 14
f 3 11 16
f 16 17 3
f 3 17 18
f 18 15 3
f 19 20 4
f 19 4 5
f 21 4 20
f 8 4 21
f 5 7 19
f 7 6 14
f 7 22 19
f 22 7 23
f 23 7 14
f 9 8 21
f 9 21 24
f 13 9 24
f 11 10 25
f 12 25 10
f 11 25 26
f 27 16 11
f 26 27 11
f 28 29 12
f 28 12 13
f 12 29 30
f 12 30 25
f 13 24 28
f 23 14 15
f 31 23 15
f 31 15 18
f 16 27 17
f 17 32 33
f 18 17 33
f 34 32 17
f 27 34 17
f 33 31 18
f 35 20 19
f 19 22 35
f 35 36 20
f 37 20 36
f 21 20 37
f 24 21 37
f 22 38 35
f 38 22 39
f 39 22 23
f 39 23 31
f 24 37 40
f 28 24 40
f 41 26 25
f 41 25 30
f 26 41 42
f 42 43 26
f 27 26 43
f 34 27 43
f 28 40 44
f 44 29 28
f 44 45 29
f 30 29 46
f 29 45 46
f 41 30 46
f 47 39 31
f 47 31 33
f 32 48 49
f 33 32 49
f 50 32 34
f 50 48 32
f 49 47 33
f 50 34 43
f 51 36 35
f 35 38 51
f 51 52 36
f 53 36 52
f 37 36 53
f 40 37 53
f 38 54 51
f 54 38 55
f 55 38 39
f 55 39 47
f 40 53 56
f 44 40 56
f 42 41 57
f 41 58 57
f 41 46 58
f 42 57 59
f 60 43 42
f 59 60 42
f 60 61 43
f 61 50 43
f 44 56 62
f 62 45 44
f 62 63 45
f 64 45 65
f 66 65 45
f 66 45 63
f 45 64 46
f 58 46 67
f 67 46 64
f 68 55 47
f 68 47 49
f 48 69 70
f 49 48 70
f 71 48 72
f 48 71 73
f 69 48 73
f 50 72 48
f 70 68 49
f 74 50 61
f 72 50 74
f 75 52 51
f 51 54 75
f 75 76 52
f 77 52 76
f 53 52 77
f 56 53 77
f 54 78 75
f 78 54 79
f 79 54 55
f 79 55 68
f 56 77 80
f 62 56 80
f 59 57 81
f 57 58 82
f 57 82 81
f 67 82 58
f 59 81 83
f 84 60 59
f 83 84 59
f 85 61 60
f 84 85 60
f 61 85 74
f 62 80 86
f 86 63 62
f 86 87 63
f 88 66 63
f 88 63 87
f 89 90 64
f 89 64 91
f 64 65 66
f 64 66 91
f 64 90 92
f 64 92 67
f 66 93 94
f 66 94 91
f 88 93 66
f 95 67 96
f 67 95 97
f 67 97 98
f 92 96 67
f 67 98 82
f 99 79 68
f 99 68 70
f 69 100 101
f 70 69 101
f 69 73 102
f 100 69 102
f 101 99 70
f 73 71 72
f 72 103 104
f 105 72 104
f 105 73 72
f 106 103 72
f 74 106 72
f 107 108 73
f 105 107 73
f 73 108 102
f 109 74 95
f 97 95 74
f 110 97 74
f 74 109 106
f 85 110 74
f 76 75 111
f 111 75 78
f 77 76 112
f 112 76 111
f 113 80 77
f 113 77 112
f 114 78 79
f 111 78 114
f 79 99 115
f 114 79 115
f 116 86 80
f 116 80 113
f 117 118 81
f 81 119 117
f 81 98 119
f 98 81 82
f 83 81 111
f 81 120 111
f 118 120 81
f 111 84 83
f 84 121 122
f 122 123 84
f 123 110 84
f 85 84 110
f 111 124 84
f 84 124 121
f 116 87 86
f 120 88 87
f 116 120 87
f 120 118 88
f 88 125 93
f 125 88 126
f 126 88 118
f 127 128 89
f 128 90 89
f 89 91 125
f 129 89 125
f 127 89 129
f 130 131 90
f 128 132 90
f 90 131 92
f 90 133 130
f 90 132 133
f 91 94 125
f 96 92 134
f 135 134 92
f 135 92 131
f 125 136 93
f 136 94 93
f 136 137 94
f 137 138 94
f 94 138 125
f 95 96 139
f 139 109 95
f 139 96 140
f 96 134 140
f 141 142 97
f 97 142 143
f 97 143 144
f 144 98 97
f 97 145 141
f 146 145 97
f 147 146 97
f 97 110 147
f 144 148 98
f 98 148 119
f 99 101 149
f 115 99 149
f 101 100 149
f 100 102 124
f 100 124 149
f 102 121 124
f 108 150 102
f 151 102 150
f 121 102 151
f 103 152 153
f 104 103 154
f 103 155 154
f 106 152 103
f 153 156 103
f 156 155 103
f 104 154 157
f 150 105 104
f 150 104 158
f 158 104 157
f 150 107 105
f 159 106 109
f 106 159 160
f 152 106 160
f 107 161 162
f 108 107 162
f 107 163 161
f 150 163 107
f 108 162 150
f 164 109 139
f 164 159 109
f 110 165 147
f 123 165 110
f 113 112 111
f 116 113 111
f 120 116 111
f 111 114 115
f 111 115 149
f 111 149 124
f 118 117 126
f 127 126 117
f 166 127 117
f 166 117 167
f 117 148 167
f 148 117 119
f 151 122 121
f 122 151 157
f 122 157 168
f 169 122 168
f 169 165 122
f 123 122 165
f 125 138 136
f 125 126 129
f 127 129 126
f 127 170 128
f 170 127 166
f 128 170 171
f 132 128 171
f 135 131 130
f 130 172 173
f 130 173 174
f 130 174 135
f 172 130 175
f 133 175 130
f 132 171 166
f 132 166 167
f 148 133 132
f 148 132 167
f 144 133 148
f 175 133 143
f 143 133 144
f 135 176 134
f 134 176 140
f 135 174 176
f 136 138 137
f 139 140 177
f 139 177 178
f 179 164 139
f 178 179 139
f 140 176 177
f 180 142 141
f 141 181 182
f 141 182 180
f 141 145 183
f 184 181 141
f 183 184 141
f 180 143 142
f 180 175 143
f 145 146 183
f 146 185 183
f 146 156 185
f 147 156 146
f 165 156 147
f 162 163 150
f 158 151 150
f 151 158 157
f 153 152 160
f 186 187 153
f 188 186 153
f 160 188 153
f 185 153 187
f 153 185 156
f 154 189 157
f 190 189 154
f 190 154 155
f 168 190 155
f 169 168 155
f 155 156 165
f 169 155 165
f 168 157 189
f 159 191 160
f 164 191 159
f 191 188 160
f 161 163 162
f 179 191 164
f 170 166 171
f 190 168 189
f 182 172 175
f 192 173 172
f 192 172 182
f 193 194 173
f 193 173 192
f 194 174 173
f 194 176 174
f 182 175 180
f 177 176 194
f 177 194 193
f 177 193 195
f 178 177 195
f 195 179 178
f 196 191 179
f 197 196 179
f 195 197 179
f 181 198 192
f 181 192 182
f 199 198 181
f 184 199 181
f 183 185 184
f 185 187 184
f 184 187 199
f 187 186 199
f 186 196 197
f 199 186 197
f 186 188 196
f 188 191 196
f 198 200 192
f 201 193 192
f 201 192 200
f 202 195 193
f 202 193 201
f 195 202 203
f 203 204 195
f 197 195 204
f 199 197 205
f 205 197 204
f 198 206 200
f 207 206 198
f 208 209 198
f 199 208 198
f 198 209 207
f 208 199 205
f 202 201 200
f 202 200 210
f 206 210 200
f 203 202 210
f 203 210 211
f 212 204 203
f 211 212 203
f 208 205 204
f 212 208 204
f 211 210 206
f 211 206 207
f 207 209 211
f 208 212 209
f 209 212 211
