# Generated by Visualization Toolkit
v -0.03375000134110451 0.08975400030612946 0.00002499999936844688
v -0.034651000052690506 0.08970800042152405 0.008244000375270844
v -0.04830300062894821 0.08280099928379059 0.000003000000106112566
v -0.03500799834728241 0.094589002430439 0.009890000335872173
v -0.0335329994559288 0.0918089970946312 0.00002700000004551839
v -0.034651000052690506 0.08970800042152405 -0.008244000375270844
v -0.03500799834728241 0.094589002430439 -0.009890000335872173
v -0.03928399831056595 0.08820399641990662 0.016798000782728195
v -0.04643100127577782 0.08508999645709991 0.020958000794053078
v -0.060394998639822006 0.07699199765920639 0.00495699979364872
v -0.06065800040960312 0.07722499966621399 0.000003000000106112566
v -0.060892000794410706 0.07707200199365616 0.014592000283300877
v -0.05743899941444397 0.07941100001335144 0.021071000024676323
v -0.03928399831056595 0.08820399641990662 -0.016798000782728195
v -0.04643100127577782 0.08508999645709991 -0.020958000794053078
v -0.060394998639822006 0.07699199765920639 -0.00495699979364872
v -0.060892000794410706 0.07707200199365616 -0.014592000283300877
v -0.05743899941444397 0.07941100001335144 -0.021071000024676323
v -0.03623000159859657 0.09632500261068344 0.00002700000004551839
v -0.03783600032329559 0.09617099910974503 0.01058799959719181
v -0.04088800027966499 0.09290000051259995 0.0178459994494915
v -0.03783600032329559 0.09617099910974503 -0.01058799959719181
v -0.04088800027966499 0.09290000051259995 -0.0178459994494915
v -0.04970499873161316 0.08973900228738785 0.021676000207662582
v -0.06384000182151794 0.0804940015077591 0.0051020001992583275
v -0.06583700329065323 0.07856100052595139 0.000003000000106112566
v -0.06384000182151794 0.0804940015077591 -0.0051020001992583275
v -0.06109900027513504 0.08439599722623825 0.021828999742865562
v -0.06426899880170822 0.07625599950551987 0.016388000920414925
v -0.06531800329685211 0.08166199922561646 0.009696000255644321
v -0.04970499873161316 0.08973900228738785 -0.021676000207662582
v -0.06426899880170822 0.07625599950551987 -0.016388000920414925
v -0.06109900027513504 0.08439599722623825 -0.021828999742865562
v -0.06531800329685211 0.08166199922561646 -0.009696000255644321
v -0.03975199908018112 0.10642699897289276 0.000029999999242136255
v -0.040738001465797424 0.10474800318479538 0.010219000279903412
v -0.04411400109529495 0.09499499946832657 0.017400000244379044
v -0.040738001465797424 0.10474800318479538 -0.010219000279903412
v -0.04411400109529495 0.09499499946832657 -0.017400000244379044
v -0.051635000854730606 0.09410899877548218 0.019719000905752182
v -0.06842400133609772 0.08821900188922882 0.006541999988257885
v -0.06794200092554092 0.08843400329351425 0.000004999999873689376
v -0.06842400133609772 0.08821900188922882 -0.006541999988257885
v -0.06007000058889389 0.09095100313425064 0.020659999921917915
v -0.06675399839878082 0.0872189998626709 0.01953599974513054
v -0.07048100233078003 0.08813399821519852 0.010005000047385693
v -0.051635000854730606 0.09410899877548218 -0.019719000905752182
v -0.06675399839878082 0.0872189998626709 -0.01953599974513054
v -0.06007000058889389 0.09095100313425064 -0.020659999921917915
v -0.07048100233078003 0.08813399821519852 -0.010005000047385693
v -0.04066099971532822 0.11073700338602066 0.00003099999958067201
v -0.04112999886274338 0.11009400337934494 0.01130400039255619
v -0.04676000028848648 0.10317999869585037 0.01806900091469288
v -0.04112999886274338 0.11009400337934494 -0.01130400039255619
v -0.04676000028848648 0.10317999869585037 -0.01806900091469288
v -0.051701001822948456 0.10153699666261673 0.019809000194072723
v -0.0718419998884201 0.09725300222635269 0.00675999978557229
v -0.07397100329399109 0.09699200093746185 0.010460999794304371
v -0.07115600258111954 0.09762699902057648 0.000007999999979801942
v -0.0718419998884201 0.09725300222635269 -0.00675999978557229
v -0.07397100329399109 0.09699200093746185 -0.010460999794304371
v -0.06189600005745888 0.0977569967508316 0.020809000357985497
v -0.06700199842453003 0.09707099944353104 0.02121400088071823
v -0.07266999781131744 0.08456400036811829 0.01759899966418743
v -0.07087799906730652 0.08853600174188614 0.021577000617980957
v -0.07343699783086777 0.09454499930143356 0.025800000876188278
v -0.07892099767923355 0.09078700095415115 0.0038399999029934406
v -0.051701001822948456 0.10153699666261673 -0.019809000194072723
v -0.06700199842453003 0.09707099944353104 -0.02121400088071823
v -0.06189600005745888 0.0977569967508316 -0.020809000357985497
v -0.07087799906730652 0.08853600174188614 -0.021577000617980957
v -0.07266999781131744 0.08456400036811829 -0.01759899966418743
v -0.07343699783086777 0.09454499930143356 -0.025800000876188278
v -0.07892099767923355 0.09078700095415115 -0.0038399999029934406
v -0.04241099953651428 0.11528699845075607 0.00003199999991920777
v -0.04315600171685219 0.11473599821329117 0.011510999873280525
v -0.04618300125002861 0.10780200362205505 0.01912599988281727
v -0.04315600171685219 0.11473599821329117 -0.011510999873280525
v -0.04618300125002861 0.10780200362205505 -0.01912599988281727
v -0.052111998200416565 0.10504399985074997 0.02190300077199936
v -0.07498499751091003 0.10458499938249588 0.008617999963462353
v -0.0751190036535263 0.10252399742603302 0.011233000084757805
v -0.0729990005493164 0.1042260006070137 0.000009000000318337698
v -0.07498499751091003 0.10458499938249588 -0.008617999963462353
v -0.0751190036535263 0.10252399742603302 -0.011233000084757805
v -0.06124399974942207 0.10300499945878983 0.022958999499678612
v -0.06958000361919403 0.10125099867582321 0.020500000566244125
v -0.0763079971075058 0.10027600079774857 0.020547999069094658
v -0.08336900174617767 0.0935019999742508 0.023816000670194626
v -0.08012600243091583 0.0897430032491684 0.01769999973475933
v -0.07722099870443344 0.08427999913692474 0.025474999099969864
v -0.07307799905538559 0.08108899742364883 0.010847999714314938
v -0.07768099755048752 0.09420300275087357 0.024501999840140343
v -0.07900799810886383 0.0861700028181076 0.022274000570178032
v -0.07971099764108658 0.084757000207901 0.000003999999989900971
v -0.0735040009021759 0.0674939975142479 0.005268000066280365
v -0.08831600099802017 0.09076199680566788 0.000004999999873689376
v -0.08320599794387817 0.09623800218105316 0.007949000224471092
v -0.052111998200416565 0.10504399985074997 -0.02190300077199936
v -0.06958000361919403 0.10125099867582321 -0.020500000566244125
v -0.06124399974942207 0.10300499945878983 -0.022958999499678612
v -0.0763079971075058 0.10027600079774857 -0.020547999069094658
v -0.08012600243091583 0.0897430032491684 -0.01769999973475933
v -0.08336900174617767 0.0935019999742508 -0.023816000670194626
v -0.07722099870443344 0.08427999913692474 -0.025474999099969864
v -0.07307799905538559 0.08108899742364883 -0.010847999714314938
v -0.07900799810886383 0.0861700028181076 -0.022274000570178032
v -0.07768099755048752 0.09420300275087357 -0.024501999840140343
v -0.0735040009021759 0.0674939975142479 -0.005268000066280365
v -0.08320599794387817 0.09623800218105316 -0.007949000224471092
v -0.057718001306056976 0.11001899838447571 0.000009999999747378752
v -0.04809299856424332 0.1127299964427948 0.01939000003039837
v -0.05511000007390976 0.11043699830770493 0.022960999980568886
v -0.04809299856424332 0.1127299964427948 -0.01939000003039837
v -0.05511000007390976 0.11043699830770493 -0.022960999980568886
v -0.06391800194978714 0.10624799877405167 0.023101000115275383
v -0.08521000295877457 0.10614299774169922 0.016478000208735466
v -0.07667099684476852 0.10226300358772278 0.014526000246405602
v -0.08404800295829773 0.10343500226736069 0.010363999754190445
v -0.07291799783706665 0.10475700348615646 0.01763099990785122
v -0.07667099684476852 0.10226300358772278 -0.014526000246405602
v -0.08521000295877457 0.10614299774169922 -0.016478000208735466
v -0.08404800295829773 0.10343500226736069 -0.010363999754190445
v -0.07291799783706665 0.10475700348615646 -0.01763099990785122
v -0.08184599876403809 0.0990459993481636 0.021870000287890434
v -0.08194699883460999 0.10261599719524384 0.01894400082528591
v -0.09117399901151657 0.10384400188922882 0.01984499953687191
v -0.08908800035715103 0.09473899751901627 0.014623000286519527
v -0.08527400344610214 0.09961800277233124 0.02191000059247017
v -0.08712100237607956 0.07876300066709518 0.013020000420510769
v -0.082955002784729 0.08196800202131271 0.015938999131321907
v -0.09513600170612335 0.09188400208950043 0.01756099984049797
v -0.08692900091409683 0.09278800338506699 0.01305800024420023
v -0.07466699928045273 0.08235300332307816 0.012357000261545181
v -0.08545000106096268 0.07466699928045273 0.017556000500917435
v -0.08160600066184998 0.09316399693489075 0.02710000053048134
v -0.08244699984788895 0.09032300114631653 0.024714000523090363
v -0.0859059989452362 0.09724800288677216 0.02506200037896633
v -0.07837799936532974 0.0734269991517067 0.000003000000106112566
v -0.07282800227403641 0.06654399633407593 0.006903000175952911
v -0.09402699768543243 0.07601200044155121 0.000003999999989900971
v -0.08977100253105164 0.0848810002207756 0.005106000229716301
v -0.08556900173425674 0.08518200367689133 0.008549000136554241
v -0.0854019969701767 0.09148599952459335 0.010714000090956688
v -0.08977100253105164 0.0848810002207756 -0.005106000229716301
v -0.08556900173425674 0.08518200367689133 -0.008549000136554241
v -0.0854019969701767 0.09148599952459335 -0.010714000090956688
v -0.08445800095796585 0.0963829979300499 0.011691000312566757
v -0.06391800194978714 0.10624799877405167 -0.023101000115275383
v -0.08184599876403809 0.0990459993481636 -0.021870000287890434
v -0.08194699883460999 0.10261599719524384 -0.01894400082528591
v -0.082955002784729 0.08196800202131271 -0.015938999131321907
v -0.08712100237607956 0.07876300066709518 -0.013020000420510769
v -0.08908800035715103 0.09473899751901627 -0.014623000286519527
v -0.09513600170612335 0.09188400208950043 -0.01756099984049797
v -0.08692900091409683 0.09278800338506699 -0.01305800024420023
v -0.09117399901151657 0.10384400188922882 -0.019843999296426773
v -0.08527400344610214 0.09961800277233124 -0.02191000059247017
v -0.07466699928045273 0.08235300332307816 -0.012357000261545181
v -0.08545000106096268 0.07466699928045273 -0.017556000500917435
v -0.08244699984788895 0.09032300114631653 -0.024714000523090363
v -0.08160600066184998 0.09316399693489075 -0.02710000053048134
v -0.0859059989452362 0.09724800288677216 -0.02506200037896633
v -0.07282800227403641 0.06654399633407593 -0.006903000175952911
v -0.08445800095796585 0.0963829979300499 -0.011691000312566757
v -0.0956220030784607 0.09861599653959274 0.01663300022482872
v -0.08941099792718887 0.09858100116252899 0.01433899998664856
v -0.0956220030784607 0.09861599653959274 -0.01663300022482872
v -0.08941099792718887 0.09858100116252899 -0.01433899998664856
v -0.09331899881362915 0.09775400161743164 0.021988000720739365
v -0.09431000053882599 0.09476800262928009 0.017085999250411987
v -0.08869300037622452 0.07500500231981277 0.01056899968534708
v -0.08844199776649475 0.06921800225973129 0.010001000016927719
v -0.08204899728298187 0.06694100052118301 0.017305999994277954
v -0.08772300183773041 0.08093400299549103 0.009115000255405903
v -0.07326900213956833 0.06381700187921524 0.013717999681830406
v -0.07656999677419662 0.06887699663639069 0.005489000119268894
v -0.08089499920606613 0.07298699766397476 9.999999974752427e-7
v -0.07656999677419662 0.06887699663639069 -0.005489000119268894
v -0.0932530015707016 0.07912900298833847 0.004311999771744013
v -0.09789100289344788 0.06756000220775604 -0.000015999999959603883
v -0.09127599745988846 0.0746690034866333 0.004195000045001507
v -0.0932530015707016 0.07912900298833847 -0.004311999771744013
v -0.09127599745988846 0.0746690034866333 -0.004195000045001507
v -0.08772300183773041 0.08093400299549103 -0.009115000255405903
v -0.08844199776649475 0.06921800225973129 -0.010001000016927719
v -0.08869300037622452 0.07500500231981277 -0.01056899968534708
v -0.08204899728298187 0.06694100052118301 -0.017305999994277954
v -0.09331899881362915 0.09775400161743164 -0.021988000720739365
v -0.09431000053882599 0.09476800262928009 -0.017085999250411987
v -0.07326900213956833 0.06381700187921524 -0.013717999681830406
v -0.09111300110816956 0.06911200284957886 0.004375999793410301
v -0.08929699659347534 0.06730200350284576 0.0051299999468028545
v -0.08117400109767914 0.06790100038051605 0.007867000065743923
v -0.08521699905395508 0.062442000955343246 0
v -0.08117400109767914 0.06790100038051605 -0.007867000065743923
v -0.08929699659347534 0.06730200350284576 -0.0051299999468028545
v -0.10343500226736069 0.06145700067281723 -0.00002099999983329326
v -0.09111300110816956 0.06911200284957886 -0.004375999793410301
v -0.09490299969911575 0.06400600075721741 0.0047610001638531685
v -0.09060599654912949 0.0628260001540184 0.004778999835252762
v -0.09238799661397934 0.054788000881671906 0.003711000084877014
v -0.09410099685192108 0.05349300056695938 -0.000003000000106112566
v -0.09238799661397934 0.054788000881671906 -0.003711000084877014
v -0.09060599654912949 0.0628260001540184 -0.004778999835252762
v -0.1036750003695488 0.057402998208999634 0.004813999868929386
v -0.10409499704837799 0.055642999708652496 -0.00002300000051036477
v -0.09490299969911575 0.06400600075721741 -0.0047610001638531685
v -0.1036750003695488 0.057402998208999634 -0.004813999868929386
v -0.10047899931669235 0.05444199964404106 0.0056059998460114
v -0.09872700273990631 0.05291400104761124 -0.00002099999983329326
v -0.10047899931669235 0.05444199964404106 -0.0056059998460114
f 1 2 3
f 4 2 1
f 4 1 5
f 3 6 1
f 1 6 7
f 5 1 7
f 2 8 3
f 8 2 4
f 8 9 3
f 10 11 3
f 3 12 10
f 13 12 3
f 3 9 13
f 3 14 6
f 3 15 14
f 3 11 16
f 16 17 3
f 3 17 18
f 18 15 3
f 19 20 4
f 19 4 5
f 21 4 20
f 8 4 21
f 5 7 19
f 7 6 14
f 7 22 19
f 22 7 23
f 23 7 14
f 9 8 21
f 9 21 24
f 13 9 24
f 11 10 25
f 12 25 10
f 11 25 26
f 27 16 11
f 26 27 11
f 28 29 12
f 28 12 13
f 12 29 30
f 12 30 25
f 13 24 28
f 23 14 15
f 31 23 15
f 31 15 18
f 16 27 17
f 17 32 33
f 18 17 33
f 34 32 17
f 27 34 17
f 33 31 18
f 35 20 19
f 19 22 35
f 35 36 20
f 37 20 36
f 21 20 37
f 24 21 37
f 22 38 35
f 38 22 39
f 39 22 23
f 39 23 31
f 24 37 40
f 28 24 40
f 41 26 25
f 41 25 30
f 26 41 42
f 42 43 26
f 27 26 43
f 34 27 43
f 28 40 44
f 44 29 28
f 44 45 29
f 30 29 46
f 29 45 46
f 41 30 46
f 47 39 31
f 47 31 33
f 32 48 49
f 33 32 49
f 50 32 34
f 50 48 32
f 49 47 33
f 50 34 43
f 51 36 35
f 35 38 51
f 51 52 36
f 53 36 52
f 37 36 53
f 40 37 53
f 38 54 51
f 54 38 55
f 55 38 39
f 55 39 47
f 40 53 56
f 44 40 56
f 42 41 57
f 41 58 57
f 41 46 58
f 42 57 59
f 60 43 42
f 59 60 42
f 60 61 43
f 61 50 43
f 44 56 62
f 62 45 44
f 62 63 45
f 64 45 65
f 66 65 45
f 66 45 63
f 45 64 46
f 58 46 67
f 67 46 64
f 68 55 47
f 68 47 49
f 48 69 70
f 49 48 70
f 71 48 72
f 48 71 73
f 69 48 73
f 50 72 48
f 70 68 49
f 74 50 61
f 72 50 74
f 75 52 51
f 51 54 75
f 75 76 52
f 77 52 76
f 53 52 77
f 56 53 77
f 54 78 75
f 78 54 79
f 79 54 55
f 79 55 68
f 56 77 80
f 62 56 80
f 59 57 81
f 57 58 82
f 57 82 81
f 67 82 58
f 59 81 83
f 84 60 59
f 83 84 59
f 85 61 60
f 84 85 60
f 61 85 74
f 62 80 86
f 86 63 62
f 86 87 63
f 88 66 63
f 88 63 87
f 89 90 64
f 89 64 91
f 64 65 66
f 64 66 91
f 64 90 92
f 64 92 67
f 66 93 94
f 66 94 91
f 88 93 66
f 95 67 96
f 67 95 97
f 67 97 98
f 92 96 67
f 67 98 82
f 99 79 68
f 99 68 70
f 69 100 101
f 70 69 101
f 69 73 102
f 100 69 102
f 101 99 70
f 73 71 72
f 72 103 104
f 105 72 104
f 105 73 72
f 106 103 72
f 74 106 72
f 107 108 73
f 105 107 73
f 73 108 102
f 109 74 95
f 97 95 74
f 110 97 74
f 74 109 106
f 85 110 74
f 76 75 111
f 111 75 78
f 77 76 112
f 112 76 111
f 113 80 77
f 113 77 112
f 114 78 79
f 111 78 114
f 79 99 115
f 114 79 115
f 116 86 80
f 116 80 113
f 117 118 81
f 81 119 117
f 81 98 119
f 98 81 82
f 83 81 111
f 81 120 111
f 118 120 81
f 111 84 83
f 84 121 122
f 122 123 84
f 123 110 84
f 85 84 110
f 111 124 84
f 84 124 121
f 116 87 86
f 120 88 87
f 116 120 87
f 120 118 88
f 88 125 93
f 125 88 126
f 126 88 118
f 127 128 89
f 128 90 89
f 89 91 125
f 129 89 125
f 127 89 129
f 130 131 90
f 128 132 90
f 90 131 92
f 90 133 130
f 90 132 133
f 91 94 125
f 96 92 134
f 135 134 92
f 135 92 131
f 125 136 93
f 136 94 93
f 136 137 94
f 137 138 94
f 94 138 125
f 95 96 139
f 139 109 95
f 139 96 140
f 96 134 140
f 141 142 97
f 97 142 143
f 97 143 144
f 144 98 97
f 97 145 141
f 146 145 97
f 147 146 97
f 97 110 147
f 144 148 98
f 98 148 119
f 99 101 149
f 115 99 149
f 101 100 149
f 100 102 124
f 100 124 149
f 102 121 124
f 108 150 102
f 151 102 150
f 121 102 151
f 103 152 153
f 104 103 154
f 103 155 154
f 106 152 103
f 153 156 103
f 156 155 103
f 104 154 157
f 150 105 104
f 150 104 158
f 158 104 157
f 150 107 105
f 159 106 109
f 106 159 160
f 152 106 160
f 107 161 162
f 108 107 162
f 107 163 161
f 150 163 107
f 108 162 150
f 164 109 139
f 164 159 109
f 110 165 147
f 123 165 110
f 113 112 111
f 116 113 111
f 120 116 111
f 111 114 115
f 111 115 149
f 111 149 124
f 118 117 126
f 127 126 117
f 166 127 117
f 166 117 167
f 117 148 167
f 148 117 119
f 151 122 121
f 122 151 157
f 122 157 168
f 169 122 168
f 169 165 122
f 123 122 165
f 125 138 136
f 125 126 129
f 127 129 126
f 127 170 128
f 170 127 166
f 128 170 171
f 132 128 171
f 135 131 130
f 130 172 173
f 130 173 174
f 130 174 135
f 172 130 175
f 133 175 130
f 132 171 166
f 132 166 167
f 148 133 132
f 148 132 167
f 144 133 148
f 175 133 143
f 143 133 144
f 135 176 134
f 134 176 140
f 135 174 176
f 136 138 137
f 139 140 177
f 139 177 178
f 179 164 139
f 178 179 139
f 140 176 177
f 180 142 141
f 141 181 182
f 141 182 180
f 141 145 183
f 184 181 141
f 183 184 141
f 180 143 142
f 180 175 143
f 145 146 183
f 146 185 183
f 146 156 185
f 147 156 146
f 165 156 147
f 162 163 150
f 158 151 150
f 151 158 157
f 153 152 160
f 186 187 153
f 188 186 153
f 160 188 153
f 185 153 187
f 153 185 156
f 154 189 157
f 190 189 154
f 190 154 155
f 168 190 155
f 169 168 155
f 155 156 165
f 169 155 165
f 168 157 189
f 159 191 160
f 164 191 159
f 191 188 160
f 161 163 162
f 179 191 164
f 170 166 171
f 190 168 189
f 182 172 175
f 192 173 172
f 192 172 182
f 193 194 173
f 193 173 192
f 194 174 173
f 194 176 174
f 182 175 180
f 177 176 194
f 177 194 193
f 177 193 195
f 178 177 195
f 195 179 178
f 196 191 179
f 197 196 179
f 195 197 179
f 181 198 192
f 181 192 182
f 199 198 181
f 184 199 181
f 183 185 184
f 185 187 184
f 184 187 199
f 187 186 199
f 186 196 197
f 199 186 197
f 186 188 196
f 188 191 196
f 198 200 192
f 201 193 192
f 201 192 200
f 202 195 193
f 202 193 201
f 195 202 203
f 203 204 195
f 197 195 204
f 199 197 205
f 205 197 204
f 198 206 200
f 207 206 198
f 208 209 198
f 199 208 198
f 198 209 207
f 208 199 205
f 202 201 200
f 202 200 210
f 206 210 200
f 203 202 210
f 203 210 211
f 212 204 203
f 211 212 203
f 208 205 204
f 212 208 204
f 211 210 206
f 211 206 207
f 207 209 211
f 208 212 209
f 209 212 211
