# Generated by Visualization Toolkit
v -0.03486400097608566 0.2598859965801239 0.000024000000848900527
v -0.03564099967479706 0.2600789964199066 0.007987000048160553
v -0.048872001469135284 0.25811201333999634 0.000003000000106112566
v -0.03479199856519699 0.2640039920806885 0.009580999612808228
v -0.03419400006532669 0.2614459991455078 0.000025999999706982635
v -0.03564099967479706 0.2600789964199066 -0.007987000048160553
v -0.03479199856519699 0.2640039920806885 -0.009580999612808228
v -0.03993299975991249 0.2600710093975067 0.01627199910581112
v -0.046741001307964325 0.2594360113143921 0.020302999764680862
v -0.06129699945449829 0.2557530105113983 0.004801999777555466
v -0.06146499887108803 0.2560040056705475 0.000003000000106112566
v -0.06170099973678589 0.2559430003166199 0.014135999605059624
v -0.05743600055575371 0.257764995098114 0.02041199989616871
v -0.03993299975991249 0.2600710093975067 -0.01627199910581112
v -0.046741001307964325 0.2594360113143921 -0.020302999764680862
v -0.06129699945449829 0.2557530105113983 -0.004801999777555466
v -0.06170099973678589 0.2559430003166199 -0.014135999605059624
v -0.05743600055575371 0.257764995098114 -0.02041199989616871
v -0.03542099893093109 0.2656790018081665 0.000025999999706982635
v -0.03682100027799606 0.26596400141716003 0.010257000103592873
v -0.04018700122833252 0.26416799426078796 0.017287999391555786
v -0.03682100027799606 0.26596400141716003 -0.010257000103592873
v -0.04018700122833252 0.26416799426078796 -0.017287999391555786
v -0.04842599853873253 0.26391899585723877 0.020997999235987663
v -0.06560199707746506 0.2584809958934784 0.004941999912261963
v -0.06555099785327911 0.2583659887313843 0.000003000000106112566
v -0.06560199707746506 0.2584809958934784 -0.004941999912261963
v -0.05936900153756142 0.26260900497436523 0.021146999672055244
v -0.06476300209760666 0.2561579942703247 0.01587500050663948
v -0.06673499941825867 0.25971800088882446 0.009393000043928623
v -0.04842599853873253 0.26391899585723877 -0.020997999235987663
v -0.06476300209760666 0.2561579942703247 -0.01587500050663948
v -0.05936900153756142 0.26260900497436523 -0.021146999672055244
v -0.06673499941825867 0.25971800088882446 -0.009393000043928623
v -0.03632400184869766 0.27473899722099304 0.000029000000722589903
v -0.03763199970126152 0.2736000120639801 0.00989999994635582
v -0.042433999478816986 0.26663199067115784 0.01685599982738495
v -0.03763199970126152 0.2736000120639801 -0.009898999705910683
v -0.042433999478816986 0.26663199067115784 -0.01685599982738495
v -0.0490339994430542 0.26784300804138184 0.019101999700069427
v -0.0662280023097992 0.26524901390075684 0.00633700005710125
v -0.06572599709033966 0.2653209865093231 0.000004999999873689376
v -0.0662280023097992 0.26524901390075684 -0.00633700005710125
v -0.059696998447179794 0.266061007976532 0.020013999193906784
v -0.06487800180912018 0.26410800218582153 0.018924999982118607
v -0.06818900257349014 0.2656019926071167 0.009692000225186348
v -0.0490339994430542 0.26784300804138184 -0.019101999700069427
v -0.06487800180912018 0.26410800218582153 -0.018924999982118607
v -0.059696998447179794 0.266061007976532 -0.020013999193906784
v -0.06818900257349014 0.2656019926071167 -0.009692000225186348
v -0.03621499985456467 0.27836599946022034 0.000029999999242136255
v -0.03680099919438362 0.2779490053653717 0.010950000025331974
v -0.04366699978709221 0.27358001470565796 0.017503999173641205
v -0.03680099919438362 0.2779490053653717 -0.010950000025331974
v -0.04366699978709221 0.27358001470565796 -0.017503999173641205
v -0.04869899898767471 0.27327999472618103 0.019190000370144844
v -0.06857399642467499 0.2744069993495941 0.006548000033944845
v -0.07064200192689896 0.27463498711586 0.010134000331163406
v -0.067842997610569 0.2745650112628937 0.000007000000096013537
v -0.06857399642467499 0.2744069993495941 -0.006548000033944845
v -0.07064200192689896 0.27463498711586 -0.010134000331163406
v -0.0590750016272068 0.27277299761772156 0.02015800029039383
v -0.06404700130224228 0.27327099442481995 0.020549999549984932
v -0.07105600088834763 0.26319900155067444 0.017048999667167664
v -0.06847299635410309 0.2660050094127655 0.02090200036764145
v -0.07068800181150436 0.27257099747657776 0.024994000792503357
v -0.07691799849271774 0.26648199558258057 0.003719999920576811
v -0.04869899898767471 0.27327999472618103 -0.019190000370144844
v -0.06404700130224228 0.27327099442481995 -0.020549999549984932
v -0.0590750016272068 0.27277299761772156 -0.02015800029039383
v -0.06847299635410309 0.2660050094127655 -0.02090200036764145
v -0.07105600088834763 0.26319900155067444 -0.017048999667167664
v -0.07068800181150436 0.27257099747657776 -0.024994000792503357
v -0.07691799849271774 0.26648199558258057 -0.003719999920576811
v -0.036844998598098755 0.2823590040206909 0.00003099999958067201
v -0.037671998143196106 0.28207099437713623 0.011150999926030636
v -0.04208499938249588 0.27715399861335754 0.01852799952030182
v -0.037671998143196106 0.28207099437713623 -0.011150999926030636
v -0.04208499938249588 0.27715399861335754 -0.01852799952030182
v -0.048298999667167664 0.2761650085449219 0.02121799997985363
v -0.06989400088787079 0.28090700507164 0.00834800023585558
v -0.07048399746417999 0.27928799390792847 0.010881000198423862
v -0.06810099631547928 0.28021299839019775 0.000009000000318337698
v -0.06989400088787079 0.28090700507164 -0.00834800023585558
v -0.07048399746417999 0.27928799390792847 -0.010881000198423862
v -0.05728200078010559 0.2768310010433197 0.022241000086069107
v -0.06554199755191803 0.27713701128959656 0.01985899917781353
v -0.07211100310087204 0.27773600816726685 0.019905999302864075
v -0.08057700097560883 0.26946601271629333 0.023072000592947006
v -0.07827500253915787 0.2658590078353882 0.017146000638604164
v -0.07467000186443329 0.26065200567245483 0.024678999558091164
v -0.07278899848461151 0.26060599088668823 0.010507999919354916
v -0.07503999769687653 0.26900601387023926 0.023736000061035156
v -0.07597699761390686 0.2624939978122711 0.021578000858426094
v -0.07693400233983994 0.2614839971065521 0.000003999999989900971
v -0.0750259980559349 0.2528440058231354 0.005102999974042177
v -0.08576799929141998 0.2666719853878021 0.000004999999873689376
v -0.07986100018024445 0.2716369926929474 0.007699999958276749
v -0.048298999667167664 0.2761650085449219 -0.02121799997985363
v -0.06554199755191803 0.27713701128959656 -0.01985899917781353
v -0.05728200078010559 0.2768310010433197 -0.022241000086069107
v -0.07211100310087204 0.27773600816726685 -0.019905999302864075
v -0.07827500253915787 0.2658590078353882 -0.017146000638604164
v -0.08057700097560883 0.26946601271629333 -0.023072000592947006
v -0.07467000186443329 0.26065200567245483 -0.024678999558091164
v -0.07278899848461151 0.26060599088668823 -0.010507999919354916
v -0.07597699761390686 0.2624939978122711 -0.021578000858426094
v -0.07503999769687653 0.26900601387023926 -0.023736000061035156
v -0.0750259980559349 0.2528440058231354 -0.005102999974042177
v -0.07986100018024445 0.2716369926929474 -0.007699999958276749
v -0.052473001182079315 0.28128600120544434 0.000009000000318337698
v -0.04278099909424782 0.28148001432418823 0.018783999606966972
v -0.049917999655008316 0.2810859978199005 0.02224300056695938
v -0.04278099909424782 0.28148001432418823 -0.018783999606966972
v -0.049917999655008316 0.2810859978199005 -0.02224300056695938
v -0.05907699838280678 0.2799679934978485 0.02237899973988533
v -0.07972600311040878 0.27996599674224854 0.015962999314069748
v -0.07200700044631958 0.27939799427986145 0.014072000049054623
v -0.0791810005903244 0.2775779962539673 0.010040000081062317
v -0.0679050013422966 0.2806209921836853 0.017078999429941177
v -0.07200700044631958 0.27939799427986145 -0.014072000049054623
v -0.07972600311040878 0.27996599674224854 -0.015962999314069748
v -0.0791810005903244 0.2775779962539673 -0.010040000081062317
v -0.0679050013422966 0.2806209921836853 -0.017078999429941177
v -0.07799500226974487 0.27365100383758545 0.021185999736189842
v -0.07735700160264969 0.27654099464416504 0.018352000042796135
v -0.09288500249385834 0.27783098816871643 0.034703999757766724
v -0.08608400076627731 0.27023500204086304 0.021043000742793083
v -0.08112700283527374 0.27472901344299316 0.02122499980032444
v -0.08460800349712372 0.2579120099544525 0.012613000348210335
v -0.08035200089216232 0.25979098677635193 0.015440000221133232
v -0.09240599721670151 0.26902899146080017 0.025270000100135803
v -0.08403699845075607 0.26805201172828674 0.012649999931454659
v -0.07309000194072723 0.25870800018310547 0.011970999650657177
v -0.08398500084877014 0.2543340027332306 0.017007000744342804
v -0.07897499948740005 0.2688769996166229 0.026252999901771545
v -0.08035700023174286 0.266743004322052 0.023941000923514366
v -0.08221299946308136 0.27293699979782104 0.024279000237584114
v -0.07831600308418274 0.25710800290107727 0.000003000000106112566
v -0.07463099807500839 0.2519649863243103 0.006686999928206205
v -0.09114900231361389 0.2568590044975281 0.000003999999989900971
v -0.08644700050354004 0.2633959949016571 0.004945999942719936
v -0.08240099996328354 0.26288101077079773 0.008282000198960304
v -0.08285599946975708 0.2667289972305298 0.010378999635577202
v -0.08644700050354004 0.2633959949016571 -0.004945999942719936
v -0.08240099996328354 0.26288101077079773 -0.008282000198960304
v -0.08285599946975708 0.2667289972305298 -0.010378999635577202
v -0.08101800084114075 0.2719799876213074 0.01132499985396862
v -0.05907699838280678 0.2799679934978485 -0.02237899973988533
v -0.07799500226974487 0.27365100383758545 -0.021185999736189842
v -0.07735700160264969 0.27654099464416504 -0.018352000042796135
v -0.08035200089216232 0.25979098677635193 -0.015440000221133232
v -0.08460800349712372 0.2579120099544525 -0.012613000348210335
v -0.08608400076627731 0.27023500204086304 -0.021043000742793083
v -0.09240599721670151 0.26902899146080017 -0.025270000100135803
v -0.08403699845075607 0.26805201172828674 -0.012649999931454659
v -0.09288500249385834 0.27783098816871643 -0.034703999757766724
v -0.08112700283527374 0.27472901344299316 -0.02122499980032444
v -0.07309000194072723 0.25870800018310547 -0.011970999650657177
v -0.08398500084877014 0.2543340027332306 -0.017007000744342804
v -0.08035700023174286 0.266743004322052 -0.023941000923514366
v -0.07897499948740005 0.2688769996166229 -0.026252999901771545
v -0.08221299946308136 0.27293699979782104 -0.024279000237584114
v -0.07463099807500839 0.2519649863243103 -0.006686999928206205
v -0.08101800084114075 0.2719799876213074 -0.01132499985396862
v -0.0981770008802414 0.27442699670791626 0.029089000076055527
v -0.08519899845123291 0.2731580138206482 0.013891000300645828
v -0.0981770008802414 0.27442699670791626 -0.029089000076055527
v -0.08519899845123291 0.2731580138206482 -0.013891000300645828
v -0.09617099910974503 0.27331799268722534 0.03845300152897835
v -0.09772399812936783 0.27109500765800476 0.02988000027835369
v -0.08672799915075302 0.25515198707580566 0.01023900043219328
v -0.08641599863767624 0.2511430084705353 0.009688000194728374
v -0.08319299668073654 0.2485080063343048 0.01676500029861927
v -0.08469299972057343 0.2597610056400299 0.008829999715089798
v -0.07556299865245819 0.2498449981212616 0.013288999907672405
v -0.07740499824285507 0.2544719874858856 0.005317999981343746
v -0.08037599921226501 0.25221601128578186 9.999999974752427e-7
v -0.07740499824285507 0.2544719874858856 -0.005317999981343746
v -0.08985000103712082 0.25923699140548706 0.004176999907940626
v -0.09493999928236008 0.2513970136642456 -0.000015999999959603883
v -0.08903499692678452 0.25531500577926636 0.004062999971210957
v -0.08985000103712082 0.25923699140548706 -0.004176999907940626
v -0.08903499692678452 0.25531500577926636 -0.004062999971210957
v -0.08469299972057343 0.2597610056400299 -0.008829999715089798
v -0.08641599863767624 0.2511430084705353 -0.009688000194728374
v -0.08672799915075302 0.25515198707580566 -0.01023900043219328
v -0.08319299668073654 0.2485080063343048 -0.01676500029861927
v -0.09617099910974503 0.27331799268722534 -0.03845300152897835
v -0.09772399812936783 0.27109500765800476 -0.02988000027835369
v -0.07556299865245819 0.2498449981212616 -0.013288999907672405
v -0.08875299990177155 0.2515070140361786 0.004238999914377928
v -0.08754400163888931 0.2497439980506897 0.004970000125467777
v -0.0822409987449646 0.24913300573825836 0.007621000055223703
v -0.08684500306844711 0.24541999399662018 0
v -0.0822409987449646 0.24913300573825836 -0.007621000055223703
v -0.08754400163888931 0.2497439980506897 -0.004970000125467777
v -0.10086599737405777 0.24394899606704712 -0.000019999999494757503
v -0.08875299990177155 0.2515070140361786 -0.004238999914377928
v -0.09295699745416641 0.24456599354743958 0.004612000193446875
v -0.08946999907493591 0.2428939938545227 0.004629000090062618
v -0.09263399988412857 0.23672400414943695 0.003594999900087714
v -0.09437999874353409 0.23597000539302826 -0.000003000000106112566
v -0.09263399988412857 0.23672400414943695 -0.003594999900087714
v -0.08946999907493591 0.2428939938545227 -0.004629000090062618
v -0.10189100354909897 0.2407270073890686 0.0046629998832941055
v -0.10260999947786331 0.23938100039958954 -0.000022000000171829015
v -0.09295699745416641 0.24456599354743958 -0.004612000193446875
v -0.10189100354909897 0.2407270073890686 -0.0046629998832941055
v -0.09971699863672256 0.23780600726604462 0.005429999902844429
v -0.09850700199604034 0.23628099262714386 -0.00002099999983329326
v -0.09971699863672256 0.23780600726604462 -0.005429999902844429
f 1 2 3
f 4 2 1
f 4 1 5
f 3 6 1
f 1 6 7
f 5 1 7
f 2 8 3
f 8 2 4
f 8 9 3
f 10 11 3
f 3 12 10
f 13 12 3
f 3 9 13
f 3 14 6
f 3 15 14
f 3 11 16
f 16 17 3
f 3 17 18
f 18 15 3
f 19 20 4
f 19 4 5
f 21 4 20
f 8 4 21
f 5 7 19
f 7 6 14
f 7 22 19
f 22 7 23
f 23 7 14
f 9 8 21
f 9 21 24
f 13 9 24
f 11 10 25
f 12 25 10
f 11 25 26
f 27 16 11
f 26 27 11
f 28 29 12
f 28 12 13
f 12 29 30
f 12 30 25
f 13 24 28
f 23 14 15
f 31 23 15
f 31 15 18
f 16 27 17
f 17 32 33
f 18 17 33
f 34 32 17
f 27 34 17
f 33 31 18
f 35 20 19
f 19 22 35
f 35 36 20
f 37 20 36
f 21 20 37
f 24 21 37
f 22 38 35
f 38 22 39
f 39 22 23
f 39 23 31
f 24 37 40
f 28 24 40
f 41 26 25
f 41 25 30
f 26 41 42
f 42 43 26
f 27 26 43
f 34 27 43
f 28 40 44
f 44 29 28
f 44 45 29
f 30 29 46
f 29 45 46
f 41 30 46
f 47 39 31
f 47 31 33
f 32 48 49
f 33 32 49
f 50 32 34
f 50 48 32
f 49 47 33
f 50 34 43
f 51 36 35
f 35 38 51
f 51 52 36
f 53 36 52
f 37 36 53
f 40 37 53
f 38 54 51
f 54 38 55
f 55 38 39
f 55 39 47
f 40 53 56
f 44 40 56
f 42 41 57
f 41 58 57
f 41 46 58
f 42 57 59
f 60 43 42
f 59 60 42
f 60 61 43
f 61 50 43
f 44 56 62
f 62 45 44
f 62 63 45
f 64 45 65
f 66 65 45
f 66 45 63
f 45 64 46
f 58 46 67
f 67 46 64
f 68 55 47
f 68 47 49
f 48 69 70
f 49 48 70
f 71 48 72
f 48 71 73
f 69 48 73
f 50 72 48
f 70 68 49
f 74 50 61
f 72 50 74
f 75 52 51
f 51 54 75
f 75 76 52
f 77 52 76
f 53 52 77
f 56 53 77
f 54 78 75
f 78 54 79
f 79 54 55
f 79 55 68
f 56 77 80
f 62 56 80
f 59 57 81
f 57 58 82
f 57 82 81
f 67 82 58
f 59 81 83
f 84 60 59
f 83 84 59
f 85 61 60
f 84 85 60
f 61 85 74
f 62 80 86
f 86 63 62
f 86 87 63
f 88 66 63
f 88 63 87
f 89 90 64
f 89 64 91
f 64 65 66
f 64 66 91
f 64 90 92
f 64 92 67
f 66 93 94
f 66 94 91
f 88 93 66
f 95 67 96
f 67 95 97
f 67 97 98
f 92 96 67
f 67 98 82
f 99 79 68
f 99 68 70
f 69 100 101
f 70 69 101
f 69 73 102
f 100 69 102
f 101 99 70
f 73 71 72
f 72 103 104
f 105 72 104
f 105 73 72
f 106 103 72
f 74 106 72
f 107 108 73
f 105 107 73
f 73 108 102
f 109 74 95
f 97 95 74
f 110 97 74
f 74 109 106
f 85 110 74
f 76 75 111
f 111 75 78
f 77 76 112
f 112 76 111
f 113 80 77
f 113 77 112
f 114 78 79
f 111 78 114
f 79 99 115
f 114 79 115
f 116 86 80
f 116 80 113
f 117 118 81
f 81 119 117
f 81 98 119
f 98 81 82
f 83 81 111
f 81 120 111
f 118 120 81
f 111 84 83
f 84 121 122
f 122 123 84
f 123 110 84
f 85 84 110
f 111 124 84
f 84 124 121
f 116 87 86
f 120 88 87
f 116 120 87
f 120 118 88
f 88 125 93
f 125 88 126
f 126 88 118
f 127 128 89
f 128 90 89
f 89 91 125
f 129 89 125
f 127 89 129
f 130 131 90
f 128 132 90
f 90 131 92
f 90 133 130
f 90 132 133
f 91 94 125
f 96 92 134
f 135 134 92
f 135 92 131
f 125 136 93
f 136 94 93
f 136 137 94
f 137 138 94
f 94 138 125
f 95 96 139
f 139 109 95
f 139 96 140
f 96 134 140
f 141 142 97
f 97 142 143
f 97 143 144
f 144 98 97
f 97 145 141
f 146 145 97
f 147 146 97
f 97 110 147
f 144 148 98
f 98 148 119
f 99 101 149
f 115 99 149
f 101 100 149
f 100 102 124
f 100 124 149
f 102 121 124
f 108 150 102
f 151 102 150
f 121 102 151
f 103 152 153
f 104 103 154
f 103 155 154
f 106 152 103
f 153 156 103
f 156 155 103
f 104 154 157
f 150 105 104
f 150 104 158
f 158 104 157
f 150 107 105
f 159 106 109
f 106 159 160
f 152 106 160
f 107 161 162
f 108 107 162
f 107 163 161
f 150 163 107
f 108 162 150
f 164 109 139
f 164 159 109
f 110 165 147
f 123 165 110
f 113 112 111
f 116 113 111
f 120 116 111
f 111 114 115
f 111 115 149
f 111 149 124
f 118 117 126
f 127 126 117
f 166 127 117
f 166 117 167
f 117 148 167
f 148 117 119
f 151 122 121
f 122 151 157
f 122 157 168
f 169 122 168
f 169 165 122
f 123 122 165
f 125 138 136
f 125 126 129
f 127 129 126
f 127 170 128
f 170 127 166
f 128 170 171
f 132 128 171
f 135 131 130
f 130 172 173
f 130 173 174
f 130 174 135
f 172 130 175
f 133 175 130
f 132 171 166
f 132 166 167
f 148 133 132
f 148 132 167
f 144 133 148
f 175 133 143
f 143 133 144
f 135 176 134
f 134 176 140
f 135 174 176
f 136 138 137
f 139 140 177
f 139 177 178
f 179 164 139
f 178 179 139
f 140 176 177
f 180 142 141
f 141 181 182
f 141 182 180
f 141 145 183
f 184 181 141
f 183 184 141
f 180 143 142
f 180 175 143
f 145 146 183
f 146 185 183
f 146 156 185
f 147 156 146
f 165 156 147
f 162 163 150
f 158 151 150
f 151 158 157
f 153 152 160
f 186 187 153
f 188 186 153
f 160 188 153
f 185 153 187
f 153 185 156
f 154 189 157
f 190 189 154
f 190 154 155
f 168 190 155
f 169 168 155
f 155 156 165
f 169 155 165
f 168 157 189
f 159 191 160
f 164 191 159
f 191 188 160
f 161 163 162
f 179 191 164
f 170 166 171
f 190 168 189
f 182 172 175
f 192 173 172
f 192 172 182
f 193 194 173
f 193 173 192
f 194 174 173
f 194 176 174
f 182 175 180
f 177 176 194
f 177 194 193
f 177 193 195
f 178 177 195
f 195 179 178
f 196 191 179
f 197 196 179
f 195 197 179
f 181 198 192
f 181 192 182
f 199 198 181
f 184 199 181
f 183 185 184
f 185 187 184
f 184 187 199
f 187 186 199
f 186 196 197
f 199 186 197
f 186 188 196
f 188 191 196
f 198 200 192
f 201 193 192
f 201 192 200
f 202 195 193
f 202 193 201
f 195 202 203
f 203 204 195
f 197 195 204
f 199 197 205
f 205 197 204
f 198 206 200
f 207 206 198
f 208 209 198
f 199 208 198
f 198 209 207
f 208 199 205
f 202 201 200
f 202 200 210
f 206 210 200
f 203 202 210
f 203 210 211
f 212 204 203
f 211 212 203
f 208 205 204
f 212 208 204
f 211 210 206
f 211 206 207
f 207 209 211
f 208 212 209
f 209 212 211
