# Generated by Visualization Toolkit
v -0.0532739982008934 0.2945820093154907 0.0006580000044777989
v -0.05382800102233887 0.29500699043273926 0.007915999740362167
v -0.06481000036001205 0.2977699935436249 0.0006380000268109143
v -0.051989998668432236 0.2980619966983795 0.009368999861180782
v -0.05228300020098686 0.2956849932670593 0.0006590000120922923
v -0.05382800102233887 0.29500699043273926 -0.006645000074058771
v -0.051989998668432236 0.2980619966983795 -0.008097999729216099
v -0.05720200017094612 0.296438992023468 0.015468999743461609
v -0.0627409964799881 0.29818201065063477 0.0191430002450943
v -0.07527600228786469 0.29993000626564026 0.0050130002200603485
v -0.07533399760723114 0.3001999855041504 0.0006380000268109143
v -0.07553700357675552 0.30022698640823364 0.013520999811589718
v -0.07164199650287628 0.3003470003604889 0.019241999834775925
v -0.05720200017094612 0.296438992023468 -0.014197999611496925
v -0.0627409964799881 0.29818201065063477 -0.01787099987268448
v -0.07527600228786469 0.29993000626564026 -0.003742000088095665
v -0.07553700357675552 0.30022698640823364 -0.012249999679625034
v -0.07164199650287628 0.3003470003604889 -0.01797099970281124
v -0.05198400095105171 0.29969701170921326 0.0006600000197067857
v -0.05299999937415123 0.3004100024700165 0.009984999895095825
v -0.05618000030517578 0.30000999569892883 0.016394000500440598
v -0.05299999937415123 0.3004100024700165 -0.008713999763131142
v -0.05618000030517578 0.30000999569892883 -0.015123000368475914
v -0.06272800266742706 0.3025610148906708 0.0197759997099638
v -0.077844999730587 0.3036949932575226 0.005140999797731638
v -0.07783900201320648 0.30357998609542847 0.0006380000268109143
v -0.077844999730587 0.3036949932575226 -0.003869999898597598
v -0.07171600311994553 0.30511701107025146 0.019912000745534897
v -0.07787899672985077 0.30143699049949646 0.01510700024664402
v -0.0783659964799881 0.30512699484825134 0.009197999723255634
v -0.06272800266742706 0.3025610148906708 -0.018504999577999115
v -0.07787899672985077 0.30143699049949646 -0.013836000114679337
v -0.07171600311994553 0.30511701107025146 -0.018641000613570213
v -0.0783659964799881 0.30512699484825134 -0.00792699959129095
v -0.049991998821496964 0.3077090084552765 0.0006619999767281115
v -0.05135900154709816 0.3071790039539337 0.009658999741077423
v -0.05720999836921692 0.30285999178886414 0.01600099913775921
v -0.05135900154709816 0.3071790039539337 -0.00838799960911274
v -0.05720999836921692 0.30285999178886414 -0.0147299999371171
v -0.06203500181436539 0.30610400438308716 0.0180479995906353
v -0.07631900161504745 0.30966299772262573 0.0064119999296963215
v -0.07590200006961823 0.3095569908618927 0.0006399999838322401
v -0.07631900161504745 0.30966299772262573 -0.005140999797731638
v -0.07094500213861465 0.30816400051116943 0.0188790000975132
v -0.07559800148010254 0.30823901295661926 0.017885999754071236
v -0.07775399833917618 0.3106209933757782 0.009471000172197819
v -0.06203500181436539 0.30610400438308716 -0.016776999458670616
v -0.07559800148010254 0.30823901295661926 -0.016614999622106552
v -0.07094500213861465 0.30816400051116943 -0.017607999965548515
v -0.07775399833917618 0.3106209933757782 -0.008200000040233135
v -0.04882499948143959 0.3107590079307556 0.0006629999843426049
v -0.04941000044345856 0.31060099601745605 0.010617000050842762
v -0.05610699951648712 0.30918601155281067 0.01659099943935871
v -0.04941000044345856 0.31060099601745605 -0.009345999918878078
v -0.05610699951648712 0.30918601155281067 -0.015320000238716602
v -0.06015000119805336 0.31061801314353943 0.01812800019979477
v -0.07304199784994125 0.31643199920654297 0.006604999769479036
v -0.0745989978313446 0.31731799244880676 0.009872999973595142
v -0.07242000102996826 0.3163209855556488 0.0006419999990612268
v -0.07304199784994125 0.31643199920654297 -0.00533400010317564
v -0.0745989978313446 0.31731799244880676 -0.008601999841630459
v -0.06845500320196152 0.3136659860610962 0.01901100017130375
v -0.07221300154924393 0.31575700640678406 0.019368000328540802
v -0.08072400093078613 0.30953800678253174 0.016176000237464905
v -0.07785700261592865 0.31105899810791016 0.01968899928033352
v -0.07524999976158142 0.31557801365852356 0.0234179999679327
v -0.08434999734163284 0.31429699063301086 0.0040259999223053455
v -0.06015000119805336 0.31061801314353943 -0.016857000067830086
v -0.07221300154924393 0.31575700640678406 -0.01809700019657612
v -0.06845500320196152 0.3136659860610962 -0.017740000039339066
v -0.07785700261592865 0.31105899810791016 -0.018417999148368835
v -0.08072400093078613 0.30953800678253174 -0.014905000105500221
v -0.07524999976158142 0.31557801365852356 -0.022146999835968018
v -0.08434999734163284 0.31429699063301086 -0.002756000030785799
v -0.04812899976968765 0.31436699628829956 0.0006639999919570982
v -0.04886399954557419 0.31439998745918274 0.01080000028014183
v -0.05379800125956535 0.31169599294662476 0.017525000497698784
v -0.04886399954557419 0.31439998745918274 -0.009529000148177147
v -0.05379800125956535 0.31169599294662476 -0.0162540003657341
v -0.05897599831223488 0.31293898820877075 0.01997699961066246
v -0.07214099913835526 0.32240399718284607 0.008244999684393406
v -0.07308600097894669 0.32122498750686646 0.010553999803960323
v -0.07093899697065353 0.3212130069732666 0.0006440000142902136
v -0.07214099913835526 0.32240399718284607 -0.00697400001809001
v -0.07308600097894669 0.32122498750686646 -0.00928299967199564
v -0.06583499908447266 0.3165169954299927 0.02090900018811226
v -0.06984599679708481 0.31773701310157776 0.018737999722361565
v -0.07482799887657166 0.3204500079154968 0.018780000507831573
v -0.08633600175380707 0.31806400418281555 0.02166599966585636
v -0.08560200035572052 0.3142220079898834 0.01626499928534031
v -0.08432299643754959 0.30858299136161804 0.023130999878048897
v -0.08285800367593765 0.30791300535202026 0.010214000009000301
v -0.08212199807167053 0.3158150017261505 0.022272000089287758
v -0.08479999750852585 0.3105889856815338 0.020305000245571136
v -0.08585300296545029 0.31005001068115234 0.0006389999762177467
v -0.09081099927425385 0.3011760115623474 0.005286999978125095
v -0.09124699980020523 0.31742700934410095 0.0006399999838322401
v -0.08512499928474426 0.31967100501060486 0.007654999848455191
v -0.05897599831223488 0.31293898820877075 -0.018705999478697777
v -0.06984599679708481 0.31773701310157776 -0.01746699959039688
v -0.06583499908447266 0.3165169954299927 -0.019638000056147575
v -0.07482799887657166 0.3204500079154968 -0.017510000616312027
v -0.08560200035572052 0.3142220079898834 -0.0149940000846982
v -0.08633600175380707 0.31806400418281555 -0.020394999533891678
v -0.08432299643754959 0.30858299136161804 -0.021859999746084213
v -0.08285800367593765 0.30791300535202026 -0.008942999877035618
v -0.08479999750852585 0.3105889856815338 -0.019034000113606453
v -0.08212199807167053 0.3158150017261505 -0.020999999716877937
v -0.09081099927425385 0.3011760115623474 -0.004015999846160412
v -0.08512499928474426 0.31967100501060486 -0.006384000182151794
v -0.06072799861431122 0.3186950087547302 0.0006440000142902136
v -0.05305499956011772 0.31561100482940674 0.017758000642061234
v -0.0587799996137619 0.31766900420188904 0.020911000669002533
v -0.05305499956011772 0.31561100482940674 -0.01648700051009655
v -0.0587799996137619 0.31766900420188904 -0.01964000053703785
v -0.06631000339984894 0.31978800892829895 0.021035000681877136
v -0.08253499865531921 0.3267109990119934 0.015186999924480915
v -0.07425100356340408 0.3218289911746979 0.01346299983561039
v -0.08281899988651276 0.3244970142841339 0.009788000024855137
v -0.07066299766302109 0.3214940130710602 0.016203999519348145
v -0.07425100356340408 0.3218289911746979 -0.012191999703645706
v -0.08253499865531921 0.3267109990119934 -0.013915999792516232
v -0.08281899988651276 0.3244970142841339 -0.008516999892890453
v -0.07066299766302109 0.3214940130710602 -0.014933000318706036
v -0.08305799961090088 0.32075798511505127 0.019948000088334084
v -0.08169499784708023 0.32300299406051636 0.017364000901579857
v -0.09351100027561188 0.32930800318717957 0.03446599841117859
v -0.09043300151824951 0.32056498527526855 0.01981700025498867
v -0.08519800007343292 0.32272499799728394 0.019982999190688133
v -0.09682899713516235 0.3087019920349121 0.012133000418543816
v -0.09292399883270264 0.3088729977607727 0.014709999784827232
v -0.09576000273227692 0.3216579854488373 0.023669999092817307
v -0.08947599679231644 0.3180199861526489 0.012165999971330166
v -0.08366099745035172 0.30639898777008057 0.011547000147402287
v -0.09740599989891052 0.3054490089416504 0.016138000413775444
v -0.08525200188159943 0.31702500581741333 0.02456600032746792
v -0.08697400242090225 0.31567299365997314 0.0224590003490448
v -0.08658599853515625 0.32156500220298767 0.022766999900341034
v -0.09212400019168854 0.3059070110321045 0.0006380000268109143
v -0.09076300263404846 0.30029600858688354 0.006730999797582626
v -0.10228200256824493 0.3099989891052246 0.0006389999762177467
v -0.09275799989700317 0.3148669898509979 0.005144000053405762
v -0.08973199874162674 0.31307199597358704 0.008185000158846378
v -0.08894199877977371 0.3164989948272705 0.010096999816596508
v -0.09275799989700317 0.3148669898509979 -0.003872999921441078
v -0.08973199874162674 0.31307199597358704 -0.006914000026881695
v -0.08894199877977371 0.3164989948272705 -0.008825999684631824
v -0.08593200147151947 0.3203499913215637 0.010959000326693058
v -0.06631000339984894 0.31978800892829895 -0.019764000549912453
v -0.08305799961090088 0.32075798511505127 -0.0186769999563694
v -0.08169499784708023 0.32300299406051636 -0.016093000769615173
v -0.09292399883270264 0.3088729977607727 -0.013438999652862549
v -0.09682899713516235 0.3087019920349121 -0.010862000286579132
v -0.09043300151824951 0.32056498527526855 -0.018546000123023987
v -0.09576000273227692 0.3216579854488373 -0.022399000823497772
v -0.08947599679231644 0.3180199861526489 -0.010894999839365482
v -0.09351100027561188 0.32930800318717957 -0.033107999712228775
v -0.08519800007343292 0.32272499799728394 -0.0187120009213686
v -0.08366099745035172 0.30639898777008057 -0.010276000015437603
v -0.09740599989891052 0.3054490089416504 -0.01486700028181076
v -0.08697400242090225 0.31567299365997314 -0.021188000217080116
v -0.08525200188159943 0.31702500581741333 -0.023295000195503235
v -0.08658599853515625 0.32156500220298767 -0.02149599976837635
v -0.09076300263404846 0.30029600858688354 -0.00546000013127923
v -0.08593200147151947 0.3203499913215637 -0.009688000194728374
v -0.09868499636650085 0.3281869888305664 0.028999000787734985
v -0.08886600285768509 0.32275500893592834 0.01329800020903349
v -0.09868499636650085 0.3281869888305664 -0.027641000226140022
v -0.08886600285768509 0.32275500893592834 -0.012027000077068806
v -0.0974389985203743 0.3265700042247772 0.03811600059270859
v -0.09932199865579605 0.3251990079879761 0.02976899966597557
v -0.09931699931621552 0.3070639967918396 0.009968000464141369
v -0.10026799887418747 0.30354800820350647 0.009465999901294708
v -0.09852100163698196 0.30022600293159485 0.01591699942946434
v -0.0963440015912056 0.3103030025959015 0.008684000000357628
v -0.09212800115346909 0.29880398511886597 0.012749000452458858
v -0.09219399839639664 0.3033590018749237 0.005483000073581934
v -0.0952019989490509 0.3024359941482544 0.0006370000191964209
v -0.09219399839639664 0.3033590018749237 -0.0042119999416172504
v -0.10055200010538101 0.31158700585365295 0.004443000070750713
v -0.1101979985833168 0.30198100209236145 0.0006210000137798488
v -0.1010809987783432 0.30797699093818665 0.0043390002101659775
v -0.10055200010538101 0.31158700585365295 -0.00317199993878603
v -0.1010809987783432 0.30797699093818665 -0.0030690000858157873
v -0.0963440015912056 0.3103030025959015 -0.007412999868392944
v -0.10026799887418747 0.30354800820350647 -0.008194999769330025
v -0.09931699931621552 0.3070639967918396 -0.008697999641299248
v -0.09852100163698196 0.30022600293159485 -0.014646000228822231
v -0.0974389985203743 0.3265700042247772 -0.036757998168468475
v -0.09932199865579605 0.3251990079879761 -0.028411999344825745
v -0.09212800115346909 0.29880398511886597 -0.011478000320494175
v -0.10199499875307083 0.3046410083770752 0.0044999998062849045
v -0.10157100111246109 0.3027360141277313 0.005166000220924616
v -0.0975859984755516 0.3004379868507385 0.007583000231534243
v -0.10231199860572815 0.2988229990005493 0.0006350000039674342
v -0.09758699685335159 0.3004379868507385 -0.006312000099569559
v -0.10157100111246109 0.3027360141277313 -0.0038950000889599323
v -0.11643099784851074 0.29507899284362793 0.0006590000120922923
v -0.10199499875307083 0.3046410083770752 -0.0032289999071508646
v -0.11147899925708771 0.2929939925670624 0.003604999976232648
v -0.10512799769639969 0.29755398631095886 0.004854999948292971
v -0.11337500065565109 0.28696298599243164 0.0029589999467134476
v -0.11396200209856033 0.2868629992008209 0.0006760000251233578
v -0.11337500065565109 0.28696298599243164 -0.001601999974809587
v -0.10512799769639969 0.29755398631095886 -0.0035840000491589308
v -0.11890000104904175 0.29272401332855225 0.003636999987065792
v -0.11977799981832504 0.2918199896812439 0.0006649999995715916
v -0.11147899925708771 0.2929939925670624 -0.002247000113129616
v -0.11890000104904175 0.29272401332855225 -0.0022799998987466097
v -0.11813800036907196 0.28950899839401245 0.0041240002028644085
v -0.11682099848985672 0.28776299953460693 0.0006590000120922923
v -0.11813800036907196 0.28950899839401245 -0.0027660001069307327
f 1 2 3
f 4 2 1
f 4 1 5
f 3 6 1
f 1 6 7
f 5 1 7
f 2 8 3
f 8 2 4
f 8 9 3
f 10 11 3
f 3 12 10
f 13 12 3
f 3 9 13
f 3 14 6
f 3 15 14
f 3 11 16
f 16 17 3
f 3 17 18
f 18 15 3
f 19 20 4
f 19 4 5
f 21 4 20
f 8 4 21
f 5 7 19
f 7 6 14
f 7 22 19
f 22 7 23
f 23 7 14
f 9 8 21
f 9 21 24
f 13 9 24
f 11 10 25
f 12 25 10
f 11 25 26
f 27 16 11
f 26 27 11
f 28 29 12
f 28 12 13
f 12 29 30
f 12 30 25
f 13 24 28
f 23 14 15
f 31 23 15
f 31 15 18
f 16 27 17
f 17 32 33
f 18 17 33
f 34 32 17
f 27 34 17
f 33 31 18
f 35 20 19
f 19 22 35
f 35 36 20
f 37 20 36
f 21 20 37
f 24 21 37
f 22 38 35
f 38 22 39
f 39 22 23
f 39 23 31
f 24 37 40
f 28 24 40
f 41 26 25
f 41 25 30
f 26 41 42
f 42 43 26
f 27 26 43
f 34 27 43
f 28 40 44
f 44 29 28
f 44 45 29
f 30 29 46
f 29 45 46
f 41 30 46
f 47 39 31
f 47 31 33
f 32 48 49
f 33 32 49
f 50 32 34
f 50 48 32
f 49 47 33
f 50 34 43
f 51 36 35
f 35 38 51
f 51 52 36
f 53 36 52
f 37 36 53
f 40 37 53
f 38 54 51
f 54 38 55
f 55 38 39
f 55 39 47
f 40 53 56
f 44 40 56
f 42 41 57
f 41 58 57
f 41 46 58
f 42 57 59
f 60 43 42
f 59 60 42
f 60 61 43
f 61 50 43
f 44 56 62
f 62 45 44
f 62 63 45
f 64 45 65
f 66 65 45
f 66 45 63
f 45 64 46
f 58 46 67
f 67 46 64
f 68 55 47
f 68 47 49
f 48 69 70
f 49 48 70
f 71 48 72
f 48 71 73
f 69 48 73
f 50 72 48
f 70 68 49
f 74 50 61
f 72 50 74
f 75 52 51
f 51 54 75
f 75 76 52
f 77 52 76
f 53 52 77
f 56 53 77
f 54 78 75
f 78 54 79
f 79 54 55
f 79 55 68
f 56 77 80
f 62 56 80
f 59 57 81
f 57 58 82
f 57 82 81
f 67 82 58
f 59 81 83
f 84 60 59
f 83 84 59
f 85 61 60
f 84 85 60
f 61 85 74
f 62 80 86
f 86 63 62
f 86 87 63
f 88 66 63
f 88 63 87
f 89 90 64
f 89 64 91
f 64 65 66
f 64 66 91
f 64 90 92
f 64 92 67
f 66 93 94
f 66 94 91
f 88 93 66
f 95 67 96
f 67 95 97
f 67 97 98
f 92 96 67
f 67 98 82
f 99 79 68
f 99 68 70
f 69 100 101
f 70 69 101
f 69 73 102
f 100 69 102
f 101 99 70
f 73 71 72
f 72 103 104
f 105 72 104
f 105 73 72
f 106 103 72
f 74 106 72
f 107 108 73
f 105 107 73
f 73 108 102
f 109 74 95
f 97 95 74
f 110 97 74
f 74 109 106
f 85 110 74
f 76 75 111
f 111 75 78
f 77 76 112
f 112 76 111
f 113 80 77
f 113 77 112
f 114 78 79
f 111 78 114
f 79 99 115
f 114 79 115
f 116 86 80
f 116 80 113
f 117 118 81
f 81 119 117
f 81 98 119
f 98 81 82
f 83 81 111
f 81 120 111
f 118 120 81
f 111 84 83
f 84 121 122
f 122 123 84
f 123 110 84
f 85 84 110
f 111 124 84
f 84 124 121
f 116 87 86
f 120 88 87
f 116 120 87
f 120 118 88
f 88 125 93
f 125 88 126
f 126 88 118
f 127 128 89
f 128 90 89
f 89 91 125
f 129 89 125
f 127 89 129
f 130 131 90
f 128 132 90
f 90 131 92
f 90 133 130
f 90 132 133
f 91 94 125
f 96 92 134
f 135 134 92
f 135 92 131
f 125 136 93
f 136 94 93
f 136 137 94
f 137 138 94
f 94 138 125
f 95 96 139
f 139 109 95
f 139 96 140
f 96 134 140
f 141 142 97
f 97 142 143
f 97 143 144
f 144 98 97
f 97 145 141
f 146 145 97
f 147 146 97
f 97 110 147
f 144 148 98
f 98 148 119
f 99 101 149
f 115 99 149
f 101 100 149
f 100 102 124
f 100 124 149
f 102 121 124
f 108 150 102
f 151 102 150
f 121 102 151
f 103 152 153
f 104 103 154
f 103 155 154
f 106 152 103
f 153 156 103
f 156 155 103
f 104 154 157
f 150 105 104
f 150 104 158
f 158 104 157
f 150 107 105
f 159 106 109
f 106 159 160
f 152 106 160
f 107 161 162
f 108 107 162
f 107 163 161
f 150 163 107
f 108 162 150
f 164 109 139
f 164 159 109
f 110 165 147
f 123 165 110
f 113 112 111
f 116 113 111
f 120 116 111
f 111 114 115
f 111 115 149
f 111 149 124
f 118 117 126
f 127 126 117
f 166 127 117
f 166 117 167
f 117 148 167
f 148 117 119
f 151 122 121
f 122 151 157
f 122 157 168
f 169 122 168
f 169 165 122
f 123 122 165
f 125 138 136
f 125 126 129
f 127 129 126
f 127 170 128
f 170 127 166
f 128 170 171
f 132 128 171
f 135 131 130
f 130 172 173
f 130 173 174
f 130 174 135
f 172 130 175
f 133 175 130
f 132 171 166
f 132 166 167
f 148 133 132
f 148 132 167
f 144 133 148
f 175 133 143
f 143 133 144
f 135 176 134
f 134 176 140
f 135 174 176
f 136 138 137
f 139 140 177
f 139 177 178
f 179 164 139
f 178 179 139
f 140 176 177
f 180 142 141
f 141 181 182
f 141 182 180
f 141 145 183
f 184 181 141
f 183 184 141
f 180 143 142
f 180 175 143
f 145 146 183
f 146 185 183
f 146 156 185
f 147 156 146
f 165 156 147
f 162 163 150
f 158 151 150
f 151 158 157
f 153 152 160
f 186 187 153
f 188 186 153
f 160 188 153
f 185 153 187
f 153 185 156
f 154 189 157
f 190 189 154
f 190 154 155
f 168 190 155
f 169 168 155
f 155 156 165
f 169 155 165
f 168 157 189
f 159 191 160
f 164 191 159
f 191 188 160
f 161 163 162
f 179 191 164
f 170 166 171
f 190 168 189
f 182 172 175
f 192 173 172
f 192 172 182
f 193 194 173
f 193 173 192
f 194 174 173
f 194 176 174
f 182 175 180
f 177 176 194
f 177 194 193
f 177 193 195
f 178 177 195
f 195 179 178
f 196 191 179
f 197 196 179
f 195 197 179
f 181 198 192
f 181 192 182
f 199 198 181
f 184 199 181
f 183 185 184
f 185 187 184
f 184 187 199
f 187 186 199
f 186 196 197
f 199 186 197
f 186 188 196
f 188 191 196
f 198 200 192
f 201 193 192
f 201 192 200
f 202 195 193
f 202 193 201
f 195 202 203
f 203 204 195
f 197 195 204
f 199 197 205
f 205 197 204
f 198 206 200
f 207 206 198
f 208 209 198
f 199 208 198
f 198 209 207
f 208 199 205
f 202 201 200
f 202 200 210
f 206 210 200
f 203 202 210
f 203 210 211
f 212 204 203
f 211 212 203
f 208 205 204
f 212 208 204
f 211 210 206
f 211 206 207
f 207 209 211
f 208 212 209
f 209 212 211
