# Generated by Visualization Toolkit
v -0.0007280000136233866 0.14799299836158752 0.00002499999936844688
v -0.0016280000563710928 0.14791400730609894 0.008244000375270844
v -0.015038000419735909 0.14050699770450592 0.000003000000106112566
v -0.0021470000501722097 0.1527789980173111 0.009890000335872173
v -0.0005799999926239252 0.15005500614643097 0.00002700000004551839
v -0.0016280000563710928 0.14791400730609894 -0.008244000375270844
v -0.0021470000501722097 0.1527789980173111 -0.009890000335872173
v -0.0062060002237558365 0.1462399959564209 0.016798000782728195
v -0.013244000263512135 0.14286400377750397 0.020958000794053078
v -0.02692599967122078 0.13425399363040924 0.00495699979364872
v -0.027195999398827553 0.13447800278663635 0.000003000000106112566
v -0.027425000444054604 0.13431699573993683 0.014592000283300877
v -0.02405400015413761 0.13678200542926788 0.021071000024676323
v -0.0062060002237558365 0.1462399959564209 -0.016798000782728195
v -0.013244000263512135 0.14286400377750397 -0.020958000794053078
v -0.02692599967122078 0.13425399363040924 -0.00495699979364872
v -0.027425000444054604 0.13431699573993683 -0.014592000283300877
v -0.02405400015413761 0.13678200542926788 -0.021071000024676323
v -0.00342700001783669 0.15446999669075012 0.00002700000004551839
v -0.005026000086218119 0.15425600111484528 0.01058799959719181
v -0.007965999655425549 0.15087400376796722 0.0178459994494915
v -0.005026000086218119 0.15425600111484528 -0.01058799959719181
v -0.007965999655425549 0.15087400376796722 -0.0178459994494915
v -0.01667100004851818 0.1473899930715561 0.021676000207662582
v -0.03048500046133995 0.1376280039548874 0.0051020001992583275
v -0.032416000962257385 0.1356229931116104 0.000003000000106112566
v -0.03048500046133995 0.1376280039548874 -0.0051020001992583275
v -0.027876999229192734 0.14162899553775787 0.021828999742865562
v -0.030773000791668892 0.13337700068950653 0.016388000920414925
v -0.03200099989771843 0.13874199986457825 0.009696000255644321
v -0.01667100004851818 0.1473899930715561 -0.021676000207662582
v -0.030773000791668892 0.13337700068950653 -0.016388000920414925
v -0.027876999229192734 0.14162899553775787 -0.021828999742865562
v -0.03200099989771843 0.13874199986457825 -0.009696000255644321
v -0.007282999809831381 0.16443799436092377 0.000029999999242136255
v -0.008212000131607056 0.16272300481796265 0.010219000279903412
v -0.011260000057518482 0.15285000205039978 0.017400000244379044
v -0.008212000131607056 0.16272300481796265 -0.010219000279903412
v -0.011260000057518482 0.15285000205039978 -0.017400000244379044
v -0.01874599978327751 0.15168699622154236 0.019719000905752182
v -0.03532399982213974 0.14518100023269653 0.006541999988257885
v -0.03485000133514404 0.14541299641132355 0.000004999999873689376
v -0.03532399982213974 0.14518100023269653 -0.006541999988257885
v -0.02706800028681755 0.1482190042734146 0.020659999921917915
v -0.033622000366449356 0.14424200356006622 0.01953599974513054
v -0.037376999855041504 0.145019993185997 0.010005000047385693
v -0.01874599978327751 0.15168699622154236 -0.019719000905752182
v -0.033622000366449356 0.14424200356006622 -0.01953599974513054
v -0.02706800028681755 0.1482190042734146 -0.020659999921917915
v -0.037376999855041504 0.145019993185997 -0.010005000047385693
v -0.008336000144481659 0.16871100664138794 0.00003099999958067201
v -0.008782999590039253 0.16805200278759003 0.01130400039255619
v -0.014177000150084496 0.1609330028295517 0.01806900091469288
v -0.008782999590039253 0.16805200278759003 -0.01130400039255619
v -0.014177000150084496 0.1609330028295517 -0.01806900091469288
v -0.019060000777244568 0.1591089963912964 0.019809000194072723
v -0.039041999727487564 0.15408499538898468 0.00675999978557229
v -0.04115999862551689 0.15374499559402466 0.010460999794304371
v -0.03836800158023834 0.15448400378227234 0.000007999999979801942
v -0.039041999727487564 0.15408499538898468 -0.00675999978557229
v -0.04115999862551689 0.15374499559402466 -0.010460999794304371
v -0.029121000319719315 0.15495499968528748 0.020809000357985497
v -0.03419899940490723 0.15408100187778473 0.02121400088071823
v -0.03944399952888489 0.1413709968328476 0.01759899966418743
v -0.037787001579999924 0.1454080045223236 0.021577000617980957
v -0.04054500162601471 0.1513189971446991 0.025800000876188278
v -0.04589900001883507 0.14736099541187286 0.0038399999029934406
v -0.019060000777244568 0.1591089963912964 -0.019809000194072723
v -0.03419899940490723 0.15408100187778473 -0.02121400088071823
v -0.029121000319719315 0.15495499968528748 -0.020809000357985497
v -0.037787001579999924 0.1454080045223236 -0.021577000617980957
v -0.03944399952888489 0.1413709968328476 -0.01759899966418743
v -0.04054500162601471 0.1513189971446991 -0.025800000876188278
v -0.04589900001883507 0.14736099541187286 -0.0038399999029934406
v -0.010236999951303005 0.1731950044631958 0.00003199999991920777
v -0.010963000357151031 0.17261700332164764 0.011510999873280525
v -0.013755000196397305 0.16557499766349792 0.01912599988281727
v -0.010963000357151031 0.17261700332164764 -0.011510999873280525
v -0.013755000196397305 0.16557499766349792 -0.01912599988281727
v -0.019587000831961632 0.16259899735450745 0.02190300077199936
v -0.042426999658346176 0.161298006772995 0.008617999963462353
v -0.04249199852347374 0.1592330038547516 0.011233000084757805
v -0.04043100029230118 0.16101199388504028 0.000009000000318337698
v -0.042426999658346176 0.161298006772995 -0.008617999963462353
v -0.04249199852347374 0.1592330038547516 -0.011233000084757805
v -0.028643999248743057 0.1602250039577484 0.022958999499678612
v -0.03691500052809715 0.15816399455070496 0.020500000566244125
v -0.04360499978065491 0.1569419950246811 0.020547999069094658
v -0.05043400079011917 0.14991000294685364 0.023816000670194626
v -0.047067999839782715 0.14627300202846527 0.01769999973475933
v -0.04398199915885925 0.1409199982881546 0.025474999099969864
v -0.03973599895834923 0.1378829926252365 0.010847999714314938
v -0.044773999601602554 0.1508210003376007 0.024501999840140343
v -0.04583200067281723 0.14274300634860992 0.022274000570178032
v -0.04648600146174431 0.14130400121212006 0.000003999999989900971
v -0.039707001298666 0.1242780014872551 0.005268000066280365
v -0.055284999310970306 0.14699000120162964 0.000004999999873689376
v -0.0503619983792305 0.15265099704265594 0.007949000224471092
v -0.019587000831961632 0.16259899735450745 -0.02190300077199936
v -0.03691500052809715 0.15816399455070496 -0.020500000566244125
v -0.028643999248743057 0.1602250039577484 -0.022958999499678612
v -0.04360499978065491 0.1569419950246811 -0.020547999069094658
v -0.047067999839782715 0.14627300202846527 -0.01769999973475933
v -0.05043400079011917 0.14991000294685364 -0.023816000670194626
v -0.04398199915885925 0.1409199982881546 -0.025474999099969864
v -0.03973599895834923 0.1378829926252365 -0.010847999714314938
v -0.04583200067281723 0.14274300634860992 -0.022274000570178032
v -0.044773999601602554 0.1508210003376007 -0.024501999840140343
v -0.039707001298666 0.1242780014872551 -0.005268000066280365
v -0.0503619983792305 0.15265099704265594 -0.007949000224471092
v -0.02535500004887581 0.16736499965190887 0.000009999999747378752
v -0.015829000622034073 0.1704300045967102 0.01939000003039837
v -0.022763999179005623 0.16787999868392944 0.022960999980568886
v -0.015829000622034073 0.1704300045967102 -0.01939000003039837
v -0.022763999179005623 0.16787999868392944 -0.022960999980568886
v -0.03142400085926056 0.16336700320243835 0.023101000115275383
v -0.052696000784635544 0.1624779999256134 0.016478000208735466
v -0.04403499886393547 0.15891499817371368 0.014526000246405602
v -0.05144499987363815 0.1598140001296997 0.010363999754190445
v -0.04036799818277359 0.1615460067987442 0.01763099990785122
v -0.04403499886393547 0.15891499817371368 -0.014526000246405602
v -0.052696000784635544 0.1624779999256134 -0.016478000208735466
v -0.05144499987363815 0.1598140001296997 -0.010363999754190445
v -0.04036799818277359 0.1615460067987442 -0.01763099990785122
v -0.049097999930381775 0.15550799667835236 0.021870000287890434
v -0.04931800067424774 0.15907299518585205 0.01894400082528591
v -0.0585779994726181 0.15996100008487701 0.01984499953687191
v -0.05618999898433685 0.15093599259853363 0.014623000286519527
v -0.05254200100898743 0.1559540033340454 0.02191000059247017
v -0.053690001368522644 0.13504000008106232 0.013020000420510769
v -0.04963500052690506 0.1383969932794571 0.015938999131321907
v -0.06213799864053726 0.14786000549793243 0.01756099984049797
v -0.053968001157045364 0.14906500279903412 0.01305800024420023
v -0.04136599972844124 0.1390880048274994 0.012357000261545181
v -0.05188300088047981 0.13100799918174744 0.017556000500917435
v -0.0486610010266304 0.14963799715042114 0.02710000053048134
v -0.049407001584768295 0.1467670053243637 0.024714000523090363
v -0.05309399962425232 0.15356199443340302 0.02506200037896633
v -0.04477600008249283 0.13002899289131165 0.000003000000106112566
v -0.039000000804662704 0.12335299700498581 0.006903000175952911
v -0.060499001294374466 0.1320360004901886 0.000003999999989900971
v -0.05654300004243851 0.14105799794197083 0.005106000229716301
v -0.05235400050878525 0.14151300489902496 0.008549000136554241
v -0.05239799991250038 0.14781999588012695 0.010714000090956688
v -0.05654300004243851 0.14105799794197083 -0.005106000229716301
v -0.05235400050878525 0.14151300489902496 -0.008549000136554241
v -0.05239799991250038 0.14781999588012695 -0.010714000090956688
v -0.051617998629808426 0.15275000035762787 0.011691000312566757
v -0.03142400085926056 0.16336700320243835 -0.023101000115275383
v -0.049097999930381775 0.15550799667835236 -0.021870000287890434
v -0.04931800067424774 0.15907299518585205 -0.01894400082528591
v -0.04963500052690506 0.1383969932794571 -0.015938999131321907
v -0.053690001368522644 0.13504000008106232 -0.013020000420510769
v -0.05618999898433685 0.15093599259853363 -0.014623000286519527
v -0.06213799864053726 0.14786000549793243 -0.01756099984049797
v -0.053968001157045364 0.14906500279903412 -0.01305800024420023
v -0.0585779994726181 0.15996100008487701 -0.019843999296426773
v -0.05254200100898743 0.1559540033340454 -0.02191000059247017
v -0.04136599972844124 0.1390880048274994 -0.012357000261545181
v -0.05188300088047981 0.13100799918174744 -0.017556000500917435
v -0.049407001584768295 0.1467670053243637 -0.024714000523090363
v -0.0486610010266304 0.14963799715042114 -0.02710000053048134
v -0.05309399962425232 0.15356199443340302 -0.02506200037896633
v -0.039000000804662704 0.12335299700498581 -0.006903000175952911
v -0.051617998629808426 0.15275000035762787 -0.011691000312566757
v -0.0628490000963211 0.15457099676132202 0.01663300022482872
v -0.056641001254320145 0.15476499497890472 0.01433899998664856
v -0.0628490000963211 0.15457099676132202 -0.01663300022482872
v -0.056641001254320145 0.15476499497890472 -0.01433899998664856
v -0.06051800027489662 0.15379400551319122 0.021988000720739365
v -0.06140799820423126 0.15077300369739532 0.017085999250411987
v -0.05513500049710274 0.13122600317001343 0.01056899968534708
v -0.054691001772880554 0.125450998544693 0.010001000016927719
v -0.04822700098156929 0.12341099977493286 0.017305999994277954
v -0.05436500161886215 0.13718800246715546 0.009115000255405903
v -0.0393499992787838 0.1206120029091835 0.013717999681830406
v -0.042817000299692154 0.12554700672626495 0.005489000119268894
v -0.047276001423597336 0.1294959932565689 9.999999974752427e-7
v -0.042817000299692154 0.12554700672626495 -0.005489000119268894
v -0.05982999876141548 0.13517999649047852 0.004311999771744013
v -0.0640769973397255 0.12344499677419662 -0.000015999999959603883
v -0.057705000042915344 0.13079500198364258 0.004195000045001507
v -0.05982999876141548 0.13517999649047852 -0.004311999771744013
v -0.057705000042915344 0.13079500198364258 -0.004195000045001507
v -0.05436500161886215 0.13718800246715546 -0.009115000255405903
v -0.054691001772880554 0.125450998544693 -0.010001000016927719
v -0.05513500049710274 0.13122600317001343 -0.01056899968534708
v -0.04822700098156929 0.12341099977493286 -0.017305999994277954
v -0.06051800027489662 0.15379400551319122 -0.021988000720739365
v -0.06140799820423126 0.15077300369739532 -0.017085999250411987
v -0.0393499992787838 0.1206120029091835 -0.013717999681830406
v -0.05735599994659424 0.12524600327014923 0.004375999793410301
v -0.05548200011253357 0.12350399792194366 0.0051299999468028545
v -0.04738499969244003 0.1244020015001297 0.007867000065743923
v -0.051242001354694366 0.11879699677228928 0
v -0.04738499969244003 0.1244020015001297 -0.007867000065743923
v -0.05548200011253357 0.12350399792194366 -0.0051299999468028545
v -0.06941299885511398 0.11714000254869461 -0.00002099999983329326
v -0.05735599994659424 0.12524600327014923 -0.004375999793410301
v -0.06097299978137016 0.12000299990177155 0.0047610001638531685
v -0.05663900077342987 0.11898200213909149 0.004778999835252762
v -0.0581509992480278 0.1108819991350174 0.003711000084877014
v -0.05982000008225441 0.10952399671077728 -0.000003000000106112566
v -0.0581509992480278 0.1108819991350174 -0.003711000084877014
v -0.05663900077342987 0.11898200213909149 -0.004778999835252762
v -0.06951700150966644 0.11308000236749649 0.004813999868929386
v -0.0698779970407486 0.11130499839782715 -0.00002300000051036477
v -0.06097299978137016 0.12000299990177155 -0.0047610001638531685
v -0.06951700150966644 0.11308000236749649 -0.004813999868929386
v -0.06622400134801865 0.11023800075054169 0.0056059998460114
v -0.06442300230264664 0.10877499729394913 -0.00002099999983329326
v -0.06622400134801865 0.11023800075054169 -0.0056059998460114
f 1 2 3
f 4 2 1
f 4 1 5
f 3 6 1
f 1 6 7
f 5 1 7
f 2 8 3
f 8 2 4
f 8 9 3
f 10 11 3
f 3 12 10
f 13 12 3
f 3 9 13
f 3 14 6
f 3 15 14
f 3 11 16
f 16 17 3
f 3 17 18
f 18 15 3
f 19 20 4
f 19 4 5
f 21 4 20
f 8 4 21
f 5 7 19
f 7 6 14
f 7 22 19
f 22 7 23
f 23 7 14
f 9 8 21
f 9 21 24
f 13 9 24
f 11 10 25
f 12 25 10
f 11 25 26
f 27 16 11
f 26 27 11
f 28 29 12
f 28 12 13
f 12 29 30
f 12 30 25
f 13 24 28
f 23 14 15
f 31 23 15
f 31 15 18
f 16 27 17
f 17 32 33
f 18 17 33
f 34 32 17
f 27 34 17
f 33 31 18
f 35 20 19
f 19 22 35
f 35 36 20
f 37 20 36
f 21 20 37
f 24 21 37
f 22 38 35
f 38 22 39
f 39 22 23
f 39 23 31
f 24 37 40
f 28 24 40
f 41 26 25
f 41 25 30
f 26 41 42
f 42 43 26
f 27 26 43
f 34 27 43
f 28 40 44
f 44 29 28
f 44 45 29
f 30 29 46
f 29 45 46
f 41 30 46
f 47 39 31
f 47 31 33
f 32 48 49
f 33 32 49
f 50 32 34
f 50 48 32
f 49 47 33
f 50 34 43
f 51 36 35
f 35 38 51
f 51 52 36
f 53 36 52
f 37 36 53
f 40 37 53
f 38 54 51
f 54 38 55
f 55 38 39
f 55 39 47
f 40 53 56
f 44 40 56
f 42 41 57
f 41 58 57
f 41 46 58
f 42 57 59
f 60 43 42
f 59 60 42
f 60 61 43
f 61 50 43
f 44 56 62
f 62 45 44
f 62 63 45
f 64 45 65
f 66 65 45
f 66 45 63
f 45 64 46
f 58 46 67
f 67 46 64
f 68 55 47
f 68 47 49
f 48 69 70
f 49 48 70
f 71 48 72
f 48 71 73
f 69 48 73
f 50 72 48
f 70 68 49
f 74 50 61
f 72 50 74
f 75 52 51
f 51 54 75
f 75 76 52
f 77 52 76
f 53 52 77
f 56 53 77
f 54 78 75
f 78 54 79
f 79 54 55
f 79 55 68
f 56 77 80
f 62 56 80
f 59 57 81
f 57 58 82
f 57 82 81
f 67 82 58
f 59 81 83
f 84 60 59
f 83 84 59
f 85 61 60
f 84 85 60
f 61 85 74
f 62 80 86
f 86 63 62
f 86 87 63
f 88 66 63
f 88 63 87
f 89 90 64
f 89 64 91
f 64 65 66
f 64 66 91
f 64 90 92
f 64 92 67
f 66 93 94
f 66 94 91
f 88 93 66
f 95 67 96
f 67 95 97
f 67 97 98
f 92 96 67
f 67 98 82
f 99 79 68
f 99 68 70
f 69 100 101
f 70 69 101
f 69 73 102
f 100 69 102
f 101 99 70
f 73 71 72
f 72 103 104
f 105 72 104
f 105 73 72
f 106 103 72
f 74 106 72
f 107 108 73
f 105 107 73
f 73 108 102
f 109 74 95
f 97 95 74
f 110 97 74
f 74 109 106
f 85 110 74
f 76 75 111
f 111 75 78
f 77 76 112
f 112 76 111
f 113 80 77
f 113 77 112
f 114 78 79
f 111 78 114
f 79 99 115
f 114 79 115
f 116 86 80
f 116 80 113
f 117 118 81
f 81 119 117
f 81 98 119
f 98 81 82
f 83 81 111
f 81 120 111
f 118 120 81
f 111 84 83
f 84 121 122
f 122 123 84
f 123 110 84
f 85 84 110
f 111 124 84
f 84 124 121
f 116 87 86
f 120 88 87
f 116 120 87
f 120 118 88
f 88 125 93
f 125 88 126
f 126 88 118
f 127 128 89
f 128 90 89
f 89 91 125
f 129 89 125
f 127 89 129
f 130 131 90
f 128 132 90
f 90 131 92
f 90 133 130
f 90 132 133
f 91 94 125
f 96 92 134
f 135 134 92
f 135 92 131
f 125 136 93
f 136 94 93
f 136 137 94
f 137 138 94
f 94 138 125
f 95 96 139
f 139 109 95
f 139 96 140
f 96 134 140
f 141 142 97
f 97 142 143
f 97 143 144
f 144 98 97
f 97 145 141
f 146 145 97
f 147 146 97
f 97 110 147
f 144 148 98
f 98 148 119
f 99 101 149
f 115 99 149
f 101 100 149
f 100 102 124
f 100 124 149
f 102 121 124
f 108 150 102
f 151 102 150
f 121 102 151
f 103 152 153
f 104 103 154
f 103 155 154
f 106 152 103
f 153 156 103
f 156 155 103
f 104 154 157
f 150 105 104
f 150 104 158
f 158 104 157
f 150 107 105
f 159 106 109
f 106 159 160
f 152 106 160
f 107 161 162
f 108 107 162
f 107 163 161
f 150 163 107
f 108 162 150
f 164 109 139
f 164 159 109
f 110 165 147
f 123 165 110
f 113 112 111
f 116 113 111
f 120 116 111
f 111 114 115
f 111 115 149
f 111 149 124
f 118 117 126
f 127 126 117
f 166 127 117
f 166 117 167
f 117 148 167
f 148 117 119
f 151 122 121
f 122 151 157
f 122 157 168
f 169 122 168
f 169 165 122
f 123 122 165
f 125 138 136
f 125 126 129
f 127 129 126
f 127 170 128
f 170 127 166
f 128 170 171
f 132 128 171
f 135 131 130
f 130 172 173
f 130 173 174
f 130 174 135
f 172 130 175
f 133 175 130
f 132 171 166
f 132 166 167
f 148 133 132
f 148 132 167
f 144 133 148
f 175 133 143
f 143 133 144
f 135 176 134
f 134 176 140
f 135 174 176
f 136 138 137
f 139 140 177
f 139 177 178
f 179 164 139
f 178 179 139
f 140 176 177
f 180 142 141
f 141 181 182
f 141 182 180
f 141 145 183
f 184 181 141
f 183 184 141
f 180 143 142
f 180 175 143
f 145 146 183
f 146 185 183
f 146 156 185
f 147 156 146
f 165 156 147
f 162 163 150
f 158 151 150
f 151 158 157
f 153 152 160
f 186 187 153
f 188 186 153
f 160 188 153
f 185 153 187
f 153 185 156
f 154 189 157
f 190 189 154
f 190 154 155
f 168 190 155
f 169 168 155
f 155 156 165
f 169 155 165
f 168 157 189
f 159 191 160
f 164 191 159
f 191 188 160
f 161 163 162
f 179 191 164
f 170 166 171
f 190 168 189
f 182 172 175
f 192 173 172
f 192 172 182
f 193 194 173
f 193 173 192
f 194 174 173
f 194 176 174
f 182 175 180
f 177 176 194
f 177 194 193
f 177 193 195
f 178 177 195
f 195 179 178
f 196 191 179
f 197 196 179
f 195 197 179
f 181 198 192
f 181 192 182
f 199 198 181
f 184 199 181
f 183 185 184
f 185 187 184
f 184 187 199
f 187 186 199
f 186 196 197
f 199 186 197
f 186 188 196
f 188 191 196
f 198 200 192
f 201 193 192
f 201 192 200
f 202 195 193
f 202 193 201
f 195 202 203
f 203 204 195
f 197 195 204
f 199 197 205
f 205 197 204
f 198 206 200
f 207 206 198
f 208 209 198
f 199 208 198
f 198 209 207
f 208 199 205
f 202 201 200
f 202 200 210
f 206 210 200
f 203 202 210
f 203 210 211
f 212 204 203
f 211 212 203
f 208 205 204
f 212 208 204
f 211 210 206
f 211 206 207
f 207 209 211
f 208 212 209
f 209 212 211
