# Generated by Visualization Toolkit
v -0.02621600031852722 0.4050480127334595 0.0006200000061653554
v -0.02671400085091591 0.4054790139198303 0.007455000188201666
v -0.03690100088715553 0.40870198607444763 0.0006009999779053032
v -0.024827999994158745 0.4082460105419159 0.008824000135064125
v -0.025226999074220657 0.40602800250053406 0.0006210000137798488
v -0.02671400085091591 0.4054790139198303 -0.006258000154048204
v -0.024827999994158745 0.4082460105419159 -0.007627000100910664
v -0.02981399931013584 0.4070169925689697 0.014569000340998173
v -0.034933000802993774 0.40897101163864136 0.018029000610113144
v -0.046633001416921616 0.411327987909317 0.004720999859273434
v -0.0466729998588562 0.4115839898586273 0.0006009999779053032
v -0.046863000839948654 0.41162198781967163 0.012733999639749527
v -0.0431939996778965 0.41151198744773865 0.018122000619769096
v -0.02981399931013584 0.4070169925689697 -0.013372000306844711
v -0.034933000802993774 0.40897101163864136 -0.016831999644637108
v -0.046633001416921616 0.411327987909317 -0.003524000057950616
v -0.046863000839948654 0.41162198781967163 -0.011536999605596066
v -0.0431939996778965 0.41151198744773865 -0.01692499965429306
v -0.024738000705838203 0.4097830057144165 0.0006210000137798488
v -0.02565700002014637 0.41051000356674194 0.009403999894857407
v -0.028667999431490898 0.41031599044799805 0.015440000221133232
v -0.02565700002014637 0.41051000356674194 -0.008206999860703945
v -0.028667999431490898 0.41031599044799805 -0.01424300018697977
v -0.03469499945640564 0.41308701038360596 0.01862500049173832
v -0.048854999244213104 0.41501298546791077 0.0048420000821352005
v -0.048854999244213104 0.41490501165390015 0.0006009999779053032
v -0.048854999244213104 0.41501298546791077 -0.003645000047981739
v -0.04301699995994568 0.41600000858306885 0.01875299960374832
v -0.0490030013024807 0.41289201378822327 0.014228000305593014
v -0.04927099868655205 0.41638800501823425 0.008662999607622623
v -0.03469499945640564 0.41308701038360596 -0.017427999526262283
v -0.0490030013024807 0.41289201378822327 -0.013031000271439552
v -0.04301699995994568 0.41600000858306885 -0.017556000500917435
v -0.04927099868655205 0.41638800501823425 -0.007466000039130449
v -0.022451000288128853 0.4171999990940094 0.0006230000290088356
v -0.023763999342918396 0.4167799949645996 0.009096999652683735
v -0.029489999637007713 0.4130539894104004 0.015069999732077122
v -0.023763999342918396 0.4167799949645996 -0.007899999618530273
v -0.029489999637007713 0.4130539894104004 -0.01387299969792366
v -0.03386100009083748 0.4163770079612732 0.01699800044298172
v -0.04711100086569786 0.42053601145744324 0.006039000116288662
v -0.04672500118613243 0.42041200399398804 0.0006019999855197966
v -0.04711100086569786 0.42053601145744324 -0.0048420000821352005
v -0.04213400185108185 0.4188210070133209 0.017781000584363937
v -0.04650599882006645 0.4191569983959198 0.016845999285578728
v -0.04841100051999092 0.421519011259079 0.008919999934732914
v -0.03386100009083748 0.4163770079612732 -0.015800999477505684
v -0.04650599882006645 0.4191569983959198 -0.01564900018274784
v -0.04213400185108185 0.4188210070133209 -0.0165839996188879
v -0.04841100051999092 0.421519011259079 -0.0077229999005794525
v -0.021195000037550926 0.42000100016593933 0.000623999978415668
v -0.021754000335931778 0.4198859930038452 0.009998999536037445
v -0.028125999495387077 0.41893699765205383 0.015626000240445137
v -0.021754000335931778 0.4198859930038452 -0.008802000433206558
v -0.028125999495387077 0.41893699765205383 -0.014429000206291676
v -0.03185499832034111 0.42051300406455994 0.017072999849915504
v -0.043678998947143555 0.4267120063304901 0.006219999864697456
v -0.045097000896930695 0.42763400077819824 0.009298999793827534
v -0.04309999942779541 0.4265719950199127 0.0006050000083632767
v -0.043678998947143555 0.4267120063304901 -0.005022999830543995
v -0.045097000896930695 0.42763400077819824 -0.008101999759674072
v -0.039507001638412476 0.42385101318359375 0.01790500059723854
v -0.04293400049209595 0.4260309934616089 0.018240999430418015
v -0.050554998219013214 0.42030999064445496 0.015235000289976597
v -0.048486001789569855 0.4219360053539276 0.018542999401688576
v -0.04580000042915344 0.42603498697280884 0.02205600030720234
v -0.05347000062465668 0.42500200867652893 0.003792000003159046
v -0.03185499832034111 0.42051300406455994 -0.015876000747084618
v -0.04293400049209595 0.4260309934616089 -0.017044000327587128
v -0.039507001638412476 0.42385101318359375 -0.016707999631762505
v -0.048486001789569855 0.4219360053539276 -0.01734600029885769
v -0.050554998219013214 0.42030999064445496 -0.014038000255823135
v -0.04580000042915344 0.42603498697280884 -0.020858999341726303
v -0.05347000062465668 0.42500200867652893 -0.0025949999690055847
v -0.020354000851511955 0.423352986574173 0.0006249999860301614
v -0.021044999361038208 0.42342498898506165 0.010172000154852867
v -0.025824999436736107 0.42116498947143555 0.01650499925017357
v -0.021044999361038208 0.42342498898506165 -0.008975000120699406
v -0.025824999436736107 0.42116498947143555 -0.015308000147342682
v -0.030629999935626984 0.4226279854774475 0.018813999369740486
v -0.04252300038933754 0.4322749972343445 0.007765999995172024
v -0.043473001569509506 0.43121999502182007 0.009940000250935555
v -0.041453998535871506 0.431086003780365 0.0006060000159777701
v -0.04252300038933754 0.4322749972343445 -0.006568999961018562
v -0.043473001569509506 0.43121999502182007 -0.008743000216782093
v -0.036896999925374985 0.42638200521469116 0.019693000242114067
v -0.04060500115156174 0.42775699496269226 0.01764800027012825
v -0.0451509989798069 0.43059098720550537 0.017688000574707985
v -0.055142998695373535 0.4286560118198395 0.020406000316143036
v -0.05465099960565567 0.4250029921531677 0.015318999998271465
v -0.053989000618457794 0.4196169972419739 0.021786000579595566
v -0.05264599993824959 0.41890400648117065 0.009619999676942825
v -0.05129599943757057 0.4263019859790802 0.020975999534130096
v -0.05408500134944916 0.4215419888496399 0.019122999161481857
v -0.05535300076007843 0.421083003282547 0.0006019999855197966
v -0.06047400087118149 0.41302400827407837 0.004980000201612711
v -0.05979499965906143 0.4283359944820404 0.00060299999313429
v -0.05392099916934967 0.4300970137119293 0.007209000177681446
v -0.030629999935626984 0.4226279854774475 -0.0176170002669096
v -0.04060500115156174 0.42775699496269226 -0.016450999304652214
v -0.036896999925374985 0.42638200521469116 -0.01849599927663803
v -0.0451509989798069 0.43059098720550537 -0.01649099960923195
v -0.05465099960565567 0.4250029921531677 -0.014121999964118004
v -0.055142998695373535 0.4286560118198395 -0.019208999350667
v -0.053989000618457794 0.4196169972419739 -0.020587999373674393
v -0.05264599993824959 0.41890400648117065 -0.008422999642789364
v -0.05408500134944916 0.4215419888496399 -0.01792600005865097
v -0.05129599943757057 0.4263019859790802 -0.01977900043129921
v -0.06047400087118149 0.41302400827407837 -0.0037819999270141125
v -0.05392099916934967 0.4300970137119293 -0.006012000143527985
v -0.03198099881410599 0.42813900113105774 0.0006070000235922635
v -0.02492400072515011 0.4248020052909851 0.016724999994039536
v -0.030201999470591545 0.42706298828125 0.019694000482559204
v -0.02492400072515011 0.4248020052909851 -0.015527999959886074
v -0.030201999470591545 0.42706298828125 -0.018496999517083168
v -0.03717400133609772 0.4294840097427368 0.019811000674962997
v -0.05112199857831001 0.4365679919719696 0.014302999712526798
v -0.044537000358104706 0.4318540096282959 0.01267900038510561
v -0.05150299891829491 0.4345029890537262 0.009217999875545502
v -0.041179999709129333 0.4313350021839142 0.015261000022292137
v -0.044537000358104706 0.4318540096282959 -0.011482000350952148
v -0.05112199857831001 0.4365679919719696 -0.013105999678373337
v -0.05150299891829491 0.4345029890537262 -0.00802099984139204
v -0.041179999709129333 0.4313350021839142 -0.014063999988138676
v -0.051920998841524124 0.4310019910335541 0.018787000328302383
v -0.050523001700639725 0.4330340027809143 0.016354000195860863
v -0.06131599843502045 0.4410119950771332 0.03246099874377251
v -0.05886700004339218 0.4312399923801422 0.018664000555872917
v -0.05383199825882912 0.4329729974269867 0.01882000081241131
v -0.0654670000076294 0.4198629856109619 0.011427000164985657
v -0.06206300109624863 0.42037901282310486 0.01385399978607893
v -0.06382600218057632 0.43394899368286133 0.022292999550700188
v -0.05809900164604187 0.4287930130958557 0.011459000408649445
v -0.05347999930381775 0.4175260066986084 0.010874999687075615
v -0.06617800146341324 0.41683799028396606 0.015199000015854836
v -0.05417799949645996 0.42761701345443726 0.02313699945807457
v -0.05586700141429901 0.42644500732421875 0.02115200087428093
v -0.05519700050354004 0.4319609999656677 0.021441999822854996
v -0.06146499887108803 0.41754600405693054 0.0006009999779053032
v -0.06047400087118149 0.41219401359558105 0.0063390000723302364
v -0.07052800059318542 0.4213930070400238 0.0006019999855197966
v -0.061347998678684235 0.4260160028934479 0.004844999872148037
v -0.05859500169754028 0.4241569936275482 0.007708000019192696
v -0.05767500028014183 0.4273329973220825 0.00950899999588728
v -0.061347998678684235 0.4260160028934479 -0.003648000070825219
v -0.05859500169754028 0.4241569936275482 -0.006510999985039234
v -0.05767500028014183 0.4273329973220825 -0.008311999961733818
v -0.05464499816298485 0.4307819902896881 0.010320999659597874
v -0.03717400133609772 0.4294840097427368 -0.01861399970948696
v -0.051920998841524124 0.4310019910335541 -0.017589999362826347
v -0.050523001700639725 0.4330340027809143 -0.015157000161707401
v -0.06206300109624863 0.42037901282310486 -0.012656999751925468
v -0.0654670000076294 0.4198629856109619 -0.010230000130832195
v -0.05886700004339218 0.4312399923801422 -0.01746699959039688
v -0.06382600218057632 0.43394899368286133 -0.0210960004478693
v -0.05809900164604187 0.4287930130958557 -0.010262000374495983
v -0.06131599843502045 0.4410119950771332 -0.031182000413537025
v -0.05383199825882912 0.4329729974269867 -0.017622999846935272
v -0.05347999930381775 0.4175260066986084 -0.009677999652922153
v -0.06617800146341324 0.41683799028396606 -0.014001999981701374
v -0.05586700141429901 0.42644500732421875 -0.019954999908804893
v -0.05417799949645996 0.42761701345443726 -0.021940000355243683
v -0.05519700050354004 0.4319609999656677 -0.02024500072002411
v -0.06047400087118149 0.41219401359558105 -0.005142000038176775
v -0.05464499816298485 0.4307819902896881 -0.009123999625444412
v -0.06623899936676025 0.44025200605392456 0.027310999110341072
v -0.05728000029921532 0.43320998549461365 0.012524000369012356
v -0.06623899936676025 0.44025200605392456 -0.02603299915790558
v -0.05728000029921532 0.43320998549461365 -0.011327000334858894
v -0.06515099853277206 0.43866199254989624 0.03589800000190735
v -0.06699299812316895 0.43748098611831665 0.028037000447511673
v -0.06789200007915497 0.4184649884700775 0.009387999773025513
v -0.06896699965000153 0.41521498560905457 0.00891599990427494
v -0.06749600172042847 0.41199201345443726 0.014991000294685364
v -0.06492800265550613 0.4213410019874573 0.00817899964749813
v -0.061834998428821564 0.4108699858188629 0.012008000165224075
v -0.06166199967265129 0.41515499353408813 0.005164000205695629
v -0.06425999850034714 0.41387999057769775 0.0006000000284984708
v -0.06166199967265129 0.41515499353408813 -0.003967000171542168
v -0.06881900131702423 0.42278701066970825 0.004184000194072723
v -0.07838699966669083 0.41430699825286865 0.0005849999724887311
v -0.06950400024652481 0.41942399740219116 0.0040870001539587975
v -0.06881900131702423 0.42278701066970825 -0.0029869999270886183
v -0.06950400024652481 0.41942399740219116 -0.0028899998869746923
v -0.06492800265550613 0.4213410019874573 -0.006982000079005957
v -0.06896699965000153 0.41521498560905457 -0.007718999870121479
v -0.06789200007915497 0.4184649884700775 -0.008191999979317188
v -0.06749600172042847 0.41199201345443726 -0.013794000260531902
v -0.06515099853277206 0.43866199254989624 -0.034619998186826706
v -0.06699299812316895 0.43748098611831665 -0.02675900049507618
v -0.061834998428821564 0.4108699858188629 -0.010811000131070614
v -0.07053600251674652 0.41634100675582886 0.004238000139594078
v -0.0702349990606308 0.41452598571777344 0.004865000024437904
v -0.06660600006580353 0.41213899850845337 0.007141999900341034
v -0.07113400101661682 0.41088899970054626 0.000598000013269484
v -0.06660600006580353 0.41213899850845337 -0.0059449998661875725
v -0.0702349990606308 0.41452598571777344 -0.003667999990284443
v -0.08460699766874313 0.40817299485206604 0.0006210000137798488
v -0.07053600251674652 0.41634100675582886 -0.0030410001054406166
v -0.08005700260400772 0.4059320092201233 0.0033950000070035458
v -0.07384800165891647 0.40985700488090515 0.004573000129312277
v -0.08215200155973434 0.4003700017929077 0.00278700003400445
v -0.08270899951457977 0.4003109931945801 0.0006360000115819275
v -0.08215200155973434 0.4003700017929077 -0.0015089999651536345
v -0.07384800165891647 0.40985700488090515 -0.0033760000951588154
v -0.08705099672079086 0.40610000491142273 0.0034260000102221966
v -0.08792299777269363 0.4053010046482086 0.0006259999936446548
v -0.08005700260400772 0.4059320092201233 -0.002116000046953559
v -0.08705099672079086 0.40610000491142273 -0.0021470000501722097
v -0.08649999648332596 0.4030350148677826 0.0038840000052005053
v -0.08535200357437134 0.4013189971446991 0.0006200000061653554
v -0.08649999648332596 0.4030350148677826 -0.002606000052765012
f 1 2 3
f 4 2 1
f 4 1 5
f 3 6 1
f 1 6 7
f 5 1 7
f 2 8 3
f 8 2 4
f 8 9 3
f 10 11 3
f 3 12 10
f 13 12 3
f 3 9 13
f 3 14 6
f 3 15 14
f 3 11 16
f 16 17 3
f 3 17 18
f 18 15 3
f 19 20 4
f 19 4 5
f 21 4 20
f 8 4 21
f 5 7 19
f 7 6 14
f 7 22 19
f 22 7 23
f 23 7 14
f 9 8 21
f 9 21 24
f 13 9 24
f 11 10 25
f 12 25 10
f 11 25 26
f 27 16 11
f 26 27 11
f 28 29 12
f 28 12 13
f 12 29 30
f 12 30 25
f 13 24 28
f 23 14 15
f 31 23 15
f 31 15 18
f 16 27 17
f 17 32 33
f 18 17 33
f 34 32 17
f 27 34 17
f 33 31 18
f 35 20 19
f 19 22 35
f 35 36 20
f 37 20 36
f 21 20 37
f 24 21 37
f 22 38 35
f 38 22 39
f 39 22 23
f 39 23 31
f 24 37 40
f 28 24 40
f 41 26 25
f 41 25 30
f 26 41 42
f 42 43 26
f 27 26 43
f 34 27 43
f 28 40 44
f 44 29 28
f 44 45 29
f 30 29 46
f 29 45 46
f 41 30 46
f 47 39 31
f 47 31 33
f 32 48 49
f 33 32 49
f 50 32 34
f 50 48 32
f 49 47 33
f 50 34 43
f 51 36 35
f 35 38 51
f 51 52 36
f 53 36 52
f 37 36 53
f 40 37 53
f 38 54 51
f 54 38 55
f 55 38 39
f 55 39 47
f 40 53 56
f 44 40 56
f 42 41 57
f 41 58 57
f 41 46 58
f 42 57 59
f 60 43 42
f 59 60 42
f 60 61 43
f 61 50 43
f 44 56 62
f 62 45 44
f 62 63 45
f 64 45 65
f 66 65 45
f 66 45 63
f 45 64 46
f 58 46 67
f 67 46 64
f 68 55 47
f 68 47 49
f 48 69 70
f 49 48 70
f 71 48 72
f 48 71 73
f 69 48 73
f 50 72 48
f 70 68 49
f 74 50 61
f 72 50 74
f 75 52 51
f 51 54 75
f 75 76 52
f 77 52 76
f 53 52 77
f 56 53 77
f 54 78 75
f 78 54 79
f 79 54 55
f 79 55 68
f 56 77 80
f 62 56 80
f 59 57 81
f 57 58 82
f 57 82 81
f 67 82 58
f 59 81 83
f 84 60 59
f 83 84 59
f 85 61 60
f 84 85 60
f 61 85 74
f 62 80 86
f 86 63 62
f 86 87 63
f 88 66 63
f 88 63 87
f 89 90 64
f 89 64 91
f 64 65 66
f 64 66 91
f 64 90 92
f 64 92 67
f 66 93 94
f 66 94 91
f 88 93 66
f 95 67 96
f 67 95 97
f 67 97 98
f 92 96 67
f 67 98 82
f 99 79 68
f 99 68 70
f 69 100 101
f 70 69 101
f 69 73 102
f 100 69 102
f 101 99 70
f 73 71 72
f 72 103 104
f 105 72 104
f 105 73 72
f 106 103 72
f 74 106 72
f 107 108 73
f 105 107 73
f 73 108 102
f 109 74 95
f 97 95 74
f 110 97 74
f 74 109 106
f 85 110 74
f 76 75 111
f 111 75 78
f 77 76 112
f 112 76 111
f 113 80 77
f 113 77 112
f 114 78 79
f 111 78 114
f 79 99 115
f 114 79 115
f 116 86 80
f 116 80 113
f 117 118 81
f 81 119 117
f 81 98 119
f 98 81 82
f 83 81 111
f 81 120 111
f 118 120 81
f 111 84 83
f 84 121 122
f 122 123 84
f 123 110 84
f 85 84 110
f 111 124 84
f 84 124 121
f 116 87 86
f 120 88 87
f 116 120 87
f 120 118 88
f 88 125 93
f 125 88 126
f 126 88 118
f 127 128 89
f 128 90 89
f 89 91 125
f 129 89 125
f 127 89 129
f 130 131 90
f 128 132 90
f 90 131 92
f 90 133 130
f 90 132 133
f 91 94 125
f 96 92 134
f 135 134 92
f 135 92 131
f 125 136 93
f 136 94 93
f 136 137 94
f 137 138 94
f 94 138 125
f 95 96 139
f 139 109 95
f 139 96 140
f 96 134 140
f 141 142 97
f 97 142 143
f 97 143 144
f 144 98 97
f 97 145 141
f 146 145 97
f 147 146 97
f 97 110 147
f 144 148 98
f 98 148 119
f 99 101 149
f 115 99 149
f 101 100 149
f 100 102 124
f 100 124 149
f 102 121 124
f 108 150 102
f 151 102 150
f 121 102 151
f 103 152 153
f 104 103 154
f 103 155 154
f 106 152 103
f 153 156 103
f 156 155 103
f 104 154 157
f 150 105 104
f 150 104 158
f 158 104 157
f 150 107 105
f 159 106 109
f 106 159 160
f 152 106 160
f 107 161 162
f 108 107 162
f 107 163 161
f 150 163 107
f 108 162 150
f 164 109 139
f 164 159 109
f 110 165 147
f 123 165 110
f 113 112 111
f 116 113 111
f 120 116 111
f 111 114 115
f 111 115 149
f 111 149 124
f 118 117 126
f 127 126 117
f 166 127 117
f 166 117 167
f 117 148 167
f 148 117 119
f 151 122 121
f 122 151 157
f 122 157 168
f 169 122 168
f 169 165 122
f 123 122 165
f 125 138 136
f 125 126 129
f 127 129 126
f 127 170 128
f 170 127 166
f 128 170 171
f 132 128 171
f 135 131 130
f 130 172 173
f 130 173 174
f 130 174 135
f 172 130 175
f 133 175 130
f 132 171 166
f 132 166 167
f 148 133 132
f 148 132 167
f 144 133 148
f 175 133 143
f 143 133 144
f 135 176 134
f 134 176 140
f 135 174 176
f 136 138 137
f 139 140 177
f 139 177 178
f 179 164 139
f 178 179 139
f 140 176 177
f 180 142 141
f 141 181 182
f 141 182 180
f 141 145 183
f 184 181 141
f 183 184 141
f 180 143 142
f 180 175 143
f 145 146 183
f 146 185 183
f 146 156 185
f 147 156 146
f 165 156 147
f 162 163 150
f 158 151 150
f 151 158 157
f 153 152 160
f 186 187 153
f 188 186 153
f 160 188 153
f 185 153 187
f 153 185 156
f 154 189 157
f 190 189 154
f 190 154 155
f 168 190 155
f 169 168 155
f 155 156 165
f 169 155 165
f 168 157 189
f 159 191 160
f 164 191 159
f 191 188 160
f 161 163 162
f 179 191 164
f 170 166 171
f 190 168 189
f 182 172 175
f 192 173 172
f 192 172 182
f 193 194 173
f 193 173 192
f 194 174 173
f 194 176 174
f 182 175 180
f 177 176 194
f 177 194 193
f 177 193 195
f 178 177 195
f 195 179 178
f 196 191 179
f 197 196 179
f 195 197 179
f 181 198 192
f 181 192 182
f 199 198 181
f 184 199 181
f 183 185 184
f 185 187 184
f 184 187 199
f 187 186 199
f 186 196 197
f 199 186 197
f 186 188 196
f 188 191 196
f 198 200 192
f 201 193 192
f 201 192 200
f 202 195 193
f 202 193 201
f 195 202 203
f 203 204 195
f 197 195 204
f 199 197 205
f 205 197 204
f 198 206 200
f 207 206 198
f 208 209 198
f 199 208 198
f 198 209 207
f 208 199 205
f 202 201 200
f 202 200 210
f 206 210 200
f 203 202 210
f 203 210 211
f 212 204 203
f 211 212 203
f 208 205 204
f 212 208 204
f 211 210 206
f 211 206 207
f 207 209 211
f 208 212 209
f 209 212 211
