# Generated by Visualization Toolkit
v -0.04025899991393089 0.3098140060901642 0.00002300000051036477
v -0.04095900058746338 0.31013599038124084 0.0076430002227425575
v -0.05374699831008911 0.310696005821228 0.000003000000106112566
v -0.039510998874902725 0.3136729896068573 0.00916799996048212
v -0.03937099874019623 0.3111580014228821 0.00002499999936844688
v -0.04095900058746338 0.31013599038124084 -0.0076430002227425575
v -0.039510998874902725 0.3136729896068573 -0.00916799996048212
v -0.045003000646829605 0.31091099977493286 0.015572000294923782
v -0.051520999521017075 0.3115530014038086 0.019429000094532967
v -0.06584099680185318 0.31074100732803345 0.004596000071614981
v -0.06595800071954727 0.31100699305534363 0.000003000000106112566
v -0.0661889985203743 0.3109929859638214 0.013527999632060528
v -0.0618709996342659 0.31192898750305176 0.019533000886440277
v -0.045003000646829605 0.31091099977493286 -0.015572000294923782
v -0.051520999521017075 0.3115530014038086 -0.019429000094532967
v -0.06584099680185318 0.31074100732803345 -0.004596000071614981
v -0.0661889985203743 0.3109929859638214 -0.013527999632060528
v -0.0618709996342659 0.31192898750305176 -0.019533000886440277
v -0.03982599824666977 0.31536200642585754 0.00002499999936844688
v -0.041099000722169876 0.3158850073814392 0.009816000238060951
v -0.04456600174307823 0.31480899453163147 0.01654299907386303
v -0.041099000722169876 0.3158850073814392 -0.009816000238060951
v -0.04456600174307823 0.31480899453163147 -0.01654299907386303
v -0.05236700177192688 0.31607499718666077 0.020093999803066254
v -0.06944499909877777 0.3140909969806671 0.004730000160634518
v -0.06941600143909454 0.31397300958633423 0.000003000000106112566
v -0.06944499909877777 0.3140909969806671 -0.004730000160634518
v -0.06289099901914597 0.31683599948883057 0.020237000659108162
v -0.0690390020608902 0.3117530047893524 0.015192000195384026
v -0.07030700147151947 0.3154590129852295 0.008988999761641026
v -0.05236700177192688 0.31607499718666077 -0.020093999803066254
v -0.0690390020608902 0.3117530047893524 -0.015192000195384026
v -0.06289099901914597 0.31683599948883057 -0.020237000659108162
v -0.07030700147151947 0.3154590129852295 -0.008988999761641026
v -0.03917999938130379 0.32404500246047974 0.000028000000384054147
v -0.0406000018119812 0.32321301102638245 0.009472999721765518
v -0.046275001019239426 0.31753501296043396 0.016131000593304634
v -0.0406000018119812 0.32321301102638245 -0.009472999721765518
v -0.046275001019239426 0.31753501296043396 -0.016131000593304634
v -0.052292000502347946 0.31987500190734863 0.018279999494552612
v -0.06891699880361557 0.3205679953098297 0.0060640000738203526
v -0.06843099743127823 0.3205449879169464 0.000004999999873689376
v -0.06891699880361557 0.3205679953098297 -0.0060640000738203526
v -0.06262999773025513 0.32014200091362 0.01915300078690052
v -0.06783299893140793 0.3192490041255951 0.0181099995970726
v -0.07070499658584595 0.32125699520111084 0.009274999611079693
v -0.052292000502347946 0.31987500190734863 -0.018279999494552612
v -0.06783299893140793 0.3192490041255951 -0.0181099995970726
v -0.06262999773025513 0.32014200091362 -0.01915300078690052
v -0.07070499658584595 0.32125699520111084 -0.009274999611079693
v -0.03847799822688103 0.32743600010871887 0.000029000000722589903
v -0.03909900039434433 0.32715100049972534 0.010479000397026539
v -0.04628799855709076 0.32429298758506775 0.01675100065767765
v -0.03909900039434433 0.32715100049972534 -0.010479000397026539
v -0.04628799855709076 0.32429298758506775 -0.01675100065767765
v -0.05107799917459488 0.3249270021915436 0.01836399920284748
v -0.06702499836683273 0.3278290033340454 0.006266999989748001
v -0.06893400102853775 0.3284189999103546 0.009697999805212021
v -0.06631000339984894 0.3278439939022064 0.000007000000096013537
v -0.06702499836683273 0.3278290033340454 -0.006266999989748001
v -0.06893499940633774 0.3284189999103546 -0.009697999805212021
v -0.06093500182032585 0.326339989900589 0.019291000440716743
v -0.0655359998345375 0.3277130126953125 0.019665999338030815
v -0.07380300015211105 0.3195199966430664 0.016315000131726265
v -0.07090599834918976 0.3216870129108429 0.020003000274300575
v -0.06931900233030319 0.3264870047569275 0.023917999118566513
v -0.07878199964761734 0.3236739933490753 0.0035600000992417336
v -0.05107799917459488 0.3249270021915436 -0.01836399920284748
v -0.0655359998345375 0.3277130126953125 -0.019665999338030815
v -0.06093500182032585 0.326339989900589 -0.019291000440716743
v -0.07090599834918976 0.3216870129108429 -0.020003000274300575
v -0.07380300015211105 0.3195199966430664 -0.016315000131726265
v -0.06931900233030319 0.3264870047569275 -0.023917999118566513
v -0.07878199964761734 0.3236739933490753 -0.0035600000992417336
v -0.03841099888086319 0.33130499720573425 0.000029000000722589903
v -0.03923799842596054 0.3311850130558014 0.010672000236809254
v -0.044206999242305756 0.3273650109767914 0.01773099973797798
v -0.03923799842596054 0.3311850130558014 -0.010672000236809254
v -0.044206999242305756 0.3273650109767914 -0.01773099973797798
v -0.050223998725414276 0.3275670111179352 0.020305000245571136
v -0.06719399988651276 0.33417999744415283 0.007988999597728252
v -0.06801600009202957 0.33276599645614624 0.010413000360131264
v -0.06561899930238724 0.3332020044326782 0.000009000000318337698
v -0.06719399988651276 0.33417999744415283 -0.007988999597728252
v -0.06801600009202957 0.33276599645614624 -0.010413000360131264
v -0.05857500061392784 0.32982900738716125 0.02128399908542633
v -0.06371700018644333 0.32984301447868347 0.01900400035083294
v -0.07239300012588501 0.3333809971809387 0.01904899999499321
v -0.08173500001430511 0.3271459937095642 0.022079000249505043
v -0.08016300201416016 0.3233349919319153 0.016409000381827354
v -0.0776280015707016 0.317782998085022 0.02361699938774109
v -0.07586299628019333 0.31739699840545654 0.01005600020289421
v -0.07659599930047989 0.32570499181747437 0.022714000195264816
v -0.07855399698019028 0.3197529911994934 0.020648999139666557
v -0.07962200045585632 0.3189769983291626 0.000003000000106112566
v -0.08340500295162201 0.30878499150276184 0.004883000161498785
v -0.08708599954843521 0.32546401023864746 0.000004999999873689376
v -0.08070100098848343 0.3290570080280304 0.007368999999016523
v -0.050223998725414276 0.3275670111179352 -0.020305000245571136
v -0.06371700018644333 0.32984301447868347 -0.01900400035083294
v -0.05857500061392784 0.32982900738716125 -0.02128399908542633
v -0.07239300012588501 0.3333809971809387 -0.01904899999499321
v -0.08016300201416016 0.3233349919319153 -0.016409000381827354
v -0.08173500001430511 0.3271459937095642 -0.022079000249505043
v -0.0776280015707016 0.317782998085022 -0.02361699938774109
v -0.07586299628019333 0.31739699840545654 -0.01005600020289421
v -0.07855399698019028 0.3197529911994934 -0.020648999139666557
v -0.07659599930047989 0.32570499181747437 -0.022714000195264816
v -0.08340500295162201 0.30878499150276184 -0.004883000161498785
v -0.08070100098848343 0.3290570080280304 -0.007368999999016523
v -0.05330900102853775 0.3331420123577118 0.000009000000318337698
v -0.044149000197649 0.3315599858760834 0.017976000905036926
v -0.05093599855899811 0.332489013671875 0.021285999566316605
v -0.044149000197649 0.3315599858760834 -0.017976000905036926
v -0.05093599855899811 0.332489013671875 -0.021285999566316605
v -0.059748001396656036 0.3331049978733063 0.02141599915921688
v -0.07919800281524658 0.33686399459838867 0.015275999903678894
v -0.06943300366401672 0.33314600586891174 0.013465999625623226
v -0.07907900214195251 0.33452001214027405 0.009607999585568905
v -0.06536699831485748 0.33354899287223816 0.01634399965405464
v -0.06943300366401672 0.33314600586891174 -0.013465999625623226
v -0.07919800281524658 0.33686399459838867 -0.015275999903678894
v -0.07907900214195251 0.33452001214027405 -0.009607999585568905
v -0.06536699831485748 0.33354899287223816 -0.01634399965405464
v -0.07861100137233734 0.330610990524292 0.020274000242352486
v -0.07753200083971024 0.3332119882106781 0.017562000080943108
v -0.09194599837064743 0.33725300431251526 0.03321100026369095
v -0.08679500222206116 0.3288719952106476 0.0201370008289814
v -0.08138299733400345 0.3321950137615204 0.020312000066041946
v -0.09159400314092636 0.31529501080513 0.012070000171661377
v -0.08727400004863739 0.31628701090812683 0.014775999821722507
v -0.09294900298118591 0.32888901233673096 0.024181999266147614
v -0.08522800356149673 0.326445996761322 0.012105000205338001
v -0.07646100223064423 0.3156670033931732 0.011455999687314034
v -0.09159799665212631 0.31181800365448 0.01627499982714653
v -0.0803230032324791 0.3262999951839447 0.025123000144958496
v -0.08197800070047379 0.3245460093021393 0.02291099913418293
v -0.08270300179719925 0.33070799708366394 0.02323400042951107
v -0.08579900115728378 0.3133929967880249 0.000003000000106112566
v -0.08317899703979492 0.3078869879245758 0.006399000063538551
v -0.0979280024766922 0.3154959976673126 0.000003999999989900971
v -0.0882669985294342 0.32250699400901794 0.004732999950647354
v -0.08454100042581558 0.32128599286079407 0.007925000041723251
v -0.08433400094509125 0.3249880075454712 0.009933000430464745
v -0.0882669985294342 0.32250699400901794 -0.004732999950647354
v -0.08454100042581558 0.32128599286079407 -0.007925000041723251
v -0.08433400094509125 0.3249880075454712 -0.009933000430464745
v -0.08173500001430511 0.32958999276161194 0.010838000103831291
v -0.059748001396656036 0.3331049978733063 -0.02141599915921688
v -0.07861100137233734 0.330610990524292 -0.020274000242352486
v -0.07753200083971024 0.3332119882106781 -0.017562000080943108
v -0.08727400004863739 0.31628701090812683 -0.014775999821722507
v -0.09159400314092636 0.31529501080513 -0.012070000171661377
v -0.08679500222206116 0.3288719952106476 -0.0201370008289814
v -0.09294900298118591 0.32888901233673096 -0.024181999266147614
v -0.08522800356149673 0.326445996761322 -0.012105000205338001
v -0.09194599837064743 0.33725300431251526 -0.03321100026369095
v -0.08138299733400345 0.3321950137615204 -0.020312000066041946
v -0.07646100223064423 0.3156670033931732 -0.011455999687314034
v -0.09159799665212631 0.31181800365448 -0.01627499982714653
v -0.08197800070047379 0.3245460093021393 -0.02291099913418293
v -0.0803230032324791 0.3262999951839447 -0.025123000144958496
v -0.08270300179719925 0.33070799708366394 -0.02323400042951107
v -0.08317899703979492 0.3078869879245758 -0.006399000063538551
v -0.08173500001430511 0.32958999276161194 -0.010838000103831291
v -0.0974930003285408 0.33501601219177246 0.027837000787258148
v -0.0854789987206459 0.33145999908447266 0.013292999938130379
v -0.0974930003285408 0.33501601219177246 -0.027837000787258148
v -0.0854789987206459 0.33145999908447266 -0.013292999938130379
v -0.09578599780797958 0.3336080014705658 0.03679800033569336
v -0.0976170003414154 0.33180001378059387 0.02859400026500225
v -0.09404700249433517 0.31308600306510925 0.009797999635338783
v -0.09441500157117844 0.3092600107192993 0.00927099958062172
v -0.09181399643421173 0.3061949908733368 0.016042999923229218
v -0.09136799722909927 0.3170489966869354 0.008449999615550041
v -0.08440700173377991 0.3060629963874817 0.01271700020879507
v -0.08537700027227402 0.31074899435043335 0.00508899986743927
v -0.08854799717664719 0.3091689944267273 9.999999974752427e-7
v -0.08537700027227402 0.31074899435043335 -0.00508899986743927
v -0.09631200134754181 0.31749600172042847 0.0039969999343156815
v -0.10517799854278564 0.30557000637054443 -0.000014999999621068127
v -0.09619300067424774 0.31365999579429626 0.003889000043272972
v -0.09631200134754181 0.31749600172042847 -0.0039969999343156815
v -0.09619300067424774 0.31365999579429626 -0.003889000043272972
v -0.09136799722909927 0.3170489966869354 -0.008449999615550041
v -0.09441500157117844 0.3092600107192993 -0.00927099958062172
v -0.09404700249433517 0.31308600306510925 -0.009797999635338783
v -0.09181500226259232 0.3061949908733368 -0.016042999923229218
v -0.09578599780797958 0.3336080014705658 -0.03679800033569336
v -0.0976170003414154 0.33180001378059387 -0.02859400026500225
v -0.08440700173377991 0.3060629963874817 -0.01271700020879507
v -0.09655600041151047 0.31002700328826904 0.004056999925523996
v -0.09570900350809097 0.3081499934196472 0.004755999892950058
v -0.0908140018582344 0.30660900473594666 0.0072929998859763145
v -0.09576500207185745 0.303956001996994 0
v -0.0908140018582344 0.30660900473594666 -0.0072929998859763145
v -0.09570900350809097 0.3081499934196472 -0.004755999892950058
v -0.11199100315570831 0.2996459901332855 -0.000018999999156221747
v -0.09655600041151047 0.31002700328826904 -0.004056999925523996
v -0.10443899780511856 0.298786997795105 0.004412999842315912
v -0.09865500032901764 0.30205899477005005 0.004430000204592943
v -0.10543099790811539 0.2913540005683899 0.00343999988399446
v -0.10719999670982361 0.29096201062202454 -0.000003000000106112566
v -0.10543099790811539 0.2913540005683899 -0.00343999988399446
v -0.09865500032901764 0.30205899477005005 -0.004430000204592943
v -0.11348900198936462 0.29680299758911133 0.004461999982595444
v -0.11438799649477005 0.29566898941993713 -0.00002099999983329326
v -0.10443899780511856 0.298786997795105 -0.004412999842315912
v -0.11348900198936462 0.29680299758911133 -0.004461999982595444
v -0.11192400008440018 0.2936609983444214 0.00519599998369813
v -0.11103600263595581 0.2920069992542267 -0.000019999999494757503
v -0.11192400008440018 0.2936609983444214 -0.00519599998369813
f 1 2 3
f 4 2 1
f 4 1 5
f 3 6 1
f 1 6 7
f 5 1 7
f 2 8 3
f 8 2 4
f 8 9 3
f 10 11 3
f 3 12 10
f 13 12 3
f 3 9 13
f 3 14 6
f 3 15 14
f 3 11 16
f 16 17 3
f 3 17 18
f 18 15 3
f 19 20 4
f 19 4 5
f 21 4 20
f 8 4 21
f 5 7 19
f 7 6 14
f 7 22 19
f 22 7 23
f 23 7 14
f 9 8 21
f 9 21 24
f 13 9 24
f 11 10 25
f 12 25 10
f 11 25 26
f 27 16 11
f 26 27 11
f 28 29 12
f 28 12 13
f 12 29 30
f 12 30 25
f 13 24 28
f 23 14 15
f 31 23 15
f 31 15 18
f 16 27 17
f 17 32 33
f 18 17 33
f 34 32 17
f 27 34 17
f 33 31 18
f 35 20 19
f 19 22 35
f 35 36 20
f 37 20 36
f 21 20 37
f 24 21 37
f 22 38 35
f 38 22 39
f 39 22 23
f 39 23 31
f 24 37 40
f 28 24 40
f 41 26 25
f 41 25 30
f 26 41 42
f 42 43 26
f 27 26 43
f 34 27 43
f 28 40 44
f 44 29 28
f 44 45 29
f 30 29 46
f 29 45 46
f 41 30 46
f 47 39 31
f 47 31 33
f 32 48 49
f 33 32 49
f 50 32 34
f 50 48 32
f 49 47 33
f 50 34 43
f 51 36 35
f 35 38 51
f 51 52 36
f 53 36 52
f 37 36 53
f 40 37 53
f 38 54 51
f 54 38 55
f 55 38 39
f 55 39 47
f 40 53 56
f 44 40 56
f 42 41 57
f 41 58 57
f 41 46 58
f 42 57 59
f 60 43 42
f 59 60 42
f 60 61 43
f 61 50 43
f 44 56 62
f 62 45 44
f 62 63 45
f 64 45 65
f 66 65 45
f 66 45 63
f 45 64 46
f 58 46 67
f 67 46 64
f 68 55 47
f 68 47 49
f 48 69 70
f 49 48 70
f 71 48 72
f 48 71 73
f 69 48 73
f 50 72 48
f 70 68 49
f 74 50 61
f 72 50 74
f 75 52 51
f 51 54 75
f 75 76 52
f 77 52 76
f 53 52 77
f 56 53 77
f 54 78 75
f 78 54 79
f 79 54 55
f 79 55 68
f 56 77 80
f 62 56 80
f 59 57 81
f 57 58 82
f 57 82 81
f 67 82 58
f 59 81 83
f 84 60 59
f 83 84 59
f 85 61 60
f 84 85 60
f 61 85 74
f 62 80 86
f 86 63 62
f 86 87 63
f 88 66 63
f 88 63 87
f 89 90 64
f 89 64 91
f 64 65 66
f 64 66 91
f 64 90 92
f 64 92 67
f 66 93 94
f 66 94 91
f 88 93 66
f 95 67 96
f 67 95 97
f 67 97 98
f 92 96 67
f 67 98 82
f 99 79 68
f 99 68 70
f 69 100 101
f 70 69 101
f 69 73 102
f 100 69 102
f 101 99 70
f 73 71 72
f 72 103 104
f 105 72 104
f 105 73 72
f 106 103 72
f 74 106 72
f 107 108 73
f 105 107 73
f 73 108 102
f 109 74 95
f 97 95 74
f 110 97 74
f 74 109 106
f 85 110 74
f 76 75 111
f 111 75 78
f 77 76 112
f 112 76 111
f 113 80 77
f 113 77 112
f 114 78 79
f 111 78 114
f 79 99 115
f 114 79 115
f 116 86 80
f 116 80 113
f 117 118 81
f 81 119 117
f 81 98 119
f 98 81 82
f 83 81 111
f 81 120 111
f 118 120 81
f 111 84 83
f 84 121 122
f 122 123 84
f 123 110 84
f 85 84 110
f 111 124 84
f 84 124 121
f 116 87 86
f 120 88 87
f 116 120 87
f 120 118 88
f 88 125 93
f 125 88 126
f 126 88 118
f 127 128 89
f 128 90 89
f 89 91 125
f 129 89 125
f 127 89 129
f 130 131 90
f 128 132 90
f 90 131 92
f 90 133 130
f 90 132 133
f 91 94 125
f 96 92 134
f 135 134 92
f 135 92 131
f 125 136 93
f 136 94 93
f 136 137 94
f 137 138 94
f 94 138 125
f 95 96 139
f 139 109 95
f 139 96 140
f 96 134 140
f 141 142 97
f 97 142 143
f 97 143 144
f 144 98 97
f 97 145 141
f 146 145 97
f 147 146 97
f 97 110 147
f 144 148 98
f 98 148 119
f 99 101 149
f 115 99 149
f 101 100 149
f 100 102 124
f 100 124 149
f 102 121 124
f 108 150 102
f 151 102 150
f 121 102 151
f 103 152 153
f 104 103 154
f 103 155 154
f 106 152 103
f 153 156 103
f 156 155 103
f 104 154 157
f 150 105 104
f 150 104 158
f 158 104 157
f 150 107 105
f 159 106 109
f 106 159 160
f 152 106 160
f 107 161 162
f 108 107 162
f 107 163 161
f 150 163 107
f 108 162 150
f 164 109 139
f 164 159 109
f 110 165 147
f 123 165 110
f 113 112 111
f 116 113 111
f 120 116 111
f 111 114 115
f 111 115 149
f 111 149 124
f 118 117 126
f 127 126 117
f 166 127 117
f 166 117 167
f 117 148 167
f 148 117 119
f 151 122 121
f 122 151 157
f 122 157 168
f 169 122 168
f 169 165 122
f 123 122 165
f 125 138 136
f 125 126 129
f 127 129 126
f 127 170 128
f 170 127 166
f 128 170 171
f 132 128 171
f 135 131 130
f 130 172 173
f 130 173 174
f 130 174 135
f 172 130 175
f 133 175 130
f 132 171 166
f 132 166 167
f 148 133 132
f 148 132 167
f 144 133 148
f 175 133 143
f 143 133 144
f 135 176 134
f 134 176 140
f 135 174 176
f 136 138 137
f 139 140 177
f 139 177 178
f 179 164 139
f 178 179 139
f 140 176 177
f 180 142 141
f 141 181 182
f 141 182 180
f 141 145 183
f 184 181 141
f 183 184 141
f 180 143 142
f 180 175 143
f 145 146 183
f 146 185 183
f 146 156 185
f 147 156 146
f 165 156 147
f 162 163 150
f 158 151 150
f 151 158 157
f 153 152 160
f 186 187 153
f 188 186 153
f 160 188 153
f 185 153 187
f 153 185 156
f 154 189 157
f 190 189 154
f 190 154 155
f 168 190 155
f 169 168 155
f 155 156 165
f 169 155 165
f 168 157 189
f 159 191 160
f 164 191 159
f 191 188 160
f 161 163 162
f 179 191 164
f 170 166 171
f 190 168 189
f 182 172 175
f 192 173 172
f 192 172 182
f 193 194 173
f 193 173 192
f 194 174 173
f 194 176 174
f 182 175 180
f 177 176 194
f 177 194 193
f 177 193 195
f 178 177 195
f 195 179 178
f 196 191 179
f 197 196 179
f 195 197 179
f 181 198 192
f 181 192 182
f 199 198 181
f 184 199 181
f 183 185 184
f 185 187 184
f 184 187 199
f 187 186 199
f 186 196 197
f 199 186 197
f 186 188 196
f 188 191 196
f 198 200 192
f 201 193 192
f 201 192 200
f 202 195 193
f 202 193 201
f 195 202 203
f 203 204 195
f 197 195 204
f 199 197 205
f 205 197 204
f 198 206 200
f 207 206 198
f 208 209 198
f 199 208 198
f 198 209 207
f 208 199 205
f 202 201 200
f 202 200 210
f 206 210 200
f 203 202 210
f 203 210 211
f 212 204 203
f 211 212 203
f 208 205 204
f 212 208 204
f 211 210 206
f 211 206 207
f 207 209 211
f 208 212 209
f 209 212 211
