# Generated by Visualization Toolkit
v -0.0570640005171299 0.17223599553108215 0.000024000000848900527
v -0.05784099921584129 0.17242899537086487 0.007987000048160553
v -0.07107199728488922 0.1704619973897934 0.000003000000106112566
v -0.056992001831531525 0.17635400593280792 0.009580999612808228
v -0.056393999606370926 0.17379599809646606 0.000025999999706982635
v -0.05784099921584129 0.17242899537086487 -0.007987000048160553
v -0.056992001831531525 0.17635400593280792 -0.009580999612808228
v -0.062132999300956726 0.17242099344730377 0.01627199910581112
v -0.06894099712371826 0.17178599536418915 0.020302999764680862
v -0.08349700272083282 0.16810299456119537 0.004801999777555466
v -0.08366599678993225 0.16835400462150574 0.000003000000106112566
v -0.08390100300312042 0.16829299926757812 0.014135999605059624
v -0.07963600009679794 0.17011499404907227 0.02041199989616871
v -0.062132999300956726 0.17242099344730377 -0.01627199910581112
v -0.06894099712371826 0.17178599536418915 -0.020302999764680862
v -0.08349700272083282 0.16810299456119537 -0.004801999777555466
v -0.08390100300312042 0.16829299926757812 -0.014135999605059624
v -0.07963600009679794 0.17011499404907227 -0.02041199989616871
v -0.05762000009417534 0.17802900075912476 0.000025999999706982635
v -0.0590209998190403 0.1783140003681183 0.010257000103592873
v -0.062387000769376755 0.17651799321174622 0.017287999391555786
v -0.0590209998190403 0.1783140003681183 -0.010257000103592873
v -0.062387000769376755 0.17651799321174622 -0.017287999391555786
v -0.07062599807977676 0.17626899480819702 0.020997999235987663
v -0.08780200034379959 0.17083199322223663 0.004941999912261963
v -0.08775100111961365 0.17071600258350372 0.000003000000106112566
v -0.08780200034379959 0.17083199322223663 -0.004941999912261963
v -0.08156900107860565 0.1749590039253235 0.021146999672055244
v -0.0869629979133606 0.16850799322128296 0.01587500050663948
v -0.0889350026845932 0.17206799983978271 0.009393000043928623
v -0.07062599807977676 0.17626899480819702 -0.020997999235987663
v -0.0869629979133606 0.16850799322128296 -0.01587500050663948
v -0.08156900107860565 0.1749590039253235 -0.021146999672055244
v -0.0889350026845932 0.17206799983978271 -0.009393000043928623
v -0.0585240013897419 0.1870889961719513 0.000029000000722589903
v -0.059831999242305756 0.18594999611377716 0.00989999994635582
v -0.06463400274515152 0.17898200452327728 0.01685599982738495
v -0.059831999242305756 0.18594999611377716 -0.009898999705910683
v -0.06463400274515152 0.17898200452327728 -0.01685599982738495
v -0.07123400270938873 0.1801930069923401 0.019101999700069427
v -0.08842799812555313 0.1775989979505539 0.00633700005710125
v -0.0879260003566742 0.17767100036144257 0.000004999999873689376
v -0.08842799812555313 0.1775989979505539 -0.00633700005710125
v -0.08189699798822403 0.17841100692749023 0.020013999193906784
v -0.08707799762487411 0.17645800113677979 0.018924999982118607
v -0.09038899838924408 0.17795200645923615 0.009692000225186348
v -0.07123400270938873 0.1801930069923401 -0.019101999700069427
v -0.08707799762487411 0.17645800113677979 -0.018924999982118607
v -0.08189699798822403 0.17841100692749023 -0.020013999193906784
v -0.09038899838924408 0.17795200645923615 -0.009692000225186348
v -0.0584149993956089 0.1907159984111786 0.000029999999242136255
v -0.059000998735427856 0.19029900431632996 0.010950000025331974
v -0.06586699932813644 0.18592999875545502 0.017503999173641205
v -0.059000998735427856 0.19029900431632996 -0.010950000025331974
v -0.06586699932813644 0.18592999875545502 -0.017503999173641205
v -0.07089900225400925 0.18562999367713928 0.019190000370144844
v -0.09077399969100952 0.18675699830055237 0.006548000033944845
v -0.0928419977426529 0.18698500096797943 0.010134000331163406
v -0.09004300087690353 0.18691499531269073 0.000007000000096013537
v -0.09077399969100952 0.18675699830055237 -0.006548000033944845
v -0.0928419977426529 0.18698500096797943 -0.010134000331163406
v -0.08127500116825104 0.1851229965686798 0.02015800029039383
v -0.08624699711799622 0.1856209933757782 0.020549999549984932
v -0.09325599670410156 0.1755490005016327 0.017048999667167664
v -0.09067299962043762 0.17835499346256256 0.02090200036764145
v -0.0928879976272583 0.184920996427536 0.024994000792503357
v -0.09911800175905228 0.17883199453353882 0.003719999920576811
v -0.07089900225400925 0.18562999367713928 -0.019190000370144844
v -0.08624699711799622 0.1856209933757782 -0.020549999549984932
v -0.08127500116825104 0.1851229965686798 -0.02015800029039383
v -0.09067299962043762 0.17835499346256256 -0.02090200036764145
v -0.09325599670410156 0.1755490005016327 -0.017048999667167664
v -0.0928879976272583 0.184920996427536 -0.024994000792503357
v -0.09911800175905228 0.17883199453353882 -0.003719999920576811
v -0.05904499813914299 0.19470900297164917 0.00003099999958067201
v -0.05987200140953064 0.19442099332809448 0.011150999926030636
v -0.06428500264883041 0.1895039975643158 0.01852799952030182
v -0.05987200140953064 0.19442099332809448 -0.011150999926030636
v -0.06428500264883041 0.1895039975643158 -0.01852799952030182
v -0.0704990029335022 0.18851499259471893 0.02121799997985363
v -0.09209399670362473 0.19325700402259827 0.00834800023585558
v -0.09268400073051453 0.19163799285888672 0.010881000198423862
v -0.09030099958181381 0.192562997341156 0.000009000000318337698
v -0.09209399670362473 0.19325700402259827 -0.00834800023585558
v -0.09268400073051453 0.19163799285888672 -0.010881000198423862
v -0.07948199659585953 0.18918099999427795 0.022241000086069107
v -0.08774200081825256 0.18948699533939362 0.01985899917781353
v -0.09431099891662598 0.1900860071182251 0.019905999302864075
v -0.10277699679136276 0.1818159967660904 0.023072000592947006
v -0.1004749983549118 0.17820900678634644 0.017146000638604164
v -0.09686999768018723 0.17300200462341309 0.024678999558091164
v -0.09498900175094604 0.17295600473880768 0.010507999919354916
v -0.09724000096321106 0.18135599792003632 0.023736000061035156
v -0.0981770008802414 0.17484399676322937 0.021578000858426094
v -0.09913399815559387 0.17383399605751038 0.000003999999989900971
v -0.09722600132226944 0.16519400477409363 0.005102999974042177
v -0.10796800255775452 0.17902199923992157 0.000004999999873689376
v -0.10206100344657898 0.18398700654506683 0.007699999958276749
v -0.0704990029335022 0.18851499259471893 -0.02121799997985363
v -0.08774200081825256 0.18948699533939362 -0.01985899917781353
v -0.07948199659585953 0.18918099999427795 -0.022241000086069107
v -0.09431099891662598 0.1900860071182251 -0.019905999302864075
v -0.1004749983549118 0.17820900678634644 -0.017146000638604164
v -0.10277699679136276 0.1818159967660904 -0.023072000592947006
v -0.09686999768018723 0.17300200462341309 -0.024678999558091164
v -0.09498900175094604 0.17295600473880768 -0.010507999919354916
v -0.0981770008802414 0.17484399676322937 -0.021578000858426094
v -0.09724000096321106 0.18135599792003632 -0.023736000061035156
v -0.09722600132226944 0.16519400477409363 -0.005102999974042177
v -0.10206100344657898 0.18398700654506683 -0.007699999958276749
v -0.07467299699783325 0.1936360001564026 0.000009000000318337698
v -0.06498099863529205 0.1938299983739853 0.018783999606966972
v -0.07211799919605255 0.19343599677085876 0.02224300056695938
v -0.06498099863529205 0.1938299983739853 -0.018783999606966972
v -0.07211799919605255 0.19343599677085876 -0.02224300056695938
v -0.08127699792385101 0.19231800734996796 0.02237899973988533
v -0.10192599892616272 0.1923159956932068 0.015962999314069748
v -0.09420700371265411 0.1917479932308197 0.014072000049054623
v -0.10138099640607834 0.18992799520492554 0.010040000081062317
v -0.09010499715805054 0.19297100603580475 0.017078999429941177
v -0.09420700371265411 0.1917479932308197 -0.014072000049054623
v -0.10192599892616272 0.1923159956932068 -0.015962999314069748
v -0.10138099640607834 0.18992799520492554 -0.010040000081062317
v -0.09010499715805054 0.19297100603580475 -0.017078999429941177
v -0.10019499808549881 0.1860010027885437 0.021185999736189842
v -0.09955699741840363 0.1888909935951233 0.018352000042796135
v -0.11508499830961227 0.19018100202083588 0.034703999757766724
v -0.10828399658203125 0.1825850009918213 0.021043000742793083
v -0.10332699865102768 0.18707899749279022 0.02122499980032444
v -0.10680799931287766 0.17026199400424957 0.012613000348210335
v -0.10255199670791626 0.17214100062847137 0.015440000221133232
v -0.11460600048303604 0.18137900531291962 0.025270000100135803
v -0.1062370017170906 0.1804009974002838 0.012649999931454659
v -0.09528999775648117 0.17105799913406372 0.011970999650657177
v -0.10618499666452408 0.16668400168418884 0.017007000744342804
v -0.10117500275373459 0.18122699856758118 0.026252999901771545
v -0.10255700349807739 0.17909300327301025 0.023941000923514366
v -0.1044130027294159 0.1852869987487793 0.024279000237584114
v -0.10051599889993668 0.16945800185203552 0.000003000000106112566
v -0.09683100134134293 0.16431500017642975 0.006686999928206205
v -0.11334899812936783 0.16920900344848633 0.000003999999989900971
v -0.10864699631929398 0.17574599385261536 0.004945999942719936
v -0.10460100322961807 0.1752309948205948 0.008282000198960304
v -0.10505600273609161 0.17907899618148804 0.010378999635577202
v -0.10864699631929398 0.17574599385261536 -0.004945999942719936
v -0.10460100322961807 0.1752309948205948 -0.008282000198960304
v -0.10505600273609161 0.17907899618148804 -0.010378999635577202
v -0.10321799665689468 0.18433000147342682 0.01132499985396862
v -0.08127699792385101 0.19231800734996796 -0.02237899973988533
v -0.10019499808549881 0.1860010027885437 -0.021185999736189842
v -0.09955699741840363 0.1888909935951233 -0.018352000042796135
v -0.10255199670791626 0.17214100062847137 -0.015440000221133232
v -0.10680799931287766 0.17026199400424957 -0.012613000348210335
v -0.10828399658203125 0.1825850009918213 -0.021043000742793083
v -0.11460600048303604 0.18137900531291962 -0.025270000100135803
v -0.1062370017170906 0.1804009974002838 -0.012649999931454659
v -0.11508499830961227 0.19018100202083588 -0.034703999757766724
v -0.10332699865102768 0.18707899749279022 -0.02122499980032444
v -0.09528999775648117 0.17105799913406372 -0.011970999650657177
v -0.10618499666452408 0.16668400168418884 -0.017007000744342804
v -0.10255700349807739 0.17909300327301025 -0.023941000923514366
v -0.10117500275373459 0.18122699856758118 -0.026252999901771545
v -0.1044130027294159 0.1852869987487793 -0.024279000237584114
v -0.09683100134134293 0.16431500017642975 -0.006686999928206205
v -0.10321799665689468 0.18433000147342682 -0.01132499985396862
v -0.12037699669599533 0.1867769956588745 0.029089000076055527
v -0.10739900171756744 0.18550799787044525 0.013891000300645828
v -0.12037699669599533 0.1867769956588745 -0.029089000076055527
v -0.10739900171756744 0.18550799787044525 -0.013891000300645828
v -0.11837100237607956 0.1856680065393448 0.03845300152897835
v -0.11992400139570236 0.183445006608963 0.02988000027835369
v -0.10892800241708755 0.1675020009279251 0.01023900043219328
v -0.10861600190401077 0.16349300742149353 0.009688000194728374
v -0.10539299994707108 0.16085800528526306 0.01676500029861927
v -0.10689300298690796 0.17211100459098816 0.008829999715089798
v -0.09776300191879272 0.16219499707221985 0.013288999907672405
v -0.0996050015091896 0.16682200133800507 0.005317999981343746
v -0.10257600247859955 0.16456599533557892 9.999999974752427e-7
v -0.0996050015091896 0.16682200133800507 -0.005317999981343746
v -0.11204999685287476 0.1715870052576065 0.004176999907940626
v -0.11714000254869461 0.16374699771404266 -0.000015999999959603883
v -0.11123500019311905 0.1676650047302246 0.004062999971210957
v -0.11204999685287476 0.1715870052576065 -0.004176999907940626
v -0.11123500019311905 0.1676650047302246 -0.004062999971210957
v -0.10689300298690796 0.17211100459098816 -0.008829999715089798
v -0.10861600190401077 0.16349300742149353 -0.009688000194728374
v -0.10892800241708755 0.1675020009279251 -0.01023900043219328
v -0.10539299994707108 0.16085800528526306 -0.01676500029861927
v -0.11837100237607956 0.1856680065393448 -0.03845300152897835
v -0.11992400139570236 0.183445006608963 -0.02988000027835369
v -0.09776300191879272 0.16219499707221985 -0.013288999907672405
v -0.11095300316810608 0.16385699808597565 0.004238999914377928
v -0.10974399745464325 0.16209399700164795 0.004970000125467777
v -0.10444100201129913 0.1614830046892166 0.007621000055223703
v -0.10904499888420105 0.15776999294757843 0
v -0.10444100201129913 0.1614830046892166 -0.007621000055223703
v -0.10974399745464325 0.16209399700164795 -0.004970000125467777
v -0.1230660006403923 0.15629899501800537 -0.000019999999494757503
v -0.11095300316810608 0.16385699808597565 -0.004238999914377928
v -0.11515700072050095 0.15691600739955902 0.004612000193446875
v -0.11167000234127045 0.15524399280548096 0.004629000090062618
v -0.11483500152826309 0.1490740031003952 0.003594999900087714
v -0.11658000200986862 0.14831900596618652 -0.000003000000106112566
v -0.11483500152826309 0.1490740031003952 -0.003594999900087714
v -0.11167000234127045 0.15524399280548096 -0.004629000090062618
v -0.1240909993648529 0.15307700634002686 0.0046629998832941055
v -0.12481000274419785 0.1517309993505478 -0.000022000000171829015
v -0.11515700072050095 0.15691600739955902 -0.004612000193446875
v -0.1240909993648529 0.15307700634002686 -0.0046629998832941055
v -0.1219170019030571 0.15015600621700287 0.005429999902844429
v -0.12070699781179428 0.1486310064792633 -0.00002099999983329326
v -0.1219170019030571 0.15015600621700287 -0.005429999902844429
f 1 2 3
f 4 2 1
f 4 1 5
f 3 6 1
f 1 6 7
f 5 1 7
f 2 8 3
f 8 2 4
f 8 9 3
f 10 11 3
f 3 12 10
f 13 12 3
f 3 9 13
f 3 14 6
f 3 15 14
f 3 11 16
f 16 17 3
f 3 17 18
f 18 15 3
f 19 20 4
f 19 4 5
f 21 4 20
f 8 4 21
f 5 7 19
f 7 6 14
f 7 22 19
f 22 7 23
f 23 7 14
f 9 8 21
f 9 21 24
f 13 9 24
f 11 10 25
f 12 25 10
f 11 25 26
f 27 16 11
f 26 27 11
f 28 29 12
f 28 12 13
f 12 29 30
f 12 30 25
f 13 24 28
f 23 14 15
f 31 23 15
f 31 15 18
f 16 27 17
f 17 32 33
f 18 17 33
f 34 32 17
f 27 34 17
f 33 31 18
f 35 20 19
f 19 22 35
f 35 36 20
f 37 20 36
f 21 20 37
f 24 21 37
f 22 38 35
f 38 22 39
f 39 22 23
f 39 23 31
f 24 37 40
f 28 24 40
f 41 26 25
f 41 25 30
f 26 41 42
f 42 43 26
f 27 26 43
f 34 27 43
f 28 40 44
f 44 29 28
f 44 45 29
f 30 29 46
f 29 45 46
f 41 30 46
f 47 39 31
f 47 31 33
f 32 48 49
f 33 32 49
f 50 32 34
f 50 48 32
f 49 47 33
f 50 34 43
f 51 36 35
f 35 38 51
f 51 52 36
f 53 36 52
f 37 36 53
f 40 37 53
f 38 54 51
f 54 38 55
f 55 38 39
f 55 39 47
f 40 53 56
f 44 40 56
f 42 41 57
f 41 58 57
f 41 46 58
f 42 57 59
f 60 43 42
f 59 60 42
f 60 61 43
f 61 50 43
f 44 56 62
f 62 45 44
f 62 63 45
f 64 45 65
f 66 65 45
f 66 45 63
f 45 64 46
f 58 46 67
f 67 46 64
f 68 55 47
f 68 47 49
f 48 69 70
f 49 48 70
f 71 48 72
f 48 71 73
f 69 48 73
f 50 72 48
f 70 68 49
f 74 50 61
f 72 50 74
f 75 52 51
f 51 54 75
f 75 76 52
f 77 52 76
f 53 52 77
f 56 53 77
f 54 78 75
f 78 54 79
f 79 54 55
f 79 55 68
f 56 77 80
f 62 56 80
f 59 57 81
f 57 58 82
f 57 82 81
f 67 82 58
f 59 81 83
f 84 60 59
f 83 84 59
f 85 61 60
f 84 85 60
f 61 85 74
f 62 80 86
f 86 63 62
f 86 87 63
f 88 66 63
f 88 63 87
f 89 90 64
f 89 64 91
f 64 65 66
f 64 66 91
f 64 90 92
f 64 92 67
f 66 93 94
f 66 94 91
f 88 93 66
f 95 67 96
f 67 95 97
f 67 97 98
f 92 96 67
f 67 98 82
f 99 79 68
f 99 68 70
f 69 100 101
f 70 69 101
f 69 73 102
f 100 69 102
f 101 99 70
f 73 71 72
f 72 103 104
f 105 72 104
f 105 73 72
f 106 103 72
f 74 106 72
f 107 108 73
f 105 107 73
f 73 108 102
f 109 74 95
f 97 95 74
f 110 97 74
f 74 109 106
f 85 110 74
f 76 75 111
f 111 75 78
f 77 76 112
f 112 76 111
f 113 80 77
f 113 77 112
f 114 78 79
f 111 78 114
f 79 99 115
f 114 79 115
f 116 86 80
f 116 80 113
f 117 118 81
f 81 119 117
f 81 98 119
f 98 81 82
f 83 81 111
f 81 120 111
f 118 120 81
f 111 84 83
f 84 121 122
f 122 123 84
f 123 110 84
f 85 84 110
f 111 124 84
f 84 124 121
f 116 87 86
f 120 88 87
f 116 120 87
f 120 118 88
f 88 125 93
f 125 88 126
f 126 88 118
f 127 128 89
f 128 90 89
f 89 91 125
f 129 89 125
f 127 89 129
f 130 131 90
f 128 132 90
f 90 131 92
f 90 133 130
f 90 132 133
f 91 94 125
f 96 92 134
f 135 134 92
f 135 92 131
f 125 136 93
f 136 94 93
f 136 137 94
f 137 138 94
f 94 138 125
f 95 96 139
f 139 109 95
f 139 96 140
f 96 134 140
f 141 142 97
f 97 142 143
f 97 143 144
f 144 98 97
f 97 145 141
f 146 145 97
f 147 146 97
f 97 110 147
f 144 148 98
f 98 148 119
f 99 101 149
f 115 99 149
f 101 100 149
f 100 102 124
f 100 124 149
f 102 121 124
f 108 150 102
f 151 102 150
f 121 102 151
f 103 152 153
f 104 103 154
f 103 155 154
f 106 152 103
f 153 156 103
f 156 155 103
f 104 154 157
f 150 105 104
f 150 104 158
f 158 104 157
f 150 107 105
f 159 106 109
f 106 159 160
f 152 106 160
f 107 161 162
f 108 107 162
f 107 163 161
f 150 163 107
f 108 162 150
f 164 109 139
f 164 159 109
f 110 165 147
f 123 165 110
f 113 112 111
f 116 113 111
f 120 116 111
f 111 114 115
f 111 115 149
f 111 149 124
f 118 117 126
f 127 126 117
f 166 127 117
f 166 117 167
f 117 148 167
f 148 117 119
f 151 122 121
f 122 151 157
f 122 157 168
f 169 122 168
f 169 165 122
f 123 122 165
f 125 138 136
f 125 126 129
f 127 129 126
f 127 170 128
f 170 127 166
f 128 170 171
f 132 128 171
f 135 131 130
f 130 172 173
f 130 173 174
f 130 174 135
f 172 130 175
f 133 175 130
f 132 171 166
f 132 166 167
f 148 133 132
f 148 132 167
f 144 133 148
f 175 133 143
f 143 133 144
f 135 176 134
f 134 176 140
f 135 174 176
f 136 138 137
f 139 140 177
f 139 177 178
f 179 164 139
f 178 179 139
f 140 176 177
f 180 142 141
f 141 181 182
f 141 182 180
f 141 145 183
f 184 181 141
f 183 184 141
f 180 143 142
f 180 175 143
f 145 146 183
f 146 185 183
f 146 156 185
f 147 156 146
f 165 156 147
f 162 163 150
f 158 151 150
f 151 158 157
f 153 152 160
f 186 187 153
f 188 186 153
f 160 188 153
f 185 153 187
f 153 185 156
f 154 189 157
f 190 189 154
f 190 154 155
f 168 190 155
f 169 168 155
f 155 156 165
f 169 155 165
f 168 157 189
f 159 191 160
f 164 191 159
f 191 188 160
f 161 163 162
f 179 191 164
f 170 166 171
f 190 168 189
f 182 172 175
f 192 173 172
f 192 172 182
f 193 194 173
f 193 173 192
f 194 174 173
f 194 176 174
f 182 175 180
f 177 176 194
f 177 194 193
f 177 193 195
f 178 177 195
f 195 179 178
f 196 191 179
f 197 196 179
f 195 197 179
f 181 198 192
f 181 192 182
f 199 198 181
f 184 199 181
f 183 185 184
f 185 187 184
f 184 187 199
f 187 186 199
f 186 196 197
f 199 186 197
f 186 188 196
f 188 191 196
f 198 200 192
f 201 193 192
f 201 192 200
f 202 195 193
f 202 193 201
f 195 202 203
f 203 204 195
f 197 195 204
f 199 197 205
f 205 197 204
f 198 206 200
f 207 206 198
f 208 209 198
f 199 208 198
f 198 209 207
f 208 199 205
f 202 201 200
f 202 200 210
f 206 210 200
f 203 202 210
f 203 210 211
f 212 204 203
f 211 212 203
f 208 205 204
f 212 208 204
f 211 210 206
f 211 206 207
f 207 209 211
f 208 212 209
f 209 212 211
