# Generated by Visualization Toolkit
v -0.060479000210762024 0.19808200001716614 0.00002300000051036477
v -0.06120700016617775 0.19832700490951538 0.0076430002227425575
v -0.07397499680519104 0.19749599695205688 0.000003000000106112566
v -0.06011499837040901 0.20200300216674805 0.00916799996048212
v -0.059728000313043594 0.19951599836349487 0.00002499999936844688
v -0.06120700016617775 0.19832700490951538 -0.0076430002227425575
v -0.06011499837040901 0.20200300216674805 -0.00916799996048212
v -0.06530299782752991 0.19865800440311432 0.015572000294923782
v -0.07184600085020065 0.19859099388122559 0.019429000094532967
v -0.08600199967622757 0.1962279975414276 0.004596000071614981
v -0.08614499866962433 0.19648000597953796 0.000003000000106112566
v -0.08637399971485138 0.19644099473953247 0.013527999632060528
v -0.08217299729585648 0.19784100353717804 0.019533000886440277
v -0.06530299782752991 0.19865800440311432 -0.015572000294923782
v -0.07184600085020065 0.19859099388122559 -0.019429000094532967
v -0.08600199967622757 0.1962279975414276 -0.004596000071614981
v -0.08637399971485138 0.19644099473953247 -0.013527999632060528
v -0.08217299729585648 0.19784100353717804 -0.019533000886440277
v -0.06059499830007553 0.20364999771118164 0.00002499999936844688
v -0.06191200017929077 0.20403200387954712 0.009816000238060951
v -0.06525299698114395 0.20258499681949615 0.01654299907386303
v -0.06191200017929077 0.20403200387954712 -0.009816000238060951
v -0.06525299698114395 0.20258499681949615 -0.01654299907386303
v -0.07313299924135208 0.20299899578094482 0.020093999803066254
v -0.08991499990224838 0.19916999340057373 0.004730000160634518
v -0.0898749977350235 0.1990559995174408 0.000003000000106112566
v -0.08991499990224838 0.19916999340057373 -0.004730000160634518
v -0.0836699977517128 0.20261399447917938 0.020237000659108162
v -0.08928100019693375 0.1968879997730255 0.015192000195384026
v -0.0909079983830452 0.200437992811203 0.008988999761641026
v -0.07313299924135208 0.20299899578094482 -0.020093999803066254
v -0.08928100019693375 0.1968879997730255 -0.015192000195384026
v -0.0836699977517128 0.20261399447917938 -0.020237000659108162
v -0.0909079983830452 0.200437992811203 -0.008988999761641026
v -0.06080799922347069 0.21236099302768707 0.000028000000384054147
v -0.06213799864053726 0.21137799322605133 0.009472999721765518
v -0.06722000241279602 0.2051129937171936 0.016131000593304634
v -0.06213799864053726 0.21137799322605133 -0.009472999721765518
v -0.06722000241279602 0.2051129937171936 -0.016131000593304634
v -0.07343199849128723 0.20678800344467163 0.018279999494552612
v -0.09002800285816193 0.2056729942560196 0.0060640000738203526
v -0.08954299986362457 0.205703005194664 0.000004999999873689376
v -0.09002800285816193 0.2056729942560196 -0.0060640000738203526
v -0.08373700082302094 0.20593099296092987 0.01915300078690052
v -0.08882100135087967 0.20447799563407898 0.0181099995970726
v -0.09187400341033936 0.20616500079631805 0.009274999611079693
v -0.07343199849128723 0.20678800344467163 -0.018279999494552612
v -0.08882100135087967 0.20447799563407898 -0.0181099995970726
v -0.08373700082302094 0.20593099296092987 -0.01915300078690052
v -0.09187400341033936 0.20616500079631805 -0.009274999611079693
v -0.060444001108407974 0.21581199765205383 0.000029000000722589903
v -0.06103400141000748 0.21546100080013275 0.010479000397026539
v -0.06789900362491608 0.21183599531650543 0.01675100065767765
v -0.06103400141000748 0.21546100080013275 -0.010479000397026539
v -0.06789900362491608 0.21183599531650543 -0.01675100065767765
v -0.07272300124168396 0.2119469940662384 0.01836399920284748
v -0.09160999953746796 0.21459199488162994 0.006266999989748001
v -0.09356699883937836 0.21497200429439545 0.009697999805212021
v -0.09090100228786469 0.21468499302864075 0.000007000000096013537
v -0.09160999953746796 0.21459199488162994 -0.006266999989748001
v -0.09356699883937836 0.21497200429439545 -0.009697999805212021
v -0.08266200125217438 0.21228399872779846 0.019291000440716743
v -0.08737099915742874 0.2131509929895401 0.019665999338030815
v -0.09478200227022171 0.20409999787807465 0.016315000131726265
v -0.09211599826812744 0.20657099783420563 0.020003000274300575
v -0.09375900030136108 0.21300800144672394 0.023917999118566513
v -0.1001409962773323 0.20769399404525757 0.0035600000992417336
v -0.07272300124168396 0.2119469940662384 -0.01836399920284748
v -0.08737099915742874 0.2131509929895401 -0.019665999338030815
v -0.08266200125217438 0.21228399872779846 -0.019291000440716743
v -0.09211599826812744 0.20657099783420563 -0.020003000274300575
v -0.09478200227022171 0.20409999787807465 -0.016315000131726265
v -0.09375900030136108 0.21300800144672394 -0.023917999118566513
v -0.1001409962773323 0.20769399404525757 -0.0035600000992417336
v -0.06075900048017502 0.21966899931430817 0.000029000000722589903
v -0.06156900152564049 0.21945999562740326 0.010672000236809254
v -0.06613299995660782 0.21511900424957275 0.01773099973797798
v -0.06156900152564049 0.21945999562740326 -0.010672000236809254
v -0.06613299995660782 0.21511900424957275 -0.01773099973797798
v -0.07213500142097473 0.21466700732707977 0.020305000245571136
v -0.09240400046110153 0.22089500725269318 0.007988999597728252
v -0.09308300167322159 0.21939800679683685 0.010413000360131264
v -0.09074199944734573 0.22009199857711792 0.000009000000318337698
v -0.09240400046110153 0.22089500725269318 -0.007988999597728252
v -0.09308300167322159 0.21939800679683685 -0.010413000360131264
v -0.08066000044345856 0.21601100265979767 0.02128399908542633
v -0.08852100372314453 0.2169560045003891 0.01900400035083294
v -0.09474699944257736 0.21804599463939667 0.01904899999499321
v -0.10341999679803848 0.2108280062675476 0.022079000249505043
v -0.10148099809885025 0.20720599591732025 0.016409000381827354
v -0.09841399639844894 0.20195600390434265 0.02361699938774109
v -0.09662199765443802 0.20176400244235992 0.01005600020289421
v -0.09816800057888031 0.2099519968032837 0.022714000195264816
v -0.09952899813652039 0.2038159966468811 0.020648999139666557
v -0.1005140021443367 0.20292800664901733 0.000003000000106112566
v -0.1032710000872612 0.19237500429153442 0.004883000161498785
v -0.10857400298118591 0.20857399702072144 0.000004999999873689376
v -0.1025800034403801 0.21284200251102448 0.007368999999016523
v -0.07213500142097473 0.21466700732707977 -0.020305000245571136
v -0.08852100372314453 0.2169560045003891 -0.01900400035083294
v -0.08066000044345856 0.21601100265979767 -0.02128399908542633
v -0.09474699944257736 0.21804599463939667 -0.01904899999499321
v -0.10148099809885025 0.20720599591732025 -0.016409000381827354
v -0.10341999679803848 0.2108280062675476 -0.022079000249505043
v -0.09841399639844894 0.20195600390434265 -0.02361699938774109
v -0.09662199765443802 0.20176400244235992 -0.01005600020289421
v -0.09952899813652039 0.2038159966468811 -0.020648999139666557
v -0.09816800057888031 0.2099519968032837 -0.022714000195264816
v -0.1032710000872612 0.19237500429153442 -0.004883000161498785
v -0.1025800034403801 0.21284200251102448 -0.007368999999016523
v -0.07575099915266037 0.21987999975681305 0.000009000000318337698
v -0.06648799777030945 0.21930000185966492 0.017976000905036926
v -0.07332699745893478 0.2194879949092865 0.021285999566316605
v -0.06648799777030945 0.21930000185966492 -0.017976000905036926
v -0.07332699745893478 0.2194879949092865 -0.021285999566316605
v -0.0821480005979538 0.2191449999809265 0.02141599915921688
v -0.10185399651527405 0.22077399492263794 0.015275999903678894
v -0.09452900290489197 0.21962200105190277 0.013465999625623226
v -0.10150499641895294 0.2184540033340454 0.009607999585568905
v -0.09052599966526031 0.22046500444412231 0.01634399965405464
v -0.09452900290489197 0.21962200105190277 -0.013465999625623226
v -0.10185399651527405 0.22077399492263794 -0.015275999903678894
v -0.10150499641895294 0.2184540033340454 -0.009607999585568905
v -0.09052599966526031 0.22046500444412231 -0.01634399965405464
v -0.10065499693155289 0.21461500227451324 0.020274000242352486
v -0.09983900189399719 0.2173209935426712 0.017562000080943108
v -0.11456599831581116 0.21977700293064117 0.03321100026369095
v -0.10862000286579132 0.21199700236320496 0.0201370008289814
v -0.10356699675321579 0.21589000523090363 0.020312000066041946
v -0.11205299943685532 0.19796499609947205 0.012070000171661377
v -0.10785599797964096 0.1994210034608841 0.014775999821722507
v -0.11473999917507172 0.21134600043296814 0.024181999266147614
v -0.10682299733161926 0.20975300669670105 0.012105000205338001
v -0.09704499691724777 0.19997699558734894 0.011455999687314034
v -0.11171499639749527 0.1945039927959442 0.01627499982714653
v -0.10193300247192383 0.21014000475406647 0.025123000144958496
v -0.10340499877929688 0.20821399986743927 0.02291099913418293
v -0.10473199933767319 0.21426700055599213 0.02323400042951107
v -0.1061059981584549 0.19670100510120392 0.000003000000106112566
v -0.10295800119638443 0.19150599837303162 0.006399000063538551
v -0.11837100237607956 0.19747699797153473 0.000003999999989900971
v -0.10945700109004974 0.20550300180912018 0.004732999950647354
v -0.1056319996714592 0.20469200611114502 0.007925000041723251
v -0.10579100251197815 0.2083979994058609 0.009933000430464745
v -0.10945700109004974 0.20550300180912018 -0.004732999950647354
v -0.1056319996714592 0.20469200611114502 -0.007925000041723251
v -0.10579100251197815 0.2083979994058609 -0.009933000430464745
v -0.10366000235080719 0.2132599949836731 0.010838000103831291
v -0.0821480005979538 0.2191449999809265 -0.02141599915921688
v -0.10065499693155289 0.21461500227451324 -0.020274000242352486
v -0.09983900189399719 0.2173209935426712 -0.017562000080943108
v -0.10785599797964096 0.1994210034608841 -0.014775999821722507
v -0.11205299943685532 0.19796499609947205 -0.012070000171661377
v -0.10862000286579132 0.21199700236320496 -0.0201370008289814
v -0.11473999917507172 0.21134600043296814 -0.024181999266147614
v -0.10682299733161926 0.20975300669670105 -0.012105000205338001
v -0.11456599831581116 0.21977700293064117 -0.03321100026369095
v -0.10356699675321579 0.21589000523090363 -0.020312000066041946
v -0.09704499691724777 0.19997699558734894 -0.011455999687314034
v -0.11171499639749527 0.1945039927959442 -0.01627499982714653
v -0.10340499877929688 0.20821399986743927 -0.02291099913418293
v -0.10193300247192383 0.21014000475406647 -0.025123000144958496
v -0.10473199933767319 0.21426700055599213 -0.02323400042951107
v -0.10295800119638443 0.19150599837303162 -0.006399000063538551
v -0.10366000235080719 0.2132599949836731 -0.010838000103831291
v -0.11986099928617477 0.216949000954628 0.027837000787258148
v -0.1075659990310669 0.21471400558948517 0.013292999938130379
v -0.11986099928617477 0.216949000954628 -0.027837000787258148
v -0.1075659990310669 0.21471400558948517 -0.013292999938130379
v -0.11802499741315842 0.21573300659656525 0.03679800033569336
v -0.11966700106859207 0.21373599767684937 0.02859400026500225
v -0.11427400261163712 0.19550000131130219 0.009797999635338783
v -0.11426399648189545 0.19165199995040894 0.00927099958062172
v -0.11137700080871582 0.18888500332832336 0.016042999923229218
v -0.11200200021266937 0.19973500072956085 0.008449999615550041
v -0.10399899631738663 0.1895570009946823 0.01271700020879507
v -0.10542500019073486 0.1941159963607788 0.00508899986743927
v -0.10842200368642807 0.1921979933977127 9.999999974752427e-7
v -0.10542500019073486 0.1941159963607788 -0.00508899986743927
v -0.11696100234985352 0.19964300096035004 0.0039969999343156815
v -0.12460000067949295 0.18681299686431885 -0.000014999999621068127
v -0.11646399646997452 0.19583800435066223 0.003889000043272972
v -0.11696100234985352 0.19964300096035004 -0.0039969999343156815
v -0.11646399646997452 0.19583800435066223 -0.003889000043272972
v -0.11200200021266937 0.19973500072956085 -0.008449999615550041
v -0.11426399648189545 0.19165199995040894 -0.00927099958062172
v -0.11427400261163712 0.19550000131130219 -0.009797999635338783
v -0.11137700080871582 0.18888500332832336 -0.016042999923229218
v -0.11802499741315842 0.21573300659656525 -0.03679800033569336
v -0.11966700106859207 0.21373599767684937 -0.02859400026500225
v -0.10399899631738663 0.1895570009946823 -0.01271700020879507
v -0.11646799743175507 0.19218400120735168 0.004056999925523996
v -0.1154400035738945 0.19040699303150177 0.004755999892950058
v -0.1104229986667633 0.18940599262714386 0.0072929998859763145
v -0.1150830015540123 0.18622800707817078 0
v -0.1104229986667633 0.18940599262714386 -0.0072929998859763145
v -0.1154400035738945 0.19040699303150177 -0.004755999892950058
v -0.13078999519348145 0.18017800152301788 -0.000018999999156221747
v -0.11646799743175507 0.19218400120735168 -0.004056999925523996
v -0.123198002576828 0.18014200031757355 0.004412999842315912
v -0.1177700012922287 0.18402700126171112 0.004430000204592943
v -0.12345200031995773 0.17263799905776978 0.00343999988399446
v -0.12517200410366058 0.17205600440502167 -0.000003000000106112566
v -0.12345200031995773 0.17263799905776978 -0.00343999988399446
v -0.1177700012922287 0.18402700126171112 -0.004430000204592943
v -0.13199900090694427 0.1771869957447052 0.004461999982595444
v -0.1327809989452362 0.1759600043296814 -0.00002099999983329326
v -0.123198002576828 0.18014200031757355 -0.004412999842315912
v -0.13199900090694427 0.1771869957447052 -0.004461999982595444
v -0.1301330029964447 0.1742289960384369 0.00519599998369813
v -0.12908799946308136 0.17267900705337524 -0.000019999999494757503
v -0.1301330029964447 0.1742289960384369 -0.00519599998369813
f 1 2 3
f 4 2 1
f 4 1 5
f 3 6 1
f 1 6 7
f 5 1 7
f 2 8 3
f 8 2 4
f 8 9 3
f 10 11 3
f 3 12 10
f 13 12 3
f 3 9 13
f 3 14 6
f 3 15 14
f 3 11 16
f 16 17 3
f 3 17 18
f 18 15 3
f 19 20 4
f 19 4 5
f 21 4 20
f 8 4 21
f 5 7 19
f 7 6 14
f 7 22 19
f 22 7 23
f 23 7 14
f 9 8 21
f 9 21 24
f 13 9 24
f 11 10 25
f 12 25 10
f 11 25 26
f 27 16 11
f 26 27 11
f 28 29 12
f 28 12 13
f 12 29 30
f 12 30 25
f 13 24 28
f 23 14 15
f 31 23 15
f 31 15 18
f 16 27 17
f 17 32 33
f 18 17 33
f 34 32 17
f 27 34 17
f 33 31 18
f 35 20 19
f 19 22 35
f 35 36 20
f 37 20 36
f 21 20 37
f 24 21 37
f 22 38 35
f 38 22 39
f 39 22 23
f 39 23 31
f 24 37 40
f 28 24 40
f 41 26 25
f 41 25 30
f 26 41 42
f 42 43 26
f 27 26 43
f 34 27 43
f 28 40 44
f 44 29 28
f 44 45 29
f 30 29 46
f 29 45 46
f 41 30 46
f 47 39 31
f 47 31 33
f 32 48 49
f 33 32 49
f 50 32 34
f 50 48 32
f 49 47 33
f 50 34 43
f 51 36 35
f 35 38 51
f 51 52 36
f 53 36 52
f 37 36 53
f 40 37 53
f 38 54 51
f 54 38 55
f 55 38 39
f 55 39 47
f 40 53 56
f 44 40 56
f 42 41 57
f 41 58 57
f 41 46 58
f 42 57 59
f 60 43 42
f 59 60 42
f 60 61 43
f 61 50 43
f 44 56 62
f 62 45 44
f 62 63 45
f 64 45 65
f 66 65 45
f 66 45 63
f 45 64 46
f 58 46 67
f 67 46 64
f 68 55 47
f 68 47 49
f 48 69 70
f 49 48 70
f 71 48 72
f 48 71 73
f 69 48 73
f 50 72 48
f 70 68 49
f 74 50 61
f 72 50 74
f 75 52 51
f 51 54 75
f 75 76 52
f 77 52 76
f 53 52 77
f 56 53 77
f 54 78 75
f 78 54 79
f 79 54 55
f 79 55 68
f 56 77 80
f 62 56 80
f 59 57 81
f 57 58 82
f 57 82 81
f 67 82 58
f 59 81 83
f 84 60 59
f 83 84 59
f 85 61 60
f 84 85 60
f 61 85 74
f 62 80 86
f 86 63 62
f 86 87 63
f 88 66 63
f 88 63 87
f 89 90 64
f 89 64 91
f 64 65 66
f 64 66 91
f 64 90 92
f 64 92 67
f 66 93 94
f 66 94 91
f 88 93 66
f 95 67 96
f 67 95 97
f 67 97 98
f 92 96 67
f 67 98 82
f 99 79 68
f 99 68 70
f 69 100 101
f 70 69 101
f 69 73 102
f 100 69 102
f 101 99 70
f 73 71 72
f 72 103 104
f 105 72 104
f 105 73 72
f 106 103 72
f 74 106 72
f 107 108 73
f 105 107 73
f 73 108 102
f 109 74 95
f 97 95 74
f 110 97 74
f 74 109 106
f 85 110 74
f 76 75 111
f 111 75 78
f 77 76 112
f 112 76 111
f 113 80 77
f 113 77 112
f 114 78 79
f 111 78 114
f 79 99 115
f 114 79 115
f 116 86 80
f 116 80 113
f 117 118 81
f 81 119 117
f 81 98 119
f 98 81 82
f 83 81 111
f 81 120 111
f 118 120 81
f 111 84 83
f 84 121 122
f 122 123 84
f 123 110 84
f 85 84 110
f 111 124 84
f 84 124 121
f 116 87 86
f 120 88 87
f 116 120 87
f 120 118 88
f 88 125 93
f 125 88 126
f 126 88 118
f 127 128 89
f 128 90 89
f 89 91 125
f 129 89 125
f 127 89 129
f 130 131 90
f 128 132 90
f 90 131 92
f 90 133 130
f 90 132 133
f 91 94 125
f 96 92 134
f 135 134 92
f 135 92 131
f 125 136 93
f 136 94 93
f 136 137 94
f 137 138 94
f 94 138 125
f 95 96 139
f 139 109 95
f 139 96 140
f 96 134 140
f 141 142 97
f 97 142 143
f 97 143 144
f 144 98 97
f 97 145 141
f 146 145 97
f 147 146 97
f 97 110 147
f 144 148 98
f 98 148 119
f 99 101 149
f 115 99 149
f 101 100 149
f 100 102 124
f 100 124 149
f 102 121 124
f 108 150 102
f 151 102 150
f 121 102 151
f 103 152 153
f 104 103 154
f 103 155 154
f 106 152 103
f 153 156 103
f 156 155 103
f 104 154 157
f 150 105 104
f 150 104 158
f 158 104 157
f 150 107 105
f 159 106 109
f 106 159 160
f 152 106 160
f 107 161 162
f 108 107 162
f 107 163 161
f 150 163 107
f 108 162 150
f 164 109 139
f 164 159 109
f 110 165 147
f 123 165 110
f 113 112 111
f 116 113 111
f 120 116 111
f 111 114 115
f 111 115 149
f 111 149 124
f 118 117 126
f 127 126 117
f 166 127 117
f 166 117 167
f 117 148 167
f 148 117 119
f 151 122 121
f 122 151 157
f 122 157 168
f 169 122 168
f 169 165 122
f 123 122 165
f 125 138 136
f 125 126 129
f 127 129 126
f 127 170 128
f 170 127 166
f 128 170 171
f 132 128 171
f 135 131 130
f 130 172 173
f 130 173 174
f 130 174 135
f 172 130 175
f 133 175 130
f 132 171 166
f 132 166 167
f 148 133 132
f 148 132 167
f 144 133 148
f 175 133 143
f 143 133 144
f 135 176 134
f 134 176 140
f 135 174 176
f 136 138 137
f 139 140 177
f 139 177 178
f 179 164 139
f 178 179 139
f 140 176 177
f 180 142 141
f 141 181 182
f 141 182 180
f 141 145 183
f 184 181 141
f 183 184 141
f 180 143 142
f 180 175 143
f 145 146 183
f 146 185 183
f 146 156 185
f 147 156 146
f 165 156 147
f 162 163 150
f 158 151 150
f 151 158 157
f 153 152 160
f 186 187 153
f 188 186 153
f 160 188 153
f 185 153 187
f 153 185 156
f 154 189 157
f 190 189 154
f 190 154 155
f 168 190 155
f 169 168 155
f 155 156 165
f 169 155 165
f 168 157 189
f 159 191 160
f 164 191 159
f 191 188 160
f 161 163 162
f 179 191 164
f 170 166 171
f 190 168 189
f 182 172 175
f 192 173 172
f 192 172 182
f 193 194 173
f 193 173 192
f 194 174 173
f 194 176 174
f 182 175 180
f 177 176 194
f 177 194 193
f 177 193 195
f 178 177 195
f 195 179 178
f 196 191 179
f 197 196 179
f 195 197 179
f 181 198 192
f 181 192 182
f 199 198 181
f 184 199 181
f 183 185 184
f 185 187 184
f 184 187 199
f 187 186 199
f 186 196 197
f 199 186 197
f 186 188 196
f 188 191 196
f 198 200 192
f 201 193 192
f 201 192 200
f 202 195 193
f 202 193 201
f 195 202 203
f 203 204 195
f 197 195 204
f 199 197 205
f 205 197 204
f 198 206 200
f 207 206 198
f 208 209 198
f 199 208 198
f 198 209 207
f 208 199 205
f 202 201 200
f 202 200 210
f 206 210 200
f 203 202 210
f 203 210 211
f 212 204 203
f 211 212 203
f 208 205 204
f 212 208 204
f 211 210 206
f 211 206 207
f 207 209 211
f 208 212 209
f 209 212 211
