# Generated by Visualization Toolkit
v 0.025451000779867172 -0.10177300125360489 0.05094200000166893
v 0.026316000148653984 -0.10638199746608734 0.04967299848794937
v 0.02792000025510788 -0.10194599628448486 0.05104300007224083
v 0.027705000713467598 -0.10107000172138214 0.05142899975180626
v 0.024754999205470085 -0.0995590016245842 0.05158400163054466
v 0.0236820001155138 -0.10150499641895294 0.049605999141931534
v 0.024799000471830368 -0.10824699699878693 0.04778800159692764
v 0.0291920006275177 -0.10302499681711197 0.050269998610019684
v 0.0291920006275177 -0.10233200341463089 0.05032600089907646
v 0.026014000177383423 -0.10957600176334381 0.04762300103902817
v 0.027045000344514847 -0.1086369976401329 0.04843199998140335
v 0.02863300032913685 -0.1012289971113205 0.05098000168800354
v 0.025620000436902046 -0.09762799739837646 0.05293300002813339
v 0.027938000857830048 -0.09740400314331055 0.05316400155425072
v 0.02812100015580654 -0.10031399875879288 0.051426999270915985
v 0.024792000651359558 -0.09753099828958511 0.052646998316049576
v 0.0228240005671978 -0.09763199836015701 0.049330998212099075
v 0.022942999377846718 -0.09958600252866745 0.04899600148200989
v 0.023509999737143517 -0.10447099804878235 0.048229001462459564
v 0.022933000698685646 -0.10195299983024597 0.04735900089144707
v 0.02582399919629097 -0.11073499917984009 0.0467119999229908
v 0.023785000666975975 -0.10976599901914597 0.046153001487255096
v 0.02920600026845932 -0.10607600212097168 0.049564000219106674
v 0.02967200055718422 -0.1033250018954277 0.05012200027704239
v 0.029644999653100967 -0.1023240014910698 0.049897998571395874
v 0.029920000582933426 -0.10291200131177902 0.04995499923825264
v 0.029039999470114708 -0.10162100195884705 0.05053099989891052
v 0.02751700021326542 -0.11016599833965302 0.04808099940419197
v 0.028464000672101974 -0.10025499761104584 0.05105200037360191
v 0.028586000204086304 -0.1009719967842102 0.049943000078201294
v 0.02828799933195114 -0.0999390035867691 0.04980599880218506
v 0.028477000072598457 -0.10001499950885773 0.05049100145697594
v 0.026743000373244286 -0.09551999717950821 0.05521300062537193
v 0.024598000571131706 -0.09513299912214279 0.05440500006079674
v 0.027381999418139458 -0.09542299807071686 0.0551070012152195
v 0.02906399965286255 -0.09664099663496017 0.05273500084877014
v 0.021338000893592834 -0.09344100207090378 0.0529169999063015
v 0.022159000858664513 -0.09492699801921844 0.05112399905920029
v 0.022830000147223473 -0.09870699793100357 0.04889899864792824
v 0.022794000804424286 -0.09765899926424026 0.048760998994112015
v 0.022846000269055367 -0.09953399747610092 0.04844199866056442
v 0.022393999621272087 -0.10542599856853485 0.0459819994866848
v 0.022481000050902367 -0.1022460013628006 0.04640600085258484
v 0.02289400063455105 -0.1009029969573021 0.0469839982688427
v 0.022725999355316162 -0.10135400295257568 0.04661399871110916
v 0.02693299949169159 -0.11157199740409851 0.0458110012114048
v 0.02595899999141693 -0.11143799871206284 0.04532000049948692
v 0.024366000667214394 -0.11064399778842926 0.04461099952459335
v 0.023970000445842743 -0.11000899970531464 0.04449800029397011
v 0.030022000893950462 -0.10753200203180313 0.048229001462459564
v 0.029454000294208527 -0.10999000072479248 0.04741799831390381
v 0.030355999246239662 -0.10341600328683853 0.04956100136041641
v 0.028978999704122543 -0.10173200070858002 0.04981699958443642
v 0.029566999524831772 -0.10237500071525574 0.048955000936985016
v 0.029975000768899918 -0.1025879979133606 0.049430001527071
v 0.028526000678539276 -0.11121799796819687 0.04670900106430054
v 0.02863200008869171 -0.10211300104856491 0.048872001469135284
v 0.02654300071299076 -0.10188800096511841 0.047540001571178436
v 0.029013000428676605 -0.09685400128364563 0.05086800083518028
v 0.028790999203920364 -0.09570299834012985 0.05052800104022026
v 0.02930399961769581 -0.09639599919319153 0.05208799988031387
v 0.025022000074386597 -0.09436599910259247 0.05607299879193306
v 0.027526000514626503 -0.0948610007762909 0.05606500059366226
v 0.028637999668717384 -0.09416300058364868 0.056062001734972
v 0.03062799945473671 -0.09397199749946594 0.05488799884915352
v 0.030724000185728073 -0.09399200230836868 0.05305600166320801
v 0.021317999809980392 -0.09230300039052963 0.05627899989485741
v 0.019641000777482986 -0.09260600060224533 0.052611999213695526
v 0.021052999421954155 -0.09347300231456757 0.051934998482465744
v 0.02428700029850006 -0.09376499801874161 0.057218998670578
v 0.022144999355077744 -0.09478899836540222 0.04962100088596344
v 0.020501000806689262 -0.09298700094223022 0.05141700059175491
v 0.023219000548124313 -0.09847299754619598 0.04825799912214279
v 0.02341499924659729 -0.09709099680185318 0.04772099852561951
v 0.02327599935233593 -0.09981799870729446 0.047412000596523285
v 0.02331399917602539 -0.09898500144481659 0.048138998448848724
v 0.02266800031065941 -0.10521300137042999 0.04483700171113014
v 0.022512000054121017 -0.10176099836826324 0.045896001160144806
v 0.024000000208616257 -0.10050400346517563 0.04696999862790108
v 0.023811999708414078 -0.10177700221538544 0.04590899869799614
v 0.023056000471115112 -0.10128799825906754 0.04600999876856804
v 0.02670999988913536 -0.11079200357198715 0.045207999646663666
v 0.028394000604748726 -0.11099100112915039 0.04625900089740753
v 0.024845000356435776 -0.10952600091695786 0.04423899948596954
v 0.02400200068950653 -0.10761500149965286 0.04402200132608414
v 0.03044399991631508 -0.10430199652910233 0.04839299991726875
v 0.029740000143647194 -0.10872399806976318 0.04697199910879135
v 0.030198000371456146 -0.10284599661827087 0.04893700033426285
v 0.029743999242782593 -0.10290300101041794 0.048457998782396317
v 0.026778999716043472 -0.10460799932479858 0.04629199951887131
v 0.024229999631643295 -0.09407400339841843 0.047579001635313034
v 0.02628600038588047 -0.09408500045537949 0.048464998602867126
v 0.024737000465393066 -0.10081099718809128 0.047251999378204346
v 0.024932000786066055 -0.0994969978928566 0.0475660003721714
v 0.030717000365257263 -0.09313599765300751 0.052567001432180405
v 0.029464000836014748 -0.09172599762678146 0.05139299854636192
v 0.030189000070095062 -0.09293799847364426 0.05180799961090088
v 0.026166999712586403 -0.09426700323820114 0.05763600021600723
v 0.02711400017142296 -0.09442400187253952 0.05738300085067749
v 0.03030100092291832 -0.09350699931383133 0.05623000115156174
v 0.029624000191688538 -0.09312400221824646 0.057162001729011536
v 0.0311879999935627 -0.09292300045490265 0.05557100102305412
v 0.03131600096821785 -0.09217599779367447 0.05368899926543236
v 0.01887499913573265 -0.09073399752378464 0.053415000438690186
v 0.02096099965274334 -0.09123700112104416 0.05664699897170067
v 0.01991499960422516 -0.09070099890232086 0.05580899864435196
v 0.022187000140547752 -0.09089399874210358 0.057509999722242355
v 0.024952000007033348 -0.09318599849939346 0.058348000049591064
v 0.019533000886440277 -0.09205599874258041 0.05186999961733818
v 0.02165599912405014 -0.09352199733257294 0.04957899823784828
v 0.019770000129938126 -0.09192900359630585 0.050221998244524
v 0.01905299909412861 -0.09113900363445282 0.05131800100207329
v 0.02384299971163273 -0.09909199923276901 0.047850001603364944
v 0.022460000589489937 -0.09386099874973297 0.047784000635147095
v 0.02196500077843666 -0.09383100271224976 0.04828700050711632
v 0.02336299978196621 -0.1037139967083931 0.044718001037836075
v 0.02339800074696541 -0.10196399688720703 0.04550199955701828
v 0.02699499949812889 -0.10905499756336212 0.04500199854373932
v 0.02213899977505207 -0.09307199716567993 0.047616999596357346
v 0.02366499975323677 -0.09162600338459015 0.047175999730825424
v 0.030376000329852104 -0.09130100160837173 0.05209700018167496
v 0.030222000554203987 -0.09219799935817719 0.05204100161790848
v 0.023567000404000282 -0.09018599987030029 0.047641001641750336
v 0.023354999721050262 -0.0892999991774559 0.048266999423503876
v 0.02349800057709217 -0.09091699868440628 0.04751399904489517
v 0.026180999353528023 -0.09251700341701508 0.05850199982523918
v 0.027494000270962715 -0.09370499849319458 0.058125000447034836
v 0.030378000810742378 -0.0927089974284172 0.05651199817657471
v 0.030762000009417534 -0.09179899841547012 0.055309999734163284
v 0.02764900028705597 -0.09285300225019455 0.058285001665353775
v 0.030549999326467514 -0.09091299772262573 0.052838001400232315
v 0.02252900041639805 -0.09135500341653824 0.05690699815750122
v 0.018775999546051025 -0.09081699699163437 0.05234000086784363
v 0.019440000876784325 -0.09086800366640091 0.05358700081706047
v 0.020911000669002533 -0.09074299782514572 0.05672699958086014
v 0.024809999391436577 -0.09184599667787552 0.05840200185775757
v 0.019781000912189484 -0.0922359973192215 0.0492589995265007
v 0.019391000270843506 -0.09159500151872635 0.04913099855184555
v 0.01941400021314621 -0.09121300280094147 0.0502530001103878
v 0.019380999729037285 -0.09051500260829926 0.04940799996256828
v 0.021570999175310135 -0.0931129977107048 0.048023998737335205
v 0.020200999453663826 -0.09194199740886688 0.04784499853849411
v 0.02269200049340725 -0.09149900078773499 0.047168999910354614
v 0.02092299982905388 -0.09170699864625931 0.047474998980760574
v 0.030101999640464783 -0.09036300331354141 0.05289199948310852
v 0.027925999835133553 -0.08950900286436081 0.051656998693943024
v 0.021888000890612602 -0.08982499688863754 0.04770100116729736
v 0.020295999944210052 -0.0897660031914711 0.048597000539302826
v 0.022703999653458595 -0.08921699970960617 0.048948999494314194
v 0.025056999176740646 -0.0889580026268959 0.050195999443531036
v 0.027560999616980553 -0.09223999828100204 0.05804299935698509
v 0.029426999390125275 -0.0913970023393631 0.05471400171518326
v 0.030389999970793724 -0.09053599834442139 0.053651001304388046
v 0.01999500021338463 -0.0907370001077652 0.05297499895095825
v 0.023670999333262444 -0.09155900031328201 0.05323699861764908
v 0.024235999211668968 -0.09157200157642365 0.053977999836206436
v 0.019291000440716743 -0.09056700021028519 0.05275899916887283
v 0.019826000556349754 -0.092119000852108 0.04846800118684769
v 0.019548000767827034 -0.0914049968123436 0.04835199937224388
v 0.019652999937534332 -0.0906519964337349 0.048505999147892
v 0.024625999853014946 -0.09057699888944626 0.05077100172638893
v 0.02469399943947792 -0.09097599983215332 0.051511000841856
v 0.020044999197125435 -0.09121400117874146 0.0478769987821579
v 0.020867999643087387 -0.09092900156974792 0.04751399904489517
v 0.029721999540925026 -0.0901390016078949 0.05312800034880638
v 0.027255000546574593 -0.09084700047969818 0.05243400111794472
v 0.026362000033259392 -0.08916600048542023 0.05104999989271164
v 0.02606699988245964 -0.0900460034608841 0.051575999706983566
v 0.025940999388694763 -0.09154199808835983 0.053592998534440994
v 0.024772999808192253 -0.09131500124931335 0.053203001618385315
v 0.024507999420166016 -0.09145200252532959 0.05276700109243393
v 0.025249000638723373 -0.09149300307035446 0.053227998316287994
v 0.025179000571370125 -0.09108799695968628 0.052528999745845795
v 0.025993000715970993 -0.09098199754953384 0.05223099887371063
f 1 2 3
f 1 4 5
f 6 1 5
f 3 4 1
f 1 7 2
f 6 7 1
f 8 9 2
f 2 10 11
f 9 3 2
f 11 8 2
f 2 7 10
f 9 12 3
f 4 3 12
f 13 4 14
f 13 5 4
f 4 12 15
f 14 4 15
f 16 5 13
f 5 16 6
f 17 6 16
f 17 18 6
f 19 6 20
f 18 20 6
f 6 19 7
f 10 7 21
f 22 21 7
f 19 22 7
f 8 11 23
f 24 8 23
f 8 25 9
f 24 26 8
f 26 25 8
f 27 9 25
f 27 12 9
f 10 21 28
f 28 11 10
f 28 23 11
f 15 12 29
f 30 12 27
f 31 12 30
f 32 29 12
f 32 12 31
f 33 13 14
f 34 16 13
f 34 13 33
f 14 35 33
f 36 35 14
f 36 14 15
f 29 36 15
f 16 37 38
f 34 37 16
f 17 16 38
f 39 17 40
f 18 17 39
f 40 17 38
f 20 18 41
f 41 18 39
f 42 19 43
f 19 42 22
f 20 43 19
f 44 20 41
f 45 43 20
f 45 20 44
f 46 28 21
f 22 47 21
f 46 21 47
f 47 22 48
f 49 48 22
f 42 49 22
f 50 23 51
f 52 23 50
f 24 23 52
f 51 23 28
f 24 52 26
f 27 25 53
f 53 25 54
f 55 54 25
f 26 55 25
f 52 55 26
f 53 30 27
f 28 46 56
f 51 28 56
f 36 29 32
f 53 57 30
f 58 30 57
f 30 58 31
f 59 31 60
f 60 31 58
f 31 59 32
f 36 32 61
f 61 32 59
f 33 62 34
f 63 33 35
f 33 63 62
f 62 37 34
f 63 35 64
f 64 35 65
f 35 36 65
f 65 36 66
f 36 61 66
f 37 67 68
f 69 38 37
f 68 69 37
f 70 67 37
f 70 37 62
f 71 40 38
f 72 38 69
f 71 38 72
f 40 41 39
f 41 40 73
f 40 71 74
f 40 74 73
f 75 44 41
f 41 73 76
f 41 76 75
f 77 49 42
f 43 77 42
f 43 45 78
f 43 78 77
f 44 75 79
f 44 79 80
f 81 45 44
f 81 44 80
f 78 45 81
f 82 83 46
f 83 56 46
f 46 47 82
f 84 82 47
f 84 47 48
f 48 49 84
f 77 85 49
f 84 49 85
f 52 50 86
f 50 87 86
f 87 50 51
f 87 51 56
f 88 52 86
f 52 88 55
f 57 53 54
f 55 88 54
f 88 89 54
f 89 57 54
f 87 56 83
f 89 90 57
f 90 58 57
f 58 91 92
f 92 60 58
f 93 58 90
f 94 91 58
f 94 58 93
f 66 61 59
f 66 59 60
f 66 60 95
f 92 96 60
f 97 60 96
f 60 97 95
f 63 98 62
f 98 70 62
f 63 64 99
f 63 99 98
f 100 101 64
f 99 64 101
f 65 100 64
f 100 65 102
f 66 103 65
f 102 65 103
f 103 66 95
f 104 68 67
f 105 106 67
f 67 106 104
f 67 107 105
f 107 67 108
f 108 67 70
f 72 69 68
f 68 109 72
f 109 68 104
f 108 70 98
f 71 72 110
f 71 110 74
f 111 72 112
f 109 112 72
f 110 72 111
f 76 73 113
f 74 113 73
f 114 91 74
f 114 74 115
f 110 115 74
f 91 94 74
f 113 74 94
f 76 113 75
f 93 75 113
f 75 93 79
f 77 116 85
f 78 116 77
f 78 117 116
f 117 78 81
f 93 90 79
f 79 90 80
f 90 117 80
f 117 81 80
f 82 118 83
f 84 118 82
f 83 118 87
f 84 85 118
f 90 85 116
f 90 118 85
f 89 86 90
f 86 87 118
f 118 90 86
f 88 86 89
f 116 117 90
f 119 91 114
f 91 119 120
f 120 92 91
f 96 92 120
f 113 94 93
f 103 95 121
f 122 121 95
f 97 122 95
f 122 96 121
f 123 124 96
f 125 123 96
f 125 96 120
f 96 124 121
f 97 96 122
f 126 98 127
f 108 98 126
f 127 98 99
f 127 99 101
f 101 100 128
f 100 102 129
f 100 129 128
f 128 130 101
f 101 130 127
f 102 103 129
f 131 129 103
f 103 121 131
f 132 104 106
f 109 104 133
f 134 104 132
f 133 104 134
f 107 135 105
f 135 106 105
f 132 106 135
f 107 108 136
f 132 135 107
f 136 132 107
f 136 108 126
f 112 109 133
f 137 110 111
f 110 137 115
f 111 138 137
f 112 139 111
f 139 138 111
f 133 140 112
f 139 112 140
f 119 114 141
f 114 115 141
f 141 115 137
f 141 142 119
f 143 120 119
f 143 119 144
f 119 142 144
f 120 143 125
f 145 131 121
f 145 121 146
f 124 146 121
f 147 123 143
f 143 123 125
f 123 147 124
f 148 124 147
f 149 124 148
f 149 150 124
f 146 124 150
f 126 127 130
f 136 126 130
f 128 151 130
f 128 129 152
f 128 152 151
f 153 152 129
f 153 129 131
f 151 136 130
f 145 153 131
f 154 134 132
f 154 132 155
f 132 136 156
f 156 155 132
f 134 157 133
f 140 133 157
f 134 154 157
f 136 151 156
f 137 138 158
f 141 137 158
f 139 140 138
f 138 140 159
f 138 159 158
f 148 160 140
f 160 159 140
f 157 154 140
f 140 149 148
f 140 161 149
f 140 154 155
f 162 140 155
f 161 140 162
f 142 141 158
f 158 159 142
f 163 142 159
f 163 144 142
f 164 143 144
f 147 143 164
f 164 144 163
f 153 145 165
f 165 145 146
f 166 165 146
f 167 146 150
f 146 167 168
f 168 166 146
f 148 147 164
f 148 163 160
f 148 164 163
f 150 149 161
f 167 150 161
f 166 169 151
f 151 152 166
f 169 156 151
f 165 152 153
f 152 165 166
f 155 156 170
f 171 155 170
f 162 155 171
f 169 172 156
f 172 170 156
f 163 159 160
f 167 161 162
f 162 171 173
f 168 167 162
f 174 168 162
f 174 162 173
f 174 169 166
f 166 168 174
f 172 169 173
f 169 174 173
f 170 172 173
f 171 170 173
