# Generated by Visualization Toolkit
v 0.02792000025510788 -0.10194599628448486 -0.05104300007224083
v 0.026316000148653984 -0.10638199746608734 -0.04967299848794937
v 0.025451000779867172 -0.10177300125360489 -0.05094200000166893
v 0.027705000713467598 -0.10107000172138214 -0.05142899975180626
v 0.0291920006275177 -0.10233200341463089 -0.05032600089907646
v 0.02863300032913685 -0.1012289971113205 -0.05098000168800354
v 0.024799000471830368 -0.10824699699878693 -0.04778800159692764
v 0.0291920006275177 -0.10302499681711197 -0.050269998610019684
v 0.027045000344514847 -0.1086369976401329 -0.04843199998140335
v 0.026014000177383423 -0.10957600176334381 -0.04762300103902817
v 0.024754999205470085 -0.0995590016245842 -0.05158400163054466
v 0.0236820001155138 -0.10150499641895294 -0.049605999141931534
v 0.027938000857830048 -0.09740400314331055 -0.05316400155425072
v 0.025620000436902046 -0.09762799739837646 -0.05293300002813339
v 0.02812100015580654 -0.10031399875879288 -0.051426999270915985
v 0.029644999653100967 -0.1023240014910698 -0.049897998571395874
v 0.029039999470114708 -0.10162100195884705 -0.05053099989891052
v 0.028464000672101974 -0.10025499761104584 -0.05105200037360191
v 0.028586000204086304 -0.1009719967842102 -0.049943000078201294
v 0.02828799933195114 -0.0999390035867691 -0.04980599880218506
v 0.028477000072598457 -0.10001499950885773 -0.05049100145697594
v 0.023509999737143517 -0.10447099804878235 -0.048229001462459564
v 0.02582399919629097 -0.11073499917984009 -0.0467119999229908
v 0.023785000666975975 -0.10976599901914597 -0.046153001487255096
v 0.02920600026845932 -0.10607600212097168 -0.049564000219106674
v 0.02967200055718422 -0.1033250018954277 -0.05012200027704239
v 0.029920000582933426 -0.10291200131177902 -0.04995499923825264
v 0.02751700021326542 -0.11016599833965302 -0.04808099940419197
v 0.024792000651359558 -0.09753099828958511 -0.052646998316049576
v 0.0228240005671978 -0.09763199836015701 -0.049330998212099075
v 0.022942999377846718 -0.09958600252866745 -0.04899600148200989
v 0.022933000698685646 -0.10195299983024597 -0.04735900089144707
v 0.026743000373244286 -0.09551999717950821 -0.05521300062537193
v 0.027381999418139458 -0.09542299807071686 -0.0551070012152195
v 0.02906399965286255 -0.09664099663496017 -0.05273500084877014
v 0.024598000571131706 -0.09513299912214279 -0.05440500006079674
v 0.028978999704122543 -0.10173200070858002 -0.04981699958443642
v 0.029566999524831772 -0.10237500071525574 -0.048955000936985016
v 0.029975000768899918 -0.1025879979133606 -0.049430001527071
v 0.02863200008869171 -0.10211300104856491 -0.048872001469135284
v 0.02654300071299076 -0.10188800096511841 -0.047540001571178436
v 0.028790999203920364 -0.09570299834012985 -0.05052800104022026
v 0.029013000428676605 -0.09685400128364563 -0.05086800083518028
v 0.02930399961769581 -0.09639599919319153 -0.05208799988031387
v 0.022481000050902367 -0.1022460013628006 -0.04640600085258484
v 0.022393999621272087 -0.10542599856853485 -0.0459819994866848
v 0.02693299949169159 -0.11157199740409851 -0.0458110012114048
v 0.02595899999141693 -0.11143799871206284 -0.04532000049948692
v 0.024366000667214394 -0.11064399778842926 -0.04461099952459335
v 0.023970000445842743 -0.11000899970531464 -0.04449800029397011
v 0.029454000294208527 -0.10999000072479248 -0.04741799831390381
v 0.030022000893950462 -0.10753200203180313 -0.048229001462459564
v 0.030355999246239662 -0.10341600328683853 -0.04956100136041641
v 0.028526000678539276 -0.11121799796819687 -0.04670900106430054
v 0.022159000858664513 -0.09492699801921844 -0.05112399905920029
v 0.021338000893592834 -0.09344100207090378 -0.0529169999063015
v 0.022794000804424286 -0.09765899926424026 -0.048760998994112015
v 0.022830000147223473 -0.09870699793100357 -0.04889899864792824
v 0.022846000269055367 -0.09953399747610092 -0.04844199866056442
v 0.02289400063455105 -0.1009029969573021 -0.0469839982688427
v 0.022725999355316162 -0.10135400295257568 -0.04661399871110916
v 0.025022000074386597 -0.09436599910259247 -0.05607299879193306
v 0.027526000514626503 -0.0948610007762909 -0.05606500059366226
v 0.028637999668717384 -0.09416300058364868 -0.056062001734972
v 0.03062799945473671 -0.09397199749946594 -0.05488799884915352
v 0.030724000185728073 -0.09399200230836868 -0.05305600166320801
v 0.030198000371456146 -0.10284599661827087 -0.04893700033426285
v 0.029743999242782593 -0.10290300101041794 -0.048457998782396317
v 0.026778999716043472 -0.10460799932479858 -0.04629199951887131
v 0.02628600038588047 -0.09408500045537949 -0.048464998602867126
v 0.024229999631643295 -0.09407400339841843 -0.047579001635313034
v 0.024737000465393066 -0.10081099718809128 -0.047251999378204346
v 0.024932000786066055 -0.0994969978928566 -0.0475660003721714
v 0.030717000365257263 -0.09313599765300751 -0.052567001432180405
v 0.029464000836014748 -0.09172599762678146 -0.05139299854636192
v 0.030189000070095062 -0.09293799847364426 -0.05180799961090088
v 0.02266800031065941 -0.10521300137042999 -0.04483700171113014
v 0.022512000054121017 -0.10176099836826324 -0.045896001160144806
v 0.028394000604748726 -0.11099100112915039 -0.04625900089740753
v 0.02670999988913536 -0.11079200357198715 -0.045207999646663666
v 0.024845000356435776 -0.10952600091695786 -0.04423899948596954
v 0.02400200068950653 -0.10761500149965286 -0.04402200132608414
v 0.029740000143647194 -0.10872399806976318 -0.04697199910879135
v 0.03044399991631508 -0.10430199652910233 -0.04839299991726875
v 0.021052999421954155 -0.09347300231456757 -0.051934998482465744
v 0.022144999355077744 -0.09478899836540222 -0.04962100088596344
v 0.020501000806689262 -0.09298700094223022 -0.05141700059175491
v 0.019641000777482986 -0.09260600060224533 -0.052611999213695526
v 0.021317999809980392 -0.09230300039052963 -0.05627899989485741
v 0.02428700029850006 -0.09376499801874161 -0.057218998670578
v 0.023219000548124313 -0.09847299754619598 -0.04825799912214279
v 0.02341499924659729 -0.09709099680185318 -0.04772099852561951
v 0.02327599935233593 -0.09981799870729446 -0.047412000596523285
v 0.02331399917602539 -0.09898500144481659 -0.048138998448848724
v 0.024000000208616257 -0.10050400346517563 -0.04696999862790108
v 0.023811999708414078 -0.10177700221538544 -0.04590899869799614
v 0.023056000471115112 -0.10128799825906754 -0.04600999876856804
v 0.026166999712586403 -0.09426700323820114 -0.05763600021600723
v 0.02711400017142296 -0.09442400187253952 -0.05738300085067749
v 0.029624000191688538 -0.09312400221824646 -0.057162001729011536
v 0.03030100092291832 -0.09350699931383133 -0.05623000115156174
v 0.0311879999935627 -0.09292300045490265 -0.05557100102305412
v 0.03131600096821785 -0.09217599779367447 -0.05368899926543236
v 0.02339800074696541 -0.10196399688720703 -0.04550199955701828
v 0.02336299978196621 -0.1037139967083931 -0.044718001037836075
v 0.02699499949812889 -0.10905499756336212 -0.04500199854373932
v 0.02366499975323677 -0.09162600338459015 -0.047175999730825424
v 0.022460000589489937 -0.09386099874973297 -0.047784000635147095
v 0.02213899977505207 -0.09307199716567993 -0.047616999596357346
v 0.02384299971163273 -0.09909199923276901 -0.047850001603364944
v 0.030376000329852104 -0.09130100160837173 -0.05209700018167496
v 0.030222000554203987 -0.09219799935817719 -0.05204100161790848
v 0.023354999721050262 -0.0892999991774559 -0.048266999423503876
v 0.023567000404000282 -0.09018599987030029 -0.047641001641750336
v 0.02349800057709217 -0.09091699868440628 -0.04751399904489517
v 0.02165599912405014 -0.09352199733257294 -0.04957899823784828
v 0.019533000886440277 -0.09205599874258041 -0.05186999961733818
v 0.01905299909412861 -0.09113900363445282 -0.05131800100207329
v 0.019770000129938126 -0.09192900359630585 -0.050221998244524
v 0.01887499913573265 -0.09073399752378464 -0.053415000438690186
v 0.01991499960422516 -0.09070099890232086 -0.05580899864435196
v 0.02096099965274334 -0.09123700112104416 -0.05664699897170067
v 0.022187000140547752 -0.09089399874210358 -0.057509999722242355
v 0.024952000007033348 -0.09318599849939346 -0.058348000049591064
v 0.02196500077843666 -0.09383100271224976 -0.04828700050711632
v 0.027494000270962715 -0.09370499849319458 -0.058125000447034836
v 0.026180999353528023 -0.09251700341701508 -0.05850199982523918
v 0.030378000810742378 -0.0927089974284172 -0.05651199817657471
v 0.02764900028705597 -0.09285300225019455 -0.058285001665353775
v 0.030762000009417534 -0.09179899841547012 -0.055309999734163284
v 0.030549999326467514 -0.09091299772262573 -0.052838001400232315
v 0.02269200049340725 -0.09149900078773499 -0.047168999910354614
v 0.021570999175310135 -0.0931129977107048 -0.048023998737335205
v 0.020200999453663826 -0.09194199740886688 -0.04784499853849411
v 0.02092299982905388 -0.09170699864625931 -0.047474998980760574
v 0.030101999640464783 -0.09036300331354141 -0.05289199948310852
v 0.027925999835133553 -0.08950900286436081 -0.051656998693943024
v 0.021888000890612602 -0.08982499688863754 -0.04770100116729736
v 0.020295999944210052 -0.0897660031914711 -0.048597000539302826
v 0.022703999653458595 -0.08921699970960617 -0.048948999494314194
v 0.025056999176740646 -0.0889580026268959 -0.050195999443531036
v 0.019781000912189484 -0.0922359973192215 -0.0492589995265007
v 0.018775999546051025 -0.09081699699163437 -0.05234000086784363
v 0.01941400021314621 -0.09121300280094147 -0.0502530001103878
v 0.019380999729037285 -0.09051500260829926 -0.04940799996256828
v 0.019391000270843506 -0.09159500151872635 -0.04913099855184555
v 0.02252900041639805 -0.09135500341653824 -0.05690699815750122
v 0.019440000876784325 -0.09086800366640091 -0.05358700081706047
v 0.020911000669002533 -0.09074299782514572 -0.05672699958086014
v 0.024809999391436577 -0.09184599667787552 -0.05840200185775757
v 0.027560999616980553 -0.09223999828100204 -0.05804299935698509
v 0.029426999390125275 -0.0913970023393631 -0.05471400171518326
v 0.030389999970793724 -0.09053599834442139 -0.053651001304388046
v 0.020867999643087387 -0.09092900156974792 -0.04751399904489517
v 0.019826000556349754 -0.092119000852108 -0.04846800118684769
v 0.019548000767827034 -0.0914049968123436 -0.04835199937224388
v 0.020044999197125435 -0.09121400117874146 -0.0478769987821579
v 0.029721999540925026 -0.0901390016078949 -0.05312800034880638
v 0.027255000546574593 -0.09084700047969818 -0.05243400111794472
v 0.026362000033259392 -0.08916600048542023 -0.05104999989271164
v 0.02606699988245964 -0.0900460034608841 -0.051575999706983566
v 0.019652999937534332 -0.0906519964337349 -0.048505999147892
v 0.024625999853014946 -0.09057699888944626 -0.05077100172638893
v 0.019291000440716743 -0.09056700021028519 -0.05275899916887283
v 0.01999500021338463 -0.0907370001077652 -0.05297499895095825
v 0.023670999333262444 -0.09155900031328201 -0.05323699861764908
v 0.02469399943947792 -0.09097599983215332 -0.051511000841856
v 0.024235999211668968 -0.09157200157642365 -0.053977999836206436
v 0.025940999388694763 -0.09154199808835983 -0.053592998534440994
v 0.025993000715970993 -0.09098199754953384 -0.05223099887371063
v 0.024772999808192253 -0.09131500124931335 -0.053203001618385315
v 0.024507999420166016 -0.09145200252532959 -0.05276700109243393
v 0.025179000571370125 -0.09108799695968628 -0.052528999745845795
v 0.025249000638723373 -0.09149300307035446 -0.053227998316287994
f 1 2 3
f 3 4 1
f 2 1 5
f 1 6 5
f 6 1 4
f 2 7 3
f 2 5 8
f 9 10 2
f 2 8 9
f 10 7 2
f 11 4 3
f 11 3 12
f 3 7 12
f 13 4 14
f 4 11 14
f 15 6 4
f 15 4 13
f 5 16 8
f 16 5 17
f 5 6 17
f 18 6 15
f 17 6 19
f 19 6 20
f 6 18 21
f 20 6 21
f 7 22 12
f 23 7 10
f 7 23 24
f 7 24 22
f 25 9 8
f 25 8 26
f 8 27 26
f 8 16 27
f 10 9 28
f 9 25 28
f 28 23 10
f 14 11 29
f 12 29 11
f 29 12 30
f 12 31 30
f 32 12 22
f 12 32 31
f 13 14 33
f 33 34 13
f 13 34 35
f 15 13 35
f 14 29 36
f 33 14 36
f 15 35 18
f 37 16 17
f 38 16 37
f 16 38 39
f 16 39 27
f 17 19 37
f 21 18 35
f 19 40 37
f 40 19 41
f 20 41 19
f 42 20 43
f 41 20 42
f 21 43 20
f 44 21 35
f 43 21 44
f 45 22 46
f 24 46 22
f 22 45 32
f 23 28 47
f 23 48 24
f 48 23 47
f 49 24 48
f 24 49 50
f 24 50 46
f 51 25 52
f 52 25 53
f 53 25 26
f 28 25 51
f 27 53 26
f 27 39 53
f 54 47 28
f 54 28 51
f 55 56 29
f 29 56 36
f 55 29 30
f 57 30 58
f 58 30 31
f 55 30 57
f 59 31 32
f 58 31 59
f 59 32 60
f 32 45 61
f 60 32 61
f 36 62 33
f 34 33 63
f 62 63 33
f 64 34 63
f 65 34 64
f 65 35 34
f 66 35 65
f 66 44 35
f 36 56 62
f 38 37 40
f 38 67 39
f 38 68 67
f 38 40 68
f 39 67 53
f 40 69 68
f 40 41 69
f 70 71 41
f 41 42 70
f 69 41 72
f 41 71 73
f 72 41 73
f 42 43 66
f 74 42 66
f 42 75 70
f 75 42 76
f 74 76 42
f 43 44 66
f 46 77 45
f 78 61 45
f 77 78 45
f 46 50 77
f 47 79 80
f 47 54 79
f 80 48 47
f 48 80 81
f 49 48 81
f 81 50 49
f 50 82 77
f 82 50 81
f 51 52 83
f 54 51 83
f 84 52 53
f 84 83 52
f 84 53 67
f 79 54 83
f 56 55 85
f 55 57 86
f 85 55 87
f 87 55 86
f 88 89 56
f 56 85 88
f 56 89 90
f 62 56 90
f 58 59 57
f 91 57 59
f 92 86 57
f 91 92 57
f 59 60 93
f 94 91 59
f 93 94 59
f 95 93 60
f 96 95 60
f 60 61 97
f 96 60 97
f 97 61 78
f 62 98 63
f 62 90 98
f 99 64 63
f 98 99 63
f 64 100 101
f 100 64 99
f 64 101 65
f 102 65 101
f 65 103 66
f 103 65 102
f 74 66 103
f 68 84 67
f 69 84 68
f 95 69 72
f 96 69 95
f 96 104 69
f 105 82 69
f 82 106 69
f 84 69 106
f 69 104 105
f 71 70 107
f 107 70 75
f 92 71 108
f 92 73 71
f 108 71 109
f 107 109 71
f 110 93 72
f 95 72 93
f 72 73 110
f 73 92 110
f 111 74 103
f 74 111 112
f 74 112 76
f 111 75 112
f 75 113 114
f 75 114 115
f 107 75 115
f 111 113 75
f 112 75 76
f 82 105 77
f 77 105 78
f 105 104 78
f 97 78 104
f 79 106 80
f 83 106 79
f 80 106 81
f 106 82 81
f 106 83 84
f 88 85 87
f 116 87 86
f 92 116 86
f 87 117 88
f 118 87 119
f 87 118 117
f 119 87 116
f 89 88 120
f 120 88 117
f 89 121 122
f 120 121 89
f 122 123 89
f 124 89 123
f 90 89 124
f 98 90 124
f 110 91 94
f 91 110 92
f 125 92 108
f 92 125 116
f 93 110 94
f 96 97 104
f 126 98 127
f 127 98 124
f 99 98 126
f 100 99 126
f 128 101 100
f 100 129 128
f 126 129 100
f 130 102 101
f 128 130 101
f 130 103 102
f 103 130 131
f 131 111 103
f 109 107 132
f 115 132 107
f 133 108 109
f 133 125 108
f 109 134 133
f 135 109 132
f 135 134 109
f 111 131 136
f 137 111 136
f 111 137 113
f 113 138 114
f 138 113 139
f 139 113 140
f 113 141 140
f 141 113 137
f 132 114 138
f 115 114 132
f 119 116 142
f 125 142 116
f 143 120 117
f 143 117 118
f 119 144 118
f 118 145 143
f 145 118 144
f 142 146 119
f 119 146 144
f 121 120 147
f 147 120 148
f 148 120 143
f 122 121 149
f 149 121 147
f 122 149 123
f 150 124 123
f 123 149 147
f 123 147 150
f 127 124 150
f 142 125 133
f 129 126 127
f 129 127 150
f 129 151 128
f 152 130 128
f 151 152 128
f 129 150 151
f 130 152 153
f 131 130 153
f 131 153 136
f 135 132 154
f 154 132 138
f 155 142 133
f 155 133 134
f 134 156 155
f 156 134 157
f 134 135 157
f 157 135 154
f 158 136 153
f 137 136 158
f 137 158 159
f 141 137 160
f 161 160 137
f 137 159 161
f 154 138 139
f 145 162 139
f 139 140 145
f 162 157 139
f 157 154 139
f 140 163 145
f 163 140 141
f 163 141 160
f 155 146 142
f 143 164 148
f 164 143 145
f 146 145 144
f 156 145 146
f 145 156 162
f 145 165 164
f 166 165 145
f 166 145 167
f 167 145 163
f 155 156 146
f 147 148 165
f 166 147 165
f 168 150 147
f 147 166 168
f 164 165 148
f 168 151 150
f 151 169 159
f 159 152 151
f 151 168 169
f 153 152 158
f 159 158 152
f 162 156 157
f 159 169 170
f 170 161 159
f 167 163 160
f 167 160 161
f 167 161 170
f 171 168 166
f 171 166 172
f 172 166 167
f 173 172 167
f 173 167 170
f 168 174 169
f 168 171 174
f 173 169 174
f 173 170 169
f 173 174 171
f 173 171 172
