# Generated by Visualization Toolkit
v 0.023482000455260277 -0.08859600126743317 0.057583000510931015
v 0.024971000850200653 -0.08819899708032608 0.058361999690532684
v 0.024320000782608986 -0.08680199831724167 0.05852700024843216
v 0.020919999107718468 -0.08718699961900711 0.05608399957418442
v 0.02092999964952469 -0.0866210013628006 0.0559069998562336
v 0.023941000923514366 -0.08922000229358673 0.05745600163936615
v 0.022634999826550484 -0.08868200331926346 0.056836001574993134
v 0.028528999537229538 -0.08904600143432617 0.05637200176715851
v 0.026050999760627747 -0.08927399665117264 0.058003999292850494
v 0.024274999275803566 -0.08340699970722198 0.05768999829888344
v 0.02527100034058094 -0.0833669975399971 0.05762400105595589
v 0.02170800045132637 -0.0812549963593483 0.057172998785972595
v 0.01935099996626377 -0.08026900142431259 0.055406998842954636
v 0.020702000707387924 -0.088128000497818 0.055181000381708145
v 0.01928500086069107 -0.08193600177764893 0.05452200025320053
v 0.019345000386238098 -0.08532100170850754 0.05284100025892258
v 0.02005700021982193 -0.08711700141429901 0.05430399999022484
v 0.022055000066757202 -0.0892769992351532 0.055597998201847076
v 0.024785999208688736 -0.08974500000476837 0.05698300153017044
v 0.029046999290585518 -0.08847899734973907 0.05604400113224983
v 0.02975199930369854 -0.08584299683570862 0.05551600083708763
v 0.029642999172210693 -0.08516599982976913 0.05554300174117088
v 0.02857300080358982 -0.08396700024604797 0.05599600076675415
v 0.0261049997061491 -0.08279500156641006 0.05685900151729584
v 0.02748499996960163 -0.0899839997291565 0.05577300116419792
v 0.02844100072979927 -0.08934599906206131 0.05522000044584274
v 0.025141000747680664 -0.082846999168396 0.05728499963879585
v 0.023439999669790268 -0.07756400108337402 0.0571880005300045
v 0.01830100081861019 -0.07516200095415115 0.05581799894571304
v 0.015977000817656517 -0.0738229975104332 0.05407999828457832
v 0.02060999907553196 -0.08948799967765808 0.05442100018262863
v 0.020522000268101692 -0.08892600238323212 0.05429999902844429
v 0.0184749998152256 -0.08202899992465973 0.05183599889278412
v 0.01931699924170971 -0.08477099984884262 0.050244998186826706
v 0.02030700072646141 -0.09059400111436844 0.052609000355005264
v 0.020529000088572502 -0.09014599770307541 0.053394000977277756
v 0.020357999950647354 -0.09074799716472626 0.051906000822782516
v 0.021020999178290367 -0.09033200144767761 0.054009001702070236
v 0.021539000794291496 -0.09097900241613388 0.05326100066304207
v 0.026148999109864235 -0.09013400226831436 0.0545319989323616
v 0.024627000093460083 -0.08991800248622894 0.05329899862408638
v 0.023413000628352165 -0.09090899676084518 0.05216100066900253
v 0.029916999861598015 -0.08681699633598328 0.05409400165081024
v 0.02921699918806553 -0.08851200342178345 0.054708000272512436
v 0.02971399948000908 -0.08489400148391724 0.05409099906682968
v 0.029234999790787697 -0.08406200259923935 0.05486999824643135
v 0.028909999877214432 -0.0837780013680458 0.05414300039410591
v 0.02698500081896782 -0.08294700086116791 0.054944999516010284
v 0.026745999231934547 -0.08277600258588791 0.056352999061346054
v 0.025584999471902847 -0.08246800303459167 0.056386999785900116
v 0.02769000083208084 -0.08892600238323212 0.053068000823259354
v 0.02508999966084957 -0.07918299734592438 0.05506499856710434
v 0.023063000291585922 -0.07373599708080292 0.05686800181865692
v 0.02382900007069111 -0.07395099848508835 0.056251998990774155
v 0.024354999884963036 -0.07592099905014038 0.05585400015115738
v 0.017754999920725822 -0.06796199828386307 0.05698100104928017
v 0.02346399985253811 -0.06984899938106537 0.05712300166487694
v 0.015135999768972397 -0.07079000025987625 0.05383700132369995
v 0.013855000026524067 -0.07009299844503403 0.051461998373270035
v 0.017657000571489334 -0.07935900241136551 0.05159899964928627
v 0.020529000088572502 -0.09113200008869171 0.05242300033569336
v 0.019809000194072723 -0.0835530012845993 0.05014900118112564
v 0.019881000742316246 -0.08190499991178513 0.05052100121974945
v 0.021726999431848526 -0.0885469987988472 0.0482649989426136
v 0.020848000422120094 -0.08601699769496918 0.047745998948812485
v 0.021053999662399292 -0.08451800048351288 0.04831000044941902
v 0.020857999101281166 -0.0908140018582344 0.05132099986076355
v 0.02188199944794178 -0.09123499691486359 0.05097400024533272
v 0.025877000764012337 -0.08916699886322021 0.05198900029063225
v 0.02462499961256981 -0.08997700363397598 0.050296999514102936
v 0.028460999950766563 -0.08754199743270874 0.05244499817490578
v 0.027646999806165695 -0.08461300283670425 0.05242199823260307
v 0.02749899961054325 -0.08334700018167496 0.05360500141978264
v 0.02541700005531311 -0.0831570029258728 0.053585998713970184
v 0.026110999286174774 -0.08271300047636032 0.05536400154232979
v 0.026290999725461006 -0.08794199675321579 0.051134999841451645
v 0.022081000730395317 -0.08263300359249115 0.050652001053094864
v 0.021719999611377716 -0.08171699941158295 0.05096200108528137
v 0.019192000851035118 -0.07882100343704224 0.05094800144433975
v 0.02441900037229061 -0.07596900314092636 0.05455299839377403
v 0.024418000131845474 -0.07178600132465363 0.05542200058698654
v 0.024421999230980873 -0.07397700101137161 0.05480799823999405
v 0.024567000567913055 -0.07180699706077576 0.054478999227285385
v 0.022345000877976418 -0.06381099671125412 0.05862399935722351
v 0.01434400025755167 -0.0686890035867691 0.05379100143909454
v 0.014740999788045883 -0.06509300321340561 0.05600700154900551
v 0.019276000559329987 -0.06482400000095367 0.058591000735759735
v 0.024745000526309013 -0.06374099850654602 0.05822199955582619
v 0.012063000351190567 -0.06481699645519257 0.051270999014377594
v 0.011827999725937843 -0.06647499650716782 0.047756001353263855
v 0.015567000024020672 -0.0712440013885498 0.04826600104570389
v 0.012732000090181828 -0.06591399759054184 0.0537789985537529
v 0.018355000764131546 -0.07914400100708008 0.05029100179672241
v 0.020755000412464142 -0.08382400125265121 0.04911300167441368
v 0.021104000508785248 -0.08259499818086624 0.050301000475883484
v 0.021418999880552292 -0.08353900164365768 0.05007699877023697
v 0.022505000233650208 -0.09023699909448624 0.04946399852633476
v 0.022833000868558884 -0.08869899809360504 0.048172999173402786
v 0.021716000512242317 -0.08509399741888046 0.047481000423431396
v 0.02360299974679947 -0.08489499986171722 0.04896799847483635
v 0.02231300063431263 -0.08371999859809875 0.050494998693466187
v 0.025016000494360924 -0.08840300142765045 0.04912399873137474
v 0.025969000533223152 -0.08615300059318542 0.050880998373031616
v 0.02696700021624565 -0.0837789997458458 0.05277999863028526
v 0.02474600076675415 -0.08438999950885773 0.05143800005316734
v 0.019193999469280243 -0.0728290006518364 0.049580998718738556
v 0.026277000084519386 -0.06322699785232544 0.05607600137591362
v 0.025258999317884445 -0.06578099727630615 0.05250599980354309
v 0.024351999163627625 -0.07183600217103958 0.05366000160574913
v 0.021914999932050705 -0.06231100112199783 0.05826999992132187
v 0.024701999500393867 -0.0620109997689724 0.058028001338243484
v 0.012803000397980213 -0.0641380026936531 0.05230199918150902
v 0.015915999189019203 -0.06328500062227249 0.05590000003576279
v 0.01990400068461895 -0.06166199967265129 0.05698699876666069
v 0.011969000101089478 -0.06415999680757523 0.048781998455524445
v 0.012215999886393547 -0.06358599662780762 0.04899299889802933
v 0.012292000465095043 -0.06338399648666382 0.04781800135970116
v 0.013249999843537807 -0.06413599848747253 0.04605000093579292
v 0.015096999704837799 -0.06591500341892242 0.04482400044798851
v 0.019133999943733215 -0.06943800300359726 0.048493001610040665
v 0.017212999984622 -0.0655440017580986 0.04434800148010254
v 0.025971999391913414 -0.06192699819803238 0.0555649995803833
v 0.026649000123143196 -0.06300699710845947 0.05388600006699562
v 0.025722000747919083 -0.06184700131416321 0.05041100084781647
v 0.022477999329566956 -0.06067299842834473 0.05654599890112877
v 0.023869000375270844 -0.06125099956989288 0.05660099908709526
v 0.021244000643491745 -0.0611019991338253 0.05688999965786934
v 0.024560999125242233 -0.060478001832962036 0.05396600067615509
v 0.020468000322580338 -0.062084000557661057 0.051419999450445175
v 0.02081199921667576 -0.061882998794317245 0.04786999896168709
v 0.021661000326275826 -0.060465000569820404 0.05561099946498871
v 0.013597999699413776 -0.06314600259065628 0.04659400135278702
v 0.0155239999294281 -0.0630749985575676 0.04558800160884857
v 0.015203000046312809 -0.06408599764108658 0.044766999781131744
v 0.01710899919271469 -0.06416100263595581 0.04441500082612038
v 0.019415000453591347 -0.0633929967880249 0.04610700160264969
v 0.02628600038588047 -0.06156500056385994 0.053068000823259354
v 0.02413799986243248 -0.06105399876832962 0.0501680001616478
v 0.02302899956703186 -0.060029998421669006 0.05557600036263466
v 0.023421000689268112 -0.060430001467466354 0.05608699843287468
v 0.022276999428868294 -0.06028499826788902 0.05490899831056595
v 0.022905999794602394 -0.06089499965310097 0.05318000167608261
v 0.017090000212192535 -0.06304600089788437 0.04549200087785721
f 1 2 3
f 4 1 5
f 6 2 1
f 4 7 1
f 6 1 7
f 5 1 3
f 8 3 2
f 9 8 2
f 9 2 6
f 10 3 11
f 11 3 8
f 12 3 10
f 13 5 3
f 13 3 12
f 7 4 14
f 4 5 14
f 13 15 5
f 15 16 5
f 5 16 17
f 17 14 5
f 6 7 18
f 6 19 9
f 18 19 6
f 14 18 7
f 20 21 8
f 22 8 21
f 22 23 8
f 23 24 8
f 24 11 8
f 25 8 9
f 20 8 26
f 8 25 26
f 25 9 19
f 12 10 27
f 11 27 10
f 27 11 24
f 27 28 12
f 29 12 28
f 30 13 12
f 12 29 30
f 13 30 15
f 31 18 14
f 32 14 17
f 14 32 31
f 16 15 33
f 33 15 30
f 16 33 34
f 16 35 36
f 16 36 17
f 34 37 16
f 37 35 16
f 32 17 36
f 18 38 39
f 40 19 18
f 18 31 38
f 41 18 42
f 18 39 42
f 18 41 40
f 40 25 19
f 43 21 20
f 44 43 20
f 44 20 26
f 21 45 22
f 21 43 45
f 46 22 45
f 23 22 46
f 23 47 48
f 23 49 24
f 48 49 23
f 46 47 23
f 24 50 27
f 49 50 24
f 26 25 40
f 44 26 51
f 51 26 40
f 28 27 52
f 50 52 27
f 28 53 29
f 53 28 54
f 52 55 28
f 55 54 28
f 56 29 57
f 53 57 29
f 29 56 58
f 58 30 29
f 59 30 58
f 30 59 60
f 60 33 30
f 61 38 31
f 61 31 36
f 31 32 36
f 62 34 33
f 63 62 33
f 33 60 63
f 64 37 34
f 64 34 65
f 34 66 65
f 66 34 62
f 61 36 35
f 35 37 67
f 61 35 67
f 37 64 67
f 38 61 39
f 61 68 39
f 42 39 68
f 51 40 69
f 40 41 69
f 41 70 69
f 41 42 70
f 70 42 68
f 71 72 43
f 43 44 71
f 45 43 72
f 51 71 44
f 72 47 45
f 46 45 47
f 73 48 47
f 73 47 72
f 73 74 48
f 75 48 74
f 75 49 48
f 49 75 50
f 75 52 50
f 69 76 51
f 71 51 76
f 77 78 52
f 77 52 74
f 52 78 79
f 52 79 80
f 75 74 52
f 52 80 55
f 54 81 53
f 57 53 81
f 82 83 54
f 82 54 55
f 81 54 83
f 82 55 80
f 57 84 56
f 58 56 85
f 85 56 86
f 84 87 56
f 87 86 56
f 57 88 84
f 88 57 81
f 59 58 85
f 59 89 90
f 60 59 91
f 59 85 92
f 92 89 59
f 59 90 91
f 93 63 60
f 91 93 60
f 67 68 61
f 63 94 62
f 94 66 62
f 79 63 93
f 78 77 63
f 77 95 63
f 94 63 96
f 63 95 96
f 78 63 79
f 67 64 68
f 97 64 98
f 98 64 65
f 97 68 64
f 99 98 65
f 66 99 65
f 96 66 94
f 99 66 100
f 66 101 100
f 101 66 96
f 97 70 68
f 70 102 69
f 76 69 102
f 102 70 97
f 103 71 76
f 103 72 71
f 104 72 103
f 104 73 72
f 104 74 73
f 101 77 74
f 105 101 74
f 105 74 104
f 76 102 103
f 77 101 95
f 79 91 106
f 106 80 79
f 93 91 79
f 106 82 80
f 107 88 81
f 81 83 108
f 107 81 108
f 109 82 106
f 109 83 82
f 109 108 83
f 110 87 84
f 111 110 84
f 88 111 84
f 92 85 86
f 92 86 112
f 86 113 112
f 113 86 87
f 114 87 110
f 113 87 114
f 111 88 107
f 115 89 116
f 89 92 112
f 112 116 89
f 89 115 90
f 115 117 90
f 118 90 117
f 119 91 90
f 118 119 90
f 120 106 91
f 119 121 91
f 91 121 120
f 96 95 101
f 102 97 98
f 99 100 98
f 100 102 98
f 100 101 105
f 100 105 103
f 103 102 100
f 105 104 103
f 108 109 106
f 108 106 120
f 107 122 111
f 123 107 108
f 122 107 123
f 120 124 108
f 108 124 123
f 125 110 126
f 110 111 126
f 110 127 114
f 127 110 125
f 128 126 111
f 128 111 122
f 129 112 113
f 116 112 130
f 112 129 130
f 131 113 114
f 113 131 129
f 131 114 127
f 116 117 115
f 117 116 130
f 132 118 117
f 132 117 130
f 133 118 132
f 134 119 118
f 134 118 133
f 134 135 119
f 121 119 135
f 124 120 136
f 121 136 120
f 135 136 121
f 122 137 128
f 122 123 137
f 137 123 124
f 138 124 130
f 124 136 130
f 137 124 128
f 138 128 124
f 139 127 125
f 126 140 125
f 140 139 125
f 128 140 126
f 139 131 127
f 128 139 140
f 141 139 128
f 142 128 138
f 141 128 142
f 131 141 129
f 141 142 129
f 129 142 130
f 130 136 143
f 132 130 133
f 143 133 130
f 130 142 138
f 131 139 141
f 135 134 133
f 135 133 143
f 135 143 136
