# Generated by Visualization Toolkit
v 0.016459999606013298 -0.031254999339580536 -0.009682999923825264
v 0.006000000052154064 -0.028519999235868454 -0.008334999904036522
v 0.006000000052154064 -0.031254999339580536 0.00318100000731647
v 0.02759299986064434 -0.03398999944329262 -0.0030879999976605177
v 0.023854000493884087 -0.040316998958587646 -0.018776999786496162
v 0.030511999502778053 -0.04185499995946884 -0.0039369999431073666
v -0.007977000437676907 -0.0310830008238554 -0.014008999802172184
v 0.006000000052154064 -0.038777001202106476 -0.028074000030755997
v 0.02759299986064434 -0.03398999944329262 0.009448999539017677
v 0.016008999198675156 -0.0346749983727932 0.01549100037664175
v 0.006000000052154064 -0.03535899892449379 0.01332399994134903
v -0.007524999789893627 -0.03450300171971321 0.019814999774098396
v -0.026972999796271324 -0.03364900127053261 0.012753999792039394
v -0.026972999796271324 -0.03364900127053261 -0.006393000017851591
v 0.030511999502778053 -0.04185499995946884 0.01029799971729517
v 0.024484999477863312 -0.05262700095772743 -0.019554000347852707
v 0.030804000794887543 -0.0565590001642704 -0.004021000117063522
v 0.030804000794887543 -0.0565590001642704 0.010382000356912613
v -0.015821000561118126 -0.0466420017182827 -0.023656999692320824
v 0.006000000052154064 -0.04869399964809418 -0.029719000682234764
v 0.019164999946951866 -0.03655499964952469 0.0193719994276762
v 0.006000000052154064 -0.031254999339580536 0.020177999511361122
v -0.0313510000705719 -0.054506998509168625 0.014024999924004078
v -0.011132000014185905 -0.04288100078701973 0.024251999333500862
v -0.0313510000705719 -0.054506998509168625 -0.007664000149816275
v 0.02457600086927414 -0.045958999544382095 0.02602599933743477
v 0.02493700012564659 -0.06835699826478958 -0.020107999444007874
v 0.038683000952005386 -0.06852900236845016 -0.006308000069111586
v 0.038683000952005386 -0.06852900236845016 0.012668999843299389
v 0.02737100049853325 -0.06220199912786484 0.02946300059556961
v -0.015279999934136868 -0.05416499823331833 -0.022991999983787537
v 0.006000000052154064 -0.06818599998950958 -0.023686999455094337
v 0.006000000052154064 -0.03535899892449379 0.036354001611471176
v -0.01537100039422512 -0.04749700054526329 0.02946300059556961
v -0.02785000018775463 -0.05963600054383278 0.013008000329136848
v -0.02785000018775463 -0.05963600054383278 -0.006647000089287758
v 0.006000000052154064 -0.05587499961256981 0.037450000643730164
v 0.02268199995160103 -0.08066699653863907 -0.017335999757051468
v 0.039000000804662704 -0.08220499753952026 -0.007240999955683947
v 0.039000000804662704 -0.08220499753952026 0.013602999970316887
v 0.02863300032913685 -0.07057999819517136 0.03101699985563755
v 0.006000000052154064 -0.058952998369932175 0.03827299922704697
v -0.01104199979454279 -0.06544999778270721 -0.0177800003439188
v 0.006000000052154064 -0.07912900298833847 -0.013818000443279743
v -0.013477000407874584 -0.05929400026798248 0.02713399939239025
v -0.02055400051176548 -0.06271500140428543 0.010889999568462372
v -0.02055400051176548 -0.06271500140428543 -0.004528000019490719
v -0.011312000453472137 -0.06955400109291077 0.024473000317811966
v 0.01961600035429001 -0.11725600063800812 -0.013565000146627426
v 0.03838900104165077 -0.10101400315761566 -0.00622399989515543
v 0.03838900104165077 -0.10101400315761566 0.01258500013500452
v 0.024304000660777092 -0.08408699929714203 0.02569199912250042
v 0.006000000052154064 -0.06715899705886841 0.02840300090610981
v -0.0072559998370707035 -0.10101400315761566 0.019481999799609184
v -0.005361999850720167 -0.07964199781417847 -0.01079300045967102
v 0.006000000052154064 -0.13349899649620056 -0.007784999907016754
v -0.012675999663770199 -0.08015500009059906 0.008601999841630459
v -0.012675999663770199 -0.08015500009059906 -0.002242000075057149
v -0.010049000382423401 -0.13486699759960175 0.007841000333428383
v 0.01709200069308281 -0.18616099655628204 -0.010459999553859234
v 0.03226200118660927 -0.13726100325584412 -0.0044450000859797
v 0.03226200118660927 -0.13726100325584412 0.010805999860167503
v 0.01979699917137623 -0.11041799932718277 0.02014799974858761
v 0.006000000052154064 -0.08357500284910202 0.020452000200748444
v -0.010049000382423401 -0.16974599659442902 0.007841000333428383
v -0.004641000181436539 -0.12666000425815582 0.016266999766230583
v -0.0025659999810159206 -0.13418300449848175 -0.007354999892413616
v 0.006000000052154064 -0.23505899310112 -0.005865999963134527
v -0.010049000382423401 -0.13486699759960175 -0.0014799999771639705
v -0.010049000382423401 -0.16974599659442902 -0.0014799999771639705
v 0.014836999587714672 -0.2545500099658966 -0.007687999866902828
v 0.024091999977827072 -0.2046249955892563 -0.0020719999447464943
v 0.024091999977827072 -0.2046249955892563 0.008433000184595585
v 0.015557999722659588 -0.16940400004386902 0.014934999868273735
v 0.006000000052154064 -0.13418300449848175 0.015243000350892544
v -0.0013940000208094716 -0.2022310048341751 0.012273999862372875
v -0.0075690001249313354 -0.2200150042772293 0.007120999973267317
v -0.00508800009265542 -0.2702830135822296 0.006401000078767538
v -0.001934999949298799 -0.2024029940366745 -0.006577999796718359
v 0.006000000052154064 -0.3044759929180145 -0.006688999943435192
v -0.0006730000022798777 -0.2873769998550415 -0.005026999861001968
v -0.0075690001249313354 -0.2200150042772293 -0.0007600000244565308
v 0.014926999807357788 -0.32003599405288696 -0.007797999773174524
v 0.019423000514507294 -0.27199000120162964 -0.0007159999804571271
v 0.019423000514507294 -0.27199000120162964 0.0070779998786747456
v 0.013753999955952168 -0.253356009721756 0.012718000449240208
v 0.006000000052154064 -0.23471799492835999 0.014147000387310982
v -0.0027469999622553587 -0.2865230143070221 0.013938000425696373
v -0.010631999932229519 -0.3383300006389618 0.00800899975001812
v -0.00508800009265542 -0.2702830135822296 -0.000039999998989515007
v -0.010631999932229519 -0.3383300006389618 -0.0016479999758303165
v 0.006641000043600798 -0.3680039942264557 -0.010592999868094921
v -0.003918999806046486 -0.35320499539375305 -0.009019000455737114
v 0.018624000251293182 -0.36517301201820374 -0.012346000410616398
v 0.021174000576138496 -0.3400390148162842 -0.0012250000145286322
v 0.021174000576138496 -0.3400390148162842 0.007586000021547079
v 0.014565999619662762 -0.32071998715400696 0.013717000372707844
v 0.006000000052154064 -0.30139899253845215 0.01496999990195036
v -0.003197999903932214 -0.3369629979133606 0.014492000453174114
v -0.011215999722480774 -0.37252599000930786 0.008178000338375568
v -0.011215999722480774 -0.37252599000930786 -0.001816999982111156
v -0.0072559998370707035 -0.3814150094985962 -0.013120999559760094
v 0.006000000052154064 -0.3903059959411621 -0.020944999530911446
v 0.020879000425338745 -0.39612099528312683 -0.015118000097572803
v 0.025841999799013138 -0.38688600063323975 -0.002580000087618828
v 0.025841999799013138 -0.38688600063323975 0.00894199963659048
v 0.017812000587582588 -0.3785090148448944 0.01770699955523014
v 0.006000000052154064 -0.3701309859752655 0.020452000200748444
v -0.008879000321030617 -0.3889380097389221 0.021477999165654182
v -0.012391000054776669 -0.3771669864654541 0.013907000422477722
v -0.023763999342918396 -0.40774598717689514 -0.005458999890834093
v -0.023763999342918396 -0.40774598717689514 0.011820999905467033
v -0.0119439996778965 -0.40654999017715454 -0.01888900063931942
v 0.006000000052154064 -0.40535199642181396 -0.023414000868797302
v 0.020788000896573067 -0.40689098834991455 -0.015007000416517258
v 0.03197000175714493 -0.3985140025615692 -0.004360999912023544
v 0.03197000175714493 -0.3985140025615692 0.010722000151872635
v 0.022050999104976654 -0.3928709924221039 0.022919999435544014
v 0.006000000052154064 -0.38722899556159973 0.027580000460147858
v -0.010320999659597874 -0.400052011013031 0.023252999410033226
v -0.02084599994122982 -0.4128760099411011 0.010974000208079815
v -0.02084599994122982 -0.4128760099411011 -0.004614000208675861
v -0.009057999588549137 -0.41407299041748047 -0.01534000039100647
v 0.006000000052154064 -0.41526898741722107 -0.0173799991607666
v 0.01826299913227558 -0.40501001477241516 -0.011901999823749065
v 0.028176000341773033 -0.40671899914741516 -0.003258999902755022
v 0.028176000341773033 -0.40671899914741516 0.009619999676942825
v 0.01961600035429001 -0.40347200632095337 0.019927000626921654
v 0.006000000052154064 -0.4002229869365692 0.02374199964106083
v -0.005541999824345112 -0.40654999017715454 0.017376000061631203
v -0.009465999901294708 -0.4128760099411011 0.007670999970287085
v -0.009465999901294708 -0.4128760099411011 -0.0013099999632686377
v -0.004189999774098396 -0.4080890119075775 -0.009352000430226326
v 0.006000000052154064 -0.40330201387405396 -0.013268999755382538
v 0.013213999569416046 -0.40483900904655457 -0.005692000035196543
v 0.01650499925017357 -0.4091149866580963 0.00013099999341648072
v 0.01650499925017357 -0.4091149866580963 0.00622999994084239
v 0.01357400044798851 -0.4091149866580963 0.012494999915361404
v 0.006000000052154064 -0.4091149866580963 0.016339000314474106
v -0.0028699999675154686 -0.41053900122642517 0.013503000140190125
v -0.006558000110089779 -0.412771999835968 0.010192999616265297
v -0.006558000110089779 -0.412771999835968 0.0034169999416917562
v -0.0015739999944344163 -0.4103119969367981 -0.006134999915957451
v 0.006000000052154064 -0.4005649983882904 -0.008882000111043453
v 0.006000000052154064 -0.403984010219574 0.00318100000731647
f 1 2 3
f 4 1 3
f 1 5 2
f 6 5 1
f 4 6 1
f 2 7 3
f 5 8 2
f 2 8 7
f 9 4 3
f 10 9 3
f 11 10 3
f 12 11 3
f 13 12 3
f 14 13 3
f 7 14 3
f 15 6 4
f 9 15 4
f 5 16 8
f 17 16 5
f 6 17 5
f 18 17 6
f 15 18 6
f 7 19 14
f 8 19 7
f 16 20 8
f 8 20 19
f 21 15 9
f 10 21 9
f 22 21 10
f 11 22 10
f 11 12 22
f 23 24 12
f 13 23 12
f 12 24 22
f 25 23 13
f 14 25 13
f 19 25 14
f 26 18 15
f 21 26 15
f 16 27 20
f 28 27 16
f 17 28 16
f 29 28 17
f 18 29 17
f 30 29 18
f 26 30 18
f 19 31 25
f 20 31 19
f 27 32 20
f 20 32 31
f 33 26 21
f 22 33 21
f 34 33 22
f 24 34 22
f 23 34 24
f 23 35 34
f 36 35 23
f 25 36 23
f 31 36 25
f 37 30 26
f 33 37 26
f 27 38 32
f 27 39 38
f 28 39 27
f 28 40 39
f 29 40 28
f 29 41 40
f 30 41 29
f 42 41 30
f 37 42 30
f 31 43 36
f 32 43 31
f 38 44 32
f 32 44 43
f 45 37 33
f 34 45 33
f 46 45 34
f 35 46 34
f 47 46 35
f 36 47 35
f 43 47 36
f 48 42 37
f 45 48 37
f 38 49 44
f 38 50 49
f 39 50 38
f 39 51 50
f 40 51 39
f 40 52 51
f 41 52 40
f 53 52 41
f 42 53 41
f 54 53 42
f 48 54 42
f 43 55 47
f 44 55 43
f 49 56 44
f 44 56 55
f 57 48 45
f 46 57 45
f 58 57 46
f 47 58 46
f 55 58 47
f 59 54 48
f 57 59 48
f 49 60 56
f 61 60 49
f 50 61 49
f 62 61 50
f 51 62 50
f 63 62 51
f 52 63 51
f 64 63 52
f 53 64 52
f 64 53 54
f 65 66 54
f 59 65 54
f 66 64 54
f 55 67 58
f 56 67 55
f 60 68 56
f 56 68 67
f 69 59 57
f 58 69 57
f 67 69 58
f 70 65 59
f 69 70 59
f 60 71 68
f 72 71 60
f 61 72 60
f 73 72 61
f 62 73 61
f 74 73 62
f 63 74 62
f 75 74 63
f 64 75 63
f 76 75 64
f 66 76 64
f 66 65 77
f 77 65 70
f 78 76 66
f 66 77 78
f 67 79 69
f 68 79 67
f 71 80 68
f 68 80 79
f 79 70 69
f 81 82 70
f 79 81 70
f 82 77 70
f 71 83 80
f 84 83 71
f 72 84 71
f 85 84 72
f 73 85 72
f 86 85 73
f 74 86 73
f 87 86 74
f 75 87 74
f 88 87 75
f 76 88 75
f 89 88 76
f 78 89 76
f 78 77 82
f 90 78 82
f 91 89 78
f 90 91 78
f 80 81 79
f 83 92 80
f 80 92 81
f 81 90 82
f 81 93 90
f 92 93 81
f 83 94 92
f 95 94 83
f 84 95 83
f 96 95 84
f 85 96 84
f 97 96 85
f 86 97 85
f 98 97 86
f 87 98 86
f 99 98 87
f 88 99 87
f 100 99 88
f 89 100 88
f 101 100 89
f 91 101 89
f 93 91 90
f 102 101 91
f 93 102 91
f 94 103 92
f 92 103 93
f 103 102 93
f 94 104 103
f 105 104 94
f 95 105 94
f 106 105 95
f 96 106 95
f 107 106 96
f 97 107 96
f 108 107 97
f 98 108 97
f 109 108 98
f 99 109 98
f 110 99 100
f 99 110 109
f 111 112 100
f 101 111 100
f 110 100 112
f 113 111 101
f 102 113 101
f 103 114 102
f 114 113 102
f 104 114 103
f 104 115 114
f 116 115 104
f 105 116 104
f 117 116 105
f 106 117 105
f 118 117 106
f 107 118 106
f 119 118 107
f 108 119 107
f 120 119 108
f 109 120 108
f 121 120 109
f 112 121 109
f 110 112 109
f 111 122 112
f 123 122 111
f 113 123 111
f 122 121 112
f 114 124 113
f 124 123 113
f 115 124 114
f 115 125 124
f 126 125 115
f 116 126 115
f 127 126 116
f 117 127 116
f 128 127 117
f 118 128 117
f 129 128 118
f 119 129 118
f 130 129 119
f 120 130 119
f 131 130 120
f 121 131 120
f 132 131 121
f 122 132 121
f 133 132 122
f 123 133 122
f 124 134 123
f 134 133 123
f 125 134 124
f 125 135 134
f 136 135 125
f 126 136 125
f 137 136 126
f 127 137 126
f 138 137 127
f 128 138 127
f 139 138 128
f 129 139 128
f 140 139 129
f 130 140 129
f 141 140 130
f 131 141 130
f 142 141 131
f 132 142 131
f 143 142 132
f 133 143 132
f 134 144 133
f 144 143 133
f 135 144 134
f 135 145 144
f 136 145 135
f 137 145 136
f 138 145 137
f 139 145 138
f 140 145 139
f 141 145 140
f 142 145 141
f 143 145 142
f 144 145 143
