# Generated by Visualization Toolkit
v -0.013377999886870384 -0.030131999403238297 -0.023298999294638634
v -0.014759000390768051 -0.029577000066637993 -0.02195500023663044
v -0.013477999716997147 -0.028481999412178993 -0.02354400046169758
v -0.010990000329911709 -0.026771999895572662 -0.025111999362707138
v -0.014058000408113003 -0.031390998512506485 -0.020387999713420868
v -0.010898999869823456 -0.033452000468969345 -0.022304000332951546
v -0.009158999659121037 -0.029500000178813934 -0.023953000083565712
v -0.010058999992907047 -0.032760001718997955 -0.023660000413656235
v -0.014960000291466713 -0.027567999437451363 -0.02181600034236908
v -0.015344999730587006 -0.029030000790953636 -0.01978299953043461
v -0.012625000439584255 -0.02665800042450428 -0.02389100007712841
v -0.010507999919354916 -0.025800999253988266 -0.02572599984705448
v -0.008968000300228596 -0.026662999764084816 -0.025669999420642853
v -0.014891000464558601 -0.02959500066936016 -0.016850000247359276
v -0.010521000251173973 -0.029222000390291214 -0.01819399930536747
v -0.009872999973595142 -0.03376200050115585 -0.022565999999642372
v -0.00890200026333332 -0.033417001366615295 -0.022276999428868294
v -0.0066999997943639755 -0.026355000212788582 -0.025428999215364456
v -0.0021669999696314335 -0.02692599967122078 -0.022369999438524246
v -0.003558000084012747 -0.028473999351263046 -0.02190300077199936
v -0.002532999962568283 -0.029458999633789062 -0.020678000524640083
v -0.005456000100821257 -0.03166799992322922 -0.020836999639868736
v -0.013814999721944332 -0.025066999718546867 -0.022343000397086143
v -0.014902000315487385 -0.026971999555826187 -0.01983099989593029
v -0.011735999956727028 -0.024529999122023582 -0.02496499940752983
v -0.01002500019967556 -0.0243500005453825 -0.027542000636458397
v -0.008698999881744385 -0.02495500072836876 -0.027509000152349472
v -0.012039000168442726 -0.022690000012516975 -0.01716800034046173
v -0.009591000154614449 -0.02033199928700924 -0.01671300083398819
v -0.005884999874979258 -0.025107000023126602 -0.017849000170826912
v -0.006876000203192234 -0.028655000030994415 -0.018262000754475594
v -0.004056000150740147 -0.03057900071144104 -0.019845999777317047
v -0.00447099981829524 -0.02303599938750267 -0.030595999211072922
v -0.001449999981559813 -0.0272659994661808 -0.020885000005364418
v -0.0005779999773949385 -0.025557000190019608 -0.024296000599861145
v -0.00026599998818710446 -0.025426000356674194 -0.022554000839591026
v -0.003289999905973673 -0.024116000160574913 -0.028294000774621964
v -0.002142000012099743 -0.02661300078034401 -0.01889999955892563
v -0.012206999585032463 -0.022702999413013458 -0.023746000602841377
v -0.011342000216245651 -0.020065000280737877 -0.022917000576853752
v -0.010156000033020973 -0.020326999947428703 -0.01799900084733963
v -0.010910999961197376 -0.02273399941623211 -0.02746099978685379
v -0.01245300006121397 -0.020540999248623848 -0.02886199951171875
v -0.008005999960005283 -0.024000000208616257 -0.030073000118136406
v -0.009686999954283237 -0.023024000227451324 -0.030424999073147774
v -0.009832000359892845 -0.019345000386238098 -0.017596999183297157
v -0.00849200040102005 -0.01920199953019619 -0.016822999343276024
v -0.004335000179708004 -0.02150999940931797 -0.016502000391483307
v 0.00002300000051036477 -0.021810999140143394 -0.017076000571250916
v -0.0012610000558197498 -0.024994999170303345 -0.01941400021314621
v -0.007879000157117844 -0.021914999932050705 -0.03281699866056442
v -0.0028359999414533377 -0.021990999579429626 -0.031108999624848366
v -0.004730000160634518 -0.020989999175071716 -0.031989000737667084
v -0.0003870000073220581 -0.023756999522447586 -0.021157000213861465
v 0.001183000043965876 -0.024174999445676804 -0.023533999919891357
v 0.0017719999887049198 -0.022634999826550484 -0.022373000159859657
v -0.001471000025048852 -0.022516999393701553 -0.02911599911749363
v -0.011490000411868095 -0.02007799968123436 -0.02549000084400177
v -0.010737000033259392 -0.017821000888943672 -0.02390100061893463
v -0.010538999922573566 -0.018490999937057495 -0.020961999893188477
v -0.009885000064969063 -0.016894999891519547 -0.022928999736905098
v -0.01247899979352951 -0.01907699927687645 -0.02794099971652031
v -0.009851000271737576 -0.021245000883936882 -0.03152000159025192
v -0.012217000126838684 -0.018415000289678574 -0.02795100025832653
v -0.010475999675691128 -0.01673099957406521 -0.02015800029039383
v -0.007845999673008919 -0.01748800091445446 -0.018681000918149948
v -0.0036279999185353518 -0.020183999091386795 -0.01611899957060814
v -0.004993000067770481 -0.016320999711751938 -0.020617999136447906
v 0.0006389999762177467 -0.01918799988925457 -0.0162579994648695
v 0.00013000000035390258 -0.021501999348402023 -0.018519999459385872
v 0.0004670000053010881 -0.02213600091636181 -0.019816000014543533
v -0.007133000064641237 -0.01984100043773651 -0.03136499971151352
v -0.002452000044286251 -0.02022700011730194 -0.030090000480413437
v -0.005468000192195177 -0.01939000003039837 -0.030757000669836998
v 0.0012750000460073352 -0.01886500045657158 -0.02241400070488453
v 0.0027890000492334366 -0.02130899950861931 -0.02383200079202652
v -0.01166400033980608 -0.018397999927401543 -0.026580000296235085
v -0.01183599978685379 -0.0177800003439188 -0.02792000025510788
v -0.010228999890387058 -0.0162540003657341 -0.020862000063061714
v -0.00853899959474802 -0.015413999557495117 -0.02302899956703186
v -0.007883000187575817 -0.016025999560952187 -0.024375999346375465
v -0.010174999944865704 -0.017342999577522278 -0.02913999930024147
v -0.008337999694049358 -0.017966000363230705 -0.03032499924302101
v -0.0038560000248253345 -0.014557999558746815 -0.0228860005736351
v -0.0012329999590292573 -0.01293299999088049 -0.024164000526070595
v 0.00044800000614486635 -0.014449999667704105 -0.021926000714302063
v 0.0007769999792799354 -0.015797000378370285 -0.020332999527454376
v 0.0007849999819882214 -0.01590000092983246 -0.021483000367879868
v -0.0020129999611526728 -0.016116000711917877 -0.028774000704288483
v -0.004435000009834766 -0.01833299919962883 -0.030175000429153442
v -0.006850999779999256 -0.016589999198913574 -0.028912000358104706
v -0.005750999785959721 -0.016930999234318733 -0.029527999460697174
v 0.0010870000114664435 -0.014686999842524529 -0.023346999660134315
v 0.0029690000228583813 -0.015425000339746475 -0.024783000349998474
v 0.0025969999842345715 -0.015487000346183777 -0.026210999116301537
v -0.009030000306665897 -0.01671300083398819 -0.02875100076198578
v -0.004832000005990267 -0.01450899988412857 -0.02483999915421009
v -0.004517000168561935 -0.015017000027000904 -0.02672100067138672
v -0.0024840000551193953 -0.012954999692738056 -0.024646999314427376
v -0.0007060000207275152 -0.012608000077307224 -0.025673000141978264
v -0.00007500000356230885 -0.013117000460624695 -0.02370700053870678
v -0.004784999880939722 -0.016457000747323036 -0.028346000239253044
v -0.003131000092253089 -0.014809999614953995 -0.027746999636292458
v -0.0004560000088531524 -0.013655999675393105 -0.027272000908851624
v 0.0013729999773204327 -0.013172999955713749 -0.02571900002658367
f 1 2 3
f 1 3 4
f 1 5 2
f 6 5 1
f 7 1 4
f 1 7 8
f 6 1 8
f 2 9 3
f 10 9 2
f 5 10 2
f 9 11 3
f 4 3 11
f 4 11 12
f 4 13 7
f 13 4 12
f 5 14 10
f 5 15 14
f 6 15 5
f 6 8 16
f 6 16 17
f 15 6 17
f 18 7 13
f 7 19 20
f 7 20 21
f 7 21 22
f 8 7 17
f 17 7 22
f 18 19 7
f 17 16 8
f 11 9 23
f 24 23 9
f 9 10 24
f 14 24 10
f 23 25 11
f 11 25 12
f 12 25 26
f 27 12 26
f 27 13 12
f 27 18 13
f 24 14 28
f 15 28 14
f 15 29 28
f 15 30 29
f 31 30 15
f 32 15 22
f 32 31 15
f 15 17 22
f 33 19 18
f 27 33 18
f 20 19 34
f 35 36 19
f 35 19 37
f 19 33 37
f 19 36 34
f 34 21 20
f 32 21 38
f 21 34 38
f 22 21 32
f 39 25 23
f 24 40 23
f 23 40 39
f 24 28 41
f 24 41 40
f 42 25 39
f 26 25 42
f 26 42 43
f 44 26 45
f 44 27 26
f 26 43 45
f 27 44 33
f 28 29 41
f 41 29 46
f 47 46 29
f 30 48 29
f 47 29 48
f 31 38 30
f 30 49 48
f 49 30 50
f 38 50 30
f 31 32 38
f 33 44 51
f 33 52 37
f 51 53 33
f 52 33 53
f 38 34 50
f 34 54 50
f 54 34 36
f 35 55 36
f 37 55 35
f 36 56 54
f 56 36 55
f 55 37 57
f 52 57 37
f 58 42 39
f 59 58 39
f 59 39 40
f 60 40 41
f 40 60 61
f 40 61 59
f 41 46 60
f 62 43 42
f 62 42 58
f 63 43 64
f 64 43 62
f 63 45 43
f 51 44 45
f 51 45 63
f 46 65 60
f 46 47 66
f 65 46 66
f 67 68 47
f 47 68 66
f 48 67 47
f 48 69 67
f 69 48 49
f 50 70 49
f 69 49 70
f 71 70 50
f 50 54 71
f 72 51 63
f 51 72 53
f 53 73 52
f 73 57 52
f 53 72 74
f 53 74 73
f 56 75 54
f 54 75 71
f 56 55 76
f 76 55 57
f 56 76 75
f 57 73 76
f 58 77 62
f 58 59 77
f 77 59 78
f 61 78 59
f 60 65 79
f 61 60 79
f 61 79 80
f 81 61 80
f 61 81 78
f 62 77 64
f 63 64 82
f 63 82 83
f 63 83 72
f 77 78 64
f 64 78 82
f 66 79 65
f 66 68 79
f 67 69 68
f 79 68 84
f 68 85 84
f 86 85 68
f 68 69 87
f 86 68 87
f 87 69 88
f 88 69 70
f 88 70 75
f 71 75 70
f 83 74 72
f 76 73 89
f 73 90 89
f 90 73 74
f 74 83 91
f 74 92 90
f 74 91 92
f 93 88 75
f 76 94 75
f 93 75 94
f 89 95 76
f 94 76 95
f 78 96 82
f 96 78 81
f 79 84 80
f 84 97 80
f 81 80 97
f 81 98 96
f 81 97 98
f 83 82 96
f 91 83 96
f 85 99 84
f 84 99 97
f 100 99 85
f 101 100 85
f 86 101 85
f 87 88 86
f 88 93 86
f 93 101 86
f 102 89 90
f 103 104 89
f 89 104 95
f 89 102 103
f 102 90 92
f 98 91 96
f 102 91 98
f 91 102 92
f 94 105 93
f 93 105 101
f 105 94 95
f 95 104 105
f 98 97 99
f 104 98 100
f 103 102 98
f 98 104 103
f 98 99 100
f 104 100 105
f 100 101 105
