# Generated by Visualization Toolkit
v -0.005640000104904175 -0.017322000116109848 0.013969000428915024
v -0.009151999838650227 -0.01857900060713291 0.011381000280380249
v -0.008341999724507332 -0.01818300038576126 0.014596999622881413
v -0.004191000014543533 -0.018031999468803406 0.013093000277876854
v -0.0013620000099763274 -0.019175000488758087 0.013395999558269978
v -0.007000999990850687 -0.018644999712705612 0.01496300008147955
v -0.0050050001591444016 -0.01788800023496151 0.012335999868810177
v -0.012865999713540077 -0.021554000675678253 0.01278700027614832
v -0.007563000079244375 -0.020459000021219254 0.007416999898850918
v -0.007019999902695417 -0.018928999081254005 0.009347000159323215
v -0.010092999786138535 -0.022502999752759933 0.006132000125944614
v -0.011256000027060509 -0.023327000439167023 0.006808999925851822
v -0.012423999607563019 -0.0226259995251894 0.016287999227643013
v -0.0029060000088065863 -0.018124999478459358 0.011901999823749065
v -0.003984999842941761 -0.022220000624656677 0.015604999847710133
v -0.0011149999918416142 -0.018735000863671303 0.011971999891102314
v -0.000022000000171829015 -0.020572999492287636 0.01425199955701828
v -0.013952000066637993 -0.025191999971866608 0.01628899946808815
v -0.015116999857127666 -0.02812499925494194 0.009670999832451344
v -0.011296999640762806 -0.026951000094413757 0.0037430000957101583
v -0.004253999795764685 -0.02000799961388111 0.008510000072419643
v -0.00394099997356534 -0.02395699918270111 0.005820999853312969
v -0.002581000095233321 -0.01880599930882454 0.010178999975323677
v -0.012474000453948975 -0.028571000322699547 0.004127999767661095
v -0.014417000114917755 -0.028937000781297684 0.007007999811321497
v -0.00849399995058775 -0.023871999233961105 0.01629900000989437
v -0.005123000126332045 -0.0236859992146492 0.016152000054717064
v -0.0012240000069141388 -0.02507600001990795 0.01596900075674057
v -0.0006699999794363976 -0.02259800024330616 0.016138000413775444
v -0.0009749999735504389 -0.01885100081562996 0.010677999816834927
v 0.00006399999983841553 -0.0192709993571043 0.011494000442326069
v 0.0031240000389516354 -0.02004699967801571 0.012582999654114246
v -0.015018000267446041 -0.029889000579714775 0.011884000152349472
v -0.009015999734401703 -0.025609999895095825 0.015159999951720238
v -0.014657000079751015 -0.03139900043606758 0.008937000297009945
v -0.010598000138998032 -0.029688000679016113 0.0035929998848587275
v -0.008554999716579914 -0.02875800058245659 0.003450999967753887
v -0.0005430000019259751 -0.023222999647259712 0.007837999612092972
v 0.0003929999948013574 -0.020715000107884407 0.009053999558091164
v 0.0004349999944679439 -0.025272000581026077 0.008174999617040157
v -0.0051449998281896114 -0.026982000097632408 0.004534999839961529
v -0.0021200000774115324 -0.025546999648213387 0.006657000165432692
v 0.00016199999663513154 -0.019605999812483788 0.010178999975323677
v -0.013585999608039856 -0.03169099986553192 0.006527000106871128
v -0.012060999870300293 -0.030866000801324844 0.004507000092417002
v -0.0050929998978972435 -0.026480000466108322 0.015521000139415264
v -0.002013999968767166 -0.02675200067460537 0.016318999230861664
v 0.00025099999038502574 -0.026604000478982925 0.014826999977231026
v 0.0011879999656230211 -0.023096000775694847 0.015731999650597572
v 0.003037000074982643 -0.020042000338435173 0.009983000345528126
v 0.0016870000399649143 -0.02517399936914444 0.01423100009560585
v -0.005381000228226185 -0.02775299921631813 0.013415999710559845
v -0.004604000132530928 -0.028867999091744423 0.008963000029325485
v -0.00949500035494566 -0.029858000576496124 0.004317999817430973
v -0.010577999986708164 -0.03082999959588051 0.005160000175237656
v 0.003134000115096569 -0.020913999527692795 0.00947600044310093
v -0.002701000077649951 -0.027031999081373215 0.006591999903321266
v 0.0026680000592023134 -0.02672800049185753 0.009571000002324581
v -0.003522000042721629 -0.02811799943447113 0.0075170001946389675
v 0.0003110000106971711 -0.028087999671697617 0.014933999627828598
v 0.001560000004246831 -0.028111999854445457 0.012978999875485897
v 0.0025339999701827765 -0.02638399973511696 0.012281999923288822
v -0.0014459999511018395 -0.02873300015926361 0.010161999613046646
v -0.000805000017862767 -0.028193999081850052 0.008836000226438046
v 0.0023769999388605356 -0.027334000915288925 0.009885000064969063
f 1 2 3
f 4 1 5
f 6 1 3
f 1 7 2
f 6 5 1
f 7 1 4
f 8 3 2
f 9 2 10
f 2 9 11
f 2 11 12
f 8 2 12
f 10 2 7
f 3 13 6
f 8 13 3
f 5 14 4
f 14 7 4
f 5 6 15
f 5 16 14
f 17 16 5
f 15 17 5
f 15 6 13
f 14 10 7
f 18 8 19
f 13 8 18
f 8 12 19
f 20 11 9
f 9 21 22
f 20 9 22
f 10 23 9
f 23 21 9
f 14 23 10
f 20 12 11
f 24 12 20
f 12 25 19
f 25 12 24
f 13 18 26
f 13 26 27
f 15 13 27
f 23 14 16
f 27 28 15
f 28 29 15
f 15 29 17
f 16 30 23
f 30 16 31
f 17 31 16
f 17 29 32
f 32 31 17
f 18 19 33
f 34 18 33
f 34 26 18
f 19 35 33
f 25 35 19
f 36 20 37
f 24 20 36
f 20 22 37
f 38 22 21
f 39 21 23
f 21 39 38
f 40 22 38
f 22 41 37
f 42 41 22
f 42 22 40
f 43 23 30
f 43 39 23
f 44 24 45
f 24 44 25
f 45 24 36
f 25 44 35
f 26 34 46
f 46 27 26
f 46 47 27
f 47 28 27
f 28 48 49
f 28 47 48
f 29 28 49
f 49 32 29
f 30 31 43
f 32 50 31
f 50 43 31
f 51 50 32
f 32 49 51
f 34 33 52
f 33 35 53
f 53 52 33
f 52 46 34
f 44 53 35
f 36 37 54
f 55 45 36
f 55 36 54
f 37 41 54
f 56 38 39
f 56 40 38
f 43 50 39
f 50 56 39
f 57 42 40
f 56 58 40
f 58 57 40
f 59 54 41
f 41 42 57
f 41 57 59
f 45 55 44
f 55 53 44
f 52 47 46
f 60 48 47
f 52 60 47
f 61 48 60
f 48 61 51
f 51 49 48
f 50 62 58
f 62 50 51
f 50 58 56
f 62 51 61
f 52 53 63
f 63 60 52
f 59 53 55
f 63 53 59
f 59 55 54
f 59 57 64
f 57 58 64
f 65 58 62
f 58 65 64
f 63 59 64
f 63 61 60
f 65 62 61
f 61 63 65
f 64 65 63
