# Generated by Visualization Toolkit
v -0.013477999716997147 -0.028481999412178993 0.02354400046169758
v -0.014759000390768051 -0.029577000066637993 0.02195500023663044
v -0.013377999886870384 -0.030131999403238297 0.023298999294638634
v -0.012625000439584255 -0.02665800042450428 0.02389100007712841
v -0.014960000291466713 -0.027567999437451363 0.02181600034236908
v -0.010990000329911709 -0.026771999895572662 0.025111999362707138
v -0.014058000408113003 -0.031390998512506485 0.020387999713420868
v -0.015344999730587006 -0.029030000790953636 0.01978299953043461
v -0.010898999869823456 -0.033452000468969345 0.022304000332951546
v -0.009158999659121037 -0.029500000178813934 0.023953000083565712
v -0.010058999992907047 -0.032760001718997955 0.023660000413656235
v -0.011735999956727028 -0.024529999122023582 0.02496499940752983
v -0.013814999721944332 -0.025066999718546867 0.022343000397086143
v -0.010507999919354916 -0.025800999253988266 0.02572599984705448
v -0.014902000315487385 -0.026971999555826187 0.01983099989593029
v -0.008968000300228596 -0.026662999764084816 0.025669999420642853
v -0.014891000464558601 -0.02959500066936016 0.016850000247359276
v -0.010521000251173973 -0.029222000390291214 0.01819399930536747
v -0.009872999973595142 -0.03376200050115585 0.022565999999642372
v -0.00890200026333332 -0.033417001366615295 0.022276999428868294
v -0.0066999997943639755 -0.026355000212788582 0.025428999215364456
v -0.003558000084012747 -0.028473999351263046 0.02190300077199936
v -0.0021669999696314335 -0.02692599967122078 0.022369999438524246
v -0.002532999962568283 -0.029458999633789062 0.020678000524640083
v -0.005456000100821257 -0.03166799992322922 0.020836999639868736
v -0.012206999585032463 -0.022702999413013458 0.023746000602841377
v -0.010910999961197376 -0.02273399941623211 0.02746099978685379
v -0.01002500019967556 -0.0243500005453825 0.027542000636458397
v -0.011342000216245651 -0.020065000280737877 0.022917000576853752
v -0.008698999881744385 -0.02495500072836876 0.027509000152349472
v -0.010156000033020973 -0.020326999947428703 0.01799900084733963
v -0.012039000168442726 -0.022690000012516975 0.01716800034046173
v -0.009591000154614449 -0.02033199928700924 0.01671300083398819
v -0.005884999874979258 -0.025107000023126602 0.017849000170826912
v -0.006876000203192234 -0.028655000030994415 0.018262000754475594
v -0.004056000150740147 -0.03057900071144104 0.019845999777317047
v -0.00447099981829524 -0.02303599938750267 0.030595999211072922
v -0.001449999981559813 -0.0272659994661808 0.020885000005364418
v -0.00026599998818710446 -0.025426000356674194 0.022554000839591026
v -0.0005779999773949385 -0.025557000190019608 0.024296000599861145
v -0.003289999905973673 -0.024116000160574913 0.028294000774621964
v -0.002142000012099743 -0.02661300078034401 0.01889999955892563
v -0.011490000411868095 -0.02007799968123436 0.02549000084400177
v -0.010737000033259392 -0.017821000888943672 0.02390100061893463
v -0.01245300006121397 -0.020540999248623848 0.02886199951171875
v -0.01247899979352951 -0.01907699927687645 0.02794099971652031
v -0.009686999954283237 -0.023024000227451324 0.030424999073147774
v -0.008005999960005283 -0.024000000208616257 0.030073000118136406
v -0.010538999922573566 -0.018490999937057495 0.020961999893188477
v -0.009885000064969063 -0.016894999891519547 0.022928999736905098
v -0.009832000359892845 -0.019345000386238098 0.017596999183297157
v -0.00849200040102005 -0.01920199953019619 0.016822999343276024
v -0.004335000179708004 -0.02150999940931797 0.016502000391483307
v 0.00002300000051036477 -0.021810999140143394 0.017076000571250916
v -0.0012610000558197498 -0.024994999170303345 0.01941400021314621
v -0.007879000157117844 -0.021914999932050705 0.03281699866056442
v -0.0028359999414533377 -0.021990999579429626 0.031108999624848366
v -0.004730000160634518 -0.020989999175071716 0.031989000737667084
v -0.0003870000073220581 -0.023756999522447586 0.021157000213861465
v 0.0017719999887049198 -0.022634999826550484 0.022373000159859657
v 0.001183000043965876 -0.024174999445676804 0.023533999919891357
v -0.001471000025048852 -0.022516999393701553 0.02911599911749363
v -0.01166400033980608 -0.018397999927401543 0.026580000296235085
v -0.01183599978685379 -0.0177800003439188 0.02792000025510788
v -0.012217000126838684 -0.018415000289678574 0.02795100025832653
v -0.009851000271737576 -0.021245000883936882 0.03152000159025192
v -0.010475999675691128 -0.01673099957406521 0.02015800029039383
v -0.010228999890387058 -0.0162540003657341 0.020862000063061714
v -0.00853899959474802 -0.015413999557495117 0.02302899956703186
v -0.007883000187575817 -0.016025999560952187 0.024375999346375465
v -0.007845999673008919 -0.01748800091445446 0.018681000918149948
v -0.004993000067770481 -0.016320999711751938 0.020617999136447906
v -0.0036279999185353518 -0.020183999091386795 0.01611899957060814
v 0.0006389999762177467 -0.01918799988925457 0.0162579994648695
v 0.00013000000035390258 -0.021501999348402023 0.018519999459385872
v 0.0004670000053010881 -0.02213600091636181 0.019816000014543533
v -0.007133000064641237 -0.01984100043773651 0.03136499971151352
v -0.002452000044286251 -0.02022700011730194 0.030090000480413437
v -0.005468000192195177 -0.01939000003039837 0.030757000669836998
v 0.0012750000460073352 -0.01886500045657158 0.02241400070488453
v 0.0027890000492334366 -0.02130899950861931 0.02383200079202652
v -0.010174999944865704 -0.017342999577522278 0.02913999930024147
v -0.009030000306665897 -0.01671300083398819 0.02875100076198578
v -0.008337999694049358 -0.017966000363230705 0.03032499924302101
v -0.0038560000248253345 -0.014557999558746815 0.0228860005736351
v -0.004832000005990267 -0.01450899988412857 0.02483999915421009
v -0.004517000168561935 -0.015017000027000904 0.02672100067138672
v -0.0012329999590292573 -0.01293299999088049 0.024164000526070595
v 0.00044800000614486635 -0.014449999667704105 0.021926000714302063
v 0.0007769999792799354 -0.015797000378370285 0.020332999527454376
v 0.0007849999819882214 -0.01590000092983246 0.021483000367879868
v -0.0020129999611526728 -0.016116000711917877 0.028774000704288483
v -0.004435000009834766 -0.01833299919962883 0.030175000429153442
v -0.006850999779999256 -0.016589999198913574 0.028912000358104706
v -0.005750999785959721 -0.016930999234318733 0.029527999460697174
v 0.0010870000114664435 -0.014686999842524529 0.023346999660134315
v 0.0029690000228583813 -0.015425000339746475 0.024783000349998474
v 0.0025969999842345715 -0.015487000346183777 0.026210999116301537
v -0.0024840000551193953 -0.012954999692738056 0.024646999314427376
v -0.0007060000207275152 -0.012608000077307224 0.025673000141978264
v -0.0004560000088531524 -0.013655999675393105 0.027272000908851624
v -0.004784999880939722 -0.016457000747323036 0.028346000239253044
v -0.003131000092253089 -0.014809999614953995 0.027746999636292458
v -0.00007500000356230885 -0.013117000460624695 0.02370700053870678
v 0.0013729999773204327 -0.013172999955713749 0.02571900002658367
f 1 2 3
f 1 4 5
f 1 5 2
f 6 1 3
f 4 1 6
f 2 7 3
f 2 5 8
f 2 8 7
f 3 7 9
f 6 3 10
f 11 10 3
f 11 3 9
f 4 12 13
f 13 5 4
f 14 4 6
f 14 12 4
f 5 13 15
f 15 8 5
f 10 16 6
f 14 6 16
f 8 17 7
f 17 18 7
f 7 18 9
f 8 15 17
f 19 11 9
f 20 19 9
f 20 9 18
f 16 10 21
f 22 23 10
f 24 22 10
f 25 24 10
f 20 10 11
f 25 10 20
f 10 23 21
f 11 19 20
f 13 12 26
f 26 12 27
f 28 12 14
f 27 12 28
f 13 29 15
f 26 29 13
f 28 14 30
f 14 16 30
f 31 32 15
f 32 17 15
f 29 31 15
f 16 21 30
f 17 32 18
f 32 33 18
f 33 34 18
f 18 34 35
f 25 18 36
f 18 35 36
f 25 20 18
f 21 23 37
f 21 37 30
f 22 24 38
f 38 23 22
f 23 39 40
f 41 23 40
f 41 37 23
f 38 39 23
f 42 24 36
f 42 38 24
f 36 24 25
f 26 27 43
f 26 43 44
f 29 26 44
f 27 45 46
f 43 27 46
f 45 27 28
f 47 28 48
f 28 30 48
f 47 45 28
f 31 29 49
f 50 49 29
f 44 50 29
f 37 48 30
f 31 33 32
f 51 33 31
f 49 51 31
f 33 51 52
f 33 53 34
f 53 33 52
f 34 42 35
f 53 54 34
f 55 34 54
f 34 55 42
f 42 36 35
f 56 48 37
f 41 57 37
f 37 58 56
f 58 37 57
f 55 38 42
f 55 59 38
f 39 38 59
f 59 60 39
f 39 61 40
f 61 39 60
f 40 61 41
f 62 41 61
f 41 62 57
f 46 63 43
f 63 44 43
f 64 44 63
f 44 64 50
f 65 45 66
f 46 45 65
f 45 47 66
f 65 63 46
f 47 48 56
f 66 47 56
f 49 67 51
f 68 67 49
f 68 49 50
f 69 68 50
f 69 50 70
f 64 70 50
f 71 52 51
f 71 51 67
f 52 72 73
f 71 72 52
f 52 73 53
f 73 74 53
f 54 53 74
f 54 75 55
f 75 54 74
f 55 75 76
f 76 59 55
f 66 56 77
f 58 77 56
f 57 78 58
f 57 62 78
f 79 77 58
f 78 79 58
f 59 80 60
f 76 80 59
f 80 81 60
f 81 61 60
f 62 61 81
f 81 78 62
f 65 64 63
f 82 64 65
f 82 83 64
f 70 64 83
f 82 65 66
f 84 82 66
f 77 84 66
f 67 68 71
f 68 72 71
f 69 85 68
f 85 72 68
f 69 86 85
f 86 69 70
f 83 87 70
f 87 86 70
f 85 88 72
f 72 88 89
f 90 74 72
f 90 72 89
f 72 74 73
f 91 74 90
f 75 74 91
f 80 75 91
f 75 80 76
f 77 79 84
f 92 78 81
f 92 93 78
f 79 78 93
f 94 84 79
f 93 95 79
f 95 94 79
f 80 91 96
f 80 97 81
f 97 80 96
f 81 98 92
f 98 81 97
f 83 82 84
f 83 84 94
f 83 94 87
f 85 99 88
f 86 99 85
f 99 86 87
f 100 87 101
f 87 102 103
f 87 94 102
f 103 101 87
f 100 99 87
f 88 99 100
f 88 100 104
f 88 104 89
f 89 91 90
f 89 96 91
f 89 104 96
f 93 92 102
f 92 101 103
f 98 101 92
f 103 102 92
f 95 93 102
f 95 102 94
f 96 105 97
f 104 105 96
f 98 97 105
f 105 101 98
f 105 100 101
f 105 104 100
