# Generated by Visualization Toolkit
v -0.25 -0.05000000074505806 -0.25
v -0.25 -0.05000000074505806 0.30000001192092896
v -0.25 0 -0.25
v -0.25 0 0.30000001192092896
v 1.5 -0.05000000074505806 -0.25
v 1.5 -0.05000000074505806 0.30000001192092896
v 1.5 0 -0.25
v 1.5 0 0.30000001192092896
v -0.25 -0.05000000074505806 -0.25
v -0.25 -0.05000000074505806 0.30000001192092896
v 1.5 -0.05000000074505806 -0.25
v 1.5 -0.05000000074505806 0.30000001192092896
v -0.25 0 -0.25
v -0.25 0 0.30000001192092896
v 1.5 0 -0.25
v 1.5 0 0.30000001192092896
v -0.25 -0.05000000074505806 -0.25
v 1.5 -0.05000000074505806 -0.25
v -0.25 0 -0.25
v 1.5 0 -0.25
v -0.25 -0.05000000074505806 0.30000001192092896
v 1.5 -0.05000000074505806 0.30000001192092896
v -0.25 0 0.30000001192092896
v 1.5 0 0.30000001192092896
f 1 2 3
f 2 4 3
f 5 7 6
f 7 8 6
f 9 11 10
f 11 12 10
f 13 14 15
f 14 16 15
f 17 19 18
f 19 20 18
f 21 22 23
f 22 24 23
