# Generated by Visualization Toolkit
v -0.0027910000644624233 -0.01080199982970953 0.013712000101804733
v -0.008368000388145447 -0.012117000296711922 0.01357599999755621
v -0.006227000150829554 -0.005998999811708927 0.019077999517321587
v -0.001091000041924417 -0.006372000090777874 0.017514999955892563
v -0.007908999919891357 -0.012536000460386276 0.014026000164449215
v -0.00761700002476573 -0.012698999606072903 0.014688000082969666
v -0.0009869999485090375 -0.010583999566733837 0.014096999540925026
v -0.0004939999780617654 -0.012896999716758728 0.01619499921798706
v -0.009177000261843204 -0.009207000024616718 0.0171509999781847
v -0.009708000347018242 -0.01448800042271614 0.015533000230789185
v -0.006399999838322401 -0.0056500001810491085 0.02017199993133545
v -0.003519000019878149 -0.005578999873250723 0.019101999700069427
v 0.0030129998922348022 -0.010692999698221684 0.01650799997150898
v 0.0019779999274760485 -0.010222000069916248 0.015437999740242958
v -0.0007910000276751816 -0.005789999850094318 0.02032499946653843
v -0.001689000055193901 -0.005491000134497881 0.01984100043773651
v -0.010096999816596508 -0.016565000638365746 0.018456000834703445
v -0.009056000038981438 -0.017487000674009323 0.020224999636411667
v 0.002216000109910965 -0.01092000026255846 0.015355999581515789
v 0.0023849999997764826 -0.011412999592721462 0.015600999817252159
v 0.0032579998951405287 -0.016032999381422997 0.020186999812722206
v 0.0032389999832957983 -0.012299999594688416 0.017176000401377678
v -0.009096000343561172 -0.011886999942362309 0.02000799961388111
v -0.010014999657869339 -0.014485999941825867 0.019838999956846237
v -0.004643999971449375 -0.005772000178694725 0.02246900089085102
v -0.005218000151216984 -0.005166999995708466 0.020918000489473343
v -0.006912999786436558 -0.007969999685883522 0.02278199978172779
v -0.002002999885007739 -0.005135000217705965 0.020423000678420067
v 0.0034759999252855778 -0.011807999573647976 0.017775999382138252
v 0.002814000006765127 -0.011144000105559826 0.015953000634908676
v 0.0024240000639110804 -0.016092000529170036 0.027900999411940575
v -0.0007450000266544521 -0.0067159999161958694 0.023729000240564346
v -0.0013150000013411045 -0.00506900018081069 0.021284999325871468
v 0.0037320000119507313 -0.01570799946784973 0.020431999117136
v -0.009092000313103199 -0.016032999381422997 0.022174999117851257
v -0.008197999559342861 -0.01809299923479557 0.021000999957323074
v -0.007075999863445759 -0.016815999522805214 0.02380800060927868
v -0.006940000224858522 -0.018561000004410744 0.021244000643491745
v 0.004108999855816364 -0.019387999549508095 0.022362999618053436
v -0.0030269999988377094 -0.02057499997317791 0.022665999829769135
v -0.007652999833226204 -0.011262999847531319 0.02231599949300289
v -0.008356000296771526 -0.012954000383615494 0.02133299969136715
v -0.0035520000383257866 -0.0056039998307824135 0.022887999191880226
v -0.004807999823242426 -0.0092550003901124 0.025026999413967133
v -0.002988999942317605 -0.005078999791294336 0.022427000105381012
v -0.002607000060379505 -0.004869000054895878 0.021445000544190407
v -0.006450999993830919 -0.011171000078320503 0.02424200065433979
v 0.0016210000030696392 -0.014615999534726143 0.027840999886393547
v 0.002322999993339181 -0.018404999747872353 0.028241999447345734
v 0.0031530000269412994 -0.01742899976670742 0.02798200026154518
v 0.0020729999523609877 -0.016547000035643578 0.028147999197244644
v -0.0021039999555796385 -0.005485000088810921 0.023104000836610794
v -0.0016919999616220593 -0.007977000437676907 0.02526099979877472
v 0.0037789999041706324 -0.020364999771118164 0.026713000610470772
v 0.004536000080406666 -0.02151300013065338 0.02418299950659275
v -0.005183999892324209 -0.013939999975264072 0.02354400046169758
v -0.004869000054895878 -0.02006700076162815 0.022683000192046165
v -0.004910999909043312 -0.016506999731063843 0.02554599940776825
v -0.002707999898120761 -0.021178999915719032 0.02393300086259842
v -0.002432999899610877 -0.019898999482393265 0.02809000015258789
v 0.00430000014603138 -0.022027000784873962 0.023603999987244606
v 0.0038040000945329666 -0.022213999181985855 0.02327599935233593
v 0.0020639998838305473 -0.022265000268816948 0.02317499928176403
v -0.002635000040754676 -0.02116299979388714 0.023151999339461327
v -0.000977999996393919 -0.011625999584794044 0.027022000402212143
v -0.0035180000122636557 -0.012404000386595726 0.025345999747514725
v -0.0002899999963119626 -0.014894000254571438 0.027605999261140823
v 0.0016850000247359276 -0.01707799918949604 0.028214000165462494
v 0.003350999904796481 -0.02071000076830387 0.027076000347733498
v 0.0009560000034980476 -0.02150700055062771 0.025800999253988266
v -0.00037799999699927866 -0.02025499939918518 0.02818400040268898
v 0.0009360000258311629 -0.017746999859809875 0.028622999787330627
v 0.004064999986439943 -0.021355999633669853 0.025394000113010406
v 0.0035649999044835567 -0.021687999367713928 0.025807000696659088
v 0.004234999883919954 -0.022045999765396118 0.02439800091087818
v -0.002814000006765127 -0.015116999857127666 0.02381099946796894
v -0.003014999907463789 -0.016826000064611435 0.02788200043141842
v -0.0021619999315589666 -0.018022999167442322 0.028591999784111977
v 0.0038189999759197235 -0.02249700017273426 0.023780999705195427
v 0.0036510000936686993 -0.022425999864935875 0.024455999955534935
v -0.0016639999812468886 -0.013748999685049057 0.026419000700116158
v -0.0006370000191964209 -0.016110999509692192 0.028193999081850052
v -0.0020910000894218683 -0.01548799965530634 0.026290999725461006
f 1 2 3
f 1 3 4
f 5 2 1
f 6 5 1
f 4 7 1
f 8 1 7
f 1 8 6
f 2 9 3
f 10 9 2
f 10 2 5
f 3 9 11
f 12 4 3
f 3 11 12
f 13 14 4
f 15 13 4
f 16 15 4
f 12 16 4
f 4 14 7
f 10 5 6
f 10 6 17
f 6 18 17
f 8 18 6
f 14 19 7
f 7 20 8
f 19 20 7
f 8 21 18
f 8 20 22
f 21 8 22
f 23 9 10
f 11 9 23
f 10 24 23
f 10 17 24
f 11 25 26
f 12 11 26
f 11 23 27
f 25 11 27
f 28 12 26
f 16 12 28
f 14 13 19
f 29 13 15
f 30 13 29
f 19 13 30
f 31 15 32
f 32 15 33
f 15 28 33
f 15 16 28
f 31 34 15
f 29 15 34
f 24 17 35
f 35 17 18
f 36 37 18
f 21 38 18
f 18 37 35
f 38 36 18
f 19 30 20
f 30 22 20
f 21 34 39
f 21 40 38
f 22 34 21
f 40 21 39
f 29 22 30
f 22 29 34
f 41 27 23
f 23 24 42
f 23 42 41
f 24 35 42
f 26 25 43
f 27 44 25
f 25 44 43
f 26 43 45
f 45 46 26
f 46 28 26
f 27 41 47
f 27 47 44
f 33 28 46
f 48 31 32
f 49 50 31
f 51 31 48
f 51 49 31
f 34 31 50
f 33 52 32
f 53 32 52
f 48 32 53
f 52 33 46
f 54 34 50
f 34 54 55
f 39 34 55
f 42 35 56
f 37 56 35
f 37 36 57
f 38 57 36
f 58 56 37
f 37 57 59
f 37 59 60
f 37 60 58
f 38 40 57
f 55 61 39
f 39 61 62
f 39 62 40
f 40 63 64
f 40 62 63
f 57 40 64
f 42 56 41
f 47 41 56
f 45 43 52
f 52 43 53
f 53 43 44
f 53 44 65
f 44 47 65
f 45 52 46
f 56 66 47
f 47 66 65
f 48 67 68
f 51 48 68
f 53 65 48
f 65 67 48
f 69 50 49
f 49 70 69
f 51 68 49
f 70 49 71
f 71 49 72
f 72 49 68
f 50 69 54
f 54 73 55
f 74 54 69
f 74 73 54
f 55 75 61
f 55 73 75
f 56 58 76
f 66 56 76
f 57 64 59
f 60 77 58
f 58 77 76
f 59 71 60
f 63 59 64
f 59 70 71
f 59 63 70
f 60 78 77
f 71 78 60
f 61 79 62
f 61 75 79
f 63 62 79
f 63 80 70
f 63 79 80
f 65 66 81
f 65 81 67
f 66 76 81
f 72 68 67
f 67 81 82
f 82 72 67
f 70 74 69
f 80 74 70
f 78 71 72
f 72 82 78
f 80 73 74
f 73 80 75
f 75 80 79
f 83 76 77
f 81 76 83
f 82 83 77
f 82 77 78
f 81 83 82
