# Generated by Visualization Toolkit
v 0.0136626698076725 -0.24179044365882874 -0.05345864221453667
v 0.015221551060676575 -0.23568229377269745 -0.05108749866485596
v 0.012417659163475037 -0.2398451417684555 -0.04446471482515335
v 0.008518097922205925 -0.24447673559188843 -0.04894895851612091
v 0.00663484912365675 -0.2408169060945511 -0.05679343268275261
v 0.005869732238352299 -0.2345181107521057 -0.055842943489551544
v -0.00110517384018749 -0.2432558834552765 -0.053422875702381134
v -0.002876254729926586 -0.23555175960063934 -0.05217839032411575
v 0.003853264730423689 -0.24353979527950287 -0.04130913317203522
v 0.009485534392297268 -0.23284953832626343 -0.04298282414674759
v 0.004032560624182224 -0.23561248183250427 -0.03905094787478447
v 0.0022410063538700342 -0.24647271633148193 -0.046036314219236374
v -0.0034331746865063906 -0.23631584644317627 -0.03998937830328941
v -0.003955089021474123 -0.24274641275405884 -0.04172613471746445
v -0.004694872535765171 -0.24667476117610931 -0.04287714511156082
v -0.0006767065497115254 -0.24722303450107574 -0.0428919717669487
v -0.0009167535463348031 -0.2500256299972534 -0.04502124339342117
v -0.005390291102230549 -0.24762055277824402 -0.04548220708966255
v -0.00482612568885088 -0.24350151419639587 -0.0469171442091465
v -0.005041551776230335 -0.23620769381523132 -0.045469965785741806
v 0.007084230426698923 -0.01238812692463398 -0.0015168995596468449
v 0.0052511985413730145 -0.010255404748022556 -0.002125341445207596
v 0.001269484288059175 -0.01227840781211853 0.0006871512159705162
v 0.004811271093785763 -0.016062581911683083 0.0035607379395514727
v 0.004004734102636576 -0.018036870285868645 -0.0003419616259634495
v 0.004513712599873543 -0.013498948886990547 -0.005911799613386393
v 0.0051358952187001705 -0.009703845717012882 -0.006132334005087614
v 0.0013842589687556028 -0.015847180038690567 -0.009633352980017662
v 0.001547594671137631 -0.010716129094362259 -0.00774293253198266
v -0.005450238008052111 -0.010685569606721401 -0.011059539392590523
v -0.0060496521182358265 -0.008551045320928097 -0.0013330611400306225
v 0.0020182740408927202 -0.022496143355965614 0.002419367665424943
v 0.0022472036071121693 -0.018299559131264687 0.010432174429297447
v -0.008425912819802761 -0.014885790646076202 0.01286921463906765
v -0.007834614254534245 -0.021850313991308212 0.009762551635503769
v -0.007509984541684389 -0.026856468990445137 0.004999685566872358
v -0.0019428515806794167 -0.0255245603621006 -0.002928574103862047
v -0.001181623782031238 -0.015506638213992119 0.007627866230905056
v -0.007389115635305643 -0.012407036498188972 0.007402966730296612
v -0.008286445401608944 -0.02152581326663494 -0.01810905709862709
v -0.0016195098869502544 -0.018845459446310997 -0.014672866091132164
v -0.0038669821806252003 -0.029896695166826248 -0.007066832389682531
v -0.004835072904825211 -0.03598538413643837 -0.009757393971085548
v -0.008942456915974617 -0.031079834327101707 -0.018103325739502907
v -0.012585549615323544 -0.008923790417611599 -0.013378385454416275
v -0.01784878596663475 -0.01948828436434269 -0.01767951436340809
v -0.01968284882605076 -0.01090305857360363 -0.01380903460085392
v -0.017005320638418198 -0.02833366021513939 -0.01892840303480625
v -0.010746526531875134 -0.005610575433820486 -0.0029495046474039555
v -0.015107322484254837 -0.002058526733890176 -0.011150553822517395
v -0.01212860457599163 -0.0011668483493849635 -0.0036171344108879566
v -0.02134409174323082 -0.0033705958630889654 -0.010523494333028793
v -0.0053803506307303905 0.011370670050382614 0.0071553923189640045
v -0.009917980059981346 0.013338186778128147 0.008500535041093826
v -0.014552266336977482 0.008708735927939415 0.012833589687943459
v -0.009745091199874878 0.005491459742188454 0.008062653243541718
v -0.009825997985899448 0.004463170189410448 -0.0020987731404602528
v -0.00464616809040308 0.011939586140215397 -0.0011869007721543312
v -0.011817090213298798 0.014114358462393284 0.001972793135792017
v -0.018905064091086388 0.009948709048330784 0.006605631671845913
v -0.015634967014193535 -0.00987680722028017 0.007984738796949387
v -0.011432250961661339 -0.007420466281473637 0.005208329763263464
v -0.012391877360641956 -0.0011483944253996015 0.006438303738832474
v -0.01754601299762726 0.00006257218774408102 0.013886397704482079
v -0.02625933289527893 0.004032335709780455 0.01016007736325264
v -0.025717973709106445 -0.006721715908497572 0.0037326873280107975
v -0.025813104584813118 -0.015602009370923042 0.0004277708940207958
v -0.01704161986708641 -0.017008855938911438 0.0032901137601584196
v -0.0134474141523242 0.013920677825808525 -0.00559224234893918
v -0.011132769286632538 0.010116168297827244 -0.010608533397316933
v -0.01803566887974739 0.008718063123524189 -0.010994454845786095
v -0.020798280835151672 0.010870825499296188 -0.001037574838846922
v -0.013994441367685795 0.0035957442596554756 -0.0111800916492939
v -0.02116245962679386 0.003660453949123621 -0.010442927479743958
v -0.028304098173975945 0.0052327304147183895 0.0019596244674175978
v -0.028330422937870026 -0.003964405506849289 -0.004846887197345495
v -0.02676567994058132 -0.01288879569619894 -0.008073410019278526
v -0.02522471360862255 -0.02105613984167576 -0.009744539856910706
v -0.02577781118452549 -0.023524431511759758 -0.0009528533555567265
v -0.025494415313005447 -0.030925357714295387 -0.0028244578279554844
v -0.016723953187465668 -0.03130784258246422 -0.001026669517159462
v -0.016800232231616974 -0.024328704923391342 0.001271586399525404
v -0.024243533611297607 -0.028924547135829926 -0.011458201333880424
v -0.02382507361471653 -0.036400239914655685 -0.013663168996572495
v -0.024917077273130417 -0.038035061210393906 -0.005649066064506769
v -0.017331823706626892 -0.03606865182518959 -0.02027963474392891
v -0.01765623316168785 -0.04348975047469139 -0.021747194230556488
v -0.023613182827830315 -0.04375887289643288 -0.01599743589758873
v -0.00971290748566389 -0.03857458010315895 -0.01900586485862732
v -0.010311278514564037 -0.04558246582746506 -0.020333724096417427
v -0.010549244470894337 -0.0523073710501194 -0.022175392135977745
v -0.017658546566963196 -0.05078095942735672 -0.02314130775630474
v -0.00615548575296998 -0.042393945157527924 -0.011963073164224625
v -0.006983249913901091 -0.04897402226924896 -0.013723811134696007
v -0.007606430444866419 -0.055422455072402954 -0.015777237713336945
v -0.00781545415520668 -0.06198578327894211 -0.017607932910323143
v -0.01074509508907795 -0.05920775979757309 -0.02373109944164753
v -0.010097998194396496 -0.05133580043911934 -0.008108438923954964
v -0.010293456725776196 -0.05797860398888588 -0.010110285133123398
v -0.010220911353826523 -0.064658522605896 -0.011561708524823189
v -0.00993130262941122 -0.07124977558851242 -0.012840377166867256
v -0.007922877557575703 -0.06855851411819458 -0.019106484949588776
v -0.017430324107408524 -0.05865069851279259 -0.010615253821015358
v -0.017399583011865616 -0.06567027419805527 -0.011934475973248482
v -0.01723572239279747 -0.07259081304073334 -0.013033287599682808
v -0.016825072467327118 -0.07948703318834305 -0.013928361237049103
v -0.009456897154450417 -0.0778244212269783 -0.014133557677268982
v -0.023471316322684288 -0.06638466566801071 -0.014860006049275398
v -0.023190703243017197 -0.07348500937223434 -0.016191605478525162
v -0.02266654744744301 -0.08049482107162476 -0.017369309440255165
v -0.022096533328294754 -0.08752355724573135 -0.018549861386418343
v -0.016117451712489128 -0.08638673275709152 -0.014964569360017776
v -0.021384447813034058 -0.07307196408510208 -0.021909868344664574
v -0.020535912364721298 -0.0802147313952446 -0.022922426462173462
v -0.01950201950967312 -0.08731664717197418 -0.023910826072096825
v -0.01837172545492649 -0.09446179866790771 -0.024301690980792046
v -0.021373288705945015 -0.09455792605876923 -0.01925303414463997
v -0.0157198254019022 -0.07978798449039459 -0.027662502601742744
v -0.01462007500231266 -0.0869765654206276 -0.028725842013955116
v -0.013352576643228531 -0.09426488727331161 -0.02914000116288662
v -0.011971816420555115 -0.10163072496652603 -0.02944628708064556
v -0.0171189121901989 -0.10164056718349457 -0.024770379066467285
v -0.0082316305488348 -0.0870252326130867 -0.029184410348534584
v -0.006266800221055746 -0.09423195570707321 -0.03048909269273281
v -0.004953333176672459 -0.1017618477344513 -0.03103461302816868
v -0.003792727366089821 -0.10922350734472275 -0.03170732036232948
v -0.010898887179791927 -0.10891547799110413 -0.03003779985010624
v -0.005306825041770935 -0.0961383804678917 -0.024444200098514557
v -0.004354843869805336 -0.1034257560968399 -0.025245897471904755
v -0.0033186611253768206 -0.11067186295986176 -0.026248296722769737
v -0.002627002540975809 -0.11785394698381424 -0.027045143768191338
v -0.0031776265241205692 -0.11654040962457657 -0.03230947628617287
v -0.005622963421046734 -0.10533017665147781 -0.01946132257580757
v -0.004606164991855621 -0.11235582828521729 -0.02087736316025257
v -0.0036040933337062597 -0.11940912157297134 -0.021868828684091568
v -0.002672813134267926 -0.12648196518421173 -0.022739075124263763
v -0.0020654352847486734 -0.12494348734617233 -0.027854522690176964
v -0.012106231413781643 -0.11425845324993134 -0.019159266725182533
v -0.01107911579310894 -0.12121840566396713 -0.0202142633497715
v -0.009999634698033333 -0.1282026320695877 -0.021182626485824585
v -0.009036228992044926 -0.1351829320192337 -0.022305456921458244
v -0.0019130671862512827 -0.13354052603244781 -0.023750556632876396
v -0.017724450677633286 -0.12236770987510681 -0.02301192656159401
v -0.01668195240199566 -0.12933073937892914 -0.023789314553141594
v -0.01565672643482685 -0.1362466812133789 -0.024775980040431023
v -0.014671767130494118 -0.1431676298379898 -0.025609053671360016
v -0.008113802410662174 -0.14211632311344147 -0.023445753380656242
v -0.014541689306497574 -0.12970112264156342 -0.028087200596928596
v -0.01399784255772829 -0.13663172721862793 -0.029089918360114098
v -0.013424474745988846 -0.1435408890247345 -0.03005332686007023
v -0.012746104970574379 -0.15053723752498627 -0.03060338832437992
v -0.013634761795401573 -0.1501847356557846 -0.02615499310195446
v -0.009377424605190754 -0.13702401518821716 -0.03279491886496544
v -0.009034757502377033 -0.1438939869403839 -0.03391025960445404
v -0.00873601995408535 -0.15088048577308655 -0.034629806876182556
v -0.008221669122576714 -0.15791717171669006 -0.03513951227068901
v -0.012077901512384415 -0.15760356187820435 -0.03118465654551983
v -0.002428612671792507 -0.14444194734096527 -0.03533913567662239
v -0.002095418283715844 -0.15143762528896332 -0.03605334460735321
v -0.001870577922090888 -0.1584303081035614 -0.036579620093107224
v -0.001389496959745884 -0.165348619222641 -0.03731788694858551
v -0.00757682416588068 -0.16489925980567932 -0.03599948063492775
v 0.00005121583308209665 -0.15278096497058868 -0.031609050929546356
v 0.0009106173529289663 -0.15970002114772797 -0.03267238661646843
v 0.0017646956257522106 -0.16660495102405548 -0.03390197828412056
v 0.002744863275438547 -0.17345061898231506 -0.03548705577850342
v -0.0008077264646999538 -0.1722273975610733 -0.03845208138227463
v 0.0009575699223205447 -0.16144022345542908 -0.027988223358988762
v 0.001734084915369749 -0.168415829539299 -0.029388194903731346
v 0.002473015571013093 -0.17534835636615753 -0.03108266182243824
v 0.003533444367349148 -0.18228287994861603 -0.032705485820770264
v 0.003994387574493885 -0.1803647130727768 -0.03713230788707733
v -0.0038993144407868385 -0.17024576663970947 -0.027287499979138374
v -0.0027057805564254522 -0.17725485563278198 -0.028659353032708168
v -0.0013715231325477362 -0.18427243828773499 -0.029928045347332954
v -0.00006129726534709334 -0.19129525125026703 -0.031201491132378578
v 0.004758808296173811 -0.18932966887950897 -0.03420184552669525
v -0.008838976733386517 -0.1784316897392273 -0.03019528277218342
v -0.007762731984257698 -0.18545986711978912 -0.03143130615353584
v -0.0067780097015202045 -0.19245250523090363 -0.03266886621713638
v -0.005891372449696064 -0.19955432415008545 -0.03399542719125748
v 0.0010113583412021399 -0.19852155447006226 -0.03251764550805092
v -0.009120985865592957 -0.18555279076099396 -0.03624410927295685
v -0.00861416943371296 -0.19253729283809662 -0.03762678802013397
v -0.008069612085819244 -0.19965341687202454 -0.03898503631353378
v -0.007436803542077541 -0.20690754055976868 -0.04029299318790436
v -0.005157776176929474 -0.20682044327259064 -0.035247836261987686
v -0.004923936910927296 -0.1925991177558899 -0.04178336262702942
v -0.004359990358352661 -0.19972196221351624 -0.04319675266742706
v -0.003939121961593628 -0.20691350102424622 -0.0446639209985733
v -0.0036414810456335545 -0.21419981122016907 -0.04608958214521408
v -0.00678897462785244 -0.21427670121192932 -0.04147250950336456
v 0.0018804492428898811 -0.20049405097961426 -0.043684348464012146
v 0.0024028830230236053 -0.20766094326972961 -0.04536351189017296
v 0.0028659116942435503 -0.21478915214538574 -0.04698867350816727
v 0.003578813746571541 -0.22164547443389893 -0.048974744975566864
v -0.003109233919531107 -0.2215026468038559 -0.04757433757185936
v 0.006797690410166979 -0.2092599719762802 -0.04283224046230316
v 0.007323863450437784 -0.21646647155284882 -0.044315386563539505
v 0.008601335808634758 -0.2232542484998703 -0.04619099199771881
v 0.010949956253170967 -0.22952009737491608 -0.04841598868370056
v 0.00469592958688736 -0.22803109884262085 -0.05206762254238129
v 0.006717716343700886 -0.21876408159732819 -0.04007109999656677
v 0.007402307819575071 -0.22598975896835327 -0.041630905121564865
v 0.0027693905867636204 -0.22067499160766602 -0.03661166876554489
v 0.0032703012693673372 -0.2281126081943512 -0.03791167959570885
v -0.003551653353497386 -0.22151242196559906 -0.03796296939253807
v -0.003337311092764139 -0.22899091243743896 -0.038910187780857086
v -0.006024528294801712 -0.2217443436384201 -0.042652279138565063
v -0.005336418282240629 -0.22918274998664856 -0.04399493336677551
v -0.0024241746868938208 -0.2286284863948822 -0.049526188522577286
v -0.004348937422037125 -0.2141348421573639 -0.036582838743925095
v 0.0023091258481144905 -0.21323661506175995 -0.03528180718421936
v 0.0017486554570496082 -0.20585450530052185 -0.03394688665866852
v 0.006461588200181723 -0.2113751322031021 -0.038635946810245514
v 0.006138569675385952 -0.20401395857334137 -0.03713421896100044
v 0.005718310829252005 -0.1966599076986313 -0.0355943888425827
v 0.0061847614124417305 -0.20200367271900177 -0.041294313967227936
v 0.0056380657479166985 -0.19477899372577667 -0.039798785001039505
v 0.005148214288055897 -0.1874774843454361 -0.03856991231441498
v 0.0013240126427263021 -0.19336946308612823 -0.04222074896097183
v 0.0007899380289018154 -0.1862555593252182 -0.04098467156291008
v -0.000039066129829734564 -0.17917798459529877 -0.039750345051288605
v -0.005548062734305859 -0.18558518588542938 -0.040468886494636536
v -0.00631439033895731 -0.1786302626132965 -0.03904714062809944
v -0.006935540586709976 -0.17177556455135345 -0.03738204389810562
v -0.009777958504855633 -0.17859810590744019 -0.034832872450351715
v -0.010517253540456295 -0.1716703176498413 -0.03333113342523575
v -0.01130006555467844 -0.1646849662065506 -0.03202895447611809
v -0.009950751438736916 -0.1714261770248413 -0.02882850356400013
v -0.011240496300160885 -0.16438868641853333 -0.02757306583225727
v -0.012526030652225018 -0.15726758539676666 -0.02676077000796795
v -0.005071128718554974 -0.16321876645088196 -0.025980360805988312
v -0.006175896152853966 -0.1561345010995865 -0.025088215246796608
v -0.007157555781304836 -0.14909937977790833 -0.02431027963757515
v 0.00017418069182895124 -0.15444283187389374 -0.026883920654654503
v -0.0005819767829962075 -0.1474524438381195 -0.02598150074481964
v -0.0012493499089032412 -0.14051218330860138 -0.024891801178455353
v -0.0006584246293641627 -0.1458095759153366 -0.030775858089327812
v -0.001146575785242021 -0.13892517983913422 -0.0296520683914423
v -0.0016193538904190063 -0.13198897242546082 -0.028614962473511696
v -0.0028121655341237783 -0.137587308883667 -0.034255728125572205
v -0.0030358615331351757 -0.13066548109054565 -0.03341733664274216
v -0.003212293144315481 -0.1236480176448822 -0.032838162034749985
v -0.009866669774055481 -0.13007794320583344 -0.032018695026636124
v -0.010224532335996628 -0.1230359673500061 -0.03143613412976265
v -0.01040357630699873 -0.11600317806005478 -0.03080064244568348
v -0.015131032094359398 -0.12269674986600876 -0.02735675312578678
v -0.01568801887333393 -0.11570713669061661 -0.026637522503733635
v -0.016217827796936035 -0.10872585326433182 -0.025552930310368538
v -0.018674729391932487 -0.11540376394987106 -0.02216258831322193
v -0.019499346613883972 -0.10848037898540497 -0.02097787894308567
v -0.020444858819246292 -0.10156965255737305 -0.01998753286898136
v -0.013053230941295624 -0.1072881892323494 -0.017833156511187553
v -0.014120981097221375 -0.10029389709234238 -0.016790153458714485
v -0.015210911631584167 -0.09333068877458572 -0.01591821014881134
v -0.0066716307774186134 -0.09828470647335052 -0.018284711986780167
v -0.007729311939328909 -0.09135497361421585 -0.017161505296826363
v -0.008649264462292194 -0.08452681452035904 -0.015473980456590652
v -0.006433154456317425 -0.08897470682859421 -0.023383788764476776
v -0.007182930130511522 -0.08199185132980347 -0.021893369033932686
v -0.007698699366301298 -0.07520218193531036 -0.020516302436590195
v -0.00970215443521738 -0.08005037158727646 -0.0276337880641222
v -0.010571954771876335 -0.07310464233160019 -0.026301221922039986
v -0.01090704184025526 -0.06615584343671799 -0.02494700625538826
v -0.016486581414937973 -0.0726093277335167 -0.026475032791495323
v -0.016960348933935165 -0.06540964543819427 -0.02521456591784954
v -0.017378918826580048 -0.05811351537704468 -0.024219678714871407
v -0.022018224000930786 -0.06586167216300964 -0.02071540243923664
v -0.022661898285150528 -0.058512132614851 -0.019491931423544884
v -0.023196937516331673 -0.05111360549926758 -0.018000317737460136
v -0.023738466203212738 -0.0591728650033474 -0.01333007961511612
v -0.023898443207144737 -0.05202178284525871 -0.011400630697607994
v -0.024382418021559715 -0.045014604926109314 -0.00874200090765953
v -0.01738719269633293 -0.0516345351934433 -0.008915819227695465
v -0.01732739806175232 -0.04470248147845268 -0.006678567733615637
v -0.01701497472822666 -0.03797057643532753 -0.0037463917396962643
v -0.009688843041658401 -0.04471960663795471 -0.005902786273509264
v -0.008673949167132378 -0.03854910284280777 -0.0028662639670073986
v -0.007747327908873558 -0.03251609578728676 0.00038518523797392845
vn 0.6246017813682556 -0.5847659707069397 -0.5176112651824951
vn 0.8422891497612 0.3614788353443146 -0.3998526334762573
vn 0.8030051589012146 -0.25868117809295654 0.5369047522544861
vn 0.269347608089447 -0.961345911026001 -0.05714937299489975
vn -0.08630295842885971 -0.17554420232772827 -0.9806814193725586
vn 0.040697161108255386 0.3304988145828247 -0.9429284930229187
vn -0.30422213673591614 -0.7319658994674683 -0.609651505947113
vn -0.7501975893974304 0.10169122368097305 -0.6533470749855042
vn 0.29894933104515076 -0.48850327730178833 0.8197522163391113
vn 0.7605920433998108 0.07803869247436523 0.6445227861404419
vn 0.3693881034851074 -0.14803364872932434 0.9174085259437561
vn 0.3620411455631256 -0.8258776664733887 -0.43226417899131775
vn -0.5766538381576538 -0.15729372203350067 0.8017038702964783
vn -0.685291051864624 -0.11036156862974167 0.7198585867881775
vn -0.5645298361778259 -0.35941311717033386 0.7430533170700073
vn 0.033458173274993896 -0.5262715220451355 0.8496581315994263
vn 0.11294186860322952 -0.9916208982467651 0.0627080574631691
vn -0.8391624689102173 -0.5074660181999207 -0.1956643909215927
vn -0.8683779835700989 -0.2882646918296814 -0.4035135507583618
vn -0.9971052408218384 -0.03616214543581009 0.06688452512025833
vn 0.9637452960014343 0.18590736389160156 0.19139863550662994
vn 0.28632622957229614 0.861514687538147 0.41929665207862854
vn 0.13545231521129608 0.912639856338501 0.3856698274612427
vn 0.8712851405143738 0.24507541954517365 0.4252062141895294
vn 0.8456020951271057 -0.496819406747818 -0.19526268541812897
vn 0.8307029008865356 -0.34362056851387024 -0.4380156695842743
vn 0.5669397711753845 0.697902500629425 -0.4376203119754791
vn 0.8024793863296509 -0.20939871668815613 -0.5587298274040222
vn 0.2884249985218048 0.802270233631134 -0.5226600170135498
vn 0.32047298550605774 0.8060275912284851 -0.49761077761650085
vn 0.47431787848472595 0.8709014058113098 0.1286597102880478
vn 0.7304897904396057 -0.6583911180496216 0.18139943480491638
vn 0.6864665746688843 0.19020956754684448 0.7018432021141052
vn 0.21968567371368408 0.29059407114982605 0.9312858581542969
vn -0.27741295099258423 -0.4854603707790375 0.8290780186653137
vn 0.19509577751159668 -0.7449555993080139 0.6379488706588745
vn 0.8000171184539795 -0.5984132885932922 -0.04329031705856323
vn 0.36607906222343445 0.8184769749641418 0.4428108334541321
vn 0.3945477306842804 0.7599331140518188 0.5165595412254333
vn 0.48149675130844116 0.11902035027742386 -0.8683289289474487
vn 0.7442020177841187 -0.10625474900007248 -0.6594491004943848
vn 0.9693291187286377 -0.2407422959804535 -0.04943890497088432
vn 0.9818572998046875 -0.18619701266288757 -0.035872042179107666
vn 0.5822834968566895 0.02454284392297268 -0.8126152753829956
vn 0.4132942259311676 0.5644582509994507 -0.7145451307296753
vn -0.5079629421234131 0.15138442814350128 -0.8479719161987305
vn -0.349374920129776 0.2995664179325104 -0.8878045678138733
vn -0.26430565118789673 0.10468389093875885 -0.9587407112121582
vn 0.8627638220787048 0.5033059120178223 -0.04818432778120041
vn 0.3516949415206909 0.13290061056613922 -0.9266326427459717
vn 0.9724045991897583 0.027132241055369377 -0.23171763122081757
vn -0.4308517575263977 0.24763216078281403 -0.8677816987037659
vn 0.8638262152671814 0.20011986792087555 0.46233776211738586
vn 0.0070679509080946445 0.89593505859375 0.4441288709640503
vn 0.11205325275659561 0.38486093282699585 0.9161474704742432
vn 0.7912534475326538 -0.39402687549591064 0.4676119089126587
vn 0.882222592830658 -0.46108922362327576 -0.09528876841068268
vn 0.8863098621368408 0.3424018323421478 -0.31179454922676086
vn 0.027809476479887962 0.9974483251571655 0.06575406342744827
vn -0.43386760354042053 0.8604780435562134 0.26708877086639404
vn -0.1680726557970047 -0.17829963564872742 0.9695157408714294
vn 0.669430136680603 0.49795398116111755 0.5512757897377014
vn 0.9271113276481628 -0.1603696495294571 0.338742196559906
vn 0.34290099143981934 -0.26698505878448486 0.900631844997406
vn -0.6908983588218689 0.14294783771038055 0.7086785435676575
vn -0.8243621587753296 -0.26416799426078796 0.5006418824195862
vn -0.7806541323661804 -0.23869912326335907 0.5775827765464783
vn -0.4538976550102234 -0.29624348878860474 0.8403670191764832
vn -0.13732990622520447 0.9646684527397156 -0.2248450517654419
vn 0.3648066222667694 0.42967352271080017 -0.8260126709938049
vn -0.41614311933517456 0.5281636714935303 -0.740181028842926
vn -0.5192304849624634 0.8524309992790222 -0.06132787466049194
vn 0.5699984431266785 -0.21544040739536285 -0.7928979992866516
vn -0.43558433651924133 0.09682648628950119 -0.8949251174926758
vn -0.8834986090660095 0.44052669405937195 -0.15926863253116608
vn -0.9444645047187805 0.07642456144094467 -0.3196028470993042
vn -0.920515775680542 -0.004704584367573261 -0.39067694544792175
vn -0.9099728465080261 -0.05571914464235306 -0.4109073579311371
vn -0.8029195666313171 -0.2042405903339386 0.5600054264068604
vn -0.6983045339584351 -0.27088674902915955 0.6625640392303467
vn -0.2087603360414505 -0.31792721152305603 0.9248467087745667
vn -0.37838733196258545 -0.39538222551345825 0.8369563221931458
vn -0.9022578597068787 0.033694326877593994 -0.4298785328865051
vn -0.9266008734703064 0.07053285837173462 -0.3693724572658539
vn -0.9044237732887268 -0.22278845310211182 0.3638446629047394
vn -0.2864260673522949 0.18200308084487915 -0.9406567215919495
vn -0.3586960732936859 0.18602776527404785 -0.9147300124168396
vn -0.8649517297744751 0.10568572580814362 -0.49060067534446716
vn 0.6076094508171082 0.06525097042322159 -0.7915510535240173
vn 0.6240769624710083 0.1277734935283661 -0.7708449363708496
vn 0.5214575529098511 0.1717063933610916 -0.835822343826294
vn -0.17338010668754578 0.18005724251270294 -0.9682555198669434
vn 0.9842758178710938 -0.14456389844417572 -0.10150083154439926
vn 0.9885024428367615 -0.12757545709609985 0.08116324990987778
vn 0.999139130115509 -0.038566019386053085 -0.015287606976926327
vn 0.9920433759689331 0.0010843045311048627 -0.12589199841022491
vn 0.6766765713691711 0.1332734227180481 -0.7241180539131165
vn 0.6064525246620178 -0.27547693252563477 0.7458738684654236
vn 0.3973131775856018 -0.22942790389060974 0.888541042804718
vn 0.5614874958992004 -0.16117779910564423 0.8116363883018494
vn 0.7112046480178833 -0.10149390995502472 0.6956198811531067
vn 0.9997363686561584 0.013585055246949196 0.0185121838003397
vn -0.17625905573368073 -0.20724427700042725 0.9622798562049866
vn -0.2547817826271057 -0.17740623652935028 0.9505857825279236
vn -0.22287343442440033 -0.1699901670217514 0.9599118828773499
vn -0.15290114283561707 -0.16032274067401886 0.9751501083374023
vn 0.5020704865455627 -0.10547194629907608 0.8583711385726929
vn -0.8182464838027954 -0.13220782577991486 0.5594584345817566
vn -0.9662217497825623 -0.10556994378566742 0.2350967675447464
vn -0.9319836497306824 -0.14124593138694763 0.3338504433631897
vn -0.8708952069282532 -0.14836114645004272 0.4685407876968384
vn -0.25863391160964966 -0.16771042346954346 0.9513053297996521
vn -0.8662649393081665 -0.006314162630587816 -0.49954503774642944
vn -0.8082428574562073 -0.01691983826458454 -0.5886061787605286
vn -0.8098236322402954 -0.050374653190374374 -0.5845066905021667
vn -0.7880127429962158 -0.08389978855848312 -0.6099153757095337
vn -0.9862180948257446 -0.14115940034389496 0.0863010510802269
vn -0.4507703185081482 0.07570334523916245 -0.8894241452217102
vn -0.3281584084033966 0.06703996658325195 -0.942240834236145
vn -0.44767650961875916 -0.014621193520724773 -0.8940760493278503
vn -0.5011157989501953 -0.017679650336503983 -0.865199625492096
vn -0.7387312054634094 -0.06424042582511902 -0.6709316372871399
vn 0.4092247188091278 0.23894213140010834 -0.8805917501449585
vn 0.7126836180686951 0.22647403180599213 -0.6639213562011719
vn 0.5888605713844299 0.14451466500759125 -0.7952099442481995
vn 0.3986932039260864 0.13515788316726685 -0.9070701003074646
vn -0.4028148353099823 0.039573874324560165 -0.9144254922866821
vn 0.9888284802436829 0.14117418229579926 0.047833915799856186
vn 0.9849714636802673 0.11948950588703156 0.12471364438533783
vn 0.9897727966308594 0.10902554541826248 0.09199604392051697
vn 0.9977041482925415 0.06749820709228516 0.005512799136340618
vn 0.7576959729194641 0.09772694110870361 -0.6452489495277405
vn 0.785535454750061 0.0030144217889755964 0.6188093423843384
vn 0.6182483434677124 -0.05011811852455139 0.784383237361908
vn 0.7192156910896301 -0.00915355235338211 0.6947265863418579
vn 0.8290866613388062 0.012175538577139378 0.5589874386787415
vn 0.9965907335281372 0.08080414682626724 0.01666129380464554
vn -0.0021801197435706854 -0.16274847090244293 0.9866651892662048
vn -0.12911354005336761 -0.15601591765880585 0.979279637336731
vn -0.05429992452263832 -0.14803852140903473 0.9874898195266724
vn 0.011156725697219372 -0.16112540662288666 0.9868708848953247
vn 0.6549301743507385 -0.049037061631679535 0.7540966868400574
vn -0.8303604125976562 -0.1872815489768982 0.5248115658760071
vn -0.9792081713676453 -0.1494603008031845 0.13716048002243042
vn -0.8932652473449707 -0.1703522801399231 0.416001558303833
vn -0.7502083778381348 -0.17754921317100525 0.6369172930717468
vn -0.08927039057016373 -0.14965806901454926 0.984699547290802
vn -0.8222523927688599 -0.007007316220551729 -0.5690798759460449
vn -0.7764675617218018 0.023202689364552498 -0.6297298073768616
vn -0.847201943397522 -0.019849227741360664 -0.5309000015258789
vn -0.9164167642593384 -0.06830170750617981 -0.39435404539108276
vn -0.9244295358657837 -0.15476299822330475 0.3485375642776489
vn -0.47500133514404297 0.08874858170747757 -0.875498354434967
vn -0.3953760266304016 0.1073610857129097 -0.9122232794761658
vn -0.4711299240589142 0.04282277822494507 -0.8810237050056458
vn -0.5404726266860962 0.03646615520119667 -0.8405709266662598
vn -0.8736565709114075 -0.040253009647130966 -0.4848751127719879
vn 0.33083072304725647 0.13219189643859863 -0.9343855977058411
vn 0.5986893773078918 0.11146833002567291 -0.7931872010231018
vn 0.3772624433040619 0.13305988907814026 -0.9164977669715881
vn 0.21807967126369476 0.1612197607755661 -0.9625224471092224
vn -0.4318106472492218 0.09494072943925858 -0.8969536423683167
vn 0.9542034864425659 0.12482091784477234 -0.2718740999698639
vn 0.9673185348510742 0.15117549896240234 -0.2035701423883438
vn 0.9389729499816895 0.15782880783081055 -0.30564653873443604
vn 0.8712992072105408 0.22744478285312653 -0.43486374616622925
vn 0.39675042033195496 0.21123476326465607 -0.8932911157608032
vn 0.8813737630844116 0.016592586413025856 0.47212809324264526
vn 0.7376683950424194 -0.05611792951822281 0.672826886177063
vn 0.8243249654769897 0.0006055810954421759 0.5661166310310364
vn 0.8794766664505005 0.038290370255708694 0.474399209022522
vn 0.9432618618011475 0.213168203830719 -0.25459063053131104
vn 0.17235766351222992 -0.17130614817142487 0.9700241684913635
vn 0.06337747722864151 -0.17406025528907776 0.9826934337615967
vn 0.17120243608951569 -0.1537245512008667 0.9731693267822266
vn 0.281403124332428 -0.13150401413440704 0.9505361318588257
vn 0.7877894043922424 0.0036239910405129194 0.6159340739250183
vn -0.5907531380653381 -0.2357713282108307 0.7716363072395325
vn -0.7546467781066895 -0.2106119841337204 0.6214103698730469
vn -0.6326131224632263 -0.20735180377960205 0.7461941838264465
vn -0.5189081430435181 -0.21023209393024445 0.8285751342773438
vn 0.13143625855445862 -0.16751770675182343 0.9770682454109192
vn -0.9929243326187134 -0.07549205422401428 -0.09166347980499268
vn -0.9547261595726013 -0.01701834239065647 -0.296998530626297
vn -0.9862014651298523 -0.05321428179740906 -0.15676335990428925
vn -0.9955998659133911 -0.09365471452474594 0.003105668816715479
vn -0.6775667071342468 -0.1940547674894333 0.7093984484672546
vn -0.5044577121734619 0.12336911261081696 -0.8545774221420288
vn -0.35545381903648376 0.16157479584217072 -0.9206226468086243
vn -0.47284194827079773 0.14517541229724884 -0.8691056370735168
vn -0.6048652529716492 0.10935816913843155 -0.788783073425293
vn -0.9786338210105896 -0.04606742039322853 -0.2003837376832962
vn 0.18402625620365143 0.2213512361049652 -0.9576732516288757
vn 0.3079102039337158 0.23294641077518463 -0.922457218170166
vn 0.2274094969034195 0.2508266568183899 -0.9409414529800415
vn 0.07534243166446686 0.3462800681591034 -0.9351009726524353
vn -0.5754779577255249 0.14428311586380005 -0.8049891591072083
vn 0.8417589068412781 0.17478801310062408 -0.510775089263916
vn 0.95228511095047 0.1644599586725235 -0.2571110427379608
vn 0.9082906246185303 0.3173031806945801 -0.27262967824935913
vn 0.8872736692428589 0.46121326088905334 -0.005259632598608732
vn 0.2439366728067398 0.5136839151382446 -0.8225714564323425
vn 0.9006554484367371 -0.009239665232598782 0.43443563580513
vn 0.7786157727241516 0.006721682846546173 0.6274649500846863
vn 0.34691497683525085 -0.15057611465454102 0.9257305264472961
vn 0.1493617594242096 -0.13404151797294617 0.9796549081802368
vn -0.4957062602043152 -0.1713951975107193 0.8514099717140198
vn -0.7469086647033691 -0.12347157299518585 0.6533622741699219
vn -0.996021568775177 -0.0849413126707077 0.02694476582109928
vn -0.9840086102485657 0.006351925898343325 -0.17800751328468323
vn -0.5408037304878235 0.29456549882888794 -0.7878848910331726
vn -0.584908127784729 -0.19935329258441925 0.7862192392349243
vn 0.26816773414611816 -0.152561217546463 0.9512155652046204
vn 0.24643677473068237 -0.166171595454216 0.9548067450523376
vn 0.8881720304489136 -0.03688972443342209 0.4580278694629669
vn 0.8934024572372437 -0.047223612666130066 0.4467684030532837
vn 0.877447783946991 -0.01235894113779068 0.4795127511024475
vn 0.8823808431625366 0.1568026840686798 -0.4436405897140503
vn 0.8719116449356079 0.14965182542800903 -0.46623432636260986
vn 0.8910883665084839 0.18343962728977203 -0.41510385274887085
vn 0.2480563074350357 0.19833455979824066 -0.9482254981994629
vn 0.2379036396741867 0.18873141705989838 -0.9527760744094849
vn 0.26048585772514343 0.22760525345802307 -0.9382659196853638
vn -0.44881540536880493 0.12680312991142273 -0.8845822811126709
vn -0.46717557311058044 0.1479998379945755 -0.8716897964477539
vn -0.47782886028289795 0.12951365113258362 -0.8688531517982483
vn -0.9671822190284729 -0.0561862550675869 -0.24779365956783295
vn -0.9549325108528137 -0.04532666504383087 -0.29334166646003723
vn -0.931310772895813 -0.0632890835404396 -0.35868462920188904
vn -0.7183990478515625 -0.22898542881011963 0.6568625569343567
vn -0.7518754601478577 -0.22718511521816254 0.6189267039299011
vn -0.7990663647651672 -0.17517878115177155 0.5751568675041199
vn 0.0660025104880333 -0.1517205685377121 0.9862173199653625
vn 0.031846947968006134 -0.11271832138299942 0.993116557598114
vn 0.00392073905095458 -0.11683037877082825 0.993144154548645
vn 0.799571692943573 0.013662201352417469 0.6004151105880737
vn 0.7922500967979431 -0.006319352425634861 0.610163688659668
vn 0.7739542126655579 -0.02779383584856987 0.6326313614845276
vn 0.9811698198318481 0.10224004834890366 -0.16386811435222626
vn 0.986736536026001 0.08975842595100403 -0.135257750749588
vn 0.9932252764701843 0.07480981945991516 -0.08892106264829636
vn 0.49975690245628357 0.14907602965831757 -0.853240430355072
vn 0.5231065154075623 0.10115694999694824 -0.8462427854537964
vn 0.5535280108451843 0.09484250098466873 -0.8274126052856445
vn -0.4285458028316498 0.06633836030960083 -0.901081383228302
vn -0.42628616094589233 0.061836156994104385 -0.9024723768234253
vn -0.4273450970649719 0.06528671830892563 -0.9017282724380493
vn -0.7604886293411255 -0.0029699269216507673 -0.6493444442749023
vn -0.7331874966621399 0.030690521001815796 -0.6793337464332581
vn -0.7384110689163208 0.004161869641393423 -0.6743381023406982
vn -0.9475456476211548 -0.1593841165304184 0.27704477310180664
vn -0.9556546807289124 -0.1610468477010727 0.2465524971485138
vn -0.9504017233848572 -0.17967188358306885 0.25387904047966003
vn -0.08091716468334198 -0.17702427506446838 0.9808745384216309
vn -0.1013486459851265 -0.15055009722709656 0.983393669128418
vn -0.14107927680015564 -0.15699803829193115 0.9774702787399292
vn 0.6976237297058105 -0.003988455981016159 0.7164532542228699
vn 0.6979247331619263 -0.045654624700546265 0.714714527130127
vn 0.6624014377593994 -0.06769227981567383 0.7460843920707703
vn 0.9872773885726929 0.15831322968006134 0.014843198470771313
vn 0.9928291440010071 0.1034371554851532 -0.05992441624403
vn 0.9943938255310059 0.08509354293346405 -0.06277114152908325
vn 0.5628973245620728 0.22191521525382996 -0.7961785197257996
vn 0.5570226311683655 0.2039843201637268 -0.8050566911697388
vn 0.5646806955337524 0.15256643295288086 -0.8110851645469666
vn -0.3488183915615082 0.1274547576904297 -0.9284831285476685
vn -0.3272642493247986 0.1256389319896698 -0.9365431070327759
vn -0.30869609117507935 0.13475963473320007 -0.941565990447998
vn -0.8585519790649414 0.026925351470708847 -0.5120190382003784
vn -0.8742498159408569 0.019356630742549896 -0.48509037494659424
vn -0.8903322815895081 0.052001167088747025 -0.45233219861984253
vn -0.8709512948989868 -0.14746007323265076 0.4687209129333496
vn -0.8408668637275696 -0.20087403059005737 0.5025858879089355
vn -0.8220410943031311 -0.24693183600902557 0.5131015181541443
vn -0.20217037200927734 -0.28425928950309753 0.9371893405914307
vn -0.1735570877790451 -0.3442760705947876 0.922687292098999
vn -0.17605765163898468 -0.3957521915435791 0.9013234376907349
vn 0.3821430802345276 -0.37354376912117004 0.845240592956543
vn 0.5672479867935181 -0.4425998628139496 0.6945035457611084
vn 0.3779049515724182 -0.5204365849494934 0.7657241225242615
f 1//1 2//2 3//3
f 1//1 3//3 4//4
f 1//1 5//5 6//6
f 1//1 6//6 2//2
f 1//1 4//4 7//7
f 1//1 7//7 5//5
f 5//5 7//7 8//8
f 5//5 8//8 6//6
f 9//9 3//3 10//10
f 9//9 10//10 11//11
f 9//9 12//12 4//4
f 9//9 4//4 3//3
f 9//9 11//11 13//13
f 9//9 13//13 14//14
f 9//9 14//14 15//15
f 9//9 15//15 16//16
f 9//9 16//16 17//17
f 9//9 17//17 12//12
f 17//17 18//18 19//19
f 17//17 19//19 12//12
f 17//17 16//16 15//15
f 17//17 15//15 18//18
f 19//19 20//20 8//8
f 19//19 8//8 7//7
f 19//19 14//14 13//13
f 19//19 13//13 20//20
f 19//19 7//7 4//4
f 19//19 4//4 12//12
f 19//19 18//18 15//15
f 19//19 15//15 14//14
f 21//21 22//22 23//23
f 21//21 23//23 24//24
f 21//21 24//24 25//25
f 21//21 25//25 26//26
f 21//21 26//26 27//27
f 21//21 27//27 22//22
f 27//27 26//26 28//28
f 27//27 28//28 29//29
f 27//27 29//29 23//23
f 27//27 23//23 22//22
f 23//23 29//29 30//30
f 23//23 30//30 31//31
f 32//32 33//33 34//34
f 32//32 34//34 35//35
f 32//32 35//35 36//36
f 32//32 36//36 37//37
f 32//32 25//25 24//24
f 32//32 24//24 33//33
f 38//38 33//33 24//24
f 38//38 24//24 23//23
f 38//38 23//23 31//31
f 38//38 31//31 39//39
f 38//38 39//39 34//34
f 38//38 34//34 33//33
f 40//40 41//41 37//37
f 40//40 37//37 42//42
f 40//40 42//42 43//43
f 40//40 43//43 44//44
f 40//40 45//45 30//30
f 40//40 30//30 41//41
f 40//40 46//46 47//47
f 40//40 47//47 45//45
f 40//40 44//44 48//48
f 40//40 48//48 46//46
f 45//45 49//49 31//31
f 45//45 31//31 30//30
f 45//45 50//50 51//51
f 45//45 51//51 49//49
f 45//45 47//47 52//52
f 45//45 52//52 50//50
f 53//53 54//54 55//55
f 53//53 55//55 56//56
f 53//53 56//56 57//57
f 53//53 57//57 58//58
f 53//53 58//58 59//59
f 53//53 59//59 54//54
f 54//54 59//59 60//60
f 54//54 60//60 55//55
f 61//61 62//62 63//63
f 61//61 63//63 64//64
f 61//61 34//34 39//39
f 61//61 39//39 62//62
f 61//61 64//64 65//65
f 61//61 65//65 66//66
f 61//61 66//66 67//67
f 61//61 67//67 68//68
f 61//61 68//68 35//35
f 61//61 35//35 34//34
f 69//69 59//59 58//58
f 69//69 58//58 70//70
f 69//69 70//70 71//71
f 69//69 71//71 72//72
f 69//69 72//72 60//60
f 69//69 60//60 59//59
f 71//71 70//70 73//73
f 71//71 73//73 74//74
f 71//71 74//74 75//75
f 71//71 75//75 72//72
f 25//25 32//32 28//28
f 25//25 28//28 26//26
f 75//75 76//76 66//66
f 75//75 66//66 65//65
f 75//75 65//65 60//60
f 75//75 60//60 72//72
f 75//75 74//74 52//52
f 75//75 52//52 76//76
f 76//76 77//77 67//67
f 76//76 67//67 66//66
f 76//76 52//52 47//47
f 76//76 47//47 77//77
f 77//77 78//78 79//79
f 77//77 79//79 67//67
f 77//77 47//47 46//46
f 77//77 46//46 78//78
f 79//79 80//80 81//81
f 79//79 81//81 82//82
f 79//79 82//82 68//68
f 79//79 68//68 67//67
f 79//79 78//78 83//83
f 79//79 83//83 80//80
f 83//83 84//84 85//85
f 83//83 85//85 80//80
f 83//83 78//78 46//46
f 83//83 46//46 48//48
f 83//83 48//48 86//86
f 83//83 86//86 84//84
f 86//86 87//87 88//88
f 86//86 88//88 84//84
f 86//86 48//48 44//44
f 86//86 44//44 89//89
f 86//86 89//89 90//90
f 86//86 90//90 87//87
f 90//90 91//91 92//92
f 90//90 92//92 87//87
f 90//90 89//89 93//93
f 90//90 93//93 94//94
f 90//90 94//94 95//95
f 90//90 95//95 91//91
f 95//95 96//96 97//97
f 95//95 97//97 91//91
f 95//95 94//94 98//98
f 95//95 98//98 99//99
f 95//95 99//99 100//100
f 95//95 100//100 96//96
f 100//100 101//101 102//102
f 100//100 102//102 96//96
f 100//100 99//99 103//103
f 100//100 103//103 104//104
f 100//100 104//104 105//105
f 100//100 105//105 101//101
f 105//105 106//106 107//107
f 105//105 107//107 101//101
f 105//105 104//104 108//108
f 105//105 108//108 109//109
f 105//105 109//109 110//110
f 105//105 110//110 106//106
f 110//110 111//111 112//112
f 110//110 112//112 106//106
f 110//110 109//109 113//113
f 110//110 113//113 114//114
f 110//110 114//114 115//115
f 110//110 115//115 111//111
f 115//115 116//116 117//117
f 115//115 117//117 111//111
f 115//115 114//114 118//118
f 115//115 118//118 119//119
f 115//115 119//119 120//120
f 115//115 120//120 116//116
f 120//120 121//121 122//122
f 120//120 122//122 116//116
f 120//120 119//119 123//123
f 120//120 123//123 124//124
f 120//120 124//124 125//125
f 120//120 125//125 121//121
f 125//125 126//126 127//127
f 125//125 127//127 121//121
f 125//125 124//124 128//128
f 125//125 128//128 129//129
f 125//125 129//129 130//130
f 125//125 130//130 126//126
f 130//130 131//131 132//132
f 130//130 132//132 126//126
f 130//130 129//129 133//133
f 130//130 133//133 134//134
f 130//130 134//134 135//135
f 130//130 135//135 131//131
f 135//135 136//136 137//137
f 135//135 137//137 131//131
f 135//135 134//134 138//138
f 135//135 138//138 139//139
f 135//135 139//139 140//140
f 135//135 140//140 136//136
f 140//140 141//141 142//142
f 140//140 142//142 136//136
f 140//140 139//139 143//143
f 140//140 143//143 144//144
f 140//140 144//144 145//145
f 140//140 145//145 141//141
f 145//145 146//146 147//147
f 145//145 147//147 141//141
f 145//145 144//144 148//148
f 145//145 148//148 149//149
f 145//145 149//149 150//150
f 145//145 150//150 146//146
f 150//150 151//151 152//152
f 150//150 152//152 146//146
f 150//150 149//149 153//153
f 150//150 153//153 154//154
f 150//150 154//154 155//155
f 150//150 155//155 151//151
f 155//155 156//156 157//157
f 155//155 157//157 151//151
f 155//155 154//154 158//158
f 155//155 158//158 159//159
f 155//155 159//159 160//160
f 155//155 160//160 156//156
f 160//160 161//161 162//162
f 160//160 162//162 156//156
f 160//160 159//159 163//163
f 160//160 163//163 164//164
f 160//160 164//164 165//165
f 160//160 165//165 161//161
f 165//165 166//166 167//167
f 165//165 167//167 161//161
f 165//165 164//164 168//168
f 165//165 168//168 169//169
f 165//165 169//169 170//170
f 165//165 170//170 166//166
f 170//170 171//171 172//172
f 170//170 172//172 166//166
f 170//170 169//169 173//173
f 170//170 173//173 174//174
f 170//170 174//174 175//175
f 170//170 175//175 171//171
f 175//175 176//176 177//177
f 175//175 177//177 171//171
f 175//175 174//174 178//178
f 175//175 178//178 179//179
f 175//175 179//179 180//180
f 175//175 180//180 176//176
f 180//180 181//181 182//182
f 180//180 182//182 176//176
f 180//180 179//179 183//183
f 180//180 183//183 184//184
f 180//180 184//184 185//185
f 180//180 185//185 181//181
f 185//185 186//186 187//187
f 185//185 187//187 181//181
f 185//185 184//184 188//188
f 185//185 188//188 189//189
f 185//185 189//189 190//190
f 185//185 190//190 186//186
f 190//190 191//191 192//192
f 190//190 192//192 186//186
f 190//190 189//189 193//193
f 190//190 193//193 194//194
f 190//190 194//194 195//195
f 190//190 195//195 191//191
f 195//195 196//196 197//197
f 195//195 197//197 191//191
f 195//195 194//194 198//198
f 195//195 198//198 199//199
f 195//195 199//199 200//200
f 195//195 200//200 196//196
f 200//200 201//201 202//202
f 200//200 202//202 196//196
f 200//200 199//199 203//203
f 200//200 203//203 204//204
f 200//200 204//204 10//10
f 200//200 10//10 201//201
f 204//204 203//203 205//205
f 204//204 205//205 206//206
f 204//204 206//206 11//11
f 204//204 11//11 10//10
f 206//206 205//205 207//207
f 206//206 207//207 208//208
f 206//206 208//208 13//13
f 206//206 13//13 11//11
f 208//208 207//207 209//209
f 208//208 209//209 210//210
f 208//208 210//210 20//20
f 208//208 20//20 13//13
f 210//210 209//209 197//197
f 210//210 197//197 211//211
f 210//210 211//211 8//8
f 210//210 8//8 20//20
f 211//211 197//197 196//196
f 211//211 196//196 202//202
f 211//211 202//202 6//6
f 211//211 6//6 8//8
f 209//209 207//207 212//212
f 209//209 212//212 192//192
f 209//209 192//192 191//191
f 209//209 191//191 197//197
f 212//212 207//207 205//205
f 212//212 205//205 213//213
f 212//212 213//213 214//214
f 212//212 214//214 187//187
f 212//212 187//187 186//186
f 212//212 186//186 192//192
f 214//214 213//213 215//215
f 214//214 215//215 216//216
f 214//214 216//216 217//217
f 214//214 217//217 182//182
f 214//214 182//182 181//181
f 214//214 181//181 187//187
f 217//217 216//216 218//218
f 217//217 218//218 219//219
f 217//217 219//219 220//220
f 217//217 220//220 177//177
f 217//217 177//177 176//176
f 217//217 176//176 182//182
f 220//220 219//219 221//221
f 220//220 221//221 222//222
f 220//220 222//222 223//223
f 220//220 223//223 172//172
f 220//220 172//172 171//171
f 220//220 171//171 177//177
f 223//223 222//222 224//224
f 223//223 224//224 225//225
f 223//223 225//225 226//226
f 223//223 226//226 167//167
f 223//223 167//167 166//166
f 223//223 166//166 172//172
f 226//226 225//225 227//227
f 226//226 227//227 228//228
f 226//226 228//228 229//229
f 226//226 229//229 162//162
f 226//226 162//162 161//161
f 226//226 161//161 167//167
f 229//229 228//228 230//230
f 229//229 230//230 231//231
f 229//229 231//231 232//232
f 229//229 232//232 157//157
f 229//229 157//157 156//156
f 229//229 156//156 162//162
f 232//232 231//231 233//233
f 232//232 233//233 234//234
f 232//232 234//234 235//235
f 232//232 235//235 152//152
f 232//232 152//152 151//151
f 232//232 151//151 157//157
f 235//235 234//234 236//236
f 235//235 236//236 237//237
f 235//235 237//237 238//238
f 235//235 238//238 147//147
f 235//235 147//147 146//146
f 235//235 146//146 152//152
f 238//238 237//237 239//239
f 238//238 239//239 240//240
f 238//238 240//240 241//241
f 238//238 241//241 142//142
f 238//238 142//142 141//141
f 238//238 141//141 147//147
f 241//241 240//240 242//242
f 241//241 242//242 243//243
f 241//241 243//243 244//244
f 241//241 244//244 137//137
f 241//241 137//137 136//136
f 241//241 136//136 142//142
f 244//244 243//243 245//245
f 244//244 245//245 246//246
f 244//244 246//246 247//247
f 244//244 247//247 132//132
f 244//244 132//132 131//131
f 244//244 131//131 137//137
f 247//247 246//246 248//248
f 247//247 248//248 249//249
f 247//247 249//249 250//250
f 247//247 250//250 127//127
f 247//247 127//127 126//126
f 247//247 126//126 132//132
f 250//250 249//249 251//251
f 250//250 251//251 252//252
f 250//250 252//252 253//253
f 250//250 253//253 122//122
f 250//250 122//122 121//121
f 250//250 121//121 127//127
f 253//253 252//252 254//254
f 253//253 254//254 255//255
f 253//253 255//255 256//256
f 253//253 256//256 117//117
f 253//253 117//117 116//116
f 253//253 116//116 122//122
f 256//256 255//255 257//257
f 256//256 257//257 258//258
f 256//256 258//258 259//259
f 256//256 259//259 112//112
f 256//256 112//112 111//111
f 256//256 111//111 117//117
f 259//259 258//258 260//260
f 259//259 260//260 261//261
f 259//259 261//261 262//262
f 259//259 262//262 107//107
f 259//259 107//107 106//106
f 259//259 106//106 112//112
f 262//262 261//261 263//263
f 262//262 263//263 264//264
f 262//262 264//264 265//265
f 262//262 265//265 102//102
f 262//262 102//102 101//101
f 262//262 101//101 107//107
f 265//265 264//264 266//266
f 265//265 266//266 267//267
f 265//265 267//267 268//268
f 265//265 268//268 97//97
f 265//265 97//97 96//96
f 265//265 96//96 102//102
f 268//268 267//267 269//269
f 268//268 269//269 270//270
f 268//268 270//270 271//271
f 268//268 271//271 92//92
f 268//268 92//92 91//91
f 268//268 91//91 97//97
f 271//271 270//270 272//272
f 271//271 272//272 273//273
f 271//271 273//273 274//274
f 271//271 274//274 88//88
f 271//271 88//88 87//87
f 271//271 87//87 92//92
f 274//274 273//273 275//275
f 274//274 275//275 276//276
f 274//274 276//276 277//277
f 274//274 277//277 85//85
f 274//274 85//85 84//84
f 274//274 84//84 88//88
f 277//277 276//276 278//278
f 277//277 278//278 279//279
f 277//277 279//279 280//280
f 277//277 280//280 81//81
f 277//277 81//81 80//80
f 277//277 80//80 85//85
f 280//280 279//279 43//43
f 280//280 43//43 42//42
f 280//280 42//42 37//37
f 280//280 37//37 36//36
f 280//280 36//36 82//82
f 280//280 82//82 81//81
f 279//279 278//278 93//93
f 279//279 93//93 43//43
f 278//278 98//98 94//94
f 278//278 94//94 93//93
f 278//278 276//276 275//275
f 278//278 275//275 98//98
f 275//275 103//103 99//99
f 275//275 99//99 98//98
f 275//275 273//273 272//272
f 275//275 272//272 103//103
f 272//272 108//108 104//104
f 272//272 104//104 103//103
f 272//272 270//270 269//269
f 272//272 269//269 108//108
f 269//269 113//113 109//109
f 269//269 109//109 108//108
f 269//269 267//267 266//266
f 269//269 266//266 113//113
f 266//266 118//118 114//114
f 266//266 114//114 113//113
f 266//266 264//264 263//263
f 266//266 263//263 118//118
f 263//263 123//123 119//119
f 263//263 119//119 118//118
f 263//263 261//261 260//260
f 263//263 260//260 123//123
f 260//260 128//128 124//124
f 260//260 124//124 123//123
f 260//260 258//258 257//257
f 260//260 257//257 128//128
f 257//257 133//133 129//129
f 257//257 129//129 128//128
f 257//257 255//255 254//254
f 257//257 254//254 133//133
f 254//254 138//138 134//134
f 254//254 134//134 133//133
f 254//254 252//252 251//251
f 254//254 251//251 138//138
f 251//251 143//143 139//139
f 251//251 139//139 138//138
f 251//251 249//249 248//248
f 251//251 248//248 143//143
f 248//248 148//148 144//144
f 248//248 144//144 143//143
f 248//248 246//246 245//245
f 248//248 245//245 148//148
f 245//245 153//153 149//149
f 245//245 149//149 148//148
f 245//245 243//243 242//242
f 245//245 242//242 153//153
f 242//242 158//158 154//154
f 242//242 154//154 153//153
f 242//242 240//240 239//239
f 242//242 239//239 158//158
f 239//239 163//163 159//159
f 239//239 159//159 158//158
f 239//239 237//237 236//236
f 239//239 236//236 163//163
f 236//236 168//168 164//164
f 236//236 164//164 163//163
f 236//236 234//234 233//233
f 236//236 233//233 168//168
f 233//233 173//173 169//169
f 233//233 169//169 168//168
f 233//233 231//231 230//230
f 233//233 230//230 173//173
f 230//230 178//178 174//174
f 230//230 174//174 173//173
f 230//230 228//228 227//227
f 230//230 227//227 178//178
f 227//227 183//183 179//179
f 227//227 179//179 178//178
f 227//227 225//225 224//224
f 227//227 224//224 183//183
f 224//224 188//188 184//184
f 224//224 184//184 183//183
f 224//224 222//222 221//221
f 224//224 221//221 188//188
f 221//221 193//193 189//189
f 221//221 189//189 188//188
f 221//221 219//219 218//218
f 221//221 218//218 193//193
f 218//218 198//198 194//194
f 218//218 194//194 193//193
f 218//218 216//216 215//215
f 218//218 215//215 198//198
f 215//215 203//203 199//199
f 215//215 199//199 198//198
f 215//215 213//213 205//205
f 215//215 205//205 203//203
f 202//202 201//201 2//2
f 202//202 2//2 6//6
f 201//201 10//10 3//3
f 201//201 3//3 2//2
f 93//93 89//89 44//44
f 93//93 44//44 43//43
f 82//82 36//36 35//35
f 82//82 35//35 68//68
f 74//74 73//73 50//50
f 74//74 50//50 52//52
f 73//73 70//70 58//58
f 73//73 58//58 57//57
f 73//73 57//57 51//51
f 73//73 51//51 50//50
f 65//65 64//64 55//55
f 65//65 55//55 60//60
f 64//64 63//63 56//56
f 64//64 56//56 55//55
f 63//63 62//62 49//49
f 63//63 49//49 51//51
f 63//63 51//51 57//57
f 63//63 57//57 56//56
f 62//62 39//39 31//31
f 62//62 31//31 49//49
f 41//41 30//30 29//29
f 41//41 29//29 28//28
f 41//41 28//28 32//32
f 41//41 32//32 37//37
