# Generated by Visualization Toolkit
v -0.01960200071334839 -0.23895999789237976 -0.03021099977195263
v -0.020597999915480614 -0.23662300407886505 -0.031491998583078384
v -0.020795999094843864 -0.2387859970331192 -0.030618999153375626
v -0.01500099990516901 -0.23722200095653534 -0.02915100008249283
v -0.01954999938607216 -0.24030399322509766 -0.02836799994111061
v -0.014826999977231026 -0.2394469976425171 -0.02685300074517727
v -0.01659199967980385 -0.2341729998588562 -0.030639000236988068
v -0.02007400058209896 -0.234607994556427 -0.03125400096178055
v -0.022461000829935074 -0.2372879981994629 -0.031144000589847565
v -0.0229250006377697 -0.2392279952764511 -0.029231000691652298
v -0.013505999930202961 -0.23477399349212646 -0.028364000841975212
v -0.012866999953985214 -0.23764599859714508 -0.02680099941790104
v -0.023959999904036522 -0.24026699364185333 -0.02600100077688694
v -0.01809299923479557 -0.2412479966878891 -0.02314000017940998
v -0.014127000235021114 -0.23937399685382843 -0.023569999262690544
v -0.01634800061583519 -0.22936800122261047 -0.026165999472141266
v -0.018682999536395073 -0.2288919985294342 -0.028238000348210335
v -0.022285999730229378 -0.22107499837875366 -0.02528800070285797
v -0.019655000418424606 -0.2230139970779419 -0.025690000504255295
v -0.024438999593257904 -0.21826699376106262 -0.023754000663757324
v -0.028751999139785767 -0.23130500316619873 -0.02122100070118904
v -0.024535000324249268 -0.239315003156662 -0.02709200046956539
v -0.014434999786317348 -0.23294000327587128 -0.026270000264048576
v -0.012707999907433987 -0.2353059947490692 -0.027117999270558357
v -0.01435100007802248 -0.23847299814224243 -0.021052999421954155
v -0.01232299953699112 -0.23594799637794495 -0.025752000510692596
v -0.024932999163866043 -0.24071000516414642 -0.02489900030195713
v -0.022665999829769135 -0.24168699979782104 -0.022192999720573425
v -0.016326000913977623 -0.2405959963798523 -0.021019000560045242
v -0.018459999933838844 -0.24048300087451935 -0.018616000190377235
v -0.02184000052511692 -0.24043400585651398 -0.018637999892234802
v -0.015434999950230122 -0.2392520010471344 -0.01992099918425083
v -0.01954299956560135 -0.2177180051803589 -0.02339399978518486
v -0.015420000068843365 -0.2304230034351349 -0.02410699985921383
v -0.021124999970197678 -0.2078309953212738 -0.021445000544190407
v -0.024981999769806862 -0.20513199269771576 -0.021004000678658485
v -0.02065099962055683 -0.21479399502277374 -0.023242000490427017
v -0.028787000104784966 -0.20095199346542358 -0.017312999814748764
v -0.029738999903202057 -0.23792099952697754 -0.02179899998009205
v -0.02653999999165535 -0.24042899906635284 -0.023771999403834343
v -0.028133999556303024 -0.23882800340652466 -0.019600000232458115
v -0.027224000543355942 -0.22315800189971924 -0.0168869998306036
v -0.025774000212550163 -0.2398339956998825 -0.024886999279260635
v -0.01432500034570694 -0.23416900634765625 -0.023413000628352165
v -0.01471100002527237 -0.23478800058364868 -0.02185799926519394
v -0.027108000591397285 -0.2446179986000061 -0.021918000653386116
v -0.023747999221086502 -0.24226200580596924 -0.022190000861883163
v -0.02309500053524971 -0.23141199350357056 -0.015459000132977962
v -0.02676899917423725 -0.24330799281597137 -0.020364999771118164
v -0.024744000285863876 -0.24285200238227844 -0.02165899984538555
v -0.02122800052165985 -0.2291949987411499 -0.0164560005068779
v -0.019493000581860542 -0.21448299288749695 -0.021724000573158264
v -0.018964000046253204 -0.21645599603652954 -0.017596999183297157
v -0.019068999215960503 -0.21297499537467957 -0.018276000395417213
v -0.01749500073492527 -0.2273399978876114 -0.020382000133395195
v -0.020392000675201416 -0.19295300543308258 -0.017966000363230705
v -0.02601500041782856 -0.17527799308300018 -0.016865000128746033
v -0.03045699931681156 -0.18036599457263947 -0.014461000449955463
v -0.029059000313282013 -0.18942999839782715 -0.011869999580085278
v -0.029498999938368797 -0.24092599749565125 -0.021762000396847725
v -0.027493000030517578 -0.24477699398994446 -0.02158600091934204
v -0.02807299979031086 -0.2445800006389618 -0.02132900059223175
v -0.025839999318122864 -0.20510900020599365 -0.011769999749958515
v -0.02304299920797348 -0.2167939990758896 -0.013247000053524971
v -0.020210999995470047 -0.2161320000886917 -0.015706999227404594
v -0.021529000252485275 -0.18945200741291046 -0.009696999564766884
v -0.02028300054371357 -0.17532700300216675 -0.016093000769615173
v -0.029231999069452286 -0.13488399982452393 -0.01498700026422739
v -0.03182600066065788 -0.15244899690151215 -0.012842999771237373
v -0.030633000656962395 -0.1519480049610138 -0.009064000099897385
v -0.02827399969100952 -0.17589899897575378 -0.008899999782443047
v -0.02542700059711933 -0.18093900382518768 -0.007885999977588654
v -0.02236800082027912 -0.2090419977903366 -0.011932999826967716
v -0.023365000262856483 -0.19731399416923523 -0.00976100005209446
v -0.022123999893665314 -0.1804019957780838 -0.008603000082075596
v -0.01957399956882 -0.12641699612140656 -0.016750000417232513
v -0.03376900032162666 -0.10765799880027771 -0.014034000225365162
v -0.026048999279737473 -0.16627700626850128 -0.0065460000187158585
v -0.028934000059962273 -0.12617899477481842 -0.005644000135362148
v -0.03324799984693527 -0.07240000367164612 -0.008988000452518463
v -0.026889000087976456 -0.1759749948978424 -0.0077320002019405365
v -0.026336999610066414 -0.1264359951019287 -0.004772999789565802
v -0.021581999957561493 -0.09245499968528748 -0.01693199947476387
v -0.033392999321222305 -0.07225199788808823 -0.015033000148832798
v -0.028977999463677406 -0.09586799889802933 -0.005336000118404627
v -0.027031000703573227 -0.06468400359153748 -0.0031210000161081553
v -0.026138000190258026 -0.05552000179886818 -0.0019710001070052385
v -0.03152399882674217 -0.04941000044345856 -0.006074000149965286
v -0.03366300091147423 -0.04805399850010872 -0.01283199992030859
v -0.025383999571204185 -0.08266499638557434 -0.004606000147759914
v -0.019819000735878944 -0.04942699894309044 -0.01432000007480383
v -0.02636599913239479 -0.07338999956846237 -0.017235999926924706
v -0.024396000429987907 -0.03567900136113167 -0.015301000326871872
v -0.023686999455094337 -0.060506001114845276 -0.0023360000923275948
v -0.019652999937534332 -0.03387200087308884 0.0020550000481307507
v -0.029020000249147415 -0.028620999306440353 -0.0012080000014975667
v -0.020441999658942223 -0.03048500046133995 0.0024880000855773687
v -0.03384900093078613 -0.02914699912071228 -0.008477999828755856
v -0.022678999230265617 -0.015031999908387661 -0.012608000077307224
v -0.0318400003015995 -0.013942999765276909 -0.007829000242054462
v -0.021402999758720398 -0.06048300117254257 -0.006138999946415424
v -0.018782999366521835 -0.03596999868750572 -0.014410999603569508
v -0.01381599996238947 -0.032290998846292496 -0.005963999778032303
v -0.021578000858426094 -0.02845199964940548 -0.01657800003886223
v -0.019979000091552734 -0.02011900022625923 -0.0162579994648695
v -0.013392000459134579 -0.028891999274492264 -0.003046999918296933
v -0.018185000866651535 -0.02851800061762333 0.003645000047981739
v -0.01722699962556362 -0.022115999832749367 0.005778999999165535
v -0.03234900161623955 -0.010487999767065048 -0.0002500000118743628
v -0.03258899971842766 -0.013376000337302685 -0.004695000126957893
v -0.01915000006556511 -0.017595000565052032 -0.015859000384807587
v -0.03142800182104111 -0.008476000279188156 -0.00762399984523654
v -0.020440999418497086 -0.014538000337779522 -0.013624999672174454
v -0.028241999447345734 -0.004526000004261732 -0.009126000106334686
v -0.01896500028669834 -0.005311000160872936 -0.010491999797523022
v -0.01954299956560135 -0.009185999631881714 -0.01144300028681755
v -0.03294600173830986 -0.00597199983894825 -0.004769999999552965
v -0.017704999074339867 -0.02798300050199032 -0.016939999535679817
v -0.011664999648928642 -0.02699200063943863 -0.00570600014179945
v -0.015340999700129032 -0.02510800026357174 -0.012788999825716019
v -0.019107000902295113 -0.02010500058531761 -0.016263000667095184
v -0.015123000368475914 -0.02118699997663498 0.007333000190556049
v -0.008430000394582748 -0.020093999803066254 0.0006249999860301614
v -0.022818999364972115 -0.006852999795228243 0.006341000087559223
v -0.017539000138640404 -0.014239000156521797 0.007486999966204166
v -0.01596600003540516 -0.015150000341236591 0.01193699985742569
v -0.030837999656796455 0.0028520000632852316 0.005241999868303537
v -0.025067999958992004 0.00042799999937415123 0.009045000188052654
v -0.027525000274181366 0.004236000124365091 0.007977000437676907
v -0.018422000110149384 -0.013411999680101871 -0.013000999577343464
v -0.02653999999165535 0.003071000101044774 -0.010626999661326408
v -0.03175099939107895 -0.0014479999663308263 -0.006432000081986189
v -0.014484000392258167 -0.010425000451505184 -0.005489000119268894
v -0.01445700041949749 -0.0023590000346302986 0.0022040000185370445
v -0.020519999787211418 0.005925000179558992 -0.011208999902009964
v -0.015873000025749207 -0.011001000180840492 -0.01077600009739399
v -0.03153900057077408 0.00698000006377697 0.001610000035725534
v -0.031183000653982162 0.007354999892413616 -0.0015490000369027257
v -0.009840999729931355 -0.02371099963784218 -0.006194000132381916
v -0.007114999927580357 -0.02140899933874607 -0.007373000029474497
v -0.012733999639749527 -0.02163100056350231 -0.009491000324487686
v -0.013942000456154346 -0.015154999680817127 0.012941000051796436
v -0.012795000337064266 -0.016574999317526817 0.011521000415086746
v -0.008620000444352627 -0.016937000676989555 0.01118400041013956
v -0.0017170000355690718 -0.014774000272154808 0.004354000091552734
v -0.0006900000153109431 -0.012361999601125717 -0.0011650000233203173
v -0.005007999949157238 -0.015836000442504883 0.01090999972075224
v -0.002102999947965145 -0.01382800005376339 -0.004726999904960394
v -0.021425999701023102 -0.005869999993592501 0.008969999849796295
v -0.018689999356865883 -0.00954699981957674 0.010447000153362751
v -0.015887999907135963 -0.012520000338554382 0.013333000242710114
v -0.028156999498605728 0.007003000006079674 0.006320000160485506
v -0.021839000284671783 -0.0017989999614655972 0.009650999680161476
v -0.021893000230193138 0.004189999774098396 0.010036000050604343
v -0.024070000275969505 0.009057000279426575 0.007747999858111143
v -0.01996699906885624 0.010835999622941017 -0.009841999970376492
v -0.013644999824464321 -0.005001000128686428 0.002483000047504902
v -0.011884000152349472 -0.007586000021547079 0.0025839998852461576
v -0.011257999576628208 -0.010490999557077885 -0.002196999965235591
v -0.01230200007557869 -0.011907000094652176 -0.005266999825835228
v -0.014667999930679798 0.0029150000773370266 0.0012890000361949205
v -0.015426999889314175 -0.00013800000306218863 0.004546999931335449
v -0.018332000821828842 0.00973500031977892 -0.01054999977350235
v -0.013302999548614025 -0.012242999859154224 -0.009031999856233597
v -0.028565000742673874 0.009398000314831734 0.002816000021994114
v -0.015967000275850296 0.013787000440061092 -0.0055610002018511295
v -0.013026000000536442 -0.012884000316262245 0.013620000332593918
v -0.0059460001066327095 -0.01575700007379055 0.011621000245213509
v -0.007488999981433153 -0.012217000126838684 0.004064000211656094
v -0.006763000041246414 -0.010966000147163868 0.001673000049777329
v -0.008438999764621258 -0.013770000077784061 0.005841999780386686
v -0.02047000080347061 -0.004910999909043312 0.009438999928534031
v -0.016976000741124153 -0.010010999627411366 0.0123070003464818
v -0.016777999699115753 -0.007853000424802303 0.010240999981760979
v -0.015961000695824623 -0.009092999622225761 0.012249000370502472
v -0.014779999852180481 -0.010606000199913979 0.01332200039178133
v -0.018195999786257744 -0.0028959999326616526 0.008100000210106373
v -0.014468000270426273 0.011354999616742134 0.006510999985039234
v -0.017573999240994453 0.012014999985694885 0.006907000206410885
v -0.018605999648571014 0.01346299983561039 0.004778999835252762
v -0.015603000298142433 0.011397000402212143 -0.009114000014960766
v -0.01381599996238947 -0.005530000198632479 0.0038960000965744257
v -0.00952600035816431 -0.009619999676942825 0.0021959999576210976
v -0.016502000391483307 -0.006231000181287527 0.00803999975323677
v -0.01158900000154972 -0.009398999623954296 0.004906999878585339
v -0.014995000325143337 0.004075000062584877 0.004556000232696533
v -0.011750999838113785 0.009658999741077423 -0.000699999975040555
v -0.013313000090420246 0.01338099967688322 0.0024840000551193953
v -0.011656000278890133 0.013136999681591988 -0.00266400002874434
v -0.013446000404655933 0.013086000457406044 -0.0061690001748502254
v -0.015386000275611877 -0.009728999808430672 0.009700999595224857
v -0.01144300028681755 -0.01295899972319603 0.007524999789893627
v -0.01733900047838688 -0.006151000037789345 0.00915099959820509
v -0.010490999557077885 0.011122000403702259 0.002263000002130866
v -0.013577999547123909 0.007945000194013119 0.0038819999899715185
v -0.011629000306129456 0.011343000456690788 -0.005950000137090683
v -0.013544999994337559 -0.010499999858438969 0.007060999982059002
v -0.009762999601662159 0.010873000137507915 -0.0015800000401213765
f 3 2 1
f 4 1 2
f 5 3 1
f 6 1 4
f 6 5 1
f 7 4 2
f 7 2 8
f 2 9 8
f 3 9 2
f 3 5 10
f 9 3 10
f 4 7 11
f 4 11 12
f 6 4 12
f 10 5 13
f 6 14 5
f 5 14 13
f 6 12 15
f 15 14 6
f 17 16 7
f 11 7 16
f 7 8 17
f 8 9 18
f 19 8 18
f 8 19 17
f 18 9 20
f 21 20 9
f 21 9 22
f 10 22 9
f 13 22 10
f 23 11 16
f 23 24 11
f 24 12 11
f 12 25 15
f 12 26 25
f 24 26 12
f 27 22 13
f 28 27 13
f 14 28 13
f 29 14 15
f 31 14 30
f 29 30 14
f 14 31 28
f 15 32 29
f 15 25 32
f 16 19 33
f 19 16 17
f 34 23 16
f 34 16 33
f 18 36 35
f 19 18 37
f 18 35 37
f 36 18 20
f 37 33 19
f 20 38 36
f 21 38 20
f 40 39 21
f 41 21 39
f 42 38 21
f 21 22 43
f 21 43 40
f 21 41 42
f 43 22 27
f 44 24 23
f 23 34 44
f 24 44 26
f 32 25 45
f 26 45 25
f 44 45 26
f 27 47 46
f 43 27 46
f 47 27 28
f 28 31 47
f 30 29 32
f 30 48 31
f 48 30 32
f 50 31 49
f 48 49 31
f 47 31 50
f 48 32 51
f 45 51 32
f 52 33 37
f 33 53 34
f 33 54 53
f 33 52 54
f 55 44 34
f 53 55 34
f 35 52 37
f 35 56 52
f 57 56 35
f 35 36 57
f 36 58 57
f 58 36 38
f 38 59 58
f 59 38 42
f 39 40 60
f 60 41 39
f 40 43 46
f 46 61 40
f 62 60 40
f 61 62 40
f 48 42 41
f 60 62 41
f 62 49 41
f 49 48 41
f 42 64 63
f 42 48 64
f 42 63 59
f 44 55 45
f 55 51 45
f 46 47 50
f 61 46 50
f 51 64 48
f 49 61 50
f 62 61 49
f 53 65 51
f 64 51 65
f 51 55 53
f 52 56 54
f 54 65 53
f 54 56 66
f 65 54 66
f 56 57 67
f 66 56 67
f 68 67 57
f 68 57 58
f 58 70 69
f 69 68 58
f 70 58 59
f 59 71 70
f 72 59 63
f 59 72 71
f 74 63 73
f 63 74 72
f 64 73 63
f 64 65 73
f 65 66 73
f 66 74 73
f 72 74 66
f 75 72 66
f 66 67 75
f 76 75 67
f 76 67 68
f 77 76 68
f 77 68 69
f 70 77 69
f 78 70 71
f 79 70 78
f 70 79 80
f 80 77 70
f 78 71 81
f 81 71 72
f 72 75 78
f 81 72 78
f 78 75 82
f 76 82 75
f 76 77 83
f 83 82 76
f 84 83 77
f 84 77 80
f 78 82 79
f 79 82 85
f 85 80 79
f 86 80 85
f 87 80 86
f 88 80 87
f 80 89 84
f 89 80 88
f 90 85 82
f 83 90 82
f 91 90 83
f 92 91 83
f 92 83 84
f 84 93 92
f 84 89 93
f 85 90 86
f 94 86 90
f 94 87 86
f 95 87 94
f 96 88 87
f 96 87 97
f 95 97 87
f 98 89 88
f 96 98 88
f 89 99 93
f 89 98 100
f 100 99 89
f 101 90 91
f 94 90 101
f 91 92 93
f 102 91 93
f 101 91 103
f 91 102 103
f 102 93 104
f 104 93 105
f 105 93 99
f 101 95 94
f 103 106 95
f 103 95 101
f 97 95 107
f 95 106 107
f 97 108 96
f 96 109 98
f 108 109 96
f 108 97 107
f 110 98 109
f 100 98 110
f 105 99 111
f 99 100 112
f 111 99 113
f 115 99 114
f 99 112 114
f 113 99 116
f 115 116 99
f 117 112 100
f 117 100 110
f 102 104 118
f 103 102 118
f 106 103 119
f 103 118 120
f 103 120 119
f 104 105 118
f 105 111 121
f 118 105 121
f 106 122 107
f 122 106 123
f 119 123 106
f 122 108 107
f 108 124 109
f 125 124 108
f 125 108 126
f 122 126 108
f 109 117 110
f 109 127 117
f 109 124 128
f 127 109 129
f 128 129 109
f 111 113 130
f 121 111 130
f 114 112 131
f 131 112 132
f 117 132 112
f 113 116 130
f 115 114 131
f 134 133 115
f 115 131 135
f 115 136 116
f 134 115 135
f 136 115 133
f 116 136 130
f 127 137 117
f 138 117 137
f 132 117 138
f 120 118 121
f 123 119 139
f 119 120 139
f 141 140 120
f 139 120 140
f 120 121 141
f 121 130 141
f 126 122 142
f 143 142 122
f 143 122 144
f 123 144 122
f 146 145 123
f 147 123 145
f 123 147 144
f 123 148 146
f 123 139 140
f 123 140 148
f 125 149 124
f 124 149 128
f 126 150 125
f 149 125 150
f 151 126 142
f 126 151 150
f 137 127 152
f 127 129 152
f 149 153 128
f 128 153 154
f 128 154 129
f 155 129 154
f 129 155 152
f 141 130 136
f 135 131 156
f 132 138 131
f 156 131 138
f 158 133 157
f 133 158 159
f 133 134 157
f 133 159 160
f 136 133 160
f 135 161 134
f 162 134 161
f 157 134 162
f 135 156 163
f 135 163 161
f 136 164 141
f 164 136 160
f 152 165 137
f 165 138 137
f 138 165 166
f 166 156 138
f 141 148 140
f 148 141 164
f 167 151 142
f 167 142 143
f 144 167 143
f 167 144 168
f 144 147 168
f 145 170 169
f 145 146 170
f 145 169 171
f 147 145 171
f 146 159 170
f 159 146 148
f 168 147 171
f 159 148 160
f 148 164 160
f 149 150 172
f 153 149 172
f 151 173 150
f 150 175 174
f 175 150 173
f 150 174 172
f 176 173 151
f 176 151 167
f 155 165 152
f 177 153 172
f 153 177 154
f 154 177 178
f 178 179 154
f 179 155 154
f 180 155 179
f 155 180 165
f 156 181 163
f 181 156 166
f 182 157 162
f 158 157 182
f 159 158 183
f 182 184 158
f 185 183 158
f 158 184 185
f 159 183 170
f 161 186 162
f 161 187 186
f 187 161 181
f 163 181 161
f 177 182 162
f 177 162 186
f 166 165 180
f 188 166 180
f 189 166 188
f 190 181 166
f 166 189 190
f 192 191 167
f 171 192 167
f 167 168 171
f 176 167 175
f 191 175 167
f 170 185 169
f 192 171 169
f 169 185 192
f 185 170 183
f 174 193 172
f 172 193 177
f 175 173 176
f 193 174 191
f 191 174 175
f 177 184 182
f 178 177 186
f 184 177 193
f 180 178 188
f 180 179 178
f 188 178 194
f 195 178 186
f 195 194 178
f 181 190 196
f 181 196 187
f 185 184 197
f 191 197 184
f 184 193 191
f 192 185 197
f 187 195 186
f 196 198 187
f 195 187 198
f 198 188 194
f 188 198 189
f 196 189 198
f 189 196 190
f 197 191 192
f 195 198 194
