# Generated by Visualization Toolkit
v -0.009356999769806862 -0.010036000050604343 0.00785600021481514
v -0.010112999938428402 -0.010627999901771545 0.012292999774217606
v -0.005750999785959721 -0.012392999604344368 0.009177000261843204
v -0.009587000124156475 -0.008685999549925327 0.0048870001919567585
v -0.0010420000180602074 -0.013202999718487263 0.007969999685883522
v 0.004925999790430069 -0.01332900021225214 0.007780000101774931
v -0.005392000079154968 -0.011931000277400017 0.004383999854326248
v -0.0006880000000819564 -0.012640999630093575 0.0036230001132935286
v 0.006211999803781509 -0.00991899985820055 0.0016060000052675605
v -0.009775999933481216 -0.007220999803394079 0.002899999963119626
v -0.006988999899476767 -0.010852999985218048 0.0026740001048892736
v -0.009685000404715538 -0.006639000028371811 0.0009250000002793968
v -0.006101000122725964 -0.011526999995112419 0.0003549999964889139
v -0.0016319999704137444 -0.012749000452458858 -0.00004099999932805076
v 0.0031679999083280563 -0.012140000239014626 -0.000014000000192027073
v -0.010966000147163868 -0.007763999979943037 -0.002188999904319644
v -0.007739999797195196 -0.011973000131547451 -0.002722000004723668
v -0.003865000093355775 -0.014444000087678432 -0.003771000076085329
v 0.00022699999681208283 -0.01539199985563755 -0.004437999799847603
v 0.0037350000347942114 -0.017103999853134155 -0.007017000112682581
v -0.013732999563217163 -0.009488999843597412 -0.0056489999406039715
v -0.011323000304400921 -0.012143000029027462 -0.005843000020831823
v -0.0066639999859035015 -0.01566999964416027 -0.00723800016567111
v -0.004120999947190285 -0.016919000074267387 -0.007896999828517437
v 0.0021279999054968357 -0.017355000600218773 -0.010677999816834927
v -0.010228999890387058 0.011257000267505646 0.008116000331938267
v -0.016565000638365746 0.009457999840378761 0.008913000114262104
v -0.022600000724196434 0.0001500000071246177 0.00877899955958128
v -0.019672000780701637 -0.005675000138580799 0.008803999982774258
v -0.014883999712765217 -0.011750999838113785 0.01115499995648861
v -0.011490000411868095 -0.014189999550580978 0.014937000349164009
v -0.015355999581515789 0.008150000125169754 0.010269000194966793
v -0.016029000282287598 0.00330700003542006 0.011049999855458736
v -0.014179999940097332 -0.0024939998984336853 0.010495999827980995
v -0.011122999712824821 -0.006936999969184399 0.008267000317573547
v -0.011660000309348106 0.005528000183403492 0.006180999800562859
v -0.012462999671697617 -0.00014400000509340316 0.005497000180184841
v -0.011780999600887299 -0.004515999928116798 0.005016000010073185
v -0.010900000110268593 -0.007065999787300825 0.004912999924272299
v -0.0071000000461936 0.011211000382900238 0.004532000049948692
v -0.009296000003814697 0.0076419999822974205 0.0028840000741183758
v -0.011010999791324139 0.00431900005787611 0.0024389999452978373
v -0.01203600037842989 0.0007489999989047647 0.00266700005158782
v -0.012136000208556652 -0.002560999942943454 0.002979000099003315
v -0.005171000026166439 0.010976999998092651 0.00010299999848939478
v -0.008128000423312187 0.0074800001457333565 0.00006600000051548705
v -0.010493000037968159 0.004523000214248896 0.0001539999939268455
v -0.011811000294983387 0.0006309999735094607 0.00020799999765586108
v -0.011982999742031097 -0.00228599994443357 0.00020199999562464654
v -0.006963999941945076 0.010672000236809254 -0.006821000017225742
v -0.008967000059783459 0.00776199996471405 -0.004900999832898378
v -0.011210000142455101 0.004317999817430973 -0.004404000006616116
v -0.01269800029695034 0.00033000000985339284 -0.003140999935567379
v -0.013221999630331993 -0.004129999782890081 -0.004468000028282404
v -0.011416999623179436 0.010027999989688396 -0.011276000179350376
v -0.013547999784350395 0.004898999817669392 -0.009863000363111496
v -0.014871000312268734 0.00042100000428035855 -0.008549000136554241
v -0.01475400011986494 -0.002770999912172556 -0.00801599957048893
v -0.015062999911606312 -0.0062859999015927315 -0.007029999978840351
v -0.015003999695181847 0.005051000043749809 -0.014065999537706375
v -0.01559399999678135 0.0010179999517276883 -0.013027999550104141
v -0.01572299934923649 -0.0031739999540150166 -0.011095000430941582
v -0.01700199954211712 -0.005547999870032072 -0.010122000239789486
v -0.017284000292420387 -0.008047999814152718 -0.00829899962991476
v -0.01654299907386303 -0.010502000339329243 -0.00800000037997961
v -0.021637000143527985 0.0016400000313296914 -0.012486999854445457
v -0.02480199933052063 -0.006831000093370676 -0.008612999692559242
v -0.01726900041103363 0.0090549997985363 -0.010982999578118324
v -0.025203999131917953 -0.000674000009894371 -0.01092899963259697
v -0.01627800054848194 0.011982999742031097 -0.006461000069975853
v -0.026910999789834023 0.0029440000653266907 -0.009452000260353088
v -0.028320999816060066 0.006335999816656113 -0.003633999964222312
v -0.016318999230861664 0.012145999819040298 -0.0014090000186115503
v -0.026861000806093216 0.006068999879062176 -0.000547999981790781
v -0.017285000532865524 0.011343000456690788 0.0032550001051276922
v -0.025526000186800957 0.0043020001612603664 0.003452999982982874
v -0.01317800022661686 0.010487999767065048 0.00974200014024973
v -0.02726300060749054 -0.023614000529050827 0.007712999824434519
v -0.026833999902009964 -0.017931999638676643 0.0032099999953061342
v -0.027201000601053238 -0.016894999891519547 0.007714000064879656
v -0.026110000908374786 -0.01065600011497736 -0.0034169999416917562
v -0.027814000844955444 -0.009127999655902386 -0.000838999985717237
v -0.02765199914574623 -0.007253000047057867 0.00392200006172061
v -0.025039000436663628 -0.008616999723017216 0.00939099956303835
v -0.015258999541401863 -0.04730900004506111 0.022130999714136124
v -0.015519999898970127 -0.03912600129842758 0.02077299915254116
v -0.013654000125825405 -0.03400300070643425 0.02016500011086464
v -0.011509999632835388 -0.026965999975800514 0.018995000049471855
v -0.01107999961823225 -0.019733000546693802 0.01822900027036667
v -0.01126100029796362 -0.01695300079882145 0.01707500033080578
v -0.024555999785661697 -0.04785199835896492 0.01853499934077263
v -0.02560799941420555 -0.042736999690532684 0.016367999836802483
v -0.026040000841021538 -0.03887899965047836 0.014619000256061554
v -0.027055000886321068 -0.03226599842309952 0.011806000024080276
v -0.00927599985152483 -0.04971399903297424 0.007927999831736088
v -0.01938300020992756 -0.05063699930906296 0.01001800037920475
v -0.008957999758422375 -0.015084999613463879 -0.012606999836862087
v -0.008340000174939632 -0.022539999336004257 -0.01090100035071373
v -0.007114999927580357 -0.026690000668168068 -0.004722000099718571
v -0.008485999889671803 -0.03512899950146675 0.0004900000058114529
v -0.009267999790608883 -0.04235300049185753 0.0036720000207424164
v -0.018624000251293182 -0.018964000046253204 -0.0010870000114664435
v -0.019742999225854874 -0.029312999919056892 0.0024049999192357063
v -0.019500000402331352 -0.03578000143170357 0.004815000109374523
v -0.020181000232696533 -0.04250200092792511 0.007588000036776066
v -0.007814999669790268 -0.049835000187158585 0.01459100004285574
v -0.006138000171631575 -0.0405689999461174 0.009859000332653522
v -0.004792000167071819 -0.032287001609802246 0.008138000033795834
v -0.0034580000210553408 -0.025769999250769615 0.00952600035816431
v -0.0004839999892283231 -0.02174299955368042 0.011657999828457832
v -0.003871999913826585 -0.023346999660134315 0.01298299990594387
v -0.007166000083088875 -0.022235000506043434 0.014585999771952629
v -0.009093999862670898 -0.0361890010535717 0.01450399961322546
v 0.002050000010058284 -0.017994999885559082 0.00999400019645691
v -0.005836000200361013 -0.01798900030553341 0.010815000161528587
v -0.003148999996483326 -0.023945000022649765 0.0018980000168085098
v -0.006957000121474266 -0.038474999368190765 0.0053610000759363174
v -0.0022060000337660313 -0.022298000752925873 -0.007160000037401915
v -0.0005699999746866524 -0.020323999226093292 -0.0021349999587982893
v 0.0011699999449774623 -0.019370000809431076 0.0009790000040084124
v -0.011115999892354012 -0.07182099670171738 0.012424999848008156
v -0.020547999069094658 -0.07126100361347198 0.017356999218463898
v -0.022393999621272087 -0.07218299806118011 0.024932000786066055
v -0.014015000313520432 -0.07073300331830978 0.025699999183416367
v -0.007666000165045261 -0.06912499666213989 0.0255769994109869
v -0.009599000215530396 -0.07074400037527084 0.018446000292897224
v 0.009410000406205654 -0.24367600679397583 0.043255001306533813
v 0.012916999869048595 -0.24160200357437134 0.0466650016605854
v 0.008287999778985977 -0.24027200043201447 0.04075299948453903
v 0.012822000309824944 -0.23601900041103363 0.044891998171806335
v 0.012263000011444092 -0.2409839928150177 0.05121999979019165
v 0.014062999747693539 -0.23346400260925293 0.05031299963593483
v 0.009751000441610813 -0.24150800704956055 0.05418400093913078
v 0.01017799973487854 -0.23555700480937958 0.05504399910569191
v 0.006771999876946211 -0.2425210028886795 0.05326500162482262
v 0.004298999905586243 -0.24330799281597137 0.05050700157880783
v 0.004889000207185745 -0.23758600652217865 0.05611100047826767
v 0.00031800000579096377 -0.24417899549007416 0.04940799996256828
v 0.001133000012487173 -0.23927700519561768 0.052473001182079315
v -0.0008030000026337802 -0.2455510050058365 0.04969700053334236
v -0.0024689999409019947 -0.24757899343967438 0.048385001718997955
v -0.006014999933540821 -0.24188999831676483 0.04867599904537201
v -0.004182999953627586 -0.24611499905586243 0.0460439994931221
v -0.001943000010214746 -0.24198299646377563 0.044509001076221466
v -0.0013920000055804849 -0.24493800103664398 0.045708999037742615
v 0.0006719999946653843 -0.24164800345897675 0.04194999858736992
v -0.00011899999663000926 -0.2438659965991974 0.044798001646995544
v 0.003664999967440963 -0.2435470074415207 0.04299699887633324
v 0.00853700004518032 -0.24065400660037994 0.040980998426675797
v 0.00919399969279766 -0.2437870055437088 0.043480999767780304
v 0.0024999999441206455 -0.24407300353050232 0.046852998435497284
v 0.0031240000389516354 -0.2254820019006729 0.03998899832367897
v 0.005034000147134066 -0.23286600410938263 0.04070800170302391
v 0.007102999836206436 -0.2230760008096695 0.04348300024867058
v 0.010181000456213951 -0.23047900199890137 0.04473600164055824
v 0.006682000122964382 -0.22125600278377533 0.046858999878168106
v 0.010114000178873539 -0.22992299497127533 0.04933499917387962
v 0.0010489999549463391 -0.22210000455379486 0.04826800152659416
v 0.004540999885648489 -0.22954000532627106 0.05233899876475334
v -0.000155999994603917 -0.23257699608802795 0.05001800134778023
v -0.0035840000491589308 -0.224031001329422 0.04597700014710426
v -0.004004000220447779 -0.23344799876213074 0.04829299822449684
v -0.0036669999826699495 -0.2249850034713745 0.04236700013279915
v -0.004509999882429838 -0.2348410040140152 0.04379500076174736
v -0.0008370000286959112 -0.2259490042924881 0.03897500038146973
v -0.0011060000397264957 -0.234265998005867 0.04038099944591522
v 0.002966000000014901 -0.22578799724578857 0.04030599817633629
v 0.0045380000956356525 -0.23279300332069397 0.0410659983754158
v 0.000011000000085914508 -0.1878110021352768 0.0314520001411438
v 0.002274000085890293 -0.21374699473381042 0.03719799965620041
v 0.0031419999431818724 -0.18756599724292755 0.034797001630067825
v 0.005377000197768211 -0.2124129980802536 0.03972399979829788
v 0.0035800000187009573 -0.1871650069952011 0.04038099944591522
v 0.0053090001456439495 -0.21186499297618866 0.04365300014615059
v -0.0040259999223053455 -0.188058003783226 0.04009599983692169
v -0.0006419999990612268 -0.21191799640655518 0.04585700109601021
v -0.0047079999931156635 -0.21291400492191315 0.04323999956250191
v -0.008311999961733818 -0.18918299674987793 0.036361999809741974
v -0.00394000019878149 -0.21392999589443207 0.03842100128531456
v -0.006101000122725964 -0.18818800151348114 0.032632000744342804
v -0.0016370000084862113 -0.2143159955739975 0.03582699969410896
v -0.000029999999242136255 -0.18722400069236755 0.030549999326467514
v 0.0022169998846948147 -0.21354900300502777 0.03733000159263611
v -0.007424000184983015 -0.13940200209617615 0.02224699966609478
v -0.003628999926149845 -0.16205599904060364 0.026291999965906143
v -0.0008249999955296516 -0.1629129946231842 0.031307000666856766
v -0.0030300000216811895 -0.13913600146770477 0.02876400016248226
v 0.001183000043965876 -0.16250300407409668 0.03755899891257286
v -0.0005290000117383897 -0.1381170004606247 0.03317299857735634
v -0.006564000155776739 -0.16400699317455292 0.037147000432014465
v -0.008696000091731548 -0.1393440067768097 0.03307199850678444
v -0.012078999541699886 -0.1648010015487671 0.03412799909710884
v -0.013992000371217728 -0.1400119960308075 0.030944999307394028
v -0.009909000247716904 -0.163224995136261 0.029048999771475792
v -0.013352000154554844 -0.13903500139713287 0.025877000764012337
v -0.0034439999144524336 -0.1621450036764145 0.026203999295830727
v -0.007482000160962343 -0.13920700550079346 0.022154999896883965
v -0.01079300045967102 -0.09970399737358093 0.016769999638199806
v -0.008779999800026417 -0.11907599866390228 0.019881999120116234
v -0.005038000177592039 -0.11846199631690979 0.02559100091457367
v -0.0066019999794662 -0.09905499964952469 0.0229250006377697
v -0.0019020000472664833 -0.1174829974770546 0.0314750000834465
v -0.003527000080794096 -0.09718099981546402 0.02857399918138981
v -0.008729999884963036 -0.11861799657344818 0.0318170003592968
v -0.011009999550879002 -0.09785299748182297 0.029224000871181488
v -0.016496999189257622 -0.11912699788808823 0.03103500045835972
v -0.01907999999821186 -0.09846100211143494 0.0300539992749691
v -0.016150999814271927 -0.11917299777269363 0.02571200020611286
v -0.018081000074744225 -0.09968999773263931 0.023002000525593758
v -0.008848000317811966 -0.11937200278043747 0.020601000636816025
v -0.010327000170946121 -0.09996899962425232 0.01721999980509281
v -0.011079000309109688 -0.0717260017991066 0.011842000298202038
vn 0.4589160084724426 0.7356979846954346 0.49814000725746155
vn 0.6465460062026978 0.4771629869937897 0.595225989818573
vn 0.4603860080242157 0.5748670101165771 0.6764410138130188
vn 0.6477739810943604 0.7412829995155334 0.1757490038871765
vn 0.20394699275493622 0.6310139894485474 0.7484840154647827
vn 0.5149270296096802 0.6880319714546204 0.5113329887390137
vn 0.3640440106391907 0.9209989905357361 -0.13867899775505066
vn -0.025867000222206116 0.997672975063324 0.06308600306510925
vn 0.8006119728088379 0.5117899775505066 -0.31159499287605286
vn 0.798471987247467 0.5199530124664307 0.30346599221229553
vn 0.565093994140625 0.8175150156021118 0.11107400059700012
vn 0.8339200019836426 0.5392150282859802 -0.11736799776554108
vn 0.5093690156936646 0.8106449842453003 -0.28878700733184814
vn 0.1064239963889122 0.9444159865379333 -0.31105101108551025
vn -0.19738900661468506 0.8844889998435974 -0.42274901270866394
vn 0.7205619812011719 0.40258699655532837 -0.5645480155944824
vn 0.5275830030441284 0.6782199740409851 -0.5115410089492798
vn 0.24727199971675873 0.8381869792938232 -0.4861049950122833
vn 0.05753599852323532 0.8923220038414001 -0.4477179944515228
vn 0.8462100028991699 0.1831829994916916 -0.5003730058670044
vn 0.6613439917564392 0.22235900163650513 -0.7163659930229187
vn 0.48360198736190796 0.612276017665863 -0.6254969835281372
vn 0.4012170135974884 0.8331090211868286 -0.38072800636291504
vn 0.18812300264835358 0.9478359818458557 -0.25732800364494324
vn 0.5417600274085999 0.41097500920295715 -0.7332090139389038
vn 0.3770020008087158 0.589443027973175 0.7144410014152527
vn -0.4648979902267456 0.6671000123023987 0.5821059942245483
vn -0.24229000508785248 0.3577060103416443 0.9018549919128418
vn 0.27131199836730957 0.10655800253152847 0.9565749764442444
vn 0.6425219774246216 0.6655319929122925 0.3797779977321625
vn 0.40522000193595886 0.6163219809532166 0.6752369999885559
vn 0.3533500134944916 0.0754150003194809 0.9324470162391663
vn 0.3133409917354584 0.147038996219635 0.9381880164146423
vn 0.530830979347229 0.0939050018787384 0.8422589898109436
vn 0.6709510087966919 0.39466801285743713 0.6277430057525635
vn 0.8067190051078796 -0.32285499572753906 0.4949429929256439
vn 0.9171379804611206 -0.07554499804973602 0.3913460075855255
vn 0.9614009857177734 0.1800130009651184 0.2080959975719452
vn 0.8519399762153625 0.47648200392723083 0.21716900169849396
vn 0.7672320008277893 0.4157480001449585 0.4883739948272705
vn 0.7808359861373901 -0.5203139781951904 0.3457860052585602
vn 0.9286680221557617 -0.3292990028858185 0.17069800198078156
vn 0.994629979133606 -0.09227000176906586 0.0468670018017292
vn 0.9549509882926941 0.27316901087760925 0.11596599966287613
vn 0.9190930128097534 0.39226698875427246 -0.03734400123357773
vn 0.7780910134315491 -0.619858980178833 0.10173500329256058
vn 0.8861709833145142 -0.46150198578834534 0.041430000215768814
vn 0.9821230173110962 -0.17974799871444702 -0.055897001177072525
vn 0.9735599756240845 0.17770999670028687 -0.1435289978981018
vn 0.8632940053939819 0.07612200081348419 -0.4989269971847534
vn 0.7790480256080627 -0.576295018196106 -0.2469159960746765
vn 0.8651540279388428 -0.4446539878845215 -0.23193100094795227
vn 0.935912013053894 -0.2047940045595169 -0.28658100962638855
vn 0.8793299794197083 0.07764600217342377 -0.46984100341796875
vn 0.5763610005378723 0.32941699028015137 -0.747859001159668
vn 0.8596289753913879 -0.4082689881324768 -0.3071720004081726
vn 0.8982149958610535 -0.3154909908771515 -0.30606400966644287
vn 0.8375139832496643 -0.23413899540901184 -0.4937100112438202
vn 0.7347319722175598 -0.04943599924445152 -0.6765540242195129
vn 0.04471400007605553 0.1466049998998642 -0.9881839752197266
vn 0.5921649932861328 -0.37286001443862915 -0.7143639922142029
vn 0.5763350129127502 -0.4653570055961609 -0.6717740297317505
vn 0.5902690291404724 -0.4532789885997772 -0.6679229736328125
vn 0.42694899439811707 -0.29271501302719116 -0.855588972568512
vn 0.29065999388694763 0.17492499947547913 -0.9407010078430176
vn -0.42913299798965454 -0.048695001751184464 -0.9019280076026917
vn -0.33859899640083313 -0.382423996925354 -0.8597109913825989
vn -0.4425469934940338 0.5836039781570435 -0.6808509826660156
vn -0.6849629878997803 -0.003338000038638711 -0.7285709977149963
vn -0.2107979953289032 0.9047049880027771 -0.37023401260375977
vn -0.7274489998817444 0.23747800290584564 -0.6437559723854065
vn -0.8541470170021057 0.5200290083885193 0.0018520000157877803
vn -0.20645900070667267 0.9755060076713562 0.07591799646615982
vn -0.7175469994544983 0.5989500284194946 0.3555069863796234
vn -0.33256998658180237 0.9124580025672913 0.23836499452590942
vn -0.7534019947052002 0.4188379943370819 0.5069119930267334
vn -0.27887699007987976 0.9589250087738037 -0.05187400057911873
vn -0.9891579747200012 -0.10360000282526016 0.10408800095319748
vn -0.8209409713745117 -0.29881399869918823 -0.4865860044956207
vn -0.8810089826583862 0.041940998286008835 0.471235990524292
vn -0.7511209845542908 -0.4055519998073578 -0.5209069848060608
vn -0.966418981552124 -0.15001100301742554 -0.20864099264144897
vn -0.9441900253295898 0.1096469983458519 0.31061699986457825
vn -0.6196359992027283 0.23428000509738922 0.7491090297698975
vn 0.14658500254154205 0.20913000404834747 0.9668390154838562
vn 0.022773999720811844 0.15526099503040314 0.9876109957695007
vn 0.011068999767303467 0.14623099565505981 0.9891890287399292
vn -0.0853630006313324 0.20524999499320984 0.9749799966812134
vn 0.2749220132827759 0.1794860064983368 0.9445649981498718
vn 0.09749700129032135 0.41227900981903076 0.9058259725570679
vn -0.8458899855613708 0.031235000118613243 0.5324419736862183
vn -0.9634130001068115 -0.012721000239253044 0.26771798729896545
vn -0.8987460136413574 0.06668700277805328 0.4333679974079132
vn -0.9966710209846497 -0.06398600339889526 -0.050515998154878616
vn 0.632345974445343 -0.31167998909950256 -0.7092210054397583
vn -0.5619840025901794 -0.30274099111557007 -0.7697550058364868
vn -0.05834700167179108 0.6459230184555054 -0.7611690163612366
vn -0.13587899506092072 -0.5793219804763794 -0.8036929965019226
vn 0.392661988735199 -0.7059360146522522 -0.5894659757614136
vn 0.14994500577449799 -0.4605090022087097 -0.8748990297317505
vn 0.22045199573040009 -0.4229559898376465 -0.8789250254631042
vn -0.5450990200042725 -0.41262099146842957 -0.7298020124435425
vn -0.5504059791564941 -0.3946110010147095 -0.7357550263404846
vn -0.5399119853973389 -0.32855498790740967 -0.7749500274658203
vn -0.6135720014572144 -0.31085699796676636 -0.7258769869804382
vn 0.9970059990882874 -0.03104100003838539 0.07082100212574005
vn 0.9838100075721741 -0.1293880045413971 0.12399999797344208
vn 0.9861249923706055 -0.15796999633312225 0.051024001091718674
vn 0.8698319792747498 -0.42159798741340637 0.25621598958969116
vn 0.6464430093765259 -0.19992700219154358 0.7363020181655884
vn 0.3831700086593628 0.20553800463676453 0.9005190134048462
vn 0.6065959930419922 0.1612119972705841 0.7784929871559143
vn 0.7713840007781982 -0.10786399990320206 0.6271610260009766
vn 0.7774069905281067 -0.32135599851608276 0.540710985660553
vn 0.4489719867706299 0.37480100989341736 0.8111410140991211
vn 0.8144670128822327 -0.5565009713172913 -0.16416600346565247
vn 0.8906310200691223 -0.3316119909286499 -0.31114399433135986
vn 0.5762540102005005 -0.7755460143089294 -0.25780001282691956
vn 0.746491014957428 -0.6640859842300415 -0.041728001087903976
vn 0.8144879937171936 -0.5689030289649963 -0.11383599787950516
vn 0.5893660187721252 -0.1660030037164688 -0.7906270027160645
vn -0.7672950029373169 -0.1884170025587082 -0.6129900217056274
vn -0.9217929840087891 -0.003920000046491623 0.38766399025917053
vn -0.09353800117969513 0.1606930047273636 0.9825620055198669
vn 0.6501070261001587 0.1756329983472824 0.7392659783363342
vn 0.9582459926605225 -0.031069999560713768 -0.2842540144920349
vn 0.6349520087242126 -0.7464240193367004 -0.1992190033197403
vn 0.7856810092926025 -0.5946900248527527 -0.1704380065202713
vn 0.6621379852294922 0.013291999697685242 -0.7492640018463135
vn 0.9160490036010742 0.1716800034046173 -0.3624649941921234
vn 0.8045369982719421 -0.5395039916038513 0.22107599675655365
vn 0.8548979759216309 0.3025299906730652 0.4214560091495514
vn 0.5216450095176697 -0.6089829802513123 0.5975170135498047
vn 0.13639600574970245 0.08321599662303925 0.9871529936790466
vn -0.2128860056400299 -0.7132250070571899 0.6678249835968018
vn -0.033312998712062836 -0.8104619979858398 0.5848429799079895
vn -0.31300899386405945 -0.18299299478530884 0.931954026222229
vn 0.2372400015592575 -0.7174379825592041 0.6549800038337708
vn -0.3752579987049103 -0.14829300343990326 0.9149810075759888
vn 0.47872400283813477 -0.5421800017356873 0.681190013885498
vn -0.20398299396038055 -0.8047419786453247 0.5574780106544495
vn -0.976078987121582 -0.14175300300121307 0.16485199332237244
vn -0.2514980137348175 -0.6698390245437622 -0.6986160278320312
vn -0.5753870010375977 -0.2743929922580719 -0.7704790234565735
vn 0.0775739997625351 -0.7226619720458984 -0.6868339776992798
vn -0.1942339986562729 -0.47409799695014954 -0.8587809801101685
vn 0.10207799822092056 -0.8746910095214844 -0.47381100058555603
vn -0.052962999790906906 -0.8337270021438599 -0.5496320128440857
vn -0.0388059988617897 -0.41358500719070435 -0.909637987613678
vn 0.006200999952852726 -0.8656460046768188 -0.5006179809570312
vn 0.3044559955596924 -0.9524679780006409 -0.010537000373005867
vn 0.6651279926300049 -0.015867000445723534 -0.7465609908103943
vn 0.5821089744567871 0.14076699316501617 -0.800832986831665
vn 0.8210740089416504 0.08495000004768372 -0.5644649863243103
vn 0.81666100025177 0.3196620047092438 -0.4805000126361847
vn 0.8622320294380188 0.3541559875011444 0.3621169924736023
vn 0.7119759917259216 0.6009830236434937 0.36319500207901
vn -0.06391099840402603 0.32312801480293274 0.9441949725151062
vn 0.02474999986588955 0.5340660214424133 0.8450809717178345
vn -0.5402320027351379 0.21886999905109406 0.8125550150871277
vn -0.7494159936904907 0.12415499985218048 0.6503549814224243
vn -0.8332089781761169 0.19180500507354736 0.5186269879341125
vn -0.9751870036125183 -0.04845099896192551 -0.21601499617099762
vn -0.8762969970703125 -0.07516899704933167 -0.4758700132369995
vn -0.45883598923683167 -0.1903419941663742 -0.8678939938545227
vn -0.25634101033210754 -0.21071599423885345 -0.9433389902114868
vn 0.29998600482940674 -0.16700899600982666 -0.9392110109329224
vn 0.06233600154519081 -0.098191998898983 -0.9932129979133606
vn 0.7309150099754333 -0.059856001287698746 -0.679839015007019
vn 0.6855980157852173 -0.11186199635267258 -0.7193340063095093
vn 0.8740370273590088 0.014437999576330185 -0.48564401268959045
vn 0.9595289826393127 0.03919000178575516 -0.2788679897785187
vn 0.9208239912986755 0.14040400087833405 0.3638260066509247
vn 0.5784059762954712 0.253495991230011 0.7753620147705078
vn -0.2670780122280121 0.13398399949073792 0.9543150067329407
vn -0.20716500282287598 0.20487700402736664 0.9566130042076111
vn -0.9101799726486206 0.005446000024676323 0.4141780138015747
vn -0.9630100131034851 -0.08884400129318237 0.25440001487731934
vn -0.8701789975166321 -0.18953999876976013 -0.45482200384140015
vn -0.6791729927062988 -0.19578899443149567 -0.7073829770088196
vn -0.13273899257183075 -0.2369060069322586 -0.9624220132827759
vn -0.14843499660491943 -0.19728399813175201 -0.969044029712677
vn 0.3899399936199188 -0.19665199518203735 -0.8995969891548157
vn 0.845740020275116 0.022864000871777534 -0.5331050157546997
vn 0.8342090249061584 0.034026000648736954 -0.5503969788551331
vn 0.9241939783096313 0.06928999722003937 -0.37558498978614807
vn 0.8685600161552429 0.006912000011652708 -0.4955349862575531
vn 0.8001760244369507 0.1494079977273941 0.5808579921722412
vn 0.8455229997634888 0.14079000055789948 0.5150430202484131
vn -0.31598299741744995 0.09921099990606308 0.9435629844665527
vn -0.21663199365139008 0.09318599849939346 0.9717959761619568
vn -0.9496250152587891 -0.0723159983754158 0.3049289882183075
vn -0.8669999837875366 -0.06342899799346924 0.49425598978996277
vn -0.6952229738235474 -0.19081999361515045 -0.6930019855499268
vn -0.8187659978866577 -0.16971099376678467 -0.5484700202941895
vn -0.4225560128688812 -0.20626300573349 -0.8825539946556091
vn -0.5456910133361816 -0.14112800359725952 -0.8260170221328735
vn 0.831043004989624 -0.029503000900149345 -0.5554260015487671
vn 0.8341180086135864 -0.004550000187009573 -0.5398489832878113
vn 0.8561990261077881 0.003378999885171652 -0.516635000705719
vn 0.8822929859161377 -0.000155999994603917 -0.4707010090351105
vn 0.860023021697998 0.1001409962773323 0.5003319978713989
vn 0.848110020160675 0.1531350016593933 0.5072069764137268
vn -0.07507599890232086 0.08215200155973434 0.9937880039215088
vn 0.03653300181031227 0.11454399675130844 0.9927459955215454
vn -0.7491570115089417 -0.05587200075387955 0.6600310206413269
vn -0.7357919812202454 -0.003636999987065792 0.6771969795227051
vn -0.8558989763259888 -0.13553300499916077 -0.49906599521636963
vn -0.8410580158233643 -0.17077699303627014 -0.513280987739563
vn -0.5779330134391785 -0.1512639969587326 -0.8019430041313171
vn -0.5620070099830627 -0.1878730058670044 -0.8055139780044556
vn -0.5019130110740662 -0.17464600503444672 -0.8471019864082336
f 2//2 3//3 1//1
f 5//5 4//4 1//1
f 3//3 5//5 1//1
f 5//5 6//6 4//4
f 6//6 7//7 4//4
f 6//6 8//8 7//7
f 6//6 9//9 8//8
f 11//11 10//10 4//4
f 7//7 11//11 4//4
f 8//8 11//11 7//7
f 11//11 12//12 10//10
f 11//11 13//13 12//12
f 11//11 11//11 13//13
f 8//8 11//11 11//11
f 8//8 15//15 11//11
f 9//9 15//15 8//8
f 17//17 16//16 12//12
f 13//13 17//17 12//12
f 18//18 17//17 13//13
f 11//11 18//18 13//13
f 19//19 18//18 11//11
f 15//15 19//19 11//11
f 20//20 19//19 15//15
f 9//9 20//20 15//15
f 22//22 21//21 16//16
f 17//17 22//22 16//16
f 23//23 22//22 17//17
f 18//18 23//23 17//17
f 24//24 23//23 18//18
f 19//19 24//24 18//18
f 25//25 24//24 19//19
f 20//20 25//25 19//19
f 27//27 32//32 26//26
f 33//33 32//32 27//27
f 28//28 33//33 27//27
f 34//34 33//33 28//28
f 29//29 34//34 28//28
f 35//35 34//34 29//29
f 30//30 35//35 29//29
f 1//1 35//35 30//30
f 31//31 1//1 30//30
f 32//32 36//36 26//26
f 37//37 36//36 32//32
f 33//33 37//37 32//32
f 38//38 37//37 33//33
f 34//34 38//38 33//33
f 39//39 38//38 34//34
f 35//35 39//39 34//34
f 4//4 39//39 35//35
f 1//1 4//4 35//35
f 41//41 40//40 26//26
f 36//36 41//41 26//26
f 42//42 41//41 36//36
f 37//37 42//42 36//36
f 43//43 42//42 37//37
f 38//38 43//43 37//37
f 44//44 43//43 38//38
f 39//39 44//44 38//38
f 10//10 44//44 39//39
f 4//4 10//10 39//39
f 46//46 45//45 40//40
f 41//41 46//46 40//40
f 47//47 46//46 41//41
f 42//42 47//47 41//41
f 48//48 47//47 42//42
f 43//43 48//48 42//42
f 49//49 48//48 43//43
f 44//44 49//49 43//43
f 12//12 49//49 44//44
f 10//10 12//12 44//44
f 51//51 50//50 45//45
f 46//46 51//51 45//45
f 52//52 51//51 46//46
f 47//47 52//52 46//46
f 53//53 52//52 47//47
f 48//48 53//53 47//47
f 54//54 53//53 48//48
f 49//49 54//54 48//48
f 16//16 54//54 49//49
f 12//12 16//16 49//49
f 56//56 55//55 50//50
f 51//51 56//56 50//50
f 57//57 56//56 51//51
f 52//52 57//57 51//51
f 58//58 57//57 52//52
f 53//53 58//58 52//52
f 59//59 58//58 53//53
f 54//54 59//59 53//53
f 21//21 59//59 54//54
f 16//16 21//21 54//54
f 61//61 60//60 55//55
f 56//56 61//61 55//55
f 62//62 61//61 56//56
f 57//57 62//62 56//56
f 63//63 62//62 57//57
f 58//58 63//63 57//57
f 64//64 63//63 58//58
f 59//59 64//64 58//58
f 65//65 64//64 59//59
f 21//21 65//65 59//59
f 61//61 66//66 60//60
f 62//62 66//66 61//61
f 67//67 66//66 62//62
f 63//63 67//67 62//62
f 64//64 67//67 63//63
f 65//65 67//67 64//64
f 68//68 66//66 67//67
f 69//69 68//68 67//67
f 70//70 68//68 69//69
f 71//71 70//70 69//69
f 72//72 70//70 71//71
f 73//73 70//70 72//72
f 74//74 73//73 72//72
f 75//75 73//73 74//74
f 76//76 75//75 74//74
f 27//27 75//75 76//76
f 28//28 27//27 76//76
f 68//68 60//60 66//66
f 68//68 55//55 60//60
f 70//70 55//55 68//68
f 70//70 50//50 55//55
f 70//70 45//45 50//50
f 73//73 45//45 70//70
f 73//73 40//40 45//45
f 75//75 40//40 73//73
f 75//75 26//26 40//40
f 27//27 26//26 75//75
f 27//27 77//77 26//26
f 80//80 79//79 78//78
f 79//79 82//82 81//81
f 80//80 82//82 79//79
f 80//80 83//83 82//82
f 80//80 84//84 83//83
f 81//81 69//69 67//67
f 82//82 69//69 81//81
f 82//82 71//71 69//69
f 82//82 72//72 71//71
f 83//83 72//72 82//82
f 83//83 74//74 72//72
f 83//83 76//76 74//74
f 84//84 76//76 83//83
f 84//84 28//28 76//76
f 86//86 91//91 85//85
f 86//86 92//92 91//91
f 87//87 92//92 86//86
f 87//87 93//93 92//92
f 88//88 93//93 87//87
f 88//88 94//94 93//93
f 88//88 78//78 94//94
f 89//89 78//78 88//88
f 89//89 80//80 78//78
f 90//90 80//80 89//89
f 90//90 84//84 80//80
f 31//31 84//84 90//90
f 31//31 28//28 84//84
f 30//30 28//28 31//31
f 30//30 29//29 28//28
f 102//102 65//65 97//97
f 98//98 102//102 97//97
f 103//103 102//102 98//98
f 99//99 103//103 98//98
f 104//104 103//103 99//99
f 100//100 104//104 99//99
f 105//105 104//104 100//100
f 101//101 105//105 100//100
f 96//96 105//105 101//101
f 95//95 96//96 101//101
f 102//102 67//67 65//65
f 102//102 81//81 67//67
f 102//102 79//79 81//81
f 103//103 79//79 102//102
f 103//103 78//78 79//79
f 104//104 78//78 103//103
f 104//104 94//94 78//78
f 105//105 94//94 104//104
f 105//105 93//93 94//94
f 105//105 92//92 93//93
f 96//96 92//92 105//105
f 96//96 91//91 92//92
f 106//106 113//113 85//85
f 107//107 113//113 106//106
f 108//108 113//113 107//107
f 109//109 113//113 108//108
f 110//110 113//113 109//109
f 111//111 113//113 110//110
f 112//112 113//113 111//111
f 89//89 113//113 112//112
f 88//88 113//113 89//89
f 87//87 113//113 88//88
f 86//86 113//113 87//87
f 85//85 113//113 86//86
f 85//85 113//113 106//106
f 5//5 115//115 6//6
f 3//3 115//115 5//5
f 2//2 115//115 3//3
f 31//31 115//115 2//2
f 90//90 115//115 31//31
f 89//89 115//115 90//90
f 112//112 115//115 89//89
f 111//111 115//115 112//112
f 110//110 115//115 111//111
f 114//114 115//115 110//110
f 6//6 115//115 114//114
f 95//95 117//117 106//106
f 101//101 117//117 95//95
f 100//100 117//117 101//101
f 99//99 117//117 100//100
f 116//116 117//117 99//99
f 110//110 117//117 116//116
f 109//109 117//117 110//110
f 108//108 117//117 109//109
f 107//107 117//117 108//108
f 106//106 117//117 107//107
f 106//106 117//117 95//95
f 98//98 118//118 99//99
f 25//25 118//118 98//98
f 97//97 25//25 98//98
f 119//119 116//116 99//99
f 118//118 119//119 99//99
f 20//20 119//119 118//118
f 25//25 20//20 118//118
f 119//119 120//120 116//116
f 9//9 120//120 119//119
f 20//20 9//9 119//119
f 114//114 110//110 116//116
f 120//120 114//114 116//116
f 6//6 114//114 120//120
f 9//9 6//6 120//120
f 96//96 95//95 121//121
f 122//122 96//96 121//121
f 91//91 96//96 122//122
f 123//123 91//91 122//122
f 124//124 91//91 123//123
f 85//85 91//91 124//124
f 125//125 85//85 124//124
f 106//106 85//85 125//125
f 126//126 106//106 125//125
f 95//95 106//106 126//126
f 121//121 95//95 126//126
f 129//129 128//128 127//127
f 130//130 128//128 129//129
f 130//130 131//131 128//128
f 132//132 131//131 130//130
f 132//132 133//133 131//131
f 134//134 133//133 132//132
f 134//134 135//135 133//133
f 134//134 136//136 135//135
f 137//137 136//136 134//134
f 137//137 138//138 136//136
f 139//139 138//138 137//137
f 139//139 140//140 138//138
f 139//139 141//141 140//140
f 142//142 141//141 139//139
f 142//142 143//143 141//141
f 144//144 143//143 142//142
f 144//144 145//145 143//143
f 146//146 145//145 144//144
f 146//146 147//147 145//145
f 146//146 148//148 147//147
f 149//149 148//148 146//146
f 149//149 150//150 148//148
f 128//128 151//151 127//127
f 131//131 151//151 128//128
f 133//133 151//151 131//131
f 135//135 151//151 133//133
f 136//136 151//151 135//135
f 138//138 151//151 136//136
f 140//140 151//151 138//138
f 141//141 151//151 140//140
f 143//143 151//151 141//141
f 145//145 151//151 143//143
f 147//147 151//151 145//145
f 148//148 151//151 147//147
f 150//150 151//151 148//148
f 154//154 153//153 152//152
f 154//154 155//155 153//153
f 156//156 155//155 154//154
f 156//156 157//157 155//155
f 158//158 157//157 156//156
f 158//158 159//159 157//157
f 158//158 160//160 159//159
f 161//161 160//160 158//158
f 161//161 162//162 160//160
f 163//163 162//162 161//161
f 163//163 164//164 162//162
f 165//165 164//164 163//163
f 165//165 166//166 164//164
f 167//167 166//166 165//165
f 167//167 168//168 166//166
f 155//155 129//129 153//153
f 155//155 130//130 129//129
f 157//157 130//130 155//155
f 157//157 132//132 130//130
f 159//159 132//132 157//157
f 159//159 134//134 132//132
f 159//159 137//137 134//134
f 160//160 137//137 159//159
f 160//160 139//139 137//137
f 162//162 139//139 160//160
f 162//162 142//142 139//139
f 164//164 142//142 162//162
f 164//164 144//144 142//142
f 166//166 144//144 164//164
f 166//166 146//146 144//144
f 168//168 146//146 166//166
f 168//168 149//149 146//146
f 171//171 170//170 169//169
f 171//171 172//172 170//170
f 173//173 172//172 171//171
f 173//173 174//174 172//172
f 175//175 174//174 173//173
f 175//175 176//176 174//174
f 175//175 177//177 176//176
f 178//178 177//177 175//175
f 178//178 179//179 177//177
f 180//180 179//179 178//178
f 180//180 181//181 179//179
f 182//182 181//181 180//180
f 182//182 183//183 181//181
f 154//154 152//152 170//170
f 172//172 154//154 170//170
f 156//156 154//154 172//172
f 174//174 156//156 172//172
f 158//158 156//156 174//174
f 176//176 158//158 174//174
f 161//161 158//158 176//176
f 177//177 161//161 176//176
f 163//163 161//161 177//177
f 179//179 163//163 177//177
f 165//165 163//163 179//179
f 181//181 165//165 179//179
f 167//167 165//165 181//181
f 183//183 167//167 181//181
f 186//186 185//185 184//184
f 187//187 186//186 184//184
f 188//188 186//186 187//187
f 189//189 188//188 187//187
f 190//190 188//188 189//189
f 191//191 190//190 189//189
f 192//192 190//190 191//191
f 193//193 192//192 191//191
f 194//194 192//192 193//193
f 195//195 194//194 193//193
f 196//196 194//194 195//195
f 197//197 196//196 195//195
f 171//171 169//169 185//185
f 186//186 171//171 185//185
f 173//173 171//171 186//186
f 188//188 173//173 186//186
f 175//175 173//173 188//188
f 190//190 175//175 188//188
f 178//178 175//175 190//190
f 192//192 178//178 190//190
f 180//180 178//178 192//192
f 194//194 180//180 192//192
f 182//182 180//180 194//194
f 196//196 182//182 194//194
f 200//200 199//199 198//198
f 201//201 200//200 198//198
f 202//202 200//200 201//201
f 203//203 202//202 201//201
f 204//204 202//202 203//203
f 205//205 204//204 203//203
f 206//206 204//204 205//205
f 207//207 206//206 205//205
f 208//208 206//206 207//207
f 209//209 208//208 207//207
f 210//210 208//208 209//209
f 211//211 210//210 209//209
f 187//187 184//184 199//199
f 200//200 187//187 199//199
f 189//189 187//187 200//200
f 202//202 189//189 200//200
f 191//191 189//189 202//202
f 204//204 191//191 202//202
f 193//193 191//191 204//204
f 206//206 193//193 204//204
f 195//195 193//193 206//206
f 208//208 195//195 206//206
f 197//197 195//195 208//208
f 210//210 197//197 208//208
f 201//201 198//198 121//121
f 126//126 201//201 121//121
f 203//203 201//201 126//126
f 125//125 203//203 126//126
f 205//205 203//203 125//125
f 124//124 205//205 125//125
f 207//207 205//205 124//124
f 123//123 207//207 124//124
f 209//209 207//207 123//123
f 122//122 209//209 123//123
f 211//211 209//209 122//122
f 212//212 211//211 122//122
f 22//22 65//65 21//21
f 23//23 65//65 22//22
f 97//97 65//65 23//23
f 24//24 97//97 23//23
f 25//25 97//97 24//24
